<svg width="32" height="32" viewBox="0 0 32 32" fill="none" xmlns="http://www.w3.org/2000/svg">
<circle cx="16" cy="16" r="16" fill="#F7F7F7"/>
<path d="M20.0266 12.8421C20.5062 12.8421 20.895 12.4533 20.895 11.9736C20.895 11.494 20.5062 11.1052 20.0266 11.1052C19.547 11.1052 19.1582 11.494 19.1582 11.9736C19.1582 12.4533 19.547 12.8421 20.0266 12.8421Z" fill="#C7C6C1"/>
<path d="M19.2368 8.5H12.7632C10.3947 8.5 8.5 10.3947 8.5 12.7632V19.2368C8.5 21.6053 10.3947 23.5 12.7632 23.5H19.2368C21.6053 23.5 23.5 21.6053 23.5 19.2368V12.7632C23.5 10.3947 21.5263 8.5 19.2368 8.5ZM22.0789 19.2368C22.0789 20.8158 20.8158 22.1579 19.1579 22.1579H12.7632C11.1842 22.1579 9.84211 20.8947 9.84211 19.2368V12.7632C9.84211 11.1842 11.1053 9.84211 12.7632 9.84211H19.2368C20.8158 9.84211 22.1579 11.1053 22.1579 12.7632V19.2368H22.0789Z" fill="#C7C6C1"/>
<path d="M15.9993 12.0525C13.8677 12.0525 12.1309 13.7893 12.1309 15.9209C12.1309 18.0525 13.8677 19.7893 15.9993 19.7893C18.1309 19.7893 19.8677 18.0525 19.8677 15.9209C19.8677 13.7893 18.1309 12.0525 15.9993 12.0525ZM15.9993 18.5262C14.5782 18.5262 13.473 17.4209 13.473 15.9999C13.473 14.5788 14.5782 13.4735 15.9993 13.4735C17.4203 13.4735 18.5256 14.5788 18.5256 15.9999C18.5256 17.4209 17.4203 18.5262 15.9993 18.5262Z" fill="#C7C6C1"/>
</svg>
