<svg width="32" height="32" viewBox="0 0 32 32" fill="none" xmlns="http://www.w3.org/2000/svg">
<circle cx="16" cy="16" r="16" fill="#F7F7F7"/>
<g clip-path="url(#clip0)">
<path d="M22.825 15.925C22.825 15.475 22.75 15.1 22.675 14.725H15.775V17.2H19.9C19.75 18.25 18.625 20.35 15.775 20.35C13.3 20.35 11.275 18.325 11.275 15.775C11.275 11.725 16.075 9.85 18.7 12.325L20.65 10.45C19.375 9.25 17.725 8.5 15.775 8.5C11.725 8.5 8.5 11.725 8.5 15.775C8.5 19.825 11.725 23.05 15.775 23.05C19.975 23.05 22.825 20.05 22.825 15.925Z" fill="#C7C6C1"/>
</g>
<defs>
<clipPath id="clip0">
<rect x="8.5" y="8.5" width="14.325" height="14.55" fill="white"/>
</clipPath>
</defs>
</svg>
