<svg width="28" height="28" viewBox="0 0 28 28" fill="none" xmlns="http://www.w3.org/2000/svg">
<g clip-path="url(#clip0)">
<path d="M14.6195 6.74701C14.6195 6.18476 14.1697 5.84741 13.7199 5.84741C13.1577 5.84741 12.8203 6.29721 12.8203 6.74701C12.8203 7.30926 13.2701 7.64661 13.7199 7.64661C14.1697 7.64661 14.6195 7.19681 14.6195 6.74701Z" fill="#9B3717"/>
<path d="M8.54554 17.4297C7.87084 17.4297 7.30859 17.9919 7.30859 18.6666C7.30859 19.3413 7.87084 19.9036 8.54554 19.9036C9.22024 19.9036 9.78249 19.3413 9.78249 18.6666C9.89494 17.9919 9.33269 17.4297 8.54554 17.4297Z" fill="#9B3717"/>
<path d="M9.67012 10.5702C9.67012 9.44574 8.77052 8.54614 7.64602 8.54614C6.52152 8.54614 5.73438 9.44574 5.73438 10.5702C5.73438 11.6947 6.63397 12.5943 7.75847 12.5943C8.88297 12.5943 9.67012 11.6947 9.67012 10.5702Z" fill="#9B3717"/>
<path d="M15.7439 22.7149C16.4892 22.7149 17.0933 22.1108 17.0933 21.3655C17.0933 20.6203 16.4892 20.0161 15.7439 20.0161C14.9987 20.0161 14.3945 20.6203 14.3945 21.3655C14.3945 22.1108 14.9987 22.7149 15.7439 22.7149Z" fill="#9B3717"/>
<path d="M21.3673 18.1044C22.2367 18.1044 22.9416 17.3996 22.9416 16.5301C22.9416 15.6606 22.2367 14.9558 21.3673 14.9558C20.4978 14.9558 19.793 15.6606 19.793 16.5301C19.793 17.3996 20.4978 18.1044 21.3673 18.1044Z" fill="#9B3717"/>
<path d="M14.6175 15.9679C15.1765 15.9679 15.6296 15.5148 15.6296 14.9559C15.6296 14.397 15.1765 13.9438 14.6175 13.9438C14.0586 13.9438 13.6055 14.397 13.6055 14.9559C13.6055 15.5148 14.0586 15.9679 14.6175 15.9679Z" fill="#9B3717"/>
<path d="M28 13.2691V12.3695H27.3253C25.9759 12.257 24.9639 11.1325 24.9639 9.89558V9.10843H24.1767C22.1526 8.99598 20.4659 7.42169 20.4659 5.28514C20.4659 5.06024 20.4659 4.83534 20.5783 4.61044L20.6908 3.82329L19.9036 3.71084C18.5542 3.48594 17.5422 2.36145 17.5422 1.01205V0.337349H16.8675C15.8554 0.11245 14.9558 0 14.0562 0C6.29719 0 0 6.29719 0 14.0562C0 21.8153 6.29719 28.1124 14.0562 28.1124C21.8153 28.1124 28.1124 21.8153 28.1124 14.0562C28 13.7189 28 13.494 28 13.2691ZM14.0562 26.4257C7.19679 26.4257 1.5743 20.8032 1.5743 13.9438C1.5743 7.08434 7.19679 1.46185 14.0562 1.46185C14.7309 1.46185 15.2932 1.46185 15.9679 1.5743C16.1928 3.14859 17.3173 4.49799 18.8916 4.94779C18.8916 5.06024 18.8916 5.06024 18.8916 5.17269C18.8916 7.87149 20.8032 10.008 23.3896 10.4578C23.7269 12.0321 24.8514 13.3815 26.5382 13.7189C26.5382 13.8313 26.5382 13.8313 26.5382 13.9438C26.4257 20.9157 20.9157 26.4257 14.0562 26.4257Z" fill="#9B3717"/>
</g>
<defs>
<clipPath id="clip0">
<path d="M0 0H28V28H0V0Z" fill="white"/>
</clipPath>
</defs>
</svg>
