<svg width="64" height="41" viewBox="0 0 64 41" fill="none" xmlns="http://www.w3.org/2000/svg">
<g clip-path="url(#clip0)">
<path d="M64 38.8036C64 40.0064 63.0303 41 61.8565 41H2.14354C0.969697 41 0 40.0064 0 38.8036V2.19643C0 0.993622 0.969697 0 2.14354 0H61.9075C63.0813 0 64.051 0.993622 64.051 2.19643V38.8036H64Z" fill="white"/>
<path d="M17.6074 41.0001H61.9073C63.0811 41.0001 64.0508 40.0065 64.0508 38.8037V23.481C59.7637 26.2003 43.7382 35.7182 17.6074 41.0001Z" fill="#F58220"/>
<path d="M32.7651 17.3098C30.9788 17.3098 29.5498 18.7218 29.5498 20.4476C29.5498 22.2779 30.9278 23.6899 32.7651 23.6899C34.5514 23.6899 35.9294 22.2779 35.9294 20.4999C35.9804 18.7218 34.6024 17.3098 32.7651 17.3098Z" fill="url(#paint0_radial)"/>
<path d="M14.6474 17.4146H12.9121V23.5332H14.5963C15.515 23.5332 16.1785 23.324 16.7399 22.801C17.4033 22.2258 17.8116 21.3367 17.8116 20.4477C17.8627 18.6697 16.5357 17.4146 14.6474 17.4146ZM16.0253 22.0166C15.6681 22.3827 15.1577 22.4873 14.4432 22.4873H14.137V18.4082H14.4432C15.2088 18.4082 15.6681 18.5651 16.0253 18.8788C16.4336 19.2449 16.6888 19.8202 16.6888 20.3954C16.6888 21.0753 16.4336 21.6505 16.0253 22.0166Z" fill="#001722"/>
<path d="M19.5977 17.4146H18.4238V23.5332H19.5977V17.4146Z" fill="#001722"/>
<path d="M22.4559 19.7678C21.7414 19.5063 21.5372 19.3494 21.5372 18.9833C21.5372 18.6173 21.8945 18.3035 22.4048 18.3035C22.7621 18.3035 23.0173 18.4604 23.3235 18.7742L23.9359 17.9374C23.4256 17.4668 22.8131 17.2576 22.1497 17.2576C21.0779 17.2576 20.2613 17.9897 20.2613 19.0356C20.2613 19.8724 20.6186 20.2907 21.7414 20.7091C22.2007 20.866 22.4559 20.9706 22.5579 21.0752C22.8131 21.2321 22.9152 21.4412 22.9152 21.7027C22.9152 22.2257 22.5069 22.5918 21.9965 22.5918C21.4351 22.5918 20.9758 22.3303 20.7206 21.755L19.9551 22.4872C20.5165 23.2716 21.1289 23.6377 22.0476 23.6377C23.2725 23.6377 24.089 22.8009 24.089 21.5981C24.1401 20.7091 23.7828 20.2907 22.4559 19.7678Z" fill="#001722"/>
<path d="M24.5479 20.5C24.5479 22.3304 25.9258 23.6901 27.7121 23.6901C28.2225 23.6901 28.6308 23.5855 29.1922 23.324V21.912C28.7329 22.3827 28.3246 22.5918 27.7632 22.5918C26.5893 22.5918 25.7727 21.7028 25.7727 20.5C25.7727 19.2972 26.6404 18.4082 27.7121 18.4082C28.2735 18.4082 28.6818 18.6174 29.1922 19.088V17.676C28.6818 17.4145 28.2735 17.31 27.7632 17.31C25.9258 17.2577 24.5479 18.7219 24.5479 20.5Z" fill="#001722"/>
<path d="M38.6347 21.5459L37.0015 17.4146H35.7256L38.2774 23.6901H38.9409L41.4927 17.4146H40.2168L38.6347 21.5459Z" fill="#001722"/>
<path d="M42.0547 23.5332H45.3721V22.5395H43.1775V20.8661H45.27V19.8202H43.1775V18.4605H45.3721V17.4146H42.0547V23.5332Z" fill="#001722"/>
<path d="M49.9647 19.2449C49.9647 18.0944 49.1992 17.4146 47.8212 17.4146H46.0859V23.5332H47.2598V21.0753H47.4639L49.0971 23.5332H50.5261L48.6378 20.9707C49.5054 20.8138 49.9647 20.1862 49.9647 19.2449ZM47.617 20.2385H47.2598V18.3559H47.617C48.3316 18.3559 48.7398 18.6697 48.7398 19.2449C48.7909 19.9248 48.3826 20.2385 47.617 20.2385Z" fill="#001722"/>
<path d="M50.7811 17.8852C50.7811 17.7806 50.73 17.7283 50.5769 17.7283H50.4238V18.2512H50.5259V18.042L50.679 18.2512H50.8321L50.679 18.042C50.7811 17.9898 50.7811 17.9375 50.7811 17.8852ZM50.5769 17.9375V17.7806C50.628 17.7806 50.679 17.7806 50.679 17.8329C50.679 17.9375 50.628 17.9375 50.5769 17.9375Z" fill="#231F20"/>
<path d="M50.6283 17.519C50.3731 17.519 50.1689 17.7282 50.1689 17.9897C50.1689 18.2512 50.3731 18.4604 50.6283 18.4604C50.8835 18.4604 51.0876 18.2512 51.0876 17.9897C51.0876 17.7282 50.8835 17.519 50.6283 17.519ZM50.6283 18.3558C50.4241 18.3558 50.271 18.1989 50.271 17.9897C50.271 17.7805 50.4241 17.6236 50.6283 17.6236C50.8324 17.6236 50.9855 17.7805 50.9855 17.9897C50.9855 18.1989 50.8324 18.3558 50.6283 18.3558Z" fill="#231F20"/>
</g>
<defs>
<radialGradient id="paint0_radial" cx="0" cy="0" r="1" gradientUnits="userSpaceOnUse" gradientTransform="translate(32.7851 20.501) scale(3.15458 3.23241)">
<stop offset="0.005618" stop-color="#FFEEE0"/>
<stop offset="0.1096" stop-color="#FEE9D7"/>
<stop offset="0.2793" stop-color="#FDDBBF"/>
<stop offset="0.4935" stop-color="#FBC597"/>
<stop offset="0.744" stop-color="#F8A560"/>
<stop offset="1" stop-color="#F48120"/>
</radialGradient>
<clipPath id="clip0">
<path d="M0 0H64V41H0V0Z" fill="white"/>
</clipPath>
</defs>
</svg>
