<svg width="18" height="22" viewBox="0 0 12 16" fill="none" xmlns="http://www.w3.org/2000/svg">
<path fill-rule="evenodd" clip-rule="evenodd" d="M0.585786 1.25253C0.960859 0.877462 1.46957 0.666748 2 0.666748H7.33333C7.51014 0.666748 7.67971 0.736986 7.80474 0.86201L11.8047 4.86201C11.9298 4.98703 12 5.1566 12 5.33341V13.3334C12 13.8638 11.7893 14.3726 11.4142 14.7476C11.0391 15.1227 10.5304 15.3334 10 15.3334H2C1.46957 15.3334 0.960859 15.1227 0.585786 14.7476C0.210714 14.3726 0 13.8638 0 13.3334V2.66675C0 2.13632 0.210714 1.62761 0.585786 1.25253ZM2 2.00008C1.82319 2.00008 1.65362 2.07032 1.5286 2.19534C1.40357 2.32037 1.33333 2.48994 1.33333 2.66675V13.3334C1.33333 13.5102 1.40357 13.6798 1.5286 13.8048C1.65362 13.9298 1.82319 14.0001 2 14.0001H10C10.1768 14.0001 10.3464 13.9298 10.4714 13.8048C10.5964 13.6798 10.6667 13.5102 10.6667 13.3334V5.60956L7.05719 2.00008H2Z" fill="#C7C6C1"/>
<path fill-rule="evenodd" clip-rule="evenodd" d="M7.33333 0.666748C7.70152 0.666748 8 0.965225 8 1.33341V4.66675H11.3333C11.7015 4.66675 12 4.96522 12 5.33341C12 5.7016 11.7015 6.00008 11.3333 6.00008H7.33333C6.96514 6.00008 6.66667 5.7016 6.66667 5.33341V1.33341C6.66667 0.965225 6.96514 0.666748 7.33333 0.666748Z" fill="#C7C6C1"/>
</svg>
