<svg width="72" height="72" viewBox="0 0 72 72" fill="none" xmlns="http://www.w3.org/2000/svg">
<circle cx="36" cy="36" r="36" fill="#F7F7F7"/>
<g clip-path="url(#clip0)">
<path d="M27.4935 40.0678H45.3117C45.6234 40.0678 45.8831 39.9101 45.987 39.6473L52.8961 25.982C53 25.7718 53 25.4565 52.8961 25.2462C52.7922 25.036 52.5325 24.8783 52.2727 24.8257L24.9481 21.7773C24.5325 21.7248 24.1169 22.0401 24.0649 22.4606C24.013 22.8811 24.3247 23.3015 24.7403 23.3541L50.9221 26.2974L44.8442 38.491H27.4935L19.9091 17.4675C19.8052 17.1522 19.4935 16.9419 19.1818 16.9419H15.7532C15.4935 16.5215 15.026 16.2587 14.5065 16.2587C13.6753 16.2587 13 16.8894 13 17.7303C13 18.5713 13.6753 19.2545 14.5065 19.2545C15.026 19.2545 15.4935 18.9392 15.7532 18.5187H18.6104L26.1429 39.2794L23.4416 46.6376C23.3377 46.9004 23.3896 47.1632 23.5455 47.3735C23.7013 47.5837 23.9091 47.6888 24.1688 47.6888H27.6494C28.013 49.5809 29.6234 51 31.5974 51C33.5714 51 35.1818 49.5809 35.5455 47.6888H39.0779C39.4416 49.5809 41.0519 51 43.026 51C45.2597 51 47.0779 49.1605 47.0779 46.9004C47.0779 44.6404 45.2597 42.8008 43.026 42.8008C41.0519 42.8008 39.4416 44.2199 39.0779 46.1121H35.5455C35.1818 44.2199 33.5714 42.8008 31.5974 42.8008C29.6234 42.8008 28.013 44.2199 27.6494 46.1121H25.3117L27.4935 40.0678ZM42.974 44.4302C44.3247 44.4302 45.4675 45.5339 45.4675 46.953C45.4675 48.3721 44.3766 49.4758 42.974 49.4758C41.5714 49.4758 40.5325 48.3195 40.5325 46.9004C40.5325 45.4813 41.6234 44.4302 42.974 44.4302ZM31.5974 44.4302C32.9481 44.4302 34.039 45.5339 34.039 46.9004C34.039 48.267 32.9481 49.3707 31.5974 49.3707C30.2468 49.3707 29.1039 48.267 29.1039 46.8479C29.1039 45.4288 30.1948 44.4302 31.5974 44.4302Z" fill="#3C3700"/>
<path d="M42.974 35.0747C43.3896 35.0747 43.7532 34.7068 43.7532 34.2863C43.7532 33.8658 43.3896 33.4979 42.974 33.4979H29.5195C29.1039 33.4979 28.7402 33.8658 28.7402 34.2863C28.7402 34.7068 29.1039 35.0747 29.5195 35.0747H42.974Z" fill="#9B3717"/>
<path d="M40.5325 17.5201C40.5844 17.5201 40.6364 17.5201 40.7403 17.5201C40.9481 17.4675 41.1039 17.3624 41.2078 17.1522L42.4546 15.1024C42.6624 14.7345 42.5585 14.2614 42.1948 13.9986C41.8312 13.7884 41.3637 13.8935 41.1039 14.2614L39.8572 16.2587C39.7013 16.4163 39.6494 16.6791 39.7533 16.9419C39.8572 17.2573 40.1689 17.5201 40.5325 17.5201Z" fill="#9B3717"/>
<path d="M41.8315 19.0968C41.6237 19.4648 41.7276 19.9378 42.0912 20.2006C42.1951 20.3057 42.351 20.3057 42.5068 20.3057C42.5588 20.3057 42.6107 20.3057 42.6627 20.3057L45.0003 19.7801C45.4159 19.675 45.6756 19.2545 45.5717 18.8341C45.4679 18.4136 45.0523 18.1508 44.6367 18.2559L42.351 18.7815C42.1432 18.7815 41.9354 18.8866 41.8315 19.0968Z" fill="#9B3717"/>
<path d="M31.9613 17.5201L33.9873 18.834C34.0912 18.9392 34.2471 18.9392 34.4029 18.9392C34.4549 18.9392 34.5068 18.9392 34.5587 18.9392C34.9743 18.834 35.2341 18.4661 35.1821 17.9931C35.1302 17.7829 34.9743 17.5726 34.8185 17.4675L32.7925 16.1535C32.4289 15.9433 31.9613 16.0484 31.7016 16.4163C31.4938 16.7842 31.5977 17.2573 31.9613 17.5201Z" fill="#9B3717"/>
<path d="M36.4281 16.2587C36.4801 16.4689 36.584 16.6792 36.7918 16.7843C36.8957 16.8894 37.0515 16.8894 37.2074 16.8894C37.4671 16.8894 37.7268 16.7317 37.8827 16.5215C37.9346 16.3638 37.9866 16.1536 37.9346 15.9959L37.4151 13.6307C37.3112 13.2103 36.8957 12.9475 36.4801 13.0526C36.0645 13.1577 35.8048 13.5782 35.9087 13.9987L36.4281 16.2587Z" fill="#9B3717"/>
</g>
<defs>
<clipPath id="clip0">
<rect x="13" y="13" width="40" height="38" fill="white"/>
</clipPath>
</defs>
</svg>
