<svg width="16" height="16" viewBox="0 0 16 16" fill="none" xmlns="http://www.w3.org/2000/svg">
<g clip-path="url(#clip0)">
<path d="M15.8 4.2C15.6 4 15.5333 4 15.2666 4C15 4 14.7333 4 14.5333 4.33333C14.4666 4.46667 14.3333 4.6 14.2666 4.8C13.9333 5.26667 13.5333 5.93333 12.9333 6.53333C11.7333 7.8 10.0666 9 7.99996 9C5.9333 9 4.19996 7.8 2.99996 6.53333C2.46663 5.93333 1.99996 5.26667 1.66663 4.8C1.5333 4.6 1.46663 4.53333 1.39996 4.33333C1.19996 4 0.933296 4 0.599962 4C0.399962 4 0.333296 4 0.133296 4.2C-0.133371 4.33333 0.0666289 4.66667 0.0666289 4.73333C0.0666289 4.8 0.133296 4.86667 0.199962 4.93333C0.266629 5.06667 0.399962 5.33333 0.599962 5.6C0.933296 6.13333 1.46663 6.8 2.1333 7.53333C3.46663 8.93333 5.46663 10.4 8.06663 10.4C10.6666 10.4 12.6666 8.93333 14 7.53333C14.6666 6.8 15.1333 6.13333 15.5333 5.6C15.7333 5.33333 15.8 5.13333 15.9333 4.93333C16 4.86667 16 4.8 16.0666 4.73333C15.8666 4.66667 16 4.33333 15.8 4.2Z" fill="#C7C6C1"/>
<path d="M4.99993 12.0665C4.93327 12.0665 4.8666 12.0665 4.73327 11.9999C4.39993 11.8665 4.19993 11.4665 4.33327 11.1332L5.0666 9.19986C5.2666 8.86652 5.59993 8.73319 5.99993 8.86652C6.33327 8.99986 6.4666 9.33319 6.33327 9.73319L5.59993 11.6665C5.53327 11.9332 5.2666 12.0665 4.99993 12.0665Z" fill="#C7C6C1"/>
<path d="M0.999968 9.0666C0.799968 9.0666 0.599968 8.99994 0.466635 8.79994C0.199968 8.53327 0.266635 8.13327 0.533302 7.93327L2.1333 6.59994C2.39997 6.33327 2.86663 6.39994 3.06663 6.6666C3.3333 6.93327 3.26663 7.33327 2.99997 7.59994L1.39997 8.93327C1.26663 8.99994 1.1333 9.0666 0.999968 9.0666Z" fill="#C7C6C1"/>
<path d="M10.9333 12.0667C10.6667 12.0667 10.4 11.9334 10.3333 11.6667L9.59999 9.73338C9.46666 9.40005 9.66666 9.00005 9.99999 8.86672C10.3333 8.73338 10.7333 8.93338 10.8667 9.26672L11.6 11.2C11.7333 11.5334 11.5333 11.9334 11.2 12.0667C11.0667 12.0667 11 12.0667 10.9333 12.0667Z" fill="#C7C6C1"/>
<path d="M14.9333 9.0666C14.8 9.0666 14.6 8.99994 14.5333 8.93327L12.9333 7.59994C12.6667 7.33327 12.6 6.93327 12.8667 6.6666C13.1333 6.39994 13.5333 6.33327 13.8 6.59994L15.4 7.93327C15.6667 8.19994 15.7333 8.59994 15.4667 8.8666C15.3333 8.99994 15.1333 9.0666 14.9333 9.0666Z" fill="#C7C6C1"/>
</g>
<defs>
<clipPath id="clip0">
<rect y="4" width="15.9333" height="8.06667" fill="white"/>
</clipPath>
</defs>
</svg>
