<svg width="24" height="24" viewBox="0 0 24 24" fill="none" xmlns="http://www.w3.org/2000/svg">
<path fill-rule="evenodd" clip-rule="evenodd" d="M18 18C18 18.5523 17.5523 19 17 19L3 19C2.44771 19 2 18.5523 2 18C2 17.4477 2.44771 17 3 17L17 17C17.5523 17 18 17.4477 18 18Z" fill="#A09B82"/>
<path fill-rule="evenodd" clip-rule="evenodd" d="M22 12C22 12.5523 21.5523 13 21 13L3 13C2.44772 13 2 12.5523 2 12C2 11.4477 2.44772 11 3 11L21 11C21.5523 11 22 11.4477 22 12Z" fill="#A09B82"/>
<path fill-rule="evenodd" clip-rule="evenodd" d="M14 6C14 6.55228 13.5523 7 13 7L3 7C2.44772 7 2 6.55228 2 6C2 5.44771 2.44772 5 3 5L13 5C13.5523 5 14 5.44772 14 6Z" fill="#A09B82"/>
</svg>
