<svg width="26" height="26" viewBox="0 0 26 26" fill="none" xmlns="http://www.w3.org/2000/svg">
<path d="M22.8197 3.18425C22.18 2.54456 19.8672 3.72552 19.2276 4.36521L8.54968 15.0923C7.81158 15.8304 4.71155 19.9146 5.44965 20.6035C6.13854 21.2924 10.2719 18.1923 10.9608 17.5034L21.5895 6.82555C22.2784 6.13666 23.4593 3.87315 22.8197 3.18425Z" stroke="#AEADA5" stroke-width="1.5" stroke-miterlimit="10" stroke-linecap="round" stroke-linejoin="round"/>
<path d="M13.6172 14.7972L16.0283 17.2575L18.7839 22.4242L20.0141 22.375L17.6521 10.7622" stroke="#AEADA5" stroke-width="1.5" stroke-miterlimit="10" stroke-linecap="round" stroke-linejoin="round"/>
<path d="M15.2417 8.35094L3.62891 5.98901V7.21918L8.74642 9.97477L11.2068 12.4351" stroke="#AEADA5" stroke-width="1.5" stroke-miterlimit="10" stroke-linecap="round" stroke-linejoin="round"/>
<path d="M10.2224 18.1924L10.7637 22.4734L9.63196 23.0146L7.71289 19.8654" stroke="#AEADA5" stroke-width="1.5" stroke-miterlimit="10" stroke-linecap="round" stroke-linejoin="round"/>
<path d="M7.81115 15.7813L3.53015 15.24L3.03809 16.421L6.13812 18.2908" stroke="#AEADA5" stroke-width="1.5" stroke-miterlimit="10" stroke-linecap="round" stroke-linejoin="round"/>
</svg>
