<svg width="26" height="26" viewBox="0 0 26 26" fill="none" xmlns="http://www.w3.org/2000/svg">
<path d="M13 17.9653V24.4202" stroke="#9B3717" stroke-width="1.5" stroke-miterlimit="10" stroke-linecap="round" stroke-linejoin="round"/>
<path d="M15.9697 11.2622L22.4047 13.9931V20.448L12.9997 24.4202L3.59473 20.448V13.9931L10.0297 11.2622" stroke="#9B3717" stroke-width="1.5" stroke-miterlimit="10" stroke-linecap="round" stroke-linejoin="round"/>
<path d="M22.4047 13.9929L12.9997 17.9651L3.59473 13.9929" stroke="#9B3717" stroke-width="1.5" stroke-miterlimit="10" stroke-linecap="round" stroke-linejoin="round"/>
<path d="M12.9999 13.993C14.1384 10.2691 17.4549 9.47463 17.4549 6.04858C17.4549 3.66525 15.3264 1.57983 12.9999 1.57983C10.6734 1.57983 8.54492 3.66525 8.54492 6.04858C8.54492 9.47463 11.8614 10.2691 12.9999 13.993Z" stroke="#9B3717" stroke-width="1.5" stroke-miterlimit="10" stroke-linecap="round" stroke-linejoin="round"/>
<path d="M12.9996 4.55908C13.8411 4.55908 14.4846 5.20457 14.4846 6.04867C14.4846 6.84311 13.8411 7.53825 12.9996 7.53825C12.1581 7.53825 11.5146 6.89276 11.5146 6.04867C11.5146 5.20457 12.1581 4.55908 12.9996 4.55908Z" stroke="#9B3717" stroke-width="1.5" stroke-miterlimit="10" stroke-linecap="round" stroke-linejoin="round"/>
<path d="M20.4248 18.4617V19.4547" stroke="#9B3717" stroke-width="1.5" stroke-miterlimit="10" stroke-linecap="round" stroke-linejoin="round"/>
<path d="M18 19V19.9931" stroke="#9B3717" stroke-width="1.5" stroke-miterlimit="10" stroke-linecap="round" stroke-linejoin="round"/>
</svg>
