<svg xmlns="http://www.w3.org/2000/svg" width="18" height="18" viewBox="0 0 18 18"><g><g><g/><g><path fill="#9b3717" d="M7.565 1.195A.75.75 0 0 1 8.25.75a3 3 0 0 1 3 3V6h3.491a2.25 2.25 0 0 1 2.245 2.588l-1.035 6.75a2.252 2.252 0 0 1-2.245 1.912H3A2.25 2.25 0 0 1 .75 15V9.75A2.25 2.25 0 0 1 3 7.5h1.763zM6 15.75h7.718a.75.75 0 0 0 .75-.637l1.035-6.75a.75.75 0 0 0-.75-.863H10.5a.75.75 0 0 1-.75-.75v-3a1.5 1.5 0 0 0-1.044-1.43L6 8.41zm-1.5 0V9H3a.75.75 0 0 0-.75.75V15a.75.75 0 0 0 .75.75z"/></g></g></g></svg>