<svg xmlns="http://www.w3.org/2000/svg" width="24" height="24" viewBox="0 0 24 24"><g><g><g/><g><path fill="#3c3700" d="M10.73 1.293C11.495 1.056 12.285 1 13.28 1a1 1 0 0 1 .99.852c2.665.97 3.344 3.501 3.24 4.788v.001a29.153 29.153 0 0 1-.224 1.868c.209.339.346.792.346 1.375 0 .022 0 .044-.002.066-.076 1.153-.326 1.865-.934 2.293-.044.03-.088.058-.127.082-.212 1.23-.568 1.826-.906 2.277l-.107.142c-.079.104-.098.13-.12.175-.007.014-.031.062-.035.211.087.05.216.116.407.207.31.148.728.334 1.307.592l.239.1c1.194.5 2.2.923 2.946 1.568.875.756 1.329 1.74 1.673 3.169a1 1 0 0 1-1.945.468c-.3-1.246-.616-1.761-1.036-2.125-.498-.43-1.222-.735-2.662-1.34l-.019-.009-.014-.006a65.18 65.18 0 0 1-1.349-.611 5.559 5.559 0 0 1-.844-.47c-.249-.18-.49-.426-.614-.792-.092-.272-.09-.551-.09-.68v-.03c0-.433.076-.795.237-1.127.118-.243.285-.458.382-.584l.044-.058c.16-.213.393-.531.55-1.505v-.003c.066-.406.228-.763.544-1.033.127-.109.254-.18.312-.212h.002l.032-.018c.035-.087.095-.305.129-.777a.893.893 0 0 0-.038-.27 1 1 0 0 1-.352-.93l.002-.014.006-.04a27.987 27.987 0 0 0 .1-.684c.061-.434.129-.975.167-1.436.055-.695-.372-2.325-2.215-2.839a1.116 1.116 0 0 1-.273-.108 1.302 1.302 0 0 1-.514-.516c-.503.027-.867.085-1.195.187-.47.145-.937.4-1.672.917-.967.707-1.22 1.837-1.181 2.359.04.463.108 1.003.169 1.437a45.465 45.465 0 0 0 .1.685l.007.04.002.013c.057.356-.083.71-.354.932a.891.891 0 0 0-.038.269c.034.471.094.689.128.775h.001l.032.018.002.001c.059.033.185.103.313.212.317.27.479.628.545 1.035v.002c.156.973.389 1.29.55 1.504l.044.058c.097.126.264.341.382.583.162.333.237.695.237 1.129v.03c0 .129.002.373-.06.607a1.504 1.504 0 0 1-.52.793 3.632 3.632 0 0 1-.706.425c-.257.125-.592.275-1.007.461l-.017.008-.022.01-.01.004c-1.414.594-2.322.975-2.985 1.496-.592.466-1.016 1.072-1.286 2.222a1 1 0 1 1-1.947-.458c.358-1.523.997-2.55 1.997-3.336.88-.692 2.016-1.168 3.262-1.69l.184-.078c.43-.193.731-.328.952-.436.066-.032.12-.06.165-.084-.003-.16-.028-.211-.035-.225v-.002a1.026 1.026 0 0 0-.12-.174l-.108-.142c-.338-.451-.694-1.048-.906-2.278a2.124 2.124 0 0 1-.126-.08c-.61-.428-.86-1.14-.937-2.295a1 1 0 0 1-.002-.065c0-.585.138-1.038.347-1.377-.014-.095-.03-.202-.045-.317a31.025 31.025 0 0 1-.181-1.546V6.64c-.086-1.079.365-2.95 2.004-4.14l.012-.009c.797-.562 1.47-.96 2.24-1.198zM7.402 12.215c-.004-.01-.006-.017-.007-.016l.003.018h.005v-.002zm-.004.002zm1.092-1.563c.01.019.015.026.015.024m5.78-8.573a.03.03 0 0 0 .001.002m1.207 8.546c-.011.014-.016.023-.015.024"/></g></g></g></svg>