<svg xmlns="http://www.w3.org/2000/svg" width="20" height="20" viewBox="0 0 20 20"><g><g><g/><g><g><path fill="#a09b82" d="M15.368 5.786a1.158 1.158 0 1 0 0-2.316 1.158 1.158 0 0 0 0 2.316z"/></g><g><g><path fill="#a09b82" d="M14.316 0C17.368 0 20 2.526 20 5.684v8.632A5.66 5.66 0 0 1 14.316 20H5.684A5.66 5.66 0 0 1 0 14.316V5.684A5.66 5.66 0 0 1 5.684 0zm3.894 14.316V5.684c0-2.21-1.789-3.895-3.894-3.895H5.684A3.886 3.886 0 0 0 1.79 5.684v8.632c0 2.21 1.79 3.894 3.895 3.894h8.526c2.211 0 3.895-1.789 3.895-3.894z"/></g><g><path fill="#a09b82" d="M15.156 9.898a5.166 5.166 0 0 1-5.158 5.158A5.166 5.166 0 0 1 4.84 9.898 5.166 5.166 0 0 1 9.998 4.74a5.166 5.166 0 0 1 5.158 5.158zm-1.79.105c0-1.895-1.473-3.368-3.368-3.368-1.895 0-3.369 1.473-3.369 3.368 0 1.895 1.474 3.369 3.369 3.369 1.895 0 3.368-1.474 3.368-3.369z"/></g></g></g></g></g></svg>