<svg width="16" height="16" viewBox="0 0 16 16" fill="none" xmlns="http://www.w3.org/2000/svg">
<path fill-rule="evenodd" clip-rule="evenodd" d="M6.72347 14.9375C6.83048 15.1782 7.06922 15.3334 7.33268 15.3334C8.03993 15.3334 8.7182 15.0524 9.2183 14.5523C9.7184 14.0522 9.99935 13.374 9.99935 12.6667V10.6667H13.1026C13.3911 10.6694 13.6768 10.6096 13.94 10.4914C14.2045 10.3727 14.4401 10.1979 14.6303 9.97915C14.8206 9.76037 14.961 9.50284 15.0418 9.22441C15.1226 8.94598 15.142 8.65331 15.0985 8.36666L14.1785 2.36675C14.1785 2.36658 14.1785 2.36693 14.1785 2.36675C14.1061 1.89005 13.8638 1.45503 13.4964 1.14274C13.1299 0.831227 12.6634 0.662252 12.1826 0.666708H2.66602C2.13558 0.666708 1.62687 0.877422 1.2518 1.25249C0.876729 1.62757 0.666016 2.13627 0.666016 2.66671V7.33337C0.666016 7.86381 0.876729 8.37252 1.2518 8.74759C1.62687 9.12266 2.13558 9.33337 2.66602 9.33337H4.23277L6.72347 14.9375ZM5.33268 8.52523L7.7379 13.937C7.93882 13.8729 8.1236 13.7614 8.27549 13.6095C8.52554 13.3595 8.66602 13.0203 8.66602 12.6667V10C8.66602 9.63185 8.96449 9.33337 9.33268 9.33337H13.106L13.1136 9.33342C13.2102 9.33451 13.3059 9.31458 13.3941 9.27501C13.4823 9.23544 13.5608 9.17717 13.6242 9.10425C13.6876 9.03132 13.7344 8.94548 13.7613 8.85267C13.7883 8.75994 13.7947 8.66248 13.7803 8.56702C13.7803 8.5671 13.7803 8.56693 13.7803 8.56702L12.8602 2.56667C12.8361 2.4077 12.7554 2.2628 12.6329 2.15866C12.5103 2.05453 12.3543 1.99818 12.1936 2L5.33268 2.00004V8.52523ZM3.99935 2.00004V8.00004H2.66602C2.4892 8.00004 2.31964 7.9298 2.19461 7.80478C2.06959 7.67975 1.99935 7.51019 1.99935 7.33337V2.66671C1.99935 2.4899 2.06959 2.32033 2.19461 2.1953C2.31964 2.07028 2.4892 2.00004 2.66602 2.00004H3.99935Z" fill="#C7C6C1"/>
</svg>
