<svg width="16" height="16" viewBox="0 0 16 16" fill="none" xmlns="http://www.w3.org/2000/svg">
<path fill-rule="evenodd" clip-rule="evenodd" d="M3.33325 8.00002C2.96506 8.00002 2.66659 8.2985 2.66659 8.66669V13.3334C2.66659 13.7015 2.96506 14 3.33325 14H12.6666C13.0348 14 13.3333 13.7015 13.3333 13.3334V8.66669C13.3333 8.2985 13.0348 8.00002 12.6666 8.00002H3.33325ZM1.33325 8.66669C1.33325 7.56212 2.22868 6.66669 3.33325 6.66669H12.6666C13.7712 6.66669 14.6666 7.56212 14.6666 8.66669V13.3334C14.6666 14.4379 13.7712 15.3334 12.6666 15.3334H3.33325C2.22868 15.3334 1.33325 14.4379 1.33325 13.3334V8.66669Z" fill="#C7C6C1"/>
<path fill-rule="evenodd" clip-rule="evenodd" d="M8 2.00002C7.29276 2.00002 6.61448 2.28097 6.11438 2.78107C5.61428 3.28117 5.33333 3.95944 5.33333 4.66669V7.33335C5.33333 7.70154 5.03486 8.00002 4.66667 8.00002C4.29848 8.00002 4 7.70154 4 7.33335V4.66669C4 3.60582 4.42143 2.58841 5.17157 1.83826C5.92172 1.08811 6.93913 0.666687 8 0.666687C9.06087 0.666687 10.0783 1.08811 10.8284 1.83826C11.5786 2.58841 12 3.60582 12 4.66669V7.33335C12 7.70154 11.7015 8.00002 11.3333 8.00002C10.9651 8.00002 10.6667 7.70154 10.6667 7.33335V4.66669C10.6667 3.95944 10.3857 3.28117 9.88562 2.78107C9.38552 2.28097 8.70724 2.00002 8 2.00002Z" fill="#C7C6C1"/>
</svg>
