<svg xmlns="http://www.w3.org/2000/svg" width="285" height="26" viewBox="0 0 285 26"><g><g><g><path fill="#3c3700" d="M0 1.541l11.977 23.924h3.969l3.217-6.602 3.08-6.105 5.389-11.2h-2.943a2.972 2.972 0 0 0-1.942.412 3.147 3.147 0 0 0-1.292 1.559l-2.138 4.01-2.208-4.028a3.112 3.112 0 0 0-1.277-1.544 2.939 2.939 0 0 0-1.922-.408h-3.422l5.834 11.678-2.224 4.1L6.57 3.493a3.096 3.096 0 0 0-1.254-1.53 2.923 2.923 0 0 0-1.894-.422z"/></g><g><path fill="#3c3700" d="M73.006 16.11L67.771 1.13h-1.147L61.15 16.11 55.572 1.253H51.26l9.24 23.978h1.334l5.286-14.554 5.1 14.554h1.316l9.719-23.978h-4.312z"/></g><g><path fill="#3c3700" d="M98.195 10.284h-8.966V1.25H85.26v23.711h3.97V14.188h8.965v10.773h3.97V1.25h-3.97z"/></g><g><path fill="#3c3700" d="M110.85 1.25h-3.97v23.711h3.97z"/></g><g><path fill="#3c3700" d="M144.352 1.25L136.139 10V1.25h-3.969v23.711h3.97v-9.726l.359-.372 7.887 10.098h5.287l-10.351-12.92L149.707 1.25z"/></g><g><path fill="#3c3700" d="M160.039 10.142l-4.91-8.892h-4.569l7.494 13.506v10.205h3.952V14.756l7.528-13.506h-4.568z"/></g><g><path fill="#3c3700" d="M204.096 1.254l-5.92 14.855-5.235-14.979h-1.147l-5.475 14.98-5.577-14.856h-4.312l9.222 23.978h1.335l5.303-14.554 5.082 14.554h1.334l9.702-23.978z"/></g><g><path fill="#3c3700" d="M244.12 15.004l6.98 9.957h-4.876l-6.348-9.442h-.137v9.442h-3.969V1.25h4.226a9.854 9.854 0 0 1 6.57 1.775 6.658 6.658 0 0 1 1.727 2.39 6.89 6.89 0 0 1 .549 2.934 7.073 7.073 0 0 1-1.42 4.401 6.285 6.285 0 0 1-3.303 2.254zm-3.628-3.159c3.011 0 4.466-1.295 4.466-3.46 0-2.166-1.42-3.213-4.329-3.213h-.89v6.673z"/></g><g><path fill="#3c3700" d="M257.5 1.25h-3.97v23.711h10.505v-3.904H257.5z"/></g><g><path fill="#3c3700" d="M283.547 8.325c.61 1.503.905 3.123.864 4.753.06 1.672-.24 3.336-.88 4.871a11.206 11.206 0 0 1-2.816 4.003 10.583 10.583 0 0 1-3.866 2.36 17.37 17.37 0 0 1-5.339.657h-4.91V1.26h4.979c1.821-.058 3.64.182 5.39.71a10.28 10.28 0 0 1 3.9 2.395 11.477 11.477 0 0 1 2.678 3.96zm-3.02 4.789a8.013 8.013 0 0 0-.554-3.227 7.77 7.77 0 0 0-1.79-2.7 8.847 8.847 0 0 0-6.28-2.006h-1.214v15.458h4.757a7.508 7.508 0 0 0 2.292-1.331l.308-.266a7.594 7.594 0 0 0 1.715-2.466 7.833 7.833 0 0 0 .646-2.965z"/></g><g><path fill="#3c3700" d="M123.944 10.643l-2.224-.958c-1.488-.64-2.224-1.438-2.224-2.432-.003-.341.07-.678.212-.986.143-.308.35-.577.61-.789a3.468 3.468 0 0 1 3.815-.32 4.473 4.473 0 0 1 1.351 1.67l.154.283 3.251-2.005-.154-.267c-.864-1.729-2.334-3.05-4.106-3.691a6.617 6.617 0 0 0-2.173-.337 7.656 7.656 0 0 0-2.344.337c-.965.27-1.86.761-2.618 1.437a5.839 5.839 0 0 0-1.508 2.053 6.043 6.043 0 0 0-.51 2.526c0 2.698 1.59 4.775 4.756 6.159l2.138.923a9.27 9.27 0 0 1 1.386.763c.344.225.655.5.924.816.22.276.393.588.513.923.107.369.158.752.154 1.136a3.67 3.67 0 0 1-.227 1.366 3.573 3.573 0 0 1-.714 1.172c-.353.34-.77.602-1.225.768a3.408 3.408 0 0 1-2.797-.203 3.554 3.554 0 0 1-1.11-.938 5.909 5.909 0 0 1-.753-2.644v-.355l-4.021.905v.302a8.668 8.668 0 0 0 2.412 5.2 6.761 6.761 0 0 0 3.32 1.775 8.256 8.256 0 0 0 1.71.16 7.815 7.815 0 0 0 1.592-.16 7.24 7.24 0 0 0 3.695-2.023 7.462 7.462 0 0 0 1.622-2.52 7.683 7.683 0 0 0 .517-2.982 6.786 6.786 0 0 0-1.317-4.207 9.843 9.843 0 0 0-4.107-2.857z"/></g><g><path fill="#3c3700" d="M228.648 4.54a11.897 11.897 0 0 1 2.621 3.971 12.26 12.26 0 0 1 .886 4.725 12.036 12.036 0 0 1-.916 4.671 11.672 11.672 0 0 1-2.643 3.901 11.507 11.507 0 0 1-6.518 3.425c-.657.107-1.32.16-1.985.16-2.936.005-5.767-1.128-7.939-3.177a11.72 11.72 0 0 1-2.943-4.178 12.115 12.115 0 0 1-.924-5.086c-.012-1.608.296-3.2.906-4.68a11.674 11.674 0 0 1 2.636-3.91 11.588 11.588 0 0 1 5.663-3.212 12.01 12.01 0 0 1 2.79-.32c.92-.003 1.839.104 2.737.32a11.31 11.31 0 0 1 5.629 3.39zm-.514 9.193a3.766 3.766 0 0 0 0-.621 8.455 8.455 0 0 0-.559-3.225 8.215 8.215 0 0 0-1.733-2.739 7.573 7.573 0 0 0-2.528-1.778 7.342 7.342 0 0 0-2.999-.6 7.676 7.676 0 0 0-3.764.94 8.2 8.2 0 0 0-1.865 1.474 8.048 8.048 0 0 0-1.745 2.707 8.287 8.287 0 0 0-.564 3.203 8.795 8.795 0 0 0 .958 4.135 8.081 8.081 0 0 0 1.42 1.917 7.658 7.658 0 0 0 4.722 2.343h.753c2 .044 3.939-.72 5.406-2.13l.291-.284a8.261 8.261 0 0 0 2.225-4.597v-.745z"/></g><g><path fill="#9b3717" d="M35.81 1.01a3.068 3.068 0 0 0-2.047.385 3.248 3.248 0 0 0-1.374 1.62l-7.58 14.074-1.71-3.088-3.149 6.336 2.566 5.058h4.21L38.838 1.01z"/></g><g><path fill="#3c3700" d="M46.645 1.11H44.13v24.261h2.515z"/></g></g></g></svg>