<svg width="64" height="41" viewBox="0 0 64 41" fill="none" xmlns="http://www.w3.org/2000/svg">
<g clip-path="url(#clip0)">
<path d="M64 38.8036C64 40.0064 63.0303 41 61.8565 41H2.14354C0.969697 41 0 40.0064 0 38.8036V2.19643C0 0.993622 0.969697 0 2.14354 0H61.9075C63.0813 0 64.051 0.993622 64.051 2.19643V38.8036H64Z" fill="white"/>
<path d="M37.0532 10.9822H26.999V29.4949H37.0532V10.9822Z" fill="#6C6BBD"/>
<path d="M27.6113 20.2385C27.6113 16.4732 29.3466 13.1263 32.0005 10.9821C30.0611 9.41325 27.5603 8.47192 24.9064 8.47192C18.5268 8.47192 13.3721 13.7538 13.3721 20.2908C13.3721 26.7755 18.5268 32.1097 24.9064 32.1097C27.5603 32.1097 30.0611 31.1684 32.0005 29.5995C29.3466 27.2985 27.6113 23.9515 27.6113 20.2385Z" fill="#EB001B"/>
<path d="M50.6284 20.2386C50.6284 26.7233 45.4737 32.0575 39.0941 32.0575C36.4402 32.0575 33.9394 31.1162 32 29.5473C34.6539 27.4032 36.3892 24.0562 36.3892 20.2909C36.3892 16.5256 34.7049 13.1264 32 10.9823C33.9394 9.41339 36.4402 8.47206 39.0941 8.47206C45.4737 8.41977 50.6284 13.7017 50.6284 20.2386ZM49.5056 27.5078V27.1417H49.6587V27.0371H49.3014V27.1417H49.4545V27.5078H49.5056ZM50.2711 27.5078V27.0371H50.1691L50.016 27.4032L49.8628 27.0894H49.7608V27.5601H49.8628V27.194L49.9649 27.5078H50.016L50.118 27.194V27.5601H50.2711V27.5078Z" fill="#0099DF"/>
</g>
<defs>
<clipPath id="clip0">
<path d="M0 0H64V41H0V0Z" fill="white"/>
</clipPath>
</defs>
</svg>
