<svg xmlns="http://www.w3.org/2000/svg" width="48" height="30" viewBox="0 0 48 30"><g><g><g/><g><g><path fill="#fff" d="M48 28.393c0 .88-.727 1.607-1.608 1.607H1.608C.728 30 0 29.273 0 28.393V1.607C0 .727.727 0 1.608 0H46.43c.88 0 1.607.727 1.607 1.607v26.786z"/></g></g><g><g><path fill="#253b80" d="M11.012 10.16c.854 0 1.552.233 1.94.698.35.388.465.97.35 1.707-.272 1.668-1.281 2.522-3.027 2.522h-.853a.378.378 0 0 0-.388.31l-.272 1.824c0 .194-.155.31-.349.31H7.094a.292.292 0 0 1-.194-.272l1.086-6.789c0-.194.155-.31.35-.31zm.155 1.746c-.232-.272-.698-.272-1.163-.272H9.81c-.078 0-.194.078-.194.194l-.272 1.785h.388c.698 0 1.435 0 1.552-.97.077-.35.039-.582-.117-.737zm7.76.698c.038 0 0 0 0 0 .154.039.232.155.232.272l-.737 4.345c0 .194-.155.31-.35.31H16.91a.292.292 0 0 1-.194-.272l.039-.349s-.62.737-1.746.737c-.66 0-1.203-.194-1.59-.66-.427-.465-.582-1.202-.466-1.939.233-1.513 1.435-2.56 2.832-2.56.62 0 1.241.155 1.513.543l.078.116.038-.349c.04-.116.117-.194.233-.194zm-1.98 1.552c-.193-.233-.504-.35-.853-.35-.737 0-1.319.505-1.435 1.242-.078.35 0 .66.194.892.194.233.465.35.853.35.737 0 1.32-.466 1.436-1.203.077-.35 0-.66-.194-.931zm8.73-1.552c.077 0 .116.039.155.039.077.077.116.233.039.31l-4.268 6.13c-.078.077-.194.155-.31.155h-1.28c-.04 0-.078 0-.117-.039-.078-.077-.116-.194-.039-.31l1.32-1.862-1.397-4.113v-.077a.25.25 0 0 1 .232-.233h1.242c.155 0 .31.116.35.272l.736 2.482 1.746-2.599c.078-.077.194-.155.31-.155z"/></g><g><path fill="#179bd7" d="M29.903 10.16c.893 0 1.552.233 1.979.66.35.387.465.97.35 1.706-.272 1.669-1.281 2.522-3.027 2.522h-.853c-.156 0-.31.116-.35.31l-.31 1.94c-.039.155-.155.233-.271.233h-1.397a.292.292 0 0 1-.194-.272l1.086-6.789c0-.194.155-.31.35-.31zm.194 1.746c-.232-.272-.698-.272-1.163-.272h-.194c-.117 0-.233.078-.233.194l-.272 1.785h.388c.737 0 1.436 0 1.59-.97.078-.35 0-.582-.116-.737zm7.76.698c.154.039.232.155.193.272l-.698 4.345c0 .194-.155.31-.35.31H35.84a.292.292 0 0 1-.194-.272l.039-.349s-.62.737-1.746.737c-.66 0-1.203-.194-1.59-.66-.427-.465-.582-1.202-.466-1.939.233-1.513 1.435-2.56 2.832-2.56.62 0 1.241.155 1.513.543l.077.116.04-.349c.038-.116.116-.194.232-.194zm-1.98 1.552c-.193-.233-.504-.35-.853-.35-.737 0-1.319.505-1.435 1.242-.078.35 0 .66.194.892.194.233.504.35.853.35.737 0 1.32-.466 1.436-1.203.077-.35 0-.66-.194-.931zm3.453-3.802c.04-.116.117-.194.194-.155h1.28a.292.292 0 0 1 .195.271l-1.087 6.79c0 .193-.155.31-.349.31h-1.125a.292.292 0 0 1-.194-.272z"/></g></g></g></g></svg>