<svg xmlns="http://www.w3.org/2000/svg" width="48" height="30" viewBox="0 0 48 30"><g><g><g/><g><g><path fill="#fff" d="M48 28.393c0 .88-.727 1.607-1.608 1.607H1.608C.728 30 0 29.273 0 28.393V1.607C0 .727.727 0 1.608 0H46.43c.88 0 1.607.727 1.607 1.607v26.786z"/></g></g><g><g/><g><g><g><path fill="#231f20" d="M13.898 26.87v-1.404c0-.424-.18-.663-.541-.663h-.103c-.31.027-.54.345-.49.663v1.404h-.54v-1.404c0-.424-.18-.663-.54-.663h-.104c-.309.027-.54.345-.49.663v1.404h-.54v-2.543h.515v.318c.155-.239.438-.398.721-.371.335-.027.644.159.824.45.206-.291.54-.477.876-.45h.128c.515.026.876.476.85 1.006v1.59zm8.575-2.04h-.876v1.166c0 .264.103.423.36.423.155 0 .31-.053.464-.132l.155.477a1.497 1.497 0 0 1-.67.185c-.618 0-.85-.344-.85-.927v-1.166h-.489v-.503h.49v-.768h.54v.768h.876zm4.918-.53l-.154.53a1.469 1.469 0 0 0-.335-.053c-.335 0-.515.238-.515.662v1.43h-.54v-2.542h.54v.318a.73.73 0 0 1 .644-.371c.128 0 .257.026.36.026zm-7.493.689a1.54 1.54 0 0 0-.773-.212c-.283 0-.463.132-.463.291 0 .16.18.212.412.239l.257.026c.515.08.85.292.85.768 0 .477-.412.822-1.133.822-.36.026-.747-.106-1.056-.318l.258-.424c.231.185.54.265.824.265.36 0 .566-.133.566-.318 0-.132-.154-.212-.438-.265l-.257-.026c-.54-.08-.85-.318-.85-.742 0-.503.412-.821 1.03-.821.36 0 .695.08 1.004.265zm14.935-.689l-.154.53a1.469 1.469 0 0 0-.335-.053c-.335 0-.515.238-.515.662v1.43h-.54v-2.542h.54v.318a.73.73 0 0 1 .644-.371c.129 0 .257.026.36.026zm-7.261 1.192c.051-.689.618-1.245 1.313-1.192.309-.026.618.08.875.292l-.257.45a.972.972 0 0 0-.644-.239.787.787 0 0 0-.721.742c-.026.45.283.848.721.874.232-.026.463-.106.644-.238l.257.45a1.18 1.18 0 0 1-.875.292h-.129c-.67-.027-1.21-.61-1.185-1.325v-.106zm5.02 1.378h-.54v-.318a.955.955 0 0 1-.772.37c-.721 0-1.288-.582-1.288-1.324 0-.742.567-1.324 1.288-1.324.309 0 .592.132.772.37v-.317h.54zm-2.008-1.192c0 .423.335.741.747.741a.747.747 0 0 0 .747-.715c.026-.424-.283-.795-.695-.821a.757.757 0 0 0-.799.715v.08zm-5.279-.053v.212h-1.828a.71.71 0 0 0 .747.609c.257 0 .515-.106.72-.265l.258.397c-.283.239-.67.371-1.03.345-.72.026-1.287-.557-1.313-1.298-.026-.742.54-1.351 1.262-1.351.695 0 1.184.53 1.184 1.35zm-1.854-.239h1.288a.613.613 0 0 0-.618-.609c-.335-.027-.644.265-.67.61zm14.086 1.484h-.515v-.318a.955.955 0 0 1-.772.37c-.721 0-1.288-.582-1.288-1.324 0-.742.567-1.324 1.288-1.324.309 0 .592.132.772.37V23.32h.515zm.901-.371c.026 0 .078 0 .103.026.026 0 .052.027.078.053.025.027.051.053.051.08a.233.233 0 0 1 0 .185c-.026.027-.026.053-.051.08-.026.026-.052.053-.078.053-.025.026-.051.026-.103.026-.103 0-.18-.053-.231-.159a.232.232 0 0 1 0-.185c.025-.027.025-.053.051-.08.026-.026.052-.053.077-.053.052-.026.078-.026.103-.026zm0 .45c.026 0 .052 0 .078-.026.025 0 .051-.027.051-.053a.18.18 0 0 0 0-.265l-.051-.053c-.026 0-.052-.027-.078-.027-.025 0-.051 0-.077.027-.026 0-.051.026-.051.053a.18.18 0 0 0 0 .265c.025.026.051.026.051.053.026.026.052.026.077.026zm.026-.318c.026 0 .052 0 .077.027.026.026.026.026.026.053 0 .026 0 .026-.026.053-.025.026-.025.026-.051.026l.077.08h-.051l-.078-.08h-.025v.08h-.052v-.239zm-.051.053v.053h.077v-.053zm-2.833-1.006c0 .423.335.741.747.741a.747.747 0 0 0 .747-.715c.025-.424-.284-.795-.696-.821a.757.757 0 0 0-.798.715c0 .027-.026.053 0 .08zM17.477 26.87h-.54v-.318a.955.955 0 0 1-.773.37c-.721 0-1.288-.582-1.288-1.324 0-.742.567-1.324 1.288-1.324.309 0 .592.132.772.37v-.317h.541zm-1.983-1.192c0 .423.335.741.747.741a.747.747 0 0 0 .747-.715c.026-.424-.283-.795-.696-.821a.757.757 0 0 0-.798.715v.08z"/></g><g><g><path fill="#ff5f00" d="M28.052 5.04H19.94v14.993h8.112z"/></g><g><path fill="#eb001b" d="M20.461 12.539c0-2.914 1.314-5.696 3.554-7.497-4.043-3.258-9.863-2.543-13.03 1.616-3.167 4.159-2.472 10.119 1.57 13.377 3.374 2.729 8.087 2.729 11.46 0-2.24-1.801-3.554-4.556-3.554-7.496z"/></g><g><path fill="#f79e1b" d="M39.003 12.539c0 5.271-4.146 9.536-9.27 9.536a9.015 9.015 0 0 1-5.717-2.04c4.017-3.258 4.712-9.245 1.545-13.377a9.203 9.203 0 0 0-1.571-1.616c4.017-3.258 9.863-2.543 13.03 1.616a9.612 9.612 0 0 1 1.983 5.88z"/></g><g><path fill="#f79e1b" d="M38.12 18.44v-.317h.129v-.053h-.309v.053h.129v.318zm.593 0v-.37h-.103l-.103.265-.103-.265h-.078v.37h.078v-.264l.103.238h.077l.103-.238v.291z"/></g></g></g></g></g></g></g></svg>