<svg xmlns="http://www.w3.org/2000/svg" width="48" height="30" viewBox="0 0 48 30"><g><g><g/><g><g><path fill="#3957a7" d="M48 28.393c0 .88-.727 1.607-1.608 1.607H1.608C.728 30 0 29.273 0 28.393V1.607C0 .727.727 0 1.608 0H46.43c.88 0 1.607.727 1.607 1.607v26.786z"/></g><g><g><path fill="#fff" d="M22.085 19.52H19.75l1.455-9.03h2.373z"/></g><g><path fill="#fff" d="M17.763 10.49l-2.22 6.199-.268-1.34-.804-4.055s-.115-.804-1.11-.804H9.648l-.038.153s1.148.23 2.45 1.033l2.067 7.845h2.45l3.712-9.031z"/></g><g><path fill="#fff" d="M35.983 18.173h-2.986l-.497 1.34h-2.45l3.483-8.304s.192-.689 1.072-.689h1.876l1.875 8.992h-2.143zm-.421-1.875l-.689-3.367-1.225 3.367z"/></g><g><path fill="#fff" d="M30.2 12.664l.345-1.951s-1.034-.383-2.105-.383c-1.149 0-3.943.497-3.943 2.985 0 2.334 3.254 2.372 3.254 3.558 0 1.225-2.91.995-3.867.23l-.344 2.028s1.033.497 2.641.497 4.02-.841 4.02-3.099c0-2.334-3.293-2.564-3.293-3.559.039-.995 2.297-.842 3.292-.306z"/></g></g><g><path fill="#f9a533" d="M15.275 15.35l-.804-4.056s-.115-.804-1.11-.804H9.648l-.038.153s1.76.383 3.483 1.76c1.646 1.301 2.182 2.947 2.182 2.947z"/></g></g></g></g></svg>