<svg width="14" height="14" viewBox="0 0 14 14" fill="none" xmlns="http://www.w3.org/2000/svg">
<path fill-rule="evenodd" clip-rule="evenodd" d="M6.88997 0.333252C6.33769 0.333252 5.88997 0.780966 5.88997 1.33325V5.88878H1.33398C0.7817 5.88878 0.333984 6.3365 0.333984 6.88878V7.111C0.333984 7.66329 0.781699 8.111 1.33398 8.111H5.88997V12.6666C5.88997 13.2189 6.33769 13.6666 6.88997 13.6666H7.1122C7.66448 13.6666 8.1122 13.2189 8.1122 12.6666V8.111H12.6673C13.2196 8.111 13.6673 7.66329 13.6673 7.111V6.88878C13.6673 6.3365 13.2196 5.88878 12.6673 5.88878H8.1122V1.33325C8.1122 0.780967 7.66448 0.333252 7.1122 0.333252H6.88997Z" fill="#9B3717"/>
</svg>
