<svg width="88" height="88" viewBox="0 0 88 88" fill="none" xmlns="http://www.w3.org/2000/svg">
<circle cx="44" cy="44" r="44" fill="white"/>
<g clip-path="url(#clip0)">
<path d="M28.6307 45.124H60.085V62.7106C60.085 63.2629 59.6373 63.7106 59.085 63.7106H29.6307C29.0785 63.7106 28.6307 63.2629 28.6307 62.7106V45.124Z" fill="#F1F1F2"/>
<path d="M41.4984 36.5455H47.2174V63.7106H41.4984V36.5455Z" fill="white"/>
<path d="M63.2306 45.2669H47.5034C47.0745 45.2669 46.6456 44.838 46.6456 44.409C46.6456 43.9801 47.0745 43.5512 47.5034 43.5512H61.5149V38.2612C61.5149 37.8322 61.2289 37.4033 60.657 37.4033H28.3449C27.916 37.4033 27.4871 37.6893 27.4871 38.2612V43.5512H41.4985C41.9274 43.5512 42.3564 43.9801 42.3564 44.409C42.3564 44.838 41.9274 45.2669 41.4985 45.2669H25.7714V38.2612C25.7714 36.8314 26.9152 35.6876 28.3449 35.6876H60.8C62.2297 35.6876 63.3735 36.8314 63.3735 38.2612V45.2669H63.2306Z" fill="#6D6D6D"/>
<path d="M48.3612 64.2825H40.7836V35.8307H48.3612V64.2825ZM42.3563 62.5668H46.5025V37.5464H42.3563V62.5668Z" fill="#9B3717"/>
<path d="M58.513 64.2824H30.4901C28.9174 64.2824 27.6306 62.9956 27.6306 61.4229V44.409C27.6306 43.9801 28.0595 43.5511 28.4885 43.5511C28.9174 43.5511 29.3463 43.9801 29.3463 44.409V61.2799C29.3463 61.8518 29.9182 62.4237 30.4901 62.4237H58.513C59.0849 62.4237 59.6568 61.8518 59.6568 61.2799V44.409C59.6568 43.9801 60.0857 43.5511 60.5146 43.5511C60.9436 43.5511 61.3725 43.9801 61.3725 44.409V61.2799C61.3725 62.9956 60.0857 64.2824 58.513 64.2824Z" fill="#6D6D6D"/>
<path d="M45.3588 37.5463H44.5009C39.0679 37.5463 33.9208 35.1157 32.6341 31.9703C32.0622 30.2546 32.4911 28.5389 34.0638 27.1092C35.7795 25.5365 37.9241 25.1075 39.9257 25.9654C43.0712 27.3951 45.3588 31.6843 45.3588 36.6884V37.5463ZM37.7811 27.2521C36.9233 27.2521 35.9225 27.6811 35.2076 28.3959C34.2068 29.3968 33.9208 30.3976 34.2068 31.2554C35.0646 33.2571 38.782 35.4017 43.5001 35.6876C43.2142 31.2554 41.0695 28.3959 39.0679 27.5381C38.782 27.3951 38.353 27.2521 37.7811 27.2521Z" fill="#9B3717"/>
<path d="M44.501 37.5464H43.6432V36.6885C43.6432 30.9696 46.2167 25.8225 49.934 24.2498C52.2216 23.249 54.6522 23.6779 56.7968 25.5366C58.5125 27.1093 59.0844 29.1109 58.3695 30.9696C56.9398 34.6869 50.9349 37.5464 44.501 37.5464ZM52.3646 25.3936C51.7927 25.3936 51.2208 25.5366 50.6489 25.8225C47.6465 27.1093 45.6448 31.1125 45.3589 35.8307C51.2208 35.5447 55.796 32.9712 56.7968 30.3977C57.2257 29.1109 56.7968 27.9671 55.653 26.8233C54.6522 25.8225 53.5084 25.3936 52.3646 25.3936Z" fill="#9B3717"/>
</g>
<path opacity="0.4" d="M24.3438 67.9998H50.0791" stroke="#3C3700" stroke-width="1.5" stroke-linecap="round" stroke-linejoin="round"/>
<path opacity="0.4" d="M54.3673 67.9998H57.2268" stroke="#3C3700" stroke-width="1.5" stroke-linecap="round" stroke-linejoin="round"/>
<path opacity="0.4" d="M61.5154 67.9998H65.8046" stroke="#3C3700" stroke-width="1.5" stroke-linecap="round" stroke-linejoin="round"/>
<path d="M63.8538 25.1424C63.9095 25.1916 63.9651 25.2408 64.0764 25.3392C64.3487 25.4797 64.6152 25.5148 64.9256 25.388L68.2023 24.3735C68.7733 24.1763 69.1101 23.5713 68.9695 22.9454C68.7792 22.3758 68.1789 22.0456 67.5522 22.1936L64.3253 23.1518C64.009 23.1731 63.7045 23.4053 63.5669 23.7852C63.3794 24.2213 63.4644 24.798 63.8538 25.1424Z" fill="#9B3717"/>
<path d="M63.751 28.0611C63.18 28.2583 62.8433 28.8633 62.9838 29.4892C62.9955 29.7002 63.1624 29.8478 63.3293 29.9954C63.385 30.0446 63.4406 30.0938 63.4962 30.143L66.4977 31.7942C67.0424 32.0752 67.7188 31.8709 68.0058 31.3222C68.2928 30.7735 68.0966 30.0984 67.5519 29.8174L64.6061 28.2153C64.3835 28.0185 64.0614 27.9343 63.751 28.0611Z" fill="#9B3717"/>
<path d="M54.6744 17.0243L55.5997 20.3504C55.6114 20.5614 55.7783 20.709 55.9452 20.8566C56.0009 20.9058 56.0565 20.955 56.1122 21.0042C56.6568 21.2853 57.2835 21.1373 57.6759 20.5814C57.8193 20.3071 57.8516 19.9343 57.7842 19.6741L56.8589 16.3479C56.6686 15.7783 56.0683 15.4481 55.4416 15.5961C54.8706 15.7934 54.5338 16.3984 54.6744 17.0243Z" fill="#9B3717"/>
<path d="M60.6534 19.9041C60.5099 20.1784 60.4221 20.502 60.5451 20.8114C60.5568 21.0224 60.7237 21.17 60.8906 21.3176C61.1688 21.5636 61.5963 21.6407 61.9623 21.5632C62.1673 21.4435 62.4221 21.2676 62.5158 21.0495L64.1996 18.0244C64.4865 17.4756 64.2903 16.8006 63.7457 16.5195C63.201 16.2385 62.5246 16.4428 62.2376 16.9915L60.6534 19.9041Z" fill="#9B3717"/>
<defs>
<clipPath id="clip0">
<rect x="25.7714" y="23.6779" width="37.4592" height="40.6046" fill="white"/>
</clipPath>
</defs>
</svg>
