<svg width="12" height="12" viewBox="0 0 12 12" fill="none" xmlns="http://www.w3.org/2000/svg">
<path fill-rule="evenodd" clip-rule="evenodd" d="M6.02442 0.5C6.21473 0.5 6.38854 0.608036 6.47278 0.778688L7.90155 3.67323L11.0967 4.14026C11.285 4.16778 11.4413 4.29978 11.5 4.48078C11.5587 4.66179 11.5096 4.86041 11.3733 4.99318L9.06168 7.24468L9.60722 10.4255C9.6394 10.6131 9.56227 10.8027 9.40828 10.9145C9.2543 11.0264 9.05015 11.0411 8.88169 10.9525L6.02442 9.44992L3.16715 10.9525C2.99869 11.0411 2.79455 11.0264 2.64056 10.9145C2.48657 10.8027 2.40945 10.6131 2.44162 10.4255L2.98716 7.24468L0.675562 4.99318C0.539253 4.86041 0.490117 4.66179 0.548806 4.48078C0.607494 4.29978 0.763834 4.16778 0.952114 4.14026L4.14729 3.67323L5.57607 0.778688C5.66031 0.608036 5.83411 0.5 6.02442 0.5Z" fill="#9B3717"/>
</svg>
