<svg width="18" height="18" viewBox="0 0 18 18" fill="none" xmlns="http://www.w3.org/2000/svg">
<path d="M13.1165 6.14664C14.2531 6.14664 15.1744 5.23418 15.1744 4.1086C15.1744 2.98302 14.2531 2.07056 13.1165 2.07056C11.98 2.07056 11.0586 2.98302 11.0586 4.1086C11.0586 5.23418 11.98 6.14664 13.1165 6.14664Z" stroke="#C7C6C1" stroke-width="1.5" stroke-miterlimit="10"/>
<path d="M4.8841 11.038C6.02066 11.038 6.94203 10.1255 6.94203 8.99996C6.94203 7.87438 6.02066 6.96191 4.8841 6.96191C3.74754 6.96191 2.82617 7.87438 2.82617 8.99996C2.82617 10.1255 3.74754 11.038 4.8841 11.038Z" stroke="#C7C6C1" stroke-width="1.5" stroke-miterlimit="10"/>
<path d="M13.1165 15.9294C14.2531 15.9294 15.1744 15.0169 15.1744 13.8913C15.1744 12.7657 14.2531 11.8533 13.1165 11.8533C11.98 11.8533 11.0586 12.7657 11.0586 13.8913C11.0586 15.0169 11.98 15.9294 13.1165 15.9294Z" stroke="#C7C6C1" stroke-width="1.5" stroke-miterlimit="10"/>
<path d="M11.3877 5.16846L6.61328 7.9402" stroke="#C7C6C1" stroke-width="1.5" stroke-miterlimit="10"/>
<path d="M11.3877 12.8313L6.61328 10.0596" stroke="#C7C6C1" stroke-width="1.5" stroke-miterlimit="10"/>
</svg>
