<svg width="72" height="72" viewBox="0 0 72 72" fill="none" xmlns="http://www.w3.org/2000/svg">
<circle cx="36" cy="36" r="36" fill="#F7F7F7"/>
<path opacity="0.4" d="M26.5 56H40" stroke="#3C3700" stroke-width="1.5" stroke-linecap="round" stroke-linejoin="round"/>
<path opacity="0.4" d="M43 56H45" stroke="#3C3700" stroke-width="1.5" stroke-linecap="round" stroke-linejoin="round"/>
<g clip-path="url(#clip0)">
<path d="M22.5757 49.4093C20.1839 47.0175 18.5045 44.1167 17.6394 40.9107C16.8251 37.7555 16.8251 34.4985 17.5885 31.3942L17.6902 31.0888C18.5045 27.8319 20.1839 24.9311 22.5757 22.5393C24.9676 20.1474 27.8683 18.4681 31.0744 17.6029L31.3797 17.5011C34.5349 16.7887 37.7919 16.7887 40.9471 17.6029C44.1532 18.4681 47.1048 20.1983 49.4458 22.5393C51.8376 24.9311 53.517 27.8319 54.3821 31.038C55.2473 34.1423 55.2473 37.3992 54.433 40.5544L54.3312 40.8598C53.4661 44.0659 51.7358 47.0175 49.3949 49.3584C47.003 51.7503 44.1023 53.4297 40.8962 54.2948L40.6418 54.4475C37.5375 55.2108 34.2805 55.2108 31.1253 54.3966C27.8683 53.4806 24.9676 51.8012 22.5757 49.4093ZM18.8098 31.0888L18.7589 31.3433C17.8938 34.3458 17.8938 37.6028 18.7081 40.6562C19.5223 43.7096 21.1508 46.4577 23.39 48.6969C25.6291 50.936 28.4281 52.5136 31.4306 53.3788C34.484 54.193 37.6901 54.2439 40.6926 53.3788L40.998 53.277C43.8987 52.4119 46.545 50.8852 48.7333 48.6969C50.8707 46.5595 52.4483 43.8623 53.3134 40.9616L53.3134 40.6562C54.1277 37.6028 54.1277 34.4476 53.3134 31.3942C52.4992 28.3408 50.8707 25.5927 48.6315 23.3535C46.4432 21.0635 43.6443 19.4859 40.6926 18.6716C37.6392 17.8574 34.3823 17.8574 31.3797 18.7225L31.0744 18.8243C28.1736 19.6894 25.5273 21.2161 23.3391 23.4044C21.1508 25.4909 19.5732 28.1881 18.8098 31.0888ZM24.6622 47.3228C22.6775 45.3381 21.2017 42.8445 20.4892 40.0964C19.7767 37.3483 19.7767 34.4985 20.4892 31.7504C21.2017 29.0023 22.6266 26.5596 24.6113 24.5749C26.596 22.5902 29.0897 21.1143 31.8377 20.4019C34.5349 19.6385 37.4357 19.6894 40.1837 20.4019C42.9318 21.1143 45.3745 22.5393 47.4102 24.5749C49.3949 26.5596 50.8707 29.0532 51.5832 31.8013C52.2956 34.5494 52.2956 37.3992 51.5832 40.1473C50.8707 42.8954 49.4458 45.3381 47.4102 47.3737C45.4254 49.3584 42.9318 50.8343 40.2346 51.4958C37.5374 52.2592 34.6367 52.2083 31.8886 51.4958C29.1406 50.7834 26.6469 49.3076 24.6622 47.3228ZM46.5959 25.3891C44.713 23.5062 42.372 22.183 39.8784 21.5215C37.3339 20.809 34.6367 20.8599 32.1431 21.5215C29.6495 22.183 27.3085 23.5062 25.4256 25.3891C23.5426 27.2721 22.2195 29.613 21.5579 32.1066C20.8454 34.6512 20.8454 37.2975 21.5579 39.842C22.2195 42.3356 23.5426 44.6765 25.4256 46.5595C27.3085 48.4424 29.6495 49.7656 32.1431 50.4271C34.6876 51.1396 37.3848 51.0887 39.8784 50.4271C42.372 49.7656 44.713 48.4424 46.5959 46.5595C48.4789 44.6765 49.802 42.3356 50.4636 39.842C51.176 37.2975 51.176 34.6512 50.4636 32.1066C49.802 29.613 48.4789 27.2721 46.5959 25.3891Z" fill="#3C3700"/>
<path d="M22.5753 49.4088C22.3718 49.2053 22.3209 48.849 22.5753 48.5946L24.6109 46.559C24.8145 46.3554 25.1707 46.3045 25.4252 46.559C25.6796 46.8134 25.6796 47.1188 25.4252 47.3732L23.3387 49.4597C23.1351 49.6633 22.7789 49.6124 22.5753 49.4088Z" fill="#3C3700"/>
<path d="M46.5956 25.3888C46.392 25.1853 46.3411 24.829 46.5956 24.5746L48.6312 22.539C48.9365 22.3354 49.2419 22.3354 49.4455 22.539C49.649 22.7425 49.6999 23.0988 49.4455 23.3532L47.359 25.4397C47.1554 25.6433 46.7992 25.5924 46.5956 25.3888Z" fill="#3C3700"/>
<path d="M30.8713 54.2442C30.7186 54.0915 30.6677 53.9389 30.7186 53.6844L31.5328 50.8346C31.6346 50.5292 31.8891 50.3765 32.1944 50.4783C32.4998 50.5801 32.6524 50.8346 32.5507 51.1399L31.7364 53.9898C31.6346 54.2951 31.3802 54.4478 31.0748 54.346C30.9731 54.346 30.9222 54.2951 30.8713 54.2442Z" fill="#3C3700"/>
<path d="M39.6243 21.3691C39.4716 21.2164 39.4207 21.0637 39.4716 20.8093L40.235 17.9085C40.3368 17.6032 40.5912 17.4505 40.8966 17.5523C41.2019 17.6541 41.3546 17.9085 41.2528 18.2139L40.4894 21.1146C40.3877 21.42 40.1332 21.5726 39.8279 21.4709C39.777 21.5217 39.7261 21.4709 39.6243 21.3691Z" fill="#3C3700"/>
<path d="M40.4385 54.2442L40.3367 54.1424L39.5734 51.1399C39.4716 50.8346 39.6752 50.5292 39.9296 50.4783C40.2349 50.3765 40.5403 50.5801 40.5912 50.8346L41.3545 53.6335C41.4054 53.7862 41.3545 54.0406 41.2019 54.1933C40.9474 54.4478 40.6421 54.4478 40.4385 54.2442Z" fill="#3C3700"/>
<path d="M31.6346 21.42C31.5837 21.3691 31.4819 21.2673 31.4819 21.1655L30.7185 18.3666C30.6676 18.2139 30.7185 17.9595 30.8712 17.8068C31.0748 17.6032 31.431 17.5523 31.6346 17.7559L31.7363 17.8577L31.7872 18.0103L32.4997 20.8602C32.6015 21.1655 32.3979 21.4709 32.1435 21.5218C31.9399 21.6235 31.7363 21.5218 31.6346 21.42Z" fill="#3C3700"/>
<path d="M48.683 49.4609L46.5965 47.3744C46.393 47.1709 46.3421 46.8146 46.5965 46.5602C46.851 46.3057 47.1563 46.3057 47.4108 46.5602L49.4973 48.6467C49.7008 48.8503 49.7517 49.2065 49.4973 49.4609C49.2428 49.7154 48.8866 49.6645 48.683 49.4609Z" fill="#3C3700"/>
<path d="M24.662 25.4399L22.5755 23.3534C22.372 23.1499 22.3211 22.7937 22.5755 22.5392C22.83 22.2848 23.1353 22.2848 23.3898 22.5392L25.4763 24.6257C25.6799 24.8293 25.7307 25.1855 25.4763 25.4399C25.2218 25.6944 24.8656 25.6435 24.662 25.4399Z" fill="#3C3700"/>
<path d="M17.8939 31.6996L17.7921 31.5978C17.5886 31.3943 17.5377 31.038 17.7921 30.7836C17.9448 30.6309 18.1992 30.58 18.3519 30.6309L21.1509 31.3943C21.4562 31.496 21.6089 31.7505 21.5071 32.0558C21.4053 32.3612 21.1509 32.5138 20.8455 32.4121L17.8939 31.6996Z" fill="#3C3700"/>
<path d="M50.6163 40.4018C50.4637 40.2491 50.4128 40.0964 50.4637 39.842C50.5654 39.5366 50.8199 39.384 51.1252 39.4857L54.1278 40.2491L54.2295 40.3509C54.4331 40.5544 54.484 40.9107 54.2295 41.1651C54.0769 41.3178 53.8224 41.3687 53.6697 41.3178L50.8708 40.5544C50.7181 40.5035 50.6672 40.4527 50.6163 40.4018Z" fill="#3C3700"/>
<path d="M17.7912 41.1641C17.7403 41.1133 17.6385 41.0115 17.6385 40.9097C17.5368 40.6044 17.7403 40.299 17.9948 40.2481L20.8955 39.4848C21.2009 39.383 21.5062 39.5865 21.5571 39.841C21.6589 40.1463 21.4553 40.4517 21.2009 40.5026L18.3001 41.2659C18.0966 41.3677 17.893 41.2659 17.7912 41.1641Z" fill="#3C3700"/>
<path d="M50.6164 32.3612C50.5655 32.3103 50.4637 32.2085 50.4637 32.1067C50.362 31.8014 50.5655 31.496 50.82 31.4451L53.6698 30.6309C53.9752 30.5291 54.2805 30.7327 54.3314 30.9871C54.4332 31.2925 54.2296 31.5978 53.9752 31.6487L51.1253 32.4629C50.9217 32.5647 50.7691 32.5138 50.6164 32.3612Z" fill="#3C3700"/>
<path d="M24.1023 33.2261C23.8987 33.0225 23.8479 32.6663 24.1023 32.4119L33.2626 23.2516C33.4661 23.048 33.8223 22.9972 34.0768 23.2516C34.3313 23.5061 34.3313 23.8114 34.0768 24.0658L24.9166 33.2261C24.6621 33.4805 24.3059 33.4297 24.1023 33.2261Z" fill="#3C3700"/>
<path d="M25.4767 42.7428C25.2731 42.5393 25.2222 42.183 25.4767 41.9286L40.7438 26.6615C40.9473 26.458 41.3036 26.4071 41.558 26.6615C41.8125 26.916 41.8125 27.2213 41.558 27.4758L26.2909 42.7428C25.9856 42.9464 25.6802 42.9464 25.4767 42.7428Z" fill="#3C3700"/>
<path d="M30.871 46.1017C30.6674 45.8982 30.6165 45.5419 30.871 45.2875L46.138 30.0204C46.3416 29.8168 46.6978 29.766 46.9523 30.0204C47.2067 30.2749 47.2067 30.5802 46.9523 30.8346L31.6852 46.1017C31.4308 46.3562 31.1254 46.3562 30.871 46.1017Z" fill="#3C3700"/>
<path d="M39.3688 48.4923C39.1652 48.2888 39.1143 47.9325 39.3688 47.6781L48.0201 39.0268C48.2237 38.8232 48.5799 38.7723 48.8344 39.0267C49.0888 39.2812 49.0888 39.5865 48.8344 39.841L40.183 48.4923C39.9286 48.7468 39.5723 48.6959 39.3688 48.4923Z" fill="#3C3700"/>
<circle cx="36.0719" cy="36.0719" r="8.24621" fill="white" stroke="#9B3717" stroke-width="1.5"/>
<path d="M32.1138 35.7121L35.3524 38.9507L40.0304 34.2727" stroke="#9B3717" stroke-width="1.5"/>
</g>
<defs>
<clipPath id="clip0">
<rect x="17" y="17" width="38" height="38" fill="white"/>
</clipPath>
</defs>
</svg>
