<svg width="64" height="41" viewBox="0 0 64 41" fill="none" xmlns="http://www.w3.org/2000/svg">
<g clip-path="url(#clip0)">
<path d="M64 38.8036C64 40.0064 63.0303 41 61.8565 41H2.14354C0.969697 41 0 40.0064 0 38.8036V2.19643C0 0.993622 0.969697 0 2.14354 0H61.9075C63.0813 0 64.051 0.993622 64.051 2.19643V38.8036H64Z" fill="white"/>
<path d="M29.4482 26.6709H26.335L28.2744 14.3291H31.4386L29.4482 26.6709Z" fill="#0066B2"/>
<path d="M23.6814 14.3291L20.7212 22.801L20.364 20.9707L19.2922 15.4273C19.2922 15.4273 19.1901 14.3291 17.8121 14.3291H12.8616L12.8105 14.5383C12.8105 14.5383 14.3416 14.8521 16.0769 15.9503L18.8329 26.6709H22.0992L27.0498 14.3291H23.6814Z" fill="#0066B2"/>
<path d="M48.2804 26.6709H51.1384L48.6376 14.3813H46.1368C44.963 14.3813 44.7078 15.3227 44.7078 15.3227L40.0635 26.6709H43.3298L43.9933 24.8405H47.9742L48.2804 26.6709ZM44.8609 22.278L46.4941 17.676L47.4128 22.278H44.8609V22.278Z" fill="#0066B2"/>
<path d="M40.2681 17.3099L40.7274 14.6428C40.7274 14.6428 39.3494 14.1199 37.9204 14.1199C36.3893 14.1199 32.6636 14.7997 32.6636 18.199C32.6636 21.389 37.0017 21.4413 37.0017 23.0625C37.0017 24.7359 33.1229 24.4222 31.847 23.3763L31.3877 26.1479C31.3877 26.1479 32.7657 26.8278 34.9092 26.8278C37.0528 26.8278 40.2681 25.6773 40.2681 22.5918C40.2681 19.4018 35.8789 19.088 35.8789 17.7283C35.93 16.3686 38.9411 16.5778 40.2681 17.3099Z" fill="#0066B2"/>
<path d="M20.364 20.9707L19.2922 15.4273C19.2922 15.4273 19.1901 14.3291 17.8121 14.3291H12.8616L12.8105 14.5383C12.8105 14.5383 15.1582 15.0612 17.4549 16.9439C19.6495 18.722 20.364 20.9707 20.364 20.9707Z" fill="#F9A533"/>
</g>
<defs>
<clipPath id="clip0">
<path d="M0 0H64V41H0V0Z" fill="white"/>
</clipPath>
</defs>
</svg>
