<svg width="25" height="27" viewBox="0 0 25 27" fill="none" xmlns="http://www.w3.org/2000/svg">
<path d="M7.09032 17.7245H22.0141C23.6625 17.7245 25 16.3772 25 14.7292V8.42115C25 8.05369 24.7003 7.75305 24.334 7.75305C23.9677 7.75305 23.668 8.05369 23.668 8.42115V14.7236C23.668 15.6422 22.9243 16.3827 22.0141 16.3827H7.09032C6.17458 16.3827 5.43643 15.6367 5.43643 14.7236V11.0101V6.85668V6.31663V2.40822C5.43643 2.38595 5.43643 2.35811 5.43088 2.33584C5.43088 2.33027 5.43088 2.32471 5.43088 2.31914C5.43088 2.30244 5.42533 2.28573 5.42533 2.2746C5.42533 2.26346 5.41978 2.24676 5.41423 2.23562C5.41423 2.23006 5.40868 2.21892 5.40868 2.21335C5.40313 2.19665 5.39758 2.18552 5.39204 2.16881C5.39204 2.16325 5.38649 2.15768 5.38649 2.15211C5.38094 2.14098 5.37538 2.12427 5.36983 2.11314C5.36428 2.10757 5.36429 2.102 5.35874 2.09087C5.35319 2.07973 5.34764 2.0686 5.34209 2.05746C5.33654 2.0519 5.33099 2.04076 5.32544 2.03519C5.31989 2.02963 5.31434 2.01849 5.30879 2.01292C5.30324 2.00179 5.29214 1.99065 5.28659 1.98509C5.28104 1.97952 5.27549 1.97395 5.26994 1.96838C5.25884 1.95725 5.25329 1.94611 5.24219 1.93498C5.23664 1.92941 5.23109 1.92384 5.22554 1.92384C5.21444 1.91271 5.20334 1.90157 5.19224 1.89601C5.18669 1.89044 5.18114 1.88487 5.17559 1.88487C5.16449 1.87374 5.15339 1.86817 5.14229 1.8626C5.13119 1.85147 5.11454 1.8459 5.10344 1.84033C5.09789 1.83476 5.09234 1.83476 5.08679 1.8292C5.06459 1.81806 5.04239 1.80693 5.02574 1.79579L0.924327 0.0531528C0.58578 -0.0916029 0.197284 0.0698554 0.052985 0.409475C-0.0913137 0.743527 0.0696348 1.13882 0.408182 1.28358L4.0989 2.84805V6.31663V6.85668V11.0101V14.7236V19.417C4.0989 20.9871 5.30324 22.2732 6.83502 22.4012C6.52422 22.8689 6.34108 23.4312 6.34108 24.0381C6.34108 25.6694 7.66751 27 9.29365 27C10.9198 27 12.2462 25.6694 12.2462 24.0381C12.2462 23.4368 12.0686 22.88 11.7634 22.4124H18.8285C18.5232 22.88 18.3456 23.4368 18.3456 24.0381C18.3456 25.6694 19.6721 27 21.2982 27C22.9243 27 24.2508 25.6694 24.2508 24.0381C24.2508 22.4068 22.9243 21.0761 21.2982 21.0761H7.09032C6.17458 21.0761 5.43643 20.3301 5.43643 19.417V17.2178C5.90818 17.5352 6.47983 17.7245 7.09032 17.7245ZM10.9142 24.0381C10.9142 24.9344 10.1872 25.6638 9.29365 25.6638C8.40011 25.6638 7.67306 24.9344 7.67306 24.0381C7.67306 23.1417 8.40011 22.4124 9.29365 22.4124C10.1872 22.4124 10.9142 23.1417 10.9142 24.0381ZM22.9132 24.0381C22.9132 24.9344 22.1862 25.6638 21.2926 25.6638C20.3991 25.6638 19.6721 24.9344 19.6721 24.0381C19.6721 23.1417 20.3991 22.4124 21.2926 22.4124C22.1862 22.4124 22.9132 23.1417 22.9132 24.0381Z" fill="white"/>
</svg>
