<svg width="19" height="19" viewBox="0 0 19 19" fill="none" xmlns="http://www.w3.org/2000/svg">
<g clip-path="url(#clip0)">
<path d="M13.6978 1.73915C11.3786 -0.580041 7.62137 -0.580041 5.30159 1.73915C2.9824 4.05715 2.9824 7.81796 5.30159 10.1354C5.30159 10.1354 9.49702 14.2501 9.49702 19.0001C9.49702 14.2501 13.6972 10.1354 13.6972 10.1354C16.0176 7.81855 16.0176 4.05715 13.6978 1.73915ZM9.49762 8.31552C8.18721 8.31552 7.12499 7.2533 7.12499 5.94052C7.12499 4.62774 8.18721 3.56552 9.49762 3.56552C10.8128 3.56552 11.875 4.62774 11.875 5.94052C11.875 7.2533 10.8128 8.31552 9.49762 8.31552Z" fill="#CE323A"/>
</g>
<defs>
<clipPath id="clip0">
<rect width="19" height="19" fill="white"/>
</clipPath>
</defs>
</svg>
