<svg width="19" height="19" viewBox="0 0 19 19" fill="none" xmlns="http://www.w3.org/2000/svg">
<path d="M17.6507 8.72986H15.7575H15.5042C14.9446 8.72986 14.4906 9.18378 14.4906 9.74534V9.85543C14.4906 10.4175 14.9446 10.8717 15.505 10.8717H17.4002H17.6507C18.2115 10.8717 18.6667 10.4156 18.6667 9.85543L18.6657 9.74399C18.6667 9.18378 18.2115 8.72986 17.6507 8.72986Z" fill="#CE323A"/>
<path d="M17.6518 6.19649H17.2047V1.28366C17.2047 0.577565 16.6271 0 15.9207 0H7.45005C6.74396 0 6.16639 0.577837 6.16639 1.28366V4.80843C4.45783 5.7743 2.69558 6.78327 2.69178 6.78571C1.73514 7.17943 0.333527 8.44981 0.333527 11.4496C0.333527 11.7175 0.351152 11.9648 0.375827 12.2037C0.383691 12.2737 0.392368 12.3409 0.401858 12.4084C0.426534 12.5839 0.457446 12.7517 0.494323 12.9112C0.50761 12.9681 0.517914 13.0275 0.532285 13.082C0.581907 13.2664 0.639392 13.4394 0.703928 13.604C0.736467 13.6856 0.771717 13.7599 0.807239 13.8363C0.845201 13.9169 0.883434 13.9961 0.924379 14.0701C0.971831 14.1593 1.01928 14.2453 1.07135 14.3269C1.08382 14.3459 1.09738 14.3632 1.11012 14.3825C2.34551 16.2499 4.62459 16.2583 4.62459 16.2583H6.16639V17.7169C6.16639 18.4222 6.74396 18.9997 7.45005 18.9997H15.9205C16.6268 18.9997 17.2044 18.4219 17.2044 17.7169V15.9378H17.4002V15.9367H17.6499C18.2115 15.9367 18.6668 15.4825 18.6657 14.921L18.6668 14.8103C18.6657 14.2496 18.2115 13.7968 17.6507 13.7968H17.4002H15.7572H15.504C14.9432 13.7968 14.4904 14.2507 14.4904 14.8112V14.9237C14.4904 15.4828 14.9443 15.9386 15.5048 15.9386H16.3112V16.6257H7.05932V7.40883C7.52408 7.11409 7.95441 6.83046 8.1998 6.64037C9.44306 5.67885 10.6231 4.9131 10.7828 4.21867C10.9908 3.31761 10.2991 2.55837 9.09923 3.18176C8.72124 3.37808 7.94546 3.80841 7.05932 4.30598V2.03422L16.3112 2.03558V6.19595H15.7572V6.19703H15.5053C14.9443 6.19703 14.489 6.65095 14.489 7.21306V7.32315C14.489 7.88499 14.9443 8.33782 15.504 8.33782H15.7559H17.3988H17.6513C18.2115 8.33782 18.6657 7.8839 18.6657 7.32315V7.21008C18.6668 6.65176 18.2128 6.19649 17.6518 6.19649ZM11.6842 17.0764C12.0399 17.0764 12.3268 17.3636 12.3268 17.7185C12.3268 18.0743 12.0397 18.3603 11.6842 18.3603C11.3298 18.3603 11.0434 18.0735 11.0434 17.7185C11.044 17.3647 11.3311 17.0764 11.6842 17.0764ZM13.0408 1.23594H10.3303C10.2451 1.23594 10.1746 1.16679 10.1746 1.08138C10.1746 0.994605 10.2451 0.92546 10.3303 0.92546H13.0408C13.1259 0.92546 13.1953 0.994334 13.1953 1.08138C13.1953 1.16652 13.1259 1.23594 13.0408 1.23594Z" fill="#CE323A"/>
<path d="M17.6507 11.2633H17.4002H15.5042C14.9446 11.2633 14.4893 11.7186 14.4893 12.2791V12.3902C14.4893 12.9513 14.9435 13.4052 15.5042 13.4052H15.7561H17.3991H17.6502C18.2117 13.4052 18.6646 12.9513 18.6659 12.3902V12.2791C18.6657 11.7186 18.2128 11.2633 17.6507 11.2633Z" fill="#CE323A"/>
</svg>
