<svg version="1.1" xmlns="http://www.w3.org/2000/svg" xmlns:xlink="http://www.w3.org/1999/xlink" x="0px" y="0px"
	 viewBox="0 0 536.8 331.2" style="enable-background:new 0 0 536.8 331.2;" xml:space="preserve">
<style type="text/css">
	.st0{display:none;}
	.st1{display:inline;}
	.st2{fill:#A700FD;}
	.st3{display:inline;fill:#B103FF;}
	.st4{font-family:'MyriadPro-Regular';}
	.st5{font-size:57.9983px;}
	.st6{font-size:21.3754px;}
</style>
<g id="Layer_1" class="st0">
	
		<image style="display:inline;overflow:visible;" width="1920" height="10000" xlink:href="../Elbrus_Race_Index3.jpg"  transform="matrix(1 0 0 1 -1281.5045 -6974.8779)">
	</image>
</g>
<g id="Layer_3" class="st0">
	<g class="st1">
		<polygon points="638.5,-5755.9 638.5,-6974.9 273.8,-6974.9 -208.2,-6531.9 		"/>
		<polygon points="2.5,-6774.9 -218.2,-6974.9 -241.9,-6974.9 -459.5,-6772.9 -228.5,-6559.4 		"/>
		<polygon points="-65,-6349.4 -267.2,-6164.1 -65,-5980.1 137.3,-6164.8 		"/>
		<polygon points="-262.8,-6513.7 -327.5,-6578.9 -392.2,-6513.9 -327.5,-6449.9 		"/>
		<polygon points="-286.7,-6339.4 -358.3,-6267.4 -286,-6193.9 -212.5,-6266.9 		"/>
		<path d="M77.2-6050.5l94,85.8l93.7-86.1l-93.8-86.4L77.2-6050.5z M235.3-6050.8l-64.2,59l-64.4-58.8L171-6110L235.3-6050.8z"/>
		<polygon points="218.6,-6974.9 144.3,-6974.9 34.2,-6873.7 -76.4,-6974.9 -150.5,-6974.9 34.3,-6805.7 		"/>
		<polygon points="-1281.5,-6431.1 -1237.3,-6390.8 -1281.5,-6350.5 -1281.5,-6281.8 -1161.8,-6390.9 -1281.5,-6499.9 		"/>
		<polygon points="-1281.5,-6245.7 -1281.5,-6159.7 -1260.4,-6138.7 -1196.4,-6203.1 -1260.5,-6266.8 		"/>
		<g class="st0">
			<text transform="matrix(1 0 0 1 288.046 -6481.3037)" class="st4" style="display:inline;fill:#A700FD; font-size:139.7612px;">01</text>
			
				<text transform="matrix(1 0 0 1 -300.2592 -6739.6152)" class="st4" style="display:inline;fill:#A700FD; font-size:139.7612px;">02</text>
			
				<text transform="matrix(1 0 0 1 -134.2595 -6118.2817)" class="st4" style="display:inline;fill:#A700FD; font-size:139.7612px;">03</text>
			<text transform="matrix(1 0 0 1 -358.8955 -6494.9951)" class="st4" style="display:inline;fill:#A700FD; font-size:57.204px;">04</text>
			<text transform="matrix(1 0 0 1 -314.8955 -6246.9951)" class="st4" style="display:inline;fill:#A700FD; font-size:57.204px;">05</text>
			<text transform="matrix(1 0 0 1 141.1045 -6032.3281)" class="st4" style="display:inline;fill:#A700FD; font-size:57.204px;">06</text>
			<text transform="matrix(1 0 0 1 6.1112 -6918.7837)" class="st4" style="display:inline;fill:#A700FD; font-size:57.204px;">07</text>
			<text transform="matrix(1 0 0 1 -1241.8888 -6368.7837)" class="st4" style="display:inline;fill:#A700FD; font-size:57.204px;">08</text>
			
				<text transform="matrix(1 0 0 1 -1275.0967 -6188.9502)" class="st4" style="display:inline;fill:#A700FD; font-size:44.7127px;">09</text>
		</g>
	</g>
</g>
<g id="Layer_5">
	<g>
		<polygon points="536.8,183.1 435,90.1 333.2,183.1 435,276.1 		"/>
		<polygon points="303.7,93 202,0 100.2,93 202,186 		"/>
		<polygon points="353.1,246 279,178.2 204.9,246 279,313.7 		"/>
		<path d="M146,244.3l-47.6,43.5l47.6,43.5l47.6-43.5L146,244.3z M128.3,287.8l17.7-16.2l17.7,16.2L146,304L128.3,287.8z"/>
		<path d="M47.6,99.1L0,142.5L47.6,186l47.6-43.5L47.6,99.1z M29.9,142.5l17.7-16.2l17.7,16.2l-17.7,16.2L29.9,142.5z"/>
		<path d="M363.1,13.6L315.5,57l47.6,43.5L410.6,57L363.1,13.6z M345.4,57l17.7-16.2L380.8,57l-17.7,16.2L345.4,57z"/>
		<g class="st0">
			<text transform="matrix(1 0 0 1 409 197.2956)" class="st3 st4 st5">01</text>
			<text transform="matrix(1 0 0 1 174 109.9622)" class="st3 st4 st5">02</text>
			<text transform="matrix(1 0 0 1 248.6667 265.2956)" class="st3 st4 st5">03</text>
			<text transform="matrix(1 0 0 1 134.8125 293.8281)" class="st3 st4 st6">04</text>
			<text transform="matrix(1 0 0 1 34.4792 149.4948)" class="st3 st4 st6">04</text>
			<text transform="matrix(1 0 0 1 351.0858 63.8281)" class="st3 st4 st6">04</text>
		</g>
	</g>
</g>
</svg>
