<svg width="20" height="20" viewBox="0 0 20 20" fill="none" xmlns="http://www.w3.org/2000/svg">
<path d="M18.4456 9.06174L14.6912 12.815C12.619 14.8884 9.25745 14.8884 7.18493 12.815C6.85848 12.4894 6.60309 12.1226 6.37882 11.7444L8.1233 10C8.20622 9.91638 8.30862 9.86847 8.40647 9.81201C8.52708 10.2241 8.73761 10.6142 9.06166 10.9382C10.0965 11.9739 11.7804 11.9725 12.8147 10.9382L16.5679 7.1851C17.6036 6.14954 17.6036 4.46602 16.5679 3.43125C15.5337 2.39648 13.8502 2.39648 12.8147 3.43125L11.48 4.76736C10.3969 4.34563 9.23005 4.23225 8.09411 4.39872L10.9382 1.55474C13.0116 -0.518248 16.3723 -0.518248 18.4456 1.55474C20.518 3.62765 20.518 6.98887 18.4456 9.06174ZM8.52051 15.2333L7.18489 16.5694C6.15012 17.6037 4.46612 17.6037 3.43117 16.5694C2.39632 15.5337 2.39632 13.8502 3.43117 12.815L7.18489 9.06174C8.22049 8.02627 9.90335 8.02627 10.9381 9.06174C11.2614 9.38513 11.4722 9.77512 11.5939 10.1867C11.6923 10.1295 11.7935 10.083 11.8764 9.99997L13.6207 8.25632C13.3979 7.87656 13.1412 7.51107 12.8146 7.18518C10.7426 5.11219 7.38072 5.11219 5.30773 7.18518L1.55458 10.9385C-0.518194 13.0121 -0.518194 16.3723 1.55458 18.4458C3.62757 20.5181 6.98867 20.5181 9.06161 18.4458L11.9064 15.6012C10.7699 15.7686 9.60267 15.6543 8.52051 15.2333Z" fill="#EA2027"/>
</svg>
