<svg xmlns="http://www.w3.org/2000/svg" width="35" height="46" viewBox="0 0 35 46"><g><g><g><path fill="#f43c3c" d="M12.475 22.95c6.337 0 11.475-5.138 11.475-11.475S18.812 0 12.475 0 1 5.138 1 11.475 6.138 22.95 12.475 22.95z"/></g><g><g><path fill="#f1f2f6" d="M29.319 42.828H18.333V31.754h11.259v10.8c0 .151-.123.274-.273.274zm-24.812-.273V31.754h11.031v11.073H4.778a.272.272 0 0 1-.271-.272zm5.358-27.522c.615.123 2.075 1.742 3.49 3.78H9.904c-1.349 0-2.488-.866-2.488-1.889 0-1.023 1.14-1.889 2.45-1.891zm14.1.002c1.35 0 2.488.867 2.488 1.893s-1.139 1.893-2.487 1.893h-3.451c1.413-2.042 2.865-3.665 3.45-3.786zm-5.632 8.515h12.48c.15 0 .273.122.273.272v4.845c0 .15-.122.271-.273.271h-12.48zM2.795 28.669v-4.846c0-.15.122-.272.273-.272h12.48v5.388H3.068a.272.272 0 0 1-.273-.27zm28.009-7.915h-3.796c1.352-.85 2.24-2.247 2.24-3.826 0-2.585-2.37-4.687-5.282-4.687-2.471 0-5.397 4.235-7.03 6.972-1.634-2.736-4.561-6.972-7.032-6.972-2.913 0-5.282 2.103-5.282 4.687 0 1.58.887 2.976 2.24 3.826H3.067A3.07 3.07 0 0 0 0 23.819v4.862c0 1.205.7 2.245 1.712 2.747v11.126a3.07 3.07 0 0 0 3.067 3.068h24.54a3.07 3.07 0 0 0 3.067-3.068v-11.25a3.064 3.064 0 0 0 1.485-2.622V23.82a3.07 3.07 0 0 0-3.067-3.067z"/></g><g><path fill="#262a2f" d="M30.319 41.828H19.333V30.754h11.259v10.8c0 .151-.123.274-.273.274zm-24.812-.273V30.754h11.031v11.073H5.778a.272.272 0 0 1-.271-.272zm5.358-27.522c.615.123 2.075 1.742 3.49 3.78h-3.451c-1.349 0-2.488-.866-2.488-1.889 0-1.023 1.14-1.889 2.45-1.891zm14.1.002c1.35 0 2.488.867 2.488 1.893s-1.139 1.893-2.487 1.893h-3.451c1.413-2.042 2.865-3.665 3.45-3.786zm-5.632 8.515h12.48c.15 0 .273.122.273.272v4.845c0 .15-.122.271-.273.271h-12.48zM3.795 27.669v-4.846c0-.15.122-.272.273-.272h12.48v5.388H4.068a.272.272 0 0 1-.273-.27zm28.009-7.915h-3.796c1.352-.85 2.24-2.247 2.24-3.826 0-2.585-2.37-4.687-5.282-4.687-2.471 0-5.397 4.235-7.03 6.972-1.634-2.736-4.561-6.972-7.032-6.972-2.913 0-5.282 2.103-5.282 4.687 0 1.58.887 2.976 2.24 3.826H4.067A3.07 3.07 0 0 0 1 22.819v4.862c0 1.205.7 2.245 1.712 2.747v11.126a3.07 3.07 0 0 0 3.067 3.068h24.54a3.07 3.07 0 0 0 3.067-3.068v-11.25a3.064 3.064 0 0 0 1.485-2.622V22.82a3.07 3.07 0 0 0-3.067-3.067z"/></g></g></g></g></svg>