<svg xmlns="http://www.w3.org/2000/svg" width="33" height="43" viewBox="0 0 33 43"><g><g><g><path fill="#f43c3c" d="M11.475 22.95c6.337 0 11.475-5.138 11.475-11.475S17.812 0 11.475 0 0 5.138 0 11.475 5.138 22.95 11.475 22.95z"/></g><g><g><path fill="#f1f2f6" d="M25.318 38.95l-5.268-5.29a1.66 1.66 0 0 0-2.36 0l-3.963 3.98-6.416-19.28 19.201 6.442-3.842 3.859a1.68 1.68 0 0 0 0 2.37l5.267 5.289zm6.159-3.815l-5.268-5.29 4.57-4.589a1.68 1.68 0 0 0-.65-2.774L5.198 14.117a1.663 1.663 0 0 0-1.71.404 1.68 1.68 0 0 0-.402 1.716l8.331 25.035a1.664 1.664 0 0 0 2.763.654l4.69-4.71 5.268 5.289a1.66 1.66 0 0 0 2.36 0l4.979-5a1.68 1.68 0 0 0 0-2.37z"/></g><g><path fill="#262a2f" d="M26.348 37.92l-5.268-5.29a1.66 1.66 0 0 0-2.36 0l-3.963 3.98-6.416-19.28 19.201 6.442-3.842 3.859a1.68 1.68 0 0 0 0 2.37l5.267 5.289zm6.159-3.815l-5.268-5.29 4.57-4.589a1.68 1.68 0 0 0-.65-2.774L6.228 13.087a1.663 1.663 0 0 0-1.71.404 1.68 1.68 0 0 0-.402 1.716l8.331 25.035a1.664 1.664 0 0 0 2.763.654l4.69-4.71 5.268 5.289a1.66 1.66 0 0 0 2.36 0l4.979-5a1.68 1.68 0 0 0 0-2.37z"/></g></g></g></g></svg>