<svg xmlns="http://www.w3.org/2000/svg" width="39" height="48" viewBox="0 0 39 48"><g><g><g><path fill="#f43c3c" d="M11.475 22.95c6.337 0 11.475-5.138 11.475-11.475S17.812 0 11.475 0 0 5.138 0 11.475 5.138 22.95 11.475 22.95z"/></g><g><g><path fill="#f1f2f6" d="M32 22.424V18.75a1.5 1.5 0 0 0-1.5-1.5H11V15h20.25A3.754 3.754 0 0 1 35 18.75c0 1.81-1.29 3.326-3 3.674zM35 42c0 1.655-1.345 3-3 3H5v-5.25h4.5c2.482 0 4.5-2.018 4.5-4.5s-2.018-4.5-4.5-4.5H5V25.5h26.25c1.387 0 2.677-.42 3.75-1.14zM5 33.75h4.5c.827 0 1.5.673 1.5 1.5s-.673 1.5-1.5 1.5H5zm3-13.5h21v2.25H8zM31.25 12H9.5A1.5 1.5 0 0 0 8 13.5v3.75H6.5a1.5 1.5 0 0 0-1.5 1.5v3.75H3.5A1.5 1.5 0 0 0 2 24v22.5A1.5 1.5 0 0 0 3.5 48H32c3.308 0 6-2.692 6-6V18.75A6.758 6.758 0 0 0 31.25 12z"/></g><g><path fill="#262a2f" d="M33 21.424V17.75a1.5 1.5 0 0 0-1.5-1.5H12V14h20.25A3.754 3.754 0 0 1 36 17.75c0 1.81-1.29 3.326-3 3.674zM36 41c0 1.655-1.345 3-3 3H6v-5.25h4.5c2.482 0 4.5-2.018 4.5-4.5s-2.018-4.5-4.5-4.5H6V24.5h26.25c1.387 0 2.677-.42 3.75-1.14zM6 32.75h4.5c.827 0 1.5.673 1.5 1.5s-.673 1.5-1.5 1.5H6zm3-13.5h21v2.25H9zM32.25 11H10.5A1.5 1.5 0 0 0 9 12.5v3.75H7.5a1.5 1.5 0 0 0-1.5 1.5v3.75H4.5A1.5 1.5 0 0 0 3 23v22.5A1.5 1.5 0 0 0 4.5 47H33c3.308 0 6-2.692 6-6V17.75A6.758 6.758 0 0 0 32.25 11z"/></g></g></g></g></svg>