<svg xmlns="http://www.w3.org/2000/svg" width="70" height="70" viewBox="0 0 70 70"><g><g><path fill="#fff" d="M11.79 14.611v51.872l3.6 2.015h6.459l2.21-5.069 5.274-2.526 5.273 2.526 2.55 5.07 7.997-.875 1.912-4.195v-1.706l4.808-.82 5.702 3.96v3.635h8.906l2.004-3.635V13.514l-5.07-2.064h-5.84l-1.54 5.035-8.97 2.848v-5.819l-3.087-2.064h-7.849l-1.523 5.035-5.273 2.848-5.273-2.848-2.211-5.035h-8.336z"/></g><g><path fill="#f43c3c" d="M18.45 36.9c10.19 0 18.45-8.26 18.45-18.45S28.64 0 18.45 0 0 8.26 0 18.45 8.26 36.9 18.45 36.9z"/></g><g><path fill="#141b23" d="M34.61 26.055c0 .97-.788 1.758-1.758 1.758H25.82a1.758 1.758 0 0 1 0-3.516h7.032c.97 0 1.757.787 1.757 1.758zm0 21.093c0 .971-.788 1.758-1.758 1.758H25.82a1.758 1.758 0 0 1 0-3.515h7.032c.97 0 1.757.787 1.757 1.757zm0-7.03c0 .97-.788 1.757-1.758 1.757H25.82a1.758 1.758 0 0 1 0-3.516h7.032c.97 0 1.757.787 1.757 1.758zM70 15.272v49.454A5.28 5.28 0 0 1 64.727 70H57.46c-.97 0-1.758-.787-1.758-1.758a5.28 5.28 0 0 0-5.273-5.273c-.602 0-1.197.104-1.758.302v1.456A5.28 5.28 0 0 1 43.398 70h-7.03c-.972 0-1.759-.787-1.759-1.758a5.28 5.28 0 0 0-5.273-5.273 5.28 5.28 0 0 0-5.273 5.273c0 .971-.788 1.758-1.758 1.758h-7.032A5.28 5.28 0 0 1 10 64.727V15.273A5.28 5.28 0 0 1 15.273 10h7.032c.97 0 1.758.787 1.758 1.758a5.28 5.28 0 0 0 5.273 5.273 5.28 5.28 0 0 0 5.273-5.273c0-.971.787-1.758 1.758-1.758h7.031a5.28 5.28 0 0 1 5.274 5.273v1.456a5.286 5.286 0 0 0 1.758.302 5.28 5.28 0 0 0 5.273-5.273c0-.971.787-1.758 1.758-1.758h7.031C67.478 10 70 12.415 70 15.273zm-24.844 0a1.76 1.76 0 0 0-1.758-1.757h-5.45c-.816 4.006-4.368 7.03-8.612 7.03s-7.796-3.024-8.613-7.03h-5.45a1.76 1.76 0 0 0-1.757 1.757v9.024h5.273a1.758 1.758 0 0 1 0 3.516h-5.273v36.914c0 .969.788 1.757 1.757 1.757h5.45c.817-4.006 4.369-7.03 8.613-7.03s7.796 3.024 8.612 7.03h5.45a1.76 1.76 0 0 0 1.758-1.757V27.813h-5.273a1.758 1.758 0 0 1 0-3.516h5.273zm8.79 33.633a1.758 1.758 0 0 0 0-3.515h-5.274v14.24a8.812 8.812 0 0 1 1.758-.178c4.244 0 7.795 3.025 8.612 7.031h5.685a1.76 1.76 0 0 0 1.757-1.757V27.813h-5.507a1.758 1.758 0 0 1 0-3.516h5.507v-9.024c0-.903-.968-1.757-1.992-1.757h-5.45c-.817 4.006-4.368 7.03-8.612 7.03-.593 0-1.182-.06-1.758-.177v3.928h5.273a1.758 1.758 0 0 1 0 3.516h-5.273v14.062h5.273a1.758 1.758 0 0 0 0-3.516h-5.273v10.547z"/></g></g></svg>