<svg xmlns="http://www.w3.org/2000/svg" width="36" height="45" viewBox="0 0 36 45"><g><g><g><path fill="#f43c3c" d="M11.475 22.95c6.337 0 11.475-5.138 11.475-11.475S17.812 0 11.475 0 0 5.138 0 11.475 5.138 22.95 11.475 22.95z"/></g><g><g><g><path fill="#f1f2f6" d="M17.298 44.78a.356.356 0 0 1-.704-.066c-.083-4.972.779-15.1 8.356-21.418l.043.045.99.965-.233 1.363a2.518 2.518 0 0 0 .435 1.902c-2.844 2.224-6.797 7.033-8.887 17.208zm-5.899-24.023c1.73 4.666 3.443 12.138 3.352 23.338a.235.235 0 0 1-.468.031c-.743-5.192-2.601-15.5-6.17-20.548.018-.039.036-.077.052-.116l.874-2.174 2.287-.512.073-.02zM26.77 39.429l-.005.016c-3.502.51-5.85 3.014-7.157 4.911a.493.493 0 0 1-.882-.413c1.197-4.305 4.945-6.007 7.436-6.672.05.422.206.832.468 1.193l.324.446zM12.76 44.387a.33.33 0 0 1-.63.178c-.93-2.333-2.471-5.582-4.561-7.948.05-.153.086-.313.106-.477l.068-.547.488-.254c.364-.19.667-.458.895-.777 1.368 1.896 2.81 4.95 3.634 9.825zm13.817-22.67a.27.27 0 0 1 .15-.46l2.548-.37 1.14-2.309a.27.27 0 0 1 .483 0l1.14 2.31 2.548.37a.27.27 0 0 1 .15.459l-1.845 1.798.436 2.538a.27.27 0 0 1-.39.284l-2.28-1.199-2.28 1.199a.268.268 0 0 1-.39-.284l.435-2.538zM7.38 19.335l-1.32 3.28a.27.27 0 0 1-.481.036l-1.8-3.042-3.528-.242a.269.269 0 0 1-.184-.446l2.338-2.653-.86-3.43a.269.269 0 0 1 .367-.312l3.246 1.403 2.996-1.878a.269.269 0 0 1 .41.253l-.331 3.52 2.711 2.27a.27.27 0 0 1-.114.468zm26.787 18.77l-1.436.989v1.743a.269.269 0 0 1-.433.214l-1.384-1.06-1.658.539a.27.27 0 0 1-.276-.068.269.269 0 0 1-.06-.278l.58-1.644-1.025-1.41a.27.27 0 0 1 .217-.427h.007l1.743.044 1.024-1.41a.27.27 0 0 1 .476.08l.497 1.672 1.658.538a.27.27 0 0 1 .07.478zM5.638 34.13l-.214 1.73a.27.27 0 0 1-.456.16l-1.243-1.223-1.712.33a.27.27 0 0 1-.292-.384l.779-1.56-.844-1.525a.27.27 0 0 1 .276-.397l1.724.259 1.19-1.274a.269.269 0 0 1 .462.139l.287 1.72 1.58.738a.27.27 0 0 1 .01.483zM18.855 19.17c-1.554 3.152-2.163 7.18-2.4 9.67-.027.29-.448.294-.483.005-.639-5.37-.031-8.94.837-11.248.304.248.667.426 1.069.513l.538.117.21.51c.063.153.14.297.23.433zm.663-6.863a.27.27 0 0 1 .284 0l1.484.913 1.595-.702a.268.268 0 0 1 .37.31l-.412 1.69 1.162 1.298a.268.268 0 0 1-.18.447l-1.738.131-.878 1.504a.27.27 0 0 1-.481-.033l-.663-1.61-1.703-.368a.269.269 0 0 1-.118-.467l1.33-1.127-.177-1.731a.268.268 0 0 1 .125-.255z"/></g><g><path fill="#262a2f" d="M18.218 43.85a.356.356 0 0 1-.704-.066c-.083-4.971.779-15.097 8.356-21.414l.043.045.99.964-.233 1.363a2.518 2.518 0 0 0 .435 1.902c-2.844 2.224-6.797 7.032-8.887 17.205zm-5.899-24.02c1.73 4.665 3.443 12.137 3.352 23.335a.235.235 0 0 1-.468.031c-.743-5.191-2.601-15.498-6.17-20.546.018-.038.036-.077.052-.116l.874-2.174 2.287-.511.073-.02zM27.69 38.504l-.005.017c-3.502.508-5.85 3.01-7.157 4.906a.494.494 0 0 1-.882-.413c1.197-4.3 4.945-6.001 7.436-6.666.05.422.206.832.468 1.192l.324.445zM13.68 43.458a.33.33 0 0 1-.63.177c-.93-2.331-2.471-5.578-4.561-7.942.05-.154.086-.313.106-.478l.068-.546.488-.254c.364-.19.667-.457.895-.776 1.368 1.894 2.81 4.946 3.634 9.819zm13.817-22.672a.269.269 0 0 1 .15-.459l2.548-.37 1.14-2.307a.27.27 0 0 1 .483 0l1.14 2.307 2.548.37a.27.27 0 0 1 .15.459l-1.845 1.796.436 2.536a.269.269 0 0 1-.391.283l-2.28-1.197-2.28 1.197a.268.268 0 0 1-.39-.283l.436-2.536zM8.3 18.4l-1.32 3.278a.27.27 0 0 1-.481.037l-1.8-3.041-3.528-.242a.269.269 0 0 1-.184-.446l2.338-2.65-.86-3.428a.269.269 0 0 1 .367-.313l3.246 1.403 2.996-1.877a.27.27 0 0 1 .41.253l-.331 3.518 2.711 2.268a.269.269 0 0 1-.114.468zm26.787 18.778l-1.436.987v1.741a.269.269 0 0 1-.433.214l-1.384-1.059-1.658.539a.27.27 0 0 1-.276-.068.268.268 0 0 1-.06-.278l.58-1.641-1.025-1.408a.268.268 0 0 1 .217-.427h.007l1.743.044 1.024-1.409a.27.27 0 0 1 .476.081l.497 1.67 1.658.537a.269.269 0 0 1 .07.477zM6.558 33.2l-.214 1.728a.269.269 0 0 1-.456.159l-1.243-1.221-1.712.33a.27.27 0 0 1-.292-.384l.779-1.557-.844-1.524a.268.268 0 0 1 .276-.396l1.724.258 1.19-1.272a.27.27 0 0 1 .462.14l.287 1.716 1.58.738a.269.269 0 0 1 .01.482zM19.775 18.24c-1.554 3.151-2.163 7.176-2.4 9.666-.027.29-.448.293-.483.004-.639-5.367-.031-8.935.837-11.241a2.54 2.54 0 0 0 1.069.513l.538.116.21.51c.063.153.14.297.23.432zm.663-6.863a.27.27 0 0 1 .284 0l1.484.912 1.595-.702a.269.269 0 0 1 .37.31l-.412 1.688 1.162 1.296a.268.268 0 0 1-.18.446l-1.738.131-.878 1.502a.27.27 0 0 1-.481-.033l-.663-1.608-1.703-.367a.269.269 0 0 1-.118-.467l1.33-1.125-.177-1.729a.268.268 0 0 1 .125-.254z"/></g></g></g></g></g></svg>