<svg xmlns="http://www.w3.org/2000/svg" width="64" height="62" viewBox="0 0 64 62"><g><g><g><path fill="#fff" d="M12.496 3.518L8.98 5.273l1.804 4.44 9.972 9.92h9.365l3.818 10.37-11.5 5.143-5.04 16.182 3.357 3.453 3.48-1.808 3.442-12.553 8.255-2.78v17.141l1.219 3.721h3.515l1.93-4.6V31.631L38.91 19.634l5.69-1.072L55.472 7.034l-1.404-2.548-2.855-.968-10.547 8.55h-7.03l2.296-5.034-2.297-4.865-5.064-.729-3.576 3.046.699 5.226.91 2.357h-4.166L13.58 3.518"/></g><g><path fill="#f43c3c" d="M45.45 52.9c10.19 0 18.45-8.26 18.45-18.45S55.64 16 45.45 16 27 24.26 27 34.45 35.26 52.9 45.45 52.9z"/></g><g><path fill="#141b23" d="M52.978 24.596a1.758 1.758 0 1 0 0-3.516 1.758 1.758 0 0 0 0 3.516z"/></g><g><path fill="#f1f2f6" d="M38.512 36.132a1.755 1.755 0 0 1-1.171.972l-10.575 2.644a5.287 5.287 0 0 0-3.617 3.157c-.04.1-.07.204-.092.31l-2.143 10.772a1.757 1.757 0 0 1-2.23.857 1.763 1.763 0 0 1-.98-2.287c.034-.086.061-.175.082-.266l2.815-12.48a5.288 5.288 0 0 1 3.567-3.038l8.067-2.017a1.757 1.757 0 0 0 1.233-2.286l-4.1-11.715a1.758 1.758 0 0 0-1.658-1.177h-8.374c-.3 0-.591-.076-.852-.22L9.84 10.713a1.748 1.748 0 0 0-.268-.22 1.745 1.745 0 0 1-.748-1.117c-.092-.46 0-.93.26-1.319a1.752 1.752 0 0 1 2.302-.571l6.704 6.943a5.297 5.297 0 0 0 3.815 1.634h15.613a5.239 5.239 0 0 0 3.729-1.545l6.73-6.73a1.745 1.745 0 0 1 1.242-.515c.469 0 .91.183 1.242.516.333.332.516.773.516 1.242 0 .47-.183.91-.516 1.243l-7.76 7.76a5.238 5.238 0 0 1-3.728 1.544h-3.401a1.758 1.758 0 0 0-1.655 2.352l4.488 12.49c.023.066.05.13.082.192.239.479.248 1.034.025 1.52zm.15 20.586c0 .968-.786 1.756-1.753 1.756a1.757 1.757 0 0 1-1.753-1.756V41.273l3.03-.759c.162-.04.32-.09.476-.145zm-19.24 1.766a5.257 5.257 0 0 0 4.81-3.312c.04-.1.072-.205.093-.312l2.143-10.772a1.763 1.763 0 0 1 1.151-.93l4.022-1.005v14.574c0 .616.107 1.207.302 1.757zm8.703-52.968a3.52 3.52 0 0 1 3.516 3.515 3.52 3.52 0 0 1-3.516 3.516 3.52 3.52 0 0 1-3.516-3.516 3.52 3.52 0 0 1 3.516-3.515zm29.883 52.968H41.885a5.25 5.25 0 0 0 .303-1.757V35.618l-.002-.039a5.256 5.256 0 0 0-.505-2.436l-3.61-10.05h.902a8.731 8.731 0 0 0 6.215-2.574l7.76-7.76a5.279 5.279 0 0 0 0-7.456 5.279 5.279 0 0 0-7.458 0l-6.73 6.73a1.746 1.746 0 0 1-1.242.514H34.21c.6-1.035.946-2.235.946-3.516A7.04 7.04 0 0 0 28.125 2a7.04 7.04 0 0 0-7.031 7.031c0 1.28.345 2.48.946 3.516h-.135c-.478 0-.942-.199-1.279-.552l-6.864-7.11a1.756 1.756 0 0 0-.288-.24 5.23 5.23 0 0 0-3.963-.786A5.246 5.246 0 0 0 6.16 6.106a5.24 5.24 0 0 0-.783 3.96 5.234 5.234 0 0 0 2.09 3.244l8.677 8.678c.082.082.172.156.268.22.869.58 1.88.886 2.925.886h7.126l3.051 8.718-6.198 1.55a8.812 8.812 0 0 0-6.028 5.262 1.748 1.748 0 0 0-.083.267l-2.82 12.504a5.286 5.286 0 0 0 2.998 6.715c.607.24 1.24.366 1.882.374H1.758a1.758 1.758 0 0 0 0 3.516h56.25a1.758 1.758 0 0 0 0-3.516z"/></g><g><path fill="#141b23" d="M40.512 34.132a1.755 1.755 0 0 1-1.171.972l-10.575 2.644a5.287 5.287 0 0 0-3.617 3.157c-.04.1-.07.204-.092.31l-2.143 10.772a1.757 1.757 0 0 1-2.23.857 1.763 1.763 0 0 1-.98-2.287c.034-.086.061-.175.082-.266l2.815-12.48a5.288 5.288 0 0 1 3.567-3.038l8.067-2.017a1.757 1.757 0 0 0 1.233-2.286l-4.1-11.715a1.758 1.758 0 0 0-1.658-1.177h-8.374c-.3 0-.591-.076-.852-.22L11.84 8.713a1.748 1.748 0 0 0-.268-.22 1.745 1.745 0 0 1-.748-1.117c-.092-.46 0-.93.26-1.319a1.752 1.752 0 0 1 2.302-.571l6.704 6.943a5.297 5.297 0 0 0 3.815 1.634h15.613a5.239 5.239 0 0 0 3.729-1.545l6.73-6.73a1.745 1.745 0 0 1 1.242-.515c.469 0 .91.183 1.242.516.333.332.516.773.516 1.242 0 .47-.183.91-.516 1.243l-7.76 7.76a5.238 5.238 0 0 1-3.728 1.544h-3.401a1.758 1.758 0 0 0-1.655 2.352l4.488 12.49c.023.066.05.13.082.192.239.479.248 1.034.025 1.52zm.15 20.586c0 .968-.786 1.756-1.753 1.756a1.757 1.757 0 0 1-1.753-1.756V39.273l3.03-.759c.162-.04.32-.09.476-.145zm-19.24 1.766a5.257 5.257 0 0 0 4.81-3.312c.04-.1.072-.205.093-.312l2.143-10.772a1.763 1.763 0 0 1 1.151-.93l4.022-1.005v14.574c0 .616.107 1.207.302 1.757zm8.703-52.968a3.52 3.52 0 0 1 3.516 3.515 3.52 3.52 0 0 1-3.516 3.516 3.52 3.52 0 0 1-3.516-3.516 3.52 3.52 0 0 1 3.516-3.515zm29.883 52.968H43.885a5.25 5.25 0 0 0 .303-1.757V33.618l-.002-.039a5.256 5.256 0 0 0-.505-2.436l-3.61-10.05h.902a8.731 8.731 0 0 0 6.215-2.574l7.76-7.76a5.279 5.279 0 0 0 0-7.456 5.279 5.279 0 0 0-7.458 0l-6.73 6.73a1.746 1.746 0 0 1-1.242.514H36.21c.6-1.035.946-2.235.946-3.516A7.04 7.04 0 0 0 30.125 0a7.04 7.04 0 0 0-7.031 7.031c0 1.28.345 2.48.946 3.516h-.135c-.478 0-.942-.199-1.279-.552l-6.864-7.11a1.756 1.756 0 0 0-.288-.24 5.23 5.23 0 0 0-3.963-.786A5.246 5.246 0 0 0 8.16 4.106a5.24 5.24 0 0 0-.783 3.96 5.234 5.234 0 0 0 2.09 3.244l8.677 8.678c.082.082.172.156.268.22.869.58 1.88.886 2.925.886h7.126l3.051 8.718-6.198 1.55a8.812 8.812 0 0 0-6.028 5.262 1.748 1.748 0 0 0-.083.267l-2.82 12.504a5.286 5.286 0 0 0 2.998 6.715c.607.24 1.24.366 1.882.374H3.758a1.758 1.758 0 0 0 0 3.516h56.25a1.758 1.758 0 0 0 0-3.516z"/></g><g><path fill="#141b23" d="M10.79 24.596H9.03v-1.758a1.758 1.758 0 1 0-3.515 0v1.758H3.758a1.758 1.758 0 0 0 0 3.515h1.758v1.758a1.758 1.758 0 0 0 3.515 0v-1.758h1.758a1.758 1.758 0 0 0 0-3.515z"/></g><g><path fill="#141b23" d="M60.01 38.656H58.25v-1.758a1.758 1.758 0 0 0-3.515 0v1.758h-1.758a1.758 1.758 0 0 0 0 3.515h1.758v1.758a1.758 1.758 0 0 0 3.515 0v-1.758h1.758a1.758 1.758 0 0 0 0-3.515z"/></g></g></g></svg>