<svg xmlns="http://www.w3.org/2000/svg" width="61" height="63" viewBox="0 0 61 63"><g><g><path fill="#fff" d="M1.79 6.916v37.17l3.903 10.7 9.904 5.887h15.174l10.766-5.887 4.983-9.483V5.282L41.537 1.79l-5.7 1.897-1.135 11.065-5.118-1.723-5.08 2.527-5.189-2.527-5.989 2.527V5.282L7.456 1.79 1.79 5.282"/></g><g><path fill="#f43c3c" d="M42.45 51.9c10.19 0 18.45-8.26 18.45-18.45S52.64 15 42.45 15 24 23.26 24 33.45 32.26 51.9 42.45 51.9z"/></g><g><path fill="#141b23" d="M44.338 42.536c0 9.151-7.446 16.596-16.597 16.596h-7.376c-9.152 0-16.598-7.445-16.598-16.596v-3.688c0-5.084 4.137-9.22 9.221-9.22h16.597a3.692 3.692 0 0 1 3.688 3.688 3.692 3.692 0 0 1-3.688 3.688H12.988a1.844 1.844 0 0 0 0 3.688c7.118 0 12.909 5.79 12.909 12.908a1.844 1.844 0 0 0 3.688 0c0-5.208-2.413-9.863-6.178-12.908h6.178c4.067 0 7.376-3.31 7.376-7.376V7.376a3.692 3.692 0 0 1 3.689-3.688 3.692 3.692 0 0 1 3.688 3.688v35.16zM3.768 7.375a3.691 3.691 0 0 1 3.687-3.687 3.691 3.691 0 0 1 3.687 3.687v18.688a12.883 12.883 0 0 0-7.375 3.75V7.376zM14.828 18.44a3.694 3.694 0 0 1 3.693-3.689 3.694 3.694 0 0 1 3.692 3.689v7.499h-7.385v-7.5zm11.062 0a3.692 3.692 0 0 1 3.688-3.689 3.692 3.692 0 0 1 3.687 3.689v8.491a7.325 7.325 0 0 0-3.687-.992H25.89zM40.65 0c-4.067 0-7.376 3.309-7.376 7.376v4.68a7.359 7.359 0 0 0-9.22 1.513 7.36 7.36 0 0 0-9.22-1.512v-4.68C14.832 3.308 11.522 0 7.455 0S.08 3.309.08 7.376v35.16c0 11.185 9.1 20.285 20.285 20.285h7.376c11.185 0 20.284-9.1 20.284-20.285V7.376C48.025 3.31 44.716 0 40.65 0z"/></g></g></svg>