<svg xmlns="http://www.w3.org/2000/svg" width="36" height="51" viewBox="0 0 36 51"><g><g><g><path fill="#f43c3c" d="M11.475 22.95c6.337 0 11.475-5.138 11.475-11.475S17.812 0 11.475 0 0 5.138 0 11.475 5.138 22.95 11.475 22.95z"/></g><g><g><path fill="#f1f2f6" d="M34.483 16.379v19.705c0 8.066-13.853 14.228-14.444 14.487a.564.564 0 0 1-.233.046.564.564 0 0 1-.235-.046C18.985 50.312 5.13 44.15 5.13 36.084V16.379c0-.315.255-.577.577-.577 11.542 0 13.544-4.402 13.558-4.448A.593.593 0 0 1 19.8 11h.01a.583.583 0 0 1 .532.364c.018.041 1.978 4.438 13.563 4.438a.58.58 0 0 1 .578.577zm-3.188 18.558l-.001-15.423c0-.249-.2-.454-.451-.454-9.068 0-10.603-3.44-10.618-3.471a.45.45 0 0 0-.415-.286h-.007a.459.459 0 0 0-.418.278c-.015.034-1.581 3.479-10.617 3.479a.453.453 0 0 0-.453.454v15.424c0 6.31 10.851 11.14 11.308 11.34.06.028.118.038.182.038.059 0 .125-.01.181-.038.462-.2 11.309-5.03 11.309-11.34zm-1.499-11.03a.308.308 0 0 1-.073.343c-5.198 4.785-9.268 11.383-10.5 14.534a.305.305 0 0 1-.223.19c-.02.005-.044.005-.059.005a.281.281 0 0 1-.217-.093l-7.652-7.779c-.06-.063 2.245-2.11 2.357-2.03l4.201 3.29c1.636-1.923 5.666-6.252 11.257-9.68.078-.047.908 1.218.91 1.22z"/></g><g><path fill="#262a2f" d="M35.483 15.379v19.705c0 8.066-13.853 14.228-14.444 14.487a.564.564 0 0 1-.233.046.564.564 0 0 1-.235-.046C19.985 49.312 6.13 43.15 6.13 35.084V15.379c0-.315.255-.577.577-.577 11.542 0 13.544-4.402 13.558-4.448A.593.593 0 0 1 20.8 10h.01a.583.583 0 0 1 .532.364c.018.041 1.978 4.438 13.563 4.438a.58.58 0 0 1 .578.577zm-3.188 18.559l-.001-15.424c0-.249-.2-.454-.451-.454-9.068 0-10.603-3.44-10.618-3.471a.45.45 0 0 0-.415-.286h-.007a.459.459 0 0 0-.418.278c-.015.034-1.581 3.479-10.617 3.479a.453.453 0 0 0-.453.454v15.424c0 6.31 10.851 11.14 11.308 11.34.06.028.118.038.182.038.059 0 .125-.01.181-.038.462-.2 11.309-5.03 11.309-11.34zm-1.499-11.032a.308.308 0 0 1-.073.344c-5.198 4.785-9.268 11.383-10.5 14.534a.305.305 0 0 1-.223.19c-.02.005-.044.005-.059.005a.281.281 0 0 1-.217-.093l-7.652-7.779c-.06-.063 2.245-2.11 2.357-2.03l4.201 3.29c1.636-1.923 5.666-6.252 11.257-9.68.078-.047.908 1.218.91 1.22z"/></g></g></g></g></svg>