<svg xmlns="http://www.w3.org/2000/svg" width="22" height="26" viewBox="0 0 22 26"><g><g><g><path fill="#fff" d="M2.466 23.395V2.435H19.47v20.96zM20.698 0H1.248C.575 0 .03.545.03 1.218v23.395c0 .671.545 1.218 1.218 1.218h19.45c.674 0 1.219-.547 1.219-1.218V1.218A1.22 1.22 0 0 0 20.697 0z"/></g><g><path fill="#fff" d="M10.97 16.759a6.196 6.196 0 0 0 6.19-6.19V5.599a1.218 1.218 0 1 0-2.435 0v4.972a3.76 3.76 0 0 1-3.755 3.755 3.76 3.76 0 0 1-3.754-3.755V5.598a1.218 1.218 0 0 0-2.436 0v4.972a6.199 6.199 0 0 0 6.19 6.189z"/></g></g></g></svg>