<svg xmlns="http://www.w3.org/2000/svg" width="20" height="15" viewBox="0 0 20 15"><g><g><path fill="#f43c3c" d="M6.875 10.195a.976.976 0 1 0 0 1.953.976.976 0 0 0 0-1.953zm-2.73 0a.979.979 0 0 0-.98.977c0 .54.438.976.98.976a.979.979 0 0 0 .982-.976c0-.54-.44-.977-.981-.977zm14.293 3.32H1.563V8.829h16.875zM1.563 1.563h7.822v5.714H1.563zm12.539 0h2.353v2.354h-2.353zm5.117 5.704h-3.164V5.469h1.172c.431 0 .78-.35.78-.782V.781a.781.781 0 0 0-.78-.781H13.32a.781.781 0 0 0-.78.781v3.906c0 .432.349.782.78.782h1.172v1.797h-3.555V.78a.781.781 0 0 0-.78-.781H.78A.781.781 0 0 0 0 .781v13.516c0 .431.35.781.781.781H19.22c.431 0 .781-.35.781-.781v-6.25a.781.781 0 0 0-.781-.781z"/></g></g></svg>