<svg xmlns="http://www.w3.org/2000/svg" width="142" height="134" viewBox="0 0 142 134"><g><g><path fill="#f1f2f6" d="M53.207 96.77a9.064 9.064 0 0 1-18.127 0c0-34.01 27.67-61.681 61.682-61.681a9.064 9.064 0 0 1 0 18.126c-24.017 0-43.555 19.54-43.555 43.556zM28.34 28.35C46.616 10.076 70.915.01 96.76.01a9.064 9.064 0 0 1 0 18.127c-21.003 0-40.75 8.18-55.603 23.031C26.306 56.02 18.127 75.767 18.127 96.77A9.064 9.064 0 0 1 0 96.77c0-25.845 10.065-50.144 28.34-68.42zm35.548 85.46a9.064 9.064 0 0 1 12.818 0l18.396 18.396 37.072-37.072-18.396-18.395a9.063 9.063 0 0 1 0-12.818l37.079-37.078a9.064 9.064 0 0 1 12.818 0l24.766 24.766c11.322 11.322 13.99 29.3 7.512 50.62-5.885 19.367-18.817 39.725-36.417 57.324-24.585 24.585-54.738 39.858-78.69 39.858-11.973 0-22.089-3.788-29.25-10.948L26.826 163.69a9.063 9.063 0 0 1 .001-12.817zm.521 61.829c3.746 3.745 9.276 5.644 16.437 5.644 19.03 0 44.886-13.561 65.873-34.549 15.53-15.53 26.856-33.207 31.89-49.775 4.376-14.402 3.288-26.258-2.985-32.532l-18.358-18.358-24.261 24.26 18.396 18.396a9.063 9.063 0 0 1 0 12.817l-49.89 49.89a9.063 9.063 0 0 1-12.817 0l-18.396-18.397-24.245 24.246 18.356 18.358z"/></g></g></svg>