<svg xmlns="http://www.w3.org/2000/svg" width="36" height="40" viewBox="0 0 36 40"><g><g><path fill="#f43c3c" d="M3.922 35.284V17.647l12.549 9.406a1.959 1.959 0 0 0 2.353 0l12.549-9.406v17.637zM17.647 4.412l12.418 9.313-12.418 9.314L5.23 13.725zm17.645 9.273v-.052l-.006-.063a1.938 1.938 0 0 0-.008-.084l-.002-.02c0-.006 0-.012-.002-.018-.003-.023-.008-.045-.012-.068a1.76 1.76 0 0 0-.017-.087l-.004-.015-.002-.015-.02-.067a1.981 1.981 0 0 0-.026-.088l-.009-.03-.024-.061a2.024 2.024 0 0 0-.034-.084l-.015-.035-.028-.054-.04-.078-.025-.043-.03-.045a1.424 1.424 0 0 0-.08-.12l-.006-.01-.027-.031a1.8 1.8 0 0 0-.048-.06l-.042-.049-.04-.042a2.162 2.162 0 0 0-.053-.052l-.042-.04-.048-.042a1.815 1.815 0 0 0-.06-.049c-.012-.008-.021-.018-.032-.026l-.024-.018-.007-.005L18.824.392a1.96 1.96 0 0 0-2.353 0L.814 12.134l-.005.004-.025.019-.031.026-.062.05-.047.04-.042.041a2.474 2.474 0 0 0-.053.053l-.04.041-.042.049-.048.06-.027.032-.006.01-.035.049-.046.07-.03.046-.024.043-.04.077c-.01.018-.02.036-.028.054l-.015.035a1.869 1.869 0 0 0-.034.084c-.008.02-.017.041-.024.062l-.01.03a1.98 1.98 0 0 0-.026.087l-.019.067-.003.015-.003.016a2.171 2.171 0 0 0-.017.086c-.004.023-.009.045-.012.068l-.002.019-.002.02a2.46 2.46 0 0 0-.008.083l-.006.063v.052l-.002.04v23.53a1.96 1.96 0 0 0 1.96 1.96h31.373a1.96 1.96 0 0 0 1.961-1.96v-23.53l-.002-.04z"/></g></g></svg>