<svg xmlns="http://www.w3.org/2000/svg" width="22" height="25" viewBox="0 0 22 25"><g><g><g><path fill="#fff" d="M3.592 22.795v-4.014H4.65a.842.842 0 0 0 0-1.685H3.592v-4.014H4.65a.842.842 0 0 0 0-1.685H3.592V7.383H4.65a.842.842 0 0 0 0-1.685H3.592V1.684h16.712v21.111zM21.146 0H2.75a.842.842 0 0 0-.842.842v4.854H.852a.842.842 0 1 0 0 1.684h1.057v4.013H.852a.842.842 0 1 0 0 1.683h1.057v4.013H.852a.842.842 0 1 0 0 1.684h1.057v4.854c0 .465.377.842.842.842h18.395a.842.842 0 0 0 .842-.842V.842A.842.842 0 0 0 21.146 0z"/></g><g><path fill="#fff" d="M12.552 7.381a1.782 1.782 0 0 1 0 3.563 1.782 1.782 0 0 1 0-3.563zm0 5.244a3.466 3.466 0 0 0 3.462-3.462A3.466 3.466 0 0 0 12.552 5.7 3.466 3.466 0 0 0 9.09 9.163a3.466 3.466 0 0 0 3.462 3.462z"/></g><g><path fill="#fff" d="M8.702 18.914a.842.842 0 0 0 .842-.842v-1.455c0-.934.76-1.693 1.693-1.693h2.659c.934 0 1.693.76 1.693 1.693v1.455a.842.842 0 1 0 1.684 0v-1.455a3.381 3.381 0 0 0-3.377-3.377h-2.659a3.381 3.381 0 0 0-3.377 3.377v1.455c0 .465.377.842.842.842z"/></g></g></g></svg>