<svg xmlns="http://www.w3.org/2000/svg" width="16" height="24" viewBox="0 0 16 24"><g><g><path fill="#ee7f00" d="M6.138 18.799l-.065.064c-.775.84-2.067.84-2.842.065l-.586-.602c.559 2.636 2.927 4.404 5.69 4.404.096 0 .183.027.255.074 4.336-.032 6.145-2.533 6.462-6.524.064-1.163-.13-1.874-.452-2.261-.065-.065-.194-.13-.259-.194-.064-.064-.064-.064-.129-.064l-1.314-.309a.85.85 0 0 1-.107-.014.533.533 0 0 1-.061-.025l-3.75-.88c-.065-.064-.13-.064-.194-.064a1.843 1.843 0 0 0-.84 0c-.387.064-.645.258-.775.71-.323.97-.064 1.55 1.55 2.003l3.424.775c.581.129.388 1.033-.194.904h-.129c-.387-.065-.904-.065-1.356.13-.84.322-1.357 1.033-1.421 2.39a.442.442 0 0 1-.453.451.442.442 0 0 1-.452-.452c.065-1.486.646-2.454 1.55-2.971l-1.227-.259a5.33 5.33 0 0 1-1.14-.429c-.138.22-.317.41-.54.559l-.128.064a1.97 1.97 0 0 1-.186.118 1.972 1.972 0 0 1-.331 2.337zm-4.52-1.529l-.712-.732c-1.034-1.033-1.163-2.39-.388-3.23l.065-.064c.32-.353.753-.547 1.201-.58-.597-1.109-.42-2.374.478-2.973l.194-.064c.888-.543 1.701-.37 2.381.261l-.766-6.592C3.748 2.134 4.458.906 5.557.648c.58-.13 1.162 0 1.614.323.453.323.776.84.905 1.356L9.41 8.33l1.766-6.132C11.5 1.036 12.726.325 13.89.648c1.098.323 1.744 1.357 1.486 2.455l-1.925 9.622.827.196c.258 0 .581.129.969.517.58.58.84 1.55.71 2.906-.387 4.457-2.584 7.428-7.622 7.364a.46.46 0 0 1-.263-.08c-3.455-.125-6.374-2.724-6.453-6.358zM14.535 2.909c.13-.646-.258-1.227-.84-1.421-.71-.194-1.42.258-1.615.969l-2.196 7.622c-.123.246-.304.433-.545.339a.438.438 0 0 1-.424-.34L7.171 2.522c-.064-.323-.258-.581-.516-.775-.259-.194-.582-.258-.905-.194-.581.13-1.033.905-.84 1.486v.065l1.016 8.25.636.967c.263-.374.651-.605 1.126-.691a3.512 3.512 0 0 1 1.163 0c.129.065.194.065.258.065l3.444.817zm-9.368 8.985a.337.337 0 0 1-.116-.176l-.399-.606c-.581-.84-1.162-1.162-1.808-.775l-.065.13c-.517.322-.581 1.162-.065 2.002l.388.581c.07.07.124.15.154.231l1.396 2.094c.195.312.532.483.881.498a.409.409 0 0 1 .353-.038c.11-.029.217-.074.316-.137l.065-.064c.175-.132.291-.263.368-.415-.488-.502-.61-1.121-.476-1.816zm-4.003 1.931l-.064.065c-.453.452-.388 1.292.323 2.002l.8.8c.13.044.23.143.273.274l1.381 1.38a1.139 1.139 0 0 0 1.615-.129l.065-.064c.42-.36.45-1.001.087-1.453a2.05 2.05 0 0 1-1.767-.873l-1.402-2.102a.998.998 0 0 0-1.31.1z"/></g></g></svg>