<svg xmlns="http://www.w3.org/2000/svg" width="24" height="20" viewBox="0 0 24 20">
    <g fill="#000" fill-rule="nonzero" opacity=".2">
        <path d="M21.295.258a.88.88 0 0 0-1.246 0L16.92 3.387c-3.877-1.76-8.012-1.33-11.956 1.246C2.027 6.55.243 8.96.169 9.062a.888.888 0 0 0 .025 1.075c1.672 2.053 3.422 3.651 5.21 4.766l-2.751 2.752a.885.885 0 0 0 0 1.246c.17.171.395.26.62.26.225 0 .45-.089.621-.26L21.295 1.505a.885.885 0 0 0 0-1.247zM9.8 10.508a2.288 2.288 0 0 1-.19-.928c0-.63.244-1.227.693-1.677a2.374 2.374 0 0 1 2.606-.503l-3.11 3.109zm4.409-4.404a4.134 4.134 0 0 0-5.147.553 4.096 4.096 0 0 0-1.208 2.918 4.1 4.1 0 0 0 .655 2.229l-1.813 1.813c-1.589-.919-3.153-2.277-4.673-4.052.65-.762 2.024-2.234 3.906-3.46 3.255-2.122 6.496-2.581 9.653-1.374l-1.373 1.373zM23.759 9.024c-1.207-1.486-2.459-2.738-3.73-3.73a.89.89 0 0 0-1.241.152.885.885 0 0 0 .151 1.236c1.007.787 2.014 1.765 2.992 2.909a19.288 19.288 0 0 1-3.226 2.996c-2.938 2.136-5.905 2.908-8.813 2.293a.877.877 0 0 0-1.041.679.877.877 0 0 0 .679 1.041c.758.161 1.52.24 2.288.24 1.153 0 2.316-.181 3.475-.543 1.52-.474 3.03-1.256 4.492-2.322 2.463-1.803 3.935-3.793 3.998-3.876a.888.888 0 0 0-.024-1.075z"/>
    </g>
</svg>
