<svg xmlns="http://www.w3.org/2000/svg" width="24" height="15" viewBox="0 0 24 15">
    <path fill="#39C133" fill-rule="nonzero" d="M12.16.02c4.105 0 8.018 2.263 11.642 6.72a.89.89 0 0 1 .025 1.078c-.049.069-1.264 1.714-3.326 3.365-1.22.975-2.488 1.753-3.766 2.317-1.626.71-3.272 1.072-4.898 1.072-4.105 0-8.023-2.258-11.643-6.72A.89.89 0 0 1 .17 6.775C.219 6.706 1.433 5.06 3.496 3.41c1.22-.975 2.488-1.754 3.766-2.317C8.888.383 10.534.02 12.16.02zm-.005 1.769c-3.135 0-5.819 1.616-7.523 2.973a19.379 19.379 0 0 0-2.616 2.527c3.135 3.664 6.436 5.52 9.82 5.52 3.135 0 5.82-1.616 7.524-2.973a19.082 19.082 0 0 0 2.616-2.527c-3.135-3.664-6.436-5.52-9.82-5.52zm-.162 1.376c.485 0 .882.397.882.882a.884.884 0 0 1-.882.881 2.373 2.373 0 0 0-2.37 2.37 2.373 2.373 0 0 0 2.37 2.371 2.373 2.373 0 0 0 2.371-2.37c0-.485.397-.882.882-.882s.881.397.881.882a4.138 4.138 0 0 1-4.134 4.134A4.138 4.138 0 0 1 7.86 7.299a4.138 4.138 0 0 1 4.133-4.134z"/>
</svg>
