<svg xmlns="http://www.w3.org/2000/svg" width="69" height="70" viewBox="0 0 69 70"><g><g><g><path fill="#fff" d="M5.39 26.345v38.302h53.826V53.004l7.28-1.237-.808-13.505h-6.472V26.345l-5.284-1.6V18.34H10.195v6.405"/></g><g><path fill="#f43c3c" d="M32.85 36.9c10.19 0 18.45-8.26 18.45-18.45S43.04 0 32.85 0 14.4 8.26 14.4 18.45 22.66 36.9 32.85 36.9z"/></g><g><path fill="#f1f2f6" d="M60.887 53.004H44.7V42.902h16.187zm-6.941 11.643H4.805V31.15h49.14v6.947h-11.64a2.403 2.403 0 0 0-2.403 2.403v14.907a2.403 2.403 0 0 0 2.403 2.402h11.64zM10.199 23.145h38.343v3.2H10.2zm53.09 14.952h-4.548v-9.35a2.402 2.402 0 0 0-2.403-2.402h-2.991v-5.603a2.402 2.402 0 0 0-2.403-2.402H7.796a2.402 2.402 0 0 0-2.402 2.402v5.603H2.402A2.402 2.402 0 0 0 0 28.747V67.05a2.402 2.402 0 0 0 2.402 2.403h53.936a2.402 2.402 0 0 0 2.403-2.403v-9.24h4.548a2.402 2.402 0 0 0 2.403-2.403V40.5a2.402 2.402 0 0 0-2.403-2.403z"/></g><g><path d="M63.587 50.204H47.4V40.102h16.187zm-6.941 11.643H7.505V28.35h49.14v6.947h-11.64a2.403 2.403 0 0 0-2.403 2.403v14.907a2.403 2.403 0 0 0 2.403 2.402h11.64zM12.899 20.345h38.343v3.2H12.9zm53.09 14.952h-4.548v-9.35a2.402 2.402 0 0 0-2.403-2.402h-2.991v-5.603a2.402 2.402 0 0 0-2.403-2.402H10.496a2.402 2.402 0 0 0-2.402 2.402v5.603H5.102A2.402 2.402 0 0 0 2.7 25.947V64.25a2.402 2.402 0 0 0 2.402 2.403h53.936a2.402 2.402 0 0 0 2.403-2.403v-9.24h4.548a2.402 2.402 0 0 0 2.403-2.403V37.7a2.402 2.402 0 0 0-2.403-2.402z"/></g><g><path d="M55.497 48.884a3.727 3.727 0 1 0 0-7.454 3.727 3.727 0 0 0 0 7.454z"/></g></g></g></svg>