<svg xmlns="http://www.w3.org/2000/svg" width="80" height="68" viewBox="0 0 80 68"><g><g><g><path fill="#fff" d="M31 53c12.703 0 23-10.297 23-23S43.703 7 31 7 8 17.297 8 30s10.297 23 23 23z"/></g><g><path fill="#f43c3c" d="M18.45 59.4c10.19 0 18.45-8.26 18.45-18.45S28.64 22.5 18.45 22.5 0 30.76 0 40.95 8.26 59.4 18.45 59.4z"/></g><g><path fill="#f43c3c" d="M70.65 18.9a9.45 9.45 0 1 0 0-18.9 9.45 9.45 0 0 0 0 18.9z"/></g><g><g><g><path fill="#f1f2f6" d="M7.806 29.44c0-12.426 10.108-22.534 22.532-22.534S52.87 17.014 52.87 29.44c0 12.424-10.108 22.532-22.532 22.532S7.806 41.863 7.806 29.439zM67.62 63.108L51.593 47.083a27.508 27.508 0 0 0 6.384-17.643c0-15.241-12.4-27.64-27.64-27.64C15.099 1.8 2.7 14.199 2.7 29.44c0 15.239 12.398 27.637 27.638 27.637 6.702 0 12.854-2.4 17.644-6.383L64.01 66.72a2.545 2.545 0 0 0 1.805.747 2.552 2.552 0 0 0 1.805-4.358z"/></g><g><path d="M9.606 27.64c0-12.426 10.108-22.534 22.532-22.534S54.67 15.214 54.67 27.64c0 12.424-10.108 22.532-22.532 22.532S9.606 40.063 9.606 27.639zM69.42 61.308L53.393 45.283a27.508 27.508 0 0 0 6.384-17.643c0-15.241-12.4-27.64-27.64-27.64C16.899 0 4.5 12.399 4.5 27.64c0 15.239 12.398 27.637 27.638 27.637 6.702 0 12.854-2.4 17.644-6.383L65.81 64.92a2.545 2.545 0 0 0 1.805.747 2.552 2.552 0 0 0 1.805-4.358z"/></g></g></g></g></g></svg>