<svg xmlns="http://www.w3.org/2000/svg" width="57" height="81" viewBox="0 0 57 81"><g><g><g><g><path fill="#fff" d="M14.5 20.156v37.851l2.18 11.94L32.39 78l14.206-3.658 8.158-13.386V36.9l-7.411-3.284-22.49.453V19.256L18.45 16.2"/></g><g><path fill="#f43c3c" d="M18.45 36.9c10.19 0 18.45-8.26 18.45-18.45S28.64 0 18.45 0 0 8.26 0 18.45 8.26 36.9 18.45 36.9z"/></g><g><g><path fill="#f1f2f6" d="M49.883 58.636c0 9.652-7.853 17.505-17.505 17.505-9.65 0-17.502-7.853-17.502-17.505V22.714a2.561 2.561 0 0 1 2.559-2.558 2.56 2.56 0 0 1 2.554 2.558v22.739a2.428 2.428 0 1 0 4.855 0v-5.326a2.557 2.557 0 0 1 2.554-2.555 2.557 2.557 0 0 1 2.553 2.555v5.326a2.428 2.428 0 1 0 4.855 0v-5.326a2.558 2.558 0 0 1 5.113 0v5.326a2.428 2.428 0 1 0 4.855 0v-5.326a2.558 2.558 0 0 1 2.555-2.555 2.558 2.558 0 0 1 2.554 2.555v18.509zm-2.546-25.92a7.383 7.383 0 0 0-4.983 1.93 7.383 7.383 0 0 0-4.982-1.93c-1.919 0-3.67.732-4.988 1.93a7.382 7.382 0 0 0-4.983-1.93 7.38 7.38 0 0 0-2.554.453V22.714c0-4.088-3.325-7.414-7.411-7.414-4.09 0-7.416 3.326-7.416 7.414v35.922c0 12.33 10.032 22.361 22.363 22.361 12.333 0 22.366-10.031 22.366-22.361V40.127c0-4.087-3.325-7.411-7.412-7.411z"/></g><g><path fill="#262a2f" d="M51.683 56.836c0 9.652-7.853 17.505-17.505 17.505-9.65 0-17.502-7.853-17.502-17.505V20.914a2.561 2.561 0 0 1 2.559-2.558 2.56 2.56 0 0 1 2.554 2.558v22.739a2.428 2.428 0 1 0 4.855 0v-5.326a2.557 2.557 0 0 1 2.554-2.555 2.557 2.557 0 0 1 2.553 2.555v5.326a2.428 2.428 0 1 0 4.855 0v-5.326a2.558 2.558 0 0 1 5.113 0v5.326a2.428 2.428 0 1 0 4.855 0v-5.326a2.558 2.558 0 0 1 2.555-2.555 2.558 2.558 0 0 1 2.554 2.555v18.509zm-2.546-25.92a7.383 7.383 0 0 0-4.983 1.93 7.383 7.383 0 0 0-4.982-1.93c-1.919 0-3.67.732-4.988 1.93a7.382 7.382 0 0 0-4.983-1.93 7.38 7.38 0 0 0-2.554.453V20.914c0-4.088-3.325-7.414-7.411-7.414-4.09 0-7.416 3.326-7.416 7.414v35.922c0 12.33 10.032 22.361 22.363 22.361 12.333 0 22.366-10.031 22.366-22.361V38.327c0-4.087-3.325-7.411-7.412-7.411z"/></g></g></g></g></g></svg>