<svg xmlns="http://www.w3.org/2000/svg" width="20" height="19" viewBox="0 0 20 19"><g><g><path fill="#F43C3C" d="M13.64 11.66l.863 5.05-4.522-2.387-4.535 2.387.876-5.05L2.65 8.097l5.062-.744L9.98 2.771l2.268 4.582 5.062.744zm6.321-4.283c0-.295-.224-.48-.672-.551l-6.022-.876L10.568.492C10.417.164 10.221 0 9.981 0s-.436.164-.588.492l-2.7 5.458-6.021.876C.224 6.898 0 7.082 0 7.377c0 .168.1.36.3.576L4.667 12.2l-1.032 5.998a1.95 1.95 0 0 0-.024.24c0 .168.042.31.126.426.084.116.21.174.378.174.144 0 .304-.048.48-.144l5.385-2.832 5.387 2.832a.97.97 0 0 0 .48.144c.328 0 .492-.2.492-.6 0-.104-.004-.184-.012-.24L15.295 12.2l4.354-4.246c.208-.209.312-.4.312-.577z"/></g></g></svg>