<svg xmlns="http://www.w3.org/2000/svg" width="20" height="20" viewBox="0 0 20 20"><g><g><path fill="#F43C3C" d="M19.955 8.645a.828.828 0 0 1-.892.766c-.957-.073-2.277.7-3.654 1.833v7.914a.83.83 0 0 1-.83.831H.83A.83.83 0 0 1 0 19.16V.86C0 .401.37.03.831.03h13.751c.46 0 .831.37.831.831v8.265c1.304-.884 2.624-1.467 3.78-1.377a.831.831 0 0 1 .762.896zm-6.203 9.682V12.74a49.833 49.833 0 0 0-3.54 3.857.832.832 0 0 1-1.218.106l-1.845-1.674a.827.827 0 0 1-.057-1.173.827.827 0 0 1 1.173-.057l1.19 1.08c.846-1.031 2.468-2.9 4.297-4.465V1.696H1.666v16.631zM10.81 8.543H4.603a.83.83 0 0 1-.831-.83c0-.461.37-.832.83-.832h6.209c.46 0 .83.371.83.831a.83.83 0 0 1-.83.831zM3.77 4.201c0-.46.372-.83.832-.83h6.208c.46 0 .83.37.83.83a.83.83 0 0 1-.83.831H4.603a.83.83 0 0 1-.831-.83z"/></g></g></svg>