<svg xmlns="http://www.w3.org/2000/svg" width="20" height="20" viewBox="0 0 20 20"><g><g><path fill="#F43C3C" d="M7.369 11.456c-1.237-.827-2.055.094-2.055-1.498 0-.272.024-.54.07-.8.409.088 1.575.055 1.575.8 0 .549.15 1.06.41 1.498zM5.384 9.159c-.177-.038-.212-.1.053-.256-.02.084-.037.17-.053.256zm7.485.8a2.939 2.939 0 0 0-2.955-2.956c-.548 0-1.06.15-1.497.41.48-2.026-.67-2.055 1.497-2.055 2.53 0 4.6 2.07 4.6 4.6a4.61 4.61 0 0 1-4.6 4.6 4.56 4.56 0 0 1-2.138-.53c.543-.058 1.307-1.115 2.138-1.115 1.604 0 2.955-1.35 2.955-2.955zm-5.093 4.07c-.155.016-.292-.05-.407-.244.131.088.267.169.407.243zm12.216-5.756v3.46c0 .466-.38.846-.845.846H17.51c-.126.339-.253.673-.42 1.012l1.053 1.053a.812.812 0 0 1 0 1.18l-2.45 2.449a.812.812 0 0 1-1.179 0l-1.012-1.013c-.339.168-.718.34-1.053.466v1.392c.04.375-.339.755-.804.755H8.184a.847.847 0 0 1-.845-.845v-1.392c-.38-.127-.719-.253-1.053-.465l-1.013 1.012a.812.812 0 0 1-1.18 0l-2.448-2.45c-.474-.513-.167-1.011 0-1.179l1.053-1.053a10.628 10.628 0 0 1-.42-1.012H.845A.847.847 0 0 1 0 11.644V8.183c0-.465.38-.845.845-.845h1.56c.126-.339.252-.633.42-.971L1.726 5.269a.812.812 0 0 1 0-1.18L4.176 1.64a.812.812 0 0 1 1.18 0l1.138 1.139c.294-.127.592-.253.926-.38V.885c0-.465.38-.845.845-.845h3.462c.465 0 .844.38.844.845v1.604c.294.127.633.253.927.38l1.139-1.14a.812.812 0 0 1 1.18 0l2.448 2.45a.812.812 0 0 1 0 1.18l-1.098 1.097c.168.294.294.633.42.972h1.56c.465 0 .845.38.845.845zm-1.804.759h-1.351a.809.809 0 0 1-.8-.633 7.415 7.415 0 0 0-.719-1.69c-.212-.338-.167-.759.127-1.012l.971-.971-1.265-1.266-1.012 1.013a.823.823 0 0 1-1.012.126 5.928 5.928 0 0 0-1.69-.673.812.812 0 0 1-.633-.8V1.689H8.988v1.392c0 .38-.253.718-.633.8-.592.126-1.139.38-1.69.673-.338.213-.718.127-1.012-.126l-.971-.972-1.266 1.266.972.971a.823.823 0 0 1 .126 1.012c-.338.547-.592 1.098-.718 1.69a.812.812 0 0 1-.8.633H1.645v1.816H2.91c.38 0 .719.253.8.633.127.632.38 1.224.719 1.771.212.339.126.719-.127 1.012l-.886.886 1.266 1.265.845-.844a.823.823 0 0 1 1.012-.127c.547.339 1.18.592 1.816.76.38.085.633.42.633.8v1.224h.04v.004h1.817v-1.225c0-.38.253-.718.633-.8a7.46 7.46 0 0 0 1.816-.759c.339-.212.76-.167 1.012.127l.845.845 1.265-1.266-.885-.886a.823.823 0 0 1-.127-1.012c.339-.547.547-1.139.718-1.771a.812.812 0 0 1 .8-.633h1.266z"/></g></g></svg>