<svg xmlns="http://www.w3.org/2000/svg" width="26" height="25" viewBox="0 0 26 25"><g><g><path fill="#fff" d="M25.705 11.493L15.123.84a3.044 3.044 0 0 0-4.146-.009L.298 11.489a1.016 1.016 0 0 0 1.435 1.438l.806-.804v8.769a4.067 4.067 0 0 0 4.063 4.062h3.656c.56 0 1.015-.454 1.015-1.015V15.66h3.555v8.278c0 .56.455 1.015 1.016 1.015h3.554a4.067 4.067 0 0 0 4.063-4.062 1.016 1.016 0 1 0-2.031 0c0 1.12-.912 2.031-2.032 2.031H16.86v-8.277c0-.561-.454-1.016-1.015-1.016h-5.586c-.561 0-1.016.455-1.016 1.016v8.277h-2.64a2.034 2.034 0 0 1-2.032-2.031V10.126v-.03l7.818-7.803c.38-.323.938-.322 1.318.003l7.724 7.775v5.743a1.016 1.016 0 1 0 2.03 0v-3.698l.804.808a1.012 1.012 0 0 0 1.436.005c.398-.395.4-1.039.005-1.436z"/></g></g></svg>