<svg xmlns="http://www.w3.org/2000/svg" width="16" height="20" viewBox="0 0 16 20"><g><g><g><path fill="#5b5b5b" d="M6.436 8.22c0-.854.699-1.553 1.553-1.553.855 0 1.554.699 1.554 1.553 0 .855-.7 1.554-1.554 1.554-.854 0-1.553-.7-1.553-1.554zm9.02 2.535c-.242.656-.631 1.298-1.153 1.903L8.52 19.45a.688.688 0 0 1-1.048 0l-5.784-6.794a6.263 6.263 0 0 1-1.154-1.905c-.916-2.422-.57-5.162.926-7.327C2.963 1.248 5.346 0 7.996 0c2.65 0 5.033 1.248 6.537 3.424 1.495 2.165 1.84 4.905.924 7.331zM13.4 4.207a6.48 6.48 0 0 0-5.404-2.83 6.48 6.48 0 0 0-5.404 2.83C1.354 6 1.066 8.266 1.824 10.268c.189.511.494 1.011.91 1.492l5.262 6.182 5.26-6.178.003-.004c.415-.48.72-.981.908-1.487.76-2.007.472-4.273-.767-6.066z"/></g></g></g></svg>