<svg xmlns="http://www.w3.org/2000/svg" width="40" height="25" viewBox="0 0 40 25"><g><g opacity=".4"><g opacity=".4"><path fill="#fff" d="M27.766 21.365c-2.05 0-3.938-.73-5.41-1.946a12.104 12.104 0 0 0 1.953-6.594c0-2.434-.725-4.695-1.952-6.594a8.485 8.485 0 0 1 5.409-1.942c4.7 0 8.527 3.83 8.527 8.536 0 4.707-3.826 8.54-8.527 8.54zM27.77 1.28c-2.792 0-5.356.996-7.353 2.65A12.096 12.096 0 0 0 12.155.67C5.443.668 0 6.11 0 12.825c0 6.715 5.443 12.157 12.155 12.157 3.195 0 6.092-1.242 8.262-3.259a11.499 11.499 0 0 0 7.353 2.648c6.366 0 11.546-5.178 11.546-11.546 0-6.368-5.18-11.546-11.546-11.546z"/></g></g></g></svg>