<svg xmlns="http://www.w3.org/2000/svg" width="20" height="20" viewBox="0 0 20 20"><defs><linearGradient id="rsema" x1="9.97" x2="9.97" y1="0" y2="19.8" gradientUnits="userSpaceOnUse"><stop offset="0" stop-color="#003087"/><stop offset="1" stop-color="#009cde"/></linearGradient></defs><g><g><g><path fill="url(#rsema)" d="M18.237 9.748a4.106 4.106 0 0 1-4.066 3.442H9.633l-.824 4.944H5.947l1.098-6.592h2.927c.228 0 .452-.017.673-.043a5.736 5.736 0 0 0 4.89-4.199c.051-.188.096-.38.128-.577l.001-.01c.04-.23.063-.462.073-.696L15.738 6c.01-.23.003-.462-.015-.692l-.002-.033-.001-.023a4.148 4.148 0 0 1 1.722 1.312 4.07 4.07 0 0 1 .795 3.183zM4.823 14.843H1.947l2.2-13.193h5.829a4.135 4.135 0 0 1 3.897 2.767 4.11 4.11 0 0 1 .172 2.033 4.11 4.11 0 0 1-4.07 3.446H5.649zM9.976 0H2.749L0 16.495h4.55L4 19.794h6.209l.824-4.949h3.145a5.753 5.753 0 0 0 5.696-4.824 5.709 5.709 0 0 0-1.114-4.463 5.798 5.798 0 0 0-3.521-2.16A5.785 5.785 0 0 0 9.976 0z"/></g></g></g></svg>