<svg xmlns="http://www.w3.org/2000/svg" width="20" height="20" viewBox="0 0 20 20"><g><g><path fill="#1995e6" d="M13.32 14.919a5.203 5.203 0 0 1-.92.33c-1.2.33-2.408.345-3.601-.043-1.445-.467-2.408-1.451-2.976-2.838-.108-.266-.187-.546-.266-.827H4.414a.34.34 0 0 1-.345-.345v-.761a.34.34 0 0 1 .345-.345h.934v-.625h-.934a.34.34 0 0 1-.345-.345v-.762a.34.34 0 0 1 .345-.345h1.193l.043-.115c.324-1.02.87-1.89 1.726-2.551.675-.525 1.452-.812 2.293-.949 1.193-.194 2.343-.028 3.465.41.072.029.144.065.208.1.266.159.338.36.216.647-.13.302-.252.604-.388.906-.115.259-.28.338-.554.273-.374-.086-.747-.201-1.128-.28-.798-.166-1.59-.173-2.366.136-.668.266-1.07.77-1.351 1.409-.007.007-.007.014-.007.021h2.322a.34.34 0 0 1 .345.345v.762a.34.34 0 0 1-.345.345H7.44c-.007.2 0 .41 0 .625h2.653a.34.34 0 0 1 .345.345v.762a.34.34 0 0 1-.345.344H7.67c.295.834.77 1.48 1.66 1.761.713.223 1.431.208 2.158.065.373-.08.74-.194 1.114-.273.295-.065.453.014.575.28.136.302.266.604.388.912.115.274.043.496-.244.626zM9.878.04A9.876 9.876 0 0 0 0 9.917a9.876 9.876 0 0 0 9.877 9.878c5.457 0 9.87-4.422 9.87-9.878S15.327.04 9.877.04z"/></g></g></svg>