<svg xmlns="http://www.w3.org/2000/svg" width="16" height="15" viewBox="0 0 16 15"><g><g><g><path fill="#f43c3c" d="M16.015 4.014V14.69H3.336A3.304 3.304 0 0 1 0 11.354V2.68A2.677 2.677 0 0 1 2.67.01h12.01v2.67h-1.334V1.344H2.669c-.734 0-1.334.6-1.334 1.334 0 .734.6 1.335 1.334 1.335zm-1.334 9.342V5.348H2.669c-.467 0-.934-.133-1.334-.4v6.406c0 1.134.867 2.002 2.002 2.002zM9.342 9.352c0-.734.6-1.334 1.335-1.334.734 0 1.334.6 1.334 1.334 0 .734-.6 1.335-1.334 1.335-.734 0-1.335-.6-1.335-1.335z"/></g></g></g></svg>