<svg xmlns="http://www.w3.org/2000/svg" width="20" height="20" viewBox="0 0 20 20"><g><g><g><path fill="#fff" d="M15.821 14.121c-.241.681-1.199 1.246-1.962 1.411-.523.112-1.205.2-3.503-.752-2.939-1.218-4.831-4.204-4.979-4.397-.14-.194-1.187-1.582-1.187-3.017 0-1.435.729-2.133 1.022-2.433.242-.247.64-.36 1.023-.36.124 0 .235.007.335.012.294.013.441.03.635.494.241.581.829 2.016.899 2.164.071.147.142.347.042.54-.094.2-.176.29-.324.46-.147.17-.287.3-.435.482-.134.159-.287.329-.117.623.17.287.758 1.246 1.623 2.016 1.116.994 2.02 1.311 2.344 1.446.242.1.53.076.706-.111.223-.241.5-.641.78-1.035.2-.283.453-.318.718-.218.27.094 1.699.8 1.993.947.294.147.487.217.559.34.07.125.07.706-.172 1.388zM10.002 0h-.005C4.484 0 0 4.485 0 10c0 2.188.705 4.215 1.904 5.861L.657 19.576l3.844-1.228A9.913 9.913 0 0 0 10.002 20C15.516 20 20 15.514 20 10S15.516 0 10.002 0z"/></g></g></g></svg>