<svg xmlns="http://www.w3.org/2000/svg" width="26" height="25" viewBox="0 0 26 25"><g><g><path fill="#f43c3c" d="M17.724 15.158l1.122 6.566-5.876-3.104-5.892 3.104 1.138-6.566-4.77-4.632 6.578-.967 2.946-5.957 2.945 5.957 6.578.967zm8.225-5.567c0-.385-.29-.624-.873-.718l-7.828-1.138L13.739.639C13.542.213 13.287 0 12.975 0s-.567.213-.764.64L8.7 7.734.874 8.873C.291 8.967 0 9.206 0 9.591c0 .218.13.468.39.748l5.676 5.52-1.34 7.798c-.021.146-.032.25-.032.312a.92.92 0 0 0 .164.554c.109.15.273.226.491.226.187 0 .395-.062.624-.187l7.002-3.68 7.002 3.68c.218.124.426.187.623.187.427 0 .64-.26.64-.78 0-.135-.005-.238-.015-.312l-1.341-7.797 5.66-5.52c.27-.271.405-.52.405-.75z"/></g></g></svg>