<svg width="26" height="22" viewBox="0 0 26 22" fill="none" xmlns="http://www.w3.org/2000/svg">
<path d="M13.7617 10.2383H12.2383V11.7617H10.7148V13.2852H12.2383V14.8086H13.7617V13.2852H15.2852V11.7617H13.7617V10.2383Z" fill="black"/>
<path d="M13 7.19141C10.0599 7.19141 7.66797 9.58336 7.66797 12.5234C7.66797 15.4635 10.0599 17.8555 13 17.8555C15.9401 17.8555 18.332 15.4635 18.332 12.5234C18.332 9.58336 15.9401 7.19141 13 7.19141ZM13 16.332C10.8999 16.332 9.19141 14.6235 9.19141 12.5234C9.19141 10.4234 10.8999 8.71485 13 8.71485C15.1001 8.71485 16.8086 10.4234 16.8086 12.5234C16.8086 14.6235 15.1001 16.332 13 16.332Z" fill="black"/>
<path d="M18.932 1.80882C18.6007 1.80882 18.332 1.54019 18.332 1.20882V0.885278C18.332 0.553907 18.0634 0.285278 17.732 0.285278H8.26797C7.9366 0.285278 7.66797 0.553908 7.66797 0.885278V1.20882C7.66797 1.54019 7.39934 1.80882 7.06797 1.80882H0.6C0.268629 1.80882 0 2.07745 0 2.40882V21.1147C0 21.446 0.268629 21.7147 0.6 21.7147H25.4C25.7314 21.7147 26 21.446 26 21.1147V2.40882C26 2.07745 25.7314 1.80882 25.4 1.80882H18.932ZM9.19141 2.40872C9.19141 2.07735 9.46004 1.80872 9.79141 1.80872H16.2086C16.54 1.80872 16.8086 2.07735 16.8086 2.40872V2.73236C16.8086 3.06373 16.54 3.33236 16.2086 3.33236H9.79141C9.46004 3.33236 9.19141 3.06373 9.19141 2.73236V2.40872ZM24.4766 19.5912C24.4766 19.9226 24.2079 20.1912 23.8766 20.1912H2.12344C1.79207 20.1912 1.52344 19.9226 1.52344 19.5912V3.93226C1.52344 3.60089 1.79207 3.33225 2.12344 3.33225H7.06797C7.39934 3.33225 7.66797 3.60088 7.66797 3.93225V4.25579C7.66797 4.58717 7.9366 4.85579 8.26797 4.85579H17.732C18.0634 4.85579 18.332 4.58716 18.332 4.25579V3.93225C18.332 3.60088 18.6007 3.33225 18.932 3.33225H23.8766C24.2079 3.33225 24.4766 3.60088 24.4766 3.93225V19.5912Z" fill="black"/>
</svg>
