<svg width="26" height="26" viewBox="0 0 26 26" fill="none" xmlns="http://www.w3.org/2000/svg">
<path d="M17.9928 9.06303C18.2047 8.92175 18.332 8.68394 18.332 8.42923V4.17076L21.1602 1.29542C21.4552 0.995511 21.4512 0.513241 21.1513 0.218253C20.8514 -0.0767355 20.3692 -0.0727746 20.0741 0.22714L17.0272 3.3248C16.8872 3.46724 16.8086 3.65909 16.8086 3.85891V8.02155L14.8984 9.29505C14.7984 9.04444 14.6868 8.82273 14.5347 8.59746C14.9954 8.17913 15.2852 7.57569 15.2852 6.90579C15.2852 5.91276 14.6483 5.06608 13.7617 4.75165V0.761257C13.7617 0.340585 13.4207 -0.000462069 13 -0.000462069C12.5793 -0.000462069 12.2383 0.340585 12.2383 0.761257V4.75165C11.3517 5.06608 10.7148 5.91276 10.7148 6.90579C10.7148 7.57564 11.0046 8.17913 11.4653 8.59746C11.313 8.82308 11.2014 9.04495 11.1016 9.29505L9.19141 8.02155V3.85891C9.19141 3.65909 9.11285 3.46724 8.97274 3.32475L5.92587 0.227089C5.63088 -0.0728253 5.14856 -0.076837 4.84864 0.218202C4.54873 0.51319 4.54477 0.99546 4.83971 1.29537L7.66797 4.17076V8.42923C7.66797 8.68389 7.79528 8.92175 8.00719 9.06303L10.7409 10.8855C10.7275 11.0397 10.7192 11.196 10.7164 11.354C9.02931 10.9364 6.62584 10.7144 4.84235 10.7144C3.2469 10.7144 2.09204 10.8815 1.31178 11.2252C0.170422 11.7281 0 12.5527 0 12.9995C0 13.4464 0.170371 14.271 1.31178 14.7738C2.09204 15.1176 3.24695 15.2847 4.84235 15.2847C6.98252 15.2847 9.72359 14.9846 11.3522 14.4656C11.216 14.6075 11.0978 14.7667 11.0016 14.9398L8.00719 16.9361C7.79528 17.0773 7.66797 17.3151 7.66797 17.5699V21.8754L4.84423 24.6992C4.54675 24.9967 4.54675 25.4789 4.84423 25.7764C5.14165 26.0738 5.62397 26.0739 5.92145 25.7764L8.96832 22.7295C9.11117 22.5867 9.19141 22.393 9.19141 22.1909V17.9775L10.7148 16.9619V20.6675C10.7148 21.9275 11.74 22.9527 13 22.9527C14.26 22.9527 15.2852 21.9275 15.2852 20.6675V16.9619L16.8086 17.9775V22.1909C16.8086 22.393 16.8888 22.5867 17.0317 22.7296L20.0786 25.7765C20.376 26.0739 20.8583 26.0739 21.1558 25.7765C21.4533 25.479 21.4533 24.9967 21.1558 24.6992L18.332 21.8754V17.5699C18.332 17.3152 18.2047 17.0773 17.9928 16.9361L14.9984 14.9398C14.9022 14.7667 14.784 14.6075 14.6478 14.4656C16.2764 14.9846 19.0175 15.2847 21.1577 15.2847C22.7531 15.2847 23.908 15.1176 24.6882 14.7738C25.8296 14.271 26 13.4464 26 12.9995C26 12.5527 25.8296 11.7281 24.6882 11.2252C23.908 10.8815 22.7531 10.7144 21.1577 10.7144C19.3742 10.7144 16.9707 10.9364 15.2836 11.354C15.2808 11.196 15.2726 11.0396 15.2592 10.8855L17.9928 9.06303ZM13 6.14407C13.42 6.14407 13.7617 6.48578 13.7617 6.90579C13.7617 7.3258 13.42 7.66751 13 7.66751C12.58 7.66751 12.2383 7.3258 12.2383 6.90579C12.2383 6.48578 12.58 6.14407 13 6.14407ZM13.7617 11.4761C13.7617 12.8251 13.2328 13.7613 13 13.7613C12.7711 13.7613 12.2383 12.8424 12.2383 11.4761C12.2383 10.1271 12.7672 9.19094 13 9.19094C13.2289 9.19094 13.7617 10.1098 13.7617 11.4761ZM1.92598 13.3797C1.52344 13.2024 1.52344 13.055 1.52344 12.9995C1.52344 12.9441 1.52344 12.7967 1.92598 12.6194C2.32106 12.4453 3.14778 12.2378 4.8424 12.2378C6.9973 12.2378 9.56348 12.5619 10.8885 12.9833C10.8911 12.9941 10.894 13.0046 10.8967 13.0153C9.59573 13.4328 7.03823 13.7613 4.84235 13.7613C3.14773 13.7613 2.32106 13.5538 1.92598 13.3797ZM13.7617 20.6675C13.7617 21.0875 13.42 21.4292 13 21.4292C12.58 21.4292 12.2383 21.0875 12.2383 20.6675V16.0464C12.2383 15.6264 12.58 15.2847 13 15.2847C13.42 15.2847 13.7617 15.6264 13.7617 16.0464V20.6675ZM24.074 12.6194C24.4766 12.7967 24.4766 12.9441 24.4766 12.9995C24.4766 13.055 24.4766 13.2024 24.074 13.3797C23.6789 13.5538 22.8522 13.7613 21.1576 13.7613C18.9617 13.7613 16.4042 13.4328 15.1034 13.0153C15.106 13.0046 15.1089 12.9941 15.1115 12.9833C16.4366 12.5619 19.0027 12.2378 21.1577 12.2378C22.8523 12.2378 23.6789 12.4453 24.074 12.6194Z" fill="black"/>
</svg>
