<svg width="24" height="24" viewBox="0 0 24 24" fill="none" xmlns="http://www.w3.org/2000/svg">
<path d="M15.5156 12.5156V10.1719C15.5156 9.78356 15.2008 9.46875 14.8125 9.46875H9.1875C8.79919 9.46875 8.48438 9.78356 8.48438 10.1719V12.5156C8.48438 13.6787 9.43064 14.625 10.5938 14.625H13.4062C14.5694 14.625 15.5156 13.6787 15.5156 12.5156ZM14.1094 12.5156C14.1094 12.9033 13.794 13.2188 13.4062 13.2188H10.5938C10.206 13.2188 9.89062 12.9033 9.89062 12.5156V10.875H14.1094V12.5156Z" fill="black"/>
<path d="M18.1875 7.875L16.9219 6.1875V0.703125C16.9219 0.314812 16.6071 0 16.2188 0C15.8304 0 15.5156 0.314812 15.5156 0.703125V5.71875H8.48438V0.703125C8.48438 0.314812 8.16956 0 7.78125 0C7.39294 0 7.07812 0.314812 7.07812 0.703125V6.1875L5.8125 7.875C5.72123 7.99669 5.67188 8.14472 5.67188 8.29688V23.2969C5.67188 23.6852 5.98669 24 6.375 24H10.125C10.4687 24 10.7621 23.7515 10.8186 23.4125L11.6019 18.7122C11.6345 18.5168 11.802 18.375 12 18.375C12.198 18.375 12.3655 18.5168 12.3981 18.7122L13.1814 23.4124C13.2379 23.7515 13.5313 24 13.875 24H17.625C18.0133 24 18.3281 23.6852 18.3281 23.2969V8.29688C18.3281 8.14472 18.2788 7.99669 18.1875 7.875ZM7.07812 22.5938V21.1875H9.76373L9.52936 22.5938H7.07812ZM12 16.9688C11.1117 16.9688 10.3609 17.6047 10.2148 18.481L9.99811 19.7812H7.07812V8.53125L8.13281 7.125H15.8672L16.9219 8.53125V19.7812H14.0019L13.7852 18.481C13.6391 17.6047 12.8883 16.9688 12 16.9688ZM14.4706 22.5938L14.2363 21.1875H16.9219V22.5938H14.4706Z" fill="black"/>
</svg>
