<svg width="26" height="26" viewBox="0 0 26 26" fill="none" xmlns="http://www.w3.org/2000/svg">
<g clip-path="url(#clip0)">
<path d="M18.5672 0C18.5672 0 18.5672 0 18.5672 0H7.43284C4.43717 0 2 2.76909 2 6.1728V20.3342C2 20.6656 2.26863 20.9342 2.6 20.9342H5.12837C5.45974 20.9342 5.72837 21.2029 5.72837 21.5342V25.4C5.72837 25.7314 5.997 26 6.32837 26H19.6716C20.003 26 20.2716 25.7314 20.2716 25.4V21.5342C20.2716 21.2029 20.5403 20.9342 20.8716 20.9342H23.4C23.7314 20.9342 24 20.6656 24 20.3342V6.1728C24 2.76909 21.5629 0 18.5672 0C18.5672 0 18.5672 0 18.5672 0ZM14.3044 1.52688C14.7171 1.52688 15.0066 1.93392 14.8711 2.32378L13.5668 6.07828C13.38 6.61573 12.6199 6.61573 12.4332 6.07827L11.1289 2.32378C10.9934 1.93391 11.2829 1.52688 11.6956 1.52688H14.3044ZM7.0722 7.437C7.0722 7.10562 6.80357 6.83699 6.4722 6.83699H6.32837C5.997 6.83699 5.72837 7.10562 5.72837 7.43699V18.8074C5.72837 19.1387 5.45974 19.4074 5.12837 19.4074H3.94383C3.61246 19.4074 3.34383 19.1387 3.34383 18.8074V6.1728C3.34383 3.61101 5.17816 1.52688 7.43284 1.52688H8.98056C9.23603 1.52688 9.46349 1.68865 9.54733 1.92997L12.2949 9.83856C12.3169 9.90188 12.3281 9.96844 12.3281 10.0355V23.8732C12.3281 24.2045 12.0595 24.4732 11.7281 24.4732H7.6722C7.34083 24.4732 7.0722 24.2045 7.0722 23.8732V7.437ZM22.6562 18.8074C22.6562 19.1387 22.3875 19.4074 22.0562 19.4074H20.8716C20.5403 19.4074 20.2716 19.1387 20.2716 18.8074V7.43699C20.2716 7.10562 20.003 6.83699 19.6716 6.83699H19.5278C19.1964 6.83699 18.9278 7.10562 18.9278 7.43699V23.8732C18.9278 24.2045 18.6592 24.4732 18.3278 24.4732H14.2719C13.9406 24.4732 13.6719 24.2045 13.6719 23.8732V10.0355C13.6719 9.96844 13.6832 9.90188 13.7052 9.83856L16.4527 1.92997C16.5366 1.68865 16.764 1.52688 17.0195 1.52688H18.5672C20.8218 1.52688 22.6562 3.61101 22.6562 6.1728V18.8074Z" fill="black"/>
<path d="M17.6144 8.78796H16.0876V9.72954H15.146V11.2564H16.0876V12.198H17.6144V11.2564H18.556V9.72954H17.6144V8.78796Z" fill="black"/>
<path d="M8 10H10.6975V11.5269H8V10Z" fill="black"/>
<path d="M9.42789 14.5953C9.44642 15.009 9.76334 15.3588 10.1913 15.3588C10.5907 15.3588 10.9732 15.0077 10.9548 14.5953C10.9362 14.1817 10.6193 13.8319 10.1913 13.8319C9.792 13.8319 9.40941 14.183 9.42789 14.5953Z" fill="black"/>
<path d="M10.1913 17.3053C9.792 17.3053 9.40941 17.6564 9.42789 18.0687C9.44642 18.4824 9.76334 18.8322 10.1913 18.8322C10.5907 18.8322 10.9732 18.481 10.9548 18.0687C10.9362 17.6551 10.6193 17.3053 10.1913 17.3053Z" fill="black"/>
<path d="M10.1913 20.7788C9.792 20.7788 9.40941 21.1299 9.42789 21.5422C9.44642 21.9559 9.76334 22.3057 10.1913 22.3057C10.5907 22.3057 10.9732 21.9545 10.9548 21.5422C10.9362 21.1286 10.6193 20.7788 10.1913 20.7788Z" fill="black"/>
</g>
<defs>
<clipPath id="clip0">
<rect width="26" height="26" fill="white"/>
</clipPath>
</defs>
</svg>
