<svg width="26" height="17" viewBox="0 0 26 17" fill="none" xmlns="http://www.w3.org/2000/svg">
<path d="M24.7 12.7H24.6827C24.5183 7.89585 21.4189 3.68645 16.8801 2.10327C16.7832 1.47049 16.2401 1.00244 15.6 1H10.4C9.75986 1.00244 9.21678 1.47049 9.11993 2.10327C4.58115 3.68645 1.48168 7.89585 1.31733 12.7H1.3C0.582021 12.7 0 13.282 0 14V14.8667C0 15.5846 0.582021 16.1667 1.3 16.1667H24.7C25.418 16.1667 26 15.5846 26 14.8667V14C26 13.282 25.418 12.7 24.7 12.7ZM9.1 3.03277V10.5333C9.1 10.7726 9.29403 10.9667 9.53333 10.9667C9.77264 10.9667 9.96667 10.7726 9.96667 10.5333V2.3C9.96667 2.06069 10.1607 1.86667 10.4 1.86667H12.5667V11.4C12.5667 11.6393 12.7607 11.8333 13 11.8333C13.2393 11.8333 13.4333 11.6393 13.4333 11.4V1.86667H15.6C15.8393 1.86667 16.0333 2.06069 16.0333 2.3V10.5333C16.0333 10.7726 16.2274 10.9667 16.4667 10.9667C16.706 10.9667 16.9 10.7726 16.9 10.5333V3.03277C20.9339 4.57857 23.6556 8.38302 23.816 12.7H2.184C2.34439 8.38302 5.0661 4.57857 9.1 3.03277ZM25.1333 14.8667C25.1333 15.106 24.9393 15.3 24.7 15.3H1.3C1.06069 15.3 0.866667 15.106 0.866667 14.8667V14C0.866667 13.7607 1.06069 13.5667 1.3 13.5667H24.7C24.9393 13.5667 25.1333 13.7607 25.1333 14V14.8667Z" fill="black" stroke="black"/>
</svg>
