<svg width="24" height="26" viewBox="0 0 24 26" fill="none" xmlns="http://www.w3.org/2000/svg">
<path d="M21.1406 3.04688C20.8435 3.04688 20.5594 3.1039 20.2987 3.20755C20.0342 2.23818 19.1458 1.52344 18.0938 1.52344C17.7963 1.52344 17.5124 1.58118 17.2515 1.68497C16.9872 0.715254 16.0992 0 15.0469 0C13.9947 0 13.1069 0.714949 12.8424 1.68441C12.5686 1.57559 12.2792 1.52344 12 1.52344C11.7026 1.52344 11.4186 1.58118 11.1577 1.68497C10.8934 0.715254 10.0055 0 8.95312 0C7.90104 0 7.01272 0.714746 6.74815 1.68411C6.48749 1.58046 6.20342 1.52344 5.90625 1.52344C4.64621 1.52344 3.62109 2.54856 3.62109 3.80859V9.32242C3.38268 9.23787 3.12638 9.19141 2.85938 9.19141C1.59934 9.19141 0.574219 10.2165 0.574219 11.4766V14.8355C0.574219 16.3091 0.964777 17.762 1.7037 19.0369L3.31305 21.8139C3.51455 22.1616 3.62109 22.5578 3.62109 22.9597V25.2383C3.62109 25.659 3.96214 26 4.38281 26C4.59498 26 20.8821 26 21.1406 26C21.5613 26 21.9023 25.659 21.9023 25.2383V22.9357C21.9023 22.5456 22.003 22.1595 22.1937 21.8191C22.9581 20.4541 23.4258 19.1465 23.4258 17.4326V5.33203C23.4258 4.072 22.4007 3.04688 21.1406 3.04688ZM14.2852 2.28516C14.2852 1.86514 14.6269 1.52344 15.0469 1.52344C15.4669 1.52344 15.8086 1.86514 15.8086 2.28516V3.17738C15.5629 3.09024 15.2968 3.04688 15.0469 3.04688C14.7803 3.04688 14.5162 3.09537 14.2852 3.17738V2.28516ZM5.14453 24.4766V22.9597C5.14453 22.2899 4.967 21.6295 4.63113 21.05L3.02177 18.273C2.41717 17.2299 2.09766 16.0412 2.09766 14.8355C2.09766 14.6328 2.09766 11.6785 2.09766 11.4766C2.09766 11.0566 2.43936 10.7148 2.85938 10.7148C3.27939 10.7148 3.62109 11.0566 3.62109 11.4766V14.5234C3.62109 14.9441 3.96214 15.2852 4.38281 15.2852H5.90625C7.16629 15.2852 8.19141 16.3103 8.19141 17.5703C8.19141 17.991 8.53245 18.332 8.95312 18.332C9.3738 18.332 9.71484 17.991 9.71484 17.5703C9.71484 15.4703 8.00631 13.7617 5.90625 13.7617H5.14453V3.80859C5.14453 3.38858 5.48624 3.04688 5.90625 3.04688C6.32626 3.04688 6.66797 3.38858 6.66797 3.80859V11.4766C6.66797 11.8972 7.00902 12.2383 7.42969 12.2383C7.85036 12.2383 8.19141 11.8972 8.19141 11.4766V2.28516C8.19141 1.86514 8.53311 1.52344 8.95312 1.52344C9.37314 1.52344 9.71484 1.86514 9.71484 2.28516C9.71484 2.59832 9.71484 11.1227 9.71484 11.4766C9.71484 11.8972 10.0559 12.2383 10.4766 12.2383C10.8972 12.2383 11.2383 11.8972 11.2383 11.4766C11.2383 11.1209 11.2383 4.12095 11.2383 3.80859C11.2383 3.38858 11.58 3.04688 12 3.04688C12.42 3.04688 12.7617 3.38858 12.7617 3.80859V11.4766C12.7617 11.8972 13.1028 12.2383 13.5234 12.2383C13.9441 12.2383 14.2852 11.8972 14.2852 11.4766V5.33203C14.2852 4.91202 14.6269 4.57031 15.0469 4.57031C15.4669 4.57031 15.8086 4.91202 15.8086 5.33203C15.8086 5.91906 15.8086 16.9758 15.8086 17.4326C15.8086 18.8609 15.4134 19.9271 14.7707 21.0748C14.4531 21.6421 14.2852 22.2855 14.2852 22.9357V24.4766C13.9156 24.4766 5.56546 24.4766 5.14453 24.4766ZM21.9023 17.4326C21.9023 18.8609 21.5071 19.9271 20.8645 21.0748C20.5468 21.6421 20.3789 22.2855 20.3789 22.9357V24.4766H15.8086V22.9357C15.8086 22.5456 15.9093 22.1595 16.0999 21.8191C16.8643 20.4541 17.332 19.1465 17.332 17.4326C17.332 16.7723 17.332 4.23683 17.332 3.80859C17.332 3.38858 17.6737 3.04688 18.0938 3.04688C18.5138 3.04688 18.8555 3.38858 18.8555 3.80859V11.4766C18.8555 11.8972 19.1965 12.2383 19.6172 12.2383C20.0379 12.2383 20.3789 11.8972 20.3789 11.4766V5.33203C20.3789 4.91202 20.7206 4.57031 21.1406 4.57031C21.5606 4.57031 21.9023 4.91202 21.9023 5.33203V17.4326Z" fill="black"/>
</svg>
