<svg width="26" height="26" viewBox="0 0 26 26" fill="none" xmlns="http://www.w3.org/2000/svg">
<g clip-path="url(#clip0)">
<path d="M26 16.7517C26 14.9535 24.5517 13.4456 22.7027 13.3188C16.7119 12.908 12.2891 9.4866 12.2891 3.85938C12.2891 3.4387 11.948 3.09766 11.5273 3.09766H2.28516C1.86448 3.09766 1.52344 3.4387 1.52344 3.85938C1.52344 11.383 0 11.3541 0 17.5703V22.1406C0 22.5613 0.341047 22.9023 0.761719 22.9023H9.90234C10.323 22.9023 10.6641 22.5613 10.6641 22.1406V21.4789C11.5207 21.7085 12.0946 22.2746 12.3739 22.5502C12.5752 22.7489 12.7403 22.9023 13.0508 22.9023C13.1765 22.9023 16.2336 22.8937 25.3016 22.138C25.6998 22.1048 26 21.7673 26 21.3789V16.7517ZM24.4766 16.7517V16.9185C19.9066 17.5894 13.921 17.5553 9.11605 17.3573C9.13235 17.1752 9.14062 16.9921 9.14062 16.8086C9.14062 13.4485 6.40697 10.7148 3.04688 10.7148C2.83654 10.7148 2.62732 10.7265 2.41957 10.7478C2.60239 9.87391 2.7722 8.9113 2.889 7.66797H11.4609C11.564 7.9398 11.6784 8.20625 11.8028 8.46721L9.89473 9.61101C9.53393 9.82729 9.41672 10.2952 9.63305 10.656C9.84933 11.0168 10.3172 11.134 10.678 10.9177L12.5574 9.79103C12.7073 10.014 12.8658 10.2306 13.0324 10.4406L11.4432 11.93C11.1362 12.2177 11.1206 12.6997 11.4083 13.0067C11.6962 13.3139 12.1783 13.3289 12.4849 13.0416L14.0678 11.5581C14.2696 11.7448 14.4787 11.9237 14.6961 12.093L13.4443 13.8715C13.2022 14.2155 13.2848 14.6907 13.6289 14.9328C13.9736 15.1755 14.4486 15.0916 14.6902 14.7483L15.9687 12.9317C16.2122 13.0682 16.4613 13.1981 16.7156 13.321L15.7939 15.3731C15.6215 15.7568 15.7929 16.2076 16.1766 16.38C16.5603 16.5523 17.0112 16.3811 17.1836 15.9973L18.1205 13.9114C19.5179 14.4158 21.0311 14.7312 22.5986 14.8387C23.6516 14.9109 24.4766 15.7512 24.4766 16.7517ZM1.5308 16.8757C1.57371 14.856 1.80294 13.5704 2.06898 12.3439C2.38855 12.2742 2.71588 12.2383 3.04688 12.2383C5.56695 12.2383 7.61719 14.2885 7.61719 16.8086C7.61719 16.969 7.60835 17.1289 7.59185 17.2876C4.82056 17.1482 2.60046 16.9693 1.5308 16.8757ZM10.7924 4.62109C10.8288 5.13774 10.9025 5.64667 11.0103 6.14453H2.99564C3.01829 5.6743 3.03413 5.16887 3.0417 4.62109H10.7924ZM9.90234 19.8555C9.48167 19.8555 9.14062 20.1965 9.14062 20.6172V21.3789H7.61719V20.6172C7.61719 20.1965 7.27614 19.8555 6.85547 19.8555C6.4348 19.8555 6.09375 20.1965 6.09375 20.6172V21.3789H4.57031V20.6172C4.57031 20.1965 4.22927 19.8555 3.80859 19.8555C3.38792 19.8555 3.04688 20.1965 3.04688 20.6172V21.3789H1.52344V18.4046C8.16689 18.982 17.8632 19.3917 24.4766 18.4577V20.6775C23.9536 20.7202 23.475 20.7588 22.9531 20.7995V20.6172C22.9531 20.1965 22.6121 19.8555 22.1914 19.8555C21.7707 19.8555 21.4297 20.1965 21.4297 20.6172V20.916C21.0114 20.9468 20.6652 20.9728 19.9062 21.0258V20.6172C19.9062 20.1965 19.5652 19.8555 19.1445 19.8555C18.7239 19.8555 18.3828 20.1965 18.3828 20.6172V21.1279C17.9514 21.1558 17.3952 21.1899 16.8594 21.2205V20.6172C16.8594 20.1965 16.5183 19.8555 16.0977 19.8555C15.677 19.8555 15.3359 20.1965 15.3359 20.6172V21.3006C14.7374 21.3292 13.9358 21.3621 13.3505 21.3743C12.8708 20.909 11.6825 19.8555 9.90234 19.8555Z" fill="black"/>
</g>
<defs>
<clipPath id="clip0">
<rect width="26" height="26" fill="white"/>
</clipPath>
</defs>
</svg>
