<svg width="16" height="16" viewBox="0 0 16 16" fill="none" xmlns="http://www.w3.org/2000/svg">
<path d="M13.681 10.1127L10.0534 10.5673C10.3582 11.2941 10.7114 12.4475 10.7114 13.8892C10.7114 14.6974 10.4515 15.2932 9.93894 15.6599C9.59451 15.9062 9.15176 16.0312 8.62313 16.0312H8.59696L8.57103 16.0283C7.70251 15.9316 7.44102 15.1215 7.47612 14.5936C7.48052 14.4576 7.46609 14.3243 7.43331 14.1975C7.33644 13.8235 7.17622 13.5117 6.78911 12.7584L6.77101 12.7234C6.51244 12.2195 6.21535 12.0385 5.80427 11.7878C5.4541 11.5743 5.05721 11.3325 4.629 10.865C4.43527 10.6539 4.21217 10.3453 4.01403 10.0144C3.97807 9.96655 3.94762 9.91247 3.92193 9.85168C3.91875 9.84546 3.91533 9.83984 3.91203 9.83423C3.90261 9.81775 3.89001 9.7959 3.87668 9.76953C3.85687 9.73303 3.83485 9.69226 3.81222 9.64905C3.4404 9.3269 2.86567 9.33301 2.51636 9.33691C2.4804 9.33728 2.44725 9.33765 2.41729 9.33765C1.80488 9.33765 1.4426 9.0979 1.24666 8.89673C0.973915 8.61706 0.829834 8.22168 0.829834 7.75342L0.82959 2.65307C0.82959 2.31714 0.872398 1.83203 1.24287 1.49743C1.58876 1.18493 2.07886 1.1488 2.41729 1.1488H3.53507C3.80941 1.1488 4.07384 1.03125 4.40885 0.88232C4.59806 0.798214 4.81259 0.702877 5.05806 0.616817C6.21034 0.21838 7.74385 0.0328331 9.8839 0.0328331C10.2986 0.0328331 11.5851 0.0312462 11.5857 0.0312462C12.0496 0.0312462 12.4863 0.213009 12.8482 0.556759C13.04 0.738644 13.1565 0.967403 13.2043 1.25598C13.2149 1.31982 13.2218 1.45434 13.2226 1.52722C13.2299 1.71008 13.203 1.88403 13.1453 2.04382C13.517 2.08569 13.8676 2.24585 14.1357 2.50146C14.4646 2.81518 14.6458 3.25097 14.6458 3.72876C14.6458 4.07898 14.5346 4.40979 14.3287 4.68152C14.4503 4.74133 14.5655 4.81872 14.6683 4.91845C14.9347 5.177 15.0724 5.5354 15.078 5.98388C15.0951 6.43127 14.9391 6.82031 14.6455 7.10779C14.9561 7.41699 15.1601 7.85986 15.1812 8.35095C15.2212 9.2771 14.55 10.0626 13.681 10.1127Z" fill="#AEB0B5"/>
</svg>
