<svg width="86" height="86" viewBox="0 0 86 86" fill="none" xmlns="http://www.w3.org/2000/svg">
<path d="M79.8129 21.1952L74.2392 17.9772C73.6002 17.4819 72.7125 17.4584 71.7306 18.0253L25.4899 44.7224C23.5442 45.8458 21.9668 48.8595 21.9668 51.4537V79.5346C21.9668 81.027 22.4893 82.0541 23.3032 82.4446L29.1921 85.8561L79.8129 21.1952Z" fill="url(#paint0_linear)"/>
<path d="M77.5517 21.4045L31.3111 48.1015C29.3653 49.2249 27.7881 52.2386 27.7881 54.8328V82.9137C27.7881 85.508 29.3655 86.7004 31.3111 85.5772L64.9361 66.1637L74.6284 69.0571V60.5678L77.5517 58.88C79.4974 57.7567 81.0747 54.743 81.0747 52.1485V24.0678C81.0748 21.4736 79.4974 20.2812 77.5517 21.4045Z" fill="#E9E5F6"/>
<path d="M62.7714 3.5925L57.1977 0.374555C56.5587 -0.120785 55.671 -0.144301 54.689 0.422594L8.44844 27.1195C6.50269 28.2429 4.92529 31.2566 4.92529 33.8509V61.9319C4.92529 63.4243 5.44784 64.4514 6.26165 64.842L12.1506 68.2534L17.1329 66.3216V69.5686L22.9542 72.9482L62.7714 3.5925Z" fill="url(#paint1_linear)"/>
<path d="M60.5102 3.80169L14.2696 30.4988C12.3238 31.6222 10.7466 34.6359 10.7466 37.2302V65.311C10.7466 67.9053 12.324 69.0979 14.2696 67.9745L22.9542 62.9604V72.9479L35.0769 55.9615L60.5102 41.2775C62.4559 40.1542 64.0331 37.1405 64.0331 34.546V6.46517C64.0333 3.87072 62.4559 2.67831 60.5102 3.80169Z" fill="#FC7924"/>
<path d="M27.3416 41.4053C28.0548 40.5679 28.426 39.5799 28.3161 38.592C28.1365 36.9779 26.8596 36.7238 24.8748 37.8211L20.8805 40.0293L21.9644 49.7692L26.1914 47.4323C28.3601 46.2334 29.4079 44.5463 29.219 42.8488C29.0874 41.6661 28.4217 41.1774 27.3416 41.4053ZM23.039 40.6085L24.8891 39.5856C25.7467 39.1115 26.2465 39.2783 26.3317 40.0436C26.4184 40.8228 26.0099 41.4769 25.1523 41.951L23.3022 42.9739L23.039 40.6085ZM25.9321 45.8032L23.7512 47.009L23.4771 44.5462L25.658 43.3404C26.577 42.8324 27.0982 42.9578 27.1895 43.7788C27.284 44.6275 26.851 45.2952 25.9321 45.8032ZM37.661 41.0914L39.7438 39.9399L34.825 32.3201L32.8647 33.4039L30.1258 45.2572L32.1597 44.1327L32.6871 41.6257L36.6691 39.4242L37.661 41.0914ZM33.1338 39.562L34.0788 35.0811L35.8538 38.0582L33.1338 39.562ZM49.1458 24.4029L50.0253 32.3061L47.3298 33.7963L46.4503 25.8931L44.4777 26.9837L45.3572 34.8869L42.6494 36.3839L41.77 28.4806L39.7974 29.5712L40.8812 39.3111L52.2023 33.0522L51.1184 23.3123L49.1458 24.4029Z" fill="white"/>
<path d="M43.1318 57.6294L43.0745 67.4292L41.1282 68.538L41.1747 60.5862L38.2552 62.2494L38.1824 64.328C38.1337 65.7417 38.0298 66.9265 37.8707 67.8822C37.7116 68.8287 37.4482 69.6392 37.0806 70.3137C36.7211 70.9743 36.2169 71.4894 35.5682 71.859C35.3005 72.0115 34.9764 72.145 34.5959 72.2594L34.7287 70.2722C34.8339 70.2494 34.9514 70.2011 35.0812 70.1272C35.5515 69.8592 35.8818 69.3548 36.0721 68.6139C36.2623 67.8636 36.3858 66.7933 36.4424 65.403L36.5873 61.3577L43.1318 57.6294ZM49.2632 64.071C48.3793 64.5746 47.5817 64.8104 46.8706 64.7783C46.1677 64.7415 45.6157 64.456 45.2146 63.9217C44.8218 63.3734 44.6282 62.6186 44.6338 61.6573C44.6394 60.696 44.8431 59.7195 45.245 58.7278C45.655 57.7221 46.214 56.799 46.9221 55.9584C47.6383 55.1132 48.4384 54.4388 49.3224 53.9352C50.2063 53.4316 50.9998 53.1982 51.7028 53.2349C52.4058 53.2716 52.9577 53.5618 53.3587 54.1055C53.7597 54.6398 53.9574 55.3876 53.9518 56.3489C53.9462 57.3102 53.7384 58.2937 53.3284 59.2994C52.9184 60.2957 52.3594 61.2142 51.6513 62.0548C50.9432 62.8954 50.1472 63.5674 49.2632 64.071ZM49.2745 62.1391C49.7773 61.8526 50.2322 61.4632 50.6392 60.9709C51.0463 60.4692 51.3647 59.9157 51.5946 59.3104C51.8325 58.7004 51.9533 58.0921 51.9568 57.4854C51.9604 56.8788 51.8459 56.4045 51.6135 56.0624C51.3892 55.7158 51.0751 55.5273 50.6712 55.497C50.2673 55.4573 49.8139 55.5807 49.3111 55.8672C48.8083 56.1536 48.3534 56.5477 47.9463 57.0493C47.5393 57.5417 47.2168 58.0928 46.9789 58.7028C46.749 59.3081 46.6323 59.9141 46.6288 60.5208C46.6252 61.1274 46.7356 61.6041 46.9599 61.9507C47.1923 62.2927 47.5104 62.4836 47.9143 62.5232C48.3183 62.5536 48.7717 62.4255 49.2745 62.1391ZM61.4848 49.0156L57.434 51.3233L57.3998 59.2683L55.4413 60.384L55.4985 50.5842L61.5078 47.1607L61.4848 49.0156ZM65.8468 54.6235C64.9629 55.1271 64.1654 55.3628 63.4543 55.3307C62.7513 55.294 62.1993 55.0085 61.7983 54.4741C61.4054 53.9259 61.2118 53.1711 61.2174 52.2098C61.223 51.2484 61.4268 50.2719 61.8286 49.2802C62.2386 48.2746 62.7977 47.3515 63.5058 46.5109C64.222 45.6656 65.0221 44.9912 65.906 44.4876C66.79 43.9841 67.5834 43.7506 68.2864 43.7874C68.9894 43.8241 69.5414 44.1143 69.9423 44.6579C70.3433 45.1922 70.541 45.9401 70.5354 46.9014C70.5298 47.8627 70.322 48.8462 69.912 49.8518C69.5021 50.8481 68.943 51.7666 68.2349 52.6072C67.5268 53.4478 66.7308 54.1199 65.8468 54.6235ZM65.8581 52.6915C66.3609 52.4051 66.8158 52.0157 67.2228 51.5234C67.6299 51.0217 67.9483 50.4682 68.1782 49.8628C68.4162 49.2529 68.5369 48.6445 68.5405 48.0379C68.544 47.4312 68.4296 46.9569 68.1972 46.6149C67.9729 46.2683 67.6587 46.0798 67.2548 46.0494C66.8509 46.0098 66.3975 46.1332 65.8947 46.4196C65.3919 46.7061 64.937 47.1001 64.5299 47.6018C64.1229 48.0941 63.8004 48.6453 63.5625 49.2552C63.3326 49.8606 63.2159 50.4666 63.2124 51.0732C63.2089 51.6799 63.3192 52.1565 63.5435 52.5032C63.7759 52.8452 64.0941 53.036 64.498 53.0757C64.9019 53.106 65.3553 52.978 65.8581 52.6915Z" fill="#2434DA"/>
<defs>
<linearGradient id="paint0_linear" x1="36.8221" y1="59.6177" x2="41.6692" y2="51.2221" gradientUnits="userSpaceOnUse">
<stop stop-color="#C5BAEB"/>
<stop offset="1" stop-color="#D7D1EB"/>
</linearGradient>
<linearGradient id="paint1_linear" x1="19.8649" y1="42.0637" x2="24.7122" y2="33.6681" gradientUnits="userSpaceOnUse">
<stop stop-color="#DE5B06"/>
<stop offset="1" stop-color="#F26F1A"/>
</linearGradient>
</defs>
</svg>
