<svg width="80" height="80" viewBox="0 0 80 80" fill="none" xmlns="http://www.w3.org/2000/svg">
<g clip-path="url(#clip0)">
<path d="M67.7182 2.3427L64.1394 0.276608C63.5402 -0.115736 62.7394 -0.104955 61.8593 0.40317L14.5849 27.6969C12.7285 28.7688 11.2236 31.6441 11.2236 34.1193V75.005C11.2236 76.4674 11.7491 77.4622 12.5616 77.8111L15.7985 79.6799L67.7182 2.3427Z" fill="#0621BC"/>
<path d="M65.4154 52.3032L18.141 79.5969C16.2846 80.6687 14.7798 79.531 14.7798 77.0559V36.1701C14.7798 33.6949 16.2846 30.8195 18.141 29.7477L65.4154 2.45399C67.2718 1.38227 68.7767 2.51993 68.7767 4.99508V45.8809C68.7767 48.356 67.2718 51.2315 65.4154 52.3032Z" fill="url(#paint0_linear)"/>
<path d="M63.6646 17.9414L19.8926 43.2133V36.6171L63.6646 11.3453V17.9414Z" fill="white"/>
<path d="M38.2223 48.0537L19.8926 58.6364V53.6614L38.2223 43.0787V48.0537Z" fill="white"/>
<path d="M38.2223 57.0241L19.8926 67.6068V62.6318L38.2223 52.0491V57.0241Z" fill="white"/>
<path d="M51.1323 37.0015C51.1323 40.3212 49.6879 43.2329 47.4073 44.5497C45.1267 45.8664 43.6821 44.6225 43.6821 41.3028C43.6821 38.0086 45.1265 35.0967 47.4073 33.78C49.6879 32.4634 51.1323 33.7073 51.1323 37.0015ZM45.8298 40.0629C45.8298 41.8875 46.4188 42.6623 47.4073 42.0917C48.3956 41.5211 48.9846 40.0661 48.9846 38.2415C48.9846 36.4172 48.3956 35.6676 47.4073 36.2381C46.419 36.8089 45.8298 38.2386 45.8298 40.0629ZM59.1526 27.0751L49.669 50.314L46.4951 52.1465L55.9787 28.9076L59.1526 27.0751ZM62.0413 37.8747C62.0413 41.1944 60.597 44.1061 58.3163 45.4228C56.0357 46.7395 54.5912 45.4956 54.5912 42.1759C54.5912 38.8817 56.0356 35.9698 58.3163 34.6531C60.597 33.3364 62.0413 34.5803 62.0413 37.8747ZM56.7388 40.9359C56.7388 42.7604 57.3279 43.5355 58.3163 42.9647C59.3046 42.394 59.8937 40.9389 59.8937 39.1144C59.8937 37.29 59.3046 36.5404 58.3163 37.1109C57.3281 37.6819 56.7388 39.1115 56.7388 40.9359Z" fill="#FC7924"/>
</g>
<defs>
<linearGradient id="paint0_linear" x1="41.7782" y1="68.0224" x2="41.7782" y2="-18.4816" gradientUnits="userSpaceOnUse">
<stop stop-color="#2434DA"/>
<stop offset="1" stop-color="#2C3FFF"/>
</linearGradient>
<clipPath id="clip0">
<rect width="80" height="80" fill="white"/>
</clipPath>
</defs>
</svg>
