<svg width="99" height="98" viewBox="0 0 99 98" fill="none" xmlns="http://www.w3.org/2000/svg">
<g clip-path="url(#clip0)">
<path d="M95.9684 34.7504C95.2161 33.3461 93.1159 32.1601 91.2772 32.1017C90.2645 32.0696 89.5446 32.3873 89.2259 32.9127L89.2234 32.9114L87.4428 35.7807L87.4474 35.783C87.156 36.217 87.1478 36.8017 87.4987 37.4571C88.2509 38.8614 90.3512 40.0472 92.1898 40.1058C93.2525 40.1396 93.9923 39.788 94.2846 39.2151L95.9724 36.4956L95.9714 36.4951C96.3116 36.0552 96.3386 35.4412 95.9684 34.7504Z" fill="url(#paint0_linear)"/>
<path d="M78.5142 66.9104V28.442L16.7715 31.0897V69.5579C16.7713 70.4394 17.2075 71.3208 18.0799 71.8246L42.5388 85.9459C44.2783 86.9503 46.4215 86.9503 48.161 85.9459L77.2057 69.177C78.0781 68.6733 78.5142 67.7918 78.5142 66.9104Z" fill="url(#paint1_linear)"/>
<path d="M18.08 28.8232L47.1247 12.0543C48.8642 11.05 51.0074 11.05 52.7469 12.0543L77.2058 26.1757C78.9504 27.1831 78.9504 29.7012 77.2058 30.7084L48.161 47.4773C46.4215 48.4816 44.2783 48.4816 42.5388 47.4773L18.08 33.3559C16.3353 32.3486 16.3353 29.8304 18.08 28.8232Z" fill="url(#paint2_linear)"/>
<path d="M27.4976 23.3863L58.693 41.3969L66.968 36.6194L35.7726 18.6086L27.4976 23.3863Z" fill="#DEA861"/>
<path d="M32.4438 20.5281L63.6392 38.5388L62.0181 39.4746L30.8228 21.4641L32.4438 20.5281Z" fill="#CC8241"/>
<path d="M58.6934 41.3964V48.2302L66.9684 43.4527V36.6189L58.6934 41.3964Z" fill="#CC8241"/>
<path d="M2.1251 29.5385L21.0973 40.4921C22.0668 41.0518 22.6639 42.0861 22.6639 43.2055C22.6639 44.1803 21.6085 44.7896 20.7644 44.3022L1.79225 33.3486C0.822774 32.789 0.225586 31.7546 0.225586 30.6353C0.225586 29.6604 1.28081 29.051 2.1251 29.5385Z" fill="url(#paint3_linear)"/>
<path d="M9.06084 41.6178L28.0328 52.5714C29.0023 53.1311 29.5995 54.1654 29.5995 55.2848C29.5995 56.2596 28.5443 56.8688 27.7 56.3815L8.72779 45.4279C7.75832 44.8682 7.16113 43.8339 7.16113 42.7145C7.16132 41.7395 8.21655 41.1303 9.06084 41.6178Z" fill="url(#paint4_linear)"/>
<path d="M93.3242 38.0485L93.325 38.0469L86.8836 34.3386L86.8832 34.3396C84.3406 32.9923 81.0743 33.1843 77.5108 35.2415C69.4031 39.9225 62.8306 52.4807 62.8306 63.2911C62.8306 69.2345 64.8198 73.4066 67.956 75.1857L67.9537 75.1905L73.8391 78.5883L73.8452 78.5757C76.4321 80.122 79.8259 80.0105 83.5451 77.8631C91.6529 73.182 98.2256 60.6239 98.2256 49.8134C98.2256 44.0123 96.3312 39.8967 93.3242 38.0485Z" fill="url(#paint5_linear)"/>
<path d="M95.3036 63.3272C100.183 51.876 98.8864 40.3553 92.408 37.595C85.9296 34.8346 76.7225 41.8799 71.8433 53.3311C66.9642 64.7823 68.2605 76.303 74.7389 79.0633C81.2173 81.8237 90.4244 74.7784 95.3036 63.3272Z" fill="#2434DA"/>
<path d="M92.0402 61.9364C95.5621 53.6707 94.6263 45.3548 89.95 43.3623C85.2738 41.3698 78.6279 46.4553 75.106 54.721C71.5841 62.9867 72.5199 71.3025 77.1961 73.295C81.8724 75.2875 88.5183 70.2021 92.0402 61.9364Z" fill="#F2EFFA"/>
<path d="M92.6019 45.7223C90.7422 42.7243 87.3819 41.9453 83.5449 44.1604V58.2893L92.6019 45.7223Z" fill="#FF6F02"/>
<path d="M85.5971 57.1051C85.5971 55.5941 84.6784 54.8995 83.545 55.5537C82.4117 56.208 81.4932 57.9634 81.4932 59.4745C81.4932 60.9857 82.4119 61.6801 83.545 61.0257C84.6784 60.3714 85.5971 58.6162 85.5971 57.1051Z" fill="#594A8E"/>
<path d="M82.7456 60.7521V47.7889C82.7456 47.3473 83.1035 46.9894 83.5451 46.9894C83.9867 46.9894 84.3446 47.3473 84.3446 47.7889V55.8266L88.6717 49.8635C88.9311 49.5066 89.4306 49.4262 89.7882 49.6861C90.1455 49.9453 90.2249 50.4452 89.9658 50.8026L82.7456 60.7521Z" fill="#594A8E"/>
<path d="M84.0228 35.0166V32.0997L78.3892 32.4791V35.5261L78.393 35.5257C78.3792 35.9116 78.6018 36.282 79.0775 36.5566C80.0969 37.1452 81.8775 37.0713 83.0547 36.3918C83.7351 35.9991 84.0626 35.4901 84.0228 35.0166Z" fill="#594A8E"/>
<path d="M85.5884 30.304V26.6238L76.8218 27.2143V31.0972L76.8277 31.0966C76.8061 31.6971 77.1527 32.2736 77.8927 32.7008C79.4791 33.6167 82.2501 33.5018 84.0818 32.4443C85.1405 31.833 85.65 31.0407 85.5884 30.304Z" fill="url(#paint6_linear)"/>
<path d="M81.5396 29.3214C83.9579 29.0267 85.7832 27.6787 85.6165 26.3105C85.4498 24.9423 83.3542 24.072 80.9359 24.3667C78.5176 24.6614 76.6923 26.0094 76.859 27.3776C77.0257 28.7458 79.1213 29.616 81.5396 29.3214Z" fill="#FF6F02"/>
<path d="M73.2819 41.6189L70.6763 39.7601L66.6665 46.2653L69.4157 48.2264L69.4183 48.222C69.8325 48.5405 70.4158 48.5864 71.0922 48.2783C72.5419 47.6177 73.8601 45.5978 74.0364 43.7666C74.1382 42.7082 73.8347 41.9473 73.2819 41.6189Z" fill="url(#paint7_linear)"/>
<path d="M70.5052 44.0308C71.5176 42.1712 71.4855 40.1994 70.4335 39.6266C69.3814 39.0539 67.7079 40.0971 66.6954 41.9567C65.683 43.8163 65.7152 45.7882 66.7672 46.3609C67.8192 46.9337 69.4928 45.8905 70.5052 44.0308Z" fill="#FFF500"/>
</g>
<defs>
<linearGradient id="paint0_linear" x1="87.2322" y1="36.1036" x2="96.2363" y2="36.1036" gradientUnits="userSpaceOnUse">
<stop stop-color="#236568"/>
<stop offset="1" stop-color="#2F878A"/>
</linearGradient>
<linearGradient id="paint1_linear" x1="40.4149" y1="57.5705" x2="48.8965" y2="57.5705" gradientUnits="userSpaceOnUse">
<stop stop-color="#CC8241"/>
<stop offset="1" stop-color="#DEA861"/>
</linearGradient>
<linearGradient id="paint2_linear" x1="30.4538" y1="19.8415" x2="62.2165" y2="38.1797" gradientUnits="userSpaceOnUse">
<stop stop-color="#DEA861"/>
<stop offset="1" stop-color="#EBCBA0"/>
</linearGradient>
<linearGradient id="paint3_linear" x1="12.076" y1="36.3559" x2="13.3253" y2="32.1665" gradientUnits="userSpaceOnUse">
<stop stop-color="#0002A8"/>
<stop offset="1" stop-color="#2434DA"/>
</linearGradient>
<linearGradient id="paint4_linear" x1="19.0116" y1="48.4352" x2="20.2608" y2="44.2457" gradientUnits="userSpaceOnUse">
<stop stop-color="#0002A8"/>
<stop offset="1" stop-color="#2434DA"/>
</linearGradient>
<linearGradient id="paint5_linear" x1="81.5239" y1="54.8273" x2="87.5574" y2="44.3771" gradientUnits="userSpaceOnUse">
<stop stop-color="#0002A8"/>
<stop offset="1" stop-color="#2434DA"/>
</linearGradient>
<linearGradient id="paint6_linear" x1="77.7963" y1="30.5731" x2="81.0848" y2="25.1181" gradientUnits="userSpaceOnUse">
<stop stop-color="#ED0505"/>
<stop offset="0.998725" stop-color="#ED7405"/>
</linearGradient>
<linearGradient id="paint7_linear" x1="68.633" y1="47.6799" x2="73.6273" y2="40.6828" gradientUnits="userSpaceOnUse">
<stop stop-color="#FFF500"/>
<stop offset="1" stop-color="#D7BD00"/>
</linearGradient>
<clipPath id="clip0">
<rect width="98" height="98" fill="white" transform="translate(0.225586)"/>
</clipPath>
</defs>
</svg>
