<svg width="80" height="80" viewBox="0 0 80 80" fill="none" xmlns="http://www.w3.org/2000/svg">
<g clip-path="url(#clip0)">
<path d="M33.9416 77.4833L69.4799 6.70313L58.5838 0.412188C58.2269 0.111407 57.7816 -0.0346866 57.2711 0.00671963L34.5552 1.85188L11.8394 26.2369C10.4869 27.6886 9.58984 29.9278 9.58984 31.8519V39.9011C9.58984 55.073 14.5839 66.2334 22.8359 71.0634L22.8328 71.0695L23.1769 71.2681C23.1842 71.2722 23.1914 71.2767 23.1988 71.2808L33.9416 77.4833Z" fill="url(#paint0_linear)"/>
<path d="M69.4799 6.70313L58.5838 0.412188C58.2269 0.111407 57.7816 -0.0346866 57.2711 0.00671963L34.5552 1.85188L45.445 8.13688L69.4799 6.70313Z" fill="url(#paint1_linear)"/>
<path d="M45.4448 8.13719L22.729 32.522C21.3765 33.9739 20.4795 36.213 20.4795 38.137V46.1863C20.4795 67.6011 30.4207 81.0406 45.4448 79.9367C60.4689 63.6922 70.4101 38.7736 70.4101 17.3587V9.30953C70.4101 7.38547 69.5131 6.18219 68.1606 6.29203L45.4448 8.13719Z" fill="#FC7924"/>
<path d="M43.7421 77.9888C37.519 77.9888 32.2453 75.1135 28.4912 69.6735C24.5657 63.9854 22.4907 55.8636 22.4907 46.1863V38.1371C22.4907 36.7189 23.1938 34.9736 24.2009 33.8929L46.1193 10.3639C46.2904 10.1805 46.5238 10.0674 46.7737 10.0471L67.3121 8.37878C67.5924 8.3566 67.8687 8.45144 68.0752 8.64175C68.2817 8.83222 68.3992 9.10019 68.3992 9.38113V17.3588C68.3992 27.3771 66.1551 38.4003 61.9095 49.2368C57.6723 60.0516 51.7577 69.8771 44.8054 77.6511C44.6184 77.8602 44.3528 77.9816 44.0723 77.9863C43.9617 77.9879 43.8517 77.9888 43.7421 77.9888ZM47.3251 12.0202L25.6724 35.2639C25.016 35.9685 24.5021 37.2305 24.5021 38.1372V46.1864C24.5021 55.4538 26.4538 63.1805 30.1465 68.5313C33.4799 73.3618 38.1302 75.9343 43.6023 75.9772C57.2451 60.5335 66.3878 37.0405 66.3878 17.3589V10.4718L47.3251 12.0202Z" fill="white"/>
<path d="M45.4451 64.6477C36.9214 69.5688 29.9868 64.3265 29.9868 52.9616C29.9868 41.5968 36.9214 28.3469 45.4451 23.4258C48.1014 21.8923 50.7221 21.2934 53.0239 21.6938C54.2981 21.9154 55.465 22.4358 56.4912 23.2413C57.5182 24.0465 58.3892 25.1252 59.0804 26.4474C60.2728 28.728 60.9032 31.7243 60.9032 35.1121C60.9032 46.4768 53.9687 59.7266 45.4451 64.6477ZM45.4451 28.0705C38.8423 31.8827 33.4704 42.1465 33.4704 50.9504C33.4704 59.7541 38.8423 63.8152 45.4451 60.003C52.0479 56.1908 57.4198 45.9271 57.4198 37.1232C57.4198 34.4977 56.9321 32.1774 56.0095 30.413C55.4739 29.3883 54.7987 28.5521 54.0023 27.9277C53.206 27.303 52.3015 26.8994 51.3137 26.7279C49.5326 26.4179 47.5034 26.8821 45.4451 28.0705Z" fill="white"/>
<path d="M44.7371 56.1846L36.8527 50.2243C35.831 49.452 35.5175 48.0541 36.1114 46.9195C36.8622 45.4851 38.7211 45.0682 40.0125 46.0445L44.7369 49.616L61.8311 16.9543C62.2675 16.1205 63.348 15.878 64.0988 16.4455C64.6927 16.8945 64.8751 17.7071 64.5297 18.3668L44.7371 56.1846Z" fill="white"/>
</g>
<defs>
<linearGradient id="paint0_linear" x1="26.5564" y1="45.3177" x2="30.3675" y2="38.7166" gradientUnits="userSpaceOnUse">
<stop stop-color="#D45100"/>
<stop offset="1" stop-color="#F26F1A"/>
</linearGradient>
<linearGradient id="paint1_linear" x1="34.5553" y1="4.06844" x2="69.4799" y2="4.06844" gradientUnits="userSpaceOnUse">
<stop stop-color="#F26F1A"/>
<stop offset="0.942708" stop-color="#D45101"/>
<stop offset="1" stop-color="#F5DB01"/>
</linearGradient>
<clipPath id="clip0">
<rect width="80" height="80" fill="white"/>
</clipPath>
</defs>
</svg>
