<svg width="22" height="20" viewBox="0 0 22 20" fill="none" xmlns="http://www.w3.org/2000/svg">
<mask id="path-1-inside-1" fill="white">
<path d="M20.024 1.89365C18.8982 0.672534 17.3533 0 15.6737 0C14.4182 0 13.2685 0.396916 12.2563 1.17963C11.7455 1.57472 11.2827 2.05809 10.8747 2.62227C10.4668 2.05826 10.0039 1.57472 9.49297 1.17963C8.48093 0.396916 7.33117 0 6.07571 0C4.39611 0 2.85109 0.672534 1.72523 1.89365C0.612798 3.10049 0 4.74922 0 6.53634C0 8.37573 0.685477 10.0595 2.15715 11.8353C3.47368 13.4238 5.36584 15.0364 7.55701 16.9036C8.30521 17.5413 9.1533 18.2641 10.0339 19.0341C10.2666 19.2378 10.5651 19.35 10.8747 19.35C11.1842 19.35 11.4829 19.2378 11.7152 19.0344C12.5958 18.2643 13.4444 17.5411 14.1929 16.9031C16.3837 15.0362 18.2759 13.4238 19.5924 11.8351C21.0641 10.0595 21.7494 8.37573 21.7494 6.53618C21.7494 4.74922 21.1366 3.10049 20.024 1.89365Z"/>
</mask>
<path d="M20.024 1.89365C18.8982 0.672534 17.3533 0 15.6737 0C14.4182 0 13.2685 0.396916 12.2563 1.17963C11.7455 1.57472 11.2827 2.05809 10.8747 2.62227C10.4668 2.05826 10.0039 1.57472 9.49297 1.17963C8.48093 0.396916 7.33117 0 6.07571 0C4.39611 0 2.85109 0.672534 1.72523 1.89365C0.612798 3.10049 0 4.74922 0 6.53634C0 8.37573 0.685477 10.0595 2.15715 11.8353C3.47368 13.4238 5.36584 15.0364 7.55701 16.9036C8.30521 17.5413 9.1533 18.2641 10.0339 19.0341C10.2666 19.2378 10.5651 19.35 10.8747 19.35C11.1842 19.35 11.4829 19.2378 11.7152 19.0344C12.5958 18.2643 13.4444 17.5411 14.1929 16.9031C16.3837 15.0362 18.2759 13.4238 19.5924 11.8351C21.0641 10.0595 21.7494 8.37573 21.7494 6.53618C21.7494 4.74922 21.1366 3.10049 20.024 1.89365Z" stroke="#F76923" stroke-width="4" mask="url(#path-1-inside-1)"/>
</svg>
