<svg width="16" height="16" viewBox="0 0 16 16" fill="none" xmlns="http://www.w3.org/2000/svg">
<path d="M13.681 5.88733L10.0534 5.43274C10.3582 4.70593 10.7114 3.55249 10.7114 2.11084C10.7114 1.30261 10.4515 0.706787 9.93894 0.340088C9.59451 0.09375 9.15176 -0.03125 8.62313 -0.03125H8.59696L8.57103 -0.0283203C7.70251 0.0683594 7.44102 0.87854 7.47612 1.40637C7.48052 1.54236 7.46609 1.67566 7.43331 1.80249C7.33644 2.17651 7.17622 2.48828 6.78911 3.24158L6.77101 3.27661C6.51244 3.78052 6.21535 3.96155 5.80427 4.21216C5.4541 4.42566 5.05721 4.66748 4.629 5.13501C4.43527 5.34607 4.21217 5.65466 4.01403 5.9856C3.97807 6.03345 3.94762 6.08753 3.92193 6.14832C3.91875 6.15454 3.91533 6.16016 3.91203 6.16577C3.90261 6.18225 3.89001 6.2041 3.87668 6.23047C3.85687 6.26697 3.83485 6.30774 3.81222 6.35095C3.4404 6.6731 2.86567 6.66699 2.51636 6.66309C2.4804 6.66272 2.44725 6.66235 2.41729 6.66235C1.80488 6.66235 1.4426 6.9021 1.24666 7.10327C0.973915 7.38294 0.829834 7.77832 0.829834 8.24658L0.82959 13.3469C0.82959 13.6829 0.872398 14.168 1.24287 14.5026C1.58876 14.8151 2.07886 14.8512 2.41729 14.8512H3.53507C3.80941 14.8512 4.07384 14.9688 4.40885 15.1177C4.59806 15.2018 4.81259 15.2971 5.05806 15.3832C6.21034 15.7816 7.74385 15.9672 9.8839 15.9672C10.2986 15.9672 11.5851 15.9688 11.5857 15.9688C12.0496 15.9688 12.4863 15.787 12.8482 15.4432C13.04 15.2614 13.1565 15.0326 13.2043 14.744C13.2149 14.6802 13.2218 14.5457 13.2226 14.4728C13.2299 14.2899 13.203 14.116 13.1453 13.9562C13.517 13.9143 13.8676 13.7542 14.1357 13.4985C14.4646 13.1848 14.6458 12.749 14.6458 12.2712C14.6458 11.921 14.5346 11.5902 14.3287 11.3185C14.4503 11.2587 14.5655 11.1813 14.6683 11.0815C14.9347 10.823 15.0724 10.4646 15.078 10.0161C15.0951 9.56873 14.9391 9.17969 14.6455 8.89221C14.9561 8.58301 15.1601 8.14014 15.1812 7.64905C15.2212 6.7229 14.55 5.93738 13.681 5.88733Z" fill="#AEB0B5"/>
</svg>
