<svg width="42" height="42" viewBox="0 0 42 42" fill="none" xmlns="http://www.w3.org/2000/svg">
<path d="M14.2461 19.8125L16.0859 16.3203H20.1875L16.8477 22.4961L20.3516 29H16.2266L14.2344 25.25L12.2773 29H8.12891L11.6445 22.4961L8.31641 16.3203H12.4648L14.2461 19.8125ZM33.3008 29H21.3945V26.4219L26.8789 20.6562C28.2305 19.1172 28.9062 17.8945 28.9062 16.9883C28.9062 16.2539 28.7461 15.6953 28.4258 15.3125C28.1055 14.9297 27.6406 14.7383 27.0312 14.7383C26.4297 14.7383 25.9414 14.9961 25.5664 15.5117C25.1914 16.0195 25.0039 16.6562 25.0039 17.4219H21.043C21.043 16.375 21.3047 15.4102 21.8281 14.5273C22.3516 13.6367 23.0781 12.9414 24.0078 12.4414C24.9375 11.9414 25.9766 11.6914 27.125 11.6914C28.9688 11.6914 30.3867 12.1172 31.3789 12.9688C32.3789 13.8203 32.8789 15.043 32.8789 16.6367C32.8789 17.3086 32.7539 17.9648 32.5039 18.6055C32.2539 19.2383 31.8633 19.9062 31.332 20.6094C30.8086 21.3047 29.9609 22.2383 28.7891 23.4102L26.5859 25.9531H33.3008V29Z" fill="#2434DA"/>
<circle cx="21" cy="21" r="19.45" stroke="#2434DA" stroke-width="3.1"/>
</svg>
