<svg width="42" height="42" viewBox="0 0 42 42" fill="none" xmlns="http://www.w3.org/2000/svg">
<path d="M16.0645 21.0469L16.9336 13.7812H25.2441V16.3398H19.6094L19.2871 19.1621C19.5215 19.0254 19.8275 18.9049 20.2051 18.8008C20.5892 18.6966 20.9635 18.6445 21.3281 18.6445C22.7409 18.6445 23.8249 19.0645 24.5801 19.9043C25.3418 20.7376 25.7227 21.9095 25.7227 23.4199C25.7227 24.3314 25.5176 25.1582 25.1074 25.9004C24.7038 26.6361 24.1341 27.2025 23.3984 27.5996C22.6628 27.9967 21.7936 28.1953 20.791 28.1953C19.8991 28.1953 19.0625 28.013 18.2812 27.6484C17.5 27.2773 16.888 26.7728 16.4453 26.1348C16.0026 25.4902 15.7845 24.7643 15.791 23.957H19.0918C19.1243 24.4779 19.2904 24.8913 19.5898 25.1973C19.8893 25.5033 20.2832 25.6562 20.7715 25.6562C21.8783 25.6562 22.4316 24.8359 22.4316 23.1953C22.4316 21.6784 21.7546 20.9199 20.4004 20.9199C19.6322 20.9199 19.0592 21.1673 18.6816 21.6621L16.0645 21.0469Z" fill="#2434DA"/>
<circle cx="21" cy="21" r="19.45" stroke="#2434DA" stroke-width="3.1"/>
</svg>
