<svg width="42" height="42" viewBox="0 0 42 42" fill="none" xmlns="http://www.w3.org/2000/svg">
<path d="M19.791 28H9.86914V25.8516L14.4395 21.0469C15.5658 19.7643 16.1289 18.7454 16.1289 17.9902C16.1289 17.3783 15.9954 16.9128 15.7285 16.5938C15.4616 16.2747 15.0742 16.1152 14.5664 16.1152C14.0651 16.1152 13.6582 16.3301 13.3457 16.7598C13.0332 17.1829 12.877 17.7135 12.877 18.3516H9.57617C9.57617 17.4792 9.79427 16.6751 10.2305 15.9395C10.6667 15.1973 11.2721 14.6178 12.0469 14.2012C12.8216 13.7845 13.6875 13.5762 14.6445 13.5762C16.181 13.5762 17.3626 13.931 18.1895 14.6406C19.0228 15.3503 19.4395 16.3691 19.4395 17.6973C19.4395 18.2572 19.3353 18.804 19.127 19.3379C18.9186 19.8652 18.5931 20.4219 18.1504 21.0078C17.7142 21.5872 17.0078 22.3652 16.0312 23.3418L14.1953 25.4609H19.791V28ZM31.3242 22.1895C31.3242 24.11 30.8913 25.5911 30.0254 26.6328C29.166 27.6745 27.9518 28.1953 26.3828 28.1953C24.8008 28.1953 23.5768 27.6712 22.7109 26.623C21.8451 25.5749 21.4121 24.097 21.4121 22.1895V19.5918C21.4121 17.6712 21.8418 16.1901 22.7012 15.1484C23.5671 14.1068 24.7878 13.5859 26.3633 13.5859C27.9388 13.5859 29.1595 14.11 30.0254 15.1582C30.8913 16.2064 31.3242 17.6875 31.3242 19.6016V22.1895ZM28.0332 19.1719C28.0332 18.1497 27.8997 17.388 27.6328 16.8867C27.3659 16.3789 26.9427 16.125 26.3633 16.125C25.7969 16.125 25.3835 16.3594 25.123 16.8281C24.8691 17.2969 24.7324 18.0065 24.7129 18.957V22.5898C24.7129 23.651 24.8464 24.429 25.1133 24.9238C25.3802 25.4121 25.8034 25.6562 26.3828 25.6562C26.9427 25.6562 27.3561 25.4186 27.623 24.9434C27.89 24.4616 28.0267 23.7096 28.0332 22.6875V19.1719Z" fill="#2434DA"/>
<circle cx="21" cy="21" r="19.45" stroke="#2434DA" stroke-width="3.1"/>
</svg>
