<svg width="42" height="42" viewBox="0 0 42 42" fill="none" xmlns="http://www.w3.org/2000/svg">
<circle cx="21" cy="21" r="19.45" stroke="#2434DA" stroke-width="3.1"/>
<path d="M20.653 23.3506V25.0292H24.0203C24.3823 25.0292 24.6901 25.1465 24.9435 25.3812C25.197 25.5977 25.3237 25.8956 25.3237 26.2746C25.3237 26.6356 25.197 26.9334 24.9435 27.1681C24.6901 27.3847 24.3823 27.493 24.0203 27.493H20.653V29.3882C20.653 30.0741 20.4539 30.5975 20.0556 30.9585C19.6754 31.3195 19.1866 31.5 18.5892 31.5C18.0099 31.5 17.5302 31.3195 17.15 30.9585C16.7698 30.5975 16.5797 30.0741 16.5797 29.3882V27.493H15.3306C14.9685 27.493 14.6517 27.3847 14.3802 27.1681C14.1267 26.9334 14 26.6356 14 26.2746C14 25.8956 14.1267 25.5977 14.3802 25.3812C14.6517 25.1465 14.9685 25.0292 15.3306 25.0292H16.5797V23.3506H15.3306C14.9685 23.3506 14.6517 23.2332 14.3802 22.9986C14.1267 22.7639 14 22.4661 14 22.1051C14 21.7441 14.1267 21.4463 14.3802 21.2117C14.6517 20.977 14.9685 20.8597 15.3306 20.8597H16.5797V14.2264C16.5797 13.5947 16.7427 13.1074 17.0685 12.7644C17.4125 12.4215 17.9013 12.25 18.5349 12.25H23.2056C24.5815 12.25 25.7582 12.4846 26.7358 12.9539C27.7315 13.4232 28.4828 14.073 28.9897 14.9033C29.4966 15.7155 29.75 16.6451 29.75 17.692C29.75 19.497 29.1797 20.8958 28.0392 21.8885C26.9168 22.8632 25.3056 23.3506 23.2056 23.3506H20.653ZM20.5987 20.8597H22.2009C23.4319 20.8597 24.3552 20.6521 24.9707 20.237C25.5862 19.8038 25.894 19.136 25.894 18.2335C25.894 17.2046 25.6134 16.4646 25.0522 16.0134C24.4909 15.5621 23.631 15.3365 22.4724 15.3365H20.5987V20.8597Z" fill="#2434DA"/>
</svg>
