<svg width="60" height="25" viewBox="0 0 60 25" fill="none" xmlns="http://www.w3.org/2000/svg">
<path d="M22.6325 0.314146L14.8284 17.5225H9.73652L5.89573 3.78874C5.66318 2.94481 5.46069 2.63418 4.75198 2.27747C3.59377 1.69596 1.68118 1.1521 0 0.813683L0.113423 0.314146H8.31074C9.354 0.314146 10.2934 0.956157 10.532 2.0678L12.5614 12.0265L17.5715 0.314146H22.6325ZM29.516 0.314146L25.5332 17.5225H20.7161L24.6989 0.314146H29.516ZM42.5825 11.9041C42.6027 7.36325 35.7893 7.11137 35.8338 5.08226C35.8502 4.46558 36.4858 3.8088 37.8773 3.64099C38.5666 3.55868 40.4708 3.49289 42.6278 4.41141L43.4716 0.760211C42.3126 0.372894 40.8214 0 38.9663 0C34.2044 0 30.8546 2.33762 30.8279 5.68769C30.7967 8.16568 33.2205 9.54679 35.0433 10.3721C36.9208 11.215 37.5504 11.7567 37.5416 12.5099C37.5283 13.6645 36.0424 14.1756 34.6607 14.1946C32.2381 14.2301 30.8336 13.5895 29.7135 13.1072L28.8392 16.8794C29.9662 17.3568 32.0432 17.7716 34.1945 17.7927C39.2567 17.7927 42.5676 15.4818 42.5825 11.9041ZM55.1569 17.5225H59.6105L55.7194 0.314146H51.6103C50.6835 0.314146 49.9048 0.81122 49.5592 1.57565L42.3313 17.5225H47.3897L48.393 14.952H54.573L55.1569 17.5225ZM49.7799 11.4257L52.3163 4.96336L53.7733 11.4257H49.7799ZM35.6807 22.2592H33.7235V23.9429H35.9128V24.4491H33.0639V19.7781H35.8006V20.2843H33.7235V21.7601H35.6807V22.2592ZM36.924 19.5289H37.5836V24.449H36.924V19.5289ZM39.2475 22.8827C39.2623 23.7077 39.8249 24.0471 40.4917 24.0471C40.9644 24.0471 41.2568 23.9708 41.4969 23.874L41.6168 24.3106C41.3843 24.4074 40.9797 24.5252 40.4019 24.5252C39.2852 24.5252 38.618 23.8392 38.618 22.8275C38.618 21.8157 39.2623 21.0256 40.3197 21.0256C41.5118 21.0256 41.8193 21.9821 41.8193 22.5988C41.8193 22.7234 41.8117 22.8134 41.7965 22.8827H39.2475ZM41.1818 22.4461C41.1894 22.0652 41.0094 21.4622 40.2672 21.4622C39.5923 21.4622 39.3072 22.0236 39.2547 22.4461H41.1818ZM45.409 24.3312C45.2366 24.4075 44.8541 24.5253 44.3669 24.5253C43.2723 24.5253 42.5601 23.8394 42.5601 22.8136C42.5601 21.7811 43.3244 21.0258 44.5093 21.0258C44.899 21.0258 45.2439 21.1155 45.4239 21.2059L45.2743 21.6702C45.1164 21.5939 44.869 21.5105 44.5093 21.5105C43.6769 21.5105 43.2274 22.0857 43.2274 22.7791C43.2274 23.5551 43.7671 24.0332 44.4868 24.0332C44.8617 24.0332 45.1091 23.9502 45.2964 23.8738L45.409 24.3312ZM47.2597 20.2911V21.0949H48.204V21.5589H47.2597V23.3678C47.2597 23.784 47.3872 24.0193 47.7545 24.0193C47.9342 24.0193 48.0396 24.0056 48.137 23.9775L48.1671 24.4422C48.0396 24.4837 47.8371 24.5252 47.5821 24.5252C47.2746 24.5252 47.0272 24.4281 46.87 24.2691C46.6899 24.0816 46.6149 23.784 46.6149 23.3889V21.5589H46.0524V21.0949H46.6149V20.4712L47.2597 20.2911ZM49.1256 22.1414C49.1256 21.7464 49.1176 21.4069 49.0956 21.0949H49.673L49.703 21.7601H49.7251C49.8903 21.3098 50.2949 21.0256 50.7372 21.0256C50.8049 21.0256 50.8574 21.0326 50.9176 21.0393V21.6148C50.8498 21.6007 50.7828 21.6007 50.6923 21.6007C50.2279 21.6007 49.8975 21.9195 49.8077 22.3771C49.7929 22.4601 49.7852 22.5639 49.7852 22.6614V24.4492H49.1256V22.1414ZM54.9728 22.7442C54.9728 23.9846 54.0353 24.5253 53.1656 24.5253C52.1908 24.5253 51.4266 23.8597 51.4266 22.7998C51.4266 21.6839 52.2285 21.0257 53.2257 21.0257C54.2679 21.0257 54.9728 21.7254 54.9728 22.7442ZM52.101 22.779C52.101 23.5136 52.5509 24.068 53.1957 24.068C53.8256 24.068 54.2976 23.5203 54.2976 22.765C54.2976 22.1968 53.9904 21.4827 53.2105 21.4827C52.4386 21.4827 52.101 22.1483 52.101 22.779ZM55.9838 22.0026C55.9838 21.6494 55.9758 21.3722 55.9537 21.095H56.5383L56.576 21.6494H56.5908C56.7709 21.3374 57.1907 21.0257 57.7905 21.0257C58.2926 21.0257 59.0724 21.3029 59.0724 22.4529V24.4489H58.4128V22.5155C58.4128 21.9752 58.1955 21.5245 57.5732 21.5245C57.1458 21.5245 56.8082 21.8088 56.6887 22.1483C56.6582 22.2246 56.6434 22.3284 56.6434 22.4325V24.4489H55.9838V22.0026Z" fill="#0066CB"/>
</svg>
