<svg width="62" height="18" viewBox="0 0 62 18" fill="none" xmlns="http://www.w3.org/2000/svg">
<path d="M26.8662 17.3739H21.8438L24.9851 0.000244141H30.0073L26.8662 17.3739Z" fill="#0066CB"/>
<path d="M45.0659 0.739666C44.0753 0.388135 42.504 0 40.5612 0C35.6014 0 32.1087 2.36565 32.0873 5.74783C32.0461 8.24319 34.5879 9.62917 36.489 10.4612C38.4321 11.3114 39.0927 11.8663 39.0927 12.6242C39.0729 13.7881 37.5225 14.3246 36.0765 14.3246C34.0713 14.3246 32.9969 14.048 31.3642 13.4005L30.7028 13.1229L30 17.0229C31.178 17.5029 33.3482 17.9289 35.6014 17.9475C40.8713 17.9475 44.3021 15.6185 44.3428 12.0142C44.3628 10.0365 43.0206 8.52102 40.127 7.28268C38.3703 6.48774 37.2946 5.95172 37.2946 5.13836C37.3152 4.39894 38.2045 3.64158 40.1874 3.64158C41.8202 3.60449 43.0198 3.95553 43.9286 4.30682L44.3829 4.4913L45.0659 0.739666Z" fill="#0066CB"/>
<path d="M51.7471 11.219C52.1607 10.2209 53.7523 6.35803 53.7523 6.35803C53.7314 6.39512 54.1651 5.34151 54.4131 4.6947L54.7641 6.19172C54.7641 6.19172 55.7152 10.3504 55.9217 11.219C55.1368 11.219 52.7391 11.219 51.7471 11.219ZM57.9466 0.000244141H54.0618C52.8638 0.000244141 51.9536 0.314191 51.4367 1.44174L43.9766 17.3737H49.2464C49.2464 17.3737 50.1141 15.2294 50.3005 14.7675C50.8787 14.7675 56.0052 14.7675 56.7489 14.7675C56.8931 15.3775 57.3482 17.3737 57.3482 17.3737H61.9985L57.9466 0.000244141Z" fill="#0066CB"/>
<path d="M17.65 0.000244141L12.7313 11.8474L12.1939 9.44468C11.2845 6.67223 8.43259 3.66001 5.25 2.16225L9.75528 17.3555H15.0664L22.9608 0.000244141H17.65Z" fill="#0066CB"/>
<path d="M8.16328 0.000244141H0.0826678L0 0.351284C6.30338 1.79303 10.478 5.26831 12.1931 9.44542L10.4365 1.46066C10.1473 0.351039 9.25856 0.0368467 8.16328 0.000244141Z" fill="#FCA311"/>
</svg>
