<svg width="60" height="18" viewBox="0 0 60 18" fill="none" xmlns="http://www.w3.org/2000/svg">
<path fill-rule="evenodd" clip-rule="evenodd" d="M16.1681 3.42465e-07V0.0078606C16.1607 0.0078606 13.8245 2.99845e-07 13.2015 2.36594C12.6304 4.53537 11.021 10.5249 10.9765 10.69H10.5315C10.5315 10.69 8.88504 4.56681 8.30655 2.35808C7.68356 -0.00785999 5.33993 3.42465e-07 5.33993 3.42465e-07H0V18H5.33993V7.31004H5.56242H5.78492L8.89988 18H12.6082L15.7231 7.3179H16.1681V18H21.508V3.42465e-07H16.1681Z" fill="#4DB45E"/>
<path fill-rule="evenodd" clip-rule="evenodd" d="M35.6731 0C35.6731 0 34.1082 0.149345 33.374 1.88646L29.5916 10.69H29.1466V0H23.8066V18H28.8499C28.8499 18 30.489 17.8428 31.2232 16.1135L34.9315 7.31004H35.3765V18H40.7164V0H35.6731Z" fill="#4DB45E"/>
<path fill-rule="evenodd" clip-rule="evenodd" d="M43.0898 8.1748V18.0001H48.4298V12.2621H54.2147C56.7363 12.2621 58.8723 10.5565 59.6658 8.1748H43.0898Z" fill="#4DB45E"/>
<path fill-rule="evenodd" clip-rule="evenodd" d="M54.2157 0H42.3418C42.9351 3.42707 45.3603 6.17816 48.4975 7.07423C49.2095 7.2786 49.9586 7.38864 50.7299 7.38864H59.882C59.9636 6.97991 60.0006 6.56332 60.0006 6.131C60.0006 2.74323 57.4123 0 54.2157 0Z" fill="url(#paint0_linear)"/>
<defs>
<linearGradient id="paint0_linear" x1="42.3432" y1="3.69432" x2="60.0006" y2="3.69432" gradientUnits="userSpaceOnUse">
<stop offset="0.3" stop-color="#00B4E6"/>
<stop offset="1" stop-color="#088CCB"/>
</linearGradient>
</defs>
</svg>
