<svg width="13" height="12" viewBox="0 0 13 12" fill="none" xmlns="http://www.w3.org/2000/svg">
<path d="M0.914062 8.65342V10.8847C0.914062 10.9909 0.967187 11.1503 1.07344 11.2034C1.17969 11.3097 1.28594 11.3628 1.44531 11.3628H3.72969C3.83594 11.3628 3.99531 11.3097 4.04844 11.2034L11.8578 3.60654C12.0703 3.44717 12.0703 3.12842 11.9109 2.96904L9.62656 0.790918C9.41406 0.631543 9.14844 0.631543 8.93594 0.790918L7.34219 2.33154L1.02031 8.33467C0.967188 8.44092 0.914062 8.54717 0.914062 8.65342ZM9.25469 1.74717L10.8484 3.28779L9.94531 4.13779L8.35156 2.59717L9.25469 1.74717ZM1.87031 8.86592L7.71406 3.23467L9.30781 4.77529L3.46406 10.4065H1.87031V8.86592Z" fill="#41434B"/>
</svg>
