<svg width="16" height="16" viewBox="0 0 16 16" fill="none" xmlns="http://www.w3.org/2000/svg">
<path fill-rule="evenodd" clip-rule="evenodd" d="M15.2608 13.6648L12.2401 10.71H12.2304C13.1193 9.55382 13.6003 8.14361 13.6003 6.69375C13.6003 3.00262 10.5495 0 6.79919 0C3.0508 0 0 3.00262 0 6.69375C0 10.3849 3.0508 13.3875 6.80017 13.3875C8.33528 13.3875 9.74409 12.8807 10.8808 12.0392V12.0487L13.8821 15.0227C14.0764 15.2139 14.3193 15.3 14.5719 15.3C14.8245 15.3 15.0674 15.2044 15.2618 15.0227C15.6407 14.6497 15.6407 14.0377 15.2618 13.6648H15.2608ZM6.80114 11.475C4.11955 11.475 1.94318 9.333 1.94318 6.69375C1.94318 4.0545 4.11955 1.9125 6.80114 1.9125C9.48273 1.9125 11.6591 4.0545 11.6591 6.69375C11.6591 9.333 9.48273 11.475 6.80114 11.475Z" fill="#C5C5C5"/>
</svg>
