<svg width="17" height="17" viewBox="0 0 17 17" fill="none" xmlns="http://www.w3.org/2000/svg">
<path d="M3.63093 16.3752C3.76671 16.3752 3.90274 16.3315 4.0187 16.2436L8.28379 12.9983L12.5488 16.2432C12.7799 16.4193 13.0928 16.4193 13.324 16.2432C13.5551 16.0672 13.6518 15.756 13.5635 15.4712L11.9345 10.2206L16.1994 6.97614C16.4305 6.80027 16.5271 6.48891 16.4389 6.20411C16.3508 5.91987 16.0979 5.72723 15.8119 5.72723H10.5398L8.91083 0.476878C8.82271 0.192417 8.56976 0 8.28379 0C7.99869 0 7.74477 0.192417 7.65676 0.476878L6.02742 5.72723H0.755473C0.469511 5.72723 0.21641 5.91987 0.12822 6.20411C0.039959 6.48868 0.13657 6.80031 0.367704 6.97614L4.6328 10.2209L3.00389 15.4714C2.91563 15.756 3.01224 16.0674 3.24338 16.2436C3.35873 16.3315 3.49537 16.3752 3.63093 16.3752Z" fill="#C4C4C4"/>
</svg>
