<svg width="17" height="17" viewBox="0 0 17 17" fill="none" xmlns="http://www.w3.org/2000/svg">
<path d="M3.53523 16.3752C3.67101 16.3752 3.80703 16.3315 3.923 16.2436L8.18809 12.9983L12.4531 16.2432C12.6842 16.4193 12.9971 16.4193 13.2283 16.2432C13.4594 16.0672 13.5561 15.756 13.4678 15.4712L11.8388 10.2206L16.1037 6.97614C16.3348 6.80027 16.4314 6.48891 16.3432 6.20411C16.2551 5.91987 16.0022 5.72723 15.7162 5.72723H10.4441L8.81513 0.476878C8.72701 0.192417 8.47405 0 8.18809 0C7.90299 0 7.64907 0.192417 7.56105 0.476878L5.93172 5.72723H0.659771C0.37381 5.72723 0.120707 5.91987 0.0325184 6.20411C-0.0557423 6.48868 0.0408688 6.80031 0.272003 6.97614L4.5371 10.2209L2.90819 15.4714C2.81993 15.756 2.91654 16.0674 3.14767 16.2436C3.26303 16.3315 3.39966 16.3752 3.53523 16.3752Z" fill="#FC5603"/>
</svg>
