<svg width="14" height="14" viewBox="0 0 14 14" fill="none" xmlns="http://www.w3.org/2000/svg">
<path d="M7 0C3.12667 0 0 3.12667 0 7C0 10.8733 3.12667 14 7 14C10.8733 14 14 10.8733 14 7C14 3.12667 10.8733 0 7 0ZM10.9667 4.01333L6.72 10.8733C6.58 11.1067 6.3 11.2933 6.02 11.2933C5.78667 11.2933 5.55333 11.1533 5.36667 10.9667L2.75333 7.7C2.56667 7.42 2.56667 7.04667 2.8 6.81333C3.08 6.53333 3.5 6.53333 3.73333 6.76667L5.97333 8.77333L9.94 3.31333C10.1267 3.03333 10.5467 2.98667 10.8267 3.17333C11.1067 3.31333 11.1533 3.73333 10.9667 4.01333Z" fill="#4CA90C"/>
</svg>
