<svg width="33" height="33" viewBox="0 0 33 33" fill="none" xmlns="http://www.w3.org/2000/svg">
<path fill-rule="evenodd" clip-rule="evenodd" d="M16.0433 0C24.8624 0 32.0866 7.22417 32.0866 16.0433C32.0866 24.8625 24.8624 32.0866 16.0433 32.0866C7.22418 32.0866 0 24.8625 0 16.0433C0 7.22417 7.22418 0 16.0433 0ZM26.0821 11.0708C25.8006 10.8831 24.8624 10.8832 23.9242 10.8832C22.986 10.8832 21.954 10.8832 21.7664 10.977C21.5787 11.0708 21.1096 12.1966 20.4529 13.3225C19.7961 14.636 18.8579 15.9495 18.3888 15.8557C17.6383 15.8557 17.8259 13.6978 17.9197 12.1029C17.9197 11.0709 17.7321 10.6955 17.6383 10.6017C17.263 10.3202 16.231 10.1326 16.231 10.1326C16.231 10.1326 13.1349 9.94499 12.7596 11.2585C13.3225 11.3523 14.3545 11.1646 13.9793 15.1989C13.9793 15.3865 13.5102 17.0753 12.1028 14.8236C11.7276 14.2607 10.4141 10.8832 9.94498 10.7894C8.35003 10.7894 6.8489 10.6955 6.28598 10.977C5.81687 11.2584 6.94272 13.604 9.00677 16.7939C10.6017 19.3271 12.3843 21.391 15.3866 21.8602C15.9495 21.954 17.4506 21.954 17.9197 21.7664C18.2012 21.5787 17.8259 19.4209 18.9518 19.1394C19.4209 19.0456 21.2973 21.4849 21.954 21.7664C22.3293 21.954 23.2675 22.0479 24.2057 21.9541C25.2377 21.9541 26.3636 22.0478 26.4574 21.391C26.7389 19.8899 23.3613 17.8259 23.2675 16.8877C23.1737 16.231 24.4872 14.9175 25.1439 13.9793C25.7068 12.8535 26.5512 11.4461 26.0821 11.0708Z" fill="#4F7DB3"/>
</svg>
