<svg width="16" height="16" viewBox="0 0 16 16" fill="none" xmlns="http://www.w3.org/2000/svg">
<path d="M8 0.342712C7.01509 0.342712 6.03982 0.536706 5.12987 0.913616C4.21993 1.29053 3.39314 1.84297 2.6967 2.53941C1.29018 3.94593 0.5 5.85359 0.5 7.84271C0.5 9.83184 1.29018 11.7395 2.6967 13.146C3.39314 13.8425 4.21993 14.3949 5.12987 14.7718C6.03982 15.1487 7.01509 15.3427 8 15.3427C9.98912 15.3427 11.8968 14.5525 13.3033 13.146C14.7098 11.7395 15.5 9.83184 15.5 7.84271C15.5 6.8578 15.306 5.88253 14.9291 4.97259C14.5522 4.06264 13.9997 3.23585 13.3033 2.53941C12.6069 1.84297 11.7801 1.29053 10.8701 0.913616C9.96018 0.536706 8.98491 0.342712 8 0.342712ZM4.3025 12.5527C4.625 11.8777 6.59 11.2177 8 11.2177C9.41 11.2177 11.375 11.8777 11.6975 12.5527C10.6775 13.3627 9.395 13.8427 8 13.8427C6.605 13.8427 5.3225 13.3627 4.3025 12.5527ZM12.77 11.4652C11.6975 10.1602 9.095 9.71771 8 9.71771C6.905 9.71771 4.3025 10.1602 3.23 11.4652C2.465 10.4677 2 9.20771 2 7.84271C2 4.53521 4.6925 1.84271 8 1.84271C11.3075 1.84271 14 4.53521 14 7.84271C14 9.20771 13.535 10.4677 12.77 11.4652ZM8 3.34271C6.545 3.34271 5.375 4.51271 5.375 5.96771C5.375 7.42271 6.545 8.59271 8 8.59271C9.455 8.59271 10.625 7.42271 10.625 5.96771C10.625 4.51271 9.455 3.34271 8 3.34271ZM8 7.09271C7.70163 7.09271 7.41548 6.97419 7.2045 6.76321C6.99353 6.55223 6.875 6.26608 6.875 5.96771C6.875 5.66934 6.99353 5.3832 7.2045 5.17222C7.41548 4.96124 7.70163 4.84271 8 4.84271C8.29837 4.84271 8.58452 4.96124 8.7955 5.17222C9.00647 5.3832 9.125 5.66934 9.125 5.96771C9.125 6.26608 9.00647 6.55223 8.7955 6.76321C8.58452 6.97419 8.29837 7.09271 8 7.09271Z" fill="white"/>
</svg>
