<svg width="20" height="21" viewBox="0 0 20 21" fill="none" xmlns="http://www.w3.org/2000/svg">
<path d="M11.2501 3.34271L11.8448 2.76122C11.6883 2.60118 11.4739 2.51096 11.2501 2.51096V3.34271ZM15.8334 8.03021H16.6652C16.6652 7.81285 16.5801 7.60413 16.4281 7.44872L15.8334 8.03021ZM15.0017 10.6865C15.0017 11.1458 15.3741 11.5182 15.8334 11.5182C16.2928 11.5182 16.6652 11.1458 16.6652 10.6865H15.0017ZM10.0001 19.1745C10.4594 19.1745 10.8318 18.8021 10.8318 18.3427C10.8318 17.8833 10.4594 17.511 10.0001 17.511V19.1745ZM4.9985 15.8475V5.83797H3.335V15.8475H4.9985ZM6.662 4.17446H10.0001V2.51096H6.662V4.17446ZM10.0001 4.17446H11.2501V2.51096H10.0001V4.17446ZM16.4281 7.44872L11.8448 2.76122L10.6554 3.9242L15.2387 8.6117L16.4281 7.44872ZM12.0818 8.86196H15.8334V7.19846H12.0818V8.86196ZM12.0818 7.19846V3.34271H10.4183V7.19846H12.0818ZM15.0017 8.03021V10.6865H16.6652V8.03021H15.0017ZM10.0001 17.511H6.662V19.1745H10.0001V17.511ZM3.335 15.8475C3.335 17.6849 4.82455 19.1745 6.662 19.1745V17.511C5.74327 17.511 4.9985 16.7662 4.9985 15.8475H3.335ZM12.0818 7.19846H10.4183C10.4183 8.11719 11.1631 8.86196 12.0818 8.86196V7.19846ZM4.9985 5.83797C4.9985 4.91924 5.74327 4.17446 6.662 4.17446V2.51096C4.82455 2.51096 3.335 4.00051 3.335 5.83797H4.9985Z" fill="white"/>
<path d="M14.5833 13.3427V18.3427M14.5833 18.3427L12.5 16.2594M14.5833 18.3427L16.6667 16.2594" stroke="white" stroke-width="1.6635" stroke-linecap="round" stroke-linejoin="round"/>
</svg>
