<svg width="20" height="13" viewBox="0 0 20 13" fill="none" xmlns="http://www.w3.org/2000/svg">
<path fill-rule="evenodd" clip-rule="evenodd" d="M12.8853 9.69138C12.9372 9.68893 12.9949 9.68668 13.059 9.68474C13.435 9.67334 13.9433 9.67324 14.6527 9.67324C15.3621 9.67324 15.8705 9.6734 16.2464 9.68479C16.3105 9.68673 16.3683 9.68898 16.4202 9.69143C16.2884 10.5491 15.5473 11.2059 14.6527 11.2059C13.7582 11.2059 13.017 10.549 12.8853 9.69138ZM16.4378 9.23486C16.4377 9.23491 16.4379 9.23644 16.4383 9.2392C16.438 9.23624 16.4378 9.23481 16.4378 9.23486ZM16.8428 9.73307C16.8427 9.73302 16.8425 9.73297 16.8423 9.73292L16.8428 9.73307ZM12.4631 9.73287C12.4629 9.73292 12.4628 9.73297 12.4626 9.73302L12.4631 9.73287ZM12.8672 9.23915C12.8676 9.23634 12.8677 9.23486 12.8677 9.23481C12.8677 9.23475 12.8675 9.23614 12.8672 9.23915ZM14.6527 12.2278C13.1007 12.2278 11.8426 10.9696 11.8426 9.41762C11.8426 9.19071 11.8426 9.03104 11.9155 8.91864C12.0889 8.65132 12.6745 8.65137 14.6527 8.65137C17.4629 8.65137 17.4629 8.65142 17.4629 9.41762C17.4629 10.9696 16.2048 12.2278 14.6527 12.2278Z" fill="url(#paint0_linear_143_148036)"/>
<path fill-rule="evenodd" clip-rule="evenodd" d="M7.50101 7.63027H10.3082V8.65215H7.6314L7.50101 7.63027ZM11.3301 6.6084V9.67402H6.73164L6.34047 6.6084H11.3301Z" fill="url(#paint1_linear_143_148036)"/>
<path fill-rule="evenodd" clip-rule="evenodd" d="M6.65505 2.52051H4.17843V7.11894H5.20031V3.54238H5.78937L6.74007 9.24669L7.74805 9.0787L6.65505 2.52051Z" fill="url(#paint2_linear_143_148036)"/>
<path fill-rule="evenodd" clip-rule="evenodd" d="M5.16819 9.75477C4.98257 10.7248 4.04576 11.3608 3.0757 11.1751C2.10563 10.9896 1.46972 10.0527 1.65534 9.08264L0.651658 8.89062C0.360015 10.415 1.35931 11.8871 2.88364 12.1788C4.40802 12.4705 5.88018 11.4712 6.17188 9.94684L5.16819 9.75477Z" fill="url(#paint3_linear_143_148036)"/>
<path fill-rule="evenodd" clip-rule="evenodd" d="M1.29239 8.52531C1.45921 8.12939 1.73507 7.78471 2.09257 7.5344C2.59211 7.18461 3.21009 7.04763 3.81065 7.1535C4.41115 7.25936 4.94503 7.5995 5.29477 8.09899C5.54513 8.45654 5.6865 8.87479 5.70776 9.30388L1.29239 8.52531ZM1.23512 8.5152C1.23481 8.51509 1.23512 8.5152 1.23512 8.5152V8.5152ZM1.05838 9.52169L5.58692 10.3202C6.11186 10.4128 6.73725 10.0598 6.73239 9.39355C6.72749 8.72499 6.52071 8.06828 6.13184 7.51289C5.62662 6.7914 4.85552 6.30008 3.9881 6.14716C3.12063 5.99418 2.22797 6.19212 1.50648 6.69733C0.951087 7.08616 0.532169 7.6326 0.298926 8.25917C0.0665011 8.88353 0.533445 9.42916 1.05838 9.52169Z" fill="url(#paint4_linear_143_148036)"/>
<path fill-rule="evenodd" clip-rule="evenodd" d="M11.3316 3.54238H15.9301C16.2123 3.54238 16.441 3.77113 16.441 4.05332V4.56426H10.8207V4.05332C10.8207 3.77113 11.0495 3.54238 11.3316 3.54238ZM15.9301 2.52051C16.7767 2.52051 17.4629 3.20675 17.4629 4.05332V5.07519C17.4629 5.35739 17.2341 5.58613 16.952 5.58613H10.3098C10.0276 5.58613 9.79883 5.35739 9.79883 5.07519V4.05332C9.79883 3.20675 10.4851 2.52051 11.3316 2.52051H15.9301Z" fill="url(#paint5_linear_143_148036)"/>
<path fill-rule="evenodd" clip-rule="evenodd" d="M11.3309 5.58535H14.6235C16.4832 5.58535 18.0357 6.9002 18.4021 8.65098H11.3309V5.58535ZM14.6235 4.56348C17.32 4.56348 19.5059 6.74937 19.5059 9.44579C19.5059 9.57117 19.4042 9.67285 19.2788 9.67285H11.3309C10.7665 9.67285 10.309 9.21536 10.309 8.65098V4.97223C10.309 4.74649 10.492 4.56348 10.7177 4.56348H14.6235Z" fill="url(#paint6_linear_143_148036)"/>
<path fill-rule="evenodd" clip-rule="evenodd" d="M4.18047 0.987695H5.45781C5.88107 0.987695 6.22422 1.33084 6.22422 1.7541C6.22422 2.17736 5.88107 2.52051 5.45781 2.52051H4.18047V0.987695ZM5.45781 -0.0341797C6.44545 -0.0341797 7.24609 0.766459 7.24609 1.7541C7.24609 2.74174 6.44545 3.54238 5.45781 3.54238H3.47303C3.29936 3.54238 3.1586 3.40162 3.1586 3.22795V0.280251C3.1586 0.106584 3.29936 -0.0341797 3.47303 -0.0341797H5.45781Z" fill="url(#paint7_linear_143_148036)"/>
<path d="M9.19923 0.980193C9.15039 0.702295 8.88552 0.516569 8.60757 0.565415L7.0979 0.830744C6.81995 0.87959 6.63428 1.14446 6.68312 1.42241C6.73197 1.70031 6.99684 1.88603 7.27479 1.83719L8.78446 1.57186C9.06235 1.52301 9.24808 1.25814 9.19923 0.980193Z" fill="url(#paint8_linear_143_148036)"/>
<defs>
<linearGradient id="paint0_linear_143_148036" x1="17.4629" y1="10.4396" x2="11.8426" y2="10.4396" gradientUnits="userSpaceOnUse">
<stop stop-color="#1DA1F2"/>
<stop offset="1" stop-color="#009FFC"/>
</linearGradient>
<linearGradient id="paint1_linear_143_148036" x1="11.3301" y1="8.14121" x2="6.34047" y2="8.14121" gradientUnits="userSpaceOnUse">
<stop stop-color="#1DA1F2"/>
<stop offset="1" stop-color="#009FFC"/>
</linearGradient>
<linearGradient id="paint2_linear_143_148036" x1="7.74805" y1="5.8836" x2="4.17843" y2="5.8836" gradientUnits="userSpaceOnUse">
<stop stop-color="#1DA1F2"/>
<stop offset="1" stop-color="#009FFC"/>
</linearGradient>
<linearGradient id="paint3_linear_143_148036" x1="6.17188" y1="10.56" x2="0.601079" y2="10.56" gradientUnits="userSpaceOnUse">
<stop stop-color="#1DA1F2"/>
<stop offset="1" stop-color="#009FFC"/>
</linearGradient>
<linearGradient id="paint4_linear_143_148036" x1="6.73242" y1="8.21574" x2="0.237653" y2="8.21574" gradientUnits="userSpaceOnUse">
<stop stop-color="#1DA1F2"/>
<stop offset="1" stop-color="#009FFC"/>
</linearGradient>
<linearGradient id="paint5_linear_143_148036" x1="17.4629" y1="4.05332" x2="9.79883" y2="4.05332" gradientUnits="userSpaceOnUse">
<stop stop-color="#1DA1F2"/>
<stop offset="1" stop-color="#009FFC"/>
</linearGradient>
<linearGradient id="paint6_linear_143_148036" x1="19.5059" y1="7.11816" x2="10.309" y2="7.11816" gradientUnits="userSpaceOnUse">
<stop stop-color="#1DA1F2"/>
<stop offset="1" stop-color="#009FFC"/>
</linearGradient>
<linearGradient id="paint7_linear_143_148036" x1="7.24609" y1="1.7541" x2="3.1586" y2="1.7541" gradientUnits="userSpaceOnUse">
<stop stop-color="#1DA1F2"/>
<stop offset="1" stop-color="#009FFC"/>
</linearGradient>
<linearGradient id="paint8_linear_143_148036" x1="9.20703" y1="1.2013" x2="6.67532" y2="1.2013" gradientUnits="userSpaceOnUse">
<stop stop-color="#1DA1F2"/>
<stop offset="1" stop-color="#009FFC"/>
</linearGradient>
</defs>
</svg>
