<svg width="20" height="16" viewBox="0 0 20 16" fill="none" xmlns="http://www.w3.org/2000/svg">
<path fill-rule="evenodd" clip-rule="evenodd" d="M7.83203 1.35066L10.1562 2.31148L12.4805 1.35066C13.9725 0.733863 15.6369 0.733863 17.1289 1.35066L18.8687 2.06989C19.2217 2.21581 19.4531 2.56911 19.4531 2.962V14.3439C19.4531 14.8745 19.0369 15.3047 18.5234 15.3047C18.4052 15.3047 18.288 15.2814 18.1782 15.236L17.1289 14.8022C15.6369 14.1854 13.9725 14.1854 12.4805 14.8022L10.1562 15.7631L7.83203 14.8022C6.34002 14.1854 4.67561 14.1854 3.18359 14.8022L2.13434 15.236C1.65761 15.4331 1.11656 15.1934 0.925869 14.7007C0.881943 14.5872 0.859375 14.4661 0.859375 14.3439V2.962C0.859375 2.56911 1.09082 2.21581 1.44379 2.06989L3.18359 1.35066C4.67561 0.733863 6.34002 0.733863 7.83203 1.35066ZM3.89395 3.06899L2.71875 3.55482V12.9871C4.60176 12.2805 6.67692 12.3127 8.54239 13.0839L9.22656 13.3663V3.9393L7.12168 3.06899C6.08456 2.64025 4.93106 2.64025 3.89395 3.06899ZM13.1908 3.06899L11.0859 3.93837V13.3663L11.7701 13.0839C13.6356 12.3127 15.7107 12.2805 17.5938 12.9871V3.55482L16.4186 3.06899C15.3814 2.64025 14.2279 2.64025 13.1908 3.06899Z" fill="url(#paint0_linear_143_148110)"/>
<defs>
<linearGradient id="paint0_linear_143_148110" x1="0.859375" y1="8.32556" x2="19.4531" y2="8.32556" gradientUnits="userSpaceOnUse">
<stop stop-color="#1DA1F2"/>
<stop offset="1" stop-color="#009FFC"/>
</linearGradient>
</defs>
</svg>
