<svg width="18" height="16" viewBox="0 0 18 16" fill="none" xmlns="http://www.w3.org/2000/svg">
<path d="M15.8938 1.89106C15.4687 1.46601 14.9641 1.12889 14.4087 0.898961C13.8533 0.669031 13.258 0.5508 12.6569 0.551026C12.0558 0.551251 11.4606 0.669929 10.9054 0.900277C10.3501 1.13062 9.84576 1.46813 9.42103 1.89349L8.8666 2.45467L8.31679 1.89471L8.31322 1.89113C7.88837 1.46628 7.38401 1.12928 6.82891 0.899349C6.27382 0.669422 5.67888 0.55108 5.07805 0.55108C4.47723 0.55108 3.88228 0.669422 3.32719 0.899349C2.7721 1.12928 2.26773 1.46628 1.84289 1.89113L1.5959 2.13812C0.737886 2.99614 0.255859 4.15985 0.255859 5.37327C0.255859 6.58668 0.737886 7.7504 1.5959 8.60841L8.11459 15.127L8.85073 15.8983L8.86829 15.8807L8.88734 15.8998L9.57705 15.1721L16.1407 8.6083C16.9975 7.74961 17.4786 6.58615 17.4786 5.37316C17.4786 4.16017 16.9975 2.99671 16.1407 2.13802L15.8938 1.89106ZM15.3318 7.79953L8.86829 14.2632L2.40464 7.79953C1.76113 7.15602 1.39961 6.28324 1.39961 5.37318C1.39961 4.46312 1.76113 3.59033 2.40464 2.94682L2.65166 2.69984C3.29486 2.05665 4.16712 1.69515 5.07673 1.69481C5.98634 1.69447 6.85887 2.05531 7.50255 2.69801L8.86414 4.0844L10.2322 2.69984C10.5508 2.3812 10.9291 2.12844 11.3454 1.956C11.7617 1.78355 12.2079 1.69479 12.6586 1.69479C13.1092 1.69479 13.5554 1.78355 13.9717 1.956C14.388 2.12844 14.7663 2.3812 15.0849 2.69984L15.3319 2.94679C15.9745 3.59083 16.3353 4.46344 16.3353 5.37319C16.3353 6.28294 15.9744 7.15553 15.3318 7.79953Z" fill="url(#paint0_linear_143_148053)"/>
<defs>
<linearGradient id="paint0_linear_143_148053" x1="0.255859" y1="8.2254" x2="17.4786" y2="8.2254" gradientUnits="userSpaceOnUse">
<stop stop-color="#1DA1F2"/>
<stop offset="1" stop-color="#009FFC"/>
</linearGradient>
</defs>
</svg>
