<svg width="19" height="11" viewBox="0 0 19 11" fill="none" xmlns="http://www.w3.org/2000/svg">
<path d="M9.74652 10.9784C5.70314 10.9784 0.740234 7.45947 0.740234 5.57467C0.740234 3.68987 5.70314 0.170898 9.74652 0.170898C13.7899 0.170898 18.7528 3.68987 18.7528 5.57467C18.7528 7.45947 13.7899 10.9784 9.74652 10.9784ZM2.47468 5.99106C2.90697 6.46988 3.50095 6.99419 4.17448 7.47176C5.89143 8.68917 7.83274 9.42705 9.74652 9.42705C11.6603 9.42705 13.6016 8.68917 15.3186 7.47176C15.9921 6.99419 16.5861 6.46988 17.0184 5.99106C17.1579 5.83655 17.2732 5.69441 17.3585 5.57467C17.2732 5.45493 17.1579 5.31278 17.0184 5.15827C16.5861 4.67946 15.9921 4.15515 15.3186 3.67758C13.6016 2.46017 11.6603 1.72229 9.74652 1.72229C7.83274 1.72229 5.89143 2.46017 4.17448 3.67758C3.50095 4.15515 2.90697 4.67946 2.47468 5.15827C2.33518 5.31278 2.21984 5.45493 2.13458 5.57467C2.21984 5.69441 2.33518 5.83655 2.47468 5.99106ZM9.74652 8.72687C8.00561 8.72687 6.59432 7.31558 6.59432 5.57467C6.59432 3.83376 8.00561 2.42247 9.74652 2.42247C11.4874 2.42247 12.8987 3.83376 12.8987 5.57467C12.8987 7.31558 11.4874 8.72687 9.74652 8.72687ZM9.74652 7.10574C10.5921 7.10574 11.2776 6.42025 11.2776 5.57467C11.2776 4.72908 10.5921 4.0436 9.74652 4.0436C8.90093 4.0436 8.21545 4.72908 8.21545 5.57467C8.21545 6.42025 8.90093 7.10574 9.74652 7.10574Z" fill="#1C2E45" fill-opacity="0.6"/>
</svg>
