<svg width="598" height="143" viewBox="0 0 598 143" fill="none" xmlns="http://www.w3.org/2000/svg">
<path opacity="0.478992" fill-rule="evenodd" clip-rule="evenodd" d="M534.395 190.265C563.625 196.388 602.085 184.713 618.343 209.764C634.678 234.932 617.371 268.918 602.268 294.844C590.142 315.658 565.169 321.062 545.447 334.894C518.984 353.454 501.181 391.197 468.986 388.321C434.92 385.277 403.287 355.045 396.28 321.567C389.813 290.668 424.22 268.984 438.073 240.618C448.534 219.198 445.299 188.984 466.424 177.94C487.638 166.851 510.966 185.357 534.395 190.265Z" stroke="#0E4DBE" stroke-width="0.838032"/>
<path opacity="0.487395" fill-rule="evenodd" clip-rule="evenodd" d="M536.825 189.393C565.943 196.025 604.601 185.023 620.42 210.354C636.312 235.803 618.415 269.482 602.862 295.14C590.375 315.74 565.311 320.707 545.351 334.193C518.568 352.288 500.109 389.715 467.97 386.277C433.961 382.639 402.861 351.859 396.44 318.265C390.513 287.258 425.292 266.177 439.639 238.057C450.472 216.823 447.765 186.557 469.08 175.884C490.483 165.166 513.485 184.077 536.825 189.393Z" stroke="#0E4DBE" stroke-width="0.838032"/>
<path opacity="0.495798" fill-rule="evenodd" clip-rule="evenodd" d="M539.228 188.507C568.226 195.647 607.07 185.322 622.444 210.925C637.89 236.647 619.408 270.009 603.409 295.391C590.564 315.77 565.418 320.299 545.225 333.435C518.131 351.06 499.021 388.158 466.947 384.16C433.007 379.93 402.449 348.611 396.615 314.91C391.23 283.804 426.372 263.334 441.207 235.468C452.409 214.427 450.231 184.118 471.729 173.819C493.316 163.476 515.984 182.785 539.228 188.507Z" stroke="#0E4DBE" stroke-width="0.838032"/>
<path opacity="0.504202" fill-rule="evenodd" clip-rule="evenodd" d="M541.605 187.608C570.474 195.252 609.493 185.607 624.418 211.474C639.412 237.462 620.351 270.497 603.912 295.596C590.713 315.747 565.491 319.837 545.072 332.618C517.674 349.767 497.92 386.527 465.921 381.97C432.06 377.147 402.053 345.301 396.808 311.502C391.967 280.307 427.461 260.454 442.78 232.851C454.348 212.008 452.698 181.666 474.373 171.743C496.137 161.779 518.465 181.481 541.605 187.608Z" stroke="#0E4DBE" stroke-width="0.838032"/>
<path opacity="0.512605" fill-rule="evenodd" clip-rule="evenodd" d="M543.958 186.692C572.69 194.839 611.871 185.876 626.342 212C640.881 238.246 621.245 270.942 604.371 295.751C590.822 315.669 565.533 319.317 544.894 331.74C517.201 348.409 496.808 384.818 464.893 379.703C431.122 374.29 401.675 341.925 397.021 308.04C392.725 276.765 428.56 257.534 444.358 230.203C456.288 209.566 455.169 179.199 477.013 169.656C498.948 160.073 520.929 180.162 543.958 186.692Z" stroke="#0E4DBE" stroke-width="0.838032"/>
<path opacity="0.521008" fill-rule="evenodd" clip-rule="evenodd" d="M546.285 185.762C574.87 194.41 614.201 186.132 628.215 212.504C642.293 239 622.09 271.349 604.785 295.859C590.891 315.538 565.542 318.744 544.69 330.805C516.71 346.988 495.685 383.036 463.864 377.364C430.192 371.363 401.314 338.489 397.252 304.528C393.503 273.183 429.668 254.58 445.941 227.529C458.229 207.103 457.64 176.721 479.647 167.561C501.747 158.363 523.373 178.831 546.285 185.762Z" stroke="#0E4DBE" stroke-width="0.838032"/>
<path opacity="0.529412" fill-rule="evenodd" clip-rule="evenodd" d="M548.587 184.817C577.017 193.962 616.487 186.372 630.038 212.985C643.652 239.722 622.887 271.714 605.157 295.918C590.922 315.351 565.521 318.115 544.461 329.81C516.203 345.502 494.552 381.177 462.835 374.952C429.272 368.364 400.973 334.99 397.504 300.964C394.303 269.558 430.787 251.589 447.53 224.826C460.172 204.618 460.113 174.231 482.277 165.456C504.534 156.644 525.8 177.488 548.587 184.817Z" stroke="#0E4DBE" stroke-width="0.838032"/>
<path opacity="0.537815" fill-rule="evenodd" clip-rule="evenodd" d="M550.866 183.855C579.132 193.495 618.728 186.595 631.812 213.44C644.958 240.411 623.638 272.035 605.488 295.926C590.916 315.108 565.47 317.428 544.209 328.754C515.682 343.95 493.412 379.242 461.808 372.464C428.366 365.291 400.654 331.429 397.779 297.347C395.126 265.89 431.918 248.561 449.126 222.095C462.119 202.109 462.59 171.726 484.904 163.339C507.311 154.918 528.21 176.129 550.866 183.855Z" stroke="#0E4DBE" stroke-width="0.838032"/>
<path opacity="0.546219" fill-rule="evenodd" clip-rule="evenodd" d="M553.119 182.877C581.213 193.008 620.923 186.8 633.537 213.87C646.21 241.066 624.341 272.313 605.777 295.884C590.872 314.809 565.391 316.684 543.935 327.637C515.147 342.333 492.264 377.231 460.783 369.902C427.472 362.147 400.354 327.806 398.075 293.68C395.971 262.181 433.061 245.497 450.727 219.335C464.067 199.579 465.069 169.209 487.526 161.213C510.076 153.183 530.602 174.756 553.119 182.877Z" stroke="#0E4DBE" stroke-width="0.838032"/>
<path opacity="0.554622" fill-rule="evenodd" clip-rule="evenodd" d="M555.349 181.882C583.261 192.502 623.074 186.988 635.214 214.274C647.409 241.687 624.999 272.548 606.027 295.791C590.794 314.453 565.283 315.883 543.64 326.46C514.599 340.652 491.111 375.145 459.763 367.268C426.592 358.933 400.078 324.124 398.395 289.963C396.841 258.432 434.216 242.398 452.336 216.548C466.019 197.028 467.55 166.68 490.143 159.077C512.83 151.442 532.976 173.37 555.349 181.882Z" stroke="#0E4DBE" stroke-width="0.838032"/>
<path opacity="0.563025" fill-rule="evenodd" clip-rule="evenodd" d="M557.555 180.87C585.278 191.976 625.181 187.157 636.842 214.651C648.558 242.273 625.612 272.738 606.237 295.646C590.68 314.039 565.149 315.024 543.324 325.222C514.041 338.904 489.954 372.983 458.748 364.56C425.727 355.647 399.825 320.38 398.738 286.195C397.735 254.642 435.384 239.262 453.953 213.733C467.974 194.455 470.035 164.138 492.757 156.93C515.574 149.693 535.334 171.969 557.555 180.87Z" stroke="#0E4DBE" stroke-width="0.838032"/>
<path opacity="0.571429" fill-rule="evenodd" clip-rule="evenodd" d="M559.738 179.839C587.263 191.427 627.244 187.305 638.424 214.998C649.656 242.82 626.182 272.88 606.41 295.447C590.535 313.566 564.99 314.105 542.991 323.92C513.473 337.089 488.795 370.742 457.741 361.776C424.881 352.288 399.598 316.575 399.108 282.376C398.655 250.81 436.567 236.09 455.579 210.888C469.934 191.858 472.524 161.581 495.368 154.772C518.308 147.933 537.677 170.551 559.738 179.839Z" stroke="#0E4DBE" stroke-width="0.838032"/>
<path opacity="0.579832" fill-rule="evenodd" clip-rule="evenodd" d="M561.898 178.791C589.216 190.858 629.263 187.434 639.958 215.318C650.702 243.332 626.708 272.978 606.545 295.196C590.356 313.035 564.805 313.128 542.638 322.558C512.895 335.21 487.633 368.427 456.741 358.92C424.051 348.86 399.395 312.711 399.502 278.509C399.601 246.94 437.764 232.884 457.212 208.018C471.898 189.241 475.015 159.014 497.975 152.604C521.031 146.168 540.002 169.119 561.898 178.791Z" stroke="#0E4DBE" stroke-width="0.838032"/>
<path opacity="0.588235" fill-rule="evenodd" clip-rule="evenodd" d="M564.036 177.725C591.139 190.266 631.24 187.542 641.446 215.609C651.7 243.806 627.192 273.028 606.644 294.891C590.147 312.445 564.598 312.092 542.27 321.134C512.31 333.265 486.473 366.036 455.751 355.991C423.242 345.362 399.221 308.789 399.924 274.593C400.574 243.031 438.976 229.643 458.856 205.12C473.867 186.602 477.512 156.435 500.58 150.426C523.744 144.393 542.312 167.672 564.036 177.725Z" stroke="#0E4DBE" stroke-width="0.838032"/>
<path opacity="0.596639" fill-rule="evenodd" clip-rule="evenodd" d="M566.15 176.638C593.031 189.651 633.173 187.628 642.888 215.868C652.648 244.239 627.634 273.03 606.707 294.531C589.906 311.794 564.368 310.995 541.885 319.646C511.718 331.252 485.313 363.567 454.771 352.988C422.452 341.793 399.073 304.806 400.373 270.628C401.574 239.082 440.204 226.366 460.508 202.194C475.84 183.941 480.011 153.842 503.18 148.237C526.447 142.609 544.605 166.209 566.15 176.638Z" stroke="#0E4DBE" stroke-width="0.838032"/>
<path opacity="0.605042" fill-rule="evenodd" clip-rule="evenodd" d="M568.244 175.533C594.893 189.013 635.064 187.69 644.285 216.095C653.549 244.633 628.035 272.982 606.737 294.115C589.637 311.082 564.116 309.838 541.486 318.095C511.121 329.173 484.156 361.022 453.803 349.912C421.685 338.155 398.955 300.765 400.852 266.615C402.602 235.095 441.448 223.055 462.172 199.241C477.82 181.258 482.515 151.236 505.779 146.037C529.14 140.815 546.884 164.729 568.244 175.533Z" stroke="#0E4DBE" stroke-width="0.838032"/>
<path opacity="0.613445" fill-rule="evenodd" clip-rule="evenodd" d="M570.314 174.409C596.724 188.351 636.913 187.73 645.636 216.292C654.4 244.987 628.396 272.887 606.732 293.645C589.339 310.311 563.844 308.622 541.073 316.482C510.52 327.028 483.003 358.402 452.848 346.763C420.94 334.448 398.866 296.667 401.358 262.555C403.659 231.071 442.709 219.71 463.845 196.261C479.805 178.555 485.023 148.619 508.374 143.827C531.823 139.014 549.146 163.233 570.314 174.409Z" stroke="#0E4DBE" stroke-width="0.838032"/>
<path opacity="0.621849" fill-rule="evenodd" clip-rule="evenodd" d="M572.364 173.263C598.527 187.665 638.719 187.745 646.943 216.455C655.205 245.298 628.718 272.74 606.695 293.117C589.013 309.477 563.552 307.343 540.647 314.805C509.914 324.816 481.854 355.705 451.908 343.542C420.219 330.671 398.808 292.511 401.895 258.448C404.745 227.008 443.987 216.331 465.529 193.255C481.796 175.829 487.536 145.989 510.967 141.605C534.496 137.202 551.394 161.72 572.364 173.263Z" stroke="#0E4DBE" stroke-width="0.838032"/>
<path opacity="0.630252" fill-rule="evenodd" clip-rule="evenodd" d="M574.392 172.098C600.3 186.954 640.485 187.736 648.207 216.585C655.964 245.568 629.002 272.544 606.627 292.533C588.662 308.582 563.242 306.004 540.21 313.065C509.307 322.538 480.712 352.933 450.983 340.249C419.524 326.827 398.781 288.299 402.463 254.295C405.861 222.91 445.284 212.919 467.225 190.222C483.793 173.083 490.053 143.348 513.557 139.373C537.159 135.382 553.627 160.191 574.392 172.098Z" stroke="#0E4DBE" stroke-width="0.838032"/>
<path opacity="0.638655" fill-rule="evenodd" clip-rule="evenodd" d="M576.401 170.912C602.045 186.218 642.211 187.701 649.428 216.68C656.678 245.794 629.249 272.295 606.529 291.89C588.287 307.623 562.915 304.602 539.764 311.26C508.701 320.193 479.579 350.084 450.075 336.883C418.855 322.914 398.789 284.03 403.063 250.095C407.008 218.774 446.6 209.473 468.934 187.162C485.798 170.315 492.576 140.694 516.146 137.13C539.814 133.551 555.847 158.644 576.401 170.912Z" stroke="#0E4DBE" stroke-width="0.838032"/>
<path opacity="0.647059" fill-rule="evenodd" clip-rule="evenodd" d="M578.389 169.705C603.762 185.456 643.895 187.64 650.605 216.741C657.346 245.977 629.459 271.995 606.4 291.191C587.886 306.603 562.572 303.14 539.308 309.392C508.093 317.782 478.455 347.16 449.186 333.446C418.214 318.934 398.829 279.706 403.695 245.851C408.186 214.604 447.934 205.995 470.654 184.078C487.81 167.527 495.104 138.029 518.732 134.877C542.46 131.711 558.051 157.08 578.389 169.705Z" stroke="#0E4DBE" stroke-width="0.838032"/>
<path opacity="0.655462" fill-rule="evenodd" clip-rule="evenodd" d="M580.356 168.476C605.451 184.667 645.54 187.551 651.741 216.764C657.971 246.114 629.634 271.641 606.243 290.432C587.463 305.519 562.213 301.614 538.843 307.46C507.487 315.303 477.34 344.159 448.315 329.937C417.602 314.887 398.905 275.326 404.361 241.561C409.396 210.397 449.288 202.484 472.387 180.966C489.829 164.718 497.637 135.351 521.317 132.612C545.096 129.861 560.242 155.498 580.356 168.476Z" stroke="#0E4DBE" stroke-width="0.838032"/>
<path opacity="0.663866" fill-rule="evenodd" clip-rule="evenodd" d="M582.304 167.225C607.112 183.852 647.145 187.435 652.836 216.753C658.552 246.207 629.774 271.235 606.059 289.615C587.019 304.372 561.84 300.027 538.372 305.464C506.884 312.759 476.238 341.085 447.466 326.357C417.019 310.774 399.016 270.893 405.06 237.229C410.639 206.157 450.663 198.941 474.134 177.829C491.857 161.888 500.176 132.662 523.9 130.336C547.723 128.001 562.42 153.898 582.304 167.225Z" stroke="#0E4DBE" stroke-width="0.838032"/>
<path opacity="0.672269" fill-rule="evenodd" clip-rule="evenodd" d="M584.234 165.952C608.748 183.009 648.713 187.29 653.89 216.703C659.092 246.252 629.882 270.774 605.85 288.737C586.554 303.16 561.455 298.376 537.896 303.403C506.285 310.147 475.15 337.934 446.639 322.707C416.469 306.594 399.164 266.405 405.795 232.851C411.916 201.881 452.059 195.365 475.895 174.667C493.894 159.037 502.722 129.961 526.483 128.049C550.343 126.13 564.586 152.28 584.234 165.952Z" stroke="#0E4DBE" stroke-width="0.838032"/>
<path opacity="0.680672" fill-rule="evenodd" clip-rule="evenodd" d="M586.145 164.656C610.357 182.139 650.241 187.117 654.904 216.615C659.59 246.25 629.956 270.259 605.614 287.8C586.07 301.883 561.058 296.662 537.415 301.277C505.691 307.469 474.075 334.708 445.834 318.985C415.951 302.349 399.349 261.864 406.565 228.431C413.225 197.573 453.476 191.758 477.67 171.478C495.939 156.165 505.272 127.248 529.063 125.751C552.953 124.249 566.738 150.643 586.145 164.656Z" stroke="#0E4DBE" stroke-width="0.838032"/>
<path opacity="0.689076" fill-rule="evenodd" clip-rule="evenodd" d="M588.036 163.338C611.94 181.241 651.731 186.914 655.879 216.489C660.046 246.202 629.998 269.69 605.353 286.803C585.567 300.543 560.65 294.887 536.93 299.088C505.103 304.725 473.017 331.408 445.054 315.195C415.465 298.04 399.573 257.271 407.371 223.969C414.569 193.232 454.915 188.12 479.459 168.266C497.992 153.274 507.83 124.524 531.643 123.443C555.555 122.358 568.877 148.989 588.036 163.338Z" stroke="#0E4DBE" stroke-width="0.838032"/>
<path opacity="0.697479" fill-rule="evenodd" clip-rule="evenodd" d="M589.911 161.996C613.499 180.313 653.185 186.68 656.816 216.323C660.464 246.104 630.01 269.064 605.071 285.745C585.047 299.137 560.233 293.047 536.443 296.833C504.523 301.914 471.976 328.033 444.301 311.335C415.016 293.665 399.838 252.626 408.216 219.465C415.948 188.858 456.378 184.451 481.265 165.029C500.057 150.363 510.394 121.788 534.223 121.123C558.151 120.455 571.005 147.315 589.911 161.996Z" stroke="#0E4DBE" stroke-width="0.838032"/>
<path opacity="0.705882" fill-rule="evenodd" clip-rule="evenodd" d="M591.768 160.632C615.032 179.358 654.601 186.416 657.714 216.118C660.842 245.958 629.992 268.383 604.765 284.626C584.511 297.667 559.807 291.144 535.955 294.515C503.95 299.038 470.952 324.585 443.573 307.406C414.601 289.228 400.141 247.93 409.097 214.921C417.362 184.453 457.863 180.753 483.085 161.768C502.13 147.432 512.964 119.042 536.801 118.793C560.737 118.543 573.121 145.622 591.768 160.632Z" stroke="#0E4DBE" stroke-width="0.838032"/>
<path opacity="0.714286" fill-rule="evenodd" clip-rule="evenodd" d="M593.608 159.242C616.542 178.371 655.981 186.119 658.576 215.871C661.183 245.761 629.946 267.644 604.44 283.444C583.961 296.13 559.374 289.177 535.467 292.131C503.388 296.095 469.95 321.062 442.874 303.408C414.224 284.727 400.487 243.183 410.017 210.335C418.814 180.017 459.372 177.024 484.922 158.481C504.214 144.48 515.543 116.284 539.38 116.451C563.316 116.618 575.226 143.91 593.608 159.242Z" stroke="#0E4DBE" stroke-width="0.838032"/>
<path opacity="0.722689" fill-rule="evenodd" clip-rule="evenodd" d="M595.431 157.83C618.027 177.356 657.325 185.791 659.4 215.584C661.485 245.515 629.871 266.85 604.093 282.202C583.396 294.528 558.935 287.148 534.979 289.684C502.836 293.087 468.967 317.467 442.204 299.343C413.884 280.165 400.874 238.387 410.976 205.711C420.3 175.55 460.905 173.266 486.774 155.172C506.308 141.51 518.127 113.515 541.957 114.098C565.887 114.684 577.319 142.179 595.431 157.83Z" stroke="#0E4DBE" stroke-width="0.838032"/>
<path opacity="0.731092" fill-rule="evenodd" clip-rule="evenodd" d="M597.238 156.392C619.49 176.31 658.635 185.43 660.19 215.254C661.752 245.216 629.771 265.996 603.728 280.897C582.819 292.86 558.491 285.053 534.494 287.171C502.297 290.013 468.007 313.798 441.565 295.21C413.584 275.54 401.305 233.542 411.976 201.047C421.825 171.054 462.464 169.478 488.644 151.839C508.414 138.519 520.719 110.735 544.536 111.734C568.452 112.737 579.402 140.428 597.238 156.392Z" stroke="#0E4DBE" stroke-width="0.838032"/>
<path opacity="0.739496" fill-rule="evenodd" clip-rule="evenodd" d="M599.028 154.93C620.93 175.233 659.91 185.034 660.943 214.881C661.982 244.866 629.643 265.085 603.345 279.529C582.23 291.125 558.041 282.895 534.012 284.594C501.77 286.873 467.071 310.056 440.956 291.009C413.323 270.855 401.779 228.648 413.015 196.344C423.386 166.528 464.046 165.661 490.531 148.482C510.53 135.509 523.318 107.944 547.114 109.359C571.009 110.779 581.474 138.656 599.028 154.93Z" stroke="#0E4DBE" stroke-width="0.838032"/>
<path opacity="0.747899" fill-rule="evenodd" clip-rule="evenodd" d="M600.804 153.444C622.347 174.126 661.15 184.606 661.663 214.466C662.178 244.465 629.491 264.116 602.945 278.099C581.631 289.325 557.589 280.674 533.534 281.953C501.257 283.669 466.158 306.243 440.38 286.744C413.103 266.11 402.298 223.708 414.096 191.605C424.986 161.974 465.655 161.818 492.435 145.103C512.657 132.481 525.925 105.144 549.692 106.973C573.559 108.81 583.536 136.866 600.804 153.444Z" stroke="#0E4DBE" stroke-width="0.838032"/>
<path opacity="0.756303" fill-rule="evenodd" clip-rule="evenodd" d="M602.564 151.932C623.743 172.987 662.357 184.143 662.349 214.007C662.34 244.011 629.315 263.089 602.529 276.605C581.023 287.458 557.136 278.389 533.062 279.248C500.76 280.401 465.272 302.359 439.838 282.412C412.925 261.305 402.862 218.722 415.218 186.829C426.624 157.393 467.289 157.946 494.357 141.701C514.796 129.435 528.539 102.333 552.271 104.577C576.102 106.83 585.588 135.056 602.564 151.932Z" stroke="#0E4DBE" stroke-width="0.838032"/>
<path opacity="0.764706" fill-rule="evenodd" clip-rule="evenodd" d="M604.31 150.394C625.119 171.816 663.532 183.644 663.003 213.503C662.471 243.502 629.118 262.001 602.1 275.048C580.407 285.523 556.682 276.039 532.597 276.478C500.28 277.067 464.414 298.402 439.332 278.014C412.792 256.441 403.473 213.688 416.384 182.016C428.302 152.783 468.951 154.047 496.299 138.276C516.949 126.368 531.162 99.5106 554.852 102.168C578.64 104.837 587.631 133.224 604.31 150.394Z" stroke="#0E4DBE" stroke-width="0.838032"/>
<path opacity="0.773109" fill-rule="evenodd" clip-rule="evenodd" d="M606.041 148.83C626.473 170.612 664.674 183.108 663.624 212.954C662.568 242.939 628.898 260.853 601.656 273.427C579.784 283.522 556.228 273.625 532.139 273.643C499.816 273.668 463.584 294.374 438.862 273.552C412.701 251.519 404.13 208.61 417.593 177.168C430.018 148.148 470.639 150.12 498.258 134.83C519.113 123.284 533.793 96.6781 557.432 99.7488C581.17 102.832 589.665 131.372 606.041 148.83Z" stroke="#0E4DBE" stroke-width="0.838032"/>
<path opacity="0.781513" fill-rule="evenodd" clip-rule="evenodd" d="M607.759 147.242C627.808 169.376 665.785 182.538 664.214 212.361C662.635 242.323 628.657 259.646 601.2 271.743C579.155 281.455 555.775 271.148 531.689 270.746C499.371 270.206 462.783 290.277 438.428 269.027C412.657 246.54 404.835 203.488 418.844 172.286C431.775 143.487 472.355 146.168 500.236 131.362C521.29 120.182 536.432 93.8365 560.014 97.3193C583.694 100.817 591.69 129.5 607.759 147.242Z" stroke="#0E4DBE" stroke-width="0.838032"/>
<path opacity="0.789916" fill-rule="evenodd" clip-rule="evenodd" d="M609.464 145.626C629.123 168.107 666.865 181.929 664.773 211.721C662.672 241.65 628.396 258.378 600.733 269.993C578.522 279.319 555.325 268.606 531.25 267.784C498.946 266.68 462.014 286.109 438.033 264.437C412.658 241.504 405.589 198.322 420.141 167.37C433.571 138.801 474.099 142.189 502.235 127.872C523.48 117.061 539.08 90.984 562.597 94.8778C586.213 98.7879 593.706 127.607 609.464 145.626Z" stroke="#0E4DBE" stroke-width="0.838032"/>
<path opacity="0.798319" fill-rule="evenodd" clip-rule="evenodd" d="M611.157 143.984C630.421 166.805 667.915 181.283 665.304 211.034C662.681 240.922 628.119 257.049 600.256 268.18C577.886 277.117 554.88 266 530.823 264.758C498.543 263.091 461.277 281.872 437.679 259.785C412.707 236.413 406.393 193.114 421.483 162.42C435.41 134.09 475.873 138.185 504.254 124.361C525.684 113.923 541.737 88.1218 565.183 92.4255C588.727 96.7471 595.716 125.692 611.157 143.984Z" stroke="#0E4DBE" stroke-width="0.838032"/>
<path opacity="0.806723" fill-rule="evenodd" clip-rule="evenodd" d="M612.836 142.316C631.699 165.47 668.935 180.601 665.805 210.301C662.661 240.139 627.822 255.66 599.77 266.303C577.247 274.848 554.439 263.331 530.407 261.67C498.161 259.44 460.573 277.568 437.364 255.072C412.804 231.267 407.247 187.865 422.87 157.439C437.289 129.356 477.674 134.157 506.292 120.831C527.901 110.768 544.402 85.2509 567.769 89.9631C591.234 94.695 597.717 123.758 612.836 142.316Z" stroke="#0E4DBE" stroke-width="0.838032"/>
<path opacity="0.815126" fill-rule="evenodd" clip-rule="evenodd" d="M614.505 140.621C632.961 164.101 669.927 179.879 666.279 209.52C662.615 239.299 627.511 254.21 599.277 264.361C576.608 272.512 554.004 260.599 530.005 258.518C497.803 255.726 459.905 273.195 437.091 250.298C412.951 226.068 408.152 182.576 424.303 152.427C439.211 124.6 479.506 130.105 508.352 117.28C530.134 107.595 547.077 82.3706 570.358 87.4899C593.737 92.6306 599.712 121.802 614.505 140.621Z" stroke="#0E4DBE" stroke-width="0.838032"/>
<path opacity="0.823529" fill-rule="evenodd" clip-rule="evenodd" d="M616.161 138.899C634.205 162.696 670.89 179.118 666.725 208.69C662.542 238.401 627.183 252.697 598.776 262.354C575.969 270.108 553.576 257.802 529.617 255.303C497.469 251.949 459.271 268.754 436.861 245.462C413.147 220.815 409.108 177.245 425.783 147.383C441.174 119.82 481.366 126.028 510.432 113.708C532.379 104.405 549.76 79.4801 572.949 85.0049C596.234 90.5528 601.699 119.824 616.161 138.899Z" stroke="#0E4DBE" stroke-width="0.838032"/>
<path opacity="0.831933" fill-rule="evenodd" clip-rule="evenodd" d="M617.807 137.149C635.432 161.258 671.825 178.317 667.145 207.812C662.444 237.445 626.841 251.122 598.27 260.282C575.33 267.636 553.156 254.942 529.244 252.025C497.16 248.11 458.674 264.246 436.674 240.567C413.394 215.509 410.116 171.876 427.309 142.309C443.179 115.019 483.257 121.927 512.533 110.117C534.64 101.199 552.453 76.5804 575.542 82.509C598.727 88.4625 603.68 117.825 617.807 137.149Z" stroke="#0E4DBE" stroke-width="0.838032"/>
<path opacity="0.840336" fill-rule="evenodd" clip-rule="evenodd" d="M619.443 135.372C636.645 159.785 672.735 177.477 667.541 206.886C662.322 236.433 626.486 249.486 597.76 258.146C574.696 265.099 552.746 252.02 528.889 248.685C496.878 244.211 458.116 259.673 436.533 235.613C413.693 210.154 411.177 166.47 428.884 137.207C445.228 110.199 485.179 117.805 514.657 106.507C536.916 97.9762 555.156 73.6727 578.138 80.0034C601.216 86.3606 605.656 115.805 619.443 135.372Z" stroke="#0E4DBE" stroke-width="0.838032"/>
<path opacity="0.84874" fill-rule="evenodd" clip-rule="evenodd" d="M621.069 133.568C637.841 158.277 673.617 176.596 667.911 205.91C662.178 235.361 626.119 247.786 597.246 255.944C574.064 262.493 552.346 249.033 528.55 245.283C496.622 240.251 457.597 255.034 436.436 230.601C414.045 204.747 412.292 161.025 430.507 132.076C447.319 105.357 487.132 113.66 516.802 102.878C539.207 94.7367 557.868 70.7552 580.736 77.4861C603.699 84.245 607.625 113.762 621.069 133.568Z" stroke="#0E4DBE" stroke-width="0.838032"/>
<path opacity="0.857143" fill-rule="evenodd" clip-rule="evenodd" d="M622.685 131.735C639.025 156.733 674.475 175.674 668.258 204.884C662.012 234.23 625.742 246.025 596.731 253.677C573.438 259.821 551.958 245.983 528.232 241.818C496.396 236.23 457.119 250.33 436.388 225.531C414.451 199.29 413.461 155.545 432.179 126.918C449.455 100.496 489.117 109.493 518.971 99.2304C541.514 91.4813 560.591 67.8291 583.338 74.9581C606.179 82.1168 609.589 111.698 622.685 131.735Z" stroke="#0E4DBE" stroke-width="0.838032"/>
<path opacity="0.865546" fill-rule="evenodd" clip-rule="evenodd" d="M624.292 129.875C640.193 155.155 675.307 174.711 668.581 203.808C661.824 233.041 625.354 244.201 596.213 251.346C572.817 257.082 551.582 242.872 527.932 238.294C496.198 232.151 456.681 245.563 436.386 220.406C414.911 193.786 414.684 150.03 433.899 121.735C451.633 95.6183 491.132 105.305 521.161 95.5657C543.835 88.2112 563.323 64.8956 585.941 72.4204C608.655 79.9767 611.548 109.613 624.292 129.875Z" stroke="#0E4DBE" stroke-width="0.838032"/>
<path opacity="0.87395" fill-rule="evenodd" clip-rule="evenodd" d="M625.891 127.987C641.348 153.54 676.116 173.706 668.883 202.681C661.616 231.792 624.957 242.313 595.696 248.948C572.203 254.276 551.22 239.697 527.653 234.707C496.032 228.011 456.286 240.731 436.433 215.224C415.426 188.233 415.963 144.48 435.668 116.524C453.856 90.7216 493.18 101.096 523.374 91.8824C546.173 84.9247 566.064 61.9528 588.549 69.8712C611.127 77.8227 613.502 107.505 625.891 127.987Z" stroke="#0E4DBE" stroke-width="0.838032"/>
<path opacity="0.882353" fill-rule="evenodd" clip-rule="evenodd" d="M627.481 126.071C642.49 151.89 676.901 172.66 669.163 201.505C661.39 230.484 624.552 240.364 595.18 246.487C571.598 251.404 550.872 236.461 527.396 231.06C495.896 223.813 455.935 235.838 436.53 209.988C415.997 182.635 417.298 138.898 437.488 111.29C456.123 85.809 495.26 96.8685 525.61 88.1828C548.528 81.6242 568.817 59.0029 591.159 67.3125C613.595 75.6568 615.452 105.376 627.481 126.071Z" stroke="#0E4DBE" stroke-width="0.838032"/>
<path opacity="0.890756" fill-rule="evenodd" clip-rule="evenodd" d="M629.066 124.126C643.621 150.203 677.664 171.57 669.424 200.275C661.146 229.114 624.142 238.35 594.668 243.96C571.003 248.464 550.541 233.162 527.163 227.352C495.795 219.557 455.629 230.882 436.679 204.698C416.626 176.99 418.69 133.283 439.359 106.032C458.436 80.8793 497.374 92.6202 527.871 84.4655C550.899 78.3078 571.58 56.044 593.774 64.7423C616.061 73.4769 617.399 103.224 629.066 124.126Z" stroke="#0E4DBE" stroke-width="0.838032"/>
<path opacity="0.89916" fill-rule="evenodd" clip-rule="evenodd" d="M630.642 122.153C644.74 148.48 678.405 170.438 669.665 198.995C660.885 227.685 623.725 236.274 594.158 241.369C570.418 245.459 550.226 229.802 526.953 223.585C495.725 215.244 455.369 225.866 436.878 199.355C417.312 171.302 420.138 127.637 441.28 100.751C460.793 75.9353 499.52 88.3539 530.154 80.7327C553.287 74.9779 574.353 53.0785 596.392 62.1628C618.523 71.285 619.342 101.051 630.642 122.153Z" stroke="#0E4DBE" stroke-width="0.838032"/>
<path opacity="0.907563" fill-rule="evenodd" clip-rule="evenodd" d="M632.211 120.151C645.848 146.72 679.124 169.262 669.888 197.662C660.608 226.195 623.304 234.134 593.652 238.712C569.845 242.387 549.93 226.38 526.768 219.758C495.691 210.873 455.155 220.789 437.13 193.96C418.056 165.569 421.644 121.96 443.252 95.4471C463.195 70.9758 501.699 84.0684 532.462 76.9831C555.692 71.6328 577.137 50.1044 599.014 59.5719C620.982 69.079 621.281 98.8546 632.211 120.151Z" stroke="#0E4DBE" stroke-width="0.838032"/>
<path opacity="0.915966" fill-rule="evenodd" clip-rule="evenodd" d="M633.775 118.121C646.946 144.924 679.824 168.044 670.093 196.278C660.317 224.644 622.88 231.931 593.153 235.991C569.285 239.25 549.652 222.898 526.61 215.873C495.692 206.446 454.989 215.654 437.435 188.514C418.86 159.795 423.209 116.255 445.275 90.1231C465.643 66.0036 503.912 79.7662 534.795 73.2188C558.114 68.2748 579.931 47.1239 601.64 56.9718C623.439 66.8608 623.218 96.6371 633.775 118.121Z" stroke="#0E4DBE" stroke-width="0.838032"/>
<path opacity="0.92437" fill-rule="evenodd" clip-rule="evenodd" d="M635.334 116.061C648.035 143.09 680.505 166.78 670.283 194.84C660.013 223.032 622.455 229.664 592.661 233.204C568.74 236.046 549.395 219.354 526.479 211.928C495.731 201.963 454.874 210.459 437.796 183.017C419.725 153.978 424.832 110.521 447.352 84.7778C468.137 61.0175 506.161 75.4459 537.153 69.4384C560.555 64.9022 582.738 44.1352 604.271 54.3605C625.894 64.6285 625.154 94.3964 635.334 116.061Z" stroke="#0E4DBE" stroke-width="0.838032"/>
<path opacity="0.932773" fill-rule="evenodd" clip-rule="evenodd" d="M636.888 113.973C649.115 141.22 681.166 165.473 670.456 193.351C659.696 221.358 622.027 227.334 592.176 230.354C568.209 232.778 549.159 215.751 526.376 207.926C495.806 197.426 454.807 205.208 438.211 177.471C420.649 148.122 426.514 104.76 449.48 79.4141C470.676 56.0202 508.443 71.11 539.534 65.6444C563.012 61.5172 585.555 41.1406 606.906 51.7401C628.347 62.3839 627.087 92.1343 636.888 113.973Z" stroke="#0E4DBE" stroke-width="0.838032"/>
<path opacity="0.941176" fill-rule="evenodd" clip-rule="evenodd" d="M638.437 111.856C650.187 139.312 681.81 164.12 670.615 191.807C659.368 219.622 621.601 224.94 591.702 227.438C567.696 229.444 548.946 212.087 526.303 203.865C495.921 192.833 454.792 199.898 438.683 171.877C421.636 142.225 428.257 98.9723 451.661 74.0311C473.263 51.0106 510.76 66.7572 541.943 61.8351C565.489 58.1183 588.383 38.1382 609.547 49.1087C630.798 60.1251 629.019 89.849 638.437 111.856Z" stroke="#0E4DBE" stroke-width="0.838032"/>
<path opacity="0.94958" fill-rule="evenodd" clip-rule="evenodd" d="M639.982 109.71C651.251 137.367 682.437 162.723 670.76 190.211C659.029 217.826 621.175 222.483 591.237 224.459C567.199 226.046 548.755 208.364 526.259 199.748C496.074 188.188 454.829 194.534 439.21 166.236C422.684 136.291 430.059 93.1605 453.895 68.6315C475.895 45.9915 513.111 62.3902 544.375 58.0129C567.983 54.7076 591.222 35.1302 612.191 46.4684C633.247 57.854 630.95 87.5423 639.982 109.71Z" stroke="#0E4DBE" stroke-width="0.838032"/>
<path opacity="0.957983" fill-rule="evenodd" clip-rule="evenodd" d="M641.525 107.534C652.309 135.384 683.047 161.28 670.893 188.56C658.682 215.966 620.752 219.962 590.784 221.415C566.723 222.582 548.59 204.581 526.247 195.574C496.269 183.489 454.919 189.114 439.797 160.547C423.795 130.319 431.922 87.3235 456.182 63.2143C478.574 40.9617 515.499 58.0074 546.834 54.1765C570.496 51.2837 594.074 32.1148 614.841 43.8172C635.696 55.5686 632.88 85.2123 641.525 107.534Z" stroke="#0E4DBE" stroke-width="0.838032"/>
<path opacity="0.966387" fill-rule="evenodd" clip-rule="evenodd" d="M643.063 105.329C653.36 133.363 683.641 159.792 671.013 186.855C658.325 214.044 620.332 217.377 590.342 218.307C566.265 219.054 548.449 200.739 526.267 191.344C496.504 178.737 455.062 183.64 440.441 154.814C424.969 124.31 433.845 81.4636 458.523 57.7814C481.3 35.9231 517.921 53.6106 549.318 50.3271C573.027 47.8477 596.936 29.0932 617.496 41.1563C638.142 53.2698 634.81 82.8599 643.063 105.329Z" stroke="#0E4DBE" stroke-width="0.838032"/>
<path opacity="0.97479" fill-rule="evenodd" clip-rule="evenodd" d="M644.599 103.096C654.405 131.305 684.221 158.259 671.122 185.097C657.961 212.06 619.916 214.73 589.915 215.137C565.828 215.463 548.334 196.84 526.32 187.059C496.781 173.935 455.26 178.114 441.144 149.037C426.207 118.268 435.83 75.5827 460.917 52.3348C484.072 30.8773 520.379 49.2013 551.829 46.4662C575.577 44.401 599.809 26.0666 620.156 38.4867C640.587 50.9587 636.739 80.4861 644.599 103.096Z" stroke="#0E4DBE" stroke-width="0.838032"/>
<path opacity="0.983193" fill-rule="evenodd" clip-rule="evenodd" d="M646.133 100.833C655.446 129.208 684.786 156.678 671.221 183.284C657.592 210.014 619.505 212.019 589.502 211.902C565.413 211.808 548.247 192.883 526.406 182.719C497.102 169.081 455.514 172.535 441.908 143.216C427.51 112.191 437.876 69.68 463.365 46.8735C486.891 25.8233 522.872 44.7781 554.365 42.5924C578.146 40.9419 602.695 23.0333 622.821 35.8066C643.032 48.6332 638.669 78.089 646.133 100.833Z" stroke="#0E4DBE" stroke-width="0.838032"/>
<path opacity="0.991597" fill-rule="evenodd" clip-rule="evenodd" d="M647.667 98.5401C656.483 127.074 685.339 155.052 671.312 181.417C657.218 207.904 619.103 209.245 589.106 208.604C565.022 208.09 548.189 188.868 526.529 178.324C497.467 164.177 455.825 166.904 442.733 137.352C428.879 106.081 439.985 63.7575 465.868 41.3993C489.758 20.7629 525.403 40.3428 556.929 38.707C580.735 37.4718 605.593 19.9943 625.493 33.117C645.477 46.2944 640.601 75.6695 647.667 98.5401Z" stroke="#0E4DBE" stroke-width="0.838032"/>
<path fill-rule="evenodd" clip-rule="evenodd" d="M649.199 96.2192C657.515 124.902 685.879 153.38 671.393 179.496C656.84 205.733 618.707 206.408 588.726 205.244C564.655 204.31 548.159 184.797 526.687 173.877C497.876 159.225 456.193 161.225 443.618 131.449C430.312 99.9405 442.155 57.8172 468.425 35.9142C492.671 15.6979 527.969 35.8969 559.519 34.8116C583.343 33.992 608.502 16.951 628.17 30.419C647.921 43.9431 642.533 73.2287 649.199 96.2192Z" stroke="#0E4DBE" stroke-width="0.838032"/>
<path opacity="0.563025" fill-rule="evenodd" clip-rule="evenodd" d="M-99.4452 73.8703C-71.7225 84.9761 -31.8194 80.1575 -20.158 107.651C-8.44237 135.273 -31.3878 165.738 -50.7633 188.646C-66.3195 207.039 -91.8513 208.024 -113.676 218.222C-142.959 231.904 -167.046 265.983 -198.252 257.56C-231.273 248.647 -257.175 213.38 -258.262 179.195C-259.265 147.642 -221.616 132.262 -203.047 106.733C-189.026 87.4547 -186.965 57.1378 -164.243 49.9304C-141.426 42.693 -121.666 64.9687 -99.4452 73.8703Z" stroke="#0E4DBE" stroke-opacity="0.5" stroke-width="0.838032"/>
<path opacity="0.571429" fill-rule="evenodd" clip-rule="evenodd" d="M-97.2616 72.8388C-69.7369 84.4267 -29.7558 80.3052 -18.5761 107.998C-7.34429 135.82 -30.8179 165.88 -50.5902 188.447C-66.4651 206.566 -92.0102 207.105 -114.009 216.92C-143.527 230.089 -168.205 263.742 -199.259 254.776C-232.119 245.288 -257.402 209.575 -257.892 175.376C-258.345 143.81 -220.433 129.09 -201.421 103.888C-187.066 84.8577 -184.476 54.5813 -161.632 47.7716C-138.692 40.9335 -119.323 63.5507 -97.2616 72.8388Z" stroke="#0E4DBE" stroke-opacity="0.5" stroke-width="0.838032"/>
<path opacity="0.579832" fill-rule="evenodd" clip-rule="evenodd" d="M-95.1021 71.791C-67.7838 83.8575 -27.7368 80.4344 -17.0421 108.318C-6.2976 136.332 -30.2923 165.978 -50.4554 188.196C-66.6441 206.035 -92.1947 206.128 -114.362 215.558C-144.105 228.21 -169.367 261.427 -200.259 251.92C-232.949 241.86 -257.605 205.711 -257.498 171.509C-257.399 139.94 -219.236 125.884 -199.788 101.018C-185.102 82.2408 -181.985 52.0142 -159.025 45.6043C-135.969 39.1675 -116.998 62.1193 -95.1021 71.791Z" stroke="#0E4DBE" stroke-opacity="0.5" stroke-width="0.838032"/>
<path opacity="0.588235" fill-rule="evenodd" clip-rule="evenodd" d="M-92.9642 70.7247C-65.8607 83.2661 -25.7601 80.5425 -15.5536 108.609C-5.29967 136.806 -29.8081 166.028 -50.3559 187.891C-66.8535 205.445 -92.4018 205.092 -114.73 214.134C-144.69 226.265 -170.527 259.036 -201.249 248.991C-233.758 238.362 -257.779 201.789 -257.076 167.593C-256.426 136.031 -218.024 122.643 -198.144 98.1197C-183.133 79.6021 -179.488 49.4346 -156.42 43.4263C-133.256 37.3929 -114.688 60.6723 -92.9642 70.7247Z" stroke="#0E4DBE" stroke-opacity="0.5" stroke-width="0.838032"/>
<path opacity="0.596639" fill-rule="evenodd" clip-rule="evenodd" d="M-90.8497 69.6385C-63.9692 82.651 -23.8272 80.6276 -14.1121 108.868C-4.35181 137.239 -29.3665 166.03 -50.2928 187.531C-67.0942 204.794 -92.6324 203.995 -115.115 212.646C-145.282 224.252 -171.687 256.567 -202.229 245.988C-234.548 234.793 -257.927 197.806 -256.627 163.628C-255.426 132.082 -216.796 119.366 -196.492 95.1937C-181.16 76.9409 -176.989 46.8416 -153.82 41.2368C-130.553 35.6086 -112.395 59.2085 -90.8497 69.6385Z" stroke="#0E4DBE" stroke-opacity="0.5" stroke-width="0.838032"/>
<path opacity="0.605042" fill-rule="evenodd" clip-rule="evenodd" d="M-88.7563 68.5329C-62.107 82.0126 -21.9357 80.6901 -12.715 109.095C-3.45134 137.633 -28.9646 165.982 -50.263 187.115C-67.3631 204.082 -92.8836 202.838 -115.514 211.095C-145.879 222.173 -172.844 254.022 -203.197 242.912C-235.315 231.155 -258.045 193.765 -256.148 159.615C-254.398 128.095 -215.552 116.055 -194.828 92.2405C-179.18 74.2581 -174.485 44.2362 -151.221 39.0366C-127.86 33.8153 -110.116 57.7285 -88.7563 68.5329Z" stroke="#0E4DBE" stroke-opacity="0.5" stroke-width="0.838032"/>
<path opacity="0.613445" fill-rule="evenodd" clip-rule="evenodd" d="M-86.6855 67.4086C-60.2755 81.3514 -20.0873 80.7301 -11.3637 109.292C-2.59953 137.987 -28.6037 165.887 -50.2676 186.645C-67.6613 203.311 -93.1561 201.622 -115.927 209.482C-146.48 220.028 -173.997 251.402 -204.152 239.763C-236.06 227.448 -258.134 189.667 -255.642 155.555C-253.341 124.071 -214.291 112.71 -193.155 89.2614C-177.195 71.5548 -171.977 41.6194 -148.626 36.8266C-125.177 32.0138 -107.854 56.2331 -86.6855 67.4086Z" stroke="#0E4DBE" stroke-opacity="0.5" stroke-width="0.838032"/>
<path opacity="0.621849" fill-rule="evenodd" clip-rule="evenodd" d="M-84.6361 66.2633C-58.4735 80.6648 -18.2805 80.745 -10.0567 109.455C-1.79466 138.298 -28.2818 165.74 -50.3047 186.117C-67.9866 202.477 -93.4481 200.343 -116.353 207.805C-147.086 217.816 -175.146 248.705 -205.092 236.542C-236.781 223.671 -258.192 185.511 -255.105 151.448C-252.255 120.008 -213.013 109.331 -191.471 86.2546C-175.204 68.8292 -169.464 38.9894 -146.033 34.6049C-122.504 30.2021 -105.606 54.72 -84.6361 66.2633Z" stroke="#0E4DBE" stroke-opacity="0.5" stroke-width="0.838032"/>
<path opacity="0.630252" fill-rule="evenodd" clip-rule="evenodd" d="M-82.6077 65.0984C-56.7004 79.9544 -16.515 80.736 -8.79348 109.585C-1.03605 138.568 -27.9981 165.544 -50.3732 185.533C-68.3379 201.582 -93.7583 199.004 -116.79 206.065C-147.693 215.538 -176.288 245.933 -206.017 233.249C-237.476 219.827 -258.219 181.299 -254.537 147.295C-251.139 115.91 -211.716 105.919 -189.775 83.2222C-173.207 66.0834 -166.947 36.3483 -143.443 32.3734C-119.841 28.3819 -103.373 53.1909 -82.6077 65.0984Z" stroke="#0E4DBE" stroke-opacity="0.5" stroke-width="0.838032"/>
<path opacity="0.638655" fill-rule="evenodd" clip-rule="evenodd" d="M-80.5989 63.9118C-54.9548 79.2176 -14.7892 80.7005 -7.57236 109.68C-0.321936 138.794 -27.7506 165.295 -50.4713 184.89C-68.7133 200.623 -94.0848 197.602 -117.236 204.26C-148.299 213.193 -177.421 243.084 -206.925 229.883C-238.145 215.914 -258.211 177.03 -253.937 143.095C-249.992 111.774 -210.4 102.473 -188.066 80.1625C-171.202 63.3154 -164.424 33.6941 -140.854 30.13C-117.186 26.551 -101.153 51.6437 -80.5989 63.9118Z" stroke="#0E4DBE" stroke-opacity="0.5" stroke-width="0.838032"/>
<path opacity="0.647059" fill-rule="evenodd" clip-rule="evenodd" d="M-78.6114 62.7049C-53.2383 78.456 -13.1047 80.6397 -6.39471 109.741C0.346492 138.977 -27.5405 164.995 -50.5997 184.191C-69.1135 199.603 -94.4284 196.14 -117.692 202.392C-148.907 210.782 -178.545 240.16 -207.814 226.446C-238.786 211.934 -258.171 172.706 -253.305 138.851C-248.814 107.604 -209.066 98.9952 -186.346 77.0776C-169.19 60.5274 -161.896 31.0289 -138.268 27.8767C-114.54 24.7113 -98.9486 50.08 -78.6114 62.7049Z" stroke="#0E4DBE" stroke-opacity="0.5" stroke-width="0.838032"/>
<path opacity="0.655462" fill-rule="evenodd" clip-rule="evenodd" d="M-76.6437 61.4756C-51.5494 77.6671 -11.46 80.5508 -5.25897 109.764C0.970956 139.114 -27.3659 164.641 -50.7566 183.432C-69.5366 198.519 -94.7872 194.614 -118.157 200.46C-149.513 208.303 -179.66 237.159 -208.685 222.937C-239.398 207.887 -258.095 168.326 -252.639 134.561C-247.604 103.397 -207.712 95.4836 -184.613 73.9658C-167.171 57.7176 -159.363 28.3509 -135.683 25.6115C-111.904 22.8607 -96.7576 48.4977 -76.6437 61.4756Z" stroke="#0E4DBE" stroke-opacity="0.5" stroke-width="0.838032"/>
<path opacity="0.663866" fill-rule="evenodd" clip-rule="evenodd" d="M-74.6956 60.2254C-49.8877 76.8523 -9.85475 80.4353 -4.16448 109.753C1.55228 139.207 -27.2258 164.235 -50.9408 182.615C-69.9813 197.372 -95.1599 193.027 -118.628 198.464C-150.116 205.759 -180.762 234.085 -209.534 219.357C-239.981 203.774 -257.984 163.893 -251.94 130.229C-246.361 99.1568 -206.337 91.9407 -182.866 70.8294C-165.143 54.888 -156.824 25.6621 -133.1 23.3364C-109.277 21.001 -94.5799 46.8984 -74.6956 60.2254Z" stroke="#0E4DBE" stroke-opacity="0.5" stroke-width="0.838032"/>
<path opacity="0.672269" fill-rule="evenodd" clip-rule="evenodd" d="M-72.7656 58.952C-48.2517 76.0094 -8.28737 80.2905 -3.10963 109.703C2.09222 139.252 -27.1183 163.774 -51.1504 181.737C-70.4455 196.16 -95.5445 191.376 -119.104 196.403C-150.715 203.147 -181.85 230.934 -210.361 215.707C-240.531 199.594 -257.836 159.405 -251.205 125.851C-245.084 94.8815 -204.941 88.365 -181.105 67.6665C-163.106 52.0369 -154.278 22.9606 -130.517 21.0493C-106.657 19.13 -92.4143 45.28 -72.7656 58.952Z" stroke="#0E4DBE" stroke-opacity="0.5" stroke-width="0.838032"/>
<path opacity="0.680672" fill-rule="evenodd" clip-rule="evenodd" d="M-70.8554 57.656C-46.6429 75.1386 -6.75935 80.1166 -2.09571 109.615C2.58964 139.25 -27.0444 163.259 -51.3864 180.8C-70.9302 194.883 -95.9419 189.662 -119.585 194.277C-151.309 200.469 -182.925 227.708 -211.166 211.985C-241.049 195.349 -257.651 154.864 -250.435 121.431C-243.775 90.5727 -203.524 84.7578 -179.33 64.4785C-161.061 49.1654 -151.728 20.2475 -127.937 18.7512C-104.047 17.2487 -90.2625 43.6432 -70.8554 57.656Z" stroke="#0E4DBE" stroke-opacity="0.5" stroke-width="0.838032"/>
<path opacity="0.689076" fill-rule="evenodd" clip-rule="evenodd" d="M-68.9635 56.3382C-45.0598 74.2407 -5.2692 79.9139 -1.12109 109.489C3.04634 139.202 -27.0022 162.69 -51.6466 179.803C-71.4333 193.543 -96.35 187.887 -120.07 192.088C-151.897 197.725 -183.983 224.408 -211.946 208.195C-241.535 191.04 -257.427 150.271 -249.629 116.969C-242.431 86.2319 -202.085 81.1204 -177.541 61.2664C-159.008 46.2745 -149.17 17.524 -125.357 16.4431C-101.445 15.3577 -88.123 41.9888 -68.9635 56.3382Z" stroke="#0E4DBE" stroke-opacity="0.5" stroke-width="0.838032"/>
<path opacity="0.697479" fill-rule="evenodd" clip-rule="evenodd" d="M-67.0886 54.9962C-43.5009 73.3132 -3.81542 79.68 -0.184091 109.323C3.46415 139.104 -26.9897 162.064 -51.9291 178.745C-71.9525 192.137 -96.7667 186.047 -120.557 189.833C-152.477 194.914 -185.024 221.033 -212.699 204.335C-241.984 186.665 -257.162 145.626 -248.784 112.465C-241.052 81.858 -200.622 77.4514 -175.735 58.0287C-156.943 43.3625 -146.606 14.7881 -122.777 14.123C-98.8494 13.4551 -85.9948 40.3146 -67.0886 54.9962Z" stroke="#0E4DBE" stroke-opacity="0.5" stroke-width="0.838032"/>
<path opacity="0.705882" fill-rule="evenodd" clip-rule="evenodd" d="M-65.2321 53.6317C-41.9678 72.3575 -2.39942 79.416 0.714015 109.118C3.84195 138.958 -27.008 161.383 -52.2347 177.626C-72.4888 190.667 -97.1929 184.144 -121.045 187.515C-153.05 192.038 -186.048 217.585 -213.427 200.406C-242.399 182.228 -256.859 140.93 -247.903 107.921C-239.638 77.4533 -199.137 73.753 -173.915 54.7676C-154.87 40.4316 -144.036 12.0419 -120.199 11.7928C-96.2632 11.5426 -83.8792 38.6223 -65.2321 53.6317Z" stroke="#0E4DBE" stroke-opacity="0.5" stroke-width="0.838032"/>
<path opacity="0.714286" fill-rule="evenodd" clip-rule="evenodd" d="M-63.3919 52.2424C-40.4579 71.3714 -1.01871 79.1193 1.57589 108.871C4.18256 138.761 -27.0541 160.644 -52.5604 176.444C-73.039 189.13 -97.6255 182.177 -121.533 185.131C-153.612 189.095 -187.05 214.062 -214.126 196.408C-242.776 177.727 -256.513 136.183 -246.983 103.335C-238.186 73.0166 -197.628 70.0237 -172.078 51.4814C-152.786 37.48 -141.457 9.28368 -117.62 9.45059C-93.6836 9.61818 -81.7742 36.9099 -63.3919 52.2424Z" stroke="#0E4DBE" stroke-opacity="0.5" stroke-width="0.838032"/>
<path opacity="0.722689" fill-rule="evenodd" clip-rule="evenodd" d="M-61.5693 50.83C-38.9726 70.3564 0.32532 78.7914 2.40029 108.584C4.48491 138.515 -27.1289 159.85 -52.907 175.202C-73.6039 187.528 -98.0654 180.148 -122.021 182.684C-154.164 186.087 -188.033 210.467 -214.796 192.343C-243.116 173.165 -256.126 131.387 -246.024 98.7107C-236.7 68.5505 -196.095 66.2658 -170.226 48.1723C-150.692 34.5097 -138.873 6.51541 -115.043 7.0983C-91.1125 7.68363 -79.6812 35.1791 -61.5693 50.83Z" stroke="#0E4DBE" stroke-opacity="0.5" stroke-width="0.838032"/>
<path opacity="0.731092" fill-rule="evenodd" clip-rule="evenodd" d="M-59.762 49.3923C-37.5095 69.31 1.63518 78.4296 3.18988 108.254C4.75182 138.216 -27.2295 158.996 -53.2717 173.897C-74.1806 185.86 -98.5095 178.053 -122.506 180.171C-154.703 183.013 -188.993 206.798 -215.435 188.21C-243.416 168.54 -255.695 126.542 -245.024 94.0465C-235.175 64.0536 -194.536 62.478 -168.356 44.8386C-148.586 31.519 -136.281 3.73528 -112.464 4.73399C-88.5477 5.73687 -77.598 33.4276 -59.762 49.3923Z" stroke="#0E4DBE" stroke-opacity="0.5" stroke-width="0.838032"/>
<path opacity="0.739496" fill-rule="evenodd" clip-rule="evenodd" d="M-57.9715 47.9299C-36.0701 68.233 2.90953 78.0344 3.94349 107.881C4.98227 137.866 -27.3568 158.085 -53.6551 172.529C-74.7696 184.125 -98.9585 175.895 -122.988 177.594C-155.23 179.873 -189.929 203.056 -216.044 184.009C-243.677 163.855 -255.221 121.648 -243.985 89.3441C-233.614 59.5276 -192.954 58.6614 -166.469 41.4817C-146.47 28.5092 -133.682 0.94441 -109.886 2.35863C-85.991 3.77875 -75.5262 31.6564 -57.9715 47.9299Z" stroke="#0E4DBE" stroke-opacity="0.5" stroke-width="0.838032"/>
<path opacity="0.747899" fill-rule="evenodd" clip-rule="evenodd" d="M-56.1965 46.4436C-34.6527 67.1258 4.14989 77.606 4.66281 107.466C5.1781 137.465 -27.5089 157.116 -54.0553 171.099C-75.3689 182.325 -99.4106 173.674 -123.466 174.953C-155.743 176.669 -190.842 199.243 -216.62 179.744C-243.897 159.11 -254.702 116.708 -242.904 84.605C-232.014 54.9741 -191.345 54.8177 -164.565 38.1028C-144.343 25.4813 -131.075 -1.8561 -107.308 -0.0268051C-83.4411 1.81013 -73.4645 29.8661 -56.1965 46.4436Z" stroke="#0E4DBE" stroke-opacity="0.5" stroke-width="0.838032"/>
<path opacity="0.756303" fill-rule="evenodd" clip-rule="evenodd" d="M-54.4364 44.932C-33.2569 65.9871 5.3569 77.1429 5.3486 107.007C5.34026 137.011 -27.6848 156.089 -54.4711 169.605C-75.9774 180.458 -99.8644 171.389 -123.938 172.248C-156.24 173.401 -191.728 195.359 -217.162 175.412C-244.075 154.305 -254.138 111.722 -241.782 79.8292C-230.376 50.3928 -189.711 50.9462 -162.643 34.7013C-142.204 22.4346 -128.461 -4.66709 -104.729 -2.42327C-80.898 -0.170089 -71.4125 28.0558 -54.4364 44.932Z" stroke="#0E4DBE" stroke-opacity="0.5" stroke-width="0.838032"/>
<path opacity="0.764706" fill-rule="evenodd" clip-rule="evenodd" d="M-52.6899 43.3941C-31.8811 64.8156 6.53214 76.6436 6.00264 106.503C5.47067 136.502 -27.8823 155.001 -54.9004 168.048C-76.5929 178.523 -100.318 169.039 -124.403 169.478C-156.72 170.067 -192.586 191.402 -217.668 171.014C-244.208 149.441 -253.527 106.688 -240.616 75.0163C-228.698 45.7835 -188.049 47.0465 -160.701 31.2764C-140.051 19.3683 -125.838 -7.48939 -102.148 -4.83174C-78.3603 -2.16299 -69.3688 26.2241 -52.6899 43.3941Z" stroke="#0E4DBE" stroke-opacity="0.5" stroke-width="0.838032"/>
<path opacity="0.773109" fill-rule="evenodd" clip-rule="evenodd" d="M-50.9585 41.8304C-30.5267 63.6118 7.67424 76.1084 6.62369 105.954C5.56825 135.939 -28.1025 153.853 -55.3442 166.427C-77.2162 176.522 -100.772 166.625 -124.861 166.643C-157.184 166.668 -193.416 187.374 -218.138 166.552C-244.299 144.519 -252.87 101.61 -239.407 70.1681C-226.982 41.1477 -186.361 43.1199 -158.742 27.8295C-137.887 16.2836 -123.207 -10.3219 -99.5678 -7.25122C-75.8299 -4.16772 -67.3352 24.372 -50.9585 41.8304Z" stroke="#0E4DBE" stroke-opacity="0.5" stroke-width="0.838032"/>
<path opacity="0.781513" fill-rule="evenodd" clip-rule="evenodd" d="M-49.2407 40.2418C-29.1922 62.3764 8.78486 75.5378 7.21359 105.361C5.635 135.323 -28.3432 152.646 -55.8002 164.743C-77.8451 174.455 -101.225 164.148 -125.311 163.746C-157.629 163.206 -194.217 183.277 -218.572 162.027C-244.343 139.54 -252.165 96.4883 -238.156 65.2862C-225.225 36.4871 -184.645 39.168 -156.764 24.362C-135.71 13.1818 -120.568 -13.1635 -96.986 -9.68072C-73.3056 -6.1834 -65.3103 22.5002 -49.2407 40.2418Z" stroke="#0E4DBE" stroke-opacity="0.5" stroke-width="0.838032"/>
<path opacity="0.789916" fill-rule="evenodd" clip-rule="evenodd" d="M-47.5361 38.626C-27.8769 61.1072 9.86461 74.9294 7.77309 104.721C5.67183 134.65 -28.6035 151.378 -56.2675 162.993C-78.4785 172.319 -101.675 161.606 -125.75 160.784C-158.054 159.68 -194.986 179.109 -218.967 157.437C-244.342 134.504 -251.411 91.3225 -236.859 60.3697C-223.429 31.8006 -182.901 35.1893 -154.765 20.8721C-133.52 10.061 -117.92 -16.016 -94.4029 -12.1222C-70.7871 -8.2121 -63.2936 20.6067 -47.5361 38.626Z" stroke="#0E4DBE" stroke-opacity="0.5" stroke-width="0.838032"/>
<path opacity="0.798319" fill-rule="evenodd" clip-rule="evenodd" d="M-45.8433 36.9838C-26.5795 59.8047 10.9151 74.2834 8.30398 104.034C5.6807 133.922 -28.8814 150.049 -56.7438 161.18C-79.1142 170.117 -102.12 159 -126.177 157.758C-158.457 156.091 -195.723 174.872 -219.321 152.785C-244.293 129.413 -250.607 86.1142 -235.517 55.42C-221.59 27.0897 -181.127 31.1852 -152.746 17.3612C-131.316 6.92257 -115.263 -18.8782 -91.8172 -14.5745C-68.2733 -10.2529 -61.2839 18.6922 -45.8433 36.9838Z" stroke="#0E4DBE" stroke-opacity="0.5" stroke-width="0.838032"/>
<path opacity="0.806723" fill-rule="evenodd" clip-rule="evenodd" d="M-44.1637 35.316C-25.3011 58.4696 11.9351 73.6005 8.80514 103.301C5.66062 133.139 -29.1777 148.66 -57.2301 159.303C-79.753 167.848 -102.561 156.331 -126.593 154.67C-158.839 152.44 -196.427 170.568 -219.636 148.072C-244.196 124.267 -249.753 80.8652 -234.13 50.4391C-219.711 22.3562 -179.326 27.1572 -150.708 13.8306C-129.099 3.76763 -112.598 -21.7491 -89.2308 -17.0369C-65.7659 -12.305 -59.2827 16.7577 -44.1637 35.316Z" stroke="#0E4DBE" stroke-opacity="0.5" stroke-width="0.838032"/>
<path opacity="0.815126" fill-rule="evenodd" clip-rule="evenodd" d="M-42.495 33.6214C-24.0393 57.1006 12.9271 72.8791 9.27934 102.52C5.61456 132.299 -29.4893 147.21 -57.7232 157.361C-80.3918 165.512 -102.996 153.599 -126.995 151.518C-159.197 148.726 -197.095 166.195 -219.909 143.298C-244.049 119.068 -248.848 75.5756 -232.697 45.4268C-217.789 17.5998 -177.494 23.1049 -148.648 10.2798C-126.866 0.59546 -109.923 -24.6294 -86.6415 -19.5101C-63.2627 -14.3694 -57.2878 14.802 -42.495 33.6214Z" stroke="#0E4DBE" stroke-opacity="0.5" stroke-width="0.838032"/>
<path opacity="0.823529" fill-rule="evenodd" clip-rule="evenodd" d="M-40.8385 31.8987C-22.7954 55.6965 13.89 72.1177 9.72546 101.69C5.54152 131.401 -29.8172 145.697 -58.224 155.354C-81.0314 163.108 -103.424 150.802 -127.383 148.303C-159.531 144.949 -197.729 161.754 -220.139 138.462C-243.853 113.815 -247.892 70.2452 -231.217 40.3828C-215.826 12.8202 -175.634 19.0278 -146.568 6.70807C-124.621 -2.59465 -107.24 -27.5199 -84.0511 -21.9951C-60.7655 -16.4472 -55.3006 12.8241 -40.8385 31.8987Z" stroke="#0E4DBE" stroke-opacity="0.5" stroke-width="0.838032"/>
<path opacity="0.831933" fill-rule="evenodd" clip-rule="evenodd" d="M-39.1929 30.1488C-21.5679 54.2579 14.8253 71.3168 10.1453 100.812C5.4435 130.445 -30.1593 144.122 -58.7304 153.282C-81.6696 160.636 -103.844 147.942 -127.756 145.025C-159.84 141.11 -198.326 157.246 -220.326 133.567C-243.606 108.509 -246.884 64.8759 -229.691 35.3091C-213.821 8.0193 -173.743 14.9274 -144.467 3.11679C-122.36 -5.80149 -104.547 -30.4196 -81.4583 -24.491C-58.2732 -18.5375 -53.3199 10.8247 -39.1929 30.1488Z" stroke="#0E4DBE" stroke-opacity="0.5" stroke-width="0.838032"/>
<path opacity="0.840336" fill-rule="evenodd" clip-rule="evenodd" d="M-37.5567 28.3725C-20.3552 52.7855 15.7348 70.477 10.5407 99.8863C5.32248 129.433 -30.5136 142.486 -59.2402 151.146C-82.3043 158.099 -104.254 145.02 -128.111 141.685C-160.122 137.211 -198.884 152.673 -220.467 128.613C-243.307 103.154 -245.823 59.4696 -228.116 30.2073C-211.772 3.19866 -171.821 10.8051 -142.343 -0.492706C-120.084 -9.02381 -101.844 -33.3273 -78.8621 -26.9966C-55.7844 -20.6394 -51.3443 8.80476 -37.5567 28.3725Z" stroke="#0E4DBE" stroke-opacity="0.5" stroke-width="0.838032"/>
<path opacity="0.84874" fill-rule="evenodd" clip-rule="evenodd" d="M-35.9314 26.5676C-19.1585 51.2771 16.6172 69.5957 10.9106 98.91C5.17752 128.361 -30.8809 140.786 -59.7543 148.944C-82.9362 155.493 -104.654 142.033 -128.45 138.283C-160.378 133.251 -199.403 148.034 -220.564 123.601C-242.955 97.7466 -244.708 54.0252 -226.493 25.0765C-209.681 -1.64286 -169.868 6.6597 -140.198 -4.12196C-117.793 -12.2633 -99.1319 -36.2448 -76.2642 -29.5139C-53.3009 -22.755 -49.3754 6.76223 -35.9314 26.5676Z" stroke="#0E4DBE" stroke-opacity="0.5" stroke-width="0.838032"/>
<path opacity="0.857143" fill-rule="evenodd" clip-rule="evenodd" d="M-34.3146 24.735C-17.9754 49.7334 17.4751 68.6736 11.2578 97.8838C5.0116 127.23 -31.2582 139.025 -60.2695 146.677C-83.5622 152.821 -105.042 138.983 -128.768 134.818C-160.604 129.23 -199.881 143.33 -220.612 118.531C-242.549 92.29 -243.539 48.5447 -224.821 19.9183C-207.545 -6.50356 -167.883 2.49257 -138.029 -7.76963C-115.486 -15.5187 -96.4092 -39.1709 -73.6624 -32.0419C-50.8206 -24.8832 -47.4109 4.69797 -34.3146 24.735Z" stroke="#0E4DBE" stroke-opacity="0.5" stroke-width="0.838032"/>
<path opacity="0.865546" fill-rule="evenodd" clip-rule="evenodd" d="M-32.7076 22.8754C-16.8073 48.1551 18.3074 67.7112 11.5812 96.8084C4.82378 126.041 -31.6464 137.201 -60.7868 144.346C-84.1832 150.082 -105.418 135.872 -129.068 131.294C-160.802 125.151 -200.319 138.563 -220.614 113.406C-242.089 86.7859 -242.316 43.03 -223.101 14.7346C-205.367 -11.3817 -165.868 -1.69473 -135.839 -11.4343C-113.165 -18.7888 -93.6775 -42.1044 -71.0585 -34.5796C-48.3452 -27.0233 -45.4522 2.61287 -32.7076 22.8754Z" stroke="#0E4DBE" stroke-opacity="0.5" stroke-width="0.838032"/>
<path opacity="0.87395" fill-rule="evenodd" clip-rule="evenodd" d="M-31.1091 20.9867C-15.6524 46.5402 19.1156 66.7061 11.8827 95.6815C4.61609 124.792 -32.0433 135.313 -61.3039 141.948C-84.7969 147.276 -105.78 132.697 -129.347 127.707C-160.968 121.011 -200.714 133.731 -220.567 108.224C-241.574 81.2334 -241.037 37.4802 -221.332 9.52441C-203.144 -16.2784 -163.82 -5.90359 -133.626 -15.1176C-110.827 -22.0753 -90.9356 -45.0472 -68.4515 -37.1288C-45.8734 -29.1773 -43.4981 0.504904 -31.1091 20.9867Z" stroke="#0E4DBE" stroke-opacity="0.5" stroke-width="0.838032"/>
<path opacity="0.882353" fill-rule="evenodd" clip-rule="evenodd" d="M-29.5185 19.0709C-14.5101 44.8902 19.9006 65.6598 12.1631 94.5045C4.38955 123.484 -32.4479 133.364 -61.8199 139.487C-85.4022 144.404 -106.128 129.461 -129.604 124.06C-161.104 116.813 -201.065 128.838 -220.47 102.988C-241.003 75.6352 -239.702 31.898 -219.512 4.29045C-200.877 -21.191 -161.74 -10.1315 -131.39 -18.8172C-108.472 -25.3758 -88.1835 -47.9971 -65.841 -39.6875C-43.4051 -31.3432 -41.5482 -1.62407 -29.5185 19.0709Z" stroke="#0E4DBE" stroke-opacity="0.5" stroke-width="0.838032"/>
<path opacity="0.890756" fill-rule="evenodd" clip-rule="evenodd" d="M-27.9345 17.1257C-13.3789 43.203 20.6641 64.57 12.4243 93.2753C4.14622 122.114 -32.858 131.35 -62.3324 136.96C-85.997 141.464 -106.459 126.162 -129.837 120.352C-161.205 112.557 -201.371 123.882 -220.321 97.6979C-240.374 69.9905 -238.31 26.2827 -217.641 -0.968344C-198.564 -26.1207 -159.626 -14.3798 -129.129 -22.5345C-106.101 -28.6922 -85.42 -50.956 -63.2259 -42.2577C-40.9391 -33.5231 -39.6011 -3.77605 -27.9345 17.1257Z" stroke="#0E4DBE" stroke-opacity="0.5" stroke-width="0.838032"/>
<path opacity="0.89916" fill-rule="evenodd" clip-rule="evenodd" d="M-26.3583 15.153C-12.2601 41.4803 21.4048 63.4382 12.6653 91.9954C3.88517 120.685 -33.2746 129.274 -62.8424 134.369C-86.582 138.459 -106.774 122.802 -130.047 116.585C-161.275 108.244 -201.631 118.866 -220.122 92.3553C-239.688 64.3021 -236.862 20.637 -215.72 -6.24912C-196.207 -31.0647 -157.48 -18.6461 -126.846 -26.2673C-103.713 -32.0221 -82.6469 -53.9215 -60.608 -44.8372C-38.477 -35.715 -37.6584 -5.94917 -26.3583 15.153Z" stroke="#0E4DBE" stroke-opacity="0.5" stroke-width="0.838032"/>
<path opacity="0.907563" fill-rule="evenodd" clip-rule="evenodd" d="M-24.7886 13.1507C-11.1521 39.7201 22.1245 62.2622 12.888 90.6625C3.60844 119.195 -33.6956 127.134 -63.3478 131.712C-87.1552 135.387 -107.07 119.38 -130.232 112.758C-161.309 103.873 -201.845 113.789 -219.87 86.9597C-238.944 58.5693 -235.356 14.9602 -213.748 -11.5529C-193.805 -36.0242 -155.301 -22.9316 -124.538 -30.0169C-101.308 -35.3672 -79.8631 -56.8956 -57.9861 -47.4281C-36.0177 -37.921 -35.7188 -8.14542 -24.7886 13.1507Z" stroke="#0E4DBE" stroke-opacity="0.5" stroke-width="0.838032"/>
<path opacity="0.915966" fill-rule="evenodd" clip-rule="evenodd" d="M-23.2249 11.1208C-10.0542 37.9241 22.8239 61.0435 13.0932 89.2782C3.3171 117.644 -34.1198 124.931 -63.8474 128.991C-87.7153 132.25 -107.348 115.898 -130.39 108.873C-161.308 99.4462 -202.011 108.654 -219.565 81.5139C-238.14 52.7949 -233.791 9.255 -211.725 -16.8769C-191.357 -40.9964 -153.088 -27.2338 -122.205 -33.7812C-98.886 -38.7252 -77.0686 -59.8761 -55.3601 -50.0282C-33.561 -40.1392 -33.7817 -10.3629 -23.2249 11.1208Z" stroke="#0E4DBE" stroke-opacity="0.5" stroke-width="0.838032"/>
<path opacity="0.92437" fill-rule="evenodd" clip-rule="evenodd" d="M-21.6657 9.06101C-8.96472 36.0901 23.5049 59.7798 13.2828 87.8404C3.01317 116.032 -34.5452 122.664 -64.3391 126.204C-88.2602 129.046 -107.605 112.354 -130.521 104.928C-161.269 94.9631 -202.126 103.459 -219.204 76.0168C-237.275 46.978 -232.168 3.52064 -209.648 -22.2222C-188.863 -45.9825 -150.839 -31.5541 -119.847 -37.5616C-96.4453 -42.0978 -74.2621 -62.8648 -52.7288 -52.6395C-31.1056 -42.3715 -31.8459 -12.6036 -21.6657 9.06101Z" stroke="#0E4DBE" stroke-opacity="0.5" stroke-width="0.838032"/>
<path opacity="0.932773" fill-rule="evenodd" clip-rule="evenodd" d="M-20.1124 6.97335C-7.8851 34.22 24.1661 58.4728 13.4559 86.3507C2.69581 114.358 -34.9726 120.334 -64.8237 123.354C-88.7908 125.778 -107.841 108.751 -130.624 100.926C-161.194 90.426 -202.193 98.2077 -218.789 70.4714C-236.351 41.1216 -230.486 -2.23995 -207.52 -27.5859C-186.324 -50.9798 -148.557 -35.89 -117.466 -41.3556C-93.9878 -45.4828 -71.4455 -65.8594 -50.094 -55.2599C-28.6533 -44.6161 -29.913 -14.8657 -20.1124 6.97335Z" stroke="#0E4DBE" stroke-opacity="0.5" stroke-width="0.838032"/>
<path opacity="0.941176" fill-rule="evenodd" clip-rule="evenodd" d="M-18.5626 4.85573C-6.81268 32.3116 24.8104 57.1201 13.6153 84.8068C2.36801 112.622 -35.3989 117.94 -65.2982 120.438C-89.304 122.444 -108.054 105.087 -130.697 96.865C-161.079 85.8334 -202.208 92.8985 -218.317 64.8767C-235.364 35.2249 -228.743 -8.02768 -205.339 -32.9689C-183.737 -55.9894 -146.24 -40.2428 -115.057 -45.1649C-91.5113 -48.8817 -68.6168 -68.8618 -47.4535 -57.8913C-26.2018 -46.8749 -27.9806 -17.151 -18.5626 4.85573Z" stroke="#0E4DBE" stroke-opacity="0.5" stroke-width="0.838032"/>
<path opacity="0.94958" fill-rule="evenodd" clip-rule="evenodd" d="M-17.0177 2.71006C-5.74876 30.3668 25.4365 55.7234 13.7599 83.2106C2.02891 110.826 -35.8251 115.483 -65.7634 117.459C-89.8005 119.046 -108.245 101.364 -130.741 92.7483C-160.926 81.1882 -202.171 87.5344 -217.79 59.2357C-234.316 29.2909 -226.941 -13.8395 -203.105 -38.3685C-181.105 -61.0085 -143.889 -44.6098 -112.625 -48.9871C-89.0174 -52.2924 -65.7777 -71.8698 -44.8091 -60.5316C-23.7529 -49.146 -26.0502 -19.4577 -17.0177 2.71006Z" stroke="#0E4DBE" stroke-opacity="0.5" stroke-width="0.838032"/>
<path opacity="0.957983" fill-rule="evenodd" clip-rule="evenodd" d="M-15.4753 0.534295C-4.69074 28.3835 26.0472 54.2805 13.8927 81.5597C1.68155 108.966 -36.2479 112.962 -66.2162 114.415C-90.2773 115.582 -108.41 97.581 -130.753 88.5741C-160.731 76.4889 -202.081 82.1143 -217.203 53.5474C-233.205 23.3187 -225.078 -19.6765 -200.818 -43.7857C-178.426 -66.0383 -141.501 -48.9926 -110.166 -52.8235C-86.5041 -55.7163 -62.9263 -74.8852 -42.1587 -63.1828C-21.3045 -51.4314 -24.1195 -21.7877 -15.4753 0.534295Z" stroke="#0E4DBE" stroke-opacity="0.5" stroke-width="0.838032"/>
<path opacity="0.966387" fill-rule="evenodd" clip-rule="evenodd" d="M-13.9368 -1.67063C-3.63991 26.3626 26.6414 52.7921 14.0126 79.855C1.32504 107.044 -36.6684 110.377 -66.6575 111.307C-90.7353 112.054 -108.551 93.7393 -130.733 84.3439C-160.496 71.7374 -201.938 76.6402 -216.559 47.8137C-232.031 17.3104 -223.155 -25.5364 -198.477 -49.2186C-175.7 -71.0769 -139.079 -53.3894 -107.682 -56.6729C-83.9731 -59.1523 -60.0643 -77.9068 -39.5042 -65.8437C-18.8582 -53.7302 -22.1901 -24.1401 -13.9368 -1.67063Z" stroke="#0E4DBE" stroke-opacity="0.5" stroke-width="0.838032"/>
<path opacity="0.97479" fill-rule="evenodd" clip-rule="evenodd" d="M-12.4008 -3.9038C-2.59465 24.3048 27.2208 51.2588 14.1216 78.0972C0.961469 105.06 -37.0844 107.73 -67.0851 108.137C-91.1723 108.463 -108.666 89.8404 -130.68 80.0593C-160.219 66.9352 -201.74 71.1141 -215.856 42.0368C-230.793 11.2681 -221.17 -31.4173 -196.083 -54.6652C-172.928 -76.1227 -136.621 -57.7987 -105.171 -60.5338C-81.4232 -62.599 -57.1907 -80.9334 -36.8442 -68.5133C-16.4128 -56.0413 -20.2606 -26.5139 -12.4008 -3.9038Z" stroke="#0E4DBE" stroke-opacity="0.5" stroke-width="0.838032"/>
<path opacity="0.983193" fill-rule="evenodd" clip-rule="evenodd" d="M-10.8666 -6.16718C-1.55429 22.2083 27.7862 49.6785 14.2206 76.2842C0.591905 103.014 -37.4947 105.019 -67.498 104.902C-91.5872 104.808 -108.753 85.8827 -130.594 75.7188C-159.898 62.0813 -201.486 65.5348 -215.092 36.2156C-229.49 5.19094 -219.124 -37.32 -193.635 -60.1265C-170.109 -81.1767 -134.128 -62.2219 -102.635 -64.4076C-78.8541 -66.0581 -54.3053 -83.9667 -34.1787 -71.1934C-13.9681 -58.3668 -18.3307 -28.911 -10.8666 -6.16718Z" stroke="#0E4DBE" stroke-opacity="0.5" stroke-width="0.838032"/>
<path opacity="0.991597" fill-rule="evenodd" clip-rule="evenodd" d="M-9.33285 -8.45985C-0.517189 20.0738 28.3394 48.0519 14.3116 74.4168C0.218428 100.904 -37.8974 102.245 -67.8941 101.604C-91.978 101.09 -108.811 81.8676 -130.471 71.3242C-159.533 57.1773 -201.175 59.9044 -214.267 30.3522C-228.121 -0.918962 -217.015 -43.2425 -191.132 -65.6007C-167.242 -86.2371 -131.597 -66.6572 -100.071 -68.293C-76.2648 -69.5282 -51.4072 -87.0057 -31.5066 -73.883C-11.5228 -60.7056 -16.3989 -31.3305 -9.33285 -8.45985Z" stroke="#0E4DBE" stroke-opacity="0.5" stroke-width="0.838032"/>
<path fill-rule="evenodd" clip-rule="evenodd" d="M-7.80098 -10.7808C0.515362 17.9024 28.8793 46.3798 14.3935 72.4958C-0.15982 98.7334 -38.2932 99.4084 -68.2742 98.2442C-92.3454 97.3095 -108.841 77.7967 -130.313 66.8769C-159.124 52.2249 -200.807 54.2249 -213.382 24.4487C-226.688 -7.05948 -214.845 -49.1828 -188.575 -71.0858C-164.329 -91.3021 -129.031 -71.1031 -97.4806 -72.1884C-73.6569 -73.008 -48.4981 -90.049 -28.8295 -76.581C-9.07883 -63.0569 -14.4668 -33.7713 -7.80098 -10.7808Z" stroke="#0E4DBE" stroke-opacity="0.5" stroke-width="0.838032"/>
</svg>
