<svg width="206" height="42" viewBox="0 0 206 42" fill="none" xmlns="http://www.w3.org/2000/svg">
<path d="M31.0328 32.6686C30.0008 34.5304 30.6735 36.8763 32.5352 37.9083C34.397 38.9403 36.7428 38.2676 37.7748 36.4058L52.1595 10.4552C53.1915 8.5934 52.5189 6.24755 50.6571 5.21555C48.7953 4.18356 46.4495 4.85622 45.4175 6.71799L31.0328 32.6686Z" fill="url(#paint0_linear_53_133461)"/>
<path d="M23.388 6.72662C22.356 4.86485 20.0101 4.19219 18.1484 5.22418C16.2866 6.25618 15.6139 8.60203 16.6459 10.4638L31.0306 36.4145C32.0626 38.2762 34.4085 38.9489 36.2702 37.9169C38.132 36.8849 38.8047 34.539 37.7727 32.6773L23.388 6.72662Z" fill="url(#paint1_linear_53_133461)"/>
<path d="M16.2594 32.6726C15.2274 34.5343 15.9 36.8802 17.7618 37.9122C19.6236 38.9442 21.9694 38.2715 23.0014 36.4097L37.3861 10.4591C38.4181 8.59731 37.7454 6.25145 35.8837 5.21946C34.0219 4.18747 31.676 4.86013 30.644 6.72189L16.2594 32.6726Z" fill="url(#paint2_linear_53_133461)"/>
<path d="M8.61064 6.37115C7.57865 4.50938 5.23279 3.83672 3.37103 4.86871C1.50926 5.90071 0.836596 8.24656 1.86859 10.1083L16.2533 36.059C17.2853 37.9208 19.6311 38.5934 21.4929 37.5614C23.3547 36.5294 24.0273 34.1836 22.9953 32.3218L8.61064 6.37115Z" fill="url(#paint3_linear_53_133461)"/>
<path d="M83.4671 28.3229H80.0771L77.5346 21.3734L75.0853 28.3229H71.7632L66.3477 13.8477H70.8479L72.7293 18.9326C73.0768 20.0513 73.2548 21.2294 73.4921 22.3226L76.1362 13.907H78.9669L81.7297 22.3226C81.967 21.2039 82.1958 20.0852 82.5772 18.8479L84.34 13.8477H88.8148L83.4671 28.3229Z" fill="white"/>
<path d="M108.459 17.9069C107.475 17.1978 106.279 16.845 105.069 16.9069C104.069 16.9069 103.128 17.2035 103.128 17.9663C103.128 18.9663 104.128 19.085 105.543 19.2629C108.425 19.5511 111.425 20.7291 111.425 24.0852C111.425 27.4413 108.306 28.7888 105.069 28.7888C102.484 28.7888 100.594 28.382 98.5938 26.2463L100.831 23.653C101.381 24.2137 102.042 24.6539 102.772 24.9457C103.501 25.2374 104.283 25.3744 105.069 25.348C106.425 25.348 107.365 24.8734 107.365 24.0513C107.365 23.2292 106.518 22.8733 104.95 22.7546C101.772 22.458 99.0683 21.6359 99.0683 18.051C99.0683 14.9915 102.068 13.6355 105.128 13.6355C107.079 13.5269 109.003 14.1291 110.543 15.3305L108.459 17.9069Z" fill="white"/>
<path d="M125.578 28.3825H113.984V13.9072H125.282V17.2972H118.044V19.3482H124.824V22.7381H118.044V24.9162H125.578V28.3825Z" fill="white"/>
<path d="M94.283 13.5171L88.6641 19.3055V19.8055H90.6726V28.3229H94.283V13.5171Z" fill="white"/>
<path d="M94.9336 13.5171L96.5184 15.8901V28.3229H94.9336V13.5171Z" fill="white"/>
<path d="M83.4671 28.3229H80.0771L77.5346 21.3734L75.0853 28.3229H71.7632L66.3477 13.8477H70.8479L72.7293 18.9326C73.0768 20.0513 73.2548 21.2294 73.4921 22.3226L76.1362 13.907H78.9669L81.7297 22.3226C81.967 21.2039 82.1958 20.0852 82.5772 18.8479L84.34 13.8477H88.8148L83.4671 28.3229Z" fill="white"/>
<path d="M108.459 17.9069C107.475 17.1978 106.279 16.845 105.069 16.9069C104.069 16.9069 103.128 17.2035 103.128 17.9663C103.128 18.9663 104.128 19.085 105.543 19.2629C108.425 19.5511 111.425 20.7291 111.425 24.0852C111.425 27.4413 108.306 28.7888 105.069 28.7888C102.484 28.7888 100.594 28.382 98.5938 26.2463L100.831 23.653C101.381 24.2137 102.042 24.6539 102.772 24.9457C103.501 25.2374 104.283 25.3744 105.069 25.348C106.425 25.348 107.365 24.8734 107.365 24.0513C107.365 23.2292 106.518 22.8733 104.95 22.7546C101.772 22.458 99.0683 21.6359 99.0683 18.051C99.0683 14.9915 102.068 13.6355 105.128 13.6355C107.079 13.5269 109.003 14.1291 110.543 15.3305L108.459 17.9069Z" fill="white"/>
<path d="M125.578 28.3825H113.984V13.9072H125.282V17.2972H118.044V19.3482H124.824V22.7381H118.044V24.9162H125.578V28.3825Z" fill="white"/>
<path d="M94.283 13.5171L88.6641 19.3055V19.8055H90.6726V28.3229H94.283V13.5171Z" fill="white"/>
<path d="M94.9336 13.5171L96.5184 15.8901V28.3229H94.9336V13.5171Z" fill="white"/>
<path d="M83.4671 28.3229H80.0771L77.5346 21.3734L75.0853 28.3229H71.7632L66.3477 13.8477H70.8479L72.7293 18.9326C73.0768 20.0513 73.2548 21.2294 73.4921 22.3226L76.1362 13.907H78.9669L81.7297 22.3226C81.967 21.2039 82.1958 20.0852 82.5772 18.8479L84.34 13.8477H88.8148L83.4671 28.3229Z" fill="white"/>
<path d="M108.459 17.9069C107.475 17.1978 106.279 16.845 105.069 16.9069C104.069 16.9069 103.128 17.2035 103.128 17.9663C103.128 18.9663 104.128 19.085 105.543 19.2629C108.425 19.5511 111.425 20.7291 111.425 24.0852C111.425 27.4413 108.306 28.7888 105.069 28.7888C102.484 28.7888 100.594 28.382 98.5938 26.2463L100.831 23.653C101.381 24.2137 102.042 24.6539 102.772 24.9457C103.501 25.2374 104.283 25.3744 105.069 25.348C106.425 25.348 107.365 24.8734 107.365 24.0513C107.365 23.2292 106.518 22.8733 104.95 22.7546C101.772 22.458 99.0683 21.6359 99.0683 18.051C99.0683 14.9915 102.068 13.6355 105.128 13.6355C107.079 13.5269 109.003 14.1291 110.543 15.3305L108.459 17.9069Z" fill="white"/>
<path d="M125.578 28.3825H113.984V13.9072H125.282V17.2972H118.044V19.3482H124.824V22.7381H118.044V24.9162H125.578V28.3825Z" fill="white"/>
<path d="M94.283 13.5171L88.6641 19.3055V19.8055H90.6726V28.3229H94.283V13.5171Z" fill="white"/>
<path d="M94.9336 13.5171L96.5184 15.8901V28.3229H94.9336V13.5171Z" fill="white"/>
<path d="M160.821 18.2621C161.448 18.2621 162.016 18.4062 162.525 18.6944C163.033 18.974 163.432 19.3724 163.72 19.8894C164.008 20.4064 164.152 20.9954 164.152 21.6565C164.152 22.3176 164.008 22.9067 163.72 23.4237C163.432 23.9407 163.033 24.3433 162.525 24.6314C162.016 24.9196 161.448 25.0637 160.821 25.0637C160.262 25.0637 159.758 24.945 159.308 24.7077C158.868 24.4704 158.512 24.1271 158.24 23.6779V25.0001H157.376V15.5669H158.279V19.5843C158.558 19.152 158.914 18.8257 159.347 18.6054C159.787 18.3765 160.279 18.2621 160.821 18.2621ZM160.758 24.2627C161.224 24.2627 161.648 24.1568 162.029 23.9449C162.41 23.7246 162.707 23.4152 162.919 23.0168C163.139 22.6185 163.249 22.1651 163.249 21.6565C163.249 21.148 163.139 20.6946 162.919 20.2962C162.707 19.8979 162.41 19.5928 162.029 19.3809C161.648 19.1605 161.224 19.0503 160.758 19.0503C160.283 19.0503 159.855 19.1605 159.474 19.3809C159.101 19.5928 158.804 19.8979 158.584 20.2962C158.372 20.6946 158.266 21.148 158.266 21.6565C158.266 22.1651 158.372 22.6185 158.584 23.0168C158.804 23.4152 159.101 23.7246 159.474 23.9449C159.855 24.1568 160.283 24.2627 160.758 24.2627Z" fill="white"/>
<path d="M165.992 15.5669H166.895V25.0001H165.992V15.5669Z" fill="white"/>
<path d="M172.14 25.0637C171.496 25.0637 170.915 24.9196 170.398 24.6314C169.881 24.3348 169.474 23.928 169.178 23.411C168.881 22.894 168.733 22.3091 168.733 21.6565C168.733 21.0039 168.881 20.4191 169.178 19.9021C169.474 19.3851 169.881 18.9825 170.398 18.6944C170.915 18.4062 171.496 18.2621 172.14 18.2621C172.784 18.2621 173.364 18.4062 173.881 18.6944C174.398 18.9825 174.801 19.3851 175.089 19.9021C175.386 20.4191 175.534 21.0039 175.534 21.6565C175.534 22.3091 175.386 22.894 175.089 23.411C174.801 23.928 174.398 24.3348 173.881 24.6314C173.364 24.9196 172.784 25.0637 172.14 25.0637ZM172.14 24.2627C172.614 24.2627 173.038 24.1568 173.411 23.9449C173.792 23.7246 174.089 23.4152 174.301 23.0168C174.513 22.6185 174.619 22.1651 174.619 21.6565C174.619 21.148 174.513 20.6946 174.301 20.2962C174.089 19.8979 173.792 19.5928 173.411 19.3809C173.038 19.1605 172.614 19.0503 172.14 19.0503C171.665 19.0503 171.237 19.1605 170.856 19.3809C170.483 19.5928 170.186 19.8979 169.966 20.2962C169.754 20.6946 169.648 21.148 169.648 21.6565C169.648 22.1651 169.754 22.6185 169.966 23.0168C170.186 23.4152 170.483 23.7246 170.856 23.9449C171.237 24.1568 171.665 24.2627 172.14 24.2627Z" fill="white"/>
<path d="M183.568 18.313V24.1865C183.568 25.3222 183.289 26.1613 182.729 26.7037C182.178 27.2546 181.344 27.53 180.225 27.53C179.606 27.53 179.017 27.4368 178.458 27.2504C177.907 27.0724 177.457 26.8223 177.11 26.5003L177.568 25.8138C177.89 26.1019 178.28 26.3265 178.737 26.4876C179.203 26.6486 179.691 26.7291 180.199 26.7291C181.047 26.7291 181.67 26.5299 182.068 26.1316C182.467 25.7417 182.666 25.1315 182.666 24.3009V23.4491C182.386 23.8729 182.017 24.1949 181.56 24.4153C181.11 24.6357 180.61 24.7458 180.059 24.7458C179.432 24.7458 178.86 24.6102 178.343 24.339C177.835 24.0593 177.432 23.6737 177.135 23.1821C176.847 22.6821 176.703 22.1184 176.703 21.4913C176.703 20.8641 176.847 20.3047 177.135 19.8131C177.432 19.3215 177.835 18.9401 178.343 18.6689C178.852 18.3977 179.424 18.2621 180.059 18.2621C180.627 18.2621 181.14 18.3765 181.598 18.6054C182.055 18.8342 182.424 19.1647 182.704 19.597V18.313H183.568ZM180.148 23.9449C180.632 23.9449 181.068 23.8432 181.458 23.6398C181.848 23.4279 182.149 23.1355 182.361 22.7626C182.581 22.3897 182.691 21.9659 182.691 21.4913C182.691 21.0166 182.581 20.5971 182.361 20.2327C182.149 19.8597 181.848 19.5716 181.458 19.3682C181.077 19.1563 180.64 19.0503 180.148 19.0503C179.665 19.0503 179.229 19.152 178.839 19.3554C178.458 19.5589 178.157 19.847 177.936 20.2199C177.724 20.5929 177.619 21.0166 177.619 21.4913C177.619 21.9659 177.724 22.3897 177.936 22.7626C178.157 23.1355 178.458 23.4279 178.839 23.6398C179.229 23.8432 179.665 23.9449 180.148 23.9449Z" fill="white"/>
<path d="M192.284 18.313V24.1865C192.284 25.3222 192.004 26.1613 191.445 26.7037C190.894 27.2546 190.059 27.53 188.94 27.53C188.322 27.53 187.732 27.4368 187.173 27.2504C186.622 27.0724 186.173 26.8223 185.826 26.5003L186.283 25.8138C186.605 26.1019 186.995 26.3265 187.453 26.4876C187.919 26.6486 188.406 26.7291 188.915 26.7291C189.762 26.7291 190.385 26.5299 190.784 26.1316C191.182 25.7417 191.381 25.1315 191.381 24.3009V23.4491C191.102 23.8729 190.733 24.1949 190.275 24.4153C189.826 24.6357 189.326 24.7458 188.775 24.7458C188.148 24.7458 187.576 24.6102 187.059 24.339C186.55 24.0593 186.148 23.6737 185.851 23.1821C185.563 22.6821 185.419 22.1184 185.419 21.4913C185.419 20.8641 185.563 20.3047 185.851 19.8131C186.148 19.3215 186.55 18.9401 187.059 18.6689C187.567 18.3977 188.139 18.2621 188.775 18.2621C189.343 18.2621 189.856 18.3765 190.313 18.6054C190.771 18.8342 191.14 19.1647 191.419 19.597V18.313H192.284ZM188.864 23.9449C189.347 23.9449 189.784 23.8432 190.173 23.6398C190.563 23.4279 190.864 23.1355 191.076 22.7626C191.296 22.3897 191.407 21.9659 191.407 21.4913C191.407 21.0166 191.296 20.5971 191.076 20.2327C190.864 19.8597 190.563 19.5716 190.173 19.3682C189.792 19.1563 189.356 19.0503 188.864 19.0503C188.381 19.0503 187.944 19.152 187.555 19.3554C187.173 19.5589 186.872 19.847 186.652 20.2199C186.44 20.5929 186.334 21.0166 186.334 21.4913C186.334 21.9659 186.44 22.3897 186.652 22.7626C186.872 23.1355 187.173 23.4279 187.555 23.6398C187.944 23.8432 188.381 23.9449 188.864 23.9449Z" fill="white"/>
<path d="M200.631 21.9362H195.037C195.088 22.6312 195.355 23.1948 195.838 23.6271C196.321 24.0509 196.931 24.2627 197.668 24.2627C198.084 24.2627 198.465 24.1907 198.813 24.0466C199.16 23.8941 199.461 23.6737 199.715 23.3855L200.224 23.9703C199.927 24.3263 199.554 24.5975 199.105 24.784C198.664 24.9705 198.177 25.0637 197.643 25.0637C196.957 25.0637 196.346 24.9196 195.812 24.6314C195.287 24.3348 194.876 23.928 194.579 23.411C194.283 22.894 194.134 22.3091 194.134 21.6565C194.134 21.0039 194.274 20.4191 194.554 19.9021C194.842 19.3851 195.232 18.9825 195.723 18.6944C196.223 18.4062 196.783 18.2621 197.402 18.2621C198.02 18.2621 198.575 18.4062 199.067 18.6944C199.559 18.9825 199.944 19.3851 200.224 19.9021C200.504 20.4106 200.643 20.9954 200.643 21.6565L200.631 21.9362ZM197.402 19.0376C196.757 19.0376 196.215 19.2453 195.774 19.6606C195.342 20.0674 195.096 20.6013 195.037 21.2624H199.779C199.72 20.6013 199.47 20.0674 199.029 19.6606C198.597 19.2453 198.054 19.0376 197.402 19.0376Z" fill="white"/>
<path d="M203.345 19.6224C203.557 19.1732 203.871 18.8342 204.286 18.6054C204.71 18.3765 205.231 18.2621 205.85 18.2621V19.1393L205.634 19.1266C204.93 19.1266 204.379 19.3427 203.981 19.775C203.582 20.2072 203.383 20.8132 203.383 21.593V25.0001H202.481V18.313H203.345V19.6224Z" fill="white"/>
<line x1="145.489" y1="2.13736e-08" x2="145.489" y2="42" stroke="#E4E4E4" stroke-width="0.977941"/>
<defs>
<linearGradient id="paint0_linear_53_133461" x1="32.2478" y1="37.7463" x2="50.9339" y2="5.38464" gradientUnits="userSpaceOnUse">
<stop stop-color="#42B1ED"/>
<stop offset="0.29" stop-color="#57A6F2"/>
<stop offset="0.4" stop-color="#4EB3EE"/>
<stop offset="0.61" stop-color="#3FC6E7"/>
<stop offset="1" stop-color="#13F0D6"/>
</linearGradient>
<linearGradient id="paint1_linear_53_133461" x1="36.5514" y1="37.7498" x2="17.8653" y2="5.38811" gradientUnits="userSpaceOnUse">
<stop stop-color="#00A0FF"/>
<stop offset="0.39" stop-color="#844DB3"/>
<stop offset="0.45" stop-color="#973FA7"/>
<stop offset="0.57" stop-color="#CA1C88"/>
<stop offset="0.58" stop-color="#CF1885"/>
<stop offset="1" stop-color="#E90074"/>
</linearGradient>
<linearGradient id="paint2_linear_53_133461" x1="199.407" y1="1745.51" x2="915.205" y2="1489.86" gradientUnits="userSpaceOnUse">
<stop stop-color="#42B1ED"/>
<stop offset="0.29" stop-color="#57A6F2"/>
<stop offset="0.4" stop-color="#4EB3EE"/>
<stop offset="0.61" stop-color="#3FC6E7"/>
<stop offset="1" stop-color="#13F0D6"/>
</linearGradient>
<linearGradient id="paint3_linear_53_133461" x1="231.503" y1="1745.15" x2="-484.295" y2="1489.5" gradientUnits="userSpaceOnUse">
<stop stop-color="#00A0FF"/>
<stop offset="0.39" stop-color="#844DB3"/>
<stop offset="0.45" stop-color="#973FA7"/>
<stop offset="0.57" stop-color="#CA1C88"/>
<stop offset="0.58" stop-color="#CF1885"/>
<stop offset="1" stop-color="#E90074"/>
</linearGradient>
</defs>
</svg>
