<svg width="16" height="14" viewBox="0 0 16 14" fill="none" xmlns="http://www.w3.org/2000/svg">
<path d="M2.14476 6.64149L2.71045 6.0758L2.14476 6.64149ZM6.91774 1.86852L7.48342 1.30283L7.48342 1.30283L6.91774 1.86852ZM7.90629 2.85707L7.3406 3.42276C7.49064 3.57279 7.69413 3.65708 7.90631 3.65707C8.11848 3.65707 8.32197 3.57278 8.472 3.42274L7.90629 2.85707ZM7.90629 12.403L7.3406 12.9687C7.49063 13.1187 7.69412 13.203 7.90629 13.203C8.11847 13.203 8.32195 13.1187 8.47198 12.9687L7.90629 12.403ZM13.6677 6.64149L13.1021 6.0758L13.102 6.07581L13.6677 6.64149ZM8.89476 1.86852L8.32908 1.30283L8.32906 1.30286L8.89476 1.86852ZM2.71045 6.0758C1.70485 5.0702 1.70485 3.43981 2.71045 2.43421L1.57908 1.30283C-0.0513598 2.93327 -0.0513598 5.57674 1.57908 7.20718L2.71045 6.0758ZM2.71045 2.43421C3.71605 1.42861 5.34645 1.42861 6.35205 2.43421L7.48342 1.30283C5.85298 -0.327605 3.20952 -0.327605 1.57908 1.30283L2.71045 2.43421ZM6.35205 2.43421L7.3406 3.42276L8.47197 2.29139L7.48342 1.30283L6.35205 2.43421ZM1.57908 7.20718L7.3406 12.9687L8.47197 11.8373L2.71045 6.0758L1.57908 7.20718ZM13.102 2.4342C14.1077 3.4398 14.1077 5.0702 13.1021 6.0758L14.2334 7.20718C15.8639 5.57674 15.8639 2.93327 14.2334 1.30283L13.102 2.4342ZM9.46045 2.43421C10.466 1.4286 12.0964 1.4286 13.102 2.4342L14.2334 1.30283C12.603 -0.327605 9.95952 -0.327605 8.32908 1.30283L9.46045 2.43421ZM13.102 6.07581L7.3406 11.8373L8.47198 12.9687L14.2334 7.20717L13.102 6.07581ZM8.32906 1.30286L7.34058 2.29141L8.472 3.42274L9.46047 2.43418L8.32906 1.30286Z" fill="white"/>
</svg>
