<svg width="11" height="11" viewBox="0 0 11 11" fill="none" xmlns="http://www.w3.org/2000/svg">
<path fill-rule="evenodd" clip-rule="evenodd" d="M10.7699 0.23013C11.0767 0.536971 11.0767 1.03446 10.7699 1.3413L1.3413 10.7699C1.03446 11.0767 0.536971 11.0767 0.23013 10.7699C-0.0767101 10.463 -0.0767101 9.96554 0.23013 9.6587L9.6587 0.23013C9.96554 -0.0767101 10.463 -0.0767101 10.7699 0.23013Z" fill="white"/>
<path fill-rule="evenodd" clip-rule="evenodd" d="M0.23013 0.23013C0.536971 -0.0767101 1.03446 -0.0767101 1.3413 0.23013L10.7699 9.6587C11.0767 9.96554 11.0767 10.463 10.7699 10.7699C10.463 11.0767 9.96554 11.0767 9.6587 10.7699L0.23013 1.3413C-0.0767101 1.03446 -0.0767101 0.536971 0.23013 0.23013Z" fill="white"/>
</svg>
