<svg width="14" height="13" viewBox="0 0 14 13" fill="none" xmlns="http://www.w3.org/2000/svg">
<path d="M9.30397 4.3922L9.37901 4.54432L9.54687 4.56872L13.4721 5.13918C13.4723 5.1392 13.4724 5.13922 13.4725 5.13924C13.5698 5.15391 13.6321 5.24229 13.6182 5.33227L13.6177 5.33584C13.6125 5.37247 13.5952 5.40682 13.5676 5.4339C13.5676 5.43395 13.5675 5.43401 13.5675 5.43407L10.7274 8.20306L10.6059 8.32144L10.6346 8.48857L11.3057 12.3994L11.3058 12.3996C11.3218 12.4923 11.2596 12.5813 11.1652 12.5976L11.1648 12.5976C11.1273 12.6042 11.0889 12.5978 11.0577 12.5812L11.0562 12.5804L7.54441 10.7341L7.3943 10.6551L7.24419 10.7341L3.73236 12.5804L3.73186 12.5807C3.70352 12.5957 3.67155 12.6024 3.63959 12.6001C3.60762 12.5978 3.57693 12.5866 3.551 12.5678C3.52507 12.549 3.50493 12.5233 3.49287 12.4936C3.48082 12.4639 3.47732 12.4314 3.48279 12.3998L3.48286 12.3994L4.15399 8.48857L4.18267 8.32144L4.06125 8.20306L1.22055 5.43348L1.22052 5.43346C1.18768 5.40145 1.16889 5.3577 1.16828 5.31184C1.16768 5.26617 1.18515 5.22212 1.21688 5.18929C1.24392 5.16187 1.27818 5.14466 1.3147 5.13944L1.31547 5.13933L5.24174 4.56872L5.40959 4.54432L5.48463 4.3922L7.239 0.835533C7.2391 0.835336 7.2392 0.83514 7.2393 0.834944C7.28274 0.748838 7.38711 0.714828 7.4711 0.756291L7.47147 0.756475C7.50501 0.772978 7.53219 0.800154 7.54869 0.833692L7.54883 0.833972L9.30397 4.3922Z" fill="url(#paint0_linear_260_9766)" stroke="url(#paint1_linear_260_9766)" stroke-width="0.645128"/>
<defs>
<linearGradient id="paint0_linear_260_9766" x1="0.845703" y1="6.66956" x2="13.9428" y2="6.66956" gradientUnits="userSpaceOnUse">
<stop stop-color="#1DA1F2"/>
<stop offset="1" stop-color="#009FFC"/>
</linearGradient>
<linearGradient id="paint1_linear_260_9766" x1="0.845703" y1="6.66956" x2="13.9428" y2="6.66956" gradientUnits="userSpaceOnUse">
<stop stop-color="#1DA1F2"/>
<stop offset="1" stop-color="#009FFC"/>
</linearGradient>
</defs>
</svg>
