<svg width="40" height="40" viewBox="0 0 40 40" fill="none" xmlns="http://www.w3.org/2000/svg">
<circle cx="19.8636" cy="19.8627" r="16.5511" fill="#0477F1"/>
<path fill-rule="evenodd" clip-rule="evenodd" d="M29.2116 13.5545C29.5419 13.8848 29.7799 14.2958 29.9019 14.7467C30.6044 17.5745 30.442 22.0405 29.9155 24.9775C29.7935 25.4283 29.5555 25.8394 29.2252 26.1696C28.895 26.4999 28.4839 26.7379 28.033 26.8599C26.3825 27.3101 19.7393 27.3101 19.7393 27.3101C19.7393 27.3101 13.0961 27.3101 11.4455 26.8599C10.9947 26.7379 10.5836 26.4999 10.2533 26.1696C9.92307 25.8394 9.68508 25.4283 9.56307 24.9775C8.85647 22.162 9.05017 17.6931 9.54943 14.7603C9.67144 14.3095 9.90943 13.8984 10.2397 13.5681C10.57 13.2379 10.981 12.9999 11.4319 12.8779C13.0825 12.4277 19.7256 12.4141 19.7256 12.4141C19.7256 12.4141 26.3688 12.4141 28.0194 12.8642C28.4703 12.9862 28.8813 13.2242 29.2116 13.5545ZM23.1223 19.8621L17.6113 23.0541V16.6701L23.1223 19.8621Z" fill="white"/>
</svg>
