<svg width="22" height="22" viewBox="0 0 22 22" fill="none" xmlns="http://www.w3.org/2000/svg">
<circle cx="10.554" cy="10.7549" r="10.5242" fill="white"/>
<path d="M16.018 8.02644C15.8809 7.52736 15.4795 7.13385 14.9703 6.99948C14.0401 6.74994 10.3194 6.74994 10.3194 6.74994C10.3194 6.74994 6.59863 6.74994 5.66844 6.98988C5.16908 7.12425 4.75784 7.52736 4.62076 8.02644C4.37598 8.93823 4.37598 10.829 4.37598 10.829C4.37598 10.829 4.37598 12.7294 4.62076 13.6315C4.75784 14.1306 5.15929 14.5241 5.66844 14.6585C6.60842 14.9081 10.3194 14.9081 10.3194 14.9081C10.3194 14.9081 14.0401 14.9081 14.9703 14.6681C15.4795 14.5337 15.8809 14.1402 16.018 13.6411C16.2628 12.7294 16.2628 10.8386 16.2628 10.8386C16.2628 10.8386 16.2726 8.93823 16.018 8.02644Z" fill="#0D0D2A"/>
<path d="M9.13525 12.5757L12.2293 10.8289L9.13525 9.08215V12.5757Z" fill="white"/>
</svg>
