<svg width="22" height="22" viewBox="0 0 22 22" fill="none" xmlns="http://www.w3.org/2000/svg">
<circle cx="11.4143" cy="10.7549" r="10.5242" fill="white"/>
<path d="M11.1829 5.64859C12.7716 5.64859 12.9581 5.65567 13.5861 5.684C14.1668 5.70997 14.4808 5.80676 14.6909 5.88938C14.9694 5.99797 15.1677 6.12545 15.3755 6.33319C15.5832 6.54093 15.713 6.73923 15.8193 7.01779C15.8995 7.22789 15.9987 7.54186 16.0246 8.12258C16.053 8.75052 16.0601 8.93702 16.0601 10.5258C16.0601 12.1145 16.053 12.301 16.0246 12.9289C15.9987 13.5097 15.9019 13.8236 15.8193 14.0337C15.7107 14.3123 15.5832 14.5106 15.3755 14.7183C15.1677 14.9261 14.9694 15.0559 14.6909 15.1621C14.4808 15.2424 14.1668 15.3415 13.5861 15.3675C12.9581 15.3958 12.7716 15.4029 11.1829 15.4029C9.59415 15.4029 9.40765 15.3958 8.77971 15.3675C8.19898 15.3415 7.88501 15.2448 7.67491 15.1621C7.39635 15.0535 7.19805 14.9261 6.99031 14.7183C6.78257 14.5106 6.65274 14.3123 6.54651 14.0337C6.46624 13.8236 6.36709 13.5097 6.34113 12.9289C6.3128 12.301 6.30572 12.1145 6.30572 10.5258C6.30572 8.93702 6.3128 8.75052 6.34113 8.12258C6.36709 7.54186 6.46388 7.22789 6.54651 7.01779C6.6551 6.73923 6.78257 6.54093 6.99031 6.33319C7.19805 6.12545 7.39635 5.99561 7.67491 5.88938C7.88501 5.80912 8.19898 5.70997 8.77971 5.684C9.40765 5.65331 9.59651 5.64859 11.1829 5.64859ZM11.1829 4.57684C9.56818 4.57684 9.36516 4.58393 8.73014 4.61225C8.09747 4.64058 7.66547 4.74209 7.28776 4.88845C6.89589 5.03954 6.56539 5.24492 6.2349 5.57541C5.9044 5.90591 5.70138 6.23876 5.54794 6.62827C5.40158 7.00598 5.30007 7.43799 5.27174 8.07301C5.24341 8.70567 5.23633 8.90869 5.23633 10.5234C5.23633 12.1381 5.24341 12.3411 5.27174 12.9761C5.30007 13.6088 5.40158 14.0408 5.54794 14.4209C5.69902 14.8127 5.9044 15.1432 6.2349 15.4737C6.56539 15.8042 6.89825 16.0073 7.28776 16.1607C7.66547 16.3071 8.09747 16.4086 8.7325 16.4369C9.36752 16.4652 9.56818 16.4723 11.1852 16.4723C12.8023 16.4723 13.003 16.4652 13.638 16.4369C14.2707 16.4086 14.7027 16.3071 15.0827 16.1607C15.4746 16.0096 15.8051 15.8042 16.1356 15.4737C16.4661 15.1432 16.6691 14.8104 16.8226 14.4209C16.9689 14.0432 17.0704 13.6112 17.0988 12.9761C17.1271 12.3411 17.1342 12.1405 17.1342 10.5234C17.1342 8.90633 17.1271 8.70567 17.0988 8.07065C17.0704 7.43799 16.9689 7.00598 16.8226 6.62591C16.6715 6.23404 16.4661 5.90355 16.1356 5.57305C15.8051 5.24255 15.4722 5.03954 15.0827 4.88609C14.705 4.73973 14.273 4.63822 13.638 4.60989C13.0006 4.58393 12.7976 4.57684 11.1829 4.57684Z" fill="#0D0D2A"/>
<path d="M11.1829 5.64859C12.7716 5.64859 12.9581 5.65567 13.5861 5.684C14.1668 5.70997 14.4808 5.80676 14.6909 5.88938C14.9694 5.99797 15.1677 6.12545 15.3755 6.33319C15.5832 6.54093 15.713 6.73923 15.8193 7.01779C15.8995 7.22789 15.9987 7.54186 16.0246 8.12258C16.053 8.75052 16.0601 8.93702 16.0601 10.5258C16.0601 12.1145 16.053 12.301 16.0246 12.9289C15.9987 13.5097 15.9019 13.8236 15.8193 14.0337C15.7107 14.3123 15.5832 14.5106 15.3755 14.7183C15.1677 14.9261 14.9694 15.0559 14.6909 15.1621C14.4808 15.2424 14.1668 15.3415 13.5861 15.3675C12.9581 15.3958 12.7716 15.4029 11.1829 15.4029C9.59415 15.4029 9.40765 15.3958 8.77971 15.3675C8.19898 15.3415 7.88501 15.2448 7.67491 15.1621C7.39635 15.0535 7.19805 14.9261 6.99031 14.7183C6.78257 14.5106 6.65274 14.3123 6.54651 14.0337C6.46624 13.8236 6.36709 13.5097 6.34113 12.9289C6.3128 12.301 6.30572 12.1145 6.30572 10.5258C6.30572 8.93702 6.3128 8.75052 6.34113 8.12258C6.36709 7.54186 6.46388 7.22789 6.54651 7.01779C6.6551 6.73923 6.78257 6.54093 6.99031 6.33319C7.19805 6.12545 7.39635 5.99561 7.67491 5.88938C7.88501 5.80912 8.19898 5.70997 8.77971 5.684C9.40765 5.65331 9.59651 5.64859 11.1829 5.64859Z" fill="#0D0D2A"/>
<path d="M11.1831 7.47107C9.49761 7.47107 8.12842 8.8379 8.12842 10.5258C8.12842 12.2137 9.49525 13.5805 11.1831 13.5805C12.871 13.5805 14.2379 12.2137 14.2379 10.5258C14.2379 8.8379 12.871 7.47107 11.1831 7.47107ZM11.1831 12.5064C10.0878 12.5064 9.20017 11.6188 9.20017 10.5234C9.20017 9.42807 10.0878 8.54046 11.1831 8.54046C12.2785 8.54046 13.1661 9.42807 13.1661 10.5234C13.1661 11.6188 12.2785 12.5064 11.1831 12.5064Z" fill="white"/>
<path d="M14.3584 8.06135C14.7522 8.06135 15.0714 7.74216 15.0714 7.34842C15.0714 6.95469 14.7522 6.6355 14.3584 6.6355C13.9647 6.6355 13.6455 6.95469 13.6455 7.34842C13.6455 7.74216 13.9647 8.06135 14.3584 8.06135Z" fill="white"/>
</svg>
