<svg width="20" height="20" viewBox="0 0 20 20" fill="none" xmlns="http://www.w3.org/2000/svg">
<path d="M13.6184 16.458C13.1294 16.9122 12.5974 17.3048 12.0317 17.6322H20V16.458H13.6184Z" fill="#2364B5"/>
<path d="M15.9392 12.9355C15.797 13.3389 15.6252 13.7312 15.425 14.1097H20V12.9355H15.9392Z" fill="#2364B5"/>
<path d="M15.425 5.89062C15.6252 6.26914 15.797 6.66141 15.9392 7.06481H20V5.89062H15.425Z" fill="#2364B5"/>
<path d="M16.4187 9.41312C16.4315 9.60773 16.4384 9.80344 16.4384 10.0002C16.4384 10.197 16.4315 10.3927 16.4187 10.5873H20.0001V9.41309H16.4187V9.41312Z" fill="#2364B5"/>
<path d="M7.63211 2.36816C3.42375 2.36816 0 5.79195 0 10.0003C0 14.2086 3.42375 17.6324 7.63211 17.6324C11.8405 17.6324 15.2642 14.2086 15.2642 10.0003C15.2642 5.79195 11.8404 2.36816 7.63211 2.36816ZM12.327 14.4297H10.1894L9.11805 16.2854C8.64078 16.3982 8.14332 16.4582 7.63207 16.4582C7.12082 16.4582 6.6234 16.3982 6.14609 16.2854L5.07473 14.4296H2.93719C2.25594 13.708 1.73902 12.8299 1.44625 11.8556L2.51742 10.0003L1.44621 8.14488C1.73898 7.17059 2.2559 6.29246 2.93715 5.57082H5.07473L6.14609 3.71512C6.62344 3.6023 7.1209 3.5423 7.63211 3.5423C8.14336 3.5423 8.64078 3.6023 9.11809 3.71516L10.1895 5.57086H12.327C13.0083 6.2925 13.5252 7.17063 13.818 8.14492L12.7468 10.0003L13.818 11.8557C13.5252 12.83 13.0082 13.708 12.327 14.4297Z" fill="#2364B5"/>
<path d="M8.98783 7.65186H6.27623L4.92041 10.0002L6.27623 12.3485H8.98783L10.3437 10.0002L8.98783 7.65186Z" fill="#2364B5"/>
</svg>
