<svg width="20" height="20" viewBox="0 0 20 20" fill="none" xmlns="http://www.w3.org/2000/svg">
<g clip-path="url(#clip0_805_15869)">
<path d="M14.8968 17.6562H5.10327C4.77968 17.6562 4.51733 17.9186 4.51733 18.2422V19.414C4.51733 19.7376 4.77968 20 5.10327 20H14.8968C15.2204 20 15.4828 19.7376 15.4828 19.414V18.2422C15.4828 17.9186 15.2204 17.6562 14.8968 17.6562Z" fill="#2364B5"/>
<path d="M12.2953 14.8098H11.8818C11.7508 14.4591 11.6599 13.8875 11.6517 13.147C11.1339 13.2825 10.5812 13.3512 9.9955 13.3512C9.48452 13.3512 8.92586 13.2972 8.35528 13.1495C8.35352 13.4957 8.33348 13.8778 8.27555 14.2311C8.24278 14.4309 8.19278 14.6381 8.127 14.8098H7.70458C6.95072 14.8098 6.3374 15.4231 6.3374 16.1769V16.4841H13.6625V16.1769C13.6625 15.4231 13.0492 14.8098 12.2953 14.8098Z" fill="#2364B5"/>
<path d="M19.0196 2.354H16.9364C16.9112 2.63467 16.8892 2.92263 16.8731 3.13302C16.8634 3.26044 16.8533 3.39177 16.8428 3.52587H18.412C18.2809 5.13219 17.553 6.52823 16.2427 7.69084C16.1163 8.19095 15.9631 8.68497 15.7748 9.15958C15.7011 9.34539 15.6228 9.52477 15.5408 9.69867L16.2437 9.18977C18.4745 7.57486 19.6056 5.48843 19.6056 2.98845V2.9399C19.6056 2.61631 19.3432 2.354 19.0196 2.354Z" fill="#2364B5"/>
<path d="M3.71356 7.65611C2.42958 6.49987 1.71635 5.11547 1.58744 3.52587H3.11212C3.09884 3.35599 3.08642 3.19083 3.07442 3.03123C3.05993 2.83838 3.04161 2.59506 3.02095 2.354H0.98022C0.656629 2.354 0.394287 2.61635 0.394287 2.93994V2.99275C0.394287 5.48964 1.52338 7.57463 3.75024 9.18981L4.42293 9.6777C4.33641 9.49438 4.25317 9.30278 4.17391 9.10161C3.98938 8.63337 3.83856 8.14747 3.71356 7.65611Z" fill="#2364B5"/>
<path d="M3.50488 1.17194H4.0523C4.13659 1.52792 4.19472 2.30139 4.243 2.94361C4.36593 4.57946 4.53428 6.81983 5.26416 8.67224C6.18115 10.9996 7.77301 12.1796 9.99545 12.1796C12.1988 12.1796 13.7768 11.0182 14.6855 8.72763C15.4101 6.90135 15.5803 4.67188 15.7046 3.04396C15.7569 2.35904 15.8201 1.53136 15.9153 1.17187H16.495C16.8186 1.17187 17.0809 0.909524 17.0809 0.585933C17.0809 0.262342 16.8186 0 16.495 0H3.50488C3.18129 0 2.91895 0.262342 2.91895 0.585933C2.91895 0.909602 3.18129 1.17194 3.50488 1.17194Z" fill="#2364B5"/>
</g>
<defs>
<clipPath id="clip0_805_15869">
<rect width="20" height="20" fill="white"/>
</clipPath>
</defs>
</svg>
