<svg width="20" height="20" viewBox="0 0 20 20" fill="none" xmlns="http://www.w3.org/2000/svg">
<path d="M7.72437 8.34127C7.88846 8.51025 8.07115 8.70323 8.26709 8.91125C8.27686 8.90258 8.28738 8.89451 8.29804 8.88696C8.59025 8.74115 9.11964 7.83416 9.50619 7.17168C9.78788 6.64962 10.1118 6.15132 10.4749 5.68205V5.51825C10.4754 5.41272 10.4157 5.31601 10.3209 5.26943L9.70776 4.96248C9.60075 4.90894 9.47139 4.9299 9.38689 5.01462L9.3843 5.01713C8.75487 5.90184 7.77376 7.52291 7.77376 8.1762C7.7725 8.23456 7.75539 8.29165 7.72437 8.34127Z" fill="#2364B5"/>
<path d="M7.16602 6.61461C7.2631 6.94518 7.2728 7.29537 7.19401 7.63098C7.50377 6.57232 8.49969 5.10365 8.78679 4.69273V4.53196C8.78686 4.39 8.71585 4.25752 8.59759 4.1791L8.25984 3.95361C8.42482 4.75434 8.31397 5.74834 7.16602 6.61461Z" fill="#2364B5"/>
<path d="M16.1473 9.18235C15.389 9.05979 14.6151 9.07031 13.8602 9.21352L13.8329 9.29579C13.827 9.30935 13.8202 9.32267 13.8125 9.33526C13.8086 9.34541 13.804 9.35526 13.7991 9.36474C13.7964 9.36948 13.7934 9.37407 13.7904 9.37858C13.7697 9.40946 13.7443 9.43679 13.715 9.45923C13.1558 9.90857 12.6384 10.4078 12.1696 10.9509C12.1358 10.988 12.1022 11.0225 12.0703 11.059C12.0746 11.059 12.0796 11.0627 12.0842 11.0645C12.2243 11.1122 12.3689 11.1694 12.516 11.2332L12.5743 11.2582C12.7223 11.323 12.8725 11.3938 13.0251 11.4709L13.0725 11.4948C14.0671 12.0316 15.0289 12.6272 15.9521 13.279C16.2716 13.5088 16.6032 13.7214 16.9452 13.916H17.5932C17.7436 12.814 18.471 10.506 18.7921 9.51262C17.9036 9.46656 17.0198 9.35615 16.1473 9.18235Z" fill="#2364B5"/>
<path d="M3.69011 5.8126L3.75779 5.86191C3.802 5.89354 3.8448 5.92375 3.88834 5.95441C3.96877 6.01135 4.04956 6.06852 4.13457 6.12769L4.15086 6.13917L4.15686 6.12295C4.12509 6.07771 4.08932 6.02572 4.05563 5.9764C3.43255 5.08258 2.77926 4.10242 2.23735 3.19579C1.79733 3.00332 1.39019 2.81397 1.08398 2.66846C1.14404 3.01199 1.23016 3.35078 1.34124 3.68135C1.40878 3.88152 1.7369 4.26615 2.42181 4.83887C2.82177 5.17315 3.27179 5.51209 3.69011 5.8126Z" fill="#2364B5"/>
<path d="M8.72974 9.40903C9.00299 9.70605 9.2835 10.0167 9.5552 10.3303C9.77202 9.55899 10.4033 8.46561 11.5283 7.32537L11.5638 7.2194C11.6692 6.89861 11.5243 6.54871 11.2229 6.39653L10.897 6.2334C10.6037 6.64453 10.3341 7.07181 10.0894 7.51353C9.51906 8.48968 9.12436 9.13008 8.72974 9.40903Z" fill="#2364B5"/>
<path d="M10.1143 10.9921C10.267 11.1789 10.41 11.3607 10.5405 11.5339C10.7291 11.4375 10.8998 11.309 11.0445 11.154C11.055 11.1443 11.0654 11.1338 11.0755 11.1237C11.1208 11.0795 11.1647 11.0357 11.2042 10.9951L11.2299 10.9683C11.2832 10.913 11.3377 10.8556 11.3932 10.7962L11.4321 10.7552C11.5096 10.6714 11.5896 10.5845 11.6718 10.4947C11.7796 10.3773 11.8913 10.2559 12.0058 10.1334C12.0395 10.0972 12.0732 10.0612 12.1093 10.025C12.1937 9.93628 12.2783 9.84734 12.3665 9.75856L12.4197 9.70494C12.4534 9.6711 12.4872 9.63978 12.5209 9.60668C12.5956 9.5341 12.67 9.46213 12.7473 9.39126C12.7742 9.36652 12.8004 9.34187 12.828 9.31772C12.8672 9.28381 12.908 9.25004 12.9478 9.21635C12.9944 9.17658 13.0387 9.1343 13.0863 9.09549L12.8161 8.55218C12.6771 8.27255 12.432 8.05988 12.1355 7.96198L11.9225 7.89111C10.7656 9.09372 10.1372 10.314 10.1372 10.8776C10.1362 10.9167 10.1284 10.9554 10.1143 10.9921Z" fill="#2364B5"/>
<path d="M2.91183 3.0032C2.9773 3.11139 3.04483 3.22202 3.11429 3.33532C3.16643 3.41856 3.21848 3.50157 3.27069 3.58421C3.32505 3.67063 3.38258 3.75949 3.43953 3.84828C3.5495 4.01875 3.65813 4.18567 3.76566 4.34888L3.91961 4.58133C3.98722 4.68256 4.05476 4.78112 4.11777 4.87672C4.22656 5.03697 4.3369 5.19951 4.45168 5.36517C4.4696 5.39153 4.48559 5.41597 4.50418 5.4413C4.86281 4.92456 5.33431 4.49631 5.88303 4.18855L5.89044 4.18455L5.93642 4.15989C5.98508 4.13383 6.03143 4.10347 6.07453 4.06911C6.09038 4.05718 6.10652 4.04437 6.12393 4.0303C6.15769 4.00253 6.19139 3.97158 6.22338 3.93885C6.24426 3.91856 6.26492 3.8996 6.28758 3.8759C6.31528 3.84658 6.34305 3.81414 6.37059 3.7823C6.39829 3.75068 6.43243 3.71225 6.46582 3.67063L6.48885 3.64086C6.32809 2.61413 6.19472 1.26926 6.12992 0.568359C3.98648 1.45188 2.63073 1.32199 1.87695 1.0671C2.14643 1.67618 2.45767 2.2663 2.80853 2.83266C2.8443 2.88938 2.87807 2.94647 2.91183 3.0032Z" fill="#2364B5"/>
<path d="M15.5794 13.8418C15.0053 13.4527 14.2413 12.9324 13.4775 12.4861L13.4701 12.4818C13.3823 12.4304 13.2944 12.3802 13.2064 12.3311L13.1665 12.3088C13.0896 12.2663 13.0129 12.2248 12.9369 12.1843L12.8722 12.1506C12.8047 12.1151 12.7369 12.0814 12.6716 12.0491L12.5879 12.0079C12.5284 11.9791 12.4697 11.9516 12.4115 11.9249C12.3778 11.91 12.347 11.8952 12.315 11.8814C12.262 11.8578 12.2096 11.8357 12.1573 11.8138C12.1236 11.8001 12.0899 11.7858 12.0561 11.7727C12.0074 11.7537 11.9602 11.7368 11.9128 11.7199C11.879 11.7079 11.8453 11.6954 11.8116 11.6841C11.767 11.6697 11.7237 11.6572 11.6806 11.6451C11.6468 11.6355 11.613 11.6254 11.5793 11.6173C11.5681 11.6146 11.5576 11.6129 11.5456 11.6104C11.4166 11.7396 11.2782 11.8591 11.1318 11.9682L14.0089 16.5716C14.8652 16.3595 16.5207 15.852 17.1402 15.2499L16.6285 14.5183C16.2669 14.3116 15.9168 14.0858 15.5794 13.8418Z" fill="#2364B5"/>
<path d="M10.475 12.3555C10.3646 12.3557 10.2611 12.3019 10.1979 12.2115C9.14692 10.7086 6.5482 8.10328 6.52206 8.07736C6.41928 7.97465 6.3938 7.81766 6.45867 7.6877C6.60611 7.35357 6.60611 6.97302 6.45867 6.63904C6.38247 6.48657 6.43179 6.30159 6.57331 6.20732C7.88114 5.33572 7.7808 4.37912 7.41054 3.50293C7.26177 3.74204 7.09619 3.97005 6.91483 4.18525C6.89417 4.20961 6.87322 4.23286 6.85263 4.25626C6.81138 4.30225 6.76925 4.34579 6.72645 4.38897C6.69675 4.41873 6.66661 4.44939 6.63721 4.47635C6.60152 4.51004 6.56434 4.53818 6.52784 4.5681C6.49748 4.59253 6.46682 4.61993 6.4366 4.64134C6.37781 4.68406 6.31582 4.72198 6.25118 4.75523C6.24614 4.75804 6.24148 4.76174 6.23681 4.76434C5.75147 5.03463 5.33752 5.41659 5.02909 5.8786L5.02495 5.88504C4.99318 5.93503 4.96319 5.98642 4.93445 6.04018L4.93016 6.04833C4.90106 6.10283 4.87381 6.15859 4.84885 6.21724L4.84633 6.22309C4.82108 6.28078 4.79946 6.33624 4.77872 6.39186C4.75821 6.44747 4.73896 6.51101 4.72333 6.57314C4.716 6.60217 4.70467 6.62994 4.68964 6.65585C4.68423 6.66444 4.67823 6.67281 4.67179 6.68044C4.66179 6.69621 4.65054 6.71117 4.63802 6.72517C4.60551 6.76138 4.575 6.79944 4.54657 6.83891C4.3701 7.09024 4.24155 7.37194 4.16727 7.66978C4.09463 7.94518 4.05849 8.22909 4.05975 8.5139C4.07693 8.90845 4.19445 9.29182 4.40135 9.62809C5.28894 11.2814 5.24103 13.2795 4.27531 14.8882L1.92408 18.807C1.86128 18.9114 1.85951 19.0411 1.91964 19.147C1.97955 19.2531 2.09181 19.3184 2.21348 19.3185H7.35641C7.48437 19.3189 7.60145 19.2464 7.65832 19.1317L8.56013 17.3283C8.71416 17.0316 8.84493 16.7234 8.95135 16.4063C9.07301 16.0315 9.22253 15.6663 9.39847 15.3137L9.49741 15.116C9.5194 15.0723 9.5505 15.0337 9.58871 15.0032L11.3444 13.5819L10.5676 12.3414C10.5375 12.3504 10.5064 12.3554 10.475 12.3555ZM8.59989 14.8953C8.51992 14.9354 8.42706 14.942 8.34212 14.9137C8.25696 14.8853 8.18698 14.8243 8.14684 14.7441C7.5559 13.5624 6.03383 13.2389 6.01976 13.2359C5.84152 13.1948 5.72852 13.0195 5.76458 12.8403C5.80035 12.6611 5.97259 12.5431 6.15276 12.5741C6.22837 12.589 8.0097 12.961 8.75252 14.4422C8.7925 14.5226 8.79902 14.6155 8.77036 14.7004C8.7417 14.7855 8.68039 14.8557 8.59989 14.8953Z" fill="#2364B5"/>
<path d="M7.15855 7.75732L7.15796 7.7594H7.15818L7.15855 7.75732Z" fill="#2364B5"/>
<path d="M3.00341 7.17171C3.19217 7.18245 3.38944 7.20252 3.59397 7.23273C3.60641 7.19704 3.62071 7.16527 3.63374 7.1315C3.65144 7.08603 3.66743 7.04071 3.68683 6.99843C3.70609 6.95629 3.72793 6.90905 3.74882 6.86654C3.76718 6.82974 3.78429 6.79271 3.80273 6.75946C3.80783 6.75005 3.8128 6.73813 3.81791 6.7291L3.79243 6.71118C3.42373 6.45562 3.08731 6.21369 2.78296 5.98486C2.8887 6.45895 2.96194 6.89786 3.00341 7.17171Z" fill="#2364B5"/>
</svg>
