<svg width="15" height="16" viewBox="0 0 15 16" fill="none" xmlns="http://www.w3.org/2000/svg">
<g clip-path="url(#clip0_660_19249)">
<path d="M11.1726 13.7422H3.82739C3.5847 13.7422 3.38794 13.9389 3.38794 14.1816V15.0605C3.38794 15.3032 3.5847 15.5 3.82739 15.5H11.1726C11.4152 15.5 11.612 15.3032 11.612 15.0605V14.1816C11.612 13.9389 11.4152 13.7422 11.1726 13.7422Z" fill="white"/>
<path d="M9.22161 11.6075H8.91145C8.81319 11.3445 8.74505 10.9157 8.73889 10.3604C8.35057 10.462 7.93599 10.5135 7.49675 10.5135C7.11352 10.5135 6.69452 10.473 6.26658 10.3623C6.26526 10.6219 6.25023 10.9085 6.20678 11.1734C6.1822 11.3233 6.14471 11.4787 6.09537 11.6074H5.77856C5.21316 11.6074 4.75317 12.0674 4.75317 12.6328V12.8632H10.247V12.6328C10.247 12.0675 9.78701 11.6075 9.22161 11.6075Z" fill="white"/>
<path d="M14.2647 2.26562H12.7023C12.6833 2.47612 12.6668 2.6921 12.6548 2.84989C12.6475 2.94545 12.6399 3.04395 12.632 3.14452H13.809C13.7106 4.34926 13.1647 5.39629 12.182 6.26825C12.0872 6.64334 11.9723 7.01385 11.831 7.3698C11.7758 7.50917 11.717 7.6437 11.6555 7.77413L12.1827 7.39245C13.8558 6.18127 14.7041 4.61645 14.7041 2.74146V2.70505C14.7041 2.46235 14.5074 2.26562 14.2647 2.26562Z" fill="white"/>
<path d="M2.78511 6.24221C1.82213 5.37503 1.2872 4.33672 1.19052 3.14452H2.33403C2.32407 3.01711 2.31475 2.89325 2.30576 2.77354C2.29489 2.6289 2.28115 2.44641 2.26565 2.26562H0.735104C0.492411 2.26562 0.295654 2.46238 0.295654 2.70507V2.74468C0.295654 4.61735 1.14247 6.18109 2.81262 7.39248L3.31714 7.7584C3.25224 7.62091 3.18981 7.47721 3.13037 7.32633C2.99197 6.97515 2.87886 6.61073 2.78511 6.24221Z" fill="white"/>
<path d="M2.62866 1.37896H3.03922C3.10244 1.64594 3.14604 2.22604 3.18225 2.70771C3.27444 3.93459 3.40071 5.61487 3.94812 7.00418C4.63586 8.74967 5.82976 9.63472 7.49659 9.63472C9.14913 9.63472 10.3326 8.76365 11.0141 7.04572C11.5575 5.67601 11.6852 4.00391 11.7784 2.78297C11.8177 2.26928 11.8651 1.64852 11.9365 1.3789H12.3712C12.6139 1.3789 12.8107 1.18214 12.8107 0.93945C12.8107 0.696756 12.6139 0.5 12.3712 0.5H2.62866C2.38597 0.5 2.18921 0.696756 2.18921 0.93945C2.18921 1.1822 2.38597 1.37896 2.62866 1.37896Z" fill="white"/>
</g>
<defs>
<clipPath id="clip0_660_19249">
<rect width="15" height="15" fill="white" transform="translate(0 0.5)"/>
</clipPath>
</defs>
</svg>
