<svg width="15" height="16" viewBox="0 0 15 16" fill="none" xmlns="http://www.w3.org/2000/svg">
<g clip-path="url(#clip0_660_18779)">
<path d="M0.882353 5.79401H3.52941V4.0293H0.882353C0.395294 4.0293 0 4.42456 0 4.91165C0 5.39901 0.395 5.79401 0.882353 5.79401Z" fill="white"/>
<path d="M4.41162 2.26465H7.05868V5.79406H4.41162V2.26465Z" fill="white"/>
<path d="M7.94116 0.5H11.0294V5.79412H7.94116V0.5Z" fill="white"/>
<path d="M0.882353 6.67638C0.561029 6.67638 0.259765 6.58964 0 6.43896V13.294C0 14.5103 0.989559 15.4999 2.20588 15.4999H15V13.294H12.3529C11.1366 13.294 10.1471 12.3045 10.1471 11.0881C10.1471 9.87182 11.1366 8.88226 12.3529 8.88226H15V6.67638C14.1091 6.67638 0.975235 6.67638 0.882353 6.67638ZM5.16488 12.1532L4.54097 12.7771L3.91703 12.1532L3.29312 12.7771L2.66921 12.1532L3.29315 11.5293L2.66924 10.9054L3.29315 10.2815L3.91706 10.9054L4.541 10.2815L5.16491 10.9054L4.54097 11.5293L5.16488 12.1532ZM8.82353 11.9705H7.05882V12.8528H8.82353V13.7352H6.17647V11.0881H7.94118V10.2058H6.17647V9.32344H8.82353V11.9705Z" fill="white"/>
<path d="M11.0293 11.0882C11.0293 11.818 11.623 12.4117 12.3528 12.4117H14.9999V9.76465H12.3528C11.623 9.76465 11.0293 10.3584 11.0293 11.0882ZM13.2352 11.5294H12.3528V10.647H13.2352V11.5294Z" fill="white"/>
<path d="M11.9119 4.0293H13.6766V5.79401H11.9119V4.0293Z" fill="white"/>
</g>
<defs>
<clipPath id="clip0_660_18779">
<rect width="15" height="15" fill="white" transform="translate(0 0.5)"/>
</clipPath>
</defs>
</svg>
