<svg width="250" height="210" viewBox="0 0 250 210" fill="none" xmlns="http://www.w3.org/2000/svg">
<path d="M38.6643 121.827L41.7571 120.032L44.8398 121.817L41.747 123.603L38.6643 121.827Z" fill="white"/>
<path d="M45.2427 125.631L48.3354 123.835L51.4181 125.621L48.3254 127.366L45.2427 125.631Z" fill="white"/>
<path d="M51.8213 129.434L54.9241 127.648L58.0068 129.424L54.9141 131.22L51.8213 129.434Z" fill="white"/>
<path d="M58.4097 133.237L61.5024 131.452L64.5851 133.237L61.4923 135.023L58.4097 133.237Z" fill="white"/>
<path d="M64.988 137.051L68.0808 135.255L71.1736 137.041L68.0707 138.826L64.988 137.051Z" fill="white"/>
<g style="mix-blend-mode:multiply" opacity="0.5">
<g style="mix-blend-mode:multiply" opacity="0.5">
<g style="mix-blend-mode:multiply" opacity="0.5">
<path d="M192.074 183.881H14.7686V210H192.074V183.881Z" fill="white"/>
</g>
<g style="mix-blend-mode:multiply" opacity="0.5">
<path d="M103.252 208.183C147.089 207.938 182.599 202.961 182.566 197.066C182.533 191.171 146.97 186.591 103.133 186.836C59.2967 187.082 23.7869 192.059 23.8198 197.954C23.8527 203.848 59.4158 208.428 103.252 208.183Z" fill="white"/>
</g>
<g style="mix-blend-mode:multiply" opacity="0.5">
<path d="M102.98 208.134C146.644 207.89 182.014 202.931 181.981 197.059C181.949 191.187 146.525 186.624 102.861 186.868C59.1974 187.112 23.8273 192.071 23.8601 197.943C23.8928 203.816 59.316 208.378 102.98 208.134Z" fill="white"/>
</g>
<g style="mix-blend-mode:multiply" opacity="0.5">
<path d="M102.708 208.085C146.199 207.842 181.43 202.907 181.397 197.062C181.364 191.218 146.081 186.677 102.59 186.92C59.0982 187.163 23.8677 192.099 23.9003 197.943C23.9329 203.788 59.2162 208.329 102.708 208.085Z" fill="white"/>
</g>
<g style="mix-blend-mode:multiply" opacity="0.5">
<path d="M102.436 208.046C145.76 207.804 180.855 202.888 180.823 197.066C180.79 191.243 145.643 186.72 102.318 186.962C58.9934 187.204 23.8982 192.121 23.9306 197.943C23.9631 203.765 59.1109 208.289 102.436 208.046Z" fill="white"/>
</g>
<g style="mix-blend-mode:multiply" opacity="0.5">
<path d="M102.163 208.008C145.315 207.766 180.271 202.869 180.239 197.069C180.206 191.269 145.198 186.763 102.046 187.004C58.8941 187.245 23.9386 192.143 23.9709 197.943C24.0033 203.743 59.0112 208.249 102.163 208.008Z" fill="white"/>
</g>
<g style="mix-blend-mode:multiply" opacity="0.5">
<path d="M103.39 206.662C146.37 206.231 181.166 201.199 181.108 195.421C181.05 189.643 146.161 185.308 103.181 185.739C60.2004 186.169 25.4047 191.202 25.4624 196.98C25.5201 202.757 60.4093 207.092 103.39 206.662Z" fill="#FEFFFF"/>
</g>
<g style="mix-blend-mode:multiply" opacity="0.5">
<path d="M101.619 207.94C144.426 207.701 179.102 202.841 179.07 197.085C179.038 191.33 144.31 186.858 101.503 187.098C58.6955 187.337 24.0194 192.197 24.0515 197.952C24.0836 203.708 58.8117 208.179 101.619 207.94Z" fill="#FEFFFF"/>
</g>
<g style="mix-blend-mode:multiply" opacity="0.5">
<path d="M101.347 207.891C143.981 207.653 178.518 202.812 178.486 197.079C178.454 191.345 143.866 186.891 101.231 187.13C58.5962 187.368 24.0599 192.209 24.0918 197.942C24.1238 203.675 58.712 208.13 101.347 207.891Z" fill="#FEFEFF"/>
</g>
<g style="mix-blend-mode:multiply" opacity="0.5">
<path d="M101.074 207.852C143.537 207.615 177.933 202.793 177.901 197.082C177.87 191.371 143.421 186.934 100.959 187.171C58.4969 187.409 24.1003 192.231 24.1321 197.942C24.164 203.653 58.6122 208.09 101.074 207.852Z" fill="#FEFEFF"/>
</g>
<g style="mix-blend-mode:multiply" opacity="0.5">
<path d="M100.802 207.803C143.092 207.567 177.349 202.768 177.317 197.085C177.285 191.402 142.977 186.987 100.687 187.223C58.3976 187.46 24.1407 192.259 24.1724 197.942C24.2041 203.625 58.5124 208.04 100.802 207.803Z" fill="#FEFEFF"/>
</g>
<g style="mix-blend-mode:multiply" opacity="0.5">
<path d="M100.53 207.765C142.647 207.529 176.764 202.749 176.733 197.088C176.701 191.428 142.533 187.03 100.416 187.265C58.2983 187.501 24.1811 192.281 24.2127 197.941C24.2443 203.602 58.4127 208 100.53 207.765Z" fill="#FDFEFF"/>
</g>
<g style="mix-blend-mode:multiply" opacity="0.5">
<path d="M100.258 207.726C142.202 207.491 176.18 202.73 176.149 197.092C176.117 191.453 142.089 187.073 100.144 187.307C58.199 187.542 24.2215 192.303 24.253 197.941C24.2844 203.58 58.3129 207.96 100.258 207.726Z" fill="#FDFEFE"/>
</g>
<g style="mix-blend-mode:multiply" opacity="0.5">
<path d="M99.9855 207.697C141.758 207.463 175.596 202.721 175.564 197.105C175.533 191.489 141.644 187.125 99.8721 187.359C58.0997 187.593 24.262 192.335 24.2933 197.951C24.3246 203.567 58.2132 207.931 99.9855 207.697Z" fill="#FDFEFE"/>
</g>
<g style="mix-blend-mode:multiply" opacity="0.5">
<path d="M101.211 206.351C142.817 205.934 176.5 201.062 176.444 195.468C176.388 189.874 142.614 185.677 101.008 186.093C59.4022 186.51 25.7191 191.382 25.775 196.976C25.8308 202.57 59.6045 206.767 101.211 206.351Z" fill="#FDFEFE"/>
</g>
<g style="mix-blend-mode:multiply" opacity="0.5">
<path d="M99.4411 207.609C140.874 207.377 174.437 202.673 174.406 197.101C174.375 191.53 140.762 187.201 99.3286 187.433C57.8956 187.664 24.3328 192.369 24.3639 197.941C24.395 203.512 58.0082 207.841 99.4411 207.609Z" fill="#FCFDFE"/>
</g>
<g style="mix-blend-mode:multiply" opacity="0.5">
<path d="M99.1689 207.57C140.429 207.34 173.853 202.654 173.822 197.105C173.791 191.555 140.317 187.244 99.0568 187.475C57.7964 187.705 24.3732 192.391 24.4042 197.94C24.4351 203.49 57.9084 207.801 99.1689 207.57Z" fill="#FCFDFE"/>
</g>
<g style="mix-blend-mode:multiply" opacity="0.5">
<path d="M98.8966 207.522C139.985 207.292 173.268 202.629 173.237 197.108C173.206 191.587 139.873 187.297 98.7851 187.527C57.6971 187.756 24.4136 192.419 24.4444 197.94C24.4752 203.462 57.8086 207.751 98.8966 207.522Z" fill="#FCFDFE"/>
</g>
<g style="mix-blend-mode:multiply" opacity="0.5">
<path d="M98.6244 207.483C139.54 207.254 172.684 202.61 172.653 197.111C172.622 191.612 139.429 187.34 98.5133 187.568C57.5978 187.797 24.4541 192.441 24.4847 197.94C24.5154 203.439 57.7088 207.711 98.6244 207.483Z" fill="#FBFDFE"/>
</g>
<g style="mix-blend-mode:multiply" opacity="0.5">
<path d="M172.086 197.097C172.086 202.575 139.114 207.185 98.374 207.438C57.6341 207.69 24.5708 203.402 24.5405 197.934C24.5103 192.466 57.5132 187.846 98.2631 187.594C139.013 187.341 172.056 191.619 172.086 197.097Z" fill="#FBFDFE"/>
</g>
<g style="mix-blend-mode:multiply" opacity="0.5">
<path d="M98.0799 207.415C138.65 207.188 171.515 202.582 171.484 197.128C171.454 191.673 138.54 187.435 97.9698 187.662C57.3992 187.889 24.5349 192.495 24.5653 197.95C24.5958 203.404 57.5094 207.642 98.0799 207.415Z" fill="#FBFCFE"/>
</g>
<g style="mix-blend-mode:multiply" opacity="0.5">
<path d="M97.8077 207.376C138.206 207.15 170.93 202.563 170.9 197.131C170.87 191.699 138.096 187.478 97.698 187.704C57.2999 187.93 24.5753 192.517 24.6056 197.949C24.6359 203.382 57.4096 207.602 97.8077 207.376Z" fill="#FAFCFE"/>
</g>
<g style="mix-blend-mode:multiply" opacity="0.5">
<path d="M97.5355 207.327C137.761 207.102 170.346 202.534 170.316 197.124C170.286 191.714 137.652 187.511 97.4262 187.736C57.2006 187.961 24.6158 192.529 24.6459 197.939C24.6761 203.349 57.3099 207.552 97.5355 207.327Z" fill="#FAFCFD"/>
</g>
<g style="mix-blend-mode:multiply" opacity="0.5">
<path d="M97.2633 207.288C137.316 207.064 169.762 202.515 169.732 197.128C169.702 191.74 137.208 187.554 97.1545 187.778C57.1013 188.002 24.6562 192.551 24.6862 197.939C24.7163 203.327 57.2101 207.513 97.2633 207.288Z" fill="#FAFCFD"/>
</g>
<g style="mix-blend-mode:multiply" opacity="0.5">
<path d="M96.991 207.24C136.877 207.017 169.187 202.491 169.157 197.131C169.127 191.771 136.769 187.607 96.8828 187.83C56.9965 188.053 24.6866 192.579 24.7165 197.939C24.7464 203.299 57.1048 207.463 96.991 207.24Z" fill="#F9FCFD"/>
</g>
<g style="mix-blend-mode:multiply" opacity="0.5">
<path d="M96.7188 207.201C136.433 206.979 168.603 202.472 168.573 197.134C168.543 191.796 136.325 187.65 96.611 187.872C56.8973 188.094 24.727 192.601 24.7568 197.938C24.7866 203.276 57.0051 207.423 96.7188 207.201Z" fill="#F9FBFD"/>
</g>
<g style="mix-blend-mode:multiply" opacity="0.5">
<path d="M96.4466 207.162C135.988 206.941 168.018 202.453 167.989 197.137C167.959 191.822 135.881 187.692 96.3392 187.914C56.7979 188.135 24.7674 192.623 24.7971 197.938C24.8267 203.253 56.9053 207.383 96.4466 207.162Z" fill="#F8FBFD"/>
</g>
<g style="mix-blend-mode:multiply" opacity="0.5">
<path d="M97.6692 205.831C137.039 205.437 168.911 200.827 168.858 195.533C168.805 190.24 136.847 186.269 97.4778 186.663C58.1083 187.058 26.236 191.668 26.2888 196.961C26.3417 202.254 58.2997 206.226 97.6692 205.831Z" fill="#F8FBFD"/>
</g>
<g style="mix-blend-mode:multiply" opacity="0.5">
<path d="M95.9022 207.084C135.099 206.865 166.85 202.415 166.82 197.144C166.791 191.873 134.992 187.778 95.7957 187.997C56.5994 188.217 24.8483 192.667 24.8777 197.938C24.9071 203.208 56.7058 207.303 95.9022 207.084Z" fill="#F8FAFD"/>
</g>
<g style="mix-blend-mode:multiply" opacity="0.5">
<path d="M166.253 197.127C166.253 202.373 134.671 206.812 95.6538 207.024C56.6366 207.236 24.9635 203.17 24.9434 197.944C24.9232 192.719 56.5157 188.27 95.543 188.048C134.57 187.826 166.223 191.932 166.253 197.127Z" fill="#F7FAFC"/>
</g>
<g style="mix-blend-mode:multiply" opacity="0.5">
<path d="M95.3576 206.997C134.209 206.779 165.681 202.371 165.652 197.15C165.622 191.93 134.104 187.874 95.2522 188.091C56.4008 188.308 24.9291 192.717 24.9582 197.937C24.9874 203.158 56.5062 207.214 95.3576 206.997Z" fill="#F7FAFC"/>
</g>
<g style="mix-blend-mode:multiply" opacity="0.5">
<path d="M95.0854 206.958C133.764 206.741 165.096 202.352 165.067 197.154C165.038 191.955 133.659 187.917 94.9804 188.133C56.3015 188.349 24.9695 192.739 24.9985 197.937C25.0275 203.135 56.4065 207.174 95.0854 206.958Z" fill="#F6FAFC"/>
</g>
<g style="mix-blend-mode:multiply" opacity="0.5">
<path d="M164.511 197.137C164.511 202.313 133.341 206.691 94.8378 206.903C56.3344 207.115 25.0844 203.1 25.0542 197.924C25.024 192.749 56.2236 188.381 94.727 188.159C133.23 187.937 164.48 191.932 164.511 197.137Z" fill="#F6F9FC"/>
</g>
<g style="mix-blend-mode:multiply" opacity="0.5">
<path d="M94.5512 206.88C132.885 206.666 163.938 202.314 163.909 197.16C163.88 192.006 132.781 188.002 94.4471 188.217C56.1131 188.431 25.0607 192.783 25.0894 197.937C25.1181 203.09 56.2172 207.094 94.5512 206.88Z" fill="#F5F9FC"/>
</g>
<g style="mix-blend-mode:multiply" opacity="0.5">
<path d="M94.2788 206.841C132.446 206.628 163.363 202.295 163.335 197.163C163.306 192.032 132.342 188.045 94.1752 188.259C56.0081 188.472 25.0908 192.805 25.1194 197.936C25.1481 203.068 56.1118 207.055 94.2788 206.841Z" fill="#F5F9FC"/>
</g>
<g style="mix-blend-mode:multiply" opacity="0.5">
<path d="M94.0066 206.802C132.001 206.59 162.779 202.276 162.75 197.167C162.722 192.057 131.898 188.088 93.9034 188.3C55.9088 188.513 25.1313 192.827 25.1597 197.936C25.1882 203.045 56.012 207.015 94.0066 206.802Z" fill="#F4F9FC"/>
</g>
<g style="mix-blend-mode:multiply" opacity="0.5">
<path d="M93.7344 206.763C131.556 206.552 162.194 202.257 162.166 197.17C162.138 192.083 131.454 188.131 93.6316 188.342C55.8095 188.554 25.1717 192.849 25.2001 197.936C25.2284 203.023 55.9123 206.975 93.7344 206.763Z" fill="#F4F8FB"/>
</g>
<g style="mix-blend-mode:multiply" opacity="0.5">
<path d="M93.4623 206.715C131.112 206.504 161.61 202.232 161.582 197.173C161.554 192.114 131.01 188.184 93.3601 188.394C55.7105 188.605 25.2123 192.877 25.2405 197.936C25.2688 202.995 55.8127 206.925 93.4623 206.715Z" fill="#F3F8FB"/>
</g>
<g style="mix-blend-mode:multiply" opacity="0.5">
<path d="M93.1901 206.676C130.667 206.466 161.026 202.213 160.998 197.176C160.97 192.14 130.566 188.227 93.0884 188.436C55.6112 188.646 25.2528 192.899 25.2808 197.935C25.3089 202.972 55.713 206.885 93.1901 206.676Z" fill="#F3F8FB"/>
</g>
<g style="mix-blend-mode:multiply" opacity="0.5">
<path d="M92.9179 206.637C130.223 206.428 160.441 202.194 160.413 197.18C160.385 192.165 130.121 188.269 92.8166 188.478C55.5119 188.687 25.2932 192.921 25.3211 197.935C25.3491 202.95 55.6132 206.846 92.9179 206.637Z" fill="#F2F7FB"/>
</g>
<g style="mix-blend-mode:multiply" opacity="0.5">
<path d="M92.6457 206.598C129.778 206.39 159.857 202.175 159.829 197.183C159.801 192.191 129.677 188.312 92.5448 188.52C55.4126 188.728 25.3336 192.943 25.3614 197.935C25.3893 202.927 55.5135 206.806 92.6457 206.598Z" fill="#F2F7FB"/>
</g>
<g style="mix-blend-mode:multiply" opacity="0.5">
<path d="M159.262 197.168C159.262 202.131 129.352 206.338 92.3898 206.54C55.4278 206.741 25.3967 202.888 25.3967 197.924C25.3967 192.961 55.3069 188.754 92.2689 188.552C129.231 188.35 159.232 192.194 159.262 197.168Z" fill="#F1F7FB"/>
</g>
<g style="mix-blend-mode:multiply" opacity="0.5">
<path d="M92.1012 206.52C128.888 206.315 158.688 202.137 158.66 197.189C158.633 192.242 128.789 188.398 92.0013 188.604C55.2141 188.809 25.4145 192.987 25.4421 197.935C25.4696 202.882 55.314 206.726 92.1012 206.52Z" fill="#F1F6FA"/>
</g>
<g style="mix-blend-mode:multiply" opacity="0.5">
<path d="M93.3208 205.209C129.936 204.842 159.579 200.552 159.53 195.627C159.481 190.702 129.758 187.006 93.1427 187.373C56.5273 187.739 26.8846 192.029 26.9338 196.955C26.983 201.88 56.7054 205.576 93.3208 205.209Z" fill="#F0F6FA"/>
</g>
<g style="mix-blend-mode:multiply" opacity="0.5">
<path d="M157.509 197.178C157.509 202.081 128.012 206.257 91.5739 206.419C55.1358 206.58 25.5581 202.817 25.5279 197.924C25.4976 193.031 55.0249 188.845 91.4732 188.673C127.921 188.502 157.479 192.275 157.509 197.178Z" fill="#F0F6FA"/>
</g>
<g style="mix-blend-mode:multiply" opacity="0.5">
<path d="M156.925 197.178C156.925 202.06 127.569 206.177 91.3019 206.378C55.035 206.58 25.5984 202.797 25.5681 197.924C25.5379 193.052 54.9242 188.925 91.2012 188.724C127.478 188.522 156.905 192.305 156.925 197.178Z" fill="#EFF5FA"/>
</g>
<g style="mix-blend-mode:multiply" opacity="0.5">
<path d="M156.361 197.178C156.361 202.04 127.146 206.136 91.05 206.338C54.9543 206.54 25.6587 202.777 25.6284 197.924C25.5982 193.072 54.8435 188.966 90.9492 188.764C127.055 188.562 156.361 192.325 156.361 197.178Z" fill="#EEF5FA"/>
</g>
<g style="mix-blend-mode:multiply" opacity="0.5">
<path d="M155.766 197.188C155.766 202.02 126.682 206.096 90.7579 206.267C54.8335 206.439 25.6789 202.716 25.6487 197.894C25.6185 193.072 54.7227 188.976 90.6572 188.814C126.592 188.653 155.736 192.355 155.766 197.188Z" fill="#EEF5FA"/>
</g>
<g style="mix-blend-mode:multiply" opacity="0.5">
<path d="M90.4676 206.267C126.226 206.067 155.191 202.007 155.165 197.199C155.138 192.391 126.128 188.655 90.3705 188.855C54.6126 189.055 25.6467 193.115 25.6736 197.923C25.7004 202.731 54.7097 206.467 90.4676 206.267Z" fill="#EDF4F9"/>
</g>
<g style="mix-blend-mode:multiply" opacity="0.5">
<path d="M154.598 197.188C154.598 201.98 125.796 206.015 90.2138 206.267C54.6319 206.519 25.7393 202.757 25.7393 197.975C25.7393 193.193 54.5412 189.147 90.1231 188.946C125.705 188.744 154.567 192.406 154.598 197.188Z" fill="#EDF4F9"/>
</g>
<g style="mix-blend-mode:multiply" opacity="0.5">
<path d="M89.9234 206.2C125.336 206.002 154.023 201.979 153.996 197.216C153.97 192.452 125.24 188.751 89.8272 188.949C54.4142 189.147 25.7278 193.169 25.7544 197.933C25.781 202.697 54.5104 206.398 89.9234 206.2Z" fill="#ECF3F9"/>
</g>
<g style="mix-blend-mode:multiply" opacity="0.5">
<path d="M89.6511 206.151C124.892 205.954 153.438 201.955 153.412 197.219C153.386 192.483 124.796 188.804 89.5555 189.001C54.3149 189.198 25.7682 193.197 25.7947 197.933C25.8211 202.668 54.4106 206.348 89.6511 206.151Z" fill="#EBF3F9"/>
</g>
<g style="mix-blend-mode:multiply" opacity="0.5">
<path d="M152.845 197.198C152.845 201.919 124.466 205.904 89.3776 206.096C54.2893 206.287 25.85 202.635 25.8298 197.914C25.8097 193.193 54.2087 189.218 89.297 189.026C124.385 188.835 152.825 192.487 152.845 197.198Z" fill="#EBF3F9"/>
</g>
<g style="mix-blend-mode:multiply" opacity="0.5">
<path d="M152.26 197.208C152.26 201.899 124.053 205.864 89.1258 206.055C54.1987 206.247 25.9105 202.615 25.8904 197.914C25.8702 193.213 54.098 189.268 89.0251 189.067C123.952 188.865 152.24 192.517 152.26 197.208Z" fill="#EAF2F8"/>
</g>
<g style="mix-blend-mode:multiply" opacity="0.5">
<path d="M88.8345 206.034C123.563 205.84 151.695 201.898 151.669 197.229C151.643 192.56 123.469 188.932 88.7402 189.126C54.0116 189.321 25.8795 193.263 25.9055 197.932C25.9316 202.601 54.1059 206.228 88.8345 206.034Z" fill="#EAF2F8"/>
</g>
<g style="mix-blend-mode:multiply" opacity="0.5">
<path d="M88.5623 205.985C123.119 205.792 151.111 201.868 151.085 197.222C151.059 192.575 123.025 188.965 88.4685 189.158C53.9123 189.351 25.9199 193.275 25.9459 197.922C25.9718 202.568 54.0061 206.179 88.5623 205.985Z" fill="#E9F2F8"/>
</g>
<g style="mix-blend-mode:multiply" opacity="0.5">
<path d="M150.518 197.218C150.518 201.838 122.693 205.743 88.3098 205.934C53.9268 206.126 26.0315 202.545 26.0012 197.914C25.971 193.284 53.826 189.389 88.2091 189.198C122.592 189.006 150.487 192.587 150.518 197.218Z" fill="#E8F1F8"/>
</g>
<g style="mix-blend-mode:multiply" opacity="0.5">
<path d="M149.933 197.218C149.933 201.818 122.25 205.702 88.0378 205.894C53.826 206.086 26.0718 202.514 26.0415 197.914C26.0113 193.314 53.7253 189.43 87.9371 189.238C122.149 189.046 149.903 192.618 149.933 197.218Z" fill="#E8F1F7"/>
</g>
<g style="mix-blend-mode:multiply" opacity="0.5">
<path d="M87.7455 205.869C121.784 205.678 149.358 201.816 149.332 197.242C149.307 192.667 121.692 189.114 87.6532 189.304C53.6144 189.494 26.0412 193.357 26.0667 197.931C26.0922 202.505 53.7068 206.059 87.7455 205.869Z" fill="#E7F0F7"/>
</g>
<g style="mix-blend-mode:multiply" opacity="0.5">
<path d="M87.4733 205.83C121.34 205.641 148.773 201.797 148.748 197.245C148.722 192.693 121.248 189.156 87.3814 189.346C53.5151 189.535 26.0816 193.379 26.107 197.931C26.1324 202.483 53.607 206.019 87.4733 205.83Z" fill="#E6F0F7"/>
</g>
<g style="mix-blend-mode:multiply" opacity="0.5">
<path d="M88.6899 204.539C122.384 204.202 149.662 200.256 149.617 195.726C149.572 191.196 122.22 187.798 88.5261 188.135C54.8318 188.473 27.5538 192.418 27.599 196.948C27.6442 201.478 54.9956 204.876 88.6899 204.539Z" fill="#E6EFF7"/>
</g>
<g style="mix-blend-mode:multiply" opacity="0.5">
<path d="M86.9289 205.742C120.45 205.555 147.604 201.749 147.579 197.241C147.554 192.734 120.359 189.232 86.8379 189.419C53.3165 189.607 26.1625 193.413 26.1876 197.92C26.2127 202.428 53.4075 205.93 86.9289 205.742Z" fill="#E5EFF7"/>
</g>
<g style="mix-blend-mode:multiply" opacity="0.5">
<path d="M86.6567 205.703C120.006 205.517 147.02 201.73 146.995 197.245C146.97 192.76 119.915 189.275 86.5661 189.461C53.2172 189.648 26.2029 193.435 26.2279 197.92C26.2529 202.405 53.3078 205.89 86.6567 205.703Z" fill="#E4EFF6"/>
</g>
<g style="mix-blend-mode:multiply" opacity="0.5">
<path d="M86.3845 205.665C119.561 205.479 146.435 201.711 146.411 197.248C146.386 192.785 119.471 189.318 86.2943 189.503C53.1179 189.689 26.2433 193.457 26.2682 197.92C26.2931 202.383 53.2081 205.85 86.3845 205.665Z" fill="#E4EEF6"/>
</g>
<g style="mix-blend-mode:multiply" opacity="0.5">
<path d="M145.853 197.238C145.853 201.677 119.137 205.43 86.1337 205.612C53.1308 205.793 26.3436 202.353 26.3235 197.914C26.3033 193.475 53.0301 189.732 86.043 189.541C119.056 189.349 145.823 192.799 145.853 197.238Z" fill="#E3EEF6"/>
</g>
<g style="mix-blend-mode:multiply" opacity="0.5">
<path d="M145.279 197.238C145.279 201.657 118.704 205.39 85.8418 205.571C52.9799 205.753 26.4043 202.333 26.3439 197.914C26.2834 193.495 52.9094 189.773 85.7813 189.581C118.653 189.389 145.279 192.83 145.279 197.238Z" fill="#E2EDF6"/>
</g>
<g style="mix-blend-mode:multiply" opacity="0.5">
<path d="M85.5678 205.548C118.232 205.365 144.692 201.658 144.668 197.268C144.643 192.877 118.144 189.466 85.4791 189.649C52.8146 189.832 26.3546 193.539 26.3791 197.929C26.4035 202.32 52.9032 205.731 85.5678 205.548Z" fill="#E1EDF6"/>
</g>
<g style="mix-blend-mode:multiply" opacity="0.5">
<path d="M144.1 197.248C144.1 201.617 117.807 205.319 85.3177 205.491C52.8286 205.662 26.4646 202.282 26.4344 197.914C26.4041 193.546 52.738 189.843 85.2271 189.672C117.716 189.5 144.08 192.88 144.1 197.248Z" fill="#E1ECF5"/>
</g>
<g style="mix-blend-mode:multiply" opacity="0.5">
<path d="M143.516 197.248C143.516 201.596 117.323 205.319 85.086 205.45C52.8487 205.581 26.5451 202.262 26.5149 197.914C26.4847 193.566 52.7077 189.894 84.9953 189.712C117.283 189.531 143.496 192.941 143.516 197.248Z" fill="#E0ECF5"/>
</g>
<g style="mix-blend-mode:multiply" opacity="0.5">
<path d="M142.932 197.258C142.932 201.576 116.92 205.228 84.7737 205.41C52.6271 205.591 26.5451 202.232 26.5149 197.914C26.4847 193.596 52.5364 189.944 84.683 189.763C116.83 189.581 142.912 192.941 142.932 197.258Z" fill="#DFECF5"/>
</g>
<g style="mix-blend-mode:multiply" opacity="0.5">
<path d="M142.347 197.258C142.347 201.556 116.477 205.188 84.5017 205.329C52.5264 205.47 26.5854 202.171 26.5552 197.874C26.525 193.576 52.4357 189.944 84.411 189.803C116.386 189.662 142.327 192.941 142.347 197.258Z" fill="#DFEBF5"/>
</g>
<g style="mix-blend-mode:multiply" opacity="0.5">
<path d="M84.2066 205.344C116.009 205.166 141.77 201.557 141.746 197.284C141.723 193.011 115.922 189.691 84.1203 189.868C52.3181 190.046 26.5567 193.655 26.5805 197.928C26.6043 202.202 52.4044 205.522 84.2066 205.344Z" fill="#DEEBF4"/>
</g>
<g style="mix-blend-mode:multiply" opacity="0.5">
<path d="M83.9344 205.305C115.564 205.128 141.186 201.538 141.162 197.287C141.138 193.036 115.478 189.733 83.8485 189.91C52.2188 190.087 26.5971 193.677 26.6208 197.928C26.6445 202.179 52.3047 205.482 83.9344 205.305Z" fill="#DDEAF4"/>
</g>
<g style="mix-blend-mode:multiply" opacity="0.5">
<path d="M140.605 197.268C140.605 201.495 115.137 205.067 83.6859 205.248C52.2344 205.43 26.6964 202.141 26.6763 197.914C26.6561 193.687 52.1336 190.106 83.5952 189.934C115.057 189.763 140.575 193.041 140.605 197.268Z" fill="#DCEAF4"/>
</g>
<g style="mix-blend-mode:multiply" opacity="0.5">
<path d="M83.39 205.217C114.68 205.042 140.027 201.49 140.004 197.284C139.98 193.077 114.595 189.809 83.305 189.984C52.0147 190.159 26.6679 193.711 26.6914 197.917C26.7149 202.124 52.0997 205.392 83.39 205.217Z" fill="#DCE9F4"/>
</g>
<g style="mix-blend-mode:multiply" opacity="0.5">
<path d="M83.1178 205.178C114.236 205.004 139.443 201.471 139.419 197.287C139.396 193.103 114.151 189.852 83.0333 190.026C51.9154 190.2 26.7084 193.733 26.7317 197.917C26.755 202.102 51.9999 205.352 83.1178 205.178Z" fill="#DBE9F3"/>
</g>
<g style="mix-blend-mode:multiply" opacity="0.5">
<path d="M138.852 197.279C138.852 201.435 113.808 204.956 82.8698 205.127C51.9321 205.299 26.8173 202.101 26.7971 197.914C26.777 193.727 51.8414 190.237 82.7792 190.065C113.717 189.894 138.832 193.112 138.852 197.279Z" fill="#DAE8F3"/>
</g>
<g style="mix-blend-mode:multiply" opacity="0.5">
<path d="M138.227 197.279C138.227 201.415 113.324 204.915 82.5575 205.087C51.7911 205.258 26.8173 202.06 26.7971 197.914C26.777 193.768 51.7004 190.277 82.4668 190.106C113.233 189.934 138.227 193.142 138.227 197.279Z" fill="#D9E8F3"/>
</g>
<g style="mix-blend-mode:multiply" opacity="0.5">
<path d="M82.301 205.052C112.901 204.881 137.689 201.409 137.666 197.297C137.643 193.185 112.818 189.99 82.218 190.162C51.6176 190.333 26.8296 193.805 26.8526 197.917C26.8755 202.028 51.7006 205.223 82.301 205.052Z" fill="#D8E7F3"/>
</g>
<g style="mix-blend-mode:multiply" opacity="0.5">
<path d="M82.0288 205.023C112.457 204.853 137.105 201.4 137.082 197.31C137.059 193.221 112.374 190.043 81.9462 190.214C51.5183 190.384 26.8701 193.837 26.8929 197.926C26.9157 202.016 51.6009 205.193 82.0288 205.023Z" fill="#D8E7F2"/>
</g>
<g style="mix-blend-mode:multiply" opacity="0.5">
<path d="M136.525 197.289C136.525 201.324 112.035 204.794 81.7818 204.966C51.5292 205.137 26.9785 201.939 26.9483 197.904C26.918 193.869 51.4385 190.408 81.6912 190.237C111.944 190.065 136.495 193.223 136.525 197.289Z" fill="#D7E6F2"/>
</g>
<g style="mix-blend-mode:multiply" opacity="0.5">
<path d="M135.94 197.289C135.94 201.324 111.591 204.754 81.5401 204.926C51.4889 205.097 27.049 201.949 27.0188 197.864C26.9886 193.778 51.368 190.408 81.4192 190.237C111.47 190.065 135.91 193.243 135.94 197.289Z" fill="#D6E6F2"/>
</g>
<g style="mix-blend-mode:multiply" opacity="0.5">
<path d="M81.2222 204.896C111.133 204.729 135.362 201.333 135.339 197.31C135.317 193.287 111.051 190.162 81.1409 190.329C51.2304 190.496 27.0013 193.893 27.0238 197.916C27.0462 201.938 51.3117 205.064 81.2222 204.896Z" fill="#D5E5F2"/>
</g>
<g style="mix-blend-mode:multiply" opacity="0.5">
<path d="M134.772 197.299C134.772 201.334 110.705 204.673 80.9658 204.845C51.2269 205.016 27.0893 201.909 27.0691 197.904C27.049 193.899 51.1362 190.529 80.8751 190.368C110.614 190.207 134.752 193.304 134.772 197.299Z" fill="#D4E5F1"/>
</g>
<g style="mix-blend-mode:multiply" opacity="0.5">
<path d="M134.197 197.299C134.197 201.274 110.271 204.633 80.7038 204.805C51.1361 204.976 27.1395 201.879 27.1194 197.904C27.0992 193.929 51.0455 190.57 80.6232 190.408C110.201 190.247 134.197 193.324 134.197 197.299Z" fill="#D4E4F1"/>
</g>
<g style="mix-blend-mode:multiply" opacity="0.5">
<path d="M80.4054 204.77C109.804 204.605 133.619 201.27 133.597 197.32C133.574 193.369 109.724 190.3 80.3257 190.465C50.927 190.629 27.1126 193.965 27.1346 197.915C27.1566 201.865 51.0068 204.934 80.4054 204.77Z" fill="#D3E4F1"/>
</g>
<g style="mix-blend-mode:multiply" opacity="0.5">
<path d="M80.1333 204.741C109.359 204.578 133.034 201.261 133.012 197.333C132.99 193.405 109.28 190.353 80.0539 190.517C50.8277 190.68 27.153 193.997 27.1749 197.925C27.1968 201.853 50.9071 204.905 80.1333 204.741Z" fill="#D2E3F0"/>
</g>
<g style="mix-blend-mode:multiply" opacity="0.5">
<path d="M79.861 204.692C108.915 204.53 132.45 201.232 132.428 197.326C132.406 193.42 108.836 190.386 79.7821 190.549C50.7285 190.711 27.1934 194.009 27.2152 197.915C27.237 201.82 50.8073 204.855 79.861 204.692Z" fill="#D1E3F0"/>
</g>
<g style="mix-blend-mode:multiply" opacity="0.5">
<path d="M79.5888 204.653C108.47 204.492 131.865 201.213 131.844 197.329C131.822 193.446 108.392 190.429 79.5104 190.59C50.6291 190.752 27.2339 194.031 27.2555 197.914C27.2772 201.798 50.7076 204.815 79.5888 204.653Z" fill="#D0E2F0"/>
</g>
<g style="mix-blend-mode:multiply" opacity="0.5">
<path d="M131.276 197.319C131.276 201.173 108.035 204.441 79.3337 204.603C50.6325 204.764 27.331 201.768 27.3108 197.904C27.2907 194.04 50.5418 190.782 79.2531 190.62C107.964 190.459 131.256 193.455 131.276 197.319Z" fill="#CFE2F0"/>
</g>
<g style="mix-blend-mode:multiply" opacity="0.5">
<path d="M79.0444 204.576C107.581 204.416 130.696 201.175 130.675 197.336C130.654 193.497 107.503 190.515 78.9669 190.674C50.4306 190.834 27.3147 194.075 27.3361 197.914C27.3575 201.753 50.5081 204.735 79.0444 204.576Z" fill="#CEE1EF"/>
</g>
<g style="mix-blend-mode:multiply" opacity="0.5">
<path d="M130.107 197.329C130.107 201.142 107.148 204.391 78.7898 204.522C50.431 204.653 27.4116 201.717 27.4116 197.904C27.4116 194.091 50.3706 190.842 78.7898 190.711C107.209 190.58 130.087 193.516 130.107 197.329Z" fill="#CEE1EF"/>
</g>
<g style="mix-blend-mode:multiply" opacity="0.5">
<path d="M78.5001 204.488C106.691 204.33 129.528 201.131 129.507 197.342C129.486 193.554 106.615 190.61 78.4236 190.768C50.2322 190.926 27.3958 194.125 27.4169 197.913C27.4381 201.702 50.3088 204.646 78.5001 204.488Z" fill="#CDE0EF"/>
</g>
<g style="mix-blend-mode:multiply" opacity="0.5">
<path d="M78.2279 204.459C106.252 204.302 128.954 201.122 128.933 197.356C128.912 193.589 106.176 190.663 78.1519 190.82C50.1275 190.977 27.4262 194.157 27.4472 197.923C27.4682 201.69 50.2035 204.616 78.2279 204.459Z" fill="#CCE0EF"/>
</g>
<g style="mix-blend-mode:multiply" opacity="0.5">
<path d="M77.9555 204.41C105.807 204.254 128.369 201.093 128.348 197.349C128.327 193.605 105.732 190.696 77.8798 190.852C50.0279 191.007 27.4664 194.169 27.4873 197.913C27.5082 201.657 50.1035 204.566 77.9555 204.41Z" fill="#CBDFEE"/>
</g>
<g style="mix-blend-mode:multiply" opacity="0.5">
<path d="M77.6833 204.371C105.363 204.217 127.785 201.074 127.764 197.352C127.743 193.63 105.288 190.739 77.6081 190.894C49.9286 191.048 27.5068 194.191 27.5276 197.913C27.5483 201.635 50.0038 204.526 77.6833 204.371Z" fill="#CADFEE"/>
</g>
<g style="mix-blend-mode:multiply" opacity="0.5">
<path d="M127.196 197.339C127.196 201.041 104.932 204.159 77.4296 204.32C49.9272 204.482 27.6029 201.596 27.5828 197.904C27.5626 194.212 49.8467 191.084 77.3491 190.923C104.851 190.761 127.146 193.647 127.196 197.339Z" fill="#C9DEEE"/>
</g>
<g style="mix-blend-mode:multiply" opacity="0.5">
<path d="M126.612 197.339C126.612 201.021 104.448 204.118 77.1576 204.28C49.8668 204.441 27.6432 201.576 27.6231 197.904C27.6029 194.232 49.7862 191.125 77.077 190.973C104.368 190.822 126.591 193.667 126.612 197.339Z" fill="#C8DEED"/>
</g>
<g style="mix-blend-mode:multiply" opacity="0.5">
<path d="M76.8667 204.245C104.029 204.093 126.031 201.011 126.011 197.362C125.991 193.713 103.955 190.877 76.793 191.029C49.631 191.181 27.6283 194.263 27.6487 197.912C27.669 201.562 49.7047 204.397 76.8667 204.245Z" fill="#C7DDED"/>
</g>
<g style="mix-blend-mode:multiply" opacity="0.5">
<path d="M76.5945 204.206C103.584 204.055 125.447 200.992 125.427 197.365C125.407 193.738 103.511 190.92 76.5213 191.071C49.5317 191.222 27.6687 194.285 27.689 197.912C27.7092 201.539 49.605 204.357 76.5945 204.206Z" fill="#C6DCED"/>
</g>
<g style="mix-blend-mode:multiply" opacity="0.5">
<path d="M124.859 197.349C124.859 200.961 103.159 204.007 76.3418 204.159C49.5245 204.31 27.7643 201.506 27.7442 197.904C27.724 194.302 49.4439 191.246 76.2612 191.094C103.079 190.943 124.839 193.748 124.859 197.349Z" fill="#C6DCED"/>
</g>
<g style="mix-blend-mode:multiply" opacity="0.5">
<path d="M124.275 197.359C124.275 200.941 102.716 203.967 76.0698 204.118C49.4237 204.27 27.8046 201.485 27.7844 197.904C27.7643 194.323 49.3431 191.296 75.9892 191.145C102.635 190.993 124.254 193.778 124.275 197.359Z" fill="#C5DBEC"/>
</g>
<g style="mix-blend-mode:multiply" opacity="0.5">
<path d="M75.7779 204.09C102.25 203.941 123.694 200.935 123.674 197.375C123.654 193.815 102.178 191.049 75.7059 191.197C49.2338 191.345 27.79 194.351 27.8099 197.911C27.8297 201.471 49.3057 204.238 75.7779 204.09Z" fill="#C4DBEC"/>
</g>
<g style="mix-blend-mode:multiply" opacity="0.5">
<path d="M123.116 197.359C123.116 200.9 101.829 203.886 75.5358 204.038C49.2422 204.189 27.8851 201.435 27.875 197.904C27.8649 194.373 49.1516 191.377 75.4552 191.225C101.759 191.074 123.116 193.828 123.116 197.359Z" fill="#C3DAEC"/>
</g>
<g style="mix-blend-mode:multiply" opacity="0.5">
<path d="M122.532 197.369C122.532 200.88 101.376 203.846 75.2537 203.997C49.1315 204.149 27.9053 201.415 27.9053 197.944C27.9053 194.474 49.061 191.458 75.1832 191.316C101.306 191.175 122.512 193.848 122.532 197.369Z" fill="#C2DAEB"/>
</g>
<g style="mix-blend-mode:multiply" opacity="0.5">
<path d="M76.4416 202.765C102.402 202.505 123.419 199.467 123.385 195.979C123.35 192.491 102.276 189.874 76.3155 190.134C50.3548 190.394 29.3378 193.432 29.3726 196.92C29.4075 200.408 50.481 203.025 76.4416 202.765Z" fill="#C1D9EB"/>
</g>
<g style="mix-blend-mode:multiply" opacity="0.5">
<path d="M74.689 203.924C100.477 203.78 121.366 200.854 121.347 197.388C121.328 193.923 100.407 191.23 74.619 191.374C48.8312 191.519 27.9417 194.445 27.961 197.91C27.9803 201.376 48.9012 204.068 74.689 203.924Z" fill="#C0D8EB"/>
</g>
<g style="mix-blend-mode:multiply" opacity="0.5">
<path d="M120.779 197.369C120.779 200.82 100.046 203.725 74.4378 203.876C48.8293 204.028 28.0363 201.344 28.0161 197.894C27.996 194.444 48.7487 191.548 74.3572 191.397C99.9657 191.246 120.759 193.949 120.779 197.369Z" fill="#BFD8EA"/>
</g>
<g style="mix-blend-mode:multiply" opacity="0.5">
<path d="M74.1445 203.846C99.5874 203.704 120.197 200.816 120.178 197.395C120.159 193.974 99.5183 191.316 74.0754 191.458C48.6326 191.6 28.0225 194.489 28.0416 197.91C28.0607 201.331 48.7017 203.989 74.1445 203.846Z" fill="#BED7EA"/>
</g>
<g style="mix-blend-mode:multiply" opacity="0.5">
<path d="M119.61 197.379C119.61 200.779 99.1597 203.644 73.8938 203.796C48.6278 203.947 28.1168 201.294 28.0967 197.894C28.0765 194.494 48.5472 191.629 73.8233 191.488C99.0993 191.347 119.59 193.949 119.61 197.379Z" fill="#BDD7EA"/>
</g>
<g style="mix-blend-mode:multiply" opacity="0.5">
<path d="M73.6001 203.769C98.698 203.628 119.029 200.778 119.01 197.401C118.991 194.025 98.6298 191.401 73.5319 191.542C48.434 191.682 28.1034 194.533 28.1222 197.91C28.1411 201.286 48.5022 203.909 73.6001 203.769Z" fill="#BCD6E9"/>
</g>
<g style="mix-blend-mode:multiply" opacity="0.5">
<path d="M118.442 197.39C118.442 200.739 98.2933 203.574 73.3497 203.715C48.4062 203.856 28.1974 201.243 28.1773 197.894C28.1571 194.545 48.3256 191.71 73.2792 191.579C98.2329 191.447 118.421 194.04 118.442 197.39Z" fill="#BBD5E9"/>
</g>
<g style="mix-blend-mode:multiply" opacity="0.5">
<path d="M117.857 197.389C117.857 200.719 97.8299 203.533 73.0777 203.664C48.3255 203.796 28.2377 201.223 28.2175 197.894C28.1974 194.565 48.245 191.76 73.0072 191.619C97.7695 191.478 117.847 194.06 117.857 197.389Z" fill="#BAD5E9"/>
</g>
<g style="mix-blend-mode:multiply" opacity="0.5">
<path d="M72.7834 203.642C97.3694 203.505 117.285 200.715 117.267 197.411C117.249 194.107 97.3027 191.54 72.7166 191.678C48.1306 191.815 28.2146 194.605 28.2331 197.909C28.2515 201.213 48.1973 203.78 72.7834 203.642Z" fill="#B9D4E9"/>
</g>
<g style="mix-blend-mode:multiply" opacity="0.5">
<path d="M72.5112 203.593C96.9247 203.457 116.701 200.686 116.683 197.404C116.664 194.122 96.8585 191.573 72.4449 191.709C48.0313 191.846 28.2551 194.617 28.2734 197.899C28.2917 201.18 48.0976 203.73 72.5112 203.593Z" fill="#B8D4E8"/>
</g>
<g style="mix-blend-mode:multiply" opacity="0.5">
<path d="M116.114 197.4C116.114 200.658 96.5001 203.453 72.2516 203.543C48.0031 203.634 28.3485 201.152 28.3384 197.894C28.3283 194.635 47.9528 191.841 72.1911 191.75C96.4295 191.659 116.064 194.141 116.114 197.4Z" fill="#B7D3E8"/>
</g>
<g style="mix-blend-mode:multiply" opacity="0.5">
<path d="M115.53 197.4C115.53 200.638 96.0567 203.372 71.9795 203.503C47.9023 203.634 28.4189 201.132 28.4189 197.894C28.4189 194.656 47.9024 191.922 71.9695 191.79C96.0366 191.659 115.51 194.171 115.53 197.4Z" fill="#B6D2E8"/>
</g>
<g style="mix-blend-mode:multiply" opacity="0.5">
<path d="M71.6945 203.487C95.5907 203.353 114.948 200.639 114.93 197.424C114.912 194.209 95.5257 191.711 71.6296 191.845C47.7335 191.979 28.3764 194.693 28.3943 197.908C28.4122 201.123 47.7984 203.621 71.6945 203.487Z" fill="#B5D2E7"/>
</g>
<g style="mix-blend-mode:multiply" opacity="0.5">
<path d="M114.362 197.41C114.362 200.598 95.1602 203.291 71.4356 203.463C47.711 203.634 28.4694 201.122 28.4492 197.934C28.4291 194.746 47.6506 192.053 71.3752 191.881C95.0998 191.71 114.341 194.222 114.362 197.41Z" fill="#B4D1E7"/>
</g>
<g style="mix-blend-mode:multiply" opacity="0.5">
<path d="M71.15 203.399C94.7012 203.267 113.779 200.595 113.761 197.431C113.744 194.266 94.6372 191.807 71.0861 191.939C47.5349 192.071 28.4572 194.743 28.4748 197.908C28.4925 201.072 47.5988 203.531 71.15 203.399Z" fill="#B3D1E7"/>
</g>
<g style="mix-blend-mode:multiply" opacity="0.5">
<path d="M113.193 197.42C113.193 200.557 94.2738 203.21 70.8816 203.342C47.4895 203.473 28.5702 201.041 28.5199 197.894C28.4695 194.746 47.4391 192.093 70.8313 191.962C94.2234 191.831 113.183 194.272 113.193 197.42Z" fill="#B2D0E6"/>
</g>
<g style="mix-blend-mode:multiply" opacity="0.5">
<path d="M112.619 197.42C112.619 200.537 93.8304 203.17 70.6196 203.301C47.4088 203.432 28.5902 201.011 28.5701 197.894C28.5499 194.777 47.3483 192.133 70.5591 192.002C93.7699 191.871 112.599 194.302 112.619 197.42Z" fill="#B1CFE6"/>
</g>
<g style="mix-blend-mode:multiply" opacity="0.5">
<path d="M112.034 197.42C112.034 200.517 93.3871 203.13 70.3475 203.261C47.308 203.392 28.6305 200.991 28.6104 197.894C28.5902 194.797 47.2576 192.184 70.2871 192.053C93.3166 191.922 112.034 194.323 112.034 197.42Z" fill="#B0CFE6"/>
</g>
<g style="mix-blend-mode:multiply" opacity="0.5">
<path d="M111.45 197.42C111.45 200.497 92.9439 203.1 70.0755 203.221C47.2072 203.342 28.6708 200.971 28.6507 197.894C28.6305 194.817 47.1569 192.224 70.0151 192.093C92.8733 191.962 111.43 194.353 111.45 197.42Z" fill="#AFCEE5"/>
</g>
<g style="mix-blend-mode:multiply" opacity="0.5">
<path d="M110.866 197.43C110.866 200.456 92.5006 203.059 69.8035 203.18C47.1065 203.301 28.7111 200.941 28.6909 197.894C28.6708 194.847 47.0561 192.265 69.7431 192.133C92.43 192.002 110.846 194.373 110.866 197.43Z" fill="#AECDE5"/>
</g>
<g style="mix-blend-mode:multiply" opacity="0.5">
<path d="M110.281 197.43C110.281 200.456 92.0573 203.019 69.5315 203.14C47.0057 203.261 28.7413 200.92 28.7312 197.894C28.7211 194.867 46.9553 192.305 69.4711 192.184C91.9868 192.063 110.261 194.403 110.281 197.43Z" fill="#ADCDE5"/>
</g>
<g style="mix-blend-mode:multiply" opacity="0.5">
<path d="M69.2444 203.117C91.5939 202.992 109.698 200.456 109.681 197.453C109.665 194.45 91.5332 192.117 69.1838 192.242C46.8344 192.367 28.7301 194.903 28.7469 197.906C28.7636 200.909 46.895 203.242 69.2444 203.117Z" fill="#ACCCE4"/>
</g>
<g style="mix-blend-mode:multiply" opacity="0.5">
<path d="M109.113 197.44C109.113 200.466 91.171 202.938 68.9877 203.059C46.8044 203.18 28.8221 200.87 28.812 197.894C28.8019 194.918 46.7541 192.396 68.9272 192.265C91.1004 192.133 109.103 194.454 109.113 197.44Z" fill="#ABCCE4"/>
</g>
<g style="mix-blend-mode:multiply" opacity="0.5">
<path d="M108.529 197.44C108.529 200.396 90.7275 202.898 68.7155 203.019C46.7035 203.14 28.8622 200.85 28.8421 197.894C28.8219 194.938 46.6531 192.436 68.6551 192.305C90.657 192.174 108.518 194.484 108.529 197.44Z" fill="#AACBE4"/>
</g>
<g style="mix-blend-mode:multiply" opacity="0.5">
<path d="M108.005 197.44C108.005 200.376 90.3348 202.857 68.4941 202.978C46.6533 203.1 28.953 200.83 28.9329 197.934C28.9127 195.039 46.6029 192.517 68.4437 192.396C90.2844 192.275 107.934 194.504 108.005 197.44Z" fill="#A9CAE3"/>
</g>
<g style="mix-blend-mode:multiply" opacity="0.5">
<path d="M68.1555 202.962C89.8151 202.841 107.36 200.38 107.344 197.466C107.328 194.552 89.7562 192.288 68.0967 192.41C46.4372 192.531 28.8918 194.991 28.9081 197.905C28.9243 200.819 46.496 203.083 68.1555 202.962Z" fill="#A8CAE3"/>
</g>
<g style="mix-blend-mode:multiply" opacity="0.5">
<path d="M106.786 197.45C106.786 200.335 89.3977 202.777 67.8995 202.898C46.4013 203.019 28.9831 200.779 28.9629 197.854C28.9428 194.928 46.361 192.517 67.8491 192.396C89.3373 192.275 106.766 194.565 106.786 197.45Z" fill="#A7C9E3"/>
</g>
<g style="mix-blend-mode:multiply" opacity="0.5">
<path d="M106.202 197.45C106.202 200.315 88.9446 202.736 67.6277 202.857C46.3108 202.978 29.0236 200.759 29.0034 197.894C28.9833 195.029 46.2604 192.597 67.5773 192.487C88.8942 192.376 106.181 194.585 106.202 197.45Z" fill="#A6C8E2"/>
</g>
<g style="mix-blend-mode:multiply" opacity="0.5">
<path d="M105.617 197.46C105.617 200.295 88.4912 202.696 67.3355 202.817C46.1798 202.938 29.0537 200.729 29.0537 197.884C29.0537 195.039 46.1798 192.648 67.3355 192.527C88.4912 192.406 105.597 194.615 105.617 197.46Z" fill="#A4C8E2"/>
</g>
<g style="mix-blend-mode:multiply" opacity="0.5">
<path d="M105.033 197.46C105.033 200.275 88.0581 202.666 67.0837 202.777C46.1093 202.888 29.1042 200.709 29.084 197.884C29.0639 195.059 46.0589 192.688 67.0333 192.567C88.0077 192.446 104.983 194.635 105.033 197.46Z" fill="#A3C7E2"/>
</g>
<g style="mix-blend-mode:multiply" opacity="0.5">
<path d="M104.449 197.46C104.449 200.255 87.6147 202.625 66.8116 202.736C46.0085 202.847 29.1343 200.719 29.1243 197.884C29.1142 195.049 45.9582 192.729 66.7613 192.608C87.5644 192.487 104.439 194.666 104.449 197.46Z" fill="#A2C6E1"/>
</g>
<g style="mix-blend-mode:multiply" opacity="0.5">
<path d="M103.864 197.47C103.864 200.234 87.1715 202.585 66.5396 202.696C45.9078 202.807 29.1746 200.678 29.1646 197.884C29.1545 195.089 45.8574 192.769 66.4893 192.658C87.1211 192.547 103.854 194.696 103.864 197.47Z" fill="#A1C6E1"/>
</g>
<g style="mix-blend-mode:multiply" opacity="0.5">
<path d="M66.26 202.68C86.7177 202.566 103.29 200.242 103.274 197.489C103.259 194.737 86.6622 192.598 66.2044 192.713C45.7466 192.827 29.1748 195.151 29.1901 197.904C29.2055 200.656 45.8022 202.794 66.26 202.68Z" fill="#A0C5E0"/>
</g>
<g style="mix-blend-mode:multiply" opacity="0.5">
<path d="M102.706 197.47C102.706 200.194 86.2849 202.514 65.9956 202.615C45.7063 202.716 29.2552 200.598 29.2451 197.884C29.235 195.17 45.6559 192.84 65.9452 192.739C86.2346 192.638 102.686 194.746 102.706 197.47Z" fill="#9FC4E0"/>
</g>
<g style="mix-blend-mode:multiply" opacity="0.5">
<path d="M102.121 197.47C102.121 200.184 85.8416 202.464 65.7236 202.575C45.6055 202.686 29.2955 200.557 29.2854 197.884C29.2753 195.21 45.5451 192.941 65.6934 192.789C85.8417 192.638 102.101 194.767 102.121 197.47Z" fill="#9EC4E0"/>
</g>
<g style="mix-blend-mode:multiply" opacity="0.5">
<path d="M101.537 197.48C101.537 200.164 85.4186 202.424 65.4517 202.525C45.4847 202.625 29.3358 200.557 29.3157 197.874C29.2955 195.19 45.4343 192.93 65.4013 192.83C85.3682 192.729 101.517 194.797 101.537 197.48Z" fill="#9DC3DF"/>
</g>
<g style="mix-blend-mode:multiply" opacity="0.5">
<path d="M100.953 197.48C100.953 200.144 84.9552 202.383 65.1796 202.525C45.4041 202.666 29.3761 200.577 29.356 197.914C29.3358 195.251 45.3638 193.011 65.1293 192.87C84.8947 192.729 100.953 194.827 100.953 197.48Z" fill="#9CC2DF"/>
</g>
<g style="mix-blend-mode:multiply" opacity="0.5">
<path d="M64.8988 202.466C84.4942 202.356 100.367 200.131 100.353 197.495C100.338 194.86 84.441 192.813 64.8456 192.922C45.2502 193.032 29.3769 195.257 29.3916 197.892C29.4063 200.528 45.3034 202.575 64.8988 202.466Z" fill="#9AC2DF"/>
</g>
<g style="mix-blend-mode:multiply" opacity="0.5">
<path d="M99.7843 197.49C99.7843 200.103 84.0687 202.303 64.6357 202.414C45.2026 202.525 29.4265 200.497 29.4265 197.884C29.4265 195.271 45.1523 193.072 64.5752 192.961C83.9982 192.85 99.7743 194.878 99.7843 197.49Z" fill="#99C1DE"/>
</g>
<g style="mix-blend-mode:multiply" opacity="0.5">
<path d="M99.2 197.49C99.2 200.083 83.6254 202.262 64.3636 202.373C45.1018 202.484 29.497 200.477 29.4768 197.884C29.4567 195.291 45.0615 193.112 64.3132 193.001C83.5649 192.89 99.1899 194.898 99.2 197.49Z" fill="#98C0DE"/>
</g>
<g style="mix-blend-mode:multiply" opacity="0.5">
<path d="M98.6258 197.49C98.6258 200.063 83.1821 202.222 64.0916 202.333C45.0011 202.444 29.5373 200.446 29.5171 197.884C29.497 195.321 44.9608 193.152 64.0412 193.041C83.1216 192.93 98.6056 194.958 98.6258 197.49Z" fill="#97BFDE"/>
</g>
<g style="mix-blend-mode:multiply" opacity="0.5">
<path d="M63.8101 202.31C82.7212 202.205 98.0401 200.059 98.0259 197.519C98.0118 194.978 82.6699 193.004 63.7588 193.11C44.8478 193.216 29.5288 195.361 29.543 197.902C29.5572 200.442 44.8991 202.416 63.8101 202.31Z" fill="#96BFDD"/>
</g>
<g style="mix-blend-mode:multiply" opacity="0.5">
<path d="M97.4571 197.5C97.4571 200.023 82.2854 202.151 63.5475 202.252C44.8096 202.353 29.6077 200.406 29.5977 197.884C29.5876 195.362 44.7593 193.233 63.4972 193.132C82.2351 193.031 97.437 194.958 97.4571 197.5Z" fill="#95BEDD"/>
</g>
<g style="mix-blend-mode:multiply" opacity="0.5">
<path d="M96.9233 197.5C96.9233 200.002 81.8927 202.111 63.326 202.212C44.7594 202.313 29.6986 200.376 29.6885 197.884C29.6784 195.392 44.709 193.273 63.2757 193.173C81.8423 193.072 96.8528 195.009 96.9233 197.5Z" fill="#94BDDC"/>
</g>
<g style="mix-blend-mode:multiply" opacity="0.5">
<path d="M96.2885 197.511C96.2885 199.982 81.3989 202.071 63.0438 202.171C44.6887 202.272 29.7286 200.355 29.7185 197.884C29.7084 195.412 44.598 193.324 62.9632 193.213C81.3284 193.102 96.2784 195.029 96.2885 197.511Z" fill="#92BDDC"/>
</g>
<g style="mix-blend-mode:multiply" opacity="0.5">
<path d="M95.7042 197.511C95.7042 199.962 80.9556 202.03 62.7315 202.131C44.5074 202.232 29.7286 200.335 29.7185 197.884C29.7084 195.432 44.4671 193.364 62.6811 193.263C80.8952 193.162 95.6941 195.059 95.7042 197.511Z" fill="#91BCDC"/>
</g>
<g style="mix-blend-mode:multiply" opacity="0.5">
<path d="M95.1198 197.511C95.1198 199.942 80.5123 201.99 62.4595 202.091C44.4066 202.192 29.7689 200.305 29.7588 197.884C29.7487 195.463 44.3663 193.405 62.4091 193.304C80.4519 193.203 95.1098 195.089 95.1198 197.511Z" fill="#90BBDB"/>
</g>
<g style="mix-blend-mode:multiply" opacity="0.5">
<path d="M94.5355 197.521C94.5355 199.922 80.069 201.949 62.1874 202.05C44.3058 202.151 29.8092 200.285 29.7991 197.884C29.789 195.483 44.2656 193.445 62.1472 193.344C80.0288 193.243 94.5255 195.11 94.5355 197.521Z" fill="#8FBADB"/>
</g>
<g style="mix-blend-mode:multiply" opacity="0.5">
<path d="M93.9513 197.521C93.9513 199.902 79.6259 201.909 61.9155 202.01C44.2052 202.111 29.8495 200.265 29.8294 197.884C29.8092 195.503 44.1649 193.485 61.8752 193.395C79.5856 193.304 93.9009 195.14 93.9513 197.521Z" fill="#8EBADB"/>
</g>
<g style="mix-blend-mode:multiply" opacity="0.5">
<path d="M93.3771 197.521C93.3771 199.881 79.1826 201.869 61.6435 201.97C44.1044 202.071 29.8898 200.234 29.8697 197.884C29.8495 195.533 44.0641 193.536 61.6032 193.435C79.1423 193.334 93.3569 195.16 93.3771 197.521Z" fill="#8DB9DA"/>
</g>
<g style="mix-blend-mode:multiply" opacity="0.5">
<path d="M92.7928 197.521C92.7928 199.861 78.7393 201.828 61.3715 201.929C44.0037 202.03 29.9301 200.214 29.9099 197.894C29.8898 195.574 44.0138 193.586 61.3312 193.485C78.6487 193.384 92.7726 195.19 92.7928 197.521Z" fill="#8BB8DA"/>
</g>
<g style="mix-blend-mode:multiply" opacity="0.5">
<path d="M92.2084 197.531C92.2084 199.841 78.296 201.788 61.0995 201.889C43.9029 201.99 29.9603 200.194 29.9502 197.854C29.9401 195.513 43.8626 193.586 61.0592 193.485C78.2557 193.384 92.1983 195.22 92.2084 197.531Z" fill="#8AB8D9"/>
</g>
<g style="mix-blend-mode:multiply" opacity="0.5">
<path d="M60.8155 201.863C77.8348 201.768 91.6214 199.834 91.6087 197.544C91.5959 195.254 77.7886 193.475 60.7692 193.57C43.7498 193.666 29.9632 195.599 29.976 197.889C29.9888 200.179 43.7961 201.958 60.8155 201.863Z" fill="#89B7D9"/>
</g>
<g style="mix-blend-mode:multiply" opacity="0.5">
<path d="M91.04 197.531C91.04 199.801 77.4097 201.717 60.5557 201.808C43.7016 201.899 30.0411 200.144 30.031 197.884C30.0209 195.624 43.6613 193.697 60.5154 193.606C77.3694 193.516 91.03 195.271 91.04 197.531Z" fill="#88B6D9"/>
</g>
<g style="mix-blend-mode:multiply" opacity="0.5">
<path d="M60.2712 201.785C76.9456 201.692 90.4528 199.801 90.4403 197.561C90.4278 195.321 76.9004 193.581 60.2259 193.674C43.5515 193.768 30.0443 195.659 30.0568 197.899C30.0693 200.138 43.5967 201.879 60.2712 201.785Z" fill="#87B5D8"/>
</g>
<g style="mix-blend-mode:multiply" opacity="0.5">
<path d="M89.8714 197.541C89.8714 199.76 76.5232 201.637 60.0117 201.727C43.5001 201.818 30.1217 200.093 30.1116 197.874C30.1015 195.654 43.4699 193.788 59.9714 193.697C76.4728 193.606 89.8714 195.321 89.8714 197.541Z" fill="#85B5D8"/>
</g>
<g style="mix-blend-mode:multiply" opacity="0.5">
<path d="M89.2871 197.541C89.2871 199.74 76.0698 201.576 59.7396 201.687C43.4094 201.798 30.1619 200.073 30.1519 197.874C30.1418 195.675 43.3691 193.838 59.6993 193.738C76.0295 193.637 89.277 195.352 89.2871 197.541Z" fill="#84B4D8"/>
</g>
<g style="mix-blend-mode:multiply" opacity="0.5">
<path d="M88.7129 197.551C88.7129 199.72 75.6165 201.586 59.4979 201.647C43.3792 201.707 30.2828 200.053 30.2224 197.874C30.1619 195.695 43.3188 193.838 59.4374 193.778C75.556 193.717 88.6927 195.372 88.7129 197.551Z" fill="#83B3D7"/>
</g>
<g style="mix-blend-mode:multiply" opacity="0.5">
<path d="M88.1285 197.551C88.1285 199.7 75.1833 201.516 59.1956 201.586C43.2079 201.657 30.2425 200.002 30.2324 197.854C30.2224 195.705 43.1676 193.889 59.1553 193.818C75.143 193.748 88.1185 195.402 88.1285 197.551Z" fill="#82B2D7"/>
</g>
<g style="mix-blend-mode:multiply" opacity="0.5">
<path d="M87.5442 197.551C87.5442 199.68 74.74 201.475 58.9236 201.586C43.1072 201.697 30.2828 200.023 30.2727 197.894C30.2626 195.765 43.0669 193.98 58.8833 193.859C74.6997 193.738 87.5342 195.422 87.5442 197.551Z" fill="#81B2D6"/>
</g>
<g style="mix-blend-mode:multiply" opacity="0.5">
<path d="M86.9597 197.561C86.9597 199.659 74.2965 201.435 58.6514 201.526C43.0063 201.617 30.3229 199.982 30.3028 197.874C30.2826 195.765 42.966 194 58.6111 193.909C74.2563 193.818 86.9497 195.453 86.9597 197.561Z" fill="#7FB1D6"/>
</g>
<g style="mix-blend-mode:multiply" opacity="0.5">
<path d="M86.3757 197.561C86.3757 199.639 73.8535 201.395 58.3796 201.485C42.9057 201.576 30.3634 199.952 30.3433 197.874C30.3231 195.796 42.8654 194.04 58.3393 193.949C73.8132 193.859 86.3656 195.483 86.3757 197.561Z" fill="#7EB0D6"/>
</g>
<g style="mix-blend-mode:multiply" opacity="0.5">
<path d="M85.8416 197.561C85.8416 199.579 73.4605 201.354 58.1579 201.445C42.8553 201.536 30.4338 199.932 30.4338 197.874C30.4338 195.816 42.815 194.081 58.1176 194C73.4202 193.919 85.7812 195.503 85.8416 197.561Z" fill="#7DAFD5"/>
</g>
<g style="mix-blend-mode:multiply" opacity="0.5">
<path d="M85.207 197.571C85.207 199.589 72.9669 201.314 57.8356 201.405C42.7042 201.495 30.4339 199.912 30.4238 197.874C30.4138 195.836 42.674 194.121 57.7953 194.04C72.9166 193.959 85.197 195.533 85.207 197.571Z" fill="#7CAFD5"/>
</g>
<g style="mix-blend-mode:multiply" opacity="0.5">
<path d="M84.6227 197.571C84.6227 199.589 72.5337 201.274 57.5635 201.364C42.5933 201.455 30.4338 199.881 30.4338 197.874C30.4338 195.866 42.5228 194.161 57.493 194.081C72.4632 194 84.6126 195.553 84.6227 197.571Z" fill="#7AAED4"/>
</g>
<g style="mix-blend-mode:multiply" opacity="0.5">
<path d="M57.2767 201.338C72.0595 201.255 84.0343 199.576 84.0232 197.587C84.0121 195.598 72.0193 194.052 57.2365 194.135C42.4538 194.218 30.479 195.897 30.4901 197.886C30.5012 199.875 42.4939 201.421 57.2767 201.338Z" fill="#79ADD4"/>
</g>
<g style="mix-blend-mode:multiply" opacity="0.5">
<path d="M83.4642 197.571C83.4642 199.589 71.6371 201.203 57.0195 201.284C42.402 201.364 30.5548 199.841 30.5447 197.874C30.5346 195.907 42.3717 194.252 56.9792 194.171C71.5868 194.091 83.4541 195.614 83.4642 197.571Z" fill="#78ACD4"/>
</g>
<g style="mix-blend-mode:multiply" opacity="0.5">
<path d="M82.8798 197.581C82.8798 199.518 71.1938 201.163 56.7475 201.243C42.3011 201.324 30.5547 199.811 30.5547 197.874C30.5547 195.937 42.2407 194.292 56.677 194.212C71.1132 194.131 82.8697 195.634 82.8798 197.581Z" fill="#77ACD3"/>
</g>
<g style="mix-blend-mode:multiply" opacity="0.5">
<path d="M56.46 201.211C70.731 201.132 82.2912 199.513 82.2805 197.596C82.2698 195.68 70.6922 194.191 56.4213 194.271C42.1504 194.35 30.5902 195.969 30.6009 197.886C30.6116 199.802 42.1891 201.291 56.46 201.211Z" fill="#75ABD3"/>
</g>
<g style="mix-blend-mode:multiply" opacity="0.5">
<path d="M81.7112 197.581C81.7112 199.478 70.3073 201.082 56.2035 201.163C42.0997 201.243 30.6756 199.77 30.6655 197.874C30.6555 195.977 42.0695 194.373 56.1632 194.302C70.2569 194.232 81.7012 195.695 81.7112 197.581Z" fill="#74AAD2"/>
</g>
<g style="mix-blend-mode:multiply" opacity="0.5">
<path d="M81.1271 197.591C81.1271 199.458 69.8642 201.042 55.9417 201.122C42.0192 201.203 30.7563 199.74 30.7563 197.874C30.7563 196.007 42.0192 194.424 55.9417 194.343C69.8642 194.262 81.117 195.715 81.1271 197.591Z" fill="#73A9D2"/>
</g>
<g style="mix-blend-mode:multiply" opacity="0.5">
<path d="M80.5426 197.591C80.5426 199.437 69.4107 201.001 55.6595 201.082C41.9082 201.163 30.7562 199.72 30.7461 197.874C30.736 196.028 41.8277 194.464 55.6292 194.383C69.4308 194.302 80.5325 195.745 80.5426 197.591Z" fill="#72A8D2"/>
</g>
<g style="mix-blend-mode:multiply" opacity="0.5">
<path d="M79.9584 197.591C79.9584 199.417 68.9675 200.961 55.3875 201.042C41.8076 201.122 30.7965 199.7 30.7764 197.874C30.7562 196.048 41.7673 194.504 55.3573 194.424C68.9473 194.343 79.9483 195.765 79.9584 197.591Z" fill="#70A8D1"/>
</g>
<g style="mix-blend-mode:multiply" opacity="0.5">
<path d="M79.3841 197.601C79.3841 199.397 68.5242 200.92 55.1155 201.001C41.7068 201.082 30.8267 199.68 30.8167 197.874C30.8066 196.068 41.6766 194.545 55.0853 194.474C68.494 194.403 79.374 195.796 79.3841 197.601Z" fill="#6FA7D1"/>
</g>
<g style="mix-blend-mode:multiply" opacity="0.5">
<path d="M54.8366 200.968C68.0727 200.894 78.7946 199.393 78.7847 197.616C78.7748 195.839 68.0368 194.458 54.8007 194.532C41.5647 194.606 30.8428 196.107 30.8527 197.884C30.8626 199.661 41.6006 201.042 54.8366 200.968Z" fill="#6EA6D0"/>
</g>
<g style="mix-blend-mode:multiply" opacity="0.5">
<path d="M78.2155 197.601C78.2155 199.357 67.6376 200.84 54.5715 200.92C41.5053 201.001 30.9073 199.629 30.8972 197.894C30.8871 196.159 41.4751 194.656 54.5412 194.575C67.6074 194.494 78.2054 195.846 78.2155 197.601Z" fill="#6CA5D0"/>
</g>
<g style="mix-blend-mode:multiply" opacity="0.5">
<path d="M77.6312 197.611C77.6312 199.337 67.1944 200.809 54.2995 200.88C41.4045 200.951 30.9476 199.609 30.9375 197.854C30.9274 196.098 41.3743 194.656 54.2692 194.585C67.1641 194.514 77.6211 195.876 77.6312 197.611Z" fill="#6BA5CF"/>
</g>
<g style="mix-blend-mode:multiply" opacity="0.5">
<path d="M77.0468 197.611C77.0468 199.316 66.7511 200.769 54.0274 200.84C41.3038 200.91 30.9879 199.579 30.9778 197.874C30.9677 196.169 41.2736 194.716 53.9972 194.645C66.7209 194.575 77.0368 195.896 77.0468 197.611Z" fill="#6AA4CF"/>
</g>
<g style="mix-blend-mode:multiply" opacity="0.5">
<path d="M76.4625 197.611C76.4625 199.296 66.3078 200.729 53.7554 200.799C41.203 200.87 31.0281 199.559 31.0181 197.874C31.008 196.189 41.1728 194.756 53.7252 194.686C66.2776 194.615 76.4525 195.967 76.4625 197.611Z" fill="#68A3CF"/>
</g>
<g style="mix-blend-mode:multiply" opacity="0.5">
<path d="M75.8782 197.611C75.8782 199.276 65.8645 200.688 53.4834 200.759C41.1023 200.83 31.0684 199.538 31.0584 197.874C31.0483 196.209 41.0721 194.797 53.4532 194.726C65.8343 194.656 75.8681 195.967 75.8782 197.611Z" fill="#67A2CE"/>
</g>
<g style="mix-blend-mode:multiply" opacity="0.5">
<path d="M75.294 197.622C75.294 199.256 65.4213 200.648 53.2115 200.719C41.0016 200.789 31.1088 199.508 31.0484 197.874C30.9879 196.239 40.921 194.847 53.1309 194.777C65.3408 194.706 75.2839 195.967 75.294 197.622Z" fill="#66A1CE"/>
</g>
<g style="mix-blend-mode:multiply" opacity="0.5">
<path d="M74.7602 197.622C74.7602 199.236 65.0185 200.648 52.9799 200.648C40.9413 200.648 31.1895 199.458 31.1795 197.843C31.1694 196.229 40.9111 194.817 52.9497 194.817C64.9883 194.817 74.7602 195.967 74.7602 197.622Z" fill="#65A1CD"/>
</g>
<g style="mix-blend-mode:multiply" opacity="0.5">
<path d="M74.1356 197.622C74.1356 199.216 64.5349 200.567 52.6676 200.648C40.8003 200.729 31.1895 199.478 31.1795 197.874C31.1694 196.27 40.7801 194.938 52.6374 194.847C64.4946 194.756 74.1255 196.028 74.1356 197.622Z" fill="#63A0CD"/>
</g>
<g style="mix-blend-mode:multiply" opacity="0.5">
<path d="M73.5511 197.632C73.5511 199.205 64.0915 200.527 52.3955 200.598C40.6994 200.668 31.2397 199.437 31.2397 197.864C31.2397 196.29 40.6994 194.968 52.3955 194.908C64.0915 194.847 73.5411 196.058 73.5511 197.632Z" fill="#629FCC"/>
</g>
<g style="mix-blend-mode:multiply" opacity="0.5">
<path d="M72.967 197.632C72.967 199.185 63.6484 200.487 52.1236 200.557C40.5987 200.628 31.26 199.417 31.26 197.864C31.26 196.31 40.5786 195.009 52.0933 194.948C63.6081 194.888 72.9569 196.088 72.967 197.632Z" fill="#619ECC"/>
</g>
<g style="mix-blend-mode:multiply" opacity="0.5">
<path d="M51.8422 200.531C63.1866 200.468 72.3762 199.179 72.3677 197.652C72.3592 196.125 63.1558 194.939 51.8114 195.003C40.467 195.066 31.2774 196.355 31.2859 197.882C31.2944 199.408 40.4978 200.594 51.8422 200.531Z" fill="#5F9DCC"/>
</g>
<g style="mix-blend-mode:multiply" opacity="0.5">
<path d="M71.7982 197.642C71.7982 199.145 62.7314 200.406 51.5794 200.477C40.4273 200.547 31.3404 199.367 31.3303 197.864C31.3203 196.36 40.3971 195.099 51.5491 195.029C62.7012 194.958 71.7881 196.139 71.7982 197.642Z" fill="#5E9CCB"/>
</g>
<g style="mix-blend-mode:multiply" opacity="0.5">
<path d="M71.2139 197.642C71.2139 199.125 62.3083 200.366 51.3074 200.436C40.3064 200.507 31.3807 199.347 31.3706 197.864C31.3605 196.381 40.2762 195.14 51.2771 195.079C62.2781 195.019 71.2038 196.159 71.2139 197.642Z" fill="#5D9CCB"/>
</g>
<g style="mix-blend-mode:multiply" opacity="0.5">
<path d="M70.6296 197.642C70.6296 199.105 61.8651 200.335 51.0354 200.396C40.2057 200.456 31.4412 199.327 31.4412 197.864C31.4412 196.401 40.2057 195.18 51.0354 195.12C61.8651 195.059 70.6296 196.189 70.6296 197.642Z" fill="#5B9BCA"/>
</g>
<g style="mix-blend-mode:multiply" opacity="0.5">
<path d="M70.0554 197.652C70.0554 199.084 61.4218 200.295 50.7634 200.355C40.1049 200.416 31.4412 199.296 31.4412 197.864C31.4412 196.431 40.0646 195.221 50.7231 195.16C61.3815 195.099 70.0453 196.219 70.0554 197.652Z" fill="#5A9ACA"/>
</g>
<g style="mix-blend-mode:multiply" opacity="0.5">
<path d="M69.4712 197.652C69.4712 199.064 60.9787 200.255 50.4915 200.315C40.0044 200.376 31.5018 199.306 31.4917 197.864C31.4816 196.421 39.9741 195.261 50.4613 195.21C60.9485 195.16 69.4612 196.239 69.4712 197.652Z" fill="#5899C9"/>
</g>
<g style="mix-blend-mode:multiply" opacity="0.5">
<path d="M68.8869 197.652C68.8869 199.044 60.5355 200.214 50.2195 200.275C39.9036 200.335 31.5421 199.266 31.532 197.864C31.5219 196.461 39.8835 195.311 50.1893 195.251C60.4952 195.19 68.8769 196.27 68.8869 197.652Z" fill="#5798C9"/>
</g>
<g style="mix-blend-mode:multiply" opacity="0.5">
<path d="M49.9366 200.249C60.0793 200.192 68.2953 199.04 68.2877 197.675C68.2801 196.31 60.0517 195.249 49.9091 195.306C39.7664 195.363 31.5504 196.515 31.558 197.88C31.5656 199.245 39.794 200.306 49.9366 200.249Z" fill="#5697C9"/>
</g>
<g style="mix-blend-mode:multiply" opacity="0.5">
<path d="M67.7083 197.662C67.7083 199.004 59.649 200.134 49.6655 200.194C39.682 200.255 31.6126 199.185 31.6025 197.864C31.5925 196.542 39.6619 195.392 49.6453 195.331C59.6288 195.271 67.7083 196.32 67.7083 197.662Z" fill="#5497C8"/>
</g>
<g style="mix-blend-mode:multiply" opacity="0.5">
<path d="M67.134 197.662C67.134 198.983 59.2056 200.093 49.4035 200.154C39.6013 200.214 31.6528 199.145 31.6528 197.864C31.6528 196.582 39.5812 195.432 49.3833 195.382C59.1855 195.332 67.1239 196.35 67.134 197.662Z" fill="#5396C8"/>
</g>
<g style="mix-blend-mode:multiply" opacity="0.5">
<path d="M66.5497 197.662C66.5497 198.963 58.7623 200.053 49.1315 200.113C39.5006 200.174 31.6931 199.155 31.6931 197.864C31.6931 196.572 39.4804 195.473 49.1113 195.422C58.7422 195.372 66.5497 196.371 66.5497 197.662Z" fill="#5295C7"/>
</g>
<g style="mix-blend-mode:multiply" opacity="0.5">
<path d="M65.9655 197.672C65.9655 198.943 58.3192 200.012 48.8394 200.073C39.3597 200.134 31.7134 199.135 31.7134 197.864C31.7134 196.593 39.3597 195.523 48.8394 195.463C58.3192 195.402 65.9655 196.401 65.9655 197.672Z" fill="#5094C7"/>
</g>
<g style="mix-blend-mode:multiply" opacity="0.5">
<path d="M65.3811 197.672C65.3811 198.923 57.8759 199.972 48.5875 200.033C39.2991 200.093 31.7738 199.115 31.7637 197.864C31.7536 196.613 39.279 195.563 48.5673 195.513C57.8557 195.463 65.3811 196.421 65.3811 197.672Z" fill="#4F93C6"/>
</g>
<g style="mix-blend-mode:multiply" opacity="0.5">
<path d="M64.8069 197.672C64.8069 198.903 57.4326 199.932 48.3155 199.982C39.1984 200.033 31.814 199.084 31.804 197.864C31.7939 196.643 39.1782 195.604 48.2953 195.553C57.4124 195.503 64.7968 196.451 64.8069 197.672Z" fill="#4E92C6"/>
</g>
<g style="mix-blend-mode:multiply" opacity="0.5">
<path d="M64.2226 197.682C64.2226 198.883 56.9893 199.891 48.0435 199.942C39.0976 199.992 31.8543 199.064 31.8442 197.864C31.8342 196.663 39.0775 195.644 48.0233 195.594C56.9692 195.543 64.2125 196.482 64.2226 197.682Z" fill="#4C92C5"/>
</g>
<g style="mix-blend-mode:multiply" opacity="0.5">
<path d="M63.6785 197.682C63.6785 198.862 56.6266 199.861 47.8117 199.902C38.9969 199.942 31.9349 199.044 31.9248 197.884C31.9147 196.724 39.0271 195.705 47.7916 195.654C56.5561 195.604 63.6785 196.502 63.6785 197.682Z" fill="#4B91C5"/>
</g>
<g style="mix-blend-mode:multiply" opacity="0.5">
<path d="M63.0539 197.682C63.0539 198.842 56.0927 199.821 47.4995 199.861C38.9062 199.902 31.9349 199.014 31.9248 197.843C31.9147 196.673 38.8861 195.705 47.4793 195.664C56.0725 195.624 63.0439 196.532 63.0539 197.682Z" fill="#4990C5"/>
</g>
<g style="mix-blend-mode:multiply" opacity="0.5">
<path d="M62.4696 197.692C62.4696 198.822 55.6494 199.78 47.2274 199.821C38.8054 199.861 31.9752 198.994 31.9651 197.864C31.955 196.734 38.7853 195.775 47.2073 195.725C55.6293 195.674 62.4595 196.552 62.4696 197.692Z" fill="#488FC4"/>
</g>
<g style="mix-blend-mode:multiply" opacity="0.5">
<path d="M46.9423 199.792C55.1933 199.746 61.8771 198.809 61.8709 197.701C61.8647 196.592 55.1709 195.73 46.92 195.777C38.669 195.823 31.9852 196.759 31.9914 197.868C31.9976 198.976 38.6914 199.838 46.9423 199.792Z" fill="#478EC4"/>
</g>
<g style="mix-blend-mode:multiply" opacity="0.5">
<path d="M61.301 197.692C61.301 198.782 54.7629 199.71 46.6834 199.71C38.6039 199.71 32.0457 198.913 32.0457 197.833C32.0457 196.754 38.5838 195.816 46.6632 195.816C54.7427 195.816 61.301 196.613 61.301 197.692Z" fill="#458DC3"/>
</g>
<g style="mix-blend-mode:multiply" opacity="0.5">
<path d="M60.7167 197.702C60.7167 198.711 54.3196 199.659 46.4114 199.72C38.5032 199.78 32.0859 198.943 32.0859 197.884C32.0859 196.825 38.483 195.917 46.3912 195.866C54.2994 195.816 60.7167 196.633 60.7167 197.702Z" fill="#448CC3"/>
</g>
<g style="mix-blend-mode:multiply" opacity="0.5">
<path d="M60.1424 197.702C60.1424 198.711 53.8763 199.619 46.1394 199.659C38.4024 199.7 32.1262 198.903 32.1262 197.864C32.1262 196.825 38.3823 195.937 46.1192 195.896C53.8562 195.856 60.1324 196.663 60.1424 197.702Z" fill="#428CC2"/>
</g>
<g style="mix-blend-mode:multiply" opacity="0.5">
<path d="M59.5581 197.702C59.5581 198.711 53.433 199.579 45.8673 199.619C38.3017 199.659 32.1665 198.872 32.1665 197.864C32.1665 196.855 38.2815 195.967 45.8472 195.967C53.4129 195.967 59.548 196.683 59.5581 197.702Z" fill="#418BC2"/>
</g>
<g style="mix-blend-mode:multiply" opacity="0.5">
<path d="M58.9738 197.712C58.9738 198.721 52.9898 199.538 45.5953 199.579C38.2009 199.619 32.2068 198.852 32.2068 197.864C32.2068 196.875 38.1808 196.028 45.5752 195.987C52.9696 195.947 58.9637 196.714 58.9738 197.712Z" fill="#3F8AC1"/>
</g>
<g style="mix-blend-mode:multiply" opacity="0.5">
<path d="M58.3896 197.712C58.3896 198.721 52.5465 199.498 45.2932 199.538C38.0398 199.579 32.1968 198.832 32.1968 197.854C32.1968 196.875 38.0499 196.068 45.2932 196.028C52.5365 195.987 58.3795 196.744 58.3896 197.712Z" fill="#3E89C1"/>
</g>
<g style="mix-blend-mode:multiply" opacity="0.5">
<path d="M57.8052 197.712C57.8052 198.661 52.1033 199.458 45.0514 199.498C37.9995 199.538 32.2874 198.802 32.2774 197.854C32.2673 196.905 37.9894 196.108 45.0312 196.068C52.0731 196.028 57.8052 196.764 57.8052 197.712Z" fill="#3D88C0"/>
</g>
<g style="mix-blend-mode:multiply" opacity="0.5">
<path d="M57.2209 197.712C57.2209 198.64 51.66 199.427 44.7794 199.458C37.8987 199.488 32.3277 198.782 32.3176 197.854C32.3076 196.925 37.8886 196.149 44.7592 196.118C51.6298 196.088 57.2209 196.794 57.2209 197.712Z" fill="#3B87C0"/>
</g>
<g style="mix-blend-mode:multiply" opacity="0.5">
<path d="M44.4923 199.442C51.1966 199.405 56.6274 198.643 56.6224 197.74C56.6173 196.837 51.1784 196.136 44.4741 196.174C37.7698 196.211 32.339 196.973 32.3441 197.876C32.3491 198.778 37.7881 199.48 44.4923 199.442Z" fill="#3A86C0"/>
</g>
<g style="mix-blend-mode:multiply" opacity="0.5">
<path d="M56.0524 197.722C56.0524 198.6 50.7736 199.347 44.2355 199.377C37.6974 199.407 32.4487 198.731 32.4487 197.854C32.4487 196.976 37.7377 196.239 44.2657 196.199C50.7937 196.159 56.0524 196.845 56.0524 197.722Z" fill="#3885BF"/>
</g>
<g style="mix-blend-mode:multiply" opacity="0.5">
<path d="M43.9478 199.344C50.3071 199.309 55.4585 198.589 55.4538 197.736C55.449 196.884 50.2899 196.222 43.9306 196.257C37.5713 196.293 32.4199 197.013 32.4246 197.865C32.4294 198.718 37.5885 199.38 43.9478 199.344Z" fill="#3784BF"/>
</g>
<g style="mix-blend-mode:multiply" opacity="0.5">
<path d="M43.6756 199.306C49.8624 199.271 54.8741 198.57 54.8695 197.74C54.8649 196.91 49.8457 196.265 43.6588 196.299C37.472 196.334 32.4603 197.035 32.4649 197.865C32.4696 198.695 37.4887 199.34 43.6756 199.306Z" fill="#3584BE"/>
</g>
<g style="mix-blend-mode:multiply" opacity="0.5">
<path d="M54.3097 197.733C54.3097 198.54 49.4338 199.226 43.4195 199.256C37.4052 199.286 32.5193 198.661 32.5193 197.854C32.5193 197.046 37.3851 196.36 43.4094 196.33C49.4338 196.3 54.2996 196.976 54.3097 197.733Z" fill="#3483BE"/>
</g>
<g style="mix-blend-mode:multiply" opacity="0.5">
<path d="M53.7253 197.733C53.7253 198.519 48.9905 199.185 43.1475 199.215C37.3045 199.246 32.5596 198.64 32.5596 197.854C32.5596 197.067 37.2843 196.401 43.1374 196.371C48.9905 196.34 53.7153 196.976 53.7253 197.733Z" fill="#3282BD"/>
</g>
<g style="mix-blend-mode:multiply" opacity="0.5">
<path d="M53.141 197.743C53.141 198.499 48.5472 199.145 42.8755 199.175C37.2037 199.205 32.5999 198.62 32.5999 197.854C32.5999 197.087 37.1836 196.451 42.8654 196.411C48.5472 196.371 53.141 196.976 53.141 197.743Z" fill="#3181BD"/>
</g>
<g style="mix-blend-mode:multiply" opacity="0.5">
<path d="M52.597 197.743C52.597 198.479 48.1442 199.105 42.6437 199.135C37.1433 199.165 32.6804 198.59 32.6804 197.854C32.6804 197.117 37.1332 196.492 42.6337 196.461C48.1342 196.431 52.597 196.976 52.597 197.743Z" fill="#2F80BC"/>
</g>
<g style="mix-blend-mode:multiply" opacity="0.5">
<path d="M51.9724 197.743C51.9724 198.459 47.6607 199.064 42.3315 199.094C37.0022 199.125 32.6804 198.57 32.6804 197.854C32.6804 197.137 36.9922 196.532 42.3214 196.502C47.6506 196.471 51.9724 197.026 51.9724 197.743Z" fill="#2E7FBC"/>
</g>
<g style="mix-blend-mode:multiply" opacity="0.5">
<path d="M51.3881 197.753C51.3881 198.439 47.2174 199.024 42.0594 199.054C36.9015 199.084 32.7207 198.55 32.7207 197.854C32.7207 197.157 36.8914 196.572 42.0494 196.542C47.2073 196.512 51.3881 197.057 51.3881 197.753Z" fill="#2C7EBB"/>
</g>
<g style="mix-blend-mode:multiply" opacity="0.5">
<path d="M50.8139 197.753C50.8139 198.419 46.7842 198.983 41.7472 199.014C36.7101 199.044 32.6804 198.519 32.6804 197.854C32.6804 197.188 36.7101 196.613 41.7472 196.593C46.7842 196.572 50.8038 197.077 50.8139 197.753Z" fill="#2B7DBB"/>
</g>
<g style="mix-blend-mode:multiply" opacity="0.5">
<path d="M41.5078 198.985C46.3204 198.958 50.2189 198.412 50.2153 197.766C50.2117 197.119 46.3074 196.617 41.4948 196.644C36.6821 196.671 32.7837 197.217 32.7873 197.863C32.7909 198.51 36.6952 199.012 41.5078 198.985Z" fill="#2A7CBA"/>
</g>
<g style="mix-blend-mode:multiply" opacity="0.5">
<path d="M49.6453 197.763C49.6453 198.378 45.8876 198.913 41.2435 198.933C36.5993 198.953 32.8416 198.479 32.8316 197.854C32.8215 197.228 36.5892 196.703 41.2334 196.673C45.8776 196.643 49.6352 197.137 49.6453 197.763Z" fill="#287BBA"/>
</g>
<g style="mix-blend-mode:multiply" opacity="0.5">
<path d="M49.061 197.763C49.061 198.358 45.4444 198.872 41.0017 198.893C36.559 198.913 32.9424 198.449 32.9424 197.884C32.9424 197.319 36.559 196.774 41.0017 196.744C45.4444 196.714 49.061 197.157 49.061 197.763Z" fill="#277BB9"/>
</g>
<g style="mix-blend-mode:multiply" opacity="0.5">
<path d="M48.4767 197.763C48.4767 198.338 45.0011 198.832 40.6994 198.852C36.3978 198.872 32.9121 198.429 32.9121 197.843C32.9121 197.258 36.3877 196.774 40.6893 196.754C44.991 196.734 48.4767 197.188 48.4767 197.763Z" fill="#257AB9"/>
</g>
<g style="mix-blend-mode:multiply" opacity="0.5">
<path d="M47.8924 197.763C47.8924 198.318 44.5578 198.772 40.4274 198.772C36.297 198.772 32.9524 198.368 32.9524 197.813C32.9524 197.258 36.2869 196.804 40.4173 196.804C44.5477 196.804 47.8924 197.208 47.8924 197.763Z" fill="#2479B8"/>
</g>
<g style="mix-blend-mode:multiply" opacity="0.5">
<path d="M47.308 197.773C47.308 198.297 44.1145 198.782 40.1554 198.782C36.1963 198.782 32.9927 198.388 32.9927 197.864C32.9927 197.339 36.1963 196.855 40.1453 196.855C44.0944 196.855 47.308 197.238 47.308 197.773Z" fill="#2278B8"/>
</g>
<g style="mix-blend-mode:multiply" opacity="0.5">
<path d="M46.7237 197.773C46.7237 198.277 43.7015 198.711 39.8834 198.731C36.0653 198.751 33.033 198.358 33.033 197.854C33.033 197.349 36.0552 196.915 39.8733 196.895C43.6914 196.875 46.7237 197.268 46.7237 197.773Z" fill="#2177B7"/>
</g>
<g style="mix-blend-mode:multiply" opacity="0.5">
<path d="M46.1495 197.773C46.1495 198.257 43.2179 198.671 39.6114 198.691C36.0048 198.711 33.0732 198.338 33.0732 197.854C33.0732 197.369 35.9948 196.956 39.6013 196.936C43.2078 196.915 46.1394 197.289 46.1495 197.773Z" fill="#1F76B7"/>
</g>
<g style="mix-blend-mode:multiply" opacity="0.5">
<path d="M45.5452 197.783C45.5452 198.247 42.7546 198.63 39.3193 198.651C35.8841 198.671 33.0935 198.308 33.0935 197.854C33.0935 197.4 35.874 196.996 39.3093 196.976C42.7445 196.956 45.5452 197.319 45.5452 197.783Z" fill="#1E75B6"/>
</g>
<g style="mix-blend-mode:multiply" opacity="0.5">
<path d="M44.9809 197.783C44.9809 198.227 42.3314 198.59 39.0673 198.61C35.8033 198.63 33.1538 198.287 33.1538 197.854C33.1538 197.42 35.7932 197.036 39.0573 197.016C42.3213 196.996 44.9809 197.339 44.9809 197.783Z" fill="#1C74B6"/>
</g>
<g style="mix-blend-mode:multiply" opacity="0.5">
<path d="M44.3965 197.783C44.3965 198.207 41.8881 198.55 38.7953 198.57C35.7026 198.59 33.1941 198.267 33.1941 197.854C33.1941 197.44 35.6925 197.087 38.7852 197.067C41.878 197.047 44.3965 197.369 44.3965 197.783Z" fill="#1A73B6"/>
</g>
<g style="mix-blend-mode:multiply" opacity="0.5">
<path d="M43.8123 197.793C43.8123 198.186 41.4449 198.509 38.5234 198.53C35.6019 198.55 33.2345 198.237 33.2244 197.854C33.2143 197.47 35.5918 197.127 38.5133 197.107C41.4348 197.087 43.8123 197.4 43.8123 197.793Z" fill="#1972B5"/>
</g>
<g style="mix-blend-mode:multiply" opacity="0.5">
<path d="M43.228 197.793C43.228 198.166 41.0016 198.479 38.2514 198.489C35.5011 198.499 33.2748 198.217 33.2647 197.854C33.2546 197.49 35.4911 197.168 38.2413 197.147C40.9916 197.127 43.228 197.42 43.228 197.793Z" fill="#1771B5"/>
</g>
<g style="mix-blend-mode:multiply" opacity="0.5">
<path d="M42.6437 197.793C42.6437 198.146 40.5583 198.439 37.9793 198.449C35.4004 198.459 33.3049 198.197 33.3049 197.843C33.3049 197.49 35.3903 197.208 37.9693 197.198C40.5482 197.188 42.6437 197.45 42.6437 197.793Z" fill="#1670B4"/>
</g>
<g style="mix-blend-mode:multiply" opacity="0.5">
<path d="M42.0593 197.803C42.0593 198.126 40.115 198.398 37.7073 198.408C35.2996 198.419 33.3452 198.176 33.3452 197.843C33.3452 197.511 35.2996 197.248 37.6973 197.238C40.0949 197.228 42.0593 197.47 42.0593 197.803Z" fill="#146FB4"/>
</g>
<g style="mix-blend-mode:multiply" opacity="0.5">
<path d="M41.5154 197.803C41.5154 198.106 39.7121 198.358 37.4857 198.368C35.2593 198.378 33.4561 198.146 33.4561 197.843C33.4561 197.541 35.2694 197.289 37.4857 197.279C39.702 197.268 41.5154 197.5 41.5154 197.803Z" fill="#136EB3"/>
</g>
<g style="mix-blend-mode:multiply" opacity="0.5">
<path d="M40.9008 197.803C40.9008 198.086 39.2285 198.318 37.1633 198.328C35.0981 198.338 33.4258 198.126 33.4258 197.843C33.4258 197.561 35.0981 197.339 37.1633 197.319C39.2285 197.299 40.8907 197.531 40.9008 197.803Z" fill="#116EB3"/>
</g>
<g style="mix-blend-mode:multiply" opacity="0.5">
<path d="M40.3165 197.803C40.3165 198.065 38.7852 198.277 36.8913 198.287C34.9973 198.297 33.4661 198.106 33.4661 197.843C33.4661 197.581 34.9973 197.379 36.8913 197.369C38.7852 197.359 40.3165 197.551 40.3165 197.803Z" fill="#106DB2"/>
</g>
<g style="mix-blend-mode:multiply" opacity="0.5">
<path d="M39.7322 197.813C39.7322 198.045 38.3419 198.237 36.6193 198.247C34.8966 198.257 33.5063 198.075 33.5063 197.843C33.5063 197.611 34.8966 197.42 36.6193 197.41C38.3419 197.4 39.7322 197.581 39.7322 197.813Z" fill="#0E6CB2"/>
</g>
<g style="mix-blend-mode:multiply" opacity="0.5">
<path d="M39.1481 197.813C39.1481 198.025 37.8989 198.197 36.3475 198.207C34.7961 198.217 33.5469 198.055 33.5469 197.843C33.5469 197.632 34.7961 197.46 36.3475 197.45C37.8989 197.44 39.1481 197.601 39.1481 197.813Z" fill="#0D6BB1"/>
</g>
<g style="mix-blend-mode:multiply" opacity="0.5">
<path d="M38.5638 197.813C38.5638 198.004 37.4556 198.155 36.0755 198.165C34.6953 198.175 33.5872 198.034 33.5872 197.843C33.5872 197.652 34.6953 197.5 36.0755 197.5C37.4556 197.5 38.5638 197.631 38.5638 197.813Z" fill="#0B6AB1"/>
</g>
<g style="mix-blend-mode:multiply" opacity="0.5">
<path d="M37.9795 197.823C37.9795 197.984 36.9721 198.115 35.8035 198.125C34.6349 198.135 33.6274 198.004 33.6274 197.843C33.6274 197.682 34.6349 197.551 35.8035 197.541C36.9721 197.531 37.9795 197.662 37.9795 197.823Z" fill="#0969B0"/>
</g>
<g style="mix-blend-mode:multiply" opacity="0.5">
<path d="M37.3952 197.823C37.3952 197.964 36.559 198.075 35.5314 198.085C34.5039 198.095 33.6677 197.984 33.6677 197.843C33.6677 197.702 34.4938 197.591 35.5314 197.581C36.5691 197.571 37.3952 197.682 37.3952 197.823Z" fill="#0868B0"/>
</g>
<g style="mix-blend-mode:multiply" opacity="0.5">
<path d="M36.8109 197.823C36.8109 197.944 36.1158 198.035 35.2595 198.045C34.4032 198.055 33.7081 197.964 33.698 197.843C34.1922 197.642 34.7287 197.565 35.2595 197.622C36.1158 197.622 36.8109 197.712 36.8109 197.823Z" fill="#0667AF"/>
</g>
<g style="mix-blend-mode:multiply" opacity="0.5">
<path d="M36.2367 197.833C36.2367 197.924 35.6725 198.004 34.9875 198.004C34.3024 198.004 33.7383 197.934 33.7383 197.843C33.7383 197.753 34.3024 197.672 34.9875 197.672C35.6725 197.672 36.2367 197.743 36.2367 197.833Z" fill="#0566AF"/>
</g>
<g style="mix-blend-mode:multiply" opacity="0.5">
<path d="M35.6523 197.833C35.6523 197.904 35.2292 197.964 34.7155 197.964C34.2017 197.964 33.7786 197.914 33.7786 197.843C33.7786 197.773 34.2017 197.712 34.7155 197.712C35.2292 197.712 35.6523 197.763 35.6523 197.833Z" fill="#0365AE"/>
</g>
<g style="mix-blend-mode:multiply" opacity="0.5">
<path d="M35.068 197.833C35.068 197.833 34.786 197.924 34.4434 197.924C34.1009 197.924 33.8188 197.924 33.8188 197.843C33.8188 197.763 34.1009 197.763 34.4434 197.753C34.6551 197.73 34.8691 197.758 35.068 197.833Z" fill="#0264AE"/>
</g>
<g style="mix-blend-mode:multiply" opacity="0.5">
<path d="M34.4636 197.843C34.7735 197.883 35.0566 198.04 35.2554 198.281C35.4543 198.522 35.5539 198.83 35.534 199.143C35.5141 199.455 35.3762 199.748 35.1484 199.962C34.9205 200.176 34.6198 200.295 34.3074 200.295C33.995 200.295 33.6943 200.176 33.4665 199.962C33.2386 199.748 33.1008 199.455 33.0809 199.143C33.061 198.83 33.1606 198.522 33.3594 198.281C33.5582 198.04 33.8414 197.883 34.1513 197.843C34.3427 197.803 34.4636 197.813 34.4636 197.843Z" fill="#0063AD"/>
</g>
</g>
</g>
<g opacity="0.5">
<path opacity="0.5" d="M249.587 52.3689C249.587 52.3689 249.587 52.2982 249.536 52.268V52.1873V52.1066C249.189 51.1944 248.557 50.4193 247.733 49.8972L247.511 49.7661L220.835 34.3813L194.239 18.9864L194.018 18.8653C193.694 18.6527 193.32 18.5312 192.933 18.5135C192.547 18.4957 192.163 18.5824 191.822 18.7644H191.761H191.711L188.195 20.7821L190.21 21.6497L183.158 58.9768C182.995 59.985 183.128 61.0188 183.541 61.9528V62.0336V62.1143C183.891 63.0246 184.523 63.7988 185.344 64.3236L238.515 95.0831L238.032 97.4236L241.356 95.4867H241.407C241.765 95.2732 242.071 94.9805 242.3 94.6308C242.528 94.2811 242.674 93.8837 242.726 93.469L249.919 55.2642C250.088 54.2872 249.973 53.282 249.587 52.3689Z" fill="#EBF3FD"/>
<path opacity="0.5" d="M235.654 97.3933L181.999 66.3615C181.136 65.7314 180.471 64.8683 180.08 63.8731C179.689 62.878 179.59 61.792 179.793 60.7422L186.895 23.0823C187.298 20.9233 188.91 19.9246 190.562 20.8628L244.217 51.8947C245.08 52.5248 245.745 53.3879 246.136 54.383C246.527 55.3782 246.626 56.4642 246.423 57.5139L239.371 95.1739C238.968 97.3429 237.276 98.3316 235.654 97.3933Z" fill="url(#paint0_linear_677_48205)"/>
<path opacity="0.5" d="M244.006 51.7636L217.39 36.3788L209.058 80.6466L235.432 97.2723C235.786 97.5221 236.199 97.6733 236.63 97.7103C237.061 97.7474 237.494 97.669 237.885 97.4831C238.275 97.2972 238.61 97.0106 238.853 96.6527C239.097 96.2948 239.241 95.8784 239.271 95.4463L246.474 57.2416C246.629 56.1877 246.478 55.1115 246.041 54.1405C245.603 53.1696 244.897 52.3446 244.006 51.7636Z" fill="#62AAFB"/>
<path opacity="0.5" d="M190.784 20.9839L217.39 36.3788L209.109 80.3642L182.211 66.4926C181.319 65.9115 180.613 65.0866 180.175 64.1156C179.738 63.1447 179.588 62.0685 179.743 61.0146L186.946 22.8099C186.975 22.3778 187.12 21.9614 187.363 21.6035C187.607 21.2455 187.941 20.9589 188.332 20.7731C188.722 20.5872 189.155 20.5088 189.586 20.5458C190.017 20.5829 190.431 20.7341 190.784 20.9839Z" fill="#62AAFB"/>
<path opacity="0.5" d="M180.085 63.8898C180.49 64.9671 181.237 65.8815 182.211 66.4926L235.433 97.2723C235.813 97.528 236.256 97.6753 236.714 97.6984C237.172 97.7215 237.627 97.6196 238.032 97.4034L214.186 53.408L180.085 63.8898Z" fill="#2364B5"/>
<path opacity="0.5" d="M246.131 54.3664C245.726 53.2891 244.98 52.3747 244.006 51.7636L190.784 20.9839C190.402 20.7312 189.959 20.5858 189.502 20.5627C189.045 20.5396 188.59 20.6398 188.185 20.8527L212.03 64.8179L246.131 54.3664Z" fill="#62AAFB"/>
</g>
<path d="M147.233 0L156.109 5.12491L150.991 7.31409L168.742 101.56C169.138 104.113 168.788 106.727 167.734 109.086L167.654 109.288C167.654 109.348 167.603 109.409 167.573 109.479C166.69 111.784 165.094 113.746 163.02 115.078L28.9932 192.598L30.2323 198.519L21.8204 193.637L21.6894 193.566C20.7905 193.031 20.0237 192.299 19.4464 191.426C18.869 190.552 18.4959 189.56 18.3549 188.522L0.211334 92.0566C-0.184196 89.6028 0.112381 87.0871 1.06764 84.793L1.17846 84.5206C1.17846 84.46 1.17844 84.3894 1.25904 84.3289L1.34972 84.1271C2.22589 81.8241 3.81889 79.8645 5.89315 78.5382L6.44723 78.2153L73.672 39.3347L140.887 0.464073" fill="#EBF3FD"/>
<path d="M36.2364 198.509L171.774 120.112C175.874 117.742 178.363 111.386 177.335 105.908L159.383 10.7845C158.375 5.30649 154.195 2.79447 150.094 5.16524L14.5569 83.5521C10.4567 85.9228 7.96839 92.2886 9.00602 97.7565L26.9481 192.941C27.9756 198.358 32.1363 200.88 36.2364 198.509Z" fill="url(#paint1_linear_677_48205)"/>
<path d="M15.1412 83.2393L82.3559 44.3587L103.421 156.189L36.7906 198.187C32.3882 200.739 28.0361 198.671 27.0791 193.576L8.94563 97.0705C7.94829 91.9759 10.7388 85.7816 15.1412 83.2393Z" fill="#62AAFB"/>
<path d="M149.571 5.47798L82.356 44.3587L103.29 155.482L171.22 120.435C173.475 118.969 175.262 116.885 176.367 114.431C177.473 111.977 177.851 109.257 177.456 106.594L159.322 10.0985C158.375 5.00383 153.973 2.93571 149.571 5.47798Z" fill="#62AAFB"/>
<path d="M176.61 113.858C175.58 116.581 173.686 118.892 171.22 120.435L36.7904 198.186C35.8307 198.833 34.713 199.206 33.5575 199.265C32.402 199.324 31.2524 199.066 30.2322 198.519L90.4554 87.3857L176.61 113.858Z" fill="#2364B5"/>
<path opacity="0.9" d="M9.76172 89.817C10.7844 87.092 12.6751 84.7803 15.1413 83.2393L149.571 5.478C150.532 4.83467 151.65 4.46485 152.805 4.408C153.96 4.35114 155.109 4.60939 156.129 5.15518L95.9158 116.269L9.76172 89.817Z" fill="#78B8FF"/>
<defs>
<linearGradient id="paint0_linear_677_48205" x1="184.428" y1="47.2855" x2="248.136" y2="59.5197" gradientUnits="userSpaceOnUse">
<stop stop-color="#7BDAFF"/>
<stop offset="1" stop-color="#59BDEF"/>
</linearGradient>
<linearGradient id="paint1_linear_677_48205" x1="370530" y1="-257660" x2="343568" y2="-252482" gradientUnits="userSpaceOnUse">
<stop stop-color="#7BDAFF"/>
<stop offset="1" stop-color="#59BDEF"/>
</linearGradient>
</defs>
</svg>
