<svg width="15" height="15" viewBox="0 0 15 15" fill="none" xmlns="http://www.w3.org/2000/svg">
<path d="M2.44467 2.44064C4.82962 0.140855 8.37891 0.232519 10.5863 2.44064C12.6971 4.55215 12.8261 7.89539 10.9734 10.1575L14.25 13.4356L13.4358 14.25L10.1589 10.9723C7.89756 12.8256 4.55547 12.6965 2.44467 10.585C0.237304 8.37691 0.133512 4.66926 2.44467 2.44064ZM9.77212 3.25508C7.97352 1.45587 5.05742 1.45587 3.25883 3.25508C1.46024 5.05429 1.46024 7.97138 3.25883 9.77059C5.05742 11.5698 7.97352 11.5698 9.77212 9.77059C11.5707 7.97138 11.5707 5.05429 9.77212 3.25508Z" fill="#9098A0"/>
</svg>
