<svg xmlns="http://www.w3.org/2000/svg" xmlns:xlink="http://www.w3.org/1999/xlink" width="35" height="9" viewBox="0 0 35 9"><defs><path id="51i4a" d="M1330 84c0-1 1-2 2-2h5c1 0 2 1 2 2v5c0 1-1 2-2 2h-5c-1 0-2-1-2-2z"/><path id="51i4b" d="M1343 84c0-1 1-2 2-2h5c1 0 2 1 2 2v5c0 1-1 2-2 2h-5c-1 0-2-1-2-2z"/><path id="51i4c" d="M1356 84c0-1 1-2 2-2h5c1 0 2 1 2 2v5c0 1-1 2-2 2h-5c-1 0-2-1-2-2z"/><clipPath id="51i4d"><use fill="#fff" xlink:href="#51i4a"/></clipPath><clipPath id="51i4e"><use fill="#fff" xlink:href="#51i4b"/></clipPath><clipPath id="51i4f"><use fill="#fff" xlink:href="#51i4c"/></clipPath></defs><g><g transform="translate(-1330 -82)"><use fill="#fff" fill-opacity="0" stroke="#000" stroke-miterlimit="50" stroke-width="4.44" clip-path="url(&quot;#51i4d&quot;)" xlink:href="#51i4a"/></g><g transform="translate(-1330 -82)"><use fill="#fff" fill-opacity="0" stroke="#000" stroke-miterlimit="50" stroke-width="4.44" clip-path="url(&quot;#51i4e&quot;)" xlink:href="#51i4b"/></g><g transform="translate(-1330 -82)"><use fill="#fff" fill-opacity="0" stroke="#000" stroke-miterlimit="50" stroke-width="4.44" clip-path="url(&quot;#51i4f&quot;)" xlink:href="#51i4c"/></g></g></svg>