<svg width="15" height="16" viewBox="0 0 15 16" fill="none" xmlns="http://www.w3.org/2000/svg">
<path d="M6 6.37298C6 6.06233 6.25184 5.81048 6.5625 5.81048H8.30692C8.48238 5.81048 8.65228 5.872 8.78706 5.98432L8.89486 6.07415C9.21307 6.33932 9.68599 6.29633 9.95116 5.97812C10.2163 5.65992 10.1733 5.18699 9.85514 4.92182L9.74734 4.83199C9.34298 4.49502 8.83328 4.31049 8.30692 4.31049H8.25V3.93549C8.25 3.52127 7.91421 3.18549 7.5 3.18549C7.08579 3.18549 6.75 3.52127 6.75 3.93549V4.31049H6.5625C5.42341 4.31049 4.5 5.2339 4.5 6.37298C4.5 7.51207 5.42341 8.43548 6.5625 8.43548H8.4375C8.74816 8.43548 9 8.68732 9 8.99798C9 9.30865 8.74816 9.56048 8.4375 9.56048H6.30898C6.11373 9.56048 5.92617 9.48434 5.78617 9.34823L5.77281 9.33524C5.47582 9.0465 5.00099 9.05319 4.71225 9.35018C4.42351 9.64717 4.4302 10.122 4.72719 10.4107L4.74055 10.4237C5.16054 10.832 5.72322 11.0605 6.30898 11.0605H6.75V11.4355C6.75 11.8497 7.08579 12.1855 7.5 12.1855C7.91421 12.1855 8.25 11.8497 8.25 11.4355V11.0605H8.4375C9.57659 11.0605 10.5 10.1371 10.5 8.99798C10.5 7.8589 9.57659 6.93548 8.4375 6.93548H6.5625C6.25184 6.93548 6 6.68365 6 6.37298Z" fill="white"/>
<path fill-rule="evenodd" clip-rule="evenodd" d="M7.5 0.185486C3.35786 0.185486 0 3.54335 0 7.68549C0 11.8276 3.35786 15.1855 7.5 15.1855C11.6421 15.1855 15 11.8276 15 7.68549C15 3.54335 11.6421 0.185486 7.5 0.185486ZM1.5 7.68549C1.5 4.37178 4.18629 1.68549 7.5 1.68549C10.8137 1.68549 13.5 4.37178 13.5 7.68549C13.5 10.9992 10.8137 13.6855 7.5 13.6855C4.18629 13.6855 1.5 10.9992 1.5 7.68549Z" fill="white"/>
</svg>
