<svg width="95" height="94" viewBox="0 0 95 94" fill="none" xmlns="http://www.w3.org/2000/svg">
<path d="M0.195312 3.43774C0.195312 3.65062 0.195312 3.86346 0.195312 4.07632L100.598 -96.3267C100.385 -96.3267 100.173 -96.3267 99.9597 -96.3267C98.5169 -96.3267 97.0741 -96.2794 95.6313 -96.2321L0.289869 -0.890617C0.242565 0.552155 0.195312 1.97132 0.195312 3.43774Z" fill="white" fill-opacity="0.2"/>
<path d="M1.75584 21.0113L117.58 -94.8128C116.184 -95.0494 114.765 -95.2859 113.37 -95.4751L1.11719 16.7776C1.28275 18.2203 1.49567 19.6158 1.75584 21.0113Z" fill="white" fill-opacity="0.2"/>
<path d="M5.54174 35.7228L132.27 -91.0049C131.04 -91.4306 129.81 -91.8091 128.58 -92.1875L4.38281 32.0094C4.73759 33.263 5.116 34.4929 5.54174 35.7228Z" fill="white" fill-opacity="0.2"/>
<path d="M11.0536 48.7081L145.279 -85.5174C144.191 -86.0614 143.103 -86.6054 141.991 -87.1021L9.44531 45.4205C9.96566 46.5321 10.486 47.6201 11.0536 48.7081Z" fill="white" fill-opacity="0.2"/>
<path d="M17.955 60.2741L156.816 -78.5872C155.847 -79.2494 154.877 -79.9117 153.907 -80.5503L16.0156 57.3412C16.6542 58.3346 17.2927 59.3043 17.955 60.2741Z" fill="white" fill-opacity="0.2"/>
<path d="M26.1615 70.5623L167.104 -70.3803C166.253 -71.1608 165.377 -71.9177 164.502 -72.6509L23.8672 67.9843C24.6241 68.8594 25.381 69.7109 26.1615 70.5623Z" fill="white" fill-opacity="0.2"/>
<path d="M35.5782 79.6449L176.19 -60.9666C175.457 -61.8417 174.7 -62.7169 173.919 -63.5684L32.9766 77.3743C33.828 78.1548 34.7031 78.9117 35.5782 79.6449Z" fill="white" fill-opacity="0.2"/>
<path d="M46.2219 87.497L184.066 -50.3472C183.428 -51.3406 182.789 -52.3103 182.103 -53.2563L43.2891 85.5575C44.2588 86.2198 45.2285 86.882 46.2219 87.497Z" fill="white" fill-opacity="0.2"/>
<path d="M58.1625 94.0485L190.591 -38.3794C190.07 -39.491 189.55 -40.579 189.006 -41.667L54.875 92.4638C55.963 93.0078 57.0509 93.5282 58.1625 94.0485Z" fill="white" fill-opacity="0.2"/>
<path d="M71.5961 99.11L195.675 -24.945C195.296 -26.1985 194.918 -27.4285 194.516 -28.6348L67.9062 97.9747C69.1125 98.3531 70.3426 98.7316 71.5961 99.11Z" fill="white" fill-opacity="0.2"/>
<path d="M86.835 102.35L198.898 -9.71311C198.709 -11.1322 198.496 -12.5277 198.26 -13.9468L82.625 101.688C84.0205 101.948 85.4159 102.161 86.835 102.35Z" fill="white" fill-opacity="0.2"/>
</svg>
