<svg width="83" height="83" viewBox="0 0 83 83" fill="none" xmlns="http://www.w3.org/2000/svg">
<path d="M43.2031 34.2272C44.498 35.2273 45.8561 36.2712 47.1115 37.2363C47.8537 37.7977 48.5327 38.3066 49.0696 38.7013C49.3144 38.9558 49.7013 39.2453 49.9776 39.4822C49.8276 39.3418 49.9066 39.3506 50.025 39.4471C50.8935 40.1314 50.104 39.4558 50.9962 40.1226C51.4936 40.4735 52.6227 41.3596 53.7597 42.2632C55.3625 43.544 56.989 44.8424 57.7628 45.4565C57.8181 45.2548 57.8417 45.132 57.8733 45.0355C57.9839 44.4038 58.1339 43.7721 58.276 43.1492C58.3471 42.8334 58.426 42.5264 58.4971 42.2193C58.5208 42.0965 58.5524 41.9737 58.576 41.8596C58.5918 41.7719 58.6076 41.6929 58.6234 41.614V41.6842C58.7576 41.0087 59.7288 37.2538 59.8867 36.473L59.8551 36.5783C59.9736 35.8852 60.0288 36.0081 60.1789 35.4817C60.0841 35.5255 60.171 34.9378 60.2183 34.7097L60.2341 34.7272C60.2973 34.3938 60.4078 33.613 60.5263 33.0603L60.5658 33.0954C60.6289 32.6217 60.85 31.7619 60.929 31.4373C61.1263 30.6916 61.4817 29.5512 61.6633 28.5247L61.9475 27.9106L61.9554 27.8141L62.2396 25.5419C62.2949 25.0243 60.3526 26.2262 60.3289 26.1648C60.471 26.1034 60.6131 26.0332 60.6526 26.0332C60.6052 26.0244 60.3289 26.1385 60.1868 26.2262V26.3051C59.8551 26.4894 60.092 26.3052 59.7683 26.4631C59.7288 26.4192 60.0288 26.2613 60.2894 26.1297C60.0446 26.235 59.792 26.3052 59.7209 26.4104C59.484 26.4982 59.7209 26.3315 59.4446 26.4367C59.2551 26.542 59.0261 26.7175 58.7892 26.7877V26.7789C58.2286 26.9719 57.9918 27.2526 57.4785 27.4281L57.5259 27.3842C57.3443 27.4369 57.0127 27.6386 56.6811 27.7527C56.7758 27.7176 56.8706 27.7264 56.6811 27.8229C56.31 27.9545 56.0731 28.1124 55.7889 28.1913L55.552 28.3668C54.2887 28.9458 49.346 31.3584 48.0827 31.9637L48.13 31.9286C46.8983 32.4725 45.1218 33.3148 43.2031 34.2272Z" fill="white" fill-opacity="0.2"/>
<path d="M39.4277 16.6461C40.7147 15.6284 42.057 14.5669 43.3045 13.5843C44.0309 13.0053 44.6941 12.4614 45.2074 12.0315C45.5074 11.8648 45.8785 11.5578 46.1706 11.3472C45.9969 11.4525 46.0364 11.3736 46.1549 11.2771C47.0313 10.6015 46.1943 11.1981 47.0629 10.4962C47.5287 10.1015 48.6578 9.21539 49.8106 8.3381C51.4371 7.10111 53.0873 5.8378 53.869 5.24124C53.719 5.11842 53.6242 5.04822 53.5452 4.98681C53.0478 4.65344 52.5662 4.29375 52.0845 3.91651C51.8477 3.73228 51.6029 3.54805 51.3739 3.37259C51.2792 3.3024 51.1844 3.23223 51.0976 3.16205C51.0344 3.11818 50.9712 3.07429 50.9081 3.03043L50.9634 3.04799C50.4343 2.67953 47.584 0.389781 46.976 -0.0488682L47.0471 0.0213041C46.5023 -0.338388 46.6207 -0.355932 46.2259 -0.689305C46.2338 -0.575256 45.7601 -0.873543 45.5864 -0.996365L45.6021 -1.00512C45.3416 -1.18935 44.7178 -1.56659 44.2915 -1.88242L44.3309 -1.91752C43.9519 -2.14561 43.3045 -2.672 43.0439 -2.85623C42.4754 -3.3212 41.6306 -4.07568 40.8252 -4.61961L40.3989 -5.12843L40.3199 -5.17228L38.4881 -6.24259C38.0696 -6.47946 38.4249 -4.04058 38.3697 -4.03181C38.3618 -4.19849 38.3539 -4.36518 38.3618 -4.41782C38.3381 -4.37396 38.3381 -4.04058 38.3618 -3.86512L38.4249 -3.8388C38.4644 -3.43524 38.3934 -3.7423 38.417 -3.34752C38.3618 -3.3212 38.3381 -3.68966 38.3144 -4.00549C38.3223 -3.71598 38.2986 -3.42647 38.3618 -3.31242C38.3539 -3.04045 38.2986 -3.33874 38.2907 -3.01414C38.3144 -2.78604 38.3855 -2.479 38.3618 -2.20704L38.3539 -2.2158C38.3302 -1.55782 38.4802 -1.22445 38.4565 -0.627888L38.4328 -0.689305C38.4091 -0.478754 38.4723 -0.0664291 38.4565 0.319582C38.4644 0.214306 38.496 0.117821 38.5118 0.337145C38.496 0.775794 38.5434 1.07406 38.5197 1.38989L38.5828 1.68816C38.646 3.20589 39.0013 9.19784 39.0882 10.7156L39.0803 10.6542C39.1987 12.1806 39.3093 14.33 39.4277 16.6461Z" fill="white" fill-opacity="0.2"/>
<path d="M38 77.2061C39.5239 77.6536 41.1188 78.1185 42.5953 78.5572C43.4638 78.8028 44.2613 79.0309 44.885 79.1888C45.193 79.338 45.643 79.4608 45.9746 79.5749C45.793 79.4959 45.8641 79.4784 46.0141 79.5222C47.0405 79.838 46.0931 79.5047 47.1353 79.7942C47.7117 79.9433 49.0382 80.3381 50.3883 80.7592C52.2912 81.3557 54.2177 81.9523 55.1257 82.2418C55.1099 82.0313 55.102 81.9084 55.0941 81.8032C55.0073 81.1627 54.952 80.5223 54.8967 79.8731C54.873 79.5485 54.8415 79.2239 54.8178 78.9169C54.8099 78.7941 54.7941 78.6712 54.7862 78.5484C54.7783 78.4694 54.7625 78.3817 54.7546 78.3028L54.7783 78.3642C54.6915 77.6799 54.4546 73.7759 54.3677 72.9863V73.0916C54.2651 72.3985 54.3519 72.4863 54.3362 71.9336C54.2572 72.0125 54.1624 71.4248 54.1388 71.1967L54.1546 71.2054C54.1151 70.8632 53.9808 70.0912 53.9177 69.5298L53.9651 69.5473C53.8782 69.0824 53.8308 68.1875 53.7913 67.8454C53.7519 67.0646 53.7361 65.8627 53.5861 64.8275L53.665 64.1431L53.6413 64.0467L53.215 61.8008C53.1123 61.2919 51.6516 63.1606 51.6121 63.1167C51.7227 63.0027 51.8332 62.8886 51.8806 62.8623C51.8332 62.8711 51.6042 63.0816 51.5016 63.2132L51.5253 63.2834C51.2726 63.5817 51.4384 63.3185 51.1779 63.5904C51.1305 63.5641 51.3595 63.301 51.5727 63.0817C51.3753 63.2747 51.1621 63.4413 51.1226 63.5642C50.9252 63.7308 51.0989 63.4939 50.87 63.6957C50.7278 63.8712 50.562 64.1169 50.3646 64.2748V64.266C49.8988 64.6608 49.7646 65.0117 49.3303 65.3714L49.3619 65.31C49.204 65.424 48.9592 65.7399 48.6828 65.9767C48.7618 65.9153 48.8487 65.8802 48.7065 66.0381C48.3986 66.3101 48.2249 66.5382 47.9801 66.7224L47.8143 66.9768C46.8037 68.0032 42.8953 72.1441 41.8926 73.1881L41.9242 73.1442C40.9372 74.1531 39.5239 75.6182 38 77.2061Z" fill="white" fill-opacity="0.2"/>
<path d="M72.6094 38.3328C73.6674 39.6312 74.7728 40.9997 75.7913 42.263C76.3993 43 76.952 43.6667 77.3942 44.1843C77.5837 44.5002 77.8916 44.8774 78.1127 45.1757C78.0021 45.0002 78.0732 45.0265 78.1679 45.1581C78.8707 46.0442 78.239 45.1932 78.9733 46.0705C79.3839 46.5443 80.2998 47.6848 81.2236 48.8516C82.5185 50.5097 83.837 52.1853 84.4608 52.9749C84.5556 52.7906 84.6029 52.6854 84.6503 52.5889C84.8872 52.0011 85.1635 51.4308 85.4399 50.8518C85.5741 50.5623 85.7162 50.2816 85.8426 50.0008C85.8978 49.8868 85.9452 49.7815 85.9926 49.6674C86.0242 49.5885 86.0557 49.5183 86.0873 49.4393L86.0794 49.5095C86.3479 48.8867 88.0691 45.474 88.385 44.7546L88.3297 44.8423C88.5824 44.2019 88.6139 44.3247 88.8745 43.8597C88.7719 43.8773 88.9771 43.3246 89.0719 43.1228L89.0877 43.1403C89.2219 42.8333 89.4904 42.1051 89.7193 41.5963L89.7509 41.6402C89.9088 41.1928 90.3036 40.4207 90.4457 40.1137C90.7932 39.4381 91.3774 38.4205 91.7643 37.4642L92.167 36.9379L92.1986 36.8413L92.9487 34.7007C93.1145 34.2095 90.9669 34.885 90.959 34.8236C91.109 34.7973 91.259 34.7709 91.3064 34.7709C91.2669 34.7446 90.9669 34.7885 90.8168 34.8323L90.8011 34.9113C90.4457 35.0078 90.7142 34.885 90.3589 34.9552C90.3273 34.9025 90.651 34.8236 90.9353 34.7709C90.6826 34.8148 90.4142 34.8148 90.3194 34.9025C90.0746 34.9201 90.3352 34.8236 90.0431 34.8586C89.8378 34.9113 89.5772 35.0253 89.3325 35.0341V35.0253C88.7482 35.078 88.4639 35.2798 87.927 35.3236L87.9823 35.2973C87.7928 35.2973 87.4296 35.4113 87.0901 35.4377C87.1848 35.4289 87.2796 35.4552 87.0743 35.4991C86.6795 35.5342 86.4268 35.6219 86.1347 35.6307L85.8741 35.7359C84.524 35.9816 79.2102 37.0607 77.86 37.3239L77.9074 37.3063C76.573 37.5695 74.6702 37.938 72.6094 38.3328Z" fill="white" fill-opacity="0.2"/>
<path d="M65.0078 15.2251C66.5475 15.6023 68.1582 15.9971 69.6505 16.3656C70.5269 16.5761 71.3322 16.7603 71.9639 16.8919C72.2797 17.0323 72.7298 17.1288 73.0693 17.2341C72.8877 17.1639 72.9588 17.1376 73.1088 17.1814C74.1431 17.4446 73.1877 17.1639 74.2378 17.4008C74.8142 17.5236 76.1644 17.857 77.5224 18.2167C79.4411 18.7255 81.3913 19.2343 82.3151 19.48C82.2914 19.2694 82.2835 19.1466 82.2677 19.0413C82.1572 18.4097 82.0782 17.7692 81.9993 17.12C81.9598 16.7954 81.9203 16.4796 81.8887 16.1638C81.8729 16.041 81.8572 15.9181 81.8414 15.7953C81.8256 15.7076 81.8098 15.6286 81.8019 15.5497L81.8256 15.6111C81.715 14.9268 81.336 11.0404 81.2176 10.2508V10.3561C81.0913 9.67178 81.186 9.75073 81.1465 9.19803C81.0676 9.28576 80.9492 8.69798 80.9176 8.46989L80.9413 8.47867C80.886 8.13652 80.7202 7.37328 80.6491 6.81181L80.6965 6.82934C80.5939 6.36438 80.507 5.47831 80.4675 5.13617C80.3965 4.36415 80.3333 3.15346 80.1517 2.12702L80.207 1.44273L80.1833 1.34624L79.6701 -0.882104C79.5437 -1.39094 78.1541 0.547905 78.1146 0.504041C78.2252 0.381219 78.3357 0.267154 78.3673 0.240835C78.3199 0.249608 78.0988 0.477717 77.9962 0.609312L78.0199 0.679484C77.7751 0.986538 77.933 0.714571 77.6882 1.00408C77.6409 0.977761 77.8619 0.70582 78.0593 0.477723C77.8698 0.679501 77.6646 0.85494 77.6251 0.977762C77.4356 1.15322 77.6014 0.907581 77.3724 1.11813C77.2382 1.29359 77.0803 1.55677 76.8829 1.71469V1.70593C76.4328 2.12704 76.3065 2.47795 75.888 2.85519L75.9196 2.79377C75.7617 2.91659 75.5327 3.2412 75.2643 3.48685C75.3432 3.41666 75.4301 3.38158 75.288 3.54826C74.9879 3.829 74.8221 4.06585 74.5931 4.26763L74.4352 4.52205C73.4641 5.59235 69.7057 9.90866 68.7504 10.9965L68.7819 10.9439C67.8266 12.0405 66.4685 13.567 65.0078 15.2251Z" fill="white" fill-opacity="0.2"/>
<path d="M20.7656 56.3263C22.3369 56.4842 23.9792 56.6596 25.503 56.8175C26.3952 56.9053 27.2164 56.9754 27.8559 57.0193C28.1875 57.107 28.6455 57.1509 28.9929 57.2036C28.8034 57.1597 28.8745 57.1246 29.0245 57.1421C30.0825 57.265 29.1034 57.1071 30.1694 57.2036C30.7536 57.2386 32.1275 57.3878 33.5171 57.5544C35.4831 57.7913 37.4728 58.0282 38.4124 58.151C38.365 57.9492 38.3414 57.8264 38.3177 57.7211C38.1361 57.107 37.9861 56.4841 37.836 55.8525C37.7571 55.5367 37.686 55.2296 37.615 54.9226C37.5834 54.7997 37.5518 54.6857 37.5202 54.5629C37.4965 54.4839 37.4728 54.405 37.4491 54.326L37.4807 54.3874C37.2991 53.7294 36.478 49.9219 36.2727 49.1587L36.2885 49.264C36.0832 48.5973 36.1858 48.6674 36.0832 48.1323C36.02 48.2288 35.8384 47.6585 35.7753 47.4392H35.799C35.7042 47.1059 35.4594 46.3777 35.3173 45.825L35.3647 45.8338C35.2068 45.3863 35.0252 44.5178 34.9462 44.1844C34.7883 43.4212 34.5909 42.2369 34.2988 41.2455L34.2751 40.5524L34.2435 40.4559L33.4855 38.3241C33.3039 37.8416 32.1433 39.9559 32.1038 39.912C32.1985 39.7804 32.2933 39.6488 32.3249 39.6137C32.2775 39.6313 32.088 39.8857 32.0011 40.0348L32.0327 40.105C31.8274 40.4472 31.9538 40.1577 31.7327 40.4735C31.6774 40.4559 31.8669 40.1576 32.0406 39.9032C31.8748 40.1313 31.6853 40.3331 31.6695 40.4647C31.5037 40.6665 31.6379 40.3945 31.4405 40.6402C31.3221 40.8332 31.1958 41.1139 31.0221 41.3069L31.0142 41.2981C30.6115 41.7719 30.5325 42.1403 30.1615 42.579L30.1851 42.5176C30.043 42.6667 29.8535 43.0176 29.6167 43.2984C29.6877 43.2194 29.7667 43.1755 29.6482 43.3598C29.3798 43.6844 29.2456 43.9388 29.0403 44.1669L28.9139 44.4476C28.0691 45.6407 24.8319 50.4484 23.9949 51.659L24.0186 51.6064C23.2054 52.7732 22.0289 54.4839 20.7656 56.3263Z" fill="white" fill-opacity="0.2"/>
<path d="M20.6254 35.1136C19.7806 33.6397 18.8884 32.0869 18.0672 30.6569C17.5777 29.8235 17.1276 29.0515 16.7723 28.4637C16.6381 28.1215 16.3854 27.6917 16.2038 27.3583C16.2907 27.5513 16.2196 27.5162 16.1407 27.3671C15.5801 26.3669 16.0696 27.3232 15.4774 26.3231C15.1458 25.7791 14.4115 24.4895 13.6693 23.1648C12.635 21.2962 11.5849 19.4012 11.0874 18.5063C10.969 18.673 10.8979 18.7695 10.8427 18.8485C10.519 19.3836 10.1636 19.9012 9.80834 20.4189C9.63464 20.6733 9.45304 20.9365 9.27933 21.1821C9.20827 21.2874 9.14511 21.3839 9.08194 21.4804C9.03457 21.5506 8.99508 21.6208 8.95561 21.6909L8.97929 21.6295C8.62399 22.1998 6.4211 25.244 6.00263 25.8932L6.07368 25.8142C5.72627 26.402 5.71049 26.2704 5.38676 26.6915C5.48941 26.6915 5.20516 27.2004 5.07883 27.3846L5.07094 27.3671C4.88933 27.6478 4.51824 28.3145 4.2182 28.7795L4.19451 28.7269C3.97344 29.1392 3.46811 29.8323 3.28651 30.1042C2.84435 30.7096 2.11795 31.6044 1.58894 32.4729L1.1152 32.9203L1.07572 33.0081L0.0177012 34.982C-0.219169 35.4382 1.99952 35.1662 1.99952 35.2276C1.8495 35.2276 1.69948 35.2276 1.65211 35.2101C1.69158 35.2364 1.99162 35.254 2.14953 35.2364L2.17322 35.1662C2.53642 35.1399 2.26007 35.2101 2.61538 35.2013C2.63117 35.2627 2.30745 35.2715 2.01531 35.2803C2.27586 35.289 2.53642 35.3329 2.63907 35.2627C2.88383 35.2891 2.60749 35.3329 2.90752 35.3592C3.11281 35.3417 3.38916 35.2803 3.63392 35.3154L3.62603 35.3242C4.21031 35.3856 4.52613 35.2276 5.05514 35.2891L4.99987 35.3066C5.18937 35.3417 5.56046 35.289 5.89998 35.3329C5.80523 35.3241 5.71838 35.2803 5.92367 35.2715C6.31845 35.3066 6.5869 35.2715 6.87115 35.3154L7.1475 35.254C8.51345 35.2627 13.9141 35.1662 15.2879 35.1487L15.2327 35.1575C16.5986 35.1487 18.541 35.1311 20.6254 35.1136Z" fill="white" fill-opacity="0.2"/>
</svg>
