<svg width="18" height="17" viewBox="0 0 18 17" fill="none" xmlns="http://www.w3.org/2000/svg">
<path d="M18 8.19745C18 7.82569 17.9495 7.45565 17.85 7.09745L16.41 2.09745C16.1685 1.23619 15.3845 0.640011 14.49 0.637451H3.49001C2.60576 0.647588 1.83314 1.23722 1.59001 2.08745L0.150012 7.08745C0.049592 7.44887 -0.000876639 7.82234 1.15207e-05 8.19745V15.6375C1.15207e-05 16.1897 0.447727 16.6375 1.00001 16.6375H2.00001C2.5523 16.6375 3.00001 16.1897 3.00001 15.6375V14.6375H15V15.6375C15 16.1897 15.4477 16.6375 16 16.6375H17C17.5523 16.6375 18 16.1897 18 15.6375V8.19745ZM3.27001 2.56745C3.30112 2.46078 3.3989 2.38745 3.51001 2.38745H14.51C14.6211 2.38745 14.7189 2.46078 14.75 2.56745L15.89 6.63745H2.11001L3.27001 2.56745ZM5.00001 10.6375C5.00001 11.1897 4.5523 11.6375 4.00001 11.6375H3.00001C2.44773 11.6375 2.00001 11.1897 2.00001 10.6375V9.63745C2.00001 9.08517 2.44773 8.63745 3.00001 8.63745H4.00001C4.5523 8.63745 5.00001 9.08517 5.00001 9.63745V10.6375ZM16 10.6375C16 11.1897 15.5523 11.6375 15 11.6375H14C13.4477 11.6375 13 11.1897 13 10.6375V9.63745C13 9.08517 13.4477 8.63745 14 8.63745H15C15.5523 8.63745 16 9.08517 16 9.63745V10.6375Z" fill="url(#paint0_linear_143_148136)"/>
<defs>
<linearGradient id="paint0_linear_143_148136" x1="0" y1="8.63745" x2="18" y2="8.63745" gradientUnits="userSpaceOnUse">
<stop stop-color="#1DA1F2"/>
<stop offset="1" stop-color="#009FFC"/>
</linearGradient>
</defs>
</svg>
