<svg width="21" height="21" viewBox="0 0 21 21" fill="none" xmlns="http://www.w3.org/2000/svg">
<path d="M4.67643 17.8125C4.35231 17.813 4.02955 17.7705 3.71667 17.6859C2.7775 17.418 1.98071 16.7928 1.49725 15.9442C1.01379 15.0957 0.882172 14.0914 1.13063 13.147L2.68359 7.25506C2.80453 6.77823 3.01953 6.33037 3.31597 5.93778C3.61242 5.5452 3.98431 5.21581 4.40983 4.96896C4.82415 4.72898 5.28196 4.5736 5.75676 4.51182C6.23155 4.45004 6.71389 4.48309 7.17582 4.60904C7.66686 4.7454 8.12422 4.98229 8.5189 5.30469C8.91358 5.62709 9.23698 6.02797 9.4686 6.48192H11.2015C11.4321 6.02724 11.7552 5.62577 12.15 5.30325C12.5449 4.98073 13.0027 4.74427 13.4943 4.60904C13.9562 4.48309 14.4385 4.45004 14.9133 4.51182C15.3881 4.5736 15.846 4.72898 16.2603 4.96896C16.6837 5.21518 17.0543 5.54276 17.3505 5.93283C17.6468 6.3229 17.8629 6.76775 17.9865 7.24173L19.5395 13.147C19.7916 14.0942 19.6611 15.1026 19.1759 15.9544C18.6908 16.8061 17.8901 17.4329 16.9468 17.6992C16.4848 17.8251 16.0025 17.8582 15.5277 17.7964C15.0529 17.7346 14.5951 17.5792 14.1808 17.3393C13.7566 17.0939 13.3856 16.7666 13.0892 16.3764C12.7928 15.9862 12.5771 15.5409 12.4545 15.0665L12.3346 14.48H8.33554L8.18224 15.0532C8.0597 15.5276 7.84396 15.9729 7.54759 16.3631C7.25121 16.7533 6.88014 17.0806 6.456 17.3259C5.91445 17.6383 5.30157 17.8059 4.67643 17.8125ZM6.22272 5.81542C5.82051 5.81678 5.42553 5.92242 5.07633 6.12201C4.52904 6.44312 4.13122 6.96795 3.96994 7.58165L2.41698 13.4735C2.25448 14.0806 2.33659 14.7271 2.64567 15.2742C2.95475 15.8213 3.46613 16.2254 4.06991 16.3995C4.36151 16.479 4.66599 16.5 4.96573 16.4611C5.26547 16.4222 5.55452 16.3242 5.81615 16.1729C6.08856 16.0156 6.32676 15.8055 6.51677 15.5548C6.70677 15.3041 6.84474 15.018 6.92255 14.7132L7.33578 13.147H13.3343L13.7409 14.7132C13.8201 15.0174 13.9586 15.303 14.1485 15.5535C14.3383 15.8039 14.5758 16.0145 14.8473 16.1729C15.1102 16.3241 15.4004 16.4219 15.7012 16.4608C16.002 16.4997 16.3075 16.4788 16.6002 16.3995C17.2047 16.227 17.7167 15.8229 18.025 15.275C18.3332 14.7272 18.4128 14.0798 18.2465 13.4735L16.6935 7.58165C16.6161 7.27759 16.479 6.99195 16.2902 6.74137C16.1014 6.49078 15.8647 6.28024 15.5938 6.12201C15.3308 5.97082 15.0407 5.87299 14.7399 5.8341C14.4391 5.79521 14.1336 5.81604 13.8409 5.8954C13.4788 5.99859 13.1467 6.18667 12.872 6.44401C12.5972 6.70135 12.3879 7.02053 12.2612 7.37504L12.1013 7.81493H8.56882L8.40885 7.37504C8.28112 7.02006 8.07058 6.70066 7.7947 6.44333C7.51883 6.186 7.18557 5.99816 6.82257 5.8954C6.62697 5.84265 6.42531 5.81576 6.22272 5.81542Z" fill="url(#paint0_linear_143_148156)"/>
<path d="M6.33691 11.1476C6.07327 11.1476 5.81555 11.0694 5.59634 10.9229C5.37712 10.7765 5.20627 10.5683 5.10538 10.3247C5.00448 10.0811 4.97809 9.8131 5.02952 9.55452C5.08095 9.29594 5.20791 9.05842 5.39434 8.872C5.58076 8.68557 5.81828 8.55862 6.07686 8.50718C6.33544 8.45575 6.60346 8.48214 6.84703 8.58304C7.09061 8.68393 7.2988 8.85478 7.44527 9.074C7.59174 9.29321 7.66992 9.55093 7.66992 9.81458C7.66992 10.1681 7.52948 10.5072 7.27949 10.7572C7.02951 11.0071 6.69045 11.1476 6.33691 11.1476Z" fill="url(#paint1_linear_143_148156)"/>
<path d="M14.3345 9.14758C14.7026 9.14758 15.001 8.84918 15.001 8.48108C15.001 8.11298 14.7026 7.81458 14.3345 7.81458C13.9664 7.81458 13.668 8.11298 13.668 8.48108C13.668 8.84918 13.9664 9.14758 14.3345 9.14758Z" fill="url(#paint2_linear_143_148156)"/>
<path d="M14.3345 11.8136C14.7026 11.8136 15.001 11.5152 15.001 11.1471C15.001 10.779 14.7026 10.4806 14.3345 10.4806C13.9664 10.4806 13.668 10.779 13.668 11.1471C13.668 11.5152 13.9664 11.8136 14.3345 11.8136Z" fill="url(#paint3_linear_143_148156)"/>
<path d="M13.0024 10.4816C13.3705 10.4816 13.6689 10.1832 13.6689 9.81506C13.6689 9.44696 13.3705 9.14856 13.0024 9.14856C12.6343 9.14856 12.3359 9.44696 12.3359 9.81506C12.3359 10.1832 12.6343 10.4816 13.0024 10.4816Z" fill="url(#paint4_linear_143_148156)"/>
<path d="M15.6685 10.4816C16.0366 10.4816 16.335 10.1832 16.335 9.81506C16.335 9.44696 16.0366 9.14856 15.6685 9.14856C15.3004 9.14856 15.002 9.44696 15.002 9.81506C15.002 10.1832 15.3004 10.4816 15.6685 10.4816Z" fill="url(#paint5_linear_143_148156)"/>
<defs>
<linearGradient id="paint0_linear_143_148156" x1="1.00781" y1="11.1541" x2="19.6651" y2="11.1541" gradientUnits="userSpaceOnUse">
<stop stop-color="#1DA1F2"/>
<stop offset="1" stop-color="#009FFC"/>
</linearGradient>
<linearGradient id="paint1_linear_143_148156" x1="5.00391" y1="9.81458" x2="7.66992" y2="9.81458" gradientUnits="userSpaceOnUse">
<stop stop-color="#1DA1F2"/>
<stop offset="1" stop-color="#009FFC"/>
</linearGradient>
<linearGradient id="paint2_linear_143_148156" x1="13.668" y1="8.48108" x2="15.001" y2="8.48108" gradientUnits="userSpaceOnUse">
<stop stop-color="#1DA1F2"/>
<stop offset="1" stop-color="#009FFC"/>
</linearGradient>
<linearGradient id="paint3_linear_143_148156" x1="13.668" y1="11.1471" x2="15.001" y2="11.1471" gradientUnits="userSpaceOnUse">
<stop stop-color="#1DA1F2"/>
<stop offset="1" stop-color="#009FFC"/>
</linearGradient>
<linearGradient id="paint4_linear_143_148156" x1="12.3359" y1="9.81506" x2="13.6689" y2="9.81506" gradientUnits="userSpaceOnUse">
<stop stop-color="#1DA1F2"/>
<stop offset="1" stop-color="#009FFC"/>
</linearGradient>
<linearGradient id="paint5_linear_143_148156" x1="15.002" y1="9.81506" x2="16.335" y2="9.81506" gradientUnits="userSpaceOnUse">
<stop stop-color="#1DA1F2"/>
<stop offset="1" stop-color="#009FFC"/>
</linearGradient>
</defs>
</svg>
