<svg width="16" height="17" viewBox="0 0 16 17" fill="none" xmlns="http://www.w3.org/2000/svg">
<path d="M14.9473 14.1876L12.1348 7.37509C12.0829 7.24928 11.9947 7.14172 11.8816 7.06604C11.7685 6.99035 11.6354 6.94995 11.4993 6.94995C11.3632 6.94995 11.2302 6.99035 11.1171 7.06604C11.0039 7.14172 10.9158 7.24928 10.8639 7.37509L8.05137 14.1876C8.0164 14.2711 7.99828 14.3608 7.99805 14.4513C7.99782 14.5419 8.01549 14.6316 8.05004 14.7153C8.08459 14.7991 8.13535 14.8751 8.19938 14.9392C8.26342 15.0032 8.33948 15.054 8.4232 15.0885C8.50692 15.1231 8.59663 15.1408 8.6872 15.1406C8.77777 15.1403 8.8674 15.1222 8.95095 15.0873C9.0345 15.0523 9.11032 15.0012 9.17405 14.9368C9.23777 14.8725 9.28816 14.7962 9.32231 14.7123L9.89512 13.3251H13.1036L13.6764 14.7123C13.7283 14.8381 13.8164 14.9458 13.9296 15.0215C14.0427 15.0972 14.1758 15.1376 14.312 15.1376C14.425 15.1375 14.5362 15.1096 14.6358 15.0563C14.7354 15.0031 14.8204 14.9261 14.8832 14.8321C14.9459 14.7382 14.9846 14.6303 14.9957 14.5178C15.0069 14.4054 14.9901 14.292 14.947 14.1876H14.9473ZM10.4629 11.9501L11.4995 9.43915L12.5361 11.9501H10.4629Z" fill="url(#paint0_linear_143_148099)"/>
<path d="M8.37 11.3537C8.47681 11.2062 8.52071 11.0223 8.49205 10.8424C8.4634 10.6625 8.36455 10.5014 8.21719 10.3943C8.21094 10.3896 7.74844 10.0465 7.07688 9.30901C8.31594 7.63151 9.01781 5.72308 9.30406 4.82495H10.3125C10.4948 4.82495 10.6697 4.75252 10.7986 4.62359C10.9276 4.49466 11 4.31979 11 4.13745C11 3.95511 10.9276 3.78025 10.7986 3.65132C10.6697 3.52238 10.4948 3.44995 10.3125 3.44995H6.6875V2.82495C6.6875 2.64261 6.61507 2.46775 6.48614 2.33882C6.3572 2.20988 6.18234 2.13745 6 2.13745C5.81766 2.13745 5.6428 2.20988 5.51386 2.33882C5.38493 2.46775 5.3125 2.64261 5.3125 2.82495V3.44995H1.6875C1.50516 3.44995 1.3303 3.52238 1.20136 3.65132C1.07243 3.78025 1 3.95511 1 4.13745C1 4.31979 1.07243 4.49466 1.20136 4.62359C1.3303 4.75252 1.50516 4.82495 1.6875 4.82495H7.85156C7.55406 5.66714 7.00625 6.99683 6.17063 8.2112C5.18906 6.9087 4.82437 6.06589 4.82156 6.05901C4.7497 5.89295 4.61527 5.76191 4.44743 5.69431C4.27958 5.62671 4.09185 5.62802 3.92496 5.69793C3.75806 5.76785 3.62546 5.90074 3.55591 6.06779C3.48636 6.23483 3.48547 6.42257 3.55344 6.59026C3.57156 6.63339 4.00813 7.65995 5.20531 9.21308C5.23406 9.25026 5.2625 9.28651 5.29094 9.32276C4.06469 10.7087 2.86156 11.5684 2.35812 11.8459C2.19804 11.9332 2.0792 12.0805 2.02775 12.2555C1.97629 12.4304 1.99644 12.6186 2.08375 12.7787C2.17106 12.9388 2.3184 13.0576 2.49333 13.1091C2.66827 13.1605 2.85648 13.1404 3.01656 13.0531C3.08406 13.0162 4.53531 12.2128 6.1925 10.3784C6.89625 11.1309 7.38 11.4859 7.40906 11.5065C7.48219 11.5596 7.56506 11.5978 7.65296 11.6189C7.74085 11.6399 7.83203 11.6434 7.92128 11.6292C8.01053 11.615 8.0961 11.5833 8.1731 11.536C8.2501 11.4886 8.31701 11.4266 8.37 11.3534V11.3537Z" fill="url(#paint1_linear_143_148099)"/>
<defs>
<linearGradient id="paint0_linear_143_148099" x1="7.99805" y1="11.0453" x2="14.9991" y2="11.0453" gradientUnits="userSpaceOnUse">
<stop stop-color="#1DA1F2"/>
<stop offset="1" stop-color="#009FFC"/>
</linearGradient>
<linearGradient id="paint1_linear_143_148099" x1="1" y1="7.63724" x2="11" y2="7.63724" gradientUnits="userSpaceOnUse">
<stop stop-color="#1DA1F2"/>
<stop offset="1" stop-color="#009FFC"/>
</linearGradient>
</defs>
</svg>
