<svg width="18" height="17" viewBox="0 0 18 17" fill="none" xmlns="http://www.w3.org/2000/svg">
<path d="M16.3538 12.8996C16.0949 12.9009 15.8396 12.9606 15.607 13.0744L13.1085 10.5757H11.125V11.7376H12.6273L14.7854 13.8959C14.6719 14.1285 14.6122 14.3837 14.6109 14.6425C14.6109 14.9872 14.7131 15.3242 14.9046 15.6108C15.0961 15.8975 15.3683 16.1209 15.6868 16.2528C16.0053 16.3847 16.3557 16.4192 16.6938 16.352C17.0319 16.2847 17.3425 16.1187 17.5862 15.875C17.83 15.6312 17.996 15.3206 18.0632 14.9826C18.1305 14.6445 18.096 14.294 17.9641 13.9755C17.8321 13.6571 17.6087 13.3848 17.3221 13.1933C17.0355 13.0018 16.6985 12.8996 16.3538 12.8996ZM16.3538 15.2235C16.2389 15.2235 16.1266 15.1894 16.031 15.1256C15.9355 15.0618 15.861 14.971 15.817 14.8649C15.7731 14.7587 15.7616 14.6419 15.784 14.5292C15.8064 14.4165 15.8617 14.313 15.943 14.2317C16.0242 14.1505 16.1278 14.0951 16.2405 14.0727C16.3531 14.0503 16.47 14.0618 16.5761 14.1058C16.6823 14.1497 16.773 14.2242 16.8369 14.3198C16.9007 14.4153 16.9348 14.5276 16.9348 14.6425C16.9346 14.7966 16.8734 14.9443 16.7645 15.0532C16.6555 15.1621 16.5078 15.2234 16.3538 15.2235Z" fill="url(#paint0_linear_143_148144)"/>
<path d="M16.3538 6.5083C15.9945 6.50939 15.6444 6.62167 15.3515 6.82972C15.0586 7.03777 14.8373 7.33139 14.7179 7.67026H11.125V8.83221H14.7179C14.825 9.13262 15.0126 9.39782 15.2601 9.59885C15.5077 9.79987 15.8058 9.92897 16.1218 9.97206C16.4378 10.0151 16.7595 9.97054 17.0519 9.84314C17.3443 9.71573 17.596 9.51042 17.7795 9.24964C17.9631 8.98886 18.0715 8.68263 18.0928 8.36443C18.1141 8.04623 18.0475 7.72829 17.9004 7.44536C17.7532 7.16242 17.5312 6.92537 17.2584 6.76012C16.9856 6.59486 16.6727 6.50775 16.3538 6.5083ZM16.3538 8.83221C16.2389 8.83221 16.1266 8.79814 16.031 8.7343C15.9355 8.67046 15.861 8.57973 15.817 8.47357C15.7731 8.36741 15.7616 8.25059 15.784 8.13789C15.8064 8.02519 15.8617 7.92167 15.943 7.84042C16.0242 7.75917 16.1278 7.70384 16.2405 7.68142C16.3531 7.659 16.47 7.67051 16.5761 7.71448C16.6823 7.75845 16.773 7.83292 16.8369 7.92846C16.9007 8.024 16.9348 8.13633 16.9348 8.25124C16.9346 8.40528 16.8734 8.55297 16.7645 8.6619C16.6555 8.77082 16.5078 8.83207 16.3538 8.83221Z" fill="url(#paint1_linear_143_148144)"/>
<path d="M16.3538 0.117676C15.8917 0.118183 15.4487 0.301976 15.1219 0.628729C14.7952 0.955483 14.6114 1.39851 14.6109 1.86061C14.6129 2.13893 14.6823 2.41263 14.8131 2.65829L12.633 4.76549H11.125V5.92745H13.1028L15.6585 3.4569C15.8959 3.56039 16.1534 3.60964 16.4122 3.60108C16.6711 3.59251 16.9248 3.52634 17.1548 3.40738C17.3849 3.28843 17.5855 3.11967 17.7421 2.91341C17.8988 2.70714 18.0074 2.46855 18.0602 2.215C18.113 1.96145 18.1086 1.69932 18.0473 1.44768C17.9861 1.19604 17.8695 0.961234 17.706 0.760338C17.5426 0.559443 17.3364 0.397518 17.1025 0.286346C16.8685 0.175174 16.6128 0.117553 16.3538 0.117676ZM16.3538 2.44159C16.2389 2.44159 16.1266 2.40751 16.031 2.34367C15.9355 2.27983 15.861 2.1891 15.817 2.08294C15.7731 1.97678 15.7616 1.85996 15.784 1.74726C15.8064 1.63457 15.8617 1.53105 15.943 1.44979C16.0242 1.36854 16.1278 1.31321 16.2405 1.29079C16.3531 1.26838 16.47 1.27988 16.5761 1.32385C16.6823 1.36783 16.773 1.44229 16.8369 1.53783C16.9007 1.63338 16.9348 1.7457 16.9348 1.86061C16.9346 2.01465 16.8734 2.16234 16.7645 2.27127C16.6555 2.38019 16.5078 2.44145 16.3538 2.44159Z" fill="url(#paint2_linear_143_148144)"/>
<path d="M11.1257 2.44076H12.2877V1.27881H11.1257C10.7946 1.27992 10.4676 1.35221 10.1669 1.49077C9.86618 1.62933 9.59876 1.83093 9.38278 2.08189C9.1668 1.83093 8.89939 1.62933 8.59867 1.49077C8.29795 1.35221 7.97095 1.27992 7.63985 1.27881H7.05887C5.67258 1.28035 4.34351 1.83173 3.36326 2.81199C2.383 3.79224 1.83162 5.12131 1.83008 6.5076V9.99347C1.83162 11.3798 2.383 12.7088 3.36326 13.6891C4.34351 14.6693 5.67258 15.2207 7.05887 15.2223H7.63985C7.97095 15.2212 8.29795 15.1489 8.59867 15.0103C8.89939 14.8717 9.1668 14.6701 9.38278 14.4192C9.59876 14.6701 9.86618 14.8717 10.1669 15.0103C10.4676 15.1489 10.7946 15.2212 11.1257 15.2223H12.2877V14.0603H11.1257C10.8177 14.06 10.5223 13.9374 10.3045 13.7196C10.0866 13.5018 9.96411 13.2064 9.96376 12.8984V3.60272C9.96411 3.29466 10.0866 2.99931 10.3045 2.78148C10.5223 2.56365 10.8177 2.44112 11.1257 2.44076ZM7.63985 14.0603H7.05887C6.08192 14.0586 5.13818 13.7055 4.40004 13.0655C3.6619 12.4255 3.17864 11.5413 3.03851 10.5744H4.15399V9.41249H2.99203V7.08858H4.73496C5.19706 7.08807 5.64009 6.90428 5.96684 6.57753C6.2936 6.25077 6.47739 5.80775 6.4779 5.34565V4.18369H5.31594V5.34565C5.3158 5.49969 5.25455 5.64739 5.14562 5.75631C5.0367 5.86523 4.88901 5.92649 4.73496 5.92663H3.03851C3.17864 4.95977 3.6619 4.07559 4.40004 3.43558C5.13818 2.79558 6.08192 2.44247 7.05887 2.44076H7.63985C7.94791 2.44112 8.24325 2.56365 8.46109 2.78148C8.67892 2.99931 8.80145 3.29466 8.8018 3.60272V5.92663H7.63985V7.08858H8.8018V9.41249H7.63985C7.17775 9.413 6.73472 9.59679 6.40797 9.92354C6.08122 10.2503 5.89743 10.6933 5.89692 11.1554V12.3174H7.05887V11.1554C7.05901 11.0014 7.12027 10.8537 7.22919 10.7448C7.33811 10.6358 7.48581 10.5746 7.63985 10.5744H8.8018V12.8984C8.80145 13.2064 8.67892 13.5018 8.46109 13.7196C8.24325 13.9374 7.94791 14.06 7.63985 14.0603Z" fill="url(#paint3_linear_143_148144)"/>
<defs>
<linearGradient id="paint0_linear_143_148144" x1="11.125" y1="13.4806" x2="18.0967" y2="13.4806" gradientUnits="userSpaceOnUse">
<stop stop-color="#1DA1F2"/>
<stop offset="1" stop-color="#009FFC"/>
</linearGradient>
<linearGradient id="paint1_linear_143_148144" x1="11.125" y1="8.24815" x2="18.0967" y2="8.24815" gradientUnits="userSpaceOnUse">
<stop stop-color="#1DA1F2"/>
<stop offset="1" stop-color="#009FFC"/>
</linearGradient>
<linearGradient id="paint2_linear_143_148144" x1="11.125" y1="3.02256" x2="18.0968" y2="3.02256" gradientUnits="userSpaceOnUse">
<stop stop-color="#1DA1F2"/>
<stop offset="1" stop-color="#009FFC"/>
</linearGradient>
<linearGradient id="paint3_linear_143_148144" x1="1.83008" y1="8.25054" x2="12.2877" y2="8.25054" gradientUnits="userSpaceOnUse">
<stop stop-color="#1DA1F2"/>
<stop offset="1" stop-color="#009FFC"/>
</linearGradient>
</defs>
</svg>
