<svg width="15" height="16" viewBox="0 0 15 16" fill="none" xmlns="http://www.w3.org/2000/svg">
<path d="M13.4622 15.3714H13.462L9.92325 15.3709C9.61058 15.3705 9.31083 15.2461 9.08975 15.025C8.86867 14.8039 8.74432 14.5041 8.74395 14.1915V10.6531H6.38507V14.1915C6.3847 14.5041 6.26035 14.8039 6.03927 15.025C5.81819 15.2461 5.51844 15.3705 5.20577 15.3709L1.66787 15.3714C1.51297 15.3714 1.35959 15.3409 1.21647 15.2816C1.07336 15.2224 0.94332 15.1355 0.833783 15.026C0.724246 14.9165 0.637355 14.7864 0.578074 14.6433C0.518792 14.5002 0.488281 14.3468 0.488281 14.1919V7.37619C0.488425 7.21188 0.522832 7.04941 0.589307 6.89914C0.655782 6.74887 0.752863 6.61412 0.87435 6.50349L6.77106 1.1419C6.98766 0.943507 7.27073 0.833455 7.56445 0.833435C7.85818 0.833415 8.14126 0.943429 8.35788 1.14179L14.2556 6.50353C14.3771 6.61418 14.4741 6.74894 14.5406 6.8992C14.607 7.04946 14.6414 7.21193 14.6416 7.37623V14.1919C14.6416 14.3468 14.6111 14.5002 14.5518 14.6433C14.4926 14.7864 14.4057 14.9164 14.2962 15.0259C14.1866 15.1355 14.0566 15.2223 13.9135 15.2816C13.7704 15.3409 13.617 15.3714 13.4622 15.3714V15.3714ZM6.38507 9.47362H8.74395C9.05665 9.47398 9.35644 9.59836 9.57755 9.81947C9.79866 10.0406 9.92304 10.3404 9.9234 10.6531V14.1922L13.4622 14.1919V7.37623L7.56451 2.01453L1.66772 7.37619V14.1919L5.20562 14.1915V10.6531C5.20598 10.3404 5.33036 10.0406 5.55147 9.81947C5.77258 9.59836 6.07237 9.47398 6.38507 9.47362Z" fill="url(#paint0_linear_143_148061)"/>
<defs>
<linearGradient id="paint0_linear_143_148061" x1="0.488281" y1="8.10241" x2="14.6416" y2="8.10241" gradientUnits="userSpaceOnUse">
<stop stop-color="#1DA1F2"/>
<stop offset="1" stop-color="#009FFC"/>
</linearGradient>
</defs>
</svg>
