<svg width="15" height="15" viewBox="0 0 15 15" fill="none" xmlns="http://www.w3.org/2000/svg">
<path d="M7.71059 10.1501C7.56914 10.1501 7.43086 10.1921 7.31324 10.2707C7.19563 10.3493 7.10396 10.461 7.04982 10.5917C6.99569 10.7223 6.98153 10.8662 7.00912 11.0049C7.03672 11.1436 7.10484 11.2711 7.20486 11.3711C7.30489 11.4711 7.43232 11.5392 7.57106 11.5668C7.7098 11.5944 7.8536 11.5803 7.98429 11.5261C8.11498 11.472 8.22668 11.3803 8.30527 11.2627C8.38386 11.1451 8.4258 11.0068 8.4258 10.8654C8.4258 10.6757 8.35045 10.4938 8.21632 10.3596C8.08219 10.2255 7.90028 10.1501 7.71059 10.1501ZM7.71059 0.494813C7.57643 0.494809 7.44236 0.501613 7.30889 0.515197C5.45016 0.618633 3.70512 1.4432 2.44499 2.81348C1.18486 4.18376 0.509089 5.99163 0.561422 7.85251C0.613754 9.71339 1.39006 11.4804 2.72521 12.7777C4.06036 14.075 5.84898 14.8002 7.71059 14.799C7.84475 14.799 7.97882 14.7922 8.11229 14.7786C9.97103 14.6752 11.7161 13.8506 12.9762 12.4803C14.2363 11.1101 14.9121 9.30219 14.8598 7.44132C14.8074 5.58044 14.0311 3.81341 12.696 2.51611C11.3608 1.21881 9.57221 0.493624 7.71059 0.494813ZM7.71059 13.3686C6.54896 13.3702 5.41443 13.0177 4.45823 12.3581C3.50203 11.6985 2.7696 10.7631 2.35856 9.67663C1.94753 8.59015 1.87741 7.40419 2.15757 6.27685C2.43773 5.1495 3.05485 4.13433 3.92667 3.36665C3.76035 3.95114 3.73213 4.56627 3.84422 5.16353C3.95632 5.76079 4.20566 6.32383 4.57258 6.80823C4.93951 7.29264 5.41397 7.68516 5.95855 7.95482C6.50312 8.22449 7.10291 8.36392 7.71059 8.36212C8.37449 8.36212 9.0112 8.62586 9.48065 9.0953C9.95009 9.56475 10.2138 10.2015 10.2138 10.8654C10.2138 11.5293 9.95009 12.166 9.48065 12.6354C9.0112 13.1049 8.37449 13.3686 7.71059 13.3686ZM11.4945 11.9272C11.6608 11.3427 11.6891 10.7276 11.577 10.1303C11.4649 9.53304 11.2155 8.97 10.8486 8.48559C10.4817 8.00119 10.0072 7.60867 9.46264 7.339C8.91806 7.06934 8.31827 6.92991 7.71059 6.9317C7.04669 6.9317 6.40999 6.66797 5.94054 6.19852C5.47109 5.72907 5.20736 5.09237 5.20736 4.42847C5.20736 3.76457 5.47109 3.12786 5.94054 2.65841C6.40999 2.18897 7.04669 1.92523 7.71059 1.92523C8.87223 1.92362 10.0068 2.27611 10.963 2.93571C11.9192 3.59532 12.6516 4.53071 13.0626 5.61719C13.4737 6.70368 13.5438 7.88963 13.2636 9.01698C12.9835 10.1443 12.3663 11.1595 11.4945 11.9272ZM7.71059 3.71326C7.56914 3.71326 7.43086 3.7552 7.31324 3.83379C7.19563 3.91238 7.10396 4.02408 7.04982 4.15477C6.99569 4.28546 6.98153 4.42926 7.00912 4.568C7.03672 4.70674 7.10484 4.83417 7.20486 4.9342C7.30489 5.03422 7.43232 5.10234 7.57106 5.12994C7.7098 5.15753 7.8536 5.14337 7.98429 5.08924C8.11498 5.0351 8.22668 4.94343 8.30527 4.82582C8.38386 4.7082 8.4258 4.56992 8.4258 4.42847C8.4258 4.23878 8.35045 4.05687 8.21632 3.92274C8.08219 3.78861 7.90028 3.71326 7.71059 3.71326Z" fill="url(#paint0_linear_143_148069)"/>
<defs>
<linearGradient id="paint0_linear_143_148069" x1="0.558594" y1="7.64691" x2="14.8626" y2="7.64691" gradientUnits="userSpaceOnUse">
<stop stop-color="#1DA1F2"/>
<stop offset="1" stop-color="#009FFC"/>
</linearGradient>
</defs>
</svg>
