<svg width="19" height="18" viewBox="0 0 19 18" fill="none" xmlns="http://www.w3.org/2000/svg">
<path d="M3.66691 10.2704C4.75256 10.2704 5.63265 9.39031 5.63265 8.30467C5.63265 7.21902 4.75256 6.33893 3.66691 6.33893C2.58126 6.33893 1.70117 7.21902 1.70117 8.30467C1.70117 9.39031 2.58126 10.2704 3.66691 10.2704Z" fill="url(#paint0_linear_143_148086)"/>
<path d="M7.20597 7.1249C8.29162 7.1249 9.17171 6.24481 9.17171 5.15916C9.17171 4.07351 8.29162 3.19342 7.20597 3.19342C6.12033 3.19342 5.24023 4.07351 5.24023 5.15916C5.24023 6.24481 6.12033 7.1249 7.20597 7.1249Z" fill="url(#paint1_linear_143_148086)"/>
<path d="M11.9228 7.1249C13.0084 7.1249 13.8885 6.24481 13.8885 5.15916C13.8885 4.07351 13.0084 3.19342 11.9228 3.19342C10.8371 3.19342 9.95703 4.07351 9.95703 5.15916C9.95703 6.24481 10.8371 7.1249 11.9228 7.1249Z" fill="url(#paint2_linear_143_148086)"/>
<path d="M15.4618 10.2704C16.5475 10.2704 17.4276 9.39031 17.4276 8.30467C17.4276 7.21902 16.5475 6.33893 15.4618 6.33893C14.3762 6.33893 13.4961 7.21902 13.4961 8.30467C13.4961 9.39031 14.3762 10.2704 15.4618 10.2704Z" fill="url(#paint3_linear_143_148086)"/>
<path d="M13.7638 12.5191C13.0797 11.7171 12.5057 11.033 11.8138 10.231C11.4521 9.80641 10.9882 9.38181 10.4378 9.1931C10.3513 9.16165 10.2648 9.13806 10.1783 9.12233C9.98174 9.09088 9.76944 9.09088 9.565 9.09088C9.36056 9.09088 9.14826 9.09088 8.94383 9.1302C8.85733 9.14592 8.77084 9.16951 8.68435 9.20096C8.13394 9.38967 7.67789 9.81427 7.30833 10.2389C6.62425 11.0409 6.05026 11.725 5.35832 12.527C4.32827 13.557 3.06234 14.6972 3.29822 16.2933C3.52625 17.0954 4.10025 17.8895 5.13029 18.1176C5.70429 18.2355 7.53636 17.7716 9.48637 17.7716H9.6279C11.5779 17.7716 13.41 18.2276 13.984 18.1176C15.014 17.8895 15.588 17.0875 15.816 16.2933C16.0598 14.6893 14.7939 13.5492 13.7638 12.5191Z" fill="url(#paint4_linear_143_148086)"/>
<defs>
<linearGradient id="paint0_linear_143_148086" x1="1.70117" y1="8.30467" x2="5.63265" y2="8.30467" gradientUnits="userSpaceOnUse">
<stop stop-color="#1DA1F2"/>
<stop offset="1" stop-color="#009FFC"/>
</linearGradient>
<linearGradient id="paint1_linear_143_148086" x1="5.24023" y1="5.15916" x2="9.17171" y2="5.15916" gradientUnits="userSpaceOnUse">
<stop stop-color="#1DA1F2"/>
<stop offset="1" stop-color="#009FFC"/>
</linearGradient>
<linearGradient id="paint2_linear_143_148086" x1="9.95703" y1="5.15916" x2="13.8885" y2="5.15916" gradientUnits="userSpaceOnUse">
<stop stop-color="#1DA1F2"/>
<stop offset="1" stop-color="#009FFC"/>
</linearGradient>
<linearGradient id="paint3_linear_143_148086" x1="13.4961" y1="8.30467" x2="17.4276" y2="8.30467" gradientUnits="userSpaceOnUse">
<stop stop-color="#1DA1F2"/>
<stop offset="1" stop-color="#009FFC"/>
</linearGradient>
<linearGradient id="paint4_linear_143_148086" x1="3.26953" y1="13.6138" x2="15.8466" y2="13.6138" gradientUnits="userSpaceOnUse">
<stop stop-color="#1DA1F2"/>
<stop offset="1" stop-color="#009FFC"/>
</linearGradient>
</defs>
</svg>
