<svg width="8" height="8" viewBox="0 0 8 8" fill="none" xmlns="http://www.w3.org/2000/svg">
<path d="M3.7261 6.523C3.75668 6.56741 3.7976 6.60373 3.84533 6.62881C3.89306 6.6539 3.94618 6.66701 4.0001 6.66701C4.05402 6.66701 4.10714 6.6539 4.15487 6.62881C4.2026 6.60373 4.24352 6.56741 4.2741 6.523L7.2741 2.18966C7.30883 2.13968 7.32919 2.08114 7.33298 2.0204C7.33677 1.95966 7.32384 1.89904 7.2956 1.84513C7.26735 1.79122 7.22488 1.74608 7.17278 1.71462C7.12068 1.68315 7.06096 1.66657 7.0001 1.66666H1.0001C0.939382 1.66692 0.87988 1.68371 0.827995 1.71525C0.776109 1.74679 0.733802 1.79188 0.705624 1.84566C0.677446 1.89945 0.664463 1.9599 0.668071 2.02051C0.671679 2.08112 0.691741 2.1396 0.726101 2.18966L3.7261 6.523Z" fill="#0573ED"/>
</svg>
