<svg width="37" height="31" viewBox="0 0 37 31" fill="none" xmlns="http://www.w3.org/2000/svg">
<g filter="url(#filter0_d_2_212366)">
<path d="M1.13306 5.00746C1.13306 4.30389 1.13316 3.78422 1.16674 3.37324C1.20019 2.96381 1.2662 2.67398 1.39155 2.42798C1.61892 1.98173 1.98173 1.61892 2.42798 1.39155C2.67398 1.2662 2.96381 1.20019 3.37324 1.16674C3.78422 1.13316 4.30389 1.13306 5.00746 1.13306H11.4363C12.1502 1.13306 12.4853 1.13381 12.7196 1.18229C12.7752 1.19382 12.8199 1.20281 12.8565 1.21018C12.9552 1.23004 12.9955 1.23816 13.036 1.25249C13.0765 1.26683 13.1129 1.28588 13.2021 1.3325C13.2352 1.34981 13.2756 1.37092 13.3261 1.39699C13.426 1.44853 13.6512 1.61354 14.0438 1.92285C14.4312 2.22799 14.97 2.664 15.6897 3.24651C16.3871 3.81089 17.3246 4.26388 18.5326 4.26388C19.3817 4.26388 27.1301 4.21789 32.0378 4.18823C32.744 4.18396 33.2657 4.18091 33.6784 4.21225C34.0896 4.24347 34.3808 4.30822 34.6283 4.43302C35.0773 4.6594 35.4426 5.02254 35.6717 5.47015C35.798 5.71689 35.8645 6.00802 35.8982 6.4196C35.9321 6.83274 35.9322 7.35534 35.9322 8.06283V24.7943C35.9322 25.6732 35.9321 26.3244 35.89 26.8398C35.848 27.3536 35.7649 27.7207 35.6054 28.0337C35.318 28.5978 34.8594 29.0564 34.2954 29.3438C33.9824 29.5033 33.6152 29.5863 33.1014 29.6283C32.586 29.6704 31.9348 29.6705 31.0559 29.6705H6.00932C5.13041 29.6705 4.47923 29.6704 3.96384 29.6283C3.44999 29.5863 3.08284 29.5033 2.76987 29.3438C2.2058 29.0564 1.7472 28.5978 1.4598 28.0337C1.30033 27.7207 1.21726 27.3536 1.17527 26.8398C1.13316 26.3244 1.13306 25.6732 1.13306 24.7943V5.00746Z" fill="url(#paint0_linear_2_212366)" stroke="url(#paint1_linear_2_212366)" stroke-width="0.26612"/>
<mask id="mask0_2_212366" style="mask-type:alpha" maskUnits="userSpaceOnUse" x="1" y="1" width="36" height="29">
<path d="M1.13306 5.00746C1.13306 4.30389 1.13316 3.78422 1.16674 3.37324C1.20019 2.96381 1.2662 2.67398 1.39155 2.42798C1.61892 1.98173 1.98173 1.61892 2.42798 1.39155C2.67398 1.2662 2.96381 1.20019 3.37324 1.16674C3.78422 1.13316 4.30389 1.13306 5.00746 1.13306H11.4363C12.1502 1.13306 12.4853 1.13381 12.7196 1.18229C12.7752 1.19382 12.8199 1.20281 12.8565 1.21018C12.9552 1.23004 12.9955 1.23816 13.036 1.25249C13.0765 1.26683 13.1129 1.28588 13.2021 1.3325C13.2352 1.34981 13.2756 1.37092 13.3261 1.39699C13.426 1.44853 13.6512 1.61354 14.0438 1.92285C14.4312 2.22799 14.97 2.664 15.6897 3.24651C16.3871 3.81089 17.3246 4.26388 18.5326 4.26388C19.3817 4.26388 27.1301 4.21789 32.0378 4.18823C32.744 4.18396 33.2657 4.18091 33.6784 4.21225C34.0896 4.24347 34.3808 4.30822 34.6283 4.43302C35.0773 4.6594 35.4426 5.02254 35.6717 5.47015C35.798 5.71689 35.8645 6.00802 35.8982 6.4196C35.9321 6.83274 35.9322 7.35534 35.9322 8.06283V24.7943C35.9322 25.6732 35.9321 26.3244 35.89 26.8398C35.848 27.3536 35.7649 27.7207 35.6054 28.0337C35.318 28.5978 34.8594 29.0564 34.2954 29.3438C33.9824 29.5033 33.6152 29.5863 33.1014 29.6283C32.586 29.6704 31.9348 29.6705 31.0559 29.6705H6.00932C5.13041 29.6705 4.47923 29.6704 3.96384 29.6283C3.44999 29.5863 3.08284 29.5033 2.76987 29.3438C2.2058 29.0564 1.7472 28.5978 1.4598 28.0337C1.30033 27.7207 1.21726 27.3536 1.17527 26.8398C1.13316 26.3244 1.13306 25.6732 1.13306 24.7943V5.00746Z" fill="white" stroke="white" stroke-width="0.26612"/>
</mask>
<g mask="url(#mask0_2_212366)">
<g style="mix-blend-mode:darken" filter="url(#filter1_df_2_212366)">
<rect x="1" y="6.00932" width="35.0652" height="5.00932" rx="1.56541" fill="url(#paint2_linear_2_212366)"/>
</g>
<path d="M0.882604 11.7231C0.882604 10.8444 0.882695 10.1925 0.924869 9.67631C0.96693 9.16149 1.05027 8.79206 1.21105 8.47651C1.49995 7.9095 1.96095 7.4485 2.52796 7.15959C2.84351 6.99881 3.21295 6.91548 3.72776 6.87342C4.24394 6.83124 4.89587 6.83115 5.77452 6.83115H31.2907C32.1694 6.83115 32.8213 6.83124 33.3375 6.87342C33.8523 6.91548 34.2217 6.99881 34.5373 7.15959C35.1043 7.4485 35.5653 7.9095 35.8542 8.47651C36.015 8.79206 36.0983 9.16149 36.1404 9.67631C36.1826 10.1925 36.1827 10.8444 36.1827 11.7231V25.2326C36.1827 26.0893 36.1826 26.7248 36.1415 27.2279C36.1005 27.7297 36.0193 28.0895 35.8627 28.3966C35.5813 28.9489 35.1323 29.3979 34.58 29.6793C34.2729 29.8359 33.9131 29.9171 33.4113 29.9581C32.9082 29.9992 32.2727 29.9993 31.416 29.9993H5.64928C4.79255 29.9993 4.15706 29.9992 3.65393 29.9581C3.15217 29.9171 2.7924 29.8359 2.48522 29.6793C1.93294 29.3979 1.48392 28.9489 1.20252 28.3966C1.046 28.0895 0.964798 27.7297 0.923802 27.2279C0.882695 26.7248 0.882604 26.0893 0.882604 25.2326V11.7231Z" fill="url(#paint3_linear_2_212366)" stroke="url(#paint4_linear_2_212366)" stroke-width="0.234812"/>
<mask id="mask1_2_212366" style="mask-type:alpha" maskUnits="userSpaceOnUse" x="0" y="6" width="37" height="25">
<path d="M0.882604 11.7231C0.882604 10.8444 0.882695 10.1925 0.924869 9.67631C0.96693 9.16149 1.05027 8.79206 1.21105 8.47651C1.49995 7.9095 1.96095 7.4485 2.52796 7.15959C2.84351 6.99881 3.21295 6.91548 3.72776 6.87342C4.24394 6.83124 4.89587 6.83115 5.77452 6.83115H31.2907C32.1694 6.83115 32.8213 6.83124 33.3375 6.87342C33.8523 6.91548 34.2217 6.99881 34.5373 7.15959C35.1043 7.4485 35.5653 7.9095 35.8542 8.47651C36.015 8.79206 36.0983 9.16149 36.1404 9.67631C36.1826 10.1925 36.1827 10.8444 36.1827 11.7231V25.2326C36.1827 26.0893 36.1826 26.7248 36.1415 27.2279C36.1005 27.7297 36.0193 28.0895 35.8627 28.3966C35.5813 28.9489 35.1323 29.3979 34.58 29.6793C34.2729 29.8359 33.9131 29.9171 33.4113 29.9581C32.9082 29.9992 32.2727 29.9993 31.416 29.9993H5.64928C4.79255 29.9993 4.15706 29.9992 3.65393 29.9581C3.15217 29.9171 2.7924 29.8359 2.48522 29.6793C1.93294 29.3979 1.48392 28.9489 1.20252 28.3966C1.046 28.0895 0.964798 27.7297 0.923802 27.2279C0.882695 26.7248 0.882604 26.0893 0.882604 25.2326V11.7231Z" fill="white"/>
<path d="M0.882604 11.7231C0.882604 10.8444 0.882695 10.1925 0.924869 9.67631C0.96693 9.16149 1.05027 8.79206 1.21105 8.47651C1.49995 7.9095 1.96095 7.4485 2.52796 7.15959C2.84351 6.99881 3.21295 6.91548 3.72776 6.87342C4.24394 6.83124 4.89587 6.83115 5.77452 6.83115H31.2907C32.1694 6.83115 32.8213 6.83124 33.3375 6.87342C33.8523 6.91548 34.2217 6.99881 34.5373 7.15959C35.1043 7.4485 35.5653 7.9095 35.8542 8.47651C36.015 8.79206 36.0983 9.16149 36.1404 9.67631C36.1826 10.1925 36.1827 10.8444 36.1827 11.7231V25.2326C36.1827 26.0893 36.1826 26.7248 36.1415 27.2279C36.1005 27.7297 36.0193 28.0895 35.8627 28.3966C35.5813 28.9489 35.1323 29.3979 34.58 29.6793C34.2729 29.8359 33.9131 29.9171 33.4113 29.9581C32.9082 29.9992 32.2727 29.9993 31.416 29.9993H5.64928C4.79255 29.9993 4.15706 29.9992 3.65393 29.9581C3.15217 29.9171 2.7924 29.8359 2.48522 29.6793C1.93294 29.3979 1.48392 28.9489 1.20252 28.3966C1.046 28.0895 0.964798 27.7297 0.923802 27.2279C0.882695 26.7248 0.882604 26.0893 0.882604 25.2326V11.7231Z" stroke="white" stroke-width="0.234812"/>
</mask>
<g mask="url(#mask1_2_212366)">
</g>
</g>
</g>
<defs>
<filter id="filter0_d_2_212366" x="0.373835" y="0.686918" width="36.3176" height="30.0559" filterUnits="userSpaceOnUse" color-interpolation-filters="sRGB">
<feFlood flood-opacity="0" result="BackgroundImageFix"/>
<feColorMatrix in="SourceAlpha" type="matrix" values="0 0 0 0 0 0 0 0 0 0 0 0 0 0 0 0 0 0 127 0" result="hardAlpha"/>
<feOffset dy="0.313082"/>
<feGaussianBlur stdDeviation="0.313082"/>
<feColorMatrix type="matrix" values="0 0 0 0 0 0 0 0 0 0 0 0 0 0 0 0 0 0 0.245684 0"/>
<feBlend mode="normal" in2="BackgroundImageFix" result="effect1_dropShadow_2_212366"/>
<feBlend mode="normal" in="SourceGraphic" in2="effect1_dropShadow_2_212366" result="shape"/>
</filter>
<filter id="filter1_df_2_212366" x="-2.40419" y="2.60514" width="41.8736" height="12.1705" filterUnits="userSpaceOnUse" color-interpolation-filters="sRGB">
<feFlood flood-opacity="0" result="BackgroundImageFix"/>
<feColorMatrix in="SourceAlpha" type="matrix" values="0 0 0 0 0 0 0 0 0 0 0 0 0 0 0 0 0 0 127 0" result="hardAlpha"/>
<feOffset dy="1.25233"/>
<feGaussianBlur stdDeviation="1.25233"/>
<feColorMatrix type="matrix" values="0 0 0 0 0.243148 0 0 0 0 0.530446 0 0 0 0 0.784098 0 0 0 1 0"/>
<feBlend mode="normal" in2="BackgroundImageFix" result="effect1_dropShadow_2_212366"/>
<feBlend mode="normal" in="SourceGraphic" in2="effect1_dropShadow_2_212366" result="shape"/>
<feGaussianBlur stdDeviation="1.70209" result="effect2_foregroundBlur_2_212366"/>
</filter>
<linearGradient id="paint0_linear_2_212366" x1="15.0955" y1="1" x2="15.0955" y2="6.64667" gradientUnits="userSpaceOnUse">
<stop stop-color="#699CCB"/>
<stop offset="0.10849" stop-color="#689CCB"/>
<stop offset="0.206431" stop-color="#679ACA"/>
<stop offset="0.296168" stop-color="#6598C9"/>
<stop offset="0.380045" stop-color="#6296C8"/>
<stop offset="0.460406" stop-color="#5F93C7"/>
<stop offset="0.539594" stop-color="#5B90C5"/>
<stop offset="0.619955" stop-color="#588EC4"/>
<stop offset="0.703832" stop-color="#548BC3"/>
<stop offset="0.793569" stop-color="#5289C2"/>
<stop offset="0.89151" stop-color="#5088C1"/>
<stop offset="1" stop-color="#4F87C1"/>
</linearGradient>
<linearGradient id="paint1_linear_2_212366" x1="14.9763" y1="1" x2="14.9763" y2="6.84247" gradientUnits="userSpaceOnUse">
<stop stop-color="#96D8FF" stop-opacity="0.681818"/>
<stop offset="1" stop-color="#053A59" stop-opacity="0.01"/>
</linearGradient>
<linearGradient id="paint2_linear_2_212366" x1="1" y1="6.00932" x2="1" y2="11.0186" gradientUnits="userSpaceOnUse">
<stop offset="0.000158361" stop-color="#1E6293"/>
<stop offset="1" stop-color="#17659D"/>
</linearGradient>
<linearGradient id="paint3_linear_2_212366" x1="0.765198" y1="18.4152" x2="36.3001" y2="18.4152" gradientUnits="userSpaceOnUse">
<stop stop-color="#1DA1F2"/>
<stop offset="1" stop-color="#009FFC"/>
</linearGradient>
<linearGradient id="paint4_linear_2_212366" x1="14.0352" y1="6.71375" x2="14.0352" y2="12.6377" gradientUnits="userSpaceOnUse">
<stop stop-color="#E8F7FF" stop-opacity="0.25112"/>
<stop offset="0.999894" stop-color="#CCECFF" stop-opacity="0.01"/>
</linearGradient>
</defs>
</svg>
