<svg width="20" height="20" viewBox="0 0 20 20" fill="none" xmlns="http://www.w3.org/2000/svg">
<path fill-rule="evenodd" clip-rule="evenodd" d="M19.7875 10.2271C19.7875 9.51801 19.7239 8.83619 19.6057 8.18164H10.1875V12.0498H15.5693C15.3375 13.2998 14.633 14.3589 13.5739 15.068V17.5771H16.8057C18.6966 15.8362 19.7875 13.2726 19.7875 10.2271Z" fill="#5D5FEF"/>
<path fill-rule="evenodd" clip-rule="evenodd" d="M10.1874 20.0004C12.8874 20.0004 15.151 19.105 16.8056 17.5777L13.5737 15.0686C12.6783 15.6686 11.5328 16.0231 10.1874 16.0231C7.58281 16.0231 5.37826 14.264 4.59189 11.9004H1.25098V14.4913C2.89643 17.7595 6.27826 20.0004 10.1874 20.0004Z" fill="#5D5FEF"/>
<path fill-rule="evenodd" clip-rule="evenodd" d="M4.59205 11.8997C4.39205 11.2997 4.27842 10.6588 4.27842 9.99971C4.27842 9.34062 4.39205 8.6997 4.59205 8.0997V5.50879H1.25114C0.573864 6.85879 0.1875 8.38607 0.1875 9.99971C0.1875 11.6133 0.573864 13.1406 1.25114 14.4906L4.59205 11.8997Z" fill="#5D5FEF"/>
<path fill-rule="evenodd" clip-rule="evenodd" d="M10.1874 3.97728C11.6555 3.97728 12.9737 4.48183 14.0101 5.47274L16.8783 2.60455C15.1465 0.990911 12.8828 0 10.1874 0C6.27826 0 2.89643 2.24091 1.25098 5.5091L4.59189 8.10002C5.37826 5.73638 7.58281 3.97728 10.1874 3.97728Z" fill="#5D5FEF"/>
</svg>
