<svg width="28" height="29" viewBox="0 0 28 29" fill="none" xmlns="http://www.w3.org/2000/svg">
<circle cx="13.7047" cy="14.3795" r="13.6564" fill="#5D5FEF"/>
<path d="M13.9037 9.59973C11.1583 9.59973 8.9248 11.8333 8.9248 14.5786V14.9341V16.5702V16.6414C8.9248 17.1512 9.37141 17.566 9.92058 17.566H10.4185C10.6938 17.566 10.9164 17.3429 10.9164 17.0681V14.5074C10.9164 14.2326 10.6938 14.0095 10.4185 14.0095H9.96639C10.2432 12.0827 11.9012 10.5955 13.9037 10.5955C15.9062 10.5955 17.5642 12.0827 17.841 14.0095H17.3889C17.1136 14.0095 16.891 14.2326 16.891 14.5074V16.5702V17.0681V17.566C16.891 18.1151 16.4444 18.5617 15.8953 18.5617H14.8995V18.0638H12.9079V19.5575H13.9037H14.8995H15.8953C16.9936 19.5575 17.8868 18.6643 17.8868 17.566C18.436 17.566 18.8826 17.1512 18.8826 16.6414V16.5702V14.9341V14.5786C18.8826 11.8333 16.6491 9.59973 13.9037 9.59973Z" fill="white"/>
</svg>
