<svg width="14" height="14" viewBox="0 0 14 14" fill="none" xmlns="http://www.w3.org/2000/svg">
<path d="M3.31245 3.25602H5.56224V2.24361H3.31245V3.25602ZM5.61849 3.31227V5.56206H6.63089V3.31227H5.61849ZM5.56224 5.6183H3.31245V6.63071H5.56224V5.6183ZM3.2562 5.56206V3.31227H2.2438V5.56206H3.2562ZM3.31245 5.6183C3.28139 5.6183 3.2562 5.59312 3.2562 5.56206H2.2438C2.2438 6.15226 2.72225 6.63071 3.31245 6.63071V5.6183ZM5.61849 5.56206C5.61849 5.59312 5.59331 5.6183 5.56224 5.6183V6.63071C6.15244 6.63071 6.63089 6.15226 6.63089 5.56206H5.61849ZM5.56224 3.25602C5.59331 3.25602 5.61849 3.2812 5.61849 3.31227H6.63089C6.63089 2.72207 6.15244 2.24361 5.56224 2.24361V3.25602ZM3.31245 2.24361C2.72225 2.24361 2.2438 2.72207 2.2438 3.31227H3.2562C3.2562 3.2812 3.28139 3.25602 3.31245 3.25602V2.24361ZM3.31245 8.8805H5.56224V7.8681H3.31245V8.8805ZM5.61849 8.93675V11.1865H6.63089V8.93675H5.61849ZM5.56224 11.2428H3.31245V12.2552H5.56224V11.2428ZM3.2562 11.1865V8.93675H2.2438V11.1865H3.2562ZM3.31245 11.2428C3.28139 11.2428 3.2562 11.2176 3.2562 11.1865H2.2438C2.2438 11.7767 2.72225 12.2552 3.31245 12.2552V11.2428ZM5.61849 11.1865C5.61849 11.2176 5.59331 11.2428 5.56224 11.2428V12.2552C6.15244 12.2552 6.63089 11.7767 6.63089 11.1865H5.61849ZM5.56224 8.8805C5.59331 8.8805 5.61849 8.90569 5.61849 8.93675H6.63089C6.63089 8.34655 6.15244 7.8681 5.56224 7.8681V8.8805ZM3.31245 7.8681C2.72225 7.8681 2.2438 8.34655 2.2438 8.93675H3.2562C3.2562 8.90569 3.28139 8.8805 3.31245 8.8805V7.8681ZM8.93693 8.8805H11.1867V7.8681H8.93693V8.8805ZM11.243 8.93675V11.1865H12.2554V8.93675H11.243ZM11.1867 11.2428H8.93693V12.2552H11.1867V11.2428ZM8.88069 11.1865V8.93675H7.86828V11.1865H8.88069ZM8.93693 11.2428C8.90587 11.2428 8.88069 11.2176 8.88069 11.1865H7.86828C7.86828 11.7767 8.34673 12.2552 8.93693 12.2552V11.2428ZM11.243 11.1865C11.243 11.2176 11.2178 11.2428 11.1867 11.2428V12.2552C11.7769 12.2552 12.2554 11.7767 12.2554 11.1865H11.243ZM11.1867 8.8805C11.2178 8.8805 11.243 8.90569 11.243 8.93675H12.2554C12.2554 8.34655 11.7769 7.8681 11.1867 7.8681V8.8805ZM8.93693 7.8681C8.34673 7.8681 7.86828 8.34655 7.86828 8.93675H8.88069C8.88069 8.90569 8.90587 8.8805 8.93693 8.8805V7.8681Z" fill="white"/>
<path d="M9.81729 2.82386L11.6575 4.11812L12.2399 3.29001L10.3997 1.99575L9.81729 2.82386ZM11.6712 4.19648L10.3769 6.03672L11.205 6.61913L12.4993 4.77889L11.6712 4.19648ZM10.2986 6.05037L8.45832 4.75611L7.8759 5.58422L9.71614 6.87847L10.2986 6.05037ZM8.44467 4.67775L9.73893 2.83751L8.91082 2.25509L7.61656 4.09533L8.44467 4.67775ZM8.45832 4.75611C8.43291 4.73824 8.4268 4.70315 8.44467 4.67775L7.61656 4.09533C7.27703 4.57809 7.39314 5.24469 7.8759 5.58422L8.45832 4.75611ZM10.3769 6.03672C10.359 6.06212 10.324 6.06824 10.2986 6.05037L9.71614 6.87847C10.1989 7.218 10.8655 7.10189 11.205 6.61913L10.3769 6.03672ZM11.6575 4.11812C11.6829 4.13599 11.689 4.17107 11.6712 4.19648L12.4993 4.77889C12.8388 4.29614 12.7227 3.62954 12.2399 3.29001L11.6575 4.11812ZM10.3997 1.99575C9.91695 1.65622 9.25035 1.77234 8.91082 2.25509L9.73893 2.83751C9.7568 2.8121 9.79188 2.80599 9.81729 2.82386L10.3997 1.99575Z" fill="white"/>
</svg>
