<svg width="13" height="11" viewBox="0 0 13 11" fill="none" xmlns="http://www.w3.org/2000/svg">
<path d="M8.93673 9.74899H11.749V8.6241C11.749 7.6922 10.9935 6.93675 10.0616 6.93675C9.52415 6.93675 9.04536 7.18805 8.73636 7.57957M8.93673 9.74899H3.31224M8.93673 9.74899V8.6241C8.93673 8.25499 8.86562 7.9025 8.73636 7.57957M3.31224 9.74899H0.5V8.6241C0.5 7.6922 1.25545 6.93675 2.18735 6.93675C2.72483 6.93675 3.20361 7.18805 3.51261 7.57957M3.31224 9.74899V8.6241C3.31224 8.25499 3.38335 7.9025 3.51261 7.57957M3.51261 7.57957C3.92728 6.54361 4.94043 5.81185 6.12449 5.81185C7.30854 5.81185 8.32169 6.54361 8.73636 7.57957M7.81183 2.43716C7.81183 3.36906 7.05638 4.12451 6.12449 4.12451C5.19259 4.12451 4.43714 3.36906 4.43714 2.43716C4.43714 1.50527 5.19259 0.749817 6.12449 0.749817C7.05638 0.749817 7.81183 1.50527 7.81183 2.43716ZM11.1865 4.12451C11.1865 4.74577 10.6829 5.2494 10.0616 5.2494C9.44036 5.2494 8.93673 4.74577 8.93673 4.12451C8.93673 3.50324 9.44036 2.99961 10.0616 2.99961C10.6829 2.99961 11.1865 3.50324 11.1865 4.12451ZM3.31224 4.12451C3.31224 4.74577 2.80861 5.2494 2.18735 5.2494C1.56608 5.2494 1.06245 4.74577 1.06245 4.12451C1.06245 3.50324 1.56608 2.99961 2.18735 2.99961C2.80861 2.99961 3.31224 3.50324 3.31224 4.12451Z" stroke="white" stroke-width="0.944913" stroke-linecap="round" stroke-linejoin="round"/>
</svg>
