<svg width="16" height="16" viewBox="0 0 16 16" fill="none" xmlns="http://www.w3.org/2000/svg">
<path d="M13.9997 4.39331H10.2031" stroke="white" stroke-width="0.949132" stroke-miterlimit="10" stroke-linecap="round" stroke-linejoin="round"/>
<path d="M3.87477 4.39331H1.34375" stroke="white" stroke-width="0.949132" stroke-miterlimit="10" stroke-linecap="round" stroke-linejoin="round"/>
<path d="M6.40214 6.60793C7.62525 6.60793 8.61678 5.6164 8.61678 4.39329C8.61678 3.17018 7.62525 2.17865 6.40214 2.17865C5.17903 2.17865 4.1875 3.17018 4.1875 4.39329C4.1875 5.6164 5.17903 6.60793 6.40214 6.60793Z" stroke="white" stroke-width="0.949132" stroke-miterlimit="10" stroke-linecap="round" stroke-linejoin="round"/>
<path d="M13.9998 11.3536H11.4688" stroke="white" stroke-width="0.949132" stroke-miterlimit="10" stroke-linecap="round" stroke-linejoin="round"/>
<path d="M5.14028 11.3536H1.34375" stroke="white" stroke-width="0.949132" stroke-miterlimit="10" stroke-linecap="round" stroke-linejoin="round"/>
<path d="M8.93339 13.5683C10.1565 13.5683 11.148 12.5767 11.148 11.3536C11.148 10.1305 10.1565 9.13898 8.93339 9.13898C7.71028 9.13898 6.71875 10.1305 6.71875 11.3536C6.71875 12.5767 7.71028 13.5683 8.93339 13.5683Z" stroke="white" stroke-width="0.949132" stroke-miterlimit="10" stroke-linecap="round" stroke-linejoin="round"/>
</svg>
