<svg width="20" height="18" viewBox="0 0 20 18" fill="none" xmlns="http://www.w3.org/2000/svg">
<path fill-rule="evenodd" clip-rule="evenodd" d="M1.8679 2.29412H15.6805L16.8607 0.352924C16.9931 0.135035 17.2437 0 17.5156 0H19.0156C19.4298 0 19.7656 0.308133 19.7656 0.688235C19.7656 1.06834 19.4298 1.37647 19.0156 1.37647H17.956L16.7913 3.2922L14.1053 8.74598L14.1025 8.75155L13.8659 9.23191L16.5628 11.8716C16.7567 12.0614 16.8174 12.3354 16.7196 12.5796C16.6219 12.8238 16.3825 12.9966 16.1008 13.0261L13.6426 13.2839C10.568 13.6064 7.46326 13.6064 4.38858 13.2839L1.93045 13.0261C1.51891 12.983 1.22342 12.6419 1.27046 12.2642C1.31749 11.8866 1.68923 11.6154 2.10077 11.6586L4.5589 11.9164C7.5204 12.2269 10.5108 12.2269 13.4723 11.9164L14.4478 11.8141L12.4685 9.8766C12.4493 9.85786 12.4315 9.83839 12.4151 9.81831L11.6623 9.9082C10.6074 10.0342 9.54101 10.0589 8.4805 9.98188C6.00703 9.80237 3.71461 8.72231 2.11415 6.98244L1.53608 6.35402C1.51667 6.33292 1.49866 6.31076 1.48215 6.28767L0.404774 4.78102C-0.358881 3.7131 0.475948 2.29412 1.8679 2.29412ZM12.3594 8.43689C12.5248 8.41714 12.6674 8.32072 12.737 8.18178L12.7384 8.17909L14.9589 3.67059H1.8679C1.66905 3.67059 1.54979 3.8733 1.65888 4.02586L2.71146 5.49784L3.26038 6.09457C4.60242 7.55351 6.52469 8.45917 8.59877 8.6097C9.55535 8.67912 10.5172 8.65685 11.4687 8.54323L12.3594 8.43689Z" fill="white"/>
<path d="M14.5156 14.4529C15.3441 14.4529 16.0156 15.0692 16.0156 15.8294C16.0156 16.5896 15.3441 17.2059 14.5156 17.2059C13.6872 17.2059 13.0156 16.5896 13.0156 15.8294C13.0156 15.0692 13.6872 14.4529 14.5156 14.4529Z" fill="white"/>
<path d="M5.01562 15.8294C5.01562 15.0692 4.34405 14.4529 3.51562 14.4529C2.6872 14.4529 2.01562 15.0692 2.01562 15.8294C2.01562 16.5896 2.6872 17.2059 3.51562 17.2059C4.34405 17.2059 5.01562 16.5896 5.01562 15.8294Z" fill="white"/>
</svg>
