<svg width="14" height="17" viewBox="0 0 14 17" fill="none" xmlns="http://www.w3.org/2000/svg">
<path d="M11.8791 4.45219V14.3502H13.1988V4.45219H11.8791ZM10.8893 15.3401H2.64089V16.6598H10.8893V15.3401ZM1.65108 14.3502V4.45219H0.33134V14.3502H1.65108ZM2.64089 3.46238H4.29056V2.14264H2.64089V3.46238ZM9.23959 3.46238H10.8893V2.14264H9.23959V3.46238ZM2.64089 15.3401C2.09423 15.3401 1.65108 14.8969 1.65108 14.3502H0.33134C0.33134 15.6258 1.36536 16.6598 2.64089 16.6598V15.3401ZM11.8791 14.3502C11.8791 14.8969 11.4359 15.3401 10.8893 15.3401V16.6598C12.1648 16.6598 13.1988 15.6258 13.1988 14.3502H11.8791ZM13.1988 4.45219C13.1988 3.17666 12.1648 2.14264 10.8893 2.14264V3.46238C11.4359 3.46238 11.8791 3.90553 11.8791 4.45219H13.1988ZM1.65108 4.45219C1.65108 3.90553 2.09423 3.46238 2.64089 3.46238V2.14264C1.36536 2.14264 0.33134 3.17666 0.33134 4.45219H1.65108ZM5.94024 1.8127H7.58992V0.492961H5.94024V1.8127ZM7.58992 3.79231H5.94024V5.11206H7.58992V3.79231ZM5.94024 3.79231C5.39359 3.79231 4.95043 3.34916 4.95043 2.80251H3.63069C3.63069 4.07804 4.66471 5.11206 5.94024 5.11206V3.79231ZM8.57972 2.80251C8.57972 3.34916 8.13657 3.79231 7.58992 3.79231V5.11206C8.86545 5.11206 9.89946 4.07804 9.89946 2.80251H8.57972ZM7.58992 1.8127C8.13657 1.8127 8.57972 2.25585 8.57972 2.80251H9.89946C9.89946 1.52698 8.86545 0.492961 7.58992 0.492961V1.8127ZM5.94024 0.492961C4.66471 0.492961 3.63069 1.52698 3.63069 2.80251H4.95043C4.95043 2.25585 5.39359 1.8127 5.94024 1.8127V0.492961Z" fill="white"/>
</svg>
