<svg width="18" height="19" viewBox="0 0 18 19" fill="none" xmlns="http://www.w3.org/2000/svg">
<path fill-rule="evenodd" clip-rule="evenodd" d="M9 16.6257C12.7279 16.6257 15.75 13.4357 15.75 9.50065C15.75 5.56562 12.7279 2.37565 9 2.37565C5.27208 2.37565 2.25 5.56562 2.25 9.50065C2.25 13.4357 5.27208 16.6257 9 16.6257ZM17.25 9.50065C17.25 14.3101 13.5563 18.209 9 18.209C4.44365 18.209 0.749998 14.3101 0.749998 9.50065C0.749998 4.69117 4.44365 0.792316 9 0.792316C13.5563 0.792316 17.25 4.69117 17.25 9.50065Z" fill="white" fill-opacity="0.7"/>
<path fill-rule="evenodd" clip-rule="evenodd" d="M9 13.458C8.58579 13.458 8.25 13.1036 8.25 12.6663V9.49968C8.25 9.06245 8.58579 8.70801 9 8.70801C9.41421 8.70801 9.75 9.06245 9.75 9.49968V12.6663C9.75 13.1036 9.41421 13.458 9 13.458Z" fill="white" fill-opacity="0.7"/>
<path fill-rule="evenodd" clip-rule="evenodd" d="M9.75 6.33333C9.75 6.77056 9.41421 7.125 9 7.125H8.9925C8.57829 7.125 8.2425 6.77056 8.2425 6.33333C8.2425 5.89611 8.57829 5.54167 8.9925 5.54167H9C9.41421 5.54167 9.75 5.89611 9.75 6.33333Z" fill="white" fill-opacity="0.7"/>
</svg>
