<svg width="16" height="15" viewBox="0 0 16 15" fill="none" xmlns="http://www.w3.org/2000/svg">
<path d="M8.00101 1.49109C9.8865 1.49109 10.1098 1.4983 10.8545 1.53227C11.543 1.56366 11.9169 1.6787 12.1657 1.77541C12.4953 1.90351 12.7305 2.05653 12.9776 2.30362C13.2247 2.55074 13.3778 2.78597 13.5059 3.11559C13.6026 3.36441 13.7176 3.73832 13.749 4.42681C13.783 5.17141 13.7902 5.39476 13.7902 7.28025C13.7902 9.16576 13.783 9.38911 13.749 10.1337C13.7176 10.8222 13.6026 11.1961 13.5059 11.4449C13.3778 11.7746 13.2247 12.0098 12.9777 12.2569C12.7305 12.504 12.4953 12.657 12.1657 12.7851C11.9169 12.8818 11.543 12.9969 10.8545 13.0283C10.11 13.0622 9.88664 13.0694 8.00101 13.0694C6.11534 13.0694 5.89205 13.0622 5.14752 13.0283C4.45903 12.9969 4.08513 12.8818 3.8363 12.7851C3.50668 12.657 3.27145 12.504 3.02436 12.2569C2.77727 12.0098 2.62422 11.7746 2.49612 11.4449C2.39941 11.1961 2.28437 10.8222 2.25298 10.1337C2.219 9.38911 2.2118 9.16576 2.2118 7.28025C2.2118 5.39476 2.219 5.17141 2.25298 4.42681C2.28437 3.73832 2.39941 3.36441 2.49612 3.11559C2.62422 2.78597 2.77724 2.55074 3.02436 2.30365C3.27145 2.05653 3.50668 1.90351 3.8363 1.77541C4.08513 1.6787 4.45903 1.56366 5.14752 1.53227C5.89214 1.4983 6.11548 1.49109 8.00101 1.49109ZM8.00101 0.21875C6.08319 0.21875 5.84272 0.226879 5.08953 0.261245C4.33791 0.295526 3.82458 0.414909 3.37542 0.589456C2.91106 0.769918 2.51725 1.01137 2.12465 1.40395C1.73208 1.79654 1.49062 2.19035 1.31019 2.6547C1.13561 3.10387 1.01623 3.6172 0.981948 4.36881C0.947582 5.122 0.939453 5.36247 0.939453 7.28025C0.939453 9.19806 0.947582 9.43853 0.981948 10.1917C1.01623 10.9433 1.13561 11.4567 1.31019 11.9058C1.49062 12.3702 1.73208 12.764 2.12465 13.1566C2.51725 13.5492 2.91106 13.7906 3.37542 13.971C3.82458 14.1456 4.33791 14.265 5.08953 14.2993C5.84272 14.3336 6.08319 14.3418 8.00101 14.3418C9.91879 14.3418 10.1593 14.3336 10.9125 14.2993C11.6641 14.265 12.1774 14.1456 12.6266 13.971C13.0909 13.7906 13.4847 13.5492 13.8773 13.1566C14.2699 12.764 14.5114 12.3702 14.6918 11.9058C14.8664 11.4567 14.9858 10.9433 15.02 10.1917C15.0544 9.43853 15.0625 9.19806 15.0625 7.28025C15.0625 5.36247 15.0544 5.122 15.02 4.36881C14.9858 3.6172 14.8664 3.10387 14.6918 2.6547C14.5114 2.19035 14.2699 1.79654 13.8773 1.40395C13.4847 1.01137 13.0909 0.769918 12.6266 0.589456C12.1774 0.414909 11.6641 0.295526 10.9125 0.261245C10.1593 0.226879 9.91879 0.21875 8.00101 0.21875Z" fill="white"/>
<path d="M8.00414 3.6582C6.00142 3.6582 4.37793 5.28169 4.37793 7.28437C4.37793 9.28708 6.00142 10.9106 8.00414 10.9106C10.0068 10.9106 11.6303 9.28708 11.6303 7.28437C11.6303 5.28169 10.0068 3.6582 8.00414 3.6582ZM8.00414 9.63822C6.70412 9.63822 5.65028 8.58438 5.65028 7.28437C5.65028 5.98439 6.70412 4.93055 8.00414 4.93055C9.30412 4.93055 10.358 5.98439 10.358 7.28437C10.358 8.58438 9.30412 9.63822 8.00414 9.63822Z" fill="white"/>
<path d="M12.6206 3.51244C12.6206 3.98041 12.2412 4.35981 11.7732 4.35981C11.3052 4.35981 10.9258 3.98041 10.9258 3.51244C10.9258 3.04444 11.3052 2.66504 11.7732 2.66504C12.2412 2.66504 12.6206 3.04444 12.6206 3.51244Z" fill="white"/>
</svg>
