<svg width="126" height="38" viewBox="0 0 126 38" fill="none" xmlns="http://www.w3.org/2000/svg">
<path d="M31.0328 30.2101C30.0008 32.0719 30.6735 34.4177 32.5352 35.4497C34.397 36.4817 36.7428 35.809 37.7748 33.9473L52.1595 7.99661C53.1915 6.13484 52.5189 3.78899 50.6571 2.757C48.7953 1.725 46.4495 2.39766 45.4175 4.25943L31.0328 30.2101Z" fill="url(#paint0_linear_219_68286)"/>
<path d="M23.3919 4.26782C22.3599 2.40605 20.014 1.73339 18.1523 2.76538C16.2905 3.79738 15.6178 6.14323 16.6498 8.005L31.0345 33.9557C32.0665 35.8174 34.4124 36.4901 36.2741 35.4581C38.1359 34.4261 38.8086 32.0802 37.7766 30.2185L23.3919 4.26782Z" fill="url(#paint1_linear_219_68286)"/>
<path d="M16.2594 30.214C15.2274 32.0758 15.9 34.4216 17.7618 35.4536C19.6236 36.4856 21.9694 35.8129 23.0014 33.9512L37.3861 8.00052C38.4181 6.13875 37.7454 3.7929 35.8837 2.7609C34.0219 1.72891 31.676 2.40157 30.644 4.26334L16.2594 30.214Z" fill="url(#paint2_linear_219_68286)"/>
<path d="M8.61064 3.91235C7.57865 2.05058 5.23279 1.37792 3.37103 2.40991C1.50926 3.44191 0.836596 5.78776 1.86859 7.64953L16.2533 33.6002C17.2853 35.462 19.6311 36.1346 21.4929 35.1026C23.3547 34.0706 24.0273 31.7248 22.9953 29.863L8.61064 3.91235Z" fill="url(#paint3_linear_219_68286)"/>
<path d="M83.4632 25.864H80.0732L77.5307 18.9146L75.0814 25.864H71.7593L66.3438 11.3888H70.844L72.7254 16.4738C73.0729 17.5925 73.2508 18.7705 73.4881 19.8638L76.1323 11.4481H78.963L81.7258 19.8638C81.9631 18.7451 82.1919 17.6264 82.5733 16.389L84.3361 11.3888H88.8109L83.4632 25.864Z" fill="white"/>
<path d="M108.459 15.4484C107.475 14.7392 106.279 14.3865 105.069 14.4483C104.069 14.4483 103.128 14.745 103.128 15.5077C103.128 16.5077 104.128 16.6264 105.543 16.8044C108.425 17.0925 111.425 18.2705 111.425 21.6266C111.425 24.9827 108.306 26.3302 105.069 26.3302C102.484 26.3302 100.594 25.9234 98.5938 23.7877L100.831 21.1944C101.381 21.7551 102.042 22.1953 102.772 22.4871C103.501 22.7789 104.283 22.9159 105.069 22.8894C106.425 22.8894 107.365 22.4148 107.365 21.5927C107.365 20.7707 106.518 20.4147 104.95 20.2961C101.772 19.9994 99.0683 19.1774 99.0683 15.5924C99.0683 12.533 102.068 11.177 105.128 11.177C107.079 11.0684 109.003 11.6706 110.543 12.872L108.459 15.4484Z" fill="white"/>
<path d="M125.578 25.9234H113.984V11.4482H125.282V14.8382H118.044V16.8891H124.824V20.2791H118.044V22.4572H125.578V25.9234Z" fill="white"/>
<path d="M94.2752 11.0583L88.6562 16.8467V17.3467H90.6648V25.8641H94.2752V11.0583Z" fill="white"/>
<path d="M94.9297 11.0583L96.5145 13.4313V25.8641H94.9297V11.0583Z" fill="white"/>
<path d="M83.4632 25.864H80.0732L77.5307 18.9146L75.0814 25.864H71.7593L66.3438 11.3888H70.844L72.7254 16.4738C73.0729 17.5925 73.2508 18.7705 73.4881 19.8638L76.1323 11.4481H78.963L81.7258 19.8638C81.9631 18.7451 82.1919 17.6264 82.5733 16.389L84.3361 11.3888H88.8109L83.4632 25.864Z" fill="white"/>
<path d="M108.459 15.4484C107.475 14.7392 106.279 14.3865 105.069 14.4483C104.069 14.4483 103.128 14.745 103.128 15.5077C103.128 16.5077 104.128 16.6264 105.543 16.8044C108.425 17.0925 111.425 18.2705 111.425 21.6266C111.425 24.9827 108.306 26.3302 105.069 26.3302C102.484 26.3302 100.594 25.9234 98.5938 23.7877L100.831 21.1944C101.381 21.7551 102.042 22.1953 102.772 22.4871C103.501 22.7789 104.283 22.9159 105.069 22.8894C106.425 22.8894 107.365 22.4148 107.365 21.5927C107.365 20.7707 106.518 20.4147 104.95 20.2961C101.772 19.9994 99.0683 19.1774 99.0683 15.5924C99.0683 12.533 102.068 11.177 105.128 11.177C107.079 11.0684 109.003 11.6706 110.543 12.872L108.459 15.4484Z" fill="white"/>
<path d="M125.578 25.9234H113.984V11.4482H125.282V14.8382H118.044V16.8891H124.824V20.2791H118.044V22.4572H125.578V25.9234Z" fill="white"/>
<path d="M94.2752 11.0583L88.6562 16.8467V17.3467H90.6648V25.8641H94.2752V11.0583Z" fill="white"/>
<path d="M94.9297 11.0583L96.5145 13.4313V25.8641H94.9297V11.0583Z" fill="white"/>
<path d="M83.4632 25.864H80.0732L77.5307 18.9146L75.0814 25.864H71.7593L66.3438 11.3888H70.844L72.7254 16.4738C73.0729 17.5925 73.2508 18.7705 73.4881 19.8638L76.1323 11.4481H78.963L81.7258 19.8638C81.9631 18.7451 82.1919 17.6264 82.5733 16.389L84.3361 11.3888H88.8109L83.4632 25.864Z" fill="white"/>
<path d="M108.459 15.4484C107.475 14.7392 106.279 14.3865 105.069 14.4483C104.069 14.4483 103.128 14.745 103.128 15.5077C103.128 16.5077 104.128 16.6264 105.543 16.8044C108.425 17.0925 111.425 18.2705 111.425 21.6266C111.425 24.9827 108.306 26.3302 105.069 26.3302C102.484 26.3302 100.594 25.9234 98.5938 23.7877L100.831 21.1944C101.381 21.7551 102.042 22.1953 102.772 22.4871C103.501 22.7789 104.283 22.9159 105.069 22.8894C106.425 22.8894 107.365 22.4148 107.365 21.5927C107.365 20.7707 106.518 20.4147 104.95 20.2961C101.772 19.9994 99.0683 19.1774 99.0683 15.5924C99.0683 12.533 102.068 11.177 105.128 11.177C107.079 11.0684 109.003 11.6706 110.543 12.872L108.459 15.4484Z" fill="white"/>
<path d="M125.578 25.9234H113.984V11.4482H125.282V14.8382H118.044V16.8891H124.824V20.2791H118.044V22.4572H125.578V25.9234Z" fill="white"/>
<path d="M94.2752 11.0583L88.6562 16.8467V17.3467H90.6648V25.8641H94.2752V11.0583Z" fill="white"/>
<path d="M94.9297 11.0583L96.5145 13.4313V25.8641H94.9297V11.0583Z" fill="white"/>
<defs>
<linearGradient id="paint0_linear_219_68286" x1="32.2478" y1="35.2877" x2="50.9339" y2="2.92609" gradientUnits="userSpaceOnUse">
<stop stop-color="#42B1ED"/>
<stop offset="0.29" stop-color="#57A6F2"/>
<stop offset="0.4" stop-color="#4EB3EE"/>
<stop offset="0.61" stop-color="#3FC6E7"/>
<stop offset="1" stop-color="#13F0D6"/>
</linearGradient>
<linearGradient id="paint1_linear_219_68286" x1="36.5553" y1="35.291" x2="17.8692" y2="2.92931" gradientUnits="userSpaceOnUse">
<stop stop-color="#00A0FF"/>
<stop offset="0.39" stop-color="#844DB3"/>
<stop offset="0.45" stop-color="#973FA7"/>
<stop offset="0.57" stop-color="#CA1C88"/>
<stop offset="0.58" stop-color="#CF1885"/>
<stop offset="1" stop-color="#E90074"/>
</linearGradient>
<linearGradient id="paint2_linear_219_68286" x1="199.407" y1="1743.05" x2="915.205" y2="1487.4" gradientUnits="userSpaceOnUse">
<stop stop-color="#42B1ED"/>
<stop offset="0.29" stop-color="#57A6F2"/>
<stop offset="0.4" stop-color="#4EB3EE"/>
<stop offset="0.61" stop-color="#3FC6E7"/>
<stop offset="1" stop-color="#13F0D6"/>
</linearGradient>
<linearGradient id="paint3_linear_219_68286" x1="231.503" y1="1742.69" x2="-484.295" y2="1487.04" gradientUnits="userSpaceOnUse">
<stop stop-color="#00A0FF"/>
<stop offset="0.39" stop-color="#844DB3"/>
<stop offset="0.45" stop-color="#973FA7"/>
<stop offset="0.57" stop-color="#CA1C88"/>
<stop offset="0.58" stop-color="#CF1885"/>
<stop offset="1" stop-color="#E90074"/>
</linearGradient>
</defs>
</svg>
