<svg width="18" height="18" viewBox="0 0 18 18" fill="none" xmlns="http://www.w3.org/2000/svg">
<g opacity="0.7">
<path d="M10.5 3.96741H9.75C9.75 4.29922 9.96803 4.5916 10.2861 4.68625L10.5 3.96741ZM11.4976 4.38102L11.1403 5.04043C11.4321 5.19857 11.7932 5.14606 12.0279 4.91135L11.4976 4.38102ZM12.1819 3.69668L11.6516 3.16635L11.6516 3.16635L12.1819 3.69668ZM13.2426 3.69668L12.7123 4.22701L12.7123 4.22701L13.2426 3.69668ZM14.3033 4.75734L13.7729 5.28767L13.7729 5.28767L14.3033 4.75734ZM14.3033 5.818L13.7729 5.28767L13.7729 5.28767L14.3033 5.818ZM13.6189 6.50232L13.0886 5.97199C12.8539 6.20671 12.8014 6.5678 12.9595 6.85965L13.6189 6.50232ZM14.0326 7.5L13.3137 7.71394C13.4084 8.03196 13.7008 8.25 14.0326 8.25V7.5ZM14.0326 10.5V9.75C13.7008 9.75 13.4084 9.96803 13.3138 10.2861L14.0326 10.5ZM13.619 11.4976L12.9596 11.1402C12.8015 11.4321 12.854 11.7932 13.0887 12.0279L13.619 11.4976ZM11.4977 13.6189L12.0281 13.0886C11.7933 12.8539 11.4323 12.8014 11.1404 12.9595L11.4977 13.6189ZM10.5 14.0326L10.2861 13.3137C9.96803 13.4084 9.75 13.7008 9.75 14.0326H10.5ZM7.5 14.0326H8.25C8.25 13.7008 8.03197 13.4084 7.71394 13.3138L7.5 14.0326ZM6.50232 13.6189L6.85965 12.9595C6.5678 12.8014 6.20671 12.8539 5.97199 13.0886L6.50232 13.6189ZM4.75733 14.3033L4.227 14.8336L4.227 14.8336L4.75733 14.3033ZM3.69667 13.2426L4.227 12.7123L4.227 12.7123L3.69667 13.2426ZM3.69667 12.182L4.227 12.7123L4.227 12.7123L3.69667 12.182ZM4.38102 11.4976L4.91135 12.0279C5.14606 11.7932 5.19857 11.4321 5.04043 11.1403L4.38102 11.4976ZM3.96741 10.5L4.68625 10.2861C4.5916 9.96803 4.29922 9.75 3.96741 9.75V10.5ZM3.96741 7.5V8.25C4.29922 8.25 4.5916 8.03196 4.68625 7.71394L3.96741 7.5ZM4.38108 6.50226L5.04049 6.8596C5.19864 6.56775 5.14613 6.20665 4.91141 5.97193L4.38108 6.50226ZM3.69681 5.81799L4.22714 5.28766L4.22714 5.28766L3.69681 5.81799ZM3.69681 4.75733L4.22714 5.28766L4.22714 5.28766L3.69681 4.75733ZM4.75747 3.69667L4.22714 3.16634L4.22714 3.16634L4.75747 3.69667ZM6.50244 4.38098L5.97211 4.91131C6.20683 5.14603 6.56791 5.19854 6.85975 5.0404L6.50244 4.38098ZM7.5 3.96741L7.71394 4.68625C8.03196 4.5916 8.25 4.29922 8.25 3.96741H7.5ZM8.25 1.5C7.42157 1.5 6.75 2.17157 6.75 3H8.25L8.25 3V1.5ZM9.75 1.5H8.25V3H9.75V1.5ZM11.25 3C11.25 2.17157 10.5784 1.5 9.75 1.5V3L9.75 3H11.25ZM11.25 3.96741V3H9.75V3.96741H11.25ZM11.8549 3.7216C11.4953 3.52674 11.1134 3.36745 10.7139 3.24857L10.2861 4.68625C10.5849 4.77518 10.8708 4.8944 11.1403 5.04043L11.8549 3.7216ZM11.6516 3.16635L10.9673 3.85069L12.0279 4.91135L12.7123 4.22701L11.6516 3.16635ZM13.7729 3.16635C13.1872 2.58056 12.2374 2.58057 11.6516 3.16635L12.7123 4.22701L12.7123 4.22701L13.7729 3.16635ZM14.8336 4.22701L13.7729 3.16635L12.7123 4.22701L13.7729 5.28767L14.8336 4.22701ZM14.8336 6.34833C15.4194 5.76255 15.4194 4.8128 14.8336 4.22701L13.7729 5.28767V5.28767L14.8336 6.34833ZM14.1493 7.03265L14.8336 6.34833L13.7729 5.28767L13.0886 5.97199L14.1493 7.03265ZM14.7514 7.28606C14.6325 6.88658 14.4732 6.50463 14.2784 6.145L12.9595 6.85965C13.1056 7.12916 13.2248 7.41509 13.3137 7.71394L14.7514 7.28606ZM14.0326 8.25H15V6.75H14.0326V8.25ZM15 8.25L15 8.25H16.5C16.5 7.42157 15.8284 6.75 15 6.75V8.25ZM15 8.25V9.75H16.5V8.25H15ZM15 9.75L15 9.75V11.25C15.8284 11.25 16.5 10.5784 16.5 9.75H15ZM15 9.75H14.0326V11.25H15V9.75ZM14.2784 11.8549C14.4733 11.4953 14.6326 11.1134 14.7514 10.7139L13.3138 10.2861C13.2248 10.5849 13.1056 10.8708 12.9596 11.1402L14.2784 11.8549ZM14.8337 11.6516L14.1493 10.9672L13.0887 12.0279L13.7731 12.7123L14.8337 11.6516ZM14.8337 13.7729C15.4195 13.1872 15.4195 12.2374 14.8337 11.6516L13.7731 12.7123L13.7731 12.7123L14.8337 13.7729ZM13.7731 14.8336L14.8337 13.7729L13.7731 12.7123L12.7124 13.7729L13.7731 14.8336ZM11.6518 14.8336C12.2375 15.4194 13.1873 15.4194 13.7731 14.8336L12.7124 13.7729H12.7124L11.6518 14.8336ZM10.9674 14.1492L11.6518 14.8336L12.7124 13.7729L12.0281 13.0886L10.9674 14.1492ZM10.7139 14.7514C11.1134 14.6325 11.4954 14.4732 11.8551 14.2783L11.1404 12.9595C10.8709 13.1056 10.5849 13.2248 10.2861 13.3137L10.7139 14.7514ZM11.25 15V14.0326H9.75V15H11.25ZM9.75 16.5C10.5784 16.5 11.25 15.8284 11.25 15H9.75L9.75 15V16.5ZM8.25 16.5H9.75V15H8.25V16.5ZM6.75 15C6.75 15.8284 7.42157 16.5 8.25 16.5V15L8.25 15H6.75ZM6.75 14.0326V15H8.25V14.0326H6.75ZM6.145 14.2784C6.50463 14.4732 6.88658 14.6325 7.28606 14.7514L7.71394 13.3138C7.41509 13.2248 7.12916 13.1056 6.85965 12.9595L6.145 14.2784ZM6.34832 14.8336L7.03265 14.1493L5.97199 13.0886L5.28766 13.773L6.34832 14.8336ZM4.227 14.8336C4.81278 15.4194 5.76253 15.4194 6.34832 14.8336L5.28766 13.773H5.28766L4.227 14.8336ZM3.16634 13.773L4.227 14.8336L5.28766 13.773L4.227 12.7123L3.16634 13.773ZM3.16634 11.6516C2.58055 12.2374 2.58055 13.1872 3.16634 13.773L4.227 12.7123L4.227 12.7123L3.16634 11.6516ZM3.85069 10.9673L3.16634 11.6516L4.227 12.7123L4.91135 12.0279L3.85069 10.9673ZM3.24857 10.7139C3.36745 11.1134 3.52674 11.4953 3.7216 11.8549L5.04043 11.1403C4.8944 10.8708 4.77518 10.5849 4.68625 10.2861L3.24857 10.7139ZM3.96741 9.75H3V11.25H3.96741V9.75ZM3 9.75L3 9.75H1.5C1.5 10.5784 2.17157 11.25 3 11.25V9.75ZM3 9.75V8.25H1.5V9.75H3ZM3 8.25V8.25V6.75C2.17157 6.75 1.5 7.42157 1.5 8.25H3ZM3 8.25H3.96741V6.75H3V8.25ZM3.72168 6.14493C3.52678 6.50458 3.36747 6.88655 3.24857 7.28606L4.68625 7.71394C4.77519 7.41507 4.89443 7.12912 5.04049 6.8596L3.72168 6.14493ZM3.16648 6.34832L3.85075 7.03259L4.91141 5.97193L4.22714 5.28766L3.16648 6.34832ZM3.16648 4.227C2.58069 4.81279 2.58069 5.76253 3.16648 6.34832L4.22714 5.28766L4.22714 5.28766L3.16648 4.227ZM4.22714 3.16634L3.16648 4.227L4.22714 5.28766L5.2878 4.227L4.22714 3.16634ZM6.34846 3.16634C5.76267 2.58055 4.81292 2.58055 4.22714 3.16634L5.2878 4.227H5.2878L6.34846 3.16634ZM7.03277 3.85065L6.34846 3.16634L5.2878 4.227L5.97211 4.91131L7.03277 3.85065ZM7.28606 3.24857C6.88663 3.36745 6.50473 3.52672 6.14514 3.72157L6.85975 5.0404C7.12923 4.89438 7.41513 4.77518 7.71394 4.68625L7.28606 3.24857ZM6.75 3V3.96741H8.25V3H6.75Z" fill="white"/>
<circle cx="9" cy="9" r="2.25" stroke="white" stroke-width="1.5" stroke-linecap="round" stroke-linejoin="round"/>
</g>
</svg>
