<svg width="18" height="18" viewBox="0 0 18 18" fill="none" xmlns="http://www.w3.org/2000/svg">
<g opacity="0.7">
<path d="M10.125 2.25L10.6613 1.72566C10.5201 1.58135 10.3268 1.5 10.125 1.5V2.25ZM14.25 6.46875H15C15 6.27276 14.9233 6.08455 14.7863 5.94441L14.25 6.46875ZM13.5 8.85938C13.5 9.27359 13.8358 9.60938 14.25 9.60938C14.6642 9.60938 15 9.27359 15 8.85938H13.5ZM9 16.5C9.41421 16.5 9.75 16.1642 9.75 15.75C9.75 15.3358 9.41421 15 9 15V16.5ZM4.5 12.75V5.25H3V12.75H4.5ZM6.75 3H9V1.5H6.75V3ZM9 3H10.125V1.5H9V3ZM14.7863 5.94441L10.6613 1.72566L9.58874 2.77434L13.7137 6.99309L14.7863 5.94441ZM11.125 7.21875H14.25V5.71875H11.125V7.21875ZM10.875 5.46875V2.25H9.375V5.46875H10.875ZM13.5 6.46875V8.85938H15V6.46875H13.5ZM9 15H6.75V16.5H9V15ZM3 12.75C3 14.8211 4.67893 16.5 6.75 16.5V15C5.50736 15 4.5 13.9926 4.5 12.75H3ZM11.125 5.71875C10.9869 5.71875 10.875 5.60682 10.875 5.46875H9.375C9.375 6.43525 10.1585 7.21875 11.125 7.21875V5.71875ZM4.5 5.25C4.5 4.00736 5.50736 3 6.75 3V1.5C4.67893 1.5 3 3.17893 3 5.25H4.5Z" fill="white"/>
<path d="M13.125 11.25V15.75M13.125 15.75L11.25 13.875M13.125 15.75L15 13.875" stroke="white" stroke-width="1.5" stroke-linecap="round" stroke-linejoin="round"/>
</g>
</svg>
