<svg width="18" height="18" viewBox="0 0 18 18" fill="none" xmlns="http://www.w3.org/2000/svg">
<path d="M12.375 16.125V15" stroke="#929191" stroke-miterlimit="10" stroke-linecap="round" stroke-linejoin="round"/>
<path d="M12.375 9.37512V10.5001" stroke="#929191" stroke-miterlimit="10" stroke-linecap="round" stroke-linejoin="round"/>
<path d="M14.25 12.0002V11.6252C14.25 11.0018 13.7484 10.5002 13.125 10.5002H11.625C11.0016 10.5002 10.5 11.0018 10.5 11.6252C10.5 12.2487 11.0016 12.7502 11.625 12.7502H13.125C13.7484 12.7502 14.25 13.2518 14.25 13.8752C14.25 14.4987 13.7484 15.0002 13.125 15.0002H11.625C11.0016 15.0002 10.5 14.4987 10.5 13.8752V13.5002" stroke="#929191" stroke-miterlimit="10" stroke-linecap="round" stroke-linejoin="round"/>
<path d="M12.375 17.2501C14.8603 17.2501 16.875 15.2354 16.875 12.7501C16.875 10.2648 14.8603 8.25012 12.375 8.25012C9.88972 8.25012 7.875 10.2648 7.875 12.7501C7.875 15.2354 9.88972 17.2501 12.375 17.2501Z" stroke="#929191" stroke-width="1.2" stroke-miterlimit="10" stroke-linecap="round" stroke-linejoin="round"/>
<path opacity="0.7" d="M14.625 8.85012V1.12512H6L1.875 5.25012V15.7501H9.01875" stroke="white" stroke-width="1.2" stroke-miterlimit="10" stroke-linecap="round" stroke-linejoin="round"/>
<path d="M1.875 5.25012H6V1.12512" stroke="#929191" stroke-width="1.2" stroke-miterlimit="10" stroke-linecap="round" stroke-linejoin="round"/>
</svg>
