<svg width="15" height="16" viewBox="0 0 15 16" fill="none" xmlns="http://www.w3.org/2000/svg">
<g opacity="0.7">
<path d="M6 6.6875C6 6.37684 6.25184 6.125 6.5625 6.125H8.30692C8.48238 6.125 8.65228 6.18651 8.78706 6.29883L8.89486 6.38867C9.21307 6.65384 9.68599 6.61085 9.95116 6.29264C10.2163 5.97443 10.1733 5.50151 9.85514 5.23633L9.74734 5.1465C9.34298 4.80954 8.83328 4.625 8.30692 4.625H8.25V4.25C8.25 3.83579 7.91421 3.5 7.5 3.5C7.08579 3.5 6.75 3.83579 6.75 4.25V4.625H6.5625C5.42341 4.625 4.5 5.54841 4.5 6.6875C4.5 7.82659 5.42341 8.75 6.5625 8.75H8.4375C8.74816 8.75 9 9.00184 9 9.3125C9 9.62316 8.74816 9.875 8.4375 9.875H6.30898C6.11373 9.875 5.92617 9.79885 5.78617 9.66275L5.77281 9.64975C5.47582 9.36101 5.00099 9.3677 4.71225 9.66469C4.42351 9.96168 4.4302 10.4365 4.72719 10.7252L4.74055 10.7382C5.16054 11.1466 5.72322 11.375 6.30898 11.375H6.75V11.75C6.75 12.1642 7.08579 12.5 7.5 12.5C7.91421 12.5 8.25 12.1642 8.25 11.75V11.375H8.4375C9.57659 11.375 10.5 10.4516 10.5 9.3125C10.5 8.17341 9.57659 7.25 8.4375 7.25H6.5625C6.25184 7.25 6 6.99816 6 6.6875Z" fill="white"/>
<path fill-rule="evenodd" clip-rule="evenodd" d="M7.5 0.5C3.35786 0.5 0 3.85786 0 8C0 12.1421 3.35786 15.5 7.5 15.5C11.6421 15.5 15 12.1421 15 8C15 3.85786 11.6421 0.5 7.5 0.5ZM1.5 8C1.5 4.68629 4.18629 2 7.5 2C10.8137 2 13.5 4.68629 13.5 8C13.5 11.3137 10.8137 14 7.5 14C4.18629 14 1.5 11.3137 1.5 8Z" fill="white"/>
</g>
</svg>
