<svg width="16" height="16" viewBox="0 0 16 16" fill="none" xmlns="http://www.w3.org/2000/svg">
<path d="M9.46584 7.99988L15.6959 14.2303C16.1014 14.6355 16.1014 15.2908 15.6959 15.6961C15.2907 16.1013 14.6354 16.1013 14.2302 15.6961L7.9999 9.46566L1.76983 15.6961C1.36438 16.1013 0.709335 16.1013 0.304082 15.6961C-0.101361 15.2908 -0.101361 14.6355 0.304082 14.2303L6.53416 7.99988L0.304082 1.76948C-0.101361 1.36422 -0.101361 0.708971 0.304082 0.303709C0.506044 0.101553 0.771594 0 1.03695 0C1.30231 0 1.56767 0.101553 1.76983 0.303709L7.9999 6.53411L14.2302 0.303709C14.4323 0.101553 14.6977 0 14.963 0C15.2284 0 15.4938 0.101553 15.6959 0.303709C16.1014 0.708971 16.1014 1.36422 15.6959 1.76948L9.46584 7.99988Z" fill="white"/>
</svg>
