<svg width="14" height="13" viewBox="0 0 14 13" fill="none" xmlns="http://www.w3.org/2000/svg">
<path d="M6.84697 0.691278L5.09183 4.24951L1.16556 4.82012C1.05732 4.83558 0.958348 4.88661 0.882575 4.96393M6.84697 0.691278L7.22883 0.882203L5.47471 4.43836L5.37539 4.6397L5.15323 4.67199L1.22696 5.2426L1.22594 5.24275C1.2126 5.24466 1.19929 5.25095 1.18804 5.26219M6.84697 0.691278C6.96914 0.446949 7.26604 0.346434 7.51037 0.467052L6.84697 0.691278ZM1.18804 5.26219C1.18822 5.26201 1.18839 5.26183 1.18857 5.26164L0.882575 4.96393M1.18804 5.26219C1.18786 5.26238 1.18767 5.26256 1.18749 5.26275L0.882575 4.96393M1.18804 5.26219C1.17568 5.27518 1.16888 5.2925 1.16912 5.31046C1.16936 5.32866 1.17682 5.34603 1.18985 5.35874L1.18988 5.35876L4.03059 8.12833L4.19129 8.28502L4.15333 8.50623L3.4822 12.417L3.4821 12.4176C3.47996 12.43 3.48133 12.4427 3.48605 12.4543C3.49077 12.4659 3.49866 12.476 3.50881 12.4834C3.51896 12.4907 3.53098 12.4951 3.54349 12.496C3.55601 12.4969 3.56852 12.4943 3.57962 12.4884L3.58028 12.4881L7.09211 10.6417L7.29079 10.5372L7.48946 10.6417L11.0013 12.4881L11.0032 12.4891C11.0135 12.4945 11.0283 12.4975 11.0434 12.4948L11.044 12.4947C11.0818 12.4882 11.1056 12.453 11.0994 12.4174L11.0994 12.417L10.4282 8.50623L10.3903 8.28502L10.551 8.12833L13.3909 5.35953C13.391 5.35946 13.3911 5.35938 13.3911 5.35931C13.4026 5.348 13.409 5.33455 13.4109 5.32108L13.4116 5.31636L13.4116 5.31636C13.4165 5.28474 13.3949 5.24876 13.3536 5.24246C13.3535 5.24244 13.3534 5.24242 13.3533 5.24241L9.42834 4.67199L9.20618 4.6397L9.10687 4.43836L7.35172 0.880137L7.35154 0.879767C7.34521 0.866898 7.33475 0.856444 7.32188 0.850112L7.32139 0.849868C7.2892 0.833976 7.24703 0.846575 7.22912 0.88163L0.891853 5.66445C0.797787 5.57275 0.743971 5.44746 0.742231 5.31611C0.740491 5.18476 0.79097 5.05809 0.882575 4.96393" stroke="url(#paint0_linear_260_9778)" stroke-width="0.853846"/>
<defs>
<linearGradient id="paint0_linear_260_9778" x1="0.742188" y1="6.66956" x2="13.8393" y2="6.66956" gradientUnits="userSpaceOnUse">
<stop stop-color="#1DA1F2"/>
<stop offset="1" stop-color="#009FFC"/>
</linearGradient>
</defs>
</svg>
