<svg width="40" height="40" viewBox="0 0 40 40" fill="none" xmlns="http://www.w3.org/2000/svg">
<circle cx="19.9261" cy="19.8622" r="16.5511" fill="#E014D9"/>
<path d="M19.9229 11.7205C22.5745 11.7205 22.8886 11.7306 23.9357 11.7784C24.9039 11.8225 25.4298 11.9843 25.7797 12.1203C26.2432 12.3004 26.574 12.5156 26.9215 12.8631C27.2691 13.2106 27.4842 13.5414 27.6644 14.005C27.8004 14.3549 27.9622 14.8807 28.0063 15.849C28.0541 16.8961 28.0642 17.2102 28.0642 19.8618C28.0642 22.5134 28.0541 22.8275 28.0063 23.8746C27.9622 24.8429 27.8004 25.3687 27.6644 25.7186C27.4842 26.1821 27.2691 26.5129 26.9216 26.8604C26.574 27.208 26.2432 27.4231 25.7797 27.6033C25.4298 27.7393 24.9039 27.9011 23.9357 27.9452C22.8887 27.993 22.5747 28.0031 19.9229 28.0031C17.2711 28.0031 16.957 27.993 15.91 27.9452C14.9418 27.9011 14.416 27.7393 14.066 27.6033C13.6025 27.4231 13.2717 27.208 12.9242 26.8604C12.5767 26.5129 12.3615 26.1821 12.1813 25.7186C12.0453 25.3687 11.8836 24.8429 11.8394 23.8746C11.7916 22.8275 11.7815 22.5134 11.7815 19.8618C11.7815 17.2102 11.7916 16.8961 11.8394 15.849C11.8836 14.8807 12.0453 14.3549 12.1813 14.005C12.3615 13.5414 12.5767 13.2106 12.9242 12.8632C13.2717 12.5156 13.6025 12.3004 14.066 12.1203C14.416 11.9843 14.9418 11.8225 15.91 11.7784C16.9572 11.7306 17.2713 11.7205 19.9229 11.7205ZM19.9229 9.93115C17.2259 9.93115 16.8877 9.94258 15.8285 9.99091C14.7715 10.0391 14.0496 10.207 13.4179 10.4525C12.7649 10.7063 12.2111 11.0458 11.6589 11.5979C11.1069 12.15 10.7673 12.7038 10.5136 13.3568C10.268 13.9885 10.1002 14.7104 10.0519 15.7674C10.0036 16.8266 9.99219 17.1648 9.99219 19.8618C9.99219 22.5588 10.0036 22.897 10.0519 23.9562C10.1002 25.0132 10.268 25.7351 10.5136 26.3667C10.7673 27.0198 11.1069 27.5736 11.6589 28.1257C12.2111 28.6778 12.7649 29.0173 13.4179 29.2711C14.0496 29.5166 14.7715 29.6845 15.8285 29.7327C16.8877 29.781 17.2259 29.7924 19.9229 29.7924C22.6199 29.7924 22.9581 29.781 24.0173 29.7327C25.0743 29.6845 25.7962 29.5166 26.4278 29.2711C27.0809 29.0173 27.6347 28.6778 28.1868 28.1257C28.7389 27.5736 29.0784 27.0198 29.3322 26.3667C29.5777 25.7351 29.7456 25.0132 29.7938 23.9562C29.8421 22.897 29.8535 22.5588 29.8535 19.8618C29.8535 17.1648 29.8421 16.8266 29.7938 15.7674C29.7456 14.7104 29.5777 13.9885 29.3322 13.3568C29.0784 12.7038 28.7389 12.15 28.1868 11.5979C27.6347 11.0458 27.0809 10.7063 26.4278 10.4525C25.7962 10.207 25.0743 10.0391 24.0173 9.99091C22.9581 9.94258 22.6199 9.93115 19.9229 9.93115Z" fill="white"/>
<path d="M19.9277 14.7666C17.1112 14.7666 14.8281 17.0497 14.8281 19.8661C14.8281 22.6825 17.1112 24.9656 19.9277 24.9656C22.7441 24.9656 25.0272 22.6825 25.0272 19.8661C25.0272 17.0497 22.7441 14.7666 19.9277 14.7666ZM19.9277 23.1763C18.0995 23.1763 16.6174 21.6943 16.6174 19.8661C16.6174 18.0379 18.0995 16.5559 19.9277 16.5559C21.7559 16.5559 23.2379 18.0379 23.2379 19.8661C23.2379 21.6943 21.7559 23.1763 19.9277 23.1763Z" fill="white"/>
<path d="M26.4224 14.5628C26.4224 15.2209 25.8889 15.7545 25.2307 15.7545C24.5726 15.7545 24.0391 15.2209 24.0391 14.5628C24.0391 13.9046 24.5726 13.3711 25.2307 13.3711C25.8889 13.3711 26.4224 13.9046 26.4224 14.5628Z" fill="white"/>
</svg>
