<svg width="26px" height="26px" viewBox="0 0 26 26" version="1.1" xmlns="http://www.w3.org/2000/svg" xmlns:xlink="http://www.w3.org/1999/xlink">
    <g id="Page-1" stroke="none" stroke-width="1" fill="none" fill-rule="evenodd">
        <g id="adv-1-1-main-page-ver-2-copy-3" transform="translate(-65.000000, -18.000000)">
            <g id="Group-12" transform="translate(65.000000, 15.000000)">
                <g id="logotype-copy" transform="translate(0.000000, 3.000000)">
                    <g id="Group" transform="translate(0.000000, 3.301587)">
                        <g id="Group-2">
                            <path d="M24.2356486,11.4723038 L19.1298191,11.4723038 L17.4447301,7.41902314 L25.9352307,7.41902314 L24.2356486,11.4723038 Z M25.1343308,13.5681234 L23.1854323,17.621404 L21.4496282,17.621404 L19.5167095,13.5681234 L25.1343308,13.5681234 Z M16.5163457,13.5681234 L18.2467866,17.6452442 L3.20822622,17.6452442 L1.40359897,13.5681234 L16.5163457,13.5681234 Z M1.0658141e-14,7.48586118 L13.1411625,7.48586118 L11.4354423,11.5391418 L1.77805581,11.5391418 L1.0658141e-14,7.48586118 Z" id="Combined-Shape" fill="#00B27A"></path>
                            <path d="M11.4042242,11.5475152 L10.6296846,13.5741555 L5.92873981,13.5741555 L6.73171256,11.5475152 L11.4042242,11.5475152 Z M3.9681007,17.666846 L9.0578941,17.666846 L6.9669223,22.3210355 L1.80462725,22.3210355 L3.9681007,17.666846 Z M11.184923,-7.10542736e-15 L14.9248997,-7.10542736e-15 L24.4172492,22.2930435 L19.2356404,22.2930435 L13.1384309,7.50107871 L7.99079609,7.50107871 L11.184923,-7.10542736e-15 Z" id="Combined-Shape-Copy" fill="#113644"></path>
                        </g>
                    </g>
                </g>
            </g>
        </g>
    </g>
</svg>