<svg width="24" height="24" viewBox="0 0 24 24" fill="none" xmlns="http://www.w3.org/2000/svg">
<path d="M12 0C5.38402 0 0 5.38298 0 12C0 18.617 5.38402 24 12 24C18.617 24 24 18.617 24 12C24 5.38298 18.617 0 12 0ZM12 22C6.486 22 2.00002 17.514 2.00002 12C2.00002 6.486 6.486 2.00002 12 2.00002C17.515 2.00002 22 6.486 22 12C22 17.514 17.515 22 12 22Z" fill="#009432"/>
<path d="M8.66602 11.3346V12.6676C8.66602 13.7706 9.564 14.6676 10.666 14.6676H12.666V13.3346H10.666C10.299 13.3346 10 13.0346 10 12.6676H12V11.3346H9.99998C9.99998 10.9666 10.299 10.6676 10.666 10.6676H12.666V9.33464H10.666C9.564 9.33459 8.66602 10.2306 8.66602 11.3346Z" fill="#009432"/>
<path d="M6.66599 11.8018L5.22097 9.63383C5.05898 9.38783 4.75396 9.27781 4.47398 9.36383C4.19198 9.44881 3.99998 9.70681 3.99998 10.0008V14.6688H5.33399V12.2038L6.779 14.3718C6.90402 14.5598 7.115 14.6678 7.334 14.6678C7.397 14.6678 7.463 14.6588 7.52502 14.6398C7.80702 14.5549 8 14.2958 8 14.0008V9.33584H6.66599V11.8018Z" fill="#009432"/>
<path d="M18.629 9.33365L17.99 11.9346L17.334 9.33365H15.962L15.324 11.9346L14.666 9.33365H13.334L14.643 14.6666H16.014L16 14.6136L16.657 12.0106L17.309 14.6666H18.681L18.666 14.6136L20 9.33365H18.629Z" fill="#009432"/>
</svg>
