<svg width="22" height="22" viewBox="0 0 22 22" fill="none" xmlns="http://www.w3.org/2000/svg">
<path d="M13.4099 7.14627C12.4664 7.14627 11.6134 7.53854 11.0005 8.1669C10.3875 7.53854 9.53457 7.14627 8.59106 7.14627C6.731 7.14627 5.21785 8.65937 5.21785 10.5195V15.8202L16.7831 15.8202V10.5195C16.7831 8.65942 15.2699 7.14627 13.4099 7.14627ZM10.0367 13.8927H7.14536V10.5195C7.14536 9.72243 7.79396 9.07383 8.59101 9.07383C9.38806 9.07383 10.0367 9.72243 10.0367 10.5195V13.8927ZM14.8555 13.8927H11.9642V10.5195C11.9642 9.72243 12.6128 9.07383 13.4099 9.07383C14.2069 9.07383 14.8555 9.72243 14.8555 10.5195V13.8927Z" fill="#595959"/>
<path d="M3.57271 7.42963L0 11.0023L3.57271 14.575L4.93547 13.2123L2.72556 11.0023L4.93547 8.79239L3.57271 7.42963Z" fill="#595959"/>
<path d="M11.0005 2.72556L13.2104 4.93547L14.5731 3.57271L11.0005 0L7.42776 3.57271L8.79052 4.93547L11.0005 2.72556Z" fill="#595959"/>
<path d="M11.0005 19.2745L8.79052 17.0645L7.42776 18.4273L11.0005 22L14.5731 18.4273L13.2104 17.0645L11.0005 19.2745Z" fill="#595959"/>
<path d="M18.4282 7.42963L17.0654 8.79239L19.2754 11.0023L17.0654 13.2123L18.4282 14.575L22.0009 11.0023L18.4282 7.42963Z" fill="#595959"/>
</svg>
