<svg width="20" height="20" viewBox="0 0 20 20" fill="none" xmlns="http://www.w3.org/2000/svg">
<path d="M2.00001 2.00001H8.00001V0H2.00001C0.896999 0 0 0.896999 0 2.00001V8.00001H2.00001V2.00001Z" fill="#009432"/>
<path d="M18 0H12V2.00001H18V8.00001H20V2.00001C20 0.896999 19.103 0 18 0Z" fill="#009432"/>
<path d="M2.00001 12H0V18C0 19.103 0.896999 20 2.00001 20H8.00001V18H2.00001V12Z" fill="#009432"/>
<path d="M18 18H12V20H18C19.103 20 20 19.103 20 18V12H18V18Z" fill="#009432"/>
<path d="M9.99998 4.00091C7.794 4.00091 6 5.7949 6 8.00089V9.00092H5.00002V16.0009H15V9.00092H14V8.00093C14 5.7949 12.206 4.00091 9.99998 4.00091ZM8.00002 8.00093C8.00002 6.89895 8.89702 6.00092 10 6.00092C11.103 6.00092 12 6.8989 12 8.00093V9.00092H8.00002V8.00093ZM13 14.0009H6.99999V11.0009H13V14.0009Z" fill="#009432"/>
</svg>
