<svg width="24" height="20" viewBox="0 0 24 20" fill="none" xmlns="http://www.w3.org/2000/svg">
<path d="M9.62956 6.14904L8.83156 4.27281C6.32455 5.3879 4.56557 7.702 4.12757 10.4642L6.10255 10.7916C6.42557 8.75163 7.77758 6.97362 9.62956 6.14904Z" fill="#C21E37"/>
<path d="M15.1052 4.27281L14.3072 6.14904C16.1592 6.97362 17.5112 8.75163 17.8342 10.7916L19.8092 10.4642C19.3712 7.70301 17.6122 5.3879 15.1052 4.27281Z" fill="#C21E37"/>
<path d="M15.2727 0.000347327L14.7277 1.96864C19.0087 3.20855 21.9997 7.25768 21.9997 11.8143H23.9998C23.9998 6.34621 20.4108 1.48885 15.2727 0.000347327Z" fill="#C21E37"/>
<path d="M9.27098 1.96829L8.727 0C3.588 1.48745 0 6.34375 0 11.8128H2.00002C2.00002 7.25526 4.98998 3.20714 9.27098 1.96829Z" fill="#C21E37"/>
<path d="M12 20C13.104 20 14 19.0834 14 17.9539H10C10 19.0834 10.896 20 12 20Z" fill="#C21E37"/>
<path d="M16 13.0629V11.4997C16 9.48848 14.131 7.7227 12 7.7227C9.86902 7.7227 8.00002 9.48843 8.00002 11.5007V13.0639C8.00002 13.5202 7.37302 14.1504 6.68302 14.3867L6 14.6199V16.93H18V14.6199L17.317 14.3857C16.627 14.1504 16 13.5192 16 13.0629ZM9.339 14.8839C9.741 14.3591 9.99998 13.7381 9.99998 13.0629V11.4997C9.99998 10.6261 10.991 9.76878 12 9.76878C13.009 9.76878 14 10.6261 14 11.5007V13.0639C14 13.7381 14.259 14.3591 14.661 14.8839H9.339Z" fill="#C21E37"/>
</svg>
