<svg width="20" height="20" viewBox="0 0 20 20" fill="none" xmlns="http://www.w3.org/2000/svg">
<path d="M9.99998 0C4.48598 0 0 4.48701 0 9.99998C0 15.515 4.48598 20 9.99998 20C15.514 20 20 15.515 20 9.99998C20 4.48598 15.514 0 9.99998 0ZM9.99998 18C5.589 18 1.99997 14.411 1.99997 9.99998C1.99997 5.58895 5.589 2.00001 9.99998 2.00001C14.411 2.00001 18 5.589 18 9.99998C18 14.411 14.411 18 9.99998 18Z" fill="#595959"/>
<path d="M11.0009 8.99908C11.0009 8.44708 10.5539 7.99909 10.0009 7.99909H8.00093V9.99911H9.00091V12.9991H7.0009V14.9991H13.0009V12.9991H11.0009L11.0009 8.99908Z" fill="#595959"/>
<path d="M9.99997 7.25093C10.6903 7.25093 11.25 6.69128 11.25 6.00092C11.25 5.31055 10.6903 4.7509 9.99997 4.7509C9.3096 4.7509 8.74995 5.31055 8.74995 6.00092C8.74995 6.69128 9.3096 7.25093 9.99997 7.25093Z" fill="#595959"/>
</svg>
