<svg width="20" height="20" viewBox="0 0 20 20" fill="none" xmlns="http://www.w3.org/2000/svg">
<path d="M9.99998 0C4.48598 0 0 4.48701 0 9.99998C0 15.515 4.48598 20 9.99998 20C15.514 20 20 15.515 20 9.99998C20 4.48598 15.514 0 9.99998 0ZM9.99998 18C5.589 18 1.99997 14.411 1.99997 9.99998C1.99997 5.58895 5.589 2.00001 9.99998 2.00001C14.411 2.00001 18 5.589 18 9.99998C18 14.411 14.411 18 9.99998 18Z" fill="#595959"/>
<path d="M9.99998 3.99997C7.79498 3.99997 6 5.79496 6 7.99996H8.00001C8.00001 6.89596 8.89602 5.99994 10 5.99994C11.104 5.99994 12 6.896 12 8C12 9.10302 11.104 10 9.99998 10H8.99999V13H11V11.875C12.723 11.428 14 9.86 14 8C14 5.795 12.205 3.99997 9.99998 3.99997Z" fill="#595959"/>
<path d="M10.0018 16.25C10.6922 16.25 11.2518 15.6904 11.2518 15C11.2518 14.3096 10.6922 13.75 10.0018 13.75C9.31146 13.75 8.75181 14.3096 8.75181 15C8.75181 15.6904 9.31146 16.25 10.0018 16.25Z" fill="#595959"/>
</svg>
