<?xml version="1.0" encoding="iso-8859-1"?>
<!-- Generator: Adobe Illustrator 19.0.0, SVG Export Plug-In . SVG Version: 6.00 Build 0)  -->
<svg version="1.1" id="Layer_1" xmlns="http://www.w3.org/2000/svg" xmlns:xlink="http://www.w3.org/1999/xlink" x="0px" y="0px"
	 viewBox="0 0 512 512" style="enable-background:new 0 0 512 512;" xml:space="preserve">
<g>
	<g>
		<g>
			<path d="M469.333,469.323V191.989c0-11.755-9.536-21.333-21.333-21.333h-85.333c-11.797,0-21.333,9.579-21.333,21.333v277.333
				H320v-192c0-11.755-9.536-21.333-21.333-21.333h-85.333c-11.797,0-21.333,9.579-21.333,21.333v192h-21.333V362.656
				c0-11.755-9.536-21.333-21.333-21.333H64c-11.797,0-21.333,9.579-21.333,21.333v106.667H0v42.667h512v-42.667H469.333z
				 M128,469.323H85.333v-85.333H128V469.323z M277.333,469.323h-42.667V298.656h42.667V469.323z M426.667,469.323H384v-256h42.667
				V469.323z"/>
			<polygon points="79.083,313.739 320,72.843 320,128.011 362.667,128.011 362.667,0.011 234.667,0.011 234.667,42.677 
				289.835,42.677 48.917,283.573 			"/>
		</g>
	</g>
</g>
<g>
</g>
<g>
</g>
<g>
</g>
<g>
</g>
<g>
</g>
<g>
</g>
<g>
</g>
<g>
</g>
<g>
</g>
<g>
</g>
<g>
</g>
<g>
</g>
<g>
</g>
<g>
</g>
<g>
</g>
</svg>
