<svg width="62" height="62" viewBox="0 0 62 62" fill="none" xmlns="http://www.w3.org/2000/svg">
<path d="M21 39H23V41H21V39Z" fill="#222222"/>
<path d="M21 43H23V45H21V43Z" fill="#222222"/>
<path d="M49 51H45C44.4492 51 44 50.5518 44 50H42C42 51.6538 43.3462 53 45 53H46V54H48V53H49C50.6538 53 52 51.6538 52 50V49C52 47.3462 50.6538 46 49 46H45C44.4492 46 44 45.5518 44 45V44C44 43.4482 44.4492 43 45 43H49C49.5508 43 50 43.4482 50 44H52C52 42.3462 50.6538 41 49 41H48V40H46V41H45C43.3462 41 42 42.3462 42 44V45C42 46.6538 43.3462 48 45 48H49C49.5508 48 50 48.4482 50 49V50C50 50.5518 49.5508 51 49 51Z" fill="#222222"/>
<path d="M47 56C42.0381 56 38 51.9629 38 47C38 44.9302 38.7222 42.9072 40.0322 41.3071L38.4839 40.0391C36.8818 41.9971 36 44.4692 36 47C36 53.0649 40.9351 58 47 58C49.5308 58 52.0029 57.1172 53.9609 55.5151L52.6938 53.9678C51.0928 55.2778 49.0698 56 47 56Z" fill="#222222"/>
<path d="M47 36C44.4692 36 41.9971 36.8828 40.0391 38.4849L41.3062 40.0322C42.9072 38.7222 44.9302 38 47 38C51.9619 38 56 42.0371 56 47C56 49.0698 55.2778 51.0928 53.9678 52.6929L55.5161 53.9609C57.1182 52.0029 58 49.5308 58 47C58 40.9351 53.0649 36 47 36Z" fill="#222222"/>
<path d="M47 32C42.6519 32 38.7422 33.8711 36 36.8359V36.7729C36 33.4941 33.769 30.689 30.5742 29.9521L23 28.2041V26.2349C24.0688 25.376 24.9111 24.248 25.4282 22.9551C26.6748 22.8462 27.8521 22.2959 28.7012 21.3628C29.5371 20.4438 29.9702 19.2378 29.9731 18H30V12C30 5.38281 24.6172 0 18 0C11.3828 0 6 5.38281 6 12V18H6.02783C6.03076 19.2388 6.46484 20.4438 7.2998 21.3628C8.14795 22.2959 9.32617 22.8462 10.5732 22.9551C11.0889 24.248 11.9312 25.376 13.001 26.2349V28.2041L5.42676 29.9521C2.23096 30.689 0 33.4941 0 36.7729V50H32.3018C33.6958 56.8389 39.7559 62 47 62C55.271 62 62 55.271 62 47C62 38.729 55.271 32 47 32ZM13.772 30.0791L16.21 31.9072L13.7451 33.3862L13.2148 30.207L13.772 30.0791ZM22.228 30.0791L22.9321 30.2422L22.2979 33.4121L19.79 31.9072L22.228 30.0791ZM27.2202 20.0181C26.875 20.3979 26.4351 20.6641 25.957 20.8262C25.9849 20.5542 26 20.2788 26 20V15.2148C27.0762 15.623 27.8779 16.5708 27.9858 17.7021C28.0679 18.562 27.7959 19.3848 27.2202 20.0181ZM18 2C23.5142 2 28 6.48584 28 12V14.085C27.1152 13.415 26.0161 13 24.8281 13H22.8281C21.271 13 19.8071 12.394 18.7061 11.293L18 10.5859L17.293 11.293C16.1919 12.394 14.728 13 13.1709 13H11.1709C9.98389 13 8.88477 13.415 8 14.085V12C8 6.48584 12.4858 2 18 2ZM8.77979 20.0181C8.2041 19.3848 7.93213 18.563 8.01416 17.7031C8.12207 16.5718 8.92383 15.624 10 15.2158V20C10 20.2788 10.0151 20.5542 10.043 20.8262C9.56494 20.6641 9.125 20.397 8.77979 20.0181ZM12 20V15H13.1709C14.9438 15 16.627 14.4141 18 13.335C19.373 14.4141 21.0562 15 22.8291 15H24V20C24 23.3091 21.3091 26 18 26C14.6909 26 12 23.3091 12 20ZM18 28C19.061 28 20.0732 27.7881 21 27.4111V28.5L18 30.75L15 28.5V27.4111C15.9268 27.7881 16.939 28 18 28ZM2 36.7729C2 34.4302 3.59424 32.4268 5.87598 31.9009L11.2632 30.6582L12.2549 36.6128L17 33.7661V48H9V37H7V48H2V36.7729ZM29 48V37H27V48H19V33.7661L23.7021 36.5879L24.8809 30.6919L30.124 31.9019C32.4058 32.4282 34 34.4312 34 36.7729V39.5479C32.7349 41.7461 32 44.2861 32 47C32 47.3379 32.0288 47.668 32.0508 48H29ZM47 60C39.832 60 34 54.168 34 47C34 39.832 39.832 34 47 34C54.168 34 60 39.832 60 47C60 54.168 54.168 60 47 60Z" fill="#222222"/>
<path d="M35 28H62V30H35V28Z" fill="#222222"/>
<path d="M33 26C34.3018 26 35.4019 25.1611 35.8159 24H39.3062C40.7788 24 42.0229 22.9458 42.2651 21.4932L43.709 12.8291C43.7891 12.3491 44.2002 12 44.687 12C45.084 12 45.4409 12.2349 45.5981 12.6011L46.9712 15.8042C46.3779 16.3521 46 17.1299 46 18C46 19.6538 47.3462 21 49 21C49.0649 21 49.126 20.9849 49.1899 20.981L50.373 23.7432C50.9609 25.1138 52.3052 26 53.7969 26C55.542 26 57.0742 24.7622 57.4399 23.0562L59.6079 12.938C60.9722 12.6558 62 11.4458 62 10C62 8.34619 60.6538 7 59 7C57.3462 7 56 8.34619 56 10C56 11.1558 56.6641 12.1489 57.623 12.6499L55.4829 22.6372C55.314 23.4268 54.605 24 53.7969 24C53.106 24 52.4839 23.5898 52.2119 22.9551L51.0298 20.1948C51.6221 19.647 52 18.8701 52 18C52 16.3462 50.6538 15 49 15C48.9351 15 48.874 15.0151 48.8101 15.019L47.436 11.813C46.9648 10.7119 45.8862 10 44.687 10C43.2192 10 41.978 11.0508 41.7358 12.5L40.292 21.165C40.2109 21.6479 39.7959 22 39.3062 22H35.8159C35.4019 20.8389 34.3018 20 33 20C31.3462 20 30 21.3462 30 23C30 24.6538 31.3462 26 33 26ZM59 9C59.5508 9 60 9.44824 60 10C60 10.5518 59.5508 11 59 11C58.4492 11 58 10.5518 58 10C58 9.44824 58.4492 9 59 9ZM50 18C50 18.5518 49.5508 19 49 19C48.4492 19 48 18.5518 48 18C48 17.4482 48.4492 17 49 17C49.5508 17 50 17.4482 50 18ZM33 22C33.5508 22 34 22.4482 34 23C34 23.5518 33.5508 24 33 24C32.4492 24 32 23.5518 32 23C32 22.4482 32.4492 22 33 22Z" fill="#222222"/>
</svg>
