<svg width="24" height="24" viewBox="0 0 24 24" fill="none" xmlns="http://www.w3.org/2000/svg">
<path d="M11 6.12554V5.0616H9V6.07391H6.99998V14.1725H9V15.1848H11V14.1218C12.14 13.8859 13 12.8635 13 11.6416C13 11.0697 12.805 10.5473 12.487 10.1232C12.805 9.70003 13 9.17767 13 8.60469C13 7.38283 12.14 6.36038 11 6.12554ZM10.5 12.1478H9V11.1355H10.5C10.776 11.1355 11 11.3633 11 11.6417C11 11.921 10.776 12.1478 10.5 12.1478ZM10.5 9.11086H9V8.09856H10.5C10.776 8.09856 11 8.32633 11 8.60473C11 8.88409 10.776 9.11086 10.5 9.11086Z" fill="#009432"/>
<path d="M9.06 18.161C5.091 17.6882 2.00002 14.2666 2.00002 10.1232C2.00002 5.65784 5.589 2.0246 10 2.0246C14.4111 2.0246 18 5.65784 18 10.1232C18 10.4673 17.972 10.8034 17.931 11.1355H19.95C19.982 10.8024 20 10.4653 20 10.1232C20 4.54124 15.514 0 10 0C4.48603 0 0 4.54124 0 10.1232C0 14.7809 3.12698 18.7026 7.36402 19.8779L9.06 18.161Z" fill="#009432"/>
<path d="M18 13.1601V15.1848H20.586L17 18.8149L14.707 16.4947C14.316 16.0989 13.684 16.0989 13.293 16.4947L7.29305 22.5686L8.70703 24L14 18.6418L16.293 20.963C16.684 21.3579 17.316 21.3579 17.707 20.963L22 16.6172V19.234H24V13.1601H18Z" fill="#009432"/>
</svg>
