<svg width="61" height="62" viewBox="0 0 61 62" fill="none" xmlns="http://www.w3.org/2000/svg">
<path d="M31 38V37H32C33.6538 37 35 35.6538 35 34V33C35 31.3462 33.6538 30 32 30H28C27.4482 30 27 29.5518 27 29V28C27 27.4482 27.4482 27 28 27H32C32.5518 27 33 27.4482 33 28H35C35 26.3462 33.6538 25 32 25H31V24H29V25H28C26.3462 25 25 26.3462 25 28V29C25 30.6538 26.3462 32 28 32H32C32.5518 32 33 32.4482 33 33V34C33 34.5518 32.5518 35 32 35H28C27.4482 35 27 34.5518 27 34H25C25 35.6538 26.3462 37 28 37H29V38H31Z" fill="white"/>
<path d="M4.08887 28.9219L4.00391 30H21.019L21.1821 29.1992C21.9009 25.6548 24.6558 22.8999 28.2002 22.1812L29 22.019V5.00488L27.9209 5.08984C24.042 5.39697 20.314 6.5791 16.9741 8.51807C16.9878 8.34717 17 8.1748 17 8V6C17 2.69092 14.3091 0 11 0C7.69092 0 5 2.69092 5 6V8C5 9.771 5.77588 11.3599 7 12.46V13.2471L2.90088 14.417C1.19287 14.9038 0 16.4858 0 18.2632V26H4.50879C4.31982 26.9692 4.16602 27.9438 4.08887 28.9219ZM6.19189 28C6.27588 27.3291 6.39893 26.6631 6.53906 26H20.2212C19.897 26.6362 19.6128 27.2969 19.415 28H6.19189ZM27 7.19287V20.415C25.0518 20.9639 23.3418 22.0371 22 23.4619V18.2632C22 16.4868 20.8071 14.9048 19.0991 14.416L15 13.2461V12.46C15.2412 12.2432 15.4668 12.0112 15.6709 11.7578C19.001 9.2749 22.895 7.70605 27 7.19287ZM11 15C9.93701 15 9.24805 14.1069 9 13.7241V13.6499C9.62695 13.873 10.2979 14 11 14C11.7021 14 12.373 13.8721 13 13.6499V13.7241C12.752 14.1069 12.063 15 11 15ZM7 6C7 3.79395 8.79395 2 11 2C13.2061 2 15 3.79395 15 6V8C15 10.2061 13.2061 12 11 12C8.79395 12 7 10.2061 7 8V6ZM2 18.2632C2 17.374 2.59717 16.584 3.4502 16.3398L7.56982 15.1631C8.1499 15.9189 9.27881 17 11 17C12.7212 17 13.8501 15.9189 14.4302 15.1621L18.5498 16.3389C19.4038 16.583 20 17.373 20 18.2622V24H2V18.2632Z" fill="white"/>
<path d="M21.1821 32.8008L21.019 32H4.00391L4.08887 33.0791C5.10303 45.873 15.125 55.896 27.9209 56.9102L29 56.9951V39.981L28.1992 39.8179C24.6548 39.1001 21.8999 36.3452 21.1821 32.8008ZM27 54.8071C16.0649 53.4551 7.54297 44.9331 6.19189 34H19.415C20.4512 37.6802 23.3198 40.5488 27 41.585V54.8071Z" fill="white"/>
<path d="M38.8179 29.1992L38.981 30H55.9961L55.9111 28.9209C55.833 27.939 55.6792 26.9648 55.4912 26H60V18.2632C60 16.4868 58.8071 14.9048 57.0991 14.416L53 13.2461V12.46C54.2241 11.3608 55 9.77197 55 8V6C55 2.69092 52.3091 0 49 0C45.6909 0 43 2.69092 43 6V8C43 8.1748 43.0112 8.34717 43.0259 8.51807C39.686 6.58008 35.958 5.39697 32.0791 5.08887L31 5.00488V22.019L31.8008 22.1821C35.3452 22.8999 38.1001 25.6548 38.8179 29.1992ZM53.8081 28H40.585C40.3872 27.2969 40.103 26.6362 39.7788 26H53.4609C53.6011 26.6602 53.7231 27.3262 53.8081 28ZM56.5498 16.3398C57.4038 16.584 58 17.374 58 18.2632V24H40V18.2632C40 17.374 40.5972 16.584 41.4502 16.3398L45.5698 15.1631C46.1499 15.9189 47.2788 17 49 17C50.7212 17 51.8501 15.9189 52.4302 15.1621L56.5498 16.3398ZM51 13.7241C50.752 14.1069 50.063 15 49 15C47.937 15 47.248 14.1069 47 13.7241V13.6499C47.627 13.873 48.2979 14 49 14C49.7021 14 50.373 13.8721 51 13.6499V13.7241ZM45 6C45 3.79395 46.7939 2 49 2C51.2061 2 53 3.79395 53 6V8C53 10.2061 51.2061 12 49 12C46.7939 12 45 10.2061 45 8V6ZM33 7.19287C37.1069 7.70605 41 9.2749 44.3311 11.7588C44.5342 12.0112 44.7598 12.2432 45 12.459V13.2461L40.9009 14.416C39.1929 14.9038 38 16.4858 38 18.2632V23.4619C36.6582 22.0371 34.9482 20.9639 33 20.415V7.19287Z" fill="white"/>
<path d="M13 42H15V44H13V42Z" fill="white"/>
<path d="M17 42H19V44H17V42Z" fill="white"/>
<path d="M21 42H23V44H21V42Z" fill="white"/>
<path d="M17 46H19V48H17V46Z" fill="white"/>
<path d="M21 46H23V48H21V46Z" fill="white"/>
<path d="M58.0991 50.416L54 49.2461V48.46C55.2241 47.3608 56 45.772 56 44V42C56 40.7021 55.5811 39.502 54.8779 38.519C55.4121 36.75 55.7651 34.9248 55.9111 33.0781L55.9961 32H38.981L38.8179 32.8008C38.0991 36.3452 35.3442 39.1001 31.7998 39.8188L31 39.981V56.9951L32.0791 56.9102C34.459 56.7212 36.7759 56.1929 39 55.3721V62H61V54.2632C61 52.4858 59.8071 50.9038 58.0991 50.416ZM50 51C48.937 51 48.248 50.1069 48 49.7241V49.6499C48.627 49.873 49.2979 50 50 50C50.7021 50 51.373 49.8721 52 49.6499V49.7241C51.752 50.1069 51.063 51 50 51ZM54 44C54 46.2061 52.2061 48 50 48C47.7939 48 46 46.2061 46 44V42C46 39.7939 47.7939 38 50 38C52.2061 38 54 39.7939 54 42V44ZM33 41.585C36.6802 40.5488 39.5488 37.6802 40.585 34H53.8081C53.6831 34.9961 53.4741 35.9771 53.2261 36.9492C52.293 36.3511 51.188 36 50 36C46.6909 36 44 38.6909 44 42V44C44 45.771 44.7759 47.3599 46 48.46V49.2471L41.9009 50.417C40.5571 50.8008 39.542 51.8662 39.166 53.166C37.1899 53.9849 35.124 54.543 32.999 54.8081L33 41.585ZM59 60H41V54.2632C41 53.374 41.5972 52.584 42.4502 52.3398L46.5698 51.1631C47.1499 51.9189 48.2788 53 50 53C51.7212 53 52.8501 51.9189 53.4302 51.1621L57.5498 52.3389C58.4038 52.583 59 53.373 59 54.2622V60Z" fill="white"/>
</svg>
