<svg width="62" height="62" viewBox="0 0 62 62" fill="none" xmlns="http://www.w3.org/2000/svg">
<path d="M26 13C26 5.83203 20.168 0 13 0C5.83203 0 0 5.83203 0 13C0 20.168 5.83203 26 13 26C20.168 26 26 20.168 26 13ZM2 13C2 6.93506 6.93506 2 13 2C19.0649 2 24 6.93506 24 13C24 19.0649 19.0649 24 13 24C6.93506 24 2 19.0649 2 13Z" fill="#009432"/>
<path d="M13 10C13.5508 10 14 10.4492 14 11H16C16 9.69824 15.1611 8.59814 14 8.18408V7H12V8.18408C10.8389 8.59814 10 9.69824 10 11C10 12.6538 11.3462 14 13 14C13.5508 14 14 14.4492 14 15C14 15.5508 13.5508 16 13 16C12.4492 16 12 15.5508 12 15H10C10 16.3018 10.8389 17.4019 12 17.8159V19H14V17.8159C15.1611 17.4019 16 16.3018 16 15C16 13.3462 14.6538 12 13 12C12.4492 12 12 11.5508 12 11C12 10.4492 12.4492 10 13 10Z" fill="#009432"/>
<path d="M13 6C16.8599 6 20 9.14014 20 13C20 14.562 19.4902 16.0449 18.5249 17.2871L20.104 18.5142C21.3442 16.917 22 15.0112 22 13C22 8.03809 17.9619 4 13 4C10.9888 4 9.08301 4.65576 7.48584 5.896L8.71289 7.4751C9.95508 6.50977 11.438 6 13 6Z" fill="#009432"/>
<path d="M18.5142 20.104L17.2871 18.5249C16.0449 19.4902 14.562 20 13 20C9.14014 20 6 16.8599 6 13C6 11.438 6.50977 9.95508 7.4751 8.71289L5.896 7.48584C4.65576 9.08301 4 10.9888 4 13C4 17.9619 8.03809 22 13 22C15.0112 22 16.917 21.3442 18.5142 20.104Z" fill="#009432"/>
<path d="M56 18H54V10H52V6H47V0H45V6H40V10H38V18H36V32H34V26H32V22H29V17H27V22H24V26H22V32H18V60H16V62H58V60H56V18ZM42 8H50V10H42V8ZM40 12H52V18H50V14H48V18H44V14H42V18H40V12ZM54 20V60H51V50H41V60H38V20H54ZM49 60H43V52H49V60ZM26 24H30V26H26V24ZM24 28H32V32H29V30H27V32H24V28ZM20 34H36V60H34V36H32V60H29V36H27V60H24V36H22V60H20V34Z" fill="#009432"/>
<path d="M40 22H42V24H40V22Z" fill="#009432"/>
<path d="M45 22H47V24H45V22Z" fill="#009432"/>
<path d="M50 22H52V24H50V22Z" fill="#009432"/>
<path d="M40 28H42V30H40V28Z" fill="#009432"/>
<path d="M45 28H47V30H45V28Z" fill="#009432"/>
<path d="M50 28H52V30H50V28Z" fill="#009432"/>
<path d="M40 34H42V36H40V34Z" fill="#009432"/>
<path d="M45 34H47V36H45V34Z" fill="#009432"/>
<path d="M50 34H52V36H50V34Z" fill="#009432"/>
<path d="M40 40H42V42H40V40Z" fill="#009432"/>
<path d="M45 40H47V42H45V40Z" fill="#009432"/>
<path d="M50 40H52V42H50V40Z" fill="#009432"/>
<path d="M40 46H42V48H40V46Z" fill="#009432"/>
<path d="M45 46H47V48H45V46Z" fill="#009432"/>
<path d="M50 46H52V48H50V46Z" fill="#009432"/>
<path d="M0 30H2V32H0V30Z" fill="#009432"/>
<path d="M0 34H2V46H0V34Z" fill="#009432"/>
<path d="M6 37H8V39H6V37Z" fill="#009432"/>
<path d="M6 41H8V53H6V41Z" fill="#009432"/>
<path d="M12 30H14V32H12V30Z" fill="#009432"/>
<path d="M12 34H14V46H12V34Z" fill="#009432"/>
<path d="M60 60H62V62H60V60Z" fill="#009432"/>
<path d="M12 60H14V62H12V60Z" fill="#009432"/>
</svg>
