<svg width="62" height="62" viewBox="0 0 62 62" fill="none" xmlns="http://www.w3.org/2000/svg">
<path d="M62 27V25H60V3H54V25H52V9H46V25H44V15H38V25H35.5859L30.021 30.5649L28.0078 28.5518L24.9629 30.7271C24.166 30.3091 23.3291 29.9629 22.4629 29.6929L21.8472 26H19V14H22C25.8599 14 29 10.8599 29 7V6H24C22.042 6 20.272 6.81006 19 8.10986V7C19 3.14014 15.8599 0 12 0H7V1C7 4.85986 10.1401 8 14 8H17V17.1099C15.728 15.8101 13.958 15 12 15H7V16C7 19.8599 10.1401 23 14 23H17V26H14.1528L13.5371 29.6929C12.6709 29.9629 11.834 30.3091 11.0371 30.7271L7.99219 28.5518L2.55078 33.9932L4.72607 37.0381C4.30811 37.835 3.96191 38.6719 3.69189 39.5381L0 40.1528V47.8472L3.69287 48.4629C3.96289 49.3291 4.30908 50.166 4.72705 50.9629L2.55176 54.0078L7.99316 59.4492L11.0381 57.2739C11.835 57.6919 12.6719 58.0381 13.5381 58.3081L14.1528 62H21.8472L22.4629 58.3071C23.3291 58.0371 24.166 57.6909 24.9629 57.2729L28.0078 59.4482L33.4492 54.0068L31.2739 50.9619C31.6919 50.165 32.0381 49.3281 32.3081 48.4619L34.6108 48.0781C36.3608 53.8149 41.6992 58 48 58C55.7202 58 62 51.7202 62 44C62 36.2798 55.7202 30 48 30C41.6992 30 36.3608 34.1851 34.6099 39.9209L32.3071 39.5371C32.0371 38.6709 31.6909 37.834 31.2729 37.0371L33.4482 33.9922L31.4351 31.979L36.4141 27H62ZM56 5H58V25H56V5ZM48 11H50V25H48V11ZM40 17H42V25H40V17ZM24 8H26.8989C26.4351 10.2788 24.4141 12 22 12H19.1011C19.5649 9.72119 21.585 8 24 8ZM14 6C11.585 6 9.56494 4.27881 9.10107 2H12C14.415 2 16.4351 3.72119 16.8989 6H14ZM14 21C11.585 21 9.56494 19.2788 9.10107 17H12C14.415 17 16.4351 18.7212 16.8989 21H14ZM48 32C54.6172 32 60 37.3828 60 44C60 50.6172 54.6172 56 48 56C41.3828 56 36 50.6172 36 44C36 37.3828 41.3828 32 48 32ZM34 41.8472V46.1528L30.7192 46.7002L30.5542 47.3252C30.2559 48.4531 29.8101 49.5308 29.229 50.5278L28.9038 51.0869L30.8359 53.793L27.792 56.8369L25.0859 54.9048L24.5269 55.23C23.5298 55.811 22.4531 56.2559 21.3242 56.5552L20.7002 56.7192L20.1528 60H15.8472L15.2998 56.7192L14.6748 56.5542C13.5469 56.2559 12.4692 55.8101 11.4722 55.229L10.9131 54.9038L8.20703 56.8359L5.16309 53.792L7.09521 51.0859L6.77002 50.5269C6.18896 49.5298 5.74414 48.4531 5.44482 47.3242L5.28076 46.7002L2 46.1528V41.8472L5.28076 41.2998L5.4458 40.6748C5.74414 39.5469 6.18994 38.4692 6.771 37.4722L7.09619 36.9131L5.16406 34.207L8.20801 31.1631L10.9141 33.0952L11.4731 32.77C12.4702 32.189 13.5469 31.7441 14.6758 31.4448L15.3008 31.2798L15.8472 28H20.1528L20.7002 31.2808L21.3252 31.4458C22.4531 31.7441 23.5308 32.1899 24.5278 32.771L25.0869 33.0962L27.793 31.1641L30.8369 34.208L28.9048 36.9141L29.23 37.4731C29.811 38.4702 30.2559 39.5469 30.5552 40.6758L30.7202 41.3008L34 41.8472Z" fill="#009432"/>
<path d="M48 54C50.2891 54 52.4458 53.2422 54.2378 51.8091L52.9888 50.2471C51.5552 51.394 49.8301 52 48 52C43.5889 52 40 48.4111 40 44C40 42.1699 40.606 40.4448 41.7529 39.0112L40.1909 37.7622C38.7578 39.5542 38 41.7109 38 44C38 49.5142 42.4858 54 48 54Z" fill="#009432"/>
<path d="M48 36C52.4111 36 56 39.5889 56 44C56 45.8301 55.394 47.5552 54.2471 48.9888L55.8091 50.2378C57.2422 48.4458 58 46.2891 58 44C58 38.4858 53.5142 34 48 34C45.7109 34 43.5542 34.7578 41.7622 36.1909L43.0112 37.7529C44.4448 36.606 46.1699 36 48 36Z" fill="#009432"/>
<path d="M47 41H49C49.5508 41 50 41.4492 50 42H52C52 40.3462 50.6538 39 49 39V38H47V39C45.3462 39 44 40.3462 44 42C44 43.6538 45.3462 45 47 45H49C49.5508 45 50 45.4492 50 46C50 46.5508 49.5508 47 49 47H47C46.4492 47 46 46.5508 46 46H44C44 47.6538 45.3462 49 47 49V50H49V49C50.6538 49 52 47.6538 52 46C52 44.3462 50.6538 43 49 43H47C46.4492 43 46 42.5508 46 42C46 41.4492 46.4492 41 47 41Z" fill="#009432"/>
<path d="M17 29H19V31H17V29Z" fill="#009432"/>
<path d="M6.68652 34.1006L8.10107 32.686L9.51514 34.1006L8.10107 35.5146L6.68652 34.1006Z" fill="#009432"/>
<path d="M3 43H5V45H3V43Z" fill="#009432"/>
<path d="M6.68652 53.8994L8.10107 52.4849L9.51514 53.8994L8.10107 55.3135L6.68652 53.8994Z" fill="#009432"/>
<path d="M17 57H19V59H17V57Z" fill="#009432"/>
<path d="M26.4854 53.8994L27.8999 52.4849L29.314 53.8994L27.8999 55.3135L26.4854 53.8994Z" fill="#009432"/>
<path d="M31 43H33V45H31V43Z" fill="#009432"/>
<path d="M26.4854 34.1006L27.8999 32.686L29.314 34.1006L27.8999 35.5146L26.4854 34.1006Z" fill="#009432"/>
<path d="M18 33C11.9351 33 7 37.9351 7 44C7 50.0649 11.9351 55 18 55C24.0649 55 29 50.0649 29 44C29 37.9351 24.0649 33 18 33ZM18 53C13.0381 53 9 48.9619 9 44C9 39.0381 13.0381 35 18 35C22.9619 35 27 39.0381 27 44C27 48.9619 22.9619 53 18 53Z" fill="#009432"/>
<path d="M18 49C15.2432 49 13 46.7568 13 44C13 42.96 13.3208 41.96 13.9282 41.1069L12.2988 39.9468C11.4492 41.1401 11 42.542 11 44C11 47.8599 14.1401 51 18 51C19.458 51 20.8599 50.5508 22.0532 49.7012L20.8931 48.0718C20.04 48.6792 19.04 49 18 49Z" fill="#009432"/>
<path d="M18 37C16.542 37 15.1401 37.4492 13.9468 38.2988L15.1069 39.9282C15.96 39.3208 16.96 39 18 39C20.7568 39 23 41.2432 23 44C23 45.04 22.6792 46.04 22.0718 46.8931L23.7012 48.0532C24.5508 46.8599 25 45.458 25 44C25 40.1401 21.8599 37 18 37Z" fill="#009432"/>
</svg>
