<svg width="62" height="62" viewBox="0 0 62 62" fill="none" xmlns="http://www.w3.org/2000/svg">
<path d="M54.8389 19.5132L50.6401 17.2739L56.5859 11.3281C57.1758 10.7388 57.5 9.95508 57.5 9.12109C57.5 7.3999 56.1001 6 54.3789 6C53.5571 6 52.7529 6.33301 52.1719 6.91406L48.5 10.5859V0H4.5V62H48.5V55H56.5V47H54.5V42.8281C54.5 42.415 54.583 42.0132 54.7451 41.6328L57.0942 36.1538C57.3628 35.5229 57.5 34.856 57.5 34.1719V23.9521C57.5 23.1738 57.3159 22.395 56.9692 21.7012C56.499 20.7632 55.7632 20.0059 54.8389 19.5132ZM53.5859 8.32812C53.7949 8.12012 54.084 8 54.3789 8C54.9971 8 55.5 8.50293 55.5 9.12109C55.5 9.4209 55.3838 9.70215 55.1719 9.91406L44.2988 20.7871C43.8071 20.2061 43.2002 19.729 42.4941 19.4199L53.5859 8.32812ZM45.2852 22.6289L45.6968 22.2168L49.9468 24.3418C50.2881 24.5122 50.5 24.855 50.5 25.2358C50.5 26.2979 50.3301 27.3491 49.9941 28.3569L49.2139 30.6968C48.9541 31.4771 48.2271 32 47.4048 32C46.354 32 45.5 31.145 45.5 30.0942V24C45.5 23.521 45.4111 23.0679 45.2852 22.6289ZM38.5 26.5859L33.9878 31.0972L31.874 31.625L32.4028 29.5112L38.5 23.4141V26.5859ZM21.5 38.9492C16.4541 38.4458 12.5 34.1758 12.5 29C12.5 23.8242 16.4541 19.5542 21.5 19.0508V38.9492ZM30.2192 30H23.5V19.041C27.73 19.3901 31.4512 21.9419 33.3042 25.7822L30.5972 28.4888L30.2192 30ZM23.5 32H29.7192L29.126 34.375L34.311 33.0781C33.3789 38.3862 28.9551 42.5059 23.5 42.958V32ZM41.3032 17.7832L39.2749 16.769C38.7969 16.5298 38.5 16.0498 38.5 15.5171V15.3999C38.5 14.6279 39.1279 14 39.8999 14C40.1289 14 40.356 14.0571 40.5581 14.165L43.4028 15.6821L41.3032 17.7832ZM54.5 53H48.5C47.397 53 46.5 53.897 46.5 55V60H6.5V2H46.5V12.5859L44.8818 14.2041L41.499 12.3999C41.0078 12.1382 40.4551 12 39.8999 12C38.0249 12 36.5 13.5249 36.5 15.3999V15.5171C36.5 16.813 37.2212 17.978 38.3799 18.5591L39.6538 19.1958C39.1162 19.4502 38.7109 19.9341 38.5649 20.5229L34.7871 24.3008C32.3501 19.8252 27.6768 17 22.5 17H21.5V17.0508C15.3501 17.562 10.5 22.7212 10.5 29C10.5 35.2788 15.3501 40.438 21.5 40.9492V45H22.5C30.0718 45 36.2441 38.9531 36.478 31.437L38.5 29.4141V33.9282C38.5 34.8018 38.729 35.665 39.1631 36.4258L42.1011 41.5649C42.3608 42.0239 42.5 42.5439 42.5 43.0708V47H40.5V55H44.5V53H42.5V49H54.5V53ZM55.5 34.1719C55.5 34.585 55.417 34.9868 55.2549 35.3672L52.9058 40.8462C52.6372 41.4771 52.5 42.144 52.5 42.8281V47H44.5V43.0708C44.5 42.1968 44.271 41.334 43.8369 40.5732L40.8989 35.4341C40.6392 34.9761 40.5 34.4561 40.5 33.9292V21C42.1538 21 43.5 22.3462 43.5 24V30.0942C43.5 32.248 45.252 34 47.4048 34C49.0889 34 50.5781 32.9268 51.1099 31.3301L51.8911 28.9902C52.2949 27.7759 52.5 26.5132 52.5 25.2358C52.5 24.0918 51.8638 23.0649 50.8418 22.5532L47.188 20.7261L49.1621 18.752L53.897 21.2769C54.4541 21.5742 54.897 22.0298 55.1802 22.5962C55.3901 23.0142 55.5 23.4829 55.5 23.9521V34.1719Z" fill="#009432"/>
<path d="M25.5 35H27.5V37H25.5V35Z" fill="#009432"/>
<path d="M29.5 35H31.5V37H29.5V35Z" fill="#009432"/>
<path d="M14.5 26H19.5V28H14.5V26Z" fill="#009432"/>
<path d="M14.5 30H19.5V32H14.5V30Z" fill="#009432"/>
<path d="M22.5 51H20.5V56H18.5V49H16.5V56H14.5V46H12.5V56H10.5V43H8.5V58H24.5V56H22.5V51Z" fill="#009432"/>
<path d="M33.5 47H35.0859L32.5 49.5859L30.5 47.5859L24.793 53.293L26.207 54.707L30.5 50.4141L32.5 52.4141L36.5 48.4141V50H38.5V45H33.5V47Z" fill="#009432"/>
<path d="M8.5 4H10.5V6H8.5V4Z" fill="#009432"/>
<path d="M12.5 4H26.5V6H12.5V4Z" fill="#009432"/>
<path d="M8.5 8H10.5V10H8.5V8Z" fill="#009432"/>
<path d="M12.5 8H26.5V10H12.5V8Z" fill="#009432"/>
<path d="M8.5 12H10.5V14H8.5V12Z" fill="#009432"/>
<path d="M12.5 12H26.5V14H12.5V12Z" fill="#009432"/>
<path d="M34.5 4H36.5V6H34.5V4Z" fill="#009432"/>
<path d="M38.5 4H40.5V6H38.5V4Z" fill="#009432"/>
<path d="M42.5 4H44.5V6H42.5V4Z" fill="#009432"/>
</svg>
