<svg width="62" height="62" viewBox="0 0 62 62" fill="none" xmlns="http://www.w3.org/2000/svg">
<path d="M11.0391 47.9628H9.04065C8.49029 47.9628 8.04142 47.5149 8.04142 46.9635H6.04297C6.04297 48.6161 7.38812 49.9612 9.04065 49.9612V50.9605H11.0391V49.9612C12.6921 49.9612 14.0368 48.6161 14.0368 46.9635C14.0368 45.311 12.6921 43.9659 11.0391 43.9659H9.04065C8.49029 43.9659 8.04142 43.518 8.04142 42.9666C8.04142 42.4153 8.49029 41.9674 9.04065 41.9674H11.0391C11.5899 41.9674 12.0383 42.4153 12.0383 42.9666H14.0368C14.0368 41.3141 12.6921 39.969 11.0391 39.969V38.9697H9.04065V39.969C7.38812 39.969 6.04297 41.3141 6.04297 42.9666C6.04297 44.6192 7.38812 45.9643 9.04065 45.9643H11.0391C11.5899 45.9643 12.0383 46.4122 12.0383 46.9635C12.0383 47.5149 11.5899 47.9628 11.0391 47.9628Z" fill="#009432"/>
<path d="M61.9996 26.6561C61.9996 25.1817 60.7999 23.9814 59.325 23.9814C59.2157 23.9814 59.1088 23.9995 59.002 24.0122V13.9892C59.002 12.3366 57.6573 10.9915 56.0043 10.9915H52.1694L53.0066 10.7129V7.27318L51.7137 6.84187C51.5419 6.22321 51.296 5.62943 50.9784 5.07029L51.5888 3.84907L49.1566 1.41687L47.9368 2.02821C47.3762 1.71157 46.7834 1.46566 46.1647 1.29392L45.7334 0H42.2942L41.8634 1.29392C41.2447 1.46566 40.6524 1.71157 40.0918 2.02821L38.8716 1.41785L36.4394 3.85005L37.0502 5.07127C36.7331 5.63187 36.4877 6.22418 36.3145 6.84285L35.0205 7.27318V10.7119L35.8578 10.9915H6.04297C4.39044 10.9915 3.04529 12.3366 3.04529 13.9892V37.8418C1.1976 39.6553 0.0476074 42.1773 0.0476074 44.9652C0.0476074 47.7531 1.1976 50.275 3.04529 52.0886V58.9544H38.573C40.4485 60.2122 42.5098 61.2177 44.7152 61.9062L45.0128 61.9999L45.3104 61.9062C47.5411 61.2094 49.5962 60.1985 51.4609 58.9544H59.002V50.7776C60.9184 47.3271 61.9996 43.3775 61.9996 39.2065V26.6561ZM37.019 8.71444L38.0221 8.38072L38.1363 7.81182C38.289 7.04533 38.5881 6.32713 39.0223 5.67481L39.3443 5.19276L38.8706 4.24476L39.2653 3.85005L40.2118 4.32478L40.6944 4.00276C41.3467 3.56706 42.0663 3.27042 42.8314 3.11673L43.4003 3.00353L43.735 1.99845H44.2926L44.6273 3.00256L45.1958 3.11575C45.9613 3.26847 46.6795 3.56609 47.3333 4.00178L47.8158 4.3238L48.7618 3.84907L49.1566 4.24378L48.6828 5.19178L49.0048 5.67383C49.4405 6.32518 49.7381 7.04435 49.8909 7.81085L50.005 8.37974L51.0082 8.71444V9.27261L50.005 9.60633L49.8909 10.1752C49.7381 10.9407 49.4395 11.6589 49.0048 12.3122L48.6828 12.7943L49.1566 13.7413L48.7618 14.137L47.8158 13.6623L47.3333 13.9843C46.6805 14.42 45.9613 14.7166 45.1958 14.8703L44.6273 14.9835L44.2926 15.9876H43.735L43.4003 14.9835L42.8314 14.8703C42.0663 14.7176 41.3477 14.42 40.6944 13.9843L40.2118 13.6623L39.2653 14.137L38.8706 13.7413L39.3443 12.7943L39.0223 12.3122C38.5866 11.6599 38.289 10.9407 38.1363 10.1752L38.0221 9.60633L37.019 9.27163V8.71444ZM6.04297 12.9899H37.0122L36.4384 14.1351L38.8706 16.5682L40.0908 15.9579C40.6514 16.2745 41.2437 16.5204 41.8624 16.6922L42.2942 17.9861H45.7334L46.1638 16.6922C46.7824 16.5204 47.3752 16.2745 47.9358 15.9579L49.1556 16.5682L51.5878 14.1351L51.015 12.9899H56.0043C56.5551 12.9899 57.0035 13.4378 57.0035 13.9892V18.9853H5.04374V13.9892C5.04374 13.4378 5.49261 12.9899 6.04297 12.9899ZM5.04374 20.9838H57.0035V24.704L55.7628 25.2007C54.4684 25.7169 53.1076 25.9799 51.7146 25.9799H51.6136C49.4556 25.9799 47.365 25.3466 45.5675 24.1493L45.0128 23.7794L44.4585 24.1493C42.6616 25.3466 40.5714 25.9799 38.4129 25.9799H38.3119C36.919 25.9799 35.5572 25.7169 34.2643 25.2007L31.694 24.1732C31.3754 24.0453 31.0417 23.9814 30.7011 23.9814C29.2262 23.9814 28.0259 25.1817 28.0259 26.6561V39.2074C28.0259 39.7934 28.0552 40.3818 28.0991 40.9693H19.19C17.6112 37.3558 14.0197 34.9739 10.0399 34.9739C8.2195 34.9739 6.51574 35.4716 5.04374 36.3259V20.9838ZM2.04606 44.9652C2.04606 40.5575 5.63215 36.9714 10.0399 36.9714C13.4142 36.9714 16.4402 39.1138 17.5682 42.3012L17.8049 42.9667H41.6014L43.5998 44.9652L41.6014 46.9636H38.432L36.0198 44.5514L33.6076 46.9636H32.4366L30.0244 44.5514L27.6122 46.9636H17.8049L17.5692 47.6291C16.4402 50.8166 13.4142 52.959 10.0399 52.959C5.63215 52.959 2.04606 49.3729 2.04606 44.9652ZM44.0136 47.3774L46.012 45.3789V52.959H44.0136V47.3774ZM46.012 38.84V44.5514L44.0136 42.553V38.84L43.5169 38.5512C42.5767 38.0038 42.0151 37.0392 42.0151 35.9721C42.0151 34.3196 43.3603 32.9745 45.0128 32.9745C46.6658 32.9745 48.0105 34.3196 48.0105 35.9721C48.0105 37.0392 47.4489 38.0038 46.5087 38.5512L46.012 38.84ZM5.04374 56.9559V53.6055C6.51574 54.4598 8.2195 54.9575 10.0399 54.9575C14.0197 54.9575 17.6112 52.5755 19.19 48.9621H28.4397L29.6248 47.777C30.9997 51.3333 33.1992 54.4676 35.99 56.9559H5.04374ZM57.0035 56.9559H54.0536C55.1348 55.9947 56.1214 54.9394 57.0035 53.8045V56.9559ZM60.0012 39.2065C60.0012 48.6801 53.9907 56.9588 45.0128 59.9038C39.4683 58.083 34.9234 54.11 32.3405 48.9621H34.435L36.0198 47.3774L37.6045 48.9621H42.0151V54.9575H48.0105V39.9481C49.2556 39.0098 50.0089 37.5339 50.0089 35.9721C50.0089 33.2174 47.7675 30.976 45.0128 30.976C42.2581 30.976 40.0167 33.2174 40.0167 35.9721C40.0167 37.5339 40.77 39.0098 42.0151 39.9481V40.9683H30.1044C30.0576 40.3818 30.0244 39.7934 30.0244 39.2065V26.6561C30.0244 26.1975 30.523 25.8579 30.9519 26.0287L33.5207 27.0562C35.0518 27.6675 36.6633 27.9783 38.311 27.9783H38.4119C40.7471 27.9783 43.0153 27.3519 45.0118 26.1619C47.0093 27.3519 49.2776 27.9783 51.6127 27.9783H51.7137C53.3613 27.9783 54.9733 27.6675 56.5039 27.0562L59.0722 26.0287C59.5108 25.8579 60.0012 26.1975 60.0012 26.6561V39.2065Z" fill="#009432"/>
<path d="M56.0044 30.0708H58.0029V31.9751H56.0044V30.0708Z" fill="#009432"/>
<path d="M56.0044 39.2064C56.0044 44.6436 53.5912 49.6963 49.3845 53.0697L50.6345 54.6295C55.3169 50.8746 58.0028 45.253 58.0028 39.2064V33.9736H56.0044V39.2064Z" fill="#009432"/>
<path d="M7.04248 14.9883H9.04094V16.9867H7.04248V14.9883Z" fill="#009432"/>
<path d="M11.0396 14.9883H13.038V16.9867H11.0396V14.9883Z" fill="#009432"/>
<path d="M15.0366 14.9883H17.0351V16.9867H15.0366V14.9883Z" fill="#009432"/>
<path d="M7.04248 22.9824H26.0278V24.9809H7.04248V22.9824Z" fill="#009432"/>
<path d="M7.04248 26.979H26.0278V28.9775H7.04248V26.979Z" fill="#009432"/>
<path d="M7.04248 30.9761H26.0278V32.9745H7.04248V30.9761Z" fill="#009432"/>
<path d="M44.0138 12.9899C46.2181 12.9899 48.0107 11.1973 48.0107 8.993C48.0107 6.78865 46.2181 4.99609 44.0138 4.99609C41.8094 4.99609 40.0168 6.78865 40.0168 8.993C40.0168 11.1973 41.8094 12.9899 44.0138 12.9899ZM44.0138 6.99455C45.1159 6.99455 46.0122 7.89082 46.0122 8.993C46.0122 10.0952 45.1159 10.9914 44.0138 10.9914C42.9116 10.9914 42.0153 10.0952 42.0153 8.993C42.0153 7.89082 42.9116 6.99455 44.0138 6.99455Z" fill="#009432"/>
</svg>
