<svg width="20" height="20" viewBox="0 0 20 20" fill="none" xmlns="http://www.w3.org/2000/svg">
<path d="M18.9991 12V9.99998C18.9991 9.44798 18.5521 8.99999 17.9991 8.99999H11.9991C11.4461 8.99999 10.9991 9.44798 10.9991 9.99998V13C10.9991 13.553 11.4461 14 11.9991 14V15C11.4461 15 10.9991 15.448 10.9991 16V19C10.9991 19.553 11.4461 20 11.9991 20H17.9991C18.5521 20 18.9991 19.553 18.9991 19V17C19.5521 17 19.9991 16.553 19.9991 16V13C19.9991 12.448 19.5521 12 18.9991 12ZM12.9991 11H16.999V12H12.9991V11ZM16.9991 18H12.9991V17H16.9991V18ZM17.9991 15H13.9991V14H17.9991V15Z" fill="#009432"/>
<path d="M8.00001 15V13C8.00001 12.448 7.55301 12 7.00003 12H1.00003C0.447 12 0 12.448 0 13V16C0 16.553 0.447 17 0.999984 17V19C0.999984 19.553 1.44698 20 1.99997 20H7.99996C8.55295 20 8.99995 19.553 8.99995 19V16C8.99999 15.448 8.55299 15 8.00001 15ZM2.00001 14H6V15H2.00001V14ZM6.99998 18H3V17H6.99998V18Z" fill="#009432"/>
<path d="M11.7061 7.70699L15.9991 3.414V6H17.9991V0H11.9991V2.00001H14.5851L10.9991 5.586L8.70613 3.29301C8.31515 2.90301 7.68313 2.90301 7.29215 3.29301L1.29215 9.29301L2.70613 10.707L7.99911 5.415L10.2921 7.70699C10.6831 8.09798 11.3151 8.09798 11.7061 7.70699Z" fill="#009432"/>
</svg>
