<svg width="20" height="20" viewBox="0 0 20 20" fill="none" xmlns="http://www.w3.org/2000/svg">
<path d="M18 0H2.00001C0.896015 0 0 0.897984 0 2.00001V18C0 19.103 0.896015 20 2.00001 20H18C19.104 20 20 19.103 20 18V2.00001C20 0.897984 19.104 0 18 0ZM18 18H2.00001V9.99998H3.414L5.00001 8.41499L8.08302 11.498L12.083 6.49799L16 10.415L18 8.41499V18ZM18 6H17.586L16 7.58601L11.917 3.50301L7.91699 8.50302L5.00001 5.58604L2.586 8.00006H2.00001V2.00006H18V6Z" fill="#595959"/>
<path d="M5.00001 13.9991H3V16.9971H5.00001V13.9991Z" fill="#595959"/>
<path d="M8.99998 12H6.99996V16.998H8.99998V12Z" fill="#595959"/>
<path d="M13.0001 13.9991H11V16.9971H13.0001V13.9991Z" fill="#595959"/>
<path d="M17 12H15V16.998H17V12Z" fill="#595959"/>
</svg>
