<svg width="22" height="21" viewBox="0 0 22 21" fill="none" xmlns="http://www.w3.org/2000/svg">
<path d="M11.0013 10.0007H19.0019C19.554 10.0007 20.002 9.55271 20.002 9.00067C20.002 4.0383 15.9637 0 11.0013 0C10.4493 0 10.0013 0.448018 10.0013 1.00006V9.00067C10.0013 9.55271 10.4493 10.0007 11.0013 10.0007ZM12.0014 2.07114C15.0636 2.51119 17.4908 4.93837 17.9308 8.00057H12.0014V2.07114Z" fill="#009432"/>
<path d="M21.707 11.2938C21.52 11.1068 21.2649 11.0008 20.9999 11.0008H13.0003C12.5963 11.0008 12.2302 11.2448 12.0762 11.6179C11.9222 11.9919 12.0072 12.4219 12.2932 12.7079L17.9487 18.3654C18.1367 18.5524 18.3907 18.6574 18.6557 18.6574C18.9208 18.6574 19.1758 18.5524 19.3628 18.3654C21.0629 16.6642 22 14.4041 22 11.9999C22 11.7358 21.895 11.4808 21.707 11.2938ZM18.6058 16.1952L15.4145 13.001H19.9298C19.7648 14.163 19.3118 15.2551 18.6058 16.1952Z" fill="#009432"/>
<path d="M9.00067 10.5868V3.06923C9.00067 2.78219 8.87766 2.50917 8.66263 2.31917C8.4476 2.13016 8.16459 2.04114 7.87657 2.07817C3.38627 2.63917 0 6.47547 0 11.0008C0 15.9632 4.03732 20.0015 9.00067 20.0015C11.1088 20.0015 13.161 19.2554 14.7761 17.9003C14.9911 17.7193 15.1201 17.4573 15.1321 17.1773C15.1451 16.8973 15.0382 16.6242 14.8401 16.4262L9.00067 10.5868ZM9.00067 18.0014C5.1414 18.0014 2.00016 14.8611 2.00016 11.0008C2.00016 7.87062 4.08232 5.16442 7.00055 4.29834V11.0008C7.00055 11.2669 7.10556 11.5209 7.29359 11.7079L12.593 17.0083C11.5128 17.6533 10.2708 18.0014 9.00067 18.0014Z" fill="#009432"/>
</svg>
