<svg width="20" height="20" viewBox="0 0 20 20" fill="none" xmlns="http://www.w3.org/2000/svg">
<path d="M2.97675 12.7979L2.27463 12.0949C1.88733 11.7071 1.88733 11.0767 2.27463 10.6878L10.7019 2.25073C10.8886 2.06279 11.1378 1.95936 11.404 1.95936C11.6701 1.95936 11.9184 2.06279 12.1071 2.25073L12.8092 2.95375L14.2124 1.54873L13.5113 0.845701C12.3852 -0.2819 10.4219 -0.2819 9.29772 0.845701L0.871421 9.28183C-0.290474 10.4452 -0.290474 12.3375 0.871421 13.5009L1.57251 14.2039L2.97675 12.7979Z" fill="#595959"/>
<path d="M19.1281 6.47177L18.425 5.76875L17.0208 7.17475L17.7239 7.87778C17.9116 8.06571 18.0138 8.31429 18.0138 8.5808C18.0138 8.84532 17.9105 9.09487 17.7239 9.28281L9.29763 17.7209C8.92224 18.0958 8.26779 18.0958 7.89241 17.7209L7.19029 17.0179L5.78611 18.4229L6.48822 19.126C7.0513 19.6898 7.79908 20 8.59551 20C9.39096 20 10.1387 19.6898 10.7018 19.126L19.1281 10.6889C19.6902 10.126 20 9.37728 20 8.5808C20 7.78432 19.6902 7.03459 19.1281 6.47177Z" fill="#595959"/>
<path d="M12.1053 9.28312L19.1273 2.25209L17.7229 0.845897L10.7009 7.87692L12.1053 9.28312Z" fill="#595959"/>
<path d="M7.89549 10.6879L0.874542 17.7199L2.27843 19.1252L9.29938 12.0932L7.89549 10.6879Z" fill="#595959"/>
</svg>
