<svg width="20" height="16" viewBox="0 0 20 16" fill="none" xmlns="http://www.w3.org/2000/svg">
<path d="M18.4375 0.8125H1.5625C0.700977 0.8125 0 1.51348 0 2.375V13.625C0 14.4865 0.700977 15.1875 1.5625 15.1875H18.4375C19.299 15.1875 20 14.4865 20 13.625V2.375C20 1.51348 19.299 0.8125 18.4375 0.8125Z" fill="#5D647F"/>
<path d="M6.875 7.0625H3.125C2.7798 7.0625 2.5 6.7827 2.5 6.4375V3.9375C2.5 3.5923 2.7798 3.3125 3.125 3.3125H6.875C7.2202 3.3125 7.5 3.5923 7.5 3.9375V6.4375C7.5 6.7827 7.2202 7.0625 6.875 7.0625Z" fill="#FFD100"/>
<path d="M4.6875 11.125H3.125C2.7798 11.125 2.5 10.8452 2.5 10.5V10.1875C2.5 9.8423 2.7798 9.5625 3.125 9.5625H4.6875C5.0327 9.5625 5.3125 9.8423 5.3125 10.1875V10.5C5.3125 10.8452 5.0327 11.125 4.6875 11.125Z" fill="#B8BAC0"/>
<path d="M8.75 11.125H7.1875C6.8423 11.125 6.5625 10.8452 6.5625 10.5V10.1875C6.5625 9.8423 6.8423 9.5625 7.1875 9.5625H8.75C9.0952 9.5625 9.375 9.8423 9.375 10.1875V10.5C9.375 10.8452 9.0952 11.125 8.75 11.125Z" fill="#B8BAC0"/>
<path d="M12.8125 11.125H11.25C10.9048 11.125 10.625 10.8452 10.625 10.5V10.1875C10.625 9.8423 10.9048 9.5625 11.25 9.5625H12.8125C13.1577 9.5625 13.4375 9.8423 13.4375 10.1875V10.5C13.4375 10.8452 13.1577 11.125 12.8125 11.125Z" fill="#B8BAC0"/>
<path d="M16.875 11.125H15.3125C14.9673 11.125 14.6875 10.8452 14.6875 10.5V10.1875C14.6875 9.8423 14.9673 9.5625 15.3125 9.5625H16.875C17.2202 9.5625 17.5 9.8423 17.5 10.1875V10.5C17.5 10.8452 17.2202 11.125 16.875 11.125Z" fill="#B8BAC0"/>
<path d="M9.0625 13H2.8125C2.63977 13 2.5 12.8601 2.5 12.6875C2.5 12.5149 2.63977 12.375 2.8125 12.375H9.0625C9.23523 12.375 9.375 12.5149 9.375 12.6875C9.375 12.8601 9.23523 13 9.0625 13Z" fill="#8A8895"/>
<path d="M13.125 13H10.3125C10.1398 13 10 12.8601 10 12.6875C10 12.5149 10.1398 12.375 10.3125 12.375H13.125C13.2977 12.375 13.4375 12.5149 13.4375 12.6875C13.4375 12.8601 13.2977 13 13.125 13Z" fill="#8A8895"/>
<path d="M14.376 6.43758C14.0327 6.82113 13.5338 7.0625 12.9785 7.0625C11.943 7.0625 11.1035 6.22305 11.1035 5.1875C11.1035 4.15195 11.943 3.3125 12.9785 3.3125C13.5337 3.3125 14.0325 3.55379 14.3759 3.93723" fill="#FF4F19"/>
<path d="M7.5 5.5H4.375V4.875H7.5V4.25H4.375V3.3125H3.75V7.0625H4.375V6.125H7.5V5.5Z" fill="#FF9500"/>
<path d="M15.625 7.0625C16.6605 7.0625 17.5 6.22303 17.5 5.1875C17.5 4.15197 16.6605 3.3125 15.625 3.3125C14.5895 3.3125 13.75 4.15197 13.75 5.1875C13.75 6.22303 14.5895 7.0625 15.625 7.0625Z" fill="#FFD100"/>
</svg>
