<svg width="20" height="20" viewBox="0 0 20 20" fill="none" xmlns="http://www.w3.org/2000/svg">
<path d="M10 0C4.48599 0 0 4.48599 0 10C0 15.514 4.48599 20 10 20C15.514 20 20 15.514 20 10C20 4.48599 15.514 0 10 0ZM10 18C8.029 18 6.22501 17.279 4.82898 16.093C8.092 14.696 11.91 14.697 15.171 16.094C13.775 17.279 11.971 18 10 18ZM16.588 14.529C14.927 13.723 13.118 13.248 11.281 13.097L11.989 8.14103L10.01 7.85804L9.26598 13.0601C7.243 13.1561 5.23899 13.643 3.41199 14.5291C2.523 13.2401 1.99997 11.6811 1.99997 10C1.99997 5.58906 5.58896 2.00002 10 2.00002C14.411 2.00002 18 5.58901 18 10C18 11.681 17.477 13.24 16.588 14.529Z" fill="#595959"/>
<path d="M10 4.99998C10.5523 4.99998 11 4.55227 11 3.99999C11 3.44771 10.5523 3 10 3C9.44772 3 9.00001 3.44771 9.00001 3.99999C9.00001 4.55227 9.44772 4.99998 10 4.99998Z" fill="#595959"/>
<path d="M14.242 6.75798C14.7943 6.75798 15.242 6.31027 15.242 5.75799C15.242 5.20572 14.7943 4.75801 14.242 4.75801C13.6897 4.75801 13.242 5.20572 13.242 5.75799C13.242 6.31027 13.6897 6.75798 14.242 6.75798Z" fill="#595959"/>
<path d="M16 11C16.5523 11 17 10.5523 17 10C17 9.44772 16.5523 9.00001 16 9.00001C15.4477 9.00001 15 9.44772 15 10C15 10.5523 15.4477 11 16 11Z" fill="#595959"/>
<path d="M5.75799 6.75798C6.31027 6.75798 6.75798 6.31027 6.75798 5.75799C6.75798 5.20572 6.31027 4.75801 5.75799 4.75801C5.20572 4.75801 4.75801 5.20572 4.75801 5.75799C4.75801 6.31027 5.20572 6.75798 5.75799 6.75798Z" fill="#595959"/>
<path d="M3.99999 11C4.55227 11 4.99998 10.5523 4.99998 10C4.99998 9.44772 4.55227 9.00001 3.99999 9.00001C3.44771 9.00001 3 9.44772 3 10C3 10.5523 3.44771 11 3.99999 11Z" fill="#595959"/>
</svg>
