<svg width="109" height="109" viewBox="0 0 109 109" fill="none" xmlns="http://www.w3.org/2000/svg">
<path d="M124 62C124 27.814 96.186 0 62 0C51.282 0 40.84 2.776 31.582 8H24V0H12V25.374C4.16 36.054 0 48.694 0 62C0 96.188 27.814 124 62 124C69.618 124 77.054 122.63 84.104 119.938C88.128 122.496 92.888 124 98 124C104.236 124 110.268 121.758 114.984 117.688L112.37 114.66C108.38 118.104 103.278 120 98 120C85.87 120 76 110.13 76 98C76 85.87 85.87 76 98 76C110.13 76 120 85.87 120 98C120 103.07 118.324 107.836 115.15 111.782L118.268 114.29C121.964 109.692 124 103.908 124 98C124 92.884 122.494 88.124 119.934 84.098C122.624 77.046 124 69.618 124 62ZM32 20H36V48H32V20ZM24 12H28V48H24V12ZM16 4H20V48H16V4ZM60 119.95C29.608 118.912 5.088 94.392 4.05 64H60V119.95ZM60 60H4.08C4.406 50.264 7.11 40.96 12 32.666V52H56V32H48V24H40V16H32V12.384C40.462 7.256 50.078 4.41 60 4.07V60ZM40 48V28H44V48H40ZM48 48V36H52V48H48ZM119.95 60H102.828L117.536 45.292C118.948 49.974 119.776 54.904 119.95 60ZM109.872 29.3L87.534 51.638L90.362 54.466L112.062 32.766C113.614 35.414 114.96 38.194 116.084 41.088L97.172 60H84.828L87.414 57.414L84.586 54.586L79.172 60H66.828L104.374 22.454C106.37 24.594 108.212 26.878 109.872 29.3ZM64 4.05C69.096 4.224 74.026 5.052 78.708 6.464L64 21.172V4.05ZM64 44.828L88.306 20.522L85.478 17.694L64 39.172V26.828L82.912 7.916C85.806 9.038 88.586 10.384 91.234 11.938L88.012 15.16L90.84 17.988L94.7 14.128C97.122 15.788 99.406 17.628 101.546 19.626L64 57.172V44.828ZM98 72C83.664 72 72 83.664 72 98C72 105.522 75.23 112.286 80.352 117.038C75.082 118.796 69.6 119.766 64 119.954V64H119.954C119.766 69.598 118.788 75.076 117.032 80.346C112.28 75.226 105.518 72 98 72Z" fill="#F5F5F5"/>
<path d="M48.5946 72.5853L24.5944 96.5855L27.4228 99.4139L51.423 75.4137L48.5946 72.5853Z" fill="#F5F5F5"/>
<path d="M46 88C42.692 88 40 90.692 40 94C40 97.308 42.692 100 46 100C49.308 100 52 97.308 52 94C52 90.692 49.308 88 46 88ZM46 96C44.898 96 44 95.104 44 94C44 92.896 44.898 92 46 92C47.102 92 48 92.896 48 94C48 95.104 47.102 96 46 96Z" fill="#F5F5F5"/>
<path d="M30 72C26.692 72 24 74.692 24 78C24 81.308 26.692 84 30 84C33.308 84 36 81.308 36 78C36 74.692 33.308 72 30 72ZM30 80C28.898 80 28 79.104 28 78C28 76.896 28.898 76 30 76C31.102 76 32 76.896 32 78C32 79.104 31.102 80 30 80Z" fill="#F5F5F5"/>
<path d="M98 96C95.794 96 94 94.206 94 92C94 89.794 95.794 88 98 88C100.206 88 102 89.794 102 92H106C106 88.282 103.44 85.178 100 84.284V80H96V84.284C92.56 85.178 90 88.282 90 92C90 96.412 93.588 100 98 100C100.206 100 102 101.794 102 104C102 106.206 100.206 108 98 108C95.794 108 94 106.206 94 104H90C90 107.718 92.56 110.822 96 111.716V116H100V111.716C103.44 110.822 106 107.718 106 104C106 99.588 102.412 96 98 96Z" fill="#F5F5F5"/>
<path d="M116 96H112V100H116V96Z" fill="#F5F5F5"/>
<path d="M84 96H80V100H84V96Z" fill="#F5F5F5"/>
</svg>
