<svg width="109" height="109" viewBox="0 0 109 109" fill="none" xmlns="http://www.w3.org/2000/svg">
<path d="M118 62C116.122 62 114.326 62.8965 113.202 64.4004L102.91 78.1201L91.874 79.5L92.7324 78.3535C93.5498 77.2656 94 75.9141 94 74.5537V74.3359C94 70.8418 91.1582 68 87.6641 68C86.0938 68 84.5879 68.5781 83.4258 69.626L68.6338 82.9385C65.6904 85.5879 64 89.3799 64 93.3438V104H60V93.3438C60 89.3818 58.3096 85.5879 55.3662 82.9404L40.5762 69.6299C39.4121 68.5781 37.9062 68 36.3359 68C32.8418 68 30 70.8418 30 74.3359V74.5537C30 75.916 30.4502 77.2656 31.2676 78.3535L32.126 79.5L21.0898 78.1201L10.7979 64.4004C9.67383 62.8965 7.87793 62 6 62C2.69238 62 0 64.6924 0 68V68.79C0 69.9775 0.347656 71.1299 1.00781 72.1182L12.7744 89.7656C15.376 93.6699 19.7324 96 24.4219 96H31.3516C35.6621 96 39.4756 98.748 40.8379 102.838L41.2256 104H38V124H86V104H82.7744L83.1621 102.838C84.5264 98.748 88.3379 96 92.6484 96H99.5781C104.268 96 108.622 93.6699 111.226 89.7656L122.992 72.1182C123.652 71.1299 124 69.9775 124 68.79V68C124 64.6924 121.308 62 118 62ZM44.6299 101.572C42.7236 95.8477 37.3857 92 31.3516 92H24.4219C21.0723 92 17.9619 90.3359 16.1016 87.5459L4.33594 69.8984C4.11621 69.5684 4 69.1855 4 68.79V68C4 66.8965 4.89648 66 6 66C6.62598 66 7.22363 66.2979 7.59961 66.7979L18.9102 81.8779L35.4619 83.9482L36.4004 85.2002L39.5996 82.8018L34.4678 75.958C34.166 75.5537 34 75.0557 34 74.5537V74.3359C34 73.0479 35.0479 72 36.3359 72C36.9141 72 37.4678 72.2119 37.8984 72.5996L52.6904 85.9121C54.792 87.8037 56 90.5137 56 93.3438V104H45.4404L44.6299 101.572ZM42 120V116H52V112H42V108H60V112H56V116H60V120H42ZM64 120V116H68V112H64V108H82V112H72V116H82V120H64ZM120 68.79C120 69.1855 119.884 69.5703 119.664 69.9004L107.898 87.5479C106.04 90.3359 102.928 92 99.5781 92H92.6484C86.6123 92 81.2744 95.8477 79.3682 101.572L78.5596 104H68V93.3438C68 90.5137 69.208 87.8037 71.3096 85.9121L86.1016 72.5977C86.5322 72.2119 87.0859 72 87.6641 72C88.9521 72 90 73.0479 90 74.3359V74.5537C90 75.0557 89.834 75.5537 89.5342 75.9561L84.4004 82.7998L87.5996 85.1982L88.5381 83.9463L105.09 81.876L116.4 66.7959C116.776 66.2979 117.374 66 118 66C119.104 66 120 66.8965 120 68V68.79Z" fill="#F5F5F5"/>
<path d="M118 60V53.5439C118 49.4004 115.392 45.6357 111.512 44.1777L102 40.6143V38.9199C103.514 37.5615 104.68 35.8301 105.35 33.8643C109.118 33.2178 112 29.9502 112 26V18C112 8.07422 103.926 0 94 0C87.1318 0 81.1543 3.87012 78.1221 9.54004C75.2559 3.88965 69.4062 0 62.6484 0C59.21 0 55.8799 1.00781 53.0244 2.91406L51.1016 4.19629C48.6816 5.07227 46.7441 6.76953 45.5 8.89355C42.3682 3.58203 36.6016 0 30 0C20.0742 0 12 8.07422 12 18V26C12 29.9502 14.8818 33.2178 18.6504 33.8643C19.3203 35.8281 20.4863 37.5596 22 38.9199V40.6143L12.4883 44.1797C8.6084 45.6357 6 49.4004 6 53.5439V60H118ZM82 56H74V52H70V56H54V52H50V56H42V53.5439C42 51.0557 43.5645 48.7979 45.8936 47.9238L55.2998 44.4004L62 53.334L68.7002 44.4004L78.1064 47.9258C80.4355 48.7979 82 51.0557 82 53.5439V56ZM22 30V21.8584C25.46 21.54 28.7939 20.4541 31.7422 18.5703L31.7578 18.5859C33.4521 20.2803 35.6562 21.4004 38 21.8145V30C38 34.4121 34.4121 38 30 38C25.5879 38 22 34.4121 22 30ZM86 40.6143L78 43.6143L70 40.6143V38.9199C71.5137 37.5615 72.6797 35.8301 73.3496 33.8643C75.2002 33.5459 76.8164 32.5918 78 31.2363C79.1836 32.5918 80.7998 33.5459 82.6504 33.8643C83.3203 35.8281 84.4863 37.5596 86 38.9199V40.6143ZM58 41.2998C59.2539 41.7461 60.5957 42 62 42C63.4043 42 64.7461 41.7441 66 41.2998V41.334L62 46.666L58 41.334V41.2998ZM82 29.4443C80.8096 28.75 80 27.4736 80 26C80 24.5264 80.8096 23.25 82 22.5557V29.4443ZM74 29.4443V22.5576C75.1904 23.252 76 24.5283 76 26.002C76 27.4756 75.1904 28.75 74 29.4443ZM70 30C70 34.4121 66.4121 38 62 38C57.5879 38 54 34.4121 54 30V22H70V30ZM50 29.4443C48.8096 28.75 48 27.4736 48 26C48 24.5264 48.8096 23.25 50 22.5557V29.4443ZM42 22.5557C43.1904 23.25 44 24.5264 44 26C44 27.4736 43.1904 28.75 42 29.4443V22.5557ZM38 38.9199C39.5137 37.5615 40.6797 35.8301 41.3496 33.8643C43.2002 33.5459 44.8164 32.5918 46 31.2363C47.1836 32.5918 48.7998 33.5459 50.6504 33.8643C51.3203 35.8281 52.4863 37.5596 54 38.9199V40.6143L46 43.6143L38 40.6143V38.9199ZM114 53.5439V56H106V52H102V56H86V53.5439C86 50.6699 84.7275 48 82.666 46.1338L86.502 44.6963C87.6143 47.7803 90.5381 50 94 50C97.46 50 100.386 47.7803 101.498 44.6982L110.104 47.9258C112.436 48.7979 114 51.0557 114 53.5439ZM98 42C98 44.2061 96.2061 46 94 46C91.7939 46 90 44.2061 90 42V41.2998C91.2539 41.7461 92.5957 42 94 42C95.4043 42 96.7461 41.7441 98 41.2998V42ZM94 38C89.5879 38 86 34.4121 86 30V21.8584C89.46 21.54 92.7939 20.4541 95.7422 18.5703L95.7578 18.5859C97.4521 20.2803 99.6562 21.4004 102 21.8145V30C102 34.4121 98.4121 38 94 38ZM106 29.4443V22.5576C107.19 23.252 108 24.5283 108 26.002C108 27.4756 107.19 28.75 106 29.4443ZM94 4C101.718 4 108 10.2822 108 18V19.1123C106.818 18.4238 105.464 18 104 18C101.984 18 100.012 17.1836 98.5859 15.7578L96.2539 13.4258L93.8818 15.0078C90.9463 16.9639 87.5283 18 84 18C82.5361 18 81.1816 18.4238 80 19.1123V18C80 10.2822 86.2822 4 94 4ZM48 14.3242C48 11.4043 49.8623 8.82227 52.6318 7.89648L55.2422 6.24219C57.4424 4.77637 60.002 4 62.6484 4C70.0098 4 76 9.99023 76 17.3516V19.1123C74.8184 18.4238 73.4639 18 72 18H52C50.5361 18 49.1816 18.4238 48 19.1123V14.3242ZM30 4C37.7178 4 44 10.2822 44 18V19.1123C42.8184 18.4238 41.4639 18 40 18C37.9844 18 36.0117 17.1836 34.5859 15.7578L32.2539 13.4258L29.8818 15.0078C26.9463 16.9639 23.5283 18 20 18C18.5361 18 17.1816 18.4238 16 19.1123V18C16 10.2822 22.2822 4 30 4ZM16 26C16 24.5264 16.8096 23.25 18 22.5557V29.4424C16.8096 28.75 16 27.4736 16 26ZM30 42C31.4043 42 32.7461 41.7441 34 41.2998V42C34 44.2061 32.2061 46 30 46C27.7939 46 26 44.2061 26 42V41.2998C27.2539 41.7441 28.5957 42 30 42ZM22 56V52H18V56H10V53.5439C10 51.0557 11.5645 48.7979 13.8936 47.9238L22.5 44.6963C23.6143 47.7803 26.54 50 30 50C33.46 50 36.3857 47.7803 37.498 44.6982L41.332 46.1357C39.2725 48.002 38 50.6719 38 53.5439V56H22Z" fill="#F5F5F5"/>
</svg>
