<svg width="62" height="62" viewBox="0 0 62 62" fill="none" xmlns="http://www.w3.org/2000/svg">
<path d="M47.2708 11.0963H14.7292L0 28.2673L31 62L62 28.2683L47.2708 11.0963ZM15.6271 13.1138H23.2829L14.6303 27.2363H3.51345L15.6271 13.1138ZM3.61629 29.2538H14.5749L27.9988 55.7861L3.61629 29.2538ZM16.3153 28.2925L25.6146 13.1138H36.3844L45.6837 28.2925L31 57.3174L16.3153 28.2925ZM34.0002 55.7861L47.4251 29.2538H53.7439V27.2363H47.3697L38.7171 13.1138H46.3729L58.4866 27.2363H55.7217V29.2538H58.3837L34.0002 55.7861Z" fill="#009432"/>
<path d="M38.9109 28.2451V26.732C38.9109 23.6724 36.4714 21.1838 33.4722 21.1838H31.9889V19.1663H30.0111V21.1838H28.5278C25.5286 21.1838 23.0891 23.6724 23.0891 26.732C23.0891 29.7915 25.5286 32.2801 28.5278 32.2801H33.4722C35.3807 32.2801 36.9332 33.8638 36.9332 35.8107C36.9332 37.7576 35.3807 39.3414 33.4722 39.3414H28.5278C26.6193 39.3414 25.0668 37.7576 25.0668 35.8107V34.2976H23.0891V35.8107C23.0891 38.8703 25.5286 41.3589 28.5278 41.3589H30.0111V43.3764H31.9889V41.3589H33.4722C36.4714 41.3589 38.9109 38.8703 38.9109 35.8107C38.9109 32.7512 36.4714 30.2626 33.4722 30.2626H28.5278C26.6193 30.2626 25.0668 28.6789 25.0668 26.732C25.0668 24.7851 26.6193 23.2013 28.5278 23.2013H33.4722C35.3807 23.2013 36.9332 24.7851 36.9332 26.732V28.2451H38.9109Z" fill="#009432"/>
<path d="M6.27832 6.05252H4.30058V8.07003H6.27832V6.05252Z" fill="#009432"/>
<path d="M3.89119 8.24233L2.49273 6.81575L1.09428 8.24233L2.49273 9.66891L3.89119 8.24233Z" fill="#009432"/>
<path d="M2.32285 10.0875H0.345115V12.105H2.32285V10.0875Z" fill="#009432"/>
<path d="M1.09344 13.9498L2.4919 15.3764L3.89036 13.9498L2.4919 12.5233L1.09344 13.9498Z" fill="#009432"/>
<path d="M6.27832 14.1225H4.30058V16.1401H6.27832V14.1225Z" fill="#009432"/>
<path d="M6.68766 13.9498L8.08612 15.3764L9.48457 13.9498L8.08612 12.5232L6.68766 13.9498Z" fill="#009432"/>
<path d="M10.2338 10.0875H8.25605V12.105H10.2338V10.0875Z" fill="#009432"/>
<path d="M9.48418 8.24364L8.08573 6.81706L6.68727 8.24364L8.08573 9.67021L9.48418 8.24364Z" fill="#009432"/>
<path d="M50.7773 0H48.7996V2.01751H50.7773V0Z" fill="#009432"/>
<path d="M48.3884 2.19093L46.9899 0.764354L45.5914 2.19093L46.9899 3.61751L48.3884 2.19093Z" fill="#009432"/>
<path d="M46.8219 4.03501H44.8441V6.05252H46.8219V4.03501Z" fill="#009432"/>
<path d="M45.5921 7.89822L46.9905 9.3248L48.389 7.89822L46.9905 6.47165L45.5921 7.89822Z" fill="#009432"/>
<path d="M50.7773 8.07003H48.7996V10.0875H50.7773V8.07003Z" fill="#009432"/>
<path d="M53.9823 7.89665L52.5838 6.47008L51.1854 7.89665L52.5838 9.32323L53.9823 7.89665Z" fill="#009432"/>
<path d="M54.7328 4.03501H52.7551V6.05252H54.7328V4.03501Z" fill="#009432"/>
<path d="M53.9829 2.1908L52.5844 0.764221L51.186 2.1908L52.5844 3.61738L53.9829 2.1908Z" fill="#009432"/>
<path d="M59.6771 12.105H57.6994V14.1225H59.6771V12.105Z" fill="#009432"/>
<path d="M59.6771 16.1401H57.6994V18.1576H59.6771V16.1401Z" fill="#009432"/>
<path d="M61.6549 14.1225H59.6771V16.1401H61.6549V14.1225Z" fill="#009432"/>
<path d="M57.6994 14.1225H55.7217V16.1401H57.6994V14.1225Z" fill="#009432"/>
<path d="M22.1002 0H20.1225V2.01751H22.1002V0Z" fill="#009432"/>
<path d="M22.1002 4.03501H20.1225V6.05252H22.1002V4.03501Z" fill="#009432"/>
<path d="M24.0779 2.01751H22.1002V4.03501H24.0779V2.01751Z" fill="#009432"/>
<path d="M20.1225 2.01751H18.1447V4.03501H20.1225V2.01751Z" fill="#009432"/>
<path d="M31.9889 26.2276H30.0111V28.2451H31.9889V26.2276Z" fill="#009432"/>
<path d="M31.9889 34.2976H30.0111V36.3151H31.9889V34.2976Z" fill="#009432"/>
</svg>
