<svg width="20" height="14" viewBox="0 0 20 14" fill="none" xmlns="http://www.w3.org/2000/svg">
<path d="M20 13V0.999986C20 0.447985 19.5521 0 19.0001 0H1.00003C0.447985 0 0 0.447985 0 0.999986V13C0 13.552 0.447985 14 0.999986 14H19C19.552 14 20 13.552 20 13ZM2.00002 12V8.41501L5.58601 12H2.00002ZM18 12H8.41403L2.00002 5.58601V2.00002H11.586L18 8.41403V12ZM18 5.58601L14.415 2.00002H18V5.58601Z" fill="#009432"/>
<path d="M6.50002 6.99999C6.50002 8.92998 8.07001 10.5 10 10.5C11.9301 10.5 13.5 8.93003 13.5 6.99999C13.5 5.06996 11.93 3.49997 10 3.49997C8.06996 3.49997 6.50002 5.07001 6.50002 6.99999ZM11.5 6.99999C11.5 7.82701 10.827 8.5 10 8.5C9.17298 8.5 8.5 7.82701 8.5 6.99999C8.5 6.17298 9.17298 5.49999 10 5.49999C10.827 5.49999 11.5 6.17302 11.5 6.99999Z" fill="#009432"/>
</svg>
