<svg width="18" height="4" viewBox="0 0 18 4" fill="none" xmlns="http://www.w3.org/2000/svg">
<path d="M2.00002 4.00003C3.10459 4.00003 4.00003 3.10459 4.00003 2.00002C4.00003 0.895438 3.10459 0 2.00002 0C0.895437 0 0 0.895438 0 2.00002C0 3.10459 0.895437 4.00003 2.00002 4.00003Z" fill="#595959"/>
<path d="M9.00092 4.00003C10.1055 4.00003 11.0009 3.10459 11.0009 2.00002C11.0009 0.895438 10.1055 0 9.00092 0C7.89634 0 7.0009 0.895438 7.0009 2.00002C7.0009 3.10459 7.89634 4.00003 9.00092 4.00003Z" fill="#595959"/>
<path d="M15.9999 4.00003C17.1045 4.00003 17.9999 3.10459 17.9999 2.00002C17.9999 0.895438 17.1045 0 15.9999 0C14.8954 0 13.9999 0.895438 13.9999 2.00002C13.9999 3.10459 14.8954 4.00003 15.9999 4.00003Z" fill="#595959"/>
</svg>
