<svg width="62" height="62" viewBox="0 0 62 62" fill="none" xmlns="http://www.w3.org/2000/svg">
<path d="M7.37566 20.913C7.56432 21.581 7.87313 22.213 8.31995 22.752L11.4706 26.562C12.2282 27.476 13.3403 28 14.5219 28H17.6885C18.8701 28 19.9832 27.476 20.7398 26.561L23.8905 22.753C24.3363 22.214 24.6441 21.584 24.8328 20.919C25.6271 20.756 26.3649 20.353 26.9299 19.753C27.6875 18.949 28.0718 17.896 28.0142 16.786C27.9665 15.878 27.5952 15.066 27.0272 14.421V10C27.0272 7.996 25.5556 6.331 23.6432 6.044L23.5131 5.825C21.7407 2.849 18.4987 1 15.0522 1C9.6098 1 5.18322 5.458 5.18322 10.938V14.367C4.72546 14.881 4.39978 15.512 4.26473 16.218C4.03735 17.41 4.34218 18.624 5.09881 19.547C5.68664 20.263 6.49093 20.733 7.37566 20.913ZM26.0323 16.891C26.0611 17.447 25.8694 17.975 25.4901 18.376C25.357 18.517 25.2031 18.627 25.0423 18.722V15.322C25.6073 15.662 25.9985 16.239 26.0323 16.891ZM7.16912 10.938C7.16912 6.562 10.706 3 15.0522 3C17.8046 3 20.3953 4.477 21.8122 6.854L22.4944 8H23.0564C24.1516 8 25.0423 8.897 25.0423 10V13H23.0564V19.552C23.0564 20.252 22.8111 20.934 22.3663 21.473L19.2156 25.281C18.8363 25.737 18.2803 26 17.6895 26H14.5229C13.9321 26 13.3761 25.737 12.9968 25.281L9.84612 21.471C9.40029 20.934 9.15503 20.252 9.15503 19.552V13H7.16912V10.938ZM6.21489 16.595C6.31915 16.048 6.68257 15.586 7.16912 15.301V18.719C6.96854 18.601 6.78187 18.458 6.62995 18.272C6.24568 17.805 6.09773 17.208 6.21489 16.595Z" fill="#333333"/>
<path d="M31.6295 34.072C31.1559 31.689 29.3219 29.842 26.9557 29.366L21.0705 28.181V28H19.0846V28.877L18.463 31.381L16.1057 29.798L13.7484 31.381L13.1268 28.877V28H11.1409V28.198L6.13943 29.316C3.83776 29.832 2.05144 31.669 1.58972 33.997L0 42H33.2044L31.6295 34.072ZM15.1127 40H2.42281L3.5369 34.39C3.84571 32.838 5.03527 31.613 6.57037 31.27L11.4061 30.188L12.5062 34.62L15.1127 32.869V40ZM17.0987 40V32.869L19.7062 34.619L20.8113 30.167L26.5675 31.327C28.1443 31.644 29.3676 32.876 29.6833 34.465L30.7816 40H17.0987Z" fill="#333333"/>
<path d="M14.6163 22H15.1127V24H17.0987V22H17.5951C19.5115 22 21.0705 20.43 21.0705 18.5C21.0705 16.57 19.5115 15 17.5951 15H14.6163C13.7951 15 13.1268 14.327 13.1268 13.5C13.1268 12.673 13.7951 12 14.6163 12H17.5951C18.4163 12 19.0846 12.673 19.0846 13.5V14H21.0705V13.5C21.0705 11.57 19.5115 10 17.5951 10H17.0987V8H15.1127V10H14.6163C12.6999 10 11.1409 11.57 11.1409 13.5C11.1409 15.43 12.6999 17 14.6163 17H17.5951C18.4163 17 19.0846 17.673 19.0846 18.5C19.0846 19.327 18.4163 20 17.5951 20H14.6163C13.7951 20 13.1268 19.327 13.1268 18.5V18H11.1409V18.5C11.1409 20.43 12.6999 22 14.6163 22Z" fill="#333333"/>
<path d="M60.4252 54.072C59.9515 51.689 58.1176 49.842 55.7513 49.366L49.8661 48.181V48H47.8802V48.877L47.2586 51.381L44.9013 49.798L42.5441 51.381L41.9225 48.877V48H39.9366V48.198L34.9351 49.316C32.6334 49.832 30.8471 51.669 30.3854 53.997L28.7956 62H62L60.4252 54.072ZM43.9084 60H31.2185L32.3325 54.39C32.6414 52.838 33.8309 51.613 35.366 51.27L40.2017 50.188L41.3019 54.62L43.9084 52.869V60ZM45.8943 60V52.869L48.5018 54.619L49.6069 50.167L55.3631 51.327C56.9399 51.644 58.1632 52.876 58.479 54.465L59.5772 60H45.8943Z" fill="#333333"/>
<path d="M52.3098 25.825C50.5364 22.849 47.2944 21 43.8478 21C38.4054 21 33.9789 25.458 33.9789 30.938V34.367C33.5211 34.881 33.1954 35.512 33.0604 36.218C32.833 37.41 33.1378 38.624 33.8945 39.547C34.4813 40.263 35.2866 40.733 36.1713 40.913C36.36 41.581 36.6688 42.213 37.1156 42.752L40.2662 46.562C41.0239 47.476 42.136 48 43.3176 48H46.4841C47.6657 48 48.7788 47.476 49.5355 46.561L52.6861 42.753C53.1319 42.214 53.4398 41.584 53.6284 40.919C54.4228 40.756 55.1605 40.353 55.7255 39.753C56.4832 38.949 56.8674 37.896 56.8098 36.786C56.7622 35.878 56.3908 35.066 55.8228 34.421V30C55.8228 27.996 54.3513 26.331 52.4389 26.044L52.3098 25.825ZM35.9648 38.72C35.7642 38.602 35.5775 38.459 35.4256 38.273C35.0413 37.805 34.8934 37.208 35.0105 36.595C35.1148 36.048 35.4782 35.586 35.9648 35.302V38.72ZM54.8279 36.891C54.8567 37.447 54.6651 37.975 54.2857 38.376C54.1527 38.517 53.9988 38.627 53.8379 38.722V35.322C54.4029 35.662 54.7941 36.239 54.8279 36.891ZM53.8379 30V33H51.852V39.552C51.852 40.252 51.6068 40.934 51.1619 41.473L48.0113 45.281C47.632 45.737 47.0759 46 46.4851 46H43.3186C42.7278 46 42.1717 45.737 41.7924 45.281L38.6418 41.471C38.1959 40.934 37.9507 40.252 37.9507 39.552V33H35.9648V30.938C35.9648 26.562 39.5017 23 43.8478 23C46.6003 23 49.1909 24.477 50.6078 26.854L51.29 28H51.852C52.9472 28 53.8379 28.897 53.8379 30Z" fill="#333333"/>
<path d="M46.3908 30H45.8943V28H43.9084V30H43.4119C41.4955 30 39.9366 31.57 39.9366 33.5C39.9366 35.43 41.4955 37 43.4119 37H46.3908C47.2119 37 47.8802 37.673 47.8802 38.5C47.8802 39.327 47.2119 40 46.3908 40H43.4119C42.5907 40 41.9225 39.327 41.9225 38.5V38H39.9366V38.5C39.9366 40.43 41.4955 42 43.4119 42H43.9084V44H45.8943V42H46.3908C48.3072 42 49.8661 40.43 49.8661 38.5C49.8661 36.57 48.3072 35 46.3908 35H43.4119C42.5907 35 41.9225 34.327 41.9225 33.5C41.9225 32.673 42.5907 32 43.4119 32H46.3908C47.2119 32 47.8802 32.673 47.8802 33.5V34H49.8661V33.5C49.8661 31.57 48.3072 30 46.3908 30Z" fill="#333333"/>
<path d="M47.7799 13.864C47.2298 14.408 46.8873 15.164 46.8873 16C46.8873 17.654 48.2238 19 49.8661 19C51.5085 19 52.845 17.654 52.845 16C52.845 14.346 51.5085 13 49.8661 13C49.7688 13 49.6775 13.02 49.5831 13.029C45.7871 5.098 37.7888 0 29.0141 0V2C37.0143 2 44.3066 6.641 47.7799 13.864ZM49.8661 15C50.4132 15 50.8591 15.448 50.8591 16C50.8591 16.552 50.4132 17 49.8661 17C49.319 17 48.8732 16.552 48.8732 16C48.8732 15.448 49.319 15 49.8661 15Z" fill="#333333"/>
<path d="M16.2119 49.131C16.7591 48.587 17.0987 47.833 17.0987 47C17.0987 45.346 15.7621 44 14.1198 44C12.4775 44 11.1409 45.346 11.1409 47C11.1409 48.654 12.4775 50 14.1198 50C14.2201 50 14.3144 49.98 14.4117 49.97C16.904 55.168 21.3276 59.332 26.6677 61.431L27.3906 59.568C22.5232 57.655 18.4918 53.864 16.2119 49.131ZM14.1198 48C13.5727 48 13.1268 47.552 13.1268 47C13.1268 46.448 13.5727 46 14.1198 46C14.6669 46 15.1127 46.448 15.1127 47C15.1127 47.552 14.6669 48 14.1198 48Z" fill="#333333"/>
</svg>
