<svg width="62" height="62" viewBox="0 0 62 62" fill="none" xmlns="http://www.w3.org/2000/svg">
<path d="M42.9997 24.0002C37.9237 24.0002 33.3167 26.0132 29.9047 29.2682C32.4357 26.5812 33.9997 22.9742 33.9997 19.0002C33.9997 15.4022 32.6957 11.9172 30.3277 9.18618L28.8167 10.4972C30.8697 12.8642 31.9997 15.8842 31.9997 19.0002C31.9997 26.1682 26.1677 32.0002 18.9997 32.0002C15.8837 32.0002 12.8638 30.8702 10.4968 28.8172L9.18575 30.3282C11.9168 32.6962 15.4017 34.0002 18.9997 34.0002C22.9737 34.0002 26.5807 32.4362 29.2677 29.9052C26.0127 33.3172 23.9997 37.9242 23.9997 43.0002C23.9997 53.4772 32.5227 62.0002 42.9997 62.0002C53.4767 62.0002 61.9997 53.4772 61.9997 43.0002C61.9997 32.5232 53.4767 24.0002 42.9997 24.0002ZM42.9997 60.0002C33.6257 60.0002 25.9997 52.3742 25.9997 43.0002C25.9997 33.6262 33.6257 26.0002 42.9997 26.0002C52.3737 26.0002 59.9997 33.6262 59.9997 43.0002C59.9997 52.3742 52.3737 60.0002 42.9997 60.0002Z" fill="#333333"/>
<path d="M51 19L61.667 11L51 3V7H41V9H53V7L58.333 11L53 15V13H41V15H51V19Z" fill="#333333"/>
<path d="M10.9999 43L0.332945 51L10.9999 59V55H20.9999V53H8.99994V55L3.66695 51L8.99994 47V49H20.9999V47H10.9999V43Z" fill="#333333"/>
<path d="M43 30C46.117 30 49.136 31.13 51.503 33.184L52.814 31.673C50.083 29.304 46.598 28 43 28C34.729 28 28 34.729 28 43C28 46.599 29.304 50.083 31.672 52.813L33.183 51.502C31.13 49.137 30 46.117 30 43C30 35.832 35.832 30 43 30Z" fill="#333333"/>
<path d="M54.3278 33.1869L52.8168 34.4979C54.8698 36.8629 55.9998 39.8829 55.9998 42.9999C55.9998 50.1679 50.1678 55.9999 42.9998 55.9999C39.8828 55.9999 36.8638 54.8689 34.4968 52.8159L33.1858 54.3279C35.9168 56.6959 39.4018 57.9999 42.9998 57.9999C51.2708 57.9999 57.9998 51.2709 57.9998 42.9999C57.9998 39.4009 56.6958 35.9169 54.3278 33.1869Z" fill="#333333"/>
<path d="M50 40V39C50 36.243 47.757 34 45 34H44V32H42V34H41C38.243 34 36 36.243 36 39C36 41.757 38.243 44 41 44H45C46.654 44 48 45.346 48 47C48 48.654 46.654 50 45 50H41C39.346 50 38 48.654 38 47V46H36V47C36 49.757 38.243 52 41 52H42V54H44V52H45C47.757 52 50 49.757 50 47C50 44.243 47.757 42 45 42H41C39.346 42 38 40.654 38 39C38 37.346 39.346 36 41 36H45C46.654 36 48 37.346 48 39V40H50Z" fill="#333333"/>
<path d="M26 16V15C26 12.243 23.757 10 21 10H20V8H18V10H17C14.243 10 12 12.243 12 15C12 17.757 14.243 20 17 20H21C22.654 20 24 21.346 24 23C24 24.654 22.654 26 21 26H17C15.346 26 14 24.654 14 23V22H12V23C12 25.757 14.243 28 17 28H18V30H20V28H21C23.757 28 26 25.757 26 23C26 20.243 23.757 18 21 18H17C15.346 18 14 16.654 14 15C14 13.346 15.346 12 17 12H21C22.654 12 24 13.346 24 15V16H26Z" fill="#333333"/>
<path d="M28.814 7.672C26.083 5.304 22.598 4 19 4C10.729 4 4 10.729 4 19C4 22.598 5.304 26.083 7.672 28.814L9.183 27.503C7.13 25.136 6 22.116 6 19C6 11.832 11.832 6 19 6C22.116 6 25.136 7.13 27.503 9.183L28.814 7.672Z" fill="#333333"/>
<path d="M19 36C9.626 36 2 28.374 2 19C2 9.626 9.626 2 19 2C28.374 2 36 9.626 36 19C36 20.24 35.851 21.519 35.557 22.803L37.506 23.249C37.834 21.819 38 20.39 38 19C38 8.523 29.477 0 19 0C8.523 0 0 8.523 0 19C0 29.477 8.523 38 19 38C20.386 38 21.815 37.834 23.249 37.507L22.804 35.558C21.517 35.851 20.237 36 19 36Z" fill="#333333"/>
<path d="M49 17H47V19H49V17Z" fill="#333333"/>
<path d="M45 17H43V19H45V17Z" fill="#333333"/>
<path d="M19 43H17V45H19V43Z" fill="#333333"/>
<path d="M15 43H13V45H15V43Z" fill="#333333"/>
</svg>
