<svg width="62" height="62" viewBox="0 0 62 62" fill="none" xmlns="http://www.w3.org/2000/svg">
<path d="M60 52V17C60 14.2432 57.7568 12 55 12H52V0H10V12H7C4.24316 12 2 14.2432 2 17V52H0V57C0 59.7568 2.24316 62 5 62H57C59.7568 62 62 59.7568 62 57V52H60ZM55 14C56.6538 14 58 15.3462 58 17V52H56V18C56 16.897 55.103 16 54 16H52V14H55ZM22 54H40V55C40 55.5508 39.5518 56 39 56H23C22.4482 56 22 55.5508 22 55V54ZM8 52V18H10V46H52V18H54V52H8ZM12 10H50V44H12V10ZM50 2V8H12V2H50ZM4 17C4 15.3462 5.34619 14 7 14H10V16H8C6.89697 16 6 16.897 6 18V52H4V17ZM60 57C60 58.6538 58.6538 60 57 60H5C3.34619 60 2 58.6538 2 57V54H20V55C20 56.6538 21.3462 58 23 58H39C40.6538 58 42 56.6538 42 55V54H60V57Z" fill="#0939A8"/>
<path d="M6 56H8V58H6V56Z" fill="#0939A8"/>
<path d="M10 56H12V58H10V56Z" fill="#0939A8"/>
<path d="M14 56H16V58H14V56Z" fill="#0939A8"/>
<path d="M14 4H16V6H14V4Z" fill="#0939A8"/>
<path d="M18 4H20V6H18V4Z" fill="#0939A8"/>
<path d="M22 4H24V6H22V4Z" fill="#0939A8"/>
<path d="M38 14C38 15.103 37.103 16 36 16C34.897 16 34 15.103 34 14V12H28V14C28 15.103 27.103 16 26 16C24.897 16 24 15.103 24 14V12H18V24.3511C18 32.3481 23.0981 39.4199 30.6841 41.9492L31 42.0542L31.3159 41.9492C38.9019 39.4199 44 32.3481 44 24.3511V12H38V14ZM40 14H42V24.3511C42 31.374 37.5942 37.5981 31 39.9419C24.4058 37.5972 20 31.374 20 24.3511V14H22C22 16.2061 23.7939 18 26 18C28.2061 18 30 16.2061 30 14H32C32 16.2061 33.7939 18 36 18C38.2061 18 40 16.2061 40 14Z" fill="#0939A8"/>
<path d="M31 17.7642L28.3818 23H22.9429L26.479 27.5L22.9419 32H28.3809L31 37.2358L33.6182 32H39.0571L35.521 27.5L39.0571 23H33.6182L31 17.7642ZM34.9419 30H32.3809L31 32.7642L29.6182 30H27.0571L29.021 27.5L27.0581 25H29.6191L31 22.2358L32.3818 25H34.9429L32.979 27.5L34.9419 30Z" fill="#0939A8"/>
</svg>
