<svg width="32" height="32" viewBox="0 0 32 32" fill="none" xmlns="http://www.w3.org/2000/svg">
<path d="M21 4.75048C21 3.07831 19.6568 1.72278 18 1.72278C16.3431 1.72278 15 3.07831 15 4.75048V14.8428C12.2399 14.8462 10.0033 17.1034 9.99998 19.889V25.2894L14 30.3356V31.9998H16V29.6271L12 24.5809V19.889C12 18.2168 13.3431 16.8613 15 16.8613V23.9259H17V4.75048C17 4.19307 17.4477 3.74125 18 3.74125C18.5523 3.74125 19 4.19307 19 4.75048V13.5954L22.27 14.4956L22.796 12.5478L20.996 12.0533L21 4.75048Z" fill="#595959"/>
<path d="M28.585 14.1415L28.059 16.0883L30 16.6232V25.6084L27 29.6453V31.9999H29V30.3175L32 26.2805V15.0811L28.585 14.1415Z" fill="#595959"/>
<path d="M24.1991 15.0223L26.1287 15.553L26.6545 13.6056L24.7249 13.0749L24.1991 15.0223Z" fill="#595959"/>
<path d="M9.70696 7.06421L8.29296 8.49127L9.58596 9.7962H3.99997V11.8147H9.58596L8.29296 13.1196L9.70696 14.5467L13.414 10.8054L9.70696 7.06421Z" fill="#595959"/>
<path d="M2 9.79675H0V11.8152H2V9.79675Z" fill="#595959"/>
<path d="M5.707 6.0554L4.41401 4.75046H9V2.732H4.41401L5.707 1.42706L4.29301 0L0.586014 3.74123L4.29301 7.48246L5.707 6.0554Z" fill="#595959"/>
<path d="M13 2.73267H11V4.75113H13V2.73267Z" fill="#595959"/>
</svg>
