<svg width="24" height="24" viewBox="0 0 24 24" fill="none" xmlns="http://www.w3.org/2000/svg">
<path d="M15 3.00001V4.05001C13.86 4.28199 13 5.29201 13 6.50003C13 7.87802 14.121 9.00002 15.5 9.00002H16.5C16.775 9.00002 17 9.22403 17 9.50003C17 9.77603 16.775 10.0001 16.5 10.0001H15V13.0001H17V11.9501C18.14 11.7181 19.0001 10.7081 19.0001 9.50003C19.0001 8.12205 17.879 7.00004 16.5001 7.00004H15.5001C15.2251 7.00004 15.0001 6.77603 15.0001 6.50003C15.0001 6.22403 15.225 6.00001 15.5 6.00001H19.0001V3.99999H17V3.00001H15Z" fill="#0939A8"/>
<path d="M19 18C19 18.5511 18.551 19 18 19H13V21H17C17 21.5511 16.551 22 16 22H8.41403L6.00001 19.5861V14.414L8.41403 12H12V13C12 13.551 11.551 14 11 14H9.00002V16H11C12.654 16 14 14.654 14 13V11C14 10.448 13.553 10 13.0001 10H8.00003C7.73401 10 7.48005 10.105 7.29301 10.294L5.46001 12.126C5.31999 12.052 5.16901 12 5.00003 12H0.999986C0.447001 12 0 12.448 0 13V21C0 21.552 0.447001 22 0.999986 22H4.99998C5.16896 22 5.31999 21.948 5.45996 21.874L7.29297 23.708C7.47995 23.894 7.73397 24 7.99998 24H16C17.654 24 19 22.654 19 21V20.816C20.1621 20.4021 21 19.303 21 18V17H19V18ZM3.99999 20.0001H2.00002V14H4.00004L3.99999 20.0001Z" fill="#0939A8"/>
<path d="M16 0C11.589 0 7.99998 3.59002 7.99998 8.00003C7.99998 8.33903 8.02797 8.67105 8.06898 9.00002H10.09C10.035 8.674 10 8.341 10 8.00003C10 4.69201 12.691 2.00002 16 2.00002C19.309 2.00002 22 4.69201 22 8.00003C22 11.309 19.309 14 16 14C15.658 14 15.326 13.965 15 13.91V15.9311C15.328 15.9721 15.66 16.0001 16 16.0001C20.411 16.0001 24 12.4111 24 8.00003C24 3.59002 20.4111 0 16 0Z" fill="#0939A8"/>
</svg>
