<svg width="13" height="11" viewBox="0 0 13 11" fill="none" xmlns="http://www.w3.org/2000/svg">
<path d="M12.5 0H0.5C0.2 0 0 0.2 0 0.5V10.5C0 10.8 0.2 11 0.5 11H12.5C12.8 11 13 10.8 13 10.5V0.5C13 0.2 12.8 0 12.5 0ZM8.3 2.45L6.65 3.65C6.55 3.7 6.45 3.7 6.35 3.65L4.7 2.45C4.5 2.3 4.6 2 4.85 2H8.15C8.4 2 8.5 2.3 8.3 2.45ZM2 8.75V3.45C2 3.25 2.25 3.15 2.4 3.25L6.2 6C6.4 6.15 6.6 6.15 6.8 6L10.6 3.25C10.75 3.15 11 3.25 11 3.45V8.75C11 8.9 10.9 9 10.75 9H2.25C2.1 9 2 8.9 2 8.75Z" fill="#EA2027"/>
</svg>
