<svg width="22" height="10" viewBox="0 0 22 10" fill="none" xmlns="http://www.w3.org/2000/svg">
<path d="M21.7879 0.384015C21.5989 0.141005 21.3079 0 20.9999 0H9.99938C9.54036 0 9.14036 0.312997 9.02935 0.758046L7.02925 8.75839C6.95425 9.05742 7.02227 9.37341 7.21127 9.61544C7.40028 9.85845 7.6913 10.0004 7.99933 10.0004H18.9998C19.4588 10.0004 19.8588 9.68744 19.9699 9.24239L21.97 1.24205C22.0449 0.944007 21.9779 0.625994 21.7879 0.384015ZM17.8797 2.00005L14.1896 4.63617L12.0805 2.00005H17.8797ZM18.2188 8.0003H9.28038L10.4804 3.20108L13.2196 6.62521C13.4155 6.87122 13.7066 7.00022 13.9996 7.00022C14.2016 7.00022 14.4046 6.93924 14.5806 6.81323L19.3709 3.39211L18.2188 8.0003Z" fill="#595959"/>
<path d="M0 9.0014H5.60124L6.00026 7.0013H0.400002L0 9.0014Z" fill="#595959"/>
<path d="M1.65594 6.00126H6.25714L6.65616 4.00116H2.05697L1.65594 6.00126Z" fill="#595959"/>
<path d="M4.69624 1.00103L4.29619 3.00113H6.89632L7.29633 1.00103H4.69624Z" fill="#595959"/>
</svg>
