<svg width="16" height="14" viewBox="0 0 16 14" fill="none" xmlns="http://www.w3.org/2000/svg">
<path d="M15.6133 13.9722L10.6856 11.5295L10.6484 0.456153C10.6476 0.197652 10.9093 0.027317 11.1352 0.139337L15.807 2.45586C15.9246 2.51418 15.9994 2.63689 15.9994 2.77146V13.7219C15.9994 13.9266 15.7921 14.0609 15.6133 13.9722Z" fill="#00FD8D"/>
<path d="M10.6868 11.5295L5.35352 8.88526L10.4879 0.168443C10.5786 0.0144581 10.7679 -0.0434383 10.9254 0.0346233L15.6624 2.38356C15.8435 2.47336 15.9098 2.70473 15.8051 2.88156L10.6868 11.5295Z" fill="#00E470"/>
<path d="M10.6856 11.5295L5.35228 8.88529L0.46378 0.676747C0.327581 0.448054 0.564567 0.17727 0.799115 0.293566L5.35228 2.55127L10.6856 11.5295Z" fill="#00C967"/>
<path d="M4.96676 13.9722L0.152625 11.585C0.0593178 11.5387 0 11.4414 0 11.3347V0.324797C0 0.126667 0.200721 -0.00350588 0.373918 0.0823954L5.35284 2.55123V13.7218C5.35284 13.9265 5.14557 14.0608 4.96676 13.9722Z" fill="#00AD6C"/>
</svg>
