<svg width="24" height="24" viewBox="0 0 24 24" fill="none" xmlns="http://www.w3.org/2000/svg">
<path d="M9.50154 8.09922H13.0017V6.07438H11.0016V5.06199H9.00151V6.12602C7.86146 6.36088 7.00141 7.38343 7.00141 8.60539C7.00141 10.0005 8.12345 11.1364 9.5015 11.1364H10.5016C10.7776 11.1364 11.0016 11.3632 11.0016 11.6426C11.0016 11.922 10.7776 12.1488 10.5016 12.1488H7.00141V14.1737H9.00151V15.1861H11.0016V14.122C12.1417 13.8872 13.0017 12.8636 13.0017 11.6427C13.0017 10.2476 11.8806 9.11166 10.5016 9.11166H9.50159C9.22656 9.11166 9.00155 8.88486 9.00155 8.60544C9.00155 8.32601 9.22651 8.09922 9.50154 8.09922Z" fill="#009432"/>
<path d="M9.06139 18.1626C5.09123 17.6897 2.00006 14.2678 2.00006 10.124C2.00006 5.6583 5.5892 2.02474 10.0004 2.02474C14.4117 2.02474 18.0008 5.6583 18.0008 10.1241C18.0008 10.4673 17.9728 10.8044 17.9318 11.1365H19.9509C19.9829 10.8034 20.0009 10.4662 20.0009 10.1241C20.0009 4.54165 15.5157 3.71074e-10 10.0005 3.71074e-10C4.48618 -4.74563e-05 0 4.54165 0 10.1241C0 14.7832 3.12712 18.7052 7.36435 19.8796L9.06139 18.1626Z" fill="#009432"/>
<path d="M17.9997 13.1601V15.185H20.5858L16.9997 18.8155L14.7066 16.494C14.3156 16.0982 13.6836 16.0982 13.2926 16.494L7.2923 22.5685L8.70635 24L13.9996 18.6413L16.2927 20.9618C16.6837 21.3576 17.3157 21.3576 17.7067 20.9618L21.9999 16.6165V19.2346H24V13.1601H17.9997Z" fill="#009432"/>
</svg>
