<svg width="18" height="24" viewBox="0 0 18 24" fill="none" xmlns="http://www.w3.org/2000/svg">
<path d="M10.0002 9.99968H8.00016V11.0507C6.86014 11.2827 6.00011 12.2927 6.00011 13.4997C6.00011 14.8777 7.12213 15.9997 8.50014 15.9997H9.50014C9.77615 15.9997 10.0002 16.2238 10.0002 16.4998C10.0002 16.7768 9.77615 16.9998 9.50014 16.9998H6.00006V18.9998H8.00011V19.9999H10.0002V18.9488C11.1402 18.7169 12.0002 17.7068 12.0002 16.4998C12.0002 15.1218 10.8782 13.9998 9.50019 13.9998H8.50019C8.22418 13.9998 8.00016 13.7768 8.00016 13.4998C8.00016 13.2238 8.22418 12.9997 8.50019 12.9997H12.0003V10.9997H10.0002V9.99968Z" fill="#009432"/>
<path d="M13.8743 7.44467L16.1973 6.97966L15.8043 5.01861L12.3393 5.71162L14.8583 1.51454C15.0794 1.14554 15.0404 0.67753 14.7623 0.351508C14.4853 0.0245022 14.0303 -0.0864998 13.6293 0.0704874L9.00021 1.92152L4.37211 0.0705343C3.97409 -0.0864529 3.51709 0.0235178 3.23907 0.351555C2.96007 0.677577 2.92205 1.14559 3.14307 1.51459L5.66213 5.71167L2.19609 5.01866L1.80406 6.97971L4.12709 7.44472C1.64703 9.04876 0 11.8328 0 14.9998C0 19.9619 4.03807 24 9.00016 24C13.9623 24 18.0003 19.9619 18.0003 14.9998C18.0004 11.8327 16.3533 9.04867 13.8743 7.44467ZM8.6282 3.92757C8.86722 4.02259 9.13221 4.02259 9.37123 3.92757L11.6153 3.03056L10.4342 4.99958H7.56717L6.38515 3.03056L8.6282 3.92757ZM9.00021 21.9999C5.14012 21.9999 2.0001 18.8609 2.0001 14.9998C2.0001 11.1398 5.14017 7.99973 9.00021 7.99973C12.8602 7.99973 16.0003 11.1398 16.0003 14.9998C16.0003 18.8599 12.8603 21.9999 9.00021 21.9999Z" fill="#009432"/>
</svg>
