<svg width="24" height="24" viewBox="0 0 24 24" fill="none" xmlns="http://www.w3.org/2000/svg">
<path d="M22.0009 21.9999V8.99934C22.0009 8.4483 21.5539 7.99931 21.0009 7.99931H17.0007C16.4477 7.99931 16.0007 8.44835 16.0007 8.99934V21.9999H15.0006V12.9995C15.0006 12.4484 14.5536 11.9995 14.0006 11.9995H10.0004C9.44744 11.9995 9.00042 12.4485 9.00042 12.9995V21.9999H8.00039V16.9997C8.00039 16.4486 7.55337 15.9997 7.00037 15.9997H3.00012C2.44712 15.9997 2.0001 16.4487 2.0001 16.9997V21.9999H0V24H24.001V21.9999H22.0009ZM6.00025 21.9999H4.00015V17.9998H6.00025V21.9999ZM13.0005 21.9999H11.0004V13.9996H13.0005V21.9999ZM20.0008 21.9999H18.0007V9.99941H20.0008V21.9999Z" fill="#009432"/>
<path d="M3.70717 14.7066L15.0006 3.41414V6.00025H17.0007V0H11.0005V2.00005H13.5866L2.29308 13.2925L3.70717 14.7066Z" fill="#009432"/>
</svg>
