<svg width="24" height="24" viewBox="0 0 24 24" fill="none" xmlns="http://www.w3.org/2000/svg">
<path d="M22 21.9752V16.9132C22 16.3554 21.553 15.9008 21 15.9008H17C16.448 15.9008 16 16.3554 16 16.9132V21.9752H15V12.8636C15 12.3058 14.553 11.8512 14 11.8512H10C9.44803 11.8512 9.00005 12.3058 9.00005 12.8636V21.9752H8.00006V8.81398C8.00006 8.25613 7.55306 7.80159 7.00008 7.80159H3C2.448 7.80159 2.00002 8.25617 2.00002 8.81398V21.9752H0V24H24V21.9752H22ZM6 21.9752H3.99998V9.82636H6V21.9752ZM13 21.9752H11V13.876H13V21.9752ZM20 21.9752H18V17.9256H20V21.9752Z" fill="#009432"/>
<path d="M16 12.8636V14.8884H22V8.81398H20V11.432L8.707 0L7.29301 1.43152L18.586 12.8636H16Z" fill="#009432"/>
</svg>
