<svg width="20" height="19" viewBox="0 0 20 19" fill="none" xmlns="http://www.w3.org/2000/svg">
<path d="M18.5649 7.18009L20 5.74388L17.1308 2.87142L18.5649 1.43621L17.1298 0L7.59873 9.54064L7.60077 9.54268C6.85481 9.10899 5.99923 8.84284 5.07462 8.84284C2.27239 8.84284 0 11.117 0 13.9214C0 16.7258 2.27239 19 5.07462 19C7.8768 19 10.1492 16.7258 10.1492 13.9214C10.1492 12.7787 9.75851 11.7356 9.12111 10.8874L12.8245 7.18209L15.6937 10.0546L17.1298 8.61935L14.2596 5.74488L15.6947 4.30867L18.5649 7.18009ZM5.07462 16.9685C3.39291 16.9685 2.02986 15.6044 2.02986 13.9214C2.02986 12.2384 3.39291 10.8742 5.07462 10.8742C6.75633 10.8742 8.11938 12.2384 8.11938 13.9214C8.11938 15.6045 6.75633 16.9685 5.07462 16.9685Z" fill="#595959"/>
</svg>
