<svg width="20" height="20" viewBox="0 0 20 20" fill="none" xmlns="http://www.w3.org/2000/svg">
<path d="M16.7513 5.16719C16.7851 4.89199 16.8028 4.6118 16.8028 4.32746C16.8028 1.9375 14.8654 0 12.4754 0H5.24327C4.78834 0 4.39995 0.328516 4.32448 0.777109L1.65963 16.616C1.56401 17.1843 2.00213 17.7023 2.57842 17.7023H5.22338C5.6783 17.7023 6.07401 17.374 6.14944 16.9254C6.14944 16.9254 6.15385 16.8991 6.16182 16.8517H6.16186L5.79327 19.0426C5.70905 19.5435 6.09518 20 6.60311 20H8.91705C9.31803 20 9.66037 19.7104 9.72686 19.315L10.3842 15.408C10.4976 14.7345 11.0806 14.2413 11.7636 14.2413H12.3715C15.6734 14.2413 18.3501 11.5646 18.3501 8.26266C18.3501 6.98496 17.7186 5.85555 16.7513 5.16719Z" fill="#002987"/>
<path d="M16.7537 5.16602C16.3399 8.53239 13.4708 11.1391 9.99256 11.1391H7.9744C7.51889 11.1391 7.12549 11.4425 7.00209 11.8715L5.79576 19.0414C5.71151 19.5423 6.09764 19.9989 6.60557 19.9989H8.91951C9.32049 19.9989 9.66283 19.7093 9.72932 19.3139L10.3867 15.4069C10.5 14.7333 11.0831 14.2402 11.766 14.2402H12.3739C15.6759 14.2402 18.3526 11.5634 18.3526 8.26149C18.3526 6.98379 17.721 5.85438 16.7537 5.16602Z" fill="#0085CC"/>
<path d="M7.97234 11.1401H9.99051C13.4688 11.1401 16.3379 8.53344 16.7517 5.16711C16.1311 4.72547 15.3726 4.46484 14.5529 4.46484H9.28527C8.68555 4.46484 8.17348 4.89793 8.07395 5.48934L7 11.8725C7.1234 11.4435 7.51684 11.1401 7.97234 11.1401Z" fill="#00186A"/>
</svg>
