<svg width="20" height="20" viewBox="0 0 20 20" fill="none" xmlns="http://www.w3.org/2000/svg">
<path d="M17 3.99999V0.999986H15V3.99999H12V6.00001H15V9.00001H17V6.00001H20V3.99999H17Z" fill="#595959"/>
<path d="M8.00003 3C8.00003 1.34602 6.65401 0 5.00002 0C3.34604 0 2.00002 1.34602 2.00002 3C2.00002 4.65399 3.34604 6.00001 5.00002 6.00001C6.65401 6.00001 8.00003 4.65399 8.00003 3ZM5.00002 3.99999C4.44901 3.99999 4.00004 3.55097 4.00004 3C4.00004 2.44899 4.44905 2.00002 5.00002 2.00002C5.55099 2.00002 6.00001 2.44899 6.00001 3C6.00001 3.55102 5.55099 3.99999 5.00002 3.99999Z" fill="#595959"/>
<path d="M5.00002 6.00001C2.24302 6.00001 0 8.24303 0 11V14C0 14.552 0.447985 15 0.999986 15H1.99997V19C1.99997 19.552 2.44796 20 2.99996 20H6.99995C7.55195 20 7.99994 19.552 7.99994 19V15H9.00002C9.55202 15 10 14.552 10 14V11C10 8.24303 7.75703 6.00001 5.00002 6.00001ZM8.00003 13H7.00004C6.44804 13 6.00006 13.448 6.00006 14V18H3.99999V14C3.99999 13.448 3.55201 13.0001 3.00001 13.0001H2.00002V11C2.00002 9.34605 3.34604 8.00003 5.00002 8.00003C6.65401 8.00003 8.00003 9.34605 8.00003 11V13Z" fill="#595959"/>
</svg>
