<svg width="18" height="22" viewBox="0 0 18 22" fill="none" xmlns="http://www.w3.org/2000/svg">
<path d="M6.99997 8.99999H3.99998V11H6.99997V8.99999Z" fill="#595959"/>
<path d="M6.99997 12H3.99998V14H6.99997V12Z" fill="#595959"/>
<path d="M6.99997 15H3.99998V17H6.99997V15Z" fill="#595959"/>
<path d="M14 8.99999H8.99999V17H14V8.99999Z" fill="#595959"/>
<path d="M13.414 0H1.99997C0.896999 0 0 0.897983 0 2.00001V20C0 21.103 0.896999 22 2.00001 22H16C17.103 22 18 21.103 18 20V4.58601L13.414 0ZM1.99997 20V2.00001H11.9999V5.99999H16L16.0009 20H1.99997Z" fill="#595959"/>
</svg>
