<svg width="62" height="48" viewBox="0 0 62 48" fill="none" xmlns="http://www.w3.org/2000/svg">
<path d="M57 0H5C2.24316 0 0 2.24316 0 5V37C0 39.7568 2.24316 42 5 42H18V46H14V48H48V46H44V42H57C59.7568 42 62 39.7568 62 37V5C62 2.24316 59.7568 0 57 0ZM5 2H57C58.6538 2 60 3.34619 60 5V32H17V29.2769L14.4961 28.4502C14.2549 27.6001 13.9131 26.7842 13.502 26H36V4H6V19.6611C5.84912 19.6118 5.70312 19.5479 5.54883 19.5039L4.72314 17H2V5C2 3.34619 3.34619 2 5 2ZM2 25C5.85986 25 9 28.1411 9 32H2V25ZM2 23.0068V19H3.27686L3.99609 21.1792L4.54004 21.3071C5.67676 21.5771 6.76123 22.0269 7.76221 22.644L8.23779 22.938L10.29 21.9048L12.0962 23.7119L11.063 25.7642L11.356 26.2402C11.9741 27.2402 12.4229 28.3242 12.6919 29.4619L12.8208 30.0059L15 30.7231V32H11C11 27.041 6.91992 23.0132 2 23.0068ZM10.6812 19.4692L8.32422 20.6558C8.21924 20.5962 8.10693 20.5542 8 20.498V6H34V24H14.189L14.5322 23.3179L10.6812 19.4692ZM42 46H20V42H42V46ZM57 40H5C3.34619 40 2 38.6538 2 37V34H60V37C60 38.6538 58.6538 40 57 40Z" fill="#009432"/>
<path d="M48 36H50V38H48V36Z" fill="#009432"/>
<path d="M52 36H54V38H52V36Z" fill="#009432"/>
<path d="M56 36H58V38H56V36Z" fill="#009432"/>
<path d="M34 28H36V30H34V28Z" fill="#009432"/>
<path d="M30 28H32V30H30V28Z" fill="#009432"/>
<path d="M22 28H28V30H22V28Z" fill="#009432"/>
<path d="M56 9H54V16H52V4H50V16H48V12H46V16H44V7H42V16H40V4H38V18H56V9Z" fill="#009432"/>
<path d="M56 20H38V30H56V20ZM54 28H40V22H54V28Z" fill="#009432"/>
<path d="M10 8H12V10H10V8Z" fill="#009432"/>
<path d="M14 8H32V10H14V8Z" fill="#009432"/>
<path d="M10 12H32V14H10V12Z" fill="#009432"/>
<path d="M10 16H14V18H10V16Z" fill="#009432"/>
<path d="M16 16H32V18H16V16Z" fill="#009432"/>
<path d="M16 20H32V22H16V20Z" fill="#009432"/>
</svg>
