<svg width="62" height="62" viewBox="0 0 62 62" fill="none" xmlns="http://www.w3.org/2000/svg">
<path d="M43 54.026H60V57.0163C60 58.6649 58.654 60.0065 57 60.0065H5C3.346 60.0065 2 58.6649 2 57.0163V54.026H19V52.0325H0V57.0163C0 59.7643 2.243 62 5 62H57C59.757 62 62 59.7643 62 57.0163V52.0325H43V54.026Z" fill="#009432"/>
<path d="M24 58.013H38C39.654 58.013 41 56.6714 41 55.0228V52.0325H21V55.0228C21 56.6714 22.346 58.013 24 58.013ZM23 54.026H39V55.0228C39 55.572 38.552 56.0195 38 56.0195H24C23.448 56.0195 23 55.572 23 55.0228V54.026Z" fill="#009432"/>
<path d="M4 19.1397C4 17.491 5.346 16.1494 7 16.1494H30V14.1559H7C4.243 14.1559 2 16.3916 2 19.1397V50.039H4V19.1397Z" fill="#009432"/>
<path d="M60 31.1007H58V50.039H60V31.1007Z" fill="#009432"/>
<path d="M30 18.1429H8C6.897 18.1429 6 19.037 6 20.1364V50.039H8V20.1364H30V18.1429Z" fill="#009432"/>
<path d="M56 34.091H54V50.039H56V34.091Z" fill="#009432"/>
<path d="M60.211 4.18835C55.691 4.18835 51.315 2.86766 47.555 0.368798L47 0L46.445 0.368798C42.686 2.86766 38.309 4.18835 33.789 4.18835H32V19.1396C32 27.3838 38.729 34.0909 47 34.0909C55.271 34.0909 62 27.3838 62 19.1396V4.18835H60.211ZM60 19.1396C60 26.2844 54.168 32.0974 47 32.0974C39.832 32.0974 34 26.2844 34 19.1396V6.18086C38.621 6.14199 43.097 4.83425 47 2.38523C50.903 4.83425 55.379 6.14199 60 6.18086V19.1396Z" fill="#009432"/>
<path d="M46.524 4.96978C43.519 6.5895 40.276 7.60819 36.885 7.99792L36 8.09959V19.1396C36 25.1849 40.935 30.1039 47 30.1039C53.065 30.1039 58 25.1849 58 19.1396V8.09959L57.114 7.99692C53.723 7.60719 50.48 6.58851 47.475 4.96879L47 4.71362L46.524 4.96978ZM56 9.86284V19.1396C56 24.0855 51.963 28.1104 47 28.1104C42.037 28.1104 38 24.0855 38 19.1396V9.86284C41.148 9.40334 44.169 8.4335 47 6.97525C49.831 8.4335 52.852 9.40234 56 9.86284Z" fill="#009432"/>
<path d="M42.5998 18.3423L41.3998 19.9371L46.2268 23.5453L53.8188 12.7335L52.1808 11.5912L45.7728 20.7145L42.5998 18.3423Z" fill="#009432"/>
<path d="M15 50.039H27C28.654 50.039 30 48.6974 30 47.0487V37.0812C30 35.7834 29.161 34.687 28 34.2744V31.1007C28 27.2532 24.859 24.1234 21 24.1234C17.141 24.1234 14 27.2532 14 31.1007V34.2744C12.839 34.687 12 35.7834 12 37.0812V47.0487C12 48.6974 13.346 50.039 15 50.039ZM16 31.1007C16 28.3527 18.243 26.1169 21 26.1169C23.757 26.1169 26 28.3527 26 31.1007V34.091H16V31.1007ZM14 37.0812C14 36.532 14.448 36.0845 15 36.0845H27C27.552 36.0845 28 36.532 28 37.0812V47.0487C28 47.5979 27.552 48.0455 27 48.0455H15C14.448 48.0455 14 47.5979 14 47.0487V37.0812Z" fill="#009432"/>
<path d="M20 43.8751V46.052H22V43.8751C23.161 43.4624 24 42.366 24 41.0682C24 39.4196 22.654 38.078 21 38.078C19.346 38.078 18 39.4196 18 41.0682C18 42.366 18.839 43.4624 20 43.8751ZM21 40.0715C21.552 40.0715 22 40.519 22 41.0682C22 41.6174 21.552 42.065 21 42.065C20.448 42.065 20 41.6174 20 41.0682C20 40.519 20.448 40.0715 21 40.0715Z" fill="#009432"/>
<path d="M10 56.0195H8V58.013H10V56.0195Z" fill="#009432"/>
<path d="M14 56.0195H12V58.013H14V56.0195Z" fill="#009432"/>
<path d="M18 56.0195H16V58.013H18V56.0195Z" fill="#009432"/>
</svg>
