<svg width="24" height="22" viewBox="0 0 24 22" fill="none" xmlns="http://www.w3.org/2000/svg">
<path d="M23.999 1.4331L22.5675 0L19.2338 3.3365V0.71553H17.2091V6.79666H23.2833V4.76965H20.6653L23.999 1.4331Z" fill="#595959"/>
<path d="M17.2101 10.8513H16.1978V9.83779C16.1978 8.71986 15.2907 7.81073 14.1731 7.81073H2.02474C0.90709 7.81073 0 8.71986 0 9.83774V19.9729C0 21.0909 0.90709 22 2.02474 22H14.1731C15.2907 22 16.1978 21.0909 16.1978 19.9729V18.9594H17.2101C17.77 18.9594 18.2225 18.5054 18.2225 17.9459V11.8648C18.2225 11.3053 17.77 10.8513 17.2101 10.8513ZM14.17 19.973H2.02474V9.83774H14.1731V10.8512H11.136C10.8667 10.8512 10.6096 10.9577 10.4202 11.1492L7.38314 14.1898C6.98732 14.5851 6.98732 15.2256 7.38314 15.6229L10.4202 18.6635C10.6095 18.852 10.8667 18.9594 11.136 18.9594H14.17V19.973ZM16.1977 16.9324H11.555L9.53031 14.9054L11.555 12.8783H16.1977V16.9324Z" fill="#595959"/>
<path d="M12.1474 15.9188C12.7065 15.9188 13.1597 15.465 13.1597 14.9053C13.1597 14.3455 12.7065 13.8918 12.1474 13.8918C11.5883 13.8918 11.135 14.3455 11.135 14.9053C11.135 15.465 11.5883 15.9188 12.1474 15.9188Z" fill="#595959"/>
</svg>
