<svg width="13" height="21" viewBox="0 0 13 21" fill="none" xmlns="http://www.w3.org/2000/svg">
<path d="M6.50002 0C2.79403 0 0 3.009 0 6.99998V15.5C0 18.687 2.103 21 5.00002 21C7.89703 21 10 18.687 10 15.5V8.00002C10 5.607 8.59303 4.00003 6.50002 4.00003C4.407 4.00003 3 5.60705 3 8.00002V15H5.00002V8.00002C5.00002 7.398 5.14603 6 6.50002 6C7.854 6 8.00002 7.398 8.00002 8.00002V15.5C8.00002 17.243 7.07203 19 5.00002 19C2.928 19 2.00002 17.243 2.00002 15.5V6.99998C2.00002 4.10297 3.89302 1.99997 6.50002 1.99997C9.10702 1.99997 11 4.10297 11 6.99998V14H13V6.99998C13 3.009 10.206 0 6.50002 0Z" fill="#595959"/>
</svg>
