<svg width="163" height="40" viewBox="0 0 163 40" fill="none" xmlns="http://www.w3.org/2000/svg">
<g clip-path="url(#clip0)">
<path d="M42.8367 14.1768H59.341V17.2537H52.8515V34.5506H49.283V17.2537H42.8223V14.1768H42.8367ZM58.6359 19.7986H61.6864V22.6455H61.744C61.8447 22.2429 62.0317 21.8547 62.3051 21.4809C62.5785 21.107 62.9095 20.7476 63.298 20.4456C63.6865 20.1293 64.1182 19.8849 64.593 19.6836C65.0678 19.4967 65.5571 19.396 66.0463 19.396C66.4204 19.396 66.6938 19.4104 66.8377 19.4248C66.9816 19.4392 67.1255 19.4679 67.2838 19.4823V22.6167C67.0535 22.5736 66.8233 22.5448 66.5787 22.5161C66.3341 22.4873 66.1039 22.4729 65.8736 22.4729C65.3269 22.4729 64.8088 22.588 64.3196 22.8036C63.8304 23.0193 63.4131 23.35 63.0534 23.767C62.6936 24.1983 62.4059 24.7159 62.19 25.3486C61.9742 25.9812 61.8735 26.7001 61.8735 27.5197V34.5362H58.6215V19.7986H58.6359ZM82.2341 34.5506H79.0397V32.4945H78.9821C78.5792 33.2422 77.9893 33.8317 77.1979 34.2774C76.4065 34.7231 75.6007 34.9532 74.7805 34.9532C72.838 34.9532 71.4278 34.4787 70.5645 33.5154C69.7011 32.552 69.2695 31.0998 69.2695 29.1588V19.7986H72.5214V28.8425C72.5214 30.1365 72.766 31.0567 73.2697 31.5887C73.7589 32.1207 74.4639 32.3939 75.3561 32.3939C76.0468 32.3939 76.6079 32.2932 77.0684 32.0775C77.5288 31.8619 77.9029 31.5887 78.1763 31.2292C78.4641 30.8842 78.6656 30.4528 78.7951 29.964C78.9246 29.4751 78.9821 28.9431 78.9821 28.368V19.813H82.2341V34.5506ZM87.7739 29.8202C87.8746 30.7691 88.2343 31.4305 88.8531 31.8187C89.4862 32.1926 90.2344 32.3939 91.1122 32.3939C91.4143 32.3939 91.7597 32.3651 92.1482 32.322C92.5367 32.2788 92.9108 32.1782 93.2418 32.0488C93.5871 31.9194 93.8605 31.7181 94.0907 31.4593C94.3065 31.2005 94.4073 30.8698 94.3929 30.4528C94.3785 30.0359 94.2202 29.6908 93.9324 29.432C93.6446 29.1588 93.2849 28.9575 92.8389 28.785C92.3928 28.6268 91.8892 28.483 91.3136 28.368C90.738 28.253 90.1625 28.1236 89.5725 27.9942C88.9682 27.8648 88.3782 27.6922 87.8171 27.5053C87.2559 27.3184 86.7523 27.0596 86.3062 26.7289C85.8601 26.4126 85.5004 25.9956 85.2414 25.4924C84.968 24.9891 84.8385 24.3709 84.8385 23.6232C84.8385 22.818 85.04 22.1566 85.4285 21.6103C85.817 21.0639 86.3206 20.6325 86.9105 20.3018C87.5149 19.9712 88.1768 19.7411 88.9106 19.5973C89.6445 19.4679 90.3495 19.396 91.0114 19.396C91.7741 19.396 92.5079 19.4823 93.1986 19.6405C93.8893 19.7986 94.5224 20.0574 95.0836 20.4313C95.6447 20.7907 96.1052 21.2652 96.4793 21.8403C96.8534 22.4154 97.0837 23.12 97.1844 23.9395H93.7885C93.6303 23.1631 93.2849 22.6311 92.7237 22.3723C92.1626 22.0991 91.5151 21.9697 90.7956 21.9697C90.5654 21.9697 90.292 21.9841 89.9754 22.0272C89.6589 22.0704 89.3711 22.1423 89.0833 22.2429C88.8099 22.3435 88.5797 22.5017 88.3782 22.703C88.1912 22.9043 88.0904 23.1631 88.0904 23.4938C88.0904 23.8964 88.2343 24.2127 88.5077 24.4571C88.7811 24.7016 89.1409 24.9029 89.5869 25.0754C90.033 25.2336 90.5366 25.3773 91.1122 25.4924C91.6877 25.6074 92.2777 25.7368 92.882 25.8662C93.472 25.9956 94.0475 26.1681 94.6231 26.355C95.1987 26.542 95.7023 26.8008 96.1484 27.1315C96.5944 27.4622 96.9541 27.8648 97.2275 28.3536C97.5009 28.8425 97.6448 29.4607 97.6448 30.1796C97.6448 31.0567 97.4434 31.79 97.0405 32.4082C96.6376 33.0121 96.1196 33.5154 95.4865 33.8892C94.8533 34.263 94.1339 34.5506 93.3569 34.7231C92.5798 34.8957 91.8028 34.9819 91.0402 34.9819C90.1049 34.9819 89.2416 34.8813 88.4502 34.6656C87.6588 34.4499 86.9681 34.1336 86.3925 33.7167C85.817 33.2853 85.3565 32.7533 85.0256 32.1207C84.6946 31.488 84.5219 30.726 84.4932 29.8489H87.7739V29.8202ZM98.5082 19.7986H100.969V15.3701H104.221V19.7986H107.156V22.2285H104.221V30.1077C104.221 30.4528 104.235 30.7404 104.264 30.9992C104.293 31.2436 104.365 31.4593 104.465 31.6318C104.566 31.8044 104.724 31.9338 104.94 32.02C105.156 32.1063 105.429 32.1494 105.803 32.1494C106.034 32.1494 106.264 32.1494 106.494 32.1351C106.724 32.1207 106.955 32.0919 107.185 32.0344V34.5506C106.825 34.5937 106.465 34.6225 106.134 34.6656C105.789 34.7087 105.444 34.7231 105.084 34.7231C104.221 34.7231 103.53 34.6369 103.012 34.4787C102.494 34.3205 102.077 34.0761 101.789 33.7598C101.487 33.4435 101.3 33.0553 101.185 32.5808C101.084 32.1063 101.012 31.5599 100.997 30.9561V22.2573H98.5369V19.7986H98.5082ZM109.458 19.7986H112.538V21.7972H112.595C113.056 20.9345 113.689 20.3306 114.509 19.9568C115.329 19.5829 116.207 19.396 117.171 19.396C118.336 19.396 119.344 19.5973 120.207 20.0143C121.07 20.4169 121.79 20.9776 122.365 21.6965C122.941 22.4154 123.358 23.2494 123.646 24.1983C123.934 25.1473 124.078 26.1681 124.078 27.2465C124.078 28.2386 123.948 29.2019 123.689 30.1221C123.43 31.0567 123.042 31.8763 122.524 32.5952C122.006 33.3141 121.344 33.8748 120.538 34.3062C119.732 34.7375 118.797 34.9532 117.703 34.9532C117.228 34.9532 116.754 34.91 116.279 34.8238C115.804 34.7375 115.343 34.5937 114.912 34.4068C114.48 34.2199 114.063 33.9755 113.703 33.6735C113.329 33.3716 113.027 33.0265 112.768 32.6383H112.71V39.9999H109.458V19.7986ZM120.826 27.189C120.826 26.5276 120.739 25.8806 120.567 25.2479C120.394 24.6153 120.135 24.0689 119.79 23.5801C119.444 23.0912 119.013 22.703 118.509 22.4154C117.991 22.1279 117.401 21.9697 116.739 21.9697C115.372 21.9697 114.336 22.4442 113.646 23.3931C112.955 24.3421 112.61 25.6074 112.61 27.189C112.61 27.9366 112.696 28.6268 112.883 29.2594C113.07 29.8921 113.329 30.4384 113.703 30.8985C114.063 31.3586 114.494 31.7181 114.998 31.9769C115.502 32.2501 116.092 32.3795 116.754 32.3795C117.502 32.3795 118.121 32.2213 118.639 31.9194C119.157 31.6174 119.574 31.2149 119.905 30.7404C120.236 30.2515 120.48 29.7052 120.624 29.0869C120.754 28.4686 120.826 27.836 120.826 27.189ZM126.567 14.1768H129.819V17.2537H126.567V14.1768ZM126.567 19.7986H129.819V34.5506H126.567V19.7986ZM132.726 14.1768H135.977V34.5506H132.726V14.1768ZM145.949 34.9532C144.769 34.9532 143.719 34.7519 142.798 34.3637C141.877 33.9755 141.1 33.4291 140.452 32.7533C139.819 32.0632 139.33 31.2436 138.999 30.2947C138.668 29.3457 138.496 28.2961 138.496 27.1602C138.496 26.0387 138.668 25.0035 138.999 24.0545C139.33 23.1056 139.819 22.286 140.452 21.5959C141.086 20.9057 141.877 20.3737 142.798 19.9855C143.719 19.5973 144.769 19.396 145.949 19.396C147.129 19.396 148.179 19.5973 149.1 19.9855C150.021 20.3737 150.798 20.9201 151.446 21.5959C152.079 22.286 152.568 23.1056 152.899 24.0545C153.23 25.0035 153.403 26.0387 153.403 27.1602C153.403 28.2961 153.23 29.3457 152.899 30.2947C152.568 31.2436 152.079 32.0632 151.446 32.7533C150.813 33.4435 150.021 33.9755 149.1 34.3637C148.179 34.7519 147.129 34.9532 145.949 34.9532ZM145.949 32.3795C146.669 32.3795 147.302 32.2213 147.834 31.9194C148.366 31.6174 148.798 31.2149 149.144 30.726C149.489 30.2371 149.733 29.6764 149.906 29.0581C150.064 28.4399 150.151 27.8072 150.151 27.1602C150.151 26.5276 150.064 25.9093 149.906 25.2767C149.748 24.644 149.489 24.0977 149.144 23.6088C148.798 23.12 148.366 22.7318 147.834 22.4298C147.302 22.1279 146.669 21.9697 145.949 21.9697C145.23 21.9697 144.597 22.1279 144.064 22.4298C143.532 22.7318 143.1 23.1343 142.755 23.6088C142.409 24.0977 142.165 24.644 141.992 25.2767C141.834 25.9093 141.747 26.5276 141.747 27.1602C141.747 27.8072 141.834 28.4399 141.992 29.0581C142.15 29.6764 142.409 30.2371 142.755 30.726C143.1 31.2149 143.532 31.6174 144.064 31.9194C144.597 32.2357 145.23 32.3795 145.949 32.3795ZM154.352 19.7986H156.813V15.3701H160.065V19.7986H163V22.2285H160.065V30.1077C160.065 30.4528 160.079 30.7404 160.108 30.9992C160.137 31.2436 160.209 31.4593 160.309 31.6318C160.41 31.8044 160.568 31.9338 160.784 32.02C161 32.1063 161.274 32.1494 161.648 32.1494C161.878 32.1494 162.108 32.1494 162.338 32.1351C162.569 32.1207 162.799 32.0919 163.029 32.0344V34.5506C162.669 34.5937 162.31 34.6225 161.979 34.6656C161.633 34.7087 161.288 34.7231 160.928 34.7231C160.065 34.7231 159.374 34.6369 158.856 34.4787C158.338 34.3205 157.921 34.0761 157.633 33.7598C157.331 33.4435 157.144 33.0553 157.029 32.5808C156.928 32.1063 156.856 31.5599 156.842 30.9561V22.2573H154.381V19.7986H154.352Z" fill="#222222"/>
<path d="M39.0377 14.1768H24.1306L19.526 0L14.9071 14.1768L0 14.1625L12.0725 22.9331L7.45357 37.0956L19.526 28.3393L31.5841 37.0956L26.9796 22.9331L39.0377 14.1768Z" fill="#00B67A"/>
<path d="M28.015 26.1394L26.979 22.9331L19.5254 28.3393L28.015 26.1394Z" fill="#005128"/>
</g>
<defs>
<clipPath id="clip0">
<rect width="163" height="40" fill="white"/>
</clipPath>
</defs>
</svg>
