<svg width="120" height="20" viewBox="0 0 120 20" fill="none" xmlns="http://www.w3.org/2000/svg">
<path d="M0 0H20V20H0V0Z" fill="#73CF11"/>
<path d="M10.0124 13.5261L13.0488 12.7231L14.3286 16.6629L10.0124 13.5261ZM17.0136 8.43199H11.6435L9.98728 3.33789L8.33107 8.43199H2.96094L7.30222 11.5938L5.64601 16.688L9.98728 13.5512L12.6724 11.5938L17.0136 8.43199Z" fill="white"/>
<path d="M25 0H45V20H25V0Z" fill="#73CF11"/>
<path d="M35.0124 13.5261L38.0488 12.7231L39.3286 16.6629L35.0124 13.5261ZM42.0136 8.43199H36.6435L34.9873 3.33789L33.3311 8.43199H27.9609L32.3022 11.5938L30.646 16.688L34.9873 13.5512L37.6724 11.5938L42.0136 8.43199Z" fill="white"/>
<path d="M50 0H70V20H50V0Z" fill="#73CF11"/>
<path d="M60.0124 13.5261L63.0488 12.7231L64.3286 16.6629L60.0124 13.5261ZM67.0136 8.43199H61.6435L59.9873 3.33789L58.3311 8.43199H52.9609L57.3022 11.5938L55.646 16.688L59.9873 13.5512L62.6724 11.5938L67.0136 8.43199Z" fill="white"/>
<path d="M75 0H95V20H75V0Z" fill="#73CF11"/>
<path d="M85.0124 13.5261L88.0488 12.7231L89.3286 16.6629L85.0124 13.5261ZM92.0136 8.43199H86.6435L84.9873 3.33789L83.3311 8.43199H77.9609L82.3022 11.5938L80.646 16.688L84.9873 13.5512L87.6724 11.5938L92.0136 8.43199Z" fill="white"/>
<path d="M100 0H120V20H100V0Z" fill="#DCDCE6"/>
<path d="M110.012 13.5261L113.049 12.7231L114.329 16.6629L110.012 13.5261ZM117.014 8.43199H111.643L109.987 3.33789L108.331 8.43199H102.961L107.302 11.5938L105.646 16.688L109.987 13.5512L112.672 11.5938L117.014 8.43199Z" fill="white"/>
</svg>
