<svg width="62" height="62" viewBox="0 0 62 62" fill="none" xmlns="http://www.w3.org/2000/svg">
<path d="M31 20C34.8599 20 38 16.8599 38 13C38 9.14014 34.8599 6 31 6C27.1401 6 24 9.14014 24 13C24 16.8599 27.1401 20 31 20ZM31 8C33.7568 8 36 10.2432 36 13C36 15.4141 34.2788 17.4341 32 17.8989V14H30V17.8989C27.7212 17.4341 26 15.415 26 13C26 10.2432 28.2432 8 31 8Z" fill="#222222"/>
<path d="M30 10H32V12H30V10Z" fill="#222222"/>
<path d="M58.084 47.3281L53 46.1982V44.7368C54.811 43.4702 56 41.373 56 39.001V37.001C56 33.4819 53.3872 30.5688 50 30.0811V25.3242L40.7588 21.627L42.186 20.2002L40.7578 18.0581C41.0459 17.5029 41.2861 16.9238 41.4751 16.3262L44 15.8198V10.1802L41.4761 9.6748C41.2871 9.07715 41.0459 8.49805 40.7588 7.94287L42.187 5.80078L38.2002 1.81396L36.0581 3.24219C35.5029 2.9541 34.9238 2.71387 34.3262 2.5249L33.8198 0H28.1802L27.6748 2.52393C27.0771 2.71289 26.498 2.9541 25.9429 3.24121L23.8008 1.81299L19.814 5.7998L21.2422 7.94189C20.9541 8.49707 20.7139 9.07617 20.5249 9.67383L18 10.1802V15.8198L20.5239 16.3252C20.7129 16.9229 20.9541 17.502 21.2412 18.0571L19.813 20.1992L21.2402 21.626L12 25.3232V30.0801C8.61279 30.5679 6 33.481 6 37V39C6 41.373 7.18896 43.4702 9 44.7358V46.1968L3.91602 47.3271C1.60986 47.8398 0 49.8472 0 52.208V62H62V52.208C62 49.8472 60.3901 47.8398 58.084 47.3281ZM51 46.7251C50.752 47.1079 50.063 48 49 48C47.937 48 47.248 47.1069 47 46.7251V45.7061C47.6338 45.895 48.3052 46 49 46C49.6948 46 50.3662 45.895 51 45.7051V46.7251ZM54 37V39C54 41.7568 51.7568 44 49 44C46.2432 44 44 41.7568 44 39V37C44 34.2432 46.2432 32 49 32C51.7568 32 54 34.2432 54 37ZM48 26.6768V30.0801C44.6128 30.5679 42 33.481 42 37V39C42 41.373 43.189 43.4702 45 44.7358V46.1968L40 47.3081L35 46.1968V44.7358C36.811 43.4692 38 41.3721 38 39V37C38 33.481 35.3872 30.5679 32 30.0801V26H33.8198L34.3252 23.4761C34.9229 23.2871 35.502 23.0459 36.0571 22.7588L38.1992 24.187L39.2202 23.166L48 26.6768ZM42 60H20V52.208C20 50.791 20.9658 49.5869 22.3491 49.2788L27.542 48.125C28.1138 48.8828 29.251 50 31 50C32.749 50 33.8862 48.8828 34.458 48.126L39.6509 49.2798C41.0342 49.5869 42 50.792 42 52.208V60ZM31 32C33.7568 32 36 34.2432 36 37V39C36 41.7568 33.7568 44 31 44C28.2432 44 26 41.7568 26 39V37C26 34.2432 28.2432 32 31 32ZM31 46C31.6948 46 32.3662 45.895 33 45.7051V46.7241C32.752 47.1079 32.063 48 31 48C29.937 48 29.248 47.1069 29 46.7251V45.7061C29.6338 45.895 30.3052 46 31 46ZM20 14.1802V11.8198L22.1318 11.3931L22.2871 10.7832C22.5 9.94482 22.8311 9.146 23.27 8.4082L23.5928 7.86621L22.3862 6.05615L24.0552 4.38721L25.8652 5.59424L26.4072 5.271C27.145 4.83203 27.9438 4.5 28.7822 4.28809L29.3921 4.13281L29.8198 2H32.1802L32.6069 4.13184L33.2168 4.28711C34.0552 4.5 34.854 4.83105 35.5918 5.27002L36.1338 5.59277L37.9438 4.38623L39.6128 6.05518L38.4058 7.86523L38.729 8.40723C39.168 9.14502 39.5 9.94385 39.7119 10.7822L39.8672 11.3921L42 11.8198V14.1802L39.8682 14.6069L39.7129 15.2168C39.5 16.0552 39.1689 16.854 38.73 17.5918L38.4072 18.1338L39.6138 19.9438L37.9448 21.6128L36.1348 20.4058L35.5928 20.729C34.855 21.168 34.0562 21.5 33.2178 21.7119L32.6079 21.8672L32.1802 24H29.8198L29.3931 21.8682L28.7832 21.7129C27.9448 21.5 27.146 21.1689 26.4082 20.73L25.8662 20.4072L24.0562 21.6138L22.3872 19.9448L23.5942 18.1348L23.271 17.5928C22.832 16.855 22.5 16.0562 22.2881 15.2178L22.1328 14.6079L20 14.1802ZM22.7798 23.165L23.8008 24.186L25.9429 22.7578C26.498 23.0459 27.0771 23.2861 27.6748 23.4751L28.1802 26H30V30.0801C26.6128 30.5679 24 33.481 24 37V39C24 41.373 25.189 43.4702 27 44.7358V46.1968L22 47.3081L17 46.1968V44.7358C18.811 43.4692 20 41.3721 20 39V37C20 33.481 17.3872 30.5679 14 30.0801V26.6768L22.7798 23.165ZM8 39V37C8 34.2432 10.2432 32 13 32C15.7568 32 18 34.2432 18 37V39C18 41.7568 15.7568 44 13 44C10.2432 44 8 41.7568 8 39ZM13 46C13.6948 46 14.3662 45.895 15 45.7051V46.7241C14.752 47.1079 14.063 48 13 48C11.9351 48 11.2451 47.104 11 46.7251V45.7051C11.6338 45.895 12.3052 46 13 46ZM2 52.208C2 50.791 2.96582 49.5869 4.34912 49.2788L9.54199 48.125C10.1138 48.8828 11.251 50 13 50C14.749 50 15.8862 48.8828 16.458 48.126L19.3779 48.7749C18.522 49.6758 18 50.8799 18 52.208V60H2V52.208ZM60 60H44V52.208C44 50.8799 43.478 49.6748 42.6221 48.7739L45.542 48.125C46.1138 48.8828 47.251 50 49 50C50.749 50 51.8862 48.8828 52.458 48.126L57.6509 49.2798C59.0342 49.5869 60 50.792 60 52.208V60Z" fill="#222222"/>
<path d="M48 7H50V9H48V7Z" fill="#222222"/>
<path d="M48 13H50V15H48V13Z" fill="#222222"/>
<path d="M48 19H50V21H48V19Z" fill="#222222"/>
<path d="M52 13H54V15H52V13Z" fill="#222222"/>
<path d="M52 19H54V21H52V19Z" fill="#222222"/>
<path d="M52 25H54V27H52V25Z" fill="#222222"/>
<path d="M12 7H14V9H12V7Z" fill="#222222"/>
<path d="M12 13H14V15H12V13Z" fill="#222222"/>
<path d="M12 19H14V21H12V19Z" fill="#222222"/>
<path d="M8 13H10V15H8V13Z" fill="#222222"/>
<path d="M8 19H10V21H8V19Z" fill="#222222"/>
<path d="M8 25H10V27H8V25Z" fill="#222222"/>
</svg>
