<svg width="62" height="62" viewBox="0 0 62 62" fill="none" xmlns="http://www.w3.org/2000/svg">
<path d="M62 32.8719V30.6999H60.421C59.17 30.6999 57.932 31.0059 56.81 31.5509C57.572 30.4979 58 29.2219 58 27.8819C58 26.2079 57.349 24.6349 56.165 23.4509L54 21.2859L51.835 23.4509C50.651 24.6349 50 26.2079 50 27.8819C50 28.2469 50.042 28.6039 50.104 28.9559C49.523 28.7919 48.922 28.6999 48.31 28.6999H46V30.8719C46 31.6909 46.137 32.5019 46.388 33.2759L46.276 33.2199L45.536 36.9219C45.354 37.8329 45.308 38.7569 45.383 39.6699L45 39.2859L42.988 41.2979C41.888 42.3979 41.216 43.8089 41.046 45.3329L40 44.2859L38.095 46.1909C36.764 47.5219 36 49.3649 36 51.2479C36 52.3519 36.261 53.4569 36.755 54.4459L37.71 56.3559C35.556 57.3729 33.309 58.1629 31 58.7179C28.691 58.1629 26.445 57.3729 24.29 56.3559L25.245 54.4459C25.739 53.4569 26 52.3509 26 51.2479C26 49.3649 25.236 47.5219 23.905 46.1909L22 44.2859L20.954 45.3319C20.784 43.8079 20.112 42.3969 19.012 41.2969L17 39.2859L16.617 39.6689C16.693 38.7559 16.646 37.8329 16.464 36.9209L15.724 33.2189L15.612 33.2749C15.863 32.5019 16 31.6909 16 30.8719V28.6999H13.69C13.078 28.6999 12.476 28.7919 11.896 28.9559C11.958 28.6039 12 28.2459 12 27.8819C12 26.2079 11.349 24.6349 10.165 23.4509L8 21.2859L5.835 23.4509C4.651 24.6349 4 26.2079 4 27.8819C4 29.2219 4.428 30.4979 5.19 31.5509C4.068 31.0059 2.83 30.6999 1.579 30.6999H0V32.8719C0 34.9319 0.836 36.9499 2.293 38.4069C2.396 38.5099 2.508 38.6029 2.617 38.6999H2V41.5789C2 43.2139 2.637 44.7509 3.793 45.9069C4.472 46.5859 5.285 47.0799 6.17 47.3769L3.548 48.0319L4.443 49.8229C4.93 50.7979 5.569 51.6829 6.339 52.4539C7.757 53.8719 9.545 54.8289 11.512 55.2229L11.765 55.2739C11.72 55.3359 11.669 55.3919 11.627 55.4559L10.612 56.9779L12.364 58.1459C13.891 59.1619 15.666 59.6999 17.5 59.6999C19.334 59.6999 21.109 59.1619 22.635 58.1449L22.955 57.9309C24.134 58.5089 25.333 59.0359 26.563 59.4829C25.342 59.6139 24.114 59.6999 22.878 59.6999H19V61.6999H22.878C25.626 61.6999 28.347 61.3779 31 60.7769C33.653 61.3779 36.374 61.6999 39.122 61.6999H43V59.6999H39.122C37.886 59.6999 36.658 59.6139 35.437 59.4839C36.666 59.0369 37.866 58.5099 39.044 57.9319L39.364 58.1459C40.891 59.1619 42.666 59.6999 44.5 59.6999C46.334 59.6999 48.109 59.1619 49.635 58.1449L51.387 56.9769L50.372 55.4549C50.329 55.3909 50.278 55.3349 50.234 55.2729L50.487 55.2219C52.454 54.8279 54.242 53.8709 55.66 52.4529C56.431 51.6819 57.069 50.7969 57.556 49.8219L58.452 48.0309L55.83 47.3759C56.715 47.0789 57.527 46.5849 58.207 45.9059C59.363 44.7509 60 43.2139 60 41.5789V38.6999H59.383C59.492 38.6029 59.604 38.5099 59.707 38.4069C61.164 36.9499 62 34.9319 62 32.8719ZM16.402 42.7109L17 42.1139L17.598 42.7119C18.502 43.6159 19 44.8179 19 46.0969C19 46.9629 18.765 47.8149 18.318 48.5589L17 50.7569L15.682 48.5609C15.235 47.8149 15 46.9639 15 46.0969C15 44.8179 15.498 43.6159 16.402 42.7109ZM14.503 37.3139C14.803 38.8129 14.661 40.3549 14.093 41.7739C13.612 42.9769 12.841 44.0169 11.861 44.8439C11.594 44.3359 11.351 43.8189 11.12 43.2969C11.047 43.1039 10.957 42.9189 10.867 42.7339C10.862 42.7229 10.859 42.7109 10.855 42.6999H11V41.5699C11 41.0759 11.06 40.5809 11.181 40.0969C11.605 38.4049 12.731 36.9819 14.277 36.1809L14.503 37.3139ZM13.052 46.8579C12.993 46.7669 12.928 46.6779 12.87 46.5859C12.922 46.5449 12.974 46.5059 13.025 46.4649C13.032 46.5969 13.037 46.7279 13.052 46.8579ZM11.149 31.4699C11.903 30.9659 12.782 30.6999 13.69 30.6999H14V30.8719C14 32.4059 13.378 33.9079 12.293 34.9929C11.519 35.7669 10.531 36.2999 9.472 36.5449C9.372 36.2199 9.259 35.9009 9.121 35.5929C9.093 35.2939 9.074 34.9929 9.057 34.6919L9.343 33.8339C9.664 32.8709 10.305 32.0309 11.149 31.4699ZM9.591 38.5629C9.589 38.5679 9.586 38.5719 9.585 38.5759C9.584 38.5719 9.583 38.5679 9.583 38.5639C9.586 38.5639 9.588 38.5629 9.591 38.5629ZM7.249 24.8649L8 24.1139L8.751 24.8649C9.545 25.6589 10 26.7589 10 27.8819C10 29.3119 9.29 30.6389 8.101 31.4319L8 31.4989L7.899 31.4319C6.71 30.6379 6 29.3109 6 27.8819C6 26.7589 6.455 25.6589 7.249 24.8649ZM3.707 36.9929C2.622 35.9079 2 34.4059 2 32.8719V32.7149C3.201 32.7969 4.372 33.2299 5.337 33.9529C6.126 34.5439 6.746 35.3229 7.18 36.1989C7.271 37.0369 7.401 37.8659 7.569 38.6869C6.126 38.6209 4.731 38.0169 3.707 36.9929ZM5.207 44.4929C4.44 43.7249 4 42.6639 4 41.5789V40.6999H4.457C5.83 40.6999 7.12 41.2339 8.091 42.2049C8.465 42.5789 8.769 43.0109 9.011 43.4769C9.091 43.6719 9.185 43.8619 9.269 44.0559C9.334 44.2319 9.397 44.4089 9.442 44.5919L9.719 45.6999H8.121C7.036 45.6999 5.974 45.2599 5.207 44.4929ZM11.906 53.2609C10.327 52.9459 8.892 52.1779 7.754 51.0399C7.252 50.5379 6.82 49.9769 6.467 49.3639L7.345 49.1439C8.429 48.8739 9.572 48.8739 10.656 49.1439C11.562 49.3699 12.409 49.7809 13.146 50.3449C13.868 51.2269 14.629 52.0719 15.452 52.8509C14.789 52.9959 14.161 53.2499 13.586 53.5969L11.906 53.2609ZM13.475 56.4809L13.39 56.4239C14.176 55.3419 15.429 54.6999 16.775 54.6999C17.112 54.6999 17.449 54.7439 17.776 54.8249C18.445 55.3279 19.136 55.8049 19.855 56.2469C20.194 56.4559 20.546 56.6389 20.891 56.8359C18.577 58.0469 15.664 57.9399 13.475 56.4809ZM23.456 53.5519L22.505 55.4549C22.252 55.3169 22.003 55.1709 21.753 55.0269L20.769 53.5509C20.266 52.7959 20 51.9179 20 51.0109C20 49.7879 20.477 48.6389 21.341 47.7739L22 47.1139L22.491 47.6049C23.45 48.5639 24 49.8909 24 51.2479C24 52.0429 23.811 52.8399 23.456 53.5519ZM53.249 24.8649L54 24.1139L54.751 24.8649C55.545 25.6589 56 26.7589 56 27.8819C56 29.3119 55.29 30.6389 54.101 31.4319L54 31.4989L53.899 31.4319C52.71 30.6379 52 29.3109 52 27.8819C52 26.7589 52.455 25.6589 53.249 24.8649ZM48 30.6999H48.31C49.218 30.6999 50.097 30.9659 50.852 31.4699C51.696 32.0319 52.336 32.8709 52.658 33.8339L52.944 34.6919C52.927 34.9929 52.908 35.2939 52.88 35.5929C52.742 35.9009 52.628 36.2209 52.529 36.5449C51.47 36.2999 50.482 35.7669 49.708 34.9929C48.622 33.9079 48 32.4059 48 30.8719V30.6999ZM52.418 38.5649C52.417 38.5689 52.416 38.5729 52.416 38.5779C52.414 38.5729 52.412 38.5689 52.41 38.5639C52.412 38.5639 52.415 38.5639 52.418 38.5649ZM47.497 37.3139L47.723 36.1809C49.269 36.9819 50.395 38.4049 50.818 40.0959C50.939 40.5809 51 41.0759 51 41.5699V42.6999H51.145C51.14 42.7109 51.137 42.7229 51.133 42.7339C51.043 42.9189 50.953 43.1039 50.88 43.2969C50.65 43.8199 50.406 44.3369 50.139 44.8439C49.159 44.0169 48.388 42.9769 47.907 41.7729C47.339 40.3549 47.197 38.8129 47.497 37.3139ZM49.13 46.5869C49.072 46.6789 49.008 46.7669 48.948 46.8589C48.963 46.7289 48.967 46.5979 48.975 46.4659C49.026 46.5069 49.079 46.5459 49.13 46.5869ZM44.402 42.7119L45 42.1139L45.598 42.7119C46.502 43.6159 47 44.8179 47 46.0969C47 46.9629 46.765 47.8149 46.318 48.5589L45 50.7569L43.682 48.5609C43.235 47.8149 43 46.9639 43 46.0969C43 44.8179 43.498 43.6159 44.402 42.7119ZM39.495 55.4549L38.544 53.5519C38.188 52.8399 38 52.0429 38 51.2479C38 49.8909 38.55 48.5639 39.509 47.6049L40 47.1139L40.659 47.7729C41.523 48.6379 42 49.7879 42 51.0109C42 51.9179 41.734 52.7959 41.231 53.5509L40.247 55.0269C39.997 55.1709 39.748 55.3169 39.495 55.4549ZM48.525 56.4809C46.335 57.9399 43.422 58.0469 41.108 56.8359C41.453 56.6389 41.805 56.4559 42.144 56.2469C42.863 55.8049 43.554 55.3269 44.223 54.8249C44.551 54.7439 44.888 54.6999 45.225 54.6999C46.572 54.6999 47.825 55.3419 48.611 56.4249L48.525 56.4809ZM54.246 51.0399C53.108 52.1779 51.673 52.9459 50.095 53.2619L48.415 53.5979C47.84 53.2509 47.212 52.9969 46.549 52.8519C47.372 52.0729 48.132 51.2279 48.855 50.3459C49.592 49.7819 50.439 49.3709 51.345 49.1449C52.429 48.8749 53.572 48.8749 54.656 49.1449L55.534 49.3649C55.18 49.9759 54.748 50.5379 54.246 51.0399ZM58 41.5789C58 42.6639 57.56 43.7249 56.793 44.4929C56.025 45.2599 54.964 45.6999 53.879 45.6999H52.281L52.557 44.5919C52.603 44.4089 52.665 44.2319 52.73 44.0559C52.815 43.8619 52.908 43.6729 52.988 43.4769C53.23 43.0119 53.534 42.5789 53.908 42.2049C54.88 41.2339 56.17 40.6999 57.543 40.6999H58V41.5789ZM58.293 36.9929C57.269 38.0169 55.874 38.6209 54.431 38.6869C54.599 37.8669 54.729 37.0369 54.82 36.1989C55.253 35.3229 55.874 34.5439 56.664 33.9529C57.628 33.2289 58.799 32.7969 60 32.7149V32.8719C60 34.4059 59.378 35.9079 58.293 36.9929Z" fill="#222222"/>
<path d="M23 10.7003H21V12.7003H23V10.7003Z" fill="#222222"/>
<path d="M17 13.7003H15V15.7003H17V13.7003Z" fill="#222222"/>
<path d="M15.2369 22.7L18.2229 21.031C22.1219 18.851 26.5409 17.7 30.9999 17.7C35.4589 17.7 39.8779 18.851 43.7759 21.031L46.7629 22.7H48.7999L52.3288 8.499L44.6149 9.607L41.4009 3.141L36.2809 7.262L30.9999 0L25.7189 7.263L20.5989 3.142L17.3849 9.608L9.67085 8.5L13.1999 22.7H15.2369ZM18.5309 11.793L21.2819 6.259L26.1009 10.138L30.9999 3.4L35.8979 10.137L40.7169 6.258L43.4678 11.792L49.6699 10.9L47.2399 20.675L44.7519 19.283C40.5559 16.939 35.7999 15.7 30.9999 15.7C26.1999 15.7 21.4439 16.939 17.2469 19.285L14.7589 20.677L12.3289 10.902L18.5309 11.793Z" fill="#222222"/>
<path d="M41 10.7003H39V12.7003H41V10.7003Z" fill="#222222"/>
<path d="M47 13.7003H45V15.7003H47V13.7003Z" fill="#222222"/>
<path d="M31 13.7003C32.654 13.7003 34 12.3543 34 10.7003C34 9.04634 32.654 7.70034 31 7.70034C29.346 7.70034 28 9.04634 28 10.7003C28 12.3543 29.346 13.7003 31 13.7003ZM31 9.70034C31.552 9.70034 32 10.1483 32 10.7003C32 11.2523 31.552 11.7003 31 11.7003C30.448 11.7003 30 11.2523 30 10.7003C30 10.1483 30.448 9.70034 31 9.70034Z" fill="#222222"/>
</svg>
