<svg width="62" height="62" viewBox="0 0 62 62" fill="none" xmlns="http://www.w3.org/2000/svg">
<path d="M49 36C41.832 36 36 41.832 36 49C36 56.168 41.832 62 49 62C56.168 62 62 56.168 62 49C62 41.832 56.168 36 49 36ZM49 60C42.9351 60 38 55.0649 38 49C38 42.9351 42.9351 38 49 38C55.0649 38 60 42.9351 60 49C60 55.0649 55.0649 60 49 60Z" fill="#222222"/>
<path d="M49 52C48.4482 52 48 51.5508 48 51H46C46 52.3018 46.8389 53.4019 48 53.8159V55H50V53.8159C51.1611 53.4019 52 52.3018 52 51C52 49.3462 50.6538 48 49 48C48.4482 48 48 47.5508 48 47C48 46.4492 48.4482 46 49 46C49.5518 46 50 46.4492 50 47H52C52 45.6982 51.1611 44.5981 50 44.1841V43H48V44.1841C46.8389 44.5981 46 45.6982 46 47C46 48.6538 47.3462 50 49 50C49.5518 50 50 50.4492 50 51C50 51.5508 49.5518 52 49 52Z" fill="#222222"/>
<path d="M49 40C46.9878 40 45.082 40.6558 43.4858 41.896L44.7129 43.4751C45.9551 42.5098 47.438 42 49 42C52.8589 42 56 45.1401 56 49C56 50.562 55.4902 52.0449 54.5239 53.2871L56.104 54.5142C57.3452 52.917 58 51.0112 58 49C58 44.0381 53.9629 40 49 40Z" fill="#222222"/>
<path d="M49 56C45.1411 56 42 52.8599 42 49C42 47.438 42.5098 45.9551 43.4761 44.7129L41.896 43.4858C40.6548 45.083 40 46.9888 40 49C40 53.9619 44.0371 58 49 58C51.0122 58 52.918 57.3442 54.5142 56.104L53.2871 54.5249C52.0449 55.4902 50.562 56 49 56Z" fill="#222222"/>
<path d="M4 42H2V47H0V62H6V47H4V42ZM4 60H2V49H4V60Z" fill="#222222"/>
<path d="M13 42H11V47H9V54H11V62H13V54H15V47H13V42ZM13 52H11V49H13V52Z" fill="#222222"/>
<path d="M22 42H20V52H18V58H20V62H22V58H24V52H22V42ZM22 56H20V54H22V56Z" fill="#222222"/>
<path d="M31 42H29V44H27V53H29V62H31V53H33V44H31V42ZM31 51H29V46H31V51Z" fill="#222222"/>
<path d="M35.4521 31.1602C35.0889 29.3428 33.7612 27.8838 31.9849 27.3511L25 25.2559V23.2739C25.833 22.3281 26.4429 21.1851 26.7559 19.9238C28.6011 19.5679 30 17.9468 30 16V11C30 4.93506 25.0649 0 19 0C12.9351 0 8 4.93506 8 11V16C8 17.9468 9.39893 19.5679 11.2441 19.9238C11.5571 21.1851 12.167 22.3281 13 23.2739V25.2559L6.01514 27.3521C4.24023 27.8838 2.91113 29.3442 2.54785 31.1611L0.779785 40H37.2202L35.4521 31.1602ZM15 24.918C16.1782 25.6021 17.542 26 19 26C20.458 26 21.8218 25.6021 23 24.918V25.4341L19 27.834L15 25.4341V24.918ZM24.1362 27.085L25 27.3442V29.5859L23 31.5859L20.6128 29.1992L24.1362 27.085ZM19 24C15.6909 24 13 21.3091 13 18V14.7212L17 13.3872V15H18C20.396 15 22.792 14.5078 25 13.5752V18C25 21.3091 22.3091 24 19 24ZM27 17.7222V14.2788C27.5952 14.626 28 15.2642 28 16.001C28 16.7378 27.5952 17.375 27 17.7222ZM19 2C23.9629 2 28 6.03809 28 11V12.5562C27.6899 12.375 27.356 12.2339 27 12.1421V11H25V11.374C23.1299 12.2881 21.0771 12.8359 19 12.9692V10.6138L13 12.6138V11H11V12.1421C10.644 12.2349 10.3101 12.375 10 12.5562V11C10 6.03809 14.0371 2 19 2ZM10 16C10 15.2632 10.4048 14.625 11 14.2778V17.7212C10.4048 17.375 10 16.7368 10 16ZM13.8638 27.085L17.3872 29.1992L15 31.5859L13 29.5859V27.3442L13.8638 27.085ZM28.8682 38L27.9912 31.8579L26.0112 32.1411L26.8472 38H11.1528L11.9902 32.1421L10.0098 31.8589L9.13184 38H3.22021L4.50879 31.5532C4.72705 30.4629 5.5249 29.5869 6.58887 29.2681L11 27.9438V30.4141L15 34.4141L19 30.4141L23 34.4141L27 30.4141V27.9438L31.4111 29.2671C32.4751 29.5859 33.2729 30.4619 33.4912 31.5518L34.7798 38H28.8682Z" fill="#222222"/>
<path d="M58.4072 10.4609C58.2539 10.0078 58.0718 9.56592 57.8618 9.14014L59.8931 6.09424L55.9058 2.10693L52.8589 4.13721C52.4331 3.92822 51.9922 3.74609 51.5381 3.5918L50.8188 0H45.1802L44.4609 3.5918C44.0068 3.74609 43.5649 3.92822 43.1401 4.13721L40.0928 2.10693L36.106 6.09424L38.1372 9.14014C37.9268 9.56592 37.7451 10.0078 37.5918 10.4609L34 11.1802V16.8198L37.5928 17.5391C37.7461 17.9922 37.9282 18.4341 38.1382 18.8599L36.1069 21.9058L40.0952 25.8931L43.1411 23.8618C43.5669 24.0708 44.0078 24.2539 44.4619 24.4072L45.1812 28H50.8198L51.5391 24.4082C51.9932 24.2539 52.4351 24.0718 52.8599 23.8628L55.9058 25.894L59.894 21.9072L57.8628 18.8608C58.0732 18.4351 58.2549 17.9932 58.4082 17.54L62 16.8198V11.1802L58.4072 10.4609ZM60 15.1802L56.8271 15.8149L56.6631 16.4092C56.4668 17.1172 56.187 17.7959 55.8301 18.4258L55.5259 18.9619L57.3188 21.6509L55.6509 23.3198L52.9609 21.5269L52.4258 21.8301C51.7988 22.186 51.1191 22.4658 50.4072 22.6641L49.814 22.8281L49.1812 26H46.8198L46.186 22.8281L45.5928 22.6641C44.8809 22.4658 44.2012 22.186 43.5742 21.8301L43.0391 21.5269L40.3491 23.3198L38.6812 21.6509L40.4741 18.9619L40.1699 18.4258C39.813 17.7959 39.5332 17.1172 39.3369 16.4092L39.1729 15.8149L36 15.1802V12.8198L39.1729 12.1851L39.3369 11.5908C39.5332 10.8828 39.813 10.2041 40.1699 9.57422L40.4741 9.03809L38.6812 6.34912L40.3501 4.68018L43.0381 6.47217L43.5742 6.16895C44.2012 5.81396 44.8809 5.5332 45.5928 5.33594L46.186 5.17188L46.8188 2H49.1802L49.814 5.17188L50.4072 5.33594C51.1191 5.53418 51.7988 5.81396 52.4258 6.16895L52.9619 6.47217L55.6499 4.68018L57.3188 6.34912L55.5259 9.03809L55.8301 9.57422C56.187 10.2041 56.4668 10.8828 56.6631 11.5908L56.8271 12.1851L60 12.8198V15.1802Z" fill="#222222"/>
<path d="M48 7C44.1411 7 41 10.1401 41 14C41 17.8599 44.1411 21 48 21C51.8589 21 55 17.8599 55 14C55 10.1401 51.8589 7 48 7ZM48 19C45.2432 19 43 16.7568 43 14C43 11.2432 45.2432 9 48 9C50.7568 9 53 11.2432 53 14C53 16.7568 50.7568 19 48 19Z" fill="#222222"/>
</svg>
