<svg width="62" height="62" viewBox="0 0 62 62" fill="none" xmlns="http://www.w3.org/2000/svg">
<path d="M62 26H59.7529L56.4038 27.7622C56.0269 27.5542 55.6348 27.3779 55.2119 27.272L50.999 26.2178V25.7388C52.8628 24.438 54 22.2891 54 20V18.252C54 14.3672 50.9561 11.1162 47.2148 11.0029C47.0249 10.998 46.8379 11.0049 46.6499 11.0142L47.7422 8.45703L42.4468 3.16309L39.3252 5.19482C38.1392 4.52686 36.8848 4.00684 35.582 3.64209L34.811 0H27.1899L26.4189 3.64307C25.1162 4.00781 23.8608 4.52783 22.6758 5.1958L19.5542 3.16406L14.2632 8.45508L15.3369 11.0142C15.2959 11.0122 15.2568 11.0049 15.2158 11.0039C13.3008 10.9482 11.4971 11.647 10.127 12.9771C8.75488 14.3062 8 16.0898 8 18V20C8 22.2891 9.13623 24.437 11 25.7378V26.2178L8.25195 26.9048L3.271 24H0V44.7212L9.83789 48H11.7539L11.9932 47.1621L15.0088 48.9722C15.0581 50.6118 16.373 51.9312 18.0112 51.9888C18.0688 53.6201 19.3799 54.9312 21.0112 54.9888C21.0688 56.6201 22.3799 57.9312 24.0112 57.9888C24.0708 59.6582 25.438 61 27.1211 61C27.7461 61 28.3589 60.8052 28.874 60.458L29.7598 61.2402C30.3149 61.729 31.0298 62 31.772 62H31.957C33.6211 62 34.9751 60.6548 34.9961 58.9961C36.6421 58.9751 37.9751 57.6421 37.9961 55.9961C39.6431 55.9751 40.9771 54.6401 40.9961 52.9932C42.6582 52.9541 44 51.5962 44 49.9248C44 49.8242 43.9951 49.7251 43.9849 49.625L62 40.6182V26ZM52 18.252V20C52 21.7749 51.041 23.4331 49.4971 24.3271L48.9971 24.6162L49.001 27.7808L53.9971 29.0288L43 34.8169V32.123C43 30.7788 42.457 29.5479 41.5679 28.6382L45 27.7808V24.6138L44.501 24.3252C42.958 23.4331 42 21.7749 42 20V18C42 16.6362 42.5391 15.3608 43.519 14.4111C44.498 13.4619 45.7969 12.9502 47.1548 13.0029C49.8262 13.083 52 15.438 52 18.252ZM32.5078 34.0308L27.981 32.584C25.918 31.9229 23.6851 31.8242 21.5732 32.292L21 32.4189V32.123C21 30.7441 21.9351 29.5469 23.272 29.2119L29 27.7808V24.6138L28.501 24.3252C26.958 23.4331 26 21.7749 26 20V18C26 16.6362 26.5391 15.3608 27.519 14.4111C28.498 13.4619 29.8052 12.9502 31.1548 13.0029C33.8262 13.083 36 15.438 36 18.252V20C36 21.7749 35.041 23.4331 33.4971 24.3271L32.9971 24.6162L33.001 27.7808L38.728 29.2119C40.0649 29.5469 41 30.7441 41 32.123V35.8701L40.7529 36H40.1401L33.9922 34.2432C33.5078 34.106 33.0088 34.0498 32.5078 34.0308ZM21.2241 14.9668C23.1021 11.3281 26.8818 9 31 9C35.0791 9 38.8428 11.2969 40.7349 14.8862C40.2588 15.8408 40 16.8979 40 18V20C40 22.2891 41.1362 24.437 43 25.7378V26.2178L39 27.2192L34.999 26.2178V25.7388C36.8628 24.438 38 22.2891 38 20V18.252C38 14.3672 34.9561 11.1162 31.2148 11.0029C29.3008 10.9468 27.4961 11.646 26.126 12.9761C24.7549 14.3062 24 16.0898 24 18V20C24 22.2891 25.1362 24.437 27 25.7378V26.2178L23 27.2192L18.999 26.2178V25.7388C20.8628 24.438 22 22.2891 22 20V18.252C22 17.0752 21.7168 15.958 21.2241 14.9668ZM16.625 8.91895L19.8198 5.72412L22.6318 7.5542L23.1699 7.22412C24.5181 6.39795 25.9751 5.79297 27.5 5.42822L28.1152 5.28076L28.811 2H33.1899L33.8838 5.27979L34.499 5.42676C36.0239 5.79199 37.481 6.39697 38.8291 7.22314L39.3672 7.55322L42.1792 5.72314L45.3701 8.91504L44.2358 11.5708C43.4639 11.9028 42.748 12.3701 42.125 12.9741C42.084 13.0142 42.0488 13.0571 42.0088 13.0981C39.6528 9.35303 35.4878 7 31 7C26.48 7 22.3032 9.375 19.9531 13.1582C19.3242 12.5 18.5762 11.9668 17.7471 11.5942L16.625 8.91895ZM13 27.7808V24.6138L12.501 24.3252C10.958 23.4331 10 21.7749 10 20V18C10 16.6362 10.5391 15.3608 11.519 14.4111C12.498 13.4619 13.7998 12.9502 15.1548 13.0029C17.8262 13.083 20 15.438 20 18.252V20C20 21.7749 19.041 23.4331 17.4971 24.3271L16.9971 24.6162L17.001 27.7808L20.4321 28.6382C19.543 29.5479 19 30.7788 19 32.123V32.8638L15.8809 33.5571L15.9619 33.2739L16 31.4258L10.7261 28.3491L13 27.7808ZM2 26H2.729L9.9209 30.1948L6.29199 44.71L2 43.2788V26ZM10.1621 46L8.19385 45.3442L11.7192 31.2441L14 32.5742V32.8599L10.2461 46H10.1621ZM17 48.8789C17 48.584 17.1191 48.2949 17.3281 48.0859L19.0859 46.3281C19.2949 46.1191 19.584 46 19.8789 46C20.4971 46 21 46.5029 21 47.1211C21 47.416 20.8809 47.7051 20.6719 47.9141L18.9141 49.6719C18.7051 49.8809 18.416 50 18.1211 50C17.5029 50 17 49.4971 17 48.8789ZM20 51.8789C20 51.584 20.1191 51.2949 20.3281 51.0859L22.0859 49.3281C22.2949 49.1191 22.584 49 22.8789 49C23.4971 49 24 49.5029 24 50.1211C24 50.416 23.8809 50.7051 23.6719 50.9141L21.9141 52.6719C21.7051 52.8809 21.416 53 21.1211 53C20.5029 53 20 52.4971 20 51.8789ZM23 54.8789C23 54.584 23.1191 54.2949 23.3281 54.0859L25.0859 52.3281C25.2949 52.1191 25.584 52 25.8789 52C26.4971 52 27 52.5029 27 53.1211C27 53.416 26.8809 53.7051 26.6719 53.9141L24.9141 55.6719C24.7051 55.8809 24.416 56 24.1211 56C23.5029 56 23 55.4971 23 54.8789ZM27.1211 59C26.5029 59 26 58.4971 26 57.8789C26 57.584 26.1191 57.2949 26.3281 57.0859L28.0859 55.3281C28.2949 55.1191 28.584 55 28.8789 55C29.4971 55 30 55.5029 30 56.1211C30 56.416 29.8809 56.7051 29.6719 56.9141L27.9141 58.6719C27.7051 58.8809 27.416 59 27.1211 59ZM31.957 60H31.772C31.5171 60 31.2729 59.9072 31.083 59.7388L30.335 59.0791L31.0859 58.3281C31.354 58.0601 31.562 57.7412 31.7158 57.3989L32.625 58.1558C32.8628 58.354 33 58.646 33 58.957C33 59.5322 32.5322 60 31.957 60ZM40.9248 51H40.752C40.501 51 40.2559 50.9111 40.064 50.75L34.6411 46.231L33.3599 47.7681L38.626 52.1558C38.8628 52.354 39 52.646 39 52.957C39 53.5322 38.5322 54 37.957 54H37.7388C37.4961 54 37.2588 53.9141 37.0718 53.7578L31.6401 49.2319L30.3589 50.769L35.625 55.1572C35.8628 55.354 36 55.646 36 55.957C36 56.5322 35.5322 57 34.957 57C34.5732 57 34.1992 56.8638 33.9048 56.6191L31.6729 54.7588C31.1812 53.7539 30.1709 53.0532 28.9878 53.0112C28.9302 51.3799 27.6191 50.0688 25.9878 50.0112C25.9302 48.3799 24.6191 47.0688 22.9878 47.0112C22.9292 45.3418 21.562 44 19.8789 44C19.0571 44 18.2529 44.333 17.6719 44.9141L15.9141 46.6719C15.8091 46.7769 15.7222 46.896 15.6338 47.0142L12.562 45.1709L15.2549 35.7461L22.0059 34.2451C23.7769 33.8491 25.644 33.9351 27.3711 34.4878L28.8442 34.959L23.8501 37.4561C22.709 38.0278 22 39.1758 22 40.4521V40.6499C22 42.4971 23.5029 44 25.3501 44C25.957 44 26.5542 43.835 27.0732 43.522L30.7969 41.2891C31.5449 40.8408 32.5488 40.939 33.1948 41.52L41.644 49.124C41.8701 49.3291 42 49.6201 42 49.9248C42 50.5181 41.5181 51 40.9248 51ZM60 39.3818L43.1528 47.8062C43.0981 47.748 43.041 47.6929 42.981 47.6392L34.5332 40.0352C33.793 39.3672 32.8359 39 31.8389 39C31.1099 39 30.394 39.1982 29.7671 39.5742L26.042 41.8081C25.833 41.9341 25.5942 42 25.3501 42C24.605 42 24 41.395 24 40.6499V40.4521C24 39.937 24.2861 39.4751 24.7461 39.2451L30.3242 36.4561C31.2788 35.978 32.4121 35.8711 33.4409 36.167L39.7251 37.9619L41.2471 38L60 28.1299V39.3818Z" fill="#222222"/>
</svg>
