<svg width="62" height="62" viewBox="0 0 62 62" fill="none" xmlns="http://www.w3.org/2000/svg">
<path d="M57 24C54.927 24 53.146 25.269 52.389 27.07C48.255 20.235 41.079 15.757 33.072 15.093C33.278 13.531 34.079 10.476 37.198 10.053C38.226 9.913 39 9.032 39 8.005C39 6.96 38.21 6.077 37.162 5.952C34.297 5.61 33.359 3.479 33.077 1.752C32.911 0.736 32.037 0 31 0C29.963 0 29.089 0.736 28.923 1.752C28.641 3.479 27.703 5.61 24.838 5.952C23.79 6.077 23 6.96 23 8.005C23 9.032 23.774 9.913 24.802 10.053C27.921 10.476 28.722 13.531 28.928 15.093C20.921 15.757 13.744 20.235 9.611 27.07C8.854 25.269 7.073 24 5 24C2.243 24 0 26.243 0 29C0 31.546 1.92 33.63 4.384 33.938C5.324 35.66 8.809 42.823 8.981 54.148C7.271 54.601 6 56.148 6 58C6 60.206 7.794 62 10 62H52C54.206 62 56 60.206 56 58C56 56.148 54.729 54.601 53.019 54.148C53.192 42.86 56.678 35.666 57.617 33.938C60.08 33.63 62 31.546 62 29C62 26.243 59.757 24 57 24ZM25.071 8.07L24.936 9.061L25.074 7.938C29.552 7.404 30.637 3.66 30.897 2.074C30.911 1.99 31.088 1.99 31.102 2.074C31.362 3.66 32.448 7.404 36.925 7.938L36.928 8.07C32.811 8.629 31.354 12.418 31.06 15.002C31.04 15.002 31.02 15 31 15C30.98 15 30.96 15.002 30.94 15.002C30.645 12.418 29.188 8.629 25.071 8.07ZM31 17C39.911 17 47.983 22.15 51.782 30.167C50.175 33.107 46.106 39 42 39C37.808 39 34.875 31.206 34.023 27.955C35.216 27.041 36 25.616 36 24C36 21.243 33.757 19 31 19C28.243 19 26 21.243 26 24C26 25.616 26.784 27.041 27.977 27.956C27.128 31.206 24.199 39 20 39C15.902 39 11.828 33.106 10.218 30.166C14.016 22.15 22.089 17 31 17ZM34 24C34 25.654 32.654 27 31 27C29.346 27 28 25.654 28 24C28 22.346 29.346 21 31 21C32.654 21 34 22.346 34 24ZM2 29C2 27.346 3.346 26 5 26C6.654 26 8 27.346 8 29C8 30.654 6.654 32 5 32C3.346 32 2 30.654 2 29ZM54 58C54 59.102 53.102 60 52 60H10C8.898 60 8 59.102 8 58C8 56.897 8.898 56 10 56H52C53.102 56 54 56.897 54 58ZM26 54V44.936C26 44.638 26.131 44.359 26.36 44.168L31 40.302L35.641 44.169C35.869 44.359 36 44.639 36 44.937V54H26ZM51.021 54H38V44.936C38 44.043 37.606 43.203 36.921 42.631L31 37.698L25.08 42.632C24.394 43.203 24 44.044 24 44.936V54H10.979C10.8 43.441 7.898 36.439 6.536 33.733C7.516 33.414 8.36 32.809 8.971 32.004C10.722 34.947 14.939 41 20 41C25.946 41 29.083 31.381 29.807 28.84C30.192 28.935 30.587 29 31 29C31.413 29 31.808 28.935 32.193 28.84C32.917 31.381 36.054 41 42 41C47.061 41 51.278 34.947 53.029 32.004C53.64 32.809 54.483 33.414 55.464 33.733C54.102 36.439 51.2 43.441 51.021 54ZM57 32C55.346 32 54 30.654 54 29C54 27.346 55.346 26 57 26C58.654 26 60 27.346 60 29C60 30.654 58.654 32 57 32Z" fill="#222222"/>
<path d="M31 44C29.346 44 28 45.346 28 47C28 48.654 29.346 50 31 50C32.654 50 34 48.654 34 47C34 45.346 32.654 44 31 44ZM31 48C30.448 48 30 47.552 30 47C30 46.448 30.448 46 31 46C31.552 46 32 46.448 32 47C32 47.552 31.552 48 31 48Z" fill="#222222"/>
<path d="M42 50H40V52H42V50Z" fill="#222222"/>
<path d="M46 50H44V52H46V50Z" fill="#222222"/>
<path d="M50 50H48V52H50V50Z" fill="#222222"/>
<path d="M42 46H40V48H42V46Z" fill="#222222"/>
<path d="M46 46H44V48H46V46Z" fill="#222222"/>
<path d="M50 46H48V48H50V46Z" fill="#222222"/>
<path d="M14 50H12V52H14V50Z" fill="#222222"/>
<path d="M18 50H16V52H18V50Z" fill="#222222"/>
<path d="M22 50H20V52H22V50Z" fill="#222222"/>
<path d="M14 46H12V48H14V46Z" fill="#222222"/>
<path d="M18 46H16V48H18V46Z" fill="#222222"/>
<path d="M22 46H20V48H22V46Z" fill="#222222"/>
<path d="M32 7H30V9H32V7Z" fill="#222222"/>
<path d="M24.3419 22.1661L23.6579 20.2871C20.0159 21.6091 16.7909 23.9031 14.3299 26.9211L15.8809 28.1851C18.1129 25.4471 21.0389 23.3661 24.3419 22.1661Z" fill="#222222"/>
<path d="M13.1319 28.5394C12.7729 29.0744 12.4329 29.6354 12.1219 30.2024L13.8779 31.1614C14.1579 30.6464 14.4659 30.1404 14.7919 29.6544L13.1319 28.5394Z" fill="#222222"/>
</svg>
