<svg width="62" height="62" viewBox="0 0 62 62" fill="none" xmlns="http://www.w3.org/2000/svg">
<path d="M35.3558 31.742L39.8814 27.2164L43.4201 30.7552L40.4597 33.7156L53.6969 46.9528V39.6365H62L53.612 31.2486L58.0527 26.8079L49.1713 17.9265L50.8213 16.2765C51.3946 15.7032 51.7232 14.9098 51.7232 14.0986C51.7232 12.4003 50.3417 11.0187 48.6434 11.0187C47.8322 11.0187 47.0388 11.3473 46.4655 11.9207L31 27.3861L15.5345 11.9207C14.9612 11.3473 14.1678 11.0187 13.3566 11.0187C11.6583 11.0187 10.2768 12.4003 10.2768 14.0986C10.2768 14.9098 10.6054 15.7032 11.1787 16.2765L12.8287 17.9265L3.94728 26.8079L8.38798 31.2486L0 39.6365H8.30311V46.9528L21.5403 33.7156L18.5799 30.7552L22.1186 27.2164L26.6442 31.742L2.29732 56.0888C1.72398 56.6622 1.39537 57.4556 1.39537 58.2667C1.39537 59.9651 2.77691 61.3466 4.47523 61.3466C5.2864 61.3466 6.07981 61.018 6.65315 60.4447L31 36.0978L55.3469 60.4447C55.9202 61.018 56.7136 61.3466 57.5248 61.3466C59.2231 61.3466 60.6046 59.9651 60.6046 58.2667C60.6046 57.4556 60.276 56.6622 59.7027 56.0888L35.3558 31.742ZM57.2356 37.6629H51.7232V42.1885L44.6458 35.111L49.1111 35.7485L52.2157 32.6439L57.2356 37.6629ZM43.9491 33.0179L44.8155 32.1505L45.972 33.3071L43.9491 33.0179ZM55.262 26.8079L48.7628 33.3071L41.2768 25.821L47.776 19.3218L55.262 26.8079ZM47.8608 13.3161C48.0671 13.1098 48.3523 12.9924 48.6434 12.9924C49.2532 12.9924 49.7496 13.4887 49.7496 14.0986C49.7496 14.3897 49.6322 14.6749 49.4259 14.8811L48.7628 15.5443L47.1977 13.9792L47.8608 13.3161ZM45.8023 15.3746L47.3674 16.9397L33.9605 30.3466L32.3954 28.7815L45.8023 15.3746ZM12.5741 14.8811C12.3678 14.6749 12.2504 14.3897 12.2504 14.0986C12.2504 13.4887 12.7468 12.9924 13.3566 12.9924C13.6477 12.9924 13.9329 13.1098 14.1392 13.3161L14.8023 13.9792L13.2372 15.5443L12.5741 14.8811ZM10.2768 42.1885V37.6629H4.76437L9.78334 32.6439L12.8879 35.7485L17.3532 35.111L10.2768 42.1885ZM16.0289 33.3071L17.1845 32.1505L18.0519 33.0179L16.0289 33.3071ZM13.2372 33.3071L6.73802 26.8079L14.224 19.3218L20.7232 25.821L13.2372 33.3071ZM5.25778 59.0493C5.05154 59.2555 4.76635 59.373 4.47523 59.373C3.86538 59.373 3.36901 58.8766 3.36901 58.2667C3.36901 57.9756 3.48644 57.6904 3.69268 57.4842L28.0395 33.1373L29.6046 34.7024L5.25778 59.0493ZM57.5248 59.373C57.2337 59.373 56.9485 59.2555 56.7422 59.0493L14.6326 16.9397L16.1977 15.3746L58.3073 57.4842C58.5136 57.6904 58.631 57.9756 58.631 58.2667C58.631 58.8766 58.1346 59.373 57.5248 59.373Z" fill="#222222"/>
<path d="M41.6221 13.9793L45.224 0.770707L36.091 3.0552L31 0L25.909 3.0552L16.776 0.771694L20.3779 13.9793H41.6221ZM26.2228 5.167L31 2.30127L35.7772 5.167L42.4333 3.50322L40.1143 12.0057H21.8857L19.5667 3.5042L26.2228 5.167Z" fill="#222222"/>
<path d="M31 11.0187C32.6322 11.0187 33.9605 9.69048 33.9605 8.05828C33.9605 6.42607 32.6322 5.09781 31 5.09781C29.3678 5.09781 28.0395 6.42607 28.0395 8.05828C28.0395 9.69048 29.3678 11.0187 31 11.0187ZM31 7.07145C31.5447 7.07145 31.9868 7.51355 31.9868 8.05828C31.9868 8.603 31.5447 9.0451 31 9.0451C30.4553 9.0451 30.0132 8.603 30.0132 8.05828C30.0132 7.51355 30.4553 7.07145 31 7.07145Z" fill="#222222"/>
<path d="M39.8814 7.07145H37.9077V9.04509H39.8814V7.07145Z" fill="#222222"/>
<path d="M24.0922 7.07145H22.1186V9.04509H24.0922V7.07145Z" fill="#222222"/>
</svg>
