<svg width="21" height="20" viewBox="0 0 21 20" fill="none" xmlns="http://www.w3.org/2000/svg">
<path d="M19.9384 18.5488L10.9185 0.508887C10.5787 -0.169629 9.46526 -0.169629 9.12551 0.508887L0.105564 18.5488C-0.048762 18.8605 -0.0337288 19.2283 0.149677 19.525C0.333082 19.8196 0.654794 20 1.00258 20H19.0425C19.3903 20 19.712 19.8206 19.8943 19.525C20.0777 19.2272 20.0927 18.8604 19.9384 18.5488ZM2.6241 17.9956L10.0225 3.19984L17.4209 17.9956H2.6241Z" fill="#FFC312"/>
<path d="M11.0247 7.97336H9.02023V13.9867H11.0247V7.97336Z" fill="#FFC312"/>
<path d="M10.0225 17.2439C10.7144 17.2439 11.2753 16.683 11.2753 15.9911C11.2753 15.2992 10.7144 14.7383 10.0225 14.7383C9.33058 14.7383 8.76969 15.2992 8.76969 15.9911C8.76969 16.683 9.33058 17.2439 10.0225 17.2439Z" fill="#FFC312"/>
</svg>
