<svg width="20" height="16" viewBox="0 0 20 16" fill="none" xmlns="http://www.w3.org/2000/svg">
<path d="M18 0H2.00001C0.899999 0 0 0.899999 0 1.99997V14C0 15.1 0.899999 16 2.00001 16H18C19.1 16 20 15.1 20 14V1.99997C20 0.899999 19.1 0 18 0ZM18 14H2.00001V1.99997H18V14Z" fill="#595959"/>
<path d="M15.9995 6.99998H11.9995V8.99999H15.9995V6.99998Z" fill="#595959"/>
<path d="M15.9995 9.99998H11.9995V12H15.9995V9.99998Z" fill="#595959"/>
<path d="M7.00091 8.99998C5.15989 8.99998 4.00091 10.159 4.00091 12H10.0009C10.0009 10.159 8.84192 8.99998 7.00091 8.99998Z" fill="#595959"/>
<path d="M6.99944 8C8.10402 8 8.99946 7.10457 8.99946 5.99999C8.99946 4.89541 8.10402 3.99997 6.99944 3.99997C5.89486 3.99997 4.99942 4.89541 4.99942 5.99999C4.99942 7.10457 5.89486 8 6.99944 8Z" fill="#595959"/>
</svg>
