<svg width="22" height="20" viewBox="0 0 22 20" fill="none" xmlns="http://www.w3.org/2000/svg">
<path d="M8.10324 11.8747C10.3377 11.8747 12.1548 10.0516 12.1548 7.81208C12.1548 5.57254 10.3367 3.74943 8.10324 3.74943C5.86979 3.74943 4.05165 5.57254 4.05165 7.81208C4.0516 10.0516 5.86979 11.8747 8.10324 11.8747ZM8.10324 5.78073C9.22149 5.78073 10.1291 6.69078 10.1291 7.81208C10.1291 8.93237 9.22149 9.84342 8.10324 9.84342C6.985 9.84342 6.07742 8.93232 6.07742 7.81203C6.07742 6.69073 6.985 5.78073 8.10324 5.78073Z" fill="white"/>
<path d="M8.10324 12.8904C3.33142 12.8904 0 15.396 0 18.9844V20H16.2064V18.9844C16.2064 15.396 12.875 12.8904 8.10324 12.8904ZM2.18687 17.9687C2.79258 16.1324 5.05746 14.9217 8.10424 14.9217C11.151 14.9217 13.4149 16.1324 14.0216 17.9687H2.18687Z" fill="white"/>
<path d="M19 3V0H17V3H14V5.00002H17V8.00001H19V5.00002H22V3H19Z" fill="white"/>
</svg>
