<svg width="18" height="22" viewBox="0 0 18 22" fill="none" xmlns="http://www.w3.org/2000/svg">
<path d="M13.414 0H1.99997C0.896999 0 0 0.896999 0 2.00001V20C0 21.104 0.896999 22 2.00001 22H16C17.103 22 18 21.104 18 20V4.58601L13.414 0ZM1.99997 20V2.00001H11.9999V5.99999H16L16.0009 20H1.99997Z" fill="#595959"/>
<path d="M12.7069 8.708L11.293 7.29299L3.29296 15.293L4.70695 16.708L6.03796 15.376C6.12397 16.528 6.58494 17.658 7.46394 18.537L8.87792 17.121C7.70891 15.953 7.70994 14.049 8.87792 12.879C10.0479 11.71 11.9509 11.71 13.1219 12.879L14.5349 11.464C13.6559 10.586 12.527 10.125 11.3739 10.04L12.7069 8.708Z" fill="#595959"/>
</svg>
