<svg width="20" height="20" viewBox="0 0 20 20" fill="none" xmlns="http://www.w3.org/2000/svg">
<path d="M19 7.99968H18V5.99967C18 4.89666 17.103 3.99966 16 3.99966H15.618L13.894 0.552659C13.662 0.0876589 13.111 -0.121357 12.628 0.0716745L2.80701 3.9997H2.00001C0.896999 3.9997 0 4.8967 0 5.99967V17.9997C0 19.1027 0.896999 19.9997 2.00001 19.9997H16C17.103 19.9997 18 19.1027 18 17.9997V15.9997H19C19.552 15.9997 20 15.5517 20 14.9997V8.99971C20 8.44767 19.552 7.99968 19 7.99968ZM12.517 2.26969L13.382 3.9997H8.19299L12.517 2.26969ZM15.997 17.9997H2.00001V5.99967H16V7.99968H13C12.735 7.99968 12.48 8.10567 12.293 8.29368L9.29301 11.2937C8.90203 11.6837 8.90203 12.3157 9.29301 12.7077L12.293 15.7077C12.48 15.8937 12.735 15.9996 13 15.9996H15.998L15.997 17.9997ZM18 13.9997H13.414L11.414 11.9997L13.414 9.99965H18V13.9997Z" fill="#595959"/>
<path d="M14 12.9995C14.5523 12.9995 15 12.5518 15 11.9996C15 11.4473 14.5523 10.9996 14 10.9996C13.4478 10.9996 13.0001 11.4473 13.0001 11.9996C13.0001 12.5518 13.4478 12.9995 14 12.9995Z" fill="#595959"/>
</svg>
