<svg width="22" height="18" viewBox="0 0 22 18" fill="none" xmlns="http://www.w3.org/2000/svg">
<path d="M14 16H2.00001V8H4V5.99998H0.999984C0.447984 5.99998 0 6.44797 0 6.99996V16.9999C0 17.552 0.447984 18 0.999984 18H15C15.552 18 16 17.552 16 17V14H14L14 16Z" fill="#C21E37"/>
<path d="M20 0H7.99999C6.89697 0 5.99997 0.897984 5.99997 2.00002V9.99998C5.99997 11.103 6.89697 12 7.99999 12H20C21.103 12 22 11.103 22 9.99998V1.99997C22 0.897984 21.103 0 20 0ZM17.88 1.99997L14 4.77L10.12 2.00002L17.88 1.99997ZM7.99999 9.99998V2.94197L13.419 6.81295C13.593 6.93698 13.796 6.99998 14 6.99998C14.204 6.99998 14.407 6.93698 14.581 6.813L20 2.94197L20.001 9.99998H7.99999Z" fill="#C21E37"/>
</svg>
