<svg width="22" height="22" viewBox="0 0 22 22" fill="none" xmlns="http://www.w3.org/2000/svg">
<path d="M22 1.32202L20.4643 0L15.1088 6.28374L12.8482 4.00981L11.4175 5.44781L15.2231 9.27557L22 1.32202Z" fill="#C21E37"/>
<path d="M17.1875 13.8644H13.1434C12.0555 13.8644 11.1649 14.7339 11.1234 15.819C8.55232 15.4081 6.60204 13.4393 6.15921 10.8116C7.23089 10.7617 8.08826 9.86984 8.08826 8.77969V4.71187C8.08826 3.58915 7.18236 2.67795 6.06618 2.67795H2.02208C0.905899 2.67795 0 3.58915 0 4.71187V9.79662C0 16.5258 5.44236 22 12.1324 22H17.1875C18.3037 22 19.2096 21.0888 19.2096 19.9661V15.8983C19.2096 14.7756 18.3037 13.8644 17.1875 13.8644ZM12.1324 19.9661C6.55754 19.9661 2.02208 15.4041 2.02208 9.79662V4.71187H6.06618V8.77964H5.05517C4.78522 8.77964 4.52338 8.88847 4.33429 9.08373C4.14524 9.27898 4.04008 9.54035 4.0441 9.81288C4.1169 14.441 7.59486 17.9322 12.1324 17.9322C12.6914 17.9322 13.1434 17.4776 13.1434 16.9152V15.8983H17.1875L17.1895 19.9661H12.1324Z" fill="#C21E37"/>
</svg>
