<svg width="715" height="308" viewBox="0 0 715 308" fill="none" xmlns="http://www.w3.org/2000/svg">
<g clip-path="url(#clip0)" filter="url(#filter0_d)">
<path fill-rule="evenodd" clip-rule="evenodd" d="M459.108 105.897C463.255 152.999 450.756 211.32 409.428 239.329C397.973 247.076 384.347 250.392 370.658 251.068C342.109 252.479 304.037 238.961 288.529 213.238C279.847 198.844 278.718 183.195 270.418 164.217C265.043 151.932 256.508 141.626 249.562 130.245C241.184 116.529 234.413 93.4785 235.449 73.872C235.599 71.0844 239.752 50.2927 242.869 45.8405C244.308 43.7665 246.247 43.3914 248.652 43.8724C251.057 44.3513 254.557 47.1733 256.805 47.0257C259.057 46.8848 260.057 43.7726 261.687 42.1424C263.307 40.5189 266.284 39.342 266.566 37.2613C266.85 35.1872 264.436 32.2093 264.07 30.1757C263.704 28.1449 264.035 26.6058 265.261 25.4356C269.261 19.629 279.579 17.3296 289.721 16.4535C302.909 15.3244 320.599 15.5496 333.625 18.0681C341.221 19.5441 348.767 21.6814 356.298 24.0462C374.418 29.7402 375.8 32.6249 396.506 35.3126C420.346 38.4098 433.324 29.8162 448.924 41.6352C470.364 57.8649 457.57 88.3367 459.108 105.897ZM365.664 202.98C390.442 202.98 406.326 177.87 406.326 142.594V141.95C406.326 106.673 389.497 80.9282 365.023 80.9282C340.564 80.9282 324.358 105.722 324.358 141.315V141.95C324.358 177.552 340.88 202.98 365.664 202.98Z" fill="url(#paint0_linear)"/>
<path fill-rule="evenodd" clip-rule="evenodd" d="M451.902 177.933C444.228 202.627 430.617 224.964 409.43 239.33C404.689 242.533 399.585 244.986 394.253 246.794C392.926 244.677 391.742 242.448 390.769 240.134L392.22 238.848C390.753 235.222 389.724 231.384 389.23 227.404L387.354 227.264C386.479 219.855 387.382 212.306 389.962 205.308L391.81 205.618C393.236 201.866 395.126 198.366 397.424 195.178L396.31 193.595C399.528 189.25 403.475 185.495 407.947 182.498L409.345 183.79C412.166 181.934 415.184 180.389 418.371 179.197L418.315 177.255C421.335 176.176 424.466 175.394 427.709 174.942L428.556 176.698C431.208 176.366 433.888 176.269 436.625 176.416L437.273 174.602C439.052 174.717 440.546 174.892 442.295 175.202L442.493 177.114C445.201 177.608 447.797 178.343 450.294 179.281L451.521 177.786L451.902 177.933Z" fill="url(#paint1_linear)"/>
<path fill-rule="evenodd" clip-rule="evenodd" d="M442.549 200.962C441.42 203.136 440.237 205.251 438.996 207.341C438.712 207.185 438.458 207.001 438.205 206.775C436.653 205.336 436.569 203.008 438.035 201.582C439.221 200.397 441.054 200.199 442.549 200.962Z" fill="url(#paint2_linear)"/>
<path fill-rule="evenodd" clip-rule="evenodd" d="M393.857 221.62C394.973 221.098 396.242 222.778 396.706 225.346C397.159 227.914 396.622 230.426 395.495 230.933C394.394 231.469 393.124 229.791 392.671 227.208C392.221 224.639 392.743 222.129 393.857 221.62Z" fill="url(#paint3_linear)"/>
<path fill-rule="evenodd" clip-rule="evenodd" d="M402.122 243.548C400.967 244.114 399.782 244.648 398.597 245.158C398.4 244.917 398.203 244.648 398.019 244.367C397.046 242.73 397.046 240.923 398.019 240.331C398.992 239.752 400.571 240.613 401.559 242.236C401.813 242.674 402.009 243.125 402.122 243.548Z" fill="url(#paint4_linear)"/>
<path fill-rule="evenodd" clip-rule="evenodd" d="M402.785 205.139C404.493 205.352 405.987 204.138 406.128 202.43C406.271 200.737 404.986 199.185 403.279 198.973C401.558 198.76 400.064 199.974 399.923 201.695C399.795 203.39 401.08 204.942 402.785 205.139Z" fill="url(#paint5_linear)"/>
<path fill-rule="evenodd" clip-rule="evenodd" d="M421.815 217.641C427.216 218.291 431.942 214.452 432.366 209.062C432.789 203.671 428.754 198.775 423.353 198.125C417.949 197.477 413.211 201.316 412.786 206.706C412.364 212.096 416.398 216.993 421.815 217.641Z" fill="url(#paint6_linear)"/>
<path fill-rule="evenodd" clip-rule="evenodd" d="M406.495 238.469C409.301 238.792 411.743 236.803 411.968 234.024C412.193 231.243 410.105 228.703 407.312 228.365C404.506 228.027 402.064 230.029 401.839 232.81C401.614 235.589 403.703 238.129 406.495 238.469Z" fill="url(#paint7_linear)"/>
<path fill-rule="evenodd" clip-rule="evenodd" d="M430.051 195.741C433.732 196.192 436.95 193.582 437.244 189.928C437.528 186.258 434.777 182.935 431.108 182.491C427.427 182.054 424.212 184.663 423.93 188.32C423.646 191.987 426.383 195.319 430.051 195.741Z" fill="url(#paint8_linear)"/>
<path fill-rule="evenodd" clip-rule="evenodd" d="M425.735 225.233C423.224 227.956 420.544 230.54 417.723 232.967C417.554 232.288 417.498 231.584 417.554 230.862C417.836 227.208 421.051 224.599 424.734 225.036C425.073 225.077 425.398 225.149 425.735 225.233Z" fill="url(#paint9_linear)"/>
<path fill-rule="evenodd" clip-rule="evenodd" d="M448.882 186.709C448.334 188.149 447.768 189.59 447.176 191.001C446.655 190.873 446.189 190.52 445.92 190.012C445.341 188.939 445.766 187.557 446.836 186.88C447.499 186.456 448.262 186.428 448.882 186.709Z" fill="url(#paint10_linear)"/>
<path fill-rule="evenodd" clip-rule="evenodd" d="M404.789 216.639C402.941 217.782 400.655 217.246 399.67 215.412C398.695 213.576 399.386 211.164 401.249 210.022C403.097 208.864 405.397 209.415 406.369 211.234C407.341 213.07 406.637 215.497 404.789 216.639Z" fill="url(#paint11_linear)"/>
<path fill-rule="evenodd" clip-rule="evenodd" d="M414.197 192.299C413.127 192.975 411.801 192.65 411.236 191.593C410.657 190.519 411.066 189.108 412.139 188.445C413.212 187.782 414.551 188.092 415.129 189.165C415.692 190.223 415.27 191.62 414.197 192.299Z" fill="url(#paint12_linear)"/>
<path fill-rule="evenodd" clip-rule="evenodd" d="M442.295 175.203L442.492 177.114C445.2 177.609 447.796 178.343 450.294 179.281L451.52 177.786L451.902 177.934C444.228 202.627 430.617 224.965 409.43 239.33C404.689 242.533 399.585 244.987 394.253 246.795C392.926 244.677 391.742 242.449 390.769 240.134L392.22 238.849C390.753 235.223 389.724 231.384 389.23 227.405L387.354 227.264C386.479 219.856 387.382 212.307 389.962 205.308L391.81 205.618C393.236 201.866 395.126 198.366 397.424 195.178L396.31 193.596C399.528 189.25 403.475 185.496 407.947 182.499L409.345 183.79C412.166 181.935 415.184 180.389 418.371 179.198L418.315 177.256C421.335 176.176 424.466 175.394 427.709 174.943L428.556 176.699C431.208 176.367 433.888 176.27 436.625 176.417L437.273 174.602C439.051 174.717 440.546 174.892 442.295 175.203Z" fill="url(#paint13_linear)"/>
<path fill-rule="evenodd" clip-rule="evenodd" d="M438.205 206.775C436.653 205.336 436.569 203.008 438.035 201.582C439.221 200.397 441.053 200.2 442.549 200.963C441.42 203.136 440.237 205.252 438.996 207.341C438.712 207.185 438.458 207.001 438.205 206.775Z" fill="url(#paint14_linear)"/>
<path fill-rule="evenodd" clip-rule="evenodd" d="M393.855 221.62C394.971 221.098 396.24 222.778 396.704 225.346C397.157 227.914 396.62 230.426 395.493 230.933C394.392 231.469 393.123 229.791 392.669 227.208C392.219 224.639 392.741 222.129 393.855 221.62Z" fill="url(#paint15_linear)"/>
<path fill-rule="evenodd" clip-rule="evenodd" d="M398.017 240.332C398.99 239.753 400.569 240.613 401.557 242.237C401.811 242.675 402.008 243.126 402.121 243.548C400.966 244.114 399.78 244.649 398.596 245.158C398.399 244.917 398.201 244.649 398.017 244.367C397.044 242.731 397.044 240.923 398.017 240.332Z" fill="url(#paint16_linear)"/>
<path fill-rule="evenodd" clip-rule="evenodd" d="M402.783 205.139C404.491 205.352 405.985 204.138 406.126 202.43C406.269 200.737 404.984 199.185 403.277 198.973C401.557 198.76 400.062 199.974 399.921 201.695C399.793 203.39 401.078 204.942 402.783 205.139Z" fill="url(#paint17_linear)"/>
<path fill-rule="evenodd" clip-rule="evenodd" d="M421.813 217.641C427.214 218.291 431.94 214.452 432.364 209.062C432.787 203.671 428.752 198.775 423.351 198.125C417.948 197.477 413.209 201.316 412.784 206.706C412.362 212.096 416.396 216.992 421.813 217.641Z" fill="url(#paint18_linear)"/>
<path fill-rule="evenodd" clip-rule="evenodd" d="M406.495 238.469C409.301 238.792 411.743 236.803 411.968 234.024C412.193 231.243 410.105 228.703 407.312 228.365C404.506 228.027 402.064 230.029 401.839 232.81C401.614 235.589 403.703 238.129 406.495 238.469Z" fill="url(#paint19_linear)"/>
<path fill-rule="evenodd" clip-rule="evenodd" d="M430.051 195.741C433.732 196.192 436.95 193.582 437.244 189.928C437.528 186.258 434.777 182.935 431.108 182.491C427.427 182.054 424.212 184.663 423.93 188.32C423.646 191.987 426.383 195.319 430.051 195.741Z" fill="url(#paint20_linear)"/>
<path fill-rule="evenodd" clip-rule="evenodd" d="M425.736 225.233C425.398 225.149 425.073 225.077 424.734 225.036C421.051 224.598 417.836 227.208 417.554 230.862C417.498 231.584 417.554 232.288 417.724 232.967C420.545 230.539 423.225 227.955 425.736 225.233Z" fill="url(#paint21_linear)"/>
<path fill-rule="evenodd" clip-rule="evenodd" d="M447.176 191.001C446.655 190.873 446.189 190.52 445.92 190.012C445.341 188.939 445.766 187.557 446.836 186.88C447.499 186.455 448.261 186.428 448.882 186.709C448.334 188.149 447.768 189.59 447.176 191.001Z" fill="url(#paint22_linear)"/>
<path fill-rule="evenodd" clip-rule="evenodd" d="M404.789 216.639C402.941 217.781 400.655 217.246 399.67 215.412C398.695 213.576 399.386 211.164 401.249 210.022C403.097 208.864 405.397 209.415 406.369 211.233C407.341 213.07 406.637 215.497 404.789 216.639Z" fill="url(#paint23_linear)"/>
<path fill-rule="evenodd" clip-rule="evenodd" d="M414.195 192.299C413.125 192.975 411.799 192.65 411.234 191.593C410.655 190.519 411.064 189.108 412.137 188.445C413.21 187.782 414.549 188.092 415.127 189.165C415.69 190.223 415.268 191.62 414.195 192.299Z" fill="url(#paint24_linear)"/>
<path fill-rule="evenodd" clip-rule="evenodd" d="M326.191 212.703L326.326 213.943C328.089 214.283 329.794 214.762 331.423 215.384L332.227 214.396C334.216 215.172 336.107 216.161 337.856 217.303L337.518 218.529C339.366 219.787 341.052 221.225 342.566 222.834L343.647 222.243C346.031 224.839 347.97 227.83 349.352 231.09L348.392 231.922C349.368 234.306 350.037 236.831 350.369 239.428L351.595 239.528C352.167 244.368 351.573 249.32 349.881 253.906L348.668 253.694C347.738 256.164 346.497 258.449 344.993 260.538L345.727 261.568C343.611 264.418 341.03 266.86 338.103 268.835L337.193 267.988C335.345 269.202 333.362 270.218 331.276 270.994L331.317 272.264C329.343 272.984 327.276 273.491 325.161 273.775L324.611 272.646C322.876 272.843 321.112 272.915 319.314 272.815L318.898 274.001C317.684 273.929 316.803 273.832 315.604 273.619L315.476 272.364C313.713 272.024 312.008 271.545 310.37 270.938L309.566 271.926C307.577 271.151 305.694 270.162 303.939 269.004L304.284 267.79C302.435 266.535 300.743 265.081 299.233 263.473L298.148 264.065C295.765 261.47 293.826 258.477 292.443 255.232L293.401 254.385C292.435 252.016 291.759 249.489 291.434 246.879L290.208 246.795C289.636 241.94 290.229 237.003 291.921 232.416L293.135 232.627C294.065 230.158 295.306 227.872 296.81 225.797L296.075 224.752C298.183 221.902 300.773 219.448 303.693 217.472L304.609 218.319C306.451 217.105 308.44 216.104 310.526 215.328L310.485 214.058C312.459 213.338 314.519 212.829 316.634 212.532L317.191 213.677C318.92 213.464 320.69 213.395 322.482 213.492L322.904 212.307C324.068 212.391 325.04 212.504 326.191 212.703Z" fill="url(#paint25_linear)"/>
<path fill-rule="evenodd" clip-rule="evenodd" d="M315.456 260.51C314.752 260.948 313.876 260.735 313.51 260.044C313.138 259.353 313.404 258.42 314.102 257.998C314.808 257.547 315.683 257.772 316.056 258.464C316.431 259.155 316.156 260.072 315.456 260.51Z" fill="url(#paint26_linear)"/>
<path fill-rule="evenodd" clip-rule="evenodd" d="M323.512 233.374C322.502 232.429 322.445 230.905 323.392 229.973C324.343 229.043 325.923 229.043 326.939 229.988C327.946 230.933 328.003 232.444 327.058 233.389C326.113 234.321 324.519 234.321 323.512 233.374Z" fill="url(#paint27_linear)"/>
<path fill-rule="evenodd" clip-rule="evenodd" d="M337.249 228.477C334.506 227.263 331.944 228.449 331.528 231.13C331.112 233.826 332.989 236.987 335.725 238.214C338.462 239.428 341.022 238.242 341.438 235.547C341.861 232.866 339.979 229.691 337.249 228.477Z" fill="url(#paint28_linear)"/>
<path fill-rule="evenodd" clip-rule="evenodd" d="M333.978 245.199C331.812 244.931 329.922 246.484 329.754 248.628C329.576 250.787 331.192 252.749 333.363 253.002C335.53 253.271 337.419 251.732 337.588 249.573C337.757 247.414 336.143 245.453 333.978 245.199Z" fill="url(#paint29_linear)"/>
<path fill-rule="evenodd" clip-rule="evenodd" d="M294.467 243.097C295.202 242.759 296.034 243.86 296.328 245.524C296.625 247.217 296.272 248.854 295.546 249.194C294.82 249.532 293.988 248.459 293.685 246.766C293.389 245.071 293.742 243.435 294.467 243.097Z" fill="url(#paint30_linear)"/>
<path fill-rule="evenodd" clip-rule="evenodd" d="M297.188 255.345C297.832 254.979 298.867 255.529 299.509 256.6C300.152 257.673 300.152 258.845 299.509 259.24C298.874 259.606 297.832 259.056 297.197 257.998C296.556 256.925 296.556 255.739 297.188 255.345Z" fill="url(#paint31_linear)"/>
<path fill-rule="evenodd" clip-rule="evenodd" d="M310.02 263.079C309.661 264.008 307.975 263.755 306.252 262.485C304.532 261.243 303.431 259.466 303.791 258.534C304.15 257.604 305.836 257.857 307.565 259.112C309.279 260.369 310.386 262.146 310.02 263.079Z" fill="url(#paint32_linear)"/>
<path fill-rule="evenodd" clip-rule="evenodd" d="M312.261 269.004C311.555 269.455 310.688 269.229 310.313 268.553C309.947 267.846 310.209 266.917 310.914 266.492C311.62 266.04 312.493 266.266 312.868 266.958C313.234 267.65 312.966 268.582 312.261 269.004Z" fill="url(#paint33_linear)"/>
<path fill-rule="evenodd" clip-rule="evenodd" d="M300.315 232.316C301.435 232.444 302.417 231.64 302.508 230.539C302.592 229.41 301.754 228.408 300.638 228.267C299.517 228.14 298.536 228.93 298.445 230.044C298.361 231.159 299.2 232.175 300.315 232.316Z" fill="url(#paint34_linear)"/>
<path fill-rule="evenodd" clip-rule="evenodd" d="M319.766 270.331C321.601 270.543 323.202 269.23 323.349 267.424C323.49 265.591 322.123 263.924 320.297 263.713C318.461 263.501 316.854 264.799 316.713 266.62C316.572 268.441 317.939 270.105 319.766 270.331Z" fill="url(#paint35_linear)"/>
<path fill-rule="evenodd" clip-rule="evenodd" d="M312.775 240.5C316.317 240.923 319.413 238.398 319.695 234.869C319.97 231.343 317.325 228.14 313.785 227.717C310.244 227.292 307.148 229.804 306.867 233.333C306.583 236.859 309.228 240.077 312.775 240.5Z" fill="url(#paint36_linear)"/>
<path fill-rule="evenodd" clip-rule="evenodd" d="M331.6 266.705C333.883 266.973 335.881 265.363 336.056 263.079C336.241 260.807 334.533 258.733 332.248 258.464C329.962 258.196 327.966 259.804 327.791 262.09C327.607 264.361 329.314 266.435 331.6 266.705Z" fill="url(#paint37_linear)"/>
<path fill-rule="evenodd" clip-rule="evenodd" d="M302.755 254.132C304.582 254.344 306.189 253.046 306.33 251.225C306.471 249.391 305.104 247.74 303.277 247.528C301.442 247.302 299.841 248.601 299.694 250.421C299.553 252.241 300.92 253.906 302.755 254.132Z" fill="url(#paint38_linear)"/>
<path fill-rule="evenodd" clip-rule="evenodd" d="M318.172 226.165C320.584 226.447 322.685 224.739 322.875 222.339C323.066 219.94 321.268 217.768 318.863 217.471C316.458 217.189 314.348 218.897 314.16 221.295C313.975 223.694 315.773 225.868 318.172 226.165Z" fill="url(#paint39_linear)"/>
<path fill-rule="evenodd" clip-rule="evenodd" d="M324.365 246.682C326.764 246.964 328.872 245.243 329.063 242.856C329.254 240.459 327.455 238.27 325.05 237.988C322.645 237.707 320.535 239.399 320.353 241.799C320.153 244.198 321.954 246.37 324.365 246.682Z" fill="url(#paint40_linear)"/>
<path fill-rule="evenodd" clip-rule="evenodd" d="M314.005 254.018C316.41 254.3 318.511 252.607 318.702 250.195C318.893 247.808 317.095 245.622 314.69 245.327C312.285 245.043 310.183 246.766 309.992 249.151C309.802 251.55 311.593 253.737 314.005 254.018Z" fill="url(#paint41_linear)"/>
<path fill-rule="evenodd" clip-rule="evenodd" d="M346.363 246.751C345.657 247.189 344.79 246.977 344.415 246.285C344.042 245.581 344.317 244.664 345.015 244.226C345.721 243.788 346.594 244.001 346.969 244.692C347.336 245.384 347.066 246.313 346.363 246.751Z" fill="url(#paint42_linear)"/>
<path fill-rule="evenodd" clip-rule="evenodd" d="M330.513 222.862C329.809 223.313 328.933 223.087 328.561 222.396C328.186 221.704 328.461 220.788 329.159 220.349C329.865 219.912 330.74 220.124 331.107 220.815C331.479 221.507 331.212 222.439 330.513 222.862Z" fill="url(#paint43_linear)"/>
<path fill-rule="evenodd" clip-rule="evenodd" d="M340.515 258.873C339.549 258.618 339.599 256.925 340.628 255.048C341.659 253.186 343.28 251.872 344.253 252.113C345.219 252.354 345.171 254.074 344.14 255.936C343.111 257.801 341.488 259.099 340.515 258.873Z" fill="url(#paint44_linear)"/>
<path fill-rule="evenodd" clip-rule="evenodd" d="M301.626 239.837C300.419 240.585 298.917 240.232 298.276 239.033C297.635 237.835 298.092 236.252 299.305 235.505C300.519 234.744 302.02 235.11 302.664 236.296C303.296 237.509 302.839 239.089 301.626 239.837Z" fill="url(#paint45_linear)"/>
<path fill-rule="evenodd" clip-rule="evenodd" d="M307.791 223.892C307.086 224.329 306.218 224.132 305.845 223.425C305.47 222.721 305.739 221.817 306.443 221.366C307.149 220.944 308.023 221.141 308.391 221.845C308.764 222.537 308.497 223.455 307.791 223.892Z" fill="url(#paint46_linear)"/>
<path fill-rule="evenodd" clip-rule="evenodd" d="M342.518 228.055C341.812 228.506 340.939 228.296 340.564 227.604C340.198 226.898 340.464 225.981 341.171 225.543C341.876 225.105 342.744 225.318 343.11 226.022C343.485 226.7 343.223 227.633 342.518 228.055Z" fill="url(#paint47_linear)"/>
<path fill-rule="evenodd" clip-rule="evenodd" d="M324.831 258.083C323.828 258.705 322.587 258.421 322.058 257.42C321.536 256.431 321.917 255.12 322.912 254.498C323.913 253.878 325.154 254.188 325.685 255.176C326.205 256.164 325.826 257.463 324.831 258.083Z" fill="url(#paint48_linear)"/>
<path fill-rule="evenodd" clip-rule="evenodd" d="M269.593 159.313C273.994 158.997 278.262 157 281.371 153.403C287.591 146.205 286.802 135.333 279.607 129.11C272.413 122.888 261.546 123.677 255.326 130.875C254.204 132.173 253.308 133.591 252.637 135.086C257.906 143.123 263.654 150.835 268.083 159.357C268.592 159.369 269.092 159.35 269.593 159.313Z" fill="url(#paint49_linear)"/>
<path fill-rule="evenodd" clip-rule="evenodd" d="M472.213 97.5717C478.771 85.1201 474.005 69.7094 461.562 63.1554C449.093 56.6075 433.662 61.3998 427.102 73.8514C420.543 86.3053 425.312 101.714 437.753 108.268C450.222 114.822 465.652 110.026 472.213 97.5717Z" fill="url(#paint50_linear)"/>
<path fill-rule="evenodd" clip-rule="evenodd" d="M307.876 165.67L306.91 168.817L303.764 169.784L306.91 170.75L307.876 173.898L308.842 170.75L311.995 169.784L308.842 168.817L307.876 165.67Z" fill="url(#paint51_linear)"/>
<path fill-rule="evenodd" clip-rule="evenodd" d="M366.238 218.926L365.272 222.07L362.119 223.031L365.272 224.004L366.238 227.151L367.204 224.004L370.35 223.031L367.204 222.07L366.238 218.926Z" fill="url(#paint52_linear)"/>
<path fill-rule="evenodd" clip-rule="evenodd" d="M439.332 145.14L438.372 148.294L435.213 149.261L438.372 150.227L439.332 153.374L440.305 150.227L443.451 149.261L440.305 148.294L439.332 145.14Z" fill="url(#paint53_linear)"/>
<path fill-rule="evenodd" clip-rule="evenodd" d="M259.472 102.596L258.506 105.75L255.354 106.716L258.506 107.683L259.472 110.83L260.439 107.683L263.591 106.716L260.439 105.75L259.472 102.596Z" fill="url(#paint54_linear)"/>
<path fill-rule="evenodd" clip-rule="evenodd" d="M367.501 54.6833L366.535 57.8366L363.389 58.8032L366.535 59.7703L367.501 62.9152L368.474 59.7703L371.62 58.8032L368.474 57.8366L367.501 54.6833Z" fill="url(#paint55_linear)"/>
<path fill-rule="evenodd" clip-rule="evenodd" d="M348.051 31.916L347.084 35.0693L343.932 36.0358L347.084 37.003L348.051 40.1562L349.017 37.003L352.163 36.0358L349.017 35.0693L348.051 31.916Z" fill="url(#paint56_linear)"/>
<path fill-rule="evenodd" clip-rule="evenodd" d="M412.925 42.4631L411.968 45.6081L408.807 46.5746L411.968 47.5412L412.925 50.695L413.9 47.5412L417.044 46.5746L413.9 45.6081L412.925 42.4631Z" fill="url(#paint57_linear)"/>
<path fill-rule="evenodd" clip-rule="evenodd" d="M544.657 166.997L599.486 100.966V166.997H544.657ZM599.486 258.987H661.239V214.311H690.466V166.665H661.239V27.3782H596.862L477.67 169.298L488.165 214.311H599.486V258.987Z" fill="url(#paint58_linear)"/>
<path fill-rule="evenodd" clip-rule="evenodd" d="M91.8633 166.997L146.705 100.966V166.997H91.8633ZM146.705 258.987H208.438V214.311H237.666V166.665H208.438V27.3782H144.075L24.8672 169.298L35.3773 214.311H146.705V258.987Z" fill="url(#paint59_linear)"/>
<path d="M298.492 61.571L299.632 63.5453" stroke="white" stroke-miterlimit="10" stroke-linecap="round" stroke-linejoin="round"/>
<path d="M364.301 104.822L403.082 130.098C404.346 130.933 404.263 132.76 402.982 133.499L378.651 147.546C377.264 148.347 375.55 147.843 374.78 146.509L354.602 111.56L364.301 104.822Z" fill="#263238" stroke="#263238" stroke-miterlimit="10" stroke-linecap="round" stroke-linejoin="round"/>
<path d="M400.421 134.978L359.402 108.291L354.633 111.613L374.811 146.562C375.612 147.949 377.348 148.37 378.682 147.6L400.452 135.031L400.421 134.978Z" fill="white" stroke="black" stroke-miterlimit="10"/>
<path d="M316.172 132.609L318.671 178.832C318.761 180.345 320.385 181.186 321.666 180.447L345.943 166.43C347.331 165.629 347.751 163.893 346.981 162.559L326.803 127.61L316.172 132.609Z" fill="#263238" stroke="#263238" stroke-miterlimit="10" stroke-linecap="round" stroke-linejoin="round"/>
<path d="M324.227 178.968L321.625 130.101L326.887 127.632L347.065 162.581C347.866 163.968 347.361 165.682 346.027 166.453L324.258 179.021C324.204 179.052 324.227 178.968 324.227 178.968Z" fill="white" stroke="black" stroke-miterlimit="10"/>
<path d="M321.624 130.101L323.617 167.439C326.614 160.8 331.211 153.237 338.038 146.948L326.886 127.632L321.624 130.101Z" fill="#FFA200"/>
<path d="M345.484 147.273L345.497 162.206L358.409 154.751L345.484 147.273Z" fill="#FFA200" stroke="#263238" stroke-miterlimit="10" stroke-linecap="round" stroke-linejoin="round"/>
<path d="M362.451 137.478L362.411 152.441L375.376 144.955L362.451 137.478Z" fill="#FFA200" stroke="#263238" stroke-miterlimit="10" stroke-linecap="round" stroke-linejoin="round"/>
<path d="M358.561 154.521L345.168 162.253L346.554 164.654L359.947 156.922L358.561 154.521Z" fill="#263238" stroke="#263238" stroke-miterlimit="10" stroke-linecap="round" stroke-linejoin="round"/>
<path d="M375.475 144.756L362.082 152.488L363.468 154.889L376.861 147.157L375.475 144.756Z" fill="#263238" stroke="#263238" stroke-miterlimit="10" stroke-linecap="round" stroke-linejoin="round"/>
<path d="M290.777 27.7513C288.718 27.0192 286.477 28.3131 286.081 30.4623C284.042 41.1014 279.643 70.8179 290.764 90.0798L323.264 146.371L341.539 157.447L373.18 139.18L372.726 117.815L340.226 61.5229C329.105 42.261 301.033 31.221 290.777 27.7513Z" fill="white" stroke="black" stroke-miterlimit="10"/>
<path d="M288.999 30.3422C288.414 29.3284 289.036 36.9371 288.518 40.7222C288.448 40.4779 288.325 40.2645 288.255 40.0203C288.255 40.0203 285.105 62.0433 289.786 78.407C289.786 78.407 290.362 80.6359 291.467 83.4127C292.248 85.3809 315.063 125.637 328.765 149.74L341.569 157.501L356.029 149.152L356.99 148.598C355.992 147.609 353.734 141.727 352.56 140.555C334.684 109.471 290.139 32.3164 288.999 30.3422Z" fill="#FFA200"/>
<path d="M328.387 142.061C328.829 141.806 328.98 141.241 328.725 140.799C328.47 140.357 327.905 140.206 327.462 140.461C327.02 140.716 326.869 141.281 327.124 141.723C327.379 142.165 327.945 142.317 328.387 142.061Z" stroke="#263238" stroke-miterlimit="10" stroke-linecap="round" stroke-linejoin="round"/>
<path d="M332.709 139.566C333.151 139.311 333.302 138.746 333.047 138.304C332.792 137.862 332.227 137.71 331.785 137.965C331.343 138.221 331.191 138.786 331.446 139.228C331.702 139.67 332.267 139.821 332.709 139.566Z" stroke="#263238" stroke-miterlimit="10" stroke-linecap="round" stroke-linejoin="round"/>
<path d="M337.031 137.071C337.473 136.816 337.625 136.251 337.369 135.809C337.114 135.367 336.549 135.215 336.107 135.47C335.665 135.725 335.514 136.291 335.769 136.733C336.024 137.175 336.589 137.326 337.031 137.071Z" stroke="#263238" stroke-miterlimit="10" stroke-linecap="round" stroke-linejoin="round"/>
<path d="M341.351 134.576C341.793 134.32 341.945 133.755 341.69 133.313C341.435 132.871 340.869 132.72 340.427 132.975C339.985 133.23 339.834 133.795 340.089 134.237C340.344 134.679 340.909 134.831 341.351 134.576Z" stroke="#263238" stroke-miterlimit="10" stroke-linecap="round" stroke-linejoin="round"/>
<path d="M353.305 127.675C353.747 127.42 353.898 126.855 353.643 126.413C353.388 125.971 352.822 125.819 352.38 126.074C351.938 126.329 351.787 126.895 352.042 127.337C352.297 127.779 352.863 127.93 353.305 127.675Z" stroke="#263238" stroke-miterlimit="10" stroke-linecap="round" stroke-linejoin="round"/>
<path d="M357.627 125.18C358.069 124.924 358.22 124.359 357.965 123.917C357.71 123.475 357.145 123.324 356.703 123.579C356.261 123.834 356.109 124.399 356.364 124.841C356.62 125.283 357.185 125.435 357.627 125.18Z" stroke="#263238" stroke-miterlimit="10" stroke-linecap="round" stroke-linejoin="round"/>
<path d="M361.949 122.685C362.391 122.429 362.543 121.864 362.287 121.422C362.032 120.98 361.467 120.829 361.025 121.084C360.583 121.339 360.431 121.904 360.687 122.346C360.942 122.788 361.507 122.94 361.949 122.685Z" stroke="#263238" stroke-miterlimit="10" stroke-linecap="round" stroke-linejoin="round"/>
<path d="M366.324 120.158C366.766 119.903 366.918 119.338 366.662 118.896C366.407 118.454 365.842 118.302 365.4 118.558C364.958 118.813 364.806 119.378 365.062 119.82C365.317 120.262 365.882 120.414 366.324 120.158Z" stroke="#263238" stroke-miterlimit="10" stroke-linecap="round" stroke-linejoin="round"/>
<path d="M295.338 91.3508L325.805 144.121" stroke="#263238" stroke-miterlimit="10" stroke-linecap="round" stroke-linejoin="round"/>
<path d="M287.789 67.182C288.429 73.713 289.872 80.2788 292.542 86.1359" stroke="#263238" stroke-miterlimit="10" stroke-linecap="round" stroke-linejoin="round"/>
<path d="M293.031 31.287C291.11 30.5466 289.082 31.7172 288.763 33.7514C287.976 39.0432 286.799 49.327 287.369 60.6652" stroke="#263238" stroke-miterlimit="10" stroke-linecap="round" stroke-linejoin="round"/>
<path d="M363.085 158.169C362.498 158.508 361.741 158.305 361.402 157.718L338.687 120.962C337.978 119.735 338.384 118.22 339.611 117.511C340.839 116.803 342.354 117.209 343.062 118.436L363.536 156.486C363.875 157.073 363.672 157.83 363.085 158.169Z" fill="#263238" stroke="#263238" stroke-miterlimit="10" stroke-linecap="round" stroke-linejoin="round"/>
<path d="M374.113 177.271L375.561 179.779" stroke="#263238" stroke-miterlimit="10" stroke-linecap="round" stroke-linejoin="round"/>
<path d="M286.081 30.4621C285.214 34.8754 283.987 42.4847 283.575 51.2596L310.094 35.9492C302.289 31.9184 295.032 29.2072 290.776 27.7512C288.717 27.0191 286.53 28.2822 286.081 30.4621Z" fill="#263238" stroke="#263238" stroke-miterlimit="10" stroke-linecap="round" stroke-linejoin="round"/>
<path d="M289.92 46.6003C290.362 46.3451 290.513 45.7799 290.258 45.3379C290.003 44.8958 289.438 44.7444 288.996 44.9996C288.554 45.2548 288.402 45.82 288.657 46.262C288.913 46.7041 289.478 46.8555 289.92 46.6003Z" fill="white"/>
<path d="M294.58 42.8425C294.827 43.2693 294.669 43.8585 294.242 44.1049C293.815 44.3514 293.226 44.1935 292.98 43.7667C292.733 43.3398 292.891 42.7507 293.318 42.5042C293.745 42.2578 294.334 42.4156 294.58 42.8425Z" fill="white"/>
<path d="M298.564 41.6098C299.006 41.3546 299.158 40.7894 298.903 40.3474C298.647 39.9054 298.082 39.7539 297.64 40.0091C297.198 40.2643 297.047 40.8295 297.302 41.2715C297.557 41.7136 298.122 41.865 298.564 41.6098Z" fill="white"/>
<path d="M302.885 39.1145C303.327 38.8593 303.478 38.294 303.223 37.852C302.968 37.41 302.403 37.2585 301.96 37.5137C301.518 37.7689 301.367 38.3342 301.622 38.7762C301.877 39.2182 302.443 39.3697 302.885 39.1145Z" fill="white"/>
<path d="M287.545 47.0465C287.545 47.0465 287.975 35.3447 288.6 31.498" stroke="white" stroke-miterlimit="10" stroke-linecap="round" stroke-linejoin="round"/>
<path d="M373.179 139.18L372.694 117.761L323.232 146.318L341.539 157.447L373.179 139.18Z" fill="#263238" stroke="#263238" stroke-miterlimit="10" stroke-linecap="round" stroke-linejoin="round"/>
<path d="M337.789 147.874C337.66 148.019 337.699 148.21 337.845 148.339L339.723 149.745C339.838 149.821 339.976 149.813 340.083 149.751C340.136 149.72 340.136 149.72 340.189 149.689C340.319 149.544 340.28 149.353 340.134 149.223L338.255 147.818C338.109 147.689 337.919 147.728 337.789 147.874Z" fill="white"/>
<path d="M337.327 143.871C337.442 143.947 337.58 143.939 337.687 143.877C337.74 143.846 337.74 143.846 337.793 143.815C337.923 143.67 337.884 143.479 337.738 143.35L333.636 140.311L333.049 140.65L337.327 143.871Z" fill="white"/>
<path d="M365.483 133.735C365.536 133.704 365.536 133.704 365.59 133.673C365.696 133.612 365.772 133.497 365.764 133.359L364.798 122.321L364.211 122.66L365.161 133.423C365.146 133.645 365.292 133.774 365.483 133.735Z" fill="white"/>
<path d="M343.449 155.704C343.564 155.78 343.701 155.772 343.808 155.71C343.861 155.679 343.861 155.679 343.915 155.649C344.044 155.503 344.005 155.312 343.859 155.183L328.088 143.515L327.447 143.885L343.449 155.704Z" fill="white"/>
<path d="M367.838 120.565L369.081 138.984C369.089 139.122 369.235 139.251 369.403 139.296C369.457 139.265 369.488 139.318 369.541 139.288C369.648 139.226 369.724 139.111 369.662 139.004L368.371 120.257L367.838 120.565Z" fill="white"/>
<path d="M336.657 147.389C336.772 147.465 336.909 147.457 337.016 147.395C337.07 147.365 337.07 147.365 337.123 147.334C337.252 147.188 337.213 146.997 337.067 146.868L330.649 142.036L330.062 142.375L336.657 147.389Z" fill="white"/>
<path d="M347.045 70.7471L348.061 72.5079" stroke="#263238" stroke-miterlimit="10" stroke-linecap="round" stroke-linejoin="round"/>
<path d="M341.068 60.3958L346.367 69.5731" stroke="#263238" stroke-miterlimit="10" stroke-linecap="round" stroke-linejoin="round"/>
<path d="M353.234 79.1255L357.455 86.4354" stroke="#263238" stroke-miterlimit="10" stroke-linecap="round" stroke-linejoin="round"/>
<path d="M343.339 62.3572L352.334 77.9375C352.334 77.9375 352.761 77.691 352.274 76.4781C351.841 75.2344 350.12 73.2398 350.13 72.0247C350.087 70.8404 350.495 69.8222 350.207 68.7077C350.003 67.6158 348.589 67.5075 348.069 65.7445C347.634 64.0041 349.803 63.8186 348.312 61.9759C347.536 61.0012 346.147 61.3054 345.016 61.3181C344.657 61.312 344.297 61.306 344.037 61.1008C343.63 60.7664 343.609 59.4979 343.082 59.4468C342.47 59.3731 342.267 60.1305 342.323 60.5964C342.471 61.2224 343.031 61.8236 343.339 62.3572Z" fill="white" stroke="#263238" stroke-miterlimit="10"/>
<path d="M326.975 190.258L338.558 210.321" stroke="#263238" stroke-miterlimit="10" stroke-linecap="round" stroke-linejoin="round"/>
<path d="M321.976 181.477L326.473 189.267C326.473 189.267 326.26 189.39 325.845 188.918C325.43 188.446 324.997 187.203 324.453 186.876C323.909 186.55 323.435 186.468 322.997 186.081C322.56 185.693 322.909 185.065 322.264 184.441C321.619 183.817 320.981 184.683 320.556 183.577C320.355 182.982 320.849 182.483 321.069 182.001C321.145 181.886 321.243 181.687 321.204 181.496C321.187 181.221 320.643 180.894 320.711 180.642C320.832 180.359 321.199 180.502 321.399 180.601C321.69 180.859 321.852 181.264 321.976 181.477Z" fill="white" stroke="#263238" stroke-miterlimit="10"/>
<path d="M290.213 93.8115L294.926 101.975" stroke="#263238" stroke-miterlimit="10" stroke-linecap="round" stroke-linejoin="round"/>
<path d="M295.975 103.789L297.7 106.777" stroke="#263238" stroke-miterlimit="10" stroke-linecap="round" stroke-linejoin="round"/>
<path d="M305.088 121.792L306.813 124.78" stroke="#263238" stroke-miterlimit="10" stroke-linecap="round" stroke-linejoin="round"/>
<path d="M289.806 94.8298L304.592 120.441C304.592 120.441 304.165 120.688 302.958 118.966C301.697 117.275 299.998 113.347 298.602 112.161C297.259 110.944 295.927 110.362 294.798 109.022C293.615 107.713 293.951 105.953 292.13 103.661C290.255 101.4 289.318 103.72 287.728 100.227C286.872 98.3735 287.707 97.1089 288.098 95.8156C288.211 95.3948 288.324 94.974 288.184 94.4855C287.944 93.6995 286.517 92.4602 286.582 91.711C286.701 90.9309 287.674 91.5074 288.173 92.0019C288.742 92.7407 289.343 94.0295 289.806 94.8298Z" fill="white" stroke="#263238" stroke-miterlimit="10"/>
<path d="M364.41 160.464L373.036 175.404" stroke="#263238" stroke-miterlimit="10" stroke-linecap="round" stroke-linejoin="round"/>
<path d="M333.062 163.836L334.079 165.596" stroke="#263238" stroke-miterlimit="10" stroke-linecap="round" stroke-linejoin="round"/>
<path d="M327.086 153.484L332.415 162.715" stroke="#263238" stroke-miterlimit="10" stroke-linecap="round" stroke-linejoin="round"/>
<path d="M337.254 173.438L347.173 190.619" stroke="#263238" stroke-miterlimit="10" stroke-linecap="round" stroke-linejoin="round"/>
<path d="M327.648 156.432L336.643 172.012C336.643 172.012 336.217 172.258 335.41 171.23C334.549 170.233 333.682 167.746 332.625 167.147C331.621 166.517 330.535 166.361 329.714 165.555C328.87 164.833 329.483 163.554 328.217 162.222C326.927 160.974 325.682 162.76 324.831 160.548C324.375 159.388 325.333 158.337 325.91 157.364C326.084 157.05 326.259 156.736 326.211 156.408C326.125 155.888 325.037 155.236 325.256 154.753C325.498 154.187 326.256 154.39 326.632 154.671C327.1 155.112 327.371 155.952 327.648 156.432Z" fill="white" stroke="#263238" stroke-miterlimit="10"/>
<path d="M408.344 143.28L413.088 151.497" stroke="#263238" stroke-miterlimit="10" stroke-linecap="round" stroke-linejoin="round"/>
<path d="M403.239 134.56L407.737 142.35C407.737 142.35 407.95 142.227 407.749 141.632C407.547 141.037 406.687 140.039 406.677 139.405C406.666 138.771 406.832 138.319 406.715 137.747C406.598 137.174 405.88 137.162 405.662 136.292C405.444 135.421 406.513 135.302 405.768 134.381C405.353 133.909 404.674 134.087 404.146 134.036C404.009 134.045 403.787 134.03 403.641 133.901C403.411 133.749 403.401 133.115 403.148 133.047C402.842 133.01 402.783 133.4 402.769 133.622C402.847 134.004 403.116 134.347 403.239 134.56Z" fill="white" stroke="#263238" stroke-miterlimit="10"/>
<path d="M385.99 142.882L387.007 144.643" stroke="#263238" stroke-miterlimit="10" stroke-linecap="round" stroke-linejoin="round"/>
<path d="M379.982 132.478L385.312 141.709" stroke="#263238" stroke-miterlimit="10" stroke-linecap="round" stroke-linejoin="round"/>
<path d="M392.178 151.261L409.552 181.354" stroke="#263238" stroke-miterlimit="10" stroke-linecap="round" stroke-linejoin="round"/>
<path d="M382.253 134.439L391.248 150.02C391.248 150.02 391.675 149.773 391.189 148.56C390.755 147.316 389.034 145.322 389.044 144.107C389.001 142.922 389.409 141.904 389.121 140.79C388.918 139.698 387.503 139.59 386.983 137.827C386.548 136.086 388.717 135.901 387.227 134.058C386.45 133.083 385.061 133.387 383.93 133.4C383.571 133.394 383.211 133.388 382.951 133.183C382.544 132.848 382.523 131.58 381.996 131.529C381.384 131.455 381.181 132.213 381.237 132.678C381.385 133.304 381.976 133.959 382.253 134.439Z" fill="white" stroke="#263238" stroke-miterlimit="10"/>
<path d="M316.282 73.2837L312.921 75.2245L312.534 78.4358L313.612 80.3033L314.575 80.2455L315.437 81.7395L318.57 82.421L319.317 81.9897L320.48 78.8284L319.617 77.3344L320.148 76.5296L319.07 74.6621L316.282 73.2837Z" fill="white"/>
<path d="M322.055 73.2928C321.986 73.1592 321.905 73.0332 321.821 72.9174C321.653 72.7026 321.479 72.4915 321.305 72.2804C321.273 72.2388 321.224 72.2149 321.174 72.218C320.324 72.2066 319.468 72.199 318.618 72.1877C318.581 72.1832 318.524 72.1901 318.525 72.1464C318.526 72.1026 318.58 72.106 318.61 72.0974L320.652 71.4806C320.686 71.4785 320.712 71.4635 320.734 71.4419C320.706 71.4235 320.673 71.4256 320.639 71.4276C319.332 71.3773 318.026 71.3269 316.719 71.2766C316.655 71.2705 316.599 71.2941 316.558 71.3437C315.824 72.1653 315.091 72.987 314.361 73.8151C314.307 73.8722 314.241 73.9098 314.172 73.9242C313.093 74.1488 312.015 74.3734 310.933 74.5915C310.869 74.6021 310.821 74.6387 310.794 74.6975C310.184 75.8543 309.574 77.011 308.965 78.1678C308.946 78.1959 308.931 78.2304 308.923 78.2611C308.946 78.2563 308.969 78.2348 308.984 78.217L310.112 77.1593L310.572 76.7209C310.587 76.7031 310.61 76.6816 310.627 76.6973C310.645 76.713 310.647 76.7465 310.631 76.7643L310.61 76.8026C310.207 77.5198 309.801 78.2472 309.392 78.9682C309.339 79.042 309.328 79.1435 309.364 79.2354C309.51 79.6095 309.637 79.9948 309.85 80.348C310.04 80.6623 310.21 80.9878 310.459 81.2682C310.603 81.4273 310.725 81.608 310.879 81.7699C311.105 81.9945 311.342 82.195 311.602 82.3738C311.809 82.5223 312.016 82.6541 312.242 82.7746C312.266 82.7865 312.287 82.8087 312.327 82.8029C312.342 82.7683 312.347 82.7311 312.345 82.6976L312.466 81.4164C312.47 81.3792 312.464 81.3392 312.507 81.3231C312.554 81.3135 312.576 81.3525 312.595 81.3849L312.614 81.4174C312.727 81.6288 312.834 81.844 312.948 82.0555C313.182 82.4913 313.413 82.9374 313.648 83.3733C313.67 83.4122 313.702 83.4372 313.743 83.4481C314.537 83.6645 315.331 83.8809 316.132 84.0936C316.152 84.0991 316.17 84.1148 316.199 84.0895C316.201 83.9582 316.2 83.8205 316.209 83.6856C316.212 83.5543 316.21 83.4166 316.223 83.2881L316.246 83.2833L316.793 84.2309C316.821 84.293 316.88 84.3364 316.949 84.349C318.212 84.6406 319.473 84.9425 320.736 85.2341C320.76 85.2461 320.798 85.2505 320.821 85.2457L320.841 85.1907C321.22 83.9339 321.598 82.6772 321.982 81.4167C321.996 81.3654 321.993 81.3152 321.967 81.2698L321.443 80.3612C321.431 80.3417 321.403 80.3233 321.425 80.285L322.138 80.6778C322.157 80.6498 322.169 80.6255 322.171 80.5985C322.384 79.809 322.587 79.0168 322.801 78.2273C322.818 78.1825 322.809 78.136 322.78 78.1008C322.609 77.8358 322.442 77.5605 322.271 77.2954C322.045 76.933 321.822 76.5771 321.595 76.2147C321.573 76.1758 321.54 76.1341 321.574 76.0883C321.609 76.0425 321.652 76.0869 321.693 76.0978C322.08 76.2721 322.468 76.4465 322.859 76.6273C322.893 76.642 322.924 76.6502 322.952 76.6686C322.964 76.6443 322.973 76.6136 322.964 76.5838C322.977 76.3344 322.962 76.0832 322.941 75.8359C322.916 75.5215 322.857 75.2092 322.775 74.9017C322.712 74.6872 322.623 74.4877 322.547 74.2806C322.503 74.159 322.455 74.0309 322.398 73.9168C322.297 73.6979 322.175 73.5004 322.055 73.2928ZM319.459 81.1861C319.446 81.1936 319.432 81.1844 319.401 81.1762C319.322 81.1441 319.249 81.1083 319.166 81.0697C319.137 81.1555 319.119 81.2441 319.104 81.3391C319.076 81.4853 319.051 81.6381 319.023 81.7844C319.026 81.7909 319.02 81.7946 319.017 81.8049C319.014 81.8151 319.014 81.8151 319.011 81.8254C319.009 81.8356 319.002 81.8394 318.999 81.8497C318.993 81.8534 318.99 81.8637 318.977 81.8712C318.971 81.875 318.971 81.875 318.964 81.8787L318.957 81.8825C318.886 81.9239 318.81 81.9588 318.742 82.0067C318.703 82.0293 318.657 82.0389 318.612 82.0215C318.412 81.9464 318.206 81.8751 318.01 81.8066C317.989 81.8011 317.965 81.7892 317.944 81.7837C317.914 81.8965 317.917 82.0072 317.903 82.119C317.78 82.0863 317.65 82.0573 317.53 82.0144C317.499 82.0062 317.478 81.984 317.463 81.958L317.283 81.6465C317.268 81.6205 317.266 81.5871 317.282 81.5693C317.282 81.5693 317.288 81.5655 317.285 81.559C317.496 81.2031 317.718 80.85 317.93 80.4941C317.939 80.4801 317.949 80.4661 317.958 80.4521C317.971 80.4446 317.977 80.4408 317.99 80.4333C318.003 80.4257 318.027 80.4209 318.047 80.4264C318.461 80.421 318.865 80.4128 319.275 80.4009C319.315 80.3951 319.354 80.4163 319.366 80.4525L319.535 80.7445C319.557 80.7835 319.567 80.8299 319.549 80.8747C319.524 80.967 319.502 81.049 319.477 81.1413C319.474 81.1515 319.469 81.1721 319.459 81.1861C319.466 81.1823 319.459 81.1861 319.459 81.1861ZM319.327 75.6726C319.328 75.8103 319.336 75.9443 319.344 76.0782C319.343 76.122 319.332 76.163 319.321 76.204C319.18 76.5622 319.045 76.9167 318.905 77.2749C318.88 77.3234 318.887 77.3801 318.913 77.4256C319.011 77.5943 319.137 77.7377 319.248 77.8989C319.321 78.012 319.422 78.11 319.518 78.2015C319.518 78.2015 319.518 78.2015 319.522 78.208C319.561 78.2459 319.6 78.2838 319.639 78.3217C319.661 78.3439 319.682 78.3661 319.7 78.3818C319.751 78.4392 319.757 78.4354 319.699 78.486L319.146 78.9874C319.104 79.0202 319.109 79.0434 319.141 79.0851C319.145 79.0916 319.149 79.0981 319.159 79.1008C319.169 79.1035 319.18 79.1063 319.193 79.0987L319.238 79.0724L319.809 78.7515C319.829 78.7402 319.842 78.7326 319.865 78.7278C319.888 78.723 319.916 78.7247 319.933 78.7404L319.944 78.7432C319.947 78.7497 319.954 78.7459 319.958 78.7524C319.979 78.7746 319.994 78.8005 319.999 78.8238C320.035 78.9324 320.042 79.0496 320.018 79.1586C320.007 79.1997 319.986 79.2379 319.947 79.2605C319.758 79.3697 319.553 79.4361 319.338 79.4561L319.305 79.4581C319.271 79.4602 319.231 79.466 319.24 79.4958C319.238 79.5228 319.249 79.5422 319.267 79.5579C319.267 79.5579 319.27 79.5644 319.277 79.5607C319.281 79.5672 319.291 79.5699 319.298 79.5661C319.376 79.5814 319.455 79.6135 319.54 79.5646C319.553 79.5571 319.59 79.5615 319.621 79.5697C319.642 79.5751 319.656 79.5843 319.676 79.5898C319.676 79.5898 319.676 79.5898 319.68 79.5963C319.69 79.599 319.698 79.612 319.701 79.6185C319.718 79.6779 319.699 79.7497 319.654 79.7928L319.289 80.0035C319.257 80.0223 319.217 80.0282 319.178 80.007C319.12 79.9804 319.052 79.9845 318.997 80.0249C318.958 80.0475 318.922 80.0598 318.874 80.0527C318.76 80.0497 318.641 80.0402 318.527 80.0372C318.425 80.0267 318.319 80.0097 318.217 79.9824C318.149 79.9698 318.087 79.9534 318.026 79.9371C318.009 79.9381 317.995 79.9289 317.984 79.9262C317.96 79.9142 317.949 79.8948 317.947 79.8613C317.936 79.7813 317.92 79.6949 317.903 79.6187C317.901 79.5852 317.899 79.5517 317.907 79.521C317.925 79.4324 317.941 79.3542 317.953 79.2694C317.96 79.2219 317.978 79.1771 317.999 79.1389C318.168 78.8596 318.333 78.5738 318.502 78.2945C318.508 78.274 318.517 78.26 318.533 78.2422C318.555 78.2206 318.554 78.1871 318.532 78.1649C318.528 78.1585 318.525 78.152 318.525 78.152L318.521 78.1455C318.507 78.1363 318.487 78.1475 318.47 78.1486C318.377 78.1678 318.281 78.1972 318.203 78.2424C318.056 78.3187 317.921 78.4312 317.838 78.5741C317.696 78.7946 317.544 79.0124 317.391 79.2302C317.361 79.2825 317.309 79.3126 317.255 79.3092C316.923 79.3364 316.597 79.3599 316.265 79.3871C316.245 79.3817 316.225 79.393 316.208 79.394C316.062 79.487 315.887 79.5449 315.775 79.6964C315.759 79.7141 315.733 79.7292 315.751 79.7616C315.759 79.7746 315.763 79.7811 315.777 79.7903C315.777 79.7903 315.777 79.7903 315.78 79.7968C315.794 79.806 315.811 79.805 315.828 79.804C316.06 79.7997 316.286 79.7992 316.518 79.7949C316.623 79.7952 316.727 79.7955 316.828 79.7893C316.928 79.783 317.005 79.8254 317.094 79.8434C317.145 79.857 317.2 79.8772 317.238 79.8983C317.301 79.9314 317.361 79.9748 317.414 80.0219C317.446 80.0468 317.481 80.0782 317.513 80.1032C317.541 80.1216 317.553 80.1578 317.538 80.1923C317.473 80.3947 317.428 80.6025 317.314 80.7977C317.284 80.85 317.253 80.9023 317.233 80.9573C317.207 81.0328 317.153 81.0899 317.084 81.1211C317.041 81.1372 317.03 81.1782 317.025 81.2154C317.015 81.2732 316.978 81.3293 316.922 81.3529L316.596 81.541C316.547 81.5609 316.499 81.5538 316.457 81.5261C316.454 81.5196 316.443 81.5169 316.44 81.5104C316.436 81.5039 316.426 81.5012 316.422 81.4947C316.405 81.4352 316.418 81.3672 316.462 81.3241C316.541 81.279 316.549 81.1877 316.575 81.1122C316.58 81.0917 316.575 81.0685 316.558 81.0528C316.558 81.0528 316.554 81.0463 316.547 81.05L316.544 81.0435L316.533 81.0408C316.503 81.0326 316.48 81.0542 316.468 81.0785C316.401 81.2036 316.288 81.2778 316.196 81.3742C316.122 81.4426 316.041 81.498 315.953 81.5405C315.933 81.5518 315.91 81.5566 315.889 81.5511C315.848 81.5402 315.804 81.5228 315.769 81.5081C315.734 81.4935 315.703 81.4685 315.671 81.4436C315.667 81.4371 315.653 81.4279 315.649 81.4214L315.646 81.4149C315.632 81.4057 315.624 81.3927 315.61 81.3835C315.61 81.3835 315.61 81.3835 315.606 81.377C315.603 81.3705 315.592 81.3678 315.589 81.3613C315.571 81.3456 315.553 81.3299 315.548 81.3067C315.521 81.2445 315.551 81.1755 315.617 81.1546C315.809 81.0352 316.004 80.9223 316.2 80.8094C316.239 80.7868 316.245 80.7663 316.222 80.7273C316.218 80.7209 316.211 80.7079 316.204 80.7116L316.201 80.7051C316.187 80.6959 316.17 80.697 316.15 80.7083C315.932 80.7822 315.721 80.8524 315.499 80.9199L315.433 80.9408C315.396 80.9531 315.38 80.9541 315.372 80.9412C315.368 80.9347 315.361 80.9217 315.352 80.892C315.331 80.8093 315.303 80.7304 315.291 80.6504C315.247 80.4683 315.186 80.2873 315.101 80.111C315.05 79.9764 314.992 79.8456 314.917 79.7158C314.909 79.7028 314.905 79.6963 314.898 79.6833C314.894 79.6768 314.89 79.6703 314.88 79.6676C314.876 79.6611 314.866 79.6584 314.856 79.6557C314.842 79.6464 314.825 79.6475 314.805 79.642C314.424 79.5849 314.043 79.5277 313.659 79.4641C313.622 79.4597 313.581 79.4488 313.546 79.4341C313.546 79.4341 313.546 79.4341 313.542 79.4276C313.486 79.3908 313.43 79.3539 313.374 79.317C313.318 79.2802 313.262 79.2433 313.196 79.2037C313.192 79.1972 313.185 79.201 313.182 79.1945L313.178 79.188C313.156 79.1658 313.148 79.1361 313.163 79.1015C313.217 78.8797 313.272 78.6579 313.33 78.4426C313.368 78.3428 313.412 78.2392 313.464 78.1486C313.48 78.1309 313.496 78.1131 313.516 78.1018C313.623 78.0313 313.745 77.9868 313.875 77.972C313.898 77.9672 313.926 77.9689 313.95 77.9809C313.954 77.9874 313.964 77.9901 313.968 77.9966C313.971 78.0031 313.982 78.0058 313.985 78.0123C314.054 78.0854 314.122 78.1584 314.186 78.225C314.194 78.238 314.204 78.2407 314.208 78.2472C314.212 78.2537 314.222 78.2564 314.236 78.2657C314.26 78.2776 314.274 78.2868 314.301 78.2885C314.441 78.3202 314.575 78.3556 314.712 78.3976C314.757 78.415 314.814 78.4081 314.849 78.379L315.097 78.236C315.129 78.2172 315.142 78.2097 315.159 78.2086C315.176 78.2076 315.187 78.2271 315.206 78.2595L315.434 78.6554C315.453 78.6879 315.475 78.71 315.503 78.7285C315.506 78.735 315.517 78.7377 315.527 78.7404C315.631 78.8012 315.73 78.8657 315.828 78.9302C315.828 78.9302 315.828 78.9302 315.831 78.9367C315.88 78.9606 315.943 78.9499 315.978 78.9041C315.99 78.8799 315.972 78.8642 315.965 78.8512L315.856 78.663C315.77 78.5137 315.69 78.3607 315.597 78.2152C315.557 78.1605 315.549 78.0871 315.573 78.0218C315.616 77.9015 315.656 77.7747 315.683 77.6554C315.718 77.5053 315.722 77.3471 315.633 77.2081L315.554 77.0718L315.531 77.0766C315.513 77.1651 315.504 77.2564 315.503 77.3439C315.488 77.4389 315.47 77.5274 315.465 77.6251C315.462 77.6791 315.427 77.7249 315.378 77.7448C315.296 77.7834 315.266 77.792 315.231 77.7606C315.213 77.7449 315.195 77.7292 315.17 77.7005C315.102 77.6274 315.033 77.5543 314.969 77.4878C314.961 77.4748 314.947 77.4656 314.937 77.4628C314.923 77.4536 314.902 77.4482 314.886 77.4492C314.513 77.4655 314.146 77.4781 313.773 77.4944C313.605 77.5048 313.434 77.5086 313.266 77.519C313.243 77.5238 313.222 77.5183 313.204 77.5026C313.19 77.4934 313.187 77.4869 313.179 77.474L312.823 76.8574C312.804 76.825 312.802 76.7915 312.817 76.757C313 76.3054 313.186 75.8604 313.369 75.4089C313.383 75.3576 313.428 75.3312 313.479 75.3281C313.811 75.3177 314.144 75.3072 314.484 75.2929C314.645 75.2863 314.8 75.2835 314.961 75.2769C315.005 75.2775 315.057 75.2474 315.079 75.2091C315.196 75.0204 315.319 74.828 315.436 74.6393C315.581 74.4085 315.726 74.1777 315.864 73.9507C315.886 73.9125 315.931 73.8861 315.976 73.9035C316.458 73.9712 316.941 74.0388 317.419 74.1C317.436 74.099 317.45 74.1082 317.46 74.1109C317.471 74.1137 317.474 74.1201 317.485 74.1229C317.502 74.1386 317.516 74.1478 317.521 74.171C317.633 74.3657 317.742 74.5539 317.855 74.7486C317.887 74.7903 317.884 74.8443 317.849 74.8901C317.565 75.3311 317.278 75.7824 316.998 76.2299C316.979 76.2579 316.974 76.2952 316.987 76.3314C317.021 76.4503 317.054 76.5691 317.099 76.6908C317.114 76.7167 317.099 76.7513 317.073 76.7663C316.934 76.8723 316.934 76.8723 316.772 76.8017C316.647 76.7522 316.519 76.6963 316.395 76.6468C316.381 76.6376 316.364 76.6219 316.335 76.6472C316.402 76.764 316.453 76.8819 316.569 76.9621C316.586 76.9778 316.607 76.9833 316.631 76.9952C316.645 77.0044 316.669 77.0164 316.69 77.0218C316.818 77.0778 316.954 77.103 317.094 77.1347L317.104 77.1374C317.138 77.1353 317.169 77.1435 317.203 77.1582C317.214 77.1609 317.228 77.1701 317.231 77.1766C317.242 77.1793 317.245 77.1858 317.259 77.195C317.295 77.2264 317.324 77.2616 317.346 77.3006C317.452 77.499 317.571 77.6899 317.684 77.8846C317.691 77.8976 317.696 77.9209 317.71 77.9301C317.714 77.9366 317.73 77.9355 317.743 77.928C317.782 77.9054 317.833 77.9023 317.829 77.8353C317.821 77.7014 317.816 77.5572 317.815 77.4195C317.813 77.386 317.798 77.36 317.783 77.3341L317.554 76.9382C317.513 76.8668 317.513 76.8668 317.585 76.8254L317.846 76.6749C317.872 76.6598 317.9 76.6345 317.909 76.6038C317.953 76.4397 317.987 76.2729 318.046 76.1181C318.058 76.0938 318.046 76.0743 318.035 76.0549C318.002 75.9527 317.976 75.8468 317.943 75.7447C317.938 75.7214 317.923 75.6955 317.946 75.6739C318.005 75.5963 318.072 75.5317 318.139 75.4671C318.287 75.347 318.46 75.3766 318.624 75.4035C318.852 75.4532 319.079 75.53 319.309 75.5964C319.309 75.5964 319.319 75.5992 319.323 75.6057L319.333 75.6084C319.317 75.6262 319.328 75.6456 319.327 75.6726Z" fill="#2B2B2B"/>
<path d="M323.184 90.4668L323.176 95.2395L323.163 95.247L323.156 95.2508C323.142 95.2416 323.122 95.2361 323.108 95.2269L319.02 92.8883C319.07 92.8247 322.99 90.5527 323.184 90.4668ZM327.999 92.8445L323.893 90.4902C323.883 90.4875 323.869 90.4783 323.858 90.4755L323.852 90.4793L323.839 90.4868L323.831 95.2595C324.057 95.1548 327.945 92.9016 327.999 92.8445ZM328.337 92.2859L328.343 87.4797L324.165 89.892L328.337 92.2859ZM328.325 93.4091L324.153 95.8177L328.321 98.2051L328.325 93.4091Z" fill="#2B2B2B"/>
<path d="M323.847 77.4504L323.851 72.6544L328.009 75.0391C327.955 75.0962 324.067 77.3494 323.847 77.4504ZM312.861 95.3022L312.867 90.496L308.689 92.9083L312.861 95.3022ZM333.504 83.3837L333.51 78.5775L329.332 80.9898L333.504 83.3837ZM317.675 92.8775L313.517 90.4928L313.513 95.2888C313.74 95.1841 317.621 92.9346 317.675 92.8775ZM308.381 81.6119C308.363 81.7609 308.362 86.3214 308.383 86.3873L312.528 83.9938C312.457 83.931 308.467 81.6402 308.381 81.6119ZM318.023 87.5192L313.851 89.9278L318.023 92.3216L318.023 87.5192ZM324.17 83.9704L328.342 86.3643L328.348 81.5581L324.17 83.9704ZM328.998 86.3573L333.176 83.945L329.004 81.5511L328.998 86.3573ZM312.864 84.5444L308.692 86.953L312.86 89.3404L312.864 84.5444ZM328.345 75.6065L324.173 78.015L328.341 80.4024L328.345 75.6065ZM308.354 87.5116L308.348 92.3178L312.519 89.9092L308.354 87.5116ZM317.678 86.9221L313.51 84.5347L313.506 89.3307L317.678 86.9221ZM323.825 83.3733L327.997 80.9647L323.829 78.5774L323.825 83.3733ZM333.159 77.9842L328.991 75.5968L328.987 80.3927L333.159 77.9842ZM319.005 86.9175L323.173 89.3049L323.177 84.5089L319.005 86.9175ZM322.826 89.8775C322.731 89.8027 318.74 87.5119 318.672 87.4993L318.667 92.2785L322.826 89.8775ZM323.833 84.502L323.83 89.2979L328.002 86.8894L323.833 84.502Z" fill="#2B2B2B"/>
<path d="M307.377 72.7237C307.538 72.6566 307.67 72.6148 307.775 72.5714C308.072 72.4522 308.3 72.381 308.366 72.3601C308.475 72.3231 308.565 72.2974 308.69 72.2594C309.141 72.1375 309.31 72.1438 309.31 72.1438C309.333 72.139 309.357 72.1342 309.388 72.1424C309.408 72.1479 309.432 72.1598 309.444 72.1793C309.451 72.1923 309.452 72.209 309.453 72.2258C309.445 72.2565 309.433 72.2808 309.407 72.2958C309.382 72.3276 309.36 72.3659 309.345 72.4004C309.295 72.5245 309.334 72.6666 309.439 72.7441C309.548 72.8114 309.669 72.8711 309.792 72.9038C309.933 72.9522 310.058 72.958 310.18 72.853C310.231 72.8061 310.312 72.7945 310.344 72.7152C310.394 72.5911 310.441 72.4773 310.417 72.3443C310.393 72.2282 310.353 72.113 310.289 72.0027C310.084 71.6625 309.888 71.3083 309.696 70.9606C309.792 71.0521 309.891 71.1333 309.975 71.2324C310.086 71.3498 310.213 71.4495 310.349 71.5352C310.458 71.6025 310.566 71.6697 310.687 71.7294C310.771 71.768 310.856 71.7963 310.949 71.8208C311.195 71.8863 311.457 71.8129 311.635 71.6239C311.664 71.5985 311.685 71.5603 311.7 71.5257C311.77 71.3466 311.769 71.1484 311.691 70.9684C311.65 70.8533 311.542 70.786 311.421 70.7868C311.36 70.7872 311.297 70.7978 311.237 70.815C311.201 70.8273 311.164 70.8396 311.124 70.8454C311.101 70.8502 311.071 70.8588 311.05 70.8366C311.028 70.8144 311.043 70.7799 311.055 70.7556C311.262 70.3765 311.302 69.964 311.311 69.5434C311.321 69.3647 311.304 69.1843 311.28 69.0076C311.258 68.8644 311.226 68.7186 311.178 68.5904C311.16 68.558 311.147 68.5218 311.145 68.4883C311.165 68.477 311.179 68.4862 311.186 68.4992C311.339 68.6881 311.524 68.8581 311.724 68.9936C312.05 69.2121 312.41 69.3848 312.784 69.4894C312.886 69.5167 312.998 69.5299 313.106 69.5367C313.123 69.5356 313.14 69.5346 313.161 69.5401C313.194 69.538 313.228 69.5359 313.24 69.5721C313.252 69.6083 313.223 69.6336 313.201 69.6552C313.141 69.7161 313.087 69.7732 313.036 69.8368C312.957 69.9257 312.938 70.0579 313.005 70.158C313.057 70.2488 313.139 70.3311 313.23 70.3827C313.317 70.4277 313.406 70.4625 313.502 70.4768C313.61 70.4836 313.716 70.4568 313.803 70.3977C313.944 70.3251 314.048 70.2044 314.11 70.0561C314.169 69.9012 314.203 69.7345 314.197 69.5735C314.203 69.3883 314.192 69.2041 314.158 69.0247C314.126 68.8789 314.087 68.7367 314.049 68.5946C314.04 68.5649 314.038 68.5314 314.022 68.4887C314.058 68.5201 314.08 68.559 314.096 68.6018C314.291 68.9392 314.48 69.2805 314.687 69.6104C314.785 69.7792 314.963 69.8925 315.16 69.9173C315.228 69.9299 315.298 69.9155 315.346 69.8789C315.418 69.8375 315.483 69.7999 315.555 69.7585C315.594 69.7359 315.619 69.7041 315.63 69.6631C315.669 69.5195 315.695 69.3835 315.713 69.2345C315.723 69.0558 315.589 68.8994 315.417 68.8865C315.406 68.8838 315.4 68.8875 315.39 68.8848C315.346 68.8842 315.306 68.89 315.262 68.8893C315.191 68.887 315.172 68.8546 315.195 68.7893C315.213 68.7445 315.241 68.7024 315.279 68.6631C315.477 68.419 315.693 68.1906 315.93 67.9844C316.17 67.7679 316.425 67.5774 316.673 67.3739C316.692 67.3626 316.712 67.3513 316.731 67.34C316.678 67.4139 316.629 67.4942 316.59 67.5773C316.467 67.8302 316.422 68.0985 316.377 68.3668C316.331 68.6788 316.302 68.9898 316.31 69.3052C316.308 69.5574 316.323 69.8085 316.351 70.0689C316.384 70.3357 316.42 70.6091 316.435 70.877C316.438 70.9272 316.421 70.972 316.389 71.0075C315.639 71.8302 314.885 72.6464 314.134 73.4691C314.093 73.5187 314.031 73.546 313.961 73.5604C312.88 73.7953 311.802 74.0366 310.725 74.2779C310.672 74.2912 310.62 74.2776 310.578 74.25C310.354 74.1025 310.139 73.941 309.921 73.773C309.702 73.6051 309.493 73.4836 309.276 73.3491C309.199 73.3068 309.123 73.2644 309.042 73.2156C308.726 73.0436 308.394 72.9062 308.048 72.8032C307.836 72.7524 307.619 72.7222 307.407 72.7319C307.407 72.7319 307.357 72.735 307.353 72.7285C307.34 72.736 307.36 72.7247 307.377 72.7237Z" fill="#2B2B2B"/>
<path d="M314.445 68.947C314.557 69.1417 314.659 69.3337 314.778 69.5246C314.849 69.6479 314.969 69.7347 315.105 69.7598C315.156 69.7735 315.213 69.7666 315.259 69.7403C315.288 69.715 315.327 69.6924 315.363 69.68C315.432 69.6489 315.482 69.5853 315.485 69.5146C315.5 69.4196 315.514 69.3246 315.522 69.2333C315.541 69.1448 315.475 69.0615 315.387 69.0434C315.37 69.0445 315.349 69.039 315.336 69.0465C315.286 69.0496 315.242 69.049 315.198 69.0483C315.084 69.0453 315.004 68.9528 315.001 68.8421C315.003 68.8151 315.008 68.7946 315.014 68.7741C315.04 68.6985 315.08 68.6322 315.14 68.5713C315.329 68.3412 315.538 68.1166 315.762 67.9179C316.031 67.6761 316.311 67.4538 316.595 67.238C316.628 67.2192 316.661 67.2004 316.69 67.1918C316.75 67.1747 316.805 67.1948 316.842 67.243C316.878 67.2911 316.885 67.3478 316.854 67.4001C316.851 67.4104 316.842 67.4244 316.829 67.4319C316.685 67.6189 316.59 67.8466 316.543 68.0814C316.453 68.497 316.417 68.9159 316.418 69.3393C316.423 69.665 316.443 69.9998 316.492 70.3261C316.513 70.513 316.545 70.7027 316.553 70.8971C316.564 70.977 316.531 71.0563 316.478 71.1134C315.73 71.9259 314.979 72.7485 314.235 73.5675C314.166 73.6423 314.074 73.695 313.975 73.718C312.893 73.9528 311.812 74.1876 310.728 74.4327C310.645 74.4546 310.567 74.4393 310.493 74.3867C310.259 74.2366 310.036 74.0621 309.818 73.8941C309.613 73.7354 309.394 73.6111 309.181 73.4831C309.114 73.4436 309.052 73.4105 308.979 73.3746C308.62 73.175 308.238 73.0239 307.841 72.924C307.691 72.8896 307.535 72.8757 307.378 72.9055C307.362 72.9066 307.345 72.9076 307.328 72.9086C307.267 72.909 307.211 72.8722 307.194 72.8127C307.171 72.757 307.188 72.6955 307.229 72.6627C307.287 72.6121 307.352 72.5744 307.429 72.5563C307.828 72.4039 308.223 72.2451 308.633 72.129C308.852 72.0718 309.079 72.0275 309.306 72C309.36 71.9867 309.42 71.9863 309.482 72.0026C309.578 72.0337 309.628 72.1348 309.606 72.2336C309.593 72.2848 309.568 72.3334 309.541 72.3754C309.45 72.5053 309.471 72.5713 309.604 72.6504C309.719 72.7139 309.839 72.7569 309.965 72.7794C309.986 72.7848 310.009 72.78 310.028 72.7687C310.054 72.7537 310.074 72.7424 310.1 72.7273C310.148 72.6907 310.205 72.6839 310.235 72.6148C310.274 72.5317 310.289 72.4367 310.276 72.34C310.257 72.2471 310.218 72.1487 310.176 72.0606C310.012 71.7918 309.861 71.5154 309.704 71.2429C309.662 71.1715 309.625 71.1066 309.577 71.0389C309.548 71.0038 309.532 70.9611 309.523 70.9146C309.502 70.8487 309.522 70.7769 309.58 70.743C309.639 70.7092 309.707 70.7217 309.754 70.7726C309.858 70.8771 309.964 70.9714 310.061 71.0796C310.162 71.1944 310.279 71.2913 310.412 71.3705C310.577 71.4914 310.765 71.5907 310.964 71.649C311.142 71.7018 311.335 71.6596 311.476 71.5434C311.525 71.5068 311.559 71.461 311.576 71.3994C311.616 71.2726 311.611 71.1452 311.557 71.0208C311.519 70.9392 311.493 70.9105 311.399 70.913C311.322 70.9144 311.245 70.9325 311.173 70.9572C311.136 70.9695 311.096 70.9754 311.052 70.9747C310.948 70.9744 310.868 70.8819 310.873 70.7842C310.876 70.7739 310.878 70.7637 310.877 70.7469C310.886 70.7161 310.894 70.6854 310.913 70.6574C310.989 70.5182 311.044 70.3736 311.079 70.2236C311.167 69.8183 311.183 69.3939 311.118 68.9811C311.103 68.8342 311.064 68.6921 311.006 68.5612C310.98 68.5158 310.973 68.4591 310.997 68.4105C311.026 68.3247 311.125 68.285 311.211 68.3133C311.235 68.3253 311.263 68.3437 311.281 68.3594C311.651 68.8205 312.141 69.0826 312.688 69.2773C312.843 69.335 313.007 69.3618 313.175 69.3682C313.192 69.3672 313.203 69.3699 313.213 69.3726C313.287 69.3815 313.351 69.4313 313.382 69.5C313.406 69.5724 313.387 69.6442 313.34 69.6975C313.308 69.7331 313.273 69.7621 313.241 69.7977C313.209 69.8333 313.171 69.8726 313.15 69.9109C313.102 69.9642 313.101 70.0517 313.154 70.0988C313.245 70.2108 313.377 70.29 313.52 70.3114C313.557 70.3159 313.591 70.3138 313.624 70.295C313.799 70.2371 313.936 70.0976 313.989 69.9195C314.023 69.8132 314.041 69.708 314.038 69.5972C314.046 69.3413 314.018 69.0809 313.953 68.8329C313.911 68.701 313.879 68.5551 313.844 68.4195C313.82 68.3471 313.846 68.2715 313.915 68.2404C313.977 68.213 314.045 68.2256 314.092 68.2765C314.114 68.2987 314.132 68.3311 314.147 68.3571C314.234 68.5668 314.451 68.9433 314.445 68.947ZM307.365 72.7316C307.375 72.7343 307.841 72.7426 308.043 72.8073C308.389 72.9103 308.721 73.0478 309.037 73.2198C309.114 73.2621 309.197 73.3007 309.271 73.3532C309.487 73.4877 309.711 73.6184 309.915 73.7772C310.12 73.9359 310.349 74.1066 310.573 74.2541C310.615 74.2818 310.666 74.2954 310.72 74.282C311.797 74.0407 312.872 73.8097 313.949 73.5683C314.012 73.5577 314.071 73.5238 314.122 73.477C314.866 72.6581 315.617 71.8354 316.364 71.023C316.396 70.9874 316.42 70.9389 316.411 70.8924C316.395 70.6245 316.363 70.3577 316.327 70.0843C316.295 69.8342 316.287 69.5793 316.285 69.3206C316.277 69.0052 316.296 68.6915 316.346 68.386C316.391 68.1177 316.436 67.8494 316.559 67.5965C316.598 67.5134 316.647 67.4331 316.7 67.3592C316.681 67.3705 316.661 67.3818 316.641 67.3931C316.394 67.5966 316.139 67.7871 315.899 68.0036C315.662 68.2098 315.446 68.4382 315.248 68.6823C315.216 68.7179 315.188 68.7599 315.164 68.8085C315.141 68.8738 315.16 68.9062 315.231 68.9086C315.274 68.9092 315.315 68.9034 315.358 68.904C315.54 68.9029 315.683 69.0453 315.684 69.2267C315.687 69.2332 315.685 69.2435 315.678 69.2472C315.666 69.3925 315.638 69.5387 315.602 69.672C315.591 69.713 315.566 69.7448 315.527 69.7674C315.455 69.8088 315.39 69.8464 315.318 69.8878C315.259 69.9217 315.189 69.9361 315.132 69.9262C314.935 69.9014 314.763 69.7843 314.659 69.6194C314.451 69.2894 314.269 68.9444 314.068 68.6107C314.052 68.568 314.029 68.5291 313.994 68.4976C314.003 68.5441 314.012 68.5738 314.02 68.6036C314.059 68.7457 314.108 68.8905 314.13 69.0337C314.157 69.2168 314.174 69.3972 314.168 69.5825C314.168 69.7472 314.14 69.9102 314.082 70.065C314.026 70.2096 313.922 70.3303 313.782 70.4028C313.694 70.462 313.588 70.4887 313.48 70.482C313.384 70.4677 313.295 70.4329 313.208 70.3879C313.114 70.3298 313.035 70.254 312.979 70.1567C312.912 70.0566 312.932 69.9243 313.011 69.8354C313.061 69.7719 313.121 69.711 313.175 69.6539C313.198 69.6323 313.226 69.607 313.214 69.5708C313.202 69.5346 313.162 69.5404 313.135 69.5388C313.118 69.5398 313.101 69.5408 313.081 69.5354C312.973 69.5286 312.861 69.5154 312.758 69.4881C312.381 69.377 312.024 69.2108 311.698 68.9923C311.492 68.8606 311.31 68.697 311.161 68.4979C311.153 68.4849 311.139 68.4757 311.12 68.487C311.122 68.5205 311.134 68.5567 311.153 68.5891C311.198 68.7275 311.236 68.8696 311.258 69.0128C311.288 69.1857 311.299 69.3699 311.289 69.5486C311.276 69.9627 311.24 70.3817 311.033 70.7608C311.021 70.7851 311.003 70.8131 311.028 70.8418C311.053 70.8705 311.079 70.8554 311.102 70.8506C311.139 70.8383 311.179 70.8325 311.215 70.8201C311.275 70.803 311.338 70.7924 311.399 70.792C311.516 70.7847 311.628 70.8585 311.669 70.9736C311.747 71.1536 311.748 71.3518 311.678 71.5309C311.663 71.5654 311.642 71.6037 311.613 71.629C311.442 71.8144 311.173 71.8914 310.933 71.8222C310.845 71.8042 310.755 71.7694 310.672 71.7308C310.554 71.6776 310.446 71.6104 310.334 71.5366C310.198 71.451 310.07 71.3513 309.959 71.2338C309.876 71.1348 309.777 71.0535 309.681 70.962C309.876 71.3162 310.075 71.6602 310.274 72.0041C310.334 72.108 310.374 72.2231 310.401 72.3458C310.426 72.4787 310.382 72.599 310.329 72.7166C310.296 72.7959 310.226 72.8103 310.165 72.8544C310.049 72.9556 309.918 72.9537 309.777 72.9052C309.654 72.8725 309.536 72.8193 309.424 72.7456C309.312 72.6718 309.273 72.5297 309.33 72.4019C309.345 72.3673 309.366 72.3291 309.391 72.2973C309.419 72.2552 309.457 72.2159 309.431 72.1705C309.405 72.125 309.341 72.1357 309.291 72.1388C309.063 72.1663 308.844 72.2067 308.622 72.2742C308.33 72.3561 308.05 72.4574 307.766 72.569C307.668 72.6087 307.357 72.7186 307.365 72.7316Z" fill="#2B2B2B"/>
</g>
<defs>
<filter id="filter0_d" x="0" y="0" width="718" height="308" filterUnits="userSpaceOnUse" color-interpolation-filters="sRGB">
<feFlood flood-opacity="0" result="BackgroundImageFix"/>
<feColorMatrix in="SourceAlpha" type="matrix" values="0 0 0 0 0 0 0 0 0 0 0 0 0 0 0 0 0 0 127 0"/>
<feOffset dy="10"/>
<feGaussianBlur stdDeviation="12"/>
<feColorMatrix type="matrix" values="0 0 0 0 0 0 0 0 0 0 0 0 0 0 0 0 0 0 1 0"/>
<feBlend mode="normal" in2="BackgroundImageFix" result="effect1_dropShadow"/>
<feBlend mode="normal" in="SourceGraphic" in2="effect1_dropShadow" result="shape"/>
</filter>
<linearGradient id="paint0_linear" x1="321.901" y1="93.7074" x2="425.435" y2="210.283" gradientUnits="userSpaceOnUse">
<stop stop-color="#2D2D2D"/>
<stop offset="0.677083" stop-color="#101010"/>
</linearGradient>
<linearGradient id="paint1_linear" x1="348.457" y1="128.286" x2="418.678" y2="207.349" gradientUnits="userSpaceOnUse">
<stop stop-color="#A064A9"/>
<stop offset="0.2218" stop-color="#9561A8"/>
<stop offset="0.614" stop-color="#775AA6"/>
<stop offset="1" stop-color="#5352A3"/>
</linearGradient>
<linearGradient id="paint2_linear" x1="353.993" y1="106.552" x2="439.814" y2="203.178" gradientUnits="userSpaceOnUse">
<stop stop-color="#A064A9"/>
<stop offset="0.2218" stop-color="#9561A8"/>
<stop offset="0.614" stop-color="#775AA6"/>
<stop offset="1" stop-color="#5352A3"/>
</linearGradient>
<linearGradient id="paint3_linear" x1="277.462" y1="94.2075" x2="401.79" y2="234.191" gradientUnits="userSpaceOnUse">
<stop stop-color="#A064A9"/>
<stop offset="0.2218" stop-color="#9561A8"/>
<stop offset="0.614" stop-color="#775AA6"/>
<stop offset="1" stop-color="#5352A3"/>
</linearGradient>
<linearGradient id="paint4_linear" x1="285.072" y1="114.046" x2="398.036" y2="241.234" gradientUnits="userSpaceOnUse">
<stop stop-color="#A064A9"/>
<stop offset="0.2218" stop-color="#9561A8"/>
<stop offset="0.614" stop-color="#775AA6"/>
<stop offset="1" stop-color="#5352A3"/>
</linearGradient>
<linearGradient id="paint5_linear" x1="305.17" y1="91.796" x2="415.357" y2="215.857" gradientUnits="userSpaceOnUse">
<stop stop-color="#A064A9"/>
<stop offset="0.2218" stop-color="#9561A8"/>
<stop offset="0.614" stop-color="#775AA6"/>
<stop offset="1" stop-color="#5352A3"/>
</linearGradient>
<linearGradient id="paint6_linear" x1="316.421" y1="88.2729" x2="426.597" y2="212.321" gradientUnits="userSpaceOnUse">
<stop stop-color="#A064A9"/>
<stop offset="0.2218" stop-color="#9561A8"/>
<stop offset="0.614" stop-color="#775AA6"/>
<stop offset="1" stop-color="#5352A3"/>
</linearGradient>
<linearGradient id="paint7_linear" x1="296.626" y1="109.162" x2="406.758" y2="233.16" gradientUnits="userSpaceOnUse">
<stop stop-color="#A064A9"/>
<stop offset="0.2218" stop-color="#9561A8"/>
<stop offset="0.614" stop-color="#775AA6"/>
<stop offset="1" stop-color="#5352A3"/>
</linearGradient>
<linearGradient id="paint8_linear" x1="328.555" y1="74.1641" x2="438.78" y2="198.267" gradientUnits="userSpaceOnUse">
<stop stop-color="#A064A9"/>
<stop offset="0.2218" stop-color="#9561A8"/>
<stop offset="0.614" stop-color="#775AA6"/>
<stop offset="1" stop-color="#5352A3"/>
</linearGradient>
<linearGradient id="paint9_linear" x1="372.669" y1="173.821" x2="419.357" y2="226.388" gradientUnits="userSpaceOnUse">
<stop stop-color="#A064A9"/>
<stop offset="0.2218" stop-color="#9561A8"/>
<stop offset="0.614" stop-color="#775AA6"/>
<stop offset="1" stop-color="#5352A3"/>
</linearGradient>
<linearGradient id="paint10_linear" x1="357.178" y1="86.7481" x2="450.016" y2="191.276" gradientUnits="userSpaceOnUse">
<stop stop-color="#A064A9"/>
<stop offset="0.2218" stop-color="#9561A8"/>
<stop offset="0.614" stop-color="#775AA6"/>
<stop offset="1" stop-color="#5352A3"/>
</linearGradient>
<linearGradient id="paint11_linear" x1="306.841" y1="104.956" x2="410.854" y2="222.064" gradientUnits="userSpaceOnUse">
<stop stop-color="#A064A9"/>
<stop offset="0.2218" stop-color="#9561A8"/>
<stop offset="0.614" stop-color="#775AA6"/>
<stop offset="1" stop-color="#5352A3"/>
</linearGradient>
<linearGradient id="paint12_linear" x1="321.712" y1="87.3148" x2="425.719" y2="204.416" gradientUnits="userSpaceOnUse">
<stop stop-color="#A064A9"/>
<stop offset="0.2218" stop-color="#9561A8"/>
<stop offset="0.614" stop-color="#775AA6"/>
<stop offset="1" stop-color="#5352A3"/>
</linearGradient>
<linearGradient id="paint13_linear" x1="403.252" y1="228.773" x2="439.163" y2="196.495" gradientUnits="userSpaceOnUse">
<stop stop-color="#262626"/>
<stop offset="0.1758" stop-color="#414141"/>
<stop offset="0.4969" stop-color="#696969"/>
<stop offset="0.782" stop-color="#949494"/>
<stop offset="1" stop-color="#A6A6A6"/>
<stop offset="1" stop-color="#ABABAB"/>
</linearGradient>
<linearGradient id="paint14_linear" x1="443.127" y1="201.423" x2="437.427" y2="205.117" gradientUnits="userSpaceOnUse">
<stop stop-color="#ADADAD"/>
<stop offset="1" stop-color="#3E3E3E"/>
</linearGradient>
<linearGradient id="paint15_linear" x1="394.165" y1="230.645" x2="395.312" y2="221.011" gradientUnits="userSpaceOnUse">
<stop stop-color="#737373"/>
<stop offset="1" stop-color="#1F1F1F"/>
</linearGradient>
<linearGradient id="paint16_linear" x1="398.538" y1="245.026" x2="400.264" y2="241.237" gradientUnits="userSpaceOnUse">
<stop stop-color="#757575"/>
<stop offset="1" stop-color="#393939"/>
</linearGradient>
<linearGradient id="paint17_linear" x1="402.653" y1="199.282" x2="403.474" y2="205.394" gradientUnits="userSpaceOnUse">
<stop stop-color="#606060"/>
<stop offset="1" stop-color="#1D1D1D"/>
</linearGradient>
<linearGradient id="paint18_linear" x1="421.399" y1="199.122" x2="423.994" y2="218.448" gradientUnits="userSpaceOnUse">
<stop stop-color="#939393"/>
<stop offset="1" stop-color="#2B2B2B"/>
</linearGradient>
<linearGradient id="paint19_linear" x1="406.295" y1="228.88" x2="407.637" y2="238.876" gradientUnits="userSpaceOnUse">
<stop stop-color="#737373"/>
<stop offset="1" stop-color="#141414"/>
</linearGradient>
<linearGradient id="paint20_linear" x1="429.787" y1="183.167" x2="431.55" y2="196.291" gradientUnits="userSpaceOnUse">
<stop stop-color="#9D9D9D"/>
<stop offset="1" stop-color="#3C3C3C"/>
</linearGradient>
<linearGradient id="paint21_linear" x1="421.283" y1="225.916" x2="422.847" y2="237.561" gradientUnits="userSpaceOnUse">
<stop stop-color="#959595"/>
<stop offset="1" stop-color="#333333"/>
</linearGradient>
<linearGradient id="paint22_linear" x1="447.42" y1="186.522" x2="446.855" y2="191.26" gradientUnits="userSpaceOnUse">
<stop stop-color="#A0A0A0"/>
<stop offset="1" stop-color="#383838"/>
</linearGradient>
<linearGradient id="paint23_linear" x1="403.44" y1="209.762" x2="402.504" y2="217.622" gradientUnits="userSpaceOnUse">
<stop stop-color="#747474"/>
<stop offset="1" stop-color="#343434"/>
</linearGradient>
<linearGradient id="paint24_linear" x1="413.419" y1="188.301" x2="412.874" y2="192.874" gradientUnits="userSpaceOnUse">
<stop stop-color="#9D9D9D"/>
<stop offset="1" stop-color="#323232"/>
</linearGradient>
<linearGradient id="paint25_linear" x1="305.453" y1="258.6" x2="336.316" y2="227.671" gradientUnits="userSpaceOnUse">
<stop stop-color="#939393"/>
<stop offset="0.223958" stop-color="#6F6F6F"/>
<stop offset="0.4969" stop-color="#505050"/>
<stop offset="0.755208" stop-color="#343434"/>
<stop offset="1" stop-color="#1B1B1B"/>
</linearGradient>
<linearGradient id="paint26_linear" x1="314.61" y1="257.925" x2="315.015" y2="260.845" gradientUnits="userSpaceOnUse">
<stop stop-color="#636363"/>
<stop offset="1" stop-color="#1F1F1F"/>
</linearGradient>
<linearGradient id="paint27_linear" x1="324.924" y1="229.538" x2="325.533" y2="234.271" gradientUnits="userSpaceOnUse">
<stop stop-color="#636363"/>
<stop offset="1" stop-color="#1F1F1F"/>
</linearGradient>
<linearGradient id="paint28_linear" x1="335.722" y1="237.468" x2="337.402" y2="228.372" gradientUnits="userSpaceOnUse">
<stop stop-color="#424242"/>
<stop offset="1"/>
</linearGradient>
<linearGradient id="paint29_linear" x1="334.139" y1="252.604" x2="333.101" y2="244.873" gradientUnits="userSpaceOnUse">
<stop stop-color="#5C5C5C"/>
<stop offset="1" stop-color="#1A1A1A"/>
</linearGradient>
<linearGradient id="paint30_linear" x1="294.79" y1="248.545" x2="296.6" y2="243.755" gradientUnits="userSpaceOnUse">
<stop stop-color="#424242"/>
<stop offset="1"/>
</linearGradient>
<linearGradient id="paint31_linear" x1="298.104" y1="258.882" x2="298.859" y2="255.42" gradientUnits="userSpaceOnUse">
<stop stop-color="#424242"/>
<stop offset="1"/>
</linearGradient>
<linearGradient id="paint32_linear" x1="306.525" y1="258.281" x2="307.192" y2="263.867" gradientUnits="userSpaceOnUse">
<stop stop-color="#636363"/>
<stop offset="1" stop-color="#1F1F1F"/>
</linearGradient>
<linearGradient id="paint33_linear" x1="311.417" y1="266.419" x2="311.823" y2="269.345" gradientUnits="userSpaceOnUse">
<stop stop-color="#636363"/>
<stop offset="1" stop-color="#1F1F1F"/>
</linearGradient>
<linearGradient id="paint34_linear" x1="300.233" y1="228.475" x2="300.77" y2="232.48" gradientUnits="userSpaceOnUse">
<stop stop-color="#636363"/>
<stop offset="1" stop-color="#1F1F1F"/>
</linearGradient>
<linearGradient id="paint35_linear" x1="319.633" y1="264.052" x2="320.512" y2="270.6" gradientUnits="userSpaceOnUse">
<stop stop-color="#636363"/>
<stop offset="1" stop-color="#1F1F1F"/>
</linearGradient>
<linearGradient id="paint36_linear" x1="312.51" y1="228.368" x2="314.209" y2="241.023" gradientUnits="userSpaceOnUse">
<stop stop-color="#636363"/>
<stop offset="1" stop-color="#1F1F1F"/>
</linearGradient>
<linearGradient id="paint37_linear" x1="331.427" y1="258.885" x2="332.523" y2="267.041" gradientUnits="userSpaceOnUse">
<stop stop-color="#636363"/>
<stop offset="1" stop-color="#1F1F1F"/>
</linearGradient>
<linearGradient id="paint38_linear" x1="302.613" y1="247.863" x2="303.49" y2="254.401" gradientUnits="userSpaceOnUse">
<stop stop-color="#636363"/>
<stop offset="1" stop-color="#1F1F1F"/>
</linearGradient>
<linearGradient id="paint39_linear" x1="317.995" y1="217.919" x2="319.151" y2="226.522" gradientUnits="userSpaceOnUse">
<stop stop-color="#717171"/>
<stop offset="1" stop-color="#252525"/>
</linearGradient>
<linearGradient id="paint40_linear" x1="324.184" y1="238.432" x2="325.341" y2="247.036" gradientUnits="userSpaceOnUse">
<stop stop-color="#636363"/>
<stop offset="1" stop-color="#1F1F1F"/>
</linearGradient>
<linearGradient id="paint41_linear" x1="313.824" y1="245.771" x2="314.981" y2="254.372" gradientUnits="userSpaceOnUse">
<stop stop-color="#636363"/>
<stop offset="1" stop-color="#1F1F1F"/>
</linearGradient>
<linearGradient id="paint42_linear" x1="345.518" y1="244.16" x2="345.924" y2="247.086" gradientUnits="userSpaceOnUse">
<stop stop-color="#636363"/>
<stop offset="1" stop-color="#1F1F1F"/>
</linearGradient>
<linearGradient id="paint43_linear" x1="329.995" y1="220.254" x2="329.64" y2="223.24" gradientUnits="userSpaceOnUse">
<stop stop-color="#737373"/>
<stop offset="1" stop-color="#1D1D1D"/>
</linearGradient>
<linearGradient id="paint44_linear" x1="342.078" y1="252.454" x2="343.257" y2="259.061" gradientUnits="userSpaceOnUse">
<stop stop-color="#636363"/>
<stop offset="1" stop-color="#1F1F1F"/>
</linearGradient>
<linearGradient id="paint45_linear" x1="300.17" y1="235.385" x2="300.867" y2="240.412" gradientUnits="userSpaceOnUse">
<stop stop-color="#636363"/>
<stop offset="1" stop-color="#1F1F1F"/>
</linearGradient>
<linearGradient id="paint46_linear" x1="306.945" y1="221.307" x2="307.35" y2="224.23" gradientUnits="userSpaceOnUse">
<stop stop-color="#636363"/>
<stop offset="1" stop-color="#1F1F1F"/>
</linearGradient>
<linearGradient id="paint47_linear" x1="342.003" y1="225.446" x2="341.646" y2="228.44" gradientUnits="userSpaceOnUse">
<stop stop-color="#6F6F6F"/>
<stop offset="1" stop-color="#282828"/>
</linearGradient>
<linearGradient id="paint48_linear" x1="323.626" y1="254.407" x2="324.203" y2="258.563" gradientUnits="userSpaceOnUse">
<stop stop-color="#636363"/>
<stop offset="1" stop-color="#1F1F1F"/>
</linearGradient>
<linearGradient id="paint49_linear" x1="252.954" y1="143.255" x2="284.415" y2="140.97" gradientUnits="userSpaceOnUse">
<stop stop-color="#ADADAD"/>
<stop offset="0.3284" stop-color="#8E8E8E"/>
<stop offset="0.7087" stop-color="#545454"/>
<stop offset="1" stop-color="#272727"/>
</linearGradient>
<linearGradient id="paint50_linear" x1="436.911" y1="98.4763" x2="462.414" y2="72.9572" gradientUnits="userSpaceOnUse">
<stop stop-color="#5F5F5F"/>
<stop offset="0.1758" stop-color="#6D6D6D"/>
<stop offset="0.4969" stop-color="#959595"/>
<stop offset="0.782" stop-color="#B6B6B6"/>
<stop offset="1" stop-color="#C5C5C5"/>
</linearGradient>
<linearGradient id="paint51_linear" x1="311.996" y1="169.784" x2="303.762" y2="169.784" gradientUnits="userSpaceOnUse">
<stop stop-color="#A8A8AF"/>
<stop offset="0.6" stop-color="#DFDFE1"/>
<stop offset="1" stop-color="white"/>
</linearGradient>
<linearGradient id="paint52_linear" x1="370.351" y1="223.038" x2="362.117" y2="223.038" gradientUnits="userSpaceOnUse">
<stop stop-color="#A8A8AF"/>
<stop offset="0.6" stop-color="#DFDFE1"/>
<stop offset="1" stop-color="white"/>
</linearGradient>
<linearGradient id="paint53_linear" x1="443.447" y1="149.257" x2="435.211" y2="149.257" gradientUnits="userSpaceOnUse">
<stop stop-color="#A8A8AF"/>
<stop offset="0.6" stop-color="#DFDFE1"/>
<stop offset="1" stop-color="white"/>
</linearGradient>
<linearGradient id="paint54_linear" x1="263.588" y1="106.713" x2="255.353" y2="106.713" gradientUnits="userSpaceOnUse">
<stop stop-color="#A8A8AF"/>
<stop offset="0.6" stop-color="#DFDFE1"/>
<stop offset="1" stop-color="white"/>
</linearGradient>
<linearGradient id="paint55_linear" x1="371.616" y1="58.799" x2="363.387" y2="58.799" gradientUnits="userSpaceOnUse">
<stop stop-color="#A8A8AF"/>
<stop offset="0.6" stop-color="#DFDFE1"/>
<stop offset="1" stop-color="white"/>
</linearGradient>
<linearGradient id="paint56_linear" x1="352.164" y1="36.0361" x2="343.931" y2="36.0361" gradientUnits="userSpaceOnUse">
<stop stop-color="#A8A8AF"/>
<stop offset="0.6" stop-color="#DFDFE1"/>
<stop offset="1" stop-color="white"/>
</linearGradient>
<linearGradient id="paint57_linear" x1="417.046" y1="46.5791" x2="408.806" y2="46.5791" gradientUnits="userSpaceOnUse">
<stop stop-color="#A8A8AF"/>
<stop offset="0.6" stop-color="#DFDFE1"/>
<stop offset="1" stop-color="white"/>
</linearGradient>
<linearGradient id="paint58_linear" x1="559.111" y1="104.038" x2="661.431" y2="214.196" gradientUnits="userSpaceOnUse">
<stop stop-color="#2D2D2D"/>
<stop offset="0.677083" stop-color="#101010"/>
</linearGradient>
<linearGradient id="paint59_linear" x1="106.309" y1="104.038" x2="208.629" y2="214.197" gradientUnits="userSpaceOnUse">
<stop stop-color="#2D2D2D"/>
<stop offset="0.677083" stop-color="#101010"/>
</linearGradient>
<clipPath id="clip0">
<rect width="670" height="260" fill="white" transform="translate(24 14)"/>
</clipPath>
</defs>
</svg>
