<svg width="22" height="14" viewBox="0 0 22 14" fill="none" xmlns="http://www.w3.org/2000/svg">
<path d="M9.22675 6.88425C10.3196 6.33364 10.8017 5.45936 10.8017 4.19614C10.8008 1.79957 9.03421 0.892822 6.62478 0.892822H0.714355V13.75H6.65693C8.93907 13.75 11.1862 12.6166 11.1862 10.0256C11.1862 8.53575 10.6401 7.36993 9.22675 6.88425ZM3.66957 3.09493H6.27153C7.26796 3.09493 8.23225 3.354 8.23225 4.58475C8.23225 5.58857 7.49296 5.97718 6.52868 5.97718H3.66957V3.09493ZM6.49621 11.5485H3.66957V8.115H6.5605C7.74978 8.115 8.52121 8.56854 8.52121 9.89636C8.52025 11.1268 7.58843 11.5479 6.49653 11.5479L6.49621 11.5485ZM16.8719 3.90461C13.6917 3.90461 12.182 6.04211 12.182 8.82729C12.182 12.0011 14.0784 13.7175 16.8719 13.7175C18.9612 13.7175 20.4697 12.8754 21.1765 10.7057H18.7015C18.5408 11.2888 17.7372 11.7745 16.9658 11.7745C15.5515 11.7745 14.6836 10.9973 14.6194 9.44282H21.2726C21.4333 6.56025 20.1164 3.90461 16.8719 3.90461ZM14.6541 7.85561C14.6522 7.59014 14.705 7.32714 14.8092 7.08298C14.9135 6.83882 15.0668 6.61874 15.2598 6.43646C15.4528 6.25417 15.6813 6.11358 15.931 6.02345C16.1807 5.93332 16.4463 5.89557 16.7112 5.91257C17.9326 5.91257 18.5434 6.56025 18.8005 7.85561H14.6541ZM14.1096 1.41097H19.2814V2.70632H14.1096V1.41097Z" fill="white"/>
</svg>
