<svg width="400" height="738" viewBox="0 0 400 738" fill="none" xmlns="http://www.w3.org/2000/svg">
<g clip-path="url(#clip0)">
<path opacity="0.5" d="M143.984 515.647C142.96 516.046 141.806 515.54 141.407 514.517C141.008 513.494 141.514 512.34 142.538 511.941C143.562 511.542 144.716 512.047 145.115 513.071C145.514 514.094 145.007 515.247 143.984 515.647Z" fill="#616161"/>
<path opacity="0.5" d="M174.73 391.042C173.71 391.44 173.201 392.599 173.599 393.618C173.996 394.638 175.156 395.146 176.175 394.748C177.195 394.35 177.704 393.191 177.307 392.172C176.909 391.153 175.749 390.645 174.73 391.042Z" fill="#616161"/>
<path opacity="0.5" d="M163.072 620.703C161.996 621.123 160.785 620.592 160.366 619.517C159.947 618.443 160.479 617.232 161.554 616.812C162.629 616.393 163.84 616.924 164.259 617.999C164.678 619.073 164.147 620.284 163.072 620.703Z" fill="#616161"/>
<path opacity="0.5" d="M150.808 592.825C149.733 593.244 148.522 592.713 148.102 591.639C147.683 590.565 148.215 589.354 149.29 588.934C150.365 588.515 151.577 589.046 151.996 590.12C152.415 591.195 151.883 592.406 150.808 592.825Z" fill="#616161"/>
<path opacity="0.5" d="M1.72825 518.945C0.615901 519.379 0.106893 520.538 0.540556 521.65C0.974219 522.761 2.13373 523.27 3.24608 522.836C4.35843 522.402 4.86746 521.243 4.43379 520.131C4.00013 519.019 2.74791 518.547 1.72825 518.945Z" fill="#616161"/>
<path opacity="0.5" d="M55.0358 440.404C53.9235 440.838 53.4144 441.997 53.8481 443.109C54.2818 444.22 55.4413 444.729 56.5537 444.295C57.666 443.861 58.1388 442.609 57.7413 441.59C57.3076 440.478 56.0555 440.006 55.0358 440.404Z" fill="#616161"/>
<path opacity="0.5" d="M72.6781 680.836C71.5657 681.27 71.0567 682.429 71.4903 683.54C71.924 684.652 73.0835 685.16 74.1958 684.726C75.3082 684.292 75.7811 683.041 75.3836 682.022C75.0787 680.966 73.7904 680.402 72.6781 680.836Z" fill="#616161"/>
<path opacity="0.5" d="M79.7979 463.086C78.6855 463.52 78.1199 464.808 78.5536 465.92C78.9873 467.031 80.2756 467.596 81.388 467.162C82.5003 466.728 83.0659 465.44 82.6322 464.329C82.1059 463.253 80.9102 462.652 79.7979 463.086Z" fill="#616161"/>
<path opacity="0.5" d="M119.879 514.909C118.767 515.343 118.201 516.631 118.635 517.743C119.069 518.855 120.357 519.419 121.469 518.985C122.582 518.552 123.147 517.264 122.714 516.152C122.28 515.04 120.992 514.475 119.879 514.909Z" fill="#616161"/>
<path opacity="0.5" d="M39.9932 124.774C38.8808 125.208 38.3152 126.496 38.7489 127.608C39.1826 128.72 40.4709 129.284 41.5833 128.851C42.6956 128.417 43.2612 127.129 42.8275 126.017C42.3939 124.905 41.1055 124.34 39.9932 124.774Z" fill="#616161"/>
<path opacity="0.5" d="M213.709 570.636C212.597 571.07 212.031 572.358 212.465 573.469C212.899 574.581 214.187 575.146 215.3 574.712C216.412 574.278 216.977 572.99 216.544 571.878C216.11 570.767 214.822 570.202 213.709 570.636Z" fill="#616161"/>
<path opacity="0.5" d="M205.19 560.296C204.078 560.73 203.512 562.018 203.946 563.13C204.38 564.242 205.668 564.806 206.78 564.373C207.893 563.939 208.458 562.651 208.025 561.539C207.591 560.427 206.303 559.862 205.19 560.296Z" fill="#616161"/>
<path opacity="0.5" d="M43.7231 325.163C42.5456 325.622 41.219 325.041 40.7599 323.864C40.3008 322.687 40.8832 321.361 42.0607 320.901C43.2382 320.442 44.5649 321.024 45.0239 322.2C45.483 323.377 44.9006 324.704 43.7231 325.163Z" fill="#616161"/>
<path opacity="0.5" d="M68.51 492.466C67.3977 492.9 66.7394 494.224 67.2092 495.428C67.6429 496.54 68.9674 497.198 70.1724 496.728C71.2848 496.294 71.9431 494.969 71.4732 493.765C71.0034 492.561 69.6224 492.032 68.51 492.466Z" fill="#616161"/>
<path opacity="0.5" d="M64.1141 344.854C63.0017 345.288 62.3434 346.612 62.8133 347.816C63.2469 348.928 64.5714 349.585 65.7765 349.115C66.9815 348.645 67.5471 347.357 67.0773 346.153C66.5148 344.985 65.2264 344.42 64.1141 344.854Z" fill="#616161"/>
<path opacity="0.5" d="M137.014 625.638C135.809 626.108 135.244 627.396 135.714 628.6C136.183 629.805 137.472 630.37 138.677 629.899C139.882 629.429 140.447 628.141 139.978 626.937C139.508 625.733 138.219 625.168 137.014 625.638Z" fill="#616161"/>
<path opacity="0.5" d="M150.193 536.494C148.988 536.964 148.366 538.38 148.836 539.585C149.306 540.789 150.687 541.318 151.892 540.848C153.097 540.378 153.663 539.09 153.193 537.885C152.687 536.588 151.398 536.023 150.193 536.494Z" fill="#616161"/>
<path opacity="0.5" d="M4.33184 133.562C3.12679 134.032 2.50466 135.449 2.97447 136.654C3.44428 137.858 4.86147 138.479 6.06652 138.009C7.27157 137.539 7.89369 136.122 7.42388 134.918C6.95407 133.713 5.53689 133.092 4.33184 133.562Z" fill="#616161"/>
<path opacity="0.5" d="M129.104 337.326C127.806 337.833 127.184 339.25 127.69 340.546C128.196 341.843 129.613 342.465 130.911 341.959C132.208 341.452 132.831 340.035 132.325 338.738C131.819 337.441 130.402 336.82 129.104 337.326Z" fill="#616161"/>
<path opacity="0.5" d="M23.48 400.305C22.1822 400.812 21.5601 402.228 22.066 403.525C22.572 404.822 23.9892 405.444 25.2869 404.937C26.5847 404.431 27.2068 403.014 26.7009 401.717C26.1949 400.42 24.7777 399.799 23.48 400.305Z" fill="#616161"/>
<path opacity="0.5" d="M103.932 523.585C102.635 524.092 102.012 525.508 102.518 526.805C103.024 528.102 104.442 528.724 105.739 528.217C107.037 527.711 107.659 526.294 107.153 524.997C106.74 523.664 105.23 523.079 103.932 523.585Z" fill="#616161"/>
<path opacity="0.5" d="M101.191 625.523C99.8931 626.029 99.271 627.446 99.777 628.743C100.283 630.04 101.7 630.661 102.998 630.155C104.296 629.649 104.918 628.232 104.412 626.935C103.906 625.638 102.489 625.017 101.191 625.523Z" fill="#616161"/>
<path opacity="0.5" d="M136.276 339.011C134.978 339.518 134.356 340.934 134.862 342.231C135.368 343.528 136.785 344.15 138.083 343.643C139.381 343.137 140.003 341.72 139.497 340.423C138.991 339.126 137.574 338.505 136.276 339.011Z" fill="#616161"/>
<path opacity="0.5" d="M65.8879 346.937C64.5902 347.443 63.9681 348.86 64.474 350.157C64.98 351.454 66.3972 352.075 67.6949 351.569C68.9926 351.063 69.6148 349.646 69.1088 348.349C68.639 347.145 67.1857 346.431 65.8879 346.937Z" fill="#616161"/>
<path opacity="0.5" d="M59.7764 599.304C58.4786 599.81 57.8565 601.227 58.3625 602.524C58.8684 603.821 60.2856 604.442 61.5833 603.936C62.8811 603.429 63.5032 602.013 62.9973 600.716C62.4913 599.419 61.0741 598.797 59.7764 599.304Z" fill="#616161"/>
<path opacity="0.5" d="M100.581 659.277C99.2831 659.783 98.5683 661.236 99.1103 662.626C99.6163 663.923 101.033 664.544 102.424 664.001C103.814 663.459 104.344 662.078 103.838 660.781C103.425 659.448 101.879 658.771 100.581 659.277Z" fill="#616161"/>
<path opacity="0.5" d="M173.956 413.973C172.658 414.48 172.036 415.896 172.578 417.286C173.084 418.583 174.501 419.204 175.799 418.698C177.097 418.192 177.719 416.775 177.213 415.478C176.671 414.088 175.254 413.467 173.956 413.973Z" fill="#616161"/>
<path opacity="0.5" d="M394.15 527.785C392.852 528.291 392.137 529.744 392.679 531.134C393.185 532.431 394.639 533.145 396.029 532.602C397.327 532.096 398.042 530.643 397.5 529.253C396.865 527.9 395.448 527.279 394.15 527.785Z" fill="#616161"/>
<path opacity="0.5" d="M51.8216 349.756C50.5239 350.262 49.8091 351.715 50.3512 353.105C50.8571 354.402 52.3104 355.116 53.7008 354.573C54.9986 354.067 55.6773 352.521 55.1713 351.224C54.5365 349.871 53.1194 349.25 51.8216 349.756Z" fill="#616161"/>
<path opacity="0.5" d="M80.1762 508.41C78.8784 508.916 78.1636 510.369 78.7057 511.759C79.2117 513.056 80.665 513.769 82.0554 513.227C83.3532 512.721 84.068 511.268 83.5259 509.878C83.02 508.581 81.5666 507.867 80.1762 508.41Z" fill="#616161"/>
<path opacity="0.5" d="M140.395 705.761C139.097 706.267 138.418 707.813 138.924 709.11C139.43 710.407 140.976 711.085 142.274 710.578C143.572 710.072 144.25 708.526 143.745 707.229C143.239 705.932 141.785 705.219 140.395 705.761Z" fill="#616161"/>
<path opacity="0.5" d="M-3.20239 112.058C-4.50013 112.565 -5.17882 114.11 -4.67287 115.407C-4.16692 116.704 -2.6209 117.382 -1.32315 116.876C-0.0254117 116.369 0.653258 114.824 0.147309 113.527C-0.358639 112.23 -1.90465 111.552 -3.20239 112.058Z" fill="#616161"/>
<path opacity="0.5" d="M153.469 735.991C152.172 736.498 151.493 738.043 151.999 739.34C152.505 740.637 154.051 741.315 155.349 740.809C156.646 740.303 157.325 738.757 156.819 737.46C156.313 736.163 154.767 735.485 153.469 735.991Z" fill="#616161"/>
<path opacity="0.5" d="M37.2939 609.568C35.9961 610.074 35.3175 611.62 35.8234 612.917C36.3293 614.214 37.8754 614.892 39.1731 614.386C40.4708 613.879 41.1495 612.334 40.6436 611.037C40.1376 609.74 38.5916 609.062 37.2939 609.568Z" fill="#616161"/>
<path opacity="0.5" d="M16.6598 103.563C15.362 104.069 14.6833 105.615 15.1893 106.912C15.6952 108.209 17.2413 108.886 18.539 108.38C19.8367 107.874 20.5154 106.328 20.0095 105.031C19.5035 103.734 17.9575 103.057 16.6598 103.563Z" fill="#616161"/>
<path opacity="0.5" d="M11.5876 191.039C10.1972 191.582 9.61118 193.091 10.1171 194.388C10.6592 195.778 12.1691 196.363 13.4668 195.857C14.7646 195.351 15.4433 193.805 14.9373 192.508C14.4314 191.211 12.8854 190.533 11.5876 191.039Z" fill="#616161"/>
<path opacity="0.5" d="M56.652 517.372C55.3543 517.878 54.6756 519.424 55.1815 520.721C55.6875 522.018 57.2335 522.696 58.5312 522.189C59.9217 521.647 60.5077 520.138 60.0017 518.841C59.4958 517.544 57.9498 516.866 56.652 517.372Z" fill="#616161"/>
<path opacity="0.5" d="M35.7599 689.687C34.4289 690.206 32.9291 689.549 32.4102 688.218C31.8913 686.888 32.5496 685.389 33.8807 684.87C35.2118 684.35 36.7115 685.008 37.2304 686.338C37.7493 687.668 37.091 689.168 35.7599 689.687Z" fill="#616161"/>
<path opacity="0.5" d="M88.8608 434.574C87.4704 435.116 86.8844 436.625 87.4265 438.015C87.9685 439.405 89.4784 439.99 90.7762 439.484C92.0739 438.977 92.8453 437.396 92.3393 436.099C91.7973 434.709 90.2512 434.031 88.8608 434.574Z" fill="#616161"/>
<path opacity="0.5" d="M126.064 700.784C124.674 701.327 124.088 702.836 124.63 704.226C125.172 705.615 126.718 706.293 128.016 705.787C129.406 705.245 130.085 703.699 129.543 702.309C129.001 700.92 127.455 700.242 126.064 700.784Z" fill="#616161"/>
<path opacity="0.5" d="M49.9638 424.664C48.5733 425.206 47.8946 426.752 48.4006 428.049C48.9427 429.439 50.4887 430.116 51.8791 429.574C53.2696 429.032 53.9482 427.486 53.4062 426.096C52.9002 424.799 51.3542 424.122 49.9638 424.664Z" fill="#616161"/>
<path opacity="0.5" d="M45.3986 448.006C44.0082 448.548 43.3295 450.094 43.8716 451.484C44.4137 452.873 45.9597 453.551 47.3501 453.009C48.7406 452.466 49.4193 450.92 48.8772 449.531C48.2424 448.177 46.6964 447.5 45.3986 448.006Z" fill="#616161"/>
<path opacity="0.5" d="M122.829 349.167C121.439 349.71 120.76 351.255 121.302 352.645C121.844 354.035 123.39 354.712 124.781 354.17C126.171 353.627 126.85 352.082 126.308 350.692C125.766 349.303 124.22 348.625 122.829 349.167Z" fill="#616161"/>
<path opacity="0.5" d="M160.354 380.747C158.963 381.289 158.285 382.835 158.827 384.225C159.369 385.614 160.915 386.292 162.305 385.75C163.696 385.207 164.374 383.661 163.832 382.272C163.29 380.882 161.744 380.204 160.354 380.747Z" fill="#616161"/>
<path opacity="0.5" d="M47.2294 159.203C45.839 159.745 45.1603 161.291 45.7024 162.681C46.2445 164.07 47.7905 164.748 49.181 164.206C50.5714 163.663 51.2501 162.118 50.708 160.728C50.1659 159.338 48.6199 158.661 47.2294 159.203Z" fill="#616161"/>
<path opacity="0.5" d="M92.23 501.252C90.8396 501.795 90.1609 503.34 90.703 504.73C91.2451 506.119 92.7911 506.797 94.1815 506.255C95.572 505.712 96.2506 504.167 95.7086 502.777C95.1303 501.295 93.6204 500.71 92.23 501.252Z" fill="#616161"/>
<path opacity="0.5" d="M41.5293 646.983C40.1388 647.525 39.4601 649.071 40.0022 650.46C40.5443 651.85 42.0903 652.528 43.4808 651.985C44.8712 651.443 45.5499 649.897 45.0078 648.508C44.4657 647.118 42.9197 646.44 41.5293 646.983Z" fill="#616161"/>
<path opacity="0.5" d="M151.44 718.744C150.05 719.287 149.371 720.832 149.913 722.222C150.455 723.611 152.001 724.289 153.392 723.747C154.782 723.204 155.461 721.659 154.919 720.269C154.377 718.88 152.831 718.202 151.44 718.744Z" fill="#616161"/>
<path opacity="0.5" d="M190.561 500.892C189.171 501.435 188.399 503.017 188.977 504.499C189.519 505.889 191.102 506.659 192.585 506.08C193.975 505.538 194.747 503.956 194.168 502.474C193.626 501.084 191.951 500.35 190.561 500.892Z" fill="#616161"/>
<path opacity="0.5" d="M43.275 458.441C41.8845 458.983 41.2058 460.529 41.7841 462.011C42.3262 463.401 43.9083 464.171 45.2988 463.629C46.6892 463.086 47.4606 461.505 46.8823 460.022C46.2114 458.576 44.6654 457.899 43.275 458.441Z" fill="#616161"/>
<path opacity="0.5" d="M95.5718 408.794C94.1384 409.353 92.5233 408.645 91.9645 407.212C91.4056 405.78 92.1146 404.165 93.5481 403.606C94.9815 403.047 96.5966 403.755 97.1554 405.187C97.7143 406.62 97.0053 408.234 95.5718 408.794Z" fill="#616161"/>
<path opacity="0.5" d="M181.807 553.194C180.416 553.736 179.645 555.318 180.223 556.8C180.765 558.19 182.347 558.96 183.831 558.382C185.221 557.839 185.992 556.257 185.414 554.775C184.836 553.293 183.197 552.651 181.807 553.194Z" fill="#616161"/>
<path opacity="0.5" d="M190.032 217.814C188.598 218.373 186.983 217.665 186.424 216.232C185.866 214.8 186.575 213.185 188.008 212.626C189.441 212.067 191.057 212.775 191.615 214.207C192.174 215.64 191.465 217.255 190.032 217.814Z" fill="#616161"/>
<path opacity="0.5" d="M104.481 5.90117C102.998 6.47974 102.356 8.118 102.898 9.50762C103.476 10.9899 105.115 11.6315 106.505 11.0891C107.988 10.5105 108.631 8.87225 108.089 7.48263C107.547 6.09301 105.872 5.35876 104.481 5.90117Z" fill="#616161"/>
<path opacity="0.5" d="M270.329 546.307C268.846 546.886 268.204 548.524 268.746 549.914C269.324 551.396 270.963 552.037 272.353 551.495C273.836 550.916 274.479 549.278 273.937 547.889C273.358 546.406 271.812 545.728 270.329 546.307Z" fill="#616161"/>
<path opacity="0.5" d="M29.7699 272.967C28.2868 273.545 27.5515 275.22 28.1297 276.702C28.708 278.184 30.3828 278.918 31.866 278.34C33.3491 277.761 34.0843 276.087 33.5061 274.605C32.8352 273.159 31.253 272.388 29.7699 272.967Z" fill="#616161"/>
<path opacity="0.5" d="M109.017 687.474C107.534 688.052 106.799 689.727 107.377 691.209C107.955 692.691 109.63 693.426 111.113 692.847C112.596 692.268 113.332 690.594 112.753 689.112C112.175 687.629 110.5 686.895 109.017 687.474Z" fill="#616161"/>
<path opacity="0.5" d="M54.0108 119.093C52.5276 119.671 51.7924 121.346 52.3706 122.828C52.9488 124.31 54.6237 125.045 56.1068 124.466C57.59 123.887 58.3252 122.213 57.747 120.731C57.1688 119.248 55.4939 118.514 54.0108 119.093Z" fill="#616161"/>
<path opacity="0.5" d="M328.102 696.046C326.618 696.625 325.791 698.335 326.369 699.818C326.947 701.3 328.622 702.034 330.198 701.419C331.681 700.841 332.416 699.166 331.838 697.684C331.296 696.295 329.585 695.468 328.102 696.046Z" fill="#616161"/>
<path opacity="0.5" d="M20.3508 422.126C18.8677 422.705 18.0397 424.415 18.6541 425.99C19.2323 427.472 20.9433 428.299 22.5191 427.685C24.095 427.07 24.8302 425.395 24.2159 423.82C23.6015 422.246 21.9266 421.511 20.3508 422.126Z" fill="#616161"/>
<path opacity="0.5" d="M18.7983 310.549C17.2225 311.164 16.4872 312.839 17.1016 314.413C17.716 315.988 19.4835 316.686 20.9667 316.108C22.5425 315.493 23.2416 313.726 22.6634 312.244C22.0851 310.762 20.2814 309.971 18.7983 310.549Z" fill="#616161"/>
<path opacity="0.5" d="M169.552 735.055C167.976 735.669 167.277 737.436 167.855 738.919C168.469 740.494 170.237 741.192 171.72 740.613C173.296 739.998 173.995 738.231 173.417 736.749C172.802 735.174 171.127 734.44 169.552 735.055Z" fill="#616161"/>
<path opacity="0.5" d="M134.576 277.98C132.989 278.599 131.201 277.815 130.582 276.229C129.963 274.643 130.748 272.855 132.335 272.236C133.922 271.617 135.71 272.401 136.329 273.987C136.948 275.573 136.163 277.361 134.576 277.98Z" fill="#616161"/>
<path opacity="0.5" d="M38.114 610.849C36.5382 611.464 35.7464 613.267 36.3608 614.842C36.9751 616.417 38.7789 617.208 40.3547 616.593C41.9305 615.978 42.7223 614.175 42.1079 612.6C41.4936 611.025 39.6899 610.235 38.114 610.849Z" fill="#616161"/>
<path opacity="0.5" d="M7.78774 605.388C6.21191 606.003 5.4201 607.806 6.03446 609.381C6.64882 610.956 8.45253 611.746 10.0284 611.132C11.6042 610.517 12.396 608.714 11.7816 607.139C11.1672 605.564 9.36357 604.773 7.78774 605.388Z" fill="#616161"/>
<path opacity="0.5" d="M78.7428 440.122C77.167 440.737 76.3752 442.54 76.9896 444.115C77.6039 445.69 79.4076 446.481 80.9835 445.866C82.5593 445.251 83.3511 443.448 82.7367 441.873C82.1224 440.298 80.3187 439.507 78.7428 440.122Z" fill="#616161"/>
<path opacity="0.5" d="M295.613 686.412C294.037 687.026 293.153 688.866 293.803 690.533C294.418 692.108 296.258 692.992 297.926 692.341C299.502 691.726 300.387 689.887 299.736 688.219C298.993 686.588 297.189 685.797 295.613 686.412Z" fill="#616161"/>
<path opacity="0.5" d="M156.555 596.881C154.887 597.532 154.038 599.464 154.689 601.131C155.339 602.799 157.272 603.646 158.941 602.995C160.609 602.344 161.457 600.412 160.807 598.745C160.064 597.113 158.131 596.266 156.555 596.881Z" fill="#616161"/>
<path opacity="0.5" d="M2.16754 357.171C0.324533 357.89 -1.75201 356.979 -2.47053 355.138C-3.18906 353.296 -2.27747 351.22 -0.43447 350.501C1.40853 349.782 3.48506 350.692 4.20359 352.534C4.92211 354.376 4.01054 356.452 2.16754 357.171Z" fill="#616161"/>
<path opacity="0.5" d="M150.513 590.699L162.776 618.577C162.885 618.855 162.808 619.205 162.437 619.35C162.159 619.458 161.809 619.381 161.7 619.103L149.437 591.225C149.328 590.947 149.405 590.597 149.683 590.489C150.018 590.251 150.368 590.328 150.513 590.699Z" fill="#656565"/>
<path opacity="0.097547" d="M-9.51476 418.94L2.9869 520.802C3.00263 521.116 2.79681 521.41 2.48259 521.426C2.16836 521.442 1.87455 521.236 1.85883 520.922L-10.6428 419.06C-10.6586 418.746 -10.4527 418.452 -10.1385 418.437C-9.82429 418.421 -9.53048 418.626 -9.51476 418.94Z" fill="#656565"/>
<path opacity="0.3429" d="M55.569 442.864L-10.2404 419.543C-10.4981 419.43 -10.7354 419.096 -10.6223 418.838C-10.5091 418.581 -10.1745 418.343 -9.91684 418.456L55.8926 441.777C56.1502 441.89 56.3875 442.225 56.2744 442.482C56.1974 442.833 55.8266 442.977 55.569 442.864Z" fill="#656565"/>
<path opacity="0.1933" d="M56.2537 442.704L2.94595 521.245C2.74014 521.539 2.42591 521.555 2.16824 521.442C1.87443 521.236 1.85872 520.922 1.97184 520.665L55.2795 442.124C55.4853 441.83 55.7996 441.814 56.0572 441.927C56.3149 442.04 56.3668 442.447 56.2537 442.704Z" fill="#656565"/>
<path opacity="0.1297" d="M2.85357 521.281L-60.3636 590.025C-60.6056 590.226 -60.9198 590.242 -61.1209 590C-61.322 589.759 -61.3378 589.444 -61.0958 589.243L2.1214 520.499C2.36335 520.298 2.67758 520.282 2.87869 520.524C3.07981 520.766 3.05938 520.987 2.85357 521.281Z" fill="#656565"/>
<path opacity="0.085119" d="M121.138 516.767L150.513 590.699C150.621 590.977 150.452 591.363 150.173 591.472C149.895 591.58 149.545 591.504 149.4 591.133L120.026 517.201C119.917 516.923 119.994 516.573 120.365 516.428C120.736 516.283 121.03 516.489 121.138 516.767Z" fill="#656565"/>
<path opacity="0.1194" d="M80.8663 465.552L2.76055 521.318C2.5186 521.519 2.16821 521.442 1.9671 521.2C1.76599 520.958 1.84295 520.608 2.0849 520.407L80.1906 464.641C80.4326 464.44 80.7829 464.517 80.9841 464.759C81.2213 465.093 81.1443 465.443 80.8663 465.552Z" fill="#656565"/>
<path opacity="0.2558" d="M-62.8448 531.646L2.36329 520.298C2.67752 520.283 2.97133 520.488 2.98705 520.802C3.00277 521.116 2.79696 521.41 2.57543 521.39L-62.6327 532.738C-62.9469 532.754 -63.2407 532.548 -63.2564 532.234C-63.3648 531.956 -63.1229 531.755 -62.8448 531.646Z" fill="#656565"/>
<path opacity="0.099722" d="M-28.8953 690.679L73.442 682.246C73.7562 682.23 74.05 682.435 74.0657 682.749C74.0814 683.063 73.8756 683.357 73.5614 683.373L-28.7759 691.807C-29.0901 691.823 -29.3839 691.617 -29.3996 691.303C-29.3227 690.953 -29.0807 690.752 -28.8953 690.679Z" fill="#656565"/>
<path opacity="0.5" d="M56.1862 441.984L80.9842 464.758C81.1853 465 81.201 465.314 80.9591 465.515C80.7171 465.717 80.4029 465.732 80.2018 465.491L55.4038 442.716C55.2027 442.474 55.187 442.16 55.4289 441.959C55.5782 441.794 55.8924 441.778 56.1862 441.984Z" fill="#656565"/>
<path opacity="0.1234" d="M56.1863 441.983L121.066 516.581C121.267 516.823 121.19 517.174 121.041 517.338C120.799 517.54 120.484 517.555 120.283 517.314L55.4039 442.715C55.2028 442.474 55.2797 442.123 55.5217 441.922C55.6709 441.757 55.9852 441.741 56.1863 441.983Z" fill="#656565"/>
<path opacity="0.4586" d="M80.9843 464.758L121.066 516.582C121.267 516.823 121.19 517.174 120.948 517.375C120.706 517.576 120.356 517.499 120.154 517.257L80.073 465.434C79.8719 465.192 79.9489 464.842 80.1908 464.641C80.4689 464.532 80.7832 464.516 80.9843 464.758Z" fill="#656565"/>
<path opacity="0.01" d="M56.2946 442.261L69.9338 494.473C70.0422 494.751 69.8364 495.045 69.5583 495.153C69.2802 495.262 68.9864 495.056 68.878 494.778L55.3315 442.53C55.2231 442.252 55.4289 441.959 55.707 441.85C55.8924 441.778 56.2789 441.947 56.2946 442.261Z" fill="#656565"/>
<path opacity="0.068931" d="M120.901 516.432L214.767 572.251C215.025 572.364 215.076 572.771 214.963 573.029C214.85 573.286 214.443 573.338 214.186 573.225L120.319 517.406C120.062 517.293 120.01 516.887 120.123 516.629C120.365 516.428 120.643 516.319 120.901 516.432Z" fill="#656565"/>
<path opacity="0.1485" d="M120.901 516.432L206.212 561.819C206.469 561.932 206.614 562.303 206.408 562.596C206.295 562.854 205.924 562.999 205.63 562.793L120.319 517.406C120.062 517.293 119.917 516.923 120.123 516.629C120.329 516.335 120.643 516.319 120.901 516.432Z" fill="#656565"/>
<path opacity="0.3407" d="M81.1083 465.35L69.9495 494.787C69.8363 495.044 69.4656 495.189 69.2079 495.076C68.9502 494.963 68.713 494.629 68.9188 494.335L80.1703 464.862C80.2834 464.605 80.6181 464.367 80.9119 464.573C81.0769 464.722 81.1853 465 81.1083 465.35Z" fill="#656565"/>
<path opacity="0.2514" d="M120.448 517.463L69.1153 495.112C68.8576 494.999 68.7131 494.629 68.8262 494.371C68.9393 494.113 69.3101 493.969 69.5678 494.082L120.901 516.432C121.158 516.545 121.303 516.916 121.19 517.173C121.077 517.431 120.706 517.576 120.448 517.463Z" fill="#656565"/>
<path opacity="0.5" d="M206.377 561.969L214.932 572.401C215.133 572.642 215.056 572.993 214.814 573.194C214.572 573.395 214.222 573.318 214.021 573.076L205.465 562.644C205.264 562.402 205.341 562.052 205.583 561.851C205.861 561.743 206.176 561.727 206.377 561.969Z" fill="#656565"/>
<path opacity="0.5" d="M43.2834 322.666L65.3366 346.618C65.5377 346.86 65.5534 347.174 65.3115 347.375C65.0695 347.576 64.7553 347.592 64.5542 347.35L42.501 323.398C42.2998 323.156 42.2841 322.842 42.5261 322.641C42.768 322.44 43.0823 322.424 43.2834 322.666Z" fill="#656565"/>
<path opacity="0.5" d="M43.0164 323.624L-13.5158 335.857C-13.8301 335.873 -14.1239 335.667 -14.2323 335.389C-14.248 335.075 -14.1349 334.818 -13.8568 334.709L42.6754 322.476C42.9897 322.46 43.2835 322.666 43.3919 322.944C43.5003 323.222 43.2945 323.515 43.0164 323.624Z" fill="#656565"/>
<path opacity="0.3653" d="M-13.5427 334.693L65.0428 346.413C65.357 346.397 65.5942 346.731 65.5173 347.081C65.4403 347.432 65.1983 347.633 64.848 347.556L-13.7375 335.837C-14.0879 335.76 -14.289 335.518 -14.2121 335.168C-14.2278 334.854 -13.8931 334.617 -13.5427 334.693Z" fill="#656565"/>
<path opacity="0.05066" d="M43.4075 323.258L-2.92192 429.818C-3.03504 430.075 -3.40581 430.22 -3.66348 430.107C-3.92116 429.994 -4.06572 429.623 -3.9526 429.366L42.3768 322.806C42.4899 322.549 42.8607 322.404 43.1184 322.517C43.376 322.63 43.5206 323 43.4075 323.258Z" fill="#656565"/>
<path opacity="0.2107" d="M-3.04599 429.226L69.7327 494.232C69.9338 494.473 69.9496 494.787 69.7438 495.081C69.5018 495.282 69.1876 495.298 68.9299 495.185L-3.84881 430.18C-4.04993 429.938 -4.06564 429.624 -3.85982 429.33C-3.65402 429.036 -3.2471 428.984 -3.04599 429.226Z" fill="#656565"/>
<path opacity="0.1282" d="M-3.89589 429.237L64.4506 346.537C64.6925 346.336 64.9706 346.228 65.2644 346.433C65.4656 346.675 65.574 346.953 65.3682 347.247L-2.97832 429.947C-3.18413 430.24 -3.49838 430.256 -3.79218 430.051C-4.086 429.845 -4.1017 429.531 -3.89589 429.237Z" fill="#656565"/>
<path opacity="0.2421" d="M-4.02944 429.716L-14.2684 335.297C-14.2842 334.983 -14.0784 334.689 -13.7641 334.673C-13.4499 334.657 -13.1561 334.863 -13.1404 335.177L-2.9375 429.503C-2.92178 429.818 -3.12756 430.111 -3.44179 430.127C-3.75602 430.143 -3.92102 429.994 -4.02944 429.716Z" fill="#656565"/>
<path opacity="0.01" d="M214.814 573.193L138.119 628.196C137.877 628.397 137.527 628.32 137.326 628.078C137.125 627.836 137.202 627.486 137.444 627.285L214.139 572.283C214.38 572.082 214.731 572.159 214.932 572.4C215.133 572.642 215.149 572.956 214.814 573.193Z" fill="#656565"/>
<path opacity="0.030221" d="M206.351 562.726L138.305 628.124C138.063 628.325 137.748 628.34 137.455 628.135C137.253 627.893 137.202 627.486 137.444 627.285L205.583 561.851C205.825 561.65 206.139 561.634 206.433 561.84C206.578 562.21 206.593 562.524 206.351 562.726Z" fill="#656565"/>
<path opacity="0.064248" d="M151.251 538.109L214.767 572.252C215.025 572.364 215.169 572.735 214.963 573.029C214.85 573.286 214.479 573.431 214.186 573.225L150.706 539.176C150.448 539.063 150.304 538.692 150.509 538.398C150.623 538.141 150.993 537.996 151.251 538.109Z" fill="#656565"/>
<path opacity="0.1551" d="M205.759 562.85L150.835 539.232C150.577 539.119 150.433 538.749 150.51 538.398C150.623 538.141 150.993 537.996 151.344 538.073L206.305 561.783C206.562 561.896 206.707 562.267 206.594 562.524C206.295 562.854 206.017 562.963 205.759 562.85Z" fill="#656565"/>
<path opacity="0.1494" d="M69.5677 494.082L151.251 538.109C151.545 538.315 151.653 538.592 151.484 538.979C151.278 539.273 151 539.381 150.706 539.176L68.9864 495.056C68.7287 494.943 68.5842 494.572 68.79 494.279C68.9958 493.985 69.31 493.969 69.5677 494.082Z" fill="#656565"/>
<path opacity="0.1525" d="M-74.9041 501.554L-3.8958 429.237C-3.65385 429.036 -3.33964 429.02 -3.04583 429.226C-2.84472 429.467 -2.82899 429.781 -3.0348 430.075L-74.0431 502.392C-74.285 502.593 -74.5993 502.609 -74.8931 502.404C-75.1304 502.069 -75.1461 501.755 -74.9041 501.554Z" fill="#656565"/>
<path opacity="0.3052" d="M151.597 538.721L138.418 627.866C138.341 628.216 138.099 628.417 137.748 628.34C137.398 628.263 137.197 628.022 137.274 627.671L150.453 538.527C150.53 538.177 150.772 537.975 151.122 538.052C151.473 538.129 151.674 538.371 151.597 538.721Z" fill="#656565"/>
<path opacity="0.2882" d="M5.00927 136.394L-81.9507 114.706C-82.3011 114.629 -82.4457 114.258 -82.3325 114.001C-82.2556 113.651 -81.8848 113.506 -81.5344 113.583L5.38945 135.178C5.73982 135.255 5.88437 135.625 5.8074 135.976C5.69429 136.233 5.35964 136.471 5.00927 136.394Z" fill="#656565"/>
<path opacity="0.1423" d="M5.69418 136.234L-68.5203 224.425C-68.7262 224.719 -69.1331 224.771 -69.3342 224.529C-69.628 224.323 -69.6799 223.916 -69.4379 223.715L4.7766 135.524C5.01855 135.323 5.42548 135.271 5.62659 135.513C5.84812 135.533 5.89999 135.94 5.69418 136.234Z" fill="#656565"/>
<path opacity="0.1518" d="M5.13806 136.451L-108.715 130.697C-109.029 130.713 -109.266 130.378 -109.282 130.064C-109.297 129.75 -108.963 129.513 -108.649 129.497L5.20401 135.251C5.51824 135.235 5.75549 135.569 5.77121 135.883C5.78693 136.198 5.45229 136.435 5.13806 136.451Z" fill="#656565"/>
<path opacity="0.215" d="M4.88052 136.337L-83.2968 76.4845C-83.5906 76.2789 -83.6424 75.8722 -83.4366 75.5785C-83.2308 75.2847 -82.8239 75.2327 -82.5301 75.4383L5.64719 135.291C5.941 135.497 5.99286 135.903 5.78705 136.197C5.45241 136.434 5.13819 136.45 4.88052 136.337Z" fill="#656565"/>
<path opacity="0.2991" d="M5.50883 136.306L-23.9305 156.116C-24.1724 156.317 -24.6155 156.276 -24.8528 155.942C-25.0539 155.7 -25.013 155.257 -24.6784 155.02L4.79709 135.302C5.03904 135.101 5.4821 135.142 5.62665 135.513C5.92046 135.718 5.75078 136.105 5.50883 136.306Z" fill="#656565"/>
<path opacity="0.1055" d="M24.074 402.102L129.662 339.03C130.033 338.886 130.383 338.963 130.491 339.241C130.6 339.518 130.523 339.869 130.281 340.07L24.6931 403.141C24.3584 403.378 23.9719 403.209 23.8635 402.931C23.6624 402.689 23.7959 402.21 24.074 402.102Z" fill="#656565"/>
<path opacity="0.4187" d="M24.3224 403.285L-54.3117 395.001C-54.662 394.924 -54.8631 394.682 -54.915 394.275C-54.838 393.925 -54.5961 393.724 -54.1892 393.672L24.4449 401.957C24.7953 402.033 24.9964 402.275 25.0483 402.682C24.9713 403.032 24.6367 403.269 24.3224 403.285Z" fill="#656565"/>
<path opacity="0.2353" d="M24.6006 403.177L-69.492 438.495C-69.8628 438.64 -70.1566 438.434 -70.3012 438.064C-70.4096 437.786 -70.2399 437.399 -69.9618 437.291L24.1308 401.973C24.5016 401.828 24.7954 402.034 24.9038 402.312C25.0845 402.775 24.8787 403.069 24.6006 403.177Z" fill="#656565"/>
<path opacity="0.5" d="M130.162 338.942L137.334 340.627C137.684 340.704 137.921 341.039 137.844 341.389C137.767 341.739 137.433 341.976 137.082 341.9L129.91 340.214C129.56 340.138 129.415 339.767 129.492 339.417C129.477 339.103 129.811 338.865 130.162 338.942Z" fill="#656565"/>
<path opacity="0.422" d="M66.6676 348.661L129.847 338.958C130.162 338.943 130.548 339.112 130.6 339.519C130.616 339.833 130.446 340.219 130.039 340.271L66.8593 349.974C66.4523 350.026 66.1585 349.821 66.1067 349.414C66.091 349.1 66.3895 348.77 66.6676 348.661Z" fill="#656565"/>
<path opacity="0.4719" d="M23.9248 402.266L66.369 348.991C66.5748 348.697 66.9817 348.645 67.2755 348.851C67.5693 349.056 67.6212 349.463 67.4153 349.757L24.9712 403.032C24.7654 403.326 24.3585 403.378 24.0647 403.173C23.7347 402.874 23.6829 402.468 23.9248 402.266Z" fill="#656565"/>
<path opacity="0.055318" d="M4.64297 136.003L-2.81905 114.684C-2.96361 114.313 -2.79393 113.927 -2.38701 113.875C-2.01623 113.73 -1.72241 113.936 -1.57786 114.306L5.79145 135.661C5.89987 135.939 5.73021 136.326 5.45212 136.434C5.0452 136.486 4.75138 136.281 4.64297 136.003Z" fill="#656565"/>
<path opacity="0.3248" d="M24.6932 403.141L-39.001 444.106C-39.3356 444.343 -39.7221 444.173 -39.9232 443.932C-40.1243 443.69 -39.9908 443.211 -39.7127 443.102L24.0176 402.231C24.2595 402.029 24.7387 402.163 24.8471 402.441C25.1048 402.554 25.064 402.997 24.6932 403.141Z" fill="#656565"/>
<path opacity="0.2474" d="M130.491 339.24L175.38 415.98C175.617 416.314 175.447 416.701 175.169 416.809C174.835 417.046 174.448 416.877 174.247 416.635L129.451 339.859C129.25 339.618 129.384 339.139 129.662 339.03C130.033 338.885 130.383 338.962 130.491 339.24Z" fill="#656565"/>
<path opacity="0.2085" d="M52.6012 351.48L129.847 338.958C130.162 338.942 130.548 339.112 130.564 339.426C130.579 339.74 130.41 340.126 130.096 340.142L52.7568 352.7C52.3499 352.752 52.056 352.546 52.0042 352.14C52.0246 351.918 52.1943 351.532 52.6012 351.48Z" fill="#656565"/>
<path opacity="0.4136" d="M23.8321 402.302L52.0811 351.789C52.2869 351.495 52.6577 351.351 52.9515 351.556C53.2453 351.762 53.3898 352.133 53.184 352.426L24.8062 402.883C24.6004 403.177 24.2296 403.321 23.9358 403.116C23.7708 402.967 23.6263 402.596 23.8321 402.302Z" fill="#656565"/>
<path opacity="0.2749" d="M101.466 627.871L104.172 525.84C104.156 525.526 104.454 525.196 104.805 525.273C105.119 525.257 105.449 525.555 105.372 525.906L102.63 627.843C102.646 628.158 102.348 628.487 101.905 628.447C101.719 628.519 101.482 628.185 101.466 627.871Z" fill="#656565"/>
<path opacity="0.3739" d="M105.388 526.22L61.2317 601.938C61.0259 602.232 60.6552 602.376 60.3613 602.171C60.0675 601.965 59.923 601.594 60.1288 601.301L104.285 525.583C104.491 525.289 104.861 525.144 105.155 525.35C105.449 525.555 105.594 525.926 105.388 526.22Z" fill="#656565"/>
<path opacity="0.5" d="M101.776 628.391L60.3611 602.171C60.0673 601.965 60.0154 601.559 60.1285 601.301C60.3344 601.007 60.7413 600.955 60.999 601.068L102.413 627.288C102.707 627.494 102.759 627.9 102.553 628.194C102.44 628.452 102.069 628.596 101.776 628.391Z" fill="#656565"/>
<path opacity="0.4979" d="M66.7603 348.625L137.112 340.607C137.427 340.591 137.813 340.761 137.865 341.167C137.881 341.482 137.711 341.868 137.304 341.92L66.952 349.938C66.6378 349.954 66.3079 349.655 66.2922 349.341C66.1837 349.063 66.3896 348.77 66.7603 348.625Z" fill="#656565"/>
<path opacity="0.1603" d="M23.8275 402.838L-8.46684 318.41C-8.6114 318.04 -8.44172 317.654 -8.07094 317.509C-7.70016 317.364 -7.31364 317.534 -7.16908 317.904L25.0325 402.368C25.1771 402.739 24.9713 403.032 24.6932 403.141C24.4151 403.249 23.9359 403.116 23.8275 402.838Z" fill="#656565"/>
<path opacity="0.086577" d="M104.377 525.547L174.308 415.971C174.514 415.677 174.921 415.625 175.179 415.738C175.472 415.944 175.524 416.351 175.411 416.608L105.444 526.091C105.238 526.385 104.831 526.437 104.574 526.324C104.223 526.247 104.172 525.84 104.377 525.547Z" fill="#656565"/>
<path opacity="0.5" d="M102.759 627.9L102.149 661.654C102.165 661.968 101.866 662.298 101.423 662.257C101.109 662.273 100.779 661.975 100.763 661.661L101.373 627.907C101.358 627.593 101.656 627.263 101.97 627.247C102.506 627.252 102.707 627.493 102.759 627.9Z" fill="#656565"/>
<path opacity="0.2193" d="M23.8635 402.931L-12.5903 346.17C-12.8275 345.836 -12.6579 345.449 -12.4159 345.248C-12.0813 345.011 -11.6947 345.18 -11.4936 345.422L24.9036 402.312C25.1047 402.553 25.0639 402.996 24.6931 403.141C24.4511 403.342 24.1008 403.265 23.8635 402.931Z" fill="#656565"/>
<path opacity="0.3959" d="M137.7 341.018L175.416 416.073C175.56 416.443 175.483 416.794 175.113 416.938C174.742 417.083 174.392 417.006 174.247 416.635L136.531 341.581C136.386 341.21 136.463 340.86 136.834 340.716C137.205 340.571 137.591 340.74 137.7 341.018Z" fill="#656565"/>
<path opacity="0.1025" d="M67.1467 348.794L175.215 415.831C175.509 416.037 175.653 416.407 175.447 416.701C175.242 416.995 174.871 417.139 174.577 416.934L66.5089 349.897C66.2151 349.691 66.1632 349.285 66.369 348.991C66.4822 348.733 66.8529 348.589 67.1467 348.794Z" fill="#656565"/>
<path opacity="0.4887" d="M101.001 661.996L60.1964 602.022C59.9591 601.688 60.0361 601.337 60.3707 601.1C60.6127 600.899 61.0557 600.94 61.293 601.274L102.097 661.248C102.335 661.582 102.258 661.932 101.923 662.17C101.588 662.407 101.238 662.33 101.001 661.996Z" fill="#656565"/>
<path opacity="0.2379" d="M-54.8018 394.018L-8.46203 317.875C-8.25622 317.581 -7.84931 317.529 -7.59164 317.642C-7.29783 317.848 -7.15327 318.218 -7.35908 318.512L-53.7916 394.691C-53.9974 394.985 -54.4043 395.037 -54.662 394.924C-54.8631 394.682 -55.0076 394.312 -54.8018 394.018Z" fill="#656565"/>
<path opacity="0.3443" d="M52.6013 351.48L137.02 340.643C137.427 340.591 137.72 340.797 137.772 341.203C137.788 341.518 137.618 341.904 137.211 341.956L52.793 352.792C52.3861 352.844 52.0562 352.546 52.0404 352.232C51.9886 351.825 52.2871 351.496 52.6013 351.48Z" fill="#656565"/>
<path opacity="0.5" d="M52.6012 351.48L66.6675 348.661C67.0745 348.609 67.3683 348.815 67.4201 349.222C67.4359 349.536 67.2662 349.922 66.9519 349.938L52.8857 352.757C52.4787 352.809 52.1849 352.603 52.1331 352.196C52.0247 351.918 52.1943 351.532 52.6012 351.48Z" fill="#656565"/>
<path opacity="0.5" d="M104.517 526.453L80.7972 511.369C80.5034 511.164 80.4515 510.757 80.5646 510.5C80.7704 510.206 81.1773 510.154 81.435 510.267L105.155 525.35C105.449 525.556 105.501 525.962 105.388 526.22C105.182 526.514 104.811 526.658 104.517 526.453Z" fill="#656565"/>
<path opacity="0.1171" d="M101.502 627.963L80.5237 510.942C80.4719 510.535 80.6777 510.242 81.0846 510.19C81.3988 510.174 81.7854 510.343 81.8372 510.75L102.723 627.807C102.775 628.214 102.569 628.508 102.162 628.56C101.848 628.576 101.554 628.37 101.502 627.963Z" fill="#656565"/>
<path opacity="0.3105" d="M60.1082 601.522L80.5442 510.721C80.6212 510.37 80.9558 510.133 81.3062 510.21C81.6566 510.287 81.8938 510.621 81.8168 510.971L61.3809 601.773C61.3039 602.123 60.9692 602.36 60.6189 602.283C60.2685 602.207 60.0312 601.872 60.1082 601.522Z" fill="#656565"/>
<path opacity="0.3182" d="M140.815 708.479L101.574 628.148C101.43 627.778 101.507 627.428 101.878 627.283C102.248 627.138 102.599 627.215 102.743 627.586L142.076 707.88C142.221 708.251 142.144 708.601 141.773 708.746C141.31 708.926 140.923 708.757 140.815 708.479Z" fill="#656565"/>
<path opacity="0.3423" d="M66.6015 349.861L-8.10076 318.802C-8.48727 318.632 -8.63183 318.261 -8.42602 317.968C-8.25635 317.581 -7.88557 317.437 -7.59176 317.642L67.1105 348.702C67.497 348.871 67.6416 349.242 67.4358 349.536C67.2661 349.922 66.8953 350.067 66.6015 349.861Z" fill="#656565"/>
<path opacity="0.082204" d="M24.8313 402.126L51.3513 426.578C51.6451 426.783 51.6043 427.226 51.3985 427.52C51.1927 427.814 50.7496 427.773 50.4558 427.567L23.9358 403.116C23.7347 402.874 23.6828 402.468 23.9248 402.266C24.1306 401.973 24.5375 401.921 24.8313 402.126Z" fill="#656565"/>
<path opacity="0.047551" d="M140.851 708.572L60.1964 602.022C59.9953 601.78 60.0362 601.337 60.3708 601.1C60.6127 600.899 61.0558 600.939 61.2569 601.181L141.912 707.731C142.149 708.066 142.072 708.416 141.737 708.653C141.531 708.947 141.088 708.906 140.851 708.572Z" fill="#656565"/>
<path opacity="0.040026" d="M175.298 416.865L81.6473 511.358C81.4053 511.559 80.9984 511.611 80.6684 511.313C80.4673 511.071 80.4154 510.664 80.6212 510.37L174.308 415.971C174.55 415.77 174.957 415.718 175.251 415.923C175.545 416.129 175.504 416.572 175.298 416.865Z" fill="#656565"/>
<path opacity="0.5" d="M-24.7917 155.277L-2.81437 114.148C-2.60856 113.855 -2.23776 113.71 -1.94395 113.916C-1.65014 114.121 -1.5056 114.492 -1.71141 114.785L-23.6887 155.914C-23.8945 156.208 -24.2653 156.353 -24.5591 156.147C-24.8529 155.941 -24.9975 155.571 -24.7917 155.277Z" fill="#656565"/>
<path opacity="0.033864" d="M130.523 339.869L124.357 351.987C124.151 352.281 123.78 352.426 123.393 352.256C123.1 352.051 122.955 351.68 123.125 351.294L129.327 339.268C129.533 338.974 129.904 338.829 130.198 339.035C130.584 339.204 130.729 339.575 130.523 339.869Z" fill="#656565"/>
<path opacity="0.3156" d="M-12.0088 345.196L66.889 348.681C67.2033 348.665 67.5332 348.964 67.4924 349.407C67.5081 349.721 67.2096 350.051 66.7666 350.01L-12.0952 346.617C-12.4094 346.633 -12.7755 346.242 -12.6986 345.892C-12.7504 345.485 -12.4158 345.248 -12.0088 345.196Z" fill="#656565"/>
<path opacity="0.090083" d="M105.424 526.312L38.8213 612.388C38.6155 612.682 38.2086 612.734 37.9148 612.528C37.621 612.323 37.5691 611.916 37.7749 611.622L104.47 525.51C104.676 525.217 105.083 525.165 105.377 525.37C105.578 525.612 105.63 526.019 105.424 526.312Z" fill="#656565"/>
<path opacity="0.092602" d="M102.651 627.622L154.965 738.183C155.11 738.554 154.94 738.94 154.662 739.048C154.291 739.193 153.905 739.024 153.796 738.746L101.482 628.185C101.337 627.814 101.507 627.428 101.785 627.319C102.156 627.175 102.542 627.344 102.651 627.622Z" fill="#656565"/>
<path opacity="0.3278" d="M101.94 628.54L38.0796 612.678C37.7292 612.601 37.4919 612.266 37.6616 611.88C37.7386 611.53 38.0732 611.292 38.4236 611.369L102.321 627.324C102.671 627.401 102.908 627.735 102.739 628.122C102.625 628.379 102.291 628.617 101.94 628.54Z" fill="#656565"/>
<path opacity="0.5" d="M140.851 708.572L101.037 662.088C100.836 661.846 100.877 661.403 101.119 661.202C101.36 661.001 101.804 661.041 102.005 661.283L141.819 707.767C142.02 708.009 141.979 708.452 141.737 708.653C141.531 708.947 141.088 708.906 140.851 708.572Z" fill="#656565"/>
<path opacity="0.5" d="M60.9332 602.268L38.4867 612.626C38.1159 612.77 37.7294 612.601 37.621 612.323C37.4764 611.952 37.6461 611.566 37.9242 611.457L60.4068 601.193C60.7776 601.048 61.128 601.125 61.2725 601.495C61.4375 601.644 61.304 602.123 60.9332 602.268Z" fill="#656565"/>
<path opacity="0.434" d="M-24.735 155.149L17.1043 105.525C17.3101 105.231 17.717 105.179 18.047 105.477C18.3408 105.683 18.3927 106.089 18.0942 106.419L-23.7813 155.951C-23.9871 156.244 -24.3941 156.296 -24.724 155.998C-24.889 155.849 -24.9408 155.442 -24.735 155.149Z" fill="#656565"/>
<path opacity="0.2661" d="M-11.4622 346.05L-38.7387 443.683C-38.8156 444.033 -39.1503 444.271 -39.5368 444.101C-39.8872 444.025 -40.1244 443.69 -39.9547 443.304L-12.6783 345.671C-12.6013 345.321 -12.2305 345.176 -11.8802 345.253C-11.5298 345.33 -11.3852 345.7 -11.4622 346.05Z" fill="#656565"/>
<path opacity="0.3405" d="M57.6532 519.117L104.99 525.201C105.341 525.277 105.578 525.612 105.593 525.926C105.516 526.276 105.182 526.513 104.868 526.529L57.5668 520.538C57.2165 520.461 56.9792 520.127 56.9635 519.813C57.0043 519.37 57.339 519.133 57.6532 519.117Z" fill="#656565"/>
<path opacity="0.355" d="M-23.7924 155.101L13.0112 193.046C13.2123 193.288 13.2641 193.694 12.9656 194.024C12.7237 194.225 12.3168 194.277 11.9868 193.979L-24.724 155.998C-24.9251 155.756 -24.977 155.349 -24.6424 155.112C-24.4004 154.911 -23.9935 154.859 -23.7924 155.101Z" fill="#656565"/>
<path opacity="0.3201" d="M102.005 661.284L154.893 737.998C155.13 738.332 155.053 738.682 154.719 738.92C154.384 739.157 154.034 739.08 153.796 738.746L100.872 661.939C100.635 661.604 100.712 661.254 101.046 661.017C101.453 660.965 101.896 661.006 102.005 661.284Z" fill="#656565"/>
<path opacity="0.1602" d="M104.244 526.026L89.2081 437.107C89.1563 436.7 89.3621 436.406 89.769 436.354C90.1759 436.302 90.4698 436.508 90.5216 436.915L105.521 525.741C105.573 526.148 105.367 526.441 104.96 526.493C104.646 526.509 104.259 526.34 104.244 526.026Z" fill="#656565"/>
<path opacity="0.2027" d="M-31.2409 210.202L-7.18957 318.125C-7.1377 318.532 -7.34353 318.826 -7.75045 318.878C-8.15738 318.93 -8.45118 318.724 -8.4669 318.41L-32.5182 210.486C-32.57 210.08 -32.3642 209.786 -31.9935 209.641C-31.6792 209.625 -31.2927 209.795 -31.2409 210.202Z" fill="#656565"/>
<path opacity="0.2449" d="M58.2563 519.842L61.3447 601.68C61.3604 601.994 61.0619 602.324 60.7477 602.34C60.4334 602.356 60.1035 602.058 60.0878 601.744L56.9067 519.942C56.8549 519.535 57.1895 519.298 57.5964 519.246C57.8745 519.137 58.2045 519.436 58.2563 519.842Z" fill="#656565"/>
<path opacity="0.155" d="M102.497 628.323L35.1865 687.67C34.8519 687.907 34.5377 687.923 34.2078 687.624C33.9705 687.29 34.0475 686.94 34.2533 686.646L101.564 627.299C101.806 627.098 102.249 627.139 102.45 627.381C102.816 627.771 102.739 628.122 102.497 628.323Z" fill="#656565"/>
<path opacity="0.5" d="M52.3498 352.752L-8.19352 318.838C-8.48733 318.632 -8.63189 318.261 -8.42608 317.968C-8.22027 317.674 -7.84949 317.529 -7.55569 317.735L52.9876 351.649C53.2814 351.855 53.426 352.226 53.2202 352.519C53.1071 352.777 52.7001 352.829 52.3498 352.752Z" fill="#656565"/>
<path opacity="0.3185" d="M101.166 662.145L37.8786 612.436C37.5848 612.23 37.5329 611.823 37.7387 611.53C37.9446 611.236 38.3515 611.184 38.6453 611.39L101.932 661.098C102.226 661.304 102.278 661.711 102.072 662.004C101.774 662.334 101.367 662.386 101.166 662.145Z" fill="#656565"/>
<path opacity="0.3216" d="M-1.65472 114.657L-31.3179 210.552C-31.3948 210.902 -31.7656 211.047 -32.116 210.97C-32.4663 210.893 -32.6109 210.523 -32.5339 210.172L-2.87079 114.277C-2.79382 113.927 -2.42304 113.782 -2.07267 113.859C-1.72231 113.936 -1.48505 114.27 -1.65472 114.657Z" fill="#656565"/>
<path opacity="0.021593" d="M137.731 341.646L90.481 437.358C90.2752 437.651 89.9044 437.796 89.5179 437.627C89.2241 437.421 89.0795 437.05 89.1926 436.793L136.536 341.045C136.742 340.752 137.112 340.607 137.406 340.813C137.757 340.889 137.901 341.26 137.731 341.646Z" fill="#656565"/>
<path opacity="0.1997" d="M61.2882 601.809L35.3924 687.376C35.3154 687.726 34.8519 687.907 34.5943 687.794C34.2439 687.717 33.9705 687.29 34.1763 686.996L60.1649 601.394C60.2418 601.043 60.6126 600.899 60.963 600.976C61.2206 601.089 61.4014 601.552 61.2882 601.809Z" fill="#656565"/>
<path opacity="0.1457" d="M67.3841 349.129L90.4858 436.822C90.6303 437.193 90.3318 437.523 89.961 437.668C89.5902 437.812 89.2603 437.514 89.1519 437.236L66.1429 349.506C65.9983 349.136 66.2968 348.806 66.5749 348.697C66.9818 348.645 67.3683 348.815 67.3841 349.129Z" fill="#656565"/>
<path opacity="0.5" d="M-12.0089 345.196L52.7866 351.407C53.137 351.484 53.3742 351.818 53.3899 352.133C53.3129 352.483 52.9783 352.72 52.6641 352.736L-12.1314 346.525C-12.4818 346.448 -12.719 346.113 -12.7348 345.799C-12.6578 345.449 -12.3231 345.212 -12.0089 345.196Z" fill="#656565"/>
<path opacity="0.2219" d="M126.355 703.446L101.446 628.092C101.301 627.722 101.507 627.428 101.878 627.283C102.249 627.139 102.542 627.344 102.687 627.715L127.597 703.069C127.741 703.439 127.571 703.826 127.165 703.878C126.886 703.986 126.5 703.817 126.355 703.446Z" fill="#656565"/>
<path opacity="0.1351" d="M67.3996 349.443L51.5116 427.262C51.4346 427.613 51.0999 427.85 50.7496 427.773C50.3992 427.696 50.162 427.362 50.2389 427.012L66.1631 349.285C66.24 348.934 66.5747 348.697 66.925 348.774C67.2393 348.758 67.4765 349.092 67.3996 349.443Z" fill="#656565"/>
<path opacity="0.3173" d="M101.738 662.241L34.9447 687.87C34.5739 688.015 34.1873 687.846 34.0428 687.475C33.8982 687.104 34.104 686.811 34.4387 686.573L101.268 661.037C101.639 660.892 101.932 661.098 102.077 661.469C102.221 661.839 102.108 662.097 101.738 662.241Z" fill="#656565"/>
<path opacity="0.2187" d="M-32.4773 210.044L16.9551 105.69C17.1248 105.303 17.5317 105.251 17.7894 105.364C18.0832 105.57 18.2278 105.94 18.1146 106.198L-31.4466 210.496C-31.6524 210.79 -32.0232 210.934 -32.2809 210.821C-32.5025 210.801 -32.647 210.43 -32.4773 210.044Z" fill="#656565"/>
<path opacity="0.1997" d="M175.02 416.975L90.0534 437.632C89.6465 437.684 89.3527 437.478 89.2081 437.107C89.1563 436.701 89.3621 436.407 89.7329 436.262L174.699 415.605C175.106 415.553 175.4 415.759 175.508 416.037C175.504 416.572 175.298 416.866 175.02 416.975Z" fill="#656565"/>
<path opacity="0.3173" d="M137.582 341.812L124.207 352.153C123.873 352.39 123.522 352.313 123.192 352.015C122.955 351.68 123.032 351.33 123.367 351.093L136.742 340.752C137.076 340.515 137.427 340.591 137.628 340.833C137.865 341.168 137.824 341.61 137.582 341.812Z" fill="#656565"/>
<path opacity="0.2803" d="M66.889 348.681L123.866 351.004C124.181 350.988 124.547 351.379 124.562 351.693C124.522 352.136 124.187 352.374 123.873 352.389L66.8954 350.066C66.5811 350.082 66.2512 349.784 66.292 349.341C66.2402 348.934 66.446 348.64 66.889 348.681Z" fill="#656565"/>
<path opacity="0.2137" d="M37.5895 611.694L80.5647 510.499C80.7344 510.113 81.1052 509.968 81.399 510.174C81.6928 510.379 81.8939 510.621 81.7242 511.008L38.8417 612.167C38.6721 612.553 38.3013 612.698 38.0075 612.492C37.6571 612.415 37.5126 612.045 37.5895 611.694Z" fill="#656565"/>
<path opacity="0.2369" d="M137.7 341.018L161.942 382.902C162.18 383.237 162.01 383.623 161.675 383.861C161.341 384.098 160.954 383.928 160.717 383.594L136.567 341.673C136.33 341.339 136.5 340.952 136.778 340.844C137.112 340.607 137.555 340.647 137.7 341.018Z" fill="#656565"/>
<path opacity="0.2344" d="M93.7825 503.316L105.449 525.556C105.593 525.927 105.516 526.277 105.146 526.421C104.775 526.566 104.517 526.453 104.28 526.119L92.6136 503.878C92.4691 503.508 92.546 503.157 92.8806 502.92C93.1949 502.904 93.6741 503.038 93.7825 503.316Z" fill="#656565"/>
<path opacity="0.5" d="M-32.1789 209.714L12.1816 192.836C12.5524 192.691 12.9389 192.861 13.0835 193.231C13.228 193.602 13.0583 193.988 12.6875 194.133L-31.7091 210.918C-32.0799 211.063 -32.4664 210.893 -32.5182 210.487C-32.6266 210.209 -32.457 209.822 -32.1789 209.714Z" fill="#656565"/>
<path opacity="0.169" d="M-24.1788 154.931L48.2665 161.041C48.6169 161.117 48.9468 161.416 48.8699 161.766C48.7929 162.116 48.4944 162.446 48.144 162.369L-24.3374 156.167C-24.6878 156.091 -24.9251 155.756 -24.9408 155.442C-24.8277 155.185 -24.5292 154.855 -24.1788 154.931Z" fill="#656565"/>
<path opacity="0.4361" d="M126.484 703.502L101.001 661.995C100.763 661.661 100.933 661.274 101.175 661.073C101.51 660.836 101.896 661.005 102.005 661.283L127.488 702.79C127.725 703.125 127.556 703.511 127.314 703.712C127.108 704.006 126.629 703.873 126.484 703.502Z" fill="#656565"/>
<path opacity="0.5" d="M-12.7347 345.8L-8.57525 318.133C-8.49828 317.782 -8.16361 317.545 -7.81324 317.622C-7.46287 317.699 -7.22564 318.033 -7.30261 318.383L-11.4621 346.05C-11.5391 346.401 -11.8737 346.638 -12.2241 346.561C-12.4817 346.448 -12.719 346.114 -12.7347 345.8Z" fill="#656565"/>
<path opacity="0.011267" d="M12.9656 194.024L-90.5094 294.27C-90.7514 294.471 -91.1583 294.523 -91.4882 294.225C-91.6893 293.983 -91.7412 293.577 -91.4427 293.247L12.0323 193.001C12.2742 192.8 12.6812 192.748 13.0111 193.046C13.2123 193.288 13.2641 193.694 12.9656 194.024Z" fill="#656565"/>
<path opacity="0.2216" d="M46.3136 451.172L-39.279 444.214C-39.6294 444.137 -39.9593 443.839 -39.8824 443.489C-39.8054 443.138 -39.5996 442.845 -39.1565 442.885L46.5288 449.807C46.8792 449.884 47.2091 450.182 47.1321 450.532C46.9625 450.919 46.6278 451.156 46.3136 451.172Z" fill="#656565"/>
<path opacity="0.2629" d="M53.2814 351.855L90.4494 436.73C90.5939 437.1 90.4242 437.487 90.0535 437.631C89.6827 437.776 89.2962 437.607 89.1877 437.329L52.0198 352.454C51.8752 352.083 52.0449 351.697 52.323 351.588C52.7865 351.408 53.173 351.577 53.2814 351.855Z" fill="#656565"/>
<path opacity="0.5" d="M141.984 707.916L155.058 738.146C155.203 738.517 155.033 738.903 154.755 739.012C154.384 739.157 153.998 738.987 153.889 738.709L140.815 708.479C140.67 708.108 140.84 707.722 141.118 707.613C141.453 707.376 141.839 707.545 141.984 707.916Z" fill="#656565"/>
<path opacity="0.5" d="M57.3388 519.133L80.9558 510.133C81.3266 509.989 81.6204 510.194 81.765 510.565C81.9095 510.935 81.7399 511.322 81.3691 511.466L57.752 520.466C57.3813 520.61 56.9947 520.441 56.8502 520.07C56.7983 519.664 56.968 519.277 57.3388 519.133Z" fill="#656565"/>
<path opacity="0.2044" d="M124.382 351.231L175.38 415.98C175.581 416.222 175.54 416.665 175.205 416.902C174.963 417.103 174.52 417.063 174.319 416.821L123.229 352.107C122.991 351.773 123.068 351.423 123.274 351.129C123.701 350.856 124.144 350.896 124.382 351.231Z" fill="#656565"/>
<path opacity="0.3781" d="M161.978 382.995L175.452 416.165C175.597 416.536 175.427 416.922 175.149 417.031C174.778 417.176 174.391 417.006 174.283 416.728L160.717 383.594C160.572 383.224 160.742 382.837 161.113 382.693C161.447 382.455 161.834 382.625 161.978 382.995Z" fill="#656565"/>
<path opacity="0.4255" d="M90.5013 437.136L81.8169 510.972C81.7399 511.322 81.4053 511.559 81.0911 511.575C80.7407 511.498 80.5034 511.164 80.4877 510.85L89.1721 437.014C89.2491 436.664 89.5838 436.427 89.898 436.411C90.341 436.451 90.5422 436.693 90.5013 437.136Z" fill="#656565"/>
<path opacity="0.5" d="M-2.51568 113.819L17.3825 105.416C17.7533 105.272 18.1398 105.441 18.2482 105.719C18.3928 106.089 18.2231 106.476 17.945 106.584L-1.95318 114.987C-2.32396 115.132 -2.71046 114.962 -2.85502 114.592C-2.96344 114.314 -2.88646 113.963 -2.51568 113.819Z" fill="#656565"/>
<path opacity="0.1462" d="M13.2282 193.602L-7.20981 318.347C-7.28678 318.697 -7.62143 318.935 -7.97179 318.858C-8.32216 318.781 -8.55942 318.447 -8.48245 318.096L11.8629 193.387C11.9399 193.037 12.2745 192.8 12.6249 192.877C12.9752 192.953 13.2125 193.288 13.2282 193.602Z" fill="#656565"/>
<path opacity="0.3101" d="M53.39 352.133L51.6611 427.097C51.7129 427.504 51.3783 427.741 50.9714 427.793C50.6571 427.809 50.3272 427.511 50.2753 427.104L52.097 352.103C52.0813 351.789 52.3798 351.459 52.7867 351.407C53.0444 351.52 53.3743 351.819 53.39 352.133Z" fill="#656565"/>
<path opacity="0.1218" d="M99.4293 758.994L100.892 661.718C100.876 661.403 101.175 661.074 101.582 661.022C101.896 661.006 102.226 661.304 102.278 661.711L100.908 758.951C100.867 759.393 100.532 759.631 100.182 759.554C99.775 759.606 99.445 759.308 99.4293 758.994Z" fill="#656565"/>
<path opacity="0.013026" d="M102.348 628.488L42.7582 650.133C42.3874 650.277 42.0009 650.108 41.8563 649.737C41.7117 649.367 41.8814 648.98 42.2522 648.836L101.878 627.284C102.249 627.139 102.542 627.345 102.687 627.715C102.795 627.993 102.626 628.379 102.348 628.488Z" fill="#656565"/>
<path opacity="0.1656" d="M53.3898 352.133L47.0032 450.476C46.9262 450.826 46.6277 451.156 46.2773 451.079C45.8343 451.039 45.597 450.704 45.674 450.354L52.0606 352.011C52.1376 351.661 52.3434 351.367 52.7865 351.408C53.1368 351.484 53.3741 351.819 53.3898 352.133Z" fill="#656565"/>
<path opacity="0.3021" d="M-87.8688 370.306L-8.22019 317.674C-7.88555 317.437 -7.49903 317.606 -7.29791 317.848C-7.06066 318.182 -7.13764 318.533 -7.47228 318.77L-87.121 371.402C-87.4556 371.639 -87.8421 371.47 -88.0432 371.228C-88.2443 370.986 -88.1108 370.507 -87.8688 370.306Z" fill="#656565"/>
<path opacity="0.4042" d="M-1.57784 114.307L13.2484 193.38C13.3002 193.787 13.0944 194.081 12.6875 194.133C12.2806 194.185 11.9868 193.979 11.9349 193.572L-2.85517 114.591C-2.90703 114.185 -2.70122 113.891 -2.29429 113.839C-2.0162 113.73 -1.7224 113.936 -1.57784 114.307Z" fill="#656565"/>
<path opacity="0.3756" d="M52.6938 351.443L123.83 350.912C124.237 350.86 124.474 351.194 124.526 351.601C124.578 352.008 124.243 352.245 123.836 352.297L52.7567 352.7C52.4425 352.716 52.1125 352.417 52.0607 352.011C52.0811 351.789 52.3796 351.459 52.6938 351.443Z" fill="#656565"/>
<path opacity="0.1068" d="M41.8611 649.201L60.1648 601.394C60.2418 601.043 60.6126 600.899 60.9991 601.068C61.3495 601.145 61.494 601.515 61.3243 601.902L43.1494 649.766C42.9797 650.153 42.609 650.297 42.2224 650.128C41.8359 649.958 41.6914 649.588 41.8611 649.201Z" fill="#656565"/>
<path opacity="0.2936" d="M51.5887 426.912L81.8012 510.657C81.9458 511.028 81.74 511.322 81.3692 511.467C80.9984 511.611 80.7046 511.406 80.56 511.035L50.2548 427.326C50.1103 426.955 50.28 426.569 50.6869 426.517C51.0577 426.372 51.4442 426.541 51.5887 426.912Z" fill="#656565"/>
<path opacity="0.2073" d="M141.274 708.834L34.6304 687.886C34.2801 687.809 34.0428 687.475 34.1198 687.125C34.1968 686.774 34.5314 686.537 34.8818 686.614L141.432 707.598C141.783 707.674 142.02 708.009 141.943 708.359C141.959 708.673 141.624 708.91 141.274 708.834Z" fill="#656565"/>
<path opacity="0.259" d="M-32.2716 209.75L47.8595 161.093C48.1942 160.855 48.5807 161.025 48.8179 161.359C49.0552 161.694 48.8855 162.08 48.5509 162.317L-31.5237 210.846C-31.8583 211.083 -32.2448 210.914 -32.4459 210.672C-32.647 210.43 -32.5135 209.951 -32.2716 209.75Z" fill="#656565"/>
<path opacity="0.3851" d="M46.8947 450.198L81.765 510.565C82.0022 510.9 81.8325 511.286 81.4617 511.431C81.091 511.575 80.7406 511.498 80.596 511.128L45.762 450.853C45.5247 450.519 45.6944 450.132 46.029 449.895C46.271 449.694 46.7502 449.827 46.8947 450.198Z" fill="#656565"/>
<path opacity="0.1844" d="M-29.564 710.047L37.6822 611.658C37.888 611.365 38.2949 611.313 38.5887 611.518C38.8825 611.724 38.9344 612.131 38.7286 612.424L-28.5176 710.812C-28.7234 711.106 -29.1303 711.158 -29.4242 710.953C-29.718 710.747 -29.7698 710.34 -29.564 710.047Z" fill="#656565"/>
<path opacity="0.5" d="M127.287 702.549L141.618 707.526C141.968 707.602 142.149 708.066 142.036 708.323C141.959 708.673 141.588 708.818 141.237 708.741L126.907 703.765C126.557 703.688 126.376 703.224 126.453 702.874C126.566 702.617 126.937 702.472 127.287 702.549Z" fill="#656565"/>
<path opacity="0.1122" d="M101.423 662.257L42.315 650.091C41.9646 650.014 41.7274 649.68 41.7682 649.237C41.8452 648.887 42.1798 648.65 42.6229 648.69L101.638 660.892C101.989 660.969 102.226 661.303 102.149 661.654C102.108 662.097 101.773 662.334 101.423 662.257Z" fill="#656565"/>
<path opacity="0.3916" d="M11.8988 193.48L16.9708 106.003C17.0478 105.653 17.3463 105.323 17.6966 105.4C18.0109 105.384 18.3408 105.682 18.3 106.125L13.228 193.602C13.2438 193.916 12.8525 194.282 12.5022 194.205C12.1518 194.128 11.8219 193.83 11.8988 193.48Z" fill="#656565"/>
<path opacity="0.3534" d="M58.1999 519.971L38.8417 612.166C38.7647 612.517 38.4301 612.754 38.0797 612.677C37.7293 612.6 37.4921 612.266 37.5691 611.916L56.9272 519.72C57.0042 519.37 57.3389 519.133 57.6892 519.21C58.0396 519.286 58.2769 519.621 58.1999 519.971Z" fill="#656565"/>
<path opacity="0.087255" d="M154.126 739.043L34.5016 687.829C34.1151 687.66 33.9705 687.289 34.1402 686.903C34.346 686.609 34.6807 686.372 34.9745 686.578L154.599 737.792C154.986 737.961 155.13 738.332 154.925 738.625C154.884 739.068 154.513 739.213 154.126 739.043Z" fill="#656565"/>
<path opacity="0.5" d="M93.608 504.237L81.5545 511.394C81.2198 511.631 80.8333 511.462 80.6887 511.091C80.4515 510.757 80.6212 510.37 80.8992 510.262L92.9528 503.105C93.2874 502.867 93.6739 503.037 93.9112 503.371C94.0196 503.649 93.8499 504.036 93.608 504.237Z" fill="#656565"/>
<path opacity="0.4809" d="M38.8983 612.038L35.4851 687.34C35.4082 687.69 35.1096 688.02 34.7593 687.943C34.445 687.959 34.1151 687.66 34.1559 687.218L37.5692 611.916C37.6461 611.566 37.9447 611.236 38.295 611.313C38.6454 611.39 38.8465 611.631 38.8983 612.038Z" fill="#656565"/>
<path opacity="0.2513" d="M-11.5862 345.458L51.3876 426.671C51.6249 427.005 51.5479 427.355 51.2494 427.685C50.9147 427.923 50.5644 427.846 50.3271 427.511L-12.6467 346.299C-12.8839 345.965 -12.8069 345.614 -12.4723 345.377C-12.1376 345.14 -11.7873 345.217 -11.5862 345.458Z" fill="#656565"/>
<path opacity="0.5" d="M127.581 702.754L154.893 737.998C155.13 738.332 155.053 738.682 154.719 738.919C154.477 739.121 154.034 739.08 153.833 738.838L126.428 703.631C126.191 703.297 126.268 702.946 126.566 702.617C126.937 702.472 127.38 702.513 127.581 702.754Z" fill="#656565"/>
<path opacity="0.5" d="M-29.2293 709.809L34.5676 686.63C34.9383 686.485 35.3248 686.655 35.4694 687.025C35.6139 687.396 35.4443 687.782 35.0735 687.927L-28.7234 711.106C-29.0941 711.251 -29.4806 711.081 -29.6252 710.711C-29.8059 710.247 -29.6001 709.954 -29.2293 709.809Z" fill="#656565"/>
<path opacity="0.1382" d="M126.556 703.688L37.7859 612.472C37.5848 612.23 37.5329 611.824 37.8314 611.494C38.0734 611.292 38.4803 611.24 38.8102 611.539L127.488 702.791C127.689 703.032 127.741 703.439 127.443 703.769C127.201 703.97 126.758 703.93 126.556 703.688Z" fill="#656565"/>
<path opacity="0.3943" d="M-1.815 113.972L48.653 161.21C48.9468 161.416 48.9421 161.951 48.7002 162.153C48.4944 162.446 48.0513 162.406 47.7575 162.2L-2.71052 114.962C-2.91163 114.72 -2.96349 114.314 -2.75768 114.02C-2.45917 113.69 -2.01611 113.731 -1.815 113.972Z" fill="#656565"/>
<path opacity="0.3981" d="M56.9838 519.591L89.2853 436.756C89.455 436.37 89.8258 436.225 90.2123 436.395C90.5988 436.564 90.7433 436.935 90.5737 437.321L58.2722 520.156C58.1025 520.542 57.7317 520.687 57.3452 520.518C56.9587 520.348 56.778 519.885 56.9838 519.591Z" fill="#656565"/>
<path opacity="0.4075" d="M141.922 708.581L100.645 759.373C100.44 759.666 100.033 759.718 99.7028 759.42C99.409 759.215 99.3571 758.808 99.6556 758.478L140.932 707.686C141.138 707.392 141.545 707.34 141.875 707.638C142.076 707.88 142.128 708.287 141.922 708.581Z" fill="#656565"/>
<path opacity="0.038385" d="M102.004 661.284L152.9 720.843C153.138 721.177 153.097 721.62 152.762 721.858C152.427 722.095 152.077 722.018 151.783 721.813L100.98 662.217C100.743 661.882 100.82 661.532 101.062 661.331C101.36 661.001 101.767 660.949 102.004 661.284Z" fill="#656565"/>
<path opacity="0.3658" d="M56.8707 519.849L50.1825 427.141C50.1307 426.734 50.4292 426.404 50.8722 426.445C51.1865 426.429 51.5164 426.727 51.5321 427.041L58.2203 519.75C58.2722 520.157 57.9737 520.486 57.6233 520.41C57.2525 520.554 56.9226 520.256 56.8707 519.849Z" fill="#656565"/>
<path opacity="0.3707" d="M126.943 703.857L34.6304 687.886C34.28 687.809 34.0428 687.475 34.1197 687.125C34.1967 686.774 34.5313 686.537 34.8817 686.614L127.158 702.492C127.509 702.569 127.746 702.903 127.669 703.253C127.628 703.696 127.293 703.934 126.943 703.857Z" fill="#656565"/>
<path opacity="0.4758" d="M18.212 105.626L48.9107 161.323C49.0552 161.694 48.9783 162.044 48.6436 162.281C48.2728 162.426 47.9225 162.349 47.6852 162.015L17.0792 106.281C16.842 105.947 17.0117 105.561 17.3463 105.323C17.6244 105.215 18.0109 105.384 18.212 105.626Z" fill="#656565"/>
<path opacity="0.5" d="M56.9068 519.942L45.6537 450.575C45.6018 450.168 45.8076 449.874 46.2146 449.822C46.6215 449.77 46.9153 449.976 46.9672 450.383L58.2203 519.749C58.2722 520.156 58.0663 520.45 57.6594 520.502C57.3452 520.518 56.9226 520.256 56.9068 519.942Z" fill="#656565"/>
<path opacity="0.4766" d="M99.8976 758.277L154.249 737.715C154.62 737.571 154.95 737.869 155.058 738.147C155.166 738.425 154.997 738.811 154.719 738.92L100.46 759.445C100.089 759.59 99.7028 759.421 99.5583 759.05C99.3572 758.808 99.5269 758.422 99.8976 758.277Z" fill="#656565"/>
<path opacity="0.5" d="M51.0937 426.465L89.9907 436.375C90.341 436.451 90.5783 436.786 90.5013 437.136C90.4243 437.486 90.0897 437.724 89.7032 437.554L50.8062 427.644C50.4559 427.567 50.2186 427.233 50.3883 426.847C50.5579 426.46 50.7434 426.388 51.0937 426.465Z" fill="#656565"/>
<path opacity="0.5" d="M12.0323 193.001L47.6741 161.165C48.0087 160.928 48.3591 161.005 48.6529 161.21C48.8901 161.545 48.9059 161.859 48.6074 162.189L12.8729 194.061C12.5383 194.298 12.1879 194.221 11.8941 194.016C11.7495 193.645 11.8265 193.295 12.0323 193.001Z" fill="#656565"/>
<path opacity="0.2352" d="M-49.3948 664.413L37.9242 611.457C38.2588 611.22 38.6453 611.389 38.8825 611.724C39.1198 612.058 38.9501 612.445 38.7082 612.646L-48.5746 665.694C-48.9092 665.932 -49.2957 665.762 -49.533 665.428C-49.8064 665.001 -49.7294 664.65 -49.3948 664.413Z" fill="#656565"/>
<path opacity="0.5" d="M46.1219 449.858L89.6765 436.39C90.0473 436.246 90.3772 436.544 90.4857 436.822C90.6302 437.192 90.4244 437.486 90.0536 437.631L46.499 451.099C46.1282 451.244 45.7056 450.981 45.6899 450.667C45.5453 450.297 45.7511 450.003 46.1219 449.858Z" fill="#656565"/>
<path opacity="0.020038" d="M141.016 708.721L42.0935 650.072C41.7997 649.866 41.6551 649.495 41.8248 649.109C42.0306 648.815 42.4014 648.671 42.7879 648.84L141.617 707.526C141.911 707.731 142.056 708.102 141.85 708.396C141.716 708.875 141.31 708.927 141.016 708.721Z" fill="#656565"/>
<path opacity="0.3841" d="M124.413 351.859L90.4448 437.265C90.2751 437.652 89.9043 437.796 89.5178 437.627C89.1674 437.55 88.9867 437.087 89.1926 436.793L123.161 351.386C123.331 351 123.701 350.855 124.088 351.025C124.382 351.23 124.619 351.565 124.413 351.859Z" fill="#656565"/>
<path opacity="0.064968" d="M-28.8224 709.757L100.341 758.318C100.727 758.487 100.872 758.858 100.702 759.244C100.496 759.538 100.254 759.739 99.8679 759.57L-29.2952 711.009C-29.6456 710.932 -29.8263 710.469 -29.7132 710.211C-29.5435 709.825 -29.08 709.644 -28.8224 709.757Z" fill="#656565"/>
<path opacity="0.5" d="M57.2461 519.169L92.9167 503.012C93.2875 502.868 93.674 503.037 93.8186 503.408C93.9631 503.778 93.7934 504.165 93.5154 504.273L57.8448 520.43C57.474 520.574 57.0875 520.405 56.9791 520.127C56.8345 519.756 57.0042 519.37 57.2461 519.169Z" fill="#656565"/>
<path opacity="0.403" d="M161.732 383.732L90.2028 437.466C89.8682 437.704 89.5178 437.627 89.2805 437.292C89.0433 436.958 89.1203 436.608 89.4549 436.37L160.948 382.544C161.282 382.306 161.633 382.383 161.87 382.718C162.143 383.145 162.103 383.587 161.732 383.732Z" fill="#656565"/>
<path opacity="0.5" d="M45.6741 450.354L50.3318 426.976C50.4087 426.625 50.7434 426.388 51.0938 426.465C51.4441 426.542 51.6814 426.876 51.6044 427.226L46.9467 450.605C46.8697 450.955 46.5351 451.192 46.1847 451.115C45.8344 451.039 45.5971 450.704 45.6741 450.354Z" fill="#656565"/>
<path opacity="0.01" d="M-28.425 710.776L-100.706 837.6C-100.912 837.893 -101.282 838.038 -101.669 837.869C-101.963 837.663 -102.107 837.292 -101.937 836.906L-29.564 710.046C-29.3582 709.753 -28.9875 709.608 -28.6937 709.814C-28.3999 710.019 -28.2553 710.39 -28.425 710.776Z" fill="#656565"/>
<path opacity="0.5" d="M92.5413 503.693L89.1722 437.015C89.1203 436.608 89.455 436.371 89.8619 436.319C90.1761 436.303 90.5061 436.601 90.5218 436.915L93.8909 503.594C93.9427 504 93.6442 504.33 93.2012 504.29C92.9231 504.398 92.5931 504.1 92.5413 503.693Z" fill="#656565"/>
<path opacity="0.3451" d="M99.6103 759.456L34.244 687.717C34.0428 687.475 33.991 687.068 34.2895 686.738C34.6241 686.501 34.9384 686.485 35.2683 686.783L100.635 758.523C100.872 758.858 100.831 759.3 100.589 759.502C100.254 759.739 99.8114 759.698 99.6103 759.456Z" fill="#656565"/>
<path opacity="0.2981" d="M50.4087 426.626L123.274 351.129C123.48 350.835 123.923 350.876 124.217 351.082C124.51 351.287 124.47 351.73 124.264 352.024L51.3624 427.428C51.0639 427.758 50.7135 427.681 50.4197 427.475C50.162 427.362 50.2029 426.919 50.4087 426.626Z" fill="#656565"/>
<path opacity="0.5" d="M41.7841 649.551L37.6052 612.008C37.5534 611.602 37.8519 611.272 38.1661 611.256C38.4803 611.24 38.903 611.502 38.9187 611.816L43.1902 649.323C43.2421 649.73 42.9436 650.06 42.5367 650.112C42.1659 650.256 41.8359 649.958 41.7841 649.551Z" fill="#656565"/>
<path opacity="0.2996" d="M38.6359 612.46L-26.992 663.252C-27.3267 663.489 -27.7697 663.449 -28.007 663.114C-28.2442 662.78 -28.1673 662.43 -27.8326 662.192L37.8314 611.493C38.1661 611.256 38.5164 611.333 38.7175 611.575C38.9548 611.909 38.8778 612.259 38.6359 612.46Z" fill="#656565"/>
<path opacity="0.3655" d="M-48.8952 664.325L34.9744 686.578C35.3247 686.654 35.562 686.989 35.3923 687.375C35.3154 687.726 34.9807 687.963 34.5942 687.793L-49.2754 665.54C-49.6257 665.463 -49.8991 665.036 -49.7294 664.65C-49.5802 664.485 -49.2455 664.248 -48.8952 664.325Z" fill="#656565"/>
<path opacity="0.1026" d="M44.7711 460.632L81.6928 510.379C81.9301 510.714 81.8531 511.064 81.5185 511.301C81.1838 511.539 80.8334 511.462 80.5962 511.127L43.6744 461.381C43.4372 461.046 43.478 460.603 43.8127 460.366C44.1834 460.221 44.5338 460.298 44.7711 460.632Z" fill="#656565"/>
<path opacity="0.1573" d="M45.7872 450.096L123.31 351.221C123.516 350.927 123.923 350.875 124.217 351.081C124.511 351.286 124.562 351.693 124.357 351.987L46.8337 450.862C46.6279 451.155 46.2209 451.207 45.9271 451.002C45.6333 450.796 45.5814 450.39 45.7872 450.096Z" fill="#656565"/>
<path opacity="0.366" d="M141.911 707.731L152.993 720.807C153.23 721.141 153.189 721.584 152.947 721.785C152.613 722.023 152.17 721.982 151.969 721.74L140.98 708.629C140.742 708.294 140.819 707.944 141.061 707.743C141.267 707.449 141.618 707.526 141.911 707.731Z" fill="#656565"/>
<path opacity="0.2774" d="M-29.4148 709.881L42.0668 648.907C42.4014 648.67 42.8445 648.711 43.0456 648.953C43.2829 649.287 43.242 649.73 43.0001 649.931L-28.5177 710.812C-28.8523 711.049 -29.2027 710.973 -29.4965 710.767C-29.7903 710.561 -29.7495 710.119 -29.4148 709.881Z" fill="#656565"/>
<path opacity="0.5" d="M127.648 703.475L100.702 759.244C100.532 759.631 100.125 759.683 99.7751 759.606C99.3886 759.436 99.3367 759.03 99.4137 758.679L126.36 702.91C126.53 702.524 126.937 702.472 127.287 702.549C127.674 702.718 127.854 703.182 127.648 703.475Z" fill="#656565"/>
<path opacity="0.4049" d="M51.5164 426.727L93.7825 503.315C94.0197 503.65 93.85 504.036 93.5154 504.273C93.1808 504.511 92.7943 504.341 92.557 504.007L50.2909 427.418C50.0537 427.084 50.2234 426.698 50.558 426.46C50.9288 426.316 51.3153 426.485 51.5164 426.727Z" fill="#656565"/>
<path opacity="0.5" d="M160.882 383.743L123.357 352.164C123.064 351.958 123.012 351.551 123.31 351.221C123.516 350.928 123.923 350.876 124.253 351.174L161.777 382.754C162.071 382.959 162.03 383.402 161.825 383.696C161.619 383.99 161.176 383.949 160.882 383.743Z" fill="#656565"/>
<path opacity="0.5" d="M46.8226 450.012L93.7463 503.222C93.9836 503.557 93.9428 504 93.7008 504.201C93.3662 504.438 92.9231 504.397 92.722 504.156L45.7983 450.945C45.5611 450.611 45.5453 450.297 45.8438 449.967C46.1785 449.73 46.6215 449.77 46.8226 450.012Z" fill="#656565"/>
<path opacity="0.065253" d="M58.2564 519.843L43.1698 649.545C43.0928 649.895 42.7943 650.225 42.4439 650.149C42.0936 650.072 41.7636 649.774 41.8406 649.423L56.9272 519.721C57.0042 519.371 57.3389 519.133 57.6531 519.118C58.0034 519.194 58.2407 519.529 58.2564 519.843Z" fill="#656565"/>
<path opacity="0.5" d="M43.1133 649.674L35.4285 687.468C35.3516 687.818 35.0169 688.056 34.6666 687.979C34.3162 687.902 34.0789 687.568 34.1559 687.217L41.8407 649.423C41.9177 649.073 42.2523 648.835 42.6954 648.876C43.0096 648.86 43.1903 649.323 43.1133 649.674Z" fill="#656565"/>
<path opacity="0.4355" d="M-27.1476 662.032L34.9744 686.578C35.3609 686.747 35.5055 687.118 35.3358 687.504C35.1661 687.891 34.7953 688.035 34.5015 687.83L-27.7132 663.32C-28.0997 663.15 -28.2442 662.78 -28.0746 662.393C-27.8687 662.1 -27.498 661.955 -27.1476 662.032Z" fill="#656565"/>
<path opacity="0.4094" d="M153.817 738.524L151.731 721.406C151.679 720.999 151.978 720.669 152.385 720.617C152.792 720.565 153.122 720.863 153.174 721.27L155.166 738.425C155.218 738.832 154.92 739.162 154.606 739.177C154.162 739.137 153.832 738.839 153.817 738.524Z" fill="#656565"/>
<path opacity="0.054862" d="M-1.86045 114.951L-58.5912 160.35C-58.9258 160.588 -59.3689 160.547 -59.6061 160.213C-59.8434 159.878 -59.8025 159.435 -59.4679 159.198L-2.70105 113.891C-2.36641 113.654 -2.01604 113.73 -1.81492 113.972C-1.48498 114.27 -1.52581 114.713 -1.86045 114.951Z" fill="#656565"/>
<path opacity="0.2576" d="M126.685 703.744L42.0935 650.071C41.7997 649.866 41.7479 649.459 41.9175 649.073C42.1234 648.779 42.5303 648.727 42.7879 648.84L127.287 702.549C127.581 702.754 127.633 703.161 127.427 703.455C127.386 703.898 126.979 703.95 126.685 703.744Z" fill="#656565"/>
<path opacity="0.1406" d="M142.036 708.323L129.745 763.605C129.668 763.955 129.241 764.229 128.89 764.152C128.54 764.075 128.266 763.648 128.343 763.298L140.727 707.98C140.804 707.629 141.138 707.392 141.489 707.469C141.875 707.638 142.113 707.973 142.036 708.323Z" fill="#656565"/>
<path opacity="0.1264" d="M152.17 721.982L34.5376 687.922C34.1873 687.846 34.0427 687.475 34.1197 687.125C34.1967 686.775 34.5674 686.63 34.9178 686.707L152.514 720.673C152.864 720.75 153.138 721.177 152.968 721.564C152.947 721.785 152.52 722.059 152.17 721.982Z" fill="#656565"/>
<path opacity="0.040467" d="M17.945 106.584L-58.5911 160.35C-58.9258 160.587 -59.3688 160.547 -59.6061 160.212C-59.8433 159.878 -59.8025 159.435 -59.4317 159.291L17.2333 105.581C17.5679 105.344 17.9183 105.42 18.1555 105.755C18.3205 105.904 18.2797 106.347 17.945 106.584Z" fill="#656565"/>
<path opacity="0.345" d="M56.9068 519.942L43.5659 461.103C43.514 460.696 43.7199 460.402 44.0906 460.258C44.4976 460.206 44.7914 460.411 44.9359 460.782L58.2768 519.621C58.3286 520.028 58.1228 520.322 57.7521 520.466C57.3451 520.518 57.0513 520.313 56.9068 519.942Z" fill="#656565"/>
<path opacity="0.2347" d="M128.549 763.004L154.007 737.916C154.249 737.715 154.656 737.663 154.986 737.962C155.187 738.203 155.239 738.61 154.94 738.94L129.575 763.992C129.276 764.322 128.833 764.281 128.596 763.947C128.174 763.685 128.214 763.242 128.549 763.004Z" fill="#656565"/>
<path opacity="0.2309" d="M12.2446 194.092L-59.3124 160.418C-59.6989 160.249 -59.8435 159.878 -59.6738 159.492C-59.5041 159.105 -59.1333 158.961 -58.7468 159.13L12.7536 192.933C13.0474 193.139 13.1919 193.509 12.9861 193.803C12.9091 194.153 12.5384 194.298 12.2446 194.092Z" fill="#656565"/>
<path opacity="0.1562" d="M99.5379 759.272L41.8924 649.83C41.7479 649.459 41.8249 649.109 42.1595 648.871C42.5303 648.727 42.8807 648.804 43.1179 649.138L100.763 758.58C101.001 758.914 100.831 759.301 100.496 759.538C100.162 759.775 99.6824 759.642 99.5379 759.272Z" fill="#656565"/>
<path opacity="0.5" d="M127.452 702.698L152.828 720.658C153.122 720.863 153.21 721.363 153.004 721.656C152.798 721.95 152.298 722.038 152.005 721.833L126.685 703.744C126.391 703.539 126.34 703.132 126.545 702.838C126.751 702.544 127.122 702.4 127.452 702.698Z" fill="#656565"/>
<path opacity="0.096312" d="M191.161 504.074L89.4816 437.534C89.1878 437.328 89.1359 436.922 89.3418 436.628C89.5476 436.334 89.9545 436.282 90.2483 436.488L191.985 502.899C192.279 503.105 192.366 503.604 192.161 503.898C191.955 504.191 191.455 504.28 191.161 504.074Z" fill="#656565"/>
<path opacity="0.3712" d="M43.9054 460.33L89.5477 436.334C89.9185 436.189 90.2689 436.266 90.4134 436.637C90.558 437.007 90.481 437.358 90.1102 437.502L44.4679 461.498C44.0971 461.643 43.7468 461.566 43.5095 461.232C43.4011 460.954 43.5708 460.567 43.9054 460.33Z" fill="#656565"/>
<path opacity="0.3808" d="M-49.2094 664.341L42.3449 648.799C42.7519 648.747 43.0818 649.045 43.0975 649.359C43.1494 649.766 42.9436 650.06 42.5366 650.112L-49.0177 665.653C-49.4246 665.705 -49.7546 665.407 -49.7703 665.093C-49.786 664.779 -49.5237 664.356 -49.2094 664.341Z" fill="#656565"/>
<path opacity="0.4435" d="M95.3175 406.224L90.5014 437.136C90.4245 437.486 90.0898 437.724 89.7394 437.647C89.3891 437.57 89.1518 437.236 89.2288 436.885L93.9522 406.01C94.0292 405.66 94.3638 405.422 94.8069 405.463C95.0646 405.576 95.3018 405.91 95.3175 406.224Z" fill="#656565"/>
<path opacity="0.5" d="M51.6045 427.226L44.9518 461.096C44.8748 461.446 44.5402 461.683 44.0971 461.643C43.6541 461.602 43.5095 461.231 43.5503 460.788L50.2957 426.883C50.3727 426.532 50.7074 426.295 51.0577 426.372C51.4442 426.541 51.6815 426.876 51.6045 427.226Z" fill="#656565"/>
<path opacity="0.5" d="M46.9469 450.604L44.8592 461.132C44.7822 461.482 44.4476 461.72 44.0045 461.679C43.6541 461.602 43.4169 461.268 43.4577 460.825L45.5454 450.297C45.6224 449.947 45.957 449.71 46.3074 449.786C46.7866 449.92 47.0238 450.254 46.9469 450.604Z" fill="#656565"/>
<path opacity="0.072261" d="M128.54 764.076L34.2799 687.81C33.9861 687.604 33.9343 687.197 34.2328 686.867C34.4386 686.574 34.8455 686.522 35.1393 686.727L129.399 762.993C129.693 763.199 129.781 763.698 129.482 764.028C129.333 764.193 128.833 764.281 128.54 764.076Z" fill="#656565"/>
<path opacity="0.5" d="M42.5728 650.204L-27.234 663.453C-27.6409 663.505 -27.9347 663.3 -27.9865 662.893C-28.0384 662.486 -27.8326 662.192 -27.4618 662.048L42.3449 648.799C42.7519 648.747 43.0457 648.953 43.0975 649.359C43.2421 649.73 42.9436 650.06 42.5728 650.204Z" fill="#656565"/>
<path opacity="0.4697" d="M50.6868 426.517L94.3071 405.551C94.6779 405.407 95.0644 405.576 95.2655 405.818C95.4101 406.188 95.2404 406.575 94.9984 406.776L51.342 427.649C50.9712 427.793 50.5847 427.624 50.4763 427.346C50.1463 427.048 50.316 426.661 50.6868 426.517Z" fill="#656565"/>
<path opacity="0.5" d="M99.7483 758.442L152.014 720.762C152.349 720.525 152.792 720.565 153.029 720.9C153.266 721.234 153.226 721.677 152.891 721.914L100.625 759.595C100.29 759.832 99.9401 759.755 99.7028 759.421C99.3367 759.03 99.4137 758.68 99.7483 758.442Z" fill="#656565"/>
<path opacity="0.09903" d="M162.015 383.088L192.258 503.326C192.31 503.733 192.14 504.12 191.733 504.172C191.326 504.224 191.033 504.018 190.888 503.647L160.644 383.409C160.5 383.039 160.798 382.709 161.169 382.564C161.576 382.512 161.87 382.718 162.015 383.088Z" fill="#656565"/>
<path opacity="0.4174" d="M45.8439 449.967L94.1219 405.624C94.4566 405.386 94.8635 405.334 95.1008 405.669C95.338 406.003 95.3899 406.41 95.0552 406.647L46.7772 450.991C46.4425 451.228 46.1283 451.244 45.7984 450.946C45.5973 450.704 45.6381 450.261 45.8439 449.967Z" fill="#656565"/>
<path opacity="0.3632" d="M127.762 703.218L129.801 763.477C129.853 763.884 129.555 764.214 129.112 764.173C128.705 764.225 128.375 763.927 128.416 763.484L126.376 703.225C126.324 702.818 126.659 702.581 127.066 702.529C127.38 702.513 127.71 702.811 127.762 703.218Z" fill="#656565"/>
<path opacity="0.3639" d="M93.9726 405.789L123.218 351.258C123.423 350.964 123.794 350.819 124.181 350.989C124.474 351.194 124.619 351.565 124.449 351.951L95.2044 406.482C94.9986 406.776 94.6278 406.921 94.2413 406.751C93.9475 406.546 93.8029 406.175 93.9726 405.789Z" fill="#656565"/>
<path opacity="0.3194" d="M191.548 504.243L93.2373 504.382C92.8304 504.434 92.5932 504.099 92.5413 503.693C92.4895 503.286 92.8241 503.049 93.231 502.997L191.506 502.766C191.913 502.714 192.186 503.141 192.202 503.455C192.254 503.862 191.955 504.191 191.548 504.243Z" fill="#656565"/>
<path opacity="0.173" d="M48.2366 162.333L-58.9982 160.402C-59.4051 160.454 -59.6785 160.027 -59.6942 159.713C-59.7461 159.307 -59.3187 159.033 -59.0045 159.017L48.2303 160.948C48.6372 160.896 48.8745 161.231 48.9264 161.637C48.8855 162.08 48.587 162.41 48.2366 162.333Z" fill="#656565"/>
<path opacity="0.4515" d="M44.6987 460.447L93.7101 503.13C94.0039 503.335 93.9631 503.778 93.7572 504.072C93.5514 504.366 93.0157 504.361 92.8145 504.12L43.8031 461.437C43.4732 461.139 43.514 460.696 43.756 460.495C43.9979 460.294 44.4049 460.242 44.6987 460.447Z" fill="#656565"/>
<path opacity="0.3368" d="M161.583 383.897L94.8132 406.848C94.4424 406.993 94.0197 406.731 93.8752 406.36C93.7306 405.99 93.993 405.567 94.2711 405.459L160.948 382.544C161.319 382.399 161.705 382.568 161.85 382.939C162.123 383.366 161.953 383.752 161.583 383.897Z" fill="#656565"/>
<path opacity="0.2783" d="M95.2815 406.132L93.9271 503.686C93.979 504.093 93.5517 504.366 93.2374 504.382C92.9232 504.398 92.5933 504.1 92.5414 503.693L93.8957 406.139C93.8439 405.732 94.2712 405.459 94.5854 405.443C95.0285 405.483 95.2657 405.818 95.2815 406.132Z" fill="#656565"/>
<path opacity="0.01" d="M155.13 738.332L165.076 790.384C165.128 790.79 164.922 791.084 164.551 791.229C164.144 791.281 163.758 791.111 163.706 790.705L153.853 738.617C153.801 738.21 154.007 737.916 154.414 737.864C154.656 737.663 154.986 737.962 155.13 738.332Z" fill="#656565"/>
<path opacity="0.1456" d="M42.8243 648.932L152.735 720.694C153.029 720.899 153.117 721.399 152.911 721.692C152.706 721.986 152.299 722.038 151.912 721.869L42.0011 650.107C41.7072 649.902 41.6554 649.495 41.8251 649.109C42.1236 648.779 42.5305 648.727 42.8243 648.932Z" fill="#656565"/>
<path opacity="0.2297" d="M182.407 556.375L92.8508 504.212C92.557 504.007 92.4124 503.636 92.5821 503.25C92.7879 502.956 93.1587 502.811 93.5452 502.981L183.102 555.144C183.395 555.35 183.576 555.813 183.37 556.106C183.201 556.493 182.794 556.545 182.407 556.375Z" fill="#656565"/>
<path opacity="0.059581" d="M128.468 763.89L41.9288 649.922C41.6915 649.587 41.7323 649.145 42.067 648.907C42.4016 648.67 42.752 648.747 43.0819 649.045L129.621 763.013C129.858 763.347 129.817 763.79 129.482 764.028C129.148 764.265 128.705 764.224 128.468 763.89Z" fill="#656565"/>
<path opacity="0.01" d="M191.419 504.187L44.0971 461.643C43.7467 461.566 43.4733 461.139 43.643 460.752C43.72 460.402 44.1473 460.129 44.5338 460.298L191.82 502.75C192.17 502.826 192.444 503.253 192.274 503.64C192.104 504.026 191.77 504.264 191.419 504.187Z" fill="#656565"/>
<path opacity="0.5" d="M128.4 763.169L151.772 720.963C151.978 720.669 152.349 720.524 152.735 720.694C153.029 720.899 153.174 721.27 153.004 721.656L129.632 763.863C129.462 764.249 129.055 764.301 128.669 764.132C128.375 763.926 128.194 763.463 128.4 763.169Z" fill="#656565"/>
<path opacity="0.1033" d="M191.033 504.018L94.1123 406.695C93.7824 406.396 93.8232 405.953 94.1579 405.716C94.4925 405.479 94.8994 405.427 95.1367 405.761L192.057 503.084C192.387 503.383 192.346 503.825 192.011 504.063C191.77 504.264 191.326 504.223 191.033 504.018Z" fill="#656565"/>
<path opacity="0.5" d="M95.1478 406.611L44.7821 461.482C44.4836 461.812 44.0405 461.772 43.8394 461.53C43.5094 461.232 43.5503 460.789 43.7922 460.588L94.158 405.716C94.4565 405.386 94.8995 405.427 95.1006 405.669C95.3017 405.91 95.3536 406.317 95.1478 406.611Z" fill="#656565"/>
<path opacity="0.5" d="M192.274 503.64L183.52 555.941C183.443 556.292 183.108 556.529 182.665 556.488C182.315 556.412 182.077 556.077 182.118 555.634L190.872 503.333C190.949 502.983 191.284 502.745 191.727 502.786C192.077 502.863 192.315 503.197 192.274 503.64Z" fill="#656565"/>
<path opacity="0.4292" d="M153.138 721.177L165.112 790.476C165.164 790.883 164.865 791.213 164.495 791.357C164.088 791.409 163.758 791.111 163.613 790.74L151.675 721.534C151.623 721.127 151.829 720.834 152.236 720.782C152.663 720.508 152.993 720.806 153.138 721.177Z" fill="#656565"/>
<path opacity="0.3679" d="M191.892 502.935L271.66 548.349C272.047 548.519 272.135 549.018 271.929 549.312C271.723 549.606 271.26 549.786 270.966 549.581L191.198 504.166C190.904 503.961 190.759 503.59 190.929 503.204C191.191 502.781 191.598 502.729 191.892 502.935Z" fill="#656565"/>
<path opacity="0.4346" d="M182.751 555.067L271.274 548.18C271.681 548.128 272.01 548.426 272.062 548.833C272.114 549.239 271.816 549.569 271.409 549.621L182.886 556.509C182.48 556.561 182.15 556.262 182.098 555.856C182.046 555.449 182.344 555.119 182.751 555.067Z" fill="#656565"/>
<path opacity="0.2035" d="M152.005 721.832L109.654 690.748C109.324 690.45 109.272 690.043 109.478 689.749C109.776 689.419 110.183 689.367 110.477 689.573L152.828 720.657C153.122 720.863 153.21 721.362 153.004 721.656C152.705 721.986 152.299 722.038 152.005 721.832Z" fill="#656565"/>
<path opacity="0.2526" d="M-11.7205 78.4499L-58.3853 160.057C-58.5911 160.35 -58.9619 160.495 -59.3484 160.326C-59.6422 160.12 -59.7868 159.749 -59.6171 159.363L-13.0811 77.6998C-12.9114 77.3134 -12.4118 77.2252 -12.0253 77.3947C-11.6954 77.6929 -11.5147 78.1561 -11.7205 78.4499Z" fill="#656565"/>
<path opacity="0.2536" d="M128.359 763.612L109.344 690.228C109.2 689.858 109.462 689.435 109.869 689.383C110.276 689.331 110.662 689.501 110.714 689.907L129.6 763.235C129.652 763.641 129.482 764.028 129.075 764.08C128.833 764.281 128.411 764.019 128.359 763.612Z" fill="#656565"/>
<path opacity="0.5" d="M-30.024 235.771L31.2296 275.066C31.5234 275.272 31.7041 275.735 31.4056 276.065C31.1998 276.358 30.7364 276.539 30.4064 276.241L-30.8472 236.946C-31.141 236.741 -31.3217 236.278 -31.0232 235.948C-30.7247 235.618 -30.4466 235.509 -30.024 235.771Z" fill="#656565"/>
<path opacity="0.4849" d="M-48.9201 283.704L30.7143 274.84C31.1212 274.788 31.4512 275.086 31.503 275.493C31.5549 275.9 31.2564 276.23 30.8495 276.282L-48.7849 285.145C-49.1918 285.197 -49.5218 284.899 -49.5736 284.492C-49.5894 284.178 -49.327 283.756 -48.9201 283.704Z" fill="#656565"/>
<path opacity="0.1458" d="M22.1045 424.431L44.8636 460.596C45.1008 460.931 44.9312 461.317 44.5965 461.555C44.2619 461.792 43.8754 461.622 43.6742 461.381L20.8225 425.251C20.5852 424.917 20.7187 424.438 21.0534 424.201C21.388 423.963 21.8672 424.097 22.1045 424.431Z" fill="#656565"/>
<path opacity="0.052568" d="M21.239 424.128L94.3999 405.515C94.8068 405.463 95.1933 405.633 95.2452 406.039C95.2971 406.446 95.1274 406.832 94.7205 406.884L21.5956 425.59C21.2249 425.735 20.8022 425.473 20.6577 425.102C20.5697 424.603 20.832 424.18 21.239 424.128Z" fill="#656565"/>
<path opacity="0.056812" d="M21.3741 425.57L-78.4563 413.599C-78.8067 413.522 -79.1366 413.224 -79.0958 412.781C-79.0188 412.431 -78.7203 412.101 -78.3699 412.178L21.5532 424.113C21.9962 424.153 22.2696 424.58 22.1927 424.93C22.1157 425.281 21.7245 425.647 21.3741 425.57Z" fill="#656565"/>
<path opacity="0.027431" d="M-11.6074 78.1924L-29.6782 236.384C-29.7191 236.827 -30.0537 237.064 -30.4968 237.024C-30.9399 236.983 -31.1771 236.649 -31.1363 236.206L-13.1016 77.9213C-13.0608 77.4784 -12.7261 77.2412 -12.2831 77.2818C-11.8965 77.4513 -11.5666 77.7495 -11.6074 78.1924Z" fill="#656565"/>
<path opacity="0.5" d="M-47.6349 280.427L30.7144 274.84C31.1213 274.788 31.4513 275.086 31.5031 275.493C31.555 275.9 31.2565 276.23 30.8496 276.282L-47.407 281.832C-47.8139 281.884 -48.1439 281.586 -48.1957 281.18C-48.2476 280.773 -47.9491 280.443 -47.6349 280.427Z" fill="#656565"/>
<path opacity="0.207" d="M163.649 790.834L109.324 690.45C109.179 690.079 109.22 689.637 109.684 689.456C110.054 689.311 110.497 689.352 110.642 689.722L164.875 790.142C165.019 790.513 164.978 790.955 164.608 791.1C164.273 791.337 163.886 791.168 163.649 790.834Z" fill="#656565"/>
<path opacity="0.4941" d="M-46.0378 256.322L30.9359 274.86C31.2863 274.937 31.5597 275.364 31.4827 275.715C31.4057 276.065 30.9784 276.338 30.628 276.261L-46.3457 257.723C-46.6961 257.646 -46.9695 257.219 -46.8925 256.868C-46.8155 256.518 -46.4809 256.281 -46.0378 256.322Z" fill="#656565"/>
<path opacity="0.2148" d="M-48.5545 71.3641L55.4344 121.099C55.8209 121.269 55.9089 121.768 55.7392 122.155C55.5696 122.541 55.1061 122.722 54.7196 122.552L-49.2693 72.8171C-49.6558 72.6477 -49.8365 72.1844 -49.6307 71.8907C-49.4045 71.3755 -48.941 71.1947 -48.5545 71.3641Z" fill="#656565"/>
<path opacity="0.061086" d="M55.7595 121.933L31.4826 275.714C31.4056 276.064 31.0144 276.43 30.6279 276.261C30.2775 276.184 29.9476 275.886 29.9884 275.443L54.2654 121.662C54.3062 121.219 54.7335 120.945 55.0839 121.022C55.5631 121.155 55.8365 121.582 55.7595 121.933Z" fill="#656565"/>
<path opacity="0.1452" d="M21.4668 425.534L-102.243 429.283C-102.65 429.335 -103.016 428.944 -102.939 428.594C-102.991 428.187 -102.6 427.821 -102.249 427.898L21.4605 424.149C21.8674 424.097 22.2335 424.488 22.1927 424.931C22.2084 425.245 21.9099 425.575 21.4668 425.534Z" fill="#656565"/>
<path opacity="0.099979" d="M19.2133 313.803L-31.1048 236.833C-31.3421 236.499 -31.2086 236.02 -30.8739 235.782C-30.5393 235.545 -30.0601 235.678 -29.8228 236.013L20.588 312.946C20.8253 313.281 20.6917 313.76 20.3571 313.997C19.8936 314.178 19.4506 314.137 19.2133 313.803Z" fill="#656565"/>
<path opacity="0.3784" d="M-58.6317 167.091L-13.0449 77.7924C-12.8752 77.406 -12.3756 77.3178 -11.9891 77.4873C-11.6026 77.6567 -11.5146 78.1561 -11.6843 78.5425L-57.2711 167.841C-57.4407 168.227 -57.9404 168.315 -58.3269 168.146C-58.7495 167.884 -58.8375 167.385 -58.6317 167.091Z" fill="#656565"/>
<path opacity="0.3542" d="M75.2742 789.337L109.421 689.878C109.591 689.492 109.926 689.255 110.405 689.388C110.791 689.557 110.936 689.928 110.859 690.278L76.8045 789.701C76.6348 790.087 76.3002 790.325 75.821 790.191C75.3779 790.151 75.1407 789.816 75.2742 789.337Z" fill="#656565"/>
<path opacity="0.4259" d="M-60.5577 416.224L21.5172 424.02C21.9603 424.061 22.1975 424.395 22.1567 424.838C22.1159 425.281 21.7812 425.518 21.3382 425.477L-60.7729 417.588C-61.2159 417.548 -61.4532 417.213 -61.4124 416.77C-61.3715 416.328 -61.0007 416.183 -60.5577 416.224Z" fill="#656565"/>
<path opacity="0.4934" d="M-11.9892 77.4875L55.4706 121.192C55.7644 121.398 55.9451 121.861 55.6466 122.191C55.4408 122.485 54.9773 122.666 54.6473 122.367L-12.8124 78.6625C-13.1062 78.4569 -13.2869 77.9937 -12.9884 77.6638C-12.7826 77.37 -12.283 77.2819 -11.9892 77.4875Z" fill="#656565"/>
<path opacity="0.2612" d="M-58.2407 166.724L54.8058 121.131C55.1766 120.986 55.6558 121.119 55.8004 121.49C55.9449 121.861 55.8114 122.34 55.4406 122.484L-57.6059 168.078C-57.9767 168.222 -58.3632 168.053 -58.6005 167.719C-58.8739 167.292 -58.7042 166.905 -58.2407 166.724Z" fill="#656565"/>
<path opacity="0.1899" d="M163.597 790.426L169.842 737.716C169.883 737.273 170.311 737 170.754 737.04C171.197 737.081 171.434 737.415 171.393 737.858L165.019 790.512C164.978 790.955 164.644 791.192 164.201 791.151C163.886 791.167 163.556 790.869 163.597 790.426Z" fill="#656565"/>
<path opacity="0.3271" d="M19.5071 314.009L-47.8502 281.792C-48.2367 281.623 -48.4174 281.159 -48.2116 280.866C-48.0419 280.479 -47.5784 280.298 -47.2846 280.504L20.1654 312.685C20.5519 312.854 20.7326 313.317 20.5629 313.704C20.3932 314.09 19.9297 314.271 19.5071 314.009Z" fill="#656565"/>
<path opacity="0.4312" d="M19.1457 313.083L30.0812 275.407C30.2509 275.021 30.5855 274.784 30.972 274.953C31.3586 275.123 31.5958 275.457 31.4261 275.843L20.5268 313.611C20.3571 313.998 20.0225 314.235 19.5433 314.102C19.2495 313.896 19.0122 313.562 19.1457 313.083Z" fill="#656565"/>
<path opacity="0.1371" d="M-61.2068 416.477L19.2588 312.825C19.5573 312.495 19.9642 312.443 20.3869 312.705C20.7168 313.003 20.7687 313.41 20.5063 313.833L-60.0881 417.428C-60.3866 417.758 -60.7936 417.81 -61.1235 417.512C-61.4173 417.306 -61.5053 416.807 -61.2068 416.477Z" fill="#656565"/>
<path opacity="0.342" d="M19.3783 313.952L-46.6961 257.646C-47.026 257.347 -46.9852 256.904 -46.7794 256.611C-46.5736 256.317 -46.074 256.229 -45.744 256.527L20.4231 312.798C20.753 313.096 20.8049 313.503 20.5064 313.832C20.2079 314.162 19.6721 314.158 19.3783 313.952Z" fill="#656565"/>
<path opacity="0.2381" d="M-104.725 423.74L21.4606 424.149C21.9036 424.189 22.2336 424.488 22.1927 424.93C22.1519 425.373 21.8534 425.703 21.4103 425.663L-104.776 425.254C-105.219 425.213 -105.549 424.915 -105.508 424.472C-105.467 424.029 -105.168 423.699 -104.725 423.74Z" fill="#656565"/>
<path opacity="0.4096" d="M170.132 738.457L109.654 690.748C109.324 690.45 109.272 690.043 109.571 689.713C109.869 689.383 110.276 689.331 110.606 689.63L171.176 737.303C171.506 737.601 171.594 738.1 171.296 738.43C170.961 738.668 170.425 738.663 170.132 738.457Z" fill="#656565"/>
<path opacity="0.09038" d="M133.523 275.829L30.7567 276.318C30.3137 276.278 29.9837 275.979 30.0246 275.536C29.9727 275.13 30.4 274.856 30.7143 274.84L133.445 274.259C133.888 274.299 134.218 274.598 134.177 275.041C134.265 275.54 133.966 275.87 133.523 275.829Z" fill="#656565"/>
<path opacity="0.3314" d="M20.678 424.881L19.0687 313.433C19.1095 312.99 19.4081 312.66 19.8511 312.701C20.2942 312.741 20.6241 313.04 20.5833 313.482L22.1926 424.931C22.2445 425.337 21.8533 425.703 21.4102 425.663C21.0598 425.586 20.6938 425.195 20.678 424.881Z" fill="#656565"/>
<path opacity="0.283" d="M75.6654 788.971L170.254 737.129C170.589 736.891 171.068 737.025 171.341 737.452C171.579 737.786 171.445 738.265 171.018 738.539L76.3929 790.288C76.0221 790.433 75.5429 790.3 75.3983 789.929C75.1611 789.595 75.2946 789.116 75.6654 788.971Z" fill="#656565"/>
<path opacity="0.028443" d="M39.7751 613.19L110.606 689.629C110.936 689.928 110.895 690.37 110.597 690.7C110.262 690.938 109.855 690.99 109.525 690.691L38.6376 614.381C38.4003 614.047 38.405 613.511 38.7397 613.274C39.0021 612.851 39.5378 612.856 39.7751 613.19Z" fill="#656565"/>
<path opacity="0.1481" d="M-73.0725 499.132L20.9608 424.237C21.2954 424 21.7385 424.041 21.9757 424.375C22.213 424.709 22.1721 425.152 21.8736 425.482L-72.1235 500.47C-72.4581 500.707 -72.9939 500.702 -73.2311 500.368C-73.5045 499.941 -73.4072 499.369 -73.0725 499.132Z" fill="#656565"/>
<path opacity="0.3952" d="M21.6459 424.076L79.9813 442.201C80.3678 442.37 80.6412 442.797 80.4715 443.183C80.3018 443.57 79.8745 443.843 79.488 443.674L21.1165 425.457C20.73 425.287 20.4928 424.953 20.6263 424.474C20.8321 424.18 21.2956 423.999 21.6459 424.076Z" fill="#656565"/>
<path opacity="0.2858" d="M19.5936 312.587L133.259 274.331C133.63 274.186 134.145 274.412 134.197 274.819C134.342 275.189 134.116 275.705 133.709 275.757L20.0429 314.013C19.6722 314.158 19.2495 313.896 19.1049 313.525C18.9965 313.247 19.2228 312.732 19.5936 312.587Z" fill="#656565"/>
<path opacity="0.2031" d="M328.939 699.562L296.523 690.113C296.137 689.943 295.863 689.516 296.033 689.13C296.203 688.743 296.537 688.506 297.016 688.639L329.469 698.182C329.855 698.351 330.092 698.686 329.959 699.165C329.753 699.458 329.289 699.639 328.939 699.562Z" fill="#656565"/>
<path opacity="0.06555" d="M20.624 313.039L80.6048 442.705C80.7493 443.075 80.6158 443.554 80.2812 443.791C79.9104 443.936 79.4312 443.803 79.1578 443.376L19.177 313.711C19.0325 313.34 19.166 312.861 19.5368 312.716C19.9641 312.443 20.3506 312.612 20.624 313.039Z" fill="#656565"/>
<path opacity="0.1759" d="M297.023 690.025L170.889 738.482C170.518 738.627 170.003 738.401 169.858 738.03C169.714 737.66 169.94 737.145 170.311 737L296.408 688.45C296.779 688.305 297.295 688.531 297.475 688.994C297.563 689.494 297.394 689.88 297.023 690.025Z" fill="#656565"/>
<path opacity="0.07691" d="M-72.0936 499.177L39.775 613.19C40.105 613.488 40.1003 614.024 39.7656 614.261C39.4671 614.591 38.9314 614.587 38.6941 614.252L-73.1384 500.331C-73.4683 500.033 -73.4636 499.498 -73.129 499.26C-72.8305 498.93 -72.3308 498.842 -72.0936 499.177Z" fill="#656565"/>
<path opacity="0.2147" d="M-71.9646 499.233L9.5416 607.693C9.77885 608.027 9.77415 608.563 9.34681 608.836C9.01216 609.073 8.47642 609.069 8.20302 608.642L-73.3032 500.182C-73.5405 499.848 -73.5358 499.312 -73.1084 499.039C-72.7377 498.894 -72.2019 498.899 -71.9646 499.233Z" fill="#656565"/>
<path opacity="0.064182" d="M-72.887 499.059L79.5743 442.253C79.9451 442.108 80.4604 442.334 80.605 442.705C80.7495 443.075 80.5233 443.59 80.1525 443.735L-72.3088 500.541C-72.6795 500.686 -73.1949 500.46 -73.3394 500.09C-73.5201 499.626 -73.2578 499.204 -72.887 499.059Z" fill="#656565"/>
<path opacity="0.5" d="M9.02616 607.467L39.3885 613.021C39.8316 613.061 40.105 613.488 40.0641 613.931C40.0233 614.374 39.596 614.647 39.1529 614.607L8.79051 609.053C8.34745 609.012 8.07408 608.585 8.11491 608.142C8.15575 607.699 8.5831 607.426 9.02616 607.467Z" fill="#656565"/>
<path opacity="0.2275" d="M39.167 613L157.644 599.124C158.051 599.072 158.51 599.427 158.562 599.834C158.614 600.241 158.259 600.699 157.852 600.751L39.3383 614.535C38.9314 614.587 38.4726 614.232 38.5134 613.789C38.4615 613.382 38.76 613.052 39.167 613Z" fill="#656565"/>
<path opacity="0.093505" d="M8.80444 607.446L157.644 599.124C158.051 599.072 158.51 599.427 158.505 599.963C158.557 600.369 158.202 600.828 157.666 600.824L8.79034 609.053C8.38342 609.105 8.01733 608.714 7.96547 608.307C8.099 607.828 8.39751 607.498 8.80444 607.446Z" fill="#656565"/>
<path opacity="0.2269" d="M297.511 689.087L338.208 822.432C338.389 822.895 338.126 823.318 337.663 823.499C337.2 823.679 336.777 823.417 336.596 822.954L295.992 689.573C295.848 689.202 296.074 688.687 296.573 688.599C296.944 688.454 297.331 688.623 297.511 689.087Z" fill="#656565"/>
<path opacity="0.159" d="M-52.898 185.348L-33.4302 34.2963C-33.3894 33.8534 -32.9982 33.4873 -32.519 33.6206C-32.0759 33.6613 -31.8025 34.0883 -31.8434 34.5312L-51.3112 185.583C-51.352 186.026 -51.7794 186.299 -52.2224 186.258C-52.6655 186.218 -52.9389 185.791 -52.898 185.348Z" fill="#656565"/>
<path opacity="0.017448" d="M1.52679 354.432L-96.5765 453.116C-96.875 453.446 -97.4108 453.442 -97.7407 453.144C-98.0707 452.845 -98.066 452.31 -97.7675 451.98L0.207007 353.239C0.598208 352.873 1.13395 352.878 1.50004 353.269C1.82999 353.567 1.8253 354.102 1.52679 354.432Z" fill="#656565"/>
<path opacity="0.4518" d="M1.00678 354.742L-41.4467 360.629C-41.9463 360.717 -42.534 360.306 -42.5293 359.77C-42.6173 359.271 -42.2622 358.812 -41.6699 358.688L0.727043 352.929C1.22666 352.841 1.68546 353.196 1.77346 353.695C1.86146 354.195 1.5064 354.654 1.00678 354.742Z" fill="#656565"/>
<path opacity="0.1903" d="M42.8923 323.032L-13.64 335.265L64.9455 346.984L42.8923 323.032Z" fill="#656565"/>
<path opacity="0.1886" d="M66.8278 349.346L129.971 339.55L137.18 341.328L66.8278 349.346Z" fill="#656565"/>
<path opacity="0.2545" d="M102.095 627.84L101.521 661.686L60.6802 601.62L102.095 627.84Z" fill="#656565"/>
<path opacity="0.1821" d="M52.7253 352.072L66.8278 349.346L137.18 341.328L52.7253 352.072Z" fill="#656565"/>
<path opacity="0.1776" d="M141.335 708.17L102.095 627.839L101.521 661.686L141.335 708.17Z" fill="#656565"/>
<path opacity="0.1317" d="M102.095 627.84L60.6803 601.62L38.2337 611.977L102.095 627.84Z" fill="#656565"/>
<path opacity="0.062714" d="M-24.2401 155.596L-2.2628 114.467L-31.9259 210.362L-24.2401 155.596Z" fill="#656565"/>
<path opacity="0.1738" d="M-12.0701 345.86L52.7254 352.072L66.8278 349.346L-12.0701 345.86Z" fill="#656565"/>
<path opacity="0.101" d="M-24.2401 155.596L-31.9259 210.362L12.5634 193.541L-24.2401 155.596Z" fill="#656565"/>
<path opacity="0.1997" d="M57.5918 519.781L104.836 525.901L81.1161 510.818L57.5918 519.781Z" fill="#656565"/>
<path opacity="0.251" d="M-24.2401 155.596L-2.26281 114.467L17.5992 105.972L-24.2401 155.596Z" fill="#656565"/>
<path opacity="0.2457" d="M-12.0702 345.86L52.7253 352.072L-7.87458 318.286L-12.0702 345.86Z" fill="#656565"/>
<path opacity="0.2457" d="M-12.0702 345.86L52.7253 352.072L-7.87458 318.286L-12.0702 345.86Z" fill="#656565"/>
<path opacity="0.2793" d="M127.004 703.193L141.335 708.169L154.409 738.4L127.004 703.193Z" fill="#656565"/>
<path opacity="0.2793" d="M127.004 703.193L141.335 708.169L154.409 738.4L127.004 703.193Z" fill="#656565"/>
<path opacity="0.2793" d="M127.004 703.193L141.335 708.169L154.409 738.4L127.004 703.193Z" fill="#656565"/>
<path opacity="0.1242" d="M-31.9257 210.362L12.5636 193.541L48.2054 161.705L-31.9257 210.362Z" fill="#656565"/>
<path opacity="0.2565" d="M57.5918 519.781L93.1696 503.661L81.1161 510.818L57.5918 519.781Z" fill="#656565"/>
<path opacity="0.2565" d="M57.5918 519.781L93.1696 503.661L81.1161 510.818L57.5918 519.781Z" fill="#656565"/>
<path opacity="0.2185" d="M-2.26281 114.467L17.5992 105.972L48.2052 161.705L-2.26281 114.467Z" fill="#656565"/>
<path opacity="0.138" d="M12.5634 193.541L17.5992 105.972L48.2052 161.705L12.5634 193.541Z" fill="#656565"/>
<path opacity="0.091609" d="M-49.049 665.025L-29.0124 710.365L34.8206 687.278L-49.049 665.025Z" fill="#656565"/>
<path opacity="0.2927" d="M46.3748 450.507L50.9036 427.073L89.8006 436.983L46.3748 450.507Z" fill="#656565"/>
<path opacity="0.2927" d="M46.3748 450.507L50.9036 427.073L89.8006 436.983L46.3748 450.507Z" fill="#656565"/>
<path opacity="0.2927" d="M46.3748 450.507L50.9036 427.073L89.8006 436.983L46.3748 450.507Z" fill="#656565"/>
<path opacity="0.1799" d="M42.5053 649.484L38.2337 611.977L34.8205 687.278L42.5053 649.484Z" fill="#656565"/>
<path opacity="0.042801" d="M-29.0128 710.365L42.505 649.484L34.8202 687.278L-29.0128 710.365Z" fill="#656565"/>
<path opacity="0.2181" d="M46.3748 450.508L93.1696 503.661L89.8005 436.983L46.3748 450.508Z" fill="#656565"/>
<path opacity="0.038904" d="M100.058 758.961L154.409 738.399L152.416 721.245L100.058 758.961Z" fill="#656565"/>
<path opacity="0.2055" d="M127.004 703.192L100.058 758.961L152.416 721.245L127.004 703.192Z" fill="#656565"/>
<path opacity="0.01" d="M50.9036 427.072L44.2509 460.942L93.1696 503.661L50.9036 427.072Z" fill="#656565"/>
<path opacity="0.1589" d="M46.3749 450.507L44.2511 460.942L93.1698 503.661L46.3749 450.507Z" fill="#656565"/>
<path opacity="0.2348" d="M-49.0492 665.026L42.5052 649.484L-27.4304 662.677L-49.0492 665.026Z" fill="#656565"/>
<path opacity="0.1261" d="M127.004 703.193L100.058 758.962L129.044 763.452L127.004 703.193Z" fill="#656565"/>
<path opacity="0.1827" d="M127.004 703.192L129.044 763.451L152.416 721.245L127.004 703.192Z" fill="#656565"/>
<path opacity="0.12" d="M50.9037 427.073L94.5602 406.2L44.251 460.942L50.9037 427.073Z" fill="#656565"/>
<path opacity="0.12" d="M50.9037 427.073L94.5602 406.2L44.251 460.942L50.9037 427.073Z" fill="#656565"/>
<path opacity="0.1385" d="M46.3748 450.507L94.5602 406.2L44.251 460.942L46.3748 450.507Z" fill="#656565"/>
<path opacity="0.2344" d="M129.044 763.451L152.416 721.245L164.391 790.544L129.044 763.451Z" fill="#656565"/>
<path opacity="0.1984" d="M-47.5674 281.148L-30.4356 236.359L30.7819 275.561L-47.5674 281.148Z" fill="#656565"/>
<path opacity="0.2079" d="M-48.8526 284.424L-46.192 257.022L30.7818 275.561L-48.8526 284.424Z" fill="#656565"/>
<path opacity="0.036344" d="M-12.4009 78.0747L-48.93 72.0443L55.095 121.872L-12.4009 78.0747Z" fill="#656565"/>
<rect y="21.0001" width="407" height="721" fill="url(#paint0_linear)"/>
</g>
<defs>
<linearGradient id="paint0_linear" x1="141.111" y1="21.0001" x2="-14.447" y2="706.711" gradientUnits="userSpaceOnUse">
<stop stop-color="#090909" stop-opacity="0.4"/>
<stop offset="0.96875" stop-color="#090909"/>
</linearGradient>
<clipPath id="clip0">
<rect width="400" height="738" fill="white"/>
</clipPath>
</defs>
</svg>
