<svg width="20" height="14" viewBox="0 0 20 14" fill="none" xmlns="http://www.w3.org/2000/svg">
<path d="M0 2C0 0.89543 0.895431 0 2 0H17.6C18.7046 0 19.6 0.895431 19.6 2V12C19.6 13.1046 18.7046 14 17.6 14H2C0.895433 14 0 13.1046 0 12V2Z" fill="white"/>
<mask id="mask0" mask-type="alpha" maskUnits="userSpaceOnUse" x="0" y="0" width="20" height="14">
<path d="M0 2C0 0.89543 0.895431 0 2 0H17.6C18.7046 0 19.6 0.895431 19.6 2V12C19.6 13.1046 18.7046 14 17.6 14H2C0.895433 14 0 13.1046 0 12V2Z" fill="white"/>
</mask>
<g mask="url(#mask0)">
<path fill-rule="evenodd" clip-rule="evenodd" d="M0 9.33333H19.6V0H0V9.33333Z" fill="#E54252"/>
<path fill-rule="evenodd" clip-rule="evenodd" d="M0 14.0002H19.6V9.3335H0V14.0002Z" fill="#5CBE6B"/>
<path fill-rule="evenodd" clip-rule="evenodd" d="M0 1.4C0 0.626802 0.626801 0 1.4 0C2.1732 0 2.8 0.626801 2.8 1.4V2.1L2.33334 2.8L2.8 3.5V4.9L2.33334 5.6L2.8 6.3V7.7L2.33334 8.4L2.8 9.1V10.5L2.33334 11.2L2.8 11.9V12.6C2.8 13.3732 2.1732 14 1.4 14C0.626801 14 0 13.3732 0 12.6V1.4Z" fill="white"/>
<path fill-rule="evenodd" clip-rule="evenodd" d="M-0.466654 1.3999L-1.39999 2.7999L-0.466654 4.1999L0.466679 2.7999L-0.466654 1.3999ZM-0.466661 4.2L-1.39999 5.6L-0.466661 7L-1.39999 8.4L-0.466661 9.8L-1.39999 11.2L-0.466661 12.6L0.466673 11.2L-0.466661 9.8L0.466673 8.4L-0.466661 7L0.466673 5.6L-0.466661 4.2Z" fill="#E54252"/>
<path fill-rule="evenodd" clip-rule="evenodd" d="M0.466675 1.4L1.40001 0L2.33334 1.4L1.40001 2.8L0.466675 1.4ZM1.40001 5.6L0.46668 4.2L1.40001 2.8H1.40001L2.33335 4.2L1.40001 5.6ZM1.40001 8.4L0.46668 7L1.40001 5.6L2.33335 7L1.40001 8.4ZM1.40001 11.2L2.33335 9.8L1.40001 8.4L0.46668 9.8L1.40001 11.2ZM1.40001 11.2L2.33335 12.6L1.40001 14L0.46668 12.6L1.40001 11.2Z" fill="#E54252"/>
</g>
</svg>
