<svg width="143" height="143" viewBox="0 0 143 143" fill="none" xmlns="http://www.w3.org/2000/svg">
<path d="M64.3181 128.464L62.7025 137.629L61.3376 137.388L62.2688 132.105L56.3209 136.504L54.6369 136.207L59.1658 132.911L56.1461 127.023L57.7592 127.308L60.2803 132.084L62.5625 130.439L62.9531 128.223L64.3181 128.464Z" fill="white"/>
<path d="M50.0701 124.501C50.9487 124.857 51.608 125.402 52.0482 126.137C52.4883 126.873 52.5349 127.668 52.1878 128.525C51.8228 129.425 51.2074 129.985 50.3419 130.204C49.4763 130.423 48.4818 130.305 47.3586 129.85C46.4688 129.489 45.6398 129.011 44.8715 128.415L44.7633 128.682C44.4569 129.438 44.4449 130.106 44.7275 130.687C45.0102 131.268 45.5574 131.723 46.3693 132.052C47.2145 132.394 48.1709 132.542 49.2385 132.496L49.1963 133.702C47.9303 133.759 46.7858 133.58 45.7626 133.165C44.5392 132.669 43.739 131.976 43.362 131.085C43.0048 130.241 43.047 129.274 43.4887 128.185L45.625 122.913L46.8928 123.427L46.3723 124.711C47.5363 124.044 48.7689 123.973 50.0701 124.501ZM49.4007 125.434C48.6 125.109 47.8337 125.051 47.1018 125.259C46.37 125.468 45.8666 125.911 45.5917 126.59L45.2672 127.39C46.0133 127.978 46.8034 128.44 47.6375 128.778C48.4271 129.098 49.1097 129.187 49.6853 129.045C50.2563 128.914 50.6523 128.576 50.8731 128.031C51.0849 127.508 51.0482 127.008 50.7629 126.529C50.4664 126.047 50.0124 125.681 49.4007 125.434Z" fill="white"/>
<path d="M41.6432 120.591L36.4229 128.295L35.2755 127.517L38.2845 123.077L31.0585 124.66L29.6429 123.7L35.1233 122.543L34.7737 115.936L36.1297 116.855L36.4785 122.244L39.2336 121.676L40.4958 119.813L41.6432 120.591Z" fill="white"/>
<path d="M26.4138 107.244L18.7693 112.551L18.0199 111.472L20.0607 105.826L14.0577 105.764L13.2981 104.67L20.9426 99.3631L21.7432 100.516L15.9175 104.561L21.7521 104.696L19.8181 110.18L25.6439 106.135L26.4138 107.244Z" fill="white"/>
<path d="M19.2624 95.7255L10.5642 99.0335L10.0715 97.738L13.3355 96.4967L12.4525 94.1749C12.0686 93.1655 11.9738 92.2579 12.1681 91.4522C12.3512 90.6508 12.8801 90.0837 13.755 89.751C14.6186 89.4225 15.4215 89.4574 16.1635 89.8557C16.8943 90.2582 17.4495 90.9586 17.8292 91.9568L19.2624 95.7255ZM17.6257 94.8651L16.7299 92.5097C16.4782 91.8479 16.144 91.3909 15.727 91.1386C15.3059 90.8751 14.8261 90.8458 14.2877 91.0505C13.7942 91.2382 13.491 91.5718 13.378 92.0512C13.2496 92.5237 13.3134 93.0965 13.5693 93.7695L14.4459 96.0744L17.6257 94.8651ZM15.9864 87.1114L7.28823 90.4194L6.79555 89.1239L15.4938 85.8159L15.9864 87.1114Z" fill="white"/>
<path d="M16.323 75.12L12.7772 75.0789L12.7889 74.0709C11.2746 73.2253 9.12554 72.7864 6.34173 72.7542L4.72184 72.7354L4.79858 66.1118L12.88 66.2055L12.8963 64.8016L16.4396 65.0586L16.4262 66.2105L14.1044 66.1836L14.0172 73.7071L16.3361 73.986L16.323 75.12ZM12.806 72.595L12.864 67.5914L6.00644 67.5119L5.96119 71.4177L7.2571 71.4327C9.59694 71.4598 11.4466 71.8472 12.806 72.595Z" fill="white"/>
<path d="M15.9201 57.7625C15.6319 59.0384 14.9498 60.0161 13.8736 60.6957C12.7884 61.361 11.5494 61.5364 10.1564 61.2218C8.83376 60.9231 7.80975 60.2551 7.08444 59.2178C6.34741 58.1779 6.119 57.0376 6.39921 55.7969C6.69264 54.4976 7.38177 53.5706 8.4666 53.016C9.55144 52.4613 10.7845 52.34 12.1657 52.6519C12.3413 52.6915 12.498 52.7331 12.6358 52.7765L11.01 59.9752C11.9559 60.0904 12.7713 59.9116 13.4563 59.4389C14.1322 58.9518 14.564 58.2928 14.7516 57.4617C14.9975 56.3731 14.7857 55.3227 14.1163 54.3103L15.0616 53.6381C15.967 54.9128 16.2532 56.2876 15.9201 57.7625ZM9.92144 59.7294L11.2419 53.8826C10.3455 53.7663 9.55366 53.895 8.86643 54.2688C8.17015 54.6283 7.72552 55.2352 7.53254 56.0897C7.35807 56.8622 7.49549 57.5884 7.9448 58.268C8.39411 58.9477 9.053 59.4348 9.92144 59.7294Z" fill="white"/>
<path d="M18.017 50.5593C17.8639 50.8851 17.6622 51.2014 17.4121 51.5081L16.4057 50.8563C16.5991 50.6422 16.7315 50.4592 16.803 50.3071C16.9152 50.0682 16.9799 49.8599 16.9971 49.6823C17.0033 49.4997 16.9224 49.2628 16.7542 48.9716C16.5803 48.6645 16.2828 48.3524 15.8617 48.0352C15.4406 47.718 14.8163 47.3253 13.9889 46.857C13.1666 46.3779 12.1418 45.85 10.9146 45.2734L10.214 44.9443L13.0154 38.9816L21.4382 42.9388L20.8488 44.1932L13.5339 40.7565L11.8806 44.2755L12.0761 44.3673C13.3577 44.9694 14.4263 45.5311 15.2818 46.0524C16.1373 46.5737 16.7846 47.0303 17.2237 47.4222C17.6678 47.8032 17.9698 48.1904 18.1297 48.5837C18.2897 48.977 18.3489 49.3165 18.3076 49.602C18.2822 49.8818 18.1853 50.2008 18.017 50.5593Z" fill="white"/>
<path d="M26.0316 36.7095C25.4531 37.4606 24.7508 37.9496 23.9246 38.1766C23.0984 38.4036 22.3193 38.2352 21.5873 37.6714C20.8172 37.0783 20.4427 36.3354 20.4637 35.4428C20.4848 34.5502 20.8651 33.6238 21.6047 32.6636C22.1905 31.9031 22.8735 31.2326 23.6538 30.6521L23.4257 30.4764C22.7792 29.9785 22.1384 29.7878 21.5032 29.9045C20.8681 30.0212 20.2832 30.4265 19.7487 31.1205C19.1922 31.843 18.7933 32.7248 18.5519 33.7658L17.4009 33.4018C17.6855 32.1669 18.1647 31.1122 18.8383 30.2375C19.6438 29.1918 20.5262 28.6067 21.4855 28.4821C22.3943 28.3642 23.3145 28.664 24.2462 29.3816L28.7524 32.8525L27.9177 33.9363L26.8196 33.0905C27.151 34.3909 26.8883 35.5972 26.0316 36.7095ZM25.3122 35.8146C25.8394 35.1301 26.1007 34.4074 26.096 33.6465C26.0914 32.8856 25.7991 32.2818 25.2192 31.8351L24.5347 31.3079C23.769 31.8693 23.1116 32.5065 22.5624 33.2195C22.0425 33.8945 21.774 34.5283 21.7568 35.121C21.7301 35.7063 21.9496 36.1783 22.4155 36.5371C22.8623 36.8813 23.3543 36.98 23.8914 36.8333C24.4358 36.677 24.9094 36.3375 25.3122 35.8146Z" fill="white"/>
<path d="M35.2975 27.1702C34.3004 28.0167 33.1676 28.3883 31.899 28.2847C30.6318 28.1642 29.5361 27.5597 28.6119 26.4712C27.7342 25.4375 27.3172 24.2882 27.3609 23.0232C27.3968 21.7491 27.8996 20.7005 28.8692 19.8772C29.8846 19.0151 30.9925 18.6883 32.1929 18.897C33.3933 19.1057 34.4517 19.7497 35.3682 20.8291C35.4847 20.9663 35.585 21.0937 35.669 21.2112L30.0433 25.9878C30.73 26.6483 31.4892 26.9955 32.3208 27.0293C33.1537 27.0462 33.8949 26.779 34.5444 26.2275C35.3951 25.5052 35.8572 24.5384 35.9305 23.3269L37.0901 23.3577C37.0476 24.9207 36.4501 26.1916 35.2975 27.1702ZM29.321 25.1371L33.8902 21.2576C33.2436 20.6259 32.5334 20.2529 31.7595 20.1387C30.9869 20.0075 30.2668 20.2254 29.599 20.7924C28.9953 21.305 28.6687 21.9679 28.6194 22.7812C28.57 23.5944 28.8039 24.3797 29.321 25.1371Z" fill="white"/>
<path d="M41.5967 22.328L37.2972 14.0747L38.4625 13.4677L43.8055 16.2048L44.6245 10.2576L45.8058 9.64219L50.1053 17.8954L48.8602 18.5441L45.5836 12.2544L44.7134 18.0253L39.5174 15.4146L42.794 21.7043L41.5967 22.328Z" fill="white"/>
<path d="M62.1026 14.8008L61.0639 5.55294L62.4413 5.39825L63.0399 10.7287L67.5034 4.82971L69.2028 4.63886L65.7891 9.0796L70.3487 13.8747L68.721 14.0575L64.9535 10.1878L63.2288 12.4102L63.4799 14.6461L62.1026 14.8008Z" fill="white"/>
<path d="M73.822 16.9492L75.1024 4.83066L76.4807 4.97629L76.284 6.83793C77.3598 5.56391 78.6138 5.00255 80.0458 5.15385C81.2272 5.27867 82.2128 5.82928 83.0026 6.80566C83.7937 7.77012 84.1116 8.98626 83.9566 10.4541C83.804 11.8981 83.2395 13.0149 82.2631 13.8047C81.2867 14.5945 80.2078 14.927 79.0264 14.8022C77.5705 14.6483 76.4584 13.8672 75.6902 12.4586L75.2003 17.0948L73.822 16.9492ZM78.9063 13.5405C79.8371 13.6389 80.6469 13.3986 81.3355 12.8198C82.0254 12.229 82.4283 11.3847 82.5443 10.2868C82.6565 9.22469 82.4311 8.33206 81.8679 7.60889C81.3061 6.87379 80.5716 6.45832 79.6647 6.3625C78.7697 6.26794 77.9521 6.52546 77.2119 7.13507C76.4718 7.74468 76.0469 8.56859 75.9372 9.60681C75.8275 10.645 76.0709 11.5396 76.6673 12.2904C77.2649 13.0293 78.0113 13.446 78.9063 13.5405Z" fill="white"/>
<path d="M87.2436 19.3863C86.6062 19.1734 86.0296 18.8163 85.5138 18.3151L86.3056 17.4219C86.6545 17.7788 87.0793 18.0409 87.5801 18.2082C87.9785 18.3413 88.3561 18.3282 88.7129 18.1691C89.0659 18.0213 89.4759 17.6838 89.943 17.1566L88.8678 7.02402L90.319 7.50875L91.0708 15.9392L96.3627 9.52748L97.7627 9.9951L91.0127 17.8745C90.3367 18.6482 89.7084 19.1468 89.1277 19.3703C88.5431 19.6053 87.9151 19.6106 87.2436 19.3863Z" fill="white"/>
<path d="M100.014 21.7627L104.028 14.7479L101.138 13.0941L101.746 12.0317L108.745 16.0367L108.137 17.0991L105.247 15.4452L101.233 22.46L100.014 21.7627Z" fill="white"/>
<path d="M106.881 26.2171L113.134 19.3251L114.161 20.2565L111.814 22.8426L113.654 24.5117C114.454 25.2374 114.95 26.0034 115.142 26.8096C115.342 27.6069 115.128 28.3522 114.499 29.0454C113.878 29.7297 113.146 30.0626 112.305 30.044C111.471 30.0166 110.658 29.6441 109.867 28.9264L106.881 26.2171ZM108.73 26.2419L110.596 27.9353C111.121 28.411 111.626 28.6668 112.112 28.7026C112.607 28.7466 113.048 28.5552 113.435 28.1286C113.79 27.7376 113.909 27.3028 113.792 26.8243C113.692 26.3449 113.376 25.8633 112.842 25.3795L111.016 23.7224L108.73 26.2419ZM113.707 32.4098L119.96 25.5178L120.986 26.4492L114.733 33.3411L113.707 32.4098Z" fill="white"/>
<path d="M119.096 39.9831C118.354 38.9063 118.097 37.742 118.327 36.4901C118.574 35.2414 119.285 34.2117 120.461 33.401C121.577 32.6312 122.762 32.3314 124.017 32.5014C125.281 32.6647 126.274 33.2699 126.996 34.317C127.752 35.4136 127.966 36.5486 127.639 37.7221C127.311 38.8956 126.564 39.8842 125.398 40.6881C125.25 40.7903 125.113 40.8773 124.988 40.9492L120.798 34.8736C120.073 35.4908 119.651 36.2114 119.534 37.0354C119.434 37.8625 119.626 38.6267 120.109 39.3281C120.743 40.2469 121.659 40.8033 122.857 40.9976L122.71 42.1483C121.159 41.9496 119.955 41.2279 119.096 39.9831ZM121.717 34.2401L125.12 39.1746C125.813 38.5945 126.255 37.9252 126.447 37.1666C126.654 36.4111 126.51 35.6727 126.012 34.9516C125.563 34.2996 124.936 33.9083 124.132 33.7778C123.327 33.6473 122.523 33.8014 121.717 34.2401Z" fill="white"/>
<path d="M126.294 54.5097L135.329 52.281L137.26 60.1103L128.225 62.339L127.893 60.9934L135.74 59.0578L134.472 53.9198L126.626 55.8554L126.294 54.5097Z" fill="white"/>
<path d="M125.809 67.161L137.993 66.9396L138.018 68.3254L136.147 68.3594C137.543 69.2702 138.255 70.4455 138.281 71.8852C138.303 73.073 137.877 74.1189 137.006 75.0229C136.146 75.9267 134.978 76.392 133.503 76.4188C132.051 76.4452 130.873 76.0225 129.969 75.1508C129.065 74.279 128.602 73.2493 128.581 72.0615C128.554 70.5977 129.192 69.3979 130.496 68.4621L125.834 68.5468L125.809 67.161ZM129.818 71.7869C129.835 72.7228 130.173 73.4968 130.832 74.1089C131.503 74.7208 132.391 75.0167 133.495 74.9967C134.563 74.9773 135.421 74.6436 136.069 73.9958C136.729 73.3477 137.051 72.5677 137.035 71.6558C137.018 70.756 136.662 69.9763 135.966 69.3169C135.27 68.6574 134.4 68.3371 133.356 68.3561C132.312 68.3751 131.454 68.7267 130.783 69.411C130.123 70.0951 129.801 70.8871 129.818 71.7869Z" fill="white"/>
<path d="M127.834 87.7306C127.097 86.6208 126.87 85.3904 127.151 84.0395C127.433 82.6885 128.132 81.6575 129.249 80.9464C130.363 80.2471 131.578 80.0345 132.894 80.3088C134.197 80.5806 135.219 81.2656 135.959 82.3636C136.707 83.4758 136.941 84.7074 136.659 86.0583C136.378 87.4093 135.679 88.4403 134.562 89.1514C133.445 89.8625 132.229 90.0809 130.914 89.8066C129.61 89.5348 128.583 88.8428 127.834 87.7306ZM128.36 84.3282C128.157 85.3032 128.331 86.1731 128.882 86.9377C129.431 87.7141 130.205 88.2064 131.204 88.4146C132.191 88.6203 133.099 88.4664 133.929 87.9531C134.757 87.4514 135.27 86.7249 135.469 85.7733C135.672 84.7983 135.492 83.9272 134.928 83.1601C134.377 82.3954 133.602 81.909 132.603 81.7009C131.617 81.4952 130.709 81.6431 129.881 82.1448C129.065 82.6488 128.558 83.3766 128.36 84.3282Z" fill="white"/>
<path d="M123.043 95.9586C123.579 94.7657 124.443 93.9434 125.633 93.4917C126.829 93.0559 128.078 93.1308 129.38 93.7165C130.617 94.2727 131.487 95.1313 131.991 96.2922C132.507 97.4581 132.503 98.6211 131.981 99.7811C131.435 100.996 130.575 101.767 129.402 102.095C128.228 102.422 126.996 102.295 125.704 101.715C125.54 101.641 125.395 101.569 125.268 101.499L128.295 94.7681C127.391 94.4669 126.557 94.4796 125.791 94.8065C125.032 95.1492 124.477 95.709 124.128 96.4861C123.67 97.5039 123.669 98.5755 124.123 99.7009L123.063 100.171C122.429 98.7418 122.423 97.3376 123.043 95.9586ZM129.313 95.2259L126.855 100.693C127.71 100.985 128.511 101.017 129.259 100.787C130.013 100.574 130.57 100.067 130.929 99.2684C131.254 98.5461 131.264 97.8072 130.959 97.0516C130.654 96.2961 130.105 95.6875 129.313 95.2259Z" fill="white"/>
<path d="M119.367 103.058L126.869 108.564L126.049 109.681L121.725 106.507L123.035 113.788L122.023 115.166L121.073 109.646L114.457 109.747L115.426 108.427L120.825 108.281L120.361 105.506L118.547 104.175L119.367 103.058Z" fill="white"/>
<path d="M109.982 113.915L115.433 119.882L117.891 117.636L118.717 118.54L112.763 123.979L111.938 123.075L114.396 120.829L108.945 114.862L109.982 113.915Z" fill="white"/>
<path d="M103.641 119.091L108.29 127.152L107.09 127.845L105.345 124.82L103.193 126.061C102.258 126.6 101.377 126.838 100.551 126.775C99.7302 126.721 99.0862 126.289 98.6185 125.479C98.1569 124.678 98.0636 123.88 98.3387 123.084C98.6199 122.299 99.223 121.639 100.148 121.105L103.641 119.091ZM103.052 120.844L100.869 122.103C100.256 122.456 99.8575 122.859 99.6748 123.311C99.4816 123.769 99.5289 124.247 99.8167 124.746C100.081 125.203 100.458 125.45 100.949 125.485C101.436 125.536 101.992 125.382 102.615 125.023L104.751 123.791L103.052 120.844ZM95.6575 123.695L100.307 131.757L99.1065 132.449L94.4569 124.388L95.6575 123.695Z" fill="white"/>
<path d="M79.0896 133.055C79.4664 132.532 79.9747 132.218 80.6142 132.114C81.2538 132.01 81.8412 132.145 82.3764 132.52C82.9016 132.909 83.2173 133.429 83.3233 134.08C83.4274 134.72 83.2851 135.302 82.8964 135.828C82.5077 136.353 81.9995 136.667 81.3718 136.769C80.744 136.871 80.1616 136.729 79.6245 136.342C79.0893 135.967 78.7687 135.454 78.6627 134.802C78.5586 134.163 78.7009 133.58 79.0896 133.055Z" fill="white"/>
</svg>
