<svg width="548" height="56" viewBox="0 0 548 56" fill="none" xmlns="http://www.w3.org/2000/svg">
<path d="M277.1 11.2002H270.8L267.65 15.4002V18.9001L269.05 19.6001V22.4001L272.9 25.9001H274.3L278.5 22.4001V19.6001L279.9 18.9001V15.4002L277.1 11.2002Z" fill="#090909"/>
<path d="M285.207 15.8977C285.219 15.6544 285.207 15.4111 285.182 15.18C285.121 14.7422 285.048 14.3043 284.975 13.8664C284.963 13.7813 284.914 13.7083 284.84 13.6718C283.655 12.9663 282.458 12.2609 281.273 11.5554C281.224 11.5189 281.139 11.4824 281.175 11.4216C281.212 11.3608 281.285 11.4094 281.334 11.4216L284.706 12.2122C284.755 12.2365 284.804 12.2365 284.853 12.2244C284.828 12.1757 284.779 12.1514 284.73 12.1271C282.935 10.9959 281.139 9.86471 279.343 8.73353C279.257 8.67271 279.16 8.66055 279.062 8.69704C277.364 9.25655 275.666 9.81606 273.968 10.3877C273.846 10.4242 273.723 10.4242 273.613 10.3877C271.915 9.82822 270.217 9.26871 268.519 8.69704C268.421 8.66055 268.324 8.67271 268.238 8.73353C266.442 9.86471 264.647 10.9959 262.851 12.1271C262.802 12.1514 262.753 12.1879 262.716 12.2244C262.753 12.2365 262.802 12.2244 262.839 12.2122L265.282 11.6405L266.284 11.3973C266.32 11.3851 266.369 11.373 266.381 11.4094C266.394 11.4459 266.369 11.4946 266.332 11.5067L266.271 11.5432C265.123 12.2244 263.962 12.9177 262.802 13.5988C262.668 13.6596 262.57 13.7934 262.545 13.9516C262.448 14.5962 262.313 15.2409 262.325 15.9098C262.338 16.5058 262.313 17.1018 262.435 17.6978C262.509 18.0384 262.533 18.3911 262.619 18.7439C262.753 19.2426 262.924 19.7169 263.144 20.1791C263.315 20.5562 263.498 20.9089 263.718 21.2617C263.743 21.2982 263.755 21.3468 263.816 21.3711C263.865 21.3346 263.901 21.286 263.926 21.2373L265.135 19.5345C265.172 19.4858 265.196 19.425 265.27 19.4372C265.343 19.4615 265.343 19.5345 265.343 19.5953V19.6561C265.331 20.0453 265.306 20.4346 265.294 20.8238C265.27 21.6266 265.233 22.4415 265.209 23.2443C265.209 23.3173 265.233 23.3781 265.282 23.4267C266.223 24.3755 267.163 25.3242 268.116 26.2729C268.141 26.2972 268.153 26.3337 268.214 26.3216C268.324 26.1391 268.434 25.9445 268.556 25.7621C268.666 25.5796 268.776 25.385 268.898 25.2147L268.935 25.2269V27.0027C268.922 27.1122 268.971 27.2216 269.057 27.2946C270.596 28.7299 272.123 30.1773 273.662 31.6126C273.687 31.6491 273.736 31.6856 273.772 31.6977L273.846 31.6369C275.397 30.1773 276.949 28.7177 278.512 27.2581C278.573 27.1973 278.61 27.1243 278.61 27.0392V25.3363C278.61 25.2999 278.586 25.2512 278.647 25.2147L279.331 26.3459C279.38 26.3216 279.416 26.2972 279.441 26.2608C280.381 25.3242 281.31 24.3755 282.25 23.4389C282.312 23.3902 282.336 23.3173 282.324 23.2443C282.299 22.7334 282.287 22.2104 282.263 21.6995C282.238 21.0062 282.214 20.3251 282.189 19.6318C282.189 19.5588 282.177 19.4737 282.263 19.4372C282.348 19.4007 282.373 19.498 282.422 19.5466C282.825 20.1062 283.228 20.6657 283.631 21.2373C283.668 21.286 283.704 21.3225 283.729 21.3711C283.765 21.3468 283.802 21.3103 283.814 21.2617C284.034 20.9211 284.217 20.5562 284.388 20.1913C284.608 19.7291 284.779 19.2426 284.914 18.7439C284.999 18.3911 285.036 18.0384 285.097 17.6857C285.134 17.4789 285.17 17.26 285.182 17.0532C285.219 16.664 285.207 16.2869 285.207 15.8977ZM275.153 24.8863C275.128 24.8863 275.116 24.862 275.079 24.8255C274.994 24.716 274.921 24.6066 274.835 24.4849C274.725 24.5822 274.627 24.6917 274.53 24.8133C274.371 24.9958 274.212 25.1904 274.053 25.3728C274.053 25.385 274.041 25.385 274.029 25.3972C274.017 25.4093 274.017 25.4093 274.004 25.4215C273.992 25.4337 273.98 25.4337 273.968 25.4458C273.956 25.4458 273.943 25.458 273.919 25.458C273.907 25.458 273.907 25.458 273.894 25.458H273.882C273.748 25.458 273.613 25.4458 273.479 25.458C273.406 25.458 273.332 25.4337 273.284 25.3728C273.064 25.1052 272.832 24.8377 272.612 24.5822C272.587 24.5579 272.563 24.5214 272.538 24.4971C272.404 24.6309 272.319 24.789 272.209 24.935C272.062 24.789 271.903 24.643 271.769 24.4849C271.732 24.4484 271.72 24.3998 271.72 24.3511V23.7673C271.72 23.7186 271.744 23.67 271.781 23.6578C271.781 23.6578 271.793 23.6578 271.793 23.6457C272.38 23.3172 272.978 23.001 273.565 22.6726C273.589 22.6604 273.613 22.6483 273.638 22.6361C273.662 22.6361 273.675 22.6361 273.699 22.6361C273.723 22.6361 273.76 22.6483 273.784 22.6726C274.371 23.001 274.945 23.3173 275.531 23.6335C275.593 23.6578 275.629 23.7186 275.617 23.7795V24.3268C275.617 24.3998 275.593 24.4728 275.531 24.5214C275.421 24.6309 275.324 24.7282 275.214 24.8377C275.202 24.8498 275.177 24.8741 275.153 24.8863C275.165 24.8863 275.153 24.8863 275.153 24.8863ZM279.441 17.0289C279.331 17.2235 279.233 17.4181 279.135 17.6127C279.099 17.6735 279.05 17.7222 279.001 17.7708C278.512 18.16 278.036 18.5493 277.547 18.9385C277.474 18.9871 277.437 19.0723 277.437 19.1574C277.437 19.4737 277.498 19.7777 277.523 20.094C277.535 20.3129 277.596 20.5319 277.657 20.7386C277.657 20.7386 277.657 20.7386 277.657 20.7508C277.682 20.836 277.706 20.9211 277.73 21.0062C277.743 21.0549 277.755 21.1035 277.767 21.14C277.791 21.2617 277.804 21.2617 277.682 21.286L276.497 21.5414C276.411 21.5536 276.399 21.5901 276.411 21.6752C276.411 21.6874 276.411 21.6995 276.423 21.7117C276.435 21.7239 276.448 21.736 276.472 21.736H276.558L277.62 21.7482C277.657 21.7482 277.682 21.7482 277.718 21.7604C277.755 21.7725 277.791 21.7968 277.804 21.8333L277.816 21.8455C277.816 21.8577 277.828 21.8577 277.828 21.8698C277.84 21.9185 277.84 21.9671 277.828 22.0036C277.791 22.1861 277.706 22.3564 277.584 22.4901C277.535 22.5388 277.474 22.5753 277.401 22.5753C277.046 22.5753 276.704 22.5023 276.387 22.3564L276.338 22.332C276.289 22.3077 276.228 22.2834 276.216 22.332C276.191 22.3685 276.191 22.405 276.203 22.4415C276.203 22.4415 276.203 22.4537 276.216 22.4537C276.216 22.4658 276.228 22.478 276.24 22.478C276.338 22.5631 276.423 22.6726 276.582 22.6726C276.606 22.6726 276.655 22.7091 276.692 22.7456C276.716 22.7699 276.729 22.7942 276.753 22.8186C276.753 22.8186 276.753 22.8186 276.753 22.8307C276.765 22.8429 276.765 22.8672 276.765 22.8794C276.741 22.9767 276.655 23.0618 276.558 23.0861H275.874C275.812 23.0861 275.751 23.0618 275.715 23.001C275.654 22.9159 275.556 22.8672 275.446 22.8794C275.373 22.8794 275.312 22.8672 275.25 22.8186C275.092 22.7213 274.933 22.6118 274.774 22.5145C274.64 22.4172 274.505 22.3077 274.383 22.1861C274.298 22.1131 274.224 22.0401 274.151 21.9671C274.127 21.955 274.114 21.9306 274.102 21.9185C274.078 21.882 274.078 21.8455 274.102 21.7968C274.151 21.6752 274.2 21.5414 274.237 21.4198C274.261 21.3711 274.285 21.3225 274.322 21.286C274.42 21.1765 274.505 21.0792 274.591 20.9697C274.64 20.9089 274.701 20.8603 274.762 20.8238C275.226 20.5684 275.69 20.3008 276.154 20.0453C276.179 20.021 276.203 20.0088 276.24 19.9967C276.289 19.9845 276.313 19.9359 276.301 19.8872C276.301 19.8751 276.301 19.8629 276.301 19.8629V19.8507C276.289 19.8264 276.252 19.8264 276.228 19.8142C276.081 19.7656 275.922 19.7291 275.776 19.7291C275.507 19.7169 275.226 19.7656 274.994 19.8994C274.615 20.094 274.224 20.2764 273.833 20.4589C273.748 20.5075 273.65 20.5075 273.577 20.4589C273.088 20.2278 272.612 19.9967 272.123 19.7656C272.099 19.7413 272.062 19.7413 272.038 19.7291C271.757 19.7413 271.463 19.6804 271.182 19.8021C271.146 19.8142 271.097 19.8142 271.097 19.8751C271.097 19.8994 271.097 19.9115 271.109 19.9359C271.109 19.9359 271.109 19.9359 271.109 19.948C271.121 19.9724 271.146 19.9845 271.17 19.9967C271.5 20.1791 271.818 20.3616 272.147 20.544C272.294 20.6292 272.441 20.7143 272.587 20.7873C272.734 20.8603 272.807 20.9819 272.917 21.0792C272.978 21.14 273.039 21.213 273.076 21.2738C273.137 21.3711 273.186 21.4806 273.223 21.5901C273.247 21.6509 273.271 21.7239 273.296 21.7847C273.32 21.8333 273.308 21.8942 273.259 21.9306C273.003 22.1617 272.771 22.4172 272.453 22.5996C272.367 22.6483 272.282 22.6969 272.209 22.7577C272.111 22.8429 271.989 22.8794 271.867 22.8672C271.793 22.855 271.744 22.9037 271.708 22.9524C271.647 23.0253 271.549 23.074 271.451 23.0618H270.84C270.755 23.0497 270.694 23.001 270.657 22.928C270.657 22.9159 270.645 22.9037 270.645 22.8915C270.645 22.8794 270.633 22.8672 270.633 22.855C270.657 22.7577 270.73 22.6726 270.828 22.6483C270.975 22.6483 271.06 22.5266 271.158 22.4415C271.182 22.4172 271.195 22.3807 271.182 22.3442C271.182 22.3442 271.182 22.332 271.17 22.332V22.3199L271.158 22.3077C271.121 22.2712 271.072 22.2834 271.036 22.3077C270.84 22.4293 270.62 22.4415 270.413 22.5023C270.254 22.5388 270.095 22.551 269.936 22.5388C269.9 22.5388 269.863 22.5266 269.839 22.5023C269.79 22.4537 269.741 22.3928 269.704 22.3442C269.668 22.2955 269.643 22.2347 269.619 22.1739C269.619 22.1617 269.606 22.1374 269.606 22.1253V22.1131C269.594 22.0888 269.594 22.0644 269.582 22.0401C269.582 22.0401 269.582 22.0401 269.582 22.0279C269.582 22.0158 269.57 22.0036 269.57 21.9915C269.558 21.955 269.545 21.9185 269.558 21.882C269.57 21.7725 269.668 21.6995 269.778 21.7239C270.144 21.7117 270.51 21.7117 270.877 21.7117C270.95 21.7117 270.975 21.6874 270.975 21.6144C270.975 21.6022 270.975 21.5779 270.963 21.5779V21.5657C270.95 21.5414 270.926 21.5293 270.889 21.5293C270.523 21.4563 270.168 21.3833 269.802 21.2982L269.692 21.2738C269.631 21.2617 269.606 21.2495 269.606 21.2252C269.606 21.213 269.606 21.1887 269.619 21.14C269.655 21.0062 269.68 20.8724 269.729 20.7508C269.814 20.4589 269.875 20.1548 269.9 19.8386C269.936 19.6075 269.961 19.3764 269.961 19.1331C269.961 19.1088 269.961 19.0966 269.961 19.0723C269.961 19.0601 269.961 19.048 269.949 19.0358C269.949 19.0236 269.936 19.0115 269.924 18.9993C269.912 18.975 269.887 18.9628 269.863 18.9385C269.374 18.5493 268.886 18.16 268.397 17.7587C268.348 17.7222 268.299 17.6735 268.263 17.6249C268.263 17.6249 268.263 17.6249 268.263 17.6127C268.214 17.5154 268.165 17.4181 268.116 17.3208C268.067 17.2235 268.018 17.1262 267.957 17.0167C267.957 17.0045 267.945 17.0045 267.945 16.9924V16.9802C267.933 16.9316 267.945 16.8829 267.994 16.8464C268.25 16.5788 268.507 16.3112 268.764 16.0558C268.898 15.9463 269.045 15.8369 269.191 15.7517C269.228 15.7396 269.264 15.7274 269.301 15.7274C269.509 15.7152 269.716 15.7517 269.912 15.8369C269.949 15.849 269.985 15.8733 270.01 15.9098C270.01 15.922 270.022 15.9342 270.022 15.9463C270.022 15.9585 270.034 15.9707 270.034 15.9828C270.071 16.1409 270.107 16.2991 270.144 16.445C270.144 16.4693 270.156 16.4815 270.156 16.4937C270.156 16.5058 270.168 16.518 270.181 16.5423C270.205 16.5788 270.217 16.6031 270.254 16.6275C270.425 16.7856 270.584 16.9437 270.743 17.114C270.791 17.1748 270.877 17.2113 270.95 17.1991H271.415C271.476 17.1991 271.5 17.1991 271.524 17.2113C271.549 17.2235 271.549 17.26 271.549 17.3208V18.0627C271.549 18.1235 271.561 18.1722 271.586 18.2209C271.586 18.233 271.598 18.2452 271.61 18.2573C271.708 18.4276 271.793 18.5979 271.879 18.7682C271.879 18.7682 271.879 18.7682 271.879 18.7804C271.928 18.8533 272.025 18.8898 272.111 18.8533C272.147 18.829 272.135 18.7925 272.135 18.7682V18.4155C272.135 18.1357 272.147 17.856 272.135 17.5762C272.123 17.4667 272.172 17.3573 272.257 17.2843C272.416 17.1505 272.575 17.0045 272.709 16.8586C272.88 16.6761 273.015 16.4572 273.003 16.1896V15.9342L272.966 15.922C272.868 16.0315 272.783 16.1531 272.709 16.2747C272.612 16.3964 272.514 16.5058 272.428 16.6396C272.38 16.7126 272.294 16.7491 272.209 16.7369C272.062 16.7248 272.013 16.7126 271.989 16.6396C271.976 16.6031 271.964 16.5667 271.952 16.5058C271.915 16.3477 271.879 16.1896 271.842 16.0436C271.842 16.0193 271.83 15.995 271.818 15.9828C271.805 15.9585 271.781 15.9342 271.757 15.922C271.219 15.6422 270.694 15.3625 270.156 15.0827C269.912 14.9611 269.668 14.8273 269.423 14.7057C269.387 14.6935 269.362 14.6692 269.35 14.6327C269.338 14.6084 269.338 14.5962 269.338 14.5719V13.4164C269.338 13.3556 269.362 13.3069 269.411 13.2704C270.034 12.7839 270.657 12.3095 271.28 11.823C271.341 11.7622 271.427 11.7622 271.5 11.7987C271.976 12.0541 272.453 12.3095 272.942 12.5649C273.174 12.6866 273.394 12.8082 273.626 12.9298C273.687 12.9663 273.784 12.9663 273.846 12.9298C274.163 12.7596 274.493 12.5893 274.811 12.419C275.202 12.2122 275.593 12.0054 275.971 11.7987C276.032 11.7622 276.118 11.7622 276.167 11.823C276.79 12.3095 277.413 12.7961 278.036 13.2704C278.06 13.2826 278.072 13.3069 278.085 13.3191C278.097 13.3312 278.097 13.3434 278.109 13.3556C278.121 13.392 278.134 13.4164 278.121 13.4529C278.121 13.8178 278.121 14.1705 278.121 14.5354C278.134 14.6205 278.085 14.6935 277.999 14.73C277.242 15.1192 276.472 15.5206 275.715 15.922C275.666 15.9463 275.629 15.995 275.617 16.0558C275.568 16.2504 275.519 16.445 275.483 16.6518C275.483 16.7004 275.434 16.7369 275.385 16.7369C275.104 16.7734 275.104 16.7734 274.933 16.5423C274.798 16.372 274.664 16.1896 274.53 16.0193C274.517 15.995 274.505 15.9585 274.444 15.9707C274.444 16.1896 274.42 16.3964 274.517 16.6031C274.53 16.6396 274.554 16.664 274.579 16.7004C274.591 16.7248 274.615 16.7613 274.64 16.7856C274.774 16.968 274.945 17.114 275.116 17.2721L275.128 17.2843C275.177 17.3086 275.214 17.3451 275.25 17.3938C275.263 17.4059 275.275 17.4302 275.275 17.4424C275.287 17.4546 275.287 17.4667 275.299 17.4911C275.324 17.564 275.336 17.637 275.336 17.71C275.324 18.0749 275.336 18.4398 275.336 18.8047C275.336 18.829 275.324 18.8655 275.336 18.8898C275.336 18.902 275.36 18.9142 275.385 18.9142C275.458 18.9142 275.531 18.9506 275.58 18.8533C275.678 18.6587 275.788 18.452 275.898 18.2573C275.922 18.2087 275.922 18.16 275.922 18.1114V17.3694C275.922 17.2356 275.922 17.2356 276.057 17.2356H276.545C276.594 17.2356 276.655 17.2235 276.692 17.187C276.887 16.9924 277.071 16.7856 277.278 16.6153C277.315 16.591 277.315 16.5545 277.315 16.518C277.352 16.3477 277.401 16.1774 277.437 16.0071C277.449 15.9707 277.449 15.922 277.498 15.9098C277.645 15.849 277.791 15.8125 277.938 15.776C278.243 15.7274 278.463 15.9098 278.671 16.0801C278.952 16.3356 279.209 16.6275 279.477 16.9072C279.477 16.9072 279.49 16.9194 279.49 16.9316L279.502 16.9437C279.465 16.9559 279.465 16.9924 279.441 17.0289Z" fill="#2B2B2B"/>
<path d="M272.856 40.9538L268.971 47.6558H268.947H268.935C268.922 47.6315 268.898 47.6071 268.886 47.5828L265.038 40.9782C265.16 40.9295 272.514 40.9173 272.856 40.9538ZM277.694 48.2031L273.833 41.562C273.821 41.5498 273.809 41.5255 273.797 41.5133H273.785H273.76L269.875 48.2153C270.278 48.2518 277.572 48.2396 277.694 48.2031ZM278.622 47.6923L282.531 40.9417H274.701L278.622 47.6923ZM277.694 49.2613H269.875L273.797 55.9998L277.694 49.2613Z" fill="#2B2B2B"/>
<path d="M284.352 23.196L288.249 16.4575L292.158 23.1838C292.036 23.2203 284.743 23.2324 284.352 23.196ZM254.421 39.3731L258.331 32.6225H250.5L254.421 39.3731ZM293.111 39.3731L297.02 32.6225H289.189L293.111 39.3731ZM263.156 39.8718L259.247 33.1455L255.35 39.8839C255.753 39.9204 263.034 39.9082 263.156 39.8718ZM259.235 16.494C259.088 16.6886 255.387 23.0986 255.362 23.2081H263.132C263.083 23.0622 259.332 16.6035 259.235 16.494ZM267.994 32.6225H260.175L264.097 39.3731L267.994 32.6225ZM279.514 32.6225L283.435 39.3731L287.345 32.6225H279.514ZM284.364 39.8961H292.195L288.273 33.1455L284.364 39.8961ZM263.156 24.2542H255.338L259.259 30.9926L263.156 24.2542ZM292.17 24.2542H284.352L288.273 30.9926L292.17 24.2542ZM254.409 24.765L250.5 31.5156H258.319L254.409 24.765ZM267.994 31.5035L264.072 24.765L260.175 31.5035H267.994ZM279.514 31.5035H287.333L283.411 24.765L279.514 31.5035ZM297.008 31.5035L293.086 24.765L289.189 31.5035H297.008ZM269.863 32.5738L273.785 39.3123L277.682 32.5738H269.863ZM272.832 39.8353C272.758 39.6528 269.008 33.1941 268.922 33.1212L265.038 39.8353H272.832ZM278.61 33.0968L274.713 39.8353H282.531L278.61 33.0968Z" fill="#2B2B2B"/>
<path d="M265.038 3.1866C265.318 3.22309 265.538 3.27174 265.722 3.29607C266.235 3.36905 266.613 3.45419 266.723 3.47852C266.907 3.51501 267.053 3.5515 267.261 3.60015C267.994 3.79476 268.226 3.94072 268.226 3.94072C268.263 3.95288 268.299 3.96505 268.336 4.00154C268.36 4.02586 268.385 4.06235 268.385 4.09884C268.385 4.12317 268.373 4.1475 268.36 4.17182C268.324 4.20831 268.287 4.23264 268.238 4.23264C268.177 4.25696 268.116 4.29345 268.067 4.32994C267.896 4.46374 267.835 4.69484 267.921 4.88945C268.018 5.0719 268.14 5.25435 268.287 5.40031C268.446 5.58276 268.617 5.69223 268.873 5.64357C268.983 5.61925 269.106 5.6679 269.216 5.58276C269.387 5.44896 269.545 5.32733 269.619 5.12055C269.68 4.93811 269.716 4.74349 269.716 4.53672C269.704 3.89207 269.716 3.23525 269.729 2.5906C269.79 2.79738 269.863 2.99199 269.9 3.19876C269.961 3.45419 270.058 3.69746 270.181 3.92856C270.278 4.11101 270.376 4.29345 270.498 4.4759C270.584 4.59754 270.681 4.707 270.791 4.81647C271.085 5.10839 271.512 5.21786 271.915 5.09623C271.976 5.08407 272.038 5.04758 272.086 5.01109C272.331 4.81647 272.49 4.53672 272.526 4.22048C272.563 4.02586 272.465 3.84341 272.294 3.74611C272.209 3.69746 272.111 3.66097 272.013 3.63664C271.952 3.62448 271.891 3.61231 271.83 3.58799C271.793 3.57582 271.744 3.56366 271.732 3.51501C271.72 3.46635 271.769 3.42986 271.805 3.40554C272.404 3.04064 272.795 2.49329 273.149 1.90946C273.308 1.66619 273.43 1.3986 273.54 1.13101C273.626 0.912073 273.699 0.680972 273.736 0.462033C273.736 0.401217 273.748 0.340401 273.772 0.291748C273.809 0.291748 273.821 0.316075 273.821 0.340401C273.882 0.729625 274.004 1.11885 274.175 1.47158C274.456 2.04326 274.823 2.57844 275.263 3.02848C275.385 3.15011 275.531 3.25958 275.678 3.35689C275.702 3.36905 275.727 3.38121 275.751 3.40554C275.8 3.42986 275.849 3.45419 275.837 3.51501C275.825 3.57582 275.764 3.58799 275.715 3.60015C275.58 3.63664 275.458 3.67313 275.336 3.72178C275.153 3.7826 275.018 3.95288 275.031 4.1475C275.031 4.31778 275.079 4.50023 275.165 4.64619C275.25 4.77998 275.348 4.90162 275.47 4.99892C275.617 5.09623 275.788 5.14488 275.959 5.13272C276.216 5.14488 276.46 5.05974 276.668 4.90162C276.875 4.73133 277.058 4.52456 277.181 4.29345C277.339 4.03803 277.474 3.77044 277.572 3.49068C277.645 3.25958 277.706 3.02848 277.767 2.79738C277.779 2.74872 277.804 2.70007 277.816 2.62709C277.84 2.70007 277.84 2.77305 277.828 2.84603C277.828 3.47852 277.816 4.11101 277.84 4.74349C277.84 5.05974 277.999 5.36382 278.256 5.55843C278.341 5.63141 278.451 5.6679 278.549 5.65574C278.683 5.65574 278.805 5.65574 278.94 5.65574C279.013 5.65574 279.074 5.63141 279.123 5.58276C279.294 5.41247 279.441 5.24219 279.587 5.04758C279.746 4.80431 279.685 4.4759 279.453 4.31778C279.441 4.30562 279.428 4.30562 279.416 4.29345C279.355 4.25696 279.294 4.23264 279.233 4.19615C279.135 4.13533 279.135 4.07452 279.221 4.00154C279.282 3.95288 279.355 3.91639 279.441 3.89207C279.917 3.70962 280.406 3.56366 280.907 3.46635C281.42 3.35689 281.933 3.29607 282.446 3.21093C282.483 3.21093 282.519 3.21093 282.556 3.21093C282.421 3.27174 282.287 3.34472 282.165 3.42986C281.786 3.68529 281.505 4.02586 281.224 4.36643C280.907 4.76782 280.613 5.18137 280.369 5.63141C280.161 5.98415 279.978 6.34904 279.807 6.73827C279.636 7.13965 279.465 7.5532 279.27 7.94243C279.233 8.01541 279.172 8.06406 279.099 8.08839C277.376 8.63573 275.654 9.17092 273.931 9.71826C273.833 9.75475 273.723 9.74259 273.613 9.7061C271.903 9.15875 270.193 8.62357 268.483 8.08839C268.397 8.06406 268.336 8.00324 268.299 7.93026C268.104 7.54104 267.933 7.13965 267.762 6.7261C267.591 6.31255 267.395 5.97198 267.2 5.60708C267.127 5.48545 267.053 5.36382 266.98 5.23002C266.675 4.73133 266.32 4.26913 265.917 3.84342C265.661 3.60015 265.38 3.38121 265.074 3.22309C265.074 3.22309 265.001 3.1866 265.001 3.17444C264.976 3.17444 265.013 3.17444 265.038 3.1866Z" fill="#2B2B2B"/>
<path d="M278.036 3.61262C278.036 3.97752 278.024 4.33026 278.036 4.69515C278.036 4.92625 278.133 5.14519 278.305 5.29115C278.366 5.35197 278.451 5.38846 278.537 5.38846C278.598 5.37629 278.671 5.37629 278.732 5.38846C278.854 5.40062 278.976 5.35197 279.038 5.25466C279.135 5.13303 279.233 5.0114 279.318 4.88977C279.416 4.7803 279.392 4.61001 279.282 4.5127C279.257 4.50054 279.233 4.47621 279.209 4.47621C279.135 4.43972 279.074 4.40324 279.013 4.36675C278.854 4.26944 278.818 4.07483 278.903 3.91671C278.928 3.88022 278.952 3.85589 278.976 3.83156C279.074 3.74642 279.184 3.6856 279.318 3.64911C279.77 3.47883 280.247 3.33287 280.723 3.23556C281.298 3.11393 281.872 3.02879 282.446 2.95581C282.507 2.95581 282.568 2.95581 282.617 2.96797C282.715 2.9923 282.776 3.06528 282.788 3.16258C282.8 3.25989 282.764 3.34503 282.678 3.39369C282.666 3.40585 282.641 3.41801 282.617 3.41801C282.263 3.56397 281.945 3.80724 281.688 4.09915C281.224 4.61001 280.833 5.16952 280.491 5.76552C280.235 6.22772 279.99 6.71425 279.795 7.21294C279.673 7.4927 279.563 7.78462 279.416 8.06437C279.367 8.186 279.257 8.27115 279.135 8.30764C277.425 8.84282 275.702 9.39016 273.992 9.93751C273.833 9.98616 273.662 9.98616 273.503 9.93751C271.793 9.39016 270.083 8.84282 268.36 8.30764C268.226 8.27115 268.128 8.186 268.067 8.05221C267.859 7.65082 267.688 7.22511 267.517 6.81156C267.359 6.42233 267.151 6.0696 266.955 5.71687C266.894 5.6074 266.833 5.51009 266.76 5.40062C266.418 4.82895 266.003 4.30593 265.526 3.84373C265.343 3.67344 265.135 3.52748 264.891 3.44234C264.866 3.43018 264.842 3.41801 264.818 3.40585C264.732 3.3572 264.683 3.25989 264.708 3.16258C264.72 3.06528 264.793 2.9923 264.879 2.98014C265.001 2.95581 265.123 2.95581 265.245 2.9923C265.929 3.10177 266.613 3.19907 267.285 3.36936C267.64 3.46667 267.994 3.5883 268.336 3.73426C268.421 3.75858 268.507 3.80724 268.58 3.88022C268.69 4.00185 268.678 4.1843 268.568 4.30593C268.507 4.36675 268.434 4.4154 268.36 4.45189C268.128 4.56136 268.104 4.67083 268.226 4.88977C268.336 5.07221 268.47 5.23034 268.629 5.36413C268.654 5.38846 268.69 5.40062 268.727 5.40062C268.776 5.40062 268.812 5.40062 268.861 5.40062C268.959 5.38846 269.044 5.42495 269.142 5.35197C269.264 5.26683 269.362 5.14519 269.423 4.99923C269.472 4.85328 269.496 4.68299 269.509 4.52487C269.496 4.01401 269.509 3.50316 269.509 2.9923C269.509 2.8585 269.509 2.73687 269.496 2.60308C269.484 2.5301 269.496 2.45712 269.521 2.38414C269.545 2.27467 269.631 2.18953 269.741 2.18953C269.851 2.18953 269.936 2.26251 269.961 2.37197C270.022 2.60308 270.095 2.82201 270.144 3.05312C270.193 3.29638 270.278 3.52748 270.4 3.74642C270.535 4.0505 270.718 4.34242 270.95 4.58568C271.158 4.80462 271.463 4.90193 271.757 4.85328C271.854 4.84111 271.94 4.80462 272.013 4.73164C272.172 4.58568 272.27 4.40324 272.294 4.1843C272.306 4.03834 272.294 3.97752 272.16 3.90454C272.05 3.84373 271.928 3.80724 271.805 3.78291C271.744 3.77075 271.683 3.74642 271.622 3.70993C271.476 3.62479 271.439 3.43018 271.524 3.29638C271.537 3.28422 271.549 3.27205 271.561 3.24773C271.598 3.21124 271.634 3.17475 271.683 3.15042C271.903 3.01663 272.099 2.8585 272.27 2.67606C272.722 2.17736 273.088 1.59353 273.332 0.961038C273.43 0.7421 273.491 0.510998 273.516 0.279897C273.516 0.194754 273.552 0.109611 273.626 0.0609585C273.736 -0.0363474 273.907 -0.012021 274.004 0.0974482C274.029 0.133938 274.053 0.182591 274.065 0.219081C274.212 1.16781 274.688 1.9341 275.299 2.65173C275.47 2.8585 275.678 3.02879 275.91 3.17475C275.935 3.18691 275.947 3.19907 275.959 3.21124C276.057 3.28422 276.106 3.40585 276.093 3.52748C276.069 3.64911 275.983 3.73426 275.873 3.77075C275.8 3.79507 275.727 3.80724 275.654 3.83156C275.58 3.85589 275.495 3.88022 275.434 3.91671C275.324 3.9532 275.25 4.07483 275.287 4.1843C275.324 4.4154 275.446 4.63434 275.629 4.7803C275.678 4.81679 275.727 4.84111 275.788 4.84111C276.081 4.90193 276.387 4.81679 276.606 4.61001C276.741 4.48838 276.851 4.35458 276.936 4.19646C277.156 3.84373 277.327 3.4545 277.437 3.05312C277.486 2.83418 277.559 2.60308 277.62 2.38414C277.645 2.26251 277.743 2.17736 277.865 2.18953C277.975 2.20169 278.06 2.27467 278.085 2.38414C278.097 2.43279 278.097 2.49361 278.097 2.54226C278.048 2.90716 278.048 3.61262 278.036 3.61262ZM265.013 3.18691C265.025 3.19907 265.673 3.5883 265.905 3.84373C266.308 4.26944 266.662 4.73164 266.968 5.23034C267.041 5.35197 267.126 5.4736 267.188 5.6074C267.383 5.97229 267.591 6.33719 267.75 6.72641C267.908 7.11564 268.092 7.54135 268.287 7.93057C268.324 8.00355 268.385 8.06437 268.47 8.0887C270.181 8.62388 271.879 9.17123 273.589 9.70641C273.687 9.7429 273.797 9.7429 273.907 9.71857C275.617 9.17123 277.339 8.62388 279.05 8.0887C279.123 8.06437 279.196 8.01572 279.221 7.94274C279.416 7.55351 279.587 7.15213 279.758 6.73858C279.917 6.36152 280.113 5.99662 280.32 5.63172C280.565 5.18168 280.846 4.75597 281.163 4.36675C281.444 4.02618 281.725 3.6856 282.104 3.43018C282.226 3.34503 282.36 3.27205 282.495 3.21124C282.458 3.21124 282.421 3.21124 282.385 3.21124C281.872 3.29638 281.359 3.3572 280.846 3.46667C280.345 3.56397 279.856 3.70993 279.38 3.89238C279.306 3.91671 279.233 3.9532 279.16 4.00185C279.074 4.07483 279.074 4.13564 279.172 4.19646C279.233 4.23295 279.294 4.25728 279.355 4.29377C279.612 4.43972 279.697 4.75597 279.551 5.0114C279.551 5.02356 279.538 5.03572 279.526 5.03572C279.392 5.23034 279.233 5.41278 279.074 5.57091C279.025 5.61956 278.964 5.64389 278.891 5.64389C278.757 5.64389 278.634 5.64389 278.5 5.64389C278.39 5.64389 278.28 5.6074 278.207 5.54658C277.95 5.35197 277.804 5.04789 277.791 4.73164C277.767 4.09915 277.791 3.46667 277.779 2.83418C277.791 2.7612 277.791 2.68822 277.767 2.61524C277.743 2.68822 277.73 2.73687 277.718 2.78552C277.657 3.01663 277.608 3.25989 277.523 3.47883C277.413 3.75858 277.291 4.02618 277.132 4.2816C276.997 4.5127 276.826 4.71948 276.619 4.88977C276.423 5.04789 276.179 5.13303 275.922 5.12087C275.751 5.13303 275.58 5.08438 275.434 4.98707C275.311 4.88977 275.214 4.76813 275.128 4.63434C275.043 4.47621 274.994 4.30593 274.994 4.12348C274.982 3.92887 275.116 3.75858 275.299 3.69777C275.421 3.64911 275.556 3.61262 275.678 3.57613C275.727 3.56397 275.788 3.55181 275.8 3.49099C275.812 3.43018 275.751 3.40585 275.715 3.38152C275.69 3.36936 275.666 3.3572 275.641 3.33287C275.495 3.23556 275.348 3.1261 275.226 3.00446C274.786 2.54226 274.42 2.01924 274.139 1.44757C273.955 1.09483 273.833 0.717773 273.784 0.316387C273.784 0.29206 273.772 0.267734 273.736 0.267734C273.711 0.316387 273.699 0.377203 273.699 0.438019C273.65 0.66912 273.589 0.900222 273.503 1.11916C273.406 1.38675 273.271 1.65434 273.113 1.89761C272.758 2.46928 272.367 3.02879 271.769 3.39369C271.732 3.41801 271.683 3.44234 271.695 3.50316C271.708 3.56397 271.757 3.56397 271.793 3.57613C271.854 3.5883 271.915 3.61262 271.976 3.62479C272.074 3.64911 272.172 3.6856 272.257 3.73426C272.428 3.8194 272.526 4.01401 272.49 4.20862C272.453 4.52487 272.294 4.80462 272.05 4.99923C272.001 5.03572 271.94 5.07221 271.879 5.08438C271.488 5.20601 271.048 5.09654 270.767 4.80462C270.657 4.70732 270.559 4.58568 270.474 4.46405C270.352 4.29377 270.254 4.11132 270.156 3.91671C270.034 3.6856 269.936 3.44234 269.875 3.18691C269.839 2.98014 269.765 2.78552 269.704 2.57875C269.692 3.23556 269.692 3.88022 269.692 4.52487C269.692 4.71948 269.655 4.91409 269.594 5.1087C269.521 5.31548 269.362 5.44927 269.191 5.57091C269.081 5.65605 268.971 5.61956 268.849 5.63172C268.605 5.68038 268.421 5.57091 268.263 5.38846C268.116 5.2425 267.994 5.07221 267.896 4.8776C267.798 4.68299 267.859 4.45189 268.043 4.31809C268.092 4.2816 268.153 4.24511 268.214 4.22079C268.287 4.1843 268.373 4.15997 268.373 4.07483C268.373 3.98969 268.275 3.9532 268.202 3.91671C267.859 3.77075 267.517 3.64911 267.151 3.56397C266.674 3.44234 266.198 3.3572 265.709 3.28422C265.538 3.25989 265.013 3.16258 265.013 3.18691Z" fill="#2B2B2B"/>
<rect opacity="0.3" x="309.5" y="27" width="238" height="1" fill="url(#paint0_linear)"/>
<rect opacity="0.3" x="0.5" y="27" width="238" height="1" fill="url(#paint1_linear)"/>
<defs>
<linearGradient id="paint0_linear" x1="547.5" y1="26.4946" x2="309.5" y2="26.5832" gradientUnits="userSpaceOnUse">
<stop stop-color="#C4C4C4" stop-opacity="0"/>
<stop offset="1" stop-color="#C4C4C4"/>
</linearGradient>
<linearGradient id="paint1_linear" x1="238.5" y1="26.4946" x2="0.49966" y2="26.5832" gradientUnits="userSpaceOnUse">
<stop stop-color="#C4C4C4"/>
<stop offset="1" stop-color="#C4C4C4" stop-opacity="0"/>
</linearGradient>
</defs>
</svg>
