<svg width="20" height="20" viewBox="0 0 20 20" fill="none" xmlns="http://www.w3.org/2000/svg">
<path d="M1.59716 10.5039C1.52289 10.3466 1.48438 10.1749 1.48438 10.001C1.48438 9.82706 1.52289 9.65531 1.59716 9.49805C3.44872 5.5957 6.2456 3.63281 9.9995 3.63281C6.2456 3.63281 3.44872 5.5957 1.59716 9.49805C1.52289 9.65531 1.48438 9.82706 1.48438 10.001C1.48438 10.1749 1.52289 10.3466 1.59716 10.5039C3.44872 14.4043 6.24755 16.3672 9.9995 16.3672C6.24755 16.3672 3.44872 14.4043 1.59716 10.5039V10.5039Z" fill="#E6F7FF"/>
<path d="M18.4018 9.49609C16.5503 5.5957 13.7515 3.63281 9.9995 3.63281C6.2456 3.63281 3.44872 5.5957 1.59716 9.49805C1.52289 9.65531 1.48438 9.82706 1.48438 10.001C1.48438 10.1749 1.52289 10.3466 1.59716 10.5039C3.44872 14.4043 6.24755 16.3672 9.9995 16.3672C13.7534 16.3672 16.5503 14.4043 18.4018 10.502C18.5522 10.1855 18.5522 9.81836 18.4018 9.49609V9.49609ZM9.9995 14.9609C6.84911 14.9609 4.54247 13.3633 2.91552 10C4.54247 6.63672 6.84911 5.03906 9.9995 5.03906C13.1499 5.03906 15.4565 6.63672 17.0835 10C15.4585 13.3633 13.1518 14.9609 9.9995 14.9609Z" fill="#8E8E8E"/>
<path d="M9.92188 6.5625C8.02344 6.5625 6.48438 8.10156 6.48438 10C6.48438 11.8984 8.02344 13.4375 9.92188 13.4375C11.8203 13.4375 13.3594 11.8984 13.3594 10C13.3594 8.10156 11.8203 6.5625 9.92188 6.5625ZM9.92188 12.1875C8.71289 12.1875 7.73438 11.209 7.73438 10C7.73438 8.79102 8.71289 7.8125 9.92188 7.8125C11.1309 7.8125 12.1094 8.79102 12.1094 10C12.1094 11.209 11.1309 12.1875 9.92188 12.1875Z" fill="#8E8E8E"/>
</svg>
