<svg width="48" height="48" viewBox="0 0 48 48" fill="none" xmlns="http://www.w3.org/2000/svg">
<path d="M26.925 30.7499C24.45 29.9999 24 28.5749 24 27.7499V26.2499C25.4897 24.8292 26.5323 23.0046 27 20.9999C28.875 20.9999 30 18.7499 30 16.4999C30 15.8999 30 13.4999 28.5 13.4999C32.25 2.62495 21.3 -1.50005 13.5 3.74995C10.2 3.74995 9.3 8.69995 10.5 13.4999C9 13.4999 9 15.8999 9 16.4999C9 18.7499 10.125 20.9999 12 20.9999C12.4718 23.003 13.5138 24.8265 15 26.2499V27.7499C15 28.9499 14.625 30.4499 8.55 31.6499C2.475 32.8499 1.5 38.2499 1.5 38.2499H25.725" stroke="#FFA200" stroke-miterlimit="10" stroke-linecap="round" stroke-linejoin="round"/>
<path d="M40.5 33L35.25 39L32.25 36" stroke="#FFA200" stroke-miterlimit="10" stroke-linecap="round" stroke-linejoin="round"/>
<path d="M36 46.5C41.799 46.5 46.5 41.799 46.5 36C46.5 30.201 41.799 25.5 36 25.5C30.201 25.5 25.5 30.201 25.5 36C25.5 41.799 30.201 46.5 36 46.5Z" stroke="#FFA200" stroke-miterlimit="10" stroke-linecap="round" stroke-linejoin="round"/>
</svg>
