<svg width="48" height="48" viewBox="0 0 48 48" fill="none" xmlns="http://www.w3.org/2000/svg">
<path d="M1.5 13.5V43.5H46.5V13.5M1.5 4.5H46.5V13.5H1.5V4.5Z" stroke="#FFA200" stroke-linecap="round" stroke-linejoin="round"/>
<path d="M6 9.75C6.41421 9.75 6.75 9.41421 6.75 9C6.75 8.58579 6.41421 8.25 6 8.25C5.58579 8.25 5.25 8.58579 5.25 9C5.25 9.41421 5.58579 9.75 6 9.75Z" stroke="#FFA200" stroke-linecap="round" stroke-linejoin="round"/>
<path d="M11.25 9.75C11.6642 9.75 12 9.41421 12 9C12 8.58579 11.6642 8.25 11.25 8.25C10.8358 8.25 10.5 8.58579 10.5 9C10.5 9.41421 10.8358 9.75 11.25 9.75Z" stroke="#FFA200" stroke-linecap="round" stroke-linejoin="round"/>
<path d="M16.5 9.75C16.9142 9.75 17.25 9.41421 17.25 9C17.25 8.58579 16.9142 8.25 16.5 8.25C16.0858 8.25 15.75 8.58579 15.75 9C15.75 9.41421 16.0858 9.75 16.5 9.75Z" stroke="#FFA200" stroke-linecap="round" stroke-linejoin="round"/>
<path d="M31.5 22.5L21 33L15.75 27.75" stroke="#FFA200" stroke-linecap="round" stroke-linejoin="round"/>
</svg>
