<svg width="48" height="48" viewBox="0 0 48 48" fill="none" xmlns="http://www.w3.org/2000/svg">
<path d="M21 6H6V46.5H42V6H27" stroke="#FFA200" stroke-miterlimit="10" stroke-linecap="round" stroke-linejoin="round"/>
<path d="M21 1.5H27V9H21V1.5Z" stroke="#FFA200" stroke-miterlimit="10" stroke-linecap="round" stroke-linejoin="round"/>
<path d="M27 42H15M33 36H15H33Z" stroke="#FFA200" stroke-miterlimit="10" stroke-linecap="round" stroke-linejoin="round"/>
<path d="M24 23.25C26.4853 23.25 28.5 21.2353 28.5 18.75C28.5 16.2647 26.4853 14.25 24 14.25C21.5147 14.25 19.5 16.2647 19.5 18.75C19.5 21.2353 21.5147 23.25 24 23.25Z" stroke="#FFA200" stroke-miterlimit="10" stroke-linecap="round" stroke-linejoin="round"/>
<path d="M31.5 30.75C31.5 28.7609 30.7098 26.8532 29.3033 25.4467C27.8968 24.0402 25.9891 23.25 24 23.25C22.0109 23.25 20.1032 24.0402 18.6967 25.4467C17.2902 26.8532 16.5 28.7609 16.5 30.75H31.5Z" stroke="#FFA200" stroke-miterlimit="10" stroke-linecap="round" stroke-linejoin="round"/>
</svg>
