<svg xmlns="http://www.w3.org/2000/svg" viewBox="0 0 390 470" height="470" width="390"><style>
@keyframes a0_so { 0% { stroke-opacity: 1; } 62.5% { stroke-opacity: 1; } 95% { stroke-opacity: 0; } 100% { stroke-opacity: 0; } }
@keyframes a0_fo { 0% { fill-opacity: 0; } 62.5% { fill-opacity: 0; animation-timing-function: cubic-bezier(.2,.6,.4,1); } 80% { fill-opacity: 1; animation-timing-function: cubic-bezier(.6,.1,.7,.5); } 95% { fill-opacity: 0; } 100% { fill-opacity: 0; } }
@keyframes a0_da { 0% { stroke-dasharray: 0px 767px; } 7.5% { stroke-dasharray: 30px 737px; } 42.5% { stroke-dasharray: 30px 737px; animation-timing-function: steps(1); } 45% { stroke-dasharray: 767px 767px; } 62.5% { stroke-dasharray: 767px 767px; } 100% { stroke-dasharray: 767px 767px; } }
@keyframes a0_do { 0% { stroke-dashoffset: -30px; } 7.5% { stroke-dashoffset: 737px; animation-timing-function: cubic-bezier(.2,.6,.4,1); } 42.5% { stroke-dashoffset: 650px; animation-timing-function: steps(1); } 45% { stroke-dashoffset: 767px; animation-timing-function: cubic-bezier(.2,.5,.5,.9); } 62.5% { stroke-dashoffset: 580px; } 100% { stroke-dashoffset: 580px; } }
@keyframes a1_so { 0% { stroke-opacity: 1; } 62.5% { stroke-opacity: 1; } 95% { stroke-opacity: 0; } 100% { stroke-opacity: 0; } }
@keyframes a1_fo { 0% { fill-opacity: 0; } 62.5% { fill-opacity: 0; animation-timing-function: cubic-bezier(.2,.6,.4,1); } 80% { fill-opacity: 1; animation-timing-function: cubic-bezier(.6,.1,.7,.5); } 95% { fill-opacity: 0; } 100% { fill-opacity: 0; } }
@keyframes a1_da { 0% { stroke-dasharray: 0px 767px; } 7.5% { stroke-dasharray: 30px 737px; } 42.5% { stroke-dasharray: 30px 737px; animation-timing-function: steps(1); } 45% { stroke-dasharray: 767px 767px; } 62.5% { stroke-dasharray: 767px 767px; } 100% { stroke-dasharray: 767px 767px; } }
@keyframes a1_do { 0% { stroke-dashoffset: -30px; } 7.5% { stroke-dashoffset: 737px; animation-timing-function: cubic-bezier(.2,.6,.4,1); } 42.5% { stroke-dashoffset: 650px; animation-timing-function: steps(1); } 45% { stroke-dashoffset: 767px; animation-timing-function: cubic-bezier(.2,.5,.5,.9); } 62.5% { stroke-dashoffset: 580px; } 100% { stroke-dashoffset: 580px; } }
@keyframes a2_so { 0% { stroke-opacity: 1; } 62.5% { stroke-opacity: 1; } 95% { stroke-opacity: 0; } 100% { stroke-opacity: 0; } }
@keyframes a2_fo { 0% { fill-opacity: 0; } 62.5% { fill-opacity: 0; animation-timing-function: cubic-bezier(.2,.6,.4,1); } 80% { fill-opacity: 1; animation-timing-function: cubic-bezier(.6,.1,.7,.5); } 95% { fill-opacity: 0; } 100% { fill-opacity: 0; } }
@keyframes a2_da { 0% { stroke-dasharray: 0px 1578.25px; } 7.5% { stroke-dasharray: 100px 1478.25px; } 42.5% { stroke-dasharray: 100px 1478.25px; animation-timing-function: steps(1); } 45% { stroke-dasharray: 1578.25px 1578.25px; } 62.5% { stroke-dasharray: 1578.25px 1578.25px; } 100% { stroke-dasharray: 1578.25px 1578.25px; } }
@keyframes a2_do { 0% { stroke-dashoffset: -100px; } 7.5% { stroke-dashoffset: 1478.2px; animation-timing-function: cubic-bezier(.2,.6,.4,1); } 42.5% { stroke-dashoffset: 1178.2px; animation-timing-function: steps(1); } 45% { stroke-dashoffset: 1578.2px; animation-timing-function: cubic-bezier(.2,.5,.5,.9); } 62.5% { stroke-dashoffset: 750px; } 100% { stroke-dashoffset: 750px; } }
@keyframes a3_so { 0% { stroke-opacity: 1; } 62.5% { stroke-opacity: 1; } 95% { stroke-opacity: 0; } 100% { stroke-opacity: 0; } }
@keyframes a3_fo { 0% { fill-opacity: 0; } 62.5% { fill-opacity: 0; animation-timing-function: cubic-bezier(.2,.6,.4,1); } 80% { fill-opacity: 1; animation-timing-function: cubic-bezier(.6,.1,.7,.5); } 95% { fill-opacity: 0; } 100% { fill-opacity: 0; } }
@keyframes a3_da { 0% { stroke-dasharray: 0px 507.24px; } 7.5% { stroke-dasharray: 50px 457.24px; } 42.5% { stroke-dasharray: 50px 457.24px; animation-timing-function: steps(1); } 45% { stroke-dasharray: 507.24px 507.24px; } 62.5% { stroke-dasharray: 507.24px 507.24px; } 100% { stroke-dasharray: 507.24px 507.24px; } }
@keyframes a3_do { 0% { stroke-dashoffset: -50px; } 7.5% { stroke-dashoffset: 457.2px; animation-timing-function: cubic-bezier(.2,.6,.4,1); } 42.5% { stroke-dashoffset: 407.2px; animation-timing-function: steps(1); } 45% { stroke-dashoffset: 507.2px; animation-timing-function: cubic-bezier(.2,.5,.5,.9); } 62.5% { stroke-dashoffset: 0px; } 100% { stroke-dashoffset: 0px; } }
</style><title>Gector preloder</title><path class="st0" d="M123.3 29.7c.1 0 .2 .1 .3 .1c1.3 .2 2.4 .4 3.4 .5c.8 .2 1.5 .3 2.2 .4c4.1 .6 7.1 1.3 8.1 1.5h.1c1.2 .2 2.2 .5 3.4 .8c.3 0 .6 .1 1 .2c6 1.6 7.9 2.8 7.9 2.8c.3 .1 .6 .2 .9 .5c.2 .2 .4 .5 .4 .8c0 .2-0.1 .4-0.2 .6c-0.3 .3-0.6 .5-1 .5c-0.5 .2-1 .5-1.4 .8c-1.4 1.1-1.9 3-1.2 4.6c.8 1.5 1.8 3 3 4.2c1.3 1.5 2.7 2.4 4.8 2c.3-0.1 .6-0.1 1-0.1c.6 0 1.2 .1 1.8-0.4l.1-0.1c1.3-1 2.6-2 3.2-3.7c.5-1.5 .8-3.1 .8-4.8c-0.1-5.3 0-10.7 .1-16c.1 .5 .3 1 .4 1.4c.4 1.2 .8 2.4 1 3.6c.5 2.1 1.3 4.1 2.3 6c.8 1.5 1.6 3 2.6 4.5c.7 1 1.5 1.9 2.4 2.8c2.4 2.4 5.9 3.3 9.2 2.3c.5-0.1 1-0.4 1.4-0.7c2-1.6 3.3-3.9 3.6-6.5c.3-1.6-0.5-3.1-1.9-3.9c-0.7-0.4-1.5-0.7-2.3-0.9c-0.5-0.1-1-0.2-1.5-0.4c0 0 0 0-0.1 0c-0.3-0.1-0.6-0.2-0.7-0.6c-0.1-0.4 .3-0.7 .6-0.9c4.9-3 8.1-7.5 11-12.3c1.3-2 2.3-4.2 3.2-6.4c.7-1.8 1.3-3.7 1.6-5.5c0-0.5 .1-1 .3-1.4c.3 0 .4 .2 .4 .4c.5 3.2 1.5 6.4 2.9 9.3c2.3 4.7 5.3 9.1 8.9 12.8c1 1 2.2 1.9 3.4 2.7c.2 .1 .4 .2 .6 .4c.4 .2 .8 .4 .7 .9c-0.1 .5-0.6 .6-0.9 .7h-0.1c-1.1 .3-2.1 .6-3.1 1c-1.5 .5-2.6 1.9-2.5 3.5c0 1.4 .4 2.9 1.1 4.1c.7 1.1 1.5 2.1 2.5 2.9c1.2 .8 2.6 1.2 4 1.1c2.1 .1 4.1-0.6 5.8-1.9c1.7-1.4 3.2-3.1 4.2-5c1.3-2.1 2.4-4.3 3.2-6.6c.6-1.9 1.1-3.8 1.6-5.7c0-0.1 .1-0.3 .1-0.5c.1-0.2 .2-0.5 .3-0.9c.2 .6 .2 1.2 .1 1.8c0 1.3 0 2.6 0 3.9c0 3.9-0.1 7.8 .1 11.7c0 2.6 1.3 5.1 3.4 6.7c.7 .6 1.6 .9 2.4 .8h3.2c.6 0 1.1-0.2 1.5-0.6c1.4-1.4 2.6-2.8 3.8-4.4c1.3-2 .8-4.7-1.1-6c-0.1 0-0.1-0.1-0.2-0.1c0 0-0.1 0-0.1-0.1c-0.3-0.1-0.5-0.3-0.8-0.4c-0.2-0.1-0.5-0.2-0.7-0.4c-0.8-0.5-0.8-1-0.1-1.6c.5-0.4 1.1-0.7 1.8-0.9c3.9-1.5 7.9-2.7 12-3.5c2.8-0.6 5.6-1 8.4-1.4c1.4-0.3 2.8-0.5 4.2-0.7h.9c-1.1 .5-2.2 1.1-3.2 1.8c-3.1 2.1-5.4 4.9-7.7 7.7c-2.6 3.3-5 6.7-7 10.4c-1.7 2.9-3.2 5.9-4.6 9.1c-0.2 .4-0.4 .9-0.5 1.3c-1.3 2.9-2.5 5.8-3.9 8.6c-0.3 .6-0.8 1-1.4 1.2c-7 2.2-14.1 4.5-21.1 6.7h-0.1c-7 2.2-14.1 4.5-21.1 6.7c-0.8 .3-1.7 .2-2.6-0.1c-14-4.5-28-8.9-42-13.3c-0.7-0.2-1.2-0.7-1.5-1.3c-1.6-3.2-3-6.5-4.4-9.9c-1.2-2.8-2.5-5.2-3.8-7.7c-0.3-0.5-0.5-1-0.8-1.5c-0.6-1-1.2-2-1.8-3.1c-2.5-4.1-5.4-7.9-8.7-11.4c-2.1-2-4.4-3.8-6.9-5.1c0 0-0.6-0.3-0.6-0.4Zm0 0c0 0 0 0 0 0c0 0 0 0 0 0c0 0-0.1 0-0.1 0c0 0 0 0 .1 0c0 0 0 0 0 0Zm165.4 106.5c0 2.5 0 5-0.2 7.6c-0.1 1.7-0.4 3.5-0.7 5.2c-0.2 1-0.3 1.9-0.5 2.9c-0.2 1.9-0.5 3.9-1 5.8c-1.1 4.1-2.5 8.1-4.3 11.9c-1.4 3-2.9 6-4.7 8.8c-0.1 .4-0.4 .7-0.7 .9c-0.1-0.3-0.3-0.5-0.5-0.8c-0.1-0.1-0.2-0.2-0.3-0.3c-3.3-4.7-6.6-9.3-9.9-13.9c-0.1-0.1-0.2-0.2-0.3-0.4c-0.2-0.4-0.5-0.7-1-0.5c-0.6 .3-0.6 .9-0.6 1.4c0 .1 0 .1 0 .2c.1 2.9 .2 5.7 .3 8.5c.1 2.8 .2 5.7 .3 8.5c.1 2.1 .2 4.2 .2 6.3l.1 .1c0 2.1 .1 4.2 .2 6.3c.1 .6-0.1 1.2-0.6 1.6c-3.8 3.9-7.7 7.7-11.5 11.6c-3.8 3.9-7.6 7.8-11.5 11.6c-0.2 .3-0.5 .5-0.9 .7l-5.6-9.3c-0.4 .2-0.4 .5-0.3 .8c0 .1 0 .1 0 .2v14c0 .7-0.3 1.3-0.8 1.8c-12.8 12-25.5 24-38.2 36l-0.6 .5c-0.3-0.1-0.7-0.4-0.9-0.7c-6.3-5.9-12.6-11.8-18.9-17.8c-6.2-5.9-12.5-11.8-18.8-17.7c-0.7-0.6-1.1-1.5-1-2.4v-14.6l-0.3-0.1c-0.8 1.1-1.5 2.3-2.2 3.5c-0.2 .4-0.4 .7-0.6 1c-0.7 1.1-1.4 2.2-2.1 3.4c-0.2 .4-0.5 .8-0.7 1.2c-0.4 .1-0.5-0.1-0.7-0.3c0 0-0.1-0.1-0.1-0.1c-7.8-7.8-15.5-15.6-23.2-23.4c-0.4-0.4-0.6-0.9-0.6-1.5c.1-3.3 .2-6.6 .3-9.9c.2-3.4 .3-6.7 .4-10c0-1.6 .1-3.2 .2-4.8c.1-1.6 .1-3.2 .2-4.8v-0.5c0-0.5 0-1.1-0.6-1.3c-0.5-0.1-0.7 .2-1 .6c0 .1 0 .1-0.1 .2l-9.9 14c-0.2 .4-0.5 .8-0.9 1.1c-0.4-0.2-0.5-0.4-0.7-0.7c0-0.1-0.1-0.1-0.1-0.2c-1.8-2.9-3.3-5.8-4.7-8.9c-1.8-3.8-3.2-7.7-4.3-11.8c-0.4-1.6-0.6-3.2-0.8-4.7c-0.2-1.3-0.4-2.6-0.7-3.9c-0.8-3.9-0.8-7.8-0.9-11.8c0-0.9 0-1.9 0-2.9c-0.1-4.4 .6-8.7 1.3-13c.2-1 .3-2.1 .5-3.1c.2-1.3 1-2.4 2.1-2.9c6.8-4 13.5-8 20.3-12.1c2.7-1.6 5.4-3.2 8.1-4.8l.5-0.3c.3-0.1 .5-0.5 .4-0.8c-0.1-0.3-0.5-0.2-0.8-0.1l-8.2 2l-20 4.7c-0.3 .1-0.7 .2-1 .1c.3-0.3 .7-0.6 1.1-0.8l44.1-27.9c.7-0.5 1.5-0.6 2.3-0.3c13.9 4.7 27.8 9.3 41.7 13.9c.9 .3 1.9 .3 2.9 0c13.9-4.7 27.8-9.3 41.7-13.9c.8-0.3 1.6-0.2 2.3 .3l44.1 27.9c.4 .2 .8 .4 1 .8c-0.4 .1-0.8 .1-1.2-0.1l-27.6-6.5c-0.1 0-0.2-0.1-0.3-0.1c-0.4-0.1-0.8-0.3-1 .1c-0.2 .4 .2 .7 .6 .9c0 .1 .1 .1 .2 .2c4.8 2.9 9.7 5.8 14.6 8.7c4.9 2.9 9.7 5.8 14.6 8.7c.6 .3 1 .9 1.1 1.6c.6 3.6 1.2 7.2 1.7 10.8c.2 1.9 .3 3.9 .2 5.9c0 .6 0 1.3 0 1.9Zm-47.2 7.4c.1-0.1 .1-0.2 .2-0.3c0-0.2 .1-0.3 .3-0.4l-0.1-0.1c0-0.1-0.1-0.2-0.1-0.2c-0.6-0.7-1.3-1.3-1.9-2c-1.5-1.7-3.1-3.3-4.7-4.8c-1.7-1.4-3.5-2.9-6-2.5c-1.2 .3-2.4 .6-3.6 1.1c-0.3 .1-0.4 .3-0.4 .6c-0.1 .1-0.1 .1-0.1 .2c-0.2 .7-0.3 1.4-0.5 2.1c-0.2 .7-0.4 1.4-0.5 2.1c0 .3 0 .6-0.3 .8c-1.2 1-2.3 2.2-3.4 3.3c-0.5 .5-0.9 .9-1.4 1.4c-0.3 .3-0.8 .4-1.2 .4h-4c-0.6 0-0.8 0-1 .1c-0.1 .2-0.1 .5-0.1 1v6.1c0 .4 0 .8-0.2 1.2c-0.9 1.6-1.8 3.3-2.6 4.9c-0.3 .6-0.7 .6-1.2 .5c-0.1 0-0.3 0-0.4 0c-0.2 0-0.4-0.1-0.4-0.2c-0.1-0.1 0-0.3 0-0.5c0 0 0-0.1 0-0.1c0 0 0-0.1 0-0.1c0-1 0-2 0-3c0-2-0.1-4 0-6c0-0.6-0.1-1.2-0.3-1.8c0-0.1-0.1-0.1-0.1-0.2c0-0.1 0-0.1-0.1-0.2c0-0.1-0.1-0.3-0.2-0.4c-0.3-0.4-0.6-0.7-1-0.9l-0.1-0.1c-0.2-0.2-0.4-0.4-0.6-0.6c-1.2-1.1-2.4-2.1-3.3-3.4c-0.2-0.2-0.4-0.5-0.5-0.7c-0.1-0.1-0.1-0.2-0.2-0.2c-0.1-0.2-0.2-0.4-0.3-0.6c-0.7-1.4-0.6-2.8-0.6-4.3c0-0.3 0-0.6 0-0.9c.5-0.1 .6 .2 .7 .4c0 0 0 0 0 0c.5 .7 1.1 1.4 1.6 2.2h.1c.5 .7 1.1 1.4 1.6 2.1c.7 1 1.1 1.4 1.5 1.6c.5 .2 1.1 .1 2.2 0c.4 0 .8-0.3 .8-0.7c.3-1.7 .7-3.3 1.1-4.9c.1-0.5 .4-0.9 .8-1.1c6.2-3.3 12.5-6.6 18.7-9.8c.7-0.3 1.1-0.9 1-1.6v-8.9c.1-0.3 0-0.4-0.1-0.7c0 0 0 0 0 0c0-0.1 0-0.1 0-0.1c-0.1-0.1-0.1-0.1-0.1-0.2c0 0-0.1-0.1-0.1-0.1c0 0-0.1-0.1-0.1-0.1c-0.1-0.1-0.2-0.2-0.3-0.3c-5.1-3.9-10.2-7.9-15.3-11.9c-0.4-0.5-1.1-0.5-1.6-0.2c-3.1 1.7-6.3 3.4-9.5 5.1c-1.3 .7-2.6 1.4-3.9 2.1h-0.1c-1.3 .7-2.6 1.4-3.9 2.1c-0.5 .3-1.3 .3-1.8 0c-0.9-0.5-1.9-1-2.8-1.5c-0.9-0.5-1.8-1-2.8-1.5c-4-2.1-7.9-4.2-11.8-6.3c-0.6-0.3-1.3-0.3-1.8 .2c-2.5 2-5.1 4-7.6 6c-2.6 1.9-5.1 3.9-7.7 5.9c-0.4 .3-0.6 .7-0.6 1.2v9.5c0 .2 0 .3 .1 .5c.1 .3 .3 .5 .6 .6c1 .5 2 1 3 1.5c1 .6 2 1.1 3 1.6c2.2 1.2 4.4 2.3 6.6 3.5c2.1 1.1 4.3 2.3 6.5 3.4c.2 .1 .4 .3 .5 .5c.1 .1 .2 .3 .2 .5c.3 1.2 .6 2.5 .9 3.8c.1 .5 .2 .8 .3 1.1c.2 .6 .6 .7 1.8 .8c.7 .1 1.4-0.2 1.8-0.8c.5-0.8 1.1-1.6 1.7-2.3c.2-0.2 .4-0.5 .6-0.7c.6-1 1.3-2 2.1-2.9l.3 .1v2.1c.1 2.2-1 4-2.4 5.5c-1.1 1.2-2.4 2.4-3.7 3.5c-0.7 .6-1.1 1.5-1 2.4c.1 1.5 0 3.1 0 4.6c0 .8 0 1.5 0 2.3v2.9c0 0 0 .1 0 .1c0 .2 0 .4-0.2 .6c-0.7 .3-1.5 0-1.9-0.6v-0.1c-0.7-1.4-1.4-2.8-2.2-4.2c-0.1-0.1-0.2-0.2-0.2-0.3c-0.2-0.4-0.3-0.8-0.3-1.3v-6.1c0-0.5 0-0.8-0.2-0.9c-0.2-0.1-0.4-0.1-0.9-0.1h-3.8c-0.6 .1-1.3-0.2-1.7-0.7c-1.3-1.4-2.6-2.7-4-4c-0.3-0.2-0.4-0.3-0.5-0.6c0 0 0 0-0.1 0c0 0 0-0.1 0-0.1c0 0 0 0 0 0c0-0.1-0.1-0.1-0.1-0.2c-0.1-0.1-0.1-0.1-0.1-0.2c0 0 0-0.1 0-0.1c-0.1-0.1-0.1-0.2-0.1-0.3c-0.3-1.2-0.6-2.5-0.9-3.8c0-0.1 0-0.1-0.1-0.2c0 0 0-0.1 0-0.1c0-0.1 0-0.1-0.1-0.2c0 0 0-0.1 0-0.1c-0.2-0.3-0.5-0.5-0.8-0.6c-1.6-0.7-3.3-1-5-0.9c-0.3 0-0.6 .1-0.9 .2c-1.2 .7-2.4 1.6-3.5 2.5c-2.1 2.1-4.2 4.3-6.3 6.5c-0.4 .3-0.5 .7-0.4 1.1v.1c0 0 0 .1 .1 .1c0 0 0 0 0 .1c.5 .9 .9 1.7 1.3 2.5l1.2 2.4v.1c.3 .4 .7 .8 1.1 1.1c4 3.3 8 6.5 12 9.7c.1 .1 .1 .1 .2 .2c.1 .1 .2 .2 .3 .3c.1 .1 .2 .2 .2 .3c.1 .1 .1 .2 .1 .3v.5c0 2-0.2 3.9-0.5 5.8c-0.2 2.6-0.7 5.1-1.4 7.5c-0.3 .7-0.5 1.4-0.6 2.2c-0.1 .3-0.2 .7-0.3 1c-0.1 .4-0.1 .6-0.1 .7c0 .2 .2 .3 .7 .4l.9 .2c3 .7 5.9 1.3 8.9 1.9c.3 0 .5 .1 .6 .3v.1c.1 0 .1 .2 .1 .3c0 .6-0.2 .8-0.8 .8c-3 0-6 0-9 .1c-0.9-0.2-1.7 .4-1.8 1.3c-0.1 .3 0 .6 .1 .9c0 0 0 .1 .1 .1c0 .1 0 .1 0 .2v.1c.1 .1 .1 .2 .1 .3c0 .1 .1 .2 .1 .3v.1c0 0 0 .1 .1 .2c0 .1 0 .1 0 .2c.2 .5 .4 1 .7 1.4c.3 .4 .7 .9 1.1 1.3c.2 .2 .5 .3 .8 .3c1.3 .1 2.6 0 3.9-0.3c.5-0.2 1.1-0.3 1.6-0.4c1.2-0.2 2.4-0.5 3.5-1.2c.3-0.2 .7-0.3 1 0l.1 .1v.1c.1 0 .1 .1 .1 .1c.1 .3 0 .6-0.2 .8c-0.2 .1-0.3 .3-0.5 .5c-0.6 .6-1.3 1.2-2.2 1.2c-0.8 .2-1.4 .9-1.6 1.7c0 0 0 .1 .1 .1c0 .1 0 .1 0 .2c0 .1 0 .1 .1 .2c0 0 0 .1 0 .1c.3 .6 .8 1 1.5 1.1h5c.8 .1 1.6-0.3 2.1-0.9c.3-0.4 .7-0.8 1.3-0.7c1 .1 2-0.2 2.8-0.9c.6-0.5 1.3-0.9 2-1.3c2-1.1 3.6-2.6 5.1-4.1c.5-0.5 1-1 1.5-1.4c.4-0.3 .5-0.8 .3-1.2c-0.1-0.2-0.2-0.5-0.3-0.8c-0.1-0.3-0.2-0.5-0.3-0.8c-0.3-0.9-0.7-1.8-1.2-2.6c-0.3-0.5-0.8-1.1-1.3-1.6c-0.3-0.3-0.6-0.6-0.8-0.8c-0.6-0.6-1.1-1.2-1.9-1.6c-1.2-0.6-2.4-1.3-3.6-2c-1.3-0.7-2.7-1.5-4-2.2c-1.3-0.8-2.6-1.5-4-2.3c-0.2-0.1-0.4-0.2-0.5-0.4v-0.1c-0.1-0.2-0.1-0.3-0.1-0.5c0-0.4 .3-0.5 .5-0.6c.1 0 .1 0 .2 0c1.6-0.7 3.3-0.7 5-0.6c.7 0 1.3 0 2 0c.1 0 .2 .1 .2 .1c.2 0 .4 .1 .5 .2c2 1 4 1.9 6 2.9c1.9 .9 3.9 1.9 5.9 2.8c.6 .4 1.4 .4 2.1 0c3.2-1.5 6.4-3 9.5-4.6c1.9-1.1 4.2-1.5 6.4-1.4c1.2 0 2.5 .3 3.7 .7c0 0 .1 0 .1 .1c.1 0 .1 0 .1 0c.2 0 .3 .1 .4 .2v.3c.1 .4-0.1 .8-0.5 .9c-0.3 .1-0.5 .2-0.7 .4c-1.9 1.1-3.8 2.1-5.7 3.2c-1.9 1.1-3.8 2.2-5.7 3.2c-0.5 .3-1 .7-1.4 1.2c-0.7 .9-1.4 1.7-2.2 2.6c-0.3 .3-0.5 .7-0.7 1.1c-0.3 1-0.7 2.1-1.1 3.1c-0.2 .4-0.2 .7 0 1c0 0 .1 .1 .1 .1c.1 .1 .2 .2 .3 .3c.6 .6 1.2 1.2 1.9 1.8c1 1 2.1 1.9 3.2 2.7c.7 .4 1.3 .8 2 1.3c.6 .4 1.3 .8 1.9 1.2c.5 .4 1 .5 1.6 .5c.9-0.1 1.7 .3 2.2 1c.3 .5 .8 .7 1.3 .7h5.6c.8-0.2 1.5-0.9 1.7-1.7c0-0.1 0-0.3-0.1-0.4v-0.1c-0.1-0.1-0.2-0.2-0.2-0.3c-0.1-0.1-0.2-0.2-0.3-0.3c-0.3-0.3-0.7-0.6-0.9-0.6c-1.1 0-1.7-0.6-2.4-1.2c-0.1-0.2-0.3-0.3-0.4-0.4c-0.1 0-0.2-0.1-0.2-0.2c-0.1 0-0.1-0.1-0.1-0.1c-0.1-0.3-0.1-0.6 .1-0.9c.1-0.4 .6-0.2 1 0l.4 .2c2.6 1.2 5.4 1.8 8.3 1.8c.6 0 1.1-0.3 1.5-0.7c1-1.1 1.7-2.5 2-4c.1-0.3 .1-0.7 0-1.1c0 0 0-0.1 0-0.1c-0.1 0-0.1 0-0.1-0.1l-0.1-0.1c-0.1-0.3-0.4-0.5-0.7-0.6c-0.3-0.1-0.5-0.1-0.8-0.1l-8.7-0.1h-0.7c-0.2 0-0.3-0.1-0.4-0.2c-0.1-0.1-0.1-0.2-0.1-0.3c-0.1-0.7 0-1 .7-1.1l9.7-2.1c.9-0.2 .9-0.2 .8-1h-0.1c0 0 0-0.1 0-0.1c0-0.1 0-0.1 0-0.1c-0.1-0.3-0.2-0.7-0.3-1.1l-0.6-2.1v-0.1c-0.5-1.7-1-3.5-1.1-5.3c-0.1-1-0.2-2-0.3-2.9c-0.2-1.6-0.4-3.2-0.4-4.8c0-0.7 .3-1.4 .9-1.8c2-1.6 4-3.2 6-4.8c1.9-1.6 3.9-3.2 5.9-4.8c.4-0.4 .8-0.8 1.1-1.3c.8-1.6 1.6-3.2 2.5-4.8Zm104.1 50.6l-32-55.3l-31.9 55.4c3.2 .3 62.9 .2 63.9-0.1Zm-237.6 .2c-0.4-1.2-31.1-54.3-31.9-55.2c-1.2 1.6-31.5 54.3-31.7 55.2Zm98.4 13.8c.2-0.1 .4-0.3 .5-0.4l2.6-2.6c.5-0.4 .7-1 .7-1.6v-4.5c.1-0.5-0.2-1-0.7-1.2c-4.8-2.6-9.5-5.2-14.3-7.9c-0.2-0.2-0.5-0.3-0.7-0.3h-0.5l-0.6 .3c-2.4 1.4-4.8 2.7-7.3 4c-2.4 1.3-4.8 2.7-7.2 4c0 .1-0.1 .1-0.1 .1c-0.3 .1-0.5 .5-0.5 .9v4.8c0 .4 .1 .8 .4 1.1c.8 1 1.8 1.9 2.7 2.8c.3 .3 .6 .6 .9 .9c.3-0.4 .6-0.8 .9-1.2c.5-0.8 1.1-1.7 1.8-2.4c.1 .1 .2 .2 .3 .3c.1 .2 .2 .3 .3 .4c.1 .1 .2 .3 .3 .4l.4 .4c1.6 1.8 3.2 3.8 4.8 5.7c.4 .5 1 .7 1.6 .7c.7-0.1 1.5 0 2.2 0c.4 0 .7 0 1.1 0h.3c.1 0 .2 0 .3-0.1c0 0 .1 0 .1 0c0-0.1 .1-0.1 .1-0.1c.1 0 .1-0.1 .2-0.1l.2-0.2c0 0 .1 0 .1-0.1c0 0 0 0 0 0c.1 0 .1 0 .1-0.1c.6-0.8 1.3-1.5 1.9-2.3c.7-0.8 1.3-1.6 2-2.3c.8-1 1.6-1.9 2.5-2.7c.1 0 .1 .1 .1 .1c.4 .6 .7 1.1 1.1 1.6c.3 .4 .6 .7 .8 1.1c0 0 .1 .1 .1 .1c0 0 .1 .1 .1 .1c.2 .2 .3 .3 .4 .3Zm-130.2 50.2l32-55.4h-64Zm237.6 0l-32.1-55.4h64Zm-245.2 4.3l-32-55.5l-32 55.5Zm15.2-0.1h64l-32.1-55.4Zm158.3 0l32-55.4l32 55.4Zm79.2 0l31.9-55.4l32.1 55.4Zm-158.2 8.8l32.1 55.4l31.9-55.4Zm-158.5 .4l32.1 55.5l32-55.5Zm111.3 55.4l31.9-55.4h-64Zm190.3-55.4l-32 55.4l-32.1-55.4Zm15.1 0h64.1l-32 55.5Zm-54.5 59.3h-64l31.9-55.4Zm-143.2 0h63.8c-0.6-1.5-31.3-54.6-32-55.2Zm-79.3 .4c3.3 .3 62.9 .2 63.9-0.1l-32-55.3Zm269.4-55.4l32.1 55.5h-64Zm-190.1 64.4c1-0.4 61.2-0.5 64-0.2l-31.8 55.1h-0.3c-0.1-0.1-0.1-0.2-0.2-0.3c-0.1-0.1-0.2-0.2-0.2-0.3Zm79.1-0.2h64.1l-32 55.4Zm-7.3 4.8c.1 .1 .1 .1 .2 .2l31.6 54.6c-1 .3-60.7 .4-64 .1l31.8-55.1h.3c0 0 0 0 0 .1c.1 0 .1 0 .1 .1Zm31.8 63.5l-31.9 55.4l-32.1-55.4Z" fill="none" stroke-width="4" stroke="#222"/><g transform="translate(4.6,6)"><path class="st0" d="M183 336.7l-31.8 55.1h-0.3c0-0.1-0.1-0.2-0.2-0.3c-0.1-0.1-0.1-0.2-0.2-0.3l-31.5-54.3c1-0.4 61.2-0.5 64-0.2Zm79.2 0l-32 55.4l-32.1-55.4Zm-71.2 5l31.6 54.6c-1 .3-60.7 .4-64 .1l31.8-55.1h.3c0 0 0 0 0 .1c.1 0 .1 0 .2 .1c0 .1 .1 .1 .1 .2Zm-0.3 118.7l-32.1-55.4h64Z" fill="#ffae01" fill-rule="evenodd" stroke-width="4" stroke="#fead00" fill-opacity="0" stroke-dasharray="0 767" stroke-dashoffset="-30" transform="translate(0,-2.4)" style="animation: 4s linear infinite both a0_so, 4s linear infinite both a0_fo, 4s linear infinite both a0_da, 4s linear infinite both a0_do;"/><path class="st1" d="M309 135.3l32 55.3c-1 .3-60.7 .4-63.9 .1Zm-237.5 .3c.8 .9 31.5 54 31.9 55.2h-63.6c.2-0.9 30.5-53.6 31.7-55.2Zm-31.9 63.8h64l-32 55.4Zm237.5 0l32.1 55.4l31.9-55.4Zm-245.1 4.2l32 55.5h-64Zm111.2 55.4h-64l31.9-55.4Zm126.3-55.4l-32 55.4h64Zm79.1 0l-31.9 55.4h64Zm-190.1 64.2h64l-31.9 55.4Zm-126.4 55.9l-32.1-55.5h64.1Zm111.1-55.5l-31.9 55.4l-32.1-55.4Zm126.4 55.4l32-55.4h-64.1Zm111.2-55.4h-64.1l32.1 55.5Zm-182.6 59.3h64l-32.1-55.4Zm-15.4 0h-63.8l31.8-55.2c.7 .6 31.4 53.7 32 55.2Zm-79.2 .3c-1 .3-60.6 .4-63.9 .1l31.9-55.4Zm237.6 .2l-32.1-55.5l-31.9 55.5Z" fill="#fff" fill-rule="evenodd" stroke-width="4" stroke="#fff" fill-opacity="0" stroke-dasharray="0 767" stroke-dashoffset="-30" transform="translate(0,-2.4)" style="animation: 4s linear infinite both a1_so, 4s linear infinite both a1_fo, 4s linear infinite both a1_da, 4s linear infinite both a1_do;"/><path class="st1" d="M284.1 130.7c0 3.2 .1 6.3-0.2 9.5c-0.1 1.7-0.4 3.5-0.7 5.2c-0.5 2.9-0.8 5.8-1.5 8.7c-1.1 4.1-2.5 8.1-4.3 11.9c-1.4 3-2.9 6-4.7 8.8c-0.1 .4-0.4 .7-0.7 .9c-0.2-0.4-0.5-0.7-0.8-1.1c-3.3-4.7-6.6-9.3-9.9-13.9c-0.4-0.4-0.6-1.2-1.3-0.9c-0.7 .3-0.6 1-0.6 1.6c.2 5.7 .4 11.3 .6 17c.2 4.2 .3 8.5 .5 12.7c.1 .6-0.1 1.2-0.6 1.6c-7.7 7.7-15.3 15.5-23 23.2c-0.2 .3-0.5 .5-0.9 .7l-5.6-9.3c-0.5 .3-0.3 .7-0.3 1v14c0 .7-0.3 1.3-0.8 1.8c-12.8 12-25.5 24-38.2 36l-0.6 .5c-0.3-0.1-0.7-0.4-0.9-0.7c-12.6-11.8-25.1-23.7-37.7-35.5c-0.7-0.6-1.1-1.5-1-2.4v-14.6l-0.3-0.1c-1 1.4-1.9 3-2.8 4.5c-1 1.5-1.9 3.1-2.8 4.6c-0.5 .1-0.6-0.2-0.8-0.4c-7.8-7.8-15.5-15.6-23.2-23.4c-0.4-0.4-0.6-0.9-0.6-1.5c.2-6.6 .5-13.3 .7-19.9c.1-3.2 .3-6.4 .4-9.6v-0.5c0-0.5 0-1.1-0.6-1.3c-0.6-0.1-0.8 .4-1.1 .8l-9.9 14c-0.2 .4-0.5 .8-0.9 1.1c-0.5-0.2-0.6-0.6-0.8-0.9c-1.8-2.9-3.3-5.8-4.7-8.9c-1.8-3.8-3.2-7.7-4.3-11.8c-0.7-2.9-0.9-5.8-1.5-8.6c-1-4.9-0.8-9.8-0.9-14.7c-0.1-5.5 1-10.8 1.8-16.1c.2-1.3 1-2.4 2.1-2.9c9.5-5.6 19-11.3 28.4-16.9l.5-0.3c.3-0.1 .5-0.5 .4-0.8c0 0 0 0 0 0c-0.1-0.3-0.5-0.2-0.8-0.1l-8.2 2l-20 4.7c-0.3 .1-0.7 .2-1 .1c.3-0.3 .7-0.6 1.1-0.8c14.7-9.3 29.4-18.6 44.1-27.9c.7-0.5 1.5-0.6 2.3-0.3c13.9 4.7 27.8 9.3 41.7 13.9c.9 .3 1.9 .3 2.9 0c13.9-4.7 27.8-9.3 41.7-13.9c.8-0.3 1.6-0.2 2.3 .3c14.7 9.3 29.4 18.6 44.1 27.9c.4 .2 .8 .4 1 .8c-0.4 .1-0.8 .1-1.2-0.1l-27.6-6.5c-0.4-0.1-1-0.5-1.3 0c-0.3 .5 .4 .8 .8 1.1c9.7 5.8 19.5 11.6 29.2 17.4c.6 .3 1 .9 1.1 1.6c.6 3.6 1.2 7.2 1.7 10.8c.2 1.9 .3 3.9 .2 5.9Zm-82.3 73.9c0 0 .1 0 0 0c.2-0.1 .4-0.3 .5-0.4c.9-0.9 1.7-1.7 2.6-2.6c.5-0.4 .7-1 .7-1.6v-4.5c.1-0.5-0.2-1-0.7-1.2c-4.8-2.6-9.5-5.2-14.3-7.9c-0.2-0.2-0.5-0.3-0.7-0.3c-0.2 0-0.3 0-0.5 0c-0.2 .1-0.4 .2-0.6 .3c0 0 0 0 0 0c-4.8 2.7-9.7 5.3-14.5 8c0 .1-0.1 .1-0.1 .1c-0.3 .1-0.5 .5-0.5 .9v4.8c0 .4 .1 .8 .4 1.1c1.1 1.3 2.4 2.5 3.6 3.7c0 0 0 0 0 0c.9-1.2 1.6-2.5 2.7-3.6c.2 .2 .4 .5 .6 .7c1.8 2.1 3.7 4.3 5.5 6.5c.4 .5 1 .7 1.6 .7c1.1-0.1 2.2 0 3.3 0h.1c.1 0 .1 0 .2 0c.2 0 .3-0.1 .4-0.1c.1-0.1 .2-0.1 .3-0.2c.1-0.1 .1-0.1 .2-0.2c.1-0.1 .2-0.1 .2-0.2c1.3-1.5 2.6-3.1 3.9-4.6c.8-1 1.6-1.9 2.5-2.7c.1 0 .1 .1 .1 .1c.6 1 1.3 1.8 1.9 2.7c.3 .3 .4 .5 .6 .5Zm35.1-64.6c.2-0.3 .2-0.6 .5-0.7c0 0-0.1-0.1-0.1-0.1c0-0.1-0.1-0.2-0.1-0.2c-2.2-2.3-4.3-4.7-6.6-6.8c-1.7-1.4-3.5-2.9-6-2.5c-1.2 .3-2.4 .6-3.6 1.1c-0.4 .1-0.4 .5-0.5 .8c-0.3 1.4-0.7 2.8-1 4.2c0 .3 0 .6-0.3 .8c-1.7 1.4-3.2 3.1-4.8 4.7c-0.3 .3-0.8 .4-1.2 .4h-4c-1.1 0-1.1 0-1.1 1.1v6.1c0 .4 0 .8-0.2 1.2c-0.9 1.6-1.8 3.3-2.6 4.9c-0.4 .8-1 .5-1.6 .5c-0.2 0-0.4-0.1-0.4-0.2c0 0 0 0 0 0c-0.1-0.2 0-0.5 0-0.7c0-3-0.1-6 0-9c0-0.6-0.1-1.2-0.3-1.8c-0.1-0.2-0.1-0.3-0.2-0.4c0-0.1-0.1-0.3-0.2-0.4c-0.3-0.4-0.6-0.7-1-0.9l-0.1-0.1c-1.4-1.3-2.8-2.5-3.9-4c-0.2-0.2-0.4-0.5-0.5-0.7c-0.2-0.3-0.4-0.5-0.5-0.8c-0.8-1.7-0.6-3.4-0.6-5.2c.5-0.1 .6 .2 .7 .4c1.1 1.4 2.2 2.9 3.3 4.3c1.4 1.9 1.4 1.9 3.7 1.6c.4 0 .8-0.3 .8-0.7c.3-1.7 .7-3.3 1.1-4.9c.1-0.5 .4-0.9 .8-1.1c6.2-3.3 12.5-6.6 18.7-9.8c.7-0.3 1.1-0.9 1-1.6c0-3 0-5.9 0-8.9c.1-0.3 0-0.5-0.1-0.8c-0.1-0.1-0.1-0.2-0.2-0.3c-0.1-0.1-0.2-0.3-0.4-0.4c-5.1-3.9-10.2-7.9-15.3-11.9c-0.4-0.5-1.1-0.5-1.6-0.2c-3.1 1.7-6.3 3.4-9.5 5.1c-2.6 1.4-5.3 2.8-7.9 4.2c-0.5 .3-1.3 .3-1.8 0c-1.9-1-3.7-2-5.6-3c-4-2.1-7.9-4.2-11.8-6.3c-0.6-0.3-1.3-0.3-1.8 .2c-5.1 4-10.2 7.9-15.3 11.9c-0.4 .3-0.6 .7-0.6 1.2v9.5c0 .2 0 .3 .1 .5c.1 .3 .3 .5 .6 .6c2 1 4 2.1 6 3.1c4.4 2.3 8.7 4.6 13.1 6.9c.2 .1 .4 .3 .5 .5c.1 .1 .2 .3 .2 .5c.3 1.2 .6 2.5 .9 3.8c.1 .5 .2 .8 .3 1.1c.2 .6 .6 .7 1.8 .8c.7 .1 1.4-0.2 1.8-0.8c.7-1.1 1.5-2 2.3-3c.6-1 1.3-2 2.1-2.9l.3 .1v2.1c.1 2.2-1 4-2.4 5.5c-1.1 1.2-2.4 2.4-3.7 3.5c-0.7 .6-1.1 1.5-1 2.4c.1 2.3 0 4.6 0 6.9v2.9c0 .2 .1 .5-0.2 .7c-0.7 .3-1.5 0-1.9-0.6c0-0.1 0-0.1 0-0.1c-0.7-1.4-1.4-2.8-2.2-4.2c-0.1-0.1-0.2-0.2-0.2-0.3c-0.2-0.4-0.3-0.8-0.3-1.3v-6.1c0-0.5 0-0.8-0.2-0.9c-0.2-0.1-0.4-0.1-0.9-0.1h-3.8c-0.6 .1-1.3-0.2-1.7-0.7c-1.3-1.4-2.6-2.7-4-4c-0.3-0.2-0.4-0.4-0.6-0.7c-0.1-0.2-0.2-0.3-0.2-0.4c0-0.1-0.1-0.2-0.1-0.4c-0.3-1.2-0.6-2.5-0.9-3.8c0-0.1-0.1-0.2-0.1-0.3c0-0.1-0.1-0.2-0.1-0.3c-0.2-0.3-0.5-0.5-0.8-0.6c-1.6-0.7-3.3-1-5-0.9c-0.3 0-0.6 .1-0.9 .2c-1.2 .7-2.4 1.6-3.5 2.5c-2.1 2.1-4.2 4.3-6.3 6.5c-0.4 .3-0.5 .7-0.4 1.1c0 0 0 .1 0 .1c0 .1 .1 .1 .1 .2c.5 .9 .9 1.7 1.3 2.5c.4 .8 .8 1.6 1.2 2.4c0 .1 0 .1 0 .1c.3 .4 .7 .8 1.1 1.1c4 3.3 8 6.5 12 9.7c.2 .2 .4 .3 .5 .5c.1 .1 .2 .2 .2 .3c.1 .1 .1 .2 .1 .3c0 .2 0 .3 0 .5c0 2-0.2 3.9-0.5 5.8c-0.2 2.6-0.7 5.1-1.4 7.5c-0.4 1-0.6 2.1-0.9 3.2c-0.1 .4-0.1 .6-0.1 .7c0 0 0 0 0 0c0 .2 .2 .3 .7 .4l.9 .2c3 .7 5.9 1.3 8.9 1.9c.3 0 .5 .1 .6 .3c0 0 0 .1 0 .1c.1 0 .1 .2 .1 .3c0 .6-0.2 .8-0.8 .8c-3 0-6 0-9 .1c-0.9-0.2-1.7 .4-1.8 1.3c-0.1 .3 0 .6 .1 .9c0 .1 .1 .2 .1 .3c0 .1 0 .1 0 .1c.1 .2 .1 .4 .2 .6c0 0 0 .1 0 .1c0 .1 .1 .3 .1 .4c.2 .5 .4 1 .7 1.4c.3 .4 .7 .9 1.1 1.3c.2 .2 .5 .3 .8 .3c1.3 .1 2.6 0 3.9-0.3c1.7-0.5 3.5-0.6 5.1-1.6c.3-0.2 .7-0.3 1 0c0 0 .1 .1 .1 .1c0 0 0 .1 0 .1c.1 0 .1 .1 .1 .1c.1 .3 0 .6-0.2 .8c-0.8 .7-1.5 1.7-2.7 1.7c-0.8 .2-1.4 .9-1.6 1.7c0 .1 .1 .2 .1 .3c0 .1 .1 .2 .1 .3c.3 .6 .8 1 1.5 1.1h5c.8 .1 1.6-0.3 2.1-0.9c.3-0.4 .7-0.8 1.3-0.7c1 .1 2-0.2 2.8-0.9c.6-0.5 1.3-0.9 2-1.3c2.6-1.5 4.5-3.6 6.6-5.5c.4-0.3 .5-0.8 .3-1.2c-0.2-0.5-0.4-1.1-0.6-1.6c-0.3-0.9-0.7-1.8-1.2-2.6c-0.3-0.5-0.8-1.1-1.3-1.6c-0.9-0.8-1.5-1.8-2.7-2.4c-1.2-0.6-2.4-1.3-3.6-2c-2.7-1.5-5.3-3-8-4.5c-0.2-0.1-0.4-0.2-0.5-0.4c0-0.1 0-0.1 0-0.1c-0.1-0.2-0.1-0.3-0.1-0.5c0-0.5 .4-0.5 .7-0.6c2.3-1 4.7-0.5 7-0.6c.2 .1 .5 .1 .7 .3c4 1.9 7.9 3.8 11.9 5.7c.6 .4 1.4 .4 2.1 0c3.2-1.5 6.4-3 9.5-4.6c1.9-1.1 4.2-1.5 6.4-1.4c1.2 0 2.5 .3 3.7 .7c.2 .1 .5 .1 .6 .3c0 0 0 .1 0 .1c0 0 0 .1 0 .2c.1 .4-0.1 .8-0.5 .9c-0.3 .1-0.5 .2-0.7 .4c-3.8 2.1-7.6 4.3-11.4 6.4c-0.5 .3-1 .7-1.4 1.2c-0.7 .9-1.4 1.7-2.2 2.6c-0.3 .3-0.5 .7-0.7 1.1c-0.3 1-0.7 2.1-1.1 3.1c-0.2 .4-0.2 .7 0 1c.1 .1 .2 .3 .4 .4c.6 .6 1.2 1.2 1.9 1.8c1 1 2.1 1.9 3.2 2.7c1.3 .8 2.6 1.7 3.9 2.5c.5 .4 1 .5 1.6 .5c.9-0.1 1.7 .3 2.2 1c.3 .5 .8 .7 1.3 .7h5.6c.8-0.2 1.5-0.9 1.7-1.7c0-0.1 0-0.3-0.1-0.4c0-0.1 0-0.1 0-0.1c-0.2-0.2-0.3-0.4-0.5-0.6c-0.3-0.3-0.7-0.6-0.9-0.6c-1.3 0-2-0.9-2.8-1.6c-0.1 0-0.2-0.1-0.2-0.2c-0.1 0-0.1-0.1-0.1-0.1c-0.1-0.3-0.1-0.6 .1-0.9c.1-0.4 .6-0.2 1 0l.4 .2c2.6 1.2 5.4 1.8 8.3 1.8c.6 0 1.1-0.3 1.5-0.7c1-1.1 1.7-2.5 2-4c.1-0.3 .1-0.7 0-1.1c0-0.1-0.1-0.1-0.1-0.2c0 0-0.1-0.1-0.1-0.1c-0.1-0.3-0.4-0.5-0.7-0.6c-0.3-0.1-0.5-0.1-0.8-0.1l-8.7-0.1h-0.7c-0.2 0-0.3-0.1-0.4-0.2c-0.1-0.1-0.1-0.2-0.1-0.3c-0.1-0.7 0-1 .7-1.1l9.7-2.1c1-0.2 .9-0.2 .7-1.2c-0.1-0.3-0.2-0.7-0.3-1.1c-0.2-0.7-0.4-1.4-0.6-2.1c0-0.1 0-0.1 0-0.1c-0.5-1.7-1-3.5-1.1-5.3c-0.2-2.6-0.7-5.1-0.7-7.7c0-0.7 .3-1.4 .9-1.8c4-3.2 7.9-6.4 11.9-9.6c.4-0.4 .8-0.8 1.1-1.3c.8-1.6 1.6-3.2 2.5-4.8Z" fill="#fff" stroke-width="4" stroke="#fff" fill-opacity="0" stroke-dasharray="0 1578.2" stroke-dashoffset="-100" transform="translate(0,-2.4)" style="animation: 4s linear infinite both a2_so, 4s linear infinite both a2_fo, 4s linear infinite both a2_da, 4s linear infinite both a2_do;"/><path class="st2" d="M119 26.2c2.3 .3 4.1 .7 5.6 .9c4.2 .6 7.3 1.3 8.2 1.5c1.5 .3 2.7 .6 4.4 1c6 1.6 7.9 2.8 7.9 2.8c.3 .1 .6 .2 .9 .5c.2 .2 .4 .5 .4 .8c0 .2-0.1 .4-0.2 .6c-0.3 .3-0.6 .5-1 .5c-0.5 .2-1 .5-1.4 .8c-1.4 1.1-1.9 3-1.2 4.6c.8 1.5 1.8 3 3 4.2c1.3 1.5 2.7 2.4 4.8 2c.9-0.2 1.9 .2 2.8-0.5c1.4-1.1 2.7-2.1 3.3-3.8c.5-1.5 .8-3.1 .8-4.8c-0.1-5.3 0-10.7 .1-16c.5 1.7 1.1 3.3 1.4 5c.5 2.1 1.3 4.1 2.3 6c.8 1.5 1.6 3 2.6 4.5c.7 1 1.5 1.9 2.4 2.8c2.4 2.4 5.9 3.3 9.2 2.3c.5-0.1 1-0.4 1.4-0.7c2-1.6 3.3-3.9 3.6-6.5c.3-1.6-0.5-3.1-1.9-3.9c-0.7-0.4-1.5-0.7-2.3-0.9c-0.5-0.1-1-0.2-1.5-0.4c-0.3-0.1-0.7-0.2-0.8-0.6c-0.1-0.4 .3-0.7 .6-0.9c4.9-3 8.1-7.5 11-12.3c1.3-2 2.3-4.2 3.2-6.4c.7-1.8 1.3-3.7 1.6-5.5c0-0.5 .1-1 .3-1.4c.3 0 .4 .2 .4 .4c.5 3.2 1.5 6.4 2.9 9.3c2.3 4.7 5.3 9.1 8.9 12.8c1 1 2.2 1.9 3.4 2.7c.2 .1 .4 .2 .6 .4c.4 .2 .8 .4 .7 .9c-0.1 .5-0.6 .6-1 .7c-1.1 .3-2.1 .6-3.1 1c-1.5 .5-2.6 1.9-2.5 3.5c0 1.4 .4 2.9 1.1 4.1c.7 1.1 1.5 2.1 2.5 2.9c1.2 .8 2.6 1.2 4 1.1c2.1 .1 4.1-0.6 5.8-1.9c1.7-1.4 3.2-3.1 4.2-5c1.3-2.1 2.4-4.3 3.2-6.6c.6-1.9 1.1-3.8 1.6-5.7c.1-0.4 .3-0.8 .4-1.4c.2 .6 .2 1.2 .1 1.8c0 5.2-0.1 10.4 .1 15.6c0 2.6 1.3 5.1 3.4 6.7c.7 .6 1.6 .9 2.4 .8c1.1 0 2.1 0 3.2 0c.6 0 1.1-0.2 1.5-0.6c1.4-1.4 2.6-2.8 3.8-4.4c1.3-2 .8-4.7-1.1-6c-0.1-0.1-0.2-0.1-0.3-0.2c-0.5-0.3-1-0.5-1.5-0.8c-0.8-0.5-0.8-1-0.1-1.6c.5-0.4 1.1-0.7 1.8-0.9c3.9-1.5 7.9-2.7 12-3.5c4.2-0.9 8.4-1.4 12.6-2.1c.3 0 .6 0 .9 0c-1.1 .5-2.2 1.1-3.2 1.8c-3.1 2.1-5.4 4.9-7.7 7.7c-2.6 3.3-5 6.7-7 10.4c-1.7 2.9-3.2 5.9-4.6 9.1c-1.4 3.3-2.8 6.7-4.4 9.9c-0.3 .6-0.8 1-1.4 1.2c-14.1 4.5-28.2 8.9-42.3 13.4c-0.8 .3-1.7 .2-2.6-0.1c-14-4.5-28-8.9-42-13.3c-0.7-0.2-1.2-0.7-1.5-1.3c-1.6-3.2-3-6.5-4.4-9.9c-1.4-3.4-3-6.2-4.6-9.2c-0.6-1-1.2-2-1.8-3.1c-2.5-4.1-5.4-7.9-8.7-11.4c-2.1-2-4.4-3.8-6.9-5.1c0 0-0.6-0.3-0.6-0.4c-0.2 0 .1 0 .3 .1Z" fill="#fead00" stroke-width="4" stroke="#fead00" fill-opacity="0" stroke-dasharray="0 507.2" stroke-dashoffset="-50" transform="translate(0,-2.4)" style="animation: 4s linear infinite both a3_so, 4s linear infinite both a3_fo, 4s linear infinite both a3_da, 4s linear infinite both a3_do;"/></g></svg>