<svg width="12" height="12" viewBox="0 0 12 12" fill="none" xmlns="http://www.w3.org/2000/svg">
<path d="M11.7512 5.90367L6.63668 0.491246L6.29387 0.128269C6.21576 0.0461104 6.11013 0 6.00002 0C5.88992 0 5.78429 0.0461104 5.70618 0.128269L0.248895 5.90367C0.168858 5.98808 0.105602 6.08862 0.0628634 6.19934C0.0201246 6.31006 -0.0012318 6.42873 5.48636e-05 6.54834C0.00534934 7.04165 0.39317 7.43546 0.859084 7.43546H1.42162V12H10.5784V7.43546H11.1529C11.3792 7.43546 11.5923 7.34156 11.7525 7.17199C11.8313 7.08876 11.8938 6.98979 11.9363 6.88081C11.9788 6.77184 12.0004 6.65502 12 6.53713C12 6.29888 11.9113 6.07324 11.7512 5.90367ZM6.74125 10.991H5.2588V8.13198H6.74125V10.991ZM9.62542 6.42641V10.991H7.58837V7.79563C7.58837 7.48591 7.35144 7.23505 7.05892 7.23505H4.94113C4.64861 7.23505 4.41168 7.48591 4.41168 7.79563V10.991H2.37463V6.42641H1.10395L6.00135 1.24523L6.3071 1.56896L10.8974 6.42641H9.62542Z" fill="#8E8E8E"/>
</svg>
