<svg width="20" height="14" viewBox="0 0 20 14" fill="none" xmlns="http://www.w3.org/2000/svg">
<path d="M0 2C0 0.89543 0.895431 0 2 0H17.6C18.7046 0 19.6 0.895431 19.6 2V12C19.6 13.1046 18.7046 14 17.6 14H2C0.895433 14 0 13.1046 0 12V2Z" fill="white"/>
<mask id="mask0" mask-type="alpha" maskUnits="userSpaceOnUse" x="0" y="0" width="20" height="14">
<path d="M0 2C0 0.89543 0.895431 0 2 0H17.6C18.7046 0 19.6 0.895431 19.6 2V12C19.6 13.1046 18.7046 14 17.6 14H2C0.895433 14 0 13.1046 0 12V2Z" fill="white"/>
</mask>
<g mask="url(#mask0)">
<path d="M0 2C0 0.89543 0.895431 0 2 0H17.6C18.7046 0 19.6 0.895431 19.6 2V12C19.6 13.1046 18.7046 14 17.6 14H2C0.895433 14 0 13.1046 0 12V2Z" fill="#30C6E0"/>
<path fill-rule="evenodd" clip-rule="evenodd" d="M9.8 9.8002C11.3464 9.8002 12.6 8.54659 12.6 7.0002C12.6 5.4538 11.3464 4.2002 9.8 4.2002C8.2536 4.2002 7 5.4538 7 7.0002C7 8.54659 8.2536 9.8002 9.8 9.8002Z" fill="#FFCD4B"/>
<path fill-rule="evenodd" clip-rule="evenodd" d="M8.65772 12.0049L9.79999 10.2998L10.9423 12.0049L11.2316 9.97301L13.0006 11.0136L12.3797 9.05746L14.425 9.2275L13.0168 7.73445L14.9333 7.00024L13.0168 6.26602L14.425 4.77297L12.3797 4.94301L13.0006 2.98683L11.2316 4.02746L10.9423 1.99561L9.79999 3.70071L8.65772 1.99561L8.36838 4.02746L6.59941 2.98683L7.22031 4.94301L5.17502 4.77297L6.58319 6.26602L4.66666 7.00024L6.58319 7.73445L5.17502 9.2275L7.22031 9.05746L6.59941 11.0136L8.36838 9.97301L8.65772 12.0049ZM13.0667 7.00021C13.0667 8.80434 11.6041 10.2669 9.79999 10.2669C7.99586 10.2669 6.53332 8.80434 6.53332 7.00021C6.53332 5.19608 7.99586 3.73354 9.79999 3.73354C11.6041 3.73354 13.0667 5.19608 13.0667 7.00021Z" fill="#FFCD4B"/>
<path fill-rule="evenodd" clip-rule="evenodd" d="M0.93335 1.40026C0.93335 1.14253 1.14228 0.933594 1.40002 0.933594C1.65775 0.933594 1.86668 1.14253 1.86668 1.40026C1.86668 1.65799 1.65775 1.86693 1.40002 1.86693C1.14228 1.86693 0.93335 1.65799 0.93335 1.40026ZM0.93335 3.26691C0.93335 3.00918 1.14228 2.80024 1.40002 2.80024C1.65775 2.80024 1.86668 3.00918 1.86668 3.26691C1.86668 3.52464 1.65775 3.73358 1.40002 3.73358C1.14228 3.73358 0.93335 3.52464 0.93335 3.26691ZM1.40002 4.66697C1.14228 4.66697 0.93335 4.8759 0.93335 5.13363C0.93335 5.39137 1.14228 5.6003 1.40002 5.6003C1.65775 5.6003 1.86668 5.39137 1.86668 5.13363C1.86668 4.8759 1.65775 4.66697 1.40002 4.66697ZM0.93335 7.00027C0.93335 6.74254 1.14228 6.53361 1.40002 6.53361C1.65775 6.53361 1.86668 6.74254 1.86668 7.00027C1.86668 7.25801 1.65775 7.46694 1.40002 7.46694C1.14228 7.46694 0.93335 7.25801 0.93335 7.00027ZM1.40002 8.40024C1.14228 8.40024 0.93335 8.60918 0.93335 8.86691C0.93335 9.12464 1.14228 9.33358 1.40002 9.33358C1.65775 9.33358 1.86668 9.12464 1.86668 8.86691C1.86668 8.60918 1.65775 8.40024 1.40002 8.40024ZM0.93335 10.7336C0.93335 10.4759 1.14228 10.267 1.40002 10.267C1.65775 10.267 1.86668 10.4759 1.86668 10.7336C1.86668 10.9914 1.65775 11.2003 1.40002 11.2003C1.14228 11.2003 0.93335 10.9914 0.93335 10.7336ZM1.40002 12.1336C1.14228 12.1336 0.93335 12.3425 0.93335 12.6003C0.93335 12.858 1.14228 13.0669 1.40002 13.0669C1.65775 13.0669 1.86668 12.858 1.86668 12.6003C1.86668 12.3425 1.65775 12.1336 1.40002 12.1336ZM1.86669 11.6669C1.86669 11.4092 2.07562 11.2002 2.33335 11.2002C2.59108 11.2002 2.80002 11.4092 2.80002 11.6669C2.80002 11.9246 2.59108 12.1336 2.33335 12.1336C2.07562 12.1336 1.86669 11.9246 1.86669 11.6669ZM2.33335 9.33361C2.07562 9.33361 1.86669 9.54254 1.86669 9.80027C1.86669 10.058 2.07562 10.2669 2.33335 10.2669C2.59108 10.2669 2.80002 10.058 2.80002 9.80027C2.80002 9.54254 2.59108 9.33361 2.33335 9.33361ZM1.86669 7.93363C1.86669 7.6759 2.07562 7.46697 2.33335 7.46697C2.59108 7.46697 2.80002 7.6759 2.80002 7.93363C2.80002 8.19137 2.59108 8.4003 2.33335 8.4003C2.07562 8.4003 1.86669 8.19137 1.86669 7.93363ZM2.33335 5.60024C2.07562 5.60024 1.86669 5.80918 1.86669 6.06691C1.86669 6.32464 2.07562 6.53358 2.33335 6.53358C2.59108 6.53358 2.80002 6.32464 2.80002 6.06691C2.80002 5.80918 2.59108 5.60024 2.33335 5.60024ZM1.86669 4.20027C1.86669 3.94254 2.07562 3.73361 2.33335 3.73361C2.59108 3.73361 2.80002 3.94254 2.80002 4.20027C2.80002 4.45801 2.59108 4.66694 2.33335 4.66694C2.07562 4.66694 1.86669 4.45801 1.86669 4.20027ZM2.33335 1.86697C2.07562 1.86697 1.86669 2.0759 1.86669 2.33363C1.86669 2.59137 2.07562 2.8003 2.33335 2.8003C2.59108 2.8003 2.80002 2.59137 2.80002 2.33363C2.80002 2.0759 2.59108 1.86697 2.33335 1.86697Z" fill="#FFCD4B"/>
</g>
</svg>
