<svg width="2281" height="49" viewBox="0 0 2281 49" fill="none" xmlns="http://www.w3.org/2000/svg">
<path d="M1 48C14.3543 36.8961 56.4205 14.2845 117.85 12.6694C194.638 10.6505 303.559 48 412.48 48C521.402 48 597.772 3.07966 702.52 1.06077C807.268 -0.958125 862.354 48 992.142 48C1121.93 48 1142.8 1.06077 1285.1 1.06077C1427.41 1.06077 1459.96 48 1574.31 48C1688.65 48 1769.61 1.06077 1867.27 1.06077C1964.92 1.06077 2039.62 48 2158.14 48C2252.96 48 2278.89 16.7072 2280 1.06077" stroke="#4E4E4E" stroke-width="2" stroke-dasharray="8 4"/>
<circle cx="139" cy="13" r="6" fill="#FFA200"/>
<circle opacity="0.5" cx="139" cy="13" r="8.5" stroke="#FFA200"/>
<circle opacity="0.1" cx="139" cy="13" r="11.5" stroke="#FFA200"/>
</svg>
