<svg width="220" height="80" viewBox="0 0 220 80" fill="none" xmlns="http://www.w3.org/2000/svg">
<g opacity="0.2">
<path d="M83.835 56.439L80.585 47.274H81.703L84.303 54.853L86.799 47.248H87.644L90.14 54.853L92.74 47.274H93.819L90.569 56.439H89.698L87.202 49.055L84.693 56.439H83.835Z" fill="white"/>
<path d="M95.2619 53.423C95.3312 54.1077 95.5869 54.6537 96.0289 55.061C96.4796 55.4597 97.0126 55.659 97.6279 55.659C98.4339 55.659 99.1402 55.3427 99.7469 54.71L100.371 55.269C99.6169 56.1097 98.6939 56.53 97.6019 56.53C96.6572 56.53 95.8599 56.205 95.2099 55.555C94.5686 54.8963 94.2479 54.0513 94.2479 53.02C94.2479 52.0407 94.5556 51.213 95.1709 50.537C95.7862 49.8523 96.5532 49.51 97.4719 49.51C98.4339 49.51 99.1966 49.848 99.7599 50.524C100.323 51.2 100.605 52.0493 100.605 53.072C100.605 53.202 100.601 53.319 100.592 53.423H95.2619ZM95.2619 52.617H99.5909C99.5302 51.967 99.3136 51.4297 98.9409 51.005C98.5769 50.5717 98.0786 50.355 97.4459 50.355C96.8739 50.355 96.3842 50.5673 95.9769 50.992C95.5696 51.4167 95.3312 51.9583 95.2619 52.617Z" fill="white"/>
<path d="M105.932 56.517C104.875 56.517 104.017 56.0403 103.358 55.087V56.374H102.357V46.884H103.358V51.005C104.034 50.0083 104.892 49.51 105.932 49.51C106.79 49.51 107.54 49.8307 108.181 50.472C108.823 51.1047 109.143 51.954 109.143 53.02C109.143 54.0687 108.823 54.9137 108.181 55.555C107.54 56.1963 106.79 56.517 105.932 56.517ZM105.75 55.62C106.426 55.62 106.99 55.386 107.44 54.918C107.891 54.4413 108.116 53.8043 108.116 53.007C108.116 52.2357 107.887 51.6117 107.427 51.135C106.968 50.6497 106.409 50.407 105.75 50.407C105.1 50.407 104.533 50.654 104.047 51.148C103.562 51.642 103.319 52.266 103.319 53.02C103.319 53.774 103.562 54.398 104.047 54.892C104.533 55.3773 105.1 55.62 105.75 55.62Z" fill="white"/>
<path d="M115.317 58.038V46H116.162V58.038H115.317Z" fill="white"/>
<path d="M122.89 56.374V47.274H126.049C127.47 47.274 128.631 47.7073 129.533 48.574C130.434 49.432 130.885 50.5153 130.885 51.824C130.885 53.124 130.43 54.2073 129.52 55.074C128.618 55.9407 127.461 56.374 126.049 56.374H122.89ZM123.917 55.425H126.049C127.184 55.425 128.094 55.087 128.779 54.411C129.472 53.7263 129.819 52.864 129.819 51.824C129.819 50.7927 129.472 49.9347 128.779 49.25C128.085 48.5653 127.175 48.223 126.049 48.223H123.917V55.425Z" fill="white"/>
<path d="M133.487 53.423C133.557 54.1077 133.812 54.6537 134.254 55.061C134.705 55.4597 135.238 55.659 135.853 55.659C136.659 55.659 137.366 55.3427 137.972 54.71L138.596 55.269C137.842 56.1097 136.919 56.53 135.827 56.53C134.883 56.53 134.085 56.205 133.435 55.555C132.794 54.8963 132.473 54.0513 132.473 53.02C132.473 52.0407 132.781 51.213 133.396 50.537C134.012 49.8523 134.779 49.51 135.697 49.51C136.659 49.51 137.422 49.848 137.985 50.524C138.549 51.2 138.83 52.0493 138.83 53.072C138.83 53.202 138.826 53.319 138.817 53.423H133.487ZM133.487 52.617H137.816C137.756 51.967 137.539 51.4297 137.166 51.005C136.802 50.5717 136.304 50.355 135.671 50.355C135.099 50.355 134.61 50.5673 134.202 50.992C133.795 51.4167 133.557 51.9583 133.487 52.617Z" fill="white"/>
<path d="M142.806 56.504C142.321 56.504 141.827 56.4173 141.324 56.244C140.83 56.062 140.397 55.8193 140.024 55.516L140.531 54.801C141.294 55.373 142.069 55.659 142.858 55.659C143.265 55.659 143.599 55.5593 143.859 55.36C144.119 55.1607 144.249 54.8963 144.249 54.567C144.249 54.2637 144.106 54.0297 143.82 53.865C143.543 53.7003 143.127 53.54 142.572 53.384C142.234 53.2887 141.965 53.202 141.766 53.124C141.567 53.046 141.341 52.9377 141.09 52.799C140.839 52.6517 140.652 52.4697 140.531 52.253C140.41 52.0277 140.349 51.7633 140.349 51.46C140.349 50.888 140.561 50.4243 140.986 50.069C141.419 49.7137 141.97 49.536 142.637 49.536C143.504 49.536 144.31 49.783 145.055 50.277L144.6 51.031C143.933 50.5977 143.27 50.381 142.611 50.381C142.221 50.381 141.905 50.4763 141.662 50.667C141.428 50.849 141.311 51.0873 141.311 51.382C141.311 51.5033 141.346 51.616 141.415 51.72C141.484 51.824 141.562 51.9107 141.649 51.98C141.736 52.0493 141.87 52.123 142.052 52.201C142.243 52.279 142.394 52.3353 142.507 52.37C142.62 52.4047 142.797 52.461 143.04 52.539C143.361 52.6343 143.625 52.7253 143.833 52.812C144.041 52.8987 144.262 53.0157 144.496 53.163C144.73 53.3103 144.903 53.4967 145.016 53.722C145.137 53.9387 145.198 54.1943 145.198 54.489C145.198 55.113 144.973 55.607 144.522 55.971C144.071 56.3263 143.499 56.504 142.806 56.504Z" fill="white"/>
<path d="M147.083 48.184V47.079H148.227V48.184H147.083ZM147.148 56.374V49.653H148.149V56.374H147.148Z" fill="white"/>
<path d="M153.45 58.48C152.314 58.48 151.296 58.168 150.395 57.544L150.85 56.764C151.638 57.336 152.501 57.622 153.437 57.622C154.19 57.622 154.784 57.414 155.217 56.998C155.66 56.5907 155.881 56.0013 155.881 55.23V54.437C155.17 55.3817 154.29 55.854 153.242 55.854C152.392 55.854 151.651 55.5637 151.019 54.983C150.395 54.3937 150.082 53.6267 150.082 52.682C150.082 51.7373 150.399 50.9747 151.032 50.394C151.664 49.8047 152.401 49.51 153.242 49.51C154.316 49.51 155.191 49.9607 155.868 50.862V49.653H156.868V55.204C156.868 56.218 156.582 57.011 156.01 57.583C155.412 58.181 154.559 58.48 153.45 58.48ZM153.437 54.97C154.095 54.97 154.671 54.7533 155.165 54.32C155.66 53.8867 155.907 53.3363 155.907 52.669C155.907 52.0017 155.66 51.4557 155.165 51.031C154.68 50.6063 154.104 50.394 153.437 50.394C152.778 50.394 152.223 50.6063 151.772 51.031C151.33 51.447 151.109 51.9973 151.109 52.682C151.109 53.3407 151.335 53.8867 151.785 54.32C152.245 54.7533 152.795 54.97 153.437 54.97Z" fill="white"/>
<path d="M159.105 56.374V49.653H160.106V50.823C160.635 49.9477 161.402 49.51 162.407 49.51C163.205 49.51 163.833 49.757 164.292 50.251C164.752 50.7363 164.981 51.3863 164.981 52.201V56.374H163.98V52.448C163.98 51.8153 163.816 51.3213 163.486 50.966C163.166 50.602 162.711 50.42 162.121 50.42C161.541 50.42 161.06 50.615 160.678 51.005C160.297 51.395 160.106 51.902 160.106 52.526V56.374H159.105Z" fill="white"/>
<path d="M171.443 58.038V46H172.288V58.038H171.443Z" fill="white"/>
<path d="M182.136 56.504C180.74 56.504 179.501 56.0187 178.418 55.048L179.055 54.294C179.54 54.736 180.025 55.061 180.511 55.269C181.005 55.477 181.559 55.581 182.175 55.581C182.781 55.581 183.271 55.438 183.644 55.152C184.016 54.8573 184.203 54.476 184.203 54.008C184.203 53.566 184.038 53.215 183.709 52.955C183.379 52.695 182.755 52.4697 181.837 52.279C180.753 52.045 179.973 51.7287 179.497 51.33C179.02 50.9313 178.782 50.3637 178.782 49.627C178.782 48.9077 179.063 48.314 179.627 47.846C180.19 47.378 180.905 47.144 181.772 47.144C182.976 47.144 184.042 47.5167 184.97 48.262L184.372 49.055C183.566 48.3963 182.69 48.067 181.746 48.067C181.165 48.067 180.697 48.21 180.342 48.496C179.986 48.7733 179.809 49.1287 179.809 49.562C179.809 50.0127 179.978 50.368 180.316 50.628C180.662 50.888 181.317 51.122 182.279 51.33C183.31 51.5553 184.06 51.8717 184.528 52.279C185.004 52.6777 185.243 53.228 185.243 53.93C185.243 54.7013 184.952 55.3253 184.372 55.802C183.791 56.27 183.046 56.504 182.136 56.504Z" fill="white"/>
<path d="M189.411 56.491C188.83 56.491 188.367 56.3393 188.02 56.036C187.682 55.724 187.513 55.243 187.513 54.593V50.537H186.577V49.653H187.513V47.625H188.514V49.653H190.646V50.537H188.514V54.463C188.514 55.2083 188.891 55.581 189.645 55.581C189.974 55.581 190.299 55.503 190.62 55.347V56.205C190.256 56.3957 189.853 56.491 189.411 56.491Z" fill="white"/>
<path d="M194.888 56.517C194.09 56.517 193.462 56.2743 193.003 55.789C192.543 55.295 192.314 54.6407 192.314 53.826V49.653H193.315V53.579C193.315 54.2117 193.475 54.71 193.796 55.074C194.125 55.4293 194.584 55.607 195.174 55.607C195.754 55.607 196.235 55.412 196.617 55.022C196.998 54.632 197.189 54.125 197.189 53.501V49.653H198.177V56.374H197.189V55.204C196.643 56.0793 195.876 56.517 194.888 56.517Z" fill="white"/>
<path d="M203.25 56.517C202.392 56.517 201.642 56.2007 201.001 55.568C200.359 54.9267 200.039 54.073 200.039 53.007C200.039 51.9583 200.359 51.1133 201.001 50.472C201.642 49.8307 202.392 49.51 203.25 49.51C204.307 49.51 205.165 49.9867 205.824 50.94V46.884H206.825V56.374H205.824V55.022C205.148 56.0187 204.29 56.517 203.25 56.517ZM203.432 55.62C204.082 55.62 204.649 55.373 205.135 54.879C205.62 54.385 205.863 53.7567 205.863 52.994C205.863 52.2487 205.62 51.6333 205.135 51.148C204.649 50.654 204.082 50.407 203.432 50.407C202.756 50.407 202.192 50.6453 201.742 51.122C201.291 51.59 201.066 52.2227 201.066 53.02C201.066 53.7913 201.295 54.4197 201.755 54.905C202.214 55.3817 202.773 55.62 203.432 55.62Z" fill="white"/>
<path d="M209.087 48.184V47.079H210.231V48.184H209.087ZM209.152 56.374V49.653H210.153V56.374H209.152Z" fill="white"/>
<path d="M218.053 55.503C217.377 56.1877 216.541 56.53 215.544 56.53C214.548 56.53 213.716 56.1877 213.048 55.503C212.39 54.8183 212.06 53.9907 212.06 53.02C212.06 52.058 212.394 51.2347 213.061 50.55C213.737 49.8567 214.574 49.51 215.57 49.51C216.567 49.51 217.399 49.8523 218.066 50.537C218.734 51.2217 219.067 52.0493 219.067 53.02C219.067 53.982 218.729 54.8097 218.053 55.503ZM215.57 55.633C216.29 55.633 216.879 55.3817 217.338 54.879C217.806 54.3763 218.04 53.7567 218.04 53.02C218.04 52.292 217.798 51.6723 217.312 51.161C216.836 50.6497 216.246 50.394 215.544 50.394C214.825 50.394 214.236 50.6497 213.776 51.161C213.317 51.6637 213.087 52.2833 213.087 53.02C213.087 53.748 213.326 54.3677 213.802 54.879C214.279 55.3817 214.868 55.633 215.57 55.633Z" fill="white"/>
</g>
<path d="M88.2557 38.3174C85.7775 38.3174 83.7356 37.5529 82.1125 36.0238C80.4895 34.4947 79.6867 32.5485 79.6867 30.168C79.6867 27.8743 80.4895 25.9282 82.1125 24.3643C83.7181 22.8005 85.7426 22.0186 88.1684 22.0186C90.6641 22.0186 92.7933 22.7831 94.5559 24.2948L91.9905 27.3704C90.8037 26.38 89.5297 25.8934 88.1859 25.8934C87.0515 25.8934 86.0916 26.3105 85.3237 27.1445C84.5558 27.9786 84.1719 29.0038 84.1719 30.2375C84.1719 31.506 84.5733 32.5485 85.3761 33.3652C86.1789 34.1819 87.2086 34.5815 88.4477 34.5815C89.4599 34.5815 90.3151 34.373 90.9608 33.9386V32.0272H87.8543V28.8474H95.097V35.9021C93.1423 37.5007 90.8561 38.3174 88.2557 38.3174Z" fill="white"/>
<path d="M97.5402 38.0034V22.3301H110.21V26.0312H101.868V28.4117H109.425V31.8349H101.868V34.3197H110.333V38.0208H97.5402V38.0034Z" fill="white"/>
<path d="M112.532 38.0034V22.3301H116.895V28.6898L122.322 22.3301H127.506L121.537 29.072L127.698 38.0034H122.462L118.5 32.165L116.895 33.9374V37.986H112.532V38.0034Z" fill="white"/>
<path d="M132.811 38.0034V26.1355H128.082V22.3301H141.904V26.1355H137.174V38.0034H132.811Z" fill="white"/>
<path d="M157.785 35.9357C156.162 37.5169 154.138 38.3162 151.729 38.3162C149.321 38.3162 147.296 37.5343 145.691 35.9531C144.085 34.3718 143.265 32.4431 143.265 30.1668C143.265 27.8905 144.085 25.9791 145.708 24.3805C147.331 22.7993 149.356 22 151.764 22C154.173 22 156.197 22.7819 157.803 24.3632C159.408 25.9444 160.228 27.8732 160.228 30.1494C160.228 32.4257 159.426 34.3545 157.785 35.9357ZM151.782 34.3892C152.968 34.3892 153.928 33.9722 154.679 33.1555C155.429 32.3388 155.796 31.331 155.796 30.1494C155.796 28.9852 155.412 27.9948 154.644 27.1607C153.876 26.3267 152.916 25.9096 151.747 25.9096C150.577 25.9096 149.618 26.3267 148.885 27.1434C148.134 27.96 147.768 28.9679 147.768 30.1494C147.768 31.3136 148.152 32.3041 148.902 33.1381C149.635 33.9722 150.612 34.3892 151.782 34.3892Z" fill="white"/>
<path d="M162.515 38.0034V22.3301H169.967C172.253 22.3301 173.963 22.8861 175.098 24.0156C176.023 24.9365 176.494 26.1876 176.494 27.7341C176.494 30.0277 175.412 31.6437 173.248 32.5473L177 38.0208H171.956L168.78 33.2771H166.86V38.0208H162.515V38.0034ZM166.878 29.8366H169.757C170.49 29.8366 171.066 29.6628 171.485 29.3327C171.904 29.0025 172.096 28.5334 172.096 27.9252C172.096 27.317 171.886 26.8479 171.485 26.5351C171.066 26.2223 170.49 26.066 169.74 26.066H166.878V29.8366Z" fill="white"/>
<path d="M185 37.6923V34.4835L190.767 30.0879C191.486 29.5458 191.992 29.0696 192.286 28.6593C192.594 28.2344 192.748 27.7875 192.748 27.3187C192.748 26.8352 192.587 26.4542 192.264 26.1758C191.956 25.8974 191.545 25.7582 191.031 25.7582C190.532 25.7582 190.048 25.9121 189.578 26.2198C189.123 26.5128 188.588 27.0183 187.972 27.7363L185.088 25.3407C185.969 24.1978 186.878 23.3626 187.817 22.8352C188.757 22.3077 189.938 22.044 191.361 22.044C193.049 22.044 194.413 22.5055 195.455 23.4286C196.512 24.337 197.04 25.5238 197.04 26.989C197.04 28.1465 196.761 29.1136 196.204 29.8901C195.646 30.652 194.736 31.4799 193.474 32.3736L190.833 34.2198H197.194V37.6923H185Z" fill="white"/>
<path d="M198.956 37.6923V33.4066H203.314V37.6923H198.956Z" fill="white"/>
<path d="M217.019 35.6923C215.713 37.2308 213.989 38 211.846 38C209.704 38 207.98 37.2381 206.674 35.7143C205.382 34.1758 204.737 32.2711 204.737 30C204.737 27.7582 205.397 25.8681 206.718 24.3297C208.038 22.7766 209.763 22 211.89 22C214.033 22 215.75 22.7692 217.041 24.3077C218.347 25.8462 219 27.7436 219 30C219 32.2418 218.34 34.1392 217.019 35.6923ZM209.821 33.0549C210.35 33.8315 211.039 34.2198 211.89 34.2198C212.742 34.2198 213.424 33.8315 213.937 33.0549C214.451 32.2637 214.708 31.2454 214.708 30C214.708 28.7692 214.436 27.7582 213.893 26.967C213.365 26.1758 212.683 25.7802 211.846 25.7802C210.995 25.7802 210.313 26.1685 209.799 26.9451C209.286 27.7216 209.029 28.7399 209.029 30C209.029 31.2454 209.293 32.2637 209.821 33.0549Z" fill="white"/>
<path d="M38 16.0005H29L24.5 22.0005V27.0005L26.5 28.0005V32.0005L32 37.0005H34L40 32.0005V28.0005L42 27.0005V22.0005L38 16.0005Z" fill="white"/>
<path d="M49.5816 22.711C49.599 22.3635 49.5816 22.016 49.5467 21.6859C49.4594 21.0603 49.3547 20.4348 49.25 19.8092C49.2325 19.6876 49.1627 19.5833 49.058 19.5312C47.3651 18.5234 45.6548 17.5156 43.962 16.5077C43.8922 16.4556 43.77 16.4035 43.8223 16.3166C43.8747 16.2297 43.9794 16.2992 44.0492 16.3166L48.866 17.4461C48.9358 17.4808 49.0056 17.4808 49.0755 17.4634C49.0406 17.3939 48.9707 17.3592 48.9009 17.3244C46.3355 15.7084 43.77 14.0925 41.2045 12.4765C41.0824 12.3896 40.9427 12.3722 40.8031 12.4243C38.3773 13.2236 35.9514 14.023 33.5256 14.8396C33.351 14.8918 33.1765 14.8918 33.0194 14.8396C30.5936 14.0403 28.1677 13.241 25.7419 12.4243C25.6023 12.3722 25.4626 12.3896 25.3405 12.4765C22.775 14.0925 20.2095 15.7084 17.6441 17.3244C17.5743 17.3592 17.5045 17.4113 17.4521 17.4634C17.5045 17.4808 17.5743 17.4634 17.6266 17.4461L21.1171 16.6294L22.5481 16.2819C22.6005 16.2645 22.6703 16.2471 22.6878 16.2992C22.7052 16.3514 22.6703 16.4209 22.6179 16.4382L22.5307 16.4904C20.8902 17.4634 19.2322 18.4539 17.5743 19.4269C17.3823 19.5138 17.2427 19.705 17.2078 19.9309C17.0681 20.8518 16.8762 21.7727 16.8936 22.7284C16.9111 23.5799 16.8762 24.4313 17.0507 25.2827C17.1554 25.7693 17.1903 26.2732 17.3125 26.7771C17.5045 27.4895 17.7488 28.1672 18.0629 28.8275C18.3073 29.3661 18.569 29.87 18.8832 30.3739C18.9181 30.4261 18.9355 30.4956 19.0228 30.5303C19.0926 30.4782 19.145 30.4087 19.1799 30.3392L20.9076 27.9065C20.96 27.837 20.9949 27.7501 21.0996 27.7675C21.2043 27.8023 21.2043 27.9065 21.2043 27.9934V28.0803C21.1869 28.6363 21.152 29.1924 21.1345 29.7484C21.0996 30.8952 21.0472 32.0594 21.0123 33.2063C21.0123 33.3105 21.0472 33.3974 21.1171 33.4669C22.4609 34.8223 23.8047 36.1776 25.166 37.5329C25.2009 37.5677 25.2183 37.6198 25.3056 37.6024C25.4626 37.3418 25.6197 37.0638 25.7942 36.8031C25.9513 36.5425 26.1084 36.2645 26.2829 36.0212L26.3353 36.0386V38.5755C26.3178 38.7319 26.3876 38.8883 26.5098 38.9925C28.7088 41.0429 30.8903 43.1107 33.0893 45.1611C33.1242 45.2132 33.194 45.2653 33.2463 45.2827L33.351 45.1958C35.5675 43.1107 37.7839 41.0256 40.0178 38.9404C40.105 38.8535 40.1574 38.7493 40.1574 38.6276V36.195C40.1574 36.1428 40.1225 36.0733 40.2097 36.0212L41.1871 37.6372C41.2569 37.6024 41.3092 37.5677 41.3441 37.5156C42.688 36.1776 44.0143 34.8223 45.3581 33.4843C45.4454 33.4148 45.4803 33.3105 45.4629 33.2063C45.4279 32.4765 45.4105 31.7293 45.3756 30.9995C45.3407 30.009 45.3058 29.036 45.2709 28.0455C45.2709 27.9413 45.2534 27.8196 45.3756 27.7675C45.4978 27.7154 45.5327 27.8544 45.6025 27.9239C46.1784 28.7232 46.7543 29.5225 47.3302 30.3392C47.3826 30.4087 47.4349 30.4608 47.4699 30.5303C47.5222 30.4956 47.5746 30.4435 47.592 30.3739C47.9062 29.8874 48.1679 29.3661 48.4123 28.8448C48.7264 28.1845 48.9707 27.4895 49.1627 26.7771C49.2849 26.2732 49.3372 25.7693 49.4245 25.2653C49.4769 24.9699 49.5292 24.6572 49.5467 24.3618C49.599 23.8057 49.5816 23.2671 49.5816 22.711ZM35.2184 35.5521C35.1835 35.5521 35.1661 35.5173 35.1137 35.4652C34.9915 35.3088 34.8868 35.1524 34.7647 34.9786C34.6076 35.1176 34.468 35.274 34.3284 35.4478C34.1015 35.7084 33.8746 35.9865 33.6477 36.2471C33.6477 36.2645 33.6303 36.2645 33.6128 36.2819C33.5954 36.2992 33.5954 36.2992 33.5779 36.3166C33.5605 36.334 33.543 36.334 33.5256 36.3514C33.5081 36.3514 33.4907 36.3687 33.4557 36.3687C33.4383 36.3687 33.4383 36.3687 33.4208 36.3687H33.4034C33.2114 36.3687 33.0194 36.3514 32.8275 36.3687C32.7228 36.3687 32.618 36.334 32.5482 36.2471C32.2341 35.8648 31.9025 35.4825 31.5884 35.1176C31.5535 35.0829 31.5186 35.0308 31.4837 34.996C31.2917 35.1871 31.1695 35.413 31.0124 35.6216C30.803 35.413 30.5761 35.2045 30.3842 34.9786C30.3318 34.9265 30.3144 34.857 30.3144 34.7875V33.9534C30.3144 33.8839 30.3493 33.8144 30.4016 33.7971C30.4016 33.7971 30.4191 33.7971 30.4191 33.7797C31.2568 33.3105 32.1119 32.8587 32.9496 32.3896C32.9845 32.3722 33.0194 32.3548 33.0543 32.3375C33.0893 32.3375 33.1067 32.3375 33.1416 32.3375C33.1765 32.3375 33.2289 32.3548 33.2638 32.3896C34.1015 32.8587 34.9217 33.3105 35.7594 33.7623C35.8467 33.7971 35.8991 33.8839 35.8816 33.9708V34.7527C35.8816 34.857 35.8467 34.9613 35.7594 35.0308C35.6024 35.1872 35.4628 35.3262 35.3057 35.4825C35.2882 35.4999 35.2533 35.5347 35.2184 35.5521C35.2184 35.5521 35.2359 35.5521 35.2184 35.5521ZM41.3441 24.327C41.1871 24.6051 41.0474 24.8831 40.9078 25.1611C40.8555 25.248 40.7857 25.3175 40.7159 25.387C40.0178 25.943 39.3371 26.4991 38.639 27.0551C38.5343 27.1246 38.482 27.2462 38.482 27.3679C38.482 27.8196 38.5692 28.2541 38.6041 28.7058C38.6216 29.0186 38.7089 29.3314 38.7961 29.6268C38.7961 29.6268 38.7961 29.6268 38.7961 29.6441C38.831 29.7658 38.8659 29.8874 38.9008 30.009C38.9183 30.0786 38.9357 30.1481 38.9532 30.2002C38.9881 30.3739 39.0055 30.3739 38.831 30.4087L37.1382 30.7736C37.016 30.791 36.9985 30.8431 37.016 30.9647C37.016 30.9821 37.016 30.9995 37.0334 31.0169C37.0509 31.0342 37.0684 31.0516 37.1033 31.0516H37.2254L38.7438 31.069C38.7961 31.069 38.831 31.069 38.8834 31.0864C38.9357 31.1037 38.9881 31.1385 39.0055 31.1906L39.023 31.208C39.023 31.2254 39.0404 31.2254 39.0404 31.2428C39.0579 31.3123 39.0579 31.3818 39.0404 31.4339C38.9881 31.6945 38.8659 31.9378 38.6914 32.1289C38.6216 32.1984 38.5343 32.2506 38.4296 32.2506C37.9235 32.2506 37.4348 32.1463 36.9811 31.9378L36.9113 31.9031C36.8415 31.8683 36.7542 31.8335 36.7368 31.9031C36.7019 31.9552 36.7019 32.0073 36.7193 32.0594C36.7193 32.0594 36.7193 32.0768 36.7368 32.0768C36.7368 32.0942 36.7542 32.1116 36.7717 32.1116C36.9113 32.2332 37.0334 32.3896 37.2603 32.3896C37.2952 32.3896 37.365 32.4417 37.4174 32.4938C37.4523 32.5286 37.4698 32.5633 37.5047 32.5981C37.5047 32.5981 37.5047 32.5981 37.5047 32.6155C37.5221 32.6329 37.5221 32.6676 37.5221 32.685C37.4872 32.824 37.365 32.9456 37.2254 32.9804H36.2481C36.1608 32.9804 36.0736 32.9456 36.0212 32.8587C35.934 32.7371 35.7943 32.6676 35.6373 32.685C35.5326 32.685 35.4453 32.6676 35.358 32.5981C35.1312 32.4591 34.9043 32.3027 34.6774 32.1637C34.4854 32.0247 34.2935 31.8683 34.1189 31.6945C33.9968 31.5903 33.8921 31.486 33.7873 31.3818C33.7524 31.3644 33.735 31.3296 33.7175 31.3123C33.6826 31.2601 33.6826 31.208 33.7175 31.1385C33.7873 30.9647 33.8572 30.7736 33.9095 30.5998C33.9444 30.5303 33.9793 30.4608 34.0317 30.4087C34.1713 30.2523 34.2935 30.1133 34.4156 29.9569C34.4854 29.87 34.5727 29.8005 34.66 29.7484C35.3231 29.3835 35.9863 29.0012 36.6495 28.6363C36.6844 28.6016 36.7193 28.5842 36.7717 28.5668C36.8415 28.5494 36.8764 28.4799 36.8589 28.4104C36.8589 28.3931 36.8589 28.3757 36.8589 28.3757V28.3583C36.8415 28.3236 36.7891 28.3236 36.7542 28.3062C36.5448 28.2367 36.3179 28.1845 36.1085 28.1845C35.7245 28.1672 35.3231 28.2367 34.9915 28.4278C34.4505 28.7058 33.8921 28.9665 33.3336 29.2271C33.2114 29.2966 33.0718 29.2966 32.9671 29.2271C32.269 28.897 31.5884 28.5668 30.8903 28.2367C30.8554 28.2019 30.803 28.2019 30.7681 28.1845C30.3667 28.2019 29.9479 28.115 29.5465 28.2888C29.4941 28.3062 29.4243 28.3062 29.4243 28.3931C29.4243 28.4278 29.4243 28.4452 29.4417 28.4799C29.4417 28.4799 29.4417 28.4799 29.4417 28.4973C29.4592 28.5321 29.4941 28.5494 29.529 28.5668C30.0002 28.8275 30.454 29.0881 30.9252 29.3487C31.1346 29.4704 31.344 29.592 31.5535 29.6963C31.7629 29.8005 31.8676 29.9743 32.0247 30.1133C32.1119 30.2002 32.1992 30.3044 32.2516 30.3913C32.3388 30.5303 32.4086 30.6867 32.461 30.8431C32.4959 30.93 32.5308 31.0342 32.5657 31.1211C32.6006 31.1906 32.5831 31.2775 32.5133 31.3296C32.1468 31.6598 31.8152 32.0247 31.3615 32.2853C31.2393 32.3548 31.1172 32.4243 31.0124 32.5112C30.8728 32.6329 30.6983 32.685 30.5238 32.6676C30.4191 32.6502 30.3493 32.7197 30.2969 32.7892C30.2096 32.8935 30.07 32.963 29.9304 32.9456H29.0578C28.9356 32.9282 28.8484 32.8587 28.796 32.7545C28.796 32.7371 28.7786 32.7197 28.7786 32.7024C28.7786 32.685 28.7611 32.6676 28.7611 32.6502C28.796 32.5112 28.9007 32.3896 29.0403 32.3548C29.2498 32.3548 29.3719 32.1811 29.5116 32.0594C29.5465 32.0247 29.5639 31.9726 29.5465 31.9204C29.5465 31.9204 29.5465 31.9031 29.529 31.9031V31.8857L29.5116 31.8683C29.4592 31.8162 29.3894 31.8335 29.337 31.8683C29.0578 32.0421 28.7437 32.0594 28.447 32.1463C28.2201 32.1984 27.9932 32.2158 27.7663 32.1984C27.714 32.1984 27.6616 32.1811 27.6267 32.1463C27.5569 32.0768 27.4871 31.9899 27.4347 31.9204C27.3824 31.8509 27.3475 31.764 27.3126 31.6772C27.3126 31.6598 27.2951 31.625 27.2951 31.6077V31.5903C27.2777 31.5555 27.2777 31.5208 27.2602 31.486C27.2602 31.486 27.2602 31.486 27.2602 31.4686C27.2602 31.4513 27.2428 31.4339 27.2428 31.4165C27.2253 31.3644 27.2079 31.3123 27.2253 31.2601C27.2428 31.1037 27.3824 30.9995 27.5395 31.0342C28.063 31.0169 28.5866 31.0169 29.1102 31.0169C29.2149 31.0169 29.2498 30.9821 29.2498 30.8779C29.2498 30.8605 29.2498 30.8257 29.2323 30.8257V30.8084C29.2149 30.7736 29.18 30.7562 29.1276 30.7562C28.604 30.652 28.0979 30.5477 27.5744 30.4261L27.4173 30.3913C27.33 30.3739 27.2951 30.3566 27.2951 30.3218C27.2951 30.3044 27.2951 30.2697 27.3126 30.2002C27.3649 30.009 27.3998 29.8179 27.4697 29.6441C27.5918 29.2271 27.6791 28.7927 27.714 28.3409C27.7663 28.0108 27.8012 27.6806 27.8012 27.3331C27.8012 27.2984 27.8012 27.281 27.8012 27.2462C27.8012 27.2289 27.8012 27.2115 27.7838 27.1941C27.7838 27.1767 27.7663 27.1594 27.7489 27.142C27.7314 27.1072 27.6965 27.0898 27.6616 27.0551C26.9635 26.4991 26.2655 25.943 25.5674 25.3696C25.4976 25.3175 25.4277 25.248 25.3754 25.1785C25.3754 25.1785 25.3754 25.1785 25.3754 25.1611C25.3056 25.0221 25.2358 24.8831 25.166 24.7441C25.0962 24.6051 25.0263 24.466 24.9391 24.3097C24.9391 24.2923 24.9216 24.2923 24.9216 24.2749V24.2575C24.9042 24.188 24.9216 24.1185 24.9914 24.0664C25.3579 23.6841 25.7244 23.3018 26.0909 22.9369C26.2829 22.7806 26.4923 22.6242 26.7018 22.5025C26.7541 22.4852 26.8065 22.4678 26.8588 22.4678C27.1555 22.4504 27.4522 22.5025 27.7314 22.6242C27.7838 22.6415 27.8361 22.6763 27.8711 22.7284C27.8711 22.7458 27.8885 22.7632 27.8885 22.7806C27.8885 22.7979 27.906 22.8153 27.906 22.8327C27.9583 23.0586 28.0107 23.2845 28.063 23.493C28.063 23.5277 28.0805 23.5451 28.0805 23.5625C28.0805 23.5799 28.0979 23.5972 28.1154 23.632C28.1503 23.6841 28.1677 23.7189 28.2201 23.7536C28.4644 23.9795 28.6913 24.2054 28.9182 24.4487C28.988 24.5355 29.1102 24.5877 29.2149 24.5703H29.8781C29.9653 24.5703 30.0002 24.5703 30.0351 24.5877C30.07 24.6051 30.07 24.6572 30.07 24.7441V25.804C30.07 25.8909 30.0875 25.9604 30.1224 26.0299C30.1224 26.0473 30.1398 26.0647 30.1573 26.082C30.2969 26.3253 30.4191 26.5686 30.5412 26.8118C30.5412 26.8118 30.5412 26.8118 30.5412 26.8292C30.611 26.9335 30.7507 26.9856 30.8728 26.9335C30.9252 26.8987 30.9077 26.8466 30.9077 26.8118V26.3079C30.9077 25.9083 30.9252 25.5086 30.9077 25.109C30.8903 24.9526 30.9601 24.7962 31.0823 24.6919C31.3091 24.5008 31.536 24.2923 31.728 24.0838C31.9723 23.8231 32.1643 23.5104 32.1468 23.1281V22.7632L32.0945 22.7458C31.9549 22.9022 31.8327 23.0759 31.728 23.2497C31.5884 23.4235 31.4487 23.5799 31.3266 23.771C31.2568 23.8753 31.1346 23.9274 31.0124 23.91C30.803 23.8926 30.7332 23.8753 30.6983 23.771C30.6809 23.7189 30.6634 23.6667 30.6459 23.5799C30.5936 23.354 30.5412 23.1281 30.4889 22.9196C30.4889 22.8848 30.4714 22.8501 30.454 22.8327C30.4365 22.7979 30.4016 22.7632 30.3667 22.7458C29.5988 22.3461 28.8484 21.9465 28.0805 21.5468C27.7314 21.3731 27.3824 21.1819 27.0333 21.0082C26.981 20.9908 26.9461 20.9561 26.9286 20.9039C26.9112 20.8692 26.9112 20.8518 26.9112 20.817V19.1663C26.9112 19.0794 26.9461 19.0099 27.0159 18.9578C27.906 18.2627 28.796 17.5851 29.6861 16.89C29.7733 16.8031 29.8955 16.8031 30.0002 16.8553C30.6809 17.2202 31.3615 17.5851 32.0596 17.95C32.3912 18.1237 32.7053 18.2975 33.0369 18.4713C33.1242 18.5234 33.2638 18.5234 33.351 18.4713C33.8048 18.228 34.276 17.9847 34.7298 17.7415C35.2882 17.4461 35.8467 17.1507 36.3877 16.8553C36.475 16.8031 36.5971 16.8031 36.667 16.89C37.557 17.5851 38.4471 18.2801 39.3371 18.9578C39.372 18.9752 39.3895 19.0099 39.4069 19.0273C39.4244 19.0447 39.4244 19.062 39.4419 19.0794C39.4593 19.1316 39.4768 19.1663 39.4593 19.2184C39.4593 19.7397 39.4593 20.2436 39.4593 20.7649C39.4768 20.8865 39.4069 20.9908 39.2848 21.0429C38.2027 21.599 37.1033 22.1724 36.0212 22.7458C35.9514 22.7806 35.8991 22.8501 35.8816 22.9369C35.8118 23.215 35.742 23.493 35.6896 23.7884C35.6896 23.8579 35.6198 23.91 35.55 23.91C35.1486 23.9621 35.1486 23.9621 34.9043 23.632C34.7123 23.3887 34.5203 23.1281 34.3284 22.8848C34.3109 22.8501 34.2935 22.7979 34.2062 22.8153C34.2062 23.1281 34.1713 23.4235 34.3109 23.7189C34.3284 23.771 34.3633 23.8057 34.3982 23.8579C34.4156 23.8926 34.4505 23.9448 34.4854 23.9795C34.6774 24.2402 34.9217 24.4487 35.1661 24.6746L35.1835 24.6919C35.2533 24.7267 35.3057 24.7788 35.358 24.8483C35.3755 24.8657 35.3929 24.9004 35.3929 24.9178C35.4104 24.9352 35.4104 24.9526 35.4278 24.9873C35.4628 25.0916 35.4802 25.1958 35.4802 25.3001C35.4628 25.8214 35.4802 26.3427 35.4802 26.864C35.4802 26.8987 35.4628 26.9508 35.4802 26.9856C35.4802 27.003 35.5151 27.0203 35.55 27.0203C35.6547 27.0203 35.7594 27.0725 35.8292 26.9335C35.9689 26.6554 36.1259 26.36 36.283 26.082C36.3179 26.0125 36.3179 25.943 36.3179 25.8735V24.8136C36.3179 24.6224 36.3179 24.6224 36.5099 24.6224H37.208C37.2778 24.6224 37.365 24.6051 37.4174 24.5529C37.6966 24.2749 37.9584 23.9795 38.2551 23.7362C38.3075 23.7015 38.3075 23.6494 38.3075 23.5972C38.3598 23.354 38.4296 23.1107 38.482 22.8674C38.4994 22.8153 38.4994 22.7458 38.5692 22.7284C38.7787 22.6415 38.9881 22.5894 39.1975 22.5373C39.6338 22.4678 39.948 22.7284 40.2447 22.9717C40.6461 23.3366 41.0125 23.7536 41.3965 24.1533C41.3965 24.1533 41.4139 24.1706 41.4139 24.188L41.4314 24.2054C41.379 24.2228 41.379 24.2749 41.3441 24.327Z" fill="#2B2B2B"/>
<path d="M31.9375 58.5061L26.3877 68.0804H26.3528H26.3354C26.3179 68.0457 26.283 68.0109 26.2656 67.9762L20.7681 58.5409C20.9426 58.4714 31.4489 58.454 31.9375 58.5061ZM38.8486 68.8623L33.3337 59.375C33.3162 59.3576 33.2988 59.3228 33.2813 59.3054H33.2639H33.229L27.6792 68.8797C28.2551 68.9319 38.6741 68.9145 38.8486 68.8623ZM40.1749 68.1326L45.7596 58.4888H34.5728L40.1749 68.1326ZM38.8486 70.3741H27.6792L33.2813 80.0005L38.8486 70.3741Z" fill="#FFA200"/>
<path d="M48.36 33.1372L53.9272 23.5107L59.5119 33.1198C59.3374 33.1719 48.9185 33.1893 48.36 33.1372ZM5.60215 56.2475L11.1868 46.6037H0L5.60215 56.2475ZM60.8732 56.2475L66.4579 46.6037H55.2711L60.8732 56.2475ZM18.0805 56.9599L12.4958 47.3509L6.92851 56.9773C7.50444 57.0294 17.9059 57.0121 18.0805 56.9599ZM12.4783 23.5629C12.2689 23.8409 6.98087 32.9981 6.94597 33.1545H18.0456C17.9757 32.946 12.6179 23.7193 12.4783 23.5629ZM24.9915 46.6037H13.8221L19.4243 56.2475L24.9915 46.6037ZM41.4489 46.6037L47.0511 56.2475L52.6358 46.6037H41.4489ZM48.3774 56.9947H59.5643L53.9621 47.3509L48.3774 56.9947ZM18.0805 34.6489H6.91106L12.5132 44.2753L18.0805 34.6489ZM59.5294 34.6489H48.36L53.9621 44.2753L59.5294 34.6489ZM5.5847 35.3787L0 45.0225H11.1694L5.5847 35.3787ZM24.9915 45.0051L19.3894 35.3787L13.8221 45.0051H24.9915ZM41.4489 45.0051H52.6183L47.0162 35.3787L41.4489 45.0051ZM66.4404 45.0051L60.8383 35.3787L55.2711 45.0051H66.4404ZM27.6617 46.5342L33.2639 56.1606L38.8311 46.5342H27.6617ZM31.9026 56.9078C31.7979 56.6472 26.4401 47.4204 26.3179 47.3161L20.7681 56.9078H31.9026ZM40.1575 47.2814L34.5902 56.9078H45.7596L40.1575 47.2814Z" fill="#2B2B2B"/>
<path d="M20.7681 4.55253C21.1695 4.60466 21.4836 4.67416 21.7454 4.70891C22.4784 4.81317 23.0194 4.9348 23.1765 4.96956C23.4383 5.02168 23.6477 5.07381 23.9444 5.14332C24.9915 5.42134 25.3231 5.62985 25.3231 5.62985C25.3755 5.64723 25.4278 5.6646 25.4802 5.71673C25.5151 5.75149 25.55 5.80361 25.55 5.85574C25.55 5.89049 25.5325 5.92525 25.5151 5.96C25.4627 6.01213 25.4104 6.04688 25.3406 6.04688C25.2533 6.08163 25.166 6.13376 25.0962 6.18589C24.8519 6.37703 24.7646 6.70718 24.8868 6.98519C25.0264 7.24584 25.2009 7.50648 25.4104 7.715C25.6373 7.97564 25.8816 8.13202 26.2481 8.06252C26.4051 8.02777 26.5797 8.09727 26.7367 7.97564C26.9811 7.7845 27.2079 7.61074 27.3127 7.31534C27.3999 7.0547 27.4523 6.77668 27.4523 6.48128C27.4348 5.56035 27.4523 4.62203 27.4697 3.70109C27.557 3.99649 27.6617 4.27451 27.7141 4.5699C27.8013 4.9348 27.9409 5.28233 28.1155 5.61248C28.2551 5.87312 28.3947 6.13376 28.5692 6.3944C28.6914 6.56817 28.831 6.72455 28.9881 6.88094C29.4069 7.29797 30.0177 7.45435 30.5937 7.28059C30.6809 7.26321 30.7682 7.21109 30.838 7.15896C31.187 6.88094 31.4139 6.48129 31.4663 6.0295C31.5186 5.75148 31.379 5.49084 31.1347 5.35183C31.0125 5.28233 30.8729 5.2302 30.7333 5.19545C30.646 5.17807 30.5588 5.16069 30.4715 5.12594C30.4191 5.10857 30.3493 5.09119 30.3319 5.02168C30.3144 4.95218 30.3842 4.90005 30.4366 4.8653C31.2918 4.34401 31.8502 3.56208 32.3563 2.72803C32.5832 2.3805 32.7577 1.99823 32.9148 1.61595C33.037 1.30318 33.1417 0.973031 33.194 0.660259C33.194 0.573378 33.2115 0.486497 33.2464 0.416992C33.2988 0.416992 33.3162 0.451745 33.3162 0.486497C33.4035 1.04254 33.578 1.59857 33.8223 2.10248C34.2237 2.91916 34.7473 3.68372 35.3756 4.32664C35.5501 4.5004 35.7595 4.65678 35.9689 4.79579C36.0038 4.81317 36.0387 4.83055 36.0737 4.8653C36.1435 4.90005 36.2133 4.9348 36.1958 5.02168C36.1784 5.10857 36.0911 5.12594 36.0213 5.14332C35.8293 5.19545 35.6548 5.24758 35.4803 5.31708C35.2185 5.40396 35.0265 5.64723 35.044 5.92525C35.044 6.16851 35.1138 6.42916 35.2359 6.63767C35.3581 6.82881 35.4977 7.00257 35.6723 7.14158C35.8817 7.28059 36.126 7.35009 36.3703 7.33272C36.7368 7.35009 37.0859 7.22846 37.3826 7.00257C37.6793 6.7593 37.941 6.46391 38.1156 6.13376C38.3424 5.76886 38.5344 5.38658 38.674 4.98693C38.7787 4.65678 38.866 4.32664 38.9533 3.99649C38.9707 3.92698 39.0056 3.85748 39.0231 3.75322C39.058 3.85748 39.058 3.96174 39.0405 4.06599C39.0405 4.96956 39.0231 5.87312 39.058 6.77668C39.058 7.22846 39.2849 7.66287 39.6514 7.94089C39.7735 8.04514 39.9306 8.09727 40.0702 8.0799C40.2622 8.0799 40.4367 8.0799 40.6287 8.0799C40.7334 8.0799 40.8206 8.04514 40.8905 7.97564C41.1348 7.73237 41.3442 7.4891 41.5536 7.21109C41.7805 6.86356 41.6933 6.3944 41.3617 6.16851C41.3442 6.15114 41.3268 6.15114 41.3093 6.13376C41.222 6.08163 41.1348 6.04688 41.0475 5.99475C40.9079 5.90787 40.9079 5.82099 41.0301 5.71673C41.1173 5.64723 41.222 5.5951 41.3442 5.56035C42.0248 5.2997 42.7229 5.09119 43.4385 4.95218C44.1715 4.79579 44.9045 4.70891 45.6374 4.58728C45.6898 4.58728 45.7422 4.58728 45.7945 4.58728C45.6025 4.67416 45.4106 4.77842 45.236 4.90005C44.695 5.26495 44.2936 5.75148 43.8922 6.23802C43.4385 6.81143 43.0196 7.40222 42.6706 8.04514C42.3739 8.54905 42.1121 9.07034 41.8678 9.62638C41.6234 10.1998 41.3791 10.7906 41.0999 11.3466C41.0475 11.4509 40.9603 11.5204 40.8556 11.5551C38.3948 12.3371 35.934 13.1016 33.4733 13.8835C33.3337 13.9357 33.1766 13.9183 33.0195 13.8662C30.5762 13.0842 28.1329 12.3197 25.6896 11.5551C25.5674 11.5204 25.4802 11.4335 25.4278 11.3292C25.1486 10.7732 24.9043 10.1998 24.6599 9.609C24.4156 9.01821 24.1364 8.53168 23.8571 8.01039C23.7524 7.83663 23.6477 7.66287 23.543 7.47173C23.1067 6.7593 22.6006 6.09901 22.0246 5.49084C21.6582 5.14332 21.2568 4.83055 20.8204 4.60466C20.8204 4.60466 20.7157 4.55253 20.7157 4.53515C20.6808 4.53515 20.7332 4.53515 20.7681 4.55253Z" fill="#FEAD00"/>
<path d="M39.3372 5.16093C39.3372 5.68222 39.3198 6.18613 39.3372 6.70741C39.3372 7.03756 39.4768 7.35033 39.7212 7.55885C39.8084 7.64573 39.9306 7.69786 40.0527 7.69786C40.14 7.68048 40.2447 7.68048 40.332 7.69786C40.5065 7.71523 40.681 7.64573 40.7683 7.50672C40.9079 7.33296 41.0475 7.1592 41.1697 6.98543C41.3093 6.82905 41.2744 6.58578 41.1173 6.44677C41.0824 6.42939 41.0475 6.39464 41.0126 6.39464C40.9079 6.34251 40.8206 6.29039 40.7334 6.23826C40.5065 6.09925 40.4541 5.82123 40.5763 5.59534C40.6112 5.54321 40.6461 5.50846 40.681 5.4737C40.8206 5.35207 40.9777 5.26519 41.1697 5.21306C41.8154 4.96979 42.496 4.76128 43.1767 4.62227C43.9969 4.44851 44.8172 4.32688 45.6374 4.22262C45.7247 4.22262 45.812 4.22262 45.8818 4.23999C46.0214 4.27475 46.1086 4.379 46.1261 4.51801C46.1435 4.65702 46.0912 4.77866 45.969 4.84816C45.9516 4.86554 45.9167 4.88291 45.8818 4.88291C45.3757 5.09143 44.9219 5.43895 44.5554 5.85598C43.8922 6.58578 43.3338 7.38509 42.8451 8.23652C42.4786 8.89681 42.1296 9.59186 41.8503 10.3043C41.6758 10.7039 41.5187 11.121 41.3093 11.5206C41.2395 11.6944 41.0824 11.816 40.9079 11.8681C38.4646 12.6327 36.0038 13.4146 33.5605 14.1966C33.3337 14.2661 33.0893 14.2661 32.8625 14.1966C30.4191 13.4146 27.9758 12.6327 25.5151 11.8681C25.3231 11.816 25.1835 11.6944 25.0962 11.5032C24.7995 10.9298 24.5552 10.3217 24.3109 9.73087C24.084 9.17483 23.7873 8.67092 23.5081 8.16701C23.4208 8.01063 23.3336 7.87162 23.2289 7.71523C22.7402 6.89855 22.1468 6.15138 21.4662 5.49108C21.2044 5.24781 20.9077 5.0393 20.5587 4.91767C20.5238 4.90029 20.4889 4.88291 20.454 4.86554C20.3318 4.79603 20.262 4.65702 20.2969 4.51801C20.3143 4.379 20.4191 4.27475 20.5412 4.25737C20.7157 4.22262 20.8903 4.22262 21.0648 4.27475C22.0421 4.43113 23.0194 4.57014 23.9793 4.81341C24.4854 4.95242 24.9915 5.12618 25.4802 5.33469C25.6023 5.36945 25.7245 5.43895 25.8292 5.54321C25.9863 5.71697 25.9688 5.97761 25.8118 6.15138C25.7245 6.23826 25.6198 6.30776 25.5151 6.35989C25.1835 6.51628 25.1486 6.67266 25.3231 6.98543C25.4802 7.24608 25.6722 7.47197 25.899 7.6631C25.9339 7.69786 25.9863 7.71523 26.0387 7.71523C26.1085 7.71523 26.1608 7.71523 26.2306 7.71523C26.3702 7.69786 26.4924 7.74999 26.632 7.64573C26.8065 7.5241 26.9462 7.35033 27.0334 7.14182C27.1032 6.9333 27.1381 6.69004 27.1556 6.46415C27.1381 5.73435 27.1556 5.00455 27.1556 4.27475C27.1556 4.08361 27.1556 3.90985 27.1381 3.71871C27.1207 3.61445 27.1381 3.51019 27.173 3.40594C27.2079 3.24955 27.3301 3.12792 27.4872 3.12792C27.6443 3.12792 27.7664 3.23218 27.8013 3.38856C27.8886 3.71871 27.9933 4.03148 28.0631 4.36163C28.1329 4.70915 28.2551 5.0393 28.4296 5.35207C28.6216 5.78648 28.8834 6.2035 29.2149 6.55103C29.5116 6.8638 29.9479 7.00281 30.3668 6.9333C30.5064 6.91593 30.6286 6.8638 30.7333 6.75954C30.9602 6.55103 31.0998 6.29039 31.1347 5.97761C31.1521 5.7691 31.1347 5.68222 30.9427 5.57796C30.7856 5.49108 30.6111 5.43895 30.4366 5.4042C30.3493 5.38682 30.2621 5.35207 30.1748 5.29994C29.9654 5.17831 29.913 4.90029 30.0352 4.70915C30.0527 4.69178 30.0701 4.6744 30.0876 4.63965C30.1399 4.58752 30.1923 4.53539 30.2621 4.50064C30.5762 4.3095 30.8554 4.08361 31.0998 3.82297C31.7455 3.11054 32.2691 2.27648 32.6181 1.37292C32.7577 1.06015 32.845 0.730003 32.8799 0.399856C32.8799 0.278222 32.9323 0.156589 33.037 0.0870842C33.194 -0.0519253 33.4384 -0.0171729 33.578 0.139213C33.6129 0.191341 33.6478 0.260846 33.6652 0.312975C33.8747 1.66832 34.5553 2.76302 35.4279 3.78821C35.6722 4.08361 35.9689 4.32688 36.3005 4.53539C36.3354 4.55277 36.3529 4.57014 36.3703 4.58752C36.51 4.69178 36.5798 4.86554 36.5623 5.0393C36.5274 5.21306 36.4052 5.33469 36.2482 5.38682C36.1435 5.42158 36.0387 5.43895 35.934 5.4737C35.8293 5.50846 35.7072 5.54321 35.6199 5.59534C35.4628 5.64747 35.3581 5.82123 35.4105 5.97761C35.4628 6.30776 35.6373 6.62053 35.8991 6.82905C35.9689 6.88118 36.0387 6.91593 36.126 6.91593C36.5449 7.00281 36.9812 6.88118 37.2953 6.58578C37.4873 6.41202 37.6443 6.22088 37.7665 5.99499C38.0806 5.49108 38.325 4.93504 38.482 4.36163C38.5519 4.04886 38.6566 3.71871 38.7438 3.40594C38.7787 3.23218 38.9184 3.11054 39.0929 3.12792C39.2499 3.14529 39.3721 3.24955 39.407 3.40594C39.4245 3.47544 39.4245 3.56232 39.4245 3.63183C39.3547 4.15311 39.3547 5.16093 39.3372 5.16093ZM20.7332 4.55277C20.7506 4.57014 21.6756 5.12618 22.0072 5.49108C22.5831 6.09925 23.0892 6.75954 23.5255 7.47197C23.6303 7.64573 23.7524 7.81949 23.8397 8.01063C24.1189 8.53191 24.4156 9.0532 24.6425 9.60924C24.8694 10.1653 25.1311 10.7734 25.4104 11.3295C25.4627 11.4337 25.55 11.5206 25.6722 11.5554C28.1155 12.3199 30.5413 13.1019 32.9846 13.8664C33.1242 13.9185 33.2813 13.9185 33.4384 13.8838C35.8817 13.1019 38.3424 12.3199 40.7857 11.5554C40.8904 11.5206 40.9952 11.4511 41.0301 11.3469C41.3093 10.7908 41.5536 10.2174 41.798 9.62661C42.0248 9.08795 42.3041 8.56667 42.6008 8.04538C42.9498 7.40246 43.3512 6.7943 43.805 6.23826C44.2064 5.75172 44.6078 5.26519 45.1488 4.90029C45.3233 4.77866 45.5153 4.6744 45.7072 4.58752C45.6549 4.58752 45.6025 4.58752 45.5502 4.58752C44.8172 4.70915 44.0842 4.79603 43.3512 4.95242C42.6357 5.09143 41.9376 5.29994 41.2569 5.56059C41.1522 5.59534 41.0475 5.64747 40.9428 5.71697C40.8206 5.82123 40.8206 5.90811 40.9603 5.99499C41.0475 6.04712 41.1348 6.08187 41.222 6.134C41.5885 6.34251 41.7107 6.7943 41.5013 7.1592C41.5013 7.17657 41.4838 7.19395 41.4664 7.19395C41.2744 7.47197 41.0475 7.73261 40.8206 7.9585C40.7508 8.028 40.6636 8.06276 40.5589 8.06276C40.3669 8.06276 40.1924 8.06276 40.0004 8.06276C39.8433 8.06276 39.6862 8.01063 39.5815 7.92375C39.215 7.64573 39.0056 7.21132 38.9882 6.75954C38.9533 5.85598 38.9882 4.95242 38.9707 4.04886C38.9882 3.9446 38.9882 3.84034 38.9533 3.73608C38.9184 3.84034 38.9009 3.90985 38.8834 3.97935C38.7962 4.3095 38.7264 4.65702 38.6042 4.96979C38.4471 5.36945 38.2726 5.75172 38.0457 6.11662C37.8538 6.44677 37.6094 6.74217 37.3128 6.98543C37.0335 7.21132 36.6845 7.33296 36.318 7.31558C36.0737 7.33296 35.8293 7.26345 35.6199 7.12444C35.4454 6.98543 35.3058 6.81167 35.1836 6.62053C35.0614 6.39464 34.9916 6.15138 34.9916 5.89073C34.9742 5.61271 35.1661 5.36945 35.4279 5.28257C35.6024 5.21306 35.7944 5.16093 35.9689 5.1088C36.0387 5.09143 36.126 5.07405 36.1435 4.98717C36.1609 4.90029 36.0736 4.86554 36.0213 4.83078C35.9864 4.81341 35.9515 4.79603 35.9166 4.76128C35.7072 4.62227 35.4977 4.46589 35.3232 4.29212C34.6949 3.63183 34.1714 2.88465 33.77 2.06797C33.5082 1.56406 33.3337 1.0254 33.2639 0.451984C33.2639 0.417232 33.2464 0.38248 33.194 0.38248C33.1591 0.451984 33.1417 0.538865 33.1417 0.625746C33.0719 0.955894 32.9846 1.28604 32.8625 1.59881C32.7228 1.98109 32.5309 2.36337 32.304 2.71089C31.7979 3.52757 31.2394 4.32688 30.3842 4.84816C30.3319 4.88291 30.2621 4.91767 30.2795 5.00455C30.297 5.09143 30.3668 5.09143 30.4191 5.1088C30.5064 5.12618 30.5937 5.16093 30.6809 5.17831C30.8205 5.21306 30.9602 5.26519 31.0823 5.33469C31.3267 5.45633 31.4663 5.73435 31.4139 6.01237C31.3616 6.46415 31.1347 6.8638 30.7856 7.14182C30.7158 7.19395 30.6286 7.24608 30.5413 7.26345C29.9828 7.43721 29.3546 7.28083 28.9532 6.8638C28.7961 6.72479 28.6565 6.55103 28.5343 6.37727C28.3598 6.134 28.2202 5.87336 28.0806 5.59534C27.906 5.26519 27.7664 4.91767 27.6792 4.55277C27.6268 4.25737 27.5221 3.97935 27.4348 3.68396C27.4174 4.62227 27.4174 5.54321 27.4174 6.46415C27.4174 6.74217 27.365 7.02019 27.2778 7.2982C27.173 7.5936 26.9462 7.78474 26.7018 7.9585C26.5448 8.08013 26.3877 8.028 26.2132 8.04538C25.8641 8.11489 25.6023 7.9585 25.3755 7.69786C25.166 7.48934 24.9915 7.24608 24.8519 6.96806C24.7123 6.69004 24.7995 6.35989 25.0613 6.16875C25.1311 6.11662 25.2184 6.0645 25.3057 6.02974C25.4104 5.97761 25.5325 5.94286 25.5325 5.82123C25.5325 5.69959 25.3929 5.64747 25.2882 5.59534C24.7995 5.38682 24.3109 5.21306 23.7873 5.09143C23.1067 4.91767 22.4261 4.79603 21.728 4.69178C21.4836 4.65702 20.7332 4.51801 20.7332 4.55277Z" fill="black"/>
</svg>
