<svg width="161" height="42" viewBox="0 0 161 42" fill="none" xmlns="http://www.w3.org/2000/svg">
<g opacity="0.2">
<path d="M4.7762 39.6504L1.03442 29.0986H2.3216L5.31502 37.8244L8.1887 29.0687H9.16156L12.0352 37.8244L15.0287 29.0986H16.2709L12.5292 39.6504H11.5264L8.65268 31.1491L5.76403 39.6504H4.7762Z" fill="white"/>
<path d="M17.9322 36.1781C18.012 36.9663 18.3063 37.5949 18.8152 38.0639C19.3341 38.5229 19.9477 38.7524 20.6562 38.7524C21.5841 38.7524 22.3974 38.3882 23.0958 37.6598L23.8142 38.3034C22.9461 39.2713 21.8835 39.7552 20.6262 39.7552C19.5386 39.7552 18.6207 39.381 17.8723 38.6327C17.1339 37.8743 16.7647 36.9015 16.7647 35.7141C16.7647 34.5866 17.119 33.6336 17.8274 32.8554C18.5358 32.0671 19.4189 31.673 20.4766 31.673C21.5841 31.673 22.4622 32.0621 23.1108 32.8404C23.7594 33.6187 24.0837 34.5965 24.0837 35.7739C24.0837 35.9236 24.0787 36.0583 24.0687 36.1781H17.9322ZM17.9322 35.2501H22.9162C22.8464 34.5017 22.5969 33.8831 22.1679 33.3942C21.7488 32.8953 21.175 32.6458 20.4466 32.6458C19.7881 32.6458 19.2243 32.8903 18.7554 33.3792C18.2864 33.8681 18.012 34.4918 17.9322 35.2501Z" fill="white"/>
<path d="M30.2171 39.7402C28.9998 39.7402 28.012 39.1914 27.2536 38.0938V39.5756H26.1012V28.6496H27.2536V33.3942C28.0319 32.2467 29.0198 31.673 30.2171 31.673C31.205 31.673 32.0681 32.0421 32.8064 32.7805C33.5448 33.5089 33.914 34.4868 33.914 35.7141C33.914 36.9214 33.5448 37.8943 32.8064 38.6327C32.0681 39.371 31.205 39.7402 30.2171 39.7402ZM30.0076 38.7075C30.7859 38.7075 31.4344 38.4381 31.9533 37.8993C32.4722 37.3505 32.7316 36.6171 32.7316 35.6991C32.7316 34.8111 32.4672 34.0926 31.9383 33.5438C31.4095 32.9851 30.7659 32.7057 30.0076 32.7057C29.2592 32.7057 28.6057 32.9901 28.0469 33.5588C27.4881 34.1276 27.2087 34.846 27.2087 35.7141C27.2087 36.5822 27.4881 37.3006 28.0469 37.8693C28.6057 38.4281 29.2592 38.7075 30.0076 38.7075Z" fill="white"/>
<path d="M41.0214 41.4914V27.6318H41.9942V41.4914H41.0214Z" fill="white"/>
<path d="M49.7403 39.5756V29.0986H53.3773C55.0137 29.0986 56.3508 29.5975 57.3885 30.5953C58.4262 31.5832 58.9451 32.8304 58.9451 34.3371C58.9451 35.8338 58.4212 37.0811 57.3735 38.0789C56.3358 39.0767 55.0037 39.5756 53.3773 39.5756H49.7403ZM50.9227 38.483H53.3773C54.6844 38.483 55.7321 38.0938 56.5204 37.3156C57.3187 36.5273 57.7178 35.5345 57.7178 34.3371C57.7178 33.1497 57.3187 32.1619 56.5204 31.3736C55.7222 30.5853 54.6745 30.1912 53.3773 30.1912H50.9227V38.483Z" fill="white"/>
<path d="M61.9419 36.1781C62.0217 36.9663 62.3161 37.5949 62.8249 38.0639C63.3438 38.5229 63.9575 38.7524 64.6659 38.7524C65.5939 38.7524 66.4071 38.3882 67.1055 37.6598L67.824 38.3034C66.9559 39.2713 65.8932 39.7552 64.636 39.7552C63.5484 39.7552 62.6304 39.381 61.882 38.6327C61.1436 37.8743 60.7745 36.9015 60.7745 35.7141C60.7745 34.5866 61.1287 33.6336 61.8371 32.8554C62.5456 32.0671 63.4286 31.673 64.4863 31.673C65.5939 31.673 66.4719 32.0621 67.1205 32.8404C67.7691 33.6187 68.0934 34.5965 68.0934 35.7739C68.0934 35.9236 68.0884 36.0583 68.0784 36.1781H61.9419ZM61.9419 35.2501H66.9259C66.8561 34.5017 66.6066 33.8831 66.1776 33.3942C65.7585 32.8953 65.1848 32.6458 64.4564 32.6458C63.7978 32.6458 63.2341 32.8903 62.7651 33.3792C62.2961 33.8681 62.0217 34.4918 61.9419 35.2501Z" fill="white"/>
<path d="M72.6703 39.7253C72.1115 39.7253 71.5427 39.6255 70.964 39.4259C70.3953 39.2164 69.8964 38.937 69.4673 38.5878L70.051 37.7646C70.9291 38.4231 71.8221 38.7524 72.7301 38.7524C73.1991 38.7524 73.5833 38.6376 73.8826 38.4082C74.1819 38.1787 74.3316 37.8743 74.3316 37.4952C74.3316 37.1459 74.167 36.8765 73.8377 36.6869C73.5184 36.4974 73.0395 36.3128 72.4009 36.1332C72.0117 36.0234 71.7024 35.9236 71.4729 35.8338C71.2434 35.744 70.984 35.6193 70.6946 35.4596C70.4052 35.29 70.1907 35.0805 70.051 34.831C69.9113 34.5716 69.8415 34.2673 69.8415 33.918C69.8415 33.2595 70.0859 32.7256 70.5749 32.3165C71.0738 31.9074 71.7074 31.7029 72.4757 31.7029C73.4735 31.7029 74.4015 31.9873 75.2596 32.556L74.7357 33.4241C73.9674 32.9252 73.2041 32.6758 72.4458 32.6758C71.9967 32.6758 71.6325 32.7855 71.3532 33.005C71.0837 33.2146 70.9491 33.489 70.9491 33.8282C70.9491 33.9679 70.989 34.0976 71.0688 34.2174C71.1486 34.3371 71.2384 34.4369 71.3382 34.5167C71.438 34.5965 71.5926 34.6813 71.8022 34.7711C72.0217 34.8609 72.1963 34.9258 72.326 34.9657C72.4557 35.0056 72.6603 35.0705 72.9397 35.1603C73.3089 35.2701 73.6132 35.3748 73.8527 35.4746C74.0921 35.5744 74.3466 35.7091 74.616 35.8787C74.8854 36.0483 75.085 36.2629 75.2147 36.5223C75.3544 36.7717 75.4242 37.0661 75.4242 37.4054C75.4242 38.1238 75.1648 38.6925 74.6459 39.1116C74.1271 39.5207 73.4685 39.7253 72.6703 39.7253Z" fill="white"/>
<path d="M77.5951 30.1463V28.8741H78.9123V30.1463H77.5951ZM77.67 39.5756V31.8376H78.8224V39.5756H77.67Z" fill="white"/>
<path d="M84.9245 42.0003C83.6173 42.0003 82.4449 41.641 81.4072 40.9226L81.931 40.0246C82.8391 40.6832 83.8319 41.0124 84.9095 41.0124C85.7776 41.0124 86.4611 40.773 86.96 40.294C87.4689 39.825 87.7233 39.1465 87.7233 38.2585V37.3455C86.9051 38.4331 85.8923 38.9769 84.685 38.9769C83.7071 38.9769 82.854 38.6426 82.1256 37.9741C81.4072 37.2956 81.048 36.4125 81.048 35.3249C81.048 34.2373 81.4122 33.3592 82.1406 32.6907C82.869 32.0122 83.7171 31.673 84.685 31.673C85.9223 31.673 86.9301 32.1918 87.7084 33.2295V31.8376H88.8608V38.2285C88.8608 39.396 88.5315 40.309 87.873 40.9675C87.1845 41.656 86.2017 42.0003 84.9245 42.0003ZM84.9095 37.9591C85.6678 37.9591 86.3314 37.7097 86.9001 37.2108C87.4689 36.7119 87.7533 36.0783 87.7533 35.31C87.7533 34.5417 87.4689 33.913 86.9001 33.4241C86.3413 32.9352 85.6778 32.6907 84.9095 32.6907C84.1512 32.6907 83.5126 32.9352 82.9937 33.4241C82.4848 33.9031 82.2304 34.5367 82.2304 35.3249C82.2304 36.0833 82.4898 36.7119 83.0087 37.2108C83.5375 37.7097 84.1711 37.9591 84.9095 37.9591Z" fill="white"/>
<path d="M91.4361 39.5756V31.8376H92.5886V33.1846C93.1972 32.1768 94.0803 31.673 95.2377 31.673C96.1557 31.673 96.8791 31.9573 97.408 32.5261C97.9368 33.0849 98.2012 33.8332 98.2012 34.7711V39.5756H97.0488V35.0555C97.0488 34.3271 96.8592 33.7584 96.48 33.3493C96.1108 32.9302 95.587 32.7207 94.9085 32.7207C94.2399 32.7207 93.6861 32.9452 93.2471 33.3942C92.8081 33.8432 92.5886 34.4269 92.5886 35.1453V39.5756H91.4361Z" fill="white"/>
<path d="M105.64 41.4914V27.6318H106.613V41.4914H105.64Z" fill="white"/>
<path d="M117.951 39.7253C116.345 39.7253 114.918 39.1665 113.671 38.0489L114.404 37.1809C114.963 37.6897 115.521 38.0639 116.08 38.3034C116.649 38.5429 117.288 38.6626 117.996 38.6626C118.695 38.6626 119.258 38.498 119.687 38.1687C120.116 37.8294 120.331 37.3904 120.331 36.8516C120.331 36.3427 120.141 35.9386 119.762 35.6392C119.383 35.3399 118.665 35.0805 117.607 34.8609C116.36 34.5915 115.462 34.2273 114.913 33.7684C114.364 33.3094 114.09 32.6558 114.09 31.8077C114.09 30.9795 114.414 30.296 115.062 29.7572C115.711 29.2183 116.534 28.9489 117.532 28.9489C118.919 28.9489 120.146 29.378 121.214 30.2361L120.525 31.1491C119.598 30.3908 118.59 30.0116 117.502 30.0116C116.834 30.0116 116.295 30.1762 115.886 30.5055C115.477 30.8248 115.272 31.2339 115.272 31.7328C115.272 32.2517 115.467 32.6608 115.856 32.9601C116.255 33.2595 117.008 33.5289 118.116 33.7684C119.303 34.0278 120.166 34.392 120.705 34.8609C121.254 35.3199 121.528 35.9535 121.528 36.7618C121.528 37.6498 121.194 38.3682 120.525 38.917C119.857 39.4559 118.999 39.7253 117.951 39.7253Z" fill="white"/>
<path d="M126.327 39.7103C125.659 39.7103 125.125 39.5357 124.726 39.1864C124.337 38.8272 124.142 38.2734 124.142 37.5251V32.8554H123.065V31.8376H124.142V29.5027H125.295V31.8376H127.749V32.8554H125.295V37.3754C125.295 38.2335 125.729 38.6626 126.597 38.6626C126.976 38.6626 127.35 38.5728 127.719 38.3932V39.381C127.3 39.6005 126.836 39.7103 126.327 39.7103Z" fill="white"/>
<path d="M132.633 39.7402C131.715 39.7402 130.992 39.4608 130.463 38.9021C129.934 38.3333 129.67 37.58 129.67 36.642V31.8376H130.822V36.3577C130.822 37.0861 131.007 37.6598 131.376 38.0789C131.755 38.488 132.284 38.6925 132.962 38.6925C133.631 38.6925 134.185 38.468 134.624 38.019C135.063 37.57 135.282 36.9863 135.282 36.2679V31.8376H136.42V39.5756H135.282V38.2285C134.654 39.2363 133.771 39.7402 132.633 39.7402Z" fill="white"/>
<path d="M142.26 39.7402C141.272 39.7402 140.409 39.376 139.671 38.6476C138.932 37.9093 138.563 36.9264 138.563 35.6991C138.563 34.4918 138.932 33.5189 139.671 32.7805C140.409 32.0421 141.272 31.673 142.26 31.673C143.477 31.673 144.465 32.2217 145.224 33.3193V28.6496H146.376V39.5756H145.224V38.019C144.445 39.1665 143.457 39.7402 142.26 39.7402ZM142.47 38.7075C143.218 38.7075 143.872 38.4231 144.43 37.8544C144.989 37.2856 145.268 36.5622 145.268 35.6841C145.268 34.826 144.989 34.1176 144.43 33.5588C143.872 32.9901 143.218 32.7057 142.47 32.7057C141.691 32.7057 141.043 32.9801 140.524 33.5289C140.005 34.0677 139.746 34.7961 139.746 35.7141C139.746 36.6021 140.01 37.3255 140.539 37.8843C141.068 38.4331 141.711 38.7075 142.47 38.7075Z" fill="white"/>
<path d="M148.981 30.1463V28.8741H150.298V30.1463H148.981ZM149.056 39.5756V31.8376H150.209V39.5756H149.056Z" fill="white"/>
<path d="M159.304 38.5728C158.526 39.3611 157.563 39.7552 156.415 39.7552C155.268 39.7552 154.31 39.3611 153.542 38.5728C152.783 37.7845 152.404 36.8316 152.404 35.7141C152.404 34.6065 152.788 33.6586 153.557 32.8703C154.335 32.0721 155.298 31.673 156.445 31.673C157.593 31.673 158.551 32.0671 159.319 32.8554C160.087 33.6436 160.471 34.5965 160.471 35.7141C160.471 36.8216 160.082 37.7745 159.304 38.5728ZM156.445 38.7225C157.273 38.7225 157.952 38.4331 158.481 37.8544C159.02 37.2756 159.289 36.5622 159.289 35.7141C159.289 34.8759 159.01 34.1625 158.451 33.5738C157.902 32.9851 157.224 32.6907 156.415 32.6907C155.587 32.6907 154.909 32.9851 154.38 33.5738C153.851 34.1525 153.587 34.8659 153.587 35.7141C153.587 36.5522 153.861 37.2657 154.41 37.8544C154.959 38.4331 155.637 38.7225 156.445 38.7225Z" fill="white"/>
</g>
<path d="M9.86566 18.7866C7.01245 18.7866 4.66157 17.9064 2.79292 16.1459C0.924276 14.3854 0 12.1448 0 9.40406C0 6.76334 0.924276 4.52272 2.79292 2.72223C4.64148 0.921731 6.97227 0.0214844 9.76519 0.0214844C12.6385 0.0214844 15.0898 0.901727 17.1192 2.6422L14.1656 6.18318C12.7992 5.04286 11.3324 4.48271 9.78528 4.48271C8.47924 4.48271 7.37413 4.96284 6.49003 5.9231C5.60594 6.88337 5.1639 8.06369 5.1639 9.48408C5.1639 10.9445 5.62604 12.1448 6.55032 13.0851C7.47459 14.0253 8.66008 14.4855 10.0867 14.4855C11.2521 14.4855 12.2366 14.2454 12.9801 13.7453V11.5446H9.40352V7.88364H17.7421V16.0059C15.4917 17.8464 12.8595 18.7866 9.86566 18.7866Z" fill="white"/>
<path d="M20.5549 18.4251V0.380127H35.1424V4.6413H25.538V7.38205H34.2383V11.3231H25.538V14.1839H35.2831V18.4451H20.5549V18.4251Z" fill="white"/>
<path d="M37.8149 18.4251V0.380127H42.8382V7.70213L49.0871 0.380127H55.0547L48.1829 8.14225L55.2758 18.4251H49.2479L44.6868 11.7032L42.8382 13.7438V18.4051H37.8149V18.4251Z" fill="white"/>
<path d="M61.1627 18.4251V4.76133H55.7175V0.380127H71.6312V4.76133H66.186V18.4251H61.1627Z" fill="white"/>
<path d="M89.9161 16.0444C88.0474 17.8649 85.7167 18.7851 82.9438 18.7851C80.171 18.7851 77.8402 17.8849 75.9916 16.0644C74.1431 14.2439 73.1987 12.0233 73.1987 9.40257C73.1987 6.78186 74.1431 4.58125 76.0117 2.74075C77.8804 0.920251 80.2112 0 82.984 0C85.7568 0 88.0876 0.900245 89.9362 2.72074C91.7847 4.54124 92.7291 6.76185 92.7291 9.38257C92.7291 12.0033 91.8048 14.2239 89.9161 16.0444ZM83.0041 14.2639C84.3704 14.2639 85.4755 13.7838 86.3395 12.8435C87.2035 11.9033 87.6255 10.7429 87.6255 9.38257C87.6255 8.0422 87.1834 6.90189 86.2993 5.94163C85.4152 4.98136 84.3101 4.50123 82.9639 4.50123C81.6177 4.50123 80.5126 4.98136 79.6687 5.92162C78.8047 6.86188 78.3827 8.0222 78.3827 9.38257C78.3827 10.7229 78.8248 11.8632 79.6888 12.8235C80.5327 13.7838 81.6579 14.2639 83.0041 14.2639Z" fill="white"/>
<path d="M95.3613 18.4251V0.380127H103.941C106.573 0.380127 108.542 1.0203 109.848 2.32066C110.913 3.38095 111.456 4.82135 111.456 6.60184C111.456 9.24256 110.21 11.1031 107.719 12.1434L112.038 18.4451H106.232L102.575 12.9836H100.364V18.4451H95.3613V18.4251ZM100.385 9.0225H103.7C104.544 9.0225 105.207 8.82244 105.689 8.44234C106.171 8.06223 106.392 7.52209 106.392 6.82189C106.392 6.1217 106.151 5.58155 105.689 5.22145C105.207 4.86136 104.544 4.68131 103.68 4.68131H100.385V9.0225Z" fill="white"/>
<path d="M121.249 18.0668V14.3725L127.889 9.31174C128.717 8.68758 129.3 8.13934 129.637 7.667C129.992 7.1778 130.17 6.66329 130.17 6.12348C130.17 5.5668 129.984 5.12821 129.612 4.80769C129.257 4.48718 128.784 4.32692 128.193 4.32692C127.619 4.32692 127.061 4.50405 126.52 4.8583C125.997 5.19568 125.38 5.77767 124.67 6.60425L121.351 3.84615C122.364 2.53036 123.412 1.56883 124.493 0.961538C125.574 0.354251 126.934 0.0506081 128.573 0.0506081C130.516 0.0506081 132.087 0.581984 133.287 1.64474C134.503 2.69062 135.111 4.05702 135.111 5.74393C135.111 7.07659 134.79 8.18995 134.148 9.08401C133.506 9.9612 132.459 10.9143 131.006 11.9433L127.965 14.0688H135.289V18.0668H121.249Z" fill="white"/>
<path d="M137.317 18.0668V13.1326H142.334V18.0668H137.317Z" fill="white"/>
<path d="M158.113 15.7642C156.61 17.5354 154.625 18.4211 152.158 18.4211C149.691 18.4211 147.706 17.5439 146.203 15.7895C144.716 14.0182 143.973 11.8252 143.973 9.21053C143.973 6.62955 144.733 4.45344 146.253 2.68219C147.774 0.894062 149.759 0 152.209 0C154.675 0 156.652 0.885628 158.139 2.65688C159.642 4.42814 160.394 6.61269 160.394 9.21053C160.394 11.7915 159.634 13.976 158.113 15.7642ZM149.826 12.7277C150.435 13.6218 151.229 14.0688 152.209 14.0688C153.188 14.0688 153.974 13.6218 154.565 12.7277C155.157 11.8168 155.452 10.6444 155.452 9.21053C155.452 7.79352 155.14 6.62955 154.515 5.71862C153.907 4.80769 153.121 4.35223 152.158 4.35223C151.178 4.35223 150.392 4.79926 149.801 5.69332C149.21 6.58738 148.914 7.75978 148.914 9.21053C148.914 10.6444 149.218 11.8168 149.826 12.7277Z" fill="white"/>
</svg>
