<svg width="226" height="309" viewBox="0 0 226 309" fill="none" xmlns="http://www.w3.org/2000/svg">
<g clip-path="url(#clip0)">
<path d="M112.514 247.678C112.353 247.517 112.159 247.387 111.901 247.387C111.384 247.42 110.868 247.517 110.48 247.905C110.222 248.164 109.964 248.358 109.641 248.487C109.512 248.552 109.383 248.649 109.253 248.714C108.963 248.875 108.705 249.037 108.414 249.199C107.284 249.846 106.122 250.461 104.992 251.172C104.314 251.593 103.669 252.046 102.958 252.467C101.99 253.049 100.989 253.631 99.9237 254.084C99.5363 254.246 99.1489 254.375 98.7615 254.537C98.5678 254.602 98.4064 254.602 98.1804 254.505C98.1804 254.375 98.1481 254.246 98.1804 254.117C98.2127 253.922 98.3095 253.728 98.3741 253.502C98.5032 253.114 98.6647 252.725 98.9229 252.37C99.1166 252.143 99.2458 251.852 99.4072 251.593C99.6331 251.237 99.6009 250.849 99.4395 250.493C99.3103 250.202 99.0843 250.008 98.7615 249.943C98.5032 249.911 98.2773 249.846 98.019 249.814C97.6639 249.781 97.4056 249.878 97.1796 250.17C97.0182 250.428 96.7923 250.655 96.5663 250.849C96.2112 251.14 95.856 251.399 95.5009 251.69C95.049 252.046 94.5647 252.402 94.1128 252.79C93.5317 253.275 92.9828 253.793 92.4017 254.311C92.2403 254.44 92.1112 254.602 91.9498 254.731C91.5947 255.022 91.2396 255.314 90.9167 255.637C90.1742 256.381 89.4317 257.125 88.6892 257.869C88.205 258.355 87.753 258.872 87.301 259.39C87.0428 259.681 86.8168 259.972 86.5585 260.264C86.4617 260.393 86.3325 260.522 86.1066 260.425C86.1066 260.361 86.0743 260.328 86.0743 260.264C86.0743 260.167 86.1066 260.037 86.1388 259.94C86.2357 259.584 86.3325 259.228 86.4617 258.905C86.7845 257.934 87.1073 256.931 87.4625 255.993C87.8498 255.022 88.0113 253.987 88.4955 253.081C88.4955 253.049 88.4955 253.049 88.5278 253.017C89.0443 251.399 89.6254 249.814 90.2711 248.228C90.8199 246.902 91.3041 245.543 91.7884 244.217C92.0144 243.634 92.2081 243.02 92.4663 242.47C92.7892 241.725 93.1443 241.014 93.5317 240.302C93.6608 240.043 93.8222 239.784 93.9836 239.558C94.597 238.781 95.2104 238.037 95.8238 237.293C96.1143 236.937 96.4048 236.581 96.6631 236.225C97.0505 235.708 97.4056 235.19 97.7607 234.705C97.9544 234.446 98.1159 234.187 98.3418 233.928C99.0198 233.12 99.6331 232.246 100.214 231.34C100.666 230.661 101.118 229.981 101.57 229.302C102.054 228.525 102.571 227.749 103.055 227.005C103.249 226.714 103.443 226.39 103.669 226.099C103.83 225.84 104.056 225.581 104.185 225.29C104.476 224.643 104.928 224.028 105.25 223.414C105.702 222.605 106.283 221.861 106.703 221.02C107.091 220.275 107.478 219.531 107.898 218.787C108.382 217.849 108.898 216.943 109.383 216.005C109.415 215.908 109.479 215.843 109.544 215.778C110.222 214.84 110.642 213.773 110.932 212.673C110.964 212.576 110.997 212.446 110.997 212.349C111.029 211.928 110.932 211.54 110.609 211.249C110.48 211.12 110.351 211.023 110.254 210.861C109.867 210.181 108.576 210.149 108.059 210.634C107.704 210.958 107.413 211.346 107.123 211.702C106.897 211.993 106.703 212.284 106.509 212.576C106.445 212.673 106.348 212.77 106.283 212.899C105.799 213.837 105.154 214.646 104.637 215.584C103.927 216.911 103.152 218.205 102.409 219.531C102.248 219.823 102.054 220.081 101.893 220.373C101.215 221.602 100.537 222.831 99.8591 224.093C99.0843 225.484 98.3096 226.875 97.5348 228.234C97.1474 228.946 96.76 229.658 96.3726 230.337C96.2112 230.628 96.0175 230.887 95.8883 231.178C95.5009 231.89 95.1458 232.634 94.7584 233.378C94.6293 233.605 94.5324 233.864 94.4033 234.09C94.0482 234.834 93.7254 235.578 93.2734 236.29C93.1765 236.42 93.112 236.581 93.0151 236.743C92.6923 237.455 92.4018 238.167 92.0466 238.878C91.7238 239.558 91.3687 240.205 90.9813 240.82C90.6908 241.305 90.2711 241.725 89.916 242.146C89.2703 242.89 88.6569 243.667 87.9467 244.378C87.7207 244.605 87.527 244.799 87.3333 245.058C87.1396 245.317 86.9136 245.543 86.7522 245.834C86.5908 246.093 86.3325 246.255 86.1066 246.481C85.7192 246.934 85.2995 247.355 84.9121 247.808C84.6216 248.131 84.331 248.422 84.105 248.778C84.0727 248.875 83.9759 248.94 83.9113 249.005C83.4916 249.425 83.0397 249.846 82.62 250.299C81.4901 251.528 80.3279 252.693 79.1334 253.858C78.4555 254.537 77.8098 255.217 77.1319 255.896C76.8413 256.187 76.5831 256.478 76.1634 256.608C76.1634 256.511 76.1311 256.446 76.1311 256.381C76.1311 256.252 76.1311 256.155 76.1634 256.025C76.2602 255.67 76.3571 255.281 76.4539 254.925C76.5508 254.602 76.6476 254.311 76.7122 253.987C76.8736 253.405 76.9705 252.822 77.1319 252.272C77.4547 250.978 77.8098 249.684 78.1649 248.39C78.3909 247.614 78.6169 246.805 78.8429 246.028C78.9397 245.672 79.1334 245.317 79.3917 245.058C79.7468 244.702 80.0696 244.346 80.4248 243.99C81.1995 243.214 81.9743 242.47 82.7491 241.693C83.2011 241.24 83.5885 240.755 84.0405 240.302C85.1381 239.137 86.1388 237.875 87.0751 236.581C87.8821 235.449 88.5924 234.284 89.3026 233.12C89.6254 232.602 89.916 232.02 90.2388 231.47C90.8845 230.402 91.4978 229.334 92.1435 228.267C92.5309 227.652 92.9183 227.037 93.3057 226.423C93.4994 226.131 93.6931 225.873 93.8868 225.581C94.3387 224.902 94.7584 224.19 95.2104 223.511C95.7915 222.605 96.308 221.667 96.7277 220.696C96.9214 220.243 97.0828 219.758 97.0182 219.24C96.9537 218.658 96.7277 218.14 96.4371 217.623C96.2757 217.331 96.0175 217.137 95.7269 217.105C94.9521 216.943 94.1773 216.943 93.4994 217.493C92.5632 218.237 91.7561 219.078 90.9167 219.92C89.9482 220.923 89.012 222.023 88.0758 223.058C87.8498 223.317 87.6562 223.64 87.4302 223.931C87.0751 224.417 86.6877 224.902 86.3326 225.387C85.0089 227.361 83.7176 229.334 82.5231 231.373C82.4909 231.47 82.4263 231.534 82.3617 231.631C81.8775 232.505 81.361 233.378 80.909 234.284C80.3925 235.352 79.9405 236.452 79.4563 237.52C79.0043 238.587 78.6169 239.655 78.2618 240.755C77.9712 241.725 77.6484 242.728 77.3256 243.699C77.2933 243.796 77.261 243.861 77.2287 243.958C77.1319 244.443 76.8413 244.799 76.4862 245.155C75.8728 245.737 75.2595 246.352 74.6784 246.999C73.9036 247.808 73.0965 248.584 72.2894 249.393C71.6438 250.04 70.9981 250.72 70.3202 251.399C69.7391 251.981 69.1257 252.596 68.5446 253.178C68.4477 253.275 68.3509 253.372 68.2541 253.47C67.6407 254.149 66.9304 254.731 66.3816 255.475C66.2848 255.605 66.1557 255.67 66.0265 255.767C65.962 255.799 65.8974 255.831 65.7683 255.864C65.7683 255.702 65.7683 255.572 65.8005 255.443C65.9942 254.699 66.2202 253.922 66.4462 253.178C66.7045 252.337 66.995 251.464 67.2856 250.622C67.5438 249.814 67.7698 249.005 68.0603 248.228C68.4155 247.193 68.8029 246.19 69.158 245.155C69.1903 245.058 69.2548 244.928 69.3194 244.831C69.5777 244.475 69.8682 244.087 70.1587 243.731C70.3524 243.505 70.5461 243.278 70.7398 243.02C71.4824 242.081 72.2249 241.175 73.0319 240.334C74.065 239.234 75.1626 238.199 76.0988 237.002C76.1957 236.873 76.3571 236.775 76.4539 236.646C76.5508 236.549 76.6799 236.452 76.7768 236.323C76.9059 236.161 76.9705 235.967 77.1319 235.805C77.2933 235.643 77.487 235.514 77.6484 235.352C78.1972 234.737 78.7783 234.155 79.2626 233.508C79.9082 232.699 80.6507 231.987 81.0704 231.017C81.135 230.887 81.1995 230.79 81.2964 230.693C81.7806 229.981 82.2003 229.27 82.5554 228.525C82.62 228.364 82.7169 228.234 82.8137 228.073C83.1042 227.652 83.298 227.199 83.4916 226.746C83.5885 226.552 83.6853 226.325 83.7822 226.131C84.105 225.452 84.4279 224.805 84.783 224.125C84.8152 224.061 84.8475 223.996 84.8475 223.899C85.0089 223.22 85.3318 222.605 85.59 221.99C85.8483 221.343 86.1388 220.696 86.4617 220.049C86.7845 219.402 87.1073 218.755 87.4625 218.108C87.7207 217.655 87.9467 217.202 88.0435 216.684C88.0758 216.458 88.0758 216.264 87.979 216.07C87.6562 215.455 87.1396 215.099 86.4294 215.099C86.1711 215.099 85.9129 215.131 85.7515 215.326C85.4286 215.681 85.0735 216.005 84.8152 216.426C84.2987 217.234 83.6531 218.011 83.072 218.755C82.2649 219.758 81.4578 220.793 80.6507 221.796C80.231 222.314 79.8437 222.864 79.424 223.381C79.3594 223.478 79.2626 223.543 79.198 223.64C78.6492 224.352 78.0681 225.031 77.5193 225.743C77.261 226.099 77.035 226.487 76.7445 226.811C76.4539 227.134 76.1957 227.49 75.9374 227.846C74.9044 229.173 73.9036 230.531 72.9997 231.923C72.7737 232.278 72.5477 232.634 72.3217 232.99C71.9666 233.54 71.7729 234.155 71.3532 234.673C71.2887 234.737 71.2887 234.834 71.2241 234.931C71.1918 235.028 71.1595 235.158 71.095 235.255C70.8044 235.805 70.5139 236.323 70.2556 236.873C69.7391 238.037 69.2548 239.234 68.7383 240.399C68.5769 240.755 68.48 241.143 68.3186 241.531C68.2218 241.758 68.0926 241.984 67.9958 242.211C67.7375 242.955 67.4793 243.699 67.221 244.411C67.1241 244.637 67.0596 244.864 66.8659 245.058C66.4139 245.543 66.0588 246.125 65.6068 246.611C65.2517 246.999 64.9289 247.42 64.6061 247.84C64.4124 248.067 64.2187 248.325 64.025 248.552C63.6376 248.972 63.2825 249.425 62.8951 249.846C62.6691 250.105 62.5077 250.364 62.2817 250.59C61.5069 251.399 60.7321 252.208 59.925 253.017C59.3762 253.599 58.7951 254.149 58.214 254.699C57.7298 255.184 57.2455 255.67 56.729 256.122C56.3093 256.511 55.8574 256.867 55.4377 257.255C54.6306 257.999 53.7913 258.743 52.9842 259.487C52.0803 260.361 51.1763 261.234 50.3047 262.14C50.0141 262.431 49.7559 262.787 49.4653 263.046C49.0134 263.434 48.626 263.855 48.2063 264.308C48.0126 264.502 47.7543 264.664 47.5284 264.825C47.3669 264.922 47.2055 264.825 47.2055 264.631C47.2055 264.243 47.2055 263.822 47.2701 263.434C47.5284 261.978 47.7866 260.49 48.3354 259.099C48.4323 258.84 48.4968 258.581 48.5937 258.322C48.8197 257.675 49.0457 257.028 49.2716 256.381C49.433 255.928 49.6913 255.508 50.0464 255.184C50.7567 254.472 51.3377 253.631 52.0157 252.887C52.1771 252.693 52.3385 252.531 52.4999 252.337C52.7259 252.078 52.9519 251.82 53.1779 251.561C53.6944 250.849 54.1787 250.137 54.6952 249.393C54.8889 249.102 55.1149 248.843 55.3086 248.552C55.5991 248.196 55.8574 247.84 56.1479 247.452C56.4385 247.096 56.6967 246.708 56.955 246.352C57.1164 246.125 57.2778 245.867 57.4392 245.64C57.7298 245.252 58.0203 244.831 58.3432 244.443C58.6337 244.12 58.9243 243.796 59.2148 243.472C59.9896 242.631 60.5384 241.661 61.1518 240.722C61.4423 240.27 61.3455 239.817 61.0872 239.428C60.7967 238.975 60.3124 238.717 59.7636 238.555C59.4731 238.49 59.1502 238.458 58.8597 238.425C58.666 238.393 58.5369 238.425 58.3754 238.555C58.0526 238.814 57.6975 239.072 57.3747 239.331C56.6967 239.881 56.0188 240.431 55.4054 241.078C54.8566 241.628 54.3078 242.178 53.8235 242.825C53.533 243.214 53.2102 243.602 52.9196 243.99C52.5645 244.411 52.2417 244.864 51.9511 245.349C51.6929 245.77 51.37 246.158 51.1763 246.611C50.6921 247.193 50.4338 247.905 50.111 248.584C49.4976 249.878 48.9165 251.237 48.4323 252.596C48.3031 252.887 48.2063 253.211 48.1094 253.502C47.8512 254.343 47.4315 255.055 46.7536 255.637C46.011 256.284 45.3008 256.996 44.5906 257.675C44.1063 258.128 43.6544 258.614 43.1701 259.067C42.3954 259.746 41.6206 260.425 40.8458 261.105C40.6521 261.267 40.4261 261.461 40.2647 261.655C39.7804 262.205 39.1993 262.561 38.6505 263.014C38.4245 263.208 38.1663 263.305 37.8757 263.305C37.7466 263.305 37.6175 263.272 37.5206 263.143C37.2946 262.819 37.0687 262.464 37.0041 262.075C36.9395 261.719 36.9395 261.364 36.9395 261.008C36.9718 260.264 37.0364 259.519 37.1009 258.775C37.1332 258.225 37.3592 257.837 37.8112 257.514C38.0694 257.352 38.2954 257.125 38.4568 256.867C38.4891 256.77 38.586 256.705 38.6505 256.64C39.1348 256.122 39.619 255.605 40.1033 255.087C40.6521 254.505 41.2009 253.955 41.7174 253.372C42.2339 252.79 42.7182 252.175 43.2993 251.658C43.3638 251.593 43.4284 251.528 43.493 251.431C43.6544 251.237 43.8158 251.011 44.0095 250.817C44.6229 250.105 45.2685 249.393 45.8174 248.584C46.4953 247.646 47.2055 246.708 47.8189 245.705C48.3031 244.928 48.7551 244.12 49.2071 243.343C49.5299 242.825 49.6268 242.243 49.7882 241.661C49.9819 241.014 50.0464 240.302 50.1433 239.622C50.2724 238.846 49.9173 238.264 49.2716 237.843C49.1748 237.778 49.1102 237.746 49.0134 237.681C48.626 237.455 48.2063 237.455 47.8189 237.617C47.4638 237.746 47.141 237.972 46.8504 238.231C46.1402 238.878 45.4622 239.525 44.8166 240.205C43.493 241.564 42.2985 243.02 41.1686 244.54C40.6844 245.187 40.1678 245.834 39.7804 246.578C39.5867 246.967 39.3285 247.322 39.1025 247.711C39.0056 247.872 38.9411 248.002 38.8442 248.164C38.6828 248.455 38.5214 248.714 38.36 249.005C38.1017 249.522 37.8757 250.04 37.6175 250.558C37.5206 250.752 37.4238 250.978 37.3592 251.172C37.2301 251.464 37.1009 251.722 37.0041 252.014C36.8104 252.467 36.6813 252.92 36.5521 253.372C36.4553 253.696 36.2939 254.02 36.197 254.343C36.1324 254.472 36.0679 254.634 36.0356 254.764C35.9065 255.249 35.7773 255.767 35.6159 256.252C35.5191 256.608 35.3577 256.931 35.0994 257.19C34.0663 258.193 33.1301 259.261 32.0325 260.167C30.9994 261.008 29.9987 261.914 28.9656 262.755C28.6105 263.046 28.1908 263.337 27.8034 263.596C27.19 264.017 26.4475 263.79 26.0279 263.337C25.8987 263.175 25.7696 263.014 25.6405 262.819C25.2208 262.205 24.9625 261.493 24.7688 260.781C24.6397 260.361 24.672 259.908 24.6397 259.487C24.6397 259.39 24.672 259.261 24.7043 259.164C24.8657 258.743 24.9948 258.322 25.1885 257.934C25.6405 256.964 25.9956 255.961 26.3184 254.925C26.383 254.764 26.4475 254.602 26.5444 254.472C26.7381 254.052 26.9641 253.664 27.1255 253.243C27.3192 252.725 27.4483 252.143 27.7711 251.658C27.868 251.528 27.9003 251.334 27.9648 251.172C28.0617 250.914 28.094 250.655 28.2231 250.428C28.6428 249.749 28.7074 248.908 29.2239 248.261C29.3207 248.131 29.353 248.002 29.4176 247.84C29.579 247.355 29.9018 246.934 29.9341 246.384C29.9341 246.287 29.9987 246.222 30.031 246.125C30.2892 245.64 30.5475 245.187 30.7735 244.702C31.0317 244.152 31.3546 243.667 31.4514 243.052C31.4837 242.922 31.5483 242.793 31.5805 242.664C31.7742 242.211 32.0002 241.758 32.1939 241.305C32.5813 240.464 32.9364 239.655 33.3561 238.814C33.5821 238.328 33.9049 237.875 34.0663 237.325C34.0986 237.261 34.1309 237.196 34.1632 237.131C34.3892 236.873 34.486 236.581 34.6151 236.258C34.8088 235.708 35.0348 235.158 35.3899 234.673C35.6482 234.317 35.8419 233.928 35.971 233.475C36.0033 233.346 36.0679 233.217 36.1324 233.12C36.4553 232.667 36.649 232.181 36.8104 231.664C36.875 231.502 36.9718 231.308 37.0687 231.146C37.2624 230.823 37.4561 230.531 37.6175 230.208C37.8757 229.723 38.1017 229.205 38.3277 228.72C38.4245 228.525 38.5214 228.299 38.6505 228.137C38.7797 227.975 38.8765 227.781 38.9411 227.587C39.0379 227.328 39.1348 227.102 39.2639 226.843C39.5867 226.196 39.9096 225.549 40.2001 224.87C40.4907 224.223 41.104 223.867 41.8143 223.931C42.0402 223.964 42.2017 224.061 42.2985 224.255C42.4276 224.546 42.4922 224.87 42.5891 225.193C42.7505 225.678 42.7182 226.131 42.5891 226.617C42.5245 226.94 42.4599 227.264 42.3631 227.555C42.2017 228.202 42.0402 228.849 41.5883 229.367C41.556 229.399 41.5237 229.464 41.4914 229.496C41.2977 229.82 41.33 230.078 41.5883 230.37C41.7174 230.499 41.8465 230.661 41.9757 230.79C42.1694 231.017 42.4599 231.114 42.7505 231.146C43.267 231.178 43.7835 231.081 43.9449 230.337C44.0095 230.143 44.0418 229.917 44.1063 229.723C44.1709 229.431 44.2032 229.14 44.3323 228.881C44.5906 228.267 44.752 227.62 44.7843 226.94C44.7843 226.746 44.7843 226.52 44.8166 226.325C44.9457 225.387 44.752 224.546 44.2032 223.77C44.1709 223.737 44.1386 223.673 44.1063 223.608C43.9449 223.284 43.719 223.058 43.4284 222.864C43.3316 222.799 43.2024 222.734 43.1056 222.637C42.815 222.346 42.4922 222.087 42.008 222.152C41.8465 222.184 41.7497 221.99 41.782 221.828C41.8143 221.699 41.8465 221.57 41.9111 221.44C42.0725 221.149 42.2339 220.858 42.3631 220.567C42.6213 220.017 42.8473 219.402 43.1701 218.884C43.2347 218.755 43.2993 218.626 43.3638 218.464C43.6221 217.72 44.0095 217.04 44.3646 216.361C44.5583 215.973 44.752 215.584 44.9457 215.196C45.3331 214.452 45.6882 213.708 46.0756 212.931C46.2048 212.673 46.3662 212.446 46.4953 212.187C46.7213 211.767 46.915 211.378 47.141 210.958C47.2701 210.764 47.3024 210.537 47.3024 210.311C47.2701 209.664 46.7858 209.146 46.1402 209.114C45.3331 209.243 45.0103 209.34 44.8166 210.149C44.8166 210.181 44.7843 210.214 44.7843 210.246C44.6552 210.99 44.4292 211.734 44.1386 212.414C43.8481 213.061 43.5898 213.74 43.2347 214.387C43.1056 214.646 42.9442 214.905 42.8796 215.164C42.7827 215.52 42.6213 215.843 42.4599 216.167C42.0725 216.846 41.7497 217.526 41.4269 218.205C41.2977 218.496 41.104 218.787 41.0395 219.078C40.9426 219.467 40.7812 219.79 40.5229 220.081C40.4584 220.146 40.4261 220.243 40.3938 220.34C40.1678 220.825 39.9741 221.311 39.7481 221.796C39.5544 222.217 39.3607 222.637 39.167 223.025C39.0702 223.187 38.9734 223.349 38.8119 223.478C38.1986 224.061 37.5529 224.643 37.0041 225.323C36.6167 225.808 36.1002 226.196 35.7773 226.746C35.745 226.811 35.6805 226.875 35.6159 226.908C35.2608 227.296 34.9057 227.717 34.5506 228.105C34.486 228.17 34.4214 228.234 34.3892 228.331C34.2277 228.72 33.9372 228.978 33.7112 229.302C33.3884 229.723 33.0333 230.111 32.8073 230.628C32.775 230.693 32.7427 230.725 32.7104 230.758C32.1616 231.34 31.8065 232.052 31.3868 232.667C30.9349 233.314 30.5475 234.025 30.1278 234.705C29.579 235.514 29.0947 236.355 28.6428 237.228C28.1908 238.07 27.7711 238.911 27.3192 239.784C26.9318 240.528 26.5444 241.24 26.2538 241.984C25.705 243.408 25.0917 244.799 24.5751 246.255C24.1877 247.42 23.8003 248.617 23.5421 249.814C23.2192 251.27 22.9287 252.758 22.6059 254.246C22.6059 254.311 22.5736 254.408 22.5736 254.472C22.5736 254.893 22.4767 255.281 22.4122 255.67C22.3153 256.09 22.283 256.511 22.3153 256.931C22.3799 257.352 22.3476 257.772 22.3153 258.193C22.3153 258.387 22.3153 258.614 22.3153 258.808C22.3799 259.261 22.283 259.681 22.0893 260.069C21.9602 260.328 21.8634 260.587 21.7665 260.846C21.3791 261.914 21.024 262.981 20.6689 264.049C20.2169 265.343 19.6681 266.605 19.2807 267.931C19.1516 268.417 18.9902 268.869 18.8287 269.355C18.4091 270.746 17.9571 272.169 17.5697 273.593C17.3114 274.466 17.1177 275.34 16.924 276.214C16.6658 277.314 16.4398 278.414 16.1815 279.514C16.117 279.74 16.0847 279.999 15.9556 280.161C15.6973 280.484 15.7296 280.775 15.9233 281.099C16.0201 281.228 16.0524 281.422 16.1815 281.552C16.2784 281.681 16.4075 281.778 16.5367 281.843C17.1177 282.069 17.6988 282.037 18.1831 281.584C18.4091 281.39 18.5059 281.196 18.4091 280.872C18.3445 280.646 18.3122 280.419 18.3445 280.193C18.4091 279.675 18.4736 279.158 18.5705 278.672C18.8933 277.281 19.2161 275.89 19.5713 274.499C19.7004 273.917 19.8941 273.367 20.0555 272.784C20.3461 271.814 20.6043 270.843 20.8949 269.872C21.3145 268.578 21.7342 267.317 22.1862 266.022C22.4122 265.311 22.7027 264.631 22.9287 263.919C23.0255 263.661 23.0901 263.402 23.3807 263.24C23.5421 263.467 23.7035 263.693 23.8326 263.887C24.3169 264.567 24.8011 265.214 25.5436 265.602C25.8987 265.764 26.2538 265.925 26.6412 265.925C26.8995 265.925 27.19 265.925 27.4483 265.893C28.2877 265.796 29.0302 265.505 29.6758 264.955C30.4184 264.34 31.1609 263.693 31.8711 263.046C32.6782 262.367 33.453 261.655 34.2277 260.975C34.3246 260.878 34.4214 260.781 34.5506 260.717C34.6151 260.684 34.712 260.652 34.8088 260.619C34.8411 260.781 34.8734 260.878 34.8734 261.008C34.8411 262.043 35.164 262.949 35.5513 263.887C35.5836 263.984 35.6482 264.081 35.7451 264.178C36.1324 264.631 36.6167 264.987 37.1978 265.149C38.2954 265.472 39.2639 265.246 40.1678 264.567C40.6521 264.178 41.104 263.725 41.5883 263.337C41.8465 263.111 42.1371 262.852 42.3954 262.625C42.4922 262.528 42.5891 262.431 42.6859 262.334C42.9119 262.075 43.1701 261.849 43.3961 261.59C43.6221 261.364 43.8158 261.169 44.0418 260.943C44.4937 260.49 44.978 260.037 45.4622 259.584C45.5591 259.487 45.6882 259.455 45.8174 259.358C45.8819 259.487 45.9142 259.552 45.9465 259.649C45.9788 259.875 45.9465 260.102 45.8819 260.328C45.6882 261.137 45.5268 261.914 45.3331 262.722C45.2685 262.981 45.2685 263.24 45.204 263.499C45.0748 264.211 45.1071 264.955 45.1394 265.667C45.1394 265.861 45.204 266.087 45.3008 266.249C45.5268 266.605 45.8174 266.896 46.1725 267.155C46.5599 267.414 46.9795 267.511 47.4315 267.349C47.6898 267.252 47.9157 267.155 48.174 267.025C48.626 266.767 48.9811 266.443 49.3362 266.087C49.433 265.99 49.5299 265.861 49.659 265.764C50.3047 265.278 50.7889 264.631 51.3377 264.049C52.2094 263.143 53.0488 262.205 53.9204 261.299C54.5661 260.619 55.244 260.005 55.9219 259.358C57.0841 258.29 58.2463 257.19 59.4085 256.122C59.6668 255.864 59.925 255.637 60.1833 255.378C60.4093 255.152 60.603 254.958 60.829 254.731C60.9904 254.57 61.1195 254.375 61.2809 254.214C61.9266 253.534 62.6045 252.887 63.2502 252.208C63.7021 251.722 64.1218 251.205 64.5738 250.687C64.7675 250.461 64.9612 250.267 65.2517 250.17C65.3486 250.428 65.3163 250.687 65.2195 250.946C65.1226 251.172 65.058 251.367 64.9935 251.593C64.7998 252.305 64.6061 253.017 64.4124 253.761C64.3155 254.084 64.1864 254.375 64.1218 254.699C63.799 256.025 63.3148 257.319 62.8628 258.614C62.8305 258.743 62.7659 258.872 62.6691 258.969C62.2494 259.487 61.8297 260.005 61.3132 260.458C60.1187 261.558 58.892 262.69 57.6975 263.79C57.0518 264.405 56.3416 264.922 55.7605 265.569L55.7282 265.602C55.2117 266.119 54.6629 266.605 54.1787 267.122C53.533 267.769 52.9196 268.449 52.3062 269.128C51.6283 269.84 50.9504 270.519 50.3047 271.264C49.2716 272.461 48.3031 273.722 47.3992 275.017C47.0764 275.469 46.7858 275.922 46.5276 276.408C46.2047 277.022 45.9142 277.669 45.6237 278.316C45.3654 278.931 45.0748 279.514 44.8811 280.161C44.6874 280.84 44.5583 281.552 44.526 282.231C44.4937 282.587 44.526 282.911 44.5583 283.266C44.5906 283.558 44.6229 283.849 44.6874 284.108C44.8166 284.819 45.0426 285.466 45.5914 285.984C45.9465 286.308 46.3662 286.469 46.7213 286.761C46.7536 286.793 46.8181 286.793 46.8827 286.793C47.3024 286.858 47.7221 286.955 48.1094 287.019C48.2063 287.052 48.3354 287.052 48.4646 287.052C48.9488 286.955 49.4653 286.922 49.9173 286.728C50.4661 286.469 51.0472 286.275 51.5637 285.952C52.2417 285.531 52.8873 285.078 53.533 284.593C53.8235 284.399 54.0495 284.14 54.2755 283.914C54.4369 283.752 54.5983 283.59 54.7597 283.461C54.8566 283.396 54.9534 283.331 55.018 283.234C55.3408 282.878 55.696 282.49 56.0188 282.134C56.4062 281.681 56.8259 281.228 57.1487 280.711C57.3101 280.419 57.5361 280.193 57.7298 279.934C57.7943 279.837 57.8912 279.708 58.0849 279.74C58.0849 279.837 58.0849 279.966 58.0526 280.064C57.9558 280.581 57.8266 281.066 57.6975 281.584C57.4715 282.652 57.2455 283.752 57.2778 284.884C57.3101 285.434 57.3424 285.952 57.5361 286.469C57.8266 287.311 58.4077 287.861 59.2148 288.152C59.8282 288.378 60.4416 288.411 61.0872 288.281C61.5069 288.184 61.9589 288.087 62.314 287.796C62.9596 287.278 63.573 286.696 64.0895 286.016C64.3801 285.596 64.6706 285.175 64.9935 284.755C65.2194 284.496 65.4131 284.205 65.5746 283.914C66.0588 283.105 66.5431 282.264 66.995 281.422C67.2533 280.969 67.5115 280.484 67.7375 279.999C67.9312 279.578 68.1249 279.158 68.3509 278.769C68.932 277.669 69.384 276.505 69.8682 275.372C70.0296 274.984 70.191 274.596 70.3524 274.208C70.643 273.496 70.9658 272.784 71.2564 272.04C71.8052 270.584 72.354 269.128 72.9028 267.64C73.0965 267.09 73.2579 266.54 73.4193 265.99C73.6453 265.246 73.839 264.534 74.065 263.79C74.291 263.111 74.517 262.464 74.6461 261.752C74.7752 261.137 75.0335 260.587 75.4532 260.134C75.7437 259.811 76.0343 259.487 76.3248 259.164C76.9059 258.517 77.487 257.902 78.1004 257.287C78.8106 256.543 79.5854 255.864 80.2633 255.087C81.0058 254.278 81.8452 253.534 82.5877 252.725C83.072 252.175 83.6208 251.658 84.105 251.108C84.6216 250.525 85.1704 249.943 85.6869 249.393C86.1066 248.908 86.5585 248.422 86.9782 247.97C87.0751 247.872 87.1719 247.743 87.2688 247.614C87.6239 247.193 87.979 246.772 88.3664 246.352C88.4632 246.255 88.5278 246.125 88.6892 246.19C88.7538 246.384 88.7215 246.546 88.6569 246.74C88.3341 247.549 88.0435 248.39 87.753 249.199C87.527 249.814 87.301 250.461 87.1073 251.075C86.8168 251.917 86.494 252.758 86.2034 253.599C85.9774 254.214 85.7837 254.861 85.5578 255.508C85.1058 256.802 84.6861 258.064 84.2664 259.358C84.0082 260.167 83.7822 261.008 83.4271 261.784C83.3948 261.849 83.3948 261.881 83.3625 261.946C83.072 262.884 82.7814 263.855 82.4586 264.793C82.2003 265.602 81.8775 266.411 81.3287 267.09C81.2641 267.187 81.1995 267.284 81.135 267.381C80.909 267.737 80.6507 268.125 80.4248 268.481C80.0696 269.031 79.7468 269.581 79.3917 270.131C79.1657 270.487 78.972 270.811 78.746 271.167C78.6492 271.328 78.5523 271.458 78.4555 271.587C77.5838 273.205 76.6799 274.79 75.9697 276.472C75.4532 277.669 74.8398 278.866 74.3555 280.064C73.839 281.39 73.3225 282.684 72.806 284.011C72.7091 284.237 72.6123 284.464 72.5154 284.69C72.4508 284.884 72.354 285.078 72.2894 285.272C72.0312 286.114 71.7729 286.987 71.4824 287.828C71.095 288.961 70.7721 290.093 70.4493 291.225C70.2879 291.808 70.1265 292.358 69.965 292.94C69.8359 293.425 69.7391 293.943 69.6099 294.461C69.2225 295.981 68.8674 297.502 68.6092 299.055C68.5769 299.249 68.5769 299.475 68.5123 299.669C68.2863 300.608 68.2541 301.546 68.1249 302.516C68.0604 302.937 68.0281 303.39 68.0281 303.843C68.0281 304.069 68.0281 304.296 68.0281 304.522C68.0604 304.878 68.0604 305.202 68.1249 305.558C68.2218 306.108 68.3186 306.69 68.4478 307.24C68.6092 307.887 69.3517 308.178 69.9005 307.887C70.2233 307.725 70.5139 307.499 70.6753 307.143C70.8367 306.819 70.9981 306.528 71.1595 306.237C71.3532 305.913 71.4824 305.59 71.5792 305.234C71.676 304.911 71.7729 304.619 71.9343 304.328C72.2571 303.843 72.4831 303.325 72.6123 302.743C72.7737 302.096 73.1288 301.546 73.3548 300.963C73.8067 300.381 73.9681 299.637 74.1296 298.958C74.3878 297.825 74.8075 296.725 75.1626 295.625C75.2595 295.334 75.3563 295.043 75.4209 294.752C75.4854 294.428 75.55 294.137 75.6791 293.813C75.8406 293.425 75.9697 293.037 76.0988 292.616C76.4539 291.258 76.7768 289.899 77.1319 288.572C77.487 287.311 77.7775 286.049 78.1327 284.819C78.5523 283.396 78.9397 281.94 79.3917 280.516C79.65 279.643 79.8759 278.737 80.1988 277.896C80.4248 277.249 80.6507 276.602 80.8444 275.922C81.4255 273.981 81.9743 272.04 82.6846 270.131C82.8137 269.743 82.9751 269.355 83.1042 268.934C83.2334 268.481 83.3302 268.061 83.4594 267.608C83.5239 267.414 83.5885 267.252 83.6853 267.09C84.1373 266.281 84.6861 265.505 85.2349 264.761C85.8483 263.952 86.494 263.175 87.1396 262.399C87.6239 261.817 88.0758 261.267 88.5924 260.717C89.464 259.778 90.3356 258.84 91.2396 257.934C92.0144 257.125 92.8537 256.349 93.6608 255.605C94.1773 255.12 94.7584 254.699 95.3072 254.246C95.4686 254.117 95.6301 254.052 95.856 254.181C95.8883 254.311 95.9206 254.44 95.9206 254.57C95.8883 255.087 96.1789 255.443 96.534 255.734C96.6954 255.864 96.8568 256.025 97.0182 256.155C97.1796 256.284 97.3733 256.414 97.567 256.446C97.8899 256.511 98.2127 256.543 98.5355 256.478C99.1489 256.414 99.7623 256.252 100.343 255.993C100.634 255.864 100.924 255.734 101.247 255.605C101.538 255.508 101.796 255.378 102.054 255.152C102.184 255.022 102.377 254.958 102.539 254.861C102.797 254.731 103.087 254.602 103.346 254.44C103.991 254.052 104.605 253.631 105.25 253.308C105.476 253.211 105.735 253.081 105.928 252.92C106.445 252.499 107.058 252.208 107.639 251.884C107.994 251.69 108.382 251.528 108.737 251.27C108.898 251.14 109.157 251.075 109.35 250.978C109.512 250.914 109.673 250.849 109.802 250.752C110.351 250.331 110.964 250.137 111.642 249.975C111.804 249.943 111.965 249.911 112.159 249.878C112.643 249.749 112.901 249.49 112.966 248.843C113.095 248.487 112.837 248.034 112.514 247.678ZM98.9552 229.431C99.6009 228.267 100.247 227.134 100.892 225.97C101.409 225.064 101.893 224.158 102.409 223.284C102.926 222.378 103.443 221.505 103.959 220.599C104.25 220.114 104.508 219.596 104.766 219.078C105.186 218.334 105.606 217.623 106.025 216.911C106.509 216.102 106.961 215.293 107.478 214.517C107.672 214.226 107.865 213.934 108.059 213.676C108.22 213.481 108.35 213.287 108.511 213.093C108.608 212.996 108.705 212.931 108.866 212.834C108.898 212.964 108.931 213.061 108.931 213.126C108.866 213.352 108.802 213.578 108.705 213.773C108.059 215.034 107.381 216.328 106.703 217.59C106.251 218.431 105.831 219.24 105.38 220.049C104.798 221.052 104.25 222.087 103.604 223.058C103.152 223.737 102.765 224.481 102.313 225.161C101.699 226.099 101.086 227.005 100.473 227.911C100.117 228.461 99.73 228.978 99.4072 229.528C99.2458 229.787 99.0198 229.981 98.7615 230.143C98.7292 229.884 98.8584 229.658 98.9552 229.431ZM80.457 240.561C80.683 239.978 80.909 239.396 81.1027 238.781C81.5547 237.487 82.1035 236.258 82.7168 235.061C83.4271 233.605 84.2019 232.181 85.0412 230.79C85.5578 229.949 86.1066 229.108 86.6554 228.267C86.8814 227.911 87.1396 227.587 87.3979 227.231C87.4302 227.167 87.4947 227.102 87.527 227.037C88.4955 225.614 89.4963 224.223 90.5939 222.928C91.3687 222.023 92.1758 221.181 93.0151 220.34C93.3702 219.984 93.7576 219.693 94.145 219.37C94.4679 219.111 94.5324 219.111 95.1135 219.273C95.0813 219.499 95.0812 219.726 94.9844 219.92C94.823 220.308 94.6616 220.696 94.4679 221.084C94.4356 221.181 94.3387 221.278 94.3065 221.375C93.9836 222.184 93.4671 222.864 93.0151 223.575C92.3049 224.74 91.4655 225.808 90.8199 227.005C90.5616 227.49 90.3034 227.975 89.916 228.396C89.8191 228.493 89.7545 228.655 89.6577 228.784C89.1412 229.69 88.6246 230.596 88.1081 231.534C88.0113 231.696 87.9144 231.858 87.7853 232.02C87.6562 232.214 87.527 232.408 87.3979 232.602C86.6877 233.67 86.0097 234.77 85.2995 235.805C84.5893 236.808 83.8145 237.778 82.9751 238.717C82.8783 238.814 82.7491 238.943 82.6523 239.04C82.4263 239.234 82.2003 239.428 82.0389 239.72C82.0066 239.784 81.9743 239.817 81.942 239.849C81.5547 240.237 81.1673 240.625 80.7799 241.014C80.6507 241.143 80.5216 241.24 80.3279 241.111C80.3602 240.917 80.3925 240.722 80.457 240.561ZM71.9343 238.264C72.4186 237.325 72.8382 236.387 73.3548 235.449C73.9681 234.349 74.6461 233.281 75.2917 232.214C75.3886 232.02 75.55 231.858 75.6469 231.696C75.9697 231.211 76.2925 230.758 76.5831 230.273C76.6476 230.175 76.7122 230.046 76.7768 229.917C77.261 229.237 77.7453 228.59 78.2295 227.911C78.4555 227.587 78.746 227.296 78.972 226.973C79.198 226.681 79.3917 226.39 79.6177 226.099C80.231 225.29 80.8767 224.481 81.5224 223.673C81.9421 223.123 82.394 222.573 82.8137 221.99C83.2334 221.473 83.6208 220.923 84.0405 220.405C84.1373 220.275 84.2664 220.146 84.3956 220.017C84.4601 219.952 84.557 219.887 84.7507 219.726C84.6861 220.308 84.5247 220.696 84.331 221.084C84.0727 221.667 83.8145 222.281 83.5562 222.864C83.3625 223.284 83.2011 223.737 82.9751 224.158C82.5877 224.837 82.2972 225.549 81.9743 226.293C81.8775 226.487 81.7484 226.681 81.6192 226.875C81.4255 227.199 81.1995 227.523 81.0381 227.846C80.457 229.011 79.7145 230.078 78.9397 231.114C78.4878 231.696 78.1004 232.278 77.6484 232.861C77.2933 233.314 76.8736 233.702 76.5185 234.155C76.0665 234.705 75.55 235.223 75.0335 235.74C74.7752 235.999 74.5492 236.29 74.3233 236.549C73.9681 236.937 73.613 237.293 73.1934 237.617C72.9028 237.811 72.7414 238.102 72.5477 238.425C72.354 238.717 72.1603 239.008 71.8052 239.105C71.7729 239.105 71.7406 239.105 71.6761 239.105C71.6761 238.814 71.8052 238.555 71.9343 238.264ZM51.9834 249.231C52.6936 247.678 53.5976 246.222 54.6306 244.831C55.4054 243.828 56.2125 242.89 57.0841 241.984C57.2778 241.79 57.4715 241.628 57.6975 241.467C57.8266 241.37 57.8266 241.402 58.1495 241.434C58.1495 241.661 58.0203 241.822 57.8912 241.984C57.2455 242.793 56.5999 243.634 55.9865 244.475C55.5345 245.122 55.0503 245.705 54.5661 246.32C54.3724 246.546 54.2109 246.805 54.0172 247.064C53.6298 247.614 53.2424 248.196 52.8551 248.746C52.6614 249.037 52.4031 249.328 52.1771 249.62C52.0803 249.717 51.9834 249.814 51.822 249.749C51.8543 249.587 51.9188 249.425 51.9834 249.231ZM38.7151 252.984C38.8119 252.661 38.9088 252.337 39.0379 252.014C39.4899 250.881 40.0387 249.814 40.5875 248.778C40.8781 248.196 41.2654 247.678 41.6206 247.128C41.6851 247.064 41.7497 246.967 41.782 246.902C42.1694 246.125 42.6859 245.478 43.2024 244.831C43.8158 244.022 44.4615 243.246 45.1071 242.47C45.43 242.081 45.8174 241.758 46.1402 241.402C46.237 241.305 46.3339 241.208 46.3984 241.111C46.7858 240.658 46.9473 240.561 47.6575 240.27C47.7543 240.852 47.5929 241.337 47.4315 241.822C47.3669 242.081 47.2701 242.34 47.1732 242.599C46.9473 243.44 46.5599 244.184 46.0111 244.864C45.9465 244.928 45.8819 245.025 45.8496 245.09C45.7851 245.446 45.5268 245.672 45.3008 245.964C45.0748 246.287 44.8811 246.643 44.6229 246.967C43.9772 247.743 43.3961 248.584 42.6859 249.296C42.1694 249.814 41.7174 250.428 41.2332 250.978C40.8135 251.464 40.3938 251.917 39.9741 252.402C39.7804 252.628 39.5867 252.822 39.3607 253.017C39.2316 253.146 39.1025 253.243 38.9411 253.308C38.8442 253.372 38.7151 253.405 38.6182 253.275C38.7151 253.211 38.6828 253.081 38.7151 252.984ZM38.6505 253.47C38.6505 253.437 38.7151 253.437 38.7474 253.437C38.7474 253.47 38.7797 253.502 38.7797 253.534C38.7474 253.599 38.7151 253.664 38.6505 253.728C38.6182 253.728 38.6182 253.728 38.586 253.696C38.586 253.631 38.6182 253.534 38.6505 253.47ZM24.9625 252.111C25.1239 251.334 25.2531 250.525 25.4468 249.749C25.6727 248.811 25.9633 247.905 26.2216 246.999C26.3507 246.514 26.5444 246.061 26.7058 245.608C26.8027 245.317 26.8995 244.993 27.0286 244.702C27.4806 243.828 27.7066 242.89 28.094 241.984C28.5137 241.046 28.9656 240.108 29.4499 239.202C29.805 238.555 30.1601 237.94 30.5152 237.293C30.8057 236.808 31.0963 236.323 31.3868 235.837C31.7097 235.32 32.0325 234.802 32.3553 234.284C32.9364 233.281 33.5821 232.311 34.26 231.373C34.3892 231.211 34.4537 231.017 34.5829 230.855C34.7766 230.596 35.0025 230.337 35.2285 230.078C35.2608 230.014 35.3577 229.981 35.3899 229.949C35.4222 229.981 35.4545 229.981 35.4545 230.014C35.4868 230.175 35.5191 230.337 35.5513 230.531C35.0994 230.952 34.8734 231.534 34.6474 232.084C34.5183 232.408 34.486 232.764 34.1632 232.958C34.1309 232.99 34.0986 233.055 34.0663 233.12C33.9049 233.475 33.7112 233.799 33.5498 234.155C33.0978 235.125 32.6459 236.128 32.1616 237.099C31.8711 237.714 31.6128 238.328 31.2577 238.878C30.9994 239.299 30.8057 239.752 30.6766 240.237C30.6443 240.334 30.6121 240.464 30.5798 240.561C30.4184 240.852 30.2247 241.111 30.0955 241.402C29.6113 242.47 29.127 243.505 28.6105 244.572C28.1263 245.608 27.6743 246.611 27.2223 247.646C27.0609 247.97 26.9641 248.325 26.8027 248.649C26.383 249.652 25.931 250.655 25.479 251.625C25.3499 251.949 25.1562 252.208 24.9625 252.499C24.9302 252.499 24.8657 252.467 24.8334 252.467C24.9948 252.37 24.9625 252.24 24.9625 252.111ZM59.0534 271.619C59.0211 271.684 59.0211 271.781 58.9888 271.846C58.6983 272.461 58.6014 273.108 58.4077 273.755C58.3432 273.949 58.3109 274.175 58.214 274.369C57.9235 275.081 57.6329 275.825 57.3424 276.537C57.0518 277.249 56.6967 277.961 56.3093 278.64C55.9865 279.255 55.5668 279.805 55.1794 280.355L55.1471 280.387C54.1141 281.616 53.1133 282.878 51.7574 283.752C51.0795 284.172 50.4015 284.593 49.659 284.949C49.1748 285.175 48.6583 285.337 48.1094 285.337C47.6898 285.337 47.3347 285.208 47.0441 284.884C46.689 284.496 46.5276 284.075 46.5599 283.525C46.5599 282.846 46.7213 282.199 46.7536 281.519C46.7536 281.358 46.8181 281.228 46.8827 281.066C47.0118 280.646 47.141 280.225 47.2701 279.805C47.3347 279.578 47.4315 279.352 47.5606 279.125C47.9157 278.414 48.2386 277.734 48.5937 277.022C48.6583 276.925 48.6905 276.828 48.7551 276.731C49.2071 276.052 49.659 275.34 50.1756 274.725C50.8858 273.852 51.4992 272.914 52.274 272.105C53.1133 271.231 53.8881 270.325 54.7275 269.452C55.2117 268.934 55.696 268.417 56.1802 267.931C56.3739 267.737 56.5676 267.575 56.7613 267.381C57.407 266.734 58.0526 266.087 58.7306 265.472C59.3439 264.89 59.9896 264.308 60.603 263.725C60.7321 263.596 60.8935 263.467 61.0872 263.467C61.1841 263.725 61.1195 263.952 61.0549 264.211C60.7321 265.343 60.377 266.475 60.0542 267.608C59.7636 268.967 59.4085 270.293 59.0534 271.619ZM60.2801 274.758C60.2801 274.79 60.2479 274.79 60.2479 274.822L60.2156 274.79C60.2156 274.758 60.2479 274.725 60.2479 274.693C60.2479 274.725 60.2801 274.758 60.2801 274.758ZM71.6761 265.019C71.4824 265.667 71.3209 266.314 71.1272 266.928C70.9981 267.381 70.7721 267.802 70.6107 268.255C70.4493 268.675 70.3202 269.128 70.1587 269.549C69.9973 269.969 69.8359 270.358 69.6745 270.778C69.1257 272.137 68.6092 273.464 68.0603 274.822C67.673 275.793 67.2533 276.764 66.769 277.702C66.4785 278.252 66.2525 278.834 65.962 279.416C65.51 280.322 65.0257 281.196 64.5415 282.102C64.1864 282.814 63.7667 283.461 63.3147 284.075C63.0565 284.431 62.7337 284.755 62.4754 285.078C62.1848 285.402 61.9266 285.693 61.636 286.016C61.3132 286.34 60.9258 286.566 60.4416 286.631C60.0542 286.664 59.7636 286.534 59.6022 286.178C59.5054 285.919 59.4085 285.661 59.4085 285.402C59.3762 285.014 59.3762 284.625 59.4085 284.269C59.5054 282.975 59.7636 281.746 60.2156 280.516C60.5061 279.675 60.7967 278.802 61.1195 277.993C61.4746 277.119 61.9266 276.311 62.4431 275.534C62.6368 275.275 62.7659 274.952 62.9596 274.693C63.6053 273.819 64.1864 272.914 64.9289 272.105C65.3486 271.619 65.736 271.102 66.1557 270.617C66.5753 270.131 66.995 269.678 67.3824 269.193C67.5438 268.999 67.7052 268.805 67.8667 268.611C68.8029 267.543 69.7391 266.443 70.7398 265.44C70.9335 265.246 71.095 264.987 71.2887 264.793C71.3855 264.664 71.5146 264.534 71.7083 264.567C71.7729 264.696 71.7083 264.858 71.6761 265.019ZM75.9697 248.875C75.9374 249.134 75.9051 249.393 75.8406 249.652C75.6146 250.525 75.3886 251.431 75.1303 252.305C75.0012 252.79 74.8398 253.308 74.7107 253.793C74.291 255.411 73.839 257.028 73.4193 258.678C73.4193 258.743 73.387 258.775 73.387 258.84C72.9674 260.264 73.0965 260.005 72.2249 260.975C71.676 261.558 71.1272 262.14 70.5784 262.722C69.9328 263.434 69.2871 264.114 68.6092 264.793C67.9635 265.472 67.3824 266.184 66.7367 266.896C66.0911 267.608 65.4454 268.352 64.7998 269.064C64.0895 269.872 63.3148 270.649 62.7014 271.555C62.54 271.781 62.3463 272.008 62.1526 272.202C62.0557 272.331 61.9589 272.428 61.8943 272.558C61.7652 272.784 61.636 273.011 61.4746 273.237C61.2164 273.625 60.9258 273.981 60.6675 274.337C60.5707 274.499 60.4416 274.628 60.2479 274.661C60.5384 273.528 60.8612 272.428 61.1518 271.328C61.2486 271.005 61.3132 270.649 61.4101 270.325C61.4746 270.099 61.5069 269.84 61.636 269.614C61.8297 269.225 61.8943 268.772 61.9911 268.352C62.1848 267.543 62.4108 266.767 62.6368 265.99C62.8951 265.149 63.1856 264.308 63.4116 263.467C63.5407 263.014 63.6376 262.528 63.8313 262.108C63.9927 261.752 64.1218 261.364 64.2187 260.975C64.3801 260.393 64.6706 259.908 65.0903 259.455C65.8974 258.646 66.7045 257.805 67.4793 256.996C67.8344 256.64 68.1895 256.317 68.5446 255.961C68.8351 255.67 69.0611 255.346 69.3517 255.087C69.8359 254.57 70.3524 254.084 70.8367 253.599C71.2564 253.178 71.6438 252.725 72.0634 252.305C72.5154 251.852 72.9674 251.399 73.4193 250.914C73.8713 250.461 74.291 250.008 74.7107 249.555C74.9689 249.296 75.2595 249.005 75.5177 248.746C75.5823 248.681 75.7114 248.617 75.776 248.584C76.002 248.681 76.002 248.778 75.9697 248.875ZM78.8429 276.44C78.6492 276.99 78.4555 277.572 78.2941 278.122C77.9712 279.125 77.6807 280.128 77.3901 281.131C77.0673 282.199 76.7445 283.299 76.4217 284.366C76.2602 284.949 76.1311 285.564 75.9697 286.146C75.8083 286.793 75.6469 287.44 75.4854 288.087C75.1303 289.478 74.7429 290.902 74.3878 292.293C74.2264 292.908 74.0327 293.555 73.8713 294.169C73.7099 294.719 73.5807 295.269 73.4193 295.819C73.1611 296.758 72.8705 297.696 72.6123 298.634C72.2894 299.928 71.7729 301.125 71.2887 302.355C71.095 302.84 70.8367 303.325 70.6107 303.811C70.5139 304.005 70.4493 304.199 70.2233 304.328C70.0296 304.102 70.0619 303.843 70.0619 303.616C70.0619 303.358 70.0942 303.131 69.965 302.905C69.8682 302.775 69.9005 302.549 69.9005 302.355C69.9328 301.546 70.0619 300.737 70.2233 299.928C70.2556 299.766 70.3524 299.605 70.417 299.443C70.5784 299.119 70.6753 298.763 70.7398 298.408C70.9013 297.372 71.095 296.337 71.2564 295.302C71.2564 295.205 71.3209 295.14 71.3532 295.043C71.4178 294.881 71.4824 294.719 71.5146 294.558C71.5146 294.234 71.5469 293.911 71.7083 293.619C71.7083 293.587 71.7406 293.587 71.7406 293.555C71.676 292.908 72.1603 292.455 72.2894 291.84C72.3217 291.678 72.4186 291.516 72.4508 291.355C72.7091 290.481 72.9674 289.608 73.2579 288.734C73.3225 288.54 73.3871 288.346 73.4516 288.152C73.9036 286.955 74.3233 285.758 74.7752 284.561C74.9044 284.205 75.0335 283.849 75.1303 283.461C75.2595 282.975 75.5177 282.555 75.7114 282.102C75.9697 281.455 76.228 280.84 76.4539 280.193C76.5185 280.064 76.5831 279.902 76.6476 279.772C77.2287 278.543 77.8421 277.281 78.4232 276.052C78.5201 275.858 78.6492 275.664 78.7783 275.469C78.8752 275.34 78.972 275.211 79.1012 274.984C79.0689 275.534 79.0043 276.019 78.8429 276.44ZM17.1823 262.367C17.2146 262.269 17.2469 262.205 17.2792 262.108C17.5051 261.267 17.8603 260.458 18.2154 259.649C18.635 258.678 19.0547 257.74 19.4744 256.77C19.9587 255.605 20.4106 254.44 20.9271 253.275C21.5405 251.82 22.2185 250.364 22.7673 248.908C23.0901 248.067 23.5098 247.258 23.8003 246.417C24.1232 245.575 24.672 244.831 24.8657 243.958C25.3176 242.922 25.6405 241.855 26.1893 240.852C26.4798 240.27 26.6735 239.655 26.9318 239.072C27.4806 237.811 27.9648 236.517 28.5782 235.287C28.8042 234.834 29.0302 234.381 29.4176 233.993C29.579 233.831 29.6436 233.67 29.6113 233.411C29.579 233.217 29.579 232.99 29.6758 232.861C29.9341 232.473 29.9987 232.052 30.0955 231.631C30.1278 231.534 30.1601 231.47 30.1924 231.373C30.7412 230.175 31.29 228.978 31.8711 227.781C31.9034 227.717 31.9034 227.684 31.9357 227.62C32.0648 227.296 32.1939 227.005 32.3553 226.681C32.4199 226.552 32.5167 226.423 32.549 226.261C32.7104 225.775 32.9687 225.323 33.1947 224.87C33.4852 224.255 33.7435 223.64 34.034 223.058C34.26 222.573 34.5506 222.12 34.6797 221.602C34.6797 221.57 34.712 221.537 34.7443 221.505C35.1317 220.761 35.5514 219.984 35.9387 219.24C36.2293 218.658 36.4553 218.043 36.7135 217.461C37.0687 216.717 37.3269 215.94 37.7466 215.228C38.0049 214.808 38.1663 214.387 38.3923 213.967C38.586 213.546 38.7797 213.126 38.9734 212.737C39.1348 212.349 39.2962 211.961 39.4899 211.573C39.5867 211.378 39.6836 211.217 39.7804 211.023C40.1033 210.505 40.4261 210.02 40.7166 209.502C40.8135 209.373 40.878 209.146 40.8458 209.017C40.7489 208.693 40.5875 208.37 40.2324 208.24C39.9418 208.143 39.6513 208.046 39.3607 208.014C38.9734 207.949 38.7151 208.111 38.586 208.531C38.5214 208.758 38.4568 209.017 38.36 209.243C38.1017 209.89 37.8112 210.505 37.5529 211.12C36.9395 212.543 36.2616 213.934 35.6159 215.326C35.3899 215.843 35.1317 216.361 34.9057 216.878C34.4214 217.914 33.9372 218.949 33.4207 219.984C32.9364 220.987 32.4522 221.958 31.9679 222.961C31.8388 223.252 31.6774 223.543 31.5483 223.834C31.3546 224.32 31.1609 224.805 30.9672 225.258C30.5798 226.131 30.1278 226.973 29.7727 227.846C29.4499 228.59 29.127 229.367 28.7719 230.078C28.6751 230.24 28.6105 230.434 28.5459 230.596C28.4168 230.887 28.32 231.211 28.1585 231.502C27.9971 231.858 27.8034 232.214 27.3837 232.343C27.0932 232.44 26.9318 232.731 26.8995 233.055C26.8995 233.346 26.8349 233.637 26.7381 233.896C26.4475 234.478 26.1247 235.028 25.8019 235.578C25.5759 235.934 25.3176 236.258 25.0917 236.614C24.672 237.196 24.2523 237.811 23.7358 238.296C23.6389 238.361 23.6066 238.49 23.5098 238.555C23.1547 238.975 22.7996 239.396 22.3799 239.784C21.8311 240.334 21.2177 240.82 20.6366 241.37C20.0878 241.855 19.5067 242.178 18.7642 242.308C18.3768 242.372 18.1508 242.243 17.9894 241.92C17.8603 241.628 17.7957 241.337 17.828 241.014C17.8603 240.528 17.8603 240.011 17.8925 239.525C17.9248 239.072 17.9571 238.652 18.054 238.231C18.1831 237.584 18.3122 236.97 18.4414 236.323C18.5059 235.999 18.6028 235.643 18.635 235.32C18.6673 235.158 18.635 234.964 18.635 234.802C18.635 234.478 18.5059 234.284 18.2154 234.123C17.5374 233.734 17.5374 233.637 17.7634 232.861C17.7634 232.796 17.7957 232.764 17.828 232.699C18.054 231.89 18.4414 231.146 18.6996 230.337C18.861 229.82 19.0547 229.334 19.1516 228.817C19.1839 228.72 19.2161 228.623 19.2484 228.558C19.5067 228.04 19.7327 227.523 19.9264 226.973C20.1201 226.39 20.3783 225.84 20.6366 225.29C21.024 224.352 21.3791 223.414 21.8311 222.508C21.8956 222.378 21.9279 222.249 21.9925 222.12C22.1539 221.602 22.3799 221.117 22.6059 220.631C23.0901 219.564 23.5098 218.496 23.9295 217.396C24.2846 216.458 24.6397 215.487 25.2531 214.711C25.3176 214.614 25.3822 214.517 25.4468 214.42C25.6405 214.128 25.6727 213.805 25.705 213.481C25.7373 213.158 25.6082 212.867 25.2854 212.737C25.0917 212.64 24.9302 212.543 24.7365 212.446C24.446 212.284 24.1554 212.349 23.8649 212.543C23.6066 212.737 23.5098 212.964 23.4129 213.255C23.2838 213.708 23.1547 214.161 23.0255 214.614C22.9287 214.937 22.8318 215.228 22.7027 215.52C22.4122 216.231 22.1539 216.943 21.8634 217.655C21.6697 218.14 21.476 218.626 21.2823 219.078C20.9271 219.952 20.572 220.858 20.2169 221.731C20.1201 221.99 20.0232 222.281 19.9264 222.54C19.5067 223.317 19.1839 224.061 18.861 224.773C18.4414 225.775 18.1831 226.843 17.7311 227.814C17.6988 227.911 17.6666 228.04 17.6343 228.137C17.602 228.234 17.5697 228.364 17.5374 228.461C17.4406 228.687 17.376 228.881 17.2792 229.108C17.0532 229.723 16.8272 230.37 16.6012 230.984C16.5689 231.049 16.5689 231.081 16.5367 231.146C16.0847 231.987 15.8587 232.925 15.5359 233.831C15.3099 234.478 15.0194 235.158 14.7611 235.805C14.6642 235.999 14.5351 236.193 14.3737 236.387C13.954 236.905 13.502 237.39 13.0824 237.94C12.4367 238.781 11.7265 239.525 11.2745 240.496C11.2422 240.593 11.1777 240.658 11.1131 240.722C10.7257 241.305 10.2737 241.855 9.91863 242.47C9.46667 243.214 9.04699 243.958 8.62731 244.702C8.53046 244.896 8.43362 245.09 8.33677 245.252C8.17535 245.575 8.01394 245.899 7.85252 246.222C7.52969 246.934 7.17458 247.646 6.85175 248.325C6.1738 249.717 5.65728 251.172 5.07618 252.628C4.72107 253.502 4.43052 254.375 4.13997 255.281C4.01084 255.67 3.81714 256.025 3.75258 256.414C3.62345 257.093 3.36518 257.74 3.1392 258.387C3.04235 258.678 2.91322 258.969 2.84865 259.261C2.42897 260.975 1.88016 262.658 1.65418 264.405C1.6219 264.761 1.55733 265.084 1.52505 265.44C1.4282 266.152 1.33135 266.864 1.2345 267.608C1.16994 268.028 1.10537 268.449 1.10537 268.869C1.10537 270.261 1.16994 271.652 1.29907 273.043C1.33135 273.528 1.36363 273.981 1.39592 274.467C1.39592 274.79 1.52505 275.049 1.71875 275.308C2.10614 275.793 2.88094 275.825 3.26833 275.34C3.46203 275.114 3.59116 274.822 3.72029 274.564C3.88171 274.24 3.94628 273.884 4.10769 273.561C4.49509 272.687 4.72107 271.749 5.20531 270.908C5.30216 270.746 5.36673 270.552 5.43129 270.39C5.59271 269.775 5.88326 269.225 6.10924 268.643C6.14152 268.546 6.20609 268.481 6.20609 268.384C6.43207 267.511 6.78718 266.702 7.07773 265.828C7.33599 265.019 7.59426 264.178 7.8848 263.369C8.2722 262.334 8.59503 261.267 8.88558 260.199C8.98243 259.843 9.11156 259.455 9.20841 259.099C9.36982 258.646 9.53124 258.193 9.66037 257.74C9.7895 257.255 9.85407 256.77 10.0155 256.284C10.2737 255.572 10.4029 254.796 10.6289 254.084C10.8226 253.534 10.984 252.952 11.1454 252.402C11.4037 251.399 11.8233 250.428 12.0816 249.393C12.1139 249.296 12.1462 249.199 12.1784 249.134C12.2753 248.875 12.3721 248.584 12.4367 248.325C12.695 247.517 12.921 246.675 13.1792 245.867C13.3084 245.446 13.4375 245.025 13.5989 244.605C13.8249 243.925 14.0509 243.246 14.2768 242.534C14.3414 242.372 14.406 242.211 14.4383 242.049C14.6642 240.884 15.2453 239.881 15.5682 238.749C15.5682 238.717 15.5682 238.717 15.6004 238.717C15.665 238.684 15.7619 238.587 15.8264 238.62C15.891 238.62 15.9556 238.749 15.9878 238.814C16.0201 238.911 15.9878 239.008 15.9556 239.105C15.9233 239.299 15.891 239.525 15.8587 239.72C15.8264 240.075 15.8264 240.431 15.7941 240.82C15.7619 241.208 15.7619 241.628 15.8264 242.017C15.9878 243.052 16.6012 243.731 17.602 244.055C18.1185 244.217 18.6028 244.249 19.1193 244.184C19.9587 244.087 20.7334 243.764 21.4437 243.278C21.8634 242.987 22.2507 242.631 22.6381 242.308C22.8964 242.114 23.1224 241.887 23.3807 241.693C23.4452 241.661 23.5098 241.628 23.6066 241.596C23.6066 241.725 23.6066 241.79 23.6066 241.855C23.4129 242.372 23.3484 242.922 23.0255 243.408C22.8964 243.602 22.8318 243.828 22.7673 244.022C22.4122 244.864 22.1539 245.705 21.7342 246.514C21.5082 246.967 21.3145 247.42 21.1208 247.872C20.7657 248.714 20.4429 249.522 20.0878 250.364C19.6358 251.431 19.1839 252.499 18.6996 253.567C18.1831 254.731 17.6988 255.928 17.1823 257.093C16.4075 258.969 15.6327 260.846 14.8579 262.69C14.5351 263.499 14.18 264.308 13.8572 265.117C13.502 266.055 13.1792 266.993 12.8241 267.899C12.6627 268.352 12.5013 268.805 12.3399 269.258C12.0493 270.131 11.8233 271.005 11.5328 271.878C11.21 272.817 11.1777 273.819 10.9194 274.79C10.9194 274.855 10.9194 274.919 10.9194 274.952C10.8226 275.567 10.758 276.149 10.6611 276.764C10.6611 276.861 10.6289 276.99 10.5643 277.087C10.3383 277.508 10.08 277.961 9.82178 278.381C9.72494 278.543 9.5958 278.672 9.46667 278.802C9.27297 279.028 9.07928 279.222 8.88558 279.449C8.14307 280.355 7.43284 281.261 6.62577 282.102C6.04467 282.716 5.46358 283.364 4.88248 284.011C4.43052 284.561 3.88171 284.981 3.36518 285.499C3.01007 285.822 2.68724 286.178 2.33212 286.469C1.75103 286.987 -0.508781 292.358 0.104596 291.905C0.136879 291.872 0.201445 291.84 0.233728 291.775C0.459709 291.29 0.911672 290.966 1.2345 290.546C1.55733 290.093 1.94473 289.672 2.36441 289.252C3.01007 288.572 3.68801 287.893 4.39824 287.214C5.46358 286.211 6.52892 285.175 7.52969 284.108C8.0785 283.558 8.59503 282.975 9.11156 282.393C9.36982 282.102 9.5958 281.811 9.85407 281.519C10.532 280.775 11.2745 280.064 12.0816 279.481C12.243 279.352 12.4367 279.255 12.6304 279.158C13.0501 278.964 13.2438 278.64 13.1469 278.187C13.1147 277.896 13.0501 277.605 12.9532 277.346C12.7918 277.022 12.7918 276.666 12.7918 276.343C12.8241 275.955 12.8564 275.566 12.921 275.211C13.0824 273.949 13.4052 272.752 13.728 271.522C13.954 270.649 14.2123 269.808 14.632 268.999C14.6642 268.902 14.6965 268.805 14.6965 268.74C14.8257 268.287 14.9225 267.802 15.0516 267.349C15.213 266.864 15.439 266.378 15.6004 265.925C16.1815 264.696 16.6012 263.499 17.1823 262.367ZM12.6627 242.502C12.4367 243.214 12.1462 243.958 11.9202 244.67C11.7588 245.187 11.5974 245.737 11.4682 246.255C11.4037 246.546 11.3068 246.805 11.21 247.064C11.1131 247.258 11.0163 247.484 10.9517 247.711C10.7257 248.487 10.4997 249.231 10.2415 250.008C9.91863 251.043 9.5958 252.046 9.27297 253.081C8.95014 254.117 8.69188 255.12 8.36905 256.155C8.14307 256.931 7.8848 257.708 7.62654 258.517C7.33599 259.455 7.04545 260.425 6.72262 261.364C6.52892 262.011 6.27065 262.625 6.07695 263.272C5.72184 264.405 5.30216 265.505 4.97933 266.637C4.94705 266.831 4.88248 266.993 4.78563 267.187C4.43052 267.899 4.17226 268.675 3.88171 269.419C3.81714 269.614 3.72029 269.808 3.65573 270.002C3.55888 270.196 3.46203 270.39 3.23605 270.552C3.04235 270.261 3.01007 269.969 3.01007 269.678C3.04235 268.934 3.07463 268.19 3.20377 267.446C3.30062 266.799 3.3329 266.152 3.39746 265.505C3.46203 265.019 3.49431 264.567 3.59116 264.081C3.65573 263.758 3.75258 263.402 3.84943 263.078C3.91399 262.787 4.01084 262.528 4.07541 262.237C4.30139 261.267 4.49509 260.296 4.72107 259.325C4.8502 258.775 5.0439 258.225 5.20531 257.675C5.43129 256.931 5.65728 256.187 5.91554 255.443C6.04467 255.022 6.20609 254.57 6.39979 254.149C6.72262 253.405 6.98088 252.628 7.23914 251.852C7.33599 251.593 7.43284 251.367 7.56197 251.108C7.85252 250.493 8.11079 249.846 8.40133 249.231C8.49818 249.005 8.62731 248.778 8.75645 248.584C8.91786 248.325 9.04699 248.034 9.07928 247.743C9.11156 247.614 9.17613 247.452 9.24069 247.322C9.49896 246.805 9.7895 246.255 10.0478 245.737C10.08 245.64 10.1446 245.575 10.1769 245.478C10.7257 244.572 11.2745 243.667 11.791 242.793C11.9847 242.502 12.1784 242.211 12.3721 241.92C12.4044 241.887 12.4044 241.855 12.4367 241.822C12.5013 241.79 12.5658 241.79 12.6304 241.79C12.6627 241.79 12.7273 241.887 12.695 241.92C12.7595 242.146 12.7273 242.34 12.6627 242.502Z" fill="#4B4B4B"/>
<path d="M138.667 218.626C130.473 208.22 144.321 174.247 166.533 116.65C188.745 59.0622 214.966 -8.78536 223.159 1.62392C231.355 12.0355 209.969 69.9594 187.759 127.553C165.545 185.149 146.863 229.038 138.667 218.626Z" fill="url(#paint0_linear)"/>
<g opacity="0.3">
<path opacity="0.85" d="M151.212 194.521C151.956 194.527 152.043 197.354 153.027 196.297C161.458 187.238 180.598 138.669 195.231 101.037C211.297 59.7197 225.619 13.2667 220.36 9.08641C219.878 21.2494 204.601 63.7442 190.7 99.4847C176.426 136.198 159.395 185.134 151.212 194.521Z" fill="url(#paint1_linear)"/>
</g>
<path d="M116.543 277.449C116.543 277.449 116.256 270.191 115.91 267.804C115.698 266.327 114.592 261.97 114.592 261.97L114.561 261.715L126.306 235.204L137.575 239.518L129.284 267.353L128.908 267.655C128.908 267.655 125.107 269.923 123.934 270.811C121.954 272.308 116.543 277.449 116.543 277.449Z" fill="url(#paint2_linear)"/>
<path d="M116.321 277.534L125.075 254.678L125.367 254.79L116.612 277.644L116.321 277.534Z" fill="#090909"/>
<path d="M116.438 277.68C116.307 277.63 116.25 277.479 116.3 277.34C116.355 277.197 116.503 277.123 116.633 277.175C116.759 277.22 116.816 277.375 116.764 277.515C116.712 277.655 116.565 277.728 116.438 277.68Z" fill="#1A1A1A"/>
<path d="M124.802 255.806C124.179 255.571 123.872 254.871 124.108 254.249C124.347 253.628 125.046 253.313 125.665 253.55C126.289 253.787 126.599 254.488 126.36 255.113C126.123 255.733 125.426 256.047 124.802 255.806Z" fill="#090909"/>
<path d="M123.142 236.602L124.061 234.204L141.288 240.799L140.371 243.201L123.142 236.602Z" fill="url(#paint3_linear)"/>
<path d="M128.041 222.512L139.131 190.25C139.131 190.25 141.65 193.971 148.707 196.3C154.757 198.295 159.295 197.812 159.295 197.812L146.189 229.57L128.041 222.512Z" fill="url(#paint4_linear)"/>
<path d="M124.033 234.269L127.631 224.875L144.86 231.473L141.263 240.873L124.033 234.269Z" fill="url(#paint5_linear)"/>
<path d="M127.505 225.192L128.424 222.794L145.653 229.397L144.733 231.793L127.505 225.192Z" fill="url(#paint6_linear)"/>
</g>
<defs>
<linearGradient id="paint0_linear" x1="196.137" y1="135.582" x2="158.439" y2="119.547" gradientUnits="userSpaceOnUse">
<stop stop-color="#252525"/>
<stop offset="0.697" stop-color="#262626"/>
<stop offset="0.8364" stop-color="#3C3C3C"/>
<stop offset="1" stop-color="#444444"/>
</linearGradient>
<linearGradient id="paint1_linear" x1="193.686" y1="89.9763" x2="154.125" y2="221.915" gradientUnits="userSpaceOnUse">
<stop/>
<stop offset="0.9946" stop-color="#242424"/>
</linearGradient>
<linearGradient id="paint2_linear" x1="111.046" y1="252.57" x2="129.493" y2="259.248" gradientUnits="userSpaceOnUse">
<stop offset="0.3548" stop-color="#FF9500"/>
<stop offset="0.4709" stop-color="#FFD594"/>
<stop offset="0.4886" stop-color="#FDD28E"/>
<stop offset="0.5113" stop-color="#F6C87E"/>
<stop offset="0.5368" stop-color="#EAB764"/>
<stop offset="0.5643" stop-color="#DAA13F"/>
<stop offset="0.5931" stop-color="#C68410"/>
<stop offset="0.6022" stop-color="#BF7A00"/>
<stop offset="0.7097" stop-color="#AA6800"/>
<stop offset="0.9076" stop-color="#FFDBAA"/>
<stop offset="0.9184" stop-color="#FDD8A4"/>
<stop offset="0.9322" stop-color="#F7D094"/>
<stop offset="0.9477" stop-color="#EDC37A"/>
<stop offset="0.9645" stop-color="#DFB055"/>
<stop offset="0.982" stop-color="#CD9826"/>
<stop offset="0.9946" stop-color="#BF8500"/>
</linearGradient>
<linearGradient id="paint3_linear" x1="111.708" y1="230.417" x2="140.932" y2="242.219" gradientUnits="userSpaceOnUse">
<stop offset="0.3548" stop-color="#FF9500"/>
<stop offset="0.4709" stop-color="#FFD594"/>
<stop offset="0.4886" stop-color="#FDD28E"/>
<stop offset="0.5113" stop-color="#F6C87E"/>
<stop offset="0.5368" stop-color="#EAB764"/>
<stop offset="0.5643" stop-color="#DAA13F"/>
<stop offset="0.5931" stop-color="#C68410"/>
<stop offset="0.6022" stop-color="#BF7A00"/>
<stop offset="0.7097" stop-color="#AA6800"/>
<stop offset="0.9076" stop-color="#FFDBAA"/>
<stop offset="0.9184" stop-color="#FDD8A4"/>
<stop offset="0.9322" stop-color="#F7D094"/>
<stop offset="0.9477" stop-color="#EDC37A"/>
<stop offset="0.9645" stop-color="#DFB055"/>
<stop offset="0.982" stop-color="#CD9826"/>
<stop offset="0.9946" stop-color="#BF8500"/>
</linearGradient>
<linearGradient id="paint4_linear" x1="131.09" y1="204.313" x2="153.191" y2="211.591" gradientUnits="userSpaceOnUse">
<stop stop-color="#3A3A3A"/>
<stop offset="0.697" stop-color="#1D1D1D"/>
<stop offset="0.8364" stop-color="#1C1C1C"/>
<stop offset="1" stop-color="#121212"/>
</linearGradient>
<linearGradient id="paint5_linear" x1="125.123" y1="236.842" x2="143.786" y2="228.935" gradientUnits="userSpaceOnUse">
<stop stop-color="#484848"/>
<stop offset="0.697" stop-color="#2C2C2C"/>
<stop offset="0.8364" stop-color="#161616"/>
<stop offset="1" stop-color="#292727"/>
</linearGradient>
<linearGradient id="paint6_linear" x1="114.419" y1="217.654" x2="146.562" y2="231.632" gradientUnits="userSpaceOnUse">
<stop offset="0.3548" stop-color="#FF9500"/>
<stop offset="0.4709" stop-color="#FFD594"/>
<stop offset="0.4886" stop-color="#FDD28E"/>
<stop offset="0.5113" stop-color="#F6C87E"/>
<stop offset="0.5368" stop-color="#EAB764"/>
<stop offset="0.5643" stop-color="#DAA13F"/>
<stop offset="0.5931" stop-color="#C68410"/>
<stop offset="0.6022" stop-color="#BF7A00"/>
<stop offset="0.7097" stop-color="#AA6800"/>
<stop offset="0.9076" stop-color="#FFDBAA"/>
<stop offset="0.9184" stop-color="#FDD8A4"/>
<stop offset="0.9322" stop-color="#F7D094"/>
<stop offset="0.9477" stop-color="#EDC37A"/>
<stop offset="0.9645" stop-color="#DFB055"/>
<stop offset="0.982" stop-color="#CD9826"/>
<stop offset="0.9946" stop-color="#BF8500"/>
</linearGradient>
<clipPath id="clip0">
<rect width="226" height="309" fill="white"/>
</clipPath>
</defs>
</svg>
