<svg width="34" height="34" viewBox="0 0 34 34" fill="none" xmlns="http://www.w3.org/2000/svg">
<g filter="url(#filter0_d)">
<path d="M24.5656 21.2188L21.6406 19.3063C21.3474 19.1205 20.9938 19.0548 20.6533 19.1229C20.3129 19.191 20.0117 19.3876 19.8125 19.6719C19.1375 20.4876 18.3219 21.8376 15.2562 18.7719C12.1906 15.7063 13.5125 14.8626 14.3281 14.1876C14.6125 13.9883 14.8091 13.6872 14.8772 13.3467C14.9453 13.0063 14.8796 12.6527 14.6937 12.3594L12.7812 9.43443C12.5281 9.0688 12.1906 8.47818 11.4031 8.59068C10.6156 8.70318 8.5625 9.8563 8.5625 12.3876C8.5625 14.9188 10.5594 18.0126 13.2875 20.7407C16.0156 23.4688 19.1094 25.4376 21.6125 25.4376C24.1156 25.4376 25.325 23.1876 25.4094 22.6251C25.4938 22.0626 24.9313 21.4719 24.5656 21.2188Z" stroke="#FFA200" stroke-miterlimit="10" stroke-linecap="round" stroke-linejoin="round"/>
</g>
<defs>
<filter id="filter0_d" x="0" y="0" width="34" height="34" filterUnits="userSpaceOnUse" color-interpolation-filters="sRGB">
<feFlood flood-opacity="0" result="BackgroundImageFix"/>
<feColorMatrix in="SourceAlpha" type="matrix" values="0 0 0 0 0 0 0 0 0 0 0 0 0 0 0 0 0 0 127 0"/>
<feOffset/>
<feGaussianBlur stdDeviation="4"/>
<feColorMatrix type="matrix" values="0 0 0 0 1 0 0 0 0 0.643137 0 0 0 0 0.00784314 0 0 0 0.7 0"/>
<feBlend mode="normal" in2="BackgroundImageFix" result="effect1_dropShadow"/>
<feBlend mode="normal" in="SourceGraphic" in2="effect1_dropShadow" result="shape"/>
</filter>
</defs>
</svg>
