<svg width="10" height="10" viewBox="0 0 10 10" fill="none" xmlns="http://www.w3.org/2000/svg">
<path d="M9.20313 7.34373L7.57812 6.28123C7.4152 6.17799 7.21876 6.14149 7.02962 6.17932C6.84048 6.21715 6.67319 6.32639 6.5625 6.48435C6.1875 6.93748 5.73437 7.68747 4.03125 5.98435C2.32812 4.28123 3.0625 3.81248 3.51562 3.43748C3.67358 3.32678 3.78283 3.15949 3.82065 2.97036C3.85848 2.78122 3.82199 2.58478 3.71875 2.42185L2.65625 0.79685C2.51563 0.593725 2.32813 0.2656 1.89063 0.3281C1.45313 0.3906 0.3125 1.03122 0.3125 2.43747C0.3125 3.84372 1.42187 5.56247 2.9375 7.0781C4.45312 8.59372 6.17188 9.68748 7.5625 9.68748C8.95313 9.68748 9.625 8.43748 9.67188 8.12498C9.71875 7.81248 9.40625 7.48435 9.20313 7.34373Z" stroke="#FFA200" stroke-width="0.5" stroke-miterlimit="10" stroke-linecap="round" stroke-linejoin="round"/>
</svg>
