<svg width="80" height="80" viewBox="0 0 80 80" fill="none" xmlns="http://www.w3.org/2000/svg">
<path d="M40 2.5C26.25 2.5 15 13.75 15 27.5C15 50 40 77.5 40 77.5C40 77.5 65 50 65 27.5C65 13.75 53.75 2.5 40 2.5Z" fill="white"/>
<path d="M49.3503 20.9822C49.3603 20.7835 49.3503 20.5849 49.3304 20.3961C49.2805 20.0386 49.2206 19.681 49.1607 19.3234C49.1508 19.2539 49.1109 19.1943 49.051 19.1645C48.083 18.5884 47.1051 18.0123 46.1371 17.4362C46.0972 17.4064 46.0273 17.3766 46.0573 17.3269C46.0872 17.2772 46.1471 17.317 46.187 17.3269L48.9412 17.9725C48.9811 17.9924 49.021 17.9924 49.061 17.9825C49.041 17.9427 49.0011 17.9229 48.9612 17.903C47.4943 16.9793 46.0273 16.0555 44.5604 15.1318C44.4906 15.0821 44.4107 15.0722 44.3309 15.102C42.9438 15.5589 41.5568 16.0158 40.1697 16.4826C40.0699 16.5124 39.9701 16.5124 39.8803 16.4826C38.4932 16.0257 37.1061 15.5688 35.719 15.102C35.6392 15.0722 35.5594 15.0821 35.4895 15.1318C34.0226 16.0555 32.5557 16.9793 31.0888 17.903C31.0489 17.9229 31.009 17.9527 30.979 17.9825C31.009 17.9924 31.0489 17.9825 31.0788 17.9725L33.0746 17.5057L33.8929 17.307C33.9228 17.2971 33.9627 17.2872 33.9727 17.317C33.9827 17.3468 33.9627 17.3865 33.9328 17.3964L33.8829 17.4262C32.9449 17.9825 31.9969 18.5486 31.0489 19.1049C30.9391 19.1545 30.8593 19.2638 30.8393 19.3929C30.7595 19.9194 30.6497 20.4458 30.6597 20.9921C30.6697 21.4788 30.6497 21.9655 30.7495 22.4522C30.8094 22.7303 30.8293 23.0184 30.8992 23.3064C31.009 23.7137 31.1487 24.1011 31.3283 24.4785C31.468 24.7864 31.6177 25.0745 31.7973 25.3625C31.8173 25.3923 31.8272 25.4321 31.8771 25.4519C31.917 25.4221 31.947 25.3824 31.9669 25.3427L32.9549 23.9521C32.9848 23.9123 33.0048 23.8627 33.0646 23.8726C33.1245 23.8925 33.1245 23.9521 33.1245 24.0017V24.0514C33.1145 24.3693 33.0946 24.6871 33.0846 25.0049C33.0646 25.6605 33.0347 26.326 33.0147 26.9816C33.0147 27.0412 33.0347 27.0908 33.0746 27.1306C33.843 27.9053 34.6114 28.6801 35.3897 29.4548C35.4097 29.4747 35.4197 29.5045 35.4696 29.4946C35.5594 29.3456 35.6492 29.1867 35.749 29.0377C35.8388 28.8887 35.9286 28.7297 36.0284 28.5907L36.0583 28.6006V30.0508C36.0483 30.1402 36.0883 30.2296 36.1581 30.2892C37.4155 31.4613 38.6628 32.6433 39.9202 33.8153C39.9402 33.8451 39.9801 33.8749 40.01 33.8849L40.0699 33.8352C41.3372 32.6433 42.6045 31.4513 43.8819 30.2594C43.9318 30.2097 43.9617 30.1501 43.9617 30.0806V28.69C43.9617 28.6602 43.9417 28.6205 43.9916 28.5907L44.5505 29.5144C44.5904 29.4946 44.6203 29.4747 44.6403 29.4449C45.4086 28.6801 46.167 27.9053 46.9354 27.1405C46.9853 27.1008 47.0053 27.0412 46.9953 26.9816C46.9753 26.5644 46.9654 26.1373 46.9454 25.7201C46.9255 25.1539 46.9055 24.5977 46.8855 24.0315C46.8855 23.9719 46.8756 23.9024 46.9454 23.8726C47.0153 23.8428 47.0352 23.9223 47.0751 23.962C47.4044 24.4189 47.7338 24.8758 48.0631 25.3427C48.093 25.3824 48.1229 25.4122 48.1429 25.4519C48.1728 25.4321 48.2028 25.4023 48.2127 25.3625C48.3924 25.0844 48.542 24.7864 48.6818 24.4884C48.8614 24.111 49.0011 23.7137 49.1109 23.3064C49.1807 23.0184 49.2106 22.7303 49.2605 22.4423C49.2905 22.2734 49.3204 22.0946 49.3304 21.9258C49.3603 21.6079 49.3503 21.3 49.3503 20.9822ZM41.1376 28.3225C41.1177 28.3225 41.1077 28.3026 41.0778 28.2728C41.0079 28.1834 40.948 28.094 40.8782 27.9947C40.7884 28.0742 40.7085 28.1636 40.6287 28.2629C40.499 28.4119 40.3693 28.5708 40.2395 28.7198C40.2395 28.7297 40.2295 28.7297 40.2196 28.7397C40.2096 28.7496 40.2096 28.7496 40.1996 28.7595C40.1896 28.7695 40.1797 28.7695 40.1697 28.7794C40.1597 28.7794 40.1497 28.7893 40.1298 28.7893C40.1198 28.7893 40.1198 28.7893 40.1098 28.7893H40.0998C39.9901 28.7893 39.8803 28.7794 39.7705 28.7893C39.7106 28.7893 39.6508 28.7695 39.6109 28.7198C39.4312 28.5013 39.2416 28.2828 39.062 28.0742C39.042 28.0543 39.0221 28.0245 39.0021 28.0046C38.8924 28.1139 38.8225 28.243 38.7327 28.3622C38.613 28.243 38.4832 28.1238 38.3735 27.9947C38.3435 27.9649 38.3335 27.9252 38.3335 27.8855V27.4087C38.3335 27.369 38.3535 27.3292 38.3834 27.3193C38.3834 27.3193 38.3934 27.3193 38.3934 27.3094C38.8724 27.0412 39.3614 26.7829 39.8404 26.5147C39.8603 26.5048 39.8803 26.4949 39.9002 26.4849C39.9202 26.4849 39.9302 26.4849 39.9501 26.4849C39.9701 26.4849 40 26.4949 40.02 26.5147C40.499 26.7829 40.968 27.0412 41.447 27.2994C41.4969 27.3193 41.5268 27.369 41.5168 27.4186V27.8656C41.5168 27.9252 41.4969 27.9848 41.447 28.0245C41.3572 28.1139 41.2773 28.1934 41.1875 28.2828C41.1776 28.2927 41.1576 28.3126 41.1376 28.3225C41.1376 28.3225 41.1476 28.3225 41.1376 28.3225ZM44.6403 21.9059C44.5505 22.0648 44.4706 22.2238 44.3908 22.3827C44.3609 22.4324 44.3209 22.4721 44.281 22.5118C43.8819 22.8297 43.4927 23.1475 43.0935 23.4654C43.0336 23.5051 43.0037 23.5746 43.0037 23.6442C43.0037 23.9024 43.0536 24.1507 43.0736 24.409C43.0835 24.5878 43.1334 24.7666 43.1833 24.9354C43.1833 24.9354 43.1833 24.9354 43.1833 24.9454C43.2033 25.0149 43.2232 25.0844 43.2432 25.1539C43.2532 25.1937 43.2632 25.2334 43.2731 25.2632C43.2931 25.3625 43.3031 25.3625 43.2033 25.3824L42.2353 25.591C42.1655 25.6009 42.1555 25.6307 42.1655 25.7002C42.1655 25.7102 42.1655 25.7201 42.1755 25.73C42.1854 25.74 42.1954 25.7499 42.2154 25.7499H42.2852L43.1534 25.7598C43.1833 25.7598 43.2033 25.7598 43.2332 25.7698C43.2632 25.7797 43.2931 25.7996 43.3031 25.8294L43.3131 25.8393C43.3131 25.8492 43.323 25.8492 43.323 25.8592C43.333 25.8989 43.333 25.9386 43.323 25.9684C43.2931 26.1174 43.2232 26.2565 43.1235 26.3657C43.0835 26.4055 43.0336 26.4353 42.9738 26.4353C42.6844 26.4353 42.405 26.3757 42.1455 26.2565L42.1056 26.2366C42.0657 26.2168 42.0158 26.1969 42.0058 26.2366C41.9859 26.2664 41.9859 26.2962 41.9958 26.326C41.9958 26.326 41.9958 26.3359 42.0058 26.3359C42.0058 26.3459 42.0158 26.3558 42.0258 26.3558C42.1056 26.4253 42.1755 26.5147 42.3052 26.5147C42.3251 26.5147 42.3651 26.5445 42.395 26.5743C42.4149 26.5942 42.4249 26.6141 42.4449 26.6339C42.4449 26.6339 42.4449 26.6339 42.4449 26.6439C42.4549 26.6538 42.4549 26.6737 42.4549 26.6836C42.4349 26.7631 42.3651 26.8326 42.2852 26.8524H41.7264C41.6765 26.8524 41.6266 26.8326 41.5967 26.7829C41.5468 26.7134 41.4669 26.6737 41.3771 26.6836C41.3173 26.6836 41.2674 26.6737 41.2175 26.6339C41.0877 26.5545 40.958 26.4651 40.8283 26.3856C40.7185 26.3061 40.6088 26.2167 40.509 26.1174C40.4391 26.0578 40.3792 25.9982 40.3194 25.9386C40.2994 25.9287 40.2894 25.9088 40.2794 25.8989C40.2595 25.8691 40.2595 25.8393 40.2794 25.7996C40.3194 25.7002 40.3593 25.591 40.3892 25.4917C40.4092 25.4519 40.4291 25.4122 40.4591 25.3824C40.5389 25.293 40.6087 25.2135 40.6786 25.1241C40.7185 25.0745 40.7684 25.0347 40.8183 25.0049C41.1975 24.7964 41.5767 24.5778 41.9559 24.3693C41.9759 24.3494 41.9958 24.3395 42.0258 24.3295C42.0657 24.3196 42.0856 24.2799 42.0757 24.2401C42.0757 24.2302 42.0757 24.2203 42.0757 24.2203V24.2103C42.0657 24.1905 42.0357 24.1905 42.0158 24.1805C41.896 24.1408 41.7663 24.111 41.6466 24.111C41.427 24.1011 41.1975 24.1408 41.0079 24.2501C40.6986 24.409 40.3792 24.558 40.0599 24.707C39.9901 24.7467 39.9102 24.7467 39.8503 24.707C39.4512 24.5182 39.062 24.3295 38.6628 24.1408C38.6429 24.1209 38.613 24.1209 38.593 24.111C38.3635 24.1209 38.124 24.0713 37.8945 24.1706C37.8645 24.1805 37.8246 24.1805 37.8246 24.2302C37.8246 24.2501 37.8246 24.26 37.8346 24.2799C37.8346 24.2799 37.8346 24.2799 37.8346 24.2898C37.8446 24.3097 37.8645 24.3196 37.8845 24.3295C38.1539 24.4785 38.4134 24.6275 38.6828 24.7765C38.8026 24.846 38.9223 24.9156 39.042 24.9752C39.1618 25.0347 39.2217 25.1341 39.3115 25.2135C39.3614 25.2632 39.4113 25.3228 39.4412 25.3725C39.4911 25.4519 39.531 25.5413 39.561 25.6307C39.5809 25.6804 39.6009 25.74 39.6208 25.7896C39.6408 25.8294 39.6308 25.879 39.5909 25.9088C39.3813 26.0976 39.1917 26.3061 38.9323 26.4551C38.8624 26.4949 38.7926 26.5346 38.7327 26.5843C38.6529 26.6538 38.5531 26.6836 38.4533 26.6737C38.3934 26.6637 38.3535 26.7035 38.3236 26.7432C38.2737 26.8028 38.1938 26.8425 38.114 26.8326H37.6151C37.5452 26.8226 37.4953 26.7829 37.4654 26.7233C37.4654 26.7134 37.4554 26.7035 37.4554 26.6935C37.4554 26.6836 37.4454 26.6737 37.4454 26.6637C37.4654 26.5843 37.5252 26.5147 37.6051 26.4949C37.7248 26.4949 37.7947 26.3955 37.8745 26.326C37.8945 26.3061 37.9044 26.2763 37.8945 26.2465C37.8945 26.2465 37.8945 26.2366 37.8845 26.2366V26.2267L37.8745 26.2167C37.8446 26.1869 37.8047 26.1969 37.7747 26.2167C37.6151 26.3161 37.4354 26.326 37.2658 26.3757C37.1361 26.4055 37.0063 26.4154 36.8766 26.4055C36.8467 26.4055 36.8167 26.3955 36.7968 26.3757C36.7569 26.3359 36.7169 26.2863 36.687 26.2465C36.6571 26.2068 36.6371 26.1572 36.6172 26.1075C36.6172 26.0976 36.6072 26.0777 36.6072 26.0678V26.0578C36.5972 26.038 36.5972 26.0181 36.5872 25.9982C36.5872 25.9982 36.5872 25.9982 36.5872 25.9883C36.5872 25.9784 36.5772 25.9684 36.5772 25.9585C36.5673 25.9287 36.5573 25.8989 36.5673 25.8691C36.5772 25.7797 36.6571 25.7201 36.7469 25.74C37.0462 25.73 37.3456 25.73 37.645 25.73C37.7049 25.73 37.7248 25.7102 37.7248 25.6506C37.7248 25.6406 37.7248 25.6208 37.7148 25.6208V25.6108C37.7049 25.591 37.6849 25.5811 37.655 25.5811C37.3556 25.5215 37.0662 25.4619 36.7668 25.3923L36.677 25.3725C36.6271 25.3625 36.6072 25.3526 36.6072 25.3327C36.6072 25.3228 36.6072 25.3029 36.6172 25.2632C36.6471 25.1539 36.667 25.0447 36.707 24.9454C36.7768 24.707 36.8267 24.4586 36.8467 24.2004C36.8766 24.0117 36.8966 23.8229 36.8966 23.6243C36.8966 23.6044 36.8966 23.5945 36.8966 23.5746C36.8966 23.5647 36.8966 23.5548 36.8866 23.5448C36.8866 23.5349 36.8766 23.525 36.8666 23.515C36.8566 23.4952 36.8367 23.4852 36.8167 23.4654C36.4176 23.1475 36.0184 22.8297 35.6193 22.5019C35.5793 22.4721 35.5394 22.4324 35.5095 22.3926C35.5095 22.3926 35.5095 22.3926 35.5095 22.3827C35.4696 22.3032 35.4297 22.2238 35.3897 22.1443C35.3498 22.0648 35.3099 21.9854 35.26 21.896C35.26 21.8861 35.25 21.8861 35.25 21.8761V21.8662C35.2401 21.8265 35.25 21.7867 35.2899 21.7569C35.4995 21.5384 35.7091 21.3199 35.9186 21.1113C36.0284 21.0219 36.1481 20.9325 36.2679 20.863C36.2978 20.853 36.3278 20.8431 36.3577 20.8431C36.5273 20.8332 36.697 20.863 36.8566 20.9325C36.8866 20.9424 36.9165 20.9623 36.9365 20.9921C36.9365 21.002 36.9465 21.012 36.9465 21.0219C36.9465 21.0318 36.9564 21.0418 36.9564 21.0517C36.9864 21.1808 37.0163 21.31 37.0462 21.4291C37.0462 21.449 37.0562 21.4589 37.0562 21.4689C37.0562 21.4788 37.0662 21.4887 37.0762 21.5086C37.0961 21.5384 37.1061 21.5583 37.1361 21.5781C37.2758 21.7073 37.4055 21.8364 37.5352 21.9755C37.5751 22.0251 37.645 22.0549 37.7049 22.045H38.0841C38.134 22.045 38.1539 22.045 38.1739 22.0549C38.1938 22.0648 38.1938 22.0946 38.1938 22.1443V22.7502C38.1938 22.7999 38.2038 22.8396 38.2238 22.8793C38.2238 22.8893 38.2337 22.8992 38.2437 22.9091C38.3236 23.0482 38.3934 23.1873 38.4633 23.3263C38.4633 23.3263 38.4633 23.3263 38.4633 23.3362C38.5032 23.3958 38.583 23.4256 38.6529 23.3958C38.6828 23.376 38.6728 23.3462 38.6728 23.3263V23.0383C38.6728 22.8098 38.6828 22.5814 38.6728 22.3529C38.6628 22.2635 38.7028 22.1741 38.7726 22.1145C38.9023 22.0053 39.0321 21.8861 39.1418 21.7669C39.2815 21.6179 39.3913 21.4391 39.3813 21.2206V21.012L39.3514 21.002C39.2716 21.0914 39.2017 21.1908 39.1418 21.2901C39.062 21.3894 38.9822 21.4788 38.9123 21.5881C38.8724 21.6477 38.8026 21.6775 38.7327 21.6675C38.613 21.6576 38.573 21.6477 38.5531 21.5881C38.5431 21.5583 38.5331 21.5285 38.5231 21.4788C38.4932 21.3497 38.4633 21.2206 38.4333 21.1014C38.4333 21.0815 38.4234 21.0616 38.4134 21.0517C38.4034 21.0318 38.3834 21.012 38.3635 21.002C37.9244 20.7736 37.4953 20.5451 37.0562 20.3167C36.8566 20.2173 36.6571 20.1081 36.4575 20.0088C36.4276 19.9988 36.4076 19.979 36.3976 19.9492C36.3876 19.9293 36.3876 19.9194 36.3876 19.8995V18.9559C36.3876 18.9062 36.4076 18.8665 36.4475 18.8367C36.9564 18.4394 37.4654 18.052 37.9743 17.6547C38.0242 17.605 38.094 17.605 38.1539 17.6348C38.5431 17.8434 38.9323 18.052 39.3314 18.2606C39.521 18.3599 39.7007 18.4592 39.8903 18.5586C39.9402 18.5884 40.02 18.5884 40.0699 18.5586C40.3293 18.4195 40.5988 18.2805 40.8582 18.1414C41.1776 17.9725 41.4969 17.8037 41.8062 17.6348C41.8561 17.605 41.926 17.605 41.9659 17.6547C42.4748 18.052 42.9838 18.4493 43.4927 18.8367C43.5126 18.8466 43.5226 18.8665 43.5326 18.8764C43.5426 18.8864 43.5426 18.8963 43.5526 18.9062C43.5625 18.936 43.5725 18.9559 43.5625 18.9857C43.5625 19.2837 43.5625 19.5717 43.5625 19.8697C43.5725 19.9392 43.5326 19.9988 43.4627 20.0286C42.844 20.3465 42.2154 20.6743 41.5967 21.002C41.5568 21.0219 41.5268 21.0616 41.5168 21.1113C41.4769 21.2702 41.437 21.4291 41.4071 21.598C41.4071 21.6377 41.3672 21.6675 41.3272 21.6675C41.0977 21.6973 41.0977 21.6973 40.958 21.5086C40.8482 21.3696 40.7385 21.2206 40.6287 21.0815C40.6187 21.0616 40.6088 21.0318 40.5589 21.0418C40.5589 21.2206 40.5389 21.3894 40.6187 21.5583C40.6287 21.5881 40.6487 21.6079 40.6686 21.6377C40.6786 21.6576 40.6986 21.6874 40.7185 21.7073C40.8283 21.8563 40.968 21.9755 41.1077 22.1046L41.1177 22.1145C41.1576 22.1344 41.1875 22.1642 41.2175 22.2039C41.2274 22.2138 41.2374 22.2337 41.2374 22.2436C41.2474 22.2536 41.2474 22.2635 41.2574 22.2834C41.2773 22.343 41.2873 22.4026 41.2873 22.4622C41.2773 22.7601 41.2873 23.0581 41.2873 23.3561C41.2873 23.376 41.2773 23.4058 41.2873 23.4256C41.2873 23.4356 41.3073 23.4455 41.3272 23.4455C41.3871 23.4455 41.447 23.4753 41.4869 23.3958C41.5667 23.2369 41.6565 23.0681 41.7464 22.9091C41.7663 22.8694 41.7663 22.8297 41.7663 22.7899V22.184C41.7663 22.0748 41.7663 22.0748 41.8761 22.0748H42.2752C42.3152 22.0748 42.3651 22.0648 42.395 22.035C42.5547 21.8761 42.7043 21.7073 42.874 21.5682C42.9039 21.5483 42.9039 21.5185 42.9039 21.4887C42.9339 21.3497 42.9738 21.2106 43.0037 21.0716C43.0137 21.0418 43.0137 21.002 43.0536 20.9921C43.1734 20.9424 43.2931 20.9126 43.4128 20.8828C43.6623 20.8431 43.8419 20.9921 44.0116 21.1312C44.2411 21.3398 44.4507 21.5781 44.6702 21.8066C44.6702 21.8066 44.6802 21.8165 44.6802 21.8265L44.6902 21.8364C44.6602 21.8463 44.6602 21.8761 44.6403 21.9059Z" fill="#22201C"/>
<path d="M39.2616 41.4441L36.0882 46.917H36.0683H36.0583C36.0483 46.8972 36.0284 46.8773 36.0184 46.8575L32.875 41.4639C32.9748 41.4242 38.9821 41.4143 39.2616 41.4441ZM43.2132 47.364L40.0599 41.9407C40.0499 41.9308 40.0399 41.9109 40.0299 41.901H40.02H40L36.8267 47.374C37.156 47.4038 43.1134 47.3938 43.2132 47.364ZM43.9716 46.9468L47.1649 41.4342H40.7684L43.9716 46.9468ZM43.2132 48.2282H36.8267L40.0299 53.7309L43.2132 48.2282Z" fill="#FFAE01"/>
<path d="M48.6518 26.9422L51.8351 21.4395L55.0284 26.9323C54.9286 26.9621 48.9711 26.972 48.6518 26.9422ZM24.2033 40.1528L27.3965 34.6401H21L24.2033 40.1528ZM55.8067 40.1528L59 34.6401H52.6035L55.8067 40.1528ZM31.3382 40.5601L28.145 35.0672L24.9617 40.57C25.291 40.5998 31.2384 40.5899 31.3382 40.5601ZM28.135 21.4693C28.0152 21.6282 24.9916 26.8628 24.9716 26.9522H31.3183C31.2784 26.833 28.2148 21.5586 28.135 21.4693ZM35.2899 34.6401H28.9034L32.1066 40.1528L35.2899 34.6401ZM44.7001 34.6401L47.9034 40.1528L51.0966 34.6401H44.7001ZM48.6618 40.5799H55.0583L51.855 35.0672L48.6618 40.5799ZM31.3382 27.8064H24.9517L28.1549 33.3091L31.3382 27.8064ZM55.0383 27.8064H48.6518L51.855 33.3091L55.0383 27.8064ZM24.1933 28.2235L21 33.7362H27.3866L24.1933 28.2235ZM35.2899 33.7263L32.0867 28.2235L28.9034 33.7263H35.2899ZM44.7001 33.7263H51.0867L47.8834 28.2235L44.7001 33.7263ZM58.99 33.7263L55.7868 28.2235L52.6035 33.7263H58.99ZM36.8167 34.6004L40.02 40.1032L43.2033 34.6004H36.8167ZM39.2416 40.5303C39.1817 40.3813 36.1182 35.107 36.0483 35.0474L32.875 40.5303H39.2416ZM43.9617 35.0275L40.7784 40.5303H47.1649L43.9617 35.0275Z" fill="#22201C"/>
<path d="M32.875 10.6023C33.1045 10.6321 33.2842 10.6718 33.4338 10.6917C33.853 10.7513 34.1623 10.8208 34.2521 10.8407C34.4018 10.8705 34.5216 10.9003 34.6912 10.94C35.2899 11.0989 35.4795 11.2181 35.4795 11.2181C35.5095 11.2281 35.5394 11.238 35.5693 11.2678C35.5893 11.2876 35.6093 11.3174 35.6093 11.3472C35.6093 11.3671 35.5993 11.387 35.5893 11.4068C35.5594 11.4366 35.5294 11.4565 35.4895 11.4565C35.4396 11.4764 35.3897 11.5062 35.3498 11.536C35.2101 11.6452 35.1602 11.834 35.2301 11.9929C35.3099 12.1419 35.4097 12.2909 35.5294 12.4101C35.6592 12.559 35.7989 12.6484 36.0084 12.6087C36.0982 12.5888 36.198 12.6286 36.2878 12.559C36.4275 12.4498 36.5573 12.3505 36.6171 12.1816C36.667 12.0326 36.697 11.8737 36.697 11.7048C36.687 11.1784 36.697 10.642 36.707 10.1156C36.7568 10.2844 36.8167 10.4434 36.8467 10.6122C36.8966 10.8208 36.9764 11.0195 37.0762 11.2082C37.156 11.3572 37.2358 11.5062 37.3356 11.6552C37.4055 11.7545 37.4853 11.8439 37.5751 11.9333C37.8146 12.1717 38.1639 12.2611 38.4932 12.1617C38.5431 12.1518 38.593 12.122 38.6329 12.0922C38.8325 11.9333 38.9622 11.7048 38.9921 11.4466C39.0221 11.2876 38.9422 11.1387 38.8025 11.0592C38.7327 11.0195 38.6529 10.9897 38.573 10.9698C38.5231 10.9599 38.4732 10.9499 38.4233 10.9301C38.3934 10.9201 38.3535 10.9102 38.3435 10.8705C38.3335 10.8307 38.3734 10.8009 38.4034 10.7811C38.8924 10.4831 39.2117 10.0361 39.5011 9.55934C39.6308 9.36069 39.7306 9.14216 39.8204 8.92364C39.8903 8.74485 39.9501 8.55613 39.9801 8.37734C39.9801 8.32768 39.99 8.27801 40.01 8.23828C40.0399 8.23828 40.0499 8.25815 40.0499 8.27801C40.0998 8.59586 40.1996 8.91371 40.3393 9.20176C40.5688 9.6686 40.8682 10.1056 41.2274 10.4732C41.3272 10.5725 41.447 10.6619 41.5667 10.7413C41.5867 10.7513 41.6066 10.7612 41.6266 10.7811C41.6665 10.8009 41.7064 10.8208 41.6965 10.8705C41.6865 10.9201 41.6366 10.9301 41.5967 10.94C41.4869 10.9698 41.3871 10.9996 41.2873 11.0393C41.1376 11.089 41.0279 11.228 41.0378 11.387C41.0378 11.526 41.0778 11.675 41.1476 11.7942C41.2175 11.9035 41.2973 12.0028 41.3971 12.0823C41.5168 12.1617 41.6565 12.2015 41.7962 12.1915C42.0058 12.2015 42.2054 12.1319 42.375 12.0028C42.5447 11.8637 42.6943 11.6949 42.7941 11.5062C42.9239 11.2976 43.0336 11.0791 43.1135 10.8506C43.1733 10.6619 43.2232 10.4732 43.2731 10.2844C43.2831 10.2447 43.3031 10.205 43.313 10.1454C43.333 10.205 43.333 10.2646 43.323 10.3242C43.323 10.8407 43.313 11.3572 43.333 11.8737C43.333 12.1319 43.4627 12.3803 43.6723 12.5392C43.7421 12.5988 43.832 12.6286 43.9118 12.6186C44.0216 12.6186 44.1213 12.6186 44.2311 12.6186C44.291 12.6186 44.3409 12.5988 44.3808 12.559C44.5205 12.42 44.6403 12.2809 44.76 12.122C44.8897 11.9233 44.8398 11.6552 44.6502 11.526C44.6403 11.5161 44.6303 11.5161 44.6203 11.5062C44.5704 11.4764 44.5205 11.4565 44.4706 11.4267C44.3908 11.377 44.3908 11.3274 44.4606 11.2678C44.5105 11.2281 44.5704 11.1983 44.6403 11.1784C45.0294 11.0294 45.4286 10.9102 45.8377 10.8307C46.2568 10.7413 46.676 10.6917 47.0951 10.6222C47.125 10.6222 47.155 10.6222 47.1849 10.6222C47.0751 10.6718 46.9654 10.7314 46.8656 10.8009C46.5562 11.0095 46.3267 11.2876 46.0972 11.5658C45.8377 11.8935 45.5982 12.2313 45.3987 12.5988C45.229 12.8868 45.0793 13.1848 44.9396 13.5027C44.7999 13.8304 44.6602 14.1682 44.5005 14.486C44.4706 14.5456 44.4207 14.5853 44.3608 14.6052C42.9538 15.0522 41.5468 15.4892 40.1397 15.9362C40.0599 15.966 39.9701 15.9561 39.8803 15.9263C38.4832 15.4793 37.0862 15.0422 35.6891 14.6052C35.6192 14.5853 35.5693 14.5357 35.5394 14.4761C35.3797 14.1582 35.24 13.8304 35.1003 13.4927C34.9606 13.155 34.801 12.8769 34.6413 12.5789C34.5814 12.4796 34.5216 12.3803 34.4617 12.271C34.2122 11.8637 33.9228 11.4863 33.5935 11.1387C33.3839 10.94 33.1544 10.7612 32.905 10.6321C32.905 10.6321 32.8451 10.6023 32.8451 10.5924C32.8251 10.5924 32.8551 10.5924 32.875 10.6023Z" fill="#FEAD00"/>
<path d="M43.4927 10.9502C43.4927 11.2481 43.4827 11.5362 43.4927 11.8342C43.4927 12.0229 43.5725 12.2017 43.7122 12.3209C43.7621 12.3705 43.832 12.4003 43.9018 12.4003C43.9517 12.3904 44.0116 12.3904 44.0615 12.4003C44.1613 12.4103 44.2611 12.3705 44.311 12.2911C44.3908 12.1918 44.4706 12.0924 44.5405 11.9931C44.6203 11.9037 44.6003 11.7646 44.5105 11.6852C44.4906 11.6752 44.4706 11.6554 44.4507 11.6554C44.3908 11.6256 44.3409 11.5958 44.291 11.566C44.1613 11.4865 44.1313 11.3276 44.2012 11.1985C44.2211 11.1687 44.2411 11.1488 44.2611 11.1289C44.3409 11.0594 44.4307 11.0097 44.5405 10.98C44.9097 10.8409 45.2989 10.7217 45.6881 10.6422C46.1571 10.5429 46.6261 10.4734 47.0951 10.4138C47.145 10.4138 47.1949 10.4138 47.2348 10.4237C47.3146 10.4436 47.3645 10.5032 47.3745 10.5826C47.3845 10.6621 47.3545 10.7316 47.2847 10.7714C47.2747 10.7813 47.2548 10.7912 47.2348 10.7912C46.9454 10.9104 46.686 11.1091 46.4764 11.3475C46.0972 11.7646 45.7779 12.2215 45.4985 12.7083C45.2889 13.0857 45.0893 13.483 44.9297 13.8903C44.8299 14.1187 44.74 14.3571 44.6203 14.5856C44.5804 14.6849 44.4906 14.7544 44.3908 14.7842C42.9937 15.2213 41.5867 15.6682 40.1896 16.1152C40.0599 16.1549 39.9202 16.1549 39.7905 16.1152C38.3934 15.6682 36.9964 15.2213 35.5893 14.7842C35.4795 14.7544 35.3997 14.6849 35.3498 14.5756C35.1802 14.2478 35.0405 13.9002 34.9008 13.5625C34.771 13.2446 34.6014 12.9566 34.4417 12.6685C34.3918 12.5791 34.3419 12.4997 34.2821 12.4103C34.0027 11.9434 33.6634 11.5163 33.2742 11.1389C33.1245 10.9998 32.9549 10.8806 32.7553 10.8111C32.7353 10.8012 32.7154 10.7912 32.6954 10.7813C32.6256 10.7416 32.5856 10.6621 32.6056 10.5826C32.6156 10.5032 32.6755 10.4436 32.7453 10.4336C32.8451 10.4138 32.9449 10.4138 33.0447 10.4436C33.6035 10.533 34.1623 10.6124 34.7112 10.7515C35.0006 10.831 35.2899 10.9303 35.5694 11.0495C35.6392 11.0693 35.7091 11.1091 35.7689 11.1687C35.8588 11.268 35.8488 11.417 35.759 11.5163C35.7091 11.566 35.6492 11.6057 35.5893 11.6355C35.3997 11.7249 35.3798 11.8143 35.4796 11.9931C35.5694 12.1421 35.6791 12.2712 35.8089 12.3805C35.8288 12.4003 35.8588 12.4103 35.8887 12.4103C35.9286 12.4103 35.9585 12.4103 35.9985 12.4103C36.0783 12.4003 36.1481 12.4301 36.228 12.3705C36.3278 12.301 36.4076 12.2017 36.4575 12.0825C36.4974 11.9633 36.5174 11.8242 36.5273 11.6951C36.5174 11.2779 36.5273 10.8608 36.5273 10.4436C36.5273 10.3343 36.5273 10.235 36.5174 10.1257C36.5074 10.0661 36.5174 10.0065 36.5373 9.94694C36.5573 9.85755 36.6271 9.78802 36.7169 9.78802C36.8068 9.78802 36.8766 9.84761 36.8966 9.93701C36.9465 10.1257 37.0063 10.3045 37.0463 10.4932C37.0862 10.6919 37.156 10.8806 37.2558 11.0594C37.3656 11.3077 37.5153 11.5461 37.7049 11.7448C37.8745 11.9236 38.124 12.003 38.3635 11.9633C38.4433 11.9534 38.5132 11.9236 38.573 11.864C38.7028 11.7448 38.7826 11.5958 38.8026 11.417C38.8125 11.2978 38.8026 11.2481 38.6928 11.1885C38.603 11.1389 38.5032 11.1091 38.4034 11.0892C38.3535 11.0793 38.3036 11.0594 38.2537 11.0296C38.134 10.9601 38.104 10.8012 38.1739 10.6919C38.1839 10.682 38.1938 10.672 38.2038 10.6522C38.2337 10.6224 38.2637 10.5926 38.3036 10.5727C38.4832 10.4634 38.6429 10.3343 38.7826 10.1853C39.1518 9.77808 39.4512 9.30131 39.6508 8.78481C39.7306 8.60602 39.7805 8.41729 39.8005 8.22857C39.8005 8.15904 39.8304 8.08951 39.8903 8.04978C39.9801 7.97032 40.1198 7.99018 40.1996 8.07958C40.2196 8.10938 40.2395 8.14911 40.2495 8.17891C40.3693 8.95366 40.7584 9.57943 41.2574 10.1655C41.3971 10.3343 41.5667 10.4734 41.7563 10.5926C41.7763 10.6025 41.7863 10.6124 41.7962 10.6224C41.8761 10.682 41.916 10.7813 41.906 10.8806C41.8861 10.98 41.8162 11.0495 41.7264 11.0793C41.6665 11.0991 41.6066 11.1091 41.5468 11.1289C41.4869 11.1488 41.417 11.1687 41.3672 11.1985C41.2773 11.2283 41.2175 11.3276 41.2474 11.417C41.2773 11.6057 41.3771 11.7845 41.5268 11.9037C41.5667 11.9335 41.6066 11.9534 41.6565 11.9534C41.896 12.003 42.1455 11.9335 42.3251 11.7646C42.4349 11.6653 42.5247 11.5561 42.5946 11.4269C42.7742 11.1389 42.9139 10.821 43.0037 10.4932C43.0436 10.3145 43.1035 10.1257 43.1534 9.94694C43.1733 9.84761 43.2532 9.77808 43.353 9.78802C43.4428 9.79795 43.5126 9.85755 43.5326 9.94694C43.5426 9.98667 43.5426 10.0363 43.5426 10.0761C43.5027 10.3741 43.5027 10.9502 43.4927 10.9502ZM32.8551 10.6025C32.8651 10.6124 33.3939 10.9303 33.5835 11.1389C33.9128 11.4865 34.2022 11.864 34.4517 12.2712C34.5116 12.3705 34.5814 12.4699 34.6313 12.5791C34.791 12.8771 34.9606 13.1751 35.0904 13.4929C35.2201 13.8108 35.3698 14.1584 35.5294 14.4763C35.5594 14.5359 35.6093 14.5856 35.6791 14.6054C37.0762 15.0425 38.4633 15.4894 39.8603 15.9265C39.9402 15.9563 40.03 15.9563 40.1198 15.9364C41.5168 15.4894 42.9239 15.0425 44.3209 14.6054C44.3808 14.5856 44.4407 14.5458 44.4606 14.4862C44.6203 14.1684 44.76 13.8406 44.8997 13.5029C45.0294 13.195 45.1891 12.897 45.3587 12.599C45.5583 12.2315 45.7878 11.8838 46.0473 11.566C46.2768 11.2879 46.5063 11.0097 46.8157 10.8012C46.9155 10.7316 47.0252 10.672 47.135 10.6224C47.1051 10.6224 47.0751 10.6224 47.0452 10.6224C46.6261 10.6919 46.207 10.7416 45.7878 10.831C45.3787 10.9104 44.9795 11.0296 44.5904 11.1786C44.5305 11.1985 44.4706 11.2283 44.4107 11.268C44.3409 11.3276 44.3409 11.3773 44.4207 11.4269C44.4706 11.4567 44.5205 11.4766 44.5704 11.5064C44.78 11.6256 44.8498 11.8838 44.7301 12.0924C44.7301 12.1024 44.7201 12.1123 44.7101 12.1123C44.6003 12.2712 44.4706 12.4202 44.3409 12.5493C44.301 12.5891 44.2511 12.6089 44.1912 12.6089C44.0814 12.6089 43.9816 12.6089 43.8719 12.6089C43.7821 12.6089 43.6923 12.5791 43.6324 12.5295C43.4228 12.3705 43.3031 12.1222 43.2931 11.864C43.2731 11.3475 43.2931 10.831 43.2831 10.3145C43.2931 10.2549 43.2931 10.1953 43.2731 10.1357C43.2532 10.1953 43.2432 10.235 43.2332 10.2747C43.1833 10.4634 43.1434 10.6621 43.0736 10.8409C42.9837 11.0693 42.884 11.2879 42.7542 11.4965C42.6445 11.6852 42.5048 11.854 42.3351 11.9931C42.1755 12.1222 41.9759 12.1918 41.7663 12.1818C41.6266 12.1918 41.4869 12.152 41.3672 12.0726C41.2674 11.9931 41.1875 11.8938 41.1177 11.7845C41.0478 11.6554 41.0079 11.5163 41.0079 11.3673C40.9979 11.2084 41.1077 11.0693 41.2574 11.0197C41.3572 10.98 41.4669 10.9502 41.5667 10.9204C41.6066 10.9104 41.6565 10.9005 41.6665 10.8508C41.6765 10.8012 41.6266 10.7813 41.5967 10.7614C41.5767 10.7515 41.5568 10.7416 41.5368 10.7217C41.417 10.6422 41.2973 10.5528 41.1975 10.4535C40.8383 10.0761 40.5389 9.64896 40.3094 9.18212C40.1597 8.89407 40.0599 8.58615 40.02 8.25837C40.02 8.2385 40.01 8.21864 39.9801 8.21864C39.9601 8.25837 39.9501 8.30803 39.9501 8.3577C39.9102 8.54642 39.8603 8.73514 39.7905 8.91393C39.7106 9.13245 39.6009 9.35098 39.4711 9.54963C39.1818 10.0165 38.8624 10.4734 38.3735 10.7714C38.3435 10.7912 38.3036 10.8111 38.3136 10.8608C38.3236 10.9104 38.3635 10.9104 38.3934 10.9204C38.4433 10.9303 38.4932 10.9502 38.5431 10.9601C38.6229 10.98 38.7028 11.0097 38.7726 11.0495C38.9123 11.119 38.9922 11.2779 38.9622 11.4369C38.9323 11.6951 38.8026 11.9236 38.603 12.0825C38.5631 12.1123 38.5132 12.1421 38.4633 12.152C38.1439 12.2513 37.7847 12.162 37.5552 11.9236C37.4654 11.8441 37.3855 11.7448 37.3157 11.6454C37.2159 11.5064 37.1361 11.3574 37.0562 11.1985C36.9564 11.0098 36.8766 10.8111 36.8267 10.6025C36.7968 10.4336 36.7369 10.2747 36.687 10.1059C36.677 10.6422 36.677 11.1687 36.677 11.6951C36.677 11.854 36.6471 12.013 36.5972 12.1719C36.5373 12.3407 36.4076 12.45 36.2679 12.5493C36.1781 12.6189 36.0883 12.5891 35.9885 12.599C35.7889 12.6387 35.6392 12.5493 35.5095 12.4003C35.3897 12.2811 35.2899 12.1421 35.2101 11.9832C35.1303 11.8242 35.1802 11.6355 35.3299 11.5263C35.3698 11.4965 35.4197 11.4667 35.4696 11.4468C35.5294 11.417 35.5993 11.3971 35.5993 11.3276C35.5993 11.2581 35.5195 11.2283 35.4596 11.1985C35.1802 11.0793 34.9008 10.98 34.6014 10.9104C34.2122 10.8111 33.823 10.7416 33.4239 10.682C33.2842 10.6621 32.8551 10.5826 32.8551 10.6025Z" fill="#22201C"/>
</svg>
