<svg width="670" height="700" viewBox="0 0 670 700" fill="none" xmlns="http://www.w3.org/2000/svg">
<g clip-path="url(#clip0)">
<path opacity="0.5" d="M82.5011 49.1097C82.9223 50.0897 82.493 51.1671 81.5138 51.5877C80.5346 52.0084 79.4573 51.5782 79.0361 50.5982C78.6149 49.6183 79.0441 48.5409 80.0234 48.1202C81.0026 47.6996 82.0799 48.1298 82.5011 49.1097Z" fill="#616161"/>
<path opacity="0.5" d="M15.4923 3.8661C15.9135 4.84605 15.4842 5.92344 14.505 6.34411C13.5257 6.76477 12.4485 6.33456 12.0273 5.35461C11.6061 4.37466 12.0353 3.29725 13.0146 2.87658C13.9938 2.45591 15.0711 2.88615 15.4923 3.8661Z" fill="#616161"/>
<path opacity="0.5" d="M78.2473 48.3472C78.6685 49.3272 78.164 50.437 77.2601 50.8253C76.2808 51.2459 75.0958 50.7727 74.707 49.8681C74.2858 48.8881 74.758 47.703 75.7372 47.2823C76.6735 46.9694 77.8261 47.3673 78.2473 48.3472Z" fill="#616161"/>
<path opacity="0.5" d="M166.2 37.8902C166.622 38.8702 166.117 39.9799 165.138 40.4006C164.159 40.8213 163.049 40.3157 162.66 39.4111C162.239 38.4311 162.636 37.2783 163.615 36.8577C164.702 36.48 165.779 36.9103 166.2 37.8902Z" fill="#616161"/>
<path opacity="0.5" d="M73.9026 108.616C74.3238 109.596 73.8517 110.781 72.8724 111.202C71.8932 111.622 70.7082 111.149 70.287 110.169C69.8658 109.189 70.3379 108.004 71.3172 107.583C72.2964 107.163 73.4814 107.636 73.9026 108.616Z" fill="#616161"/>
<path opacity="0.5" d="M84.6753 80.9485C85.1289 82.0038 84.6567 83.189 83.6021 83.642C82.5475 84.095 81.3625 83.6218 80.9089 82.5664C80.4553 81.5111 80.9275 80.326 81.9821 79.8729C83.0366 79.4199 84.2216 79.8932 84.6753 80.9485Z" fill="#616161"/>
<path opacity="0.5" d="M69.3627 39.3049C69.8164 40.3603 69.3442 41.5454 68.2896 41.9984C67.235 42.4515 66.05 41.9782 65.5964 40.9229C65.1428 39.8676 65.615 38.6824 66.6696 38.2294C67.7241 37.7764 68.9091 38.2496 69.3627 39.3049Z" fill="#616161"/>
<path opacity="0.5" d="M194.132 186.54C194.586 187.596 194.071 188.889 193.016 189.342C191.962 189.795 190.669 189.278 190.215 188.223C189.762 187.168 190.277 185.875 191.332 185.422C192.386 184.969 193.646 185.41 194.132 186.54Z" fill="#616161"/>
<path opacity="0.5" d="M29.5436 11.85C29.9972 12.9053 29.4821 14.1982 28.4275 14.6513C27.373 15.1043 26.0802 14.588 25.6266 13.5327C25.173 12.4773 25.6881 11.1845 26.7427 10.7315C27.7973 10.2784 29.09 10.7947 29.5436 11.85Z" fill="#616161"/>
<path opacity="0.5" d="M43.6248 198.242C44.1108 199.373 43.5957 200.665 42.4658 201.151C41.3359 201.636 40.0432 201.12 39.5572 199.989C39.0712 198.859 39.5863 197.566 40.7162 197.08C41.8461 196.595 43.1388 197.111 43.6248 198.242Z" fill="#616161"/>
<path opacity="0.5" d="M101.592 33.3177C102.078 34.4484 101.563 35.7413 100.433 36.2267C99.3035 36.712 98.0108 36.1958 97.5248 35.0651C97.0388 33.9344 97.5539 32.6415 98.6838 32.1561C99.7813 31.5953 101.106 32.187 101.592 33.3177Z" fill="#616161"/>
<path opacity="0.5" d="M18.2144 295.867C18.7154 297.033 20.0658 297.572 21.2307 297.072C22.3955 296.571 22.9337 295.221 22.4326 294.055C21.9316 292.889 20.5811 292.35 19.4162 292.85C18.2514 293.351 17.7133 294.701 18.2144 295.867Z" fill="#616161"/>
<path opacity="0.5" d="M123.754 84.8788C124.272 86.0849 123.682 87.4101 122.552 87.8955C121.347 88.4132 120.022 87.8216 119.536 86.6909C119.017 85.4848 119.608 84.1595 120.738 83.6741C121.867 83.1887 123.236 83.6727 123.754 84.8788Z" fill="#616161"/>
<path opacity="0.5" d="M28.5939 18.7764C29.1123 19.9825 28.5543 21.3831 27.349 21.9008C26.1438 22.4186 24.7434 21.8593 24.225 20.6532C23.7065 19.4471 24.2646 18.0465 25.4698 17.5288C26.675 17.011 28.0755 17.5703 28.5939 18.7764Z" fill="#616161"/>
<path opacity="0.5" d="M20.6213 30.9532C21.1397 32.1592 20.5816 33.5598 19.3764 34.0776C18.1712 34.5953 16.7707 34.0361 16.2523 32.83C15.7339 31.6239 16.292 30.2232 17.4972 29.7055C18.7024 29.1878 20.0705 29.6717 20.6213 30.9532Z" fill="#616161"/>
<path opacity="0.5" d="M125.323 43.895C126.575 43.3688 127.163 41.9263 126.637 40.6731C126.11 39.4199 124.667 38.8305 123.415 39.3567C122.163 39.883 121.575 41.3255 122.102 42.5787C122.628 43.8319 124.071 44.4212 125.323 43.895Z" fill="#616161"/>
<path opacity="0.5" d="M41.9544 115.464C42.4729 116.67 41.9472 118.146 40.6667 118.696C39.4615 119.214 37.9857 118.687 37.4349 117.406C36.9165 116.199 37.4421 114.723 38.7226 114.173C39.9279 113.656 41.436 114.258 41.9544 115.464Z" fill="#616161"/>
<path opacity="0.5" d="M13.7373 199.918C14.2881 201.2 13.6548 202.632 12.4496 203.15C11.169 203.7 9.73618 203.066 9.21777 201.86C8.66696 200.578 9.30031 199.145 10.5055 198.627C11.7537 198.002 13.1865 198.637 13.7373 199.918Z" fill="#616161"/>
<path opacity="0.5" d="M9.56205 94.9101C10.1129 96.1915 9.4795 97.6245 8.19896 98.1746C6.91841 98.7247 5.48556 98.0901 4.96715 96.884C4.41634 95.6025 5.01729 94.0941 6.2225 93.5764C7.53545 93.1016 9.01124 93.6286 9.56205 94.9101Z" fill="#616161"/>
<path opacity="0.5" d="M21.6021 219.668C22.1529 220.949 21.5519 222.458 20.2714 223.008C18.9908 223.558 17.4827 222.956 16.9318 221.674C16.381 220.393 16.982 218.884 18.2625 218.334C19.5431 217.784 21.0513 218.386 21.6021 219.668Z" fill="#616161"/>
<path opacity="0.5" d="M128.487 269.035C129.07 270.392 128.469 271.9 127.113 272.483C125.758 273.065 124.249 272.463 123.666 271.106C123.083 269.749 123.684 268.241 125.04 267.659C126.396 267.076 127.904 267.678 128.487 269.035Z" fill="#616161"/>
<path opacity="0.5" d="M131.678 60.1319C132.262 61.4888 131.661 62.9972 130.305 63.5796C128.949 64.1621 127.441 63.5598 126.858 62.2029C126.274 60.846 126.875 59.3377 128.231 58.7552C129.512 58.2051 131.128 58.8505 131.678 60.1319Z" fill="#616161"/>
<path opacity="0.5" d="M25.6288 186.684C26.212 188.041 25.5681 189.657 24.2122 190.239C22.8564 190.822 21.2405 190.176 20.6573 188.82C20.074 187.463 20.718 185.847 22.0738 185.264C23.4297 184.682 25.0132 185.252 25.6288 186.684Z" fill="#616161"/>
<path opacity="0.5" d="M17.6936 301.092C18.3092 302.525 17.6224 304.249 16.1912 304.863C14.76 305.478 13.0363 304.79 12.4207 303.358C11.8051 301.925 12.4919 300.201 13.9231 299.587C15.3543 298.972 17.0456 299.585 17.6936 301.092Z" fill="#616161"/>
<path opacity="0.5" d="M9.23434 441.891C9.91475 443.474 9.15261 445.23 7.64609 445.877C6.06425 446.557 4.30824 445.793 3.66023 444.285C2.97982 442.702 3.74195 440.946 5.24847 440.299C6.72259 439.577 8.55393 440.308 9.23434 441.891Z" fill="#616161"/>
<path opacity="0.037731" d="M14.04 4.22201L-69.9826 -42.1963C-70.198 -42.2823 -70.5317 -42.2283 -70.6176 -42.0128C-70.7034 -41.7973 -70.6816 -41.5388 -70.4337 -41.3774L13.5135 5.07328C13.7614 5.2347 14.0627 5.10527 14.1485 4.88979C14.3097 4.64195 14.1801 4.34042 14.04 4.22201Z" fill="#656565"/>
<path opacity="0.2158" d="M13.4802 4.99761L80.5322 50.1334C80.78 50.2948 81.0384 50.2731 81.1996 50.0253C81.3608 49.7775 81.3389 49.5189 81.091 49.3575L14.0391 4.22172C13.7912 4.0603 13.5328 4.08201 13.3716 4.32985C13.2105 4.57769 13.2647 4.91156 13.4802 4.99761Z" fill="#656565"/>
<path opacity="0.5" d="M76.3761 49.5972L80.673 50.2518C80.9638 50.3055 81.1574 50.133 81.2108 49.8421C81.2643 49.5513 81.0917 49.3575 80.8009 49.3038L76.4716 48.5739C76.1809 48.5202 75.912 48.725 75.9338 48.9835C75.9881 49.3174 76.0853 49.5435 76.3761 49.5972Z" fill="#656565"/>
<path opacity="0.2147" d="M80.8551 50.2627L164.511 39.1509C164.769 39.1293 164.93 38.8814 164.909 38.6229C164.887 38.3644 164.606 38.1276 164.38 38.2247L80.7247 49.3365C80.4663 49.3582 80.3052 49.606 80.327 49.8645C80.3489 50.123 80.5968 50.2844 80.8551 50.2627Z" fill="#656565"/>
<path opacity="0.4189" d="M14.2342 4.67424L21.1296 -57.1364C21.183 -57.4273 21.0105 -57.6211 20.7197 -57.6747C20.4289 -57.7284 20.2354 -57.556 20.1819 -57.2651L13.2866 4.54554C13.2331 4.8364 13.4056 5.0302 13.6964 5.08389C13.9872 5.13757 14.1808 4.96511 14.2342 4.67424Z" fill="#656565"/>
<path opacity="0.5" d="M14.0396 4.22191L-27.1868 -19.8602C-27.4346 -20.0216 -27.7359 -19.8922 -27.8218 -19.6767C-27.983 -19.4289 -27.8534 -19.1273 -27.6379 -19.0413L13.5132 5.07318C13.761 5.2346 14.0623 5.10517 14.1482 4.88969C14.3094 4.64185 14.2551 4.30796 14.0396 4.22191Z" fill="#656565"/>
<path opacity="0.2763" d="M76.7943 48.7032L14.0392 4.22196C13.7913 4.06054 13.533 4.08225 13.3718 4.33009C13.2106 4.57793 13.2325 4.83642 13.4803 4.99785L76.2354 49.4791C76.4833 49.6405 76.7417 49.6188 76.9028 49.371C77.064 49.1231 76.9668 48.897 76.7943 48.7032Z" fill="#656565"/>
<path opacity="0.1438" d="M13.9316 4.17944L-65.5798 -26.1382C-65.7952 -26.2243 -66.0965 -26.0948 -66.2577 -25.847C-66.3436 -25.6315 -66.214 -25.33 -65.9985 -25.2439L13.5128 5.07371C13.7283 5.15975 14.0296 5.03031 14.1155 4.81483C14.2766 4.56699 14.147 4.26548 13.9316 4.17944Z" fill="#656565"/>
<path opacity="0.3462" d="M13.7487 4.16811L-40.8311 2.78933C-41.0894 2.81102 -41.3583 3.01585 -41.3365 3.27435C-41.3146 3.53285 -41.1097 3.80201 -40.8513 3.78032L13.7285 5.1591C13.9869 5.1374 14.1804 4.96493 14.2339 4.67407C14.212 4.41557 14.0071 4.14641 13.7487 4.16811Z" fill="#656565"/>
<path opacity="0.159" d="M72.5678 109.457L81.3181 49.8856C81.3715 49.5947 81.199 49.4009 80.9082 49.3472C80.6174 49.2935 80.4238 49.466 80.3704 49.7569L71.6202 109.328C71.5667 109.619 71.7716 109.888 72.03 109.867C72.2455 109.953 72.5144 109.748 72.5678 109.457Z" fill="#656565"/>
<path opacity="0.1823" d="M76.5581 49.6082L164.511 39.1509C164.769 39.1292 165.006 38.8491 164.984 38.5906C164.962 38.3321 164.714 38.1706 164.456 38.1923L76.503 48.6496C76.2446 48.6713 76.0081 48.9515 76.03 49.21C76.0519 49.4685 76.2997 49.6299 76.5581 49.6082Z" fill="#656565"/>
<path opacity="0.1276" d="M20.2675 -57.4805L-41.1323 2.91904C-41.3259 3.0915 -41.3469 3.45775 -41.1744 3.65154C-41.0019 3.84532 -40.6358 3.86665 -40.4422 3.69419L20.9576 -56.7054C21.1512 -56.8778 21.1722 -57.2441 20.9244 -57.4055C20.7948 -57.707 20.5364 -57.6853 20.2675 -57.4805Z" fill="#656565"/>
<path opacity="0.363" d="M75.9664 49.059L71.5455 109.36C71.5674 109.619 71.7723 109.888 72.0306 109.866C72.289 109.844 72.4826 109.672 72.5361 109.381L76.957 49.08C76.9351 48.8215 76.7302 48.5523 76.4718 48.574C76.2134 48.5957 76.0198 48.7681 75.9664 49.059Z" fill="#656565"/>
<path opacity="0.146" d="M-12.5048 115.819L-79.8036 177.235C-79.9972 177.407 -80.0182 177.773 -79.8457 177.967C-79.6731 178.161 -79.3824 178.215 -79.1888 178.042L-11.89 116.627C-11.6964 116.454 -11.6754 116.088 -11.9233 115.927C-12.0529 115.625 -12.3112 115.647 -12.5048 115.819Z" fill="#656565"/>
<path opacity="0.094168" d="M13.9319 4.17945L-26.094 -15.8641C-26.3419 -16.0255 -26.6432 -15.8961 -26.8044 -15.6482C-26.9656 -15.4004 -26.836 -15.0989 -26.5881 -14.9374L13.5131 5.07371C13.761 5.23514 14.0623 5.10571 14.1482 4.89023C14.3093 4.64239 14.1797 4.34087 13.9319 4.17945Z" fill="#656565"/>
<path opacity="0.233" d="M72.0507 108.875L-12.2028 115.69C-12.4612 115.711 -12.6977 115.992 -12.6759 116.25C-12.654 116.509 -12.3737 116.746 -12.1154 116.724L72.0629 109.942C72.3213 109.92 72.5578 109.64 72.5359 109.381C72.4816 109.048 72.3091 108.854 72.0507 108.875Z" fill="#656565"/>
<path opacity="0.1242" d="M191.182 -33.7444L164.037 38.4619C163.951 38.6774 164.08 38.9789 164.328 39.1403C164.544 39.2264 164.845 39.0969 164.931 38.8815L192.151 -33.3572C192.205 -33.6481 192.075 -33.9496 191.784 -34.0033C191.569 -34.0894 191.268 -33.9599 191.182 -33.7444Z" fill="#656565"/>
<path opacity="0.080509" d="M76.0305 49.21L82.3078 81.8761C82.3297 82.1346 82.6099 82.3714 82.9113 82.2419C83.1696 82.2202 83.4061 81.94 83.2765 81.6385L76.9239 49.0048C76.9021 48.7463 76.6542 48.5849 76.3205 48.6389C76.1374 48.6283 75.9333 48.9838 76.0305 49.21Z" fill="#656565"/>
<path opacity="0.058132" d="M76.8272 48.779L67.868 39.7686C67.6954 39.5748 67.3293 39.5534 67.1357 39.7259C66.9422 39.8983 66.9211 40.2646 67.0937 40.4584L76.1283 49.4364C76.3008 49.6302 76.6669 49.6515 76.8281 49.4037C77.0216 49.2312 76.9998 48.9728 76.8272 48.779Z" fill="#656565"/>
<path opacity="0.3855" d="M72.5253 109.564L83.2235 81.9294C83.2769 81.6385 83.1473 81.337 82.8566 81.2833C82.6411 81.1973 82.3398 81.3267 82.1786 81.5745L71.4804 109.21C71.3946 109.425 71.5242 109.727 71.7721 109.888C72.1382 109.909 72.4395 109.78 72.5253 109.564Z" fill="#656565"/>
<path opacity="0.1263" d="M72.5353 109.381L68.0293 40.1452C68.0074 39.8867 67.7272 39.6499 67.4688 39.6716C67.2104 39.6933 67.0492 39.9411 66.9958 40.232L71.5771 109.436C71.5989 109.694 71.8792 109.931 72.1376 109.909C72.3635 109.812 72.5571 109.64 72.5353 109.381Z" fill="#656565"/>
<path opacity="0.147" d="M-26.1265 8.34994L67.3091 40.5443C67.5999 40.598 67.9012 40.4686 67.9546 40.1777C68.0081 39.8869 67.9109 39.6607 67.663 39.4993L-25.7726 7.30489C-26.0633 7.2512 -26.3647 7.38065 -26.4181 7.67151C-26.5469 7.99473 -26.4173 8.29625 -26.1265 8.34994Z" fill="#656565"/>
<path opacity="0.1975" d="M-25.248 29.4937L67.3738 40.695C67.6646 40.7487 67.9335 40.5439 67.987 40.253C68.0404 39.9621 67.8355 39.693 67.5447 39.6393L-25.1524 28.4703C-25.4432 28.4166 -25.7121 28.6214 -25.7656 28.9123C-25.7437 29.1708 -25.5388 29.44 -25.248 29.4937Z" fill="#656565"/>
<path opacity="0.5" d="M83.2446 81.5633L67.9651 39.9945C67.8355 39.6929 67.5123 39.5639 67.2863 39.661C66.985 39.7904 66.9316 40.0813 66.9535 40.3398L82.2654 81.9839C82.395 82.2854 82.6857 82.3391 82.9441 82.3174C83.213 82.1126 83.3742 81.8648 83.2446 81.5633Z" fill="#656565"/>
<path opacity="0.097993" d="M-26.2972 -14.8842L53.376 -25.0888C53.7097 -25.1429 53.8709 -25.3907 53.8166 -25.7246C53.7623 -26.0585 53.5144 -26.2199 53.1807 -26.1659L-26.46 -15.8858C-26.7184 -15.8641 -26.9549 -15.5839 -26.933 -15.3254C-26.8358 -15.0993 -26.5556 -14.8625 -26.2972 -14.8842Z" fill="#656565"/>
<path opacity="0.1805" d="M-25.7614 8.37113L53.5257 -25.1535C53.827 -25.2829 53.9557 -25.6061 53.8261 -25.9076C53.6965 -26.2091 53.4058 -26.2628 53.1798 -26.1658L-26.0749 7.43422C-26.3762 7.56366 -26.4296 7.85451 -26.3324 8.08066C-26.3105 8.33916 -25.9874 8.4682 -25.7614 8.37113Z" fill="#656565"/>
<path opacity="0.1156" d="M-24.839 29.4074L53.6772 -25.218C53.9461 -25.4228 53.9995 -25.7137 53.7946 -25.9828C53.5897 -26.252 53.2989 -26.3057 53.03 -26.1009L-25.4862 28.5245C-25.6798 28.697 -25.8085 29.0202 -25.6036 29.2893C-25.4311 29.4831 -25.1403 29.5368 -24.839 29.4074Z" fill="#656565"/>
<path opacity="0.286" d="M-26.0194 8.39273L27.4775 13.2729C27.7683 13.3266 28.0372 13.1217 28.0582 12.7555C28.1117 12.4646 27.9068 12.1955 27.5406 12.1741L-25.9239 7.36938C-26.2147 7.3157 -26.4512 7.59588 -26.5046 7.88675C-26.4827 8.14525 -26.2778 8.41443 -26.0194 8.39273Z" fill="#656565"/>
<path opacity="0.2932" d="M-24.9896 29.4718L27.7365 13.2511C28.0378 13.1217 28.199 12.8738 28.0694 12.5723C27.9398 12.2708 27.692 12.1094 27.3907 12.2388L-25.3355 28.4595C-25.6368 28.5889 -25.798 28.8367 -25.6684 29.1383C-25.5712 29.3644 -25.3233 29.5258 -24.9896 29.4718Z" fill="#656565"/>
<path opacity="0.3317" d="M67.9649 39.9943L53.784 -25.8001C53.7297 -26.134 53.4065 -26.2631 53.1482 -26.2414C52.8144 -26.1873 52.6857 -25.8641 52.7075 -25.6056L66.8885 40.1888C66.9427 40.5227 67.2659 40.6518 67.4919 40.5547C67.858 40.576 68.0192 40.3282 67.9649 39.9943Z" fill="#656565"/>
<path opacity="0.342" d="M27.2619 13.1872L67.1576 40.6092C67.4054 40.7707 67.7391 40.7166 67.9003 40.4688C68.0615 40.2209 68.0072 39.8871 67.7594 39.7257L27.8636 12.3036C27.6158 12.1422 27.2821 12.1962 27.1209 12.444C26.9597 12.6919 27.014 13.0258 27.2619 13.1872Z" fill="#656565"/>
<path opacity="0.056682" d="M67.9322 39.9187L31.8127 -46.8131C31.6831 -47.1147 31.36 -47.2437 31.0587 -47.1143C30.7574 -46.9849 30.6286 -46.6616 30.7582 -46.3601L66.953 40.3394C67.0826 40.6409 67.3733 40.6946 67.5993 40.5975C67.8253 40.5004 68.0618 40.2203 67.9322 39.9187Z" fill="#656565"/>
<path opacity="0.2001" d="M-41.4552 -29.8042L53.2684 -25.1316C53.5592 -25.0779 53.7957 -25.3581 53.8491 -25.649C53.9026 -25.9399 53.6223 -26.1767 53.3315 -26.2303L-41.392 -30.903C-41.6504 -30.8813 -41.9193 -30.6764 -41.9727 -30.3856C-41.9938 -30.0193 -41.7135 -29.7825 -41.4552 -29.8042Z" fill="#656565"/>
<path opacity="0.2682" d="M27.864 12.3032L-41.1448 -30.7418C-41.3927 -30.9032 -41.7264 -30.8492 -41.8875 -30.6013C-42.0487 -30.3535 -41.9944 -30.0196 -41.7466 -29.8582L27.2622 13.1868C27.5101 13.3482 27.8438 13.2942 28.005 13.0463C28.1661 12.7985 28.1118 12.4646 27.864 12.3032Z" fill="#656565"/>
<path opacity="0.5" d="M28.0049 13.0468L53.7197 -25.3255C53.8809 -25.5734 53.8266 -25.9073 53.5787 -26.0687C53.3309 -26.2301 52.9972 -26.176 52.836 -25.9282L27.1212 12.4441C26.9601 12.692 27.0144 13.0259 27.2622 13.1873C27.5101 13.3487 27.8438 13.2947 28.0049 13.0468Z" fill="#656565"/>
<path opacity="0.5" d="M28.1341 12.7234L31.9104 -46.5864C31.9638 -46.8773 31.6836 -47.1141 31.3928 -47.1677C31.102 -47.2214 30.8655 -46.9412 30.812 -46.6504L27.0358 12.6595C26.9824 12.9503 27.2626 13.1871 27.5534 13.2408C27.8442 13.2945 28.1131 13.0897 28.1341 12.7234Z" fill="#656565"/>
<path opacity="0.01" d="M67.5241 40.6305L99.5267 34.7411C99.8604 34.6871 99.9892 34.3639 99.9349 34.03C99.8806 33.6961 99.5574 33.567 99.299 33.5887L67.2535 39.5859C66.9198 39.6399 66.7911 39.9631 66.8883 40.1893C67.1256 40.5338 67.2981 40.7276 67.5241 40.6305Z" fill="#656565"/>
<path opacity="0.3952" d="M28.1229 12.9064L47.8755 -55.9456C47.929 -56.2365 47.7994 -56.538 47.4762 -56.6671C47.1854 -56.7208 46.8841 -56.5913 46.8306 -56.3005L27.1533 12.5192C27.0999 12.8101 27.2295 13.1116 27.5203 13.1653C27.6928 13.3591 27.9617 13.1543 28.1229 12.9064Z" fill="#656565"/>
<path opacity="0.1451" d="M-21.8302 277.44L42.0121 199.471C42.1732 199.223 42.1943 198.857 41.9464 198.695C41.6986 198.534 41.3325 198.512 41.1713 198.76L-22.671 276.73C-22.8322 276.977 -22.7779 277.311 -22.53 277.473C-22.3575 277.666 -22.0238 277.612 -21.8302 277.44Z" fill="#656565"/>
<path opacity="0.1274" d="M52.9127 -25.3364L99.0638 34.4933C99.2687 34.7624 99.6348 34.7838 99.9038 34.579C100.173 34.3741 100.194 34.0079 100.021 33.8141L53.7948 -25.9832C53.5898 -26.2523 53.2237 -26.2737 53.0302 -26.1012C52.7613 -25.8964 52.7078 -25.6055 52.9127 -25.3364Z" fill="#656565"/>
<path opacity="0.2508" d="M27.3698 13.2301L99.3434 34.7304C99.6341 34.7841 100.011 34.6223 100.064 34.3314C100.118 34.0406 99.9881 33.739 99.6973 33.6853L27.7562 12.2605C27.4654 12.2068 27.1641 12.3362 27.1106 12.6271C26.9494 12.8749 27.1544 13.1441 27.3698 13.2301Z" fill="#656565"/>
<path opacity="0.4103" d="M27.8872 13.1859L63.4313 -9.58453C63.7002 -9.78934 63.7537 -10.0802 63.6241 -10.3817C63.4192 -10.6509 63.1284 -10.7046 62.8271 -10.5751L27.3154 12.2706C27.0465 12.4754 26.993 12.7663 27.1226 13.0678C27.2951 13.2616 27.5859 13.3153 27.8872 13.1859Z" fill="#656565"/>
<path opacity="0.1137" d="M27.1215 12.4435L-7.20834 74.1627C-7.36952 74.4105 -7.28282 74.8198 -6.95964 74.9489C-6.71179 75.1103 -6.30276 75.0238 -6.17398 74.7006L28.1234 12.9061C28.2846 12.6582 28.155 12.3567 27.9071 12.1953C27.584 12.0662 27.2073 12.228 27.1215 12.4435Z" fill="#656565"/>
<path opacity="0.1116" d="M46.7993 -55.7513L98.9878 34.5256C99.1928 34.7948 99.4836 34.8485 99.7849 34.7191C100.086 34.5896 100.183 34.191 99.9776 33.9219L47.7137 -56.3227C47.5088 -56.5919 47.218 -56.6456 46.9167 -56.5161C46.7231 -56.3437 46.6697 -56.0528 46.7993 -55.7513Z" fill="#656565"/>
<path opacity="0.1685" d="M-22.4982 277.548L20.1843 295.468C20.5075 295.597 20.8088 295.467 20.9376 295.144C21.0664 294.821 20.9368 294.519 20.6136 294.39L-22.0365 276.546C-22.3597 276.417 -22.661 276.546 -22.7145 276.837C-22.951 277.117 -22.789 277.494 -22.4982 277.548Z" fill="#656565"/>
<path opacity="0.5" d="M62.6664 -9.70203L99.0958 34.5686C99.3008 34.8378 99.6669 34.8591 99.9358 34.6543C100.205 34.4495 100.226 34.0832 100.021 33.8141L63.5914 -10.4566C63.3864 -10.7257 63.0203 -10.747 62.7514 -10.5422C62.4825 -10.3374 62.4615 -9.9712 62.6664 -9.70203Z" fill="#656565"/>
<path opacity="0.057505" d="M20.9055 295.069L42.0652 199.18C42.1187 198.889 41.9891 198.587 41.6659 198.458C41.3751 198.404 41.1062 198.609 40.9774 198.932L19.71 294.779C19.6566 295.07 19.8939 295.414 20.1847 295.468C20.5832 295.565 20.8521 295.36 20.9055 295.069Z" fill="#656565"/>
<path opacity="0.3629" d="M20.2478 294.369L-27.4907 304.339C-27.8244 304.393 -27.9532 304.716 -27.9313 304.975C-27.8771 305.309 -27.5539 305.438 -27.2955 305.416L20.443 295.446C20.7767 295.392 20.9808 295.036 20.8512 294.735C20.8618 294.552 20.5062 294.347 20.2478 294.369Z" fill="#656565"/>
<path opacity="0.1179" d="M-6.29235 74.8408L63.5492 -9.7241C63.7103 -9.97194 63.7314 -10.3382 63.4835 -10.4996C63.2357 -10.6611 62.8696 -10.6824 62.7084 -10.4345L-7.1331 74.1304C-7.29427 74.3783 -7.23999 74.7121 -7.03506 74.9813C-6.8196 75.0673 -6.45352 75.0886 -6.29235 74.8408Z" fill="#656565"/>
<path opacity="0.4523" d="M122.173 85.5577L100.086 33.9647C99.9566 33.6632 99.6334 33.5341 99.3321 33.6635C99.0308 33.793 98.902 34.1162 99.0316 34.4177L121.118 86.0107C121.248 86.3122 121.571 86.4412 121.872 86.3118C122.098 86.2147 122.302 85.8592 122.173 85.5577Z" fill="#656565"/>
<path opacity="0.076525" d="M122.064 85.5152L63.548 -10.3483C63.343 -10.6175 63.0522 -10.6711 62.7509 -10.5417C62.482 -10.3369 62.4286 -10.046 62.5582 -9.74451L121.074 86.119C121.279 86.3882 121.602 86.5172 121.871 86.3124C122.173 86.183 122.269 85.7844 122.064 85.5152Z" fill="#656565"/>
<path opacity="0.2367" d="M62.7516 -10.5417L26.1077 19.22C25.8388 19.4248 25.8177 19.791 26.0227 20.0602C26.2276 20.3294 26.5937 20.3507 26.8626 20.1459L63.5065 -9.6158C63.7754 -9.82061 63.7964 -10.1868 63.5915 -10.456C63.3112 -10.6928 62.9451 -10.7141 62.7516 -10.5417Z" fill="#656565"/>
<path opacity="0.3151" d="M-6.21733 74.8083L26.9803 20.0051C27.1415 19.7573 27.0548 19.348 26.7316 19.219C26.4838 19.0575 26.0747 19.1439 25.9135 19.3918L-7.20875 74.1627C-7.36993 74.4105 -7.28324 74.8198 -7.03538 74.9812C-6.78753 75.1426 -6.37851 75.0562 -6.21733 74.8083Z" fill="#656565"/>
<path opacity="0.2656" d="M-6.2489 74.7331L18.9004 32.1387C19.0292 31.8154 18.9749 31.4815 18.6193 31.2771C18.3714 31.1157 17.9624 31.2021 17.8012 31.4499L-7.24033 74.0874C-7.40151 74.3352 -7.31481 74.7445 -6.99163 74.8735C-6.7867 75.1427 -6.37767 75.0563 -6.2489 74.7331Z" fill="#656565"/>
<path opacity="0.142" d="M124.547 41.0493L99.6651 33.6102C99.3743 33.5565 99.073 33.6859 98.9442 34.0092C98.8907 34.3 99.0203 34.6016 99.3435 34.7306L124.182 42.2775C124.505 42.4066 124.85 42.1694 124.978 41.8461C124.999 41.4799 124.87 41.1784 124.547 41.0493Z" fill="#656565"/>
<path opacity="0.045279" d="M121.892 85.3214L26.7318 19.2195C26.4515 18.9827 26.0425 19.0691 25.9137 19.3923C25.6772 19.6725 25.7639 20.0817 26.0871 20.2108L121.247 86.3127C121.495 86.4742 121.904 86.3878 122.065 86.1399C122.302 85.8597 122.247 85.5258 121.892 85.3214Z" fill="#656565"/>
<path opacity="0.2877" d="M-31.8433 90.5503L26.8623 20.1457C27.0988 19.8655 27.0445 19.5316 26.7642 19.2948C26.484 19.058 26.1503 19.1121 25.9138 19.3923L-32.7594 89.8723C-32.9206 90.1201 -32.9417 90.4864 -32.6614 90.7232C-32.3706 90.7769 -32.0369 90.7228 -31.8433 90.5503Z" fill="#656565"/>
<path opacity="0.01" d="M-86.4582 200.99L-31.8002 90.4424C-31.6715 90.1192 -31.8011 89.8176 -32.0489 89.6562C-32.3721 89.5271 -32.6734 89.6566 -32.8346 89.9044L-87.5249 200.376C-87.6537 200.7 -87.5241 201.001 -87.2439 201.238C-86.9207 201.367 -86.6194 201.238 -86.4582 200.99Z" fill="#656565"/>
<path opacity="0.3399" d="M17.9081 31.4933L-32.7168 89.7644C-32.9533 90.0446 -32.899 90.3785 -32.6187 90.6153C-32.3709 90.7768 -32.0048 90.7981 -31.8436 90.5503L18.8566 32.2467C19.0931 31.9665 19.0388 31.6326 18.8339 31.3635C18.6289 31.0943 18.1446 31.2131 17.9081 31.4933Z" fill="#656565"/>
<path opacity="0.2301" d="M18.253 31.2558L-80.1376 46.2864C-80.4713 46.3404 -80.7078 46.6206 -80.6536 46.9545C-80.5993 47.2884 -80.319 47.5252 -79.9853 47.4711L18.4053 32.4406C18.739 32.3865 18.9755 32.1063 18.9212 31.7724C18.9423 31.4062 18.5867 31.2017 18.253 31.2558Z" fill="#656565"/>
<path opacity="0.393" d="M122.194 85.8165L124.989 41.6626C125.01 41.2964 124.73 41.0596 124.364 41.0383C123.998 41.0169 123.761 41.2972 123.708 41.588L120.988 85.7095C120.967 86.0757 121.247 86.3125 121.538 86.3662C121.904 86.3875 122.173 86.1827 122.194 85.8165Z" fill="#656565"/>
<path opacity="0.075282" d="M121.418 85.257L39.4358 115.832C39.1345 115.961 38.9304 116.317 39.06 116.618C39.1896 116.92 39.5452 117.124 39.8465 116.995L121.721 86.377C122.023 86.2476 122.151 85.9244 122.022 85.6229C122.043 85.2566 121.72 85.1276 121.418 85.257Z" fill="#656565"/>
<path opacity="0.2802" d="M39.8775 115.821L-32.0808 89.5809C-32.404 89.4518 -32.7482 89.689 -32.8017 89.9798C-32.8551 90.2707 -32.7255 90.5722 -32.4777 90.7336L39.513 117.049C39.8362 117.178 40.1804 116.941 40.3092 116.617C40.3627 116.327 40.2007 115.95 39.8775 115.821Z" fill="#656565"/>
<path opacity="0.1372" d="M19.8277 294.639L-15.8119 351.027C-16.0484 351.307 -15.8864 351.684 -15.6061 351.921C-15.3259 352.158 -14.9492 351.996 -14.7127 351.715L20.8192 295.284C20.9803 295.037 20.8936 294.627 20.5705 294.498C20.3979 294.304 20.0642 294.359 19.8277 294.639Z" fill="#656565"/>
<path opacity="0.5" d="M18.9323 32.214L26.9806 20.0052C27.1418 19.7574 27.0551 19.3481 26.8072 19.1867C26.5594 19.0253 26.1504 19.1117 25.9892 19.3595L17.9408 31.5683C17.7797 31.8162 17.8663 32.2254 18.1142 32.3868C18.362 32.5483 18.6958 32.4942 18.9323 32.214Z" fill="#656565"/>
<path opacity="0.3297" d="M-51.1824 48.6711L26.6363 20.2423C26.9376 20.1128 27.1417 19.7572 27.0121 19.4557C26.8825 19.1542 26.5269 18.9497 26.2256 19.0792L-51.593 47.508C-51.8944 47.6375 -52.0984 47.993 -51.9688 48.2946C-51.8392 48.5961 -51.4837 48.8005 -51.1824 48.6711Z" fill="#656565"/>
<path opacity="0.2812" d="M-31.7685 90.5177L-8.17896 57.1661C-7.94245 56.8859 -8.02913 56.4767 -8.38471 56.2722C-8.63257 56.1108 -9.07401 56.1218 -9.20278 56.445L-32.717 89.7643C-32.8781 90.0121 -32.7915 90.4214 -32.5436 90.5828C-32.3711 90.7766 -31.962 90.6902 -31.7685 90.5177Z" fill="#656565"/>
<path opacity="0.2548" d="M124.471 41.0811L26.5165 19.133C26.2257 19.0793 25.8491 19.2411 25.8281 19.6073C25.7746 19.8982 25.9366 20.2751 26.3027 20.2964L124.182 42.2769C124.473 42.3306 124.85 42.1688 124.946 41.7702C125 41.4793 124.838 41.1024 124.471 41.0811Z" fill="#656565"/>
<path opacity="0.2233" d="M40.2865 116.359L27.0014 19.6395C26.9471 19.3056 26.6668 19.0688 26.3331 19.1228C25.9994 19.1769 25.7629 19.4571 25.8172 19.791L39.1023 116.511C39.1566 116.845 39.4368 117.081 39.8459 116.995C40.1042 116.973 40.3407 116.693 40.2865 116.359Z" fill="#656565"/>
<path opacity="0.178" d="M21.9416 -86.5971L25.7859 19.7148C25.8402 20.0487 26.0451 20.3179 26.4112 20.3392C26.7449 20.2851 27.0138 20.0803 26.9596 19.7465L23.1152 -86.5655C23.061 -86.8994 22.856 -87.1686 22.4899 -87.1899C22.1991 -87.2436 21.9626 -86.9634 21.9416 -86.5971Z" fill="#656565"/>
<path opacity="0.4599" d="M18.253 31.2559L-51.5173 47.4759C-51.851 47.53 -52.0551 47.8855 -52.0008 48.2194C-51.9466 48.5533 -51.591 48.7578 -51.2573 48.7037L18.513 32.4837C18.8467 32.4296 19.0508 32.0741 18.9966 31.7402C18.867 31.4386 18.5867 31.2018 18.253 31.2559Z" fill="#656565"/>
<path opacity="0.3443" d="M17.7689 31.9996L39.027 116.543C39.0813 116.877 39.4369 117.081 39.7706 117.027C40.1043 116.973 40.3084 116.618 40.2541 116.284L18.996 31.7403C18.9417 31.4065 18.5862 31.202 18.2849 31.3315C17.8758 31.4179 17.7147 31.6657 17.7689 31.9996Z" fill="#656565"/>
<path opacity="0.3834" d="M-8.29653 57.3065L26.8625 20.1457C27.099 19.8655 27.0447 19.5316 26.8398 19.2625C26.5595 19.0256 26.1934 19.0043 25.9569 19.2845L-9.2345 56.3699C-9.471 56.6501 -9.49205 57.0163 -9.21179 57.2531C-8.93154 57.49 -8.4901 57.4789 -8.29653 57.3065Z" fill="#656565"/>
<path opacity="0.2799" d="M4.74458 -55.1878L25.8502 19.866C25.9798 20.1675 26.26 20.4043 26.5613 20.2749C26.895 20.2208 27.0991 19.8652 26.9695 19.5637L5.93928 -55.5224C5.885 -55.8563 5.52943 -56.0607 5.12039 -55.9743C4.81909 -55.8449 4.61498 -55.4893 4.74458 -55.1878Z" fill="#656565"/>
<path opacity="0.165" d="M40.093 115.907L-51.0108 47.6157C-51.291 47.3789 -51.7 47.4653 -51.8612 47.7131C-52.0977 47.9933 -52.011 48.4026 -51.7632 48.564L39.3406 116.855C39.6208 117.092 40.0298 117.005 40.1586 116.682C40.3522 116.51 40.2979 116.176 40.093 115.907Z" fill="#656565"/>
<path opacity="0.094552" d="M16.9126 -86.6694L25.8177 19.7903C25.8719 20.1242 26.1522 20.361 26.4859 20.3069C26.8196 20.2529 27.0561 19.9727 27.0018 19.6388L18.0968 -86.821C18.0425 -87.1548 17.7623 -87.3916 17.3962 -87.413C17.0949 -87.2835 16.8584 -87.0033 16.9126 -86.6694Z" fill="#656565"/>
<path opacity="0.1663" d="M40.0724 116.898L124.742 42.126C125.011 41.9212 125 41.4796 124.72 41.2428C124.515 40.9736 124.149 40.9523 123.88 41.1571L39.2098 115.929C38.9409 116.134 38.9522 116.575 39.1571 116.844C39.4374 117.081 39.8035 117.102 40.0724 116.898Z" fill="#656565"/>
<path opacity="0.2216" d="M11.4772 200.264L-86.998 200.15C-87.3641 200.129 -87.6006 200.409 -87.6217 200.775C-87.6427 201.141 -87.3625 201.378 -86.9964 201.4L11.5112 201.589C11.8773 201.61 12.1139 201.33 12.1349 200.964C12.1236 200.522 11.8109 200.21 11.4772 200.264Z" fill="#656565"/>
<path opacity="0.5" d="M17.9841 31.4612L-9.12658 56.4131C-9.39548 56.6179 -9.38415 57.0596 -9.1039 57.2964C-8.89897 57.5655 -8.45754 57.5545 -8.18863 57.3497L18.922 32.3977C19.1585 32.1176 19.1796 31.7513 18.8993 31.5145C18.5114 31.2347 18.1777 31.2887 17.9841 31.4612Z" fill="#656565"/>
<path opacity="0.1557" d="M7.91533 96.0634L27.0659 19.7902C27.1194 19.4994 26.9574 19.1225 26.6666 19.0688C26.3758 19.0151 25.9992 19.1769 25.9457 19.4677L6.76273 95.6656C6.63396 95.9888 6.87128 96.3333 7.19446 96.4624C7.44232 96.6238 7.81896 96.462 7.91533 96.0634Z" fill="#656565"/>
<path opacity="0.2963" d="M18.9963 31.7399L5.93908 -55.5227C5.8848 -55.8566 5.60454 -56.0934 5.19551 -56.0069C4.8618 -55.9529 4.62531 -55.6727 4.71198 -55.2634L17.7692 31.9992C17.8235 32.333 18.1038 32.5698 18.5128 32.4834C18.8465 32.4293 19.0506 32.0738 18.9963 31.7399Z" fill="#656565"/>
<path opacity="0.1664" d="M39.8767 115.82L-68.1406 89.3543C-68.4638 89.2252 -68.808 89.4624 -68.9368 89.7856C-69.0656 90.1088 -68.8283 90.4534 -68.5051 90.5824L39.5122 117.049C39.8354 117.178 40.1796 116.94 40.3084 116.617C40.4048 116.219 40.1674 115.874 39.8767 115.82Z" fill="#656565"/>
<path opacity="0.4036" d="M40.1577 116.058L-8.2864 56.4986C-8.49133 56.2295 -8.93277 56.2405 -9.20167 56.4453C-9.47058 56.6501 -9.49162 57.0164 -9.28669 57.2856L39.1574 116.845C39.3624 117.114 39.7285 117.135 39.9974 116.93C40.3416 116.693 40.3626 116.327 40.1577 116.058Z" fill="#656565"/>
<path opacity="0.3363" d="M17.7801 31.8165L6.67777 95.881C6.65672 96.2472 6.89405 96.5917 7.26016 96.6131C7.55094 96.6667 7.89517 96.4296 7.94862 96.1387L19.0509 32.0743C19.072 31.7081 18.867 31.4389 18.5009 31.4176C18.1453 31.2131 17.8011 31.4503 17.7801 31.8165Z" fill="#656565"/>
<path opacity="0.3179" d="M12.0923 201.071L40.3087 116.617C40.4375 116.294 40.2755 115.917 39.877 115.82C39.5538 115.691 39.2095 115.928 39.0808 116.251L10.8644 200.706C10.7356 201.029 10.9729 201.373 11.2961 201.502C11.5869 201.556 11.9635 201.394 12.0923 201.071Z" fill="#656565"/>
<path opacity="0.3514" d="M-51.8392 48.5967L6.82885 96.4411C7.10911 96.6779 7.51816 96.5915 7.75466 96.3113C7.99117 96.0311 7.90449 95.6218 7.62424 95.385L-51.0868 47.6484C-51.367 47.4116 -51.7007 47.4656 -51.9372 47.7458C-52.0984 47.9937 -52.0117 48.4029 -51.8392 48.5967Z" fill="#656565"/>
<path opacity="0.5" d="M40.0168 115.939L7.62404 95.3845C7.26846 95.1801 6.96715 95.3095 6.73064 95.5897C6.49414 95.8699 6.65614 96.2469 6.9364 96.4837L39.4045 117.006C39.6524 117.167 40.0614 117.081 40.2655 116.725C40.3943 116.402 40.2647 116.1 40.0168 115.939Z" fill="#656565"/>
<path opacity="0.016983" d="M12.0159 200.479L-67.7849 89.5585C-67.9899 89.2893 -68.3884 89.1926 -68.6573 89.3974C-68.9262 89.6023 -69.0226 90.0008 -68.8176 90.27L10.9832 201.19C11.1882 201.459 11.5867 201.556 11.8556 201.351C12.1245 201.146 12.1455 200.78 12.0159 200.479Z" fill="#656565"/>
<path opacity="0.027348" d="M-87.1361 201.281L19.1608 221.253C19.5269 221.274 19.8711 221.037 19.9245 220.746C19.9456 220.38 19.7083 220.036 19.4175 219.982L-86.8469 200.085C-87.213 200.064 -87.4819 200.269 -87.503 200.635C-87.6318 200.958 -87.4268 201.227 -87.1361 201.281Z" fill="#656565"/>
<path opacity="0.4429" d="M11.4452 200.189L-66.2592 201.064C-66.6253 201.043 -66.8618 201.323 -66.8828 201.689C-66.9039 202.056 -66.6236 202.292 -66.2575 202.314L11.4792 201.514C11.8453 201.535 12.0818 201.255 12.1029 200.889C12.1239 200.522 11.8113 200.21 11.4452 200.189Z" fill="#656565"/>
<path opacity="0.1852" d="M4.72237 -55.4465L-9.33108 56.7681C-9.35213 57.1343 -9.14719 57.4034 -8.74869 57.5002C-8.38258 57.5215 -8.11367 57.3167 -8.01729 56.9181L6.03613 -55.2965C6.05718 -55.6627 5.85226 -55.9319 5.45375 -56.0286C5.08764 -56.0499 4.74342 -55.8127 4.72237 -55.4465Z" fill="#656565"/>
<path opacity="0.2617" d="M-10.1443 3.18099L17.9745 32.2688C18.2547 32.5056 18.6209 32.5269 18.8574 32.2467C19.1263 32.0419 19.0396 31.6326 18.8671 31.4388L-9.2088 2.24332C-9.48905 2.00651 -9.85516 1.98518 -10.1241 2.19C-10.4359 2.50256 -10.4245 2.94418 -10.1443 3.18099Z" fill="#656565"/>
<path opacity="0.4431" d="M-68.3968 90.6258L7.26007 96.613C7.62617 96.6343 7.97039 96.3972 7.99144 96.0309C8.01249 95.6647 7.69983 95.3525 7.40905 95.2988L-68.2154 89.3869C-68.5816 89.3656 -68.818 89.6458 -68.8715 89.9367C-69.0003 90.2599 -68.763 90.6045 -68.3968 90.6258Z" fill="#656565"/>
<path opacity="0.2884" d="M-10.1668 2.29775L-51.8613 47.7133C-52.0978 47.9935 -52.0435 48.3274 -51.8386 48.5966C-51.5583 48.8334 -51.2246 48.7793 -50.9557 48.5745L-9.22885 3.23432C-8.99235 2.95412 -8.9713 2.58787 -9.28395 2.27568C-9.59661 1.9635 -9.93031 2.01756 -10.1668 2.29775Z" fill="#656565"/>
<path opacity="0.06567" d="M-65.7299 202.086L7.83045 96.2781C8.06696 95.9979 7.98028 95.5886 7.6247 95.3841C7.34444 95.1473 6.9354 95.2337 6.80663 95.5569L-66.6784 201.333C-66.9149 201.613 -66.8282 202.022 -66.5479 202.259C-66.3001 202.421 -65.8911 202.334 -65.7299 202.086Z" fill="#656565"/>
<path opacity="0.5" d="M-9.30928 57.027L6.69909 96.1395C6.82869 96.441 7.18428 96.6454 7.56091 96.4836C7.86222 96.3542 8.06632 95.9986 7.90431 95.6217L-8.10408 56.5093C-8.23368 56.2078 -8.66458 56.0357 -8.96588 56.1651C-9.31011 56.4023 -9.43888 56.7255 -9.30928 57.027Z" fill="#656565"/>
<path opacity="0.3415" d="M11.3703 200.221L-77.8978 209.279C-78.2315 209.333 -78.5434 209.645 -78.4891 209.979C-78.4348 210.313 -78.1546 210.55 -77.7884 210.571L11.555 201.481C11.8887 201.427 12.1252 201.147 12.1462 200.781C12.092 200.447 11.704 200.167 11.3703 200.221Z" fill="#656565"/>
<path opacity="0.2379" d="M12.0705 200.813L7.92652 95.8798C7.87224 95.5459 7.55959 95.2337 7.22588 95.2878C6.89218 95.3418 6.65568 95.6221 6.60223 95.9129L10.8539 200.889C10.9082 201.223 11.1885 201.46 11.5546 201.481C11.813 201.459 12.1248 201.147 12.0705 200.813Z" fill="#656565"/>
<path opacity="0.092045" d="M-119.523 103.927L7.33464 96.5808C7.66834 96.5267 7.98017 96.2141 7.9259 95.8803C7.87162 95.5464 7.59136 95.3096 7.33298 95.3312L-119.45 102.645C-119.783 102.699 -120.095 103.011 -120.041 103.345C-120.202 103.593 -119.889 103.905 -119.523 103.927Z" fill="#656565"/>
<path opacity="0.3186" d="M-66.3653 202.27L19.1606 221.253C19.5268 221.274 19.871 221.037 19.9244 220.746C19.9455 220.38 19.7406 220.111 19.4174 219.982L-66.0761 201.075C-66.4746 200.978 -66.7435 201.183 -66.8399 201.581C-66.9687 201.905 -66.7314 202.249 -66.3653 202.27Z" fill="#656565"/>
<path opacity="0.4867" d="M-10.3389 2.72861L-9.37374 56.8761C-9.31947 57.21 -9.03921 57.4468 -8.6731 57.4682C-8.3394 57.4141 -8.0705 57.2093 -8.04945 56.843L-8.98224 2.7709C-8.96119 2.40466 -9.27384 2.09247 -9.60755 2.14652C-10.0814 2.08217 -10.3179 2.36236 -10.3389 2.72861Z" fill="#656565"/>
<path opacity="0.4209" d="M-9.02495 2.87874L5.99364 -55.1883C6.12242 -55.5115 5.88509 -55.856 5.56191 -55.9851C5.27113 -56.0388 4.8945 -55.877 4.76572 -55.5538L-10.2529 2.51324C-10.3493 2.91184 -10.1119 3.25637 -9.82115 3.31005C-9.49797 3.43912 -9.15373 3.20196 -9.02495 2.87874Z" fill="#656565"/>
<path opacity="0.5" d="M10.8432 201.072L18.6323 220.855C18.7619 221.156 19.1928 221.328 19.4941 221.199C19.7954 221.07 19.9995 220.714 19.8375 220.337L11.9731 200.587C11.8435 200.285 11.4879 200.081 11.1113 200.243C10.9177 200.415 10.7889 200.738 10.8432 201.072Z" fill="#656565"/>
<path opacity="0.2458" d="M-9.10059 2.91129L18.0433 -86.5294C18.1721 -86.8526 17.9347 -87.1971 17.6116 -87.3262C17.2884 -87.4553 16.9442 -87.2181 16.8154 -86.8949L-10.4038 2.57815C-10.5326 2.90137 -10.2953 3.24589 -9.97212 3.37496C-9.49828 3.43931 -9.12164 3.27753 -9.10059 2.91129Z" fill="#656565"/>
<path opacity="0.3039" d="M-77.8968 210.528L19.2681 221.296C19.6342 221.317 19.9784 221.08 19.9995 220.714C20.0205 220.347 19.7832 220.003 19.4171 219.982L-77.7154 209.289C-78.0815 209.268 -78.3934 209.58 -78.3391 209.914C-78.5003 210.162 -78.263 210.507 -77.8968 210.528Z" fill="#656565"/>
<path opacity="0.1026" d="M19.935 220.563L7.89412 95.8047C7.83985 95.4708 7.52719 95.1586 7.19348 95.2127C6.85978 95.2667 6.54795 95.5793 6.60222 95.9132L18.6107 220.596C18.665 220.93 18.9776 221.242 19.3113 221.188C19.7098 221.285 19.9139 220.93 19.935 220.563Z" fill="#656565"/>
<path opacity="0.2992" d="M-10.3823 2.836L6.55893 96.0205C6.61321 96.3544 6.96878 96.5589 7.30249 96.5048C7.63619 96.4508 7.8403 96.0952 7.78603 95.7613L-9.15519 2.57675C-9.20947 2.24286 -9.59745 1.96304 -9.89876 2.09248C-10.1571 2.11417 -10.4366 2.50211 -10.3823 2.836Z" fill="#656565"/>
<path opacity="0.061074" d="M129.86 61.0919L124.924 41.5123C124.87 41.1784 124.514 40.974 124.18 41.028C123.847 41.0821 123.643 41.4376 123.697 41.7715L128.557 61.3835C128.611 61.7174 129.075 61.9648 129.376 61.8354C129.785 61.749 129.989 61.3934 129.86 61.0919Z" fill="#656565"/>
<path opacity="0.01" d="M11.1558 201.385L125.787 270.642C126.142 270.846 126.551 270.76 126.68 270.436C126.884 270.081 126.798 269.672 126.474 269.543L11.8005 200.393C11.4449 200.189 11.1437 200.318 10.9072 200.598C10.746 200.846 10.8326 201.255 11.1558 201.385Z" fill="#656565"/>
<path opacity="0.034744" d="M129.009 60.5639L7.04262 95.2771C6.70891 95.3312 6.5372 95.7621 6.59148 96.096C6.72108 96.3975 7.07666 96.602 7.41036 96.5479L129.409 61.9101C129.818 61.8237 129.989 61.3927 129.86 61.0912C129.773 60.6819 129.418 60.4775 129.009 60.5639Z" fill="#656565"/>
<path opacity="0.194" d="M11.9313 201.319L23.6286 188.257C23.8651 187.977 23.8537 187.535 23.5735 187.299C23.2932 187.062 22.8518 187.073 22.6153 187.353L10.9828 200.566C10.7463 200.846 10.833 201.255 11.0808 201.417C11.404 201.546 11.7377 201.492 11.9313 201.319Z" fill="#656565"/>
<path opacity="0.1993" d="M126.367 269.499L19.5581 220.1C19.2349 219.971 18.8582 220.133 18.7295 220.456C18.6007 220.779 18.7627 221.156 19.0105 221.317L125.82 270.717C126.143 270.846 126.552 270.759 126.756 270.404C126.853 270.005 126.691 269.628 126.367 269.499Z" fill="#656565"/>
<path opacity="0.045711" d="M23.0019 187.008L-78.0064 209.235C-78.3401 209.29 -78.5442 209.645 -78.4899 209.979C-78.4356 210.313 -78.08 210.517 -77.7463 210.463L23.3267 188.387C23.7358 188.3 23.9075 187.869 23.7779 187.568C23.6912 187.158 23.3356 186.954 23.0019 187.008Z" fill="#656565"/>
<path opacity="0.072685" d="M23.8111 187.643L7.92685 95.88C7.87257 95.5461 7.517 95.3416 7.1833 95.3957C6.84959 95.4497 6.64548 95.8054 6.69976 96.1392L22.5086 187.935C22.5629 188.269 22.9509 188.549 23.2846 188.495C23.6612 188.333 23.8654 187.977 23.8111 187.643Z" fill="#656565"/>
<path opacity="0.090183" d="M-25.5128 41.1271L6.73183 96.2148C6.86143 96.5163 7.25997 96.613 7.6366 96.4512C7.9055 96.2464 8.03426 95.9232 7.87225 95.5462L-24.297 40.4263C-24.5343 40.0817 -24.9328 39.985 -25.2018 40.1898C-25.6213 40.4594 -25.7177 40.8579 -25.5128 41.1271Z" fill="#656565"/>
<path opacity="0.4411" d="M22.4538 187.601L18.5781 220.521C18.5571 220.887 18.7944 221.232 19.1605 221.253C19.5266 221.275 19.7955 221.07 19.8919 220.671L23.7676 187.751C23.7886 187.385 23.5513 187.041 23.1852 187.019C22.8191 186.998 22.4749 187.235 22.4538 187.601Z" fill="#656565"/>
<path opacity="0.3522" d="M-24.2964 41.0507L-9.06831 2.98614C-8.93953 2.66292 -9.10153 2.28603 -9.42471 2.15697C-9.74789 2.0279 -10.1245 2.1897 -10.2533 2.51292L-25.5567 40.6098C-25.6855 40.933 -25.4911 41.3853 -25.1679 41.5144C-24.8018 41.5357 -24.4252 41.3739 -24.2964 41.0507Z" fill="#656565"/>
<path opacity="0.3236" d="M-17.2775 -49.1211L-10.3826 2.83632C-10.3283 3.1702 -10.0157 3.48239 -9.60664 3.39598C-9.27293 3.34192 -8.9611 3.02936 -9.04778 2.6201L-15.8674 -49.3696C-15.9217 -49.7035 -16.2343 -50.0157 -16.6434 -49.9293C-17.0524 -49.8429 -17.2889 -49.5627 -17.2775 -49.1211Z" fill="#656565"/>
<path opacity="0.044765" d="M22.7132 188.204L125.679 270.599C125.96 270.836 126.369 270.749 126.605 270.469C126.842 270.189 126.755 269.78 126.475 269.543L23.5086 187.148C23.2283 186.911 22.7869 186.922 22.5828 187.278C22.3463 187.558 22.4329 187.968 22.7132 188.204Z" fill="#656565"/>
<path opacity="0.026526" d="M-25.4863 167.207L18.8049 221.049C19.0099 221.318 19.4513 221.307 19.7202 221.102C19.9891 220.897 19.9777 220.455 19.7728 220.186L-24.4002 166.204C-24.6375 165.86 -25.079 165.871 -25.4232 166.108C-25.735 166.421 -25.7237 166.862 -25.4863 167.207Z" fill="#656565"/>
<path opacity="0.4076" d="M-17.2664 -49.3044L-25.5995 40.7175C-25.6206 41.0838 -25.3832 41.4283 -25.0171 41.4496C-24.651 41.471 -24.3068 41.2338 -24.2857 40.8676L-15.8773 -49.1867C-15.8562 -49.553 -16.0936 -49.8975 -16.535 -49.8865C-16.9011 -49.9078 -17.2454 -49.6706 -17.2664 -49.3044Z" fill="#656565"/>
<path opacity="0.5" d="M-25.2385 167.368L22.8532 188.322C23.1763 188.451 23.6607 188.333 23.7571 187.934C23.8859 187.611 23.7992 187.202 23.3683 187.029L-24.648 166.043C-24.9712 165.914 -25.4556 166.032 -25.552 166.431C-25.7561 166.787 -25.5617 167.239 -25.2385 167.368Z" fill="#656565"/>
<path opacity="0.1514" d="M-24.2482 166.764L-24.2101 40.835C-24.189 40.4688 -24.5017 40.1566 -24.9431 40.1676C-25.3092 40.1463 -25.621 40.4589 -25.6421 40.8251L-25.6803 166.754C-25.7013 167.12 -25.3887 167.433 -24.9472 167.422C-24.5811 167.443 -24.2693 167.13 -24.2482 166.764Z" fill="#656565"/>
<path opacity="0.074444" d="M22.4866 187.676L14.3257 302.181C14.3047 302.548 14.5744 302.968 15.0158 302.957C15.3819 302.978 15.7691 302.633 15.7902 302.267L23.8433 187.718C23.8643 187.352 23.627 187.008 23.1856 187.019C22.8194 186.997 22.5076 187.31 22.4866 187.676Z" fill="#656565"/>
<path opacity="0.1619" d="M-24.3818 41.2658L46.1892 -53.4354C46.4257 -53.7156 46.382 -54.2326 46.0264 -54.4371C45.7461 -54.6739 45.2294 -54.6305 45.0253 -54.2749L-25.5134 40.5018C-25.7499 40.782 -25.6308 41.2666 -25.3829 41.428C-25.0273 41.6325 -24.6183 41.546 -24.3818 41.2658Z" fill="#656565"/>
<path opacity="0.034458" d="M-89.1331 393.241L15.5427 302.731C15.8545 302.418 15.8431 301.977 15.5629 301.74C15.2826 301.503 14.8841 301.406 14.5399 301.643L-90.1034 392.229C-90.3723 392.433 -90.4363 392.907 -90.1236 393.22C-89.8434 393.456 -89.4449 393.553 -89.1331 393.241Z" fill="#656565"/>
<path opacity="0.087062" d="M-25.6161 166.905L14.3471 302.44C14.4338 302.85 14.8647 303.022 15.2737 302.935C15.6828 302.849 15.8545 302.418 15.7678 302.009L-24.2708 166.506C-24.4328 166.129 -24.7883 165.925 -25.165 166.087C-25.574 166.173 -25.7457 166.604 -25.6161 166.905Z" fill="#656565"/>
<path opacity="0.018744" d="M84.0749 -31.311L-32.9636 -15.8601C-33.3727 -15.7737 -33.6092 -15.4935 -33.5978 -15.0519C-33.5111 -14.6426 -33.2309 -14.4058 -32.7895 -14.4168L84.2815 -29.7924C84.6905 -29.8788 84.9699 -30.2667 84.8832 -30.676C84.8719 -31.1176 84.4839 -31.3974 84.0749 -31.311Z" fill="#656565"/>
<path opacity="0.056221" d="M14.3257 302.182L5.63986 443.078C5.65121 443.519 5.96386 443.832 6.36237 443.928C6.8038 443.917 7.11564 443.605 7.21201 443.206L15.8225 302.343C15.8436 301.977 15.5738 301.557 15.1324 301.568C14.6261 301.428 14.3143 301.74 14.3257 302.182Z" fill="#656565"/>
<path opacity="0.2067" d="M-109.626 374.004L6.0068 443.723C6.36239 443.928 6.84674 443.809 7.05084 443.453C7.25494 443.098 7.13588 442.613 6.7803 442.409L-108.853 372.689C-109.208 372.484 -109.693 372.603 -109.897 372.959C-110.101 373.314 -109.982 373.799 -109.626 374.004Z" fill="#656565"/>
<path opacity="0.2429" d="M27.5847 12.6913L53.2994 -25.681L31.2856 -46.5861L27.5847 12.6913Z" fill="#656565"/>
<path opacity="0.2392" d="M18.3618 31.9237L-8.74886 56.8756L26.4102 19.7148L18.3618 31.9237Z" fill="#656565"/>
<path opacity="0.1923" d="M-51.4096 48.1437L-8.75 56.8756L7.226 95.9126L-51.4096 48.1437Z" fill="#656565"/>
<path opacity="0.1917" d="M39.6948 116.434L-8.74938 56.8752L7.22663 95.9123L39.6948 116.434Z" fill="#656565"/>
<path opacity="0.1875" d="M-8.74902 56.8755L-68.3222 89.9683L7.22699 95.9126L-8.74902 56.8755Z" fill="#656565"/>
<path opacity="0.072195" d="M11.4786 200.889L-66.2582 201.689L19.2677 220.671L11.4786 200.889Z" fill="#656565"/>
<path opacity="0.2246" d="M-16.5342 -49.2612L-24.9427 40.7931L-32.9304 -15.1599L-16.5342 -49.2612Z" fill="#656565"/>
<path d="M0 8.00002C0 3.58174 3.58172 0 8 0H216V700H8C3.58172 700 0 696.418 0 692V8.00002Z" fill="url(#paint0_linear)"/>
</g>
<defs>
<linearGradient id="paint0_linear" x1="0" y1="700" x2="265.207" y2="680.832" gradientUnits="userSpaceOnUse">
<stop stop-color="#090909" stop-opacity="0.6"/>
<stop offset="1" stop-color="#090909" stop-opacity="0.8"/>
</linearGradient>
<clipPath id="clip0">
<rect width="670" height="700" rx="8" fill="white"/>
</clipPath>
</defs>
</svg>
