<svg width="342" height="824" viewBox="0 0 342 824" fill="none" xmlns="http://www.w3.org/2000/svg">
<g clip-path="url(#clip0)">
<path opacity="0.5" d="M91.4471 113.867C90.7079 114.813 89.3429 114.98 88.3983 114.241C87.4538 113.502 87.2873 112.137 88.0265 111.192C88.7657 110.246 90.1307 110.079 91.0753 110.818C92.0199 111.557 92.1864 112.922 91.4471 113.867Z" fill="#616161"/>
<path opacity="0.5" d="M167.863 201.915C167.087 202.908 165.654 203.084 164.662 202.308C163.67 201.532 163.496 200.099 164.272 199.106C165.048 198.113 166.481 197.937 167.473 198.713C168.465 199.489 168.64 200.923 167.863 201.915Z" fill="#616161"/>
<path opacity="0.5" d="M140.825 182.559C140.049 183.551 138.616 183.727 137.624 182.951C136.632 182.176 136.457 180.742 137.233 179.749C138.009 178.757 139.443 178.581 140.435 179.357C141.426 180.133 141.601 181.566 140.825 182.559Z" fill="#616161"/>
<path opacity="0.5" d="M116.448 308.736C115.645 309.763 115.812 311.135 116.838 311.938C117.865 312.74 119.237 312.572 120.04 311.545C120.843 310.518 120.59 309.079 119.649 308.343C118.775 307.522 117.251 307.709 116.448 308.736Z" fill="#616161"/>
<path opacity="0.5" d="M25.1 373.563C24.2969 374.59 24.4828 376.114 25.509 376.917C26.5352 377.72 27.9741 377.466 28.7772 376.439C29.5803 375.412 29.3943 373.887 28.4536 373.151C27.3605 372.434 25.903 372.536 25.1 373.563Z" fill="#616161"/>
<path opacity="0.5" d="M1.90501 100.243C1.10192 101.27 1.28786 102.795 2.31406 103.597C3.34026 104.4 4.86466 104.213 5.66775 103.186C6.47083 102.159 6.2849 100.634 5.2587 99.8315C4.16558 99.1144 2.70809 99.2157 1.90501 100.243Z" fill="#616161"/>
<path opacity="0.5" d="M68.3994 126.598C67.5963 127.625 67.7823 129.15 68.8085 129.953C69.8347 130.755 71.3591 130.568 72.1621 129.541C72.9652 128.514 72.7793 126.99 71.7531 126.187C70.7269 125.384 69.2025 125.571 68.3994 126.598Z" fill="#616161"/>
<path opacity="0.5" d="M187.545 126.688C186.742 127.715 186.928 129.239 187.954 130.042C188.981 130.845 190.505 130.658 191.308 129.631C192.111 128.604 191.925 127.079 190.899 126.276C189.873 125.474 188.348 125.661 187.545 126.688Z" fill="#616161"/>
<path opacity="0.5" d="M173.789 121.721C172.986 122.748 173.171 124.272 174.198 125.075C175.224 125.878 176.748 125.691 177.551 124.664C178.354 123.637 178.168 122.112 177.142 121.309C176.116 120.507 174.592 120.694 173.789 121.721Z" fill="#616161"/>
<path opacity="0.5" d="M7.66094 134.126C6.85786 135.153 6.97686 136.763 8.08858 137.633C9.11478 138.435 10.7247 138.315 11.5947 137.203C12.3978 136.176 12.2788 134.565 11.1671 133.696C10.0554 132.826 8.46402 133.099 7.66094 134.126Z" fill="#616161"/>
<path opacity="0.5" d="M20.5345 403.371C19.7314 404.398 19.8504 406.008 20.9621 406.878C22.0738 407.747 23.5982 407.56 24.4682 406.448C25.3382 405.335 25.1523 403.81 24.0406 402.941C22.9289 402.071 21.3376 402.344 20.5345 403.371Z" fill="#616161"/>
<path opacity="0.5" d="M206.07 388.354C205.2 389.467 205.386 390.992 206.498 391.861C207.61 392.731 209.134 392.544 210.004 391.431C210.874 390.319 210.688 388.794 209.577 387.924C208.55 387.122 206.941 387.242 206.07 388.354Z" fill="#616161"/>
<path opacity="0.5" d="M63.3421 618.651C62.4721 619.763 62.658 621.288 63.7697 622.158C64.8814 623.027 66.4058 622.84 67.2758 621.728C68.1458 620.615 67.96 619.09 66.8482 618.221C65.7365 617.351 64.2121 617.538 63.3421 618.651Z" fill="#616161"/>
<path opacity="0.5" d="M146.139 221.061C145.269 222.174 145.455 223.699 146.567 224.568C147.678 225.438 149.203 225.251 150.073 224.138C150.943 223.026 150.757 221.501 149.645 220.631C148.533 219.762 147.009 219.949 146.139 221.061Z" fill="#616161"/>
<path opacity="0.5" d="M108.885 129.99C108.015 131.103 108.22 132.78 109.332 133.649C110.443 134.519 112.035 134.246 112.905 133.134C113.775 132.021 113.589 130.496 112.477 129.627C111.28 128.69 109.755 128.877 108.885 129.99Z" fill="#616161"/>
<path opacity="0.5" d="M122.501 629.888C121.631 631.001 121.835 632.678 122.947 633.548C124.059 634.417 125.736 634.211 126.606 633.099C127.476 631.986 127.271 630.309 126.159 629.439C124.962 628.503 123.371 628.775 122.501 629.888Z" fill="#616161"/>
<path opacity="0.5" d="M156.352 731.126C155.415 732.324 155.687 733.916 156.799 734.785C157.91 735.655 159.587 735.449 160.457 734.337C161.394 733.138 161.123 731.547 160.011 730.677C158.966 729.722 157.289 729.928 156.352 731.126Z" fill="#616161"/>
<path opacity="0.5" d="M115.342 552.15C114.405 553.348 114.61 555.025 115.807 555.962C117.004 556.898 118.681 556.693 119.618 555.494C120.555 554.296 120.35 552.619 119.153 551.683C118.041 550.813 116.279 550.952 115.342 552.15Z" fill="#616161"/>
<path opacity="0.5" d="M7.61622 657.133C6.67929 658.331 6.88382 660.008 8.08107 660.945C9.27832 661.881 10.9552 661.676 11.8921 660.477C12.829 659.279 12.6245 657.602 11.4273 656.665C10.23 655.729 8.55315 655.935 7.61622 657.133Z" fill="#616161"/>
<path opacity="0.5" d="M58.2528 143.628C57.3159 144.826 57.5204 146.504 58.7177 147.44C59.9149 148.376 61.5918 148.171 62.5287 146.973C63.4656 145.774 63.2611 144.097 62.0639 143.161C60.9335 142.139 59.1897 142.43 58.2528 143.628Z" fill="#616161"/>
<path opacity="0.5" d="M112.432 240.903C111.495 242.101 111.699 243.778 112.896 244.715C114.094 245.651 115.77 245.446 116.707 244.247C117.644 243.049 117.44 241.372 116.243 240.435C115.045 239.499 113.368 239.705 112.432 240.903Z" fill="#616161"/>
<path opacity="0.5" d="M130.461 627.287C129.524 628.485 129.729 630.163 130.926 631.099C132.123 632.036 133.8 631.83 134.737 630.632C135.674 629.433 135.47 627.756 134.272 626.82C133.075 625.883 131.398 626.089 130.461 627.287Z" fill="#616161"/>
<path opacity="0.5" d="M58.9396 239.338C58.0027 240.537 58.2072 242.214 59.4044 243.15C60.6017 244.087 62.2785 243.881 63.2155 242.683C64.1524 241.485 63.9479 239.807 62.7506 238.871C61.5534 237.935 59.8765 238.14 58.9396 239.338Z" fill="#616161"/>
<path opacity="0.5" d="M130.651 272.947C129.714 274.146 129.851 275.908 131.134 276.912C132.331 277.848 134.008 277.643 135.012 276.359C136.016 275.075 135.745 273.483 134.547 272.547C133.417 271.525 131.588 271.749 130.651 272.947Z" fill="#616161"/>
<path opacity="0.5" d="M62.9906 1.67674C62.0537 2.87494 62.2582 4.55217 63.541 5.55552C64.7382 6.49197 66.4151 6.28632 67.352 5.08812C68.2889 3.88992 68.0844 2.2127 66.8871 1.27624C65.6044 0.272899 63.9275 0.478549 62.9906 1.67674Z" fill="#616161"/>
<path opacity="0.5" d="M27.4931 142.603C26.5562 143.801 26.6938 145.564 27.9766 146.568C29.1739 147.504 30.9362 147.365 31.9401 146.082C32.877 144.883 32.7394 143.12 31.4567 142.117C30.2594 141.181 28.497 141.319 27.4931 142.603Z" fill="#616161"/>
<path opacity="0.5" d="M193.922 294.437C192.985 295.635 193.208 297.465 194.405 298.401C195.602 299.338 197.432 299.113 198.369 297.915C199.306 296.717 199.082 294.887 197.885 293.951C196.688 293.014 194.926 293.153 193.922 294.437Z" fill="#616161"/>
<path opacity="0.5" d="M223.031 315.551C222.094 316.749 222.317 318.579 223.515 319.515C224.712 320.452 226.541 320.227 227.478 319.029C228.415 317.831 228.192 316.001 226.995 315.065C225.797 314.128 223.968 314.353 223.031 315.551Z" fill="#616161"/>
<path opacity="0.5" d="M43.5393 261.5C42.6023 262.698 42.8255 264.528 44.0227 265.465C45.2199 266.401 47.0493 266.177 47.9862 264.978C48.9231 263.78 48.7 261.951 47.5027 261.014C46.3055 260.078 44.4762 260.302 43.5393 261.5Z" fill="#616161"/>
<path opacity="0.5" d="M11.4811 715.466C10.5442 716.665 10.7673 718.494 11.9645 719.431C13.1618 720.367 14.9911 720.143 15.928 718.945C16.8649 717.747 16.6417 715.917 15.4445 714.98C14.2473 714.044 12.418 714.268 11.4811 715.466Z" fill="#616161"/>
<path opacity="0.5" d="M280.26 689.698C279.323 690.896 279.546 692.726 280.743 693.662C281.941 694.599 283.77 694.374 284.707 693.176C285.644 691.978 285.421 690.148 284.224 689.212C283.093 688.19 281.264 688.414 280.26 689.698Z" fill="#616161"/>
<path opacity="0.5" d="M35.162 391.363C34.225 392.562 34.4482 394.391 35.6454 395.328C36.8427 396.264 38.6719 396.04 39.6089 394.842C40.6127 393.558 40.3227 391.814 39.1255 390.877C37.9282 389.941 36.0989 390.165 35.162 391.363Z" fill="#616161"/>
<path opacity="0.5" d="M10.3905 164.123C9.45354 165.321 9.67662 167.151 10.8739 168.087C12.0711 169.024 13.9004 168.799 14.8373 167.601C15.8412 166.317 15.5511 164.573 14.3539 163.637C13.1567 162.7 11.3274 162.925 10.3905 164.123Z" fill="#616161"/>
<path opacity="0.5" d="M86.7044 337.609C85.7435 338.838 83.9689 339.055 82.741 338.095C81.513 337.134 81.2966 335.359 82.2575 334.131C83.2185 332.902 84.993 332.684 86.221 333.644C87.449 334.605 87.6654 336.38 86.7044 337.609Z" fill="#616161"/>
<path opacity="0.5" d="M-5.45783 68.4149C-6.46169 69.6987 -6.17166 71.4428 -4.88889 72.4462C-3.60613 73.4496 -1.86234 73.1583 -0.925406 71.9601C0.0115277 70.7619 -0.144672 68.8465 -1.34192 67.9101C-2.62468 66.9067 -4.45397 67.1311 -5.45783 68.4149Z" fill="#616161"/>
<path opacity="0.5" d="M177.692 297.742C176.689 299.026 176.979 300.77 178.261 301.774C179.544 302.777 181.373 302.553 182.31 301.355C183.314 300.071 183.091 298.241 181.808 297.238C180.526 296.234 178.696 296.459 177.692 297.742Z" fill="#616161"/>
<path opacity="0.5" d="M67.4758 759.127C66.4719 760.411 66.695 762.24 67.9778 763.244C69.2606 764.247 71.0899 764.023 72.0937 762.739C73.0976 761.455 72.8744 759.625 71.5917 758.622C70.3089 757.619 68.4796 757.843 67.4758 759.127Z" fill="#616161"/>
<path opacity="0.5" d="M34.8288 129.168C33.8249 130.452 34.0481 132.282 35.3308 133.285C36.6136 134.289 38.4429 134.064 39.4468 132.78C40.4506 131.497 40.2275 129.667 38.9447 128.663C37.5764 127.593 35.8326 127.884 34.8288 129.168Z" fill="#616161"/>
<path opacity="0.5" d="M183.349 365.064C182.345 366.348 182.568 368.178 183.851 369.181C185.134 370.185 186.963 369.96 187.967 368.676C188.971 367.393 188.748 365.563 187.465 364.559C186.182 363.556 184.353 363.78 183.349 365.064Z" fill="#616161"/>
<path opacity="0.5" d="M37.7343 550.758C36.7305 552.041 36.9536 553.871 38.2363 554.875C39.5191 555.878 41.3484 555.654 42.3523 554.37C43.3561 553.086 43.133 551.256 41.8502 550.253C40.5675 549.249 38.7382 549.474 37.7343 550.758Z" fill="#616161"/>
<path opacity="0.5" d="M68.3472 294.284C67.3434 295.568 67.5665 297.398 68.8493 298.401C70.132 299.405 71.9614 299.18 72.9652 297.896C73.9691 296.613 73.7459 294.783 72.4632 293.78C71.1804 292.776 69.3511 293.001 68.3472 294.284Z" fill="#616161"/>
<path opacity="0.5" d="M10.0114 345.622C9.00757 346.906 9.23073 348.735 10.5135 349.739C11.7963 350.742 13.6256 350.518 14.6294 349.234C15.6333 347.95 15.4101 346.12 14.1274 345.117C12.9301 344.181 11.0153 344.338 10.0114 345.622Z" fill="#616161"/>
<path opacity="0.5" d="M24.9697 704.914C23.9658 706.197 24.189 708.027 25.4717 709.031C26.7545 710.034 28.5838 709.81 29.5877 708.526C30.5916 707.242 30.3684 705.412 29.0856 704.409C27.8698 703.32 25.9736 703.63 24.9697 704.914Z" fill="#616161"/>
<path opacity="0.5" d="M211.523 300.48C210.519 301.764 210.742 303.594 212.025 304.597C213.308 305.6 215.137 305.376 216.141 304.092C217.145 302.809 216.922 300.979 215.639 299.975C214.356 298.972 212.527 299.196 211.523 300.48Z" fill="#616161"/>
<path opacity="0.5" d="M126.976 74.0702C125.973 75.354 126.129 77.2693 127.497 78.3396C128.78 79.3429 130.695 79.1855 131.765 77.8161C132.769 76.5323 132.613 74.617 131.245 73.5468C129.962 72.5434 127.98 72.7864 126.976 74.0702Z" fill="#616161"/>
<path opacity="0.5" d="M177.491 815.662C176.488 816.945 176.644 818.861 178.012 819.931C179.295 820.934 181.21 820.777 182.28 819.407C183.284 818.124 183.128 816.208 181.76 815.138C180.41 814.22 178.495 814.378 177.491 815.662Z" fill="#616161"/>
<path opacity="0.5" d="M326.259 469.95C325.224 471.274 323.313 471.508 321.991 470.474C320.669 469.439 320.435 467.528 321.47 466.205C322.505 464.881 324.416 464.647 325.739 465.681C327.061 466.715 327.294 468.627 326.259 469.95Z" fill="#616161"/>
<path opacity="0.5" d="M212.986 353.073C211.982 354.357 212.138 356.272 213.506 357.343C214.789 358.346 216.704 358.189 217.775 356.819C218.778 355.535 218.622 353.62 217.254 352.55C215.904 351.632 213.989 351.789 212.986 353.073Z" fill="#616161"/>
<path opacity="0.5" d="M147.874 128.072C146.87 129.356 147.026 131.271 148.394 132.341C149.677 133.344 151.592 133.187 152.663 131.818C153.667 130.534 153.51 128.618 152.142 127.548C150.774 126.478 148.878 126.788 147.874 128.072Z" fill="#616161"/>
<path opacity="0.5" d="M232.077 814.771C231.006 816.14 231.314 818.037 232.597 819.04C233.88 820.044 235.795 819.886 236.866 818.517C237.87 817.233 237.628 815.251 236.345 814.247C235.062 813.244 233.081 813.487 232.077 814.771Z" fill="#616161"/>
<path opacity="0.5" d="M64.7951 754.271C63.7243 755.641 63.9474 757.471 65.3157 758.541C66.5984 759.544 68.5801 759.301 69.584 758.017C70.5878 756.733 70.3462 754.751 69.0634 753.748C67.7807 752.745 65.7989 752.988 64.7951 754.271Z" fill="#616161"/>
<path opacity="0.5" d="M28.8398 703.665C27.769 705.034 28.0776 706.931 29.3604 707.934C30.7286 709.005 32.6249 708.695 33.6287 707.411C34.6995 706.041 34.3909 704.145 33.1081 703.141C31.8253 702.138 29.8436 702.381 28.8398 703.665Z" fill="#616161"/>
<path opacity="0.5" d="M227.175 72.3051C226.105 73.6745 226.413 75.5711 227.696 76.5745C229.064 77.6447 230.96 77.3348 231.964 76.051C233.035 74.6816 232.726 72.785 231.444 71.7816C230.075 70.7114 228.246 70.9357 227.175 72.3051Z" fill="#616161"/>
<path opacity="0.5" d="M261.18 358.769C260.109 360.139 260.418 362.035 261.7 363.039C262.983 364.042 265.05 363.866 266.054 362.582C267.125 361.213 266.816 359.316 265.448 358.246C264.08 357.176 262.184 357.486 261.18 358.769Z" fill="#616161"/>
<path opacity="0.5" d="M154.272 294.734C153.201 296.103 153.443 298.086 154.811 299.156C156.18 300.226 158.161 299.983 159.232 298.614C160.303 297.244 160.061 295.262 158.693 294.192C157.325 293.122 155.343 293.365 154.272 294.734Z" fill="#616161"/>
<path opacity="0.5" d="M9.44437 785.047C8.37359 786.417 8.61532 788.399 9.98359 789.469C11.3519 790.54 13.3336 790.296 14.4044 788.927C15.4751 787.558 15.2334 785.576 13.8652 784.505C12.4969 783.435 10.5151 783.678 9.44437 785.047Z" fill="#616161"/>
<path opacity="0.5" d="M177.642 407.085C176.571 408.454 176.813 410.436 178.181 411.506C179.55 412.577 181.531 412.334 182.602 410.964C183.673 409.595 183.431 407.613 182.063 406.542C180.695 405.472 178.713 405.715 177.642 407.085Z" fill="#616161"/>
<path opacity="0.5" d="M74.3692 769.347C73.2985 770.716 73.5402 772.698 74.994 773.835C76.3623 774.906 78.344 774.663 79.4147 773.293C80.4855 771.924 80.2439 769.942 78.8756 768.871C77.4218 767.734 75.44 767.977 74.3692 769.347Z" fill="#616161"/>
<path opacity="0.5" d="M237.614 305.715C236.476 307.169 236.803 309.219 238.171 310.289C239.625 311.426 241.674 311.097 242.745 309.728C243.882 308.273 243.555 306.224 242.187 305.154C240.733 304.017 238.751 304.26 237.614 305.715Z" fill="#616161"/>
<path opacity="0.5" d="M45.0231 262.247C43.8854 263.702 44.1457 265.837 45.5995 266.974C47.0533 268.111 49.1876 267.849 50.3253 266.394C51.463 264.939 51.2026 262.804 49.7488 261.667C48.295 260.53 46.1608 260.792 45.0231 262.247Z" fill="#616161"/>
<path opacity="0.5" d="M13.5011 274.006C12.3634 275.461 12.6236 277.595 14.0774 278.732C15.5312 279.87 17.6654 279.608 18.8031 278.153C19.9408 276.698 19.6805 274.563 18.2267 273.426C16.7729 272.289 14.6388 272.551 13.5011 274.006Z" fill="#616161"/>
<path opacity="0.5" d="M328.923 189.822C327.785 191.277 327.979 193.497 329.518 194.701C330.972 195.839 333.191 195.644 334.396 194.103C335.534 192.648 335.34 190.428 333.801 189.224C332.195 188.106 330.061 188.367 328.923 189.822Z" fill="#616161"/>
<path opacity="0.5" d="M92.7628 586.489C91.5582 588.03 91.8186 590.164 93.3579 591.369C94.8972 592.573 97.0314 592.311 98.236 590.77C99.4406 589.23 99.1803 587.095 97.641 585.891C96.1872 584.754 93.9675 584.949 92.7628 586.489Z" fill="#616161"/>
<path opacity="0.5" d="M148.481 183.168C147.276 184.708 147.555 186.995 149.095 188.199C150.634 189.403 152.921 189.123 154.125 187.582C155.33 186.042 155.051 183.755 153.512 182.551C151.905 181.432 149.619 181.713 148.481 183.168Z" fill="#616161"/>
<path opacity="0.5" d="M105.156 799.773C103.884 801.399 104.163 803.686 105.788 804.957C107.413 806.228 109.7 805.947 110.971 804.321C112.243 802.695 111.964 800.408 110.339 799.137C108.714 797.866 106.428 798.147 105.156 799.773Z" fill="#616161"/>
<path opacity="0.5" d="M207.757 662.919C206.486 664.546 206.783 666.985 208.408 668.256C210.033 669.527 212.472 669.228 213.743 667.602C215.015 665.976 214.717 663.536 213.093 662.265C211.468 660.994 209.029 661.293 207.757 662.919Z" fill="#616161"/>
<path opacity="0.5" d="M181.796 595.301C180.525 596.927 180.822 599.367 182.447 600.638C184.072 601.909 186.511 601.61 187.782 599.984C189.054 598.357 188.756 595.918 187.132 594.647C185.421 593.309 183.135 593.589 181.796 595.301Z" fill="#616161"/>
<path opacity="0.5" d="M122.022 490.201C120.75 491.827 121.048 494.267 122.673 495.538C124.297 496.809 126.737 496.509 128.008 494.883C129.28 493.257 128.982 490.818 127.357 489.547C125.714 488.123 123.36 488.489 122.022 490.201Z" fill="#616161"/>
<path opacity="0.5" d="M139.364 180.727L166.402 200.083C166.659 200.283 166.782 200.655 166.514 200.998C166.313 201.254 165.941 201.377 165.685 201.177L138.646 181.821C138.39 181.62 138.267 181.248 138.468 180.991C138.65 180.582 139.022 180.459 139.364 180.727Z" fill="#656565"/>
<path opacity="0.1933" d="M-31.5548 94.2098L-37.892 197.668C-37.9217 198.059 -38.208 198.249 -38.5129 198.286C-38.9033 198.257 -39.0929 197.97 -39.1301 197.665L-32.793 94.2069C-32.7632 93.8163 -32.4769 93.6265 -32.172 93.5891C-31.8672 93.5517 -31.592 93.9048 -31.5548 94.2098Z" fill="#656565"/>
<path opacity="0.085119" d="M70.6161 127.643L139.365 180.727C139.621 180.928 139.677 181.385 139.476 181.642C139.275 181.899 138.904 182.022 138.562 181.754L69.813 128.67C69.5565 128.469 69.4338 128.097 69.7015 127.755C69.9692 127.413 70.3596 127.442 70.6161 127.643Z" fill="#656565"/>
<path opacity="0.1194" d="M4.28014 101.963L-38.026 197.839C-38.1412 198.163 -38.5131 198.286 -38.8365 198.171C-39.16 198.056 -39.2827 197.684 -39.1675 197.36L3.13866 101.484C3.25391 101.16 3.62572 101.037 3.9492 101.152C4.35819 101.334 4.48091 101.706 4.28014 101.963Z" fill="#656565"/>
<path opacity="0.099722" d="M26.5361 374.547L117.951 309.634C118.238 309.444 118.628 309.474 118.818 309.76C119.007 310.047 118.977 310.437 118.691 310.627L27.276 375.539C26.9897 375.729 26.5994 375.7 26.4097 375.413C26.287 375.041 26.4023 374.718 26.5361 374.547Z" fill="#656565"/>
<path opacity="0.5" d="M-32.0191 93.5708L3.94974 101.153C4.27322 101.268 4.46284 101.554 4.34759 101.878C4.23234 102.202 3.94604 102.392 3.62257 102.277L-32.3463 94.6942C-32.6698 94.5791 -32.8594 94.2929 -32.7442 93.9692C-32.6958 93.7312 -32.4095 93.5413 -32.0191 93.5708Z" fill="#656565"/>
<path opacity="0.1234" d="M-32.0191 93.5708L70.4447 127.509C70.7681 127.624 70.8908 127.996 70.8425 128.234C70.7272 128.558 70.4409 128.747 70.1175 128.632L-32.3463 94.6942C-32.6697 94.5792 -32.7925 94.2073 -32.6772 93.8837C-32.6289 93.6456 -32.3426 93.4557 -32.0191 93.5708Z" fill="#656565"/>
<path opacity="0.1138" d="M26.4947 375.481L-60.1049 297.813C-60.3615 297.612 -60.3318 297.221 -60.131 296.965C-59.9302 296.708 -59.5398 296.737 -59.2833 296.938L27.3163 374.606C27.5729 374.807 27.5432 375.197 27.3424 375.454C27.1416 375.711 26.7512 375.681 26.4947 375.481Z" fill="#656565"/>
<path opacity="0.4586" d="M3.95007 101.153L70.445 127.509C70.7685 127.624 70.8912 127.995 70.7759 128.319C70.6607 128.643 70.2888 128.766 69.9654 128.651L3.47045 102.295C3.14698 102.18 3.02428 101.808 3.13954 101.484C3.34031 101.228 3.6266 101.038 3.95007 101.153Z" fill="#656565"/>
<path opacity="0.01" d="M-31.7626 93.7714L10.115 135.217C10.3716 135.418 10.3418 135.809 10.1411 136.065C9.9403 136.322 9.54992 136.293 9.29337 136.092L-32.5174 94.5603C-32.7739 94.3597 -32.7442 93.9692 -32.5435 93.7124C-32.4096 93.5412 -31.9523 93.4851 -31.7626 93.7714Z" fill="#656565"/>
<path opacity="0.2171" d="M26.6662 375.615L-42.8443 335.314C-43.1009 335.113 -43.2236 334.741 -43.0228 334.485C-42.822 334.228 -42.4502 334.105 -42.1937 334.305L27.2313 374.539C27.4878 374.74 27.6105 375.112 27.4097 375.369C27.3614 375.607 26.9896 375.73 26.6662 375.615Z" fill="#656565"/>
<path opacity="0.1992" d="M27.2756 375.54L-33.8824 411.98C-34.1686 412.17 -34.4921 412.055 -34.6818 411.768C-34.8714 411.482 -34.7561 411.158 -34.4698 410.969L26.6881 374.528C26.9744 374.338 27.2979 374.453 27.4876 374.74C27.6772 375.026 27.5619 375.35 27.2756 375.54Z" fill="#656565"/>
<path opacity="0.068931" d="M70.2075 127.461L189.439 127.618C189.744 127.58 190.019 127.933 190.056 128.238C190.093 128.543 189.74 128.819 189.435 128.856L70.2038 128.7C69.8989 128.737 69.6237 128.384 69.5866 128.079C69.7018 127.755 69.9026 127.499 70.2075 127.461Z" fill="#656565"/>
<path opacity="0.1485" d="M70.2073 127.46L175.596 122.582C175.901 122.545 176.243 122.812 176.214 123.203C176.251 123.508 175.983 123.85 175.593 123.821L70.2037 128.699C69.8988 128.736 69.5567 128.469 69.5864 128.078C69.6162 127.687 69.9025 127.498 70.2073 127.46Z" fill="#656565"/>
<path opacity="0.278" d="M21.8738 404.832L26.3534 374.957C26.4687 374.633 26.6695 374.376 27.0599 374.406C27.3833 374.521 27.6399 374.721 27.6101 375.112L23.1305 404.988C23.0153 405.311 22.7289 405.501 22.4241 405.539C22.0337 405.509 21.7585 405.156 21.8738 404.832Z" fill="#656565"/>
<path opacity="0.3407" d="M4.39571 101.639L10.3044 135.503C10.3416 135.807 10.0739 136.15 9.76902 136.187C9.46414 136.225 9.05515 136.043 9.08489 135.652L3.24308 101.703C3.20589 101.398 3.38808 100.989 3.77848 101.018C4.01644 101.067 4.273 101.267 4.39571 101.639Z" fill="#656565"/>
<path opacity="0.2514" d="M70.3559 128.68L9.70293 136.273C9.39804 136.311 9.05598 136.043 9.0188 135.738C8.98161 135.433 9.24932 135.091 9.5542 135.053L70.2072 127.46C70.5121 127.423 70.8542 127.69 70.8914 127.995C70.9285 128.3 70.6608 128.642 70.3559 128.68Z" fill="#656565"/>
<path opacity="0.4254" d="M-34.7859 411.549L-43.1382 334.808C-43.1754 334.503 -42.9077 334.161 -42.6028 334.123C-42.298 334.086 -41.9559 334.353 -41.9187 334.658L-33.5663 411.4C-33.5291 411.704 -33.7968 412.047 -34.1872 412.017C-34.4921 412.055 -34.7487 411.854 -34.7859 411.549Z" fill="#656565"/>
<path opacity="0.5" d="M175.834 122.631L189.677 127.665C190 127.78 190.123 128.152 190.008 128.475C189.892 128.799 189.521 128.922 189.197 128.807L175.354 123.773C175.031 123.658 174.908 123.286 175.024 122.962C175.224 122.705 175.511 122.515 175.834 122.631Z" fill="#656565"/>
<path opacity="0.2782" d="M22.0156 405.357L-42.9297 335.247C-43.1193 334.96 -43.0896 334.57 -42.8888 334.313C-42.6025 334.123 -42.2976 334.086 -42.0411 334.287L22.9042 404.396C23.0939 404.683 23.0641 405.073 22.8633 405.33C22.6626 405.587 22.2722 405.557 22.0156 405.357Z" fill="#656565"/>
<path opacity="0.5" d="M22.5769 405.52L-34.1016 412.085C-34.4065 412.122 -34.7486 411.854 -34.7857 411.549C-34.8229 411.244 -34.5552 410.902 -34.2503 410.865L22.4281 404.3C22.733 404.263 23.0751 404.531 23.1122 404.836C23.1494 405.141 22.8817 405.483 22.5769 405.52Z" fill="#656565"/>
<path opacity="0.27" d="M-34.7863 411.549L-53.9884 316.252C-54.0256 315.947 -53.8434 315.538 -53.5385 315.5C-53.2336 315.463 -52.8246 315.645 -52.7874 315.95L-33.5853 411.247C-33.5481 411.552 -33.7303 411.961 -34.0352 411.998C-34.407 412.121 -34.7305 412.006 -34.7863 411.549Z" fill="#656565"/>
<path opacity="0.1501" d="M21.9299 405.29L-53.9507 316.557C-54.1404 316.271 -54.1106 315.881 -53.9099 315.624C-53.6236 315.434 -53.2332 315.464 -53.0435 315.75L22.8371 404.482C23.0267 404.769 22.997 405.159 22.7962 405.416C22.6624 405.587 22.272 405.557 21.9299 405.29Z" fill="#656565"/>
<path opacity="0.2107" d="M-94.7497 114.573L9.79212 135.102C10.1156 135.217 10.3052 135.503 10.2755 135.894C10.1602 136.218 9.87395 136.407 9.56906 136.445L-94.9728 115.916C-95.2963 115.801 -95.4859 115.515 -95.4561 115.124C-95.4264 114.734 -95.0732 114.458 -94.7497 114.573Z" fill="#656565"/>
<path opacity="0.01" d="M190.007 128.476L148.601 222.849C148.485 223.172 148.114 223.295 147.79 223.18C147.467 223.065 147.344 222.693 147.459 222.37L188.866 127.996C188.981 127.673 189.353 127.55 189.676 127.665C190 127.78 190.189 128.066 190.007 128.476Z" fill="#656565"/>
<path opacity="0.030221" d="M176.232 123.356L148.735 222.677C148.62 223.001 148.333 223.191 147.943 223.162C147.62 223.046 147.344 222.693 147.46 222.37L175.023 122.962C175.139 122.639 175.425 122.449 175.815 122.478C176.157 122.746 176.347 123.032 176.232 123.356Z" fill="#656565"/>
<path opacity="0.064248" d="M110.779 130.919L189.439 127.617C189.743 127.579 190.086 127.847 190.056 128.238C190.093 128.542 189.825 128.885 189.435 128.855L110.861 132.224C110.556 132.262 110.214 131.994 110.243 131.604C110.206 131.299 110.474 130.956 110.779 130.919Z" fill="#656565"/>
<path opacity="0.1551" d="M175.745 123.803L111.013 132.206C110.708 132.243 110.366 131.976 110.244 131.604C110.206 131.299 110.474 130.957 110.846 130.834L175.663 122.497C175.968 122.46 176.31 122.728 176.347 123.033C176.25 123.509 176.05 123.765 175.745 123.803Z" fill="#656565"/>
<path opacity="0.1494" d="M9.5539 135.053L110.779 130.918C111.169 130.948 111.426 131.149 111.481 131.606C111.452 131.997 111.251 132.253 110.861 132.224L9.5502 136.292C9.24532 136.329 8.90326 136.062 8.933 135.671C8.96274 135.281 9.24901 135.091 9.5539 135.053Z" fill="#656565"/>
<path opacity="0.4126" d="M65.3874 619.561L124.613 630.713C124.937 630.828 125.212 631.181 125.096 631.505C124.981 631.829 124.695 632.019 124.305 631.989L65.1458 620.751C64.8223 620.636 64.6327 620.35 64.6624 619.959C64.8632 619.702 65.1495 619.513 65.3874 619.561Z" fill="#656565"/>
<path opacity="0.1084" d="M22.5766 405.52L-57.2913 421.119C-57.6631 421.242 -58.0051 420.974 -58.1278 420.602C-58.2506 420.231 -57.9829 419.888 -57.6111 419.765L22.3423 404.234C22.6472 404.196 23.0562 404.378 23.0934 404.683C23.1492 405.14 22.8815 405.483 22.5766 405.52Z" fill="#656565"/>
<path opacity="0.07125" d="M22.7959 405.416L-39.6819 446.893C-39.9682 447.082 -40.4441 446.986 -40.6337 446.7C-40.8233 446.414 -40.7936 446.023 -40.4404 445.748L22.056 404.423C22.3423 404.233 22.7327 404.263 22.9224 404.549C23.112 404.835 23.0822 405.226 22.7959 405.416Z" fill="#656565"/>
<path opacity="0.3052" d="M111.444 131.301L148.697 222.372C148.82 222.744 148.705 223.067 148.333 223.19C147.961 223.313 147.638 223.198 147.515 222.826L110.262 131.755C110.139 131.383 110.254 131.06 110.626 130.937C110.998 130.814 111.321 130.929 111.444 131.301Z" fill="#656565"/>
<path opacity="0.229" d="M157.814 732.96L123.877 631.655C123.754 631.283 123.936 630.874 124.241 630.836C124.613 630.713 125.022 630.895 125.059 631.2L158.996 732.505C159.119 732.877 158.937 733.286 158.565 733.409C158.26 733.447 157.937 733.331 157.814 732.96Z" fill="#656565"/>
<path opacity="0.1705" d="M118.176 553.814L125.164 631.419C125.201 631.724 124.933 632.066 124.562 632.189C124.257 632.227 123.915 631.959 123.792 631.587L116.737 554.068C116.767 553.678 117.034 553.335 117.425 553.365C117.864 553.156 118.12 553.357 118.176 553.814Z" fill="#656565"/>
<path opacity="0.1027" d="M124.308 630.75L132.354 628.216C132.726 628.093 133.068 628.361 133.191 628.732C133.313 629.104 133.046 629.447 132.674 629.57L124.609 631.951C124.238 632.074 123.896 631.807 123.773 631.435C123.821 631.197 123.936 630.873 124.308 630.75Z" fill="#656565"/>
<path opacity="0.044068" d="M-39.3657 446.312L-41.048 540.998C-41.0777 541.389 -41.431 541.664 -41.8214 541.635C-42.2118 541.605 -42.4869 541.252 -42.5241 540.947L-40.6894 446.243C-40.6596 445.852 -40.3734 445.662 -40.0015 445.539C-39.6781 445.654 -39.336 445.922 -39.3657 446.312Z" fill="#656565"/>
<path opacity="0.088765" d="M157.729 732.893L131.856 629.206C131.734 628.834 132.001 628.492 132.373 628.369C132.745 628.246 133.087 628.514 133.21 628.885L159.015 732.658C159.138 733.03 158.871 733.372 158.499 733.495C158.261 733.447 157.852 733.265 157.729 732.893Z" fill="#656565"/>
<path opacity="0.443" d="M118.157 553.662L133.276 628.799C133.399 629.171 133.065 629.599 132.674 629.569C132.369 629.607 131.96 629.425 131.838 629.053L116.718 553.916C116.596 553.544 116.863 553.201 117.235 553.078C117.778 553.089 118.12 553.357 118.157 553.662Z" fill="#656565"/>
<path opacity="0.2474" d="M-19.4366 -44.3141L65.4447 2.76807C65.8537 2.95004 65.9095 3.40748 65.7087 3.66424C65.5265 4.07347 65.0692 4.12957 64.7457 4.01448L-20.0686 -43.1533C-20.3921 -43.2684 -20.5334 -43.7927 -20.3326 -44.0495C-20.0649 -44.3918 -19.6931 -44.5148 -19.4366 -44.3141Z" fill="#656565"/>
<path opacity="0.2749" d="M113.997 242.955L59.7331 145.614C59.5435 145.327 59.6401 144.851 60.0119 144.728C60.2982 144.538 60.7742 144.635 60.8969 145.007L115.075 242.281C115.265 242.568 115.168 243.044 114.729 243.252C114.596 243.424 114.187 243.242 113.997 242.955Z" fill="#656565"/>
<path opacity="0.1786" d="M9.59465 658.128L132.44 628.283C132.811 628.16 133.154 628.427 133.276 628.799C133.399 629.171 133.131 629.513 132.759 629.636L9.91444 659.482C9.54264 659.604 9.20057 659.337 9.07787 658.965C8.95516 658.593 9.22284 658.251 9.59465 658.128Z" fill="#656565"/>
<path opacity="0.3739" d="M61.0868 145.293L61.7728 241.003C61.7431 241.394 61.4754 241.736 61.085 241.707C60.6946 241.677 60.3525 241.41 60.3823 241.019L59.6962 145.308C59.7259 144.918 59.9936 144.576 60.384 144.605C60.7744 144.635 61.1165 144.902 61.0868 145.293Z" fill="#656565"/>
<path opacity="0.5" d="M114.577 243.271L61.0849 241.706C60.6945 241.677 60.4193 241.324 60.3821 241.019C60.4118 240.628 60.7651 240.353 61.07 240.315L114.562 241.88C114.953 241.909 115.228 242.262 115.198 242.653C115.235 242.958 114.967 243.3 114.577 243.271Z" fill="#656565"/>
<path opacity="0.4084" d="M-44.2851 591.846L10.3276 658.426C10.5172 658.712 10.4875 659.102 10.1343 659.378C9.84798 659.568 9.45757 659.538 9.20102 659.338L-45.4117 592.758C-45.6868 592.405 -45.6571 592.014 -45.3039 591.739C-44.9507 591.463 -44.5602 591.493 -44.2851 591.846Z" fill="#656565"/>
<path opacity="0.1313" d="M9.097 659.118L-42.4865 541.252C-42.6092 540.88 -42.427 540.471 -42.1407 540.281C-41.7689 540.158 -41.3599 540.34 -41.1703 540.626L10.4132 658.492C10.5359 658.864 10.3537 659.273 10.0674 659.463C9.69564 659.586 9.2197 659.49 9.097 659.118Z" fill="#656565"/>
<path opacity="0.086577" d="M59.763 145.222L64.4337 3.35593C64.4634 2.96539 64.8167 2.68995 65.1215 2.65256C65.5119 2.68205 65.7871 3.03519 65.8243 3.34014L61.0681 145.139C61.0384 145.53 60.6851 145.805 60.3803 145.843C60.0085 145.966 59.7333 145.613 59.763 145.222Z" fill="#656565"/>
<path opacity="0.5" d="M115.228 242.262L133.447 274.307C133.637 274.593 133.54 275.069 133.102 275.278C132.815 275.468 132.339 275.371 132.15 275.085L113.931 243.041C113.741 242.754 113.838 242.278 114.124 242.088C114.63 241.794 114.953 241.909 115.228 242.262Z" fill="#656565"/>
<path opacity="0.1389" d="M-32.3198 434.306L-82.762 313.747C-82.8847 313.375 -82.7025 312.965 -82.3307 312.843C-81.9589 312.72 -81.5499 312.902 -81.4272 313.273L-30.985 433.833C-30.8623 434.205 -31.0445 434.614 -31.4163 434.737C-31.7212 434.775 -32.1302 434.593 -32.3198 434.306Z" fill="#656565"/>
<path opacity="0.3959" d="M-11.677 -46.6586L65.5302 2.83497C65.8722 3.10254 65.995 3.4744 65.7273 3.81674C65.4596 4.15909 65.0878 4.28206 64.7457 4.0145L-12.4615 -45.4791C-12.8035 -45.7467 -12.9262 -46.1185 -12.6585 -46.4608C-12.3908 -46.8032 -11.9335 -46.8593 -11.677 -46.6586Z" fill="#656565"/>
<path opacity="0.1025" d="M-73.6084 -0.0641405L65.2065 2.72008C65.5969 2.74958 65.9389 3.01713 65.9092 3.40767C65.8795 3.79821 65.6117 4.14056 65.2213 4.11106L-73.5934 1.32686C-73.9838 1.29736 -74.259 0.944204 -74.2292 0.553665C-74.2664 0.24871 -73.9988 -0.0936375 -73.6084 -0.0641405Z" fill="#656565"/>
<path opacity="0.4887" d="M132.559 275.267L60.8474 241.658C60.4384 241.476 60.3157 241.104 60.4979 240.695C60.6132 240.371 61.0519 240.163 61.4609 240.345L133.172 273.953C133.581 274.135 133.704 274.507 133.522 274.917C133.34 275.326 132.968 275.449 132.559 275.267Z" fill="#656565"/>
<path opacity="0.5" d="M60.3993 145.996L29.725 145.038C29.3346 145.009 29.0595 144.656 29.0223 144.351C29.0521 143.96 29.4053 143.685 29.7101 143.647L60.3844 144.605C60.7748 144.635 61.0499 144.988 61.0871 145.293C61.0574 145.683 60.7897 146.026 60.3993 145.996Z" fill="#656565"/>
<path opacity="0.1171" d="M114.083 243.022L29.2302 144.789C28.955 144.436 28.9848 144.045 29.338 143.77C29.6243 143.58 30.0816 143.524 30.3568 143.877L115.142 242.196C115.418 242.549 115.388 242.939 115.035 243.215C114.748 243.405 114.358 243.375 114.083 243.022Z" fill="#656565"/>
<path opacity="0.3026" d="M-30.9668 433.985L-41.1336 540.931C-41.1633 541.321 -41.5166 541.597 -41.907 541.567C-42.2974 541.538 -42.5725 541.185 -42.5427 540.794L-32.376 433.848C-32.3463 433.458 -31.9931 433.182 -31.6027 433.212C-31.1937 433.394 -30.8516 433.661 -30.9668 433.985Z" fill="#656565"/>
<path opacity="0.3105" d="M60.4865 241.239L29.1261 144.57C29.0034 144.198 29.1856 143.789 29.5574 143.666C29.9292 143.543 30.3381 143.725 30.4608 144.097L61.8213 240.766C61.944 241.138 61.7618 241.547 61.39 241.67C61.0182 241.793 60.6092 241.611 60.4865 241.239Z" fill="#656565"/>
<path opacity="0.3182" d="M195.83 296.757L114.254 243.156C113.912 242.888 113.789 242.517 114.057 242.174C114.324 241.832 114.696 241.709 115.038 241.977L196.681 295.491C197.023 295.759 197.146 296.131 196.878 296.473C196.544 296.901 196.086 296.957 195.83 296.757Z" fill="#656565"/>
<path opacity="0.047551" d="M195.915 296.823L60.847 241.659C60.5235 241.543 60.3153 241.105 60.4974 240.695C60.6127 240.372 61.0514 240.163 61.3749 240.278L196.443 295.443C196.852 295.625 196.975 295.997 196.793 296.406C196.763 296.797 196.324 297.005 195.915 296.823Z" fill="#656565"/>
<path opacity="0.040026" d="M65.8616 3.64611L30.5168 144.554C30.4015 144.878 30.0483 145.153 29.5724 145.057C29.2489 144.942 28.9737 144.589 29.0035 144.198L64.4339 3.35693C64.5491 3.03328 64.9023 2.75784 65.2927 2.78734C65.6831 2.81684 65.8914 3.25557 65.8616 3.64611Z" fill="#656565"/>
<path opacity="0.090083" d="M61.1723 145.36L46.5442 263.299C46.5145 263.69 46.1612 263.965 45.7708 263.936C45.3804 263.906 45.1053 263.553 45.135 263.162L59.8301 145.138C59.8598 144.747 60.2131 144.472 60.6035 144.501C60.9269 144.616 61.2021 144.969 61.1723 145.36Z" fill="#656565"/>
<path opacity="0.092602" d="M114.971 242.062L225.657 316.776C225.999 317.044 226.054 317.501 225.854 317.758C225.586 318.1 225.129 318.156 224.872 317.956L114.187 243.242C113.845 242.974 113.789 242.517 113.99 242.26C114.257 241.917 114.715 241.861 114.971 242.062Z" fill="#656565"/>
<path opacity="0.4516" d="M12.9427 717.299L8.99278 658.899C9.02252 658.508 9.29026 658.166 9.68066 658.195C10.0711 658.225 10.4131 658.492 10.3834 658.883L14.4188 717.351C14.389 717.741 14.1213 718.083 13.7309 718.054C13.4075 717.939 13.0654 717.671 12.9427 717.299Z" fill="#656565"/>
<path opacity="0.3278" d="M114.815 243.318L46.0084 263.983C45.6366 264.106 45.2276 263.924 45.1718 263.467C45.0491 263.095 45.2313 262.685 45.6031 262.562L114.495 241.965C114.867 241.842 115.276 242.024 115.332 242.481C115.369 242.786 115.187 243.196 114.815 243.318Z" fill="#656565"/>
<path opacity="0.5" d="M195.915 296.823L132.644 275.334C132.321 275.219 132.112 274.78 132.228 274.456C132.343 274.133 132.782 273.924 133.105 274.039L196.376 295.529C196.7 295.644 196.908 296.082 196.793 296.406C196.763 296.797 196.324 297.005 195.915 296.823Z" fill="#656565"/>
<path opacity="0.5" d="M61.676 241.479L46.3617 263.708C46.094 264.05 45.6367 264.107 45.3802 263.906C45.0381 263.638 44.9823 263.181 45.1831 262.924L60.5829 240.762C60.8506 240.42 61.2224 240.297 61.5645 240.564C61.8025 240.613 61.9437 241.137 61.676 241.479Z" fill="#656565"/>
<path opacity="0.3405" d="M12.3023 165.204L60.1462 144.557C60.518 144.434 60.927 144.616 61.1166 144.902C61.2393 145.274 61.0571 145.683 60.7708 145.873L13.0125 166.587C12.6407 166.71 12.2317 166.528 12.0421 166.242C11.8338 165.803 12.016 165.394 12.3023 165.204Z" fill="#656565"/>
<path opacity="0.3201" d="M133.105 274.04L225.486 316.643C225.895 316.825 226.017 317.196 225.835 317.606C225.653 318.015 225.281 318.138 224.872 317.956L132.406 275.286C131.997 275.104 131.874 274.732 132.057 274.323C132.41 274.047 132.849 273.839 133.105 274.04Z" fill="#656565"/>
<path opacity="0.1602" d="M59.9045 145.747L-3.72114 70.6007C-3.99629 70.2475 -3.96654 69.857 -3.61333 69.5815C-3.26012 69.3061 -2.86973 69.3356 -2.59458 69.6887L60.9455 144.769C61.2206 145.122 61.1909 145.512 60.8377 145.788C60.5514 145.978 60.0941 146.034 59.9045 145.747Z" fill="#656565"/>
<path opacity="0.1629" d="M14.3702 717.589L-31.8027 813.475C-31.9848 813.884 -32.4422 813.94 -32.7843 813.673C-33.0408 813.472 -33.2304 813.186 -33.0482 812.776L13.0391 716.823C13.2213 716.414 13.6786 716.358 14.0021 716.473C14.4297 716.808 14.5523 717.179 14.3702 717.589Z" fill="#656565"/>
<path opacity="0.2449" d="M13.2724 165.549L61.7355 240.698C61.9251 240.985 61.8285 241.461 61.5422 241.651C61.2559 241.841 60.78 241.744 60.5904 241.458L12.0603 166.394C11.7852 166.041 11.9673 165.632 12.3206 165.357C12.5213 165.1 12.9972 165.196 13.2724 165.549Z" fill="#656565"/>
<path opacity="0.155" d="M115.216 242.805L85.0423 336.033C84.8602 336.442 84.5739 336.632 84.098 336.536C83.689 336.354 83.5663 335.982 83.596 335.592L113.77 242.364C113.885 242.04 114.324 241.832 114.647 241.947C115.209 242.11 115.332 242.482 115.216 242.805Z" fill="#656565"/>
<path opacity="0.3185" d="M132.797 275.315L45.6852 263.868C45.2948 263.839 45.0197 263.486 45.0494 263.095C45.0792 262.705 45.4324 262.429 45.8228 262.459L132.934 273.905C133.324 273.935 133.6 274.288 133.57 274.679C133.473 275.155 133.12 275.43 132.797 275.315Z" fill="#656565"/>
<path opacity="0.1177" d="M13.0466 717.519L-45.5158 592.538C-45.6385 592.166 -45.5419 591.69 -45.1701 591.567C-44.7983 591.444 -44.3893 591.626 -44.1996 591.913L14.3628 716.893C14.4855 717.265 14.3034 717.674 14.0171 717.864C13.6453 717.987 13.2549 717.957 13.0466 717.519Z" fill="#656565"/>
<path opacity="0.021593" d="M-11.2975 -46.0853L-2.38655 70.1277C-2.41629 70.5182 -2.68397 70.8606 -3.14129 70.9166C-3.53169 70.8871 -3.87378 70.6196 -3.91097 70.3146L-12.755 -45.984C-12.7253 -46.3745 -12.4576 -46.7168 -12.0672 -46.6873C-11.6954 -46.8103 -11.3533 -46.5428 -11.2975 -46.0853Z" fill="#656565"/>
<path opacity="0.1997" d="M61.7542 240.851L85.0723 335.643C85.195 336.015 84.8604 336.443 84.5555 336.48C84.1837 336.603 83.6892 336.354 83.7189 335.964L60.4677 241.086C60.345 240.714 60.6127 240.372 60.9845 240.249C61.2894 240.212 61.717 240.546 61.7542 240.851Z" fill="#656565"/>
<path opacity="0.1457" d="M-73.1986 0.11813L-2.67992 69.6219C-2.33785 69.8894 -2.43452 70.3656 -2.70221 70.7079C-2.96991 71.0503 -3.44581 70.9539 -3.70237 70.7532L-74.1542 1.16387C-74.4963 0.896312 -74.3996 0.420171 -74.1988 0.163412C-73.8456 -0.112043 -73.3883 -0.168128 -73.1986 0.11813Z" fill="#656565"/>
<path opacity="0.2219" d="M179.448 300.081L114.101 243.174C113.759 242.907 113.789 242.516 114.057 242.174C114.324 241.831 114.715 241.861 115.057 242.128L180.403 299.035C180.746 299.302 180.801 299.76 180.448 300.035C180.247 300.292 179.79 300.348 179.448 300.081Z" fill="#656565"/>
<path opacity="0.103" d="M10.3275 658.425L70.4251 760.468C70.7002 760.821 70.5181 761.231 70.1649 761.506C69.8117 761.782 69.4027 761.6 69.1275 761.246L9.18238 659.185C8.99275 658.899 9.08939 658.422 9.37567 658.233C9.66196 658.043 10.1379 658.139 10.3275 658.425Z" fill="#656565"/>
<path opacity="0.3173" d="M133.388 275.088L84.9278 336.357C84.6601 336.7 84.2028 336.756 83.8607 336.488C83.5186 336.22 83.5484 335.83 83.7306 335.421L132.276 274.219C132.544 273.876 132.934 273.906 133.276 274.173C133.619 274.441 133.656 274.746 133.388 275.088Z" fill="#656565"/>
<path opacity="0.4029" d="M-31.9744 433.334L37.0732 392.444C37.4264 392.169 37.8354 392.351 38.1105 392.704C38.3857 393.057 38.2035 393.467 37.8502 393.742L-31.2829 434.565C-31.5692 434.755 -32.0451 434.659 -32.3202 434.305C-32.4429 433.934 -32.3276 433.61 -31.9744 433.334Z" fill="#656565"/>
<path opacity="0.1997" d="M65.6609 3.90289L-2.6352 70.6225C-2.98841 70.8979 -3.37881 70.8684 -3.72088 70.6009C-3.99602 70.2477 -3.96628 69.8572 -3.69858 69.5148L64.5975 2.79526C64.9507 2.51981 65.3411 2.5493 65.5977 2.74997C65.8914 3.2556 65.8617 3.64613 65.6609 3.90289Z" fill="#656565"/>
<path opacity="0.2137" d="M45.0009 263.333L29.0217 144.35C28.966 143.893 29.2337 143.551 29.6241 143.58C30.0145 143.61 30.3379 143.725 30.3937 144.182L46.4398 263.08C46.4955 263.537 46.2279 263.879 45.8375 263.85C45.4657 263.973 45.1236 263.705 45.0009 263.333Z" fill="#656565"/>
<path opacity="0.2344" d="M37.4362 130.242L60.7749 144.635C61.117 144.902 61.2397 145.274 60.972 145.616C60.7043 145.959 60.3994 145.996 59.9904 145.814L36.6518 131.421C36.3097 131.154 36.1869 130.782 36.3691 130.372C36.6554 130.183 37.1797 130.041 37.4362 130.242Z" fill="#656565"/>
<path opacity="0.4361" d="M179.6 300.062L132.558 275.267C132.149 275.085 132.094 274.628 132.209 274.304C132.391 273.895 132.848 273.839 133.105 274.039L180.147 298.835C180.556 299.017 180.611 299.474 180.496 299.798C180.466 300.188 179.942 300.33 179.6 300.062Z" fill="#656565"/>
<path opacity="0.046909" d="M-32.6951 812.501L69.3876 760.209C69.7594 760.086 70.2353 760.182 70.358 760.554C70.4807 760.926 70.384 761.402 70.0122 761.525L-32.1559 813.751C-32.5277 813.874 -32.9367 813.692 -33.1263 813.405C-33.1635 813.101 -32.9814 812.691 -32.6951 812.501Z" fill="#656565"/>
<path opacity="0.5" d="M196.614 295.577L225.724 316.69C226.066 316.958 226.121 317.415 225.921 317.672C225.653 318.014 225.196 318.071 224.939 317.87L195.83 296.756C195.488 296.489 195.432 296.031 195.633 295.774C195.815 295.365 196.272 295.309 196.614 295.577Z" fill="#656565"/>
<path opacity="0.5" d="M12.0157 165.394L29.1854 143.789C29.4531 143.447 29.8435 143.476 30.1856 143.744C30.5276 144.011 30.5834 144.469 30.3157 144.811L13.146 166.416C12.8784 166.758 12.421 166.815 12.079 166.547C11.8038 166.194 11.748 165.736 12.0157 165.394Z" fill="#656565"/>
<path opacity="0.2044" d="M-18.4988 -29.6493L65.4451 2.76855C65.7686 2.88364 65.9768 3.32239 65.7947 3.73162C65.6794 4.05527 65.2407 4.26384 64.9172 4.14876L-19.0937 -28.1835C-19.5026 -28.3655 -19.6253 -28.7373 -19.5956 -29.1279C-19.3465 -29.6227 -18.9078 -29.8313 -18.4988 -29.6493Z" fill="#656565"/>
<path opacity="0.3781" d="M34.4949 -20.7505L65.6158 2.90213C65.9578 3.16969 66.0136 3.62714 65.8128 3.8839C65.5451 4.22625 65.0878 4.28234 64.8313 4.08167L33.6434 -19.4854C33.3014 -19.753 33.2456 -20.2104 33.5133 -20.5528C33.6955 -20.962 34.1528 -21.0181 34.4949 -20.7505Z" fill="#656565"/>
<path opacity="0.4255" d="M-2.49042 69.908L30.4608 144.097C30.5835 144.468 30.4014 144.878 30.1151 145.067C29.7433 145.19 29.3343 145.008 29.1447 144.722L-3.80662 70.5337C-3.92933 70.1618 -3.74714 69.7526 -3.46085 69.5628C-3.02212 69.3542 -2.69864 69.4693 -2.49042 69.908Z" fill="#656565"/>
<path opacity="0.1218" d="M185.086 367.251L132.302 275.066C132.112 274.78 132.209 274.304 132.562 274.028C132.849 273.839 133.325 273.935 133.6 274.288L186.45 366.387C186.659 366.826 186.477 367.235 186.105 367.358C185.752 367.633 185.276 367.537 185.086 367.251Z" fill="#656565"/>
<path opacity="0.013026" d="M115.168 243.044L71.255 296.559C70.9873 296.901 70.53 296.957 70.1879 296.69C69.8458 296.422 69.7901 295.965 70.0578 295.622L114.056 242.174C114.324 241.832 114.715 241.861 115.057 242.129C115.313 242.329 115.369 242.787 115.168 243.044Z" fill="#656565"/>
<path opacity="0.01" d="M-31.8957 812.712L72.0604 911.543C72.3356 911.896 72.3058 912.287 72.0381 912.629C71.6849 912.904 71.2945 912.875 71.0379 912.674L-32.9182 813.844C-33.1934 813.491 -33.1637 813.1 -32.8104 812.825C-32.5427 812.482 -32.2378 812.445 -31.8957 812.712Z" fill="#656565"/>
<path opacity="0.1068" d="M69.8945 296.184L60.468 241.086C60.3453 240.714 60.613 240.372 61.0703 240.316C61.4421 240.193 61.7841 240.46 61.8399 240.918L71.4189 295.997C71.4747 296.455 71.207 296.797 70.7497 296.853C70.2923 296.909 69.9503 296.642 69.8945 296.184Z" fill="#656565"/>
<path opacity="0.07131" d="M26.6207 707.032L9.09632 659.118C8.97362 658.746 9.1558 658.337 9.52761 658.214C9.89942 658.091 10.3084 658.273 10.4311 658.644L28.1079 706.54C28.2306 706.912 28.0485 707.322 27.6097 707.53C27.2193 707.501 26.8103 707.319 26.6207 707.032Z" fill="#656565"/>
<path opacity="0.091637" d="M-45.1706 591.567L39.7125 551.753C40.0843 551.63 40.5602 551.727 40.6829 552.098C40.8056 552.47 40.709 552.946 40.3372 553.069L-44.5645 592.731C-44.9363 592.854 -45.3453 592.672 -45.5349 592.386C-45.706 592.252 -45.5238 591.843 -45.1706 591.567Z" fill="#656565"/>
<path opacity="0.2936" d="M-44.7276 81.9743L30.2712 143.81C30.6133 144.077 30.5836 144.468 30.3159 144.81C30.0482 145.153 29.6578 145.123 29.3157 144.856L-45.75 83.1057C-46.0921 82.8381 -46.1479 82.3807 -45.7947 82.1052C-45.527 81.7629 -45.0697 81.7068 -44.7276 81.9743Z" fill="#656565"/>
<path opacity="0.2073" d="M196.458 296.834L84.641 336.547C84.2692 336.67 83.8602 336.488 83.7375 336.116C83.6148 335.744 83.797 335.335 84.1688 335.212L195.919 295.585C196.291 295.462 196.7 295.644 196.822 296.016C197.012 296.302 196.83 296.711 196.458 296.834Z" fill="#656565"/>
<path opacity="0.1867" d="M-41.7504 540.31L40.189 551.85C40.5795 551.879 40.8546 552.232 40.7579 552.708C40.7282 553.099 40.375 553.374 39.899 553.278L-41.9735 541.653C-42.3639 541.624 -42.5721 541.185 -42.5423 540.794C-42.4271 540.471 -42.0739 540.195 -41.7504 540.31Z" fill="#656565"/>
<path opacity="0.3851" d="M-36.1723 106.46L30.1852 143.743C30.5942 143.925 30.65 144.382 30.3823 144.725C30.1146 145.067 29.7428 145.19 29.4007 144.923L-36.8713 107.706C-37.2803 107.525 -37.3361 107.067 -37.1539 106.658C-37.0386 106.334 -36.5144 106.193 -36.1723 106.46Z" fill="#656565"/>
<path opacity="0.2298" d="M-32.3087 433.763L-7.40655 361.377C-7.22438 360.968 -6.8526 360.845 -6.4622 360.875C-6.05321 361.057 -5.93048 361.428 -5.96022 361.819L-30.9479 434.137C-31.0632 434.461 -31.5019 434.67 -31.8254 434.555C-32.2158 434.525 -32.424 434.086 -32.3087 433.763Z" fill="#656565"/>
<path opacity="0.1844" d="M36.69 393.111L45.0678 263.248C45.0975 262.857 45.4507 262.582 45.8411 262.611C46.2315 262.641 46.5067 262.994 46.477 263.384L38.0992 393.247C38.0695 393.638 37.7162 393.913 37.3258 393.884C36.9354 393.854 36.6603 393.501 36.69 393.111Z" fill="#656565"/>
<path opacity="0.5" d="M179.824 298.72L196.053 295.414C196.425 295.291 196.852 295.625 196.89 295.93C197.012 296.302 196.745 296.644 196.373 296.767L180.144 300.073C179.772 300.196 179.344 299.862 179.222 299.49C179.184 299.185 179.452 298.843 179.824 298.72Z" fill="#656565"/>
<path opacity="0.1122" d="M133.101 275.278L70.8163 296.768C70.4445 296.891 70.0355 296.709 69.8273 296.27C69.7046 295.898 69.8868 295.489 70.3255 295.28L132.543 273.876C132.915 273.753 133.324 273.935 133.447 274.307C133.655 274.746 133.473 275.155 133.101 275.278Z" fill="#656565"/>
<path opacity="0.3534" d="M13.2913 165.702L46.4401 263.08C46.5628 263.452 46.3806 263.861 46.0088 263.984C45.637 264.107 45.228 263.925 45.1053 263.553L11.9565 166.175C11.8338 165.803 12.016 165.394 12.3878 165.271C12.7596 165.148 13.1686 165.33 13.2913 165.702Z" fill="#656565"/>
<path opacity="0.087255" d="M225.348 318.052L84.4885 336.566C84.0312 336.622 83.6892 336.354 83.6334 335.897C83.6631 335.506 83.8453 335.097 84.2357 335.126L225.095 316.613C225.552 316.557 225.894 316.824 225.865 317.215C226.073 317.654 225.805 317.996 225.348 318.052Z" fill="#656565"/>
<path opacity="0.5" d="M37.7851 131.204L30.4497 144.639C30.2675 145.048 29.8101 145.105 29.4681 144.837C29.0591 144.655 29.0033 144.198 29.204 143.941L36.5395 130.506C36.7217 130.097 37.1791 130.04 37.5881 130.222C37.8446 130.423 37.9004 130.881 37.7851 131.204Z" fill="#656565"/>
<path opacity="0.4809" d="M46.4215 262.927L85.1395 335.557C85.2622 335.929 85.1656 336.405 84.7938 336.528C84.5075 336.718 84.0315 336.622 83.8233 336.183L45.1054 263.553C44.9827 263.181 45.0793 262.705 45.4511 262.582C45.8229 262.459 46.1464 262.574 46.4215 262.927Z" fill="#656565"/>
<path opacity="0.077034" d="M-32.2418 433.677L11.7413 347.113C11.9234 346.704 12.3807 346.648 12.7897 346.83C13.1987 347.011 13.2545 347.469 13.1392 347.793L-30.9293 434.29C-31.1115 434.699 -31.5688 434.755 -31.8923 434.64C-32.3013 434.458 -32.5095 434.02 -32.2418 433.677Z" fill="#656565"/>
<path opacity="0.5" d="M180.214 298.749L225.486 316.643C225.895 316.825 226.018 317.196 225.835 317.606C225.72 317.929 225.281 318.138 224.958 318.023L179.619 300.215C179.21 300.033 179.088 299.661 179.184 299.185C179.452 298.843 179.891 298.634 180.214 298.749Z" fill="#656565"/>
<path opacity="0.5" d="M36.8726 392.701L83.8829 335.402C84.1506 335.059 84.6079 335.003 84.9499 335.271C85.292 335.538 85.3478 335.996 85.0801 336.338L38.0698 393.638C37.8021 393.98 37.3448 394.036 37.0027 393.769C36.5752 393.434 36.6049 393.044 36.8726 392.701Z" fill="#656565"/>
<path opacity="0.1382" d="M179.771 300.196L45.6184 263.954C45.2949 263.839 45.0198 263.486 45.1164 263.01C45.2317 262.686 45.5849 262.411 46.0608 262.507L180.147 298.835C180.47 298.95 180.746 299.303 180.649 299.779C180.534 300.103 180.095 300.311 179.771 300.196Z" fill="#656565"/>
<path opacity="0.3981" d="M11.9375 166.022L-3.84408 70.2282C-3.89986 69.7708 -3.63216 69.4285 -3.17484 69.3724C-2.71752 69.3163 -2.37545 69.5838 -2.31967 70.0413L13.4619 165.835C13.5177 166.292 13.25 166.635 12.7927 166.691C12.3353 166.747 11.9077 166.412 11.9375 166.022Z" fill="#656565"/>
<path opacity="0.4075" d="M196.926 296.235L186.439 366.93C186.409 367.321 186.056 367.596 185.58 367.5C185.19 367.47 184.915 367.117 185.011 366.641L195.498 295.946C195.528 295.555 195.881 295.28 196.357 295.376C196.681 295.491 196.956 295.845 196.926 296.235Z" fill="#656565"/>
<path opacity="0.038385" d="M133.105 274.039L214.063 301.639C214.472 301.821 214.68 302.26 214.498 302.669C214.316 303.078 213.944 303.201 213.554 303.172L132.663 275.486C132.254 275.304 132.131 274.933 132.246 274.609C132.343 274.133 132.696 273.857 133.105 274.039Z" fill="#656565"/>
<path opacity="0.5" d="M14.1062 716.692L70.1015 760.353C70.4436 760.621 70.4994 761.078 70.2317 761.421C69.964 761.763 69.5736 761.733 69.1646 761.551L13.1693 717.891C12.8272 717.623 12.7715 717.166 13.0392 716.823C13.3924 716.548 13.8497 716.492 14.1062 716.692Z" fill="#656565"/>
<path opacity="0.3658" d="M11.9746 166.328L-45.9215 82.9725C-46.1966 82.6193 -46.1 82.1432 -45.6612 81.9347C-45.3749 81.7448 -44.899 81.8412 -44.7094 82.1274L13.1867 165.482C13.4619 165.836 13.3652 166.312 12.9934 166.435C12.7257 166.777 12.2498 166.681 11.9746 166.328Z" fill="#656565"/>
<path opacity="0.3707" d="M180.229 300.14L84.6413 336.547C84.2695 336.67 83.8605 336.488 83.7378 336.116C83.6151 335.744 83.7973 335.335 84.1691 335.212L179.671 298.738C180.043 298.615 180.452 298.797 180.574 299.169C180.783 299.608 180.601 300.017 180.229 300.14Z" fill="#656565"/>
<path opacity="0.5" d="M12.0599 166.394L-37.1279 107.506C-37.403 107.153 -37.3733 106.762 -37.0201 106.487C-36.6669 106.211 -36.2764 106.241 -36.0013 106.594L13.1865 165.482C13.4617 165.835 13.4319 166.226 13.0787 166.501C12.7924 166.691 12.2496 166.68 12.0599 166.394Z" fill="#656565"/>
<path opacity="0.4766" d="M185.127 366.317L224.723 316.736C224.991 316.394 225.467 316.49 225.724 316.691C225.98 316.892 226.036 317.349 225.835 317.606L186.306 367.101C186.038 367.444 185.581 367.5 185.238 367.232C184.915 367.117 184.859 366.66 185.127 366.317Z" fill="#656565"/>
<path opacity="0.2352" d="M-7.33962 361.292L45.1836 262.924C45.3658 262.515 45.8231 262.459 46.2321 262.641C46.6411 262.823 46.6969 263.28 46.5816 263.604L-5.85609 362.039C-6.03827 362.448 -6.49561 362.504 -6.90461 362.322C-7.39912 362.073 -7.52179 361.701 -7.33962 361.292Z" fill="#656565"/>
<path opacity="0.020038" d="M196.153 296.872L70.5967 296.872C70.2063 296.843 69.8642 296.575 69.8084 296.118C69.8382 295.727 70.1058 295.385 70.5632 295.329L196.052 295.414C196.443 295.443 196.785 295.711 196.755 296.101C196.896 296.626 196.543 296.901 196.153 296.872Z" fill="#656565"/>
<path opacity="0.3841" d="M-18.12 -29.0771L-2.47214 70.0601C-2.41636 70.5176 -2.68405 70.8599 -3.14138 70.916C-3.51319 71.039 -3.94079 70.7045 -3.91105 70.314L-19.5589 -28.8233C-19.6146 -29.2807 -19.3469 -29.6231 -18.8896 -29.6791C-18.4992 -29.6496 -18.0902 -29.4677 -18.12 -29.0771Z" fill="#656565"/>
<path opacity="0.064968" d="M37.2257 392.426L185.566 366.109C186.023 366.053 186.365 366.32 186.421 366.778C186.391 367.168 186.276 367.492 185.819 367.548L37.4786 393.866C37.1068 393.989 36.6791 393.654 36.642 393.349C36.5862 392.892 36.9208 392.464 37.2257 392.426Z" fill="#656565"/>
<path opacity="0.5" d="M11.9487 165.479L36.4539 130.439C36.7216 130.097 37.1789 130.041 37.521 130.308C37.8631 130.576 37.9188 131.033 37.718 131.29L13.2129 166.33C12.9452 166.672 12.4878 166.728 12.2313 166.528C11.8892 166.26 11.8335 165.803 11.9487 165.479Z" fill="#656565"/>
<path opacity="0.403" d="M34.6731 -19.9215L-2.58762 70.3838C-2.7698 70.7931 -3.14161 70.9161 -3.55061 70.7341C-3.9596 70.5521 -4.08229 70.1803 -3.90012 69.771L33.2751 -20.6012C33.4573 -21.0104 33.8291 -21.1334 34.2381 -20.9514C34.7326 -20.7025 34.9408 -20.2638 34.6731 -19.9215Z" fill="#656565"/>
<path opacity="0.5" d="M-6.29176 361.008L37.8538 392.503C38.1959 392.771 38.2516 393.228 38.0509 393.485C37.7832 393.827 37.3258 393.884 37.0693 393.683L-7.07627 362.187C-7.41834 361.92 -7.47409 361.462 -7.20639 361.12C-7.07255 360.949 -6.61524 360.893 -6.29176 361.008Z" fill="#656565"/>
<path opacity="0.01" d="M38.1668 393.162L40.8918 552.537C40.8621 552.928 40.5944 553.27 40.1371 553.326C39.7467 553.297 39.4046 553.029 39.3488 552.572L36.6907 393.111C36.7204 392.72 36.9881 392.378 37.3785 392.407C37.7689 392.437 38.111 392.704 38.1668 393.162Z" fill="#656565"/>
<path opacity="0.5" d="M36.4803 131.288L-3.80651 70.534C-4.08166 70.1809 -3.89948 69.7716 -3.54627 69.4962C-3.25998 69.3063 -2.78405 69.4027 -2.59443 69.6889L37.6923 130.442C37.9675 130.796 37.8708 131.272 37.4321 131.48C37.2313 131.737 36.7554 131.641 36.4803 131.288Z" fill="#656565"/>
<path opacity="0.3451" d="M185.514 367.585L84.1843 336.603C83.8608 336.488 83.5857 336.135 83.6824 335.659C83.8646 335.249 84.1508 335.059 84.6268 335.156L185.956 366.138C186.365 366.32 186.574 366.759 186.458 367.082C186.276 367.491 185.837 367.7 185.514 367.585Z" fill="#656565"/>
<path opacity="0.2981" d="M-45.9953 82.3626L-19.5955 -29.128C-19.5658 -29.5185 -19.1271 -29.7271 -18.7367 -29.6976C-18.3463 -29.6681 -18.138 -29.2293 -18.1678 -28.8388L-44.653 82.5849C-44.7497 83.061 -45.1215 83.184 -45.5119 83.1545C-45.8168 83.1919 -46.025 82.7531 -45.9953 82.3626Z" fill="#656565"/>
<path opacity="0.5" d="M70.0169 296.556L45.1905 263.62C44.9154 263.266 45.012 262.79 45.2983 262.6C45.5846 262.411 46.1275 262.421 46.3171 262.708L71.2104 295.558C71.4855 295.911 71.3889 296.388 71.0357 296.663C70.768 297.005 70.292 296.909 70.0169 296.556Z" fill="#656565"/>
<path opacity="0.2996" d="M46.4105 263.47L13.0536 347.726C12.8714 348.135 12.4327 348.344 12.0237 348.162C11.6147 347.98 11.492 347.608 11.6742 347.198L45.1166 263.01C45.2987 262.601 45.6705 262.478 45.994 262.593C46.403 262.775 46.5257 263.147 46.4105 263.47Z" fill="#656565"/>
<path opacity="0.3655" d="M-6.91978 360.93L84.236 335.126C84.6078 335.003 85.0168 335.185 85.0726 335.642C85.1953 336.014 85.0131 336.423 84.5558 336.479L-6.60001 362.284C-6.97181 362.407 -7.46631 362.158 -7.52209 361.7C-7.47376 361.462 -7.29159 361.053 -6.91978 360.93Z" fill="#656565"/>
<path opacity="0.1026" d="M-32.357 117.445L30.0145 143.61C30.4235 143.792 30.5462 144.163 30.364 144.573C30.1818 144.982 29.81 145.105 29.401 144.923L-32.9704 118.758C-33.3794 118.576 -33.5877 118.137 -33.4055 117.728C-33.1378 117.386 -32.766 117.263 -32.357 117.445Z" fill="#656565"/>
<path opacity="0.1573" d="M-37.2689 106.982L-19.5105 -29.0613C-19.4807 -29.4518 -19.1275 -29.7273 -18.7371 -29.6978C-18.3467 -29.6683 -18.0716 -29.3151 -18.1013 -28.9246L-35.8597 107.118C-35.8894 107.509 -36.2427 107.784 -36.6331 107.755C-37.0235 107.725 -37.2986 107.372 -37.2689 106.982Z" fill="#656565"/>
<path opacity="0.366" d="M196.443 295.443L214.13 301.553C214.539 301.735 214.748 302.174 214.632 302.497C214.45 302.907 214.011 303.115 213.688 303L196.068 296.804C195.659 296.622 195.536 296.25 195.651 295.927C195.681 295.536 196.053 295.413 196.443 295.443Z" fill="#656565"/>
<path opacity="0.2774" d="M36.738 392.873L69.9236 295.793C70.1058 295.384 70.5446 295.176 70.868 295.291C71.277 295.473 71.4852 295.911 71.37 296.235L38.0989 393.247C37.9167 393.657 37.5448 393.78 37.1544 393.75C36.764 393.721 36.5558 393.282 36.738 392.873Z" fill="#656565"/>
<path opacity="0.5" d="M180.679 299.388L186.421 366.777C186.477 367.234 186.124 367.51 185.752 367.633C185.294 367.689 185.019 367.336 184.897 366.964L179.154 299.575C179.099 299.118 179.452 298.842 179.824 298.719C180.281 298.663 180.709 298.997 180.679 299.388Z" fill="#656565"/>
<path opacity="0.1187" d="M13.4074 717.939L-90.8414 669.363C-91.2504 669.181 -91.3731 668.809 -91.1909 668.4C-91.0087 667.991 -90.6369 667.868 -90.2279 668.05L13.9539 716.711C14.3629 716.893 14.4856 717.265 14.3034 717.675C14.2551 717.913 13.8164 718.121 13.4074 717.939Z" fill="#656565"/>
<path opacity="0.5" d="M36.8132 393.483L11.7486 347.808C11.4735 347.455 11.7226 346.96 12.0089 346.77C12.4476 346.562 12.8566 346.744 13.0462 347.03L38.0439 392.79C38.2335 393.076 38.1369 393.552 37.7836 393.828C37.4118 393.951 36.9359 393.855 36.8132 393.483Z" fill="#656565"/>
<path opacity="0.4049" d="M-44.8989 81.8411L37.4355 130.242C37.8445 130.423 37.9002 130.881 37.7181 131.29C37.5359 131.699 37.0786 131.755 36.6696 131.574L-45.6648 83.173C-46.0738 82.9911 -46.1296 82.5336 -45.9474 82.1244C-45.6797 81.7821 -45.2224 81.726 -44.8989 81.8411Z" fill="#656565"/>
<path opacity="0.5" d="M33.8813 -19.4371L-18.9418 -28.2023C-19.3322 -28.2318 -19.6073 -28.585 -19.5107 -29.0611C-19.4809 -29.4516 -19.1277 -29.7271 -18.6518 -29.6307L34.1713 -20.8655C34.5617 -20.836 34.7699 -20.3972 34.7402 -20.0067C34.7104 -19.6162 34.2717 -19.4076 33.8813 -19.4371Z" fill="#656565"/>
<path opacity="0.5" d="M13.258 716.719L26.8995 706.148C27.2528 705.872 27.7287 705.969 27.9369 706.407C28.1265 706.694 28.0967 707.084 27.829 707.427L14.1876 717.998C13.8344 718.274 13.4254 718.092 13.2358 717.805C12.942 717.3 12.9718 716.909 13.258 716.719Z" fill="#656565"/>
<path opacity="0.5" d="M-36.3429 106.326L37.3501 130.174C37.7591 130.356 37.9673 130.795 37.852 131.118C37.6698 131.528 37.2311 131.736 36.9077 131.621L-36.7853 107.773C-37.1943 107.591 -37.3839 107.305 -37.2873 106.829C-37.1051 106.42 -36.6663 106.211 -36.3429 106.326Z" fill="#656565"/>
<path opacity="0.065253" d="M13.2728 165.55L71.3148 295.778C71.4375 296.15 71.3408 296.626 70.969 296.749C70.5972 296.872 70.1213 296.776 69.9986 296.404L11.9566 166.176C11.8339 165.804 12.0161 165.394 12.3024 165.205C12.6742 165.082 13.0832 165.264 13.2728 165.55Z" fill="#656565"/>
<path opacity="0.5" d="M71.3335 295.93L85.1581 335.709C85.2808 336.081 85.0986 336.491 84.7268 336.614C84.355 336.736 83.946 336.555 83.8233 336.183L69.9987 296.403C69.876 296.031 70.0582 295.622 70.4969 295.414C70.7832 295.224 71.2108 295.558 71.3335 295.93Z" fill="#656565"/>
<path opacity="0.4355" d="M12.2282 346.666L84.2362 335.126C84.6935 335.07 85.0356 335.337 85.0913 335.795C85.1471 336.252 84.8794 336.595 84.489 336.565L12.4141 348.19C11.9568 348.246 11.6147 347.979 11.559 347.521C11.5887 347.131 11.8564 346.789 12.2282 346.666Z" fill="#656565"/>
<path opacity="0.4094" d="M224.768 317.736L213.279 302.819C213.004 302.465 213.1 301.989 213.453 301.714C213.807 301.438 214.283 301.535 214.558 301.888L225.98 316.891C226.255 317.244 226.159 317.721 225.872 317.91C225.433 318.119 224.958 318.023 224.768 317.736Z" fill="#656565"/>
<path opacity="0.098858" d="M70.8778 911.997L69.0899 760.941C69.1196 760.551 69.4728 760.276 69.8632 760.305C70.2536 760.334 70.4433 760.621 70.566 760.993L72.4394 912.115C72.4096 912.506 72.0564 912.781 71.5991 912.837C71.1901 912.656 70.848 912.388 70.8778 911.997Z" fill="#656565"/>
<path opacity="0.2576" d="M179.924 300.177L70.597 296.872C70.2066 296.842 69.9315 296.489 69.8757 296.031C69.9055 295.641 70.2586 295.365 70.5635 295.328L179.823 298.719C180.214 298.749 180.489 299.102 180.459 299.492C180.667 299.931 180.314 300.207 179.924 300.177Z" fill="#656565"/>
<path opacity="0.1406" d="M196.89 295.93L216.124 354.7C216.247 355.072 215.998 355.567 215.626 355.69C215.254 355.813 214.76 355.564 214.637 355.192L195.469 296.336C195.347 295.965 195.529 295.555 195.901 295.432C196.358 295.376 196.767 295.558 196.89 295.93Z" fill="#656565"/>
<path opacity="0.1264" d="M214.011 303.116L84.5745 336.633C84.2027 336.756 83.8606 336.488 83.7379 336.117C83.6152 335.745 83.8829 335.402 84.2547 335.279L213.606 301.696C213.978 301.573 214.473 301.821 214.528 302.279C214.632 302.498 214.383 302.993 214.011 303.116Z" fill="#656565"/>
<path opacity="0.4598" d="M27.9185 706.255L70.2723 760.487C70.5474 760.84 70.4508 761.316 70.1645 761.506C69.8113 761.782 69.4209 761.752 69.1458 761.399L26.725 707.252C26.4498 706.899 26.5465 706.423 26.8997 706.147C27.2529 705.872 27.7289 705.968 27.9185 706.255Z" fill="#656565"/>
<path opacity="0.345" d="M12.0603 166.394L-33.227 118.557C-33.5022 118.204 -33.4724 117.813 -33.2047 117.471C-32.8515 117.196 -32.4611 117.225 -32.1191 117.493L13.1682 165.33C13.4434 165.683 13.4137 166.073 13.146 166.416C12.7928 166.691 12.4024 166.662 12.0603 166.394Z" fill="#656565"/>
<path opacity="0.2347" d="M214.667 354.802L224.608 317.06C224.723 316.736 225.076 316.461 225.552 316.557C225.876 316.672 226.151 317.025 226.054 317.501L216.18 355.158C216.083 355.634 215.645 355.842 215.236 355.66C214.693 355.65 214.485 355.211 214.667 354.802Z" fill="#656565"/>
<path opacity="0.1447" d="M116.61 900.044L69.0418 761.18C68.9191 760.808 69.1012 760.399 69.473 760.276C69.8449 760.153 70.2538 760.335 70.3765 760.706L117.945 899.57C118.068 899.942 117.886 900.352 117.447 900.56C117.142 900.598 116.733 900.416 116.61 900.044Z" fill="#656565"/>
<path opacity="0.1562" d="M185.343 367.451L70.274 296.757C69.9319 296.489 69.8092 296.117 69.9914 295.708C70.2591 295.366 70.6309 295.243 71.0399 295.425L186.109 366.119C186.518 366.301 186.574 366.759 186.391 367.168C186.209 367.577 185.685 367.719 185.343 367.451Z" fill="#656565"/>
<path opacity="0.5" d="M180.061 298.768L213.892 301.505C214.282 301.535 214.643 301.955 214.613 302.345C214.584 302.736 214.163 303.097 213.773 303.068L179.924 300.178C179.533 300.148 179.258 299.795 179.288 299.404C179.318 299.014 179.585 298.671 180.061 298.768Z" fill="#656565"/>
<path opacity="0.096312" d="M129.312 76.7245L-3.22716 70.8492C-3.61756 70.8197 -3.8927 70.4666 -3.86296 70.076C-3.83323 69.6855 -3.48003 69.41 -3.08963 69.4395L129.431 75.1624C129.821 75.1919 130.182 75.6119 130.152 76.0025C130.122 76.393 129.702 76.754 129.312 76.7245Z" fill="#656565"/>
<path opacity="0.3712" d="M-33.3387 117.643L-3.83298 69.686C-3.56528 69.3437 -3.19346 69.2207 -2.85139 69.4883C-2.50932 69.7558 -2.38663 70.1277 -2.65433 70.47L-32.16 118.427C-32.4277 118.769 -32.7995 118.892 -33.2085 118.71C-33.4651 118.509 -33.5208 118.052 -33.3387 117.643Z" fill="#656565"/>
<path opacity="0.3808" d="M-7.2061 361.121L70.125 295.537C70.4782 295.261 70.9541 295.358 71.1437 295.644C71.4189 295.997 71.3891 296.388 71.0359 296.663L-6.29515 362.247C-6.64836 362.522 -7.12427 362.426 -7.3139 362.14C-7.50352 361.853 -7.49239 361.31 -7.2061 361.121Z" fill="#656565"/>
<path opacity="0.5" d="M-7.13943 361.035L12.0084 346.77C12.3616 346.495 12.8375 346.591 13.1126 346.944C13.3878 347.297 13.2911 347.774 12.9379 348.049L-6.14298 362.228C-6.49619 362.504 -6.97208 362.407 -7.24722 362.054C-7.58929 361.787 -7.49264 361.31 -7.13943 361.035Z" fill="#656565"/>
<path opacity="0.4435" d="M-15.1774 38.191L-2.49059 69.9079C-2.36788 70.2797 -2.55007 70.6889 -2.92188 70.8119C-3.29368 70.9349 -3.70268 70.7529 -3.82538 70.3811L-16.5791 38.7498C-16.7018 38.378 -16.5196 37.9687 -16.0809 37.7602C-15.776 37.7228 -15.367 37.9048 -15.1774 38.191Z" fill="#656565"/>
<path opacity="0.072261" d="M215.254 355.813L84.2695 336.67C83.8791 336.64 83.6039 336.287 83.7006 335.811C83.7303 335.421 84.0835 335.145 84.4739 335.175L215.459 354.317C215.849 354.347 216.21 354.767 216.113 355.243C216.065 355.481 215.645 355.842 215.254 355.813Z" fill="#656565"/>
<path opacity="0.07489" d="M26.6507 706.642L39.4153 552.486C39.445 552.096 39.7982 551.82 40.2556 551.764C40.7129 551.708 40.9211 552.147 40.9769 552.604L28.2123 706.76C28.1826 707.151 27.7624 707.512 27.372 707.482C26.8292 707.472 26.554 707.118 26.6507 706.642Z" fill="#656565"/>
<path opacity="0.1827" d="M66.8072 756.811L13.3217 717.872C12.9797 717.604 12.9239 717.147 13.1247 716.89C13.3924 716.548 13.8496 716.492 14.1062 716.692L67.6586 755.546C68.0007 755.813 68.0565 756.271 67.7888 756.613C67.5211 756.956 67.0638 757.012 66.8072 756.811Z" fill="#656565"/>
<path opacity="0.126" d="M-119.97 290.298L12.7039 346.762C13.1129 346.944 13.3211 347.383 13.1389 347.792C12.9567 348.202 12.5849 348.325 12.109 348.228L-120.565 291.764C-120.974 291.582 -121.096 291.21 -120.914 290.801C-120.818 290.325 -120.379 290.116 -119.97 290.298Z" fill="#656565"/>
<path opacity="0.5" d="M71.1217 296.73L12.9385 348.049C12.5853 348.325 12.1949 348.295 11.9197 347.942C11.6446 347.589 11.6743 347.198 11.942 346.856L70.1253 295.537C70.4785 295.262 70.8689 295.291 71.144 295.644C71.4861 295.912 71.3894 296.388 71.1217 296.73Z" fill="#656565"/>
<path opacity="0.227" d="M179.504 818.201L69.3171 761.533C68.9082 761.351 68.8524 760.893 68.9676 760.57C69.1498 760.16 69.6071 760.104 69.9306 760.219L180.27 816.869C180.679 817.051 180.82 817.576 180.552 817.918C180.37 818.327 179.913 818.383 179.504 818.201Z" fill="#656565"/>
<path opacity="0.5" d="M185.078 366.555L213.186 302.056C213.368 301.647 213.807 301.438 214.216 301.62C214.625 301.802 214.833 302.241 214.651 302.65L186.543 367.149C186.361 367.558 185.989 367.681 185.58 367.499C185.019 367.336 184.896 366.964 185.078 366.555Z" fill="#656565"/>
<path opacity="0.09903" d="M34.5808 -20.6831L129.926 75.4119C130.201 75.765 130.257 76.2225 129.903 76.4979C129.55 76.7734 129.16 76.7439 128.818 76.4763L33.4728 -19.6187C33.1307 -19.8863 33.2274 -20.3624 33.4951 -20.7047C33.8483 -20.9802 34.2387 -20.9507 34.5808 -20.6831Z" fill="#656565"/>
<path opacity="0.4174" d="M-37.2877 106.829L-16.6352 38.2926C-16.453 37.8833 -16.0998 37.6079 -15.6908 37.7898C-15.2818 37.9718 -15.0066 38.325 -15.1888 38.7342L-35.8413 107.271C-36.0235 107.68 -36.3098 107.87 -36.7857 107.774C-37.1092 107.659 -37.3174 107.22 -37.2877 106.829Z" fill="#656565"/>
<path opacity="0.1307" d="M13.3253 716.633L30.8558 704.966C31.209 704.69 31.6849 704.786 31.9601 705.14C32.2352 705.493 32.1386 705.969 31.7854 706.244L14.1693 717.845C13.8161 718.121 13.4071 717.939 13.2175 717.652C12.8754 717.385 12.9721 716.909 13.3253 716.633Z" fill="#656565"/>
<path opacity="0.3632" d="M180.641 299.083L216.106 354.548C216.381 354.901 216.284 355.377 215.845 355.585C215.492 355.861 215.016 355.765 214.808 355.326L179.344 299.862C179.069 299.508 179.251 299.099 179.604 298.824C179.89 298.634 180.366 298.73 180.641 299.083Z" fill="#656565"/>
<path opacity="0.3639" d="M-16.6829 38.5305L-19.577 -28.9756C-19.5473 -29.3661 -19.2796 -29.7084 -18.8223 -29.7645C-18.4319 -29.735 -18.0898 -29.4675 -18.034 -29.01L-15.1399 38.496C-15.1696 38.8866 -15.4373 39.2289 -15.8947 39.285C-16.2851 39.2555 -16.6271 38.988 -16.6829 38.5305Z" fill="#656565"/>
<path opacity="0.3194" d="M129.769 76.669L37.5174 131.547C37.1642 131.823 36.7552 131.641 36.4801 131.288C36.2049 130.934 36.3871 130.525 36.7403 130.25L128.907 75.3046C129.26 75.0291 129.755 75.278 129.944 75.5643C130.219 75.9174 130.123 76.3935 129.769 76.669Z" fill="#656565"/>
<path opacity="0.4515" d="M-32.5282 117.31L37.2642 130.107C37.6546 130.137 37.8629 130.576 37.8331 130.966C37.8034 131.357 37.2977 131.651 36.9743 131.536L-32.8182 118.739C-33.2942 118.642 -33.5024 118.204 -33.3871 117.88C-33.2719 117.556 -32.9186 117.281 -32.5282 117.31Z" fill="#656565"/>
<path opacity="0.3368" d="M34.6253 -19.6829L-15.3037 39.058C-15.5714 39.4003 -16.1142 39.3895 -16.4563 39.122C-16.7984 38.8544 -16.7872 38.3114 -16.5865 38.0546L33.2756 -20.6007C33.5433 -20.9431 34.0006 -20.9992 34.3426 -20.7316C34.8372 -20.4827 34.893 -20.0253 34.6253 -19.6829Z" fill="#656565"/>
<path opacity="0.2542" d="M27.1343 707.434L-90.689 669.344C-91.098 669.162 -91.3062 668.723 -91.1909 668.4C-91.0088 667.991 -90.57 667.782 -90.2466 667.897L27.5767 705.987C27.9857 706.169 28.1939 706.608 28.0117 707.017C27.8965 707.341 27.4578 707.549 27.1343 707.434Z" fill="#656565"/>
<path opacity="0.2783" d="M-15.2632 38.1243L37.7773 130.509C38.0524 130.862 37.8033 131.357 37.517 131.547C37.2307 131.737 36.7548 131.64 36.4797 131.287L-16.5608 38.9025C-16.8359 38.5493 -16.5868 38.0545 -16.3005 37.8646C-15.8618 37.6561 -15.4528 37.838 -15.2632 38.1243Z" fill="#656565"/>
<path opacity="0.01" d="M225.895 316.825L264.214 360.177C264.489 360.53 264.46 360.921 264.192 361.263C263.839 361.539 263.381 361.595 263.106 361.242L224.854 317.803C224.578 317.45 224.608 317.06 224.961 316.784C225.077 316.461 225.553 316.557 225.895 316.825Z" fill="#656565"/>
<path opacity="0.054097" d="M71.0416 911.436L179.355 816.982C179.708 816.706 180.184 816.803 180.459 817.156C180.734 817.509 180.705 817.899 180.351 818.175L72.0381 912.629C71.6849 912.904 71.2945 912.875 71.0193 912.522C70.7442 912.169 70.7553 911.626 71.0416 911.436Z" fill="#656565"/>
<path opacity="0.1456" d="M70.6489 295.395L213.825 301.591C214.216 301.62 214.576 302.04 214.547 302.431C214.517 302.821 214.164 303.097 213.706 303.153L70.53 296.957C70.1396 296.928 69.8645 296.575 69.8087 296.117C69.9053 295.641 70.2585 295.366 70.6489 295.395Z" fill="#656565"/>
<path opacity="0.5" d="M185.413 366.128L215.068 354.288C215.44 354.165 215.849 354.347 216.057 354.786C216.18 355.158 215.998 355.567 215.559 355.776L185.904 367.615C185.532 367.738 185.123 367.556 184.915 367.117C184.944 366.727 185.126 366.317 185.413 366.128Z" fill="#656565"/>
<path opacity="0.3944" d="M67.8479 755.832L70.3578 760.554C70.566 760.992 70.3838 761.402 70.0975 761.592C69.8112 761.781 69.2498 761.618 69.0602 761.332L66.4834 756.696C66.2752 756.257 66.4574 755.848 66.7437 755.658C67.1638 755.297 67.7252 755.46 67.8479 755.832Z" fill="#656565"/>
<path opacity="0.2297" d="M150.209 130.726L37.0604 131.603C36.67 131.574 36.328 131.306 36.2722 130.849C36.3019 130.458 36.5696 130.116 37.027 130.06L150.176 129.182C150.566 129.212 150.994 129.546 150.964 129.937C151.02 130.394 150.667 130.67 150.209 130.726Z" fill="#656565"/>
<path opacity="0.1557" d="M31.9599 705.14L70.4247 760.468C70.6998 760.821 70.6032 761.298 70.25 761.573C69.8968 761.848 69.4209 761.752 69.1457 761.399L30.614 706.156C30.3388 705.803 30.4355 705.327 30.7887 705.051C31.2089 704.69 31.6848 704.787 31.9599 705.14Z" fill="#656565"/>
<path opacity="0.3416" d="M116.755 899.33L179.288 817.067C179.556 816.725 180.013 816.669 180.355 816.936C180.697 817.204 180.753 817.662 180.485 818.004L117.867 900.199C117.599 900.542 117.142 900.598 116.8 900.33C116.543 900.129 116.487 899.672 116.755 899.33Z" fill="#656565"/>
<path opacity="0.059581" d="M215.083 355.679L70.359 296.823C69.95 296.641 69.7418 296.203 69.924 295.793C70.1062 295.384 70.478 295.261 70.9539 295.358L215.678 354.213C216.087 354.395 216.295 354.834 216.113 355.243C215.931 355.652 215.492 355.861 215.083 355.679Z" fill="#656565"/>
<path opacity="0.01" d="M129.617 76.6873L-32.4275 118.769C-32.7993 118.892 -33.2938 118.643 -33.3496 118.185C-33.4723 117.814 -33.2232 117.319 -32.7659 117.263L129.193 75.1143C129.565 74.9913 130.059 75.2402 130.115 75.6976C130.171 76.1551 129.989 76.5643 129.617 76.6873Z" fill="#656565"/>
<path opacity="0.5" d="M214.619 355.04L213.071 302.38C213.1 301.989 213.368 301.647 213.825 301.591C214.216 301.62 214.558 301.888 214.614 302.345L216.162 355.005C216.217 355.463 215.864 355.738 215.407 355.794C215.016 355.765 214.589 355.43 214.619 355.04Z" fill="#656565"/>
<path opacity="0.1033" d="M129.16 76.7431L-16.0474 39.3034C-16.5233 39.2071 -16.7316 38.7683 -16.5494 38.3591C-16.3672 37.9499 -16.014 37.6744 -15.605 37.8564L129.602 75.296C130.078 75.3924 130.286 75.8312 130.104 76.2404C129.989 76.5641 129.55 76.7726 129.16 76.7431Z" fill="#656565"/>
<path opacity="0.5" d="M-15.1218 38.6483L-31.8738 118.236C-31.9704 118.712 -32.4092 118.921 -32.7326 118.806C-33.2086 118.709 -33.4168 118.271 -33.3015 117.947L-16.5495 38.3592C-16.4529 37.883 -16.0141 37.6745 -15.6907 37.7895C-15.3672 37.9046 -15.092 38.2578 -15.1218 38.6483Z" fill="#656565"/>
<path opacity="0.076693" d="M116.889 899.158L234.007 816.005C234.36 815.729 234.922 815.893 235.044 816.265C235.234 816.551 235.137 817.027 234.937 817.284L117.733 900.37C117.38 900.646 116.904 900.549 116.629 900.196C116.506 899.824 116.536 899.434 116.889 899.158Z" fill="#656565"/>
<path opacity="0.2564" d="M185.718 366.09L263.567 359.947C264.025 359.891 264.385 360.311 264.356 360.701C264.411 361.159 264.058 361.434 263.686 361.557L185.752 367.633C185.294 367.689 185.019 367.336 184.963 366.879C184.993 366.488 185.261 366.146 185.718 366.09Z" fill="#656565"/>
<path opacity="0.5" d="M66.636 756.677L26.7919 707.167C26.5168 706.813 26.6134 706.337 26.8997 706.147C27.2529 705.872 27.7289 705.968 27.9185 706.255L67.8294 755.68C68.1046 756.033 68.0079 756.509 67.6547 756.784C67.3015 757.06 66.8256 756.963 66.636 756.677Z" fill="#656565"/>
<path opacity="0.1812" d="M-90.2467 667.897L31.5326 704.806C31.9416 704.988 32.2168 705.341 32.0346 705.75C31.8524 706.159 31.4992 706.435 31.0902 706.253L-90.6892 669.344C-91.0981 669.162 -91.3064 668.724 -91.1911 668.4C-91.0759 668.076 -90.6371 667.868 -90.2467 667.897Z" fill="#656565"/>
<path opacity="0.5" d="M27.119 706.043L31.0082 704.947C31.38 704.824 31.8745 705.073 31.9303 705.53C32.053 705.902 31.8038 706.397 31.3465 706.453L27.4574 707.549C27.0856 707.672 26.5911 707.423 26.5353 706.966C26.4795 706.508 26.7472 706.166 27.119 706.043Z" fill="#656565"/>
<path opacity="0.5" d="M130.115 75.6977L151.012 129.699C151.135 130.07 150.953 130.48 150.514 130.688C150.142 130.811 149.733 130.629 149.525 130.19L128.628 76.1896C128.505 75.8178 128.687 75.4085 129.126 75.1999C129.498 75.077 129.907 75.2589 130.115 75.6977Z" fill="#656565"/>
<path opacity="0.055645" d="M323.312 468.61L214.827 355.478C214.552 355.125 214.496 354.668 214.849 354.392C215.202 354.117 215.66 354.061 215.935 354.414L324.42 467.546C324.695 467.899 324.751 468.356 324.398 468.632C324.045 468.907 323.587 468.963 323.312 468.61Z" fill="#656565"/>
<path opacity="0.2368" d="M-60.3159 662.756L27.7293 705.968C28.1383 706.15 28.1941 706.608 28.0119 707.017C27.8298 707.426 27.3725 707.482 27.049 707.367L-60.9963 664.155C-61.4053 663.973 -61.5465 663.449 -61.2788 663.107C-61.1636 662.783 -60.6393 662.641 -60.3159 662.756Z" fill="#656565"/>
<path opacity="0.1831" d="M-28.4759 598.418L39.579 551.924C39.9322 551.649 40.3412 551.831 40.6164 552.184C40.806 552.47 40.7093 552.946 40.423 553.136L-27.6987 599.716C-28.0519 599.991 -28.5279 599.895 -28.803 599.542C-28.9257 599.17 -28.8291 598.694 -28.4759 598.418Z" fill="#656565"/>
<path opacity="0.5" d="M179.88 816.84L234.465 815.949C234.855 815.978 235.283 816.313 235.253 816.703C235.224 817.094 234.889 817.522 234.498 817.492L179.913 818.383C179.523 818.354 179.181 818.086 179.125 817.629C179.069 817.172 179.489 816.81 179.88 816.84Z" fill="#656565"/>
<path opacity="0.1835" d="M67.573 755.479L180.27 816.869C180.612 817.137 180.734 817.509 180.552 817.918C180.284 818.26 179.913 818.383 179.589 818.268L66.8927 756.878C66.4837 756.696 66.3424 756.171 66.6101 755.829C66.7067 755.353 67.164 755.297 67.573 755.479Z" fill="#656565"/>
<path opacity="0.017959" d="M-27.3529 598.745L27.9374 706.407C28.0601 706.779 27.9634 707.255 27.5916 707.378C27.2198 707.501 26.7439 707.405 26.6212 707.033L-28.736 599.457C-28.9442 599.018 -28.7621 598.609 -28.4089 598.333C-28.0371 598.21 -27.4756 598.373 -27.3529 598.745Z" fill="#656565"/>
<path opacity="0.1099" d="M-70.2414 404.369L11.942 346.856C12.2952 346.581 12.7711 346.677 13.0462 347.03C13.3214 347.383 13.2247 347.859 12.8715 348.135L-69.2932 405.8C-69.6465 406.075 -70.1224 405.979 -70.3975 405.626C-70.6058 405.187 -70.5946 404.644 -70.2414 404.369Z" fill="#656565"/>
<path opacity="0.4292" d="M214.472 301.821L264.3 360.244C264.575 360.597 264.478 361.073 264.21 361.415C263.857 361.691 263.381 361.594 263.039 361.327L213.297 302.971C213.022 302.618 213.052 302.227 213.405 301.952C213.654 301.457 214.13 301.553 214.472 301.821Z" fill="#656565"/>
<path opacity="0.3679" d="M129.364 75.2484L229.563 73.4832C230.02 73.4271 230.381 73.8472 230.351 74.2377C230.321 74.6282 229.987 75.0562 229.596 75.0267L129.398 76.7919C129.007 76.7624 128.665 76.4948 128.61 76.0374C128.621 75.4944 128.974 75.2189 129.364 75.2484Z" fill="#656565"/>
<path opacity="0.1574" d="M323.141 468.476L262.935 361.107C262.727 360.669 262.909 360.259 263.263 359.984C263.634 359.861 264.11 359.957 264.3 360.244L324.505 467.612C324.714 468.051 324.532 468.46 324.245 468.65C323.892 468.926 323.416 468.829 323.141 468.476Z" fill="#656565"/>
<path opacity="0.5" d="M66.5506 756.61L30.5957 706.003C30.3206 705.65 30.4172 705.174 30.8559 704.966C31.2091 704.69 31.6851 704.787 31.9602 705.14L67.9151 755.746C68.1903 756.099 68.0936 756.575 67.7404 756.851C67.3017 757.06 66.8258 756.963 66.5506 756.61Z" fill="#656565"/>
<path opacity="0.094845" d="M-120.605 672.704L31.3803 704.824C31.8562 704.921 32.0644 705.359 32.0347 705.75C31.938 706.226 31.4993 706.435 31.1089 706.405L-120.876 674.285C-121.285 674.103 -121.56 673.75 -121.378 673.34C-121.348 672.95 -120.995 672.674 -120.605 672.704Z" fill="#656565"/>
<path opacity="0.5" d="M215.526 354.232L263.72 359.928C264.196 360.024 264.471 360.377 264.374 360.853C264.345 361.244 263.924 361.605 263.534 361.575L215.34 355.879C214.95 355.85 214.589 355.43 214.686 354.954C214.63 354.496 215.05 354.135 215.526 354.232Z" fill="#656565"/>
<path opacity="0.059025" d="M-60.2309 662.823L67.5729 755.479C67.915 755.747 67.9707 756.204 67.703 756.546C67.4353 756.889 66.9781 756.945 66.7215 756.744L-61.1678 664.021C-61.5099 663.754 -61.5657 663.296 -61.3835 662.887C-61.0972 662.697 -60.5729 662.556 -60.2309 662.823Z" fill="#656565"/>
<path opacity="0.4346" d="M149.804 129.305L229.106 73.5385C229.459 73.263 229.935 73.3594 230.21 73.7125C230.485 74.0657 230.388 74.5418 230.035 74.8173L150.733 130.583C150.38 130.859 149.904 130.762 149.629 130.409C149.354 130.056 149.451 129.58 149.804 129.305Z" fill="#656565"/>
<path opacity="0.1727" d="M11.1444 786.929L26.5654 706.576C26.7476 706.166 27.1008 705.891 27.5098 706.073C27.8333 706.188 28.1084 706.541 28.0787 706.932L12.7246 787.199C12.628 787.675 12.1893 787.884 11.7134 787.787C11.3899 787.672 11.1147 787.319 11.1444 786.929Z" fill="#656565"/>
<path opacity="0.4066" d="M-60.3829 662.842L31.5513 704.958C31.9603 705.14 32.1686 705.579 31.9864 705.988C31.8042 706.397 31.3655 706.606 30.9565 706.424L-60.9777 664.308C-61.3867 664.126 -61.5281 663.601 -61.2604 663.259C-61.0782 662.85 -60.7064 662.727 -60.3829 662.842Z" fill="#656565"/>
<path opacity="0.2035" d="M213.773 303.067L156.693 297.455C156.217 297.359 155.942 297.005 155.971 296.615C156.068 296.139 156.421 295.863 156.812 295.893L213.892 301.505C214.282 301.534 214.643 301.955 214.613 302.345C214.516 302.821 214.163 303.097 213.773 303.067Z" fill="#656565"/>
<path opacity="0.080145" d="M76.2292 771.905L26.7253 707.253C26.4501 706.899 26.5468 706.423 26.9 706.148C27.1863 705.958 27.7291 705.969 27.9187 706.255L77.4896 770.822C77.7648 771.175 77.6012 771.737 77.248 772.012C76.9617 772.202 76.4858 772.106 76.2292 771.905Z" fill="#656565"/>
<path opacity="0.2469" d="M-27.2861 598.66L31.8933 705.226C32.1685 705.579 31.9194 706.074 31.6331 706.264C31.2799 706.539 30.7854 706.29 30.5957 706.004L-28.7361 599.457C-28.9443 599.018 -28.7622 598.609 -28.4089 598.333C-28.0371 598.21 -27.5612 598.306 -27.2861 598.66Z" fill="#656565"/>
<path opacity="0.2536" d="M214.826 355.478L156.113 297.139C155.771 296.872 155.782 296.329 156.135 296.053C156.488 295.778 156.946 295.722 157.221 296.075L215.782 354.433C216.057 354.786 216.113 355.243 215.76 355.519C215.644 355.842 215.101 355.831 214.826 355.478Z" fill="#656565"/>
<path opacity="0.2622" d="M215.98 355.414L180.722 409.493C180.454 409.835 179.93 409.977 179.588 409.709C179.246 409.442 179.19 408.984 179.306 408.661L214.563 354.582C214.831 354.24 215.288 354.184 215.611 354.299C216.192 354.615 216.247 355.072 215.98 355.414Z" fill="#656565"/>
<path opacity="0.435" d="M67.5881 756.87L12.4086 787.779C11.9699 787.988 11.494 787.891 11.2858 787.453C11.0776 787.014 11.1742 786.538 11.613 786.329L66.8779 755.487C67.3166 755.278 67.7256 755.46 67.9338 755.899C68.0565 756.271 67.8743 756.68 67.5881 756.87Z" fill="#656565"/>
<path opacity="0.4487" d="M11.2109 786.843L30.521 705.394C30.7031 704.985 31.0564 704.709 31.4654 704.891C31.7889 705.006 32.064 705.359 32.0343 705.75L12.7242 787.199C12.6275 787.675 12.1888 787.884 11.7129 787.787C11.3225 787.758 11.0287 787.252 11.2109 786.843Z" fill="#656565"/>
<path opacity="0.1792" d="M-60.041 663.109L12.6502 786.589C12.8584 787.028 12.7618 787.504 12.323 787.713C11.9698 787.988 11.4084 787.825 11.2002 787.386L-61.4242 663.821C-61.6993 663.467 -61.5357 662.906 -61.1639 662.783C-60.7252 662.574 -60.1637 662.737 -60.041 663.109Z" fill="#656565"/>
<path opacity="0.4443" d="M76.21 771.752L66.5501 756.61C66.275 756.257 66.3716 755.78 66.8104 755.572C67.1636 755.296 67.6395 755.393 67.8477 755.831L77.5076 770.974C77.7828 771.327 77.6192 771.889 77.266 772.164C76.8942 772.287 76.4183 772.191 76.21 771.752Z" fill="#656565"/>
<path opacity="0.207" d="M263.125 361.394L156.217 297.359C155.875 297.091 155.667 296.652 156.001 296.225C156.269 295.882 156.708 295.674 157.05 295.941L263.891 360.062C264.233 360.329 264.441 360.768 264.173 361.11C263.991 361.52 263.534 361.576 263.125 361.394Z" fill="#656565"/>
<path opacity="0.4013" d="M76.1433 771.838L30.5283 706.09C30.2532 705.736 30.3499 705.26 30.7031 704.985C31.0563 704.709 31.5322 704.806 31.8074 705.159L77.4223 770.908C77.6974 771.261 77.5338 771.823 77.2475 772.012C76.9798 772.355 76.4184 772.191 76.1433 771.838Z" fill="#656565"/>
<path opacity="0.3069" d="M179.659 408.385L263.196 360.07C263.549 359.794 264.11 359.957 264.233 360.329C264.508 360.682 264.345 361.244 263.973 361.367L180.521 409.75C180.083 409.958 179.607 409.862 179.399 409.423C179.209 409.137 179.306 408.661 179.659 408.385Z" fill="#656565"/>
<path opacity="0.3542" d="M179.294 409.204L155.991 296.767C155.935 296.31 156.117 295.901 156.641 295.759C157.099 295.703 157.441 295.971 157.563 296.342L180.934 408.693C180.99 409.151 180.807 409.56 180.283 409.701C179.844 409.91 179.435 409.728 179.294 409.204Z" fill="#656565"/>
<path opacity="0.5" d="M77.0288 772.117L12.1039 787.817C11.6466 787.873 11.3045 787.606 11.0963 787.167C11.0405 786.709 11.3082 786.367 11.68 786.244L76.605 770.544C77.0623 770.488 77.4898 770.822 77.5456 771.279C77.6683 771.651 77.4006 771.994 77.0288 772.117Z" fill="#656565"/>
<path opacity="0.1899" d="M262.85 361.04L239.369 308.053C239.161 307.614 239.41 307.119 239.848 306.911C240.287 306.702 240.696 306.884 240.904 307.323L264.233 360.329C264.441 360.768 264.259 361.177 263.82 361.386C263.534 361.576 263.058 361.479 262.85 361.04Z" fill="#656565"/>
<path opacity="0.343" d="M-76.7211 823.858L11.5269 786.262C11.8987 786.139 12.3932 786.388 12.5159 786.76C12.6386 787.132 12.4564 787.541 12.1701 787.731L-76.1448 825.413C-76.5835 825.621 -77.078 825.372 -77.2862 824.934C-77.2565 824.543 -77.0743 824.134 -76.7211 823.858Z" fill="#656565"/>
<path opacity="0.4096" d="M240.053 308.588L156.693 297.455C156.217 297.359 155.942 297.006 156.039 296.53C156.135 296.053 156.488 295.778 156.964 295.874L240.391 306.922C240.867 307.018 241.228 307.438 241.131 307.914C240.949 308.324 240.443 308.618 240.053 308.588Z" fill="#656565"/>
<path opacity="0.283" d="M179.458 408.642L239.428 307.272C239.61 306.862 240.135 306.721 240.629 306.97C241.038 307.152 241.179 307.676 240.93 308.171L180.874 409.474C180.606 409.816 180.082 409.958 179.74 409.69C179.331 409.508 179.19 408.984 179.458 408.642Z" fill="#656565"/>
<path opacity="0.068237" d="M-76.6351 823.926L76.5379 770.629C76.9766 770.421 77.4711 770.67 77.5269 771.127C77.7351 771.566 77.4005 771.994 77.0287 772.117L-76.2112 825.499C-76.6685 825.555 -77.0775 825.373 -77.2857 824.934C-77.189 824.458 -77.0069 824.049 -76.6351 823.926Z" fill="#656565"/>
<path opacity="0.028443" d="M47.8862 263.521L156.964 295.874C157.44 295.97 157.648 296.409 157.552 296.885C157.37 297.295 157.016 297.57 156.54 297.474L47.4809 265.273C47.0719 265.091 46.7782 264.586 46.9604 264.176C46.9715 263.633 47.4772 263.339 47.8862 263.521Z" fill="#656565"/>
<path opacity="0.068577" d="M-43.0993 743.673L12.4796 786.456C12.8216 786.723 12.8105 787.266 12.5428 787.609C12.2751 787.951 11.8178 788.007 11.4757 787.74L-44.17 745.042C-44.5121 744.774 -44.5865 744.164 -44.3188 743.822C-43.9842 743.394 -43.4414 743.405 -43.0993 743.673Z" fill="#656565"/>
<path opacity="0.01" d="M76.7238 772.154L-43.8468 745.157C-44.3227 745.06 -44.5496 744.469 -44.3674 744.06C-44.1852 743.651 -43.832 743.375 -43.3561 743.472L77.1477 770.554C77.6236 770.651 77.8318 771.089 77.7352 771.566C77.553 771.975 77.1998 772.25 76.7238 772.154Z" fill="#656565"/>
<path opacity="0.2031" d="M367.543 183.616L331.839 192.793C331.381 192.849 330.887 192.6 330.831 192.142C330.775 191.685 330.957 191.276 331.482 191.134L367.272 182.025C367.729 181.968 368.138 182.15 368.28 182.675C368.25 183.065 367.915 183.493 367.543 183.616Z" fill="#656565"/>
<path opacity="0.1759" d="M332.259 192.432L240.778 308.19C240.51 308.532 239.901 308.607 239.559 308.339C239.216 308.072 239.142 307.462 239.41 307.119L330.805 191.295C331.073 190.952 331.683 190.877 332.11 191.212C332.471 191.632 332.527 192.089 332.259 192.432Z" fill="#656565"/>
<path opacity="0.07691" d="M-120.652 218.728L47.8862 263.521C48.3621 263.617 48.6558 264.123 48.4736 264.532C48.377 265.008 47.8713 265.302 47.4623 265.12L-120.99 220.395C-121.466 220.298 -121.76 219.793 -121.578 219.384C-121.481 218.907 -121.061 218.546 -120.652 218.728Z" fill="#656565"/>
<path opacity="0.2147" d="M-120.499 218.71L16.4317 275.194C16.8407 275.376 17.1344 275.882 16.8853 276.377C16.7031 276.786 16.1975 277.08 15.703 276.831L-121.228 220.347C-121.637 220.165 -121.931 219.66 -121.682 219.165C-121.414 218.823 -120.908 218.528 -120.499 218.71Z" fill="#656565"/>
<path opacity="0.5" d="M15.8218 275.269L47.429 263.577C47.8678 263.369 48.3622 263.618 48.5705 264.057C48.7787 264.495 48.5296 264.99 48.0909 265.199L16.4836 276.89C16.0449 277.099 15.5504 276.85 15.3422 276.411C15.134 275.973 15.3831 275.478 15.8218 275.269Z" fill="#656565"/>
<path opacity="0.2275" d="M47.2094 263.682L150.753 184.669C151.106 184.394 151.734 184.472 152.009 184.825C152.285 185.178 152.206 185.807 151.853 186.082L48.2245 265.027C47.8713 265.303 47.2429 265.225 47.0347 264.787C46.7595 264.433 46.8562 263.957 47.2094 263.682Z" fill="#656565"/>
<path opacity="0.093505" d="M15.6024 275.374L150.753 184.67C151.106 184.394 151.735 184.472 152.028 184.977C152.303 185.331 152.225 185.959 151.72 186.253L16.4836 276.89C16.1304 277.166 15.5689 277.003 15.2938 276.649C15.1525 276.125 15.2492 275.649 15.6024 275.374Z" fill="#656565"/>
<path opacity="0.2269" d="M332.196 191.279L444.655 293.864C445.083 294.198 445.072 294.741 444.737 295.169C444.402 295.597 443.86 295.586 443.432 295.252L331.04 192.581C330.697 192.314 330.623 191.704 331.043 191.343C331.311 191.001 331.768 190.944 332.196 191.279Z" fill="#656565"/>
<path opacity="0.01" d="M107.699 802.865L-43.9999 745.175C-44.4089 744.993 -44.7026 744.487 -44.5205 744.078C-44.3383 743.669 -43.8326 743.375 -43.4236 743.557L108.342 801.162C108.837 801.41 109.045 801.849 108.882 802.411C108.699 802.82 108.194 803.114 107.699 802.865Z" fill="#656565"/>
<path opacity="0.039436" d="M96.2025 589.318L-41.6578 713.627C-42.0779 713.988 -42.6393 713.825 -42.9145 713.471C-43.1896 713.118 -43.1785 712.575 -42.9108 712.233L94.8826 588.009C95.2358 587.734 95.7786 587.745 96.1393 588.165C96.4814 588.432 96.4702 588.975 96.2025 589.318Z" fill="#656565"/>
<path opacity="0.2855" d="M110.048 906.497L107.131 802.007C107.142 801.464 107.562 801.103 108.105 801.113C108.648 801.124 109.008 801.544 109.064 802.002L111.896 906.425C111.885 906.968 111.465 907.329 110.922 907.318C110.379 907.308 110.018 906.888 110.048 906.497Z" fill="#656565"/>
<path opacity="0.1056" d="M210.234 666.098L95.0499 589.382C94.7079 589.114 94.4811 588.523 94.8157 588.095C95.1503 587.667 95.6746 587.526 96.1022 587.86L211.353 664.49C211.781 664.825 211.922 665.349 211.588 665.777C211.338 666.272 210.662 666.432 210.234 666.098Z" fill="#656565"/>
<path opacity="0.1932" d="M184.663 598.509L95.3731 589.496C94.8972 589.4 94.5365 588.98 94.6331 588.504C94.7298 588.028 95.083 587.752 95.5403 587.696L184.897 596.624C185.44 596.634 185.819 597.207 185.723 597.683C185.712 598.226 185.139 598.606 184.663 598.509Z" fill="#656565"/>
<path opacity="0.1581" d="M107.614 802.799L-42.8104 713.691C-43.3049 713.442 -43.3793 712.833 -43.1971 712.423C-42.948 711.928 -42.3382 711.854 -41.9962 712.121L108.343 801.162C108.77 801.497 108.912 802.021 108.577 802.449C108.48 802.925 108.023 802.981 107.614 802.799Z" fill="#656565"/>
<path opacity="0.053261" d="M108.614 802.753L-49.0898 909.61C-49.5285 909.819 -50.0714 909.808 -50.3651 909.302C-50.6403 908.949 -50.5622 908.32 -50.1235 908.112L107.581 801.255C108.019 801.047 108.648 801.124 108.856 801.563C109.131 801.916 108.967 802.478 108.614 802.753Z" fill="#656565"/>
<path opacity="0.1563" d="M-89.862 756.062L-48.8297 908.572C-48.6884 909.097 -49.023 909.525 -49.5472 909.666C-50.0715 909.808 -50.499 909.474 -50.7073 909.035L-91.7396 756.524C-91.8809 756 -91.4794 755.486 -91.022 755.43C-90.4123 755.355 -89.9178 755.604 -89.862 756.062Z" fill="#656565"/>
<path opacity="0.1628" d="M-32.8645 885.335L-43.2083 712.966C-43.1971 712.423 -42.8625 711.995 -42.3197 712.006C-41.7768 712.017 -41.3492 712.351 -41.3604 712.894L-30.9497 885.177C-30.9609 885.72 -31.2955 886.148 -31.9053 886.223C-32.4481 886.212 -32.8087 885.792 -32.8645 885.335Z" fill="#656565"/>
<path opacity="0.1901" d="M108.548 802.839L-31.3809 886.081C-31.8866 886.375 -32.4481 886.212 -32.6563 885.773C-32.95 885.268 -32.7865 884.706 -32.3477 884.498L107.666 801.322C108.105 801.113 108.666 801.277 108.875 801.715C109.064 802.002 108.901 802.563 108.548 802.839Z" fill="#656565"/>
<path opacity="0.01" d="M-26.5298 658.148L-110.871 496.866C-111.079 496.428 -110.915 495.866 -110.477 495.657C-110.038 495.449 -109.476 495.612 -109.268 496.051L-24.708 657.228C-24.4998 657.667 -24.7303 658.314 -25.1691 658.523C-25.6747 658.817 -26.1692 658.568 -26.5298 658.148Z" fill="#656565"/>
<path opacity="0.1096" d="M107.294 801.444L209.914 664.743C210.249 664.316 210.859 664.241 211.286 664.575C211.714 664.91 211.703 665.453 211.52 665.862L108.815 802.496C108.48 802.924 107.87 802.999 107.443 802.664C107.101 802.397 107.026 801.787 107.294 801.444Z" fill="#656565"/>
<path opacity="0.3467" d="M-89.8805 755.909L-31.0725 884.806C-30.8643 885.244 -31.0948 885.892 -31.5336 886.1C-31.9723 886.309 -32.6192 886.079 -32.8274 885.64L-91.6355 756.743C-91.8437 756.305 -91.6131 755.657 -91.1744 755.449C-90.5832 755.221 -90.0887 755.47 -89.8805 755.909Z" fill="#656565"/>
<path opacity="0.5" d="M209.874 665.678L183.827 597.993C183.686 597.469 183.849 596.907 184.374 596.766C184.898 596.624 185.459 596.787 185.601 597.311L211.647 664.996C211.788 665.52 211.539 666.015 211.101 666.224C210.576 666.365 210.082 666.116 209.874 665.678Z" fill="#656565"/>
<path opacity="0.062707" d="M125.893 492.126L211.562 664.929C211.77 665.368 211.606 665.93 211.101 666.224C210.662 666.432 210.1 666.269 209.807 665.763L124.071 493.046C123.863 492.607 124.094 491.96 124.532 491.751C125.038 491.457 125.599 491.62 125.893 492.126Z" fill="#656565"/>
<path opacity="0.3992" d="M125.874 491.973L185.648 597.074C185.942 597.579 185.779 598.141 185.273 598.435C184.767 598.729 184.206 598.566 183.912 598.06L124.138 492.96C123.844 492.454 124.008 491.893 124.514 491.599C124.952 491.39 125.666 491.535 125.874 491.973Z" fill="#656565"/>
<path opacity="0.2545" d="M114.57 242.576L132.875 274.687L61.0778 241.011L114.57 242.576Z" fill="#656565"/>
<path opacity="0.1776" d="M196.146 296.176L114.57 242.576L132.875 274.687L196.146 296.176Z" fill="#656565"/>
<path opacity="0.1317" d="M114.57 242.576L61.0778 241.011L45.7634 263.24L114.57 242.576Z" fill="#656565"/>
<path opacity="0.1997" d="M12.6144 165.862L60.3914 145.3L29.7172 144.342L12.6144 165.862Z" fill="#656565"/>
<path opacity="0.2793" d="M179.917 299.482L196.146 296.176L225.255 317.29L179.917 299.482Z" fill="#656565"/>
<path opacity="0.2793" d="M179.917 299.482L196.146 296.176L225.255 317.29L179.917 299.482Z" fill="#656565"/>
<path opacity="0.2793" d="M179.917 299.482L196.146 296.176L225.255 317.29L179.917 299.482Z" fill="#656565"/>
<path opacity="0.2565" d="M12.6143 165.862L37.0526 130.907L29.7171 144.342L12.6143 165.862Z" fill="#656565"/>
<path opacity="0.2565" d="M12.6143 165.862L37.0526 130.907L29.7171 144.342L12.6143 165.862Z" fill="#656565"/>
<path opacity="0.091609" d="M-6.67436 361.674L37.3856 393.103L84.4814 335.87L-6.67436 361.674Z" fill="#656565"/>
<path opacity="0.1799" d="M70.6565 296.09L45.7632 263.24L84.4812 335.87L70.6565 296.09Z" fill="#656565"/>
<path opacity="0.042801" d="M37.3857 393.103L70.6569 296.09L84.4815 335.87L37.3857 393.103Z" fill="#656565"/>
<path opacity="0.2181" d="M-36.4878 107.041L37.0527 130.908L-3.23401 70.1542L-36.4878 107.041Z" fill="#656565"/>
<path opacity="0.1452" d="M13.7045 717.206L27.279 706.72L69.6999 760.867L13.7045 717.206Z" fill="#656565"/>
<path opacity="0.1452" d="M13.7045 717.206L27.279 706.72L69.6999 760.867L13.7045 717.206Z" fill="#656565"/>
<path opacity="0.1452" d="M13.7045 717.206L27.279 706.72L69.6999 760.867L13.7045 717.206Z" fill="#656565"/>
<path opacity="0.2554" d="M-6.67437 361.674L37.3857 393.103L12.321 347.428L-6.67437 361.674Z" fill="#656565"/>
<path opacity="0.038904" d="M185.659 366.871L225.255 317.29L213.833 302.287L185.659 366.871Z" fill="#656565"/>
<path opacity="0.2055" d="M179.916 299.482L185.659 366.871L213.833 302.287L179.916 299.482Z" fill="#656565"/>
<path opacity="0.01" d="M-45.2817 82.5071L-32.6729 118.025L37.0526 130.908L-45.2817 82.5071Z" fill="#656565"/>
<path opacity="0.1589" d="M-36.4876 107.041L-32.6726 118.025L37.053 130.908L-36.4876 107.041Z" fill="#656565"/>
<path opacity="0.2348" d="M-6.67404 361.675L70.6571 296.091L12.3214 347.429L-6.67404 361.675Z" fill="#656565"/>
<path opacity="0.1261" d="M179.916 299.481L185.658 366.87L215.38 354.946L179.916 299.481Z" fill="#656565"/>
<path opacity="0.1827" d="M179.917 299.482L215.381 354.946L213.833 302.287L179.917 299.482Z" fill="#656565"/>
<path opacity="0.12" d="M-45.2817 82.5073L-15.9023 38.5898L-32.6729 118.025L-45.2817 82.5073Z" fill="#656565"/>
<path opacity="0.12" d="M-45.2817 82.5073L-15.9023 38.5898L-32.6729 118.025L-45.2817 82.5073Z" fill="#656565"/>
<path opacity="0.1385" d="M-36.488 107.041L-15.9023 38.5898L-32.6729 118.025L-36.488 107.041Z" fill="#656565"/>
<path opacity="0.2416" d="M67.1904 756.145L27.2795 706.72L31.321 705.605L67.1904 756.145Z" fill="#656565"/>
<path opacity="0.2416" d="M67.1904 756.145L27.2795 706.72L31.321 705.605L67.1904 756.145Z" fill="#656565"/>
<path opacity="0.2416" d="M67.1904 756.145L27.2795 706.72L31.321 705.605L67.1904 756.145Z" fill="#656565"/>
<path opacity="0.2344" d="M215.381 354.946L213.833 302.287L263.66 360.709L215.381 354.946Z" fill="#656565"/>
<path opacity="0.1153" d="M76.9355 771.354L67.19 756.145L11.9252 786.988L76.9355 771.354Z" fill="#656565"/>
<path opacity="0.09078" d="M76.9355 771.354L11.9251 786.988L31.3207 705.605L76.9355 771.354Z" fill="#656565"/>
<path opacity="0.088929" d="M-90.7578 756.326L-105.833 845.226L-31.9499 885.223L-90.7578 756.326Z" fill="#656565"/>
<rect width="343" height="824" transform="matrix(1 0 0 -1 -1.00085 824)" fill="url(#paint0_linear)"/>
</g>
<defs>
<linearGradient id="paint0_linear" x1="118.921" y1="5.28709e-06" x2="-112.657" y2="752.757" gradientUnits="userSpaceOnUse">
<stop stop-opacity="0.45"/>
<stop offset="0.942708" stop-opacity="0.9"/>
</linearGradient>
<clipPath id="clip0">
<rect width="342" height="824" fill="white" transform="matrix(1 0 0 -1 0 824)"/>
</clipPath>
</defs>
</svg>
