<svg width="252" height="700" viewBox="0 0 252 700" fill="none" xmlns="http://www.w3.org/2000/svg">
<g clip-path="url(#clip0)">
<path opacity="0.5" d="M205.859 99.8855C204.839 100.515 204.587 101.861 205.216 102.88C205.845 103.899 207.192 104.15 208.133 103.569C209.153 102.94 209.532 101.624 208.903 100.605C208.147 99.5558 206.879 99.2562 205.859 99.8855Z" fill="#616161"/>
<path opacity="0.5" d="M245.091 224.5C244.071 225.13 243.74 226.524 244.369 227.543C244.998 228.562 246.394 228.892 247.413 228.262C248.433 227.633 248.764 226.238 248.135 225.219C247.506 224.201 246.111 223.871 245.091 224.5Z" fill="#616161"/>
<path opacity="0.5" d="M227.403 15.804C226.305 16.4818 225.974 17.8764 226.652 18.9737C227.329 20.071 228.724 20.4006 229.823 19.7229C230.921 19.0451 231.252 17.6505 230.574 16.5532C229.897 15.4559 228.423 15.1747 227.403 15.804Z" fill="#616161"/>
<path opacity="0.5" d="M253.041 192.103C251.943 192.781 251.612 194.175 252.29 195.273C252.967 196.37 254.362 196.699 255.461 196.022C256.559 195.344 256.89 193.949 256.212 192.852C255.535 191.755 254.139 191.425 253.041 192.103Z" fill="#616161"/>
<path opacity="0.5" d="M84.2264 218.562C83.1281 219.24 82.7673 220.761 83.4447 221.858C84.1221 222.956 85.6442 223.315 86.7426 222.637C87.8409 221.96 88.2016 220.438 87.5242 219.341C86.8468 218.244 85.4032 217.836 84.2264 218.562Z" fill="#616161"/>
<path opacity="0.5" d="M223.522 439.455C222.424 440.132 222.063 441.654 222.741 442.751C223.418 443.848 224.94 444.208 226.039 443.53C227.215 442.804 227.498 441.331 226.82 440.234C226.143 439.136 224.699 438.728 223.522 439.455Z" fill="#616161"/>
<path opacity="0.5" d="M215.086 326.466C213.91 327.192 213.549 328.713 214.275 329.889C215.001 331.065 216.523 331.424 217.699 330.698C218.876 329.972 219.237 328.451 218.511 327.275C217.785 326.099 216.263 325.74 215.086 326.466Z" fill="#616161"/>
<path opacity="0.5" d="M210.249 468.318C209.072 469.044 208.712 470.565 209.437 471.741C210.163 472.917 211.685 473.276 212.862 472.55C214.039 471.824 214.399 470.303 213.674 469.127C212.948 467.951 211.426 467.592 210.249 468.318Z" fill="#616161"/>
<path opacity="0.5" d="M190.465 644.397C189.289 645.123 188.849 646.693 189.624 647.947C190.398 649.201 191.92 649.56 193.175 648.786C194.352 648.06 194.791 646.49 194.017 645.236C193.243 643.982 191.642 643.67 190.465 644.397Z" fill="#616161"/>
<path opacity="0.5" d="M175.444 432.647C174.231 433.396 172.641 433.02 171.892 431.808C171.144 430.596 171.521 429.006 172.734 428.258C173.947 427.509 175.537 427.885 176.286 429.097C177.034 430.309 176.657 431.898 175.444 432.647Z" fill="#616161"/>
<path opacity="0.5" d="M214.566 170.495C213.311 171.269 212.998 172.869 213.724 174.045C214.498 175.299 216.099 175.61 217.275 174.884C218.531 174.109 218.843 172.509 218.117 171.334C217.391 170.158 215.821 169.72 214.566 170.495Z" fill="#616161"/>
<path opacity="0.5" d="M221.607 574.632C220.352 575.407 219.961 577.055 220.735 578.309C221.509 579.563 223.158 579.953 224.413 579.178C225.669 578.404 226.06 576.756 225.285 575.501C224.511 574.247 222.862 573.858 221.607 574.632Z" fill="#616161"/>
<path opacity="0.5" d="M239.575 131.791C238.763 130.499 239.153 128.793 240.447 127.98C241.74 127.168 243.447 127.557 244.259 128.849C245.071 130.141 244.681 131.848 243.387 132.66C242.094 133.472 240.387 133.083 239.575 131.791Z" fill="#616161"/>
<path opacity="0.5" d="M168.969 502.884C167.636 503.707 167.245 505.355 168.067 506.688C168.89 508.02 170.617 508.361 171.872 507.587C173.206 506.764 173.549 505.037 172.774 503.783C172 502.529 170.224 502.109 168.969 502.884Z" fill="#616161"/>
<path opacity="0.5" d="M241.49 347.298C240.157 348.121 239.814 349.848 240.588 351.102C241.411 352.434 243.138 352.775 244.393 352.001C245.727 351.178 246.07 349.451 245.295 348.197C244.551 346.816 242.824 346.475 241.49 347.298Z" fill="#616161"/>
<path opacity="0.5" d="M221.51 360.385C220.176 361.208 219.756 362.983 220.578 364.315C221.401 365.647 223.176 366.067 224.51 365.244C225.844 364.421 226.265 362.646 225.442 361.313C224.62 359.981 222.844 359.562 221.51 360.385Z" fill="#616161"/>
<path opacity="0.5" d="M91.3504 336.797C89.9383 337.669 89.5174 339.444 90.3884 340.854C91.2594 342.265 93.0351 342.685 94.4472 341.813C95.8593 340.942 96.2802 339.167 95.4092 337.756C94.5383 336.345 92.7625 335.926 91.3504 336.797Z" fill="#616161"/>
<path opacity="0.5" d="M244.244 632.533C242.832 633.404 242.411 635.179 243.282 636.59C244.153 638.001 245.928 638.421 247.341 637.549C248.753 636.678 249.174 634.903 248.303 633.492C247.432 632.081 245.656 631.662 244.244 632.533Z" fill="#616161"/>
<path opacity="0.5" d="M223.251 142.621C221.839 143.493 221.418 145.268 222.289 146.679C223.16 148.089 224.936 148.509 226.348 147.638C227.76 146.766 228.181 144.991 227.31 143.58C226.488 142.248 224.585 141.798 223.251 142.621Z" fill="#616161"/>
<path opacity="0.5" d="M172.064 636.702C170.652 637.573 170.201 639.475 171.072 640.886C171.943 642.296 173.845 642.746 175.258 641.874C176.67 641.003 177.121 639.101 176.25 637.69C175.379 636.28 173.476 635.83 172.064 636.702Z" fill="#616161"/>
<path opacity="0.5" d="M239.096 327.453C237.684 328.324 237.233 330.226 238.104 331.636C238.975 333.047 240.878 333.497 242.29 332.625C243.702 331.754 244.153 329.852 243.282 328.441C242.411 327.031 240.587 326.533 239.096 327.453Z" fill="#616161"/>
<path opacity="0.5" d="M242.004 669.091C240.592 669.963 240.141 671.865 241.012 673.275C241.883 674.686 243.786 675.136 245.198 674.264C246.61 673.393 247.061 671.491 246.19 670.08C245.397 668.621 243.495 668.171 242.004 669.091Z" fill="#616161"/>
<path opacity="0.5" d="M210.444 588.665C208.953 589.585 208.502 591.487 209.422 592.976C210.341 594.465 212.244 594.915 213.734 593.995C215.225 593.075 215.676 591.173 214.756 589.684C213.758 588.243 211.856 587.794 210.444 588.665Z" fill="#616161"/>
<path opacity="0.5" d="M172.55 437.789C171.06 438.708 170.579 440.737 171.498 442.226C172.417 443.715 174.447 444.195 175.937 443.275C177.428 442.355 177.909 440.327 176.99 438.837C176.07 437.348 174.119 436.82 172.55 437.789Z" fill="#616161"/>
<path opacity="0.5" d="M89.453 572.733C87.8055 573.749 87.3729 575.856 88.3406 577.424C89.3568 579.07 91.4646 579.501 93.0336 578.533C94.6811 577.516 95.1137 575.409 94.1459 573.841C93.2566 572.225 91.1004 571.716 89.453 572.733Z" fill="#616161"/>
<path opacity="0.5" d="M240.794 583.249C239.147 584.266 238.636 586.421 239.652 588.067C240.668 589.713 242.824 590.223 244.472 589.206C246.119 588.189 246.552 586.082 245.536 584.436C244.55 582.664 242.442 582.233 240.794 583.249Z" fill="#616161"/>
<path opacity="0.2147" d="M276.36 166.349L206.599 102.135C206.375 101.949 206.387 101.617 206.574 101.393C206.761 101.169 207.172 101.133 207.317 101.368L277.078 165.581C277.302 165.768 277.29 166.1 277.103 166.323C276.916 166.547 276.584 166.536 276.36 166.349Z" fill="#656565"/>
<path opacity="0.159" d="M245.776 226.135L276.178 165.703C276.317 165.401 276.601 165.334 276.903 165.473C277.205 165.611 277.271 165.895 277.133 166.197L246.73 226.629C246.592 226.931 246.229 227.046 246.006 226.859C245.752 226.799 245.637 226.437 245.776 226.135Z" fill="#656565"/>
<path opacity="0.1823" d="M280.734 168.52L206.599 102.135C206.375 101.948 206.338 101.538 206.525 101.314C206.712 101.091 207.045 101.102 207.268 101.289L281.403 167.674C281.627 167.861 281.664 168.271 281.477 168.495C281.29 168.718 280.958 168.707 280.734 168.52Z" fill="#656565"/>
<path opacity="0.363" d="M281.634 168.398L246.779 226.707C246.592 226.93 246.23 227.045 246.006 226.859C245.782 226.672 245.716 226.388 245.854 226.086L280.709 167.778C280.896 167.554 281.258 167.439 281.482 167.625C281.706 167.812 281.772 168.096 281.634 168.398Z" fill="#656565"/>
<path opacity="0.233" d="M246.626 225.934L319.711 286.582C319.934 286.768 319.971 287.179 319.784 287.402C319.597 287.626 319.187 287.663 318.963 287.476L245.927 226.907C245.703 226.72 245.666 226.31 245.853 226.086C246.119 225.814 246.402 225.748 246.626 225.934Z" fill="#656565"/>
<path opacity="0.1905" d="M268.908 450.847L298.944 534.595C299.011 534.879 298.921 535.259 298.637 535.326C298.353 535.393 298.051 535.254 297.906 535.019L267.87 451.271C267.803 450.987 267.942 450.685 268.177 450.54C268.412 450.395 268.763 450.611 268.908 450.847Z" fill="#656565"/>
<path opacity="0.1242" d="M229.121 17.8834L207.48 101.808C207.42 102.061 207.106 102.255 206.774 102.243C206.52 102.184 206.327 101.87 206.387 101.616L227.979 17.6137C228.118 17.3117 228.432 17.118 228.734 17.2563C228.987 17.3163 229.181 17.6298 229.121 17.8834Z" fill="#656565"/>
<path opacity="0.080509" d="M281.477 168.495L254.62 194.484C254.433 194.708 254.022 194.744 253.829 194.431C253.605 194.244 253.568 193.834 253.882 193.64L280.787 167.729C280.974 167.506 281.306 167.517 281.578 167.782C281.754 167.891 281.712 168.349 281.477 168.495Z" fill="#656565"/>
<path opacity="0.3855" d="M245.746 226.262L253.744 193.942C253.883 193.64 254.196 193.447 254.498 193.585C254.752 193.645 254.946 193.958 254.934 194.29L246.936 226.61C246.875 226.863 246.562 227.057 246.23 227.045C245.879 226.829 245.686 226.515 245.746 226.262Z" fill="#656565"/>
<path opacity="0.1263" d="M245.854 226.086L294.686 165.322C294.873 165.099 295.283 165.062 295.507 165.248C295.731 165.435 295.719 165.767 295.58 166.069L246.7 226.755C246.513 226.978 246.103 227.015 245.879 226.828C245.734 226.593 245.667 226.31 245.854 226.086Z" fill="#656565"/>
<path opacity="0.3229" d="M225.107 440.966L277.911 468.236C278.213 468.375 278.328 468.737 278.189 469.039C278.051 469.341 277.689 469.456 277.387 469.317L224.631 442.126C224.329 441.987 224.292 441.577 224.431 441.275C224.521 440.895 224.805 440.828 225.107 440.966Z" fill="#656565"/>
<path opacity="0.2028" d="M225.952 713.633L310.77 667.463C311.083 667.269 311.385 667.407 311.579 667.721C311.773 668.034 311.634 668.336 311.32 668.53L226.503 714.7C226.189 714.894 225.887 714.756 225.693 714.442C225.578 714.08 225.717 713.778 225.952 713.633Z" fill="#656565"/>
<path opacity="0.106" d="M211.501 469.819L277.53 468.146C277.862 468.158 278.134 468.423 278.122 468.755C278.111 469.087 277.924 469.311 277.591 469.299L211.484 471.02C211.152 471.008 210.88 470.743 210.892 470.411C210.904 470.079 211.169 469.807 211.501 469.819Z" fill="#656565"/>
<path opacity="0.3184" d="M226.314 713.518L265.038 719.387C265.419 719.476 265.612 719.79 265.601 720.122C265.589 720.454 265.275 720.648 264.943 720.636L226.218 714.767C225.886 714.756 225.693 714.442 225.704 714.11C225.668 713.7 226.06 713.458 226.314 713.518Z" fill="#656565"/>
<path opacity="0.1451" d="M224.165 441.548L215.778 328.638C215.79 328.306 216.007 327.956 216.339 327.967C216.671 327.979 217.021 328.195 217.01 328.527L225.397 441.437C225.385 441.769 225.12 442.041 224.788 442.03C224.504 442.096 224.232 441.831 224.165 441.548Z" fill="#656565"/>
<path opacity="0.5" d="M225.386 441.769L212.034 470.681C211.895 470.983 211.533 471.098 211.231 470.96C210.929 470.822 210.814 470.46 210.952 470.158L224.304 441.245C224.443 440.943 224.805 440.828 225.107 440.966C225.409 441.105 225.524 441.467 225.386 441.769Z" fill="#656565"/>
<path opacity="0.095671" d="M224.931 440.857L322.676 458.796C323.057 458.885 323.25 459.199 323.16 459.579C323.07 459.96 322.756 460.153 322.502 460.093L224.709 442.077C224.329 441.987 224.135 441.674 224.225 441.293C224.285 441.04 224.599 440.846 224.931 440.857Z" fill="#656565"/>
<path opacity="0.1489" d="M211.453 469.741L322.471 458.815C322.882 458.778 323.154 459.043 323.142 459.375C323.13 459.707 322.913 460.057 322.581 460.046L211.563 470.972C211.231 470.96 210.881 470.743 210.892 470.411C210.826 470.128 211.091 469.856 211.453 469.741Z" fill="#656565"/>
<path opacity="0.1685" d="M224.71 442.078L173.891 431.009C173.51 430.919 173.317 430.605 173.407 430.225C173.497 429.844 173.811 429.651 174.192 429.741L224.932 440.858C225.312 440.948 225.506 441.262 225.367 441.564C225.404 441.974 225.012 442.216 224.71 442.078Z" fill="#656565"/>
<path opacity="0.1799" d="M192.195 646.144L265.389 719.603C265.661 719.868 265.571 720.249 265.305 720.521C265.119 720.744 264.708 720.781 264.436 720.516L191.163 647.105C190.891 646.84 190.933 646.381 191.247 646.187C191.591 645.867 191.923 645.878 192.195 646.144Z" fill="#656565"/>
<path opacity="0.2139" d="M294.049 638.274L265.522 720.17C265.384 720.472 265.07 720.666 264.689 720.576C264.387 720.437 264.194 720.124 264.332 719.822L292.811 637.848C292.901 637.467 293.342 637.304 293.644 637.442C294.024 637.532 294.188 637.972 294.049 638.274Z" fill="#656565"/>
<path opacity="0.057505" d="M173.485 430.176L215.916 328.335C216.055 328.033 216.369 327.839 216.749 327.929C217.051 328.068 217.166 328.43 217.076 328.81L174.771 430.681C174.633 430.983 174.192 431.147 173.89 431.008C173.461 430.84 173.346 430.478 173.485 430.176Z" fill="#656565"/>
<path opacity="0.3629" d="M174.542 429.957L212.009 469.939C212.281 470.204 212.19 470.584 212.003 470.808C211.738 471.08 211.358 470.99 211.134 470.803L173.667 430.822C173.395 430.557 173.437 430.098 173.75 429.904C173.859 429.729 174.318 429.771 174.542 429.957Z" fill="#656565"/>
<path opacity="0.2854" d="M293.47 638.74L191.797 647.254C191.387 647.291 191.115 647.026 191.078 646.616C191.041 646.206 191.307 645.934 191.639 645.945L293.312 637.431C293.722 637.394 293.994 637.659 294.031 638.069C294.098 638.353 293.832 638.625 293.47 638.74Z" fill="#656565"/>
<path opacity="0.4523" d="M215.583 172.14L269.194 138.948C269.508 138.755 269.889 138.845 270.082 139.158C270.276 139.472 270.186 139.852 269.872 140.046L216.26 173.237C215.946 173.431 215.566 173.341 215.372 173.027C215.227 172.792 215.269 172.333 215.583 172.14Z" fill="#656565"/>
<path opacity="0.076525" d="M215.709 172.17L331.397 121.779C331.759 121.664 332.061 121.802 332.255 122.115C332.37 122.477 332.231 122.779 331.918 122.973L216.23 173.364C215.867 173.48 215.487 173.39 215.372 173.028C215.178 172.714 215.347 172.286 215.709 172.17Z" fill="#656565"/>
<path opacity="0.3227" d="M223.615 577.182L192.298 646.838C192.159 647.14 191.719 647.303 191.416 647.165C191.114 647.027 190.999 646.665 191.138 646.363L222.407 576.629C222.545 576.327 222.986 576.163 223.288 576.302C223.668 576.392 223.832 576.832 223.615 577.182Z" fill="#656565"/>
<path opacity="0.2938" d="M223.463 576.41L293.868 637.629C294.14 637.894 294.176 638.304 293.911 638.576C293.645 638.848 293.235 638.885 292.963 638.62L222.558 577.401C222.286 577.136 222.328 576.677 222.594 576.405C222.829 576.26 223.191 576.145 223.463 576.41Z" fill="#656565"/>
<path opacity="0.142" d="M242.126 129.675L269.81 138.894C270.112 139.032 270.306 139.345 270.215 139.726C270.077 140.028 269.763 140.221 269.383 140.131L241.669 131.04C241.288 130.95 241.125 130.51 241.215 130.129C241.432 129.779 241.746 129.585 242.126 129.675Z" fill="#656565"/>
<path opacity="0.045279" d="M215.993 172.103L346.171 172.733C346.582 172.696 346.902 173.04 346.812 173.42C346.848 173.83 346.505 174.151 346.124 174.061L215.946 173.431C215.614 173.419 215.294 173.076 215.305 172.744C215.269 172.334 215.534 172.062 215.993 172.103Z" fill="#656565"/>
<path opacity="0.393" d="M215.396 172.364L241.324 129.954C241.541 129.604 241.952 129.567 242.302 129.784C242.653 130 242.689 130.411 242.551 130.713L216.574 173.044C216.357 173.394 215.946 173.431 215.644 173.293C215.294 173.076 215.179 172.714 215.396 172.364Z" fill="#656565"/>
<path opacity="0.075282" d="M216.47 172.35L272.131 253.382C272.324 253.696 272.283 254.155 271.969 254.348C271.655 254.542 271.196 254.5 271.002 254.187L215.469 173.184C215.275 172.871 215.365 172.49 215.679 172.297C215.896 171.946 216.277 172.036 216.47 172.35Z" fill="#656565"/>
<path opacity="0.1372" d="M174.754 430.476L171.135 505.336C171.171 505.747 170.779 505.989 170.368 506.026C169.958 506.062 169.716 505.671 169.679 505.26L173.425 430.43C173.437 430.098 173.781 429.778 174.162 429.868C174.445 429.801 174.717 430.066 174.754 430.476Z" fill="#656565"/>
<path opacity="0.065818" d="M223.415 576.331L324.872 646.962C325.144 647.227 325.181 647.638 325.042 647.94C324.777 648.212 324.415 648.327 324.143 648.062L222.764 577.382C222.492 577.117 222.377 576.755 222.642 576.483C222.702 576.23 223.064 576.115 223.415 576.331Z" fill="#656565"/>
<path opacity="0.2548" d="M242.175 129.753L346.425 172.793C346.727 172.931 346.969 173.323 346.752 173.673C346.613 173.975 346.221 174.217 345.87 174.001L241.669 131.039C241.367 130.901 241.125 130.509 241.294 130.08C241.433 129.778 241.825 129.536 242.175 129.753Z" fill="#656565"/>
<path opacity="0.2139" d="M222.51 577.323L169.842 505.7C169.648 505.386 169.69 504.928 170.004 504.734C170.318 504.54 170.698 504.63 170.97 504.895L223.56 576.567C223.753 576.88 223.712 577.339 223.398 577.532C223.162 577.678 222.703 577.636 222.51 577.323Z" fill="#656565"/>
<path opacity="0.1663" d="M270.858 253.953L241.252 130.54C241.137 130.178 241.433 129.78 241.843 129.743C242.205 129.627 242.556 129.844 242.671 130.206L272.276 253.618C272.391 253.98 272.096 254.379 271.734 254.494C271.323 254.531 270.973 254.314 270.858 253.953Z" fill="#656565"/>
<path opacity="0.2216" d="M243.346 349.075L333.981 412.53C334.332 412.747 334.369 413.157 334.152 413.507C333.934 413.858 333.524 413.895 333.173 413.678L242.46 350.272C242.109 350.055 242.072 349.645 242.289 349.294C242.585 348.895 243.074 348.81 243.346 349.075Z" fill="#656565"/>
<path opacity="0.3179" d="M242.259 349.421L270.82 253.541C270.911 253.161 271.303 252.919 271.732 253.087C272.112 253.177 272.276 253.617 272.186 253.998L243.624 349.877C243.534 350.257 243.094 350.421 242.713 350.331C242.411 350.193 242.169 349.801 242.259 349.421Z" fill="#656565"/>
<path opacity="0.016983" d="M242.712 348.925L387.693 298.425C388.055 298.31 388.484 298.478 388.599 298.84C388.714 299.202 388.545 299.63 388.183 299.746L243.203 350.246C242.841 350.361 242.412 350.193 242.297 349.831C242.182 349.469 242.399 349.119 242.712 348.925Z" fill="#656565"/>
<path opacity="0.027348" d="M333.379 413.66L222.733 363.419C222.383 363.202 222.22 362.762 222.358 362.46C222.575 362.109 223.016 361.946 223.318 362.084L333.885 412.373C334.235 412.59 334.35 412.952 334.133 413.302C334.043 413.683 333.681 413.798 333.379 413.66Z" fill="#656565"/>
<path opacity="0.4429" d="M243.425 349.027L314.32 399.986C314.67 400.202 314.707 400.613 314.49 400.963C314.273 401.313 313.862 401.35 313.512 401.134L242.538 350.224C242.188 350.007 242.151 349.597 242.368 349.246C242.585 348.896 243.074 348.81 243.425 349.027Z" fill="#656565"/>
<path opacity="0.080264" d="M325.151 647.765L281.826 785.01C281.657 785.438 281.295 785.554 280.915 785.464C280.534 785.374 280.371 784.934 280.461 784.553L323.786 647.309C323.876 646.928 324.317 646.765 324.698 646.854C325.078 646.944 325.242 647.385 325.151 647.765Z" fill="#656565"/>
<path opacity="0.06567" d="M313.173 400.584L313.817 255.8C313.78 255.389 314.124 255.069 314.583 255.11C314.994 255.074 315.314 255.417 315.224 255.797L314.532 400.503C314.568 400.914 314.224 401.234 313.814 401.271C313.482 401.26 313.161 400.916 313.173 400.584Z" fill="#656565"/>
<path opacity="0.3415" d="M243.473 349.105L319.721 415.052C319.993 415.317 320.078 415.806 319.813 416.078C319.547 416.35 319.137 416.387 318.786 416.17L242.49 350.145C242.218 349.88 242.181 349.469 242.398 349.119C242.663 348.847 243.201 348.84 243.473 349.105Z" fill="#656565"/>
<path opacity="0.2379" d="M242.447 349.197L313.986 255.371C314.251 255.099 314.74 255.014 315.012 255.279C315.284 255.544 315.321 255.954 315.182 256.256L243.517 350.052C243.251 350.324 242.841 350.361 242.49 350.145C242.267 349.958 242.182 349.469 242.447 349.197Z" fill="#656565"/>
<path opacity="0.3186" d="M313.639 401.163L222.733 363.418C222.383 363.201 222.22 362.761 222.358 362.459C222.575 362.109 222.937 361.993 223.318 362.083L314.145 399.876C314.573 400.045 314.689 400.406 314.52 400.835C314.43 401.216 313.989 401.379 313.639 401.163Z" fill="#656565"/>
<path opacity="0.5" d="M243.408 350.228L223.476 363.393C223.163 363.587 222.655 363.467 222.462 363.154C222.268 362.84 222.31 362.381 222.702 362.139L242.682 349.052C242.996 348.859 243.455 348.9 243.697 349.292C243.764 349.576 243.673 349.956 243.408 350.228Z" fill="#656565"/>
<path opacity="0.3039" d="M318.914 416.2L222.607 363.389C222.256 363.172 222.093 362.732 222.31 362.381C222.527 362.031 222.968 361.867 223.318 362.084L319.546 414.944C319.897 415.161 319.982 415.649 319.716 415.921C319.705 416.253 319.264 416.417 318.914 416.2Z" fill="#656565"/>
<path opacity="0.1026" d="M222.466 362.284L314.064 255.323C314.329 255.051 314.818 254.965 315.09 255.23C315.362 255.495 315.447 255.984 315.182 256.256L223.663 363.169C223.398 363.441 222.909 363.526 222.637 363.261C222.208 363.093 222.249 362.634 222.466 362.284Z" fill="#656565"/>
<path opacity="0.061074" d="M224.305 144.678L241.481 129.858C241.746 129.586 242.205 129.627 242.477 129.892C242.749 130.157 242.708 130.616 242.442 130.888L225.314 145.787C225.049 146.059 224.463 145.988 224.269 145.674C223.949 145.331 223.991 144.872 224.305 144.678Z" fill="#656565"/>
<path opacity="0.036604" d="M324.367 648.249L245.612 635.801C245.232 635.711 244.911 635.368 244.953 634.909C245.043 634.529 245.387 634.208 245.768 634.298L324.492 646.872C324.872 646.962 325.114 647.354 325.024 647.734C325.091 648.018 324.699 648.26 324.367 648.249Z" fill="#656565"/>
<path opacity="0.01" d="M242.919 350.313L92.7984 340.018C92.3394 339.976 92.0191 339.633 92.1093 339.252C92.1511 338.794 92.4949 338.473 92.8754 338.563L242.966 348.985C243.425 349.027 243.618 349.34 243.655 349.751C243.643 350.083 243.299 350.403 242.919 350.313Z" fill="#656565"/>
<path opacity="0.034744" d="M225.428 144.742L315.187 255.387C315.459 255.652 315.339 256.159 315.073 256.431C314.76 256.625 314.301 256.584 314.029 256.319L224.191 145.722C223.87 145.378 223.991 144.871 224.304 144.677C224.648 144.357 225.107 144.398 225.428 144.742Z" fill="#656565"/>
<path opacity="0.194" d="M242.248 349.753L239.921 330.19C239.884 329.78 240.18 329.381 240.59 329.344C241.001 329.308 241.4 329.603 241.436 330.013L243.606 349.672C243.643 350.082 243.299 350.403 242.967 350.391C242.586 350.301 242.314 350.036 242.248 349.753Z" fill="#656565"/>
<path opacity="0.1931" d="M351.274 588.999L246.101 635.716C245.739 635.831 245.232 635.711 245.117 635.349C244.953 634.909 245.122 634.48 245.484 634.365L350.705 587.727C351.067 587.611 351.496 587.78 351.69 588.093C351.805 588.455 351.636 588.884 351.274 588.999Z" fill="#656565"/>
<path opacity="0.1993" d="M93.0023 338.592L223.113 362.102C223.493 362.192 223.735 362.584 223.645 362.964C223.555 363.344 223.163 363.586 222.83 363.575L92.72 340.065C92.3395 339.976 92.0191 339.632 92.0609 339.173C92.2295 338.745 92.6217 338.502 93.0023 338.592Z" fill="#656565"/>
<path opacity="0.045711" d="M241.303 329.446L319.848 415.082C320.12 415.347 320.078 415.806 319.813 416.078C319.548 416.35 319.089 416.309 318.817 416.043L240.115 330.504C239.795 330.161 239.915 329.654 240.229 329.46C240.572 329.14 241.031 329.181 241.303 329.446Z" fill="#656565"/>
<path opacity="0.072685" d="M240.15 329.508L313.985 255.371C314.251 255.099 314.71 255.141 314.982 255.406C315.254 255.671 315.212 256.13 314.947 256.402L241.16 330.617C240.894 330.889 240.357 330.896 240.085 330.631C239.843 330.239 239.885 329.78 240.15 329.508Z" fill="#656565"/>
<path opacity="0.1108" d="M361.333 551.945L246.259 635.619C245.866 635.861 245.407 635.82 245.165 635.428C244.923 635.036 244.965 634.577 245.358 634.335L360.48 550.739C360.794 550.546 361.253 550.587 361.447 550.901C361.689 551.293 361.647 551.751 361.333 551.945Z" fill="#656565"/>
<path opacity="0.4411" d="M241.425 330.345L223.741 363.121C223.524 363.472 223.084 363.635 222.733 363.419C222.383 363.202 222.268 362.84 222.436 362.411L240.12 329.635C240.337 329.285 240.778 329.121 241.128 329.338C241.478 329.555 241.642 329.995 241.425 330.345Z" fill="#656565"/>
<path opacity="0.044765" d="M240.797 330.732L92.9249 340.047C92.5143 340.084 92.1939 339.741 92.1573 339.33C92.1206 338.92 92.4645 338.599 92.875 338.563L240.747 329.248C241.158 329.211 241.557 329.506 241.515 329.965C241.552 330.375 241.208 330.695 240.797 330.732Z" fill="#656565"/>
<path opacity="0.026526" d="M298.676 342.532L223.192 363.46C222.83 363.575 222.431 363.28 222.316 362.918C222.201 362.556 222.496 362.157 222.859 362.042L298.324 340.909C298.765 340.745 299.163 341.04 299.327 341.481C299.412 341.97 299.116 342.368 298.676 342.532Z" fill="#656565"/>
<path opacity="0.5" d="M245.818 635.783L173.765 639.982C173.355 640.019 172.986 639.597 172.998 639.265C172.961 638.854 173.305 638.534 173.716 638.497L245.768 634.298C246.179 634.262 246.578 634.557 246.536 635.015C246.572 635.426 246.229 635.746 245.818 635.783Z" fill="#656565"/>
<path opacity="0.5" d="M245.641 634.269L294.901 626.493C295.311 626.456 295.71 626.751 295.747 627.161C295.783 627.572 295.488 627.97 295.077 628.007L245.818 635.783C245.407 635.82 245.008 635.525 244.972 635.115C244.935 634.705 245.279 634.384 245.641 634.269Z" fill="#656565"/>
<path opacity="0.2726" d="M295.126 628.085L173.765 639.982C173.355 640.019 172.956 639.724 172.919 639.313C172.883 638.903 173.178 638.504 173.589 638.467L294.95 626.571C295.36 626.534 295.759 626.829 295.796 627.239C295.832 627.65 295.537 628.048 295.126 628.085Z" fill="#656565"/>
<path opacity="0.5" d="M242.889 671.576L245.08 634.939C245.122 634.481 245.466 634.16 245.846 634.25C246.305 634.292 246.626 634.635 246.584 635.094L244.471 671.682C244.43 672.141 244.037 672.383 243.578 672.342C243.168 672.379 242.847 672.035 242.889 671.576Z" fill="#656565"/>
<path opacity="0.4949" d="M243.295 672.409L173.354 640.019C173.004 639.802 172.84 639.362 173.057 639.012C173.275 638.661 173.715 638.497 174.017 638.636L243.957 671.026C244.386 671.194 244.471 671.683 244.381 672.063C244.164 672.413 243.724 672.577 243.295 672.409Z" fill="#656565"/>
<path opacity="0.5" d="M245.214 635.506L211.511 591.795C211.19 591.451 211.311 590.944 211.703 590.702C212.095 590.46 212.554 590.502 212.796 590.894L246.499 634.605C246.741 634.997 246.699 635.456 246.385 635.649C245.915 635.94 245.407 635.82 245.214 635.506Z" fill="#656565"/>
<path opacity="0.5" d="M243.136 671.099L294.509 626.734C294.852 626.414 295.311 626.456 295.632 626.799C295.952 627.142 295.91 627.601 295.566 627.922L244.194 672.286C243.85 672.607 243.391 672.565 243.071 672.222C242.75 671.878 242.792 671.42 243.136 671.099Z" fill="#656565"/>
<path opacity="0.4967" d="M212.712 591.811L174.284 639.77C174.019 640.042 173.53 640.127 173.179 639.91C172.829 639.694 172.822 639.157 173.039 638.806L211.389 590.896C211.606 590.546 212.143 590.539 212.494 590.756C212.844 590.972 212.929 591.461 212.712 591.811Z" fill="#656565"/>
<path opacity="0.4332" d="M212.397 590.599L295.408 626.612C295.837 626.781 296 627.221 295.832 627.65C295.663 628.078 295.223 628.242 294.794 628.074L211.831 592.139C211.402 591.97 211.317 591.482 211.486 591.053C211.576 590.673 211.968 590.43 212.397 590.599Z" fill="#656565"/>
<path opacity="0.5" d="M298.344 342.521L240.592 330.751C240.212 330.661 239.843 330.239 240.012 329.81C240.102 329.43 240.446 329.109 240.953 329.229L298.656 340.921C299.037 341.011 299.406 341.433 299.237 341.861C299.195 342.32 298.725 342.61 298.344 342.521Z" fill="#656565"/>
<path opacity="0.041034" d="M244.441 671.809L208.279 833.641C208.188 834.021 207.718 834.312 207.337 834.222C206.957 834.132 206.588 833.71 206.756 833.281L242.841 671.498C242.931 671.117 243.402 670.827 243.782 670.917C244.241 670.958 244.532 671.429 244.441 671.809Z" fill="#656565"/>
<path opacity="0.483" d="M242.926 671.987L211.335 591.687C211.172 591.247 211.467 590.848 211.829 590.732C212.192 590.617 212.62 590.786 212.814 591.099L244.404 671.399C244.568 671.839 244.272 672.238 243.91 672.353C243.47 672.517 243.119 672.3 242.926 671.987Z" fill="#656565"/>
<path opacity="0.074444" d="M241.347 330.394L174.946 440.965C174.729 441.315 174.21 441.527 173.811 441.232C173.46 441.015 173.327 440.448 173.544 440.098L240.072 329.557C240.289 329.206 240.73 329.043 241.128 329.338C241.479 329.555 241.564 330.043 241.347 330.394Z" fill="#656565"/>
<path opacity="0.1599" d="M322.207 775.135L243.022 672.143C242.781 671.751 242.822 671.293 243.215 671.051C243.607 670.809 244.066 670.85 244.308 671.242L323.571 774.185C323.891 774.529 323.771 775.036 323.427 775.357C323.035 775.599 322.527 775.479 322.207 775.135Z" fill="#656565"/>
<path opacity="0.034458" d="M211.317 591.482L173.472 440.684C173.387 440.195 173.682 439.796 174.093 439.759C174.503 439.722 174.932 439.891 175.096 440.331L212.863 591.178C212.978 591.54 212.731 592.017 212.242 592.102C211.831 592.139 211.402 591.971 211.317 591.482Z" fill="#656565"/>
<path opacity="0.087062" d="M298.99 342.338L174.759 441.188C174.415 441.509 173.907 441.389 173.587 441.045C173.267 440.702 173.387 440.195 173.731 439.874L298.011 341.103C298.403 340.861 298.862 340.902 299.104 341.294C299.424 341.638 299.304 342.145 298.99 342.338Z" fill="#656565"/>
<path opacity="0.1913" d="M244.036 670.977L298.778 697.701C299.207 697.869 299.34 698.436 299.171 698.865C299.003 699.294 298.435 699.427 298.006 699.259L243.295 672.408C242.944 672.192 242.781 671.751 242.998 671.401C243.167 670.972 243.607 670.809 244.036 670.977Z" fill="#656565"/>
<path opacity="0.026569" d="M212.669 590.864L299.049 697.966C299.37 698.31 299.298 698.895 298.906 699.137C298.562 699.458 297.976 699.386 297.734 698.994L211.511 591.795C211.269 591.404 211.31 590.945 211.703 590.703C211.968 590.431 212.427 590.472 212.669 590.864Z" fill="#656565"/>
<path opacity="0.033739" d="M244.442 671.809L229.915 780.243C229.873 780.701 229.402 780.992 228.943 780.95C228.484 780.909 228.194 780.439 228.236 779.98L242.89 671.576C242.931 671.118 243.402 670.827 243.783 670.917C244.163 671.007 244.483 671.35 244.442 671.809Z" fill="#656565"/>
<path opacity="0.056221" d="M174.945 440.965L91.9935 576.144C91.698 576.543 91.209 576.628 90.7801 576.46C90.3813 576.165 90.2962 575.676 90.4649 575.248L173.465 440.146C173.682 439.796 174.201 439.584 174.6 439.879C175.156 440.077 175.241 440.566 174.945 440.965Z" fill="#656565"/>
<path opacity="0.4455" d="M299.063 699.04L229.746 780.671C229.402 780.992 228.913 781.077 228.514 780.782C228.194 780.439 228.109 779.95 228.453 779.629L297.77 697.998C298.113 697.678 298.602 697.592 298.923 697.936C299.273 698.153 299.28 698.69 299.063 699.04Z" fill="#656565"/>
<path opacity="0.1056" d="M242.385 585.298L381.719 546.184C382.159 546.02 382.637 546.267 382.722 546.756C382.885 547.196 382.638 547.673 382.149 547.758L242.863 586.951C242.374 587.037 241.897 586.79 241.812 586.301C241.697 585.939 241.944 585.462 242.385 585.298Z" fill="#656565"/>
<path opacity="0.2092" d="M243.418 585.744L299.147 698.123C299.31 698.563 299.19 699.07 298.749 699.234C298.309 699.398 297.88 699.229 297.638 698.837L241.831 586.507C241.668 586.066 241.866 585.511 242.307 585.347C242.748 585.183 243.176 585.352 243.418 585.744Z" fill="#656565"/>
<path opacity="0.2067" d="M242.58 587.018L91.2394 576.501C90.7805 576.46 90.4117 576.038 90.4535 575.579C90.4953 575.121 90.9176 574.752 91.3765 574.793L242.717 585.31C243.176 585.352 243.545 585.773 243.503 586.232C243.461 586.691 243.039 587.06 242.58 587.018Z" fill="#656565"/>
<path opacity="0.011578" d="M363.622 516.871L243.069 586.933C242.676 587.175 242.121 586.976 241.879 586.585C241.637 586.193 241.757 585.686 242.228 585.395L362.684 515.176C363.155 514.886 363.711 515.084 364.001 515.554C364.243 515.946 364.092 516.58 363.622 516.871Z" fill="#656565"/>
<path opacity="0.072195" d="M242.942 349.649L313.916 400.559L223.01 362.814L242.942 349.649Z" fill="#656565"/>
<path opacity="0.2636" d="M243.602 671.678L245.793 635.041L295.052 627.265L243.602 671.678Z" fill="#656565"/>
<path opacity="0.2636" d="M243.602 671.678L245.793 635.041L295.052 627.265L243.602 671.678Z" fill="#656565"/>
<path opacity="0.2636" d="M243.602 671.678L245.793 635.041L295.052 627.265L243.602 671.678Z" fill="#656565"/>
<path opacity="0.1721" d="M245.793 635.041L212.09 591.33L173.662 639.288L245.793 635.041Z" fill="#656565"/>
<path opacity="0.1721" d="M245.793 635.041L212.09 591.33L173.662 639.288L245.793 635.041Z" fill="#656565"/>
<path opacity="0.1721" d="M245.793 635.041L212.09 591.33L173.662 639.288L245.793 635.041Z" fill="#656565"/>
<path opacity="0.1037" d="M243.602 671.678L212.09 591.33L173.662 639.288L243.602 671.678Z" fill="#656565"/>
<rect width="252" height="700" fill="url(#paint0_linear)"/>
</g>
<defs>
<linearGradient id="paint0_linear" x1="252" y1="308" x2="-6.69653" y2="342.991" gradientUnits="userSpaceOnUse">
<stop stop-color="#090909" stop-opacity="0.55"/>
<stop offset="1" stop-color="#090909" stop-opacity="0.9"/>
</linearGradient>
<clipPath id="clip0">
<path d="M0 0H244C248.418 0 252 3.58172 252 8V692C252 696.418 248.418 700 244 700H0V0Z" fill="white"/>
</clipPath>
</defs>
</svg>
