<svg width="400" height="738" viewBox="0 0 400 738" fill="none" xmlns="http://www.w3.org/2000/svg">
<g clip-path="url(#clip0)">
<path opacity="0.5" d="M143.984 515.647C142.96 516.046 141.806 515.54 141.407 514.517C141.008 513.494 141.514 512.34 142.538 511.941C143.562 511.542 144.716 512.047 145.115 513.071C145.514 514.094 145.008 515.247 143.984 515.647Z" fill="#616161"/>
<path opacity="0.5" d="M174.73 391.042C173.71 391.44 173.201 392.599 173.599 393.618C173.996 394.638 175.156 395.146 176.176 394.748C177.195 394.35 177.704 393.191 177.307 392.172C176.909 391.153 175.75 390.645 174.73 391.042Z" fill="#616161"/>
<path opacity="0.5" d="M163.072 620.703C161.997 621.123 160.785 620.592 160.366 619.517C159.947 618.443 160.479 617.232 161.554 616.812C162.629 616.393 163.84 616.924 164.259 617.998C164.679 619.073 164.147 620.284 163.072 620.703Z" fill="#616161"/>
<path opacity="0.5" d="M150.808 592.825C149.733 593.244 148.522 592.713 148.103 591.639C147.683 590.564 148.215 589.353 149.29 588.934C150.365 588.515 151.577 589.046 151.996 590.12C152.415 591.195 151.883 592.406 150.808 592.825Z" fill="#616161"/>
<path opacity="0.5" d="M1.72843 518.945C0.616079 519.379 0.107071 520.538 0.540733 521.65C0.974396 522.761 2.1339 523.27 3.24625 522.836C4.3586 522.402 4.86763 521.243 4.43397 520.131C4.00031 519.019 2.74808 518.547 1.72843 518.945Z" fill="#616161"/>
<path opacity="0.5" d="M55.0358 440.404C53.9235 440.838 53.4145 441.997 53.8481 443.109C54.2818 444.22 55.4413 444.729 56.5537 444.295C57.666 443.861 58.1389 442.609 57.7413 441.59C57.3077 440.478 56.0555 440.006 55.0358 440.404Z" fill="#616161"/>
<path opacity="0.5" d="M72.6783 680.835C71.566 681.269 71.0569 682.429 71.4906 683.54C71.9243 684.652 73.0838 685.16 74.1961 684.726C75.3085 684.292 75.7814 683.041 75.3838 682.021C75.079 680.966 73.7907 680.402 72.6783 680.835Z" fill="#616161"/>
<path opacity="0.5" d="M79.7981 463.086C78.6858 463.52 78.1202 464.808 78.5539 465.92C78.9875 467.031 80.2759 467.596 81.3882 467.162C82.5006 466.728 83.0661 465.44 82.6325 464.329C82.1061 463.253 80.9105 462.652 79.7981 463.086Z" fill="#616161"/>
<path opacity="0.5" d="M119.88 514.909C118.767 515.343 118.202 516.631 118.635 517.743C119.069 518.855 120.357 519.419 121.47 518.985C122.582 518.551 123.148 517.263 122.714 516.152C122.28 515.04 120.992 514.475 119.88 514.909Z" fill="#616161"/>
<path opacity="0.5" d="M39.9934 124.774C38.881 125.208 38.3155 126.496 38.7491 127.608C39.1828 128.72 40.4712 129.284 41.5835 128.85C42.6959 128.416 43.2614 127.128 42.8278 126.017C42.3941 124.905 41.1057 124.34 39.9934 124.774Z" fill="#616161"/>
<path opacity="0.5" d="M213.71 570.635C212.597 571.069 212.032 572.357 212.465 573.469C212.899 574.581 214.188 575.146 215.3 574.712C216.412 574.278 216.978 572.99 216.544 571.878C216.11 570.766 214.822 570.202 213.71 570.635Z" fill="#616161"/>
<path opacity="0.5" d="M205.191 560.296C204.078 560.73 203.513 562.018 203.946 563.13C204.38 564.242 205.668 564.806 206.781 564.373C207.893 563.939 208.459 562.651 208.025 561.539C207.591 560.427 206.303 559.862 205.191 560.296Z" fill="#616161"/>
<path opacity="0.5" d="M43.7233 325.163C42.5458 325.622 41.2191 325.04 40.7601 323.864C40.301 322.687 40.8834 321.361 42.0609 320.901C43.2384 320.442 44.565 321.024 45.0241 322.2C45.4831 323.377 44.9008 324.703 43.7233 325.163Z" fill="#616161"/>
<path opacity="0.5" d="M68.5101 492.466C67.3977 492.9 66.7395 494.224 67.2093 495.428C67.6429 496.54 68.9674 497.198 70.1724 496.728C71.2848 496.294 71.9431 494.969 71.4733 493.765C71.0035 492.561 69.6224 492.032 68.5101 492.466Z" fill="#616161"/>
<path opacity="0.5" d="M64.1141 344.854C63.0018 345.288 62.3435 346.612 62.8133 347.816C63.2469 348.928 64.5715 349.585 65.7765 349.115C66.9815 348.645 67.5471 347.357 67.0773 346.153C66.5148 344.985 65.2265 344.42 64.1141 344.854Z" fill="#616161"/>
<path opacity="0.5" d="M137.014 625.638C135.809 626.108 135.244 627.396 135.714 628.6C136.183 629.805 137.472 630.369 138.677 629.899C139.882 629.429 140.448 628.141 139.978 626.937C139.508 625.733 138.22 625.168 137.014 625.638Z" fill="#616161"/>
<path opacity="0.5" d="M150.194 536.493C148.989 536.964 148.366 538.38 148.836 539.585C149.306 540.789 150.687 541.318 151.892 540.848C153.097 540.378 153.663 539.089 153.193 537.885C152.687 536.588 151.399 536.023 150.194 536.493Z" fill="#616161"/>
<path opacity="0.5" d="M4.33194 133.562C3.12689 134.032 2.50476 135.449 2.97457 136.653C3.44438 137.858 4.86157 138.479 6.06662 138.009C7.27167 137.539 7.89379 136.122 7.42398 134.918C6.95417 133.713 5.53699 133.092 4.33194 133.562Z" fill="#616161"/>
<path opacity="0.5" d="M129.104 337.326C127.806 337.833 127.184 339.249 127.69 340.546C128.196 341.843 129.613 342.465 130.911 341.958C132.209 341.452 132.831 340.035 132.325 338.738C131.819 337.441 130.402 336.82 129.104 337.326Z" fill="#616161"/>
<path opacity="0.5" d="M23.4804 400.305C22.1827 400.811 21.5606 402.228 22.0665 403.525C22.5725 404.822 23.9897 405.443 25.2874 404.937C26.5851 404.431 27.2073 403.014 26.7013 401.717C26.1954 400.42 24.7782 399.799 23.4804 400.305Z" fill="#616161"/>
<path opacity="0.5" d="M103.933 523.585C102.635 524.092 102.013 525.508 102.519 526.805C103.025 528.102 104.442 528.724 105.74 528.217C107.037 527.711 107.659 526.294 107.153 524.997C106.74 523.664 105.23 523.079 103.933 523.585Z" fill="#616161"/>
<path opacity="0.5" d="M101.191 625.523C99.8932 626.029 99.271 627.446 99.777 628.743C100.283 630.04 101.7 630.661 102.998 630.155C104.296 629.649 104.918 628.232 104.412 626.935C103.906 625.638 102.489 625.017 101.191 625.523Z" fill="#616161"/>
<path opacity="0.5" d="M136.276 339.011C134.979 339.517 134.356 340.934 134.862 342.231C135.368 343.528 136.786 344.149 138.083 343.643C139.381 343.137 140.003 341.72 139.497 340.423C138.991 339.126 137.574 338.505 136.276 339.011Z" fill="#616161"/>
<path opacity="0.5" d="M65.8882 346.937C64.5904 347.443 63.9683 348.86 64.4742 350.157C64.9802 351.454 66.3974 352.075 67.6951 351.569C68.9929 351.063 69.615 349.646 69.109 348.349C68.6392 347.145 67.1859 346.431 65.8882 346.937Z" fill="#616161"/>
<path opacity="0.5" d="M59.7768 599.304C58.4791 599.81 57.857 601.227 58.3629 602.524C58.8689 603.821 60.2861 604.442 61.5838 603.936C62.8815 603.429 63.5037 602.013 62.9977 600.716C62.4918 599.419 61.0746 598.797 59.7768 599.304Z" fill="#616161"/>
<path opacity="0.5" d="M100.581 659.277C99.2833 659.783 98.5684 661.236 99.1105 662.626C99.6165 663.923 101.034 664.544 102.424 664.001C103.815 663.459 104.344 662.078 103.838 660.781C103.425 659.448 101.879 658.77 100.581 659.277Z" fill="#616161"/>
<path opacity="0.5" d="M173.956 413.973C172.658 414.479 172.036 415.896 172.578 417.286C173.084 418.583 174.501 419.204 175.799 418.698C177.097 418.192 177.719 416.775 177.213 415.478C176.671 414.088 175.254 413.467 173.956 413.973Z" fill="#616161"/>
<path opacity="0.5" d="M394.15 527.785C392.852 528.291 392.137 529.744 392.679 531.134C393.185 532.431 394.639 533.145 396.029 532.602C397.327 532.096 398.042 530.643 397.5 529.253C396.865 527.9 395.448 527.279 394.15 527.785Z" fill="#616161"/>
<path opacity="0.5" d="M51.8218 349.756C50.5241 350.262 49.8093 351.715 50.3514 353.105C50.8573 354.402 52.3106 355.116 53.7011 354.573C54.9988 354.067 55.6775 352.521 55.1716 351.224C54.5368 349.871 53.1196 349.25 51.8218 349.756Z" fill="#616161"/>
<path opacity="0.5" d="M80.1763 508.41C78.8786 508.916 78.1638 510.369 78.7059 511.758C79.2118 513.055 80.6651 513.769 82.0556 513.227C83.3533 512.721 84.0682 511.268 83.5261 509.878C83.0201 508.581 81.5668 507.867 80.1763 508.41Z" fill="#616161"/>
<path opacity="0.5" d="M140.395 705.761C139.097 706.267 138.419 707.813 138.925 709.11C139.431 710.407 140.977 711.084 142.274 710.578C143.572 710.072 144.251 708.526 143.745 707.229C143.239 705.932 141.786 705.218 140.395 705.761Z" fill="#616161"/>
<path opacity="0.5" d="M-3.20208 112.058C-4.49982 112.565 -5.17851 114.11 -4.67256 115.407C-4.16661 116.704 -2.62058 117.382 -1.32284 116.876C-0.0250979 116.369 0.653571 114.824 0.147623 113.527C-0.358325 112.23 -1.90433 111.552 -3.20208 112.058Z" fill="#616161"/>
<path opacity="0.5" d="M153.47 735.991C152.172 736.498 151.493 738.043 151.999 739.34C152.505 740.637 154.051 741.315 155.349 740.809C156.647 740.303 157.325 738.757 156.82 737.46C156.314 736.163 154.768 735.485 153.47 735.991Z" fill="#616161"/>
<path opacity="0.5" d="M37.294 609.568C35.9963 610.074 35.3176 611.62 35.8235 612.917C36.3295 614.214 37.8755 614.892 39.1732 614.385C40.471 613.879 41.1497 612.334 40.6437 611.037C40.1378 609.74 38.5917 609.062 37.294 609.568Z" fill="#616161"/>
<path opacity="0.5" d="M16.6602 103.563C15.3625 104.069 14.6838 105.615 15.1897 106.912C15.6957 108.209 17.2417 108.886 18.5395 108.38C19.8372 107.874 20.5159 106.328 20.0099 105.031C19.504 103.734 17.958 103.057 16.6602 103.563Z" fill="#616161"/>
<path opacity="0.5" d="M11.5879 191.039C10.1975 191.582 9.61151 193.091 10.1175 194.388C10.6595 195.778 12.1694 196.363 13.4672 195.857C14.7649 195.35 15.4436 193.805 14.9377 192.508C14.4317 191.211 12.8857 190.533 11.5879 191.039Z" fill="#616161"/>
<path opacity="0.5" d="M56.6524 517.372C55.3547 517.878 54.676 519.424 55.1819 520.721C55.6878 522.018 57.2339 522.696 58.5316 522.189C59.922 521.647 60.508 520.138 60.0021 518.841C59.4962 517.544 57.9501 516.866 56.6524 517.372Z" fill="#616161"/>
<path opacity="0.5" d="M35.7602 689.687C34.4291 690.206 32.9294 689.549 32.4104 688.218C31.8915 686.888 32.5499 685.389 33.8809 684.869C35.212 684.35 36.7117 685.008 37.2306 686.338C37.7496 687.668 37.0912 689.168 35.7602 689.687Z" fill="#616161"/>
<path opacity="0.5" d="M88.861 434.574C87.4705 435.116 86.8845 436.625 87.4266 438.015C87.9687 439.405 89.4786 439.99 90.7763 439.483C92.0741 438.977 92.8455 437.395 92.3395 436.098C91.7974 434.709 90.2514 434.031 88.861 434.574Z" fill="#616161"/>
<path opacity="0.5" d="M126.065 700.784C124.674 701.327 124.088 702.836 124.63 704.226C125.172 705.615 126.718 706.293 128.016 705.787C129.407 705.244 130.085 703.699 129.543 702.309C129.001 700.92 127.455 700.242 126.065 700.784Z" fill="#616161"/>
<path opacity="0.5" d="M49.964 424.664C48.5736 425.206 47.8949 426.752 48.4009 428.049C48.9429 429.439 50.489 430.116 51.8794 429.574C53.2698 429.032 53.9485 427.486 53.4064 426.096C52.9005 424.799 51.3545 424.122 49.964 424.664Z" fill="#616161"/>
<path opacity="0.5" d="M45.3991 448.006C44.0086 448.548 43.33 450.094 43.872 451.484C44.4141 452.873 45.9601 453.551 47.3506 453.009C48.741 452.466 49.4197 450.92 48.8776 449.531C48.2428 448.177 46.6968 447.5 45.3991 448.006Z" fill="#616161"/>
<path opacity="0.5" d="M122.829 349.167C121.439 349.71 120.76 351.255 121.302 352.645C121.844 354.034 123.39 354.712 124.781 354.17C126.171 353.627 126.85 352.082 126.308 350.692C125.766 349.303 124.22 348.625 122.829 349.167Z" fill="#616161"/>
<path opacity="0.5" d="M160.354 380.747C158.964 381.289 158.285 382.835 158.827 384.224C159.369 385.614 160.915 386.292 162.306 385.749C163.696 385.207 164.375 383.661 163.833 382.272C163.291 380.882 161.745 380.204 160.354 380.747Z" fill="#616161"/>
<path opacity="0.5" d="M47.2296 159.203C45.8392 159.745 45.1605 161.291 45.7026 162.681C46.2447 164.07 47.7907 164.748 49.1812 164.206C50.5716 163.663 51.2503 162.118 50.7082 160.728C50.1661 159.338 48.6201 158.661 47.2296 159.203Z" fill="#616161"/>
<path opacity="0.5" d="M92.2301 501.252C90.8397 501.795 90.161 503.34 90.7031 504.73C91.2452 506.119 92.7912 506.797 94.1816 506.255C95.5721 505.712 96.2508 504.167 95.7087 502.777C95.1304 501.295 93.6205 500.71 92.2301 501.252Z" fill="#616161"/>
<path opacity="0.5" d="M41.5295 646.982C40.139 647.525 39.4603 649.07 40.0024 650.46C40.5445 651.85 42.0905 652.527 43.481 651.985C44.8714 651.443 45.5501 649.897 45.008 648.507C44.4659 647.118 42.9199 646.44 41.5295 646.982Z" fill="#616161"/>
<path opacity="0.5" d="M151.441 718.744C150.05 719.286 149.371 720.832 149.914 722.222C150.456 723.611 152.002 724.289 153.392 723.747C154.782 723.204 155.461 721.659 154.919 720.269C154.377 718.879 152.831 718.202 151.441 718.744Z" fill="#616161"/>
<path opacity="0.5" d="M190.561 500.892C189.171 501.435 188.399 503.017 188.978 504.499C189.52 505.889 191.102 506.659 192.585 506.08C193.975 505.538 194.747 503.956 194.169 502.474C193.627 501.084 191.952 500.35 190.561 500.892Z" fill="#616161"/>
<path opacity="0.5" d="M43.2751 458.441C41.8847 458.983 41.206 460.529 41.7842 462.011C42.3263 463.401 43.9085 464.171 45.2989 463.629C46.6894 463.086 47.4607 461.505 46.8825 460.022C46.2116 458.576 44.6656 457.898 43.2751 458.441Z" fill="#616161"/>
<path opacity="0.5" d="M95.5719 408.794C94.1384 409.353 92.5233 408.645 91.9645 407.212C91.4056 405.779 92.1146 404.165 93.5481 403.606C94.9815 403.046 96.5966 403.755 97.1555 405.187C97.7143 406.62 97.0053 408.234 95.5719 408.794Z" fill="#616161"/>
<path opacity="0.5" d="M181.807 553.194C180.416 553.736 179.645 555.318 180.223 556.8C180.765 558.19 182.348 558.96 183.831 558.382C185.221 557.839 185.992 556.257 185.414 554.775C184.836 553.293 183.197 552.651 181.807 553.194Z" fill="#616161"/>
<path opacity="0.5" d="M190.032 217.814C188.599 218.373 186.984 217.665 186.425 216.232C185.866 214.8 186.575 213.185 188.009 212.626C189.442 212.067 191.057 212.775 191.616 214.207C192.175 215.64 191.466 217.255 190.032 217.814Z" fill="#616161"/>
<path opacity="0.5" d="M104.482 5.90105C102.999 6.47962 102.356 8.11788 102.898 9.5075C103.476 10.9898 105.115 11.6314 106.505 11.089C107.989 10.5104 108.631 8.87212 108.089 7.48251C107.547 6.09289 105.872 5.35864 104.482 5.90105Z" fill="#616161"/>
<path opacity="0.5" d="M270.329 546.307C268.846 546.885 268.204 548.524 268.746 549.913C269.324 551.396 270.963 552.037 272.353 551.495C273.836 550.916 274.479 549.278 273.937 547.888C273.358 546.406 271.812 545.728 270.329 546.307Z" fill="#616161"/>
<path opacity="0.5" d="M29.7703 272.967C28.2872 273.545 27.5519 275.22 28.1302 276.702C28.7084 278.184 30.3833 278.918 31.8664 278.34C33.3495 277.761 34.0848 276.087 33.5065 274.605C32.8356 273.159 31.2535 272.388 29.7703 272.967Z" fill="#616161"/>
<path opacity="0.5" d="M109.017 687.474C107.534 688.052 106.799 689.727 107.377 691.209C107.955 692.691 109.63 693.426 111.113 692.847C112.597 692.268 113.332 690.594 112.754 689.112C112.175 687.629 110.501 686.895 109.017 687.474Z" fill="#616161"/>
<path opacity="0.5" d="M54.011 119.093C52.5279 119.671 51.7927 121.346 52.3709 122.828C52.9491 124.31 54.624 125.044 56.1071 124.466C57.5902 123.887 58.3255 122.213 57.7472 120.731C57.169 119.248 55.4942 118.514 54.011 119.093Z" fill="#616161"/>
<path opacity="0.5" d="M328.102 696.046C326.619 696.625 325.791 698.335 326.369 699.818C326.947 701.3 328.622 702.034 330.198 701.419C331.681 700.841 332.416 699.166 331.838 697.684C331.296 696.294 329.585 695.468 328.102 696.046Z" fill="#616161"/>
<path opacity="0.5" d="M20.351 422.126C18.8678 422.705 18.0399 424.415 18.6543 425.99C19.2325 427.472 20.9435 428.299 22.5193 427.685C24.0951 427.07 24.8304 425.395 24.216 423.82C23.6016 422.246 21.9268 421.511 20.351 422.126Z" fill="#616161"/>
<path opacity="0.5" d="M18.7987 310.549C17.2229 311.164 16.4877 312.838 17.102 314.413C17.7164 315.988 19.4839 316.686 20.9671 316.108C22.5429 315.493 23.242 313.726 22.6638 312.244C22.0855 310.761 20.2818 309.971 18.7987 310.549Z" fill="#616161"/>
<path opacity="0.5" d="M169.552 735.055C167.976 735.669 167.277 737.436 167.855 738.919C168.469 740.494 170.237 741.192 171.72 740.613C173.296 739.998 173.995 738.231 173.417 736.749C172.802 735.174 171.127 734.44 169.552 735.055Z" fill="#616161"/>
<path opacity="0.5" d="M134.576 277.98C132.989 278.599 131.201 277.815 130.582 276.229C129.963 274.643 130.748 272.855 132.335 272.236C133.922 271.617 135.711 272.401 136.329 273.987C136.948 275.573 136.163 277.361 134.576 277.98Z" fill="#616161"/>
<path opacity="0.5" d="M38.1142 610.849C36.5384 611.464 35.7466 613.267 36.3609 614.842C36.9753 616.417 38.779 617.208 40.3549 616.593C41.9307 615.978 42.7225 614.175 42.1081 612.6C41.4937 611.025 39.69 610.235 38.1142 610.849Z" fill="#616161"/>
<path opacity="0.5" d="M7.78807 605.388C6.21224 606.003 5.42043 607.806 6.03479 609.381C6.64915 610.956 8.45286 611.746 10.0287 611.132C11.6045 610.517 12.3963 608.714 11.7819 607.139C11.1676 605.564 9.3639 604.773 7.78807 605.388Z" fill="#616161"/>
<path opacity="0.5" d="M78.7431 440.122C77.1673 440.737 76.3755 442.54 76.9899 444.115C77.6042 445.69 79.4079 446.481 80.9837 445.866C82.5596 445.251 83.3514 443.448 82.737 441.873C82.1227 440.298 80.3189 439.507 78.7431 440.122Z" fill="#616161"/>
<path opacity="0.5" d="M295.613 686.412C294.037 687.026 293.153 688.866 293.803 690.533C294.418 692.108 296.258 692.992 297.926 692.341C299.502 691.726 300.387 689.887 299.736 688.219C298.993 686.588 297.189 685.797 295.613 686.412Z" fill="#616161"/>
<path opacity="0.5" d="M156.556 596.881C154.887 597.532 154.039 599.464 154.689 601.131C155.34 602.799 157.272 603.646 158.941 602.995C160.609 602.344 161.458 600.412 160.807 598.745C160.064 597.113 158.132 596.266 156.556 596.881Z" fill="#616161"/>
<path opacity="0.5" d="M2.16778 357.171C0.324777 357.89 -1.75176 356.979 -2.47029 355.138C-3.18881 353.296 -2.27723 351.22 -0.434227 350.501C1.40878 349.782 3.4853 350.692 4.20383 352.534C4.92236 354.376 4.01078 356.452 2.16778 357.171Z" fill="#616161"/>
<path opacity="0.5" d="M150.513 590.699L162.776 618.577C162.885 618.855 162.808 619.205 162.437 619.349C162.159 619.458 161.809 619.381 161.7 619.103L149.436 591.225C149.328 590.947 149.405 590.597 149.683 590.489C150.018 590.251 150.368 590.328 150.513 590.699Z" fill="#656565"/>
<path opacity="0.097547" d="M-9.51466 418.94L2.987 520.802C3.00272 521.116 2.79691 521.41 2.48268 521.426C2.16846 521.442 1.87465 521.236 1.85893 520.922L-10.6427 419.06C-10.6585 418.746 -10.4526 418.452 -10.1384 418.436C-9.82419 418.421 -9.53039 418.626 -9.51466 418.94Z" fill="#656565"/>
<path opacity="0.3429" d="M55.5689 442.864L-10.2405 419.543C-10.4982 419.43 -10.7354 419.096 -10.6223 418.838C-10.5092 418.581 -10.1746 418.343 -9.9169 418.456L55.8925 441.777C56.1502 441.89 56.3874 442.225 56.2743 442.482C56.1974 442.833 55.8266 442.977 55.5689 442.864Z" fill="#656565"/>
<path opacity="0.1933" d="M56.2539 442.704L2.94619 521.245C2.74039 521.539 2.42616 521.555 2.16848 521.442C1.87467 521.236 1.85897 520.922 1.97208 520.664L55.2798 442.123C55.4856 441.83 55.7998 441.814 56.0575 441.927C56.3152 442.04 56.367 442.446 56.2539 442.704Z" fill="#656565"/>
<path opacity="0.1297" d="M2.85358 521.281L-60.3636 590.025C-60.6056 590.226 -60.9198 590.242 -61.1209 590C-61.322 589.759 -61.3377 589.444 -61.0958 589.243L2.12142 520.499C2.36336 520.298 2.6776 520.282 2.87871 520.524C3.07982 520.766 3.05939 520.987 2.85358 521.281Z" fill="#656565"/>
<path opacity="0.085119" d="M121.138 516.767L150.513 590.699C150.621 590.977 150.452 591.363 150.174 591.472C149.895 591.58 149.545 591.503 149.401 591.133L120.026 517.201C119.917 516.923 119.994 516.573 120.365 516.428C120.736 516.283 121.03 516.489 121.138 516.767Z" fill="#656565"/>
<path opacity="0.1194" d="M80.8665 465.552L2.76082 521.318C2.51887 521.519 2.16849 521.442 1.96738 521.2C1.76626 520.958 1.84322 520.608 2.08517 520.407L80.1909 464.641C80.4328 464.44 80.7832 464.517 80.9843 464.759C81.2216 465.093 81.1446 465.443 80.8665 465.552Z" fill="#656565"/>
<path opacity="0.2558" d="M-62.8448 531.646L2.36324 520.298C2.67747 520.283 2.97128 520.488 2.987 520.802C3.00272 521.116 2.79691 521.41 2.57538 521.39L-62.6327 532.738C-62.9469 532.754 -63.2407 532.548 -63.2565 532.234C-63.3649 531.956 -63.1229 531.755 -62.8448 531.646Z" fill="#656565"/>
<path opacity="0.099722" d="M-28.8954 690.679L73.4419 682.246C73.7561 682.23 74.0499 682.435 74.0657 682.749C74.0814 683.063 73.8755 683.357 73.5613 683.373L-28.776 691.807C-29.0902 691.823 -29.384 691.617 -29.3997 691.303C-29.3227 690.953 -29.0808 690.752 -28.8954 690.679Z" fill="#656565"/>
<path opacity="0.5" d="M56.1862 441.983L80.9841 464.758C81.1853 465 81.201 465.314 80.959 465.515C80.7171 465.716 80.4028 465.732 80.2017 465.491L55.4038 442.716C55.2027 442.474 55.1869 442.16 55.4289 441.959C55.5781 441.794 55.8924 441.778 56.1862 441.983Z" fill="#656565"/>
<path opacity="0.1234" d="M56.1863 441.983L121.066 516.581C121.267 516.823 121.19 517.174 121.041 517.338C120.799 517.54 120.484 517.555 120.283 517.314L55.4039 442.715C55.2028 442.474 55.2797 442.123 55.5217 441.922C55.6709 441.757 55.9852 441.741 56.1863 441.983Z" fill="#656565"/>
<path opacity="0.4586" d="M80.9845 464.758L121.066 516.581C121.267 516.823 121.19 517.173 120.948 517.375C120.706 517.576 120.356 517.499 120.155 517.257L80.0732 465.434C79.8721 465.192 79.9491 464.842 80.191 464.641C80.4691 464.532 80.7833 464.516 80.9845 464.758Z" fill="#656565"/>
<path opacity="0.01" d="M56.2946 442.261L69.9338 494.473C70.0422 494.751 69.8364 495.045 69.5583 495.153C69.2802 495.262 68.9864 495.056 68.878 494.778L55.3315 442.53C55.2231 442.252 55.4289 441.959 55.707 441.85C55.8924 441.778 56.2789 441.947 56.2946 442.261Z" fill="#656565"/>
<path opacity="0.068931" d="M120.901 516.432L214.767 572.251C215.025 572.364 215.077 572.771 214.963 573.028C214.85 573.286 214.443 573.338 214.186 573.225L120.32 517.406C120.062 517.293 120.01 516.887 120.123 516.629C120.365 516.428 120.643 516.319 120.901 516.432Z" fill="#656565"/>
<path opacity="0.1485" d="M120.901 516.432L206.212 561.819C206.469 561.932 206.614 562.303 206.408 562.596C206.295 562.854 205.924 562.999 205.63 562.793L120.319 517.406C120.062 517.293 119.917 516.923 120.123 516.629C120.329 516.335 120.643 516.319 120.901 516.432Z" fill="#656565"/>
<path opacity="0.3407" d="M81.1083 465.35L69.9494 494.787C69.8363 495.044 69.4655 495.189 69.2078 495.076C68.9502 494.963 68.7129 494.629 68.9187 494.335L80.1703 464.862C80.2834 464.605 80.618 464.367 80.9118 464.573C81.0768 464.722 81.1852 465 81.1083 465.35Z" fill="#656565"/>
<path opacity="0.2514" d="M120.448 517.463L69.1152 495.112C68.8575 494.999 68.713 494.629 68.8261 494.371C68.9392 494.113 69.31 493.969 69.5677 494.082L120.901 516.432C121.158 516.545 121.303 516.916 121.19 517.173C121.077 517.431 120.706 517.576 120.448 517.463Z" fill="#656565"/>
<path opacity="0.5" d="M206.377 561.968L214.932 572.4C215.133 572.642 215.056 572.992 214.814 573.194C214.572 573.395 214.222 573.318 214.021 573.076L205.465 562.644C205.264 562.402 205.341 562.052 205.583 561.851C205.861 561.742 206.176 561.727 206.377 561.968Z" fill="#656565"/>
<path opacity="0.5" d="M43.2835 322.666L65.3367 346.618C65.5378 346.86 65.5535 347.174 65.3116 347.375C65.0696 347.576 64.7554 347.592 64.5543 347.35L42.5011 323.398C42.2999 323.156 42.2842 322.842 42.5262 322.641C42.7681 322.44 43.0823 322.424 43.2835 322.666Z" fill="#656565"/>
<path opacity="0.5" d="M43.0163 323.624L-13.516 335.857C-13.8302 335.873 -14.124 335.667 -14.2324 335.389C-14.2482 335.075 -14.1351 334.818 -13.857 334.709L42.6753 322.476C42.9895 322.46 43.2833 322.666 43.3917 322.944C43.5002 323.222 43.2943 323.515 43.0163 323.624Z" fill="#656565"/>
<path opacity="0.3653" d="M-13.5426 334.693L65.0429 346.413C65.3572 346.397 65.5944 346.731 65.5175 347.081C65.4405 347.432 65.1985 347.633 64.8481 347.556L-13.7374 335.837C-14.0877 335.76 -14.2889 335.518 -14.2119 335.168C-14.2276 334.854 -13.8929 334.617 -13.5426 334.693Z" fill="#656565"/>
<path opacity="0.05066" d="M43.4074 323.258L-2.922 429.818C-3.03512 430.075 -3.40589 430.22 -3.66356 430.107C-3.92123 429.994 -4.0658 429.623 -3.95267 429.366L42.3767 322.806C42.4898 322.549 42.8606 322.404 43.1183 322.517C43.376 322.63 43.5205 323 43.4074 323.258Z" fill="#656565"/>
<path opacity="0.2107" d="M-3.04573 429.226L69.733 494.231C69.9341 494.473 69.9498 494.787 69.744 495.081C69.5021 495.282 69.1879 495.298 68.9302 495.185L-3.84855 430.179C-4.04967 429.938 -4.06538 429.624 -3.85957 429.33C-3.65376 429.036 -3.24684 428.984 -3.04573 429.226Z" fill="#656565"/>
<path opacity="0.1282" d="M-3.89582 429.237L64.4507 346.537C64.6926 346.336 64.9707 346.228 65.2645 346.433C65.4656 346.675 65.5741 346.953 65.3682 347.247L-2.97824 429.946C-3.18405 430.24 -3.4983 430.256 -3.79211 430.05C-4.08592 429.845 -4.10162 429.531 -3.89582 429.237Z" fill="#656565"/>
<path opacity="0.2421" d="M-4.02946 429.716L-14.2685 335.297C-14.2842 334.983 -14.0784 334.689 -13.7642 334.673C-13.4499 334.657 -13.1561 334.863 -13.1404 335.177L-2.93752 429.503C-2.9218 429.817 -3.12759 430.111 -3.44182 430.127C-3.75604 430.143 -3.92104 429.994 -4.02946 429.716Z" fill="#656565"/>
<path opacity="0.01" d="M214.814 573.193L138.119 628.196C137.877 628.397 137.527 628.32 137.326 628.078C137.125 627.836 137.202 627.486 137.444 627.285L214.139 572.283C214.381 572.082 214.731 572.158 214.932 572.4C215.133 572.642 215.149 572.956 214.814 573.193Z" fill="#656565"/>
<path opacity="0.030221" d="M206.351 562.726L138.304 628.124C138.062 628.325 137.748 628.34 137.454 628.135C137.253 627.893 137.201 627.486 137.443 627.285L205.583 561.851C205.825 561.65 206.139 561.634 206.433 561.84C206.578 562.21 206.593 562.524 206.351 562.726Z" fill="#656565"/>
<path opacity="0.064248" d="M151.251 538.109L214.767 572.252C215.025 572.364 215.169 572.735 214.963 573.029C214.85 573.286 214.479 573.431 214.186 573.225L150.706 539.176C150.448 539.063 150.304 538.692 150.509 538.398C150.623 538.141 150.993 537.996 151.251 538.109Z" fill="#656565"/>
<path opacity="0.1551" d="M205.759 562.85L150.835 539.232C150.577 539.119 150.433 538.749 150.51 538.398C150.623 538.141 150.993 537.996 151.344 538.073L206.305 561.783C206.562 561.896 206.707 562.267 206.594 562.524C206.295 562.854 206.017 562.963 205.759 562.85Z" fill="#656565"/>
<path opacity="0.1494" d="M69.5679 494.082L151.251 538.109C151.545 538.315 151.653 538.592 151.484 538.979C151.278 539.273 151 539.381 150.706 539.176L68.9866 495.056C68.7289 494.943 68.5843 494.572 68.7902 494.279C68.996 493.985 69.3102 493.969 69.5679 494.082Z" fill="#656565"/>
<path opacity="0.1525" d="M-74.9041 501.554L-3.89582 429.237C-3.65387 429.036 -3.33966 429.02 -3.04585 429.225C-2.84474 429.467 -2.82901 429.781 -3.03482 430.075L-74.0431 502.392C-74.2851 502.593 -74.5993 502.609 -74.8931 502.403C-75.1304 502.069 -75.1461 501.755 -74.9041 501.554Z" fill="#656565"/>
<path opacity="0.3052" d="M151.597 538.721L138.418 627.866C138.341 628.216 138.099 628.417 137.749 628.34C137.398 628.263 137.197 628.022 137.274 627.671L150.453 538.527C150.53 538.177 150.772 537.975 151.122 538.052C151.473 538.129 151.674 538.371 151.597 538.721Z" fill="#656565"/>
<path opacity="0.2882" d="M5.0092 136.394L-81.9508 114.706C-82.3012 114.629 -82.4457 114.258 -82.3326 114.001C-82.2556 113.65 -81.8848 113.506 -81.5345 113.583L5.38938 135.178C5.73974 135.255 5.8843 135.625 5.80733 135.976C5.69421 136.233 5.35956 136.471 5.0092 136.394Z" fill="#656565"/>
<path opacity="0.1423" d="M5.69418 136.234L-68.5203 224.425C-68.7262 224.718 -69.1331 224.77 -69.3342 224.529C-69.628 224.323 -69.6799 223.916 -69.4379 223.715L4.7766 135.524C5.01855 135.323 5.42548 135.271 5.62659 135.513C5.84812 135.533 5.89999 135.94 5.69418 136.234Z" fill="#656565"/>
<path opacity="0.1518" d="M5.13822 136.451L-108.714 130.697C-109.029 130.713 -109.266 130.378 -109.282 130.064C-109.297 129.75 -108.963 129.513 -108.648 129.497L5.20417 135.251C5.5184 135.235 5.75565 135.569 5.77137 135.883C5.78709 136.197 5.45244 136.435 5.13822 136.451Z" fill="#656565"/>
<path opacity="0.215" d="M4.88051 136.337L-83.2968 76.4844C-83.5906 76.2788 -83.6424 75.8721 -83.4366 75.5783C-83.2308 75.2846 -82.8239 75.2326 -82.5301 75.4382L5.64719 135.291C5.941 135.496 5.99286 135.903 5.78705 136.197C5.45241 136.434 5.13818 136.45 4.88051 136.337Z" fill="#656565"/>
<path opacity="0.2991" d="M5.50889 136.306L-23.9304 156.115C-24.1724 156.317 -24.6155 156.276 -24.8527 155.942C-25.0538 155.7 -25.013 155.257 -24.6783 155.02L4.79714 135.302C5.03909 135.101 5.48215 135.142 5.6267 135.512C5.92051 135.718 5.75083 136.104 5.50889 136.306Z" fill="#656565"/>
<path opacity="0.1055" d="M24.0739 402.101L129.662 339.03C130.032 338.886 130.383 338.963 130.491 339.24C130.6 339.518 130.523 339.869 130.281 340.07L24.693 403.141C24.3583 403.378 23.9718 403.209 23.8634 402.931C23.6623 402.689 23.7958 402.21 24.0739 402.101Z" fill="#656565"/>
<path opacity="0.4187" d="M24.3227 403.285L-54.3114 395.001C-54.6618 394.924 -54.8629 394.682 -54.9147 394.275C-54.8378 393.925 -54.5958 393.724 -54.1889 393.672L24.4452 401.956C24.7956 402.033 24.9967 402.275 25.0485 402.682C24.9716 403.032 24.6369 403.269 24.3227 403.285Z" fill="#656565"/>
<path opacity="0.2353" d="M24.6007 403.177L-69.4919 438.495C-69.8627 438.64 -70.1565 438.434 -70.3011 438.063C-70.4095 437.785 -70.2398 437.399 -69.9617 437.291L24.1309 401.973C24.5017 401.828 24.7955 402.034 24.9039 402.312C25.0846 402.775 24.8788 403.069 24.6007 403.177Z" fill="#656565"/>
<path opacity="0.5" d="M130.161 338.942L137.334 340.627C137.684 340.704 137.921 341.038 137.844 341.389C137.767 341.739 137.433 341.976 137.082 341.899L129.91 340.214C129.56 340.138 129.415 339.767 129.492 339.417C129.476 339.103 129.811 338.865 130.161 338.942Z" fill="#656565"/>
<path opacity="0.422" d="M66.6675 348.661L129.847 338.958C130.162 338.942 130.548 339.112 130.6 339.519C130.616 339.833 130.446 340.219 130.039 340.271L66.8592 349.974C66.4523 350.026 66.1585 349.82 66.1066 349.414C66.0909 349.1 66.3894 348.77 66.6675 348.661Z" fill="#656565"/>
<path opacity="0.4719" d="M23.925 402.266L66.3691 348.991C66.5749 348.697 66.9818 348.645 67.2756 348.851C67.5694 349.056 67.6213 349.463 67.4155 349.757L24.9714 403.032C24.7656 403.326 24.3586 403.378 24.0648 403.172C23.7349 402.874 23.683 402.467 23.925 402.266Z" fill="#656565"/>
<path opacity="0.055318" d="M4.64291 136.003L-2.81911 114.684C-2.96366 114.313 -2.79399 113.927 -2.38707 113.875C-2.01628 113.73 -1.72247 113.936 -1.57791 114.306L5.79139 135.661C5.89981 135.939 5.73015 136.326 5.45206 136.434C5.04514 136.486 4.75133 136.281 4.64291 136.003Z" fill="#656565"/>
<path opacity="0.3248" d="M24.693 403.141L-39.0011 444.106C-39.3358 444.343 -39.7223 444.173 -39.9234 443.932C-40.1245 443.69 -39.9909 443.211 -39.7129 443.102L24.0174 402.231C24.2594 402.029 24.7386 402.163 24.847 402.441C25.1047 402.554 25.0638 402.997 24.693 403.141Z" fill="#656565"/>
<path opacity="0.2474" d="M130.492 339.24L175.38 415.98C175.617 416.314 175.448 416.7 175.17 416.809C174.835 417.046 174.448 416.877 174.247 416.635L129.452 339.859C129.251 339.618 129.384 339.138 129.662 339.03C130.033 338.885 130.383 338.962 130.492 339.24Z" fill="#656565"/>
<path opacity="0.2085" d="M52.6012 351.48L129.847 338.958C130.162 338.942 130.548 339.112 130.564 339.426C130.58 339.74 130.41 340.126 130.096 340.142L52.7568 352.7C52.3499 352.752 52.0561 352.546 52.0042 352.14C52.0247 351.918 52.1943 351.532 52.6012 351.48Z" fill="#656565"/>
<path opacity="0.4136" d="M23.832 402.302L52.081 351.789C52.2868 351.495 52.6576 351.351 52.9515 351.556C53.2453 351.762 53.3898 352.133 53.184 352.426L24.8062 402.883C24.6004 403.177 24.2296 403.321 23.9358 403.116C23.7708 402.967 23.6262 402.596 23.832 402.302Z" fill="#656565"/>
<path opacity="0.2749" d="M101.466 627.871L104.172 525.84C104.156 525.526 104.454 525.196 104.805 525.273C105.119 525.257 105.449 525.555 105.372 525.906L102.631 627.843C102.646 628.158 102.348 628.487 101.905 628.447C101.719 628.519 101.482 628.185 101.466 627.871Z" fill="#656565"/>
<path opacity="0.3739" d="M105.388 526.22L61.2317 601.938C61.0258 602.232 60.6551 602.376 60.3613 602.171C60.0675 601.965 59.9229 601.594 60.1287 601.301L104.285 525.583C104.49 525.289 104.861 525.144 105.155 525.35C105.449 525.555 105.593 525.926 105.388 526.22Z" fill="#656565"/>
<path opacity="0.5" d="M101.775 628.391L60.361 602.171C60.0672 601.965 60.0153 601.559 60.1284 601.301C60.3342 601.007 60.7411 600.955 60.9988 601.068L102.413 627.288C102.707 627.493 102.759 627.9 102.553 628.194C102.44 628.452 102.069 628.596 101.775 628.391Z" fill="#656565"/>
<path opacity="0.4979" d="M66.7602 348.625L137.112 340.607C137.426 340.591 137.813 340.761 137.865 341.167C137.881 341.481 137.711 341.868 137.304 341.92L66.9519 349.938C66.6376 349.953 66.3077 349.655 66.292 349.341C66.1836 349.063 66.3894 348.769 66.7602 348.625Z" fill="#656565"/>
<path opacity="0.1603" d="M23.8274 402.838L-8.4669 318.41C-8.61146 318.04 -8.44178 317.653 -8.071 317.509C-7.70022 317.364 -7.3137 317.534 -7.16914 317.904L25.0325 402.368C25.177 402.739 24.9712 403.032 24.6931 403.141C24.415 403.249 23.9358 403.116 23.8274 402.838Z" fill="#656565"/>
<path opacity="0.086577" d="M104.377 525.546L174.308 415.971C174.514 415.677 174.921 415.625 175.179 415.738C175.472 415.944 175.524 416.35 175.411 416.608L105.444 526.091C105.238 526.385 104.831 526.437 104.574 526.324C104.223 526.247 104.171 525.84 104.377 525.546Z" fill="#656565"/>
<path opacity="0.5" d="M102.759 627.9L102.149 661.654C102.165 661.968 101.867 662.298 101.423 662.257C101.109 662.273 100.779 661.975 100.764 661.661L101.374 627.907C101.358 627.593 101.656 627.263 101.971 627.247C102.506 627.252 102.708 627.493 102.759 627.9Z" fill="#656565"/>
<path opacity="0.2193" d="M23.8637 402.931L-12.5901 346.17C-12.8274 345.836 -12.6577 345.449 -12.4158 345.248C-12.0811 345.011 -11.6946 345.18 -11.4935 345.422L24.9037 402.312C25.1048 402.553 25.064 402.996 24.6932 403.141C24.4513 403.342 24.1009 403.265 23.8637 402.931Z" fill="#656565"/>
<path opacity="0.3959" d="M137.7 341.018L175.416 416.073C175.561 416.443 175.484 416.793 175.113 416.938C174.742 417.083 174.392 417.006 174.247 416.635L136.531 341.581C136.387 341.21 136.464 340.86 136.834 340.715C137.205 340.571 137.592 340.74 137.7 341.018Z" fill="#656565"/>
<path opacity="0.1025" d="M67.1467 348.794L175.215 415.831C175.509 416.037 175.653 416.407 175.447 416.701C175.242 416.995 174.871 417.139 174.577 416.934L66.5088 349.897C66.215 349.691 66.1632 349.285 66.369 348.991C66.4821 348.733 66.8528 348.589 67.1467 348.794Z" fill="#656565"/>
<path opacity="0.4887" d="M101.001 661.996L60.1965 602.022C59.9593 601.688 60.0363 601.337 60.3709 601.1C60.6129 600.899 61.0559 600.94 61.2932 601.274L102.098 661.248C102.335 661.582 102.258 661.932 101.923 662.17C101.589 662.407 101.238 662.33 101.001 661.996Z" fill="#656565"/>
<path opacity="0.2379" d="M-54.8017 394.018L-8.4619 317.875C-8.25609 317.581 -7.84919 317.529 -7.59152 317.642C-7.29771 317.848 -7.15315 318.218 -7.35896 318.512L-53.7914 394.691C-53.9972 394.985 -54.4042 395.037 -54.6618 394.924C-54.8629 394.682 -55.0075 394.312 -54.8017 394.018Z" fill="#656565"/>
<path opacity="0.3443" d="M52.6011 351.48L137.02 340.643C137.426 340.591 137.72 340.797 137.772 341.203C137.788 341.518 137.618 341.904 137.211 341.956L52.7928 352.792C52.3859 352.844 52.056 352.546 52.0403 352.232C51.9884 351.825 52.2869 351.496 52.6011 351.48Z" fill="#656565"/>
<path opacity="0.5" d="M52.6013 351.48L66.6676 348.661C67.0745 348.609 67.3683 348.815 67.4202 349.222C67.4359 349.536 67.2662 349.922 66.952 349.938L52.8857 352.757C52.4788 352.809 52.185 352.603 52.1331 352.196C52.0247 351.918 52.1944 351.532 52.6013 351.48Z" fill="#656565"/>
<path opacity="0.5" d="M104.517 526.453L80.7973 511.369C80.5035 511.164 80.4517 510.757 80.5648 510.499C80.7706 510.206 81.1775 510.154 81.4352 510.267L105.155 525.35C105.449 525.556 105.501 525.962 105.388 526.22C105.182 526.514 104.811 526.658 104.517 526.453Z" fill="#656565"/>
<path opacity="0.1171" d="M101.502 627.963L80.5238 510.942C80.4719 510.535 80.6778 510.242 81.0847 510.19C81.3989 510.174 81.7854 510.343 81.8373 510.75L102.723 627.807C102.775 628.214 102.569 628.508 102.162 628.56C101.848 628.575 101.554 628.37 101.502 627.963Z" fill="#656565"/>
<path opacity="0.3105" d="M60.1081 601.522L80.5441 510.721C80.621 510.37 80.9557 510.133 81.306 510.21C81.6564 510.287 81.8937 510.621 81.8167 510.971L61.3807 601.773C61.3037 602.123 60.9691 602.36 60.6187 602.283C60.2683 602.207 60.0311 601.872 60.1081 601.522Z" fill="#656565"/>
<path opacity="0.3182" d="M140.815 708.479L101.575 628.148C101.43 627.778 101.507 627.428 101.878 627.283C102.249 627.138 102.599 627.215 102.744 627.586L142.077 707.88C142.221 708.251 142.144 708.601 141.773 708.746C141.31 708.926 140.923 708.757 140.815 708.479Z" fill="#656565"/>
<path opacity="0.3423" d="M66.6017 349.861L-8.10059 318.801C-8.48709 318.632 -8.63166 318.261 -8.42585 317.968C-8.25618 317.581 -7.8854 317.437 -7.59159 317.642L67.1107 348.702C67.4972 348.871 67.6418 349.242 67.4359 349.536C67.2663 349.922 66.8955 350.067 66.6017 349.861Z" fill="#656565"/>
<path opacity="0.082204" d="M24.8313 402.126L51.3513 426.578C51.6451 426.783 51.6043 427.226 51.3985 427.52C51.1926 427.814 50.7496 427.773 50.4558 427.567L23.9358 403.116C23.7347 402.874 23.6828 402.467 23.9247 402.266C24.1306 401.973 24.5375 401.92 24.8313 402.126Z" fill="#656565"/>
<path opacity="0.047551" d="M140.851 708.572L60.1964 602.022C59.9953 601.78 60.0361 601.337 60.3707 601.1C60.6127 600.898 61.0557 600.939 61.2568 601.181L141.911 707.731C142.149 708.066 142.072 708.416 141.737 708.653C141.531 708.947 141.088 708.906 140.851 708.572Z" fill="#656565"/>
<path opacity="0.040026" d="M175.298 416.865L81.6473 511.358C81.4053 511.559 80.9984 511.611 80.6684 511.312C80.4673 511.071 80.4155 510.664 80.6213 510.37L174.308 415.971C174.55 415.769 174.957 415.717 175.251 415.923C175.545 416.129 175.504 416.572 175.298 416.865Z" fill="#656565"/>
<path opacity="0.5" d="M-24.7915 155.277L-2.81423 114.148C-2.60842 113.855 -2.23762 113.71 -1.94381 113.915C-1.65 114.121 -1.50546 114.492 -1.71126 114.785L-23.6886 155.914C-23.8944 156.208 -24.2652 156.353 -24.559 156.147C-24.8528 155.941 -24.9973 155.571 -24.7915 155.277Z" fill="#656565"/>
<path opacity="0.033864" d="M130.523 339.869L124.357 351.987C124.151 352.281 123.78 352.426 123.394 352.256C123.1 352.051 122.955 351.68 123.125 351.294L129.327 339.268C129.533 338.974 129.904 338.829 130.198 339.035C130.584 339.204 130.729 339.575 130.523 339.869Z" fill="#656565"/>
<path opacity="0.3156" d="M-12.009 345.196L66.8889 348.681C67.2031 348.665 67.5331 348.964 67.4923 349.406C67.508 349.721 67.2095 350.05 66.7664 350.01L-12.0953 346.617C-12.4096 346.633 -12.7757 346.242 -12.6987 345.892C-12.7506 345.485 -12.4159 345.248 -12.009 345.196Z" fill="#656565"/>
<path opacity="0.090083" d="M105.424 526.312L38.8211 612.388C38.6153 612.682 38.2084 612.734 37.9146 612.528C37.6208 612.322 37.5689 611.916 37.7747 611.622L104.47 525.51C104.676 525.216 105.083 525.164 105.376 525.37C105.578 525.612 105.629 526.019 105.424 526.312Z" fill="#656565"/>
<path opacity="0.092602" d="M102.651 627.622L154.965 738.183C155.11 738.554 154.94 738.94 154.662 739.048C154.291 739.193 153.905 739.024 153.796 738.746L101.482 628.185C101.337 627.814 101.507 627.428 101.785 627.319C102.156 627.175 102.542 627.344 102.651 627.622Z" fill="#656565"/>
<path opacity="0.3278" d="M101.941 628.54L38.0798 612.678C37.7295 612.601 37.4922 612.266 37.6619 611.88C37.7388 611.53 38.0735 611.292 38.4239 611.369L102.321 627.324C102.671 627.401 102.909 627.735 102.739 628.122C102.626 628.379 102.291 628.617 101.941 628.54Z" fill="#656565"/>
<path opacity="0.5" d="M140.851 708.572L101.037 662.088C100.836 661.846 100.876 661.403 101.118 661.202C101.36 661.001 101.803 661.041 102.004 661.283L141.819 707.767C142.02 708.009 141.979 708.452 141.737 708.653C141.531 708.947 141.088 708.906 140.851 708.572Z" fill="#656565"/>
<path opacity="0.5" d="M60.9333 602.268L38.4868 612.625C38.116 612.77 37.7295 612.601 37.6211 612.323C37.4765 611.952 37.6462 611.566 37.9243 611.457L60.4069 601.192C60.7777 601.048 61.1281 601.125 61.2726 601.495C61.4376 601.644 61.304 602.123 60.9333 602.268Z" fill="#656565"/>
<path opacity="0.434" d="M-24.735 155.149L17.1043 105.525C17.3101 105.231 17.717 105.179 18.047 105.477C18.3408 105.683 18.3927 106.089 18.0942 106.419L-23.7814 155.951C-23.9872 156.244 -24.3941 156.296 -24.724 155.998C-24.889 155.849 -24.9408 155.442 -24.735 155.149Z" fill="#656565"/>
<path opacity="0.2661" d="M-11.4621 346.05L-38.7385 443.683C-38.8155 444.033 -39.1502 444.271 -39.5367 444.101C-39.8871 444.024 -40.1243 443.69 -39.9546 443.304L-12.6781 345.671C-12.6012 345.321 -12.2304 345.176 -11.88 345.253C-11.5297 345.33 -11.3851 345.7 -11.4621 346.05Z" fill="#656565"/>
<path opacity="0.3405" d="M57.6532 519.117L104.99 525.201C105.341 525.277 105.578 525.612 105.594 525.926C105.517 526.276 105.182 526.513 104.868 526.529L57.5669 520.538C57.2165 520.461 56.9793 520.127 56.9635 519.813C57.0044 519.37 57.339 519.133 57.6532 519.117Z" fill="#656565"/>
<path opacity="0.355" d="M-23.7922 155.101L13.0113 193.046C13.2124 193.288 13.2643 193.694 12.9658 194.024C12.7238 194.225 12.3169 194.277 11.9869 193.979L-24.7239 155.998C-24.925 155.756 -24.9769 155.349 -24.6422 155.112C-24.4003 154.911 -23.9933 154.859 -23.7922 155.101Z" fill="#656565"/>
<path opacity="0.3201" d="M102.005 661.283L154.893 737.998C155.131 738.332 155.054 738.682 154.719 738.92C154.384 739.157 154.034 739.08 153.797 738.746L100.872 661.939C100.635 661.604 100.712 661.254 101.046 661.017C101.453 660.965 101.896 661.005 102.005 661.283Z" fill="#656565"/>
<path opacity="0.1602" d="M104.244 526.026L89.2083 437.107C89.1564 436.7 89.3623 436.406 89.7692 436.354C90.1761 436.302 90.4699 436.508 90.5218 436.915L105.521 525.741C105.573 526.148 105.367 526.441 104.96 526.493C104.646 526.509 104.26 526.34 104.244 526.026Z" fill="#656565"/>
<path opacity="0.2027" d="M-31.2408 210.202L-7.18948 318.125C-7.13762 318.532 -7.34345 318.826 -7.75037 318.878C-8.15729 318.93 -8.45109 318.724 -8.46682 318.41L-32.5181 210.486C-32.57 210.08 -32.3642 209.786 -31.9934 209.641C-31.6792 209.625 -31.2926 209.795 -31.2408 210.202Z" fill="#656565"/>
<path opacity="0.2449" d="M58.2565 519.842L61.3449 601.68C61.3606 601.994 61.0621 602.324 60.7479 602.34C60.4337 602.356 60.1037 602.058 60.088 601.744L56.9069 519.942C56.8551 519.535 57.1897 519.298 57.5966 519.246C57.8747 519.137 58.2047 519.435 58.2565 519.842Z" fill="#656565"/>
<path opacity="0.155" d="M102.497 628.323L35.1868 687.67C34.8522 687.907 34.538 687.923 34.208 687.624C33.9707 687.29 34.0477 686.94 34.2535 686.646L101.564 627.299C101.806 627.098 102.249 627.139 102.45 627.381C102.816 627.771 102.739 628.122 102.497 628.323Z" fill="#656565"/>
<path opacity="0.5" d="M52.3497 352.752L-8.19357 318.838C-8.48738 318.632 -8.63194 318.261 -8.42613 317.968C-8.22032 317.674 -7.84954 317.529 -7.55573 317.735L52.9876 351.649C53.2814 351.855 53.4259 352.225 53.2201 352.519C53.107 352.777 52.7001 352.829 52.3497 352.752Z" fill="#656565"/>
<path opacity="0.3185" d="M101.166 662.145L37.8787 612.436C37.5849 612.23 37.533 611.823 37.7389 611.53C37.9447 611.236 38.3516 611.184 38.6454 611.39L101.932 661.098C102.226 661.304 102.278 661.711 102.072 662.004C101.774 662.334 101.367 662.386 101.166 662.145Z" fill="#656565"/>
<path opacity="0.3216" d="M-1.65458 114.657L-31.3177 210.552C-31.3947 210.902 -31.7655 211.047 -32.1158 210.97C-32.4662 210.893 -32.6108 210.523 -32.5338 210.172L-2.87066 114.277C-2.79368 113.927 -2.42291 113.782 -2.07254 113.859C-1.72217 113.936 -1.48491 114.27 -1.65458 114.657Z" fill="#656565"/>
<path opacity="0.021593" d="M137.732 341.646L90.4811 437.358C90.2753 437.651 89.9045 437.796 89.518 437.627C89.2242 437.421 89.0796 437.05 89.1927 436.793L136.536 341.045C136.742 340.752 137.112 340.607 137.406 340.813C137.757 340.889 137.901 341.26 137.732 341.646Z" fill="#656565"/>
<path opacity="0.1997" d="M61.2883 601.809L35.3925 687.376C35.3155 687.726 34.852 687.907 34.5944 687.794C34.244 687.717 33.9706 687.29 34.1764 686.996L60.165 601.394C60.242 601.043 60.6127 600.899 60.9631 600.975C61.2208 601.088 61.4015 601.552 61.2883 601.809Z" fill="#656565"/>
<path opacity="0.1457" d="M67.3839 349.129L90.4856 436.822C90.6302 437.193 90.3317 437.523 89.9609 437.667C89.5901 437.812 89.2602 437.514 89.1517 437.236L66.1427 349.506C65.9982 349.136 66.2967 348.806 66.5748 348.697C66.9817 348.645 67.3682 348.815 67.3839 349.129Z" fill="#656565"/>
<path opacity="0.5" d="M-12.0089 345.196L52.7866 351.407C53.1369 351.484 53.3742 351.818 53.3899 352.133C53.3129 352.483 52.9783 352.72 52.6641 352.736L-12.1314 346.524C-12.4818 346.448 -12.719 346.113 -12.7348 345.799C-12.6578 345.449 -12.3231 345.212 -12.0089 345.196Z" fill="#656565"/>
<path opacity="0.2219" d="M126.356 703.446L101.446 628.092C101.301 627.722 101.507 627.428 101.878 627.283C102.249 627.139 102.542 627.344 102.687 627.715L127.597 703.069C127.741 703.439 127.572 703.826 127.165 703.878C126.887 703.986 126.5 703.817 126.356 703.446Z" fill="#656565"/>
<path opacity="0.1351" d="M67.3997 349.443L51.5117 427.262C51.4347 427.612 51.1001 427.85 50.7497 427.773C50.3993 427.696 50.1621 427.362 50.2391 427.011L66.1632 349.284C66.2402 348.934 66.5748 348.697 66.9252 348.774C67.2394 348.758 67.4767 349.092 67.3997 349.443Z" fill="#656565"/>
<path opacity="0.3173" d="M101.737 662.241L34.9445 687.87C34.5737 688.015 34.1872 687.845 34.0426 687.475C33.8981 687.104 34.1039 686.81 34.4385 686.573L101.268 661.037C101.638 660.892 101.932 661.098 102.077 661.469C102.221 661.839 102.108 662.097 101.737 662.241Z" fill="#656565"/>
<path opacity="0.2187" d="M-32.4775 210.044L16.955 105.689C17.1247 105.303 17.5316 105.251 17.7892 105.364C18.0831 105.57 18.2276 105.94 18.1145 106.198L-31.4468 210.496C-31.6526 210.79 -32.0234 210.934 -32.2811 210.821C-32.5026 210.801 -32.6472 210.43 -32.4775 210.044Z" fill="#656565"/>
<path opacity="0.1997" d="M175.02 416.975L90.0536 437.631C89.6467 437.683 89.3529 437.478 89.2083 437.107C89.1564 436.701 89.3623 436.407 89.733 436.262L174.699 415.605C175.106 415.553 175.4 415.759 175.509 416.037C175.504 416.572 175.298 416.866 175.02 416.975Z" fill="#656565"/>
<path opacity="0.3173" d="M137.582 341.812L124.208 352.152C123.873 352.39 123.523 352.313 123.193 352.015C122.955 351.68 123.032 351.33 123.367 351.093L136.742 340.752C137.076 340.515 137.427 340.591 137.628 340.833C137.865 341.168 137.824 341.61 137.582 341.812Z" fill="#656565"/>
<path opacity="0.2803" d="M66.889 348.681L123.866 351.004C124.181 350.988 124.547 351.379 124.562 351.693C124.522 352.136 124.187 352.373 123.873 352.389L66.8953 350.066C66.5811 350.082 66.2512 349.784 66.292 349.341C66.2401 348.934 66.4459 348.64 66.889 348.681Z" fill="#656565"/>
<path opacity="0.2137" d="M37.5895 611.694L80.5647 510.499C80.7344 510.113 81.1052 509.968 81.399 510.174C81.6928 510.379 81.8939 510.621 81.7242 511.008L38.8417 612.167C38.6721 612.553 38.3013 612.698 38.0075 612.492C37.6571 612.415 37.5125 612.045 37.5895 611.694Z" fill="#656565"/>
<path opacity="0.2369" d="M137.7 341.018L161.943 382.902C162.18 383.237 162.01 383.623 161.675 383.86C161.341 384.098 160.954 383.928 160.717 383.594L136.567 341.673C136.33 341.339 136.5 340.952 136.778 340.844C137.113 340.607 137.556 340.647 137.7 341.018Z" fill="#656565"/>
<path opacity="0.2344" d="M93.7825 503.315L105.449 525.556C105.593 525.926 105.517 526.277 105.146 526.421C104.775 526.566 104.517 526.453 104.28 526.119L92.6136 503.878C92.4691 503.508 92.546 503.157 92.8806 502.92C93.1949 502.904 93.6741 503.037 93.7825 503.315Z" fill="#656565"/>
<path opacity="0.5" d="M-32.1788 209.714L12.1817 192.836C12.5525 192.691 12.939 192.861 13.0836 193.231C13.2281 193.602 13.0584 193.988 12.6877 194.133L-31.709 210.918C-32.0798 211.063 -32.4663 210.893 -32.5181 210.487C-32.6265 210.209 -32.4569 209.822 -32.1788 209.714Z" fill="#656565"/>
<path opacity="0.169" d="M-24.1787 154.931L48.2667 161.04C48.617 161.117 48.947 161.416 48.87 161.766C48.793 162.116 48.4945 162.446 48.1442 162.369L-24.3373 156.167C-24.6877 156.091 -24.9249 155.756 -24.9407 155.442C-24.8275 155.184 -24.529 154.855 -24.1787 154.931Z" fill="#656565"/>
<path opacity="0.4361" d="M126.484 703.502L101.001 661.995C100.763 661.661 100.933 661.274 101.175 661.073C101.51 660.836 101.896 661.005 102.004 661.283L127.488 702.79C127.725 703.125 127.556 703.511 127.314 703.712C127.108 704.006 126.629 703.873 126.484 703.502Z" fill="#656565"/>
<path opacity="0.5" d="M-12.7346 345.8L-8.57509 318.133C-8.49811 317.782 -8.16344 317.545 -7.81307 317.622C-7.46271 317.699 -7.22547 318.033 -7.30245 318.383L-11.4619 346.05C-11.5389 346.4 -11.8735 346.638 -12.2239 346.561C-12.4816 346.448 -12.7188 346.114 -12.7346 345.8Z" fill="#656565"/>
<path opacity="0.011267" d="M12.9658 194.024L-90.5092 294.27C-90.7511 294.471 -91.158 294.523 -91.488 294.225C-91.6891 293.983 -91.741 293.577 -91.4425 293.247L12.0325 193.001C12.2745 192.8 12.6814 192.748 13.0114 193.046C13.2125 193.288 13.2643 193.694 12.9658 194.024Z" fill="#656565"/>
<path opacity="0.2216" d="M46.3137 451.172L-39.279 444.214C-39.6293 444.137 -39.9593 443.839 -39.8823 443.488C-39.8053 443.138 -39.5995 442.844 -39.1564 442.885L46.5289 449.807C46.8792 449.884 47.2092 450.182 47.1322 450.532C46.9625 450.918 46.6279 451.156 46.3137 451.172Z" fill="#656565"/>
<path opacity="0.2629" d="M53.2813 351.855L90.4493 436.73C90.5939 437.1 90.4242 437.487 90.0534 437.631C89.6826 437.776 89.2961 437.607 89.1877 437.329L52.0197 352.454C51.8751 352.083 52.0448 351.697 52.3229 351.588C52.7864 351.408 53.1729 351.577 53.2813 351.855Z" fill="#656565"/>
<path opacity="0.5" d="M141.984 707.916L155.058 738.146C155.203 738.517 155.033 738.903 154.755 739.012C154.384 739.157 153.997 738.987 153.889 738.709L140.815 708.479C140.67 708.108 140.84 707.722 141.118 707.613C141.453 707.376 141.839 707.545 141.984 707.916Z" fill="#656565"/>
<path opacity="0.5" d="M57.339 519.133L80.956 510.133C81.3268 509.989 81.6206 510.194 81.7652 510.565C81.9098 510.935 81.7401 511.322 81.3693 511.466L57.7523 520.466C57.3815 520.61 56.995 520.441 56.8504 520.07C56.7985 519.664 56.9682 519.277 57.339 519.133Z" fill="#656565"/>
<path opacity="0.2044" d="M124.382 351.231L175.38 415.98C175.581 416.222 175.54 416.665 175.205 416.902C174.963 417.103 174.52 417.063 174.319 416.821L123.229 352.107C122.991 351.773 123.068 351.423 123.274 351.129C123.701 350.856 124.144 350.896 124.382 351.231Z" fill="#656565"/>
<path opacity="0.3781" d="M161.979 382.995L175.452 416.165C175.597 416.536 175.427 416.922 175.149 417.031C174.778 417.175 174.392 417.006 174.283 416.728L160.717 383.594C160.572 383.224 160.742 382.837 161.113 382.693C161.448 382.455 161.834 382.625 161.979 382.995Z" fill="#656565"/>
<path opacity="0.4255" d="M90.5015 437.136L81.817 510.972C81.7401 511.322 81.4054 511.559 81.0912 511.575C80.7409 511.498 80.5036 511.164 80.4879 510.85L89.1723 437.014C89.2493 436.664 89.5839 436.427 89.8981 436.411C90.3412 436.451 90.5423 436.693 90.5015 437.136Z" fill="#656565"/>
<path opacity="0.5" d="M-2.5158 113.819L17.3824 105.416C17.7532 105.271 18.1397 105.441 18.2481 105.719C18.3926 106.089 18.223 106.476 17.9449 106.584L-1.9533 114.987C-2.32408 115.132 -2.71058 114.962 -2.85514 114.592C-2.96356 114.314 -2.88658 113.963 -2.5158 113.819Z" fill="#656565"/>
<path opacity="0.1462" d="M13.2285 193.602L-7.20955 318.347C-7.28653 318.697 -7.62118 318.935 -7.97154 318.858C-8.3219 318.781 -8.55916 318.447 -8.48219 318.096L11.8632 193.387C11.9401 193.037 12.2748 192.8 12.6251 192.877C12.9755 192.953 13.2128 193.288 13.2285 193.602Z" fill="#656565"/>
<path opacity="0.3101" d="M53.3901 352.133L51.6611 427.097C51.713 427.504 51.3783 427.741 50.9714 427.793C50.6572 427.809 50.3272 427.511 50.2754 427.104L52.097 352.103C52.0813 351.789 52.3798 351.459 52.7867 351.407C53.0444 351.52 53.3744 351.819 53.3901 352.133Z" fill="#656565"/>
<path opacity="0.1218" d="M99.4293 758.993L100.892 661.717C100.876 661.403 101.175 661.073 101.582 661.021C101.896 661.006 102.226 661.304 102.278 661.711L100.908 758.95C100.867 759.393 100.532 759.631 100.182 759.554C99.775 759.606 99.4451 759.308 99.4293 758.993Z" fill="#656565"/>
<path opacity="0.013026" d="M102.347 628.488L42.758 650.133C42.3872 650.277 42.0007 650.108 41.8561 649.737C41.7116 649.367 41.8812 648.98 42.252 648.836L101.878 627.284C102.248 627.139 102.542 627.345 102.687 627.715C102.795 627.993 102.625 628.379 102.347 628.488Z" fill="#656565"/>
<path opacity="0.1656" d="M53.3899 352.133L47.0033 450.476C46.9263 450.826 46.6278 451.156 46.2774 451.079C45.8344 451.039 45.5971 450.704 45.6741 450.354L52.0607 352.011C52.1377 351.661 52.3435 351.367 52.7866 351.408C53.1369 351.484 53.3742 351.819 53.3899 352.133Z" fill="#656565"/>
<path opacity="0.3021" d="M-87.8687 370.306L-8.22003 317.674C-7.88539 317.437 -7.49886 317.606 -7.29775 317.848C-7.0605 318.182 -7.13748 318.533 -7.47212 318.77L-87.1208 371.402C-87.4554 371.639 -87.8419 371.47 -88.043 371.228C-88.2442 370.986 -88.1106 370.507 -87.8687 370.306Z" fill="#656565"/>
<path opacity="0.4042" d="M-1.57791 114.306L13.2483 193.38C13.3002 193.787 13.0944 194.081 12.6874 194.133C12.2805 194.185 11.9867 193.979 11.9349 193.572L-2.85523 114.591C-2.90709 114.185 -2.70128 113.891 -2.29436 113.839C-2.01627 113.73 -1.72246 113.936 -1.57791 114.306Z" fill="#656565"/>
<path opacity="0.3756" d="M52.6938 351.443L123.83 350.912C124.237 350.86 124.474 351.194 124.526 351.601C124.578 352.007 124.243 352.245 123.836 352.297L52.7567 352.7C52.4425 352.716 52.1125 352.417 52.0607 352.011C52.0811 351.789 52.3796 351.459 52.6938 351.443Z" fill="#656565"/>
<path opacity="0.1068" d="M41.8612 649.201L60.165 601.394C60.2419 601.043 60.6127 600.899 60.9992 601.068C61.3496 601.145 61.4941 601.515 61.3245 601.902L43.1495 649.766C42.9799 650.153 42.6091 650.297 42.2226 650.128C41.8361 649.958 41.6915 649.588 41.8612 649.201Z" fill="#656565"/>
<path opacity="0.2936" d="M51.5886 426.912L81.8011 510.657C81.9457 511.028 81.7399 511.322 81.3691 511.467C80.9983 511.611 80.7045 511.406 80.5599 511.035L50.2547 427.326C50.1102 426.955 50.2798 426.569 50.6868 426.517C51.0575 426.372 51.444 426.541 51.5886 426.912Z" fill="#656565"/>
<path opacity="0.2073" d="M141.274 708.834L34.6305 687.886C34.2801 687.809 34.0429 687.475 34.1199 687.125C34.1968 686.774 34.5315 686.537 34.8818 686.614L141.432 707.598C141.783 707.674 142.02 708.009 141.943 708.359C141.959 708.673 141.624 708.91 141.274 708.834Z" fill="#656565"/>
<path opacity="0.259" d="M-32.2713 209.75L47.8598 161.093C48.1944 160.855 48.5809 161.025 48.8182 161.359C49.0554 161.694 48.8858 162.08 48.5511 162.317L-31.5234 210.846C-31.8581 211.083 -32.2446 210.914 -32.4457 210.672C-32.6468 210.43 -32.5133 209.951 -32.2713 209.75Z" fill="#656565"/>
<path opacity="0.3851" d="M46.8947 450.198L81.765 510.565C82.0022 510.9 81.8325 511.286 81.4618 511.431C81.091 511.575 80.7406 511.498 80.596 511.128L45.762 450.853C45.5247 450.519 45.6944 450.132 46.029 449.895C46.271 449.694 46.7502 449.827 46.8947 450.198Z" fill="#656565"/>
<path opacity="0.1844" d="M-29.5641 710.046L37.6821 611.658C37.8879 611.364 38.2948 611.312 38.5886 611.518C38.8824 611.724 38.9343 612.13 38.7285 612.424L-28.5177 710.812C-28.7235 711.106 -29.1304 711.158 -29.4242 710.952C-29.718 710.747 -29.7699 710.34 -29.5641 710.046Z" fill="#656565"/>
<path opacity="0.5" d="M127.287 702.549L141.618 707.526C141.968 707.602 142.149 708.066 142.036 708.323C141.959 708.673 141.588 708.818 141.237 708.741L126.907 703.765C126.557 703.688 126.376 703.224 126.453 702.874C126.566 702.617 126.937 702.472 127.287 702.549Z" fill="#656565"/>
<path opacity="0.1122" d="M101.423 662.257L42.3149 650.091C41.9645 650.014 41.7273 649.68 41.7681 649.237C41.8451 648.887 42.1797 648.65 42.6228 648.69L101.638 660.892C101.989 660.969 102.226 661.303 102.149 661.654C102.108 662.096 101.773 662.334 101.423 662.257Z" fill="#656565"/>
<path opacity="0.3916" d="M11.8991 193.48L16.971 106.003C17.048 105.653 17.3465 105.323 17.6969 105.4C18.0111 105.384 18.3411 105.682 18.3002 106.125L13.2283 193.602C13.244 193.916 12.8528 194.282 12.5024 194.205C12.1521 194.128 11.8221 193.83 11.8991 193.48Z" fill="#656565"/>
<path opacity="0.3534" d="M58.2 519.971L38.8418 612.166C38.7648 612.517 38.4302 612.754 38.0798 612.677C37.7295 612.6 37.4922 612.266 37.5692 611.916L56.9274 519.72C57.0043 519.37 57.339 519.133 57.6893 519.209C58.0397 519.286 58.277 519.621 58.2 519.971Z" fill="#656565"/>
<path opacity="0.087255" d="M154.127 739.043L34.5018 687.829C34.1153 687.66 33.9708 687.289 34.1404 686.903C34.3462 686.609 34.6809 686.372 34.9747 686.577L154.6 737.791C154.986 737.961 155.131 738.331 154.925 738.625C154.884 739.068 154.513 739.213 154.127 739.043Z" fill="#656565"/>
<path opacity="0.5" d="M93.6081 504.237L81.5546 511.394C81.22 511.631 80.8335 511.462 80.6889 511.091C80.4517 510.757 80.6213 510.37 80.8994 510.262L92.9529 503.105C93.2876 502.867 93.6741 503.037 93.9114 503.371C94.0198 503.649 93.8501 504.036 93.6081 504.237Z" fill="#656565"/>
<path opacity="0.4809" d="M38.8982 612.038L35.485 687.34C35.408 687.69 35.1095 688.02 34.7591 687.943C34.4449 687.959 34.1149 687.66 34.1558 687.218L37.569 611.916C37.646 611.566 37.9445 611.236 38.2949 611.313C38.6452 611.39 38.8463 611.631 38.8982 612.038Z" fill="#656565"/>
<path opacity="0.2513" d="M-11.5862 345.458L51.3876 426.671C51.6248 427.005 51.5479 427.355 51.2494 427.685C50.9147 427.923 50.5644 427.846 50.3271 427.511L-12.6467 346.299C-12.8839 345.965 -12.807 345.614 -12.4723 345.377C-12.1377 345.14 -11.7873 345.217 -11.5862 345.458Z" fill="#656565"/>
<path opacity="0.5" d="M127.581 702.754L154.893 737.998C155.13 738.332 155.053 738.682 154.719 738.919C154.477 739.121 154.034 739.08 153.833 738.838L126.428 703.631C126.191 703.297 126.268 702.946 126.566 702.617C126.937 702.472 127.38 702.513 127.581 702.754Z" fill="#656565"/>
<path opacity="0.5" d="M-29.2293 709.809L34.5676 686.63C34.9384 686.485 35.3248 686.654 35.4694 687.025C35.6139 687.396 35.4443 687.782 35.0735 687.927L-28.7233 711.106C-29.0941 711.251 -29.4806 711.081 -29.6252 710.711C-29.8059 710.247 -29.6001 709.954 -29.2293 709.809Z" fill="#656565"/>
<path opacity="0.1382" d="M126.556 703.688L37.7858 612.472C37.5847 612.23 37.5328 611.824 37.8313 611.494C38.0733 611.292 38.4802 611.24 38.8101 611.539L127.488 702.791C127.689 703.032 127.741 703.439 127.443 703.769C127.201 703.97 126.757 703.93 126.556 703.688Z" fill="#656565"/>
<path opacity="0.3943" d="M-1.81474 113.972L48.6533 161.21C48.9471 161.416 48.9424 161.951 48.7004 162.153C48.4946 162.446 48.0516 162.406 47.7578 162.2L-2.71026 114.962C-2.91137 114.72 -2.96323 114.314 -2.75742 114.02C-2.45891 113.69 -2.01585 113.731 -1.81474 113.972Z" fill="#656565"/>
<path opacity="0.3981" d="M56.9837 519.591L89.2851 436.756C89.4548 436.37 89.8256 436.225 90.2121 436.395C90.5986 436.564 90.7432 436.935 90.5735 437.321L58.272 520.156C58.1023 520.542 57.7315 520.687 57.345 520.518C56.9585 520.348 56.7778 519.885 56.9837 519.591Z" fill="#656565"/>
<path opacity="0.4075" d="M141.922 708.581L100.645 759.373C100.439 759.666 100.033 759.718 99.7026 759.42C99.4088 759.215 99.3569 758.808 99.6554 758.478L140.932 707.686C141.138 707.392 141.545 707.34 141.875 707.638C142.076 707.88 142.128 708.287 141.922 708.581Z" fill="#656565"/>
<path opacity="0.038385" d="M102.004 661.283L152.9 720.843C153.137 721.177 153.097 721.62 152.762 721.858C152.427 722.095 152.077 722.018 151.783 721.812L100.98 662.217C100.743 661.882 100.82 661.532 101.062 661.331C101.36 661.001 101.767 660.949 102.004 661.283Z" fill="#656565"/>
<path opacity="0.3658" d="M56.8707 519.849L50.1825 427.141C50.1307 426.734 50.4292 426.404 50.8722 426.445C51.1865 426.429 51.5164 426.727 51.5321 427.041L58.2203 519.75C58.2722 520.157 57.9737 520.486 57.6233 520.41C57.2525 520.554 56.9226 520.256 56.8707 519.849Z" fill="#656565"/>
<path opacity="0.3707" d="M126.943 703.857L34.6304 687.886C34.28 687.809 34.0427 687.475 34.1197 687.124C34.1967 686.774 34.5313 686.537 34.8817 686.614L127.158 702.492C127.509 702.569 127.746 702.903 127.669 703.253C127.628 703.696 127.293 703.933 126.943 703.857Z" fill="#656565"/>
<path opacity="0.4758" d="M18.2121 105.626L48.9108 161.323C49.0553 161.694 48.9784 162.044 48.6437 162.281C48.273 162.426 47.9226 162.349 47.6853 162.015L17.0794 106.281C16.8421 105.947 17.0118 105.561 17.3464 105.323C17.6245 105.215 18.011 105.384 18.2121 105.626Z" fill="#656565"/>
<path opacity="0.5" d="M56.9068 519.941L45.6536 450.575C45.6018 450.168 45.8076 449.874 46.2145 449.822C46.6214 449.77 46.9152 449.976 46.9671 450.382L58.2202 519.749C58.2721 520.156 58.0663 520.45 57.6593 520.502C57.3451 520.518 56.9225 520.255 56.9068 519.941Z" fill="#656565"/>
<path opacity="0.4766" d="M99.8978 758.277L154.249 737.715C154.62 737.571 154.95 737.869 155.058 738.147C155.167 738.425 154.997 738.811 154.719 738.92L100.46 759.445C100.09 759.59 99.703 759.42 99.5584 759.05C99.3573 758.808 99.527 758.422 99.8978 758.277Z" fill="#656565"/>
<path opacity="0.5" d="M51.0938 426.464L89.9907 436.374C90.3411 436.451 90.5783 436.786 90.5014 437.136C90.4244 437.486 90.0898 437.723 89.7033 437.554L50.8063 427.644C50.4559 427.567 50.2186 427.233 50.3883 426.846C50.558 426.46 50.7434 426.388 51.0938 426.464Z" fill="#656565"/>
<path opacity="0.5" d="M12.0321 193.001L47.6739 161.165C48.0086 160.928 48.3589 161.004 48.6528 161.21C48.89 161.544 48.9057 161.859 48.6072 162.188L12.8728 194.061C12.5381 194.298 12.1877 194.221 11.8939 194.015C11.7494 193.645 11.8263 193.295 12.0321 193.001Z" fill="#656565"/>
<path opacity="0.2352" d="M-49.3949 664.413L37.924 611.457C38.2587 611.22 38.6452 611.389 38.8824 611.724C39.1197 612.058 38.95 612.444 38.708 612.646L-48.5747 665.694C-48.9094 665.931 -49.2959 665.762 -49.5331 665.428C-49.8065 665 -49.7295 664.65 -49.3949 664.413Z" fill="#656565"/>
<path opacity="0.5" d="M46.1218 449.858L89.6765 436.39C90.0472 436.246 90.3772 436.544 90.4856 436.822C90.6302 437.192 90.4243 437.486 90.0536 437.631L46.4989 451.099C46.1281 451.244 45.7055 450.981 45.6898 450.667C45.5452 450.297 45.751 450.003 46.1218 449.858Z" fill="#656565"/>
<path opacity="0.020038" d="M141.016 708.721L42.0934 650.071C41.7996 649.866 41.6551 649.495 41.8247 649.109C42.0305 648.815 42.4013 648.67 42.7878 648.84L141.617 707.526C141.911 707.731 142.056 708.102 141.85 708.396C141.716 708.875 141.309 708.927 141.016 708.721Z" fill="#656565"/>
<path opacity="0.3841" d="M124.413 351.859L90.4448 437.265C90.2751 437.652 89.9044 437.796 89.5179 437.627C89.1675 437.55 88.9868 437.087 89.1926 436.793L123.161 351.386C123.331 351 123.701 350.855 124.088 351.025C124.382 351.23 124.619 351.565 124.413 351.859Z" fill="#656565"/>
<path opacity="0.064968" d="M-28.8223 709.757L100.341 758.318C100.727 758.487 100.872 758.858 100.702 759.244C100.496 759.538 100.254 759.739 99.868 759.57L-29.2952 711.009C-29.6455 710.932 -29.8263 710.469 -29.7131 710.211C-29.5435 709.825 -29.08 709.644 -28.8223 709.757Z" fill="#656565"/>
<path opacity="0.5" d="M57.246 519.169L92.9165 503.012C93.2873 502.868 93.6739 503.037 93.8184 503.408C93.963 503.778 93.7933 504.164 93.5152 504.273L57.8446 520.43C57.4739 520.574 57.0873 520.405 56.9789 520.127C56.8343 519.756 57.004 519.37 57.246 519.169Z" fill="#656565"/>
<path opacity="0.403" d="M161.732 383.732L90.2027 437.466C89.868 437.703 89.5177 437.627 89.2804 437.292C89.0432 436.958 89.1201 436.608 89.4548 436.37L160.948 382.544C161.282 382.306 161.633 382.383 161.87 382.717C162.143 383.145 162.102 383.587 161.732 383.732Z" fill="#656565"/>
<path opacity="0.5" d="M45.674 450.354L50.3317 426.976C50.4087 426.625 50.7433 426.388 51.0937 426.465C51.444 426.542 51.6813 426.876 51.6043 427.226L46.9466 450.605C46.8696 450.955 46.535 451.192 46.1846 451.115C45.8343 451.038 45.597 450.704 45.674 450.354Z" fill="#656565"/>
<path opacity="0.01" d="M-28.4249 710.776L-100.706 837.6C-100.911 837.893 -101.282 838.038 -101.669 837.869C-101.963 837.663 -102.107 837.292 -101.937 836.906L-29.564 710.046C-29.3582 709.753 -28.9874 709.608 -28.6936 709.814C-28.3998 710.019 -28.2552 710.39 -28.4249 710.776Z" fill="#656565"/>
<path opacity="0.5" d="M92.5412 503.693L89.1721 437.015C89.1202 436.608 89.4548 436.371 89.8618 436.319C90.176 436.303 90.506 436.601 90.5217 436.915L93.8908 503.593C93.9426 504 93.6441 504.33 93.2011 504.289C92.923 504.398 92.593 504.1 92.5412 503.693Z" fill="#656565"/>
<path opacity="0.3451" d="M99.6105 759.456L34.2441 687.717C34.043 687.475 33.9912 687.068 34.2897 686.738C34.6243 686.501 34.9386 686.485 35.2685 686.783L100.635 758.523C100.872 758.858 100.831 759.3 100.589 759.502C100.255 759.739 99.8116 759.698 99.6105 759.456Z" fill="#656565"/>
<path opacity="0.2981" d="M50.4087 426.626L123.274 351.129C123.48 350.835 123.923 350.876 124.217 351.082C124.511 351.287 124.47 351.73 124.264 352.024L51.3624 427.428C51.0639 427.758 50.7135 427.681 50.4197 427.475C50.162 427.362 50.2029 426.919 50.4087 426.626Z" fill="#656565"/>
<path opacity="0.5" d="M41.7842 649.551L37.6054 612.008C37.5535 611.602 37.852 611.272 38.1662 611.256C38.4804 611.24 38.9031 611.502 38.9188 611.816L43.1904 649.323C43.2422 649.73 42.9437 650.06 42.5368 650.112C42.166 650.256 41.8361 649.958 41.7842 649.551Z" fill="#656565"/>
<path opacity="0.2996" d="M38.6361 612.46L-26.9918 663.252C-27.3265 663.489 -27.7695 663.449 -28.0068 663.114C-28.244 662.78 -28.167 662.43 -27.8324 662.192L37.8316 611.493C38.1663 611.256 38.5166 611.333 38.7177 611.574C38.955 611.909 38.878 612.259 38.6361 612.46Z" fill="#656565"/>
<path opacity="0.3655" d="M-48.8952 664.325L34.9743 686.578C35.3247 686.654 35.5619 686.989 35.3923 687.375C35.3153 687.726 34.9806 687.963 34.5941 687.793L-49.2754 665.54C-49.6258 665.463 -49.8992 665.036 -49.7295 664.65C-49.5802 664.485 -49.2456 664.248 -48.8952 664.325Z" fill="#656565"/>
<path opacity="0.1026" d="M44.7714 460.632L81.6931 510.379C81.9304 510.714 81.8534 511.064 81.5187 511.301C81.1841 511.539 80.8337 511.462 80.5965 511.127L43.6747 461.381C43.4375 461.046 43.4783 460.603 43.8129 460.366C44.1837 460.221 44.5341 460.298 44.7714 460.632Z" fill="#656565"/>
<path opacity="0.1573" d="M45.7875 450.096L123.31 351.221C123.516 350.927 123.923 350.875 124.217 351.081C124.511 351.286 124.563 351.693 124.357 351.987L46.8339 450.862C46.6281 451.155 46.2212 451.207 45.9274 451.002C45.6335 450.796 45.5817 450.39 45.7875 450.096Z" fill="#656565"/>
<path opacity="0.366" d="M141.911 707.731L152.993 720.807C153.23 721.141 153.189 721.584 152.947 721.785C152.613 722.022 152.17 721.982 151.969 721.74L140.98 708.628C140.742 708.294 140.819 707.944 141.061 707.743C141.267 707.449 141.617 707.526 141.911 707.731Z" fill="#656565"/>
<path opacity="0.2774" d="M-29.4146 709.881L42.067 648.907C42.4017 648.67 42.8448 648.711 43.0459 648.952C43.2831 649.287 43.2423 649.73 43.0003 649.931L-28.5174 710.812C-28.8521 711.049 -29.2025 710.973 -29.4963 710.767C-29.7901 710.561 -29.7492 710.118 -29.4146 709.881Z" fill="#656565"/>
<path opacity="0.5" d="M127.648 703.475L100.702 759.244C100.532 759.631 100.126 759.683 99.7752 759.606C99.3887 759.436 99.3368 759.03 99.4138 758.679L126.36 702.91C126.53 702.524 126.937 702.472 127.287 702.549C127.674 702.718 127.854 703.182 127.648 703.475Z" fill="#656565"/>
<path opacity="0.4049" d="M51.5164 426.727L93.7825 503.315C94.0198 503.65 93.8501 504.036 93.5154 504.273C93.1808 504.511 92.7943 504.341 92.5571 504.007L50.291 427.418C50.0537 427.084 50.2234 426.698 50.5581 426.46C50.9288 426.316 51.3153 426.485 51.5164 426.727Z" fill="#656565"/>
<path opacity="0.5" d="M160.882 383.743L123.357 352.164C123.063 351.958 123.012 351.551 123.31 351.221C123.516 350.928 123.923 350.876 124.253 351.174L161.777 382.754C162.071 382.959 162.03 383.402 161.824 383.696C161.619 383.99 161.176 383.949 160.882 383.743Z" fill="#656565"/>
<path opacity="0.5" d="M46.8227 450.012L93.7464 503.222C93.9836 503.557 93.9428 503.999 93.7008 504.201C93.3662 504.438 92.9231 504.397 92.722 504.156L45.7983 450.945C45.5611 450.611 45.5454 450.297 45.8439 449.967C46.1785 449.73 46.6216 449.77 46.8227 450.012Z" fill="#656565"/>
<path opacity="0.065253" d="M58.2567 519.843L43.17 649.545C43.0931 649.895 42.7945 650.225 42.4442 650.148C42.0938 650.072 41.7639 649.773 41.8409 649.423L56.9275 519.721C57.0045 519.371 57.3391 519.133 57.6533 519.117C58.0037 519.194 58.2409 519.529 58.2567 519.843Z" fill="#656565"/>
<path opacity="0.5" d="M43.1135 649.673L35.4287 687.468C35.3517 687.818 35.0171 688.056 34.6667 687.979C34.3164 687.902 34.0791 687.568 34.1561 687.217L41.8409 649.423C41.9179 649.072 42.2525 648.835 42.6956 648.876C43.0098 648.86 43.1905 649.323 43.1135 649.673Z" fill="#656565"/>
<path opacity="0.4355" d="M-27.1475 662.032L34.9745 686.578C35.361 686.747 35.5056 687.118 35.3359 687.504C35.1662 687.891 34.7955 688.035 34.5016 687.83L-27.713 663.32C-28.0995 663.15 -28.2441 662.78 -28.0744 662.393C-27.8686 662.1 -27.4978 661.955 -27.1475 662.032Z" fill="#656565"/>
<path opacity="0.4094" d="M153.817 738.524L151.731 721.406C151.679 720.999 151.978 720.669 152.385 720.617C152.792 720.565 153.122 720.863 153.174 721.27L155.166 738.425C155.218 738.832 154.92 739.161 154.606 739.177C154.162 739.137 153.832 738.838 153.817 738.524Z" fill="#656565"/>
<path opacity="0.054862" d="M-1.86029 114.951L-58.591 160.35C-58.9257 160.588 -59.3687 160.547 -59.606 160.213C-59.8432 159.878 -59.8024 159.435 -59.4677 159.198L-2.7009 113.891C-2.36625 113.654 -2.01588 113.73 -1.81477 113.972C-1.48482 114.27 -1.52565 114.713 -1.86029 114.951Z" fill="#656565"/>
<path opacity="0.2576" d="M126.685 703.744L42.0935 650.071C41.7997 649.866 41.7478 649.459 41.9175 649.073C42.1233 648.779 42.5302 648.727 42.7879 648.84L127.287 702.549C127.581 702.754 127.633 703.161 127.427 703.455C127.386 703.898 126.979 703.95 126.685 703.744Z" fill="#656565"/>
<path opacity="0.1406" d="M142.035 708.323L129.745 763.605C129.668 763.955 129.24 764.229 128.89 764.152C128.54 764.075 128.266 763.648 128.343 763.298L140.727 707.98C140.804 707.629 141.138 707.392 141.489 707.469C141.875 707.638 142.112 707.973 142.035 708.323Z" fill="#656565"/>
<path opacity="0.1264" d="M152.17 721.982L34.5376 687.922C34.1872 687.846 34.0427 687.475 34.1196 687.125C34.1966 686.775 34.5674 686.63 34.9177 686.707L152.514 720.673C152.864 720.75 153.137 721.177 152.968 721.564C152.947 721.785 152.52 722.059 152.17 721.982Z" fill="#656565"/>
<path opacity="0.040467" d="M17.945 106.584L-58.5912 160.35C-58.9258 160.587 -59.3688 160.547 -59.6061 160.212C-59.8434 159.878 -59.8025 159.435 -59.4317 159.29L17.2333 105.581C17.5679 105.343 17.9183 105.42 18.1555 105.755C18.3205 105.904 18.2797 106.347 17.945 106.584Z" fill="#656565"/>
<path opacity="0.345" d="M56.9069 519.942L43.5661 461.103C43.5142 460.696 43.72 460.402 44.0908 460.258C44.4977 460.206 44.7915 460.411 44.9361 460.782L58.2769 519.621C58.3288 520.028 58.123 520.322 57.7522 520.466C57.3453 520.518 57.0515 520.313 56.9069 519.942Z" fill="#656565"/>
<path opacity="0.2347" d="M128.549 763.004L154.007 737.916C154.249 737.715 154.656 737.663 154.986 737.962C155.187 738.203 155.239 738.61 154.94 738.94L129.575 763.992C129.277 764.322 128.834 764.281 128.596 763.947C128.174 763.685 128.215 763.242 128.549 763.004Z" fill="#656565"/>
<path opacity="0.2309" d="M12.2446 194.092L-59.3123 160.418C-59.6988 160.249 -59.8434 159.878 -59.6737 159.492C-59.5041 159.105 -59.1333 158.961 -58.7468 159.13L12.7536 192.933C13.0474 193.139 13.192 193.509 12.9862 193.803C12.9092 194.153 12.5384 194.298 12.2446 194.092Z" fill="#656565"/>
<path opacity="0.1562" d="M99.5379 759.271L41.8925 649.829C41.7479 649.459 41.8249 649.109 42.1595 648.871C42.5303 648.727 42.8807 648.804 43.1179 649.138L100.763 758.58C101.001 758.914 100.831 759.301 100.496 759.538C100.162 759.775 99.6824 759.642 99.5379 759.271Z" fill="#656565"/>
<path opacity="0.5" d="M127.452 702.698L152.828 720.658C153.122 720.863 153.21 721.363 153.004 721.656C152.798 721.95 152.299 722.038 152.005 721.833L126.685 703.744C126.392 703.539 126.34 703.132 126.546 702.838C126.751 702.544 127.122 702.4 127.452 702.698Z" fill="#656565"/>
<path opacity="0.096312" d="M191.161 504.074L89.4815 437.534C89.1877 437.328 89.1358 436.921 89.3416 436.628C89.5474 436.334 89.9544 436.282 90.2482 436.488L191.985 502.899C192.278 503.104 192.366 503.604 192.161 503.898C191.955 504.191 191.455 504.279 191.161 504.074Z" fill="#656565"/>
<path opacity="0.3712" d="M43.9056 460.33L89.5479 436.334C89.9187 436.189 90.2691 436.266 90.4136 436.637C90.5582 437.007 90.4812 437.358 90.1104 437.502L44.4681 461.498C44.0973 461.643 43.7469 461.566 43.5097 461.232C43.4013 460.954 43.5709 460.567 43.9056 460.33Z" fill="#656565"/>
<path opacity="0.3808" d="M-49.2095 664.34L42.3449 648.799C42.7518 648.747 43.0818 649.045 43.0975 649.359C43.1493 649.766 42.9435 650.06 42.5366 650.112L-49.0177 665.653C-49.4247 665.705 -49.7546 665.407 -49.7703 665.093C-49.786 664.779 -49.5237 664.356 -49.2095 664.34Z" fill="#656565"/>
<path opacity="0.4435" d="M95.3177 406.224L90.5016 437.136C90.4246 437.486 90.09 437.724 89.7396 437.647C89.3893 437.57 89.152 437.236 89.229 436.885L93.9524 406.01C94.0294 405.659 94.364 405.422 94.8071 405.463C95.0647 405.576 95.302 405.91 95.3177 406.224Z" fill="#656565"/>
<path opacity="0.5" d="M51.6043 427.226L44.9516 461.096C44.8747 461.446 44.54 461.683 44.097 461.643C43.6539 461.602 43.5093 461.231 43.5502 460.788L50.2955 426.883C50.3725 426.532 50.7072 426.295 51.0575 426.372C51.444 426.541 51.6813 426.876 51.6043 427.226Z" fill="#656565"/>
<path opacity="0.5" d="M46.9469 450.604L44.8592 461.132C44.7823 461.482 44.4476 461.719 44.0046 461.679C43.6542 461.602 43.4169 461.268 43.4578 460.825L45.5455 450.297C45.6225 449.947 45.9571 449.71 46.3075 449.786C46.7867 449.92 47.0239 450.254 46.9469 450.604Z" fill="#656565"/>
<path opacity="0.072261" d="M128.539 764.076L34.2798 687.81C33.986 687.604 33.9342 687.197 34.2327 686.867C34.4385 686.574 34.8454 686.522 35.1392 686.727L129.399 762.993C129.693 763.199 129.781 763.698 129.482 764.028C129.333 764.193 128.833 764.281 128.539 764.076Z" fill="#656565"/>
<path opacity="0.5" d="M42.5726 650.204L-27.2341 663.453C-27.641 663.505 -27.9349 663.299 -27.9867 662.893C-28.0386 662.486 -27.8328 662.192 -27.462 662.048L42.3448 648.799C42.7517 648.747 43.0455 648.952 43.0974 649.359C43.2419 649.73 42.9434 650.06 42.5726 650.204Z" fill="#656565"/>
<path opacity="0.4697" d="M50.6869 426.517L94.3073 405.551C94.6781 405.407 95.0646 405.576 95.2657 405.818C95.4102 406.188 95.2405 406.575 94.9986 406.776L51.3421 427.649C50.9713 427.793 50.5848 427.624 50.4764 427.346C50.1465 427.048 50.3161 426.661 50.6869 426.517Z" fill="#656565"/>
<path opacity="0.5" d="M99.7483 758.442L152.014 720.762C152.349 720.524 152.792 720.565 153.029 720.899C153.266 721.234 153.226 721.677 152.891 721.914L100.625 759.595C100.29 759.832 99.9401 759.755 99.7028 759.421C99.3367 759.03 99.4137 758.679 99.7483 758.442Z" fill="#656565"/>
<path opacity="0.09903" d="M162.015 383.088L192.258 503.326C192.31 503.733 192.14 504.12 191.734 504.172C191.327 504.224 191.033 504.018 190.888 503.647L160.645 383.409C160.5 383.039 160.799 382.709 161.169 382.564C161.576 382.512 161.87 382.718 162.015 383.088Z" fill="#656565"/>
<path opacity="0.4174" d="M45.8439 449.967L94.1219 405.623C94.4566 405.386 94.8635 405.334 95.1007 405.669C95.338 406.003 95.3898 406.41 95.0552 406.647L46.7772 450.991C46.4425 451.228 46.1283 451.244 45.7983 450.946C45.5972 450.704 45.6381 450.261 45.8439 449.967Z" fill="#656565"/>
<path opacity="0.3632" d="M127.761 703.218L129.801 763.477C129.853 763.883 129.554 764.213 129.111 764.173C128.705 764.225 128.375 763.927 128.415 763.484L126.376 703.225C126.324 702.818 126.658 702.581 127.065 702.529C127.38 702.513 127.71 702.811 127.761 703.218Z" fill="#656565"/>
<path opacity="0.3639" d="M93.9724 405.789L123.217 351.258C123.423 350.964 123.794 350.819 124.18 350.989C124.474 351.194 124.619 351.565 124.449 351.951L95.2042 406.482C94.9984 406.776 94.6276 406.921 94.2411 406.751C93.9473 406.545 93.8027 406.175 93.9724 405.789Z" fill="#656565"/>
<path opacity="0.3194" d="M191.548 504.243L93.2373 504.382C92.8304 504.434 92.5932 504.099 92.5413 503.693C92.4894 503.286 92.8241 503.049 93.231 502.997L191.506 502.766C191.913 502.714 192.186 503.141 192.202 503.455C192.254 503.861 191.955 504.191 191.548 504.243Z" fill="#656565"/>
<path opacity="0.173" d="M48.2369 162.333L-58.9979 160.402C-59.4049 160.454 -59.6783 160.027 -59.694 159.713C-59.7459 159.307 -59.3185 159.033 -59.0043 159.017L48.2305 160.948C48.6375 160.896 48.8747 161.231 48.9266 161.637C48.8858 162.08 48.5872 162.41 48.2369 162.333Z" fill="#656565"/>
<path opacity="0.4515" d="M44.6988 460.447L93.7102 503.13C94.004 503.335 93.9632 503.778 93.7574 504.072C93.5516 504.366 93.0158 504.361 92.8147 504.12L43.8033 461.437C43.4733 461.139 43.5141 460.696 43.7561 460.495C43.998 460.294 44.405 460.242 44.6988 460.447Z" fill="#656565"/>
<path opacity="0.3368" d="M161.582 383.897L94.813 406.848C94.4422 406.993 94.0195 406.731 93.875 406.36C93.7304 405.99 93.9928 405.567 94.2709 405.458L160.948 382.543C161.318 382.399 161.705 382.568 161.849 382.939C162.123 383.366 161.953 383.752 161.582 383.897Z" fill="#656565"/>
<path opacity="0.2783" d="M95.2814 406.132L93.9271 503.686C93.979 504.093 93.5516 504.366 93.2374 504.382C92.9232 504.398 92.5932 504.099 92.5414 503.693L93.8957 406.139C93.8438 405.732 94.2712 405.459 94.5854 405.443C95.0284 405.483 95.2657 405.818 95.2814 406.132Z" fill="#656565"/>
<path opacity="0.01" d="M155.13 738.332L165.076 790.384C165.128 790.79 164.922 791.084 164.551 791.229C164.144 791.281 163.758 791.111 163.706 790.705L153.853 738.617C153.801 738.21 154.007 737.916 154.414 737.864C154.656 737.663 154.986 737.962 155.13 738.332Z" fill="#656565"/>
<path opacity="0.1456" d="M42.8244 648.932L152.736 720.694C153.029 720.899 153.117 721.399 152.912 721.692C152.706 721.986 152.299 722.038 151.912 721.869L42.0011 650.107C41.7073 649.902 41.6555 649.495 41.8252 649.109C42.1237 648.779 42.5306 648.727 42.8244 648.932Z" fill="#656565"/>
<path opacity="0.2297" d="M182.407 556.375L92.8507 504.212C92.5569 504.007 92.4124 503.636 92.582 503.25C92.7878 502.956 93.1587 502.811 93.5452 502.981L183.102 555.144C183.395 555.349 183.576 555.813 183.37 556.106C183.201 556.493 182.794 556.545 182.407 556.375Z" fill="#656565"/>
<path opacity="0.059581" d="M128.468 763.89L41.9289 649.922C41.6916 649.587 41.7325 649.145 42.0671 648.907C42.4018 648.67 42.7521 648.747 43.0821 649.045L129.621 763.013C129.858 763.347 129.817 763.79 129.483 764.028C129.148 764.265 128.705 764.224 128.468 763.89Z" fill="#656565"/>
<path opacity="0.01" d="M191.419 504.187L44.0973 461.643C43.7469 461.566 43.4736 461.139 43.6432 460.752C43.7202 460.402 44.1475 460.129 44.534 460.298L191.82 502.75C192.17 502.826 192.444 503.253 192.274 503.64C192.104 504.026 191.77 504.263 191.419 504.187Z" fill="#656565"/>
<path opacity="0.5" d="M128.4 763.169L151.773 720.963C151.978 720.669 152.349 720.524 152.736 720.694C153.029 720.899 153.174 721.27 153.004 721.656L129.632 763.863C129.462 764.249 129.055 764.301 128.669 764.132C128.375 763.926 128.194 763.463 128.4 763.169Z" fill="#656565"/>
<path opacity="0.1033" d="M191.033 504.018L94.1126 406.695C93.7826 406.396 93.8235 405.953 94.1581 405.716C94.4928 405.479 94.8997 405.427 95.1369 405.761L192.057 503.084C192.387 503.382 192.346 503.825 192.012 504.063C191.77 504.264 191.327 504.223 191.033 504.018Z" fill="#656565"/>
<path opacity="0.5" d="M95.148 406.611L44.7822 461.482C44.4837 461.812 44.0407 461.772 43.8396 461.53C43.5096 461.232 43.5504 460.789 43.7924 460.588L94.1581 405.716C94.4566 405.386 94.8997 405.427 95.1008 405.669C95.3019 405.91 95.3538 406.317 95.148 406.611Z" fill="#656565"/>
<path opacity="0.5" d="M192.274 503.64L183.519 555.941C183.443 556.292 183.108 556.529 182.665 556.488C182.314 556.411 182.077 556.077 182.118 555.634L190.872 503.333C190.949 502.982 191.284 502.745 191.727 502.786C192.077 502.863 192.315 503.197 192.274 503.64Z" fill="#656565"/>
<path opacity="0.4292" d="M153.138 721.177L165.112 790.476C165.164 790.883 164.865 791.213 164.495 791.357C164.088 791.409 163.758 791.111 163.613 790.74L151.675 721.534C151.623 721.127 151.829 720.834 152.236 720.782C152.663 720.508 152.993 720.806 153.138 721.177Z" fill="#656565"/>
<path opacity="0.3679" d="M191.892 502.935L271.66 548.349C272.047 548.519 272.135 549.018 271.929 549.312C271.723 549.606 271.26 549.786 270.966 549.581L191.198 504.166C190.904 503.961 190.76 503.59 190.929 503.204C191.192 502.781 191.598 502.729 191.892 502.935Z" fill="#656565"/>
<path opacity="0.4346" d="M182.751 555.067L271.274 548.18C271.681 548.128 272.011 548.426 272.062 548.833C272.114 549.239 271.816 549.569 271.409 549.621L182.887 556.509C182.48 556.561 182.15 556.262 182.098 555.856C182.046 555.449 182.344 555.119 182.751 555.067Z" fill="#656565"/>
<path opacity="0.2035" d="M152.005 721.832L109.654 690.748C109.324 690.45 109.272 690.043 109.478 689.749C109.777 689.419 110.183 689.367 110.477 689.573L152.828 720.657C153.122 720.863 153.21 721.362 153.004 721.656C152.706 721.986 152.299 722.038 152.005 721.832Z" fill="#656565"/>
<path opacity="0.2526" d="M-11.7203 78.4498L-58.3852 160.057C-58.591 160.35 -58.9618 160.495 -59.3483 160.326C-59.6421 160.12 -59.7866 159.749 -59.617 159.363L-13.081 77.6997C-12.9113 77.3133 -12.4117 77.2252 -12.0252 77.3946C-11.6952 77.6928 -11.5145 78.156 -11.7203 78.4498Z" fill="#656565"/>
<path opacity="0.2536" d="M128.359 763.612L109.344 690.228C109.2 689.858 109.462 689.435 109.869 689.383C110.276 689.331 110.662 689.501 110.714 689.907L129.6 763.235C129.652 763.641 129.482 764.028 129.075 764.08C128.833 764.281 128.411 764.019 128.359 763.612Z" fill="#656565"/>
<path opacity="0.5" d="M-30.0239 235.771L31.2297 275.066C31.5236 275.271 31.7043 275.735 31.4058 276.065C31.2 276.358 30.7365 276.539 30.4065 276.241L-30.8471 236.946C-31.1409 236.741 -31.3216 236.278 -31.0231 235.948C-30.7246 235.618 -30.4465 235.509 -30.0239 235.771Z" fill="#656565"/>
<path opacity="0.4849" d="M-48.9202 283.704L30.7142 274.84C31.1211 274.788 31.451 275.086 31.5029 275.493C31.5548 275.9 31.2563 276.23 30.8493 276.282L-48.785 285.145C-49.1919 285.197 -49.5219 284.899 -49.5738 284.492C-49.5895 284.178 -49.3271 283.756 -48.9202 283.704Z" fill="#656565"/>
<path opacity="0.1458" d="M22.1048 424.431L44.8638 460.596C45.1011 460.931 44.9314 461.317 44.5968 461.555C44.2621 461.792 43.8756 461.622 43.6745 461.381L20.8227 425.251C20.5855 424.917 20.719 424.438 21.0536 424.201C21.3883 423.963 21.8675 424.097 22.1048 424.431Z" fill="#656565"/>
<path opacity="0.052568" d="M21.2392 424.128L94.4002 405.515C94.8071 405.463 95.1936 405.632 95.2455 406.039C95.2973 406.446 95.1277 406.832 94.7207 406.884L21.5959 425.59C21.2251 425.735 20.8025 425.473 20.6579 425.102C20.5699 424.603 20.8323 424.18 21.2392 424.128Z" fill="#656565"/>
<path opacity="0.056812" d="M21.3741 425.57L-78.4563 413.599C-78.8067 413.522 -79.1366 413.224 -79.0958 412.781C-79.0188 412.431 -78.7203 412.101 -78.3699 412.178L21.5532 424.113C21.9962 424.153 22.2696 424.58 22.1927 424.93C22.1157 425.281 21.7245 425.647 21.3741 425.57Z" fill="#656565"/>
<path opacity="0.027431" d="M-11.6073 78.1923L-29.6781 236.384C-29.7189 236.827 -30.0536 237.064 -30.4966 237.024C-30.9397 236.983 -31.1769 236.649 -31.1361 236.206L-13.1014 77.9213C-13.0606 77.4784 -12.7259 77.2411 -12.2829 77.2817C-11.8964 77.4512 -11.5664 77.7494 -11.6073 78.1923Z" fill="#656565"/>
<path opacity="0.5" d="M-47.6348 280.427L30.7145 274.84C31.1214 274.788 31.4514 275.086 31.5032 275.493C31.5551 275.9 31.2566 276.229 30.8497 276.282L-47.4069 281.832C-47.8138 281.884 -48.1438 281.586 -48.1956 281.179C-48.2475 280.773 -47.949 280.443 -47.6348 280.427Z" fill="#656565"/>
<path opacity="0.207" d="M163.649 790.833L109.324 690.45C109.179 690.079 109.22 689.636 109.683 689.456C110.054 689.311 110.497 689.352 110.642 689.722L164.874 790.142C165.019 790.512 164.978 790.955 164.607 791.1C164.273 791.337 163.886 791.168 163.649 790.833Z" fill="#656565"/>
<path opacity="0.4941" d="M-46.0378 256.321L30.9359 274.86C31.2863 274.937 31.5596 275.364 31.4827 275.714C31.4057 276.065 30.9784 276.338 30.628 276.261L-46.3457 257.722C-46.6961 257.646 -46.9695 257.219 -46.8925 256.868C-46.8156 256.518 -46.4809 256.281 -46.0378 256.321Z" fill="#656565"/>
<path opacity="0.2148" d="M-48.5546 71.3641L55.4342 121.099C55.8208 121.269 55.9088 121.768 55.7391 122.154C55.5694 122.541 55.1059 122.722 54.7194 122.552L-49.2695 72.817C-49.656 72.6476 -49.8367 72.1844 -49.6309 71.8906C-49.4046 71.3754 -48.9411 71.1946 -48.5546 71.3641Z" fill="#656565"/>
<path opacity="0.061086" d="M55.7594 121.933L31.4825 275.714C31.4055 276.064 31.0143 276.43 30.6278 276.261C30.2774 276.184 29.9475 275.886 29.9883 275.443L54.2653 121.662C54.3061 121.219 54.7334 120.945 55.0838 121.022C55.563 121.155 55.8364 121.582 55.7594 121.933Z" fill="#656565"/>
<path opacity="0.1452" d="M21.4668 425.534L-102.243 429.283C-102.65 429.335 -103.016 428.944 -102.939 428.594C-102.991 428.187 -102.599 427.821 -102.249 427.898L21.4605 424.149C21.8674 424.097 22.2335 424.488 22.1927 424.931C22.2084 425.245 21.9099 425.574 21.4668 425.534Z" fill="#656565"/>
<path opacity="0.099979" d="M19.2133 313.803L-31.1048 236.833C-31.3421 236.499 -31.2085 236.02 -30.8739 235.782C-30.5392 235.545 -30.06 235.678 -29.8228 236.013L20.5881 312.946C20.8253 313.281 20.6918 313.76 20.3571 313.997C19.8937 314.178 19.4506 314.137 19.2133 313.803Z" fill="#656565"/>
<path opacity="0.3784" d="M-58.6317 167.091L-13.045 77.7923C-12.8753 77.4059 -12.3757 77.3178 -11.9892 77.4872C-11.6027 77.6566 -11.5147 78.156 -11.6843 78.5424L-57.2711 167.841C-57.4408 168.227 -57.9404 168.315 -58.3269 168.146C-58.7496 167.884 -58.8376 167.385 -58.6317 167.091Z" fill="#656565"/>
<path opacity="0.3542" d="M75.2741 789.337L109.421 689.878C109.591 689.492 109.925 689.255 110.405 689.388C110.791 689.557 110.936 689.928 110.859 690.278L76.8044 789.701C76.6347 790.087 76.3 790.325 75.8208 790.191C75.3778 790.151 75.1405 789.816 75.2741 789.337Z" fill="#656565"/>
<path opacity="0.4259" d="M-60.5575 416.224L21.5174 424.02C21.9605 424.061 22.1978 424.395 22.1569 424.838C22.1161 425.281 21.7814 425.518 21.3384 425.477L-60.7726 417.588C-61.2157 417.548 -61.453 417.213 -61.4121 416.77C-61.3713 416.328 -61.0005 416.183 -60.5575 416.224Z" fill="#656565"/>
<path opacity="0.4934" d="M-11.989 77.4874L55.4708 121.192C55.7646 121.398 55.9453 121.861 55.6468 122.191C55.441 122.485 54.9775 122.665 54.6475 122.367L-12.8122 78.6625C-13.106 78.4569 -13.2867 77.9936 -12.9882 77.6637C-12.7824 77.37 -12.2828 77.2818 -11.989 77.4874Z" fill="#656565"/>
<path opacity="0.2612" d="M-58.2407 166.724L54.8058 121.131C55.1766 120.986 55.6558 121.119 55.8003 121.49C55.9449 121.86 55.8114 122.34 55.4406 122.484L-57.6059 168.078C-57.9767 168.222 -58.3632 168.053 -58.6005 167.719C-58.8739 167.292 -58.7042 166.905 -58.2407 166.724Z" fill="#656565"/>
<path opacity="0.1899" d="M163.597 790.426L169.842 737.716C169.883 737.273 170.311 737 170.754 737.04C171.197 737.081 171.434 737.415 171.393 737.858L165.019 790.512C164.978 790.955 164.644 791.192 164.201 791.151C163.886 791.167 163.556 790.869 163.597 790.426Z" fill="#656565"/>
<path opacity="0.3271" d="M19.5072 314.009L-47.85 281.792C-48.2365 281.623 -48.4172 281.159 -48.2114 280.866C-48.0417 280.479 -47.5783 280.298 -47.2844 280.504L20.1655 312.685C20.552 312.854 20.7327 313.317 20.563 313.704C20.3934 314.09 19.9299 314.271 19.5072 314.009Z" fill="#656565"/>
<path opacity="0.4312" d="M19.146 313.082L30.0815 275.407C30.2512 275.021 30.5858 274.784 30.9723 274.953C31.3588 275.123 31.5961 275.457 31.4264 275.843L20.5271 313.611C20.3574 313.998 20.0228 314.235 19.5436 314.102C19.2498 313.896 19.0125 313.562 19.146 313.082Z" fill="#656565"/>
<path opacity="0.1371" d="M-61.2068 416.477L19.2587 312.825C19.5572 312.495 19.9642 312.443 20.3868 312.705C20.7168 313.003 20.7686 313.41 20.5063 313.833L-60.0882 417.428C-60.3867 417.758 -60.7936 417.81 -61.1235 417.512C-61.4173 417.306 -61.5053 416.807 -61.2068 416.477Z" fill="#656565"/>
<path opacity="0.342" d="M19.3784 313.952L-46.696 257.646C-47.0259 257.347 -46.9851 256.904 -46.7793 256.611C-46.5735 256.317 -46.0739 256.229 -45.7439 256.527L20.4232 312.798C20.7531 313.096 20.805 313.502 20.5065 313.832C20.208 314.162 19.6722 314.158 19.3784 313.952Z" fill="#656565"/>
<path opacity="0.2381" d="M-104.725 423.74L21.4606 424.149C21.9037 424.189 22.2336 424.488 22.1928 424.93C22.1519 425.373 21.8534 425.703 21.4104 425.663L-104.776 425.254C-105.219 425.213 -105.549 424.915 -105.508 424.472C-105.467 424.029 -105.168 423.699 -104.725 423.74Z" fill="#656565"/>
<path opacity="0.4096" d="M170.132 738.457L109.654 690.748C109.324 690.45 109.272 690.043 109.571 689.713C109.869 689.383 110.276 689.331 110.606 689.63L171.177 737.303C171.507 737.601 171.595 738.1 171.296 738.43C170.962 738.668 170.426 738.663 170.132 738.457Z" fill="#656565"/>
<path opacity="0.09038" d="M133.524 275.829L30.757 276.318C30.314 276.277 29.984 275.979 30.0249 275.536C29.973 275.13 30.4003 274.856 30.7146 274.84L133.445 274.259C133.888 274.299 134.218 274.598 134.177 275.041C134.265 275.54 133.967 275.87 133.524 275.829Z" fill="#656565"/>
<path opacity="0.3314" d="M20.6779 424.881L19.0686 313.433C19.1094 312.99 19.4079 312.66 19.851 312.701C20.294 312.741 20.624 313.039 20.5831 313.482L22.1925 424.93C22.2443 425.337 21.8531 425.703 21.4101 425.663C21.0597 425.586 20.6936 425.195 20.6779 424.881Z" fill="#656565"/>
<path opacity="0.283" d="M75.6654 788.971L170.254 737.129C170.589 736.891 171.068 737.025 171.341 737.452C171.579 737.786 171.445 738.265 171.018 738.539L76.3929 790.288C76.0221 790.433 75.5429 790.3 75.3983 789.929C75.1611 789.595 75.2946 789.116 75.6654 788.971Z" fill="#656565"/>
<path opacity="0.028443" d="M39.7749 613.19L110.606 689.629C110.936 689.928 110.895 690.37 110.596 690.7C110.262 690.938 109.855 690.99 109.525 690.691L38.6374 614.381C38.4002 614.047 38.4049 613.511 38.7395 613.274C39.0019 612.851 39.5376 612.856 39.7749 613.19Z" fill="#656565"/>
<path opacity="0.1481" d="M-73.0724 499.132L20.9609 424.237C21.2955 424 21.7386 424.04 21.9759 424.375C22.2131 424.709 22.1723 425.152 21.8738 425.482L-72.1234 500.469C-72.458 500.707 -72.9938 500.702 -73.231 500.368C-73.5044 499.941 -73.407 499.369 -73.0724 499.132Z" fill="#656565"/>
<path opacity="0.3952" d="M21.6458 424.076L79.9811 442.201C80.3676 442.37 80.641 442.797 80.4713 443.183C80.3017 443.57 79.8743 443.843 79.4878 443.674L21.1163 425.457C20.7298 425.287 20.4926 424.953 20.6261 424.474C20.8319 424.18 21.2954 423.999 21.6458 424.076Z" fill="#656565"/>
<path opacity="0.2858" d="M19.5937 312.587L133.259 274.331C133.63 274.186 134.146 274.412 134.197 274.819C134.342 275.189 134.116 275.704 133.709 275.756L20.0431 314.013C19.6723 314.158 19.2496 313.896 19.1051 313.525C18.9966 313.247 19.2229 312.732 19.5937 312.587Z" fill="#656565"/>
<path opacity="0.2031" d="M328.939 699.562L296.523 690.113C296.137 689.943 295.863 689.516 296.033 689.13C296.203 688.743 296.537 688.506 297.017 688.639L329.469 698.182C329.855 698.351 330.093 698.685 329.959 699.164C329.753 699.458 329.29 699.639 328.939 699.562Z" fill="#656565"/>
<path opacity="0.06555" d="M20.6241 313.039L80.6049 442.705C80.7495 443.075 80.6159 443.554 80.2813 443.791C79.9105 443.936 79.4313 443.803 79.1579 443.376L19.1771 313.711C19.0326 313.34 19.1661 312.861 19.5369 312.716C19.9643 312.443 20.3508 312.612 20.6241 313.039Z" fill="#656565"/>
<path opacity="0.1759" d="M297.023 690.025L170.889 738.482C170.518 738.627 170.003 738.401 169.858 738.03C169.713 737.66 169.94 737.145 170.31 737L296.408 688.45C296.779 688.305 297.294 688.531 297.475 688.994C297.563 689.494 297.394 689.88 297.023 690.025Z" fill="#656565"/>
<path opacity="0.07691" d="M-72.0936 499.176L39.775 613.19C40.105 613.488 40.1003 614.024 39.7656 614.261C39.4671 614.591 38.9314 614.587 38.6941 614.252L-73.1384 500.331C-73.4683 500.033 -73.4636 499.497 -73.129 499.26C-72.8305 498.93 -72.3308 498.842 -72.0936 499.176Z" fill="#656565"/>
<path opacity="0.2147" d="M-71.9647 499.233L9.54159 607.693C9.77884 608.027 9.77414 608.562 9.3468 608.836C9.01215 609.073 8.4764 609.069 8.20301 608.642L-73.3032 500.182C-73.5405 499.848 -73.5358 499.312 -73.1085 499.039C-72.7377 498.894 -72.2019 498.899 -71.9647 499.233Z" fill="#656565"/>
<path opacity="0.064182" d="M-72.8868 499.059L79.5745 442.253C79.9453 442.108 80.4606 442.334 80.6052 442.704C80.7498 443.075 80.5235 443.59 80.1528 443.735L-72.3086 500.541C-72.6793 500.686 -73.1947 500.46 -73.3392 500.089C-73.5199 499.626 -73.2576 499.204 -72.8868 499.059Z" fill="#656565"/>
<path opacity="0.5" d="M9.02617 607.467L39.3886 613.021C39.8316 613.061 40.105 613.488 40.0642 613.931C40.0233 614.374 39.596 614.647 39.1529 614.607L8.79052 609.053C8.34746 609.012 8.07409 608.585 8.11492 608.142C8.15576 607.699 8.58311 607.426 9.02617 607.467Z" fill="#656565"/>
<path opacity="0.2275" d="M39.1671 613L157.644 599.124C158.051 599.072 158.51 599.427 158.562 599.834C158.614 600.24 158.259 600.699 157.852 600.751L39.3384 614.534C38.9315 614.586 38.4727 614.232 38.5135 613.789C38.4617 613.382 38.7602 613.052 39.1671 613Z" fill="#656565"/>
<path opacity="0.093505" d="M8.80465 607.446L157.644 599.124C158.051 599.072 158.51 599.427 158.505 599.963C158.557 600.369 158.202 600.828 157.667 600.824L8.79056 609.053C8.38364 609.105 8.01754 608.714 7.96568 608.307C8.09921 607.828 8.39773 607.498 8.80465 607.446Z" fill="#656565"/>
<path opacity="0.2269" d="M297.512 689.087L338.208 822.432C338.389 822.895 338.127 823.318 337.663 823.499C337.2 823.679 336.777 823.417 336.596 822.954L295.992 689.573C295.848 689.202 296.074 688.687 296.574 688.599C296.944 688.454 297.331 688.623 297.512 689.087Z" fill="#656565"/>
<path opacity="0.159" d="M-52.8981 185.348L-33.4303 34.2963C-33.3894 33.8534 -32.9982 33.4873 -32.519 33.6206C-32.076 33.6613 -31.8026 34.0883 -31.8434 34.5312L-51.3112 185.583C-51.352 186.026 -51.7794 186.299 -52.2224 186.258C-52.6655 186.218 -52.9389 185.791 -52.8981 185.348Z" fill="#656565"/>
<path opacity="0.017448" d="M1.52692 354.432L-96.5764 453.116C-96.8749 453.446 -97.4107 453.442 -97.7406 453.144C-98.0706 452.845 -98.0659 452.31 -97.7673 451.98L0.207134 353.239C0.598335 352.873 1.13408 352.878 1.50016 353.269C1.83011 353.567 1.82542 354.102 1.52692 354.432Z" fill="#656565"/>
<path opacity="0.4518" d="M1.00689 354.742L-41.4466 360.629C-41.9462 360.717 -42.5339 360.306 -42.5292 359.77C-42.6172 359.271 -42.2621 358.812 -41.6698 358.688L0.727159 352.929C1.22678 352.841 1.68557 353.196 1.77357 353.695C1.86157 354.195 1.50651 354.653 1.00689 354.742Z" fill="#656565"/>
<path opacity="0.1903" d="M42.8921 323.032L-13.6401 335.265L64.9454 346.984L42.8921 323.032Z" fill="#656565"/>
<path opacity="0.1886" d="M66.8277 349.346L129.971 339.55L137.18 341.328L66.8277 349.346Z" fill="#656565"/>
<path opacity="0.2545" d="M102.095 627.84L101.521 661.686L60.6804 601.62L102.095 627.84Z" fill="#656565"/>
<path opacity="0.1821" d="M52.7255 352.072L66.8279 349.346L137.18 341.328L52.7255 352.072Z" fill="#656565"/>
<path opacity="0.1776" d="M141.335 708.17L102.095 627.839L101.521 661.686L141.335 708.17Z" fill="#656565"/>
<path opacity="0.1317" d="M102.095 627.84L60.6804 601.62L38.2339 611.977L102.095 627.84Z" fill="#656565"/>
<path opacity="0.062714" d="M-24.24 155.595L-2.2627 114.467L-31.9258 210.362L-24.24 155.595Z" fill="#656565"/>
<path opacity="0.1738" d="M-12.0702 345.86L52.7253 352.072L66.8277 349.346L-12.0702 345.86Z" fill="#656565"/>
<path opacity="0.101" d="M-24.2401 155.596L-31.9259 210.362L12.5634 193.541L-24.2401 155.596Z" fill="#656565"/>
<path opacity="0.1997" d="M57.5916 519.781L104.836 525.901L81.116 510.818L57.5916 519.781Z" fill="#656565"/>
<path opacity="0.251" d="M-24.2402 155.596L-2.26292 114.467L17.5991 105.972L-24.2402 155.596Z" fill="#656565"/>
<path opacity="0.2457" d="M-12.0704 345.86L52.7251 352.072L-7.87475 318.286L-12.0704 345.86Z" fill="#656565"/>
<path opacity="0.2457" d="M-12.0704 345.86L52.7251 352.072L-7.87475 318.286L-12.0704 345.86Z" fill="#656565"/>
<path opacity="0.2793" d="M127.005 703.193L141.335 708.169L154.409 738.4L127.005 703.193Z" fill="#656565"/>
<path opacity="0.2793" d="M127.005 703.193L141.335 708.169L154.409 738.4L127.005 703.193Z" fill="#656565"/>
<path opacity="0.2793" d="M127.005 703.193L141.335 708.169L154.409 738.4L127.005 703.193Z" fill="#656565"/>
<path opacity="0.1242" d="M-31.9256 210.362L12.5638 193.541L48.2056 161.705L-31.9256 210.362Z" fill="#656565"/>
<path opacity="0.2565" d="M57.592 519.781L93.1699 503.661L81.1164 510.818L57.592 519.781Z" fill="#656565"/>
<path opacity="0.2565" d="M57.592 519.781L93.1699 503.661L81.1164 510.818L57.592 519.781Z" fill="#656565"/>
<path opacity="0.2185" d="M-2.26284 114.467L17.5992 105.972L48.2052 161.705L-2.26284 114.467Z" fill="#656565"/>
<path opacity="0.138" d="M12.5634 193.541L17.5992 105.972L48.2052 161.705L12.5634 193.541Z" fill="#656565"/>
<path opacity="0.091609" d="M-49.0489 665.025L-29.0123 710.365L34.8206 687.278L-49.0489 665.025Z" fill="#656565"/>
<path opacity="0.2927" d="M46.375 450.507L50.9039 427.073L89.8008 436.983L46.375 450.507Z" fill="#656565"/>
<path opacity="0.2927" d="M46.375 450.507L50.9039 427.073L89.8008 436.983L46.375 450.507Z" fill="#656565"/>
<path opacity="0.2927" d="M46.375 450.507L50.9039 427.073L89.8008 436.983L46.375 450.507Z" fill="#656565"/>
<path opacity="0.1799" d="M42.5055 649.484L38.2339 611.977L34.8207 687.278L42.5055 649.484Z" fill="#656565"/>
<path opacity="0.042801" d="M-29.0129 710.365L42.5049 649.484L34.8201 687.278L-29.0129 710.365Z" fill="#656565"/>
<path opacity="0.2181" d="M46.3747 450.507L93.1696 503.661L89.8005 436.983L46.3747 450.507Z" fill="#656565"/>
<path opacity="0.038904" d="M100.058 758.961L154.409 738.399L152.417 721.245L100.058 758.961Z" fill="#656565"/>
<path opacity="0.2055" d="M127.005 703.192L100.058 758.961L152.417 721.245L127.005 703.192Z" fill="#656565"/>
<path opacity="0.01" d="M50.9035 427.072L44.2509 460.942L93.1696 503.661L50.9035 427.072Z" fill="#656565"/>
<path opacity="0.1589" d="M46.3749 450.507L44.2511 460.942L93.1698 503.661L46.3749 450.507Z" fill="#656565"/>
<path opacity="0.2348" d="M-49.0493 665.026L42.5051 649.484L-27.4305 662.676L-49.0493 665.026Z" fill="#656565"/>
<path opacity="0.1261" d="M127.004 703.193L100.058 758.962L129.044 763.452L127.004 703.193Z" fill="#656565"/>
<path opacity="0.1827" d="M127.005 703.192L129.044 763.451L152.417 721.245L127.005 703.192Z" fill="#656565"/>
<path opacity="0.12" d="M50.9036 427.073L94.5601 406.2L44.2509 460.942L50.9036 427.073Z" fill="#656565"/>
<path opacity="0.12" d="M50.9036 427.073L94.5601 406.2L44.2509 460.942L50.9036 427.073Z" fill="#656565"/>
<path opacity="0.1385" d="M46.3747 450.507L94.5601 406.2L44.2509 460.942L46.3747 450.507Z" fill="#656565"/>
<path opacity="0.2344" d="M129.044 763.451L152.417 721.245L164.391 790.544L129.044 763.451Z" fill="#656565"/>
<path opacity="0.1984" d="M-47.5672 281.148L-30.4354 236.359L30.7821 275.561L-47.5672 281.148Z" fill="#656565"/>
<path opacity="0.2079" d="M-48.8527 284.424L-46.1921 257.022L30.7817 275.561L-48.8527 284.424Z" fill="#656565"/>
<path opacity="0.036344" d="M-12.4007 78.0747L-48.9298 72.0443L55.0952 121.872L-12.4007 78.0747Z" fill="#656565"/>
<rect y="21" width="407" height="721" fill="url(#paint0_linear)"/>
</g>
<defs>
<linearGradient id="paint0_linear" x1="141.111" y1="21" x2="-14.447" y2="706.711" gradientUnits="userSpaceOnUse">
<stop stop-color="#090909" stop-opacity="0.4"/>
<stop offset="0.96875" stop-color="#090909"/>
</linearGradient>
<clipPath id="clip0">
<rect width="400" height="738" fill="white"/>
</clipPath>
</defs>
</svg>
