<svg width="460" height="1000" viewBox="0 0 460 1000" fill="none" xmlns="http://www.w3.org/2000/svg">
<g clip-path="url(#clip0)">
<path opacity="0.5" d="M384.432 282.41C385.137 283.23 386.372 283.323 387.191 282.619C388.01 281.915 388.102 280.68 387.397 279.861C386.693 279.041 385.457 278.948 384.639 279.652C383.82 280.356 383.727 281.591 384.432 282.41Z" fill="#616161"/>
<path opacity="0.5" d="M415.225 160.039C415.927 160.855 415.834 162.096 415.019 162.797C414.203 163.499 412.962 163.405 412.26 162.589C411.558 161.773 411.651 160.531 412.466 159.83C413.282 159.129 414.523 159.223 415.225 160.039Z" fill="#616161"/>
<path opacity="0.5" d="M319.38 364.81C320.12 365.67 321.417 365.768 322.277 365.029C323.137 364.29 323.234 362.993 322.494 362.132C321.754 361.272 320.457 361.174 319.597 361.913C318.737 362.653 318.64 363.95 319.38 364.81Z" fill="#616161"/>
<path opacity="0.5" d="M342.894 346.266C343.634 347.127 344.931 347.225 345.791 346.485C346.651 345.746 346.748 344.449 346.007 343.589C345.267 342.729 343.97 342.631 343.11 343.37C342.251 344.109 342.154 345.406 342.894 346.266Z" fill="#616161"/>
<path opacity="0.5" d="M370.137 458.738C370.902 459.628 370.81 460.869 369.92 461.634C369.03 462.399 367.789 462.305 367.023 461.415C366.257 460.525 366.424 459.22 367.24 458.519C367.991 457.743 369.371 457.848 370.137 458.738Z" fill="#616161"/>
<path opacity="0.5" d="M455.057 513.22C455.822 514.11 455.719 515.489 454.83 516.254C453.94 517.019 452.635 516.851 451.869 515.961C451.103 515.071 451.206 513.692 452.022 512.99C452.975 512.3 454.291 512.33 455.057 513.22Z" fill="#616161"/>
<path opacity="0.5" d="M464.427 266.403C465.193 267.293 465.09 268.672 464.2 269.437C463.31 270.202 461.931 270.098 461.165 269.208C460.399 268.318 460.502 266.938 461.392 266.173C462.345 265.483 463.661 265.513 464.427 266.403Z" fill="#616161"/>
<path opacity="0.5" d="M405.706 292.896C406.472 293.786 406.369 295.166 405.479 295.931C404.589 296.696 403.21 296.591 402.444 295.701C401.678 294.811 401.782 293.432 402.671 292.667C403.561 291.902 404.94 292.006 405.706 292.896Z" fill="#616161"/>
<path opacity="0.5" d="M298.506 297.969C299.272 298.859 299.168 300.239 298.279 301.004C297.389 301.769 296.01 301.664 295.244 300.774C294.478 299.884 294.581 298.505 295.471 297.74C296.36 296.975 297.74 297.079 298.506 297.969Z" fill="#616161"/>
<path opacity="0.5" d="M310.675 292.925C311.441 293.815 311.338 295.194 310.448 295.959C309.559 296.724 308.179 296.62 307.413 295.73C306.647 294.84 306.751 293.46 307.64 292.695C308.53 291.93 309.909 292.035 310.675 292.925Z" fill="#616161"/>
<path opacity="0.5" d="M460.673 297.121C461.439 298.011 461.4 299.464 460.436 300.293C459.547 301.058 458.093 301.017 457.263 300.053C456.498 299.163 456.537 297.71 457.501 296.881C458.464 296.052 459.908 296.231 460.673 297.121Z" fill="#616161"/>
<path opacity="0.5" d="M460.418 539.841C461.184 540.731 461.145 542.185 460.181 543.013C459.218 543.842 457.838 543.738 457.008 542.773C456.179 541.809 456.282 540.43 457.246 539.601C458.209 538.772 459.653 538.951 460.418 539.841Z" fill="#616161"/>
<path opacity="0.5" d="M292.847 534.109C293.677 535.073 293.573 536.453 292.61 537.281C291.646 538.11 290.267 538.006 289.437 537.041C288.607 536.077 288.71 534.698 289.674 533.869C290.564 533.104 292.017 533.145 292.847 534.109Z" fill="#616161"/>
<path opacity="0.5" d="M430.96 735.274C431.79 736.238 431.687 737.617 430.723 738.446C429.759 739.275 428.38 739.171 427.55 738.206C426.72 737.242 426.823 735.863 427.787 735.034C428.751 734.205 430.13 734.309 430.96 735.274Z" fill="#616161"/>
<path opacity="0.5" d="M339.732 381.121C340.562 382.085 340.459 383.464 339.495 384.293C338.531 385.122 337.152 385.018 336.322 384.053C335.493 383.089 335.596 381.71 336.56 380.881C337.523 380.052 338.903 380.156 339.732 381.121Z" fill="#616161"/>
<path opacity="0.5" d="M369.42 297.644C370.25 298.608 370.136 300.125 369.173 300.954C368.209 301.783 366.766 301.604 365.936 300.64C365.106 299.676 365.21 298.296 366.173 297.468C367.211 296.575 368.591 296.679 369.42 297.644Z" fill="#616161"/>
<path opacity="0.5" d="M378.203 747.862C379.033 748.826 378.919 750.343 377.956 751.172C376.992 752.001 375.475 751.886 374.645 750.922C373.815 749.958 373.929 748.44 374.892 747.612C375.93 746.719 377.374 746.898 378.203 747.862Z" fill="#616161"/>
<path opacity="0.5" d="M352.004 840.342C352.898 841.38 352.721 842.823 351.757 843.652C350.793 844.481 349.276 844.366 348.446 843.402C347.553 842.363 347.73 840.92 348.694 840.091C349.593 839.188 351.111 839.303 352.004 840.342Z" fill="#616161"/>
<path opacity="0.5" d="M381.374 677.637C382.268 678.675 382.154 680.192 381.116 681.085C380.079 681.977 378.561 681.863 377.668 680.824C376.774 679.786 376.888 678.268 377.926 677.376C378.889 676.547 380.481 676.598 381.374 677.637Z" fill="#616161"/>
<path opacity="0.5" d="M415.552 307.789C416.445 308.827 416.332 310.345 415.294 311.237C414.256 312.13 412.739 312.015 411.845 310.976C410.952 309.938 411.065 308.421 412.103 307.528C413.077 306.562 414.658 306.75 415.552 307.789Z" fill="#616161"/>
<path opacity="0.5" d="M370.897 397.556C371.79 398.594 371.677 400.111 370.639 401.004C369.601 401.896 368.084 401.782 367.19 400.743C366.297 399.705 366.41 398.187 367.448 397.295C368.486 396.402 370.003 396.517 370.897 397.556Z" fill="#616161"/>
<path opacity="0.5" d="M370.931 745.855C371.825 746.893 371.711 748.411 370.673 749.303C369.636 750.196 368.118 750.081 367.225 749.042C366.331 748.004 366.445 746.487 367.483 745.594C368.52 744.702 370.038 744.816 370.931 745.855Z" fill="#616161"/>
<path opacity="0.5" d="M418.961 393.907C419.855 394.946 419.741 396.463 418.704 397.355C417.666 398.248 416.148 398.133 415.255 397.095C414.361 396.056 414.475 394.539 415.513 393.647C416.551 392.754 418.068 392.869 418.961 393.907Z" fill="#616161"/>
<path opacity="0.5" d="M355.852 427.142C356.746 428.18 356.696 429.772 355.584 430.728C354.546 431.621 353.029 431.506 352.071 430.393C351.114 429.281 351.291 427.837 352.329 426.945C353.303 425.978 354.959 426.103 355.852 427.142Z" fill="#616161"/>
<path opacity="0.5" d="M405.316 180.305C406.21 181.343 406.096 182.86 404.984 183.817C403.947 184.709 402.429 184.594 401.536 183.556C400.642 182.517 400.756 181 401.794 180.108C402.906 179.151 404.423 179.266 405.316 180.305Z" fill="#616161"/>
<path opacity="0.5" d="M161.574 177.483C162.467 178.521 162.417 180.113 161.305 181.069C160.268 181.961 158.676 181.911 157.719 180.798C156.825 179.759 156.875 178.168 157.987 177.212C159.163 176.33 160.68 176.444 161.574 177.483Z" fill="#616161"/>
<path opacity="0.5" d="M443.185 305.578C444.079 306.617 444.029 308.208 442.917 309.164C441.879 310.057 440.288 310.006 439.33 308.893C438.437 307.855 438.486 306.263 439.598 305.307C440.636 304.414 442.228 304.465 443.185 305.578Z" fill="#616161"/>
<path opacity="0.5" d="M299.827 449.122C300.72 450.161 300.596 451.816 299.559 452.709C298.521 453.601 296.865 453.476 295.972 452.437C295.078 451.399 295.202 449.744 296.24 448.851C297.278 447.959 298.869 448.01 299.827 449.122Z" fill="#616161"/>
<path opacity="0.5" d="M274.523 469.334C275.417 470.372 275.293 472.028 274.255 472.92C273.217 473.813 271.562 473.687 270.668 472.649C269.775 471.61 269.899 469.955 270.937 469.063C271.974 468.17 273.63 468.295 274.523 469.334Z" fill="#616161"/>
<path opacity="0.5" d="M433.75 413.196C434.644 414.234 434.52 415.889 433.482 416.782C432.444 417.674 430.789 417.549 429.895 416.511C429.002 415.472 429.126 413.817 430.163 412.925C431.201 412.032 432.857 412.157 433.75 413.196Z" fill="#616161"/>
<path opacity="0.5" d="M238.773 808.27C239.666 809.308 239.543 810.963 238.505 811.856C237.467 812.748 235.812 812.623 234.918 811.585C234.025 810.546 234.148 808.891 235.186 807.999C236.16 807.032 237.816 807.157 238.773 808.27Z" fill="#616161"/>
<path opacity="0.5" d="M446.752 529.654C447.646 530.692 447.522 532.347 446.484 533.24C445.446 534.132 443.791 534.007 442.897 532.969C441.94 531.856 442.128 530.275 443.166 529.383C444.203 528.49 445.859 528.615 446.752 529.654Z" fill="#616161"/>
<path opacity="0.5" d="M459.48 324.217C460.373 325.256 460.249 326.911 459.211 327.803C458.174 328.696 456.518 328.571 455.625 327.532C454.668 326.419 454.855 324.839 455.893 323.946C456.931 323.054 458.586 323.179 459.48 324.217Z" fill="#616161"/>
<path opacity="0.5" d="M398.114 483.462C399.03 484.528 400.636 484.649 401.701 483.734C402.765 482.818 402.885 481.213 401.969 480.147C401.052 479.082 399.447 478.961 398.382 479.876C397.318 480.792 397.198 482.397 398.114 483.462Z" fill="#616161"/>
<path opacity="0.5" d="M314.568 451.416C315.526 452.529 315.338 454.11 314.226 455.066C313.114 456.022 311.459 455.897 310.565 454.859C309.608 453.746 309.732 452.091 310.844 451.135C311.956 450.179 313.611 450.304 314.568 451.416Z" fill="#616161"/>
<path opacity="0.5" d="M433.151 861.803C434.108 862.916 433.985 864.571 432.873 865.527C431.761 866.483 430.105 866.358 429.148 865.245C428.191 864.133 428.314 862.478 429.426 861.521C430.538 860.565 432.194 860.69 433.151 861.803Z" fill="#616161"/>
<path opacity="0.5" d="M432.461 157.736C433.418 158.848 433.294 160.504 432.182 161.46C431.07 162.416 429.415 162.291 428.458 161.178C427.5 160.066 427.624 158.41 428.736 157.454C429.848 156.498 431.503 156.623 432.461 157.736Z" fill="#616161"/>
<path opacity="0.5" d="M436.02 293.8C436.977 294.913 436.853 296.568 435.741 297.524C434.629 298.481 432.974 298.355 432.017 297.243C431.059 296.13 431.183 294.475 432.295 293.519C433.481 292.499 435.062 292.688 436.02 293.8Z" fill="#616161"/>
<path opacity="0.5" d="M312.311 512.208C313.269 513.321 313.145 514.976 312.033 515.932C310.921 516.888 309.266 516.763 308.308 515.65C307.351 514.538 307.475 512.883 308.587 511.926C309.699 510.97 311.354 511.095 312.311 512.208Z" fill="#616161"/>
<path opacity="0.5" d="M437.898 997.749C438.856 998.862 438.732 1000.52 437.62 1001.47C436.508 1002.43 434.853 1002.3 433.895 1001.19C432.938 1000.08 433.062 998.424 434.174 997.468C435.286 996.512 436.941 996.637 437.898 997.749Z" fill="#616161"/>
<path opacity="0.5" d="M451.144 673.133C452.101 674.246 451.977 675.901 450.865 676.857C449.754 677.814 448.098 677.688 447.141 676.576C446.184 675.463 446.307 673.808 447.419 672.852C448.531 671.895 450.187 672.021 451.144 673.133Z" fill="#616161"/>
<path opacity="0.5" d="M412.808 443.724C413.766 444.837 413.642 446.492 412.53 447.448C411.418 448.404 409.762 448.279 408.805 447.166C407.848 446.054 407.972 444.399 409.084 443.442C410.196 442.486 411.851 442.611 412.808 443.724Z" fill="#616161"/>
<path opacity="0.5" d="M392.264 992.081C393.216 993.187 394.883 993.313 395.989 992.362C397.094 991.412 397.219 989.744 396.267 988.638C395.316 987.532 393.648 987.406 392.543 988.357C391.437 989.307 391.312 990.974 392.264 992.081Z" fill="#616161"/>
<path opacity="0.5" d="M284.244 455.296C285.201 456.409 285.077 458.064 283.965 459.02C282.853 459.977 281.198 459.851 280.241 458.739C279.283 457.626 279.407 455.971 280.519 455.015C281.631 454.058 283.286 454.184 284.244 455.296Z" fill="#616161"/>
<path opacity="0.5" d="M350.79 248.103C351.747 249.216 351.687 250.945 350.501 251.965C349.389 252.921 347.659 252.86 346.638 251.673C345.681 250.56 345.741 248.831 346.927 247.811C348.039 246.855 349.832 246.99 350.79 248.103Z" fill="#616161"/>
<path opacity="0.5" d="M336.541 917.265C337.498 918.378 337.438 920.107 336.252 921.127C335.14 922.084 333.411 922.022 332.389 920.835C331.432 919.723 331.492 917.993 332.678 916.973C333.854 916.091 335.584 916.153 336.541 917.265Z" fill="#616161"/>
<path opacity="0.5" d="M188.138 612.539C189.125 613.686 190.854 613.817 192 612.831C193.147 611.845 193.276 610.116 192.289 608.969C191.302 607.822 189.573 607.691 188.427 608.677C187.28 609.663 187.151 611.392 188.138 612.539Z" fill="#616161"/>
<path opacity="0.5" d="M285.141 502.663C286.098 503.776 286.038 505.505 284.852 506.525C283.74 507.482 282.01 507.42 280.989 506.233C280.032 505.121 280.092 503.391 281.278 502.371C282.454 501.489 284.183 501.551 285.141 502.663Z" fill="#616161"/>
<path opacity="0.5" d="M334.26 297.551C335.217 298.664 335.157 300.393 333.971 301.413C332.859 302.369 331.129 302.308 330.108 301.121C329.151 300.008 329.211 298.279 330.397 297.259C331.583 296.239 333.302 296.438 334.26 297.551Z" fill="#616161"/>
<path opacity="0.5" d="M287.39 918.751C288.411 919.938 288.213 921.657 287.101 922.613C285.989 923.569 284.259 923.508 283.238 922.321C282.281 921.208 282.415 919.415 283.527 918.459C284.639 917.503 286.432 917.638 287.39 918.751Z" fill="#616161"/>
<path opacity="0.5" d="M435.359 857.323C436.38 858.51 436.256 860.165 435.07 861.185C433.958 862.142 432.165 862.006 431.208 860.893C430.25 859.781 430.384 857.988 431.496 857.031C432.608 856.075 434.402 856.211 435.359 857.323Z" fill="#616161"/>
<path opacity="0.5" d="M465.581 810.297C466.602 811.484 466.404 813.203 465.292 814.159C464.106 815.179 462.387 814.98 461.429 813.867C460.408 812.68 460.606 810.961 461.718 810.005C462.83 809.049 464.623 809.185 465.581 810.297Z" fill="#616161"/>
<path opacity="0.5" d="M260.559 250.714C261.58 251.901 261.382 253.619 260.27 254.576C259.084 255.596 257.365 255.396 256.408 254.284C255.387 253.097 255.585 251.378 256.697 250.422C257.883 249.402 259.538 249.527 260.559 250.714Z" fill="#616161"/>
<path opacity="0.5" d="M242.017 509.806C243.038 510.993 242.84 512.712 241.728 513.669C240.616 514.625 238.749 514.553 237.791 513.44C236.77 512.253 236.968 510.535 238.154 509.514C239.34 508.494 241.06 508.694 242.017 509.806Z" fill="#616161"/>
<path opacity="0.5" d="M335.515 447.728C336.536 448.915 336.402 450.708 335.216 451.728C334.03 452.748 332.236 452.613 331.215 451.426C330.194 450.239 330.328 448.446 331.514 447.426C332.7 446.406 334.494 446.541 335.515 447.728Z" fill="#616161"/>
<path opacity="0.5" d="M319.214 549.765C320.235 550.952 320.101 552.745 318.915 553.765C317.728 554.785 315.935 554.649 314.914 553.463C313.893 552.276 314.027 550.483 315.213 549.463C316.399 548.443 318.193 548.578 319.214 549.765Z" fill="#616161"/>
<path opacity="0.5" d="M427.378 871.284C428.399 872.471 428.265 874.264 427.005 875.348C425.819 876.368 424.026 876.232 423.005 875.046C421.983 873.859 422.118 872.066 423.304 871.046C424.564 869.962 426.357 870.097 427.378 871.284Z" fill="#616161"/>
<path opacity="0.5" d="M141.295 354.051C142.316 355.238 142.245 357.105 141.059 358.125C139.873 359.145 138.08 359.01 136.995 357.749C135.974 356.562 136.108 354.769 137.294 353.749C138.406 352.792 140.273 352.864 141.295 354.051Z" fill="#616161"/>
<path opacity="0.5" d="M260.989 461.098C262.074 462.359 261.865 464.216 260.679 465.236C259.419 466.32 257.562 466.11 256.541 464.923C255.456 463.662 255.664 461.805 256.85 460.785C258.11 459.701 259.904 459.837 260.989 461.098Z" fill="#616161"/>
<path opacity="0.5" d="M148.727 153.555C149.812 154.816 149.668 156.747 148.407 157.831C147.147 158.915 145.216 158.769 144.131 157.508C143.046 156.247 143.19 154.316 144.451 153.232C145.711 152.148 147.642 152.294 148.727 153.555Z" fill="#616161"/>
<path opacity="0.5" d="M432.447 413.929C433.532 415.19 433.387 417.121 432.127 418.205C430.867 419.289 428.936 419.143 427.851 417.882C426.766 416.621 426.91 414.69 428.17 413.606C429.431 412.522 431.362 412.668 432.447 413.929Z" fill="#616161"/>
<path opacity="0.5" d="M461.304 423.185C462.389 424.446 462.244 426.377 460.984 427.461C459.724 428.545 457.793 428.399 456.708 427.138C455.623 425.877 455.767 423.946 457.027 422.862C458.288 421.778 460.219 421.924 461.304 423.185Z" fill="#616161"/>
<path opacity="0.5" d="M173.955 360.682C175.04 361.943 174.959 363.948 173.625 365.096C172.364 366.179 170.359 366.097 169.21 364.762C168.125 363.501 168.206 361.496 169.54 360.348C170.939 359.275 172.87 359.421 173.955 360.682Z" fill="#616161"/>
<path opacity="0.5" d="M403.135 707.579C404.284 708.914 404.139 710.845 402.805 711.993C401.47 713.14 399.539 712.994 398.39 711.659C397.242 710.324 397.386 708.393 398.721 707.245C399.981 706.161 401.986 706.244 403.135 707.579Z" fill="#616161"/>
<path opacity="0.5" d="M77.1474 457.741C78.2961 459.077 78.1517 461.008 76.8174 462.155C75.483 463.303 73.5518 463.157 72.403 461.821C71.2543 460.486 71.3987 458.555 72.7331 457.408C74.0674 456.26 75.9987 456.406 77.1474 457.741Z" fill="#616161"/>
<path opacity="0.5" d="M402.656 994.114C403.804 995.449 403.586 997.444 402.325 998.528C400.991 999.675 398.986 999.593 397.837 998.258C396.688 996.922 396.843 994.853 398.177 993.706C399.512 992.558 401.507 992.779 402.656 994.114Z" fill="#616161"/>
<path opacity="0.5" d="M336.031 347.134C337.18 348.47 337.025 350.539 335.691 351.686C334.357 352.834 332.287 352.677 331.139 351.342C329.99 350.007 330.145 347.938 331.479 346.79C332.877 345.717 334.946 345.873 336.031 347.134Z" fill="#616161"/>
<path opacity="0.5" d="M400.958 899.942C402.171 901.351 402.016 903.42 400.607 904.631C399.199 905.842 397.13 905.686 395.917 904.277C394.705 902.867 394.859 900.798 396.268 899.587C397.676 898.376 399.746 898.532 400.958 899.942Z" fill="#616161"/>
<path opacity="0.5" d="M302.882 781.144C304.095 782.554 303.93 784.76 302.521 785.972C301.113 787.183 298.906 787.016 297.693 785.607C296.481 784.197 296.646 781.99 298.054 780.779C299.463 779.568 301.67 779.735 302.882 781.144Z" fill="#616161"/>
<path opacity="0.5" d="M323.396 719.236C324.609 720.645 324.444 722.852 323.035 724.063C321.627 725.275 319.419 725.108 318.207 723.698C316.994 722.289 317.159 720.082 318.568 718.871C320.051 717.596 322.12 717.752 323.396 719.236Z" fill="#616161"/>
<path opacity="0.5" d="M372.757 622.196C373.969 623.606 373.804 625.812 372.396 627.024C370.987 628.235 368.78 628.068 367.568 626.659C366.355 625.249 366.52 623.042 367.929 621.831C369.348 620.482 371.481 620.713 372.757 622.196Z" fill="#616161"/>
<path opacity="0.5" d="M344.131 344.556L320.618 363.099C320.395 363.291 320.301 363.63 320.556 363.927C320.747 364.149 321.087 364.244 321.309 364.053L344.823 345.51C345.046 345.319 345.14 344.979 344.949 344.757C344.768 344.396 344.428 344.301 344.131 344.556Z" fill="#656565"/>
<path opacity="0.1933" d="M494.278 259.575L504.333 352.368C504.376 352.718 504.642 352.877 504.918 352.898C505.268 352.855 505.427 352.589 505.447 352.313L495.392 259.52C495.349 259.17 495.083 259.011 494.807 258.99C494.532 258.97 494.299 259.299 494.278 259.575Z" fill="#656565"/>
<path opacity="0.085119" d="M403.755 293.928L344.131 344.557C343.909 344.748 343.878 345.162 344.069 345.384C344.261 345.607 344.6 345.702 344.897 345.447L404.521 294.818C404.744 294.627 404.838 294.287 404.583 293.99C404.328 293.694 403.978 293.736 403.755 293.928Z" fill="#656565"/>
<path opacity="0.1194" d="M462.361 268.05L504.461 352.516C504.578 352.803 504.918 352.898 505.204 352.781C505.49 352.664 505.585 352.324 505.468 352.038L463.368 267.572C463.251 267.285 462.911 267.19 462.625 267.307C462.264 267.488 462.17 267.828 462.361 268.05Z" fill="#656565"/>
<path opacity="0.099722" d="M453.806 514.166L368.823 459.609C368.557 459.45 368.207 459.493 368.048 459.759C367.89 460.024 367.933 460.374 368.199 460.533L453.182 515.089C453.448 515.248 453.798 515.205 453.957 514.94C454.051 514.6 453.934 514.314 453.806 514.166Z" fill="#656565"/>
<path opacity="0.1234" d="M494.669 258.98L403.904 293.8C403.617 293.917 403.523 294.257 403.576 294.469C403.694 294.755 403.959 294.914 404.245 294.797L495.011 259.977C495.297 259.859 495.392 259.52 495.275 259.234C495.221 259.021 494.956 258.863 494.669 258.98Z" fill="#656565"/>
<path opacity="0.1138" d="M453.882 515.004L528.534 441.514C528.756 441.323 528.713 440.973 528.521 440.75C528.33 440.528 527.98 440.571 527.758 440.762L453.106 514.252C452.884 514.443 452.927 514.793 453.118 515.015C453.31 515.238 453.66 515.195 453.882 515.004Z" fill="#656565"/>
<path opacity="0.4586" d="M462.625 267.307L403.904 293.8C403.617 293.917 403.523 294.256 403.64 294.543C403.757 294.829 404.097 294.924 404.383 294.807L463.104 268.314C463.391 268.197 463.485 267.857 463.368 267.571C463.177 267.349 462.911 267.19 462.625 267.307Z" fill="#656565"/>
<path opacity="0.01" d="M494.447 259.171L458.51 298.206C458.288 298.397 458.331 298.747 458.523 298.97C458.714 299.192 459.064 299.149 459.287 298.958L495.159 259.849C495.381 259.658 495.338 259.308 495.147 259.085C495.019 258.937 494.605 258.906 494.447 259.171Z" fill="#656565"/>
<path opacity="0.2171" d="M453.734 515.131L514.582 475.969C514.804 475.778 514.899 475.438 514.707 475.215C514.516 474.993 514.176 474.898 513.954 475.089L453.18 514.188C452.958 514.379 452.863 514.719 453.055 514.941C453.108 515.153 453.448 515.248 453.734 515.131Z" fill="#656565"/>
<path opacity="0.1992" d="M453.182 515.09L509.743 545.304C510.009 545.463 510.295 545.346 510.454 545.08C510.612 544.815 510.495 544.529 510.229 544.37L453.668 514.155C453.402 513.997 453.116 514.114 452.958 514.379C452.799 514.645 452.916 514.931 453.182 515.09Z" fill="#656565"/>
<path opacity="0.068931" d="M404.116 293.746L296.841 298.883C296.566 298.862 296.333 299.192 296.312 299.467C296.292 299.743 296.621 299.976 296.897 299.997L404.171 294.86C404.447 294.881 404.68 294.552 404.7 294.276C404.583 293.99 404.392 293.767 404.116 293.746Z" fill="#656565"/>
<path opacity="0.1485" d="M404.116 293.746L309.085 293.775C308.809 293.754 308.512 294.009 308.556 294.359C308.535 294.635 308.79 294.932 309.14 294.889L404.171 294.86C404.447 294.881 404.744 294.626 404.7 294.276C404.657 293.926 404.392 293.767 404.116 293.746Z" fill="#656565"/>
<path opacity="0.278" d="M459.275 541.211L453.988 514.526C453.87 514.24 453.679 514.017 453.329 514.06C453.043 514.177 452.82 514.368 452.863 514.718L458.151 541.403C458.268 541.69 458.534 541.849 458.81 541.869C459.16 541.827 459.393 541.497 459.275 541.211Z" fill="#656565"/>
<path opacity="0.3407" d="M462.244 267.764L458.352 298.471C458.332 298.747 458.587 299.044 458.863 299.064C459.139 299.085 459.499 298.904 459.456 298.554L463.284 267.773C463.304 267.497 463.123 267.137 462.773 267.18C462.561 267.233 462.339 267.424 462.244 267.764Z" fill="#656565"/>
<path opacity="0.2514" d="M404.033 294.85L458.927 299.139C459.202 299.159 459.499 298.904 459.52 298.629C459.54 298.353 459.285 298.056 459.009 298.035L404.116 293.747C403.84 293.726 403.543 293.981 403.523 294.257C403.502 294.532 403.757 294.829 404.033 294.85Z" fill="#656565"/>
<path opacity="0.5" d="M308.873 293.829L296.63 298.937C296.343 299.054 296.249 299.394 296.366 299.68C296.483 299.966 296.823 300.061 297.109 299.944L309.352 294.836C309.639 294.719 309.733 294.379 309.616 294.093C309.425 293.87 309.159 293.712 308.873 293.829Z" fill="#656565"/>
<path opacity="0.2782" d="M459.17 541.689L514.656 475.905C514.814 475.64 514.771 475.29 514.58 475.067C514.314 474.908 514.038 474.888 513.816 475.079L458.33 540.863C458.172 541.128 458.215 541.478 458.406 541.701C458.598 541.923 458.948 541.88 459.17 541.689Z" fill="#656565"/>
<path opacity="0.5" d="M458.671 541.859L509.945 545.389C510.221 545.41 510.518 545.155 510.538 544.879C510.559 544.603 510.304 544.306 510.028 544.285L458.754 540.756C458.478 540.735 458.182 540.99 458.161 541.266C458.14 541.542 458.396 541.839 458.671 541.859Z" fill="#656565"/>
<path opacity="0.1501" d="M459.244 541.625L523.785 458.632C523.944 458.367 523.901 458.017 523.709 457.794C523.444 457.635 523.094 457.678 522.935 457.944L458.394 540.936C458.235 541.202 458.278 541.552 458.47 541.774C458.597 541.923 458.947 541.88 459.244 541.625Z" fill="#656565"/>
<path opacity="0.2107" d="M551.997 275.243L458.797 298.089C458.511 298.206 458.352 298.471 458.395 298.821C458.513 299.108 458.778 299.266 459.054 299.287L552.254 276.441C552.54 276.324 552.699 276.059 552.655 275.709C552.612 275.359 552.283 275.126 551.997 275.243Z" fill="#656565"/>
<path opacity="0.01" d="M296.366 299.679L337.593 382.831C337.71 383.117 338.05 383.212 338.336 383.095C338.622 382.978 338.717 382.639 338.6 382.352L297.373 299.201C297.255 298.914 296.916 298.819 296.63 298.937C296.343 299.054 296.185 299.319 296.366 299.679Z" fill="#656565"/>
<path opacity="0.030221" d="M308.545 294.497L337.465 382.683C337.582 382.969 337.848 383.128 338.198 383.085C338.484 382.968 338.717 382.639 338.6 382.353L309.616 294.093C309.499 293.807 309.233 293.648 308.883 293.691C308.587 293.946 308.428 294.211 308.545 294.497Z" fill="#656565"/>
<path opacity="0.064248" d="M367.756 298.558L296.841 298.884C296.566 298.863 296.269 299.118 296.312 299.468C296.292 299.744 296.547 300.04 296.897 299.998L367.737 299.735C368.013 299.756 368.31 299.501 368.266 299.151C368.287 298.875 368.032 298.578 367.756 298.558Z" fill="#656565"/>
<path opacity="0.1551" d="M309.002 294.879L367.599 299.725C367.875 299.745 368.172 299.49 368.267 299.151C368.287 298.875 368.032 298.578 367.692 298.483L309.021 293.701C308.745 293.68 308.449 293.935 308.428 294.211C308.535 294.635 308.726 294.858 309.002 294.879Z" fill="#656565"/>
<path opacity="0.1494" d="M459.009 298.035L367.756 298.558C367.406 298.6 367.183 298.792 367.152 299.205C367.196 299.555 367.387 299.778 367.737 299.735L459.064 299.149C459.34 299.17 459.637 298.915 459.593 298.565C459.55 298.215 459.285 298.056 459.009 298.035Z" fill="#656565"/>
<path opacity="0.4126" d="M429.158 736.178L376.338 748.691C376.052 748.808 375.819 749.137 375.936 749.424C376.054 749.71 376.319 749.869 376.669 749.826L429.425 737.239C429.712 737.122 429.87 736.856 429.827 736.506C429.636 736.284 429.37 736.125 429.158 736.178Z" fill="#656565"/>
<path opacity="0.1084" d="M458.672 541.859L531.191 552.543C531.53 552.638 531.827 552.383 531.922 552.043C532.016 551.704 531.761 551.407 531.421 551.312L458.828 540.692C458.552 540.671 458.192 540.852 458.172 541.128C458.141 541.542 458.396 541.838 458.672 541.859Z" fill="#656565"/>
<path opacity="0.07125" d="M458.47 541.774L516.431 576.464C516.696 576.623 517.121 576.516 517.279 576.251C517.438 575.985 517.394 575.635 517.065 575.402L459.094 540.85C458.828 540.692 458.478 540.735 458.32 541C458.161 541.265 458.204 541.615 458.47 541.774Z" fill="#656565"/>
<path opacity="0.3052" d="M367.173 298.929L337.486 382.407C337.391 382.747 337.508 383.033 337.848 383.128C338.188 383.223 338.474 383.106 338.569 382.766L368.256 299.289C368.351 298.949 368.234 298.663 367.894 298.568C367.554 298.473 367.268 298.59 367.173 298.929Z" fill="#656565"/>
<path opacity="0.229" d="M350.767 842.051L377.04 749.507C377.134 749.167 376.953 748.807 376.677 748.786C376.338 748.691 375.977 748.872 375.957 749.148L349.684 841.691C349.589 842.031 349.77 842.391 350.11 842.486C350.386 842.507 350.672 842.39 350.767 842.051Z" fill="#656565"/>
<path opacity="0.1705" d="M378.895 679.252L375.872 749.349C375.852 749.625 376.107 749.922 376.447 750.017C376.723 750.038 377.019 749.783 377.114 749.443L380.2 679.42C380.157 679.07 379.901 678.774 379.551 678.817C379.148 678.647 378.925 678.839 378.895 679.252Z" fill="#656565"/>
<path opacity="0.1027" d="M376.614 748.712L369.268 746.769C368.928 746.674 368.631 746.929 368.537 747.269C368.442 747.608 368.697 747.905 369.037 748L376.393 749.805C376.733 749.9 377.029 749.645 377.124 749.305C377.071 749.093 376.953 748.807 376.614 748.712Z" fill="#656565"/>
<path opacity="0.088765" d="M350.841 841.987L369.757 747.639C369.852 747.299 369.597 747.002 369.257 746.907C368.917 746.812 368.621 747.067 368.526 747.407L349.673 841.829C349.579 842.169 349.834 842.466 350.174 842.561C350.386 842.507 350.746 842.326 350.841 841.987Z" fill="#656565"/>
<path opacity="0.443" d="M378.905 679.115L368.462 747.333C368.367 747.673 368.687 748.043 369.037 748.001C369.313 748.021 369.673 747.841 369.768 747.501L380.21 679.283C380.305 678.943 380.05 678.647 379.71 678.552C379.222 678.584 378.925 678.839 378.905 679.115Z" fill="#656565"/>
<path opacity="0.2474" d="M477.546 135.483L403.154 181.389C402.793 181.57 402.763 181.984 402.954 182.206C403.135 182.567 403.549 182.598 403.835 182.481L478.164 136.501C478.45 136.384 478.555 135.906 478.364 135.683C478.108 135.387 477.769 135.292 477.546 135.483Z" fill="#656565"/>
<path opacity="0.2749" d="M369.574 399.467L414.304 309.636C414.462 309.37 414.355 308.946 414.015 308.851C413.75 308.692 413.326 308.799 413.231 309.139L368.576 398.906C368.417 399.171 368.524 399.595 368.928 399.764C369.055 399.913 369.416 399.732 369.574 399.467Z" fill="#656565"/>
<path opacity="0.1786" d="M480.981 768.531L369.193 746.833C368.854 746.738 368.557 746.993 368.462 747.333C368.368 747.672 368.623 747.969 368.963 748.064L480.75 769.762C481.09 769.857 481.387 769.602 481.481 769.262C481.576 768.923 481.321 768.626 480.981 768.531Z" fill="#656565"/>
<path opacity="0.3739" d="M413.072 309.404L416.482 395.522C416.525 395.872 416.781 396.169 417.131 396.126C417.481 396.083 417.777 395.828 417.734 395.478L414.324 309.36C414.281 309.01 414.026 308.713 413.676 308.756C413.326 308.799 413.029 309.054 413.072 309.404Z" fill="#656565"/>
<path opacity="0.5" d="M369.066 399.775L417.13 396.127C417.48 396.084 417.713 395.755 417.734 395.479C417.691 395.129 417.361 394.896 417.085 394.875L369.021 398.524C368.671 398.567 368.438 398.896 368.481 399.246C368.46 399.522 368.716 399.818 369.066 399.775Z" fill="#656565"/>
<path opacity="0.1313" d="M481.471 769.401L522.925 661.221C523.019 660.881 522.838 660.521 522.573 660.362C522.233 660.267 521.873 660.448 521.714 660.713L480.26 768.893C480.165 769.233 480.346 769.593 480.612 769.752C480.952 769.847 481.376 769.74 481.471 769.401Z" fill="#656565"/>
<path opacity="0.086577" d="M414.26 309.286L404.088 181.876C404.045 181.526 403.716 181.293 403.44 181.272C403.09 181.315 402.857 181.644 402.837 181.92L413.082 309.266C413.126 309.616 413.455 309.849 413.731 309.87C414.071 309.965 414.303 309.636 414.26 309.286Z" fill="#656565"/>
<path opacity="0.5" d="M368.438 398.895L353.393 428.482C353.234 428.747 353.341 429.171 353.745 429.34C354.011 429.499 354.435 429.393 354.593 429.127L369.638 399.541C369.797 399.275 369.69 398.851 369.424 398.692C368.957 398.449 368.671 398.566 368.438 398.895Z" fill="#656565"/>
<path opacity="0.3959" d="M470.466 133.7L403.08 181.453C402.783 181.708 402.688 182.048 402.944 182.345C403.199 182.641 403.539 182.736 403.835 182.481L471.221 134.728C471.518 134.473 471.612 134.133 471.357 133.836C471.102 133.54 470.688 133.508 470.466 133.7Z" fill="#656565"/>
<path opacity="0.1025" d="M528.15 173.015L403.366 181.336C403.016 181.379 402.719 181.634 402.762 181.984C402.806 182.334 403.061 182.631 403.411 182.588L528.195 174.267C528.545 174.224 528.778 173.895 528.735 173.545C528.755 173.269 528.5 172.972 528.15 173.015Z" fill="#656565"/>
<path opacity="0.4887" d="M354.233 429.308L417.342 396.073C417.703 395.892 417.797 395.553 417.616 395.192C417.499 394.906 417.095 394.737 416.735 394.918L353.625 428.153C353.265 428.334 353.17 428.673 353.351 429.034C353.533 429.394 353.872 429.489 354.233 429.308Z" fill="#656565"/>
<path opacity="0.5" d="M413.721 310.008L441.28 307.861C441.63 307.818 441.863 307.489 441.883 307.213C441.84 306.863 441.511 306.63 441.235 306.609L413.676 308.756C413.326 308.799 413.093 309.129 413.072 309.404C413.115 309.754 413.371 310.051 413.721 310.008Z" fill="#656565"/>
<path opacity="0.1171" d="M369.5 399.53L441.715 307.616C441.947 307.287 441.904 306.937 441.575 306.704C441.309 306.545 440.895 306.514 440.663 306.843L368.512 398.831C368.279 399.161 368.322 399.511 368.652 399.744C368.917 399.902 369.267 399.859 369.5 399.53Z" fill="#656565"/>
<path opacity="0.3105" d="M417.649 395.68L441.799 307.414C441.894 307.075 441.712 306.714 441.373 306.619C441.033 306.524 440.673 306.705 440.578 307.044L416.428 395.31C416.334 395.649 416.515 396.01 416.854 396.105C417.194 396.2 417.554 396.019 417.649 395.68Z" fill="#656565"/>
<path opacity="0.3182" d="M298.208 451.288L369.352 399.658C369.649 399.403 369.743 399.063 369.488 398.766C369.233 398.47 368.893 398.374 368.597 398.629L297.389 450.186C297.092 450.441 296.997 450.781 297.253 451.077C297.572 451.448 297.985 451.48 298.208 451.288Z" fill="#656565"/>
<path opacity="0.047551" d="M298.133 451.352L417.342 396.073C417.628 395.956 417.797 395.552 417.616 395.192C417.499 394.906 417.095 394.736 416.809 394.853L297.6 450.133C297.24 450.314 297.145 450.653 297.326 451.014C297.369 451.364 297.773 451.533 298.133 451.352Z" fill="#656565"/>
<path opacity="0.040026" d="M402.816 182.196L440.547 307.458C440.665 307.745 440.994 307.978 441.418 307.871C441.704 307.754 441.937 307.425 441.894 307.075L404.089 181.876C403.971 181.589 403.642 181.357 403.292 181.399C402.942 181.442 402.773 181.846 402.816 182.196Z" fill="#656565"/>
<path opacity="0.090083" d="M412.998 309.468L431.122 414.938C431.166 415.289 431.495 415.521 431.845 415.479C432.195 415.436 432.428 415.106 432.385 414.756L414.196 309.211C414.153 308.861 413.824 308.628 413.474 308.671C413.188 308.788 412.955 309.118 412.998 309.468Z" fill="#656565"/>
<path opacity="0.092602" d="M368.66 398.704L272.213 470.546C271.916 470.801 271.885 471.215 272.077 471.437C272.332 471.734 272.746 471.765 272.968 471.574L369.416 399.732C369.712 399.477 369.743 399.063 369.552 398.841C369.296 398.544 368.883 398.513 368.66 398.704Z" fill="#656565"/>
<path opacity="0.4516" d="M480.459 821.894L481.556 769.199C481.512 768.848 481.257 768.552 480.907 768.595C480.557 768.638 480.261 768.892 480.304 769.243L479.133 822.002C479.176 822.352 479.431 822.649 479.781 822.606C480.068 822.489 480.364 822.234 480.459 821.894Z" fill="#656565"/>
<path opacity="0.3278" d="M368.854 399.829L431.633 415.533C431.973 415.628 432.333 415.447 432.364 415.033C432.459 414.694 432.278 414.333 431.938 414.238L369.084 398.598C368.745 398.503 368.384 398.684 368.353 399.097C368.333 399.373 368.514 399.734 368.854 399.829Z" fill="#656565"/>
<path opacity="0.5" d="M298.134 451.352L354.159 429.372C354.445 429.255 354.614 428.851 354.497 428.565C354.379 428.279 353.976 428.11 353.69 428.227L297.664 450.207C297.378 450.324 297.209 450.728 297.327 451.014C297.37 451.364 297.773 451.533 298.134 451.352Z" fill="#656565"/>
<path opacity="0.5" d="M416.589 395.947L431.304 415.299C431.559 415.596 431.973 415.627 432.195 415.436C432.492 415.181 432.523 414.767 432.331 414.545L417.542 395.256C417.287 394.959 416.947 394.864 416.651 395.119C416.439 395.172 416.334 395.65 416.589 395.947Z" fill="#656565"/>
<path opacity="0.3405" d="M457.805 325.27L413.888 308.703C413.548 308.608 413.188 308.789 413.029 309.054C412.934 309.394 413.115 309.754 413.381 309.913L457.224 326.543C457.564 326.639 457.924 326.458 458.083 326.192C458.252 325.789 458.07 325.428 457.805 325.27Z" fill="#656565"/>
<path opacity="0.3201" d="M353.69 428.227L272.361 470.418C272.001 470.599 271.906 470.939 272.087 471.299C272.268 471.66 272.608 471.755 272.968 471.574L354.371 429.319C354.731 429.138 354.826 428.798 354.645 428.438C354.316 428.205 353.912 428.036 353.69 428.227Z" fill="#656565"/>
<path opacity="0.1602" d="M414.155 309.764L468.242 239.505C468.474 239.176 468.431 238.826 468.102 238.593C467.772 238.36 467.422 238.402 467.19 238.732L413.177 308.927C412.945 309.256 412.988 309.606 413.317 309.839C413.583 309.998 413.997 310.029 414.155 309.764Z" fill="#656565"/>
<path opacity="0.2449" d="M456.946 325.621L416.503 395.246C416.344 395.512 416.451 395.936 416.717 396.095C416.982 396.254 417.406 396.147 417.565 395.882L458.072 326.33C458.305 326.001 458.124 325.64 457.794 325.407C457.603 325.185 457.179 325.291 456.946 325.621Z" fill="#656565"/>
<path opacity="0.155" d="M368.471 399.383L399.543 481.975C399.724 482.336 399.989 482.495 400.414 482.388C400.774 482.207 400.869 481.868 400.826 481.517L369.753 398.926C369.636 398.639 369.232 398.47 368.946 398.587C368.448 398.758 368.353 399.097 368.471 399.383Z" fill="#656565"/>
<path opacity="0.3185" d="M354.021 429.362L431.919 415.415C432.269 415.372 432.502 415.043 432.459 414.693C432.415 414.343 432.086 414.11 431.736 414.153L353.838 428.099C353.488 428.142 353.255 428.471 353.298 428.821C353.405 429.246 353.735 429.479 354.021 429.362Z" fill="#656565"/>
<path opacity="0.1177" d="M480.374 822.096L527.808 707.225C527.903 706.885 527.796 706.461 527.456 706.366C527.117 706.271 526.756 706.452 526.598 706.717L479.164 821.588C479.069 821.928 479.25 822.288 479.516 822.447C479.855 822.542 480.206 822.499 480.374 822.096Z" fill="#656565"/>
<path opacity="0.021593" d="M470.148 134.23L467.02 239.135C467.063 239.485 467.319 239.781 467.733 239.813C468.083 239.77 468.379 239.515 468.4 239.239L471.464 134.26C471.421 133.91 471.166 133.614 470.815 133.656C470.476 133.561 470.179 133.816 470.148 134.23Z" fill="#656565"/>
<path opacity="0.1997" d="M416.492 395.385L399.5 481.625C399.405 481.965 399.724 482.336 400 482.356C400.34 482.452 400.774 482.207 400.731 481.857L417.66 395.542C417.754 395.203 417.499 394.906 417.159 394.811C416.884 394.79 416.513 395.109 416.492 395.385Z" fill="#656565"/>
<path opacity="0.2219" d="M313.087 453.593L369.49 399.669C369.786 399.414 369.743 399.064 369.488 398.767C369.232 398.47 368.882 398.513 368.586 398.768L312.183 452.692C311.887 452.947 311.856 453.361 312.185 453.594C312.377 453.817 312.791 453.848 313.087 453.593Z" fill="#656565"/>
<path opacity="0.103" d="M480.334 768.829L430.554 863.132C430.321 863.461 430.502 863.822 430.832 864.055C431.161 864.288 431.521 864.107 431.754 863.778L481.397 769.464C481.555 769.198 481.448 768.774 481.183 768.615C480.917 768.457 480.493 768.563 480.334 768.829Z" fill="#656565"/>
<path opacity="0.3173" d="M353.479 429.181L399.66 482.261C399.915 482.558 400.329 482.589 400.626 482.334C400.922 482.079 400.879 481.729 400.698 481.368L354.443 428.353C354.188 428.056 353.838 428.099 353.541 428.354C353.245 428.609 353.224 428.885 353.479 429.181Z" fill="#656565"/>
<path opacity="0.4029" d="M508.925 564.592L445.078 530.706C444.749 530.473 444.388 530.653 444.156 530.983C443.923 531.312 444.104 531.672 444.433 531.905L508.355 565.728C508.621 565.886 509.045 565.78 509.277 565.451C509.372 565.111 509.255 564.825 508.925 564.592Z" fill="#656565"/>
<path opacity="0.1997" d="M403.007 182.419L467.265 239.57C467.595 239.803 467.945 239.76 468.241 239.505C468.474 239.176 468.431 238.826 468.176 238.529L403.918 181.378C403.588 181.145 403.238 181.188 403.016 181.379C402.773 181.846 402.816 182.196 403.007 182.419Z" fill="#656565"/>
<path opacity="0.2137" d="M432.512 414.905L441.883 307.213C441.914 306.799 441.659 306.502 441.309 306.545C440.959 306.588 440.673 306.705 440.642 307.119L431.207 414.737C431.176 415.151 431.431 415.447 431.781 415.405C432.121 415.5 432.417 415.245 432.512 414.905Z" fill="#656565"/>
<path opacity="0.2369" d="M470.466 133.699L430.086 158.874C429.726 159.055 429.695 159.469 429.876 159.829C430.057 160.19 430.471 160.221 430.831 160.04L471.147 134.791C471.508 134.61 471.539 134.197 471.347 133.974C471.166 133.614 470.762 133.444 470.466 133.699Z" fill="#656565"/>
<path opacity="0.2344" d="M433.719 294.875L413.325 308.799C413.029 309.054 412.934 309.394 413.189 309.69C413.445 309.987 413.72 310.008 414.081 309.827L434.475 295.903C434.771 295.648 434.866 295.308 434.685 294.948C434.419 294.789 433.942 294.684 433.719 294.875Z" fill="#656565"/>
<path opacity="0.4361" d="M312.949 453.582L354.233 429.308C354.593 429.127 354.624 428.713 354.507 428.427C354.326 428.067 353.912 428.035 353.689 428.227L312.406 452.501C312.046 452.681 312.015 453.095 312.132 453.381C312.175 453.732 312.653 453.837 312.949 453.582Z" fill="#656565"/>
<path opacity="0.046909" d="M525.528 905.613L431.477 862.855C431.137 862.76 430.713 862.866 430.618 863.206C430.523 863.546 430.63 863.97 430.97 864.065L525.095 906.759C525.435 906.854 525.795 906.674 525.954 906.408C525.974 906.132 525.793 905.772 525.528 905.613Z" fill="#656565"/>
<path opacity="0.5" d="M297.452 450.26L272.149 470.471C271.852 470.726 271.821 471.14 272.013 471.363C272.268 471.659 272.682 471.691 272.904 471.499L298.208 451.288C298.504 451.033 298.535 450.619 298.344 450.397C298.163 450.036 297.749 450.005 297.452 450.26Z" fill="#656565"/>
<path opacity="0.5" d="M458.07 325.428L441.713 306.714C441.457 306.417 441.107 306.46 440.811 306.715C440.514 306.97 440.483 307.384 440.739 307.681L457.096 326.395C457.352 326.692 457.766 326.723 458.062 326.468C458.295 326.139 458.326 325.725 458.07 325.428Z" fill="#656565"/>
<path opacity="0.2044" d="M477.32 148.713L403.154 181.39C402.867 181.507 402.698 181.91 402.88 182.27C402.997 182.557 403.4 182.726 403.687 182.609L477.917 150.006C478.277 149.826 478.372 149.486 478.328 149.136C478.083 148.701 477.68 148.532 477.32 148.713Z" fill="#656565"/>
<path opacity="0.3781" d="M430.012 158.938L403.006 181.517C402.709 181.772 402.678 182.186 402.87 182.409C403.125 182.705 403.539 182.737 403.761 182.545L430.831 160.04C431.128 159.785 431.159 159.372 430.904 159.075C430.722 158.714 430.309 158.683 430.012 158.938Z" fill="#656565"/>
<path opacity="0.4255" d="M467.105 238.933L440.578 307.045C440.483 307.384 440.665 307.745 440.93 307.904C441.27 307.999 441.63 307.818 441.789 307.552L468.316 239.441C468.411 239.101 468.229 238.741 467.964 238.582C467.56 238.413 467.274 238.53 467.105 238.933Z" fill="#656565"/>
<path opacity="0.1218" d="M310.841 514.246L354.455 429.117C354.614 428.852 354.507 428.427 354.177 428.194C353.912 428.036 353.488 428.142 353.255 428.471L309.577 513.527C309.408 513.93 309.589 514.29 309.929 514.386C310.258 514.618 310.682 514.512 310.841 514.246Z" fill="#656565"/>
<path opacity="0.013026" d="M368.524 399.596L410.287 445.891C410.542 446.188 410.956 446.219 411.253 445.964C411.549 445.709 411.58 445.295 411.325 444.999L369.488 398.767C369.232 398.47 368.882 398.513 368.586 398.768C368.363 398.959 368.332 399.373 368.524 399.596Z" fill="#656565"/>
<path opacity="0.01" d="M524.817 905.837L435.439 999.089C435.207 999.418 435.25 999.768 435.505 1000.06C435.834 1000.3 436.184 1000.25 436.407 1000.06L525.785 906.812C526.018 906.483 525.974 906.133 525.645 905.9C525.39 905.603 525.114 905.582 524.817 905.837Z" fill="#656565"/>
<path opacity="0.1068" d="M411.496 445.497L417.66 395.542C417.754 395.203 417.499 394.906 417.085 394.875C416.745 394.78 416.449 395.035 416.418 395.449L410.117 445.393C410.086 445.807 410.341 446.103 410.755 446.135C411.169 446.166 411.465 445.911 411.496 445.497Z" fill="#656565"/>
<path opacity="0.07131" d="M467.719 813.233L481.471 769.4C481.566 769.061 481.385 768.7 481.045 768.605C480.705 768.51 480.345 768.691 480.25 769.031L466.361 812.853C466.266 813.192 466.447 813.553 466.85 813.722C467.2 813.679 467.561 813.498 467.719 813.233Z" fill="#656565"/>
<path opacity="0.091637" d="M527.456 706.366L449.406 674.111C449.066 674.016 448.642 674.122 448.547 674.462C448.453 674.802 448.56 675.226 448.899 675.321L526.96 707.438C527.3 707.533 527.66 707.352 527.819 707.087C527.967 706.959 527.786 706.599 527.456 706.366Z" fill="#656565"/>
<path opacity="0.2936" d="M505.616 248.017L440.737 306.78C440.44 307.035 440.483 307.385 440.738 307.681C440.994 307.978 441.344 307.935 441.64 307.68L506.584 248.992C506.88 248.737 506.911 248.323 506.582 248.09C506.327 247.793 505.913 247.762 505.616 248.017Z" fill="#656565"/>
<path opacity="0.2073" d="M297.646 451.385L399.926 482.42C400.266 482.515 400.626 482.334 400.721 481.994C400.816 481.655 400.634 481.294 400.295 481.199L298.078 450.238C297.739 450.143 297.378 450.324 297.283 450.664C297.125 450.929 297.306 451.29 297.646 451.385Z" fill="#656565"/>
<path opacity="0.1867" d="M522.223 660.405L448.982 674.218C448.632 674.261 448.399 674.59 448.506 675.014C448.549 675.364 448.879 675.597 449.303 675.491L522.48 661.603C522.83 661.56 522.999 661.157 522.956 660.807C522.838 660.521 522.509 660.288 522.223 660.405Z" fill="#656565"/>
<path opacity="0.3851" d="M498.948 270.4L440.811 306.716C440.45 306.897 440.419 307.311 440.675 307.607C440.93 307.904 441.27 307.999 441.566 307.744L499.63 271.492C499.99 271.311 500.021 270.897 499.84 270.537C499.723 270.251 499.245 270.145 498.948 270.4Z" fill="#656565"/>
<path opacity="0.1844" d="M445.451 531.289L432.448 414.831C432.405 414.481 432.076 414.248 431.726 414.291C431.376 414.334 431.143 414.663 431.186 415.013L444.188 531.471C444.232 531.821 444.561 532.054 444.911 532.011C445.261 531.968 445.494 531.639 445.451 531.289Z" fill="#656565"/>
<path opacity="0.5" d="M312.692 452.384L297.95 450.09C297.611 449.995 297.24 450.314 297.219 450.59C297.125 450.929 297.38 451.226 297.72 451.321L312.461 453.615C312.801 453.71 313.172 453.391 313.266 453.051C313.287 452.776 313.032 452.479 312.692 452.384Z" fill="#656565"/>
<path opacity="0.1122" d="M353.745 429.341L410.691 446.06C411.031 446.155 411.391 445.974 411.56 445.571C411.655 445.231 411.474 444.871 411.07 444.702L354.188 428.056C353.848 427.961 353.488 428.142 353.393 428.482C353.224 428.885 353.405 429.246 353.745 429.341Z" fill="#656565"/>
<path opacity="0.3534" d="M456.936 325.759L431.207 414.737C431.112 415.077 431.293 415.437 431.633 415.532C431.973 415.627 432.333 415.446 432.428 415.107L458.157 326.128C458.251 325.789 458.07 325.428 457.73 325.333C457.391 325.238 457.03 325.419 456.936 325.759Z" fill="#656565"/>
<path opacity="0.087255" d="M272.544 471.68L400.064 482.43C400.478 482.462 400.774 482.207 400.805 481.793C400.762 481.443 400.581 481.082 400.231 481.125L272.711 470.375C272.297 470.344 272.001 470.599 272.044 470.949C271.875 471.352 272.13 471.649 272.544 471.68Z" fill="#656565"/>
<path opacity="0.5" d="M433.446 295.755L440.611 307.533C440.792 307.893 441.206 307.924 441.503 307.669C441.863 307.488 441.894 307.075 441.702 306.852L434.537 295.075C434.356 294.715 433.942 294.683 433.582 294.864C433.359 295.055 433.328 295.469 433.446 295.755Z" fill="#656565"/>
<path opacity="0.4809" d="M431.217 414.599L399.436 481.551C399.341 481.89 399.448 482.315 399.788 482.41C400.053 482.568 400.477 482.462 400.646 482.058L432.428 415.107C432.522 414.767 432.415 414.343 432.076 414.248C431.736 414.153 431.45 414.27 431.217 414.599Z" fill="#656565"/>
<path opacity="0.077034" d="M509.181 564.889L465.964 488.869C465.783 488.508 465.369 488.477 465.009 488.658C464.648 488.839 464.617 489.253 464.735 489.539L508.026 565.495C508.207 565.855 508.621 565.887 508.907 565.77C509.267 565.589 509.436 565.185 509.181 564.889Z" fill="#656565"/>
<path opacity="0.5" d="M312.342 452.426L272.361 470.418C272.001 470.599 271.906 470.939 272.087 471.299C272.204 471.585 272.608 471.755 272.894 471.637L312.939 453.72C313.299 453.539 313.394 453.199 313.287 452.775C313.032 452.478 312.628 452.309 312.342 452.426Z" fill="#656565"/>
<path opacity="0.5" d="M445.269 530.928L400.56 481.358C400.305 481.061 399.891 481.03 399.595 481.285C399.298 481.54 399.267 481.954 399.522 482.251L444.232 531.82C444.487 532.117 444.901 532.148 445.197 531.893C445.568 531.575 445.525 531.225 445.269 530.928Z" fill="#656565"/>
<path opacity="0.1382" d="M312.801 453.71L431.983 415.49C432.269 415.373 432.502 415.044 432.395 414.619C432.277 414.333 431.948 414.1 431.524 414.207L312.406 452.501C312.12 452.618 311.887 452.947 311.994 453.372C312.111 453.658 312.515 453.827 312.801 453.71Z" fill="#656565"/>
<path opacity="0.3981" d="M458.167 325.991L468.336 239.165C468.367 238.751 468.112 238.454 467.698 238.423C467.284 238.392 466.987 238.647 466.956 239.061L456.787 325.886C456.756 326.3 457.012 326.597 457.425 326.628C457.839 326.659 458.21 326.341 458.167 325.991Z" fill="#656565"/>
<path opacity="0.4075" d="M297.199 450.865L309.61 514.014C309.653 514.364 309.982 514.597 310.406 514.491C310.756 514.448 310.989 514.118 310.882 513.694L298.471 450.545C298.428 450.195 298.099 449.962 297.675 450.069C297.388 450.186 297.156 450.515 297.199 450.865Z" fill="#656565"/>
<path opacity="0.038385" d="M353.69 428.227L282.007 456.445C281.647 456.626 281.478 457.029 281.659 457.389C281.84 457.75 282.18 457.845 282.53 457.802L354.148 429.51C354.509 429.329 354.604 428.99 354.486 428.703C354.379 428.279 354.05 428.046 353.69 428.227Z" fill="#656565"/>
<path opacity="0.5" d="M479.386 821.397L430.84 863.015C430.544 863.27 430.513 863.684 430.768 863.981C431.024 864.278 431.374 864.235 431.734 864.054L480.28 822.436C480.576 822.181 480.607 821.767 480.352 821.47C480.022 821.237 479.609 821.206 479.386 821.397Z" fill="#656565"/>
<path opacity="0.3658" d="M458.146 326.267L506.732 248.865C506.965 248.536 506.858 248.111 506.454 247.942C506.189 247.783 505.764 247.89 505.606 248.155L457.02 325.558C456.787 325.887 456.894 326.311 457.234 326.406C457.489 326.703 457.913 326.596 458.146 326.267Z" fill="#656565"/>
<path opacity="0.3707" d="M312.387 453.678L399.926 482.42C400.266 482.515 400.626 482.334 400.721 481.995C400.815 481.655 400.634 481.295 400.295 481.2L312.83 452.394C312.491 452.299 312.13 452.48 312.036 452.819C311.867 453.223 312.048 453.583 312.387 453.678Z" fill="#656565"/>
<path opacity="0.5" d="M458.072 326.33L499.852 271.3C500.085 270.971 500.042 270.621 499.712 270.388C499.383 270.155 499.033 270.198 498.8 270.527L457.02 325.557C456.788 325.886 456.831 326.236 457.16 326.469C457.426 326.628 457.914 326.595 458.072 326.33Z" fill="#656565"/>
<path opacity="0.4766" d="M310.765 513.409L273.051 470.471C272.795 470.174 272.371 470.281 272.149 470.472C271.926 470.663 271.896 471.077 272.087 471.299L309.737 514.163C309.992 514.46 310.406 514.491 310.703 514.236C310.989 514.119 311.02 513.705 310.765 513.409Z" fill="#656565"/>
<path opacity="0.2352" d="M483.729 500.823L432.331 414.545C432.15 414.184 431.736 414.153 431.376 414.334C431.015 414.515 430.984 414.928 431.102 415.215L482.425 501.557C482.606 501.917 483.02 501.949 483.381 501.768C483.815 501.523 483.91 501.184 483.729 500.823Z" fill="#656565"/>
<path opacity="0.020038" d="M297.922 451.406L410.893 446.145C411.243 446.102 411.539 445.847 411.57 445.433C411.527 445.083 411.272 444.787 410.858 444.755L297.951 450.091C297.601 450.133 297.304 450.388 297.347 450.738C297.242 451.216 297.572 451.449 297.922 451.406Z" fill="#656565"/>
<path opacity="0.3841" d="M477.002 149.244L467.094 239.071C467.063 239.485 467.319 239.782 467.732 239.813C468.072 239.908 468.443 239.59 468.4 239.239L478.308 149.412C478.339 148.998 478.083 148.701 477.67 148.67C477.32 148.713 476.959 148.894 477.002 149.244Z" fill="#656565"/>
<path opacity="0.064968" d="M444.94 530.695L310.361 513.239C309.947 513.208 309.651 513.463 309.62 513.877C309.663 514.227 309.78 514.513 310.194 514.544L444.773 532C445.113 532.096 445.483 531.777 445.504 531.501C445.535 531.087 445.216 530.716 444.94 530.695Z" fill="#656565"/>
<path opacity="0.5" d="M458.134 325.502L434.611 295.011C434.356 294.715 433.942 294.683 433.645 294.938C433.349 295.193 433.318 295.607 433.509 295.83L457.033 326.321C457.288 326.617 457.702 326.649 457.924 326.457C458.221 326.202 458.252 325.789 458.134 325.502Z" fill="#656565"/>
<path opacity="0.403" d="M429.886 159.691L467.212 239.357C467.393 239.718 467.733 239.813 468.093 239.632C468.453 239.451 468.548 239.112 468.367 238.751L431.115 159.021C430.934 158.661 430.594 158.566 430.234 158.746C429.8 158.991 429.631 159.394 429.886 159.691Z" fill="#656565"/>
<path opacity="0.5" d="M482.774 500.613L444.378 530.792C444.082 531.047 444.051 531.461 444.242 531.683C444.498 531.98 444.911 532.011 445.134 531.82L483.529 501.641C483.826 501.386 483.857 500.972 483.602 500.675C483.474 500.527 483.06 500.495 482.774 500.613Z" fill="#656565"/>
<path opacity="0.01" d="M444.125 531.397L448.379 674.866C448.422 675.216 448.677 675.512 449.091 675.544C449.441 675.501 449.738 675.246 449.769 674.832L445.451 531.289C445.408 530.939 445.152 530.642 444.802 530.685C444.452 530.728 444.156 530.983 444.125 531.397Z" fill="#656565"/>
<path opacity="0.5" d="M434.623 295.776L468.315 239.441C468.548 239.112 468.367 238.752 468.037 238.519C467.772 238.36 467.348 238.467 467.189 238.732L433.497 295.067C433.264 295.396 433.371 295.82 433.774 295.989C433.966 296.212 434.39 296.105 434.623 295.776Z" fill="#656565"/>
<path opacity="0.3451" d="M310.47 514.565L400.34 482.451C400.626 482.334 400.859 482.005 400.752 481.581C400.57 481.22 400.305 481.061 399.881 481.168L310.011 513.282C309.651 513.463 309.482 513.866 309.599 514.152C309.78 514.513 310.184 514.682 310.47 514.565Z" fill="#656565"/>
<path opacity="0.2981" d="M506.773 248.313L478.329 149.136C478.285 148.786 477.882 148.617 477.532 148.66C477.182 148.703 477.013 149.106 477.056 149.456L505.575 248.569C505.682 248.993 506.022 249.088 506.372 249.046C506.648 249.066 506.816 248.663 506.773 248.313Z" fill="#656565"/>
<path opacity="0.5" d="M411.401 445.836L432.353 415.17C432.586 414.841 432.479 414.417 432.214 414.258C431.948 414.099 431.46 414.132 431.301 414.397L410.285 444.989C410.053 445.318 410.16 445.742 410.489 445.975C410.744 446.272 411.169 446.165 411.401 445.836Z" fill="#656565"/>
<path opacity="0.2996" d="M431.25 415.087L464.809 489.475C464.99 489.835 465.393 490.004 465.754 489.824C466.114 489.643 466.209 489.303 466.028 488.943L432.395 414.619C432.214 414.258 431.874 414.163 431.588 414.28C431.227 414.461 431.133 414.801 431.25 415.087Z" fill="#656565"/>
<path opacity="0.3655" d="M483.336 500.516L400.231 481.125C399.891 481.03 399.531 481.211 399.5 481.625C399.405 481.964 399.586 482.325 400 482.356L483.105 501.747C483.445 501.842 483.879 501.597 483.91 501.183C483.857 500.971 483.675 500.611 483.336 500.516Z" fill="#656565"/>
<path opacity="0.1026" d="M495.978 280.44L440.959 306.588C440.599 306.769 440.504 307.109 440.685 307.469C440.866 307.83 441.206 307.925 441.566 307.744L496.585 281.595C496.945 281.415 497.114 281.011 496.933 280.651C496.678 280.354 496.338 280.259 495.978 280.44Z" fill="#656565"/>
<path opacity="0.1573" d="M499.957 270.823L478.255 149.199C478.211 148.849 477.882 148.616 477.532 148.659C477.182 148.702 476.949 149.031 476.992 149.381L498.695 271.005C498.738 271.355 499.068 271.588 499.418 271.545C499.768 271.502 500 271.173 499.957 270.823Z" fill="#656565"/>
<path opacity="0.366" d="M297.6 450.133L281.943 456.37C281.583 456.551 281.414 456.955 281.531 457.241C281.713 457.601 282.116 457.771 282.402 457.654L297.996 451.342C298.356 451.161 298.451 450.822 298.333 450.535C298.29 450.185 297.951 450.09 297.6 450.133Z" fill="#656565"/>
<path opacity="0.2774" d="M445.397 531.077L411.453 445.147C411.272 444.786 410.868 444.617 410.582 444.734C410.222 444.915 410.053 445.318 410.17 445.605L444.188 531.471C444.37 531.831 444.709 531.926 445.059 531.883C445.409 531.841 445.578 531.437 445.397 531.077Z" fill="#656565"/>
<path opacity="0.5" d="M311.951 453.021L309.62 513.877C309.589 514.291 309.918 514.524 310.258 514.619C310.672 514.65 310.904 514.321 310.999 513.981L313.33 453.126C313.361 452.712 313.032 452.479 312.692 452.384C312.278 452.353 311.908 452.671 311.951 453.021Z" fill="#656565"/>
<path opacity="0.5" d="M445.355 531.629L465.986 489.495C466.219 489.166 465.974 488.731 465.708 488.573C465.305 488.403 464.944 488.584 464.786 488.85L444.219 531.057C444.06 531.323 444.167 531.747 444.497 531.98C444.837 532.075 445.261 531.968 445.355 531.629Z" fill="#656565"/>
<path opacity="0.4049" d="M505.765 247.89L433.719 294.875C433.359 295.056 433.328 295.47 433.509 295.83C433.69 296.191 434.104 296.222 434.464 296.041L506.51 249.056C506.87 248.875 506.901 248.461 506.72 248.101C506.465 247.804 506.051 247.773 505.765 247.89Z" fill="#656565"/>
<path opacity="0.5" d="M430.619 160.093L477.779 149.996C478.129 149.953 478.361 149.624 478.254 149.2C478.211 148.85 477.882 148.617 477.458 148.723L430.298 158.821C429.948 158.864 429.779 159.267 429.822 159.617C429.865 159.967 430.269 160.136 430.619 160.093Z" fill="#656565"/>
<path opacity="0.5" d="M499.096 270.272L433.793 294.811C433.433 294.992 433.264 295.395 433.381 295.681C433.563 296.042 433.966 296.211 434.252 296.094L499.555 271.555C499.916 271.375 500.074 271.109 499.967 270.685C499.786 270.324 499.383 270.155 499.096 270.272Z" fill="#656565"/>
<path opacity="0.065253" d="M456.946 325.621L410.201 445.191C410.106 445.531 410.213 445.955 410.553 446.05C410.893 446.145 411.317 446.038 411.412 445.699L458.156 326.129C458.251 325.789 458.07 325.429 457.805 325.27C457.465 325.175 457.104 325.356 456.946 325.621Z" fill="#656565"/>
<path opacity="0.5" d="M410.191 445.329L399.426 481.689C399.331 482.029 399.512 482.389 399.852 482.484C400.191 482.579 400.552 482.398 400.646 482.059L411.412 445.699C411.506 445.359 411.325 444.999 410.922 444.829C410.656 444.671 410.286 444.989 410.191 445.329Z" fill="#656565"/>
<path opacity="0.4355" d="M465.507 488.487L400.231 481.125C399.817 481.094 399.52 481.349 399.489 481.763C399.458 482.177 399.714 482.473 400.064 482.43L465.404 489.867C465.817 489.898 466.114 489.643 466.145 489.229C466.102 488.879 465.847 488.583 465.507 488.487Z" fill="#656565"/>
<path opacity="0.4094" d="M273.052 471.373L282.762 457.473C282.995 457.144 282.888 456.72 282.559 456.487C282.229 456.254 281.805 456.36 281.572 456.689L271.926 470.663C271.694 470.993 271.801 471.417 272.066 471.576C272.47 471.745 272.894 471.638 273.052 471.373Z" fill="#656565"/>
<path opacity="0.098858" d="M436.522 999.448L431.775 863.502C431.732 863.152 431.402 862.919 431.052 862.962C430.702 863.005 430.544 863.27 430.449 863.61L435.122 999.62C435.165 999.97 435.495 1000.2 435.909 1000.23C436.269 1000.05 436.565 999.798 436.522 999.448Z" fill="#656565"/>
<path opacity="0.2576" d="M312.663 453.699L410.893 446.145C411.243 446.102 411.475 445.773 411.506 445.359C411.463 445.009 411.134 444.776 410.858 444.755L312.692 452.384C312.342 452.427 312.109 452.756 312.153 453.106C311.984 453.509 312.313 453.742 312.663 453.699Z" fill="#656565"/>
<path opacity="0.1406" d="M297.219 450.59L282.385 504.258C282.29 504.598 282.535 505.032 282.875 505.127C283.215 505.222 283.649 504.978 283.744 504.638L298.514 450.896C298.609 450.556 298.428 450.195 298.088 450.1C297.674 450.069 297.314 450.25 297.219 450.59Z" fill="#656565"/>
<path opacity="0.1264" d="M282.116 457.771L399.99 482.495C400.329 482.59 400.626 482.335 400.721 481.995C400.815 481.655 400.56 481.359 400.221 481.264L282.421 456.476C282.081 456.381 281.647 456.626 281.616 457.039C281.531 457.241 281.776 457.676 282.116 457.771Z" fill="#656565"/>
<path opacity="0.4598" d="M466.519 812.587L430.692 863.143C430.459 863.472 430.566 863.896 430.832 864.055C431.161 864.288 431.511 864.245 431.744 863.916L467.635 813.434C467.867 813.105 467.76 812.681 467.431 812.448C467.102 812.215 466.677 812.322 466.519 812.587Z" fill="#656565"/>
<path opacity="0.345" d="M458.072 326.331L496.808 281.404C497.04 281.075 496.997 280.725 496.742 280.428C496.412 280.195 496.062 280.238 495.766 280.493L457.031 325.42C456.798 325.749 456.841 326.099 457.096 326.395C457.426 326.628 457.776 326.586 458.072 326.331Z" fill="#656565"/>
<path opacity="0.2347" d="M283.701 504.288L273.168 470.757C273.05 470.471 272.721 470.238 272.297 470.344C272.011 470.461 271.778 470.791 271.885 471.215L282.354 504.672C282.461 505.096 282.865 505.266 283.225 505.085C283.713 505.052 283.882 504.649 283.701 504.288Z" fill="#656565"/>
<path opacity="0.1447" d="M394.871 990.613L431.829 863.714C431.924 863.375 431.742 863.014 431.403 862.919C431.063 862.824 430.703 863.005 430.608 863.344L393.65 990.243C393.555 990.583 393.737 990.943 394.14 991.112C394.416 991.133 394.776 990.952 394.871 990.613Z" fill="#656565"/>
<path opacity="0.1562" d="M310.618 514.438L411.179 446.027C411.476 445.772 411.57 445.433 411.389 445.072C411.134 444.776 410.794 444.681 410.434 444.862L309.873 513.272C309.513 513.452 309.482 513.866 309.663 514.227C309.844 514.587 310.322 514.693 310.618 514.438Z" fill="#656565"/>
<path opacity="0.5" d="M312.48 452.437L282.155 456.317C281.805 456.36 281.499 456.753 281.542 457.103C281.585 457.453 281.978 457.76 282.328 457.717L312.663 453.699C313.013 453.657 313.246 453.327 313.203 452.977C313.16 452.627 312.904 452.331 312.48 452.437Z" fill="#656565"/>
<path opacity="0.096312" d="M348.8 250.588L467.807 239.749C468.157 239.706 468.39 239.377 468.347 239.027C468.303 238.677 467.974 238.444 467.624 238.487L348.627 249.187C348.277 249.23 347.97 249.623 348.014 249.973C348.057 250.323 348.45 250.63 348.8 250.588Z" fill="#656565"/>
<path opacity="0.3808" d="M483.601 500.675L411.261 444.924C410.932 444.691 410.508 444.798 410.349 445.063C410.117 445.392 410.16 445.742 410.489 445.975L482.829 501.726C483.158 501.959 483.582 501.852 483.741 501.587C483.899 501.321 483.867 500.834 483.601 500.675Z" fill="#656565"/>
<path opacity="0.4435" d="M477.186 209.873L467.105 238.933C467.01 239.273 467.191 239.633 467.531 239.728C467.871 239.823 468.231 239.642 468.326 239.303L478.47 210.317C478.565 209.977 478.384 209.617 477.98 209.447C477.704 209.427 477.344 209.607 477.186 209.873Z" fill="#656565"/>
<path opacity="0.5" d="M436.086 998.791L394.381 989.743C394.041 989.648 393.607 989.893 393.576 990.307C393.481 990.646 393.726 991.081 394.14 991.112L435.845 1000.16C436.184 1000.26 436.619 1000.01 436.65 999.597C436.607 999.247 436.425 998.886 436.086 998.791Z" fill="#656565"/>
<path opacity="0.072261" d="M283.215 505.223L400.266 482.515C400.616 482.472 400.848 482.143 400.741 481.719C400.698 481.369 400.369 481.136 400.019 481.179L282.968 503.886C282.618 503.929 282.311 504.322 282.418 504.746C282.472 504.958 282.865 505.266 283.215 505.223Z" fill="#656565"/>
<path opacity="0.07489" d="M467.676 812.882L449.705 674.757C449.661 674.407 449.332 674.174 448.918 674.143C448.504 674.112 448.335 674.515 448.304 674.929L466.276 813.054C466.319 813.404 466.712 813.711 467.062 813.668C467.55 813.636 467.783 813.307 467.676 812.882Z" fill="#656565"/>
<path opacity="0.1827" d="M433.655 859.691L480.142 822.425C480.438 822.17 480.469 821.756 480.278 821.534C480.022 821.237 479.609 821.206 479.386 821.397L432.836 858.589C432.54 858.844 432.509 859.258 432.764 859.554C433.019 859.851 433.433 859.882 433.655 859.691Z" fill="#656565"/>
<path opacity="0.5" d="M410.415 446.039L464.926 489.761C465.255 489.994 465.605 489.951 465.838 489.622C466.071 489.293 466.028 488.943 465.772 488.646L411.262 444.924C410.932 444.691 410.582 444.734 410.349 445.063C410.053 445.318 410.16 445.743 410.415 446.039Z" fill="#656565"/>
<path opacity="0.227" d="M334.838 919.633L431.596 864.043C431.957 863.863 431.987 863.449 431.87 863.162C431.689 862.802 431.275 862.771 430.989 862.888L334.093 918.467C333.732 918.648 333.627 919.125 333.883 919.422C334.064 919.782 334.478 919.814 334.838 919.633Z" fill="#656565"/>
<path opacity="0.5" d="M310.818 513.62L282.814 456.783C282.633 456.422 282.229 456.253 281.869 456.434C281.509 456.615 281.34 457.018 281.521 457.379L309.525 514.216C309.706 514.577 310.046 514.672 310.406 514.491C310.904 514.321 310.999 513.981 310.818 513.62Z" fill="#656565"/>
<path opacity="0.09903" d="M429.938 159.002L348.193 249.433C347.96 249.762 347.929 250.176 348.258 250.409C348.588 250.642 348.938 250.599 349.234 250.344L430.979 159.913C431.276 159.658 431.169 159.234 430.914 158.937C430.584 158.704 430.234 158.747 429.938 159.002Z" fill="#656565"/>
<path opacity="0.4174" d="M499.967 270.685L478.501 209.903C478.32 209.543 477.991 209.31 477.63 209.491C477.27 209.672 477.037 210.001 477.218 210.361L498.685 271.143C498.866 271.504 499.131 271.662 499.555 271.556C499.842 271.439 500.01 271.035 499.967 270.685Z" fill="#656565"/>
<path opacity="0.3632" d="M311.971 452.745L282.395 504.12C282.163 504.45 282.27 504.874 282.673 505.043C283.003 505.276 283.427 505.169 283.596 504.766L313.172 453.391C313.404 453.062 313.223 452.701 312.894 452.468C312.628 452.31 312.204 452.416 311.971 452.745Z" fill="#656565"/>
<path opacity="0.3639" d="M478.554 210.115L478.318 149.274C478.275 148.924 478.02 148.627 477.606 148.596C477.256 148.639 476.959 148.894 476.928 149.308L477.165 210.149C477.208 210.499 477.463 210.796 477.877 210.827C478.227 210.784 478.524 210.529 478.554 210.115Z" fill="#656565"/>
<path opacity="0.3194" d="M348.386 250.557L433.701 296.053C434.03 296.286 434.39 296.105 434.623 295.776C434.856 295.446 434.675 295.086 434.345 294.853L349.105 249.293C348.775 249.06 348.341 249.305 348.182 249.57C347.95 249.899 348.057 250.324 348.386 250.557Z" fill="#656565"/>
<path opacity="0.4515" d="M496.126 280.313L433.868 294.748C433.518 294.791 433.349 295.194 433.392 295.544C433.435 295.894 433.902 296.137 434.189 296.02L496.447 281.585C496.871 281.479 497.04 281.075 496.923 280.789C496.806 280.503 496.476 280.27 496.126 280.313Z" fill="#656565"/>
<path opacity="0.3368" d="M429.94 159.904L477.336 210.648C477.591 210.944 478.079 210.912 478.375 210.657C478.672 210.402 478.639 209.914 478.448 209.691L431.115 159.022C430.86 158.725 430.446 158.694 430.15 158.949C429.715 159.193 429.684 159.607 429.94 159.904Z" fill="#656565"/>
<path opacity="0.2783" d="M477.26 209.81L433.423 295.13C433.19 295.459 433.435 295.894 433.7 296.053C433.966 296.212 434.39 296.105 434.623 295.776L478.46 210.455C478.693 210.126 478.448 209.691 478.182 209.532C477.778 209.363 477.418 209.544 477.26 209.81Z" fill="#656565"/>
<path opacity="0.01" d="M272.001 470.599L239.346 511.2C239.113 511.529 239.156 511.879 239.412 512.176C239.741 512.408 240.155 512.44 240.388 512.111L272.978 471.436C273.211 471.107 273.168 470.757 272.839 470.524C272.721 470.238 272.297 470.344 272.001 470.599Z" fill="#656565"/>
<path opacity="0.054097" d="M436.351 998.95L334.92 918.53C334.591 918.297 334.167 918.403 333.934 918.732C333.701 919.062 333.744 919.412 334.074 919.645L435.505 1000.07C435.834 1000.3 436.184 1000.26 436.417 999.926C436.65 999.597 436.617 999.109 436.351 998.95Z" fill="#656565"/>
<path opacity="0.1456" d="M410.784 444.819L282.219 456.391C281.869 456.434 281.562 456.827 281.605 457.177C281.648 457.527 281.978 457.76 282.392 457.792L410.957 446.219C411.307 446.176 411.539 445.847 411.57 445.433C411.463 445.009 411.134 444.776 410.784 444.819Z" fill="#656565"/>
<path opacity="0.5" d="M310.499 513.25L283.318 503.843C282.978 503.748 282.618 503.929 282.449 504.332C282.354 504.672 282.535 505.032 282.939 505.202L310.12 514.608C310.46 514.703 310.82 514.522 310.989 514.119C310.946 513.769 310.765 513.408 310.499 513.25Z" fill="#656565"/>
<path opacity="0.3944" d="M432.678 858.854L430.618 863.206C430.449 863.61 430.63 863.97 430.896 864.129C431.161 864.288 431.66 864.117 431.818 863.852L433.942 859.574C434.111 859.17 433.929 858.81 433.664 858.651C433.271 858.344 432.772 858.514 432.678 858.854Z" fill="#656565"/>
<path opacity="0.2297" d="M332.27 300.036L434.114 296.084C434.464 296.041 434.761 295.786 434.792 295.372C434.749 295.022 434.493 294.725 434.08 294.694L332.235 298.646C331.885 298.689 331.514 299.008 331.557 299.358C331.527 299.772 331.856 300.005 332.27 300.036Z" fill="#656565"/>
<path opacity="0.1557" d="M462.835 811.754L430.554 863.132C430.321 863.461 430.428 863.886 430.758 864.118C431.087 864.351 431.511 864.245 431.744 863.916L464.089 812.611C464.322 812.282 464.215 811.858 463.886 811.625C463.492 811.318 463.068 811.425 462.835 811.754Z" fill="#656565"/>
<path opacity="0.3416" d="M394.71 989.977L334.984 918.604C334.729 918.307 334.315 918.276 334.018 918.531C333.722 918.786 333.691 919.2 333.946 919.497L393.747 990.805C394.002 991.102 394.416 991.133 394.712 990.878C394.935 990.687 394.966 990.273 394.71 989.977Z" fill="#656565"/>
<path opacity="0.059581" d="M283.363 505.095L411.105 446.091C411.465 445.91 411.634 445.507 411.453 445.146C411.272 444.786 410.932 444.691 410.508 444.798L282.766 503.801C282.406 503.982 282.237 504.385 282.418 504.746C282.599 505.106 283.003 505.276 283.363 505.095Z" fill="#656565"/>
<path opacity="0.01" d="M348.524 250.567L496.097 281.628C496.437 281.723 496.871 281.478 496.902 281.064C496.997 280.725 496.752 280.29 496.338 280.259L348.839 249.134C348.5 249.039 348.065 249.284 348.034 249.697C348.003 250.111 348.184 250.472 348.524 250.567Z" fill="#656565"/>
<path opacity="0.5" d="M283.754 504.5L282.931 457.069C282.888 456.719 282.633 456.423 282.219 456.391C281.869 456.434 281.573 456.689 281.542 457.103L282.365 504.534C282.334 504.948 282.663 505.181 283.077 505.212C283.427 505.169 283.798 504.85 283.754 504.5Z" fill="#656565"/>
<path opacity="0.1033" d="M348.938 250.598L478.015 210.837C478.439 210.731 478.608 210.327 478.427 209.967C478.246 209.606 477.917 209.374 477.556 209.554L348.479 249.315C348.055 249.422 347.886 249.825 348.067 250.186C348.184 250.472 348.588 250.641 348.938 250.598Z" fill="#656565"/>
<path opacity="0.5" d="M477.155 210.287L495.576 281.172C495.683 281.597 496.087 281.766 496.373 281.649C496.797 281.542 496.966 281.139 496.849 280.853L478.427 209.967C478.32 209.543 477.917 209.374 477.63 209.491C477.344 209.608 477.111 209.937 477.155 210.287Z" fill="#656565"/>
<path opacity="0.076693" d="M394.583 989.828L285.705 919.941C285.375 919.708 284.877 919.878 284.782 920.218C284.624 920.483 284.731 920.908 284.922 921.13L393.874 990.953C394.204 991.186 394.628 991.08 394.86 990.75C394.955 990.411 394.912 990.061 394.583 989.828Z" fill="#656565"/>
<path opacity="0.2564" d="M310.223 513.229L239.918 510.966C239.504 510.934 239.198 511.327 239.241 511.677C239.21 512.091 239.539 512.324 239.879 512.419L310.258 514.619C310.672 514.65 310.904 514.321 310.935 513.907C310.892 513.557 310.637 513.26 310.223 513.229Z" fill="#656565"/>
<path opacity="0.5" d="M433.804 859.563L467.571 813.36C467.804 813.031 467.697 812.607 467.431 812.448C467.102 812.215 466.677 812.322 466.519 812.587L432.688 858.716C432.455 859.045 432.562 859.47 432.891 859.703C433.221 859.936 433.645 859.829 433.804 859.563Z" fill="#656565"/>
<path opacity="0.5" d="M348.034 249.698L331.504 299.146C331.409 299.485 331.591 299.846 331.994 300.015C332.334 300.11 332.694 299.929 332.863 299.526L349.393 250.078C349.488 249.738 349.307 249.378 348.903 249.208C348.564 249.113 348.203 249.294 348.034 249.698Z" fill="#656565"/>
<path opacity="0.055645" d="M190.734 611.209L283.586 504.904C283.818 504.575 283.849 504.161 283.52 503.928C283.19 503.695 282.777 503.664 282.544 503.993L189.693 610.298C189.46 610.627 189.429 611.041 189.758 611.274C190.088 611.507 190.502 611.538 190.734 611.209Z" fill="#656565"/>
<path opacity="0.1831" d="M512.724 713.228L449.534 674.259C449.204 674.026 448.844 674.207 448.611 674.536C448.453 674.801 448.56 675.226 448.825 675.384L512.079 714.427C512.408 714.66 512.833 714.554 513.065 714.224C513.16 713.885 513.053 713.461 512.724 713.228Z" fill="#656565"/>
<path opacity="0.5" d="M334.442 918.424L285.291 919.91C284.941 919.953 284.57 920.272 284.613 920.622C284.657 920.972 284.976 921.342 285.326 921.3L334.477 919.814C334.827 919.771 335.124 919.516 335.155 919.102C335.186 918.688 334.793 918.381 334.442 918.424Z" fill="#656565"/>
<path opacity="0.1835" d="M432.91 858.526L334.092 918.467C333.796 918.722 333.701 919.062 333.882 919.423C334.138 919.719 334.477 919.814 334.763 919.697L433.581 859.755C433.942 859.575 434.047 859.097 433.791 858.8C433.684 858.376 433.271 858.345 432.91 858.526Z" fill="#656565"/>
<path opacity="0.017959" d="M511.727 713.569L466.509 812.725C466.414 813.065 466.521 813.489 466.861 813.584C467.2 813.679 467.624 813.572 467.719 813.233L513.002 714.15C513.17 713.747 512.989 713.387 512.66 713.154C512.32 713.059 511.822 713.229 511.727 713.569Z" fill="#656565"/>
<path opacity="0.4292" d="M281.647 456.625L239.272 511.263C239.039 511.592 239.146 512.016 239.401 512.313C239.731 512.546 240.155 512.439 240.451 512.184L282.752 457.61C282.985 457.281 282.942 456.931 282.612 456.698C282.367 456.263 281.943 456.37 281.647 456.625Z" fill="#656565"/>
<path opacity="0.3679" d="M348.691 249.262L258.461 251.872C258.047 251.841 257.741 252.234 257.784 252.584C257.827 252.934 258.146 253.305 258.496 253.262L348.726 250.651C349.076 250.608 349.373 250.353 349.403 249.94C349.371 249.452 349.041 249.219 348.691 249.262Z" fill="#656565"/>
<path opacity="0.1574" d="M190.883 611.081L240.536 511.983C240.705 511.579 240.524 511.219 240.194 510.986C239.855 510.891 239.43 510.998 239.272 511.263L189.618 610.362C189.45 610.765 189.631 611.125 189.896 611.284C190.226 611.517 190.65 611.411 190.883 611.081Z" fill="#656565"/>
<path opacity="0.5" d="M433.878 859.5L464.099 812.474C464.332 812.145 464.225 811.721 463.822 811.551C463.492 811.318 463.068 811.425 462.835 811.754L432.614 858.78C432.381 859.11 432.488 859.534 432.817 859.767C433.221 859.936 433.645 859.829 433.878 859.5Z" fill="#656565"/>
<path opacity="0.5" d="M282.904 503.812L239.78 510.955C239.356 511.061 239.123 511.391 239.231 511.815C239.274 512.165 239.667 512.472 240.017 512.429L283.141 505.286C283.491 505.243 283.797 504.85 283.69 504.426C283.721 504.012 283.328 503.705 282.904 503.812Z" fill="#656565"/>
<path opacity="0.059025" d="M544.006 769.827L432.91 858.525C432.614 858.78 432.583 859.194 432.838 859.49C433.093 859.787 433.507 859.818 433.73 859.627L544.899 770.866C545.196 770.611 545.226 770.197 545.045 769.837C544.78 769.678 544.302 769.572 544.006 769.827Z" fill="#656565"/>
<path opacity="0.4346" d="M332.575 298.741L258.875 251.904C258.546 251.671 258.122 251.778 257.889 252.107C257.656 252.436 257.763 252.86 258.093 253.093L331.792 299.931C332.122 300.164 332.546 300.057 332.779 299.728C333.011 299.399 332.904 298.974 332.575 298.741Z" fill="#656565"/>
<path opacity="0.1727" d="M485.006 884.449L467.75 812.819C467.569 812.459 467.24 812.226 466.879 812.406C466.593 812.523 466.36 812.853 466.404 813.203L483.596 884.758C483.703 885.182 484.107 885.352 484.531 885.245C484.817 885.128 485.05 884.799 485.006 884.449Z" fill="#656565"/>
<path opacity="0.2035" d="M282.328 457.717L333.451 450.277C333.875 450.17 334.108 449.841 334.065 449.491C333.958 449.067 333.628 448.834 333.278 448.877L282.156 456.317C281.806 456.36 281.499 456.753 281.542 457.103C281.649 457.527 281.978 457.76 282.328 457.717Z" fill="#656565"/>
<path opacity="0.080145" d="M425.813 873.663L467.635 813.434C467.868 813.105 467.761 812.681 467.431 812.448C467.166 812.289 466.678 812.322 466.519 812.587L424.633 872.741C424.401 873.07 424.571 873.569 424.901 873.802C425.166 873.961 425.591 873.854 425.813 873.663Z" fill="#656565"/>
<path opacity="0.2469" d="M511.663 713.495L462.899 811.828C462.667 812.158 462.912 812.592 463.177 812.751C463.507 812.984 463.941 812.739 464.1 812.474L513.002 714.151C513.17 713.747 512.989 713.387 512.66 713.154C512.32 713.059 511.896 713.166 511.663 713.495Z" fill="#656565"/>
<path opacity="0.2536" d="M283.586 504.904L333.96 449.969C334.256 449.714 334.223 449.226 333.894 448.993C333.564 448.76 333.151 448.729 332.918 449.058L282.682 504.003C282.449 504.332 282.418 504.746 282.748 504.979C282.865 505.265 283.353 505.233 283.586 504.904Z" fill="#656565"/>
<path opacity="0.2622" d="M282.546 504.895L316.545 552.06C316.8 552.357 317.277 552.462 317.574 552.207C317.871 551.952 317.901 551.539 317.784 551.252L283.785 504.087C283.53 503.791 283.116 503.759 282.83 503.876C282.321 504.185 282.29 504.598 282.546 504.895Z" fill="#656565"/>
<path opacity="0.435" d="M432.955 859.777L483.905 885.267C484.308 885.436 484.732 885.33 484.901 884.926C485.07 884.523 484.963 884.099 484.56 883.929L433.536 858.503C433.133 858.334 432.772 858.515 432.603 858.918C432.509 859.258 432.69 859.618 432.955 859.777Z" fill="#656565"/>
<path opacity="0.4487" d="M484.943 884.375L464.141 811.922C463.96 811.562 463.631 811.329 463.27 811.509C462.984 811.627 462.751 811.956 462.794 812.306L483.596 884.758C483.703 885.183 484.107 885.352 484.531 885.245C484.881 885.202 485.124 884.735 484.943 884.375Z" fill="#656565"/>
<path opacity="0.1792" d="M543.847 770.093L483.637 884.206C483.468 884.61 483.575 885.034 483.979 885.203C484.308 885.436 484.807 885.266 484.976 884.862L545.121 770.675C545.354 770.346 545.183 769.847 544.844 769.752C544.44 769.583 543.942 769.753 543.847 770.093Z" fill="#656565"/>
<path opacity="0.4443" d="M425.823 873.524L433.878 859.5C434.111 859.17 434.003 858.746 433.6 858.577C433.271 858.344 432.846 858.451 432.678 858.854L424.623 872.879C424.39 873.208 424.561 873.706 424.891 873.939C425.23 874.034 425.654 873.928 425.823 873.524Z" fill="#656565"/>
<path opacity="0.207" d="M240.377 512.249L333.875 450.171C334.172 449.916 334.341 449.512 334.021 449.141C333.766 448.845 333.363 448.676 333.066 448.931L239.632 511.083C239.336 511.338 239.167 511.741 239.422 512.038C239.603 512.398 240.017 512.43 240.377 512.249Z" fill="#656565"/>
<path opacity="0.4013" d="M425.887 873.599L464.163 812.548C464.396 812.219 464.289 811.795 463.96 811.562C463.63 811.329 463.206 811.435 462.973 811.765L424.697 872.816C424.464 873.145 424.635 873.643 424.901 873.802C425.156 874.099 425.654 873.928 425.887 873.599Z" fill="#656565"/>
<path opacity="0.3069" d="M317.455 551.019L240.258 511.06C239.929 510.827 239.431 510.998 239.336 511.337C239.103 511.667 239.274 512.165 239.614 512.26L316.736 552.282C317.14 552.451 317.564 552.345 317.733 551.941C317.892 551.676 317.785 551.252 317.455 551.019Z" fill="#656565"/>
<path opacity="0.3542" d="M317.817 551.74L334.054 449.629C334.085 449.216 333.904 448.855 333.426 448.75C333.013 448.718 332.716 448.973 332.621 449.313L316.32 551.349C316.29 551.763 316.471 552.123 316.948 552.229C317.352 552.398 317.712 552.217 317.817 551.74Z" fill="#656565"/>
<path opacity="0.5" d="M425.103 873.886L484.181 885.288C484.595 885.319 484.891 885.064 485.06 884.661C485.091 884.247 484.836 883.95 484.496 883.855L425.418 872.454C425.004 872.422 424.634 872.741 424.603 873.155C424.508 873.494 424.763 873.791 425.103 873.886Z" fill="#656565"/>
<path opacity="0.1899" d="M240.61 511.919L259.508 463.274C259.677 462.871 259.432 462.436 259.028 462.267C258.625 462.097 258.264 462.278 258.096 462.682L239.336 511.337C239.167 511.741 239.348 512.101 239.751 512.27C240.017 512.429 240.441 512.322 240.61 511.919Z" fill="#656565"/>
<path opacity="0.4096" d="M258.915 463.784L333.451 450.277C333.875 450.171 334.108 449.841 334.001 449.417C333.894 448.993 333.565 448.76 333.14 448.867L258.54 462.299C258.116 462.406 257.809 462.799 257.916 463.223C258.098 463.584 258.565 463.827 258.915 463.784Z" fill="#656565"/>
<path opacity="0.283" d="M317.646 551.241L259.421 462.574C259.24 462.213 258.763 462.108 258.328 462.353C257.968 462.533 257.863 463.011 258.108 463.446L316.407 552.049C316.662 552.346 317.14 552.451 317.436 552.196C317.797 552.015 317.902 551.538 317.646 551.241Z" fill="#656565"/>
<path opacity="0.068237" d="M565.544 914.048L425.482 872.528C425.078 872.359 424.644 872.603 424.613 873.017C424.444 873.42 424.763 873.791 425.103 873.886L565.229 915.481C565.643 915.512 566.003 915.331 566.172 914.928C566.065 914.504 565.884 914.143 565.544 914.048Z" fill="#656565"/>
<path opacity="0.028443" d="M429.924 415.195L333.14 448.866C332.716 448.973 332.547 449.376 332.654 449.801C332.835 450.161 333.165 450.394 333.589 450.287L430.362 416.754C430.723 416.573 430.966 416.106 430.785 415.745C430.752 415.257 430.284 415.014 429.924 415.195Z" fill="#656565"/>
<path opacity="0.01" d="M425.378 873.907L532.728 844.571C533.152 844.465 533.331 843.923 533.15 843.563C532.969 843.203 532.64 842.97 532.216 843.076L424.93 872.486C424.506 872.593 424.337 872.996 424.444 873.42C424.625 873.781 424.954 874.014 425.378 873.907Z" fill="#656565"/>
<path opacity="0.2031" d="M138.945 356.717L171.457 363.475C171.87 363.506 172.305 363.262 172.336 362.848C172.367 362.434 172.186 362.073 171.708 361.968L139.122 355.274C138.708 355.243 138.348 355.424 138.243 355.901C138.286 356.251 138.605 356.622 138.945 356.717Z" fill="#656565"/>
<path opacity="0.1759" d="M171.063 363.168L258.246 463.456C258.501 463.753 259.053 463.794 259.349 463.539C259.646 463.284 259.687 462.733 259.432 462.436L172.324 362.084C172.068 361.787 171.516 361.745 171.146 362.064C170.839 362.457 170.808 362.871 171.063 363.168Z" fill="#656565"/>
<path opacity="0.07691" d="M579.684 367.843L429.924 415.195C429.5 415.302 429.257 415.769 429.438 416.129C429.545 416.554 430.012 416.797 430.373 416.616L580.059 369.328C580.483 369.221 580.726 368.754 580.545 368.394C580.438 367.969 580.045 367.662 579.684 367.843Z" fill="#656565"/>
<path opacity="0.2147" d="M579.546 367.833L458.717 424.377C458.357 424.557 458.114 425.025 458.358 425.459C458.54 425.82 459.007 426.063 459.441 425.819L580.271 369.274C580.631 369.094 580.874 368.627 580.629 368.192C580.374 367.895 579.907 367.652 579.546 367.833Z" fill="#656565"/>
<path opacity="0.5" d="M459.269 424.418L430.338 415.226C429.934 415.057 429.5 415.302 429.331 415.705C429.162 416.108 429.407 416.543 429.811 416.712L458.742 425.904C459.145 426.073 459.58 425.829 459.749 425.425C459.918 425.022 459.673 424.587 459.269 424.418Z" fill="#656565"/>
<path opacity="0.2275" d="M430.54 415.311L334.05 348.58C333.721 348.347 333.159 348.443 332.926 348.772C332.693 349.101 332.79 349.663 333.119 349.896L429.683 416.564C430.012 416.797 430.574 416.7 430.743 416.297C430.976 415.968 430.869 415.544 430.54 415.311Z" fill="#656565"/>
<path opacity="0.093505" d="M459.471 424.503L334.05 348.58C333.721 348.347 333.159 348.443 332.916 348.91C332.683 349.239 332.78 349.802 333.247 350.045L458.742 425.904C459.071 426.137 459.57 425.967 459.802 425.638C459.907 425.16 459.8 424.736 459.471 424.503Z" fill="#656565"/>
<path opacity="0.2269" d="M171.072 362.128L74.2006 459.113C73.8299 459.432 73.8628 459.92 74.1819 460.291C74.5009 460.662 74.9889 460.629 75.3596 460.311L172.167 363.251C172.463 362.996 172.505 362.444 172.111 362.137C171.856 361.84 171.442 361.809 171.072 362.128Z" fill="#656565"/>
<path opacity="0.3825" d="M447.845 1079.92L401.003 995.792C400.758 995.358 400.281 995.252 399.92 995.433C399.56 995.614 399.381 996.155 399.562 996.516L446.403 1080.65C446.585 1081.01 447.126 1081.19 447.497 1080.87C447.857 1080.69 448.026 1080.28 447.845 1079.92Z" fill="#656565"/>
<path opacity="0.1012" d="M399.817 996.812L530.746 1083.49C531.076 1083.72 531.638 1083.62 531.807 1083.22C532.04 1082.89 531.869 1082.39 531.539 1082.16L400.61 995.485C400.281 995.252 399.719 995.348 399.486 995.677C399.317 996.081 399.488 996.579 399.817 996.812Z" fill="#656565"/>
<path opacity="0.01" d="M398.8 902.829L532.866 844.581C533.227 844.401 533.47 843.933 533.289 843.573C533.108 843.213 532.64 842.969 532.28 843.15L398.149 901.324C397.715 901.568 397.546 901.972 397.717 902.47C397.898 902.831 398.365 903.074 398.8 902.829Z" fill="#656565"/>
<path opacity="0.040601" d="M447.635 1080.88L545.415 992.145C545.786 991.827 545.827 991.275 545.434 990.968C545.115 990.597 544.627 990.629 544.256 990.948L446.54 1079.76C446.169 1080.07 446.202 1080.56 446.458 1080.86C446.851 1081.17 447.339 1081.13 447.635 1080.88Z" fill="#656565"/>
<path opacity="0.039436" d="M400.159 710.267L529.432 816.303C529.825 816.61 530.323 816.44 530.556 816.111C530.789 815.782 530.756 815.294 530.501 814.997L401.292 709.034C400.962 708.802 400.474 708.834 400.167 709.227C399.871 709.482 399.904 709.97 400.159 710.267Z" fill="#656565"/>
<path opacity="0.033008" d="M399.818 996.812L542.526 1099.43C542.919 1099.73 543.417 1099.56 543.65 1099.23C543.957 1098.84 543.786 1098.34 543.456 1098.11L400.748 995.496C400.419 995.263 399.857 995.359 399.688 995.762C399.455 996.091 399.488 996.579 399.818 996.812Z" fill="#656565"/>
<path opacity="0.1392" d="M400.296 996.917L544.843 992.379C545.331 992.347 545.638 991.954 545.605 991.466C545.572 990.978 545.179 990.67 544.765 990.639L400.207 995.316C399.719 995.348 399.412 995.741 399.381 996.155C399.488 996.579 399.808 996.95 400.296 996.917Z" fill="#656565"/>
<path opacity="0.2855" d="M401.047 996.143L399.275 902.034C399.242 901.546 398.849 901.239 398.361 901.271C397.873 901.303 397.566 901.696 397.535 902.11L399.381 996.155C399.414 996.643 399.807 996.95 400.295 996.918C400.783 996.886 401.09 996.493 401.047 996.143Z" fill="#656565"/>
<path opacity="0.1056" d="M300.788 784.107L401.199 710.276C401.495 710.021 401.675 709.479 401.356 709.109C401.036 708.738 400.559 708.632 400.188 708.951L299.713 782.708C299.342 783.026 299.237 783.504 299.556 783.875C299.801 784.309 300.417 784.425 300.788 784.107Z" fill="#656565"/>
<path opacity="0.1932" d="M320.951 722.241L400.912 710.393C401.336 710.286 401.643 709.893 401.536 709.469C401.429 709.045 401.1 708.812 400.686 708.781L320.661 720.555C320.173 720.587 319.856 721.118 319.963 721.542C319.996 722.03 320.527 722.348 320.951 722.241Z" fill="#656565"/>
<path opacity="0.1581" d="M398.874 902.766L530.472 816.312C530.906 816.068 530.947 815.516 530.766 815.156C530.521 814.721 529.97 814.679 529.673 814.934L398.149 901.324C397.779 901.643 397.673 902.121 397.993 902.491C398.1 902.916 398.513 902.947 398.874 902.766Z" fill="#656565"/>
<path opacity="0.053261" d="M397.972 902.767L544.365 992.274C544.769 992.443 545.257 992.41 545.5 991.943C545.732 991.614 545.636 991.052 545.232 990.883L398.839 901.376C398.435 901.207 397.873 901.303 397.704 901.706C397.472 902.036 397.643 902.534 397.972 902.767Z" fill="#656565"/>
<path opacity="0.112" d="M502.892 1161L545.658 991.678C545.763 991.201 545.444 990.83 545.04 990.661C544.563 990.555 544.128 990.8 544.023 991.277L501.332 1160.53C501.226 1161.01 501.471 1161.45 501.949 1161.55C502.353 1161.72 502.787 1161.48 502.892 1161Z" fill="#656565"/>
<path opacity="0.1628" d="M528.745 971.119L530.799 815.643C530.766 815.155 530.447 814.784 529.959 814.817C529.471 814.849 529.101 815.168 529.133 815.656L527.015 971.058C527.048 971.546 527.367 971.916 527.919 971.958C528.407 971.926 528.714 971.533 528.745 971.119Z" fill="#656565"/>
<path opacity="0.1901" d="M398.035 902.841L527.441 971.853C527.909 972.096 528.407 971.926 528.576 971.522C528.819 971.055 528.648 970.557 528.244 970.388L398.765 901.44C398.361 901.271 397.863 901.441 397.694 901.845C397.535 902.11 397.706 902.608 398.035 902.841Z" fill="#656565"/>
<path opacity="0.1096" d="M399.104 901.535L301.018 782.876C300.699 782.505 300.147 782.463 299.777 782.782C299.406 783.1 299.439 783.588 299.62 783.949L397.78 902.545C398.099 902.916 398.651 902.957 399.022 902.638C399.318 902.383 399.36 901.832 399.104 901.535Z" fill="#656565"/>
<path opacity="0.5" d="M301.094 783.714L321.682 721.741C321.787 721.264 321.617 720.766 321.139 720.66C320.661 720.555 320.163 720.725 320.058 721.203L299.47 783.175C299.365 783.652 299.61 784.087 300.013 784.256C300.491 784.361 300.925 784.117 301.094 783.714Z" fill="#656565"/>
<path opacity="0.062707" d="M369.355 624.089L299.544 783.111C299.375 783.515 299.546 784.013 300.013 784.256C300.417 784.426 300.915 784.255 301.158 783.788L371.033 624.84C371.202 624.436 370.967 623.864 370.563 623.695C370.096 623.451 369.598 623.622 369.355 624.089Z" fill="#656565"/>
<path opacity="0.3992" d="M369.365 623.95L320.005 720.991C319.761 721.458 319.932 721.956 320.4 722.199C320.867 722.443 321.365 722.272 321.608 721.805L370.969 624.765C371.212 624.298 371.041 623.8 370.574 623.556C370.17 623.387 369.534 623.547 369.365 623.95Z" fill="#656565"/>
<path opacity="0.2545" d="M369.043 399.15L353.924 428.8L417.108 395.501L369.043 399.15Z" fill="#656565"/>
<path opacity="0.1776" d="M297.899 450.78L369.043 399.149L353.924 428.8L297.899 450.78Z" fill="#656565"/>
<path opacity="0.1317" d="M369.043 399.15L417.108 395.501L431.822 414.854L369.043 399.15Z" fill="#656565"/>
<path opacity="0.1997" d="M457.551 325.875L413.698 309.382L441.257 307.235L457.551 325.875Z" fill="#656565"/>
<path opacity="0.2793" d="M312.641 453.073L297.899 450.779L272.596 470.991L312.641 453.073Z" fill="#656565"/>
<path opacity="0.2793" d="M312.641 453.073L297.899 450.779L272.596 470.991L312.641 453.073Z" fill="#656565"/>
<path opacity="0.2793" d="M312.641 453.073L297.899 450.779L272.596 470.991L312.641 453.073Z" fill="#656565"/>
<path opacity="0.2565" d="M457.551 325.875L434.092 295.458L441.257 307.235L457.551 325.875Z" fill="#656565"/>
<path opacity="0.2565" d="M457.551 325.875L434.092 295.458L441.257 307.235L457.551 325.875Z" fill="#656565"/>
<path opacity="0.091609" d="M483.146 501.195L444.824 531.311L400.041 481.805L483.146 501.195Z" fill="#656565"/>
<path opacity="0.1799" d="M410.806 445.445L431.822 414.853L400.041 481.805L410.806 445.445Z" fill="#656565"/>
<path opacity="0.042801" d="M444.825 531.311L410.807 445.445L400.041 481.805L444.825 531.311Z" fill="#656565"/>
<path opacity="0.2181" d="M499.257 270.909L434.092 295.458L467.784 239.124L499.257 270.909Z" fill="#656565"/>
<path opacity="0.1452" d="M479.769 821.842L467.114 812.979L431.223 863.46L479.769 821.842Z" fill="#656565"/>
<path opacity="0.1452" d="M479.769 821.842L467.114 812.979L431.223 863.46L479.769 821.842Z" fill="#656565"/>
<path opacity="0.1452" d="M479.769 821.842L467.114 812.979L431.223 863.46L479.769 821.842Z" fill="#656565"/>
<path opacity="0.2554" d="M483.146 501.196L444.824 531.311L465.455 489.178L483.146 501.196Z" fill="#656565"/>
<path opacity="0.038904" d="M310.31 513.928L272.596 470.99L282.242 457.017L310.31 513.928Z" fill="#656565"/>
<path opacity="0.2055" d="M312.641 453.073L310.309 513.929L282.242 457.017L312.641 453.073Z" fill="#656565"/>
<path opacity="0.01" d="M506.137 248.472L496.287 280.948L434.092 295.458L506.137 248.472Z" fill="#656565"/>
<path opacity="0.1589" d="M499.257 270.909L496.286 280.949L434.092 295.458L499.257 270.909Z" fill="#656565"/>
<path opacity="0.2348" d="M483.146 501.196L410.806 445.445L465.455 489.178L483.146 501.196Z" fill="#656565"/>
<path opacity="0.1261" d="M312.641 453.073L310.31 513.929L283.065 504.448L312.641 453.073Z" fill="#656565"/>
<path opacity="0.1827" d="M312.641 453.073L283.065 504.448L282.242 457.017L312.641 453.073Z" fill="#656565"/>
<path opacity="0.12" d="M506.137 248.473L477.854 210.201L496.286 280.949L506.137 248.473Z" fill="#656565"/>
<path opacity="0.12" d="M506.137 248.473L477.854 210.201L496.286 280.949L506.137 248.473Z" fill="#656565"/>
<path opacity="0.1385" d="M499.257 270.909L477.854 210.201L496.286 280.949L499.257 270.909Z" fill="#656565"/>
<path opacity="0.2416" d="M433.283 859.108L467.114 812.979L463.43 812.146L433.283 859.108Z" fill="#656565"/>
<path opacity="0.2416" d="M433.283 859.108L467.114 812.979L463.43 812.146L433.283 859.108Z" fill="#656565"/>
<path opacity="0.2416" d="M433.283 859.108L467.114 812.979L463.43 812.146L433.283 859.108Z" fill="#656565"/>
<path opacity="0.2344" d="M283.065 504.448L282.242 457.017L239.867 511.655L283.065 504.448Z" fill="#656565"/>
<path opacity="0.1153" d="M425.154 873.197L433.283 859.108L484.306 884.535L425.154 873.197Z" fill="#656565"/>
<path opacity="0.09078" d="M425.154 873.197L484.306 884.535L463.43 812.146L425.154 873.197Z" fill="#656565"/>
<rect width="460" height="1000" fill="url(#paint0_linear)"/>
</g>
<defs>
<linearGradient id="paint0_linear" x1="460" y1="1000" x2="404.677" y2="-15.4015" gradientUnits="userSpaceOnUse">
<stop stop-color="#090909" stop-opacity="0.55"/>
<stop offset="1" stop-color="#090909"/>
</linearGradient>
<clipPath id="clip0">
<rect width="460" height="1000" fill="white"/>
</clipPath>
</defs>
</svg>
