<svg width="208" height="738" viewBox="0 0 208 738" fill="none" xmlns="http://www.w3.org/2000/svg">
<g clip-path="url(#clip0)">
<path opacity="0.5" d="M170.851 398.803C169.708 398.902 168.933 399.928 169.023 400.975C169.122 402.118 170.149 402.892 171.197 402.802C172.34 402.703 173.115 401.677 173.024 400.63C172.926 399.487 171.899 398.713 170.851 398.803Z" fill="#616161"/>
<path opacity="0.5" d="M140.889 496.348C139.745 496.447 138.875 497.481 138.974 498.624C139.072 499.766 140.107 500.636 141.251 500.537C142.394 500.438 143.264 499.404 143.165 498.261C143.067 497.119 142.127 496.241 140.889 496.348Z" fill="#616161"/>
<path opacity="0.5" d="M205.554 423.908C204.411 424.007 203.445 425.05 203.552 426.287C203.651 427.43 204.694 428.395 205.932 428.288C207.075 428.189 207.946 427.155 207.839 425.917C207.835 424.766 206.792 423.801 205.554 423.908Z" fill="#616161"/>
<path opacity="0.5" d="M69.8607 607.32C68.527 607.436 67.5697 608.573 67.6848 609.906C67.8 611.239 68.9383 612.196 70.2719 612.081C71.6056 611.965 72.563 610.828 72.4478 609.495C72.3327 608.162 71.1943 607.205 69.8607 607.32Z" fill="#616161"/>
<path opacity="0.5" d="M75.6028 472.734C74.2692 472.85 73.3118 473.987 73.4269 475.32C73.5421 476.653 74.6804 477.61 76.0141 477.495C77.3478 477.379 78.3052 476.242 78.19 474.909C78.0749 473.576 76.9365 472.619 75.6028 472.734Z" fill="#616161"/>
<path opacity="0.5" d="M88.0896 447.293C86.7559 447.408 85.7032 448.554 85.8266 449.982C85.9418 451.315 87.0883 452.367 88.5173 452.244C89.9462 452.12 90.9036 450.982 90.7803 449.554C90.6569 448.126 89.4232 447.178 88.0896 447.293Z" fill="#616161"/>
<path opacity="0.5" d="M188.193 444.016C186.859 444.131 185.815 445.373 185.93 446.706C186.045 448.038 187.287 449.082 188.621 448.967C189.955 448.852 190.999 447.61 190.884 446.278C190.769 444.945 189.527 443.901 188.193 444.016Z" fill="#616161"/>
<path opacity="0.5" d="M188.229 214.487C186.8 214.611 185.755 215.852 185.879 217.28C186.002 218.708 187.244 219.752 188.673 219.628C190.102 219.505 191.146 218.263 191.023 216.835C190.899 215.407 189.658 214.364 188.229 214.487Z" fill="#616161"/>
<path opacity="0.5" d="M121.199 470.618C119.771 470.741 118.726 471.982 118.849 473.41C118.973 474.839 120.215 475.882 121.644 475.759C123.073 475.635 124.117 474.394 123.994 472.966C123.87 471.538 122.628 470.494 121.199 470.618Z" fill="#616161"/>
<path opacity="0.5" d="M100.583 578.577C99.1626 578.7 97.9116 577.648 97.7889 576.229C97.6663 574.809 98.7184 573.559 100.139 573.436C101.559 573.313 102.81 574.365 102.933 575.784C103.056 577.204 102.004 578.454 100.583 578.577Z" fill="#616161"/>
<path opacity="0.5" d="M87.7018 368.388C86.2729 368.512 85.1332 369.761 85.2648 371.285C85.3965 372.808 86.6383 373.852 88.1625 373.72C89.5914 373.596 90.7311 372.347 90.5994 370.824C90.4678 369.3 89.1308 368.265 87.7018 368.388Z" fill="#616161"/>
<path opacity="0.5" d="M185.846 407.963C184.417 408.086 183.278 409.336 183.409 410.859C183.533 412.287 184.783 413.426 186.307 413.294C187.831 413.163 188.876 411.921 188.744 410.398C188.517 408.883 187.275 407.839 185.846 407.963Z" fill="#616161"/>
<path opacity="0.5" d="M172.645 165.191C171.172 165.318 169.874 164.228 169.747 162.755C169.62 161.283 170.711 159.986 172.184 159.859C173.657 159.732 174.955 160.822 175.082 162.294C175.209 163.767 174.118 165.063 172.645 165.191Z" fill="#616161"/>
<path opacity="0.5" d="M149.114 318.291C147.59 318.422 146.459 319.767 146.59 321.29C146.722 322.814 148.067 323.944 149.591 323.813C151.116 323.681 152.247 322.336 152.115 320.813C151.984 319.29 150.639 318.159 149.114 318.291Z" fill="#616161"/>
<path opacity="0.5" d="M154.874 507.13C153.35 507.261 152.218 508.606 152.35 510.129C152.482 511.653 153.827 512.783 155.351 512.652C156.875 512.52 158.007 511.175 157.875 509.652C157.744 508.129 156.398 506.998 154.874 507.13Z" fill="#616161"/>
<path opacity="0.5" d="M210.101 430.997C208.577 431.129 207.35 432.482 207.49 434.1C207.622 435.624 208.975 436.849 210.595 436.709C212.214 436.57 213.346 435.225 213.206 433.606C213.074 432.083 211.625 430.865 210.101 430.997Z" fill="#616161"/>
<path opacity="0.5" d="M133.859 227.242C132.24 227.382 131.108 228.726 131.248 230.345C131.388 231.963 132.828 233.086 134.352 232.954C135.972 232.814 137.095 231.374 136.964 229.851C136.832 228.328 135.383 227.11 133.859 227.242Z" fill="#616161"/>
<path opacity="0.5" d="M178.947 639.139C177.327 639.279 176.204 640.719 176.336 642.243C176.467 643.766 177.916 644.983 179.44 644.852C181.06 644.712 182.183 643.272 182.051 641.749C181.92 640.225 180.566 639 178.947 639.139Z" fill="#616161"/>
<path opacity="0.5" d="M105.797 537.842C104.177 537.982 102.959 539.43 103.099 541.049C103.239 542.667 104.687 543.885 106.307 543.745C107.926 543.605 109.145 542.157 109.005 540.538C108.865 538.92 107.416 537.702 105.797 537.842Z" fill="#616161"/>
<path opacity="0.5" d="M207.504 574.231C205.884 574.371 204.666 575.819 204.806 577.438C204.946 579.056 206.394 580.274 208.014 580.134C209.633 579.994 210.852 578.546 210.712 576.927C210.572 575.309 209.123 574.091 207.504 574.231Z" fill="#616161"/>
<path opacity="0.5" d="M49.225 562.872C47.5103 563.02 46.2918 564.468 46.4399 566.182C46.5797 567.8 48.0367 569.113 49.7515 568.965C51.4662 568.817 52.6847 567.369 52.5366 565.655C52.3886 563.942 50.9398 562.724 49.225 562.872Z" fill="#616161"/>
<path opacity="0.5" d="M139.508 37.1291C137.794 37.2772 136.575 38.7253 136.723 40.439C136.871 42.1527 138.32 43.3703 140.035 43.2222C141.749 43.0741 142.968 41.626 142.82 39.9123C142.672 38.1986 141.223 36.9809 139.508 37.1291Z" fill="#616161"/>
<path opacity="0.5" d="M47.7905 619.586C46.107 619.731 44.6244 618.485 44.479 616.803C44.3336 615.12 45.5805 613.638 47.2641 613.493C48.9477 613.347 50.4303 614.593 50.5757 616.276C50.7211 617.959 49.4741 619.441 47.7905 619.586Z" fill="#616161"/>
<path opacity="0.5" d="M143.049 382.502C141.335 382.65 140.116 384.098 140.264 385.812C140.412 387.525 141.861 388.743 143.576 388.595C145.29 388.447 146.509 386.998 146.361 385.285C146.213 383.571 144.764 382.354 143.049 382.502Z" fill="#616161"/>
<path opacity="0.5" d="M74.2509 352.669C72.5362 352.817 71.2307 354.369 71.3788 356.082C71.5268 357.796 73.0791 359.101 74.7938 358.953C76.5085 358.804 77.814 357.253 77.666 355.539C77.5179 353.826 75.9656 352.521 74.2509 352.669Z" fill="#616161"/>
<path opacity="0.5" d="M192.306 398.293C190.591 398.441 189.285 399.993 189.433 401.706C189.581 403.42 191.134 404.725 192.848 404.576C194.563 404.428 195.869 402.877 195.721 401.163C195.573 399.449 194.02 398.145 192.306 398.293Z" fill="#616161"/>
<path opacity="0.5" d="M123.909 415.328C122.194 415.476 120.888 417.028 121.036 418.741C121.184 420.455 122.737 421.76 124.451 421.611C126.166 421.463 127.472 419.912 127.324 418.198C127.271 416.476 125.718 415.172 123.909 415.328Z" fill="#616161"/>
<path opacity="0.5" d="M14.8636 548.384C13.1489 548.532 11.8434 550.084 11.9915 551.797C12.1395 553.511 13.6918 554.816 15.4064 554.668C17.1211 554.52 18.4267 552.968 18.2787 551.254C18.2259 549.532 16.6735 548.228 14.8636 548.384Z" fill="#616161"/>
<path opacity="0.5" d="M140.715 706.514C139 706.662 137.695 708.214 137.843 709.927C137.991 711.641 139.543 712.946 141.258 712.798C143.068 712.641 144.278 711.098 144.13 709.384C144.077 707.662 142.525 706.358 140.715 706.514Z" fill="#616161"/>
<path opacity="0.5" d="M132.226 326.08C130.416 326.236 129.11 327.788 129.267 329.597C129.423 331.406 130.975 332.71 132.785 332.554C134.595 332.398 135.901 330.846 135.745 329.037C135.493 327.237 133.941 325.932 132.226 326.08Z" fill="#616161"/>
<path opacity="0.5" d="M148.013 632.125C146.203 632.281 144.898 633.833 145.054 635.642C145.21 637.45 146.762 638.755 148.572 638.599C150.382 638.442 151.688 636.891 151.532 635.082C151.384 633.368 149.823 631.968 148.013 632.125Z" fill="#616161"/>
<path opacity="0.5" d="M76.9897 604.306C75.1797 604.463 73.8742 606.014 74.0304 607.823C74.1867 609.632 75.739 610.936 77.549 610.78C79.359 610.624 80.6644 609.072 80.5082 607.263C80.3519 605.454 78.7996 604.15 76.9897 604.306Z" fill="#616161"/>
<path opacity="0.5" d="M179.292 568.708C177.482 568.864 176.177 570.416 176.333 572.225C176.489 574.034 178.042 575.338 179.852 575.182C181.662 575.025 182.967 573.474 182.811 571.665C182.655 569.856 181.102 568.551 179.292 568.708Z" fill="#616161"/>
<path opacity="0.5" d="M166.57 703.609C164.76 703.765 163.368 705.42 163.524 707.229C163.68 709.038 165.336 710.43 167.146 710.274C168.956 710.117 170.348 708.462 170.192 706.653C170.036 704.844 168.38 703.453 166.57 703.609Z" fill="#616161"/>
<path opacity="0.5" d="M149.244 547.517C147.434 547.673 146.041 549.328 146.198 551.137C146.354 552.946 148.01 554.337 149.82 554.181C151.63 554.025 153.022 552.37 152.866 550.561C152.71 548.752 151.149 547.352 149.244 547.517Z" fill="#616161"/>
<path opacity="0.5" d="M167.566 168.603C165.756 168.759 164.364 170.414 164.52 172.223C164.676 174.032 166.332 175.424 168.142 175.267C169.952 175.111 171.345 173.456 171.188 171.647C171.032 169.838 169.471 168.438 167.566 168.603Z" fill="#616161"/>
<path opacity="0.5" d="M162.117 465.452C160.212 465.617 158.82 467.272 158.984 469.176C159.149 471.08 160.804 472.471 162.71 472.307C164.615 472.142 166.007 470.487 165.843 468.583C165.678 466.679 164.023 465.287 162.117 465.452Z" fill="#616161"/>
<path opacity="0.5" d="M59.8074 508.725C57.9022 508.89 56.4144 510.553 56.5871 512.552C56.7516 514.456 58.4156 515.943 60.4161 515.77C62.3213 515.606 63.8091 513.942 63.6364 511.943C63.4636 509.944 61.7126 508.56 59.8074 508.725Z" fill="#616161"/>
<path opacity="0.5" d="M27.6022 254.838C25.6018 255.01 24.2174 256.761 24.3819 258.665C24.5546 260.664 26.3057 262.047 28.2109 261.883C30.2114 261.71 31.5957 259.96 31.4312 258.056C31.362 256.143 29.6027 254.665 27.6022 254.838Z" fill="#616161"/>
<path opacity="0.5" d="M162.864 335.23C160.863 335.403 159.384 337.162 159.557 339.161C159.729 341.16 161.489 342.639 163.489 342.466C165.489 342.293 166.874 340.543 166.701 338.544C166.615 336.441 164.864 335.058 162.864 335.23Z" fill="#616161"/>
<path opacity="0.5" d="M155.214 599.946C153.215 600.119 151.454 598.64 151.282 596.641C151.109 594.643 152.59 592.884 154.589 592.711C156.588 592.538 158.349 594.018 158.522 596.016C158.694 598.014 157.213 599.774 155.214 599.946Z" fill="#616161"/>
<path opacity="0.2275" d="M171.371 400.39L219.701 444.364C219.908 444.538 219.941 444.918 219.672 445.133C219.498 445.34 219.117 445.373 218.91 445.199L170.571 401.13C170.364 400.956 170.331 400.575 170.506 400.368C170.783 400.249 171.164 400.216 171.371 400.39Z" fill="#656565"/>
<path opacity="0.095878" d="M171.277 400.398L206.092 425.685C206.299 425.859 206.332 426.24 206.158 426.447C205.984 426.654 205.698 426.679 205.404 426.608L170.684 401.313C170.477 401.139 170.444 400.758 170.618 400.551C170.784 400.249 171.07 400.224 171.277 400.398Z" fill="#656565"/>
<path opacity="0.2203" d="M140.847 498.079L219.035 444.421C219.313 444.301 219.599 444.277 219.814 444.546C219.934 444.823 219.959 445.109 219.689 445.324L141.501 498.982C141.223 499.101 140.929 499.031 140.723 498.857C140.507 498.588 140.57 498.199 140.847 498.079Z" fill="#656565"/>
<path opacity="0.4229" d="M265.965 434.42L205.697 426.678C205.403 426.608 205.188 426.339 205.258 426.045C205.329 425.751 205.598 425.536 205.892 425.607L266.168 433.443C266.462 433.514 266.677 433.783 266.607 434.077C266.528 434.276 266.259 434.491 265.965 434.42Z" fill="#656565"/>
<path opacity="0.5" d="M218.91 445.199L205.292 426.425C205.077 426.156 205.147 425.862 205.417 425.647C205.686 425.432 205.98 425.503 206.195 425.772L219.814 444.546C219.934 444.823 219.863 445.117 219.689 445.324C219.411 445.444 219.117 445.373 218.91 445.199Z" fill="#656565"/>
<path opacity="0.1701" d="M140.664 498.191L205.329 425.751C205.503 425.544 205.884 425.511 206.099 425.78C206.306 425.954 206.331 426.24 206.165 426.542L141.5 498.982C141.326 499.189 140.945 499.221 140.73 498.952C140.515 498.683 140.49 498.398 140.664 498.191Z" fill="#656565"/>
<path opacity="0.045668" d="M280.073 513.291L205.292 426.426C205.077 426.157 205.147 425.863 205.417 425.648C205.591 425.441 205.98 425.503 206.187 425.677L280.968 512.542C281.183 512.811 281.113 513.105 280.843 513.32C280.574 513.535 280.288 513.56 280.073 513.291Z" fill="#656565"/>
<path opacity="0.2727" d="M205.511 425.639L266.818 398.762C267.096 398.642 267.398 398.807 267.518 399.085C267.638 399.362 267.472 399.664 267.195 399.784L205.879 426.566C205.601 426.686 205.299 426.521 205.179 426.243C205.163 426.053 205.233 425.759 205.511 425.639Z" fill="#656565"/>
<path opacity="0.3202" d="M205.693 425.527L260.749 416.263C261.034 416.238 261.337 416.404 261.361 416.689C261.386 416.975 261.22 417.277 260.934 417.302L205.879 426.566C205.593 426.591 205.291 426.425 205.266 426.14C205.146 425.862 205.416 425.647 205.693 425.527Z" fill="#656565"/>
<path opacity="0.5" d="M88.8987 450.005L76.413 475.446C76.2471 475.749 75.8743 475.877 75.572 475.711C75.2698 475.545 75.1416 475.173 75.3075 474.871L87.7932 449.429C87.9591 449.127 88.3319 448.999 88.6342 449.165C88.8411 449.339 88.9693 449.711 88.8987 450.005Z" fill="#656565"/>
<path opacity="0.2822" d="M188.072 445.945L273.258 401.082C273.535 400.962 273.925 401.025 274.148 401.389C274.268 401.666 274.206 402.055 273.841 402.279L188.655 447.141C188.377 447.261 187.988 447.199 187.765 446.835C187.636 446.462 187.794 446.065 188.072 445.945Z" fill="#656565"/>
<path opacity="0.2028" d="M88.2442 449.103L188.356 445.921C188.737 445.888 188.952 446.157 188.985 446.538C189.018 446.919 188.749 447.134 188.368 447.167L88.2559 450.349C87.8749 450.382 87.6597 450.113 87.6268 449.732C87.6892 449.343 87.9585 449.128 88.2442 449.103Z" fill="#656565"/>
<path opacity="0.106" d="M188.688 216.462L250.624 245.737C250.926 245.902 251.054 246.275 250.888 246.577C250.722 246.879 250.445 246.999 250.143 246.833L188.112 217.567C187.809 217.401 187.681 217.029 187.847 216.727C188.013 216.425 188.386 216.296 188.688 216.462Z" fill="#656565"/>
<path opacity="0.036104" d="M75.8474 474.44L121.46 472.514C121.841 472.481 122.151 472.742 122.089 473.131C122.122 473.512 121.861 473.822 121.48 473.855L75.859 475.686C75.478 475.719 75.2628 475.45 75.2299 475.069C75.2052 474.783 75.4663 474.473 75.8474 474.44Z" fill="#656565"/>
<path opacity="0.01" d="M213.583 663.483L212.301 789.723C212.238 790.112 211.969 790.327 211.588 790.36C211.199 790.298 210.983 790.028 210.959 789.743L212.241 663.503C212.303 663.114 212.572 662.899 212.962 662.961C213.343 662.928 213.55 663.102 213.583 663.483Z" fill="#656565"/>
<path opacity="0.4468" d="M188.849 446.07L243.693 498.785C243.908 499.054 243.941 499.435 243.672 499.65C243.402 499.865 243.021 499.898 242.711 499.637L187.867 446.922C187.652 446.653 187.619 446.272 187.888 446.057C188.158 445.842 188.539 445.809 188.849 446.07Z" fill="#656565"/>
<path opacity="0.3184" d="M88.6349 449.165L121.762 472.68C122.072 472.941 122.105 473.321 121.939 473.623C121.773 473.926 121.392 473.958 121.09 473.793L87.9633 450.278C87.6611 450.112 87.6281 449.731 87.794 449.429C87.9516 449.032 88.4279 448.991 88.6349 449.165Z" fill="#656565"/>
<path opacity="0.1716" d="M292.566 469.049L188.265 447.08C187.971 447.009 187.748 446.645 187.81 446.256C187.881 445.962 188.246 445.738 188.54 445.809L292.832 467.683C293.221 467.746 293.444 468.11 293.382 468.499C293.224 468.896 292.86 469.12 292.566 469.049Z" fill="#656565"/>
<path opacity="0.1451" d="M213.615 196.18L258.56 87.6537C258.725 87.3516 259.09 87.1283 259.392 87.294C259.694 87.4597 259.918 87.8241 259.752 88.1261L214.808 196.653C214.642 196.955 214.269 197.083 213.967 196.917C213.673 196.847 213.545 196.474 213.615 196.18Z" fill="#656565"/>
<path opacity="0.4458" d="M188.654 447.142L121.669 473.839C121.296 473.967 120.994 473.801 120.866 473.428C120.738 473.056 120.903 472.754 121.181 472.634L188.166 445.937C188.539 445.809 188.841 445.975 188.97 446.347C189.09 446.625 188.924 446.927 188.654 447.142Z" fill="#656565"/>
<path opacity="0.5" d="M214.641 196.955L188.777 217.509C188.508 217.725 188.119 217.662 187.903 217.393C187.688 217.124 187.751 216.735 188.02 216.52L213.884 195.965C214.153 195.75 214.543 195.813 214.758 196.082C214.973 196.351 214.911 196.74 214.641 196.955Z" fill="#656565"/>
<path opacity="0.1257" d="M243.109 499.794L121.28 473.776C120.89 473.714 120.667 473.349 120.729 472.96C120.792 472.571 121.156 472.348 121.546 472.41L243.375 498.429C243.764 498.491 243.892 498.864 243.83 499.253C243.768 499.642 243.403 499.865 243.109 499.794Z" fill="#656565"/>
<path opacity="0.098858" d="M211.3 789.234L307.502 697.476C307.772 697.261 308.161 697.323 308.376 697.592C308.591 697.862 308.521 698.155 308.355 698.457L212.161 790.311C211.892 790.526 211.502 790.463 211.192 790.202C211.064 789.83 211.031 789.449 211.3 789.234Z" fill="#656565"/>
<path opacity="0.2048" d="M186.742 410.572L189.08 446.53C189.113 446.911 188.852 447.221 188.463 447.159C188.082 447.192 187.771 446.931 187.834 446.542L185.4 410.592C185.367 410.211 185.628 409.901 186.009 409.868C186.39 409.835 186.709 410.191 186.742 410.572Z" fill="#656565"/>
<path opacity="0.029308" d="M186.614 410.199L243.796 498.872C243.916 499.149 243.854 499.538 243.489 499.762C243.212 499.882 242.822 499.819 242.702 499.542L185.528 410.964C185.305 410.6 185.367 410.211 185.732 409.987C186.001 409.772 186.398 409.93 186.614 410.199Z" fill="#656565"/>
<path opacity="0.1489" d="M188.679 216.367L296.603 258.07C297.001 258.227 297.129 258.6 296.963 258.902C296.797 259.204 296.433 259.427 296.13 259.261L188.206 217.559C187.904 217.393 187.68 217.029 187.846 216.727C187.917 216.433 188.289 216.305 188.679 216.367Z" fill="#656565"/>
<path opacity="0.2865" d="M99.677 575.874L120.737 473.056C120.8 472.667 121.164 472.444 121.562 472.601C121.951 472.663 122.079 473.036 122.009 473.33L101.044 576.14C100.981 576.529 100.608 576.657 100.219 576.595C99.9251 576.524 99.7099 576.255 99.677 575.874Z" fill="#656565"/>
<path opacity="0.1685" d="M213.871 196.926L171.97 162.947C171.66 162.686 171.627 162.305 171.888 161.995C172.149 161.684 172.53 161.651 172.841 161.912L214.646 195.899C214.956 196.16 214.989 196.541 214.72 196.756C214.562 197.154 214.086 197.195 213.871 196.926Z" fill="#656565"/>
<path opacity="0.080652" d="M186.313 410.033L292.944 467.866C293.246 468.032 293.374 468.404 293.208 468.706C293.043 469.008 292.67 469.136 292.368 468.971L185.737 411.138C185.434 410.972 185.298 410.505 185.464 410.203C185.63 409.901 186.011 409.868 186.313 410.033Z" fill="#656565"/>
<path opacity="0.1799" d="M88.488 370.815L121.985 473.044C122.113 473.416 121.852 473.727 121.479 473.855C121.202 473.975 120.804 473.817 120.676 473.445L87.0838 371.224C86.9556 370.851 87.2085 370.445 87.5895 370.413C88.0576 370.276 88.3599 370.442 88.488 370.815Z" fill="#656565"/>
<path opacity="0.2139" d="M186.498 411.072L121.843 473.632C121.574 473.847 121.193 473.88 120.882 473.619C120.667 473.35 120.634 472.969 120.903 472.754L185.55 410.099C185.811 409.789 186.296 409.843 186.511 410.112C186.821 410.373 186.767 410.857 186.498 411.072Z" fill="#656565"/>
<path opacity="0.057505" d="M171.984 161.987L258.829 87.4389C259.098 87.2238 259.479 87.1909 259.79 87.4518C260.005 87.7209 259.943 88.11 259.681 88.4203L172.941 163.055C172.671 163.27 172.187 163.216 171.971 162.947C171.653 162.591 171.715 162.202 171.984 161.987Z" fill="#656565"/>
<path opacity="0.3629" d="M173.064 162.277L189.101 216.81C189.229 217.183 188.968 217.493 188.69 217.613C188.317 217.741 188.007 217.48 187.887 217.203L171.851 162.67C171.723 162.297 171.975 161.892 172.356 161.859C172.539 161.747 172.945 162 173.064 162.277Z" fill="#656565"/>
<path opacity="0.2854" d="M185.744 411.233L87.6008 371.658C87.2033 371.501 87.075 371.128 87.2327 370.731C87.3903 370.334 87.7631 370.206 88.0654 370.371L186.209 409.946C186.606 410.103 186.735 410.476 186.577 410.873C186.506 411.167 186.134 411.295 185.744 411.233Z" fill="#656565"/>
<path opacity="0.1311" d="M186.623 410.294L250.538 522.461C250.761 522.825 250.604 523.222 250.231 523.35C249.866 523.574 249.469 523.416 249.245 523.052L185.33 410.885C185.107 410.521 185.265 410.124 185.637 409.996C186.01 409.868 186.4 409.93 186.623 410.294Z" fill="#656565"/>
<path opacity="0.011351" d="M154.571 510.321L120.881 473.619C120.666 473.35 120.633 472.969 120.894 472.659C121.163 472.444 121.545 472.411 121.76 472.68L155.442 509.287C155.657 509.556 155.698 510.032 155.333 510.256C155.271 510.645 154.882 510.582 154.571 510.321Z" fill="#656565"/>
<path opacity="0.2718" d="M186.304 409.938L276.668 452.774C276.97 452.94 277.106 453.407 276.94 453.709C276.774 454.012 276.402 454.14 276.004 453.982L185.64 411.146C185.338 410.98 185.21 410.607 185.272 410.218C185.542 410.003 186.002 409.772 186.304 409.938Z" fill="#656565"/>
<path opacity="0.3227" d="M149.784 321.59L88.2594 371.506C87.9901 371.721 87.5055 371.667 87.2903 371.398C87.0751 371.129 87.1375 370.739 87.4068 370.524L148.923 320.513C149.192 320.298 149.677 320.352 149.892 320.621C150.203 320.882 150.148 321.366 149.784 321.59Z" fill="#656565"/>
<path opacity="0.2938" d="M150.003 320.803L186.631 410.389C186.759 410.761 186.601 411.159 186.229 411.287C185.856 411.415 185.458 411.257 185.33 410.885L148.703 321.299C148.574 320.926 148.827 320.521 149.2 320.393C149.486 320.368 149.875 320.43 150.003 320.803Z" fill="#656565"/>
<path opacity="0.203" d="M186.664 410.77L155.794 510.024C155.637 510.421 155.272 510.645 154.875 510.487C154.477 510.33 154.254 509.965 154.411 509.568L185.376 410.306C185.534 409.909 185.906 409.78 186.304 409.938C186.606 410.104 186.734 410.476 186.664 410.77Z" fill="#656565"/>
<path opacity="0.303" d="M155.235 509.113L250.02 522.025C250.409 522.088 250.632 522.452 250.57 522.841C250.508 523.23 250.143 523.454 249.849 523.383L155.065 510.471C154.675 510.408 154.357 510.052 154.419 509.663C154.49 509.369 154.846 509.051 155.235 509.113Z" fill="#656565"/>
<path opacity="0.03313" d="M292.215 556.075L154.876 510.487C154.478 510.33 154.35 509.957 154.412 509.568C154.57 509.171 154.943 509.043 155.237 509.113L292.481 554.709C292.879 554.867 293.007 555.239 292.945 555.628C292.977 556.009 292.518 556.241 292.215 556.075Z" fill="#656565"/>
<path opacity="0.2253" d="M209.817 434.379L185.537 411.059C185.226 410.799 185.28 410.314 185.55 410.099C185.819 409.884 186.2 409.851 186.511 410.112L210.878 433.329C211.188 433.589 211.134 434.074 210.873 434.384C210.604 434.599 210.128 434.64 209.817 434.379Z" fill="#656565"/>
<path opacity="0.1402" d="M276.68 454.02L155.455 510.533C155.082 510.661 154.684 510.503 154.556 510.131C154.428 509.758 154.586 509.361 154.863 509.241L276.097 452.823C276.469 452.695 276.867 452.853 276.995 453.225C277.115 453.503 276.957 453.9 276.68 454.02Z" fill="#656565"/>
<path opacity="0.1372" d="M173.019 162.856L134.718 230.524C134.561 230.922 134.084 230.963 133.687 230.805C133.289 230.648 133.248 230.172 133.406 229.774L171.81 162.193C171.976 161.891 172.444 161.755 172.755 162.016C173.049 162.086 173.177 162.459 173.019 162.856Z" fill="#656565"/>
<path opacity="0.065818" d="M149.996 320.708L210.991 433.51C211.119 433.883 210.961 434.28 210.692 434.495C210.319 434.624 209.93 434.561 209.802 434.189L148.902 321.378C148.774 321.006 148.837 320.617 149.209 320.488C149.383 320.282 149.773 320.344 149.996 320.708Z" fill="#656565"/>
<path opacity="0.2139" d="M148.694 321.204L133.351 230.259C133.318 229.878 133.571 229.473 133.952 229.44C134.333 229.407 134.643 229.668 134.771 230.041L150.019 320.994C150.052 321.375 149.799 321.78 149.418 321.813C149.132 321.838 148.727 321.585 148.694 321.204Z" fill="#656565"/>
<path opacity="0.3339" d="M210.96 434.281L155.723 510.318C155.462 510.628 154.986 510.669 154.675 510.408C154.365 510.148 154.332 509.767 154.498 509.465L209.735 433.427C209.996 433.117 210.472 433.076 210.783 433.337C211.085 433.502 211.126 433.978 210.96 434.281Z" fill="#656565"/>
<path opacity="0.1008" d="M178.439 642.157L154.35 509.957C154.317 509.576 154.57 509.17 154.951 509.138C155.332 509.105 155.642 509.366 155.762 509.643L179.852 641.843C179.885 642.224 179.632 642.63 179.251 642.663C178.973 642.783 178.568 642.53 178.439 642.157Z" fill="#656565"/>
<path opacity="0.343" d="M179.516 641.296L256.665 675.587C256.967 675.753 257.104 676.22 256.938 676.522C256.772 676.825 256.399 676.953 256.105 676.882L178.861 642.6C178.463 642.442 178.327 641.975 178.485 641.577C178.754 641.362 179.127 641.234 179.516 641.296Z" fill="#656565"/>
<path opacity="0.068237" d="M179.523 641.392L305.73 708.084C306.128 708.242 306.264 708.71 306.003 709.02C305.845 709.417 305.369 709.458 305.067 709.293L178.765 642.609C178.454 642.348 178.326 641.975 178.484 641.578C178.848 641.355 179.221 641.227 179.523 641.392Z" fill="#656565"/>
<path opacity="0.3815" d="M105.708 540.152L154.767 509.249C155.132 509.026 155.521 509.088 155.744 509.453C155.968 509.817 155.905 510.206 155.541 510.429L106.49 541.427C106.125 541.651 105.641 541.597 105.417 541.232C105.194 540.868 105.343 540.376 105.708 540.152Z" fill="#656565"/>
<path opacity="0.1459" d="M207.125 577.621L154.477 510.329C154.253 509.965 154.316 509.576 154.68 509.353C154.95 509.138 155.339 509.2 155.649 509.461L208.297 576.753C208.521 577.117 208.467 577.601 208.102 577.825C207.928 578.032 207.444 577.978 207.125 577.621Z" fill="#656565"/>
<path opacity="0.4126" d="M209.917 433.315L262.102 390.824C262.466 390.601 262.951 390.655 263.166 390.924C263.39 391.288 263.327 391.677 263.066 391.988L210.873 434.384C210.604 434.599 210.119 434.545 209.809 434.284C209.498 434.023 209.552 433.539 209.917 433.315Z" fill="#656565"/>
<path opacity="0.080264" d="M210.873 434.383L106.672 541.315C106.316 541.634 105.927 541.572 105.616 541.311C105.306 541.05 105.36 540.566 105.621 540.255L209.822 433.323C210.083 433.013 210.567 433.067 210.878 433.328C211.188 433.589 211.134 434.073 210.873 434.383Z" fill="#656565"/>
<path opacity="0.05808" d="M211.118 433.883L208.53 577.212C208.562 577.593 208.206 577.911 207.73 577.953C207.349 577.985 206.935 577.638 206.989 577.153L209.673 433.816C209.735 433.427 209.996 433.116 210.481 433.17C210.767 433.146 211.085 433.502 211.118 433.883Z" fill="#656565"/>
<path opacity="0.1271" d="M289.491 362.369L210.873 434.384C210.612 434.694 210.127 434.64 209.817 434.379C209.507 434.118 209.561 433.634 209.822 433.324L288.431 361.214C288.788 360.895 289.177 360.957 289.487 361.218C289.806 361.575 289.847 362.05 289.491 362.369Z" fill="#656565"/>
<path opacity="0.216" d="M178.654 642.426L105.513 541.224C105.29 540.86 105.344 540.375 105.709 540.152C106.073 539.929 106.462 539.991 106.781 540.347L179.93 641.645C180.153 642.009 180.099 642.493 179.735 642.717C179.267 642.853 178.877 642.791 178.654 642.426Z" fill="#656565"/>
<path opacity="0.46" d="M178.501 641.769L207.059 576.86C207.217 576.463 207.685 576.327 208.082 576.484C208.48 576.642 208.616 577.109 208.45 577.411L179.892 642.32C179.734 642.717 179.266 642.853 178.869 642.696C178.567 642.53 178.335 642.071 178.501 641.769Z" fill="#656565"/>
<path opacity="0.3535" d="M178.944 641.346L250.303 614.176C250.676 614.048 251.169 614.197 251.305 614.665C251.433 615.037 251.284 615.53 250.816 615.666L179.448 642.742C179.075 642.87 178.678 642.712 178.542 642.244C178.413 641.872 178.571 641.475 178.944 641.346Z" fill="#656565"/>
<path opacity="0.3344" d="M106.376 540.095L208.083 576.484C208.48 576.642 208.712 577.101 208.554 577.498C208.397 577.896 208.032 578.119 207.635 577.962L105.928 541.572C105.53 541.415 105.307 541.051 105.456 540.558C105.518 540.169 105.978 539.937 106.376 540.095Z" fill="#656565"/>
<path opacity="0.036604" d="M209.922 434.466L142.791 386.17C142.481 385.909 142.344 385.441 142.597 385.035C142.858 384.725 143.326 384.589 143.637 384.85L210.68 433.25C210.991 433.511 211.032 433.987 210.771 434.297C210.7 434.591 210.224 434.632 209.922 434.466Z" fill="#656565"/>
<path opacity="0.011726" d="M178.869 642.696L49.1644 566.619C48.7587 566.366 48.7176 565.89 48.9787 565.58C49.2398 565.269 49.6126 565.141 50.0101 565.299L179.62 641.384C179.93 641.645 180.059 642.017 179.901 642.415C179.64 642.725 179.172 642.861 178.869 642.696Z" fill="#656565"/>
<path opacity="0.01" d="M273.577 120.406L139.343 40.7881C138.937 40.5354 138.801 40.0676 139.062 39.7573C139.315 39.3518 139.783 39.2154 140.093 39.4763L274.24 119.198C274.646 119.451 274.679 119.832 274.521 120.229C274.355 120.531 273.887 120.667 273.577 120.406Z" fill="#656565"/>
<path opacity="0.5" d="M208.282 576.563L251.083 614.3C251.393 614.561 251.435 615.037 251.078 615.356C250.817 615.666 250.341 615.707 250.03 615.446L207.229 577.709C206.919 577.448 206.973 576.963 207.234 576.653C207.495 576.343 207.972 576.302 208.282 576.563Z" fill="#656565"/>
<path opacity="0.065112" d="M179.069 642.774L47.4029 617.318C47.0137 617.256 46.6867 616.804 46.8444 616.407C46.9067 616.018 47.3584 615.691 47.7476 615.753L179.422 641.305C179.811 641.367 180.043 641.827 179.98 642.216C179.814 642.518 179.458 642.836 179.069 642.774Z" fill="#656565"/>
<path opacity="0.5" d="M49.1367 565.182L105.701 540.057C106.074 539.929 106.567 540.078 106.695 540.451C106.823 540.823 106.673 541.316 106.301 541.444L49.7364 566.569C49.3636 566.697 48.8708 566.548 48.7427 566.175C48.6145 565.803 48.7721 565.406 49.1367 565.182Z" fill="#656565"/>
<path opacity="0.073594" d="M49.5168 565.149L207.788 576.413C208.178 576.476 208.496 576.832 208.434 577.221C208.372 577.61 208.111 577.92 207.626 577.866L49.3544 566.602C48.9651 566.54 48.6464 566.184 48.6135 565.803C48.7711 565.406 49.1275 565.087 49.5168 565.149Z" fill="#656565"/>
<path opacity="0.1931" d="M262.503 392.133L143.283 386.319C142.894 386.257 142.48 385.909 142.543 385.52C142.597 385.035 142.953 384.717 143.342 384.779L262.571 390.688C262.96 390.75 263.278 391.107 263.311 391.487C263.249 391.876 262.893 392.195 262.503 392.133Z" fill="#656565"/>
<path opacity="0.3672" d="M46.907 616.018L105.432 540.272C105.693 539.962 106.169 539.921 106.48 540.182C106.79 540.443 106.831 540.919 106.666 541.221L48.1406 616.967C47.8795 617.277 47.4114 617.414 47.0057 617.161C46.6953 616.9 46.6541 616.424 46.907 616.018Z" fill="#656565"/>
<path opacity="0.1993" d="M140.198 39.5628L249.729 122.083C250.04 122.344 250.081 122.82 249.82 123.13C249.559 123.44 249.082 123.481 248.78 123.316L139.248 40.7958C138.938 40.5349 138.802 40.0671 139.055 39.6616C139.411 39.3431 139.887 39.3019 140.198 39.5628Z" fill="#656565"/>
<path opacity="0.042831" d="M47.3654 615.787L207.598 576.43C207.979 576.397 208.384 576.65 208.513 577.022C208.546 577.403 208.38 577.705 208.007 577.833L47.7828 617.285C47.41 617.414 46.9091 617.169 46.8679 616.693C46.6445 616.329 46.8974 615.923 47.3654 615.787Z" fill="#656565"/>
<path opacity="0.307" d="M262.693 392.116L192.736 402.189C192.26 402.23 191.854 401.977 191.813 401.501C191.78 401.12 192.033 400.715 192.501 400.578L262.466 390.601C262.847 390.568 263.253 390.821 263.294 391.297C263.327 391.678 263.074 392.083 262.693 392.116Z" fill="#656565"/>
<path opacity="0.1108" d="M289.119 362.497L143.475 386.302C142.998 386.343 142.593 386.091 142.551 385.615C142.51 385.139 142.763 384.733 143.239 384.692L288.892 360.982C289.273 360.949 289.679 361.202 289.712 361.583C289.753 362.059 289.5 362.464 289.119 362.497Z" fill="#656565"/>
<path opacity="0.03827" d="M179.901 642.415L141.798 710.162C141.545 710.567 141.077 710.704 140.672 710.451C140.266 710.198 140.13 709.73 140.382 709.325L178.588 641.665C178.746 641.268 179.222 641.226 179.62 641.384C179.922 641.55 180.058 642.018 179.901 642.415Z" fill="#656565"/>
<path opacity="0.2808" d="M289.308 362.481L192.918 402.077C192.545 402.205 192.052 402.056 191.829 401.691C191.701 401.319 191.85 400.826 192.31 400.595L288.796 360.99C289.168 360.862 289.661 361.011 289.789 361.384C289.83 361.86 289.681 362.353 289.308 362.481Z" fill="#656565"/>
<path opacity="0.1657" d="M106.213 541.547L15.303 552.375C14.8267 552.416 14.4127 552.068 14.3798 551.687C14.3387 551.211 14.6867 550.797 15.0678 550.765L105.986 540.032C106.367 539.999 106.773 540.252 106.814 540.728C106.847 541.109 106.594 541.514 106.213 541.547Z" fill="#656565"/>
<path opacity="0.5" d="M46.7564 616.511L48.7172 565.89C48.7795 565.501 49.1276 565.087 49.5169 565.149C49.9062 565.212 50.3201 565.56 50.2578 565.949L48.297 616.57C48.2347 616.959 47.8865 617.372 47.4972 617.31C47.108 617.248 46.7893 616.892 46.7564 616.511Z" fill="#656565"/>
<path opacity="0.1966" d="M271.337 597.683L207.531 577.874C207.134 577.717 206.91 577.352 207.068 576.955C207.226 576.558 207.59 576.334 207.988 576.492L271.88 596.198C272.278 596.355 272.509 596.815 272.447 597.204C272.289 597.601 271.829 597.832 271.337 597.683Z" fill="#656565"/>
<path opacity="0.042161" d="M106.752 541.117L77.9693 607.867C77.8117 608.264 77.2566 608.504 76.8591 608.347C76.4616 608.189 76.2217 607.635 76.3793 607.237L105.266 540.574C105.424 540.177 105.892 540.041 106.289 540.198C106.782 540.347 106.91 540.72 106.752 541.117Z" fill="#656565"/>
<path opacity="0.027991" d="M48.2899 616.474L64.8326 784.623C64.8738 785.099 64.5174 785.418 64.1364 785.451C63.7553 785.483 63.3414 785.135 63.3085 784.755L46.7657 616.605C46.7246 616.129 47.081 615.811 47.462 615.778C47.9383 615.737 48.2488 615.998 48.2899 616.474Z" fill="#656565"/>
<path opacity="0.044765" d="M280.754 101.275L139.447 40.8749C139.05 40.7174 138.914 40.2496 139.071 39.8523C139.229 39.455 139.697 39.3187 140.094 39.4762L281.401 99.8759C281.799 100.033 282.03 100.493 281.777 100.898C281.62 101.296 281.152 101.432 280.754 101.275Z" fill="#656565"/>
<path opacity="0.1159" d="M147.767 634.832L207.234 576.653C207.495 576.343 207.98 576.397 208.29 576.658C208.6 576.919 208.546 577.403 208.285 577.714L148.922 635.979C148.565 636.298 148.081 636.244 147.77 635.983C147.356 635.635 147.411 635.151 147.767 634.832Z" fill="#656565"/>
<path opacity="0.2018" d="M192.598 400.57L331.418 415.529C331.807 415.591 332.126 415.947 332.072 416.431C332.01 416.82 331.653 417.139 331.169 417.085L192.348 402.126C191.864 402.072 191.64 401.708 191.599 401.232C191.852 400.826 192.208 400.508 192.598 400.57Z" fill="#656565"/>
<path opacity="0.5" d="M142.99 386.248L74.2952 356.503C73.8977 356.345 73.7531 355.782 73.9189 355.48C74.0766 355.083 74.5447 354.946 74.9422 355.104L143.637 384.85C144.034 385.007 144.266 385.467 144.013 385.872C143.855 386.269 143.387 386.406 142.99 386.248Z" fill="#656565"/>
<path opacity="0.5" d="M143.533 384.763L192.788 400.554C193.185 400.711 193.417 401.171 193.259 401.568C193.102 401.965 192.642 402.197 192.244 402.039L142.99 386.248C142.592 386.091 142.361 385.631 142.518 385.234C142.676 384.837 143.144 384.701 143.533 384.763Z" fill="#656565"/>
<path opacity="0.5" d="M49.1636 566.618L14.818 552.321C14.4205 552.163 14.1806 551.609 14.4335 551.203C14.5911 550.806 15.0509 550.574 15.4484 550.732L49.8023 565.124C50.1998 565.282 50.4315 565.741 50.1786 566.147C50.0292 566.639 49.5611 566.776 49.1636 566.618Z" fill="#656565"/>
<path opacity="0.1407" d="M148.131 634.609L250.399 614.168C250.772 614.039 251.185 614.387 251.314 614.76C251.442 615.133 251.094 615.546 250.721 615.674L148.461 636.211C147.985 636.252 147.579 635.999 147.538 635.523C147.497 635.047 147.75 634.642 148.131 634.609Z" fill="#656565"/>
<path opacity="0.041783" d="M48.2883 616.474L69.8291 785.822C69.8702 786.298 69.5221 786.712 69.1411 786.745C68.76 786.778 68.3543 786.525 68.2179 786.057L46.677 616.709C46.6359 616.233 46.9923 615.915 47.3733 615.882C47.8414 615.745 48.2471 615.998 48.2883 616.474Z" fill="#656565"/>
<path opacity="0.2726" d="M192.251 402.134L74.2941 356.502C73.8966 356.345 73.6649 355.885 73.8226 355.488C73.9802 355.091 74.44 354.859 74.8375 355.017L192.795 400.648C193.192 400.806 193.424 401.266 193.266 401.663C193.109 402.06 192.649 402.292 192.251 402.134Z" fill="#656565"/>
<path opacity="0.040601" d="M147.9 838.545L140.225 709.722C140.184 709.246 140.532 708.832 141.017 708.886C141.493 708.845 141.812 709.201 141.853 709.677L149.432 838.508C149.473 838.984 149.117 839.303 148.736 839.336C148.251 839.282 147.933 838.926 147.9 838.545Z" fill="#656565"/>
<path opacity="0.5" d="M123.567 418.044L142.7 385.122C142.953 384.717 143.421 384.581 143.732 384.841C144.138 385.094 144.274 385.562 144.021 385.967L124.983 418.881C124.73 419.286 124.254 419.327 123.848 419.075C123.451 418.917 123.314 418.449 123.567 418.044Z" fill="#656565"/>
<path opacity="0.4685" d="M46.7896 616.891L14.4048 551.973C14.1813 551.608 14.3307 551.116 14.7906 550.884C15.1552 550.661 15.6479 550.81 15.8796 551.27L48.2727 616.283C48.4962 616.648 48.2515 617.148 47.8869 617.372C47.5059 617.405 47.0131 617.255 46.7896 616.891Z" fill="#656565"/>
<path opacity="0.031721" d="M49.9156 565.307L148.72 634.75C149.126 635.003 149.175 635.574 148.914 635.884C148.661 636.29 148.09 636.339 147.779 636.078L48.9664 566.54C48.6559 566.279 48.5195 565.811 48.8759 565.493C49.1288 565.087 49.6051 565.046 49.9156 565.307Z" fill="#656565"/>
<path opacity="0.2873" d="M87.5741 782.37L140.374 709.229C140.635 708.919 141.207 708.87 141.517 709.131C141.827 709.391 141.869 709.868 141.703 710.17L88.903 783.311C88.6419 783.621 88.1738 783.757 87.7599 783.41C87.4494 783.149 87.4083 782.673 87.5741 782.37Z" fill="#656565"/>
<path opacity="0.1706" d="M48.0572 616.015L141.613 709.123C141.931 709.479 141.972 709.955 141.616 710.273C141.26 710.592 140.783 710.633 140.465 710.277L46.9963 617.065C46.6777 616.709 46.6365 616.233 46.9929 615.915C47.2622 615.7 47.7385 615.658 48.0572 616.015Z" fill="#656565"/>
<path opacity="0.3004" d="M50.1207 565.48L77.8936 607.01C78.117 607.374 78.0629 607.859 77.6113 608.185C77.2467 608.409 76.7622 608.355 76.4435 607.998L48.7575 566.365C48.5341 566.001 48.6835 565.508 49.0481 565.285C49.4127 565.062 49.8972 565.116 50.1207 565.48Z" fill="#656565"/>
<path opacity="0.2175" d="M63.4406 784.072L140.453 709.031C140.809 708.712 141.294 708.766 141.604 709.027C141.923 709.383 141.869 709.868 141.608 710.178L64.5872 785.124C64.2308 785.442 63.7463 785.388 63.4358 785.128C63.1254 784.867 63.1795 784.382 63.4406 784.072Z" fill="#656565"/>
<path opacity="0.4949" d="M123.555 419.003L73.8981 356.344C73.6747 355.98 73.7288 355.496 74.0934 355.272C74.458 355.049 74.9425 355.103 75.1577 355.372L124.814 418.031C125.133 418.387 124.984 418.88 124.722 419.19C124.358 419.414 123.873 419.359 123.555 419.003Z" fill="#656565"/>
<path opacity="0.5" d="M142.558 385.709L131.75 329.478C131.613 329.01 131.961 328.596 132.438 328.555C132.914 328.514 133.32 328.767 133.361 329.243L144.169 385.474C144.21 385.95 143.958 386.356 143.576 386.389C143.005 386.438 142.591 386.09 142.558 385.709Z" fill="#656565"/>
<path opacity="0.5" d="M124.018 417.717L192.31 400.595C192.778 400.459 193.184 400.711 193.32 401.179C193.457 401.647 193.204 402.052 192.736 402.189L124.443 419.311C123.975 419.447 123.569 419.195 123.433 418.727C123.297 418.259 123.549 417.854 124.018 417.717Z" fill="#656565"/>
<path opacity="0.1392" d="M238.334 812.22L140.464 710.277C140.146 709.921 140.2 709.437 140.556 709.118C140.913 708.8 141.397 708.854 141.708 709.114L239.49 811.161C239.809 811.517 239.755 812.002 239.494 812.312C239.129 812.535 238.653 812.576 238.334 812.22Z" fill="#656565"/>
<path opacity="0.1804" d="M47.6524 615.762L148.418 634.584C148.902 634.638 149.134 635.098 149.08 635.582C149.026 636.066 148.566 636.298 148.081 636.244L47.3077 617.327C46.9184 617.264 46.5915 616.813 46.6539 616.424C46.8033 615.931 47.2631 615.7 47.6524 615.762Z" fill="#656565"/>
<path opacity="0.4299" d="M47.2716 615.795L77.0053 606.704C77.4734 606.568 77.8791 606.82 78.0155 607.288C78.1519 607.756 77.899 608.161 77.4309 608.298L47.6889 617.294C47.3161 617.422 46.8151 617.177 46.687 616.805C46.6459 616.329 46.8987 615.923 47.2716 615.795Z" fill="#656565"/>
<path opacity="0.4967" d="M132.857 330.054L74.8753 356.548C74.5025 356.676 74.0098 356.527 73.7864 356.163C73.5629 355.798 73.8076 355.298 74.1722 355.074L132.058 328.588C132.423 328.365 132.924 328.609 133.147 328.974C133.371 329.338 133.221 329.831 132.857 330.054Z" fill="#656565"/>
<path opacity="0.4332" d="M133.129 328.784L193.2 400.901C193.519 401.258 193.465 401.742 193.108 402.06C192.752 402.379 192.267 402.325 191.949 401.969L131.886 329.946C131.567 329.59 131.717 329.097 132.073 328.779C132.334 328.469 132.81 328.427 133.129 328.784Z" fill="#656565"/>
<path opacity="0.364" d="M68.4466 785.366L140.461 709.126C140.817 708.808 141.302 708.862 141.612 709.123C141.923 709.384 141.869 709.868 141.608 710.178L69.5931 786.418C69.332 786.728 68.7604 786.778 68.4418 786.422C68.2348 786.248 68.1855 785.676 68.4466 785.366Z" fill="#656565"/>
<path opacity="0.041034" d="M124.896 418.984L15.8503 552.04C15.5892 552.35 15.0176 552.4 14.7071 552.139C14.3967 551.878 14.2521 551.315 14.6084 550.996L123.559 417.948C123.82 417.638 124.392 417.589 124.702 417.85C125.108 418.102 125.157 418.674 124.896 418.984Z" fill="#656565"/>
<path opacity="0.483" d="M123.409 418.44L131.639 329.296C131.693 328.811 132.153 328.58 132.542 328.642C132.932 328.704 133.25 329.06 133.283 329.441L125.053 418.586C124.999 419.07 124.539 419.302 124.15 419.24C123.666 419.186 123.442 418.821 123.409 418.44Z" fill="#656565"/>
<path opacity="0.2959" d="M148.036 634.617L271.3 596.152C271.768 596.016 272.174 596.269 272.302 596.641C272.438 597.109 272.186 597.515 271.813 597.643L148.549 636.108C148.081 636.244 147.675 635.991 147.538 635.524C147.41 635.151 147.663 634.745 148.036 634.617Z" fill="#656565"/>
<path opacity="0.053261" d="M304.287 748.013L140.871 710.529C140.474 710.372 140.155 710.016 140.304 709.523C140.367 709.134 140.818 708.807 141.216 708.965L304.632 746.449C305.029 746.607 305.356 747.058 305.199 747.455C305.136 747.844 304.676 748.076 304.287 748.013Z" fill="#656565"/>
<path opacity="0.4922" d="M76.6431 608.077L14.6115 552.147C14.301 551.886 14.2517 551.314 14.5128 551.004C14.7739 550.694 15.3455 550.644 15.656 550.905L77.7828 606.828C78.1014 607.184 78.1426 607.66 77.8815 607.97C77.5333 608.384 77.057 608.425 76.6431 608.077Z" fill="#656565"/>
<path opacity="0.5" d="M149.166 635.479L141.861 709.773C141.806 710.257 141.45 710.576 140.965 710.522C140.481 710.467 140.162 710.111 140.216 709.627L147.522 635.333C147.576 634.849 148.027 634.522 148.417 634.584C148.806 634.646 149.125 635.003 149.166 635.479Z" fill="#656565"/>
<path opacity="0.4329" d="M179.783 571.064L271.872 596.103C272.269 596.26 272.501 596.72 272.343 597.117C272.186 597.514 271.821 597.738 271.432 597.675L179.351 572.732C178.858 572.582 178.627 572.123 178.784 571.726C178.838 571.241 179.298 571.01 179.783 571.064Z" fill="#656565"/>
<path opacity="0.3063" d="M140.354 710.095L76.5324 607.895C76.309 607.531 76.4584 607.039 76.8148 606.72C77.1794 606.497 77.6721 606.646 77.8955 607.01L141.725 709.305C141.949 709.669 141.799 710.162 141.435 710.385C141.07 710.608 140.578 710.459 140.354 710.095Z" fill="#656565"/>
<path opacity="0.1563" d="M215.292 592.167L141.695 710.075C141.442 710.48 140.966 710.521 140.56 710.269C140.154 710.016 140.113 709.54 140.271 709.143L213.868 591.235C214.121 590.829 214.692 590.78 215.003 591.041C215.417 591.388 215.553 591.856 215.292 592.167Z" fill="#656565"/>
<path opacity="0.1356" d="M180.357 572.165L141.782 709.971C141.624 710.368 141.173 710.695 140.775 710.538C140.378 710.38 140.051 709.929 140.208 709.531L178.689 571.734C178.838 571.241 179.298 571.01 179.695 571.167C180.18 571.221 180.507 571.672 180.357 572.165Z" fill="#656565"/>
<path opacity="0.112" d="M54.557 856.776L140.373 709.23C140.626 708.824 141.102 708.783 141.5 708.94C141.906 709.193 142.042 709.661 141.789 710.066L55.9648 857.518C55.7119 857.923 55.2438 858.06 54.8381 857.807C54.4406 857.649 54.3042 857.182 54.557 856.776Z" fill="#656565"/>
<path opacity="0.074444" d="M281.42 101.217L168.299 172.664C167.934 172.887 167.355 172.842 167.123 172.382C166.899 172.018 167.041 171.43 167.405 171.207L280.629 99.8469C280.994 99.6236 281.479 99.6776 281.71 100.137C281.934 100.502 281.784 100.994 281.42 101.217Z" fill="#656565"/>
<path opacity="0.022743" d="M68.5335 785.262L166.314 706.221C166.671 705.902 167.251 705.948 167.474 706.313C167.793 706.669 167.747 707.248 167.382 707.472L69.6013 786.513C69.2367 786.736 68.7521 786.682 68.4335 786.326C68.2183 786.057 68.2724 785.573 68.5335 785.262Z" fill="#656565"/>
<path opacity="0.5" d="M147.976 636.156L76.9448 608.243C76.5473 608.086 76.3074 607.531 76.465 607.134C76.6226 606.736 77.0825 606.505 77.48 606.662L148.512 634.575C148.909 634.733 149.141 635.192 148.991 635.685C148.929 636.074 148.469 636.306 147.976 636.156Z" fill="#656565"/>
<path opacity="0.1628" d="M166.235 706.42L271.03 596.367C271.386 596.048 271.863 596.007 272.181 596.363C272.5 596.719 272.541 597.195 272.185 597.514L167.485 707.558C167.129 707.877 166.653 707.918 166.239 707.57C165.92 707.214 165.974 706.73 166.235 706.42Z" fill="#656565"/>
<path opacity="0.5" d="M215.032 592.477L148.74 636.091C148.375 636.314 147.891 636.26 147.564 635.809C147.341 635.444 147.395 634.96 147.846 634.633L214.138 591.019C214.503 590.796 215.082 590.842 215.314 591.301C215.538 591.666 215.492 592.245 215.032 592.477Z" fill="#656565"/>
<path opacity="0.5" d="M180.27 572.269L149 635.781C148.842 636.178 148.279 636.322 147.881 636.165C147.476 635.912 147.339 635.444 147.497 635.047L178.767 571.535C179.02 571.13 179.488 570.993 179.886 571.151C180.291 571.404 180.523 571.863 180.27 572.269Z" fill="#656565"/>
<path opacity="0.2294" d="M214.753 592.597L77.3346 608.306C76.8583 608.347 76.4443 607.999 76.4985 607.515C76.4656 607.134 76.8137 606.72 77.1948 606.687L214.613 590.978C215.09 590.937 215.504 591.285 215.545 591.761C215.482 592.15 215.134 592.564 214.753 592.597Z" fill="#656565"/>
<path opacity="0.1824" d="M149.848 550.055L271.872 596.103C272.27 596.26 272.501 596.72 272.344 597.117C272.186 597.514 271.726 597.746 271.329 597.588L149.313 551.636C148.916 551.478 148.684 551.019 148.833 550.526C148.991 550.129 149.451 549.898 149.848 550.055Z" fill="#656565"/>
<path opacity="0.3888" d="M179.827 572.69L77.5256 608.289C77.0575 608.425 76.6518 608.173 76.5154 607.705C76.3872 607.332 76.6319 606.832 77.0047 606.703L179.307 571.105C179.775 570.968 180.18 571.221 180.404 571.585C180.54 572.053 180.296 572.554 179.827 572.69Z" fill="#656565"/>
<path opacity="0.1599" d="M148.683 551.018L123.426 418.631C123.385 418.155 123.638 417.75 124.114 417.708C124.59 417.667 124.996 417.92 125.037 418.396L150.39 550.775C150.526 551.243 150.178 551.656 149.71 551.793C149.234 551.834 148.82 551.486 148.683 551.018Z" fill="#656565"/>
<path opacity="0.5" d="M166.93 707.798L141.06 710.513C140.584 710.554 140.17 710.206 140.137 709.825C140.096 709.349 140.444 708.936 140.825 708.903L166.687 706.093C167.163 706.052 167.577 706.4 167.618 706.876C167.754 707.343 167.406 707.757 166.93 707.798Z" fill="#656565"/>
<path opacity="0.5" d="M179.981 571.143L215.098 591.032C215.504 591.285 215.64 591.753 215.387 592.158C215.135 592.564 214.666 592.7 214.261 592.448L179.239 572.55C178.834 572.297 178.697 571.829 178.95 571.424C179.021 571.13 179.584 570.985 179.981 571.143Z" fill="#656565"/>
<path opacity="0.098326" d="M161.618 468.565L191.876 401.112C192.034 400.714 192.493 400.483 192.899 400.736C193.297 400.893 193.528 401.353 193.275 401.758L163.216 469.29C162.963 469.695 162.503 469.927 162.002 469.683C161.597 469.43 161.46 468.962 161.618 468.565Z" fill="#656565"/>
<path opacity="0.1901" d="M304.192 748.022L166.646 707.823C166.153 707.674 165.922 707.214 166.079 706.817C166.229 706.325 166.688 706.093 167.086 706.25L304.64 746.544C305.038 746.702 305.269 747.161 305.112 747.559C305.041 747.853 304.581 748.084 304.192 748.022Z" fill="#656565"/>
<path opacity="0.034458" d="M131.717 329.097L167.066 171.715C167.215 171.223 167.675 170.991 168.072 171.149C168.47 171.306 168.789 171.662 168.735 172.146L133.291 329.537C133.228 329.926 132.777 330.252 132.284 330.103C131.886 329.946 131.568 329.59 131.717 329.097Z" fill="#656565"/>
<path opacity="0.5" d="M149.141 635.193L167.705 706.772C167.842 707.24 167.589 707.646 167.121 707.782C166.653 707.918 166.247 707.666 166.111 707.198L147.546 635.618C147.41 635.15 147.663 634.745 148.131 634.609C148.503 634.481 149.004 634.725 149.141 635.193Z" fill="#656565"/>
<path opacity="0.2387" d="M166.239 707.571L76.643 608.078C76.3243 607.722 76.3784 607.238 76.7348 606.919C77.0912 606.601 77.5756 606.655 77.8943 607.011L167.586 706.495C167.905 706.851 167.859 707.431 167.502 707.749C167.129 707.878 166.55 707.832 166.239 707.571Z" fill="#656565"/>
<path opacity="0.087062" d="M329.234 139.193L168.023 172.784C167.555 172.92 167.141 172.572 167.005 172.105C166.868 171.637 167.217 171.223 167.685 171.087L328.903 137.591C329.38 137.55 329.785 137.803 329.826 138.279C329.963 138.747 329.615 139.161 329.234 139.193Z" fill="#656565"/>
<path opacity="0.4276" d="M150.398 550.87L149.158 635.383C149.103 635.867 148.747 636.186 148.271 636.227C147.786 636.173 147.468 635.817 147.426 635.341L148.666 550.828C148.721 550.344 149.077 550.025 149.553 549.984C150.038 550.038 150.452 550.386 150.398 550.87Z" fill="#656565"/>
<path opacity="0.3772" d="M150.075 551.57L77.708 608.177C77.3516 608.496 76.8589 608.347 76.5402 607.991C76.2215 607.634 76.3709 607.142 76.632 606.832L148.904 550.232C149.268 550.009 149.848 550.054 150.072 550.419C150.486 550.767 150.431 551.251 150.075 551.57Z" fill="#656565"/>
<path opacity="0.3467" d="M215.378 592.063L167.651 707.256C167.494 707.654 166.939 707.893 166.541 707.736C166.144 707.578 165.904 707.024 166.061 706.626L213.788 591.433C213.946 591.036 214.501 590.796 214.899 590.953C215.4 591.198 215.536 591.666 215.378 592.063Z" fill="#656565"/>
<path opacity="0.2826" d="M180.342 571.975L167.732 707.058C167.677 707.543 167.226 707.869 166.741 707.815C166.352 707.753 165.938 707.405 165.992 706.921L178.698 571.829C178.752 571.345 179.204 571.018 179.696 571.168C180.086 571.23 180.404 571.586 180.342 571.975Z" fill="#656565"/>
<path opacity="0.5" d="M150.046 550.134L215.097 591.032C215.503 591.285 215.639 591.753 215.386 592.158C215.133 592.564 214.665 592.7 214.26 592.448L149.208 551.549C148.802 551.296 148.753 550.725 149.006 550.319C149.172 550.017 149.648 549.976 150.046 550.134Z" fill="#656565"/>
<path opacity="0.5" d="M179.048 572.566L149.017 551.566C148.612 551.313 148.562 550.742 148.815 550.336C149.068 549.931 149.64 549.881 150.045 550.134L179.989 571.238C180.394 571.491 180.444 572.062 180.182 572.372C179.93 572.778 179.453 572.819 179.048 572.566Z" fill="#656565"/>
<path opacity="0.1913" d="M124.909 418.024L163.134 468.338C163.452 468.694 163.311 469.282 162.955 469.6C162.598 469.919 162.01 469.778 161.692 469.422L123.554 419.004C123.33 418.64 123.384 418.156 123.749 417.932C124.105 417.614 124.59 417.668 124.909 418.024Z" fill="#656565"/>
<path opacity="0.026569" d="M133.258 329.156L163.262 468.711C163.398 469.178 163.058 469.687 162.582 469.728C162.114 469.865 161.605 469.525 161.563 469.049L131.75 329.478C131.709 329.002 131.962 328.597 132.438 328.556C132.811 328.427 133.217 328.68 133.258 329.156Z" fill="#656565"/>
<path opacity="0.1366" d="M179.592 571.081L317.248 573.671C317.732 573.725 318.051 574.081 318.092 574.557C318.038 575.041 317.681 575.36 317.205 575.401L179.541 572.716C179.056 572.662 178.738 572.305 178.792 571.821C178.854 571.432 179.115 571.122 179.592 571.081Z" fill="#656565"/>
<path opacity="0.1528" d="M150.391 550.775L167.715 706.868C167.756 707.344 167.408 707.757 166.932 707.799C166.455 707.84 166.041 707.492 166 707.016L148.676 550.924C148.635 550.448 148.983 550.034 149.459 549.993C149.935 549.951 150.349 550.299 150.391 550.775Z" fill="#656565"/>
<path opacity="0.033739" d="M124.895 418.984L60.8175 512.666C60.5646 513.072 59.9931 513.121 59.5874 512.869C59.1816 512.616 59.1323 512.045 59.3852 511.639L123.566 418.044C123.819 417.638 124.39 417.589 124.701 417.85C125.011 418.111 125.148 418.579 124.895 418.984Z" fill="#656565"/>
<path opacity="0.054849" d="M-27.6497 655.071L14.4419 551.299C14.5996 550.901 15.0594 550.67 15.4569 550.827C15.8544 550.985 16.0861 551.444 15.9284 551.842L-25.9645 655.693C-26.1139 656.185 -26.6773 656.33 -27.1701 656.18C-27.5676 656.023 -27.7991 655.563 -27.6497 655.071Z" fill="#656565"/>
<path opacity="0.1225" d="M163.245 468.52L215.416 591.389C215.552 591.857 215.403 592.349 214.935 592.485C214.467 592.622 213.974 592.473 213.838 592.005L161.571 469.145C161.339 468.685 161.584 468.184 162.044 467.953C162.52 467.912 163.013 468.061 163.245 468.52Z" fill="#656565"/>
<path opacity="0.2398" d="M178.713 572.019L161.563 469.049C161.522 468.573 161.87 468.159 162.347 468.118C162.823 468.077 163.229 468.33 163.27 468.806L180.428 571.871C180.469 572.347 180.121 572.761 179.645 572.802C179.255 572.74 178.85 572.487 178.713 572.019Z" fill="#656565"/>
<path opacity="0.086695" d="M60.9505 511.983L78.022 607.383C78.1584 607.851 77.8102 608.264 77.3339 608.306C76.8576 608.347 76.4519 608.094 76.4108 607.618L59.2522 512.322C59.2111 511.846 59.4557 511.345 60.0273 511.296C60.4001 511.168 60.9093 511.507 60.9505 511.983Z" fill="#656565"/>
<path opacity="0.2125" d="M-27.1197 654.545L76.9084 606.712C77.273 606.488 77.774 606.733 77.9974 607.097C78.2209 607.462 77.9762 607.962 77.6116 608.186L-26.4001 656.209C-26.8599 656.441 -27.3609 656.196 -27.5925 655.737C-27.8242 655.277 -27.5795 654.777 -27.1197 654.545Z" fill="#656565"/>
<path opacity="0.4554" d="M148.753 550.725L161.538 468.764C161.592 468.28 162.044 467.953 162.537 468.102C163.021 468.156 163.253 468.616 163.199 469.1L150.318 551.069C150.264 551.554 149.813 551.88 149.32 551.731C148.922 551.574 148.699 551.209 148.753 550.725Z" fill="#656565"/>
<path opacity="0.070099" d="M161.87 468.159L310.022 366.734C310.386 366.51 310.966 366.556 311.19 366.921C311.413 367.285 311.367 367.864 311.003 368.088L162.859 469.608C162.494 469.832 161.906 469.691 161.683 469.326C161.459 468.962 161.514 468.478 161.87 468.159Z" fill="#656565"/>
<path opacity="0.3812" d="M149.218 551.644L59.7878 512.947C59.2868 512.703 59.1504 512.235 59.2998 511.743C59.4574 511.345 60.0126 511.106 60.4101 511.263L149.849 550.055C150.246 550.212 150.486 550.767 150.328 551.165C150.179 551.657 149.624 551.897 149.218 551.644Z" fill="#656565"/>
<path opacity="0.1154" d="M180.097 572.475L155.531 596.946C155.174 597.264 154.603 597.314 154.189 596.966C153.87 596.61 153.821 596.038 154.169 595.625L178.934 571.233C179.29 570.914 179.775 570.968 180.085 571.229C180.412 571.68 180.453 572.156 180.097 572.475Z" fill="#656565"/>
<path opacity="0.056221" d="M168.3 172.664L28.3612 259.184C27.9013 259.416 27.4086 259.267 27.0899 258.911C26.8583 258.451 27.0077 257.959 27.3641 257.64L167.311 171.215C167.675 170.991 168.255 171.037 168.487 171.497C168.909 171.94 168.759 172.432 168.3 172.664Z" fill="#656565"/>
<path opacity="0.4455" d="M162.773 469.712L60.4622 512.985C59.9941 513.121 59.5014 512.972 59.2697 512.512C59.1333 512.045 59.2827 511.552 59.7508 511.416L162.061 468.143C162.53 468.007 163.022 468.156 163.159 468.624C163.382 468.988 163.137 469.489 162.773 469.712Z" fill="#656565"/>
<path opacity="0.2833" d="M150.39 550.775L155.759 596.255C155.8 596.731 155.46 597.24 154.984 597.281C154.507 597.322 153.998 596.983 153.957 596.506L148.684 551.019C148.642 550.543 148.991 550.129 149.467 550.088C149.935 549.951 150.349 550.299 150.39 550.775Z" fill="#656565"/>
<path opacity="0.1056" d="M163.379 337.872L310.69 366.677C311.174 366.731 311.501 367.182 311.352 367.674C311.298 368.159 310.846 368.485 310.353 368.336L163.051 339.627C162.558 339.478 162.231 339.026 162.381 338.534C162.443 338.145 162.895 337.818 163.379 337.872Z" fill="#656565"/>
<path opacity="0.082425" d="M317.301 575.392L154.983 597.281C154.507 597.322 153.998 596.982 154.044 596.403C154.002 595.927 154.351 595.513 154.827 595.472L317.152 573.679C317.629 573.638 318.043 573.986 318.084 574.462C318.117 574.842 317.777 575.351 317.301 575.392Z" fill="#656565"/>
<path opacity="0.153" d="M-27.5618 654.967L59.3947 511.734C59.6476 511.329 60.2109 511.184 60.6166 511.437C61.0224 511.69 61.167 512.253 60.9141 512.658L-25.9471 655.883C-26.2 656.288 -26.7634 656.433 -27.1773 656.085C-27.6783 655.841 -27.7194 655.365 -27.5618 654.967Z" fill="#656565"/>
<path opacity="0.2092" d="M164.128 338.766L163.279 468.901C163.225 469.385 162.877 469.799 162.392 469.745C161.908 469.691 161.589 469.335 161.548 468.859L162.302 338.732C162.356 338.248 162.8 337.826 163.284 337.88C163.769 337.934 164.087 338.29 164.128 338.766Z" fill="#656565"/>
<path opacity="0.2724" d="M163.279 468.901L155.767 596.35C155.713 596.834 155.27 597.256 154.785 597.202C154.3 597.148 153.982 596.792 153.941 596.316L161.548 468.859C161.602 468.374 162.053 468.048 162.538 468.102C162.919 468.069 163.246 468.52 163.279 468.901Z" fill="#656565"/>
<path opacity="0.2905" d="M154.292 597.053L59.5883 512.868C59.2696 512.512 59.2203 511.941 59.5766 511.623C59.933 511.304 60.4093 511.263 60.8151 511.516L155.511 595.605C155.925 595.953 155.974 596.524 155.626 596.938C155.278 597.352 154.611 597.409 154.292 597.053Z" fill="#656565"/>
<path opacity="0.2067" d="M162.756 339.556L27.496 259.163C27.0903 258.91 26.9456 258.347 27.1985 257.942C27.4514 257.536 28.0147 257.392 28.4205 257.644L163.681 338.037C164.087 338.29 164.231 338.853 163.978 339.259C163.725 339.664 163.162 339.809 162.756 339.556Z" fill="#656565"/>
<path opacity="0.055186" d="M154.541 595.497L332.272 520.962C332.732 520.73 333.233 520.975 333.464 521.434C333.601 521.902 333.451 522.394 332.991 522.626L155.26 597.161C154.792 597.297 154.196 597.061 154.06 596.593C153.931 596.221 154.081 595.728 154.541 595.497Z" fill="#656565"/>
<path opacity="0.011578" d="M307.613 331.069L163.249 339.705C162.773 339.746 162.351 339.303 162.31 338.827C162.269 338.351 162.617 337.937 163.188 337.888L307.536 329.062C308.107 329.013 308.529 329.456 308.579 330.027C308.62 330.503 308.185 331.02 307.613 331.069Z" fill="#656565"/>
<path opacity="0.2022" d="M266.019 433.936L219.362 444.873L205.743 426.099L266.019 433.936Z" fill="#656565"/>
<path opacity="0.082511" d="M179.192 641.996L207.758 577.183L250.559 614.921L179.192 641.996Z" fill="#656565"/>
<path opacity="0.1933" d="M47.5276 616.54L49.4884 565.919L106.053 540.794L47.5276 616.54Z" fill="#656565"/>
<path opacity="0.208" d="M47.5276 616.54L49.4884 565.919L15.1426 551.622L47.5276 616.54Z" fill="#656565"/>
<path opacity="0.2636" d="M124.179 418.471L143.312 385.549L192.567 401.34L124.179 418.471Z" fill="#656565"/>
<path opacity="0.2636" d="M124.179 418.471L143.312 385.549L192.567 401.34L124.179 418.471Z" fill="#656565"/>
<path opacity="0.2636" d="M124.179 418.471L143.312 385.549L192.567 401.34L124.179 418.471Z" fill="#656565"/>
<path opacity="0.1721" d="M143.312 385.549L132.504 329.317L74.5225 355.811L143.312 385.549Z" fill="#656565"/>
<path opacity="0.1721" d="M143.312 385.549L132.504 329.317L74.5225 355.811L143.312 385.549Z" fill="#656565"/>
<path opacity="0.1721" d="M143.312 385.549L132.504 329.317L74.5225 355.811L143.312 385.549Z" fill="#656565"/>
<path opacity="0.1037" d="M124.179 418.47L132.504 329.317L74.5224 355.811L124.179 418.47Z" fill="#656565"/>
<path opacity="0.2491" d="M179.57 571.945L214.584 591.748L271.651 596.889L179.57 571.945Z" fill="#656565"/>
<path opacity="0.1591" d="M179.57 571.945L148.292 635.362L77.2602 607.449L179.57 571.945Z" fill="#656565"/>
<path opacity="0.2" d="M148.291 635.362L166.856 706.942L140.986 709.656L148.291 635.362Z" fill="#656565"/>
<path opacity="0.2" d="M148.291 635.362L166.856 706.942L140.986 709.656L148.291 635.362Z" fill="#656565"/>
<path opacity="0.088929" d="M214.584 591.748L148.292 635.362L166.857 706.942L214.584 591.748Z" fill="#656565"/>
<path opacity="0.1352" d="M149.533 550.85L214.585 591.749L148.293 635.362L149.533 550.85Z" fill="#656565"/>
<path opacity="0.2739" d="M179.572 571.946L149.533 550.85L214.585 591.749L179.572 571.946Z" fill="#656565"/>
<path opacity="0.2739" d="M179.572 571.946L149.533 550.85L214.585 591.749L179.572 571.946Z" fill="#656565"/>
<rect width="208" height="723" transform="matrix(-1 0 0 1 208 21)" fill="url(#paint0_linear)"/>
</g>
<defs>
<linearGradient id="paint0_linear" x1="72.1156" y1="4.63903e-06" x2="-196.491" y2="603.436" gradientUnits="userSpaceOnUse">
<stop stop-color="#090909" stop-opacity="0.4"/>
<stop offset="0.96875" stop-color="#090909"/>
</linearGradient>
<clipPath id="clip0">
<rect width="208" height="738" fill="white" transform="matrix(-1 0 0 1 208 0)"/>
</clipPath>
</defs>
</svg>
