<svg width="399" height="738" viewBox="0 0 399 738" fill="none" xmlns="http://www.w3.org/2000/svg">
<g clip-path="url(#clip0)">
<path opacity="0.5" d="M142.982 515.647C141.958 516.046 140.805 515.54 140.406 514.517C140.006 513.494 140.513 512.34 141.537 511.941C142.561 511.542 143.714 512.047 144.113 513.071C144.513 514.094 144.006 515.247 142.982 515.647Z" fill="#616161"/>
<path opacity="0.5" d="M173.73 391.042C172.71 391.44 172.201 392.599 172.599 393.618C172.996 394.637 174.156 395.146 175.176 394.748C176.195 394.35 176.704 393.191 176.307 392.172C175.909 391.153 174.75 390.645 173.73 391.042Z" fill="#616161"/>
<path opacity="0.5" d="M162.071 620.703C160.996 621.123 159.785 620.592 159.366 619.517C158.947 618.443 159.478 617.232 160.553 616.812C161.628 616.393 162.84 616.924 163.259 617.998C163.678 619.073 163.146 620.284 162.071 620.703Z" fill="#616161"/>
<path opacity="0.5" d="M149.808 592.825C148.732 593.244 147.521 592.713 147.102 591.639C146.683 590.565 147.215 589.354 148.29 588.934C149.365 588.515 150.576 589.046 150.995 590.12C151.414 591.195 150.883 592.406 149.808 592.825Z" fill="#616161"/>
<path opacity="0.5" d="M0.727209 518.945C-0.385142 519.379 -0.89415 520.538 -0.460487 521.65C-0.0268245 522.761 1.13268 523.269 2.24503 522.836C3.35738 522.402 3.86641 521.242 3.43275 520.131C2.99909 519.019 1.74686 518.547 0.727209 518.945Z" fill="#616161"/>
<path opacity="0.5" d="M54.0358 440.404C52.9235 440.838 52.4145 441.997 52.8481 443.108C53.2818 444.22 54.4413 444.728 55.5537 444.295C56.666 443.861 57.1389 442.609 56.7413 441.59C56.3077 440.478 55.0555 440.006 54.0358 440.404Z" fill="#616161"/>
<path opacity="0.5" d="M71.6778 680.836C70.5655 681.27 70.0565 682.429 70.4901 683.54C70.9238 684.652 72.0833 685.16 73.1956 684.726C74.308 684.292 74.7809 683.041 74.3834 682.022C74.0785 680.966 72.7902 680.402 71.6778 680.836Z" fill="#616161"/>
<path opacity="0.5" d="M78.7966 463.086C77.6843 463.52 77.1187 464.808 77.5524 465.919C77.9861 467.031 79.2744 467.596 80.3868 467.162C81.4991 466.728 82.0647 465.44 81.631 464.328C81.1046 463.253 79.909 462.652 78.7966 463.086Z" fill="#616161"/>
<path opacity="0.5" d="M118.879 514.909C117.766 515.343 117.201 516.631 117.634 517.743C118.068 518.855 119.356 519.419 120.469 518.985C121.581 518.552 122.147 517.264 121.713 516.152C121.279 515.04 119.991 514.475 118.879 514.909Z" fill="#616161"/>
<path opacity="0.5" d="M38.9919 124.774C37.8796 125.208 37.314 126.496 37.7477 127.608C38.1814 128.72 39.4697 129.284 40.5821 128.851C41.6944 128.417 42.26 127.129 41.8263 126.017C41.3926 124.905 40.1043 124.34 38.9919 124.774Z" fill="#616161"/>
<path opacity="0.5" d="M212.709 570.636C211.596 571.07 211.031 572.358 211.465 573.469C211.898 574.581 213.187 575.146 214.299 574.712C215.411 574.278 215.977 572.99 215.543 571.878C215.109 570.767 213.821 570.202 212.709 570.636Z" fill="#616161"/>
<path opacity="0.5" d="M204.189 560.296C203.077 560.73 202.511 562.018 202.945 563.13C203.379 564.241 204.667 564.806 205.779 564.372C206.892 563.938 207.457 562.65 207.024 561.539C206.59 560.427 205.302 559.862 204.189 560.296Z" fill="#616161"/>
<path opacity="0.5" d="M42.7218 325.163C41.5443 325.622 40.2176 325.04 39.7586 323.864C39.2995 322.687 39.8819 321.361 41.0594 320.901C42.2369 320.442 43.5635 321.024 44.0226 322.2C44.4817 323.377 43.8993 324.703 42.7218 325.163Z" fill="#616161"/>
<path opacity="0.5" d="M67.5086 492.466C66.3962 492.9 65.738 494.224 66.2078 495.428C66.6415 496.54 67.9659 497.197 69.171 496.727C70.2833 496.293 70.9416 494.969 70.4718 493.765C70.002 492.561 68.621 492.032 67.5086 492.466Z" fill="#616161"/>
<path opacity="0.5" d="M63.1141 344.854C62.0018 345.288 61.3435 346.612 61.8133 347.816C62.2469 348.928 63.5715 349.585 64.7765 349.115C65.9815 348.645 66.5471 347.357 66.0773 346.153C65.5148 344.985 64.2265 344.42 63.1141 344.854Z" fill="#616161"/>
<path opacity="0.5" d="M136.014 625.638C134.809 626.108 134.244 627.396 134.714 628.6C135.183 629.805 136.472 630.369 137.677 629.899C138.882 629.429 139.448 628.141 138.978 626.937C138.508 625.733 137.22 625.168 136.014 625.638Z" fill="#616161"/>
<path opacity="0.5" d="M149.192 536.494C147.987 536.964 147.365 538.38 147.835 539.585C148.305 540.789 149.686 541.318 150.891 540.848C152.096 540.378 152.661 539.09 152.192 537.885C151.686 536.588 150.397 536.023 149.192 536.494Z" fill="#616161"/>
<path opacity="0.5" d="M3.33194 133.562C2.12689 134.032 1.50476 135.449 1.97457 136.653C2.44438 137.858 3.86157 138.479 5.06662 138.009C6.27167 137.539 6.89379 136.122 6.42398 134.918C5.95417 133.713 4.53699 133.092 3.33194 133.562Z" fill="#616161"/>
<path opacity="0.5" d="M128.103 337.326C126.805 337.833 126.183 339.249 126.689 340.546C127.195 341.843 128.612 342.465 129.909 341.958C131.207 341.452 131.829 340.035 131.323 338.738C130.817 337.441 129.4 336.82 128.103 337.326Z" fill="#616161"/>
<path opacity="0.5" d="M22.4795 400.305C21.1817 400.811 20.5596 402.228 21.0655 403.525C21.5715 404.822 22.9887 405.443 24.2864 404.937C25.5842 404.431 26.2063 403.014 25.7004 401.717C25.1944 400.42 23.7772 399.799 22.4795 400.305Z" fill="#616161"/>
<path opacity="0.5" d="M102.931 523.585C101.633 524.092 101.011 525.508 101.517 526.805C102.023 528.102 103.44 528.724 104.738 528.217C106.036 527.711 106.658 526.294 106.152 524.997C105.739 523.664 104.229 523.079 102.931 523.585Z" fill="#616161"/>
<path opacity="0.5" d="M100.19 625.523C98.8927 626.029 98.2706 627.446 98.7765 628.743C99.2825 630.04 100.7 630.661 101.997 630.155C103.295 629.649 103.917 628.232 103.411 626.935C102.905 625.638 101.488 625.017 100.19 625.523Z" fill="#616161"/>
<path opacity="0.5" d="M135.276 339.011C133.979 339.517 133.356 340.934 133.862 342.231C134.368 343.528 135.786 344.149 137.083 343.643C138.381 343.137 139.003 341.72 138.497 340.423C137.991 339.126 136.574 338.505 135.276 339.011Z" fill="#616161"/>
<path opacity="0.5" d="M64.8877 346.937C63.5899 347.443 62.9678 348.86 63.4738 350.157C63.9797 351.454 65.3969 352.075 66.6946 351.569C67.9924 351.063 68.6145 349.646 68.1086 348.349C67.6387 347.145 66.1854 346.431 64.8877 346.937Z" fill="#616161"/>
<path opacity="0.5" d="M58.7764 599.304C57.4786 599.81 56.8565 601.227 57.3624 602.524C57.8684 603.821 59.2856 604.442 60.5833 603.936C61.8811 603.429 62.5032 602.013 61.9972 600.716C61.4913 599.419 60.0741 598.797 58.7764 599.304Z" fill="#616161"/>
<path opacity="0.5" d="M99.5795 659.277C98.2818 659.783 97.567 661.236 98.109 662.626C98.615 663.923 100.032 664.544 101.423 664.001C102.813 663.459 103.342 662.078 102.837 660.781C102.423 659.448 100.877 658.77 99.5795 659.277Z" fill="#616161"/>
<path opacity="0.5" d="M172.956 413.973C171.658 414.48 171.036 415.896 171.578 417.286C172.084 418.583 173.501 419.204 174.799 418.698C176.097 418.192 176.719 416.775 176.213 415.478C175.671 414.088 174.254 413.467 172.956 413.973Z" fill="#616161"/>
<path opacity="0.5" d="M393.148 527.785C391.851 528.291 391.136 529.744 391.678 531.134C392.184 532.431 393.637 533.145 395.028 532.602C396.325 532.096 397.04 530.643 396.498 529.253C395.863 527.9 394.446 527.279 393.148 527.785Z" fill="#616161"/>
<path opacity="0.5" d="M50.8204 349.756C49.5226 350.262 48.8078 351.715 49.3499 353.105C49.8559 354.402 51.3092 355.116 52.6996 354.573C53.9973 354.067 54.676 352.521 54.1701 351.224C53.5353 349.871 52.1181 349.25 50.8204 349.756Z" fill="#616161"/>
<path opacity="0.5" d="M79.1758 508.41C77.8781 508.916 77.1633 510.369 77.7054 511.759C78.2113 513.056 79.6646 513.769 81.0551 513.227C82.3528 512.721 83.0677 511.268 82.5256 509.878C82.0196 508.581 80.5663 507.867 79.1758 508.41Z" fill="#616161"/>
<path opacity="0.5" d="M139.395 705.761C138.097 706.267 137.418 707.813 137.924 709.11C138.43 710.407 139.976 711.085 141.274 710.578C142.572 710.072 143.25 708.526 142.744 707.229C142.238 705.932 140.785 705.219 139.395 705.761Z" fill="#616161"/>
<path opacity="0.5" d="M-4.20305 112.058C-5.50079 112.565 -6.17948 114.11 -5.67353 115.407C-5.16759 116.704 -3.62156 117.382 -2.32382 116.876C-1.02607 116.369 -0.347405 114.824 -0.853354 113.527C-1.3593 112.23 -2.90531 111.552 -4.20305 112.058Z" fill="#616161"/>
<path opacity="0.5" d="M152.469 735.991C151.171 736.498 150.492 738.043 150.998 739.34C151.504 740.637 153.05 741.315 154.348 740.809C155.646 740.303 156.324 738.757 155.819 737.46C155.313 736.163 153.767 735.485 152.469 735.991Z" fill="#616161"/>
<path opacity="0.5" d="M36.293 609.568C34.9953 610.074 34.3166 611.62 34.8226 612.917C35.3285 614.214 36.8745 614.892 38.1723 614.385C39.47 613.879 40.1487 612.334 39.6427 611.037C39.1368 609.74 37.5908 609.062 36.293 609.568Z" fill="#616161"/>
<path opacity="0.5" d="M15.6583 103.563C14.3605 104.069 13.6818 105.615 14.1878 106.912C14.6937 108.209 16.2398 108.886 17.5375 108.38C18.8353 107.874 19.5139 106.328 19.008 105.031C18.502 103.734 16.956 103.056 15.6583 103.563Z" fill="#616161"/>
<path opacity="0.5" d="M10.586 191.039C9.19555 191.582 8.60956 193.091 9.11551 194.388C9.65759 195.778 11.1675 196.363 12.4652 195.857C13.763 195.35 14.4417 193.805 13.9357 192.508C13.4298 191.211 11.8837 190.533 10.586 191.039Z" fill="#616161"/>
<path opacity="0.5" d="M55.6504 517.372C54.3527 517.878 53.674 519.424 54.1799 520.721C54.6859 522.018 56.2319 522.696 57.5296 522.189C58.9201 521.647 59.5061 520.137 59.0001 518.841C58.4942 517.544 56.9482 516.866 55.6504 517.372Z" fill="#616161"/>
<path opacity="0.5" d="M34.7602 689.687C33.4291 690.206 31.9294 689.549 31.4104 688.218C30.8915 686.888 31.5499 685.389 32.8809 684.87C34.212 684.35 35.7117 685.008 36.2306 686.338C36.7496 687.668 36.0912 689.168 34.7602 689.687Z" fill="#616161"/>
<path opacity="0.5" d="M87.8605 434.574C86.47 435.116 85.8841 436.625 86.4261 438.015C86.9682 439.405 88.4781 439.99 89.7759 439.483C91.0736 438.977 91.845 437.395 91.339 436.098C90.7969 434.709 89.2509 434.031 87.8605 434.574Z" fill="#616161"/>
<path opacity="0.5" d="M125.064 700.784C123.673 701.327 123.087 702.836 123.629 704.226C124.171 705.615 125.717 706.293 127.015 705.787C128.406 705.244 129.084 703.699 128.542 702.309C128 700.92 126.454 700.242 125.064 700.784Z" fill="#616161"/>
<path opacity="0.5" d="M48.9621 424.664C47.5716 425.206 46.893 426.752 47.3989 428.049C47.941 429.439 49.487 430.116 50.8775 429.574C52.2679 429.032 52.9466 427.486 52.4045 426.096C51.8985 424.799 50.3525 424.122 48.9621 424.664Z" fill="#616161"/>
<path opacity="0.5" d="M44.3976 448.006C43.0072 448.548 42.3285 450.094 42.8706 451.484C43.4127 452.873 44.9587 453.551 46.3491 453.009C47.7395 452.466 48.4182 450.92 47.8761 449.531C47.2414 448.177 45.6953 447.5 44.3976 448.006Z" fill="#616161"/>
<path opacity="0.5" d="M121.829 349.167C120.439 349.71 119.76 351.255 120.302 352.645C120.844 354.035 122.39 354.712 123.781 354.17C125.171 353.627 125.85 352.082 125.308 350.692C124.766 349.303 123.22 348.625 121.829 349.167Z" fill="#616161"/>
<path opacity="0.5" d="M159.353 380.747C157.962 381.289 157.284 382.835 157.826 384.224C158.368 385.614 159.914 386.292 161.304 385.749C162.695 385.207 163.373 383.661 162.831 382.272C162.289 380.882 160.743 380.204 159.353 380.747Z" fill="#616161"/>
<path opacity="0.5" d="M46.2296 159.203C44.8392 159.745 44.1605 161.291 44.7026 162.681C45.2447 164.07 46.7907 164.748 48.1812 164.206C49.5716 163.663 50.2503 162.118 49.7082 160.728C49.1661 159.338 47.6201 158.66 46.2296 159.203Z" fill="#616161"/>
<path opacity="0.5" d="M91.2296 501.252C89.8392 501.794 89.1605 503.34 89.7026 504.73C90.2447 506.119 91.7907 506.797 93.1811 506.255C94.5716 505.712 95.2503 504.167 94.7082 502.777C94.13 501.295 92.6201 500.71 91.2296 501.252Z" fill="#616161"/>
<path opacity="0.5" d="M40.5285 646.982C39.138 647.525 38.4593 649.07 39.0014 650.46C39.5435 651.85 41.0896 652.527 42.48 651.985C43.8704 651.443 44.5491 649.897 44.007 648.507C43.4649 647.118 41.9189 646.44 40.5285 646.982Z" fill="#616161"/>
<path opacity="0.5" d="M150.441 718.744C149.05 719.287 148.371 720.832 148.914 722.222C149.456 723.611 151.002 724.289 152.392 723.747C153.782 723.204 154.461 721.659 153.919 720.269C153.377 718.88 151.831 718.202 150.441 718.744Z" fill="#616161"/>
<path opacity="0.5" d="M189.561 500.892C188.17 501.435 187.399 503.017 187.977 504.499C188.519 505.888 190.101 506.659 191.585 506.08C192.975 505.538 193.746 503.956 193.168 502.474C192.626 501.084 190.951 500.35 189.561 500.892Z" fill="#616161"/>
<path opacity="0.5" d="M42.2737 458.441C40.8832 458.983 40.2045 460.529 40.7828 462.011C41.3249 463.401 42.907 464.171 44.2975 463.629C45.6879 463.086 46.4593 461.505 45.881 460.022C45.2101 458.576 43.6641 457.899 42.2737 458.441Z" fill="#616161"/>
<path opacity="0.5" d="M94.5709 408.794C93.1375 409.353 91.5224 408.645 90.9635 407.212C90.4047 405.78 91.1137 404.165 92.5471 403.606C93.9806 403.047 95.5956 403.755 96.1545 405.187C96.7133 406.62 96.0043 408.234 94.5709 408.794Z" fill="#616161"/>
<path opacity="0.5" d="M180.807 553.194C179.416 553.736 178.645 555.318 179.223 556.8C179.765 558.19 181.348 558.96 182.831 558.382C184.221 557.839 184.992 556.257 184.414 554.775C183.836 553.293 182.197 552.651 180.807 553.194Z" fill="#616161"/>
<path opacity="0.5" d="M189.032 217.814C187.598 218.373 185.983 217.665 185.424 216.232C184.866 214.8 185.575 213.185 187.008 212.626C188.441 212.067 190.057 212.775 190.615 214.207C191.174 215.64 190.465 217.255 189.032 217.814Z" fill="#616161"/>
<path opacity="0.5" d="M103.481 5.90117C101.998 6.47974 101.355 8.118 101.897 9.50762C102.475 10.9899 104.114 11.6315 105.504 11.0891C106.988 10.5105 107.63 8.87225 107.088 7.48263C106.546 6.09301 104.871 5.35876 103.481 5.90117Z" fill="#616161"/>
<path opacity="0.5" d="M269.328 546.307C267.845 546.885 267.203 548.524 267.745 549.913C268.323 551.396 269.962 552.037 271.352 551.495C272.835 550.916 273.478 549.278 272.936 547.888C272.358 546.406 270.811 545.728 269.328 546.307Z" fill="#616161"/>
<path opacity="0.5" d="M28.7689 272.967C27.2857 273.545 26.5505 275.22 27.1287 276.702C27.7069 278.184 29.3818 278.918 30.8649 278.34C32.3481 277.761 33.0833 276.087 32.5051 274.605C31.8341 273.158 30.252 272.388 28.7689 272.967Z" fill="#616161"/>
<path opacity="0.5" d="M108.017 687.474C106.534 688.052 105.799 689.727 106.377 691.209C106.955 692.691 108.63 693.425 110.113 692.847C111.596 692.268 112.331 690.594 111.753 689.112C111.175 687.629 109.5 686.895 108.017 687.474Z" fill="#616161"/>
<path opacity="0.5" d="M53.0091 119.093C51.526 119.671 50.7907 121.346 51.3689 122.828C51.9472 124.31 53.622 125.045 55.1052 124.466C56.5883 123.887 57.3235 122.213 56.7453 120.731C56.1671 119.249 54.4922 118.514 53.0091 119.093Z" fill="#616161"/>
<path opacity="0.5" d="M327.101 696.046C325.618 696.625 324.79 698.335 325.368 699.818C325.946 701.3 327.621 702.034 329.197 701.419C330.68 700.841 331.415 699.166 330.837 697.684C330.295 696.295 328.584 695.468 327.101 696.046Z" fill="#616161"/>
<path opacity="0.5" d="M19.35 422.126C17.8668 422.705 17.0389 424.415 17.6533 425.99C18.2315 427.472 19.9425 428.299 21.5183 427.685C23.0942 427.07 23.8294 425.395 23.215 423.82C22.6007 422.246 20.9258 421.511 19.35 422.126Z" fill="#616161"/>
<path opacity="0.5" d="M17.7973 310.549C16.2214 311.164 15.4862 312.838 16.1006 314.413C16.7149 315.988 18.4825 316.686 19.9656 316.108C21.5414 315.493 22.2405 313.726 21.6623 312.244C21.0841 310.761 19.2804 309.971 17.7973 310.549Z" fill="#616161"/>
<path opacity="0.5" d="M168.551 735.055C166.975 735.669 166.276 737.436 166.854 738.919C167.469 740.494 169.236 741.192 170.72 740.613C172.295 739.998 172.994 738.231 172.416 736.749C171.802 735.174 170.127 734.44 168.551 735.055Z" fill="#616161"/>
<path opacity="0.5" d="M133.576 277.98C131.989 278.599 130.201 277.815 129.582 276.229C128.963 274.643 129.748 272.855 131.335 272.236C132.922 271.617 134.711 272.401 135.329 273.987C135.948 275.573 135.163 277.361 133.576 277.98Z" fill="#616161"/>
<path opacity="0.5" d="M37.1127 610.849C35.5369 611.464 34.7451 613.267 35.3595 614.842C35.9738 616.417 37.7776 617.208 39.3534 616.593C40.9292 615.978 41.721 614.175 41.1066 612.6C40.4923 611.025 38.6886 610.235 37.1127 610.849Z" fill="#616161"/>
<path opacity="0.5" d="M6.7866 605.388C5.21077 606.003 4.41896 607.806 5.03332 609.381C5.64768 610.956 7.45139 611.746 9.02722 611.132C10.6031 610.517 11.3948 608.714 10.7805 607.139C10.1661 605.564 8.36244 604.773 6.7866 605.388Z" fill="#616161"/>
<path opacity="0.5" d="M77.7417 440.122C76.1658 440.737 75.374 442.54 75.9884 444.115C76.6028 445.69 78.4064 446.48 79.9823 445.866C81.5581 445.251 82.3499 443.448 81.7356 441.873C81.1212 440.298 79.3175 439.507 77.7417 440.122Z" fill="#616161"/>
<path opacity="0.5" d="M294.612 686.412C293.036 687.026 292.152 688.866 292.802 690.533C293.416 692.108 295.256 692.991 296.925 692.341C298.501 691.726 299.385 689.886 298.735 688.219C297.991 686.588 296.188 685.797 294.612 686.412Z" fill="#616161"/>
<path opacity="0.5" d="M155.554 596.881C153.886 597.531 153.037 599.463 153.688 601.131C154.338 602.799 156.271 603.646 157.939 602.995C159.608 602.344 160.456 600.412 159.806 598.744C159.063 597.113 157.13 596.266 155.554 596.881Z" fill="#616161"/>
<path opacity="0.5" d="M1.16729 357.171C-0.675712 357.89 -2.75225 356.979 -3.47078 355.138C-4.1893 353.296 -3.27772 351.22 -1.43472 350.501C0.408288 349.782 2.48482 350.692 3.20334 352.534C3.92187 354.376 3.0103 356.452 1.16729 357.171Z" fill="#616161"/>
<path opacity="0.5" d="M149.512 590.699L161.776 618.577C161.884 618.855 161.807 619.205 161.436 619.349C161.158 619.458 160.808 619.381 160.7 619.103L148.436 591.225C148.328 590.947 148.405 590.597 148.683 590.489C149.017 590.251 149.368 590.328 149.512 590.699Z" fill="#656565"/>
<path opacity="0.097547" d="M-10.5156 418.94L1.98602 520.802C2.00175 521.116 1.79593 521.41 1.48171 521.426C1.16748 521.442 0.873673 521.236 0.85795 520.922L-11.6437 419.06C-11.6594 418.746 -11.4536 418.452 -11.1394 418.436C-10.8252 418.421 -10.5314 418.626 -10.5156 418.94Z" fill="#656565"/>
<path opacity="0.3429" d="M54.5689 442.864L-11.2405 419.543C-11.4982 419.43 -11.7354 419.096 -11.6223 418.838C-11.5092 418.581 -11.1746 418.343 -10.9169 418.456L54.8925 441.777C55.1502 441.89 55.3874 442.225 55.2743 442.482C55.1974 442.832 54.8266 442.977 54.5689 442.864Z" fill="#656565"/>
<path opacity="0.1933" d="M55.2529 442.704L1.94521 521.245C1.73941 521.539 1.42518 521.555 1.16751 521.442C0.873698 521.236 0.857991 520.922 0.971103 520.664L54.2788 442.123C54.4846 441.83 54.7988 441.814 55.0565 441.927C55.3142 442.04 55.366 442.446 55.2529 442.704Z" fill="#656565"/>
<path opacity="0.1297" d="M1.8531 521.281L-61.3641 590.025C-61.6061 590.226 -61.9203 590.242 -62.1214 590C-62.3225 589.758 -62.3382 589.444 -62.0963 589.243L1.12093 520.499C1.36288 520.298 1.67711 520.282 1.87822 520.524C2.07934 520.766 2.05891 520.987 1.8531 521.281Z" fill="#656565"/>
<path opacity="0.085119" d="M120.138 516.767L149.513 590.699C149.621 590.977 149.452 591.363 149.174 591.472C148.895 591.58 148.545 591.503 148.401 591.133L119.026 517.201C118.917 516.923 118.994 516.572 119.365 516.428C119.736 516.283 120.03 516.489 120.138 516.767Z" fill="#656565"/>
<path opacity="0.1194" d="M79.8656 465.551L1.75984 521.317C1.51789 521.519 1.16751 521.442 0.966401 521.2C0.765285 520.958 0.842247 520.608 1.0842 520.407L79.1899 464.641C79.4319 464.44 79.7822 464.517 79.9834 464.758C80.2206 465.093 80.1436 465.443 79.8656 465.551Z" fill="#656565"/>
<path opacity="0.2558" d="M-63.8443 531.646L1.36373 520.298C1.67796 520.282 1.97176 520.488 1.98748 520.802C2.00321 521.116 1.7974 521.41 1.57587 521.39L-63.6322 532.738C-63.9464 532.753 -64.2403 532.548 -64.256 532.234C-64.3644 531.956 -64.1224 531.755 -63.8443 531.646Z" fill="#656565"/>
<path opacity="0.099722" d="M-29.8954 690.679L72.4419 682.245C72.7561 682.229 73.0499 682.435 73.0657 682.749C73.0814 683.063 72.8755 683.357 72.5613 683.373L-29.776 691.807C-30.0902 691.822 -30.384 691.617 -30.3997 691.303C-30.3227 690.952 -30.0808 690.751 -29.8954 690.679Z" fill="#656565"/>
<path opacity="0.5" d="M55.1857 441.983L79.9837 464.758C80.1848 465 80.2005 465.314 79.9585 465.515C79.7166 465.716 79.4024 465.732 79.2012 465.491L54.4033 442.716C54.2022 442.474 54.1864 442.16 54.4284 441.959C54.5776 441.794 54.8919 441.778 55.1857 441.983Z" fill="#656565"/>
<path opacity="0.1234" d="M55.1868 441.983L120.066 516.581C120.267 516.823 120.19 517.173 120.041 517.338C119.799 517.539 119.485 517.555 119.284 517.313L54.4044 442.715C54.2033 442.473 54.2802 442.123 54.5222 441.922C54.6714 441.757 54.9857 441.741 55.1868 441.983Z" fill="#656565"/>
<path opacity="0.4586" d="M79.9845 464.758L120.066 516.581C120.267 516.823 120.19 517.173 119.948 517.374C119.706 517.576 119.356 517.499 119.155 517.257L79.0732 465.434C78.8721 465.192 78.9491 464.842 79.191 464.64C79.4691 464.532 79.7833 464.516 79.9845 464.758Z" fill="#656565"/>
<path opacity="0.01" d="M55.2941 442.261L68.9333 494.473C69.0417 494.751 68.8359 495.045 68.5578 495.153C68.2797 495.262 67.9859 495.056 67.8775 494.778L54.331 442.53C54.2226 442.252 54.4284 441.959 54.7065 441.85C54.8919 441.778 55.2784 441.947 55.2941 442.261Z" fill="#656565"/>
<path opacity="0.068931" d="M119.901 516.432L213.767 572.251C214.025 572.364 214.077 572.771 213.963 573.028C213.85 573.286 213.443 573.338 213.186 573.225L119.32 517.406C119.062 517.293 119.01 516.887 119.123 516.629C119.365 516.428 119.643 516.319 119.901 516.432Z" fill="#656565"/>
<path opacity="0.1485" d="M119.901 516.432L205.212 561.819C205.469 561.932 205.614 562.302 205.408 562.596C205.295 562.854 204.924 562.998 204.63 562.793L119.319 517.406C119.062 517.293 118.917 516.922 119.123 516.629C119.329 516.335 119.643 516.319 119.901 516.432Z" fill="#656565"/>
<path opacity="0.3407" d="M80.1083 465.35L68.9494 494.787C68.8363 495.044 68.4655 495.189 68.2078 495.076C67.9502 494.963 67.7129 494.629 67.9187 494.335L79.1703 464.862C79.2834 464.604 79.618 464.367 79.9118 464.573C80.0768 464.722 80.1852 465 80.1083 465.35Z" fill="#656565"/>
<path opacity="0.2514" d="M119.449 517.462L68.1157 495.112C67.858 494.999 67.7135 494.628 67.8266 494.371C67.9397 494.113 68.3105 493.968 68.5682 494.081L119.901 516.432C120.159 516.545 120.303 516.915 120.19 517.173C120.077 517.431 119.706 517.575 119.449 517.462Z" fill="#656565"/>
<path opacity="0.5" d="M205.376 561.968L213.931 572.4C214.132 572.642 214.055 572.992 213.813 573.193C213.571 573.395 213.221 573.318 213.02 573.076L204.464 562.644C204.263 562.402 204.34 562.052 204.582 561.851C204.86 561.742 205.175 561.727 205.376 561.968Z" fill="#656565"/>
<path opacity="0.5" d="M42.283 322.666L64.3362 346.618C64.5373 346.86 64.553 347.174 64.3111 347.375C64.0691 347.576 63.7549 347.592 63.5538 347.35L41.5006 323.398C41.2995 323.156 41.2837 322.842 41.5257 322.641C41.7676 322.44 42.0819 322.424 42.283 322.666Z" fill="#656565"/>
<path opacity="0.5" d="M42.0167 323.624L-14.5155 335.857C-14.8297 335.873 -15.1235 335.667 -15.232 335.389C-15.2477 335.075 -15.1346 334.817 -14.8565 334.709L41.6758 322.476C41.99 322.46 42.2838 322.666 42.3922 322.943C42.5007 323.221 42.2948 323.515 42.0167 323.624Z" fill="#656565"/>
<path opacity="0.3653" d="M-14.5431 334.693L64.0424 346.413C64.3567 346.397 64.5939 346.731 64.517 347.081C64.44 347.432 64.198 347.633 63.8477 347.556L-14.7378 335.837C-15.0882 335.76 -15.2893 335.518 -15.2124 335.168C-15.2281 334.854 -14.8934 334.617 -14.5431 334.693Z" fill="#656565"/>
<path opacity="0.05066" d="M42.4074 323.258L-3.922 429.817C-4.03512 430.075 -4.40589 430.22 -4.66356 430.107C-4.92123 429.994 -5.0658 429.623 -4.95267 429.366L41.3767 322.806C41.4898 322.548 41.8606 322.404 42.1183 322.517C42.376 322.63 42.5205 323 42.4074 323.258Z" fill="#656565"/>
<path opacity="0.2107" d="M-4.0467 429.226L68.732 494.231C68.9331 494.473 68.9489 494.787 68.743 495.081C68.5011 495.282 68.1869 495.298 67.9292 495.185L-4.84953 430.179C-5.05064 429.938 -5.06635 429.624 -4.86054 429.33C-4.65473 429.036 -4.24782 428.984 -4.0467 429.226Z" fill="#656565"/>
<path opacity="0.1282" d="M-4.89728 429.237L63.4492 346.537C63.6912 346.336 63.9693 346.228 64.2631 346.433C64.4642 346.675 64.5726 346.953 64.3668 347.247L-3.9797 429.946C-4.18552 430.24 -4.49976 430.256 -4.79357 430.05C-5.08739 429.845 -5.10309 429.531 -4.89728 429.237Z" fill="#656565"/>
<path opacity="0.2421" d="M-5.0297 429.716L-15.2687 335.297C-15.2844 334.983 -15.0786 334.689 -14.7644 334.673C-14.4502 334.657 -14.1564 334.863 -14.1406 335.177L-3.93777 429.503C-3.92205 429.817 -4.12783 430.111 -4.44206 430.127C-4.75629 430.143 -4.92128 429.994 -5.0297 429.716Z" fill="#656565"/>
<path opacity="0.01" d="M213.813 573.193L137.118 628.195C136.876 628.397 136.526 628.32 136.325 628.078C136.124 627.836 136.201 627.486 136.443 627.285L213.138 572.283C213.38 572.082 213.73 572.158 213.931 572.4C214.132 572.642 214.148 572.956 213.813 573.193Z" fill="#656565"/>
<path opacity="0.030221" d="M205.351 562.725L137.304 628.123C137.062 628.324 136.748 628.34 136.454 628.135C136.253 627.893 136.201 627.486 136.443 627.285L204.583 561.851C204.824 561.65 205.139 561.634 205.433 561.84C205.577 562.21 205.593 562.524 205.351 562.725Z" fill="#656565"/>
<path opacity="0.064248" d="M150.251 538.109L213.766 572.251C214.024 572.364 214.169 572.735 213.963 573.029C213.85 573.286 213.479 573.431 213.185 573.225L149.705 539.175C149.448 539.062 149.303 538.692 149.509 538.398C149.622 538.141 149.993 537.996 150.251 538.109Z" fill="#656565"/>
<path opacity="0.1551" d="M204.758 562.85L149.834 539.232C149.576 539.119 149.432 538.748 149.509 538.398C149.622 538.141 149.993 537.996 150.343 538.073L205.304 561.783C205.561 561.896 205.706 562.267 205.593 562.524C205.294 562.854 205.016 562.963 204.758 562.85Z" fill="#656565"/>
<path opacity="0.1494" d="M68.5674 494.082L150.251 538.109C150.544 538.314 150.653 538.592 150.483 538.979C150.277 539.272 149.999 539.381 149.706 539.175L67.9861 495.056C67.7284 494.943 67.5839 494.572 67.7897 494.278C67.9955 493.985 68.3097 493.969 68.5674 494.082Z" fill="#656565"/>
<path opacity="0.1525" d="M-75.9039 501.554L-4.89558 429.237C-4.65363 429.036 -4.33942 429.02 -4.04561 429.225C-3.8445 429.467 -3.82877 429.781 -4.03458 430.075L-75.0429 502.392C-75.2848 502.593 -75.5991 502.609 -75.8929 502.403C-76.1301 502.069 -76.1458 501.755 -75.9039 501.554Z" fill="#656565"/>
<path opacity="0.3052" d="M150.595 538.721L137.417 627.865C137.34 628.216 137.098 628.417 136.747 628.34C136.397 628.263 136.196 628.021 136.273 627.671L149.452 538.527C149.529 538.176 149.771 537.975 150.121 538.052C150.471 538.129 150.672 538.371 150.595 538.721Z" fill="#656565"/>
<path opacity="0.2882" d="M4.00822 136.394L-82.9518 114.706C-83.3021 114.629 -83.4467 114.258 -83.3336 114.001C-83.2566 113.65 -82.8858 113.506 -82.5354 113.582L4.3884 135.178C4.73877 135.255 4.88333 135.625 4.80635 135.975C4.69324 136.233 4.35859 136.47 4.00822 136.394Z" fill="#656565"/>
<path opacity="0.1423" d="M4.69466 136.233L-69.5199 224.425C-69.7257 224.718 -70.1326 224.77 -70.3337 224.529C-70.6275 224.323 -70.6794 223.916 -70.4374 223.715L3.77709 135.524C4.01904 135.323 4.42597 135.271 4.62708 135.513C4.84861 135.533 4.90047 135.94 4.69466 136.233Z" fill="#656565"/>
<path opacity="0.1518" d="M4.13773 136.45L-109.715 130.697C-110.029 130.713 -110.266 130.378 -110.282 130.064C-110.298 129.75 -109.963 129.513 -109.649 129.497L4.20368 135.251C4.51791 135.235 4.75516 135.569 4.77088 135.883C4.7866 136.197 4.45196 136.435 4.13773 136.45Z" fill="#656565"/>
<path opacity="0.215" d="M3.88027 136.337L-84.297 76.4844C-84.5908 76.2788 -84.6427 75.8721 -84.4369 75.5783C-84.2311 75.2846 -83.8241 75.2326 -83.5303 75.4382L4.64695 135.291C4.94075 135.496 4.99262 135.903 4.78681 136.197C4.45216 136.434 4.13794 136.45 3.88027 136.337Z" fill="#656565"/>
<path opacity="0.2991" d="M4.50815 136.306L-24.9312 156.115C-25.1731 156.317 -25.6162 156.276 -25.8534 155.942C-26.0546 155.7 -26.0137 155.257 -25.6791 155.02L3.79641 135.302C4.03836 135.101 4.48142 135.142 4.62597 135.512C4.91978 135.718 4.7501 136.104 4.50815 136.306Z" fill="#656565"/>
<path opacity="0.1055" d="M23.0739 402.101L128.662 339.03C129.032 338.886 129.383 338.962 129.491 339.24C129.6 339.518 129.523 339.868 129.281 340.07L23.693 403.141C23.3583 403.378 22.9718 403.209 22.8634 402.931C22.6623 402.689 22.7958 402.21 23.0739 402.101Z" fill="#656565"/>
<path opacity="0.4187" d="M23.3217 403.285L-55.3124 395C-55.6627 394.924 -55.8639 394.682 -55.9157 394.275C-55.8387 393.925 -55.5968 393.724 -55.1899 393.672L23.4442 401.956C23.7946 402.033 23.9957 402.275 24.0476 402.682C23.9706 403.032 23.6359 403.269 23.3217 403.285Z" fill="#656565"/>
<path opacity="0.2353" d="M23.6002 403.177L-70.4924 438.495C-70.8632 438.64 -71.157 438.434 -71.3016 438.063C-71.41 437.785 -71.2403 437.399 -70.9622 437.291L23.1304 401.973C23.5012 401.828 23.795 402.034 23.9034 402.312C24.0841 402.775 23.8783 403.069 23.6002 403.177Z" fill="#656565"/>
<path opacity="0.5" d="M129.162 338.942L136.334 340.627C136.685 340.704 136.922 341.038 136.845 341.389C136.768 341.739 136.433 341.976 136.083 341.899L128.911 340.214C128.56 340.138 128.416 339.767 128.493 339.417C128.477 339.103 128.812 338.865 129.162 338.942Z" fill="#656565"/>
<path opacity="0.422" d="M65.6675 348.661L128.847 338.958C129.162 338.942 129.548 339.112 129.6 339.519C129.616 339.833 129.446 340.219 129.039 340.271L65.8592 349.974C65.4523 350.026 65.1585 349.82 65.1066 349.414C65.0909 349.099 65.3894 348.77 65.6675 348.661Z" fill="#656565"/>
<path opacity="0.4719" d="M22.9245 402.266L65.3686 348.991C65.5744 348.697 65.9813 348.645 66.2751 348.851C66.569 349.056 66.6208 349.463 66.415 349.757L23.9709 403.032C23.7651 403.326 23.3581 403.378 23.0643 403.172C22.7344 402.874 22.6825 402.467 22.9245 402.266Z" fill="#656565"/>
<path opacity="0.055318" d="M3.64291 136.002L-3.81911 114.684C-3.96366 114.313 -3.79399 113.927 -3.38707 113.875C-3.01628 113.73 -2.72247 113.936 -2.57791 114.306L4.79139 135.661C4.89981 135.939 4.73015 136.325 4.45206 136.434C4.04514 136.486 3.75133 136.28 3.64291 136.002Z" fill="#656565"/>
<path opacity="0.3248" d="M23.6935 403.141L-40.0006 444.105C-40.3353 444.343 -40.7218 444.173 -40.9229 443.931C-41.124 443.69 -40.9905 443.211 -40.7124 443.102L23.0179 402.23C23.2599 402.029 23.7391 402.162 23.8475 402.44C24.1051 402.553 24.0643 402.996 23.6935 403.141Z" fill="#656565"/>
<path opacity="0.2474" d="M129.492 339.24L174.38 415.98C174.617 416.314 174.448 416.7 174.17 416.809C173.835 417.046 173.448 416.877 173.247 416.635L128.452 339.859C128.251 339.618 128.384 339.138 128.662 339.03C129.033 338.885 129.383 338.962 129.492 339.24Z" fill="#656565"/>
<path opacity="0.2085" d="M51.5998 351.48L128.846 338.958C129.16 338.942 129.547 339.112 129.562 339.426C129.578 339.74 129.408 340.126 129.094 340.142L51.7554 352.7C51.3485 352.752 51.0546 352.546 51.0028 352.14C51.0232 351.918 51.1929 351.532 51.5998 351.48Z" fill="#656565"/>
<path opacity="0.4136" d="M22.832 402.302L51.081 351.789C51.2868 351.495 51.6576 351.351 51.9515 351.556C52.2453 351.762 52.3898 352.133 52.184 352.426L23.8062 402.883C23.6004 403.177 23.2296 403.321 22.9358 403.116C22.7708 402.967 22.6262 402.596 22.832 402.302Z" fill="#656565"/>
<path opacity="0.2749" d="M100.465 627.871L103.17 525.84C103.154 525.526 103.453 525.196 103.803 525.273C104.118 525.257 104.448 525.555 104.371 525.906L101.629 627.843C101.645 628.157 101.346 628.487 100.903 628.447C100.718 628.519 100.481 628.185 100.465 627.871Z" fill="#656565"/>
<path opacity="0.3739" d="M104.387 526.22L60.2312 601.937C60.0254 602.231 59.6546 602.376 59.3608 602.17C59.067 601.965 58.9224 601.594 59.1282 601.3L103.284 525.582C103.49 525.289 103.861 525.144 104.155 525.35C104.448 525.555 104.593 525.926 104.387 526.22Z" fill="#656565"/>
<path opacity="0.5" d="M100.774 628.391L59.36 602.171C59.0662 601.965 59.0143 601.559 59.1274 601.301C59.3332 601.007 59.7402 600.955 59.9978 601.068L101.412 627.288C101.706 627.493 101.758 627.9 101.552 628.194C101.439 628.452 101.068 628.596 100.774 628.391Z" fill="#656565"/>
<path opacity="0.4979" d="M65.7592 348.625L136.111 340.607C136.426 340.591 136.812 340.761 136.864 341.167C136.88 341.481 136.71 341.868 136.303 341.92L65.9509 349.937C65.6367 349.953 65.3067 349.655 65.291 349.341C65.1826 349.063 65.3884 348.769 65.7592 348.625Z" fill="#656565"/>
<path opacity="0.1603" d="M22.8277 402.838L-9.46666 318.41C-9.61122 318.04 -9.44154 317.653 -9.07076 317.509C-8.69997 317.364 -8.31345 317.534 -8.1689 317.904L24.0327 402.368C24.1773 402.739 23.9715 403.032 23.6934 403.141C23.4153 403.249 22.9361 403.116 22.8277 402.838Z" fill="#656565"/>
<path opacity="0.086577" d="M103.376 525.546L173.307 415.971C173.513 415.677 173.92 415.625 174.178 415.738C174.471 415.944 174.523 416.35 174.41 416.608L104.443 526.091C104.237 526.385 103.83 526.437 103.573 526.324C103.222 526.247 103.17 525.84 103.376 525.546Z" fill="#656565"/>
<path opacity="0.5" d="M101.759 627.9L101.149 661.654C101.165 661.968 100.867 662.298 100.423 662.257C100.109 662.273 99.7793 661.975 99.7636 661.661L100.374 627.907C100.358 627.593 100.656 627.263 100.971 627.247C101.506 627.251 101.708 627.493 101.759 627.9Z" fill="#656565"/>
<path opacity="0.2193" d="M22.8627 402.931L-13.5911 346.17C-13.8283 345.835 -13.6587 345.449 -13.4167 345.248C-13.0821 345.011 -12.6956 345.18 -12.4945 345.422L23.9028 402.311C24.1039 402.553 24.063 402.996 23.6923 403.141C23.4503 403.342 23.1 403.265 22.8627 402.931Z" fill="#656565"/>
<path opacity="0.3959" d="M136.699 341.018L174.415 416.072C174.559 416.443 174.482 416.793 174.111 416.938C173.741 417.083 173.39 417.006 173.246 416.635L135.53 341.581C135.385 341.21 135.462 340.86 135.833 340.715C136.204 340.571 136.59 340.74 136.699 341.018Z" fill="#656565"/>
<path opacity="0.1025" d="M66.1467 348.794L174.215 415.831C174.509 416.036 174.653 416.407 174.447 416.701C174.242 416.995 173.871 417.139 173.577 416.934L65.5088 349.897C65.215 349.691 65.1632 349.285 65.369 348.991C65.4821 348.733 65.8528 348.589 66.1467 348.794Z" fill="#656565"/>
<path opacity="0.4887" d="M100.001 661.995L59.1965 602.022C58.9593 601.687 59.0363 601.337 59.3709 601.1C59.6129 600.899 60.0559 600.939 60.2932 601.274L101.098 661.247C101.335 661.582 101.258 661.932 100.923 662.169C100.589 662.407 100.238 662.33 100.001 661.995Z" fill="#656565"/>
<path opacity="0.2379" d="M-55.8029 394.018L-9.46312 317.875C-9.25731 317.581 -8.85041 317.529 -8.59274 317.642C-8.29893 317.848 -8.15437 318.218 -8.36018 318.512L-54.7927 394.691C-54.9985 394.985 -55.4054 395.037 -55.663 394.924C-55.8642 394.682 -56.0087 394.312 -55.8029 394.018Z" fill="#656565"/>
<path opacity="0.3443" d="M51.6001 351.48L136.019 340.643C136.425 340.591 136.719 340.797 136.771 341.203C136.787 341.517 136.617 341.904 136.21 341.956L51.7919 352.792C51.3849 352.844 51.055 352.546 51.0393 352.232C50.9874 351.825 51.2859 351.495 51.6001 351.48Z" fill="#656565"/>
<path opacity="0.5" d="M51.6013 351.48L65.6676 348.661C66.0745 348.609 66.3683 348.815 66.4202 349.222C66.4359 349.536 66.2662 349.922 65.952 349.938L51.8857 352.757C51.4788 352.809 51.185 352.603 51.1331 352.196C51.0247 351.918 51.1944 351.532 51.6013 351.48Z" fill="#656565"/>
<path opacity="0.5" d="M103.516 526.453L79.7958 511.369C79.502 511.164 79.4502 510.757 79.5633 510.499C79.7691 510.206 80.176 510.154 80.4337 510.266L104.154 525.35C104.447 525.555 104.499 525.962 104.386 526.22C104.18 526.514 103.81 526.658 103.516 526.453Z" fill="#656565"/>
<path opacity="0.1171" d="M100.502 627.963L79.5233 510.942C79.4714 510.535 79.6773 510.242 80.0842 510.19C80.3984 510.174 80.7849 510.343 80.8368 510.75L101.723 627.807C101.774 628.214 101.569 628.508 101.162 628.56C100.847 628.575 100.554 628.37 100.502 627.963Z" fill="#656565"/>
<path opacity="0.3105" d="M59.1086 601.522L79.5446 510.72C79.6215 510.37 79.9562 510.133 80.3065 510.21C80.6569 510.287 80.8941 510.621 80.8172 510.971L60.3812 601.773C60.3042 602.123 59.9696 602.36 59.6192 602.283C59.2688 602.207 59.0316 601.872 59.1086 601.522Z" fill="#656565"/>
<path opacity="0.3182" d="M139.814 708.479L100.574 628.148C100.43 627.778 100.507 627.427 100.877 627.283C101.248 627.138 101.599 627.215 101.743 627.585L141.076 707.88C141.221 708.25 141.144 708.601 140.773 708.745C140.309 708.926 139.923 708.757 139.814 708.479Z" fill="#656565"/>
<path opacity="0.3423" d="M65.6017 349.861L-9.10059 318.801C-9.48709 318.632 -9.63166 318.261 -9.42585 317.967C-9.25618 317.581 -8.8854 317.436 -8.59159 317.642L66.1107 348.702C66.4972 348.871 66.6418 349.242 66.4359 349.535C66.2663 349.922 65.8955 350.066 65.6017 349.861Z" fill="#656565"/>
<path opacity="0.082204" d="M23.8318 402.126L50.3518 426.577C50.6456 426.783 50.6048 427.226 50.3989 427.52C50.1931 427.813 49.7501 427.773 49.4563 427.567L22.9363 403.116C22.7351 402.874 22.6833 402.467 22.9252 402.266C23.131 401.972 23.538 401.92 23.8318 402.126Z" fill="#656565"/>
<path opacity="0.047551" d="M139.851 708.572L59.1959 602.022C58.9948 601.78 59.0356 601.337 59.3702 601.1C59.6122 600.898 60.0552 600.939 60.2563 601.181L140.911 707.731C141.148 708.066 141.071 708.416 140.737 708.653C140.531 708.947 140.088 708.906 139.851 708.572Z" fill="#656565"/>
<path opacity="0.040026" d="M174.298 416.865L80.6468 511.358C80.4049 511.559 79.9979 511.611 79.6679 511.312C79.4668 511.071 79.415 510.664 79.6208 510.37L173.308 415.971C173.55 415.769 173.957 415.717 174.25 415.923C174.544 416.129 174.503 416.572 174.298 416.865Z" fill="#656565"/>
<path opacity="0.5" d="M-25.7927 155.277L-3.81545 114.148C-3.60964 113.854 -3.23884 113.71 -2.94503 113.915C-2.65122 114.121 -2.50668 114.491 -2.71249 114.785L-24.6898 155.914C-24.8956 156.208 -25.2664 156.352 -25.5602 156.147C-25.854 155.941 -25.9985 155.57 -25.7927 155.277Z" fill="#656565"/>
<path opacity="0.033864" d="M129.522 339.868L123.355 351.987C123.149 352.281 122.779 352.425 122.392 352.256C122.098 352.05 121.954 351.68 122.123 351.293L128.326 339.267C128.532 338.974 128.902 338.829 129.196 339.035C129.583 339.204 129.727 339.575 129.522 339.868Z" fill="#656565"/>
<path opacity="0.3156" d="M-13.01 345.196L65.8879 348.681C66.2022 348.665 66.5321 348.963 66.4913 349.406C66.507 349.72 66.2085 350.05 65.7654 350.01L-13.0963 346.617C-13.4106 346.633 -13.7767 346.242 -13.6997 345.892C-13.7515 345.485 -13.4169 345.248 -13.01 345.196Z" fill="#656565"/>
<path opacity="0.090083" d="M104.423 526.312L37.8207 612.388C37.6148 612.681 37.2079 612.733 36.9141 612.528C36.6203 612.322 36.5684 611.915 36.7742 611.622L103.469 525.51C103.675 525.216 104.082 525.164 104.376 525.37C104.577 525.612 104.629 526.018 104.423 526.312Z" fill="#656565"/>
<path opacity="0.092602" d="M101.651 627.622L153.966 738.183C154.11 738.553 153.941 738.94 153.663 739.048C153.292 739.193 152.905 739.023 152.797 738.746L100.482 628.185C100.338 627.814 100.507 627.428 100.786 627.319C101.156 627.175 101.543 627.344 101.651 627.622Z" fill="#656565"/>
<path opacity="0.3278" d="M100.939 628.54L37.0784 612.677C36.728 612.601 36.4907 612.266 36.6604 611.88C36.7374 611.53 37.072 611.292 37.4224 611.369L101.319 627.324C101.67 627.401 101.907 627.735 101.737 628.122C101.624 628.379 101.29 628.616 100.939 628.54Z" fill="#656565"/>
<path opacity="0.5" d="M139.85 708.571L100.036 662.087C99.8351 661.846 99.8759 661.403 100.118 661.202C100.36 661.001 100.803 661.041 101.004 661.283L140.818 707.767C141.019 708.009 140.978 708.452 140.736 708.653C140.531 708.946 140.088 708.906 139.85 708.571Z" fill="#656565"/>
<path opacity="0.5" d="M59.9318 602.268L37.4853 612.625C37.1145 612.77 36.728 612.6 36.6196 612.323C36.475 611.952 36.6447 611.566 36.9228 611.457L59.4054 601.192C59.7762 601.048 60.1266 601.124 60.2711 601.495C60.4361 601.644 60.3026 602.123 59.9318 602.268Z" fill="#656565"/>
<path opacity="0.434" d="M-25.736 155.148L16.1033 105.524C16.3091 105.231 16.716 105.179 17.046 105.477C17.3398 105.682 17.3917 106.089 17.0932 106.419L-24.7823 155.95C-24.9881 156.244 -25.3951 156.296 -25.725 155.998C-25.89 155.849 -25.9418 155.442 -25.736 155.148Z" fill="#656565"/>
<path opacity="0.2661" d="M-12.4626 346.05L-39.739 443.683C-39.816 444.033 -40.1507 444.271 -40.5372 444.101C-40.8875 444.024 -41.1248 443.69 -40.9551 443.304L-13.6786 345.671C-13.6017 345.321 -13.2309 345.176 -12.8805 345.253C-12.5302 345.33 -12.3856 345.7 -12.4626 346.05Z" fill="#656565"/>
<path opacity="0.3405" d="M56.6518 519.117L103.989 525.2C104.339 525.277 104.576 525.612 104.592 525.926C104.515 526.276 104.18 526.513 103.866 526.529L56.5654 520.538C56.215 520.461 55.9778 520.127 55.9621 519.813C56.0029 519.37 56.3376 519.132 56.6518 519.117Z" fill="#656565"/>
<path opacity="0.355" d="M-24.792 155.1L12.0116 193.046C12.2127 193.287 12.2645 193.694 11.966 194.024C11.7241 194.225 11.3171 194.277 10.9872 193.979L-25.7236 155.998C-25.9248 155.756 -25.9766 155.349 -25.642 155.112C-25.4 154.911 -24.9931 154.859 -24.792 155.1Z" fill="#656565"/>
<path opacity="0.3201" d="M101.004 661.283L153.892 737.998C154.13 738.332 154.053 738.682 153.718 738.92C153.383 739.157 153.033 739.08 152.796 738.746L99.8711 661.939C99.6338 661.604 99.7108 661.254 100.045 661.017C100.452 660.965 100.895 661.005 101.004 661.283Z" fill="#656565"/>
<path opacity="0.1602" d="M103.243 526.025L88.2073 437.107C88.1555 436.7 88.3613 436.406 88.7682 436.354C89.1751 436.302 89.4689 436.508 89.5208 436.914L104.52 525.741C104.572 526.147 104.366 526.441 103.959 526.493C103.645 526.509 103.259 526.34 103.243 526.025Z" fill="#656565"/>
<path opacity="0.2027" d="M-32.2408 210.202L-8.18948 318.125C-8.13762 318.532 -8.34345 318.826 -8.75037 318.878C-9.15729 318.93 -9.45109 318.724 -9.46682 318.41L-33.5181 210.486C-33.57 210.08 -33.3642 209.786 -32.9934 209.641C-32.6792 209.625 -32.2926 209.795 -32.2408 210.202Z" fill="#656565"/>
<path opacity="0.2449" d="M57.2565 519.842L60.3449 601.68C60.3606 601.994 60.0621 602.324 59.7479 602.34C59.4337 602.356 59.1037 602.058 59.088 601.744L55.9069 519.942C55.8551 519.535 56.1897 519.298 56.5966 519.246C56.8747 519.137 57.2047 519.435 57.2565 519.842Z" fill="#656565"/>
<path opacity="0.155" d="M101.496 628.323L34.1853 687.669C33.8507 687.907 33.5365 687.922 33.2065 687.624C32.9693 687.29 33.0462 686.94 33.2521 686.646L100.562 627.299C100.804 627.098 101.247 627.139 101.448 627.38C101.815 627.771 101.738 628.121 101.496 628.323Z" fill="#656565"/>
<path opacity="0.5" d="M51.3493 352.752L-9.19406 318.837C-9.48787 318.632 -9.63243 318.261 -9.42662 317.967C-9.22081 317.674 -8.85003 317.529 -8.55622 317.735L51.9871 351.649C52.2809 351.855 52.4255 352.225 52.2196 352.519C52.1065 352.777 51.6996 352.829 51.3493 352.752Z" fill="#656565"/>
<path opacity="0.3185" d="M100.164 662.144L36.8772 612.436C36.5834 612.23 36.5316 611.823 36.7374 611.529C36.9432 611.236 37.3501 611.184 37.6439 611.389L100.931 661.098C101.225 661.304 101.277 661.71 101.071 662.004C100.772 662.334 100.365 662.386 100.164 662.144Z" fill="#656565"/>
<path opacity="0.3216" d="M-2.65556 114.656L-32.3187 210.552C-32.3957 210.902 -32.7665 211.046 -33.1168 210.97C-33.4672 210.893 -33.6117 210.522 -33.5348 210.172L-3.87163 114.277C-3.79466 113.927 -3.42388 113.782 -3.07352 113.859C-2.72315 113.936 -2.48589 114.27 -2.65556 114.656Z" fill="#656565"/>
<path opacity="0.021593" d="M136.731 341.646L89.4801 437.357C89.2743 437.651 88.9035 437.796 88.517 437.626C88.2232 437.421 88.0786 437.05 88.1918 436.793L135.535 341.045C135.741 340.751 136.111 340.607 136.405 340.812C136.756 340.889 136.9 341.26 136.731 341.646Z" fill="#656565"/>
<path opacity="0.1997" d="M60.2874 601.809L34.3915 687.376C34.3145 687.726 33.8511 687.907 33.5934 687.794C33.243 687.717 32.9696 687.29 33.1754 686.996L59.164 601.393C59.241 601.043 59.6117 600.899 59.9621 600.975C60.2198 601.088 60.4005 601.552 60.2874 601.809Z" fill="#656565"/>
<path opacity="0.1457" d="M66.3835 349.129L89.4851 436.822C89.6297 437.193 89.3312 437.523 88.9604 437.667C88.5896 437.812 88.2597 437.514 88.1512 437.236L65.1422 349.506C64.9977 349.136 65.2962 348.806 65.5743 348.697C65.9812 348.645 66.3677 348.815 66.3835 349.129Z" fill="#656565"/>
<path opacity="0.5" d="M-13.0099 345.196L51.7856 351.407C52.136 351.484 52.3732 351.818 52.3889 352.132C52.312 352.483 51.9773 352.72 51.6631 352.736L-13.1324 346.524C-13.4827 346.448 -13.72 346.113 -13.7357 345.799C-13.6588 345.449 -13.3241 345.212 -13.0099 345.196Z" fill="#656565"/>
<path opacity="0.2219" d="M125.355 703.446L100.445 628.092C100.301 627.722 100.507 627.428 100.877 627.283C101.248 627.139 101.542 627.344 101.687 627.715L126.596 703.069C126.741 703.439 126.571 703.826 126.164 703.878C125.886 703.986 125.5 703.817 125.355 703.446Z" fill="#656565"/>
<path opacity="0.1351" d="M66.3982 349.443L50.5103 427.262C50.4333 427.612 50.0986 427.85 49.7482 427.773C49.3979 427.696 49.1606 427.362 49.2376 427.011L65.1617 349.284C65.2387 348.934 65.5734 348.697 65.9237 348.774C66.2379 348.758 66.4752 349.092 66.3982 349.443Z" fill="#656565"/>
<path opacity="0.3173" d="M100.737 662.241L33.944 687.87C33.5732 688.015 33.1867 687.845 33.0421 687.475C32.8976 687.104 33.1034 686.81 33.438 686.573L100.267 661.037C100.638 660.892 100.932 661.098 101.076 661.468C101.221 661.839 101.108 662.097 100.737 662.241Z" fill="#656565"/>
<path opacity="0.2187" d="M-33.478 210.044L15.9545 105.689C16.1242 105.303 16.5311 105.251 16.7888 105.364C17.0826 105.57 17.2271 105.94 17.114 106.198L-32.4473 210.496C-32.6531 210.789 -33.0239 210.934 -33.2816 210.821C-33.5031 210.801 -33.6476 210.43 -33.478 210.044Z" fill="#656565"/>
<path opacity="0.1997" d="M174.02 416.975L89.0536 437.631C88.6467 437.683 88.3529 437.478 88.2083 437.107C88.1564 436.701 88.3623 436.407 88.733 436.262L173.699 415.605C174.106 415.553 174.4 415.759 174.509 416.037C174.504 416.572 174.298 416.866 174.02 416.975Z" fill="#656565"/>
<path opacity="0.3173" d="M136.582 341.811L123.208 352.152C122.873 352.39 122.523 352.313 122.193 352.015C121.955 351.68 122.032 351.33 122.367 351.093L135.742 340.752C136.076 340.514 136.427 340.591 136.628 340.833C136.865 341.167 136.824 341.61 136.582 341.811Z" fill="#656565"/>
<path opacity="0.2803" d="M65.888 348.681L122.865 351.004C123.18 350.988 123.546 351.379 123.561 351.693C123.521 352.136 123.186 352.373 122.872 352.389L65.8943 350.066C65.5801 350.082 65.2502 349.784 65.291 349.341C65.2392 348.934 65.445 348.64 65.888 348.681Z" fill="#656565"/>
<path opacity="0.2137" d="M36.5885 611.694L79.5637 510.499C79.7334 510.113 80.1042 509.968 80.398 510.174C80.6918 510.379 80.8929 510.621 80.7232 511.007L37.8407 612.166C37.6711 612.553 37.3003 612.697 37.0065 612.492C36.6561 612.415 36.5116 612.044 36.5885 611.694Z" fill="#656565"/>
<path opacity="0.2369" d="M136.699 341.018L160.942 382.902C161.179 383.237 161.009 383.623 160.675 383.86C160.34 384.098 159.953 383.928 159.716 383.594L135.566 341.673C135.329 341.339 135.499 340.952 135.777 340.844C136.112 340.607 136.555 340.647 136.699 341.018Z" fill="#656565"/>
<path opacity="0.2344" d="M92.7825 503.315L104.449 525.556C104.593 525.926 104.517 526.276 104.146 526.421C103.775 526.566 103.517 526.453 103.28 526.118L91.6136 503.878C91.4691 503.507 91.546 503.157 91.8806 502.92C92.1949 502.904 92.6741 503.037 92.7825 503.315Z" fill="#656565"/>
<path opacity="0.5" d="M-33.1793 209.714L11.1812 192.836C11.552 192.691 11.9385 192.86 12.0831 193.231C12.2276 193.602 12.0579 193.988 11.6872 194.133L-32.7095 210.918C-33.0803 211.063 -33.4668 210.893 -33.5186 210.486C-33.627 210.208 -33.4574 209.822 -33.1793 209.714Z" fill="#656565"/>
<path opacity="0.169" d="M-25.1801 154.931L47.2652 161.04C47.6156 161.117 47.9455 161.415 47.8685 161.766C47.7916 162.116 47.4931 162.446 47.1427 162.369L-25.3388 156.167C-25.6891 156.09 -25.9264 155.756 -25.9421 155.442C-25.829 155.184 -25.5305 154.854 -25.1801 154.931Z" fill="#656565"/>
<path opacity="0.4361" d="M125.483 703.502L99.9995 661.995C99.7623 661.661 99.932 661.274 100.174 661.073C100.509 660.836 100.895 661.005 101.003 661.283L126.487 702.79C126.724 703.125 126.555 703.511 126.313 703.712C126.107 704.006 125.628 703.873 125.483 703.502Z" fill="#656565"/>
<path opacity="0.5" d="M-13.736 345.799L-9.57655 318.132C-9.49958 317.782 -9.1649 317.545 -8.81454 317.622C-8.46417 317.698 -8.22694 318.033 -8.30391 318.383L-12.4634 346.05C-12.5404 346.4 -12.875 346.638 -13.2254 346.561C-13.483 346.448 -13.7203 346.113 -13.736 345.799Z" fill="#656565"/>
<path opacity="0.011267" d="M11.9653 194.024L-91.5097 294.27C-91.7516 294.471 -92.1585 294.523 -92.4885 294.225C-92.6896 293.983 -92.7415 293.576 -92.4429 293.247L11.032 193.001C11.274 192.799 11.6809 192.747 12.0109 193.046C12.212 193.287 12.2638 193.694 11.9653 194.024Z" fill="#656565"/>
<path opacity="0.2216" d="M45.3132 451.172L-40.2794 444.214C-40.6298 444.137 -40.9597 443.839 -40.8828 443.488C-40.8058 443.138 -40.6 442.844 -40.1569 442.885L45.5284 449.807C45.8787 449.884 46.2087 450.182 46.1317 450.532C45.9621 450.918 45.6274 451.156 45.3132 451.172Z" fill="#656565"/>
<path opacity="0.2629" d="M52.2803 351.855L89.4483 436.73C89.5929 437.1 89.4232 437.486 89.0524 437.631C88.6816 437.776 88.2951 437.606 88.1867 437.328L51.0187 352.454C50.8742 352.083 51.0438 351.697 51.3219 351.588C51.7854 351.407 52.1719 351.577 52.2803 351.855Z" fill="#656565"/>
<path opacity="0.5" d="M140.983 707.916L154.057 738.146C154.202 738.517 154.032 738.903 153.754 739.012C153.383 739.156 152.997 738.987 152.888 738.709L139.814 708.479C139.669 708.108 139.839 707.722 140.117 707.613C140.452 707.376 140.838 707.545 140.983 707.916Z" fill="#656565"/>
<path opacity="0.5" d="M56.3385 519.132L79.9556 510.133C80.3263 509.988 80.6202 510.194 80.7647 510.564C80.9093 510.935 80.7396 511.321 80.3688 511.466L56.7518 520.466C56.381 520.61 55.9945 520.441 55.8499 520.07C55.7981 519.664 55.9677 519.277 56.3385 519.132Z" fill="#656565"/>
<path opacity="0.2044" d="M123.381 351.23L174.379 415.98C174.58 416.222 174.54 416.665 174.205 416.902C173.963 417.103 173.52 417.063 173.319 416.821L122.228 352.107C121.991 351.773 122.068 351.423 122.274 351.129C122.701 350.855 123.144 350.896 123.381 351.23Z" fill="#656565"/>
<path opacity="0.3781" d="M160.977 382.995L174.451 416.165C174.595 416.536 174.426 416.922 174.148 417.031C173.777 417.175 173.39 417.006 173.282 416.728L159.716 383.594C159.571 383.224 159.741 382.837 160.111 382.693C160.446 382.455 160.833 382.625 160.977 382.995Z" fill="#656565"/>
<path opacity="0.4255" d="M89.5 437.136L80.8156 510.971C80.7386 511.322 80.404 511.559 80.0898 511.575C79.7394 511.498 79.5021 511.164 79.4864 510.849L88.1708 437.014C88.2478 436.664 88.5824 436.426 88.8967 436.411C89.3397 436.451 89.5409 436.693 89.5 437.136Z" fill="#656565"/>
<path opacity="0.5" d="M-3.5158 113.819L16.3824 105.416C16.7532 105.271 17.1397 105.441 17.2481 105.719C17.3926 106.089 17.223 106.476 16.9449 106.584L-2.9533 114.987C-3.32408 115.131 -3.71058 114.962 -3.85514 114.591C-3.96356 114.314 -3.88658 113.963 -3.5158 113.819Z" fill="#656565"/>
<path opacity="0.1462" d="M12.2285 193.602L-8.20955 318.347C-8.28653 318.697 -8.62118 318.934 -8.97154 318.858C-9.3219 318.781 -9.55916 318.446 -9.48219 318.096L10.8632 193.387C10.9401 193.037 11.2748 192.8 11.6251 192.876C11.9755 192.953 12.2128 193.288 12.2285 193.602Z" fill="#656565"/>
<path opacity="0.3101" d="M52.3901 352.133L50.6611 427.097C50.713 427.504 50.3783 427.741 49.9714 427.793C49.6572 427.809 49.3272 427.511 49.2754 427.104L51.097 352.103C51.0813 351.789 51.3798 351.459 51.7867 351.407C52.0444 351.52 52.3744 351.819 52.3901 352.133Z" fill="#656565"/>
<path opacity="0.1218" d="M98.4288 758.993L99.8916 661.717C99.8758 661.403 100.174 661.073 100.581 661.021C100.896 661.006 101.225 661.304 101.277 661.711L99.9073 758.95C99.8664 759.393 99.5318 759.631 99.1814 759.554C98.7745 759.606 98.4446 759.308 98.4288 758.993Z" fill="#656565"/>
<path opacity="0.013026" d="M101.347 628.488L41.758 650.132C41.3872 650.277 41.0007 650.108 40.8561 649.737C40.7116 649.367 40.8812 648.98 41.252 648.835L100.878 627.283C101.248 627.139 101.542 627.344 101.687 627.715C101.795 627.993 101.625 628.379 101.347 628.488Z" fill="#656565"/>
<path opacity="0.1656" d="M52.3899 352.133L46.0033 450.476C45.9263 450.826 45.6278 451.156 45.2774 451.079C44.8344 451.039 44.5971 450.704 44.6741 450.354L51.0607 352.011C51.1377 351.661 51.3435 351.367 51.7866 351.408C52.1369 351.484 52.3742 351.819 52.3899 352.133Z" fill="#656565"/>
<path opacity="0.4042" d="M-2.57766 114.306L12.2486 193.38C12.3004 193.787 12.0946 194.081 11.6877 194.133C11.2808 194.185 10.987 193.979 10.9351 193.572L-3.85499 114.591C-3.90685 114.184 -3.70104 113.891 -3.29411 113.839C-3.01603 113.73 -2.72222 113.936 -2.57766 114.306Z" fill="#656565"/>
<path opacity="0.3756" d="M51.6943 351.443L122.831 350.911C123.238 350.859 123.475 351.194 123.527 351.601C123.579 352.007 123.244 352.245 122.837 352.297L51.7572 352.7C51.443 352.715 51.113 352.417 51.0611 352.01C51.0816 351.789 51.3801 351.459 51.6943 351.443Z" fill="#656565"/>
<path opacity="0.1068" d="M40.8597 649.201L59.1635 601.393C59.2405 601.043 59.6112 600.898 59.9977 601.068C60.3481 601.145 60.4927 601.515 60.323 601.902L42.1481 649.766C41.9784 650.152 41.6076 650.297 41.2211 650.128C40.8346 649.958 40.69 649.588 40.8597 649.201Z" fill="#656565"/>
<path opacity="0.2936" d="M50.5881 426.912L80.8006 510.657C80.9452 511.028 80.7394 511.322 80.3686 511.466C79.9978 511.611 79.704 511.405 79.5594 511.035L49.2542 427.325C49.1097 426.955 49.2793 426.568 49.6863 426.516C50.0571 426.372 50.4435 426.541 50.5881 426.912Z" fill="#656565"/>
<path opacity="0.2073" d="M140.273 708.834L33.6295 687.886C33.2792 687.809 33.0419 687.475 33.1189 687.124C33.1959 686.774 33.5305 686.537 33.8809 686.614L140.431 707.597C140.782 707.674 141.019 708.009 140.942 708.359C140.958 708.673 140.623 708.91 140.273 708.834Z" fill="#656565"/>
<path opacity="0.259" d="M-33.2723 209.75L46.8588 161.092C47.1934 160.855 47.58 161.024 47.8172 161.359C48.0545 161.693 47.8848 162.08 47.5501 162.317L-32.5244 210.846C-32.8591 211.083 -33.2455 210.913 -33.4467 210.672C-33.6478 210.43 -33.5142 209.951 -33.2723 209.75Z" fill="#656565"/>
<path opacity="0.3851" d="M45.8938 450.198L80.764 510.565C81.0012 510.899 80.8316 511.286 80.4608 511.431C80.09 511.575 79.7396 511.498 79.595 511.128L44.761 450.853C44.5238 450.519 44.6934 450.132 45.0281 449.895C45.27 449.694 45.7492 449.827 45.8938 450.198Z" fill="#656565"/>
<path opacity="0.1844" d="M-30.565 710.046L36.6811 611.658C36.8869 611.364 37.2938 611.312 37.5876 611.518C37.8815 611.724 37.9333 612.13 37.7275 612.424L-29.5186 710.812C-29.7244 711.106 -30.1314 711.158 -30.4252 710.952C-30.719 710.747 -30.7709 710.34 -30.565 710.046Z" fill="#656565"/>
<path opacity="0.5" d="M126.287 702.549L140.617 707.525C140.967 707.602 141.148 708.065 141.035 708.323C140.958 708.673 140.587 708.818 140.237 708.741L125.906 703.764C125.556 703.687 125.375 703.224 125.452 702.874C125.565 702.616 125.936 702.472 126.287 702.549Z" fill="#656565"/>
<path opacity="0.1122" d="M100.424 662.257L41.3154 650.091C40.965 650.014 40.7278 649.68 40.7686 649.237C40.8456 648.887 41.1802 648.65 41.6233 648.69L100.639 660.892C100.989 660.969 101.226 661.303 101.149 661.654C101.109 662.096 100.774 662.334 100.424 662.257Z" fill="#656565"/>
<path opacity="0.3916" d="M10.8981 193.48L15.9701 106.003C16.047 105.653 16.3456 105.323 16.6959 105.4C17.0101 105.384 17.3401 105.682 17.2993 106.125L12.2273 193.602C12.243 193.916 11.8518 194.282 11.5014 194.205C11.1511 194.128 10.8211 193.83 10.8981 193.48Z" fill="#656565"/>
<path opacity="0.3534" d="M57.2 519.971L37.8418 612.166C37.7648 612.516 37.4302 612.754 37.0798 612.677C36.7295 612.6 36.4922 612.266 36.5692 611.915L55.9274 519.72C56.0043 519.37 56.339 519.132 56.6893 519.209C57.0397 519.286 57.277 519.62 57.2 519.971Z" fill="#656565"/>
<path opacity="0.087255" d="M153.126 739.043L33.5013 687.829C33.1148 687.66 32.9703 687.289 33.1399 686.903C33.3457 686.609 33.6804 686.372 33.9742 686.577L153.599 737.791C153.986 737.961 154.13 738.331 153.924 738.625C153.883 739.068 153.513 739.213 153.126 739.043Z" fill="#656565"/>
<path opacity="0.5" d="M92.6081 504.237L80.5546 511.394C80.22 511.631 79.8335 511.462 79.6889 511.091C79.4517 510.757 79.6213 510.37 79.8994 510.262L91.9529 503.105C92.2876 502.867 92.6741 503.037 92.9114 503.371C93.0198 503.649 92.8501 504.035 92.6081 504.237Z" fill="#656565"/>
<path opacity="0.4809" d="M37.8977 612.038L34.4845 687.339C34.4075 687.69 34.109 688.02 33.7586 687.943C33.4444 687.959 33.1145 687.66 33.1553 687.217L36.5685 611.916C36.6455 611.566 36.944 611.236 37.2944 611.313C37.6447 611.389 37.8458 611.631 37.8977 612.038Z" fill="#656565"/>
<path opacity="0.2513" d="M-12.5862 345.458L50.3876 426.67C50.6248 427.005 50.5479 427.355 50.2494 427.685C49.9147 427.922 49.5644 427.846 49.3271 427.511L-13.6467 346.299C-13.8839 345.964 -13.807 345.614 -13.4723 345.377C-13.1377 345.14 -12.7873 345.216 -12.5862 345.458Z" fill="#656565"/>
<path opacity="0.5" d="M126.58 702.754L153.892 737.997C154.129 738.332 154.052 738.682 153.718 738.919C153.476 739.12 153.033 739.08 152.832 738.838L125.427 703.631C125.19 703.296 125.267 702.946 125.565 702.616C125.936 702.472 126.379 702.512 126.58 702.754Z" fill="#656565"/>
<path opacity="0.5" d="M-30.2288 709.809L33.5681 686.63C33.9388 686.485 34.3253 686.654 34.4699 687.025C34.6144 687.396 34.4448 687.782 34.074 687.927L-29.7228 711.106C-30.0936 711.251 -30.4801 711.081 -30.6247 710.711C-30.8054 710.247 -30.5996 709.954 -30.2288 709.809Z" fill="#656565"/>
<path opacity="0.1382" d="M125.556 703.688L36.7858 612.472C36.5847 612.23 36.5328 611.823 36.8313 611.493C37.0733 611.292 37.4802 611.24 37.8101 611.538L126.488 702.79C126.689 703.032 126.741 703.439 126.443 703.769C126.201 703.97 125.757 703.929 125.556 703.688Z" fill="#656565"/>
<path opacity="0.3943" d="M-2.81621 113.972L47.6518 161.21C47.9456 161.416 47.9409 161.951 47.699 162.152C47.4932 162.446 47.0501 162.405 46.7563 162.2L-3.71172 114.962C-3.91284 114.72 -3.96469 114.313 -3.75888 114.02C-3.46038 113.69 -3.01732 113.73 -2.81621 113.972Z" fill="#656565"/>
<path opacity="0.3981" d="M55.9841 519.591L88.2856 436.756C88.4553 436.37 88.8261 436.225 89.2126 436.395C89.5991 436.564 89.7437 436.935 89.574 437.321L57.2725 520.156C57.1028 520.542 56.732 520.687 56.3455 520.517C55.959 520.348 55.7783 519.885 55.9841 519.591Z" fill="#656565"/>
<path opacity="0.4075" d="M140.923 708.58L99.6458 759.372C99.4399 759.666 99.033 759.718 98.7031 759.42C98.4093 759.214 98.3574 758.808 98.6559 758.478L139.933 707.686C140.139 707.392 140.545 707.34 140.875 707.638C141.077 707.88 141.128 708.287 140.923 708.58Z" fill="#656565"/>
<path opacity="0.038385" d="M101.003 661.283L151.899 720.843C152.136 721.177 152.096 721.62 151.761 721.858C151.426 722.095 151.076 722.018 150.782 721.812L99.979 662.217C99.7417 661.882 99.8187 661.532 100.061 661.331C100.359 661.001 100.766 660.949 101.003 661.283Z" fill="#656565"/>
<path opacity="0.3658" d="M55.8702 519.849L49.182 427.14C49.1302 426.734 49.4287 426.404 49.8717 426.444C50.186 426.428 50.5159 426.727 50.5316 427.041L57.2198 519.75C57.2717 520.156 56.9732 520.486 56.6228 520.409C56.252 520.554 55.9221 520.256 55.8702 519.849Z" fill="#656565"/>
<path opacity="0.3707" d="M125.942 703.857L33.6294 687.886C33.279 687.809 33.0418 687.475 33.1188 687.124C33.1957 686.774 33.5304 686.537 33.8807 686.614L126.157 702.492C126.508 702.569 126.745 702.903 126.668 703.253C126.627 703.696 126.292 703.933 125.942 703.857Z" fill="#656565"/>
<path opacity="0.4758" d="M17.2116 105.626L47.9103 161.323C48.0549 161.694 47.9779 162.044 47.6432 162.281C47.2725 162.426 46.9221 162.349 46.6848 162.015L16.0789 106.281C15.8416 105.947 16.0113 105.561 16.3459 105.323C16.624 105.215 17.0105 105.384 17.2116 105.626Z" fill="#656565"/>
<path opacity="0.5" d="M55.9058 519.941L44.6527 450.575C44.6008 450.168 44.8066 449.874 45.2135 449.822C45.6204 449.77 45.9143 449.976 45.9661 450.382L57.2193 519.749C57.2711 520.156 57.0653 520.45 56.6584 520.502C56.3441 520.517 55.9215 520.255 55.9058 519.941Z" fill="#656565"/>
<path opacity="0.4766" d="M98.8973 758.277L153.249 737.715C153.619 737.571 153.949 737.869 154.058 738.147C154.166 738.425 153.996 738.811 153.718 738.92L99.4598 759.445C99.089 759.59 98.7025 759.42 98.5579 759.05C98.3568 758.808 98.5265 758.422 98.8973 758.277Z" fill="#656565"/>
<path opacity="0.5" d="M50.0928 426.464L88.9897 436.374C89.3401 436.451 89.5774 436.786 89.5004 437.136C89.4234 437.486 89.0888 437.723 88.7023 437.554L49.8053 427.644C49.4549 427.567 49.2177 427.233 49.3873 426.846C49.557 426.46 49.7424 426.388 50.0928 426.464Z" fill="#656565"/>
<path opacity="0.5" d="M11.0312 193.001L46.673 161.165C47.0076 160.928 47.358 161.004 47.6518 161.21C47.889 161.544 47.9048 161.858 47.6062 162.188L11.8718 194.06C11.5371 194.298 11.1868 194.221 10.8929 194.015C10.7484 193.645 10.8254 193.295 11.0312 193.001Z" fill="#656565"/>
<path opacity="0.2352" d="M-50.3959 664.413L36.923 611.457C37.2577 611.22 37.6442 611.389 37.8814 611.724C38.1187 612.058 37.949 612.444 37.7071 612.646L-49.5757 665.694C-49.9104 665.931 -50.2969 665.762 -50.5341 665.428C-50.8075 665 -50.7305 664.65 -50.3959 664.413Z" fill="#656565"/>
<path opacity="0.5" d="M45.1208 449.858L88.6755 436.39C89.0463 436.245 89.3762 436.544 89.4846 436.822C89.6292 437.192 89.4234 437.486 89.0526 437.631L45.4979 451.099C45.1272 451.243 44.7045 450.981 44.6888 450.667C44.5443 450.297 44.7501 450.003 45.1208 449.858Z" fill="#656565"/>
<path opacity="0.020038" d="M140.015 708.721L41.0924 650.071C40.7986 649.866 40.6541 649.495 40.8237 649.109C41.0296 648.815 41.4003 648.67 41.7868 648.84L140.616 707.526C140.91 707.731 141.055 708.102 140.849 708.395C140.715 708.875 140.308 708.927 140.015 708.721Z" fill="#656565"/>
<path opacity="0.3841" d="M123.413 351.858L89.4443 437.265C89.2747 437.651 88.9039 437.796 88.5174 437.627C88.167 437.55 87.9863 437.087 88.1921 436.793L122.16 351.386C122.33 351 122.701 350.855 123.087 351.025C123.381 351.23 123.619 351.565 123.413 351.858Z" fill="#656565"/>
<path opacity="0.064968" d="M-29.8223 709.757L99.3408 758.318C99.7273 758.487 99.8719 758.858 99.7022 759.244C99.4964 759.538 99.2545 759.739 98.868 759.569L-30.2952 711.009C-30.6455 710.932 -30.8263 710.469 -30.7131 710.211C-30.5435 709.825 -30.08 709.644 -29.8223 709.757Z" fill="#656565"/>
<path opacity="0.5" d="M56.245 519.169L91.9156 503.012C92.2864 502.868 92.6729 503.037 92.8174 503.408C92.962 503.778 92.7923 504.164 92.5142 504.273L56.8437 520.43C56.4729 520.574 56.0863 520.405 55.9779 520.127C55.8334 519.756 56.0031 519.37 56.245 519.169Z" fill="#656565"/>
<path opacity="0.403" d="M160.731 383.732L89.2022 437.466C88.8676 437.703 88.5172 437.626 88.2799 437.292C88.0427 436.958 88.1196 436.607 88.4543 436.37L159.947 382.543C160.282 382.306 160.632 382.383 160.869 382.717C161.143 383.144 161.102 383.587 160.731 383.732Z" fill="#656565"/>
<path opacity="0.5" d="M44.674 450.354L49.3317 426.976C49.4087 426.625 49.7433 426.388 50.0937 426.465C50.444 426.542 50.6813 426.876 50.6043 427.226L45.9466 450.605C45.8696 450.955 45.535 451.192 45.1846 451.115C44.8343 451.038 44.597 450.704 44.674 450.354Z" fill="#656565"/>
<path opacity="0.01" d="M-29.4264 710.776L-101.707 837.599C-101.913 837.893 -102.284 838.038 -102.67 837.868C-102.964 837.663 -103.109 837.292 -102.939 836.906L-30.5654 710.046C-30.3596 709.752 -29.9888 709.608 -29.695 709.813C-29.4012 710.019 -29.2567 710.39 -29.4264 710.776Z" fill="#656565"/>
<path opacity="0.5" d="M91.5417 503.693L88.1726 437.015C88.1207 436.608 88.4553 436.371 88.8623 436.319C89.1765 436.303 89.5065 436.601 89.5222 436.915L92.8912 503.593C92.9431 504 92.6446 504.33 92.2016 504.289C91.9235 504.398 91.5935 504.1 91.5417 503.693Z" fill="#656565"/>
<path opacity="0.3451" d="M98.61 759.456L33.2437 687.716C33.0425 687.475 32.9907 687.068 33.2892 686.738C33.6238 686.501 33.9381 686.485 34.268 686.783L99.6343 758.523C99.8716 758.857 99.8307 759.3 99.5888 759.501C99.2541 759.739 98.8111 759.698 98.61 759.456Z" fill="#656565"/>
<path opacity="0.2981" d="M49.4092 426.625L122.274 351.129C122.48 350.835 122.923 350.876 123.217 351.081C123.511 351.287 123.47 351.73 123.264 352.024L50.3629 427.427C50.0644 427.757 49.714 427.681 49.4202 427.475C49.1625 427.362 49.2034 426.919 49.4092 426.625Z" fill="#656565"/>
<path opacity="0.5" d="M40.7842 649.551L36.6054 612.008C36.5535 611.601 36.852 611.272 37.1662 611.256C37.4804 611.24 37.9031 611.502 37.9188 611.816L42.1904 649.323C42.2422 649.73 41.9437 650.06 41.5368 650.112C41.166 650.256 40.8361 649.958 40.7842 649.551Z" fill="#656565"/>
<path opacity="0.2996" d="M37.6361 612.46L-27.9918 663.252C-28.3265 663.489 -28.7695 663.449 -29.0068 663.114C-29.244 662.78 -29.167 662.43 -28.8324 662.192L36.8316 611.493C37.1663 611.256 37.5166 611.333 37.7177 611.574C37.955 611.909 37.878 612.259 37.6361 612.46Z" fill="#656565"/>
<path opacity="0.3655" d="M-49.8947 664.324L33.9748 686.577C34.3252 686.654 34.5624 686.989 34.3928 687.375C34.3158 687.725 33.9811 687.963 33.5946 687.793L-50.2749 665.54C-50.6253 665.463 -50.8987 665.036 -50.729 664.65C-50.5798 664.485 -50.2451 664.248 -49.8947 664.324Z" fill="#656565"/>
<path opacity="0.1026" d="M43.7704 460.632L80.6921 510.379C80.9294 510.714 80.8524 511.064 80.5178 511.301C80.1831 511.539 79.8327 511.462 79.5955 511.127L42.6737 461.38C42.4365 461.046 42.4773 460.603 42.812 460.366C43.1828 460.221 43.5331 460.298 43.7704 460.632Z" fill="#656565"/>
<path opacity="0.1573" d="M44.787 450.096L122.31 351.221C122.516 350.927 122.923 350.875 123.217 351.081C123.51 351.286 123.562 351.693 123.356 351.987L45.8334 450.862C45.6276 451.155 45.2207 451.207 44.9269 451.002C44.6331 450.796 44.5812 450.389 44.787 450.096Z" fill="#656565"/>
<path opacity="0.366" d="M140.911 707.731L151.992 720.807C152.23 721.141 152.189 721.584 151.947 721.785C151.612 722.022 151.169 721.982 150.968 721.74L139.979 708.628C139.742 708.294 139.819 707.944 140.061 707.742C140.267 707.449 140.617 707.526 140.911 707.731Z" fill="#656565"/>
<path opacity="0.2774" d="M-30.4146 709.881L41.067 648.907C41.4017 648.67 41.8448 648.711 42.0459 648.952C42.2831 649.287 42.2423 649.73 42.0003 649.931L-29.5174 710.812C-29.8521 711.049 -30.2025 710.973 -30.4963 710.767C-30.7901 710.561 -30.7492 710.118 -30.4146 709.881Z" fill="#656565"/>
<path opacity="0.5" d="M126.647 703.475L99.7007 759.244C99.531 759.631 99.1241 759.683 98.7737 759.606C98.3872 759.436 98.3353 759.03 98.4123 758.679L125.359 702.91C125.528 702.524 125.935 702.472 126.286 702.549C126.672 702.718 126.853 703.181 126.647 703.475Z" fill="#656565"/>
<path opacity="0.4049" d="M50.5164 426.727L92.7825 503.315C93.0198 503.65 92.8501 504.036 92.5154 504.273C92.1808 504.511 91.7943 504.341 91.5571 504.007L49.291 427.418C49.0537 427.084 49.2234 426.697 49.5581 426.46C49.9288 426.316 50.3153 426.485 50.5164 426.727Z" fill="#656565"/>
<path opacity="0.5" d="M159.881 383.743L122.357 352.164C122.063 351.958 122.011 351.551 122.31 351.221C122.515 350.928 122.922 350.876 123.252 351.174L160.777 382.754C161.071 382.959 161.03 383.402 160.824 383.696C160.618 383.99 160.175 383.949 159.881 383.743Z" fill="#656565"/>
<path opacity="0.5" d="M45.8217 450.012L92.7454 503.222C92.9827 503.557 92.9418 503.999 92.6999 504.2C92.3652 504.438 91.9222 504.397 91.7211 504.155L44.7974 450.945C44.5601 450.611 44.5444 450.297 44.8429 449.967C45.1775 449.73 45.6206 449.77 45.8217 450.012Z" fill="#656565"/>
<path opacity="0.065253" d="M57.2552 519.843L42.1686 649.545C42.0916 649.895 41.7931 650.225 41.4427 650.148C41.0923 650.072 40.7624 649.773 40.8394 649.423L55.926 519.721C56.003 519.371 56.3376 519.133 56.6519 519.117C57.0022 519.194 57.2395 519.529 57.2552 519.843Z" fill="#656565"/>
<path opacity="0.5" d="M42.1126 649.673L34.4277 687.468C34.3508 687.818 34.0161 688.056 33.6658 687.979C33.3154 687.902 33.0781 687.568 33.1551 687.217L40.8399 649.423C40.9169 649.072 41.2515 648.835 41.6946 648.876C42.0088 648.86 42.1895 649.323 42.1126 649.673Z" fill="#656565"/>
<path opacity="0.4355" d="M-28.1475 662.032L33.9745 686.578C34.361 686.747 34.5056 687.118 34.3359 687.504C34.1662 687.89 33.7955 688.035 33.5016 687.829L-28.713 663.32C-29.0995 663.15 -29.2441 662.78 -29.0744 662.393C-28.8686 662.099 -28.4978 661.955 -28.1475 662.032Z" fill="#656565"/>
<path opacity="0.4094" d="M152.817 738.524L150.732 721.406C150.68 720.999 150.978 720.669 151.385 720.617C151.792 720.565 152.122 720.863 152.174 721.27L154.167 738.425C154.219 738.831 153.92 739.161 153.606 739.177C153.163 739.137 152.833 738.838 152.817 738.524Z" fill="#656565"/>
<path opacity="0.054862" d="M-2.86078 114.951L-59.5915 160.35C-59.9261 160.587 -60.3692 160.547 -60.6065 160.212C-60.8437 159.878 -60.8029 159.435 -60.4682 159.198L-3.70139 113.891C-3.36674 113.654 -3.01637 113.73 -2.81525 113.972C-2.48531 114.27 -2.52614 114.713 -2.86078 114.951Z" fill="#656565"/>
<path opacity="0.2576" d="M125.685 703.744L41.0935 650.071C40.7997 649.865 40.7478 649.459 40.9175 649.072C41.1233 648.779 41.5302 648.727 41.7879 648.84L126.287 702.549C126.581 702.754 126.633 703.161 126.427 703.455C126.386 703.898 125.979 703.95 125.685 703.744Z" fill="#656565"/>
<path opacity="0.1406" d="M141.035 708.323L128.744 763.605C128.667 763.955 128.24 764.228 127.89 764.152C127.539 764.075 127.266 763.648 127.343 763.298L139.726 707.979C139.803 707.629 140.138 707.392 140.488 707.469C140.875 707.638 141.112 707.972 141.035 708.323Z" fill="#656565"/>
<path opacity="0.1264" d="M151.169 721.982L33.5371 687.922C33.1867 687.845 33.0422 687.475 33.1192 687.125C33.1961 686.774 33.5669 686.63 33.9173 686.707L151.513 720.673C151.864 720.75 152.137 721.177 151.967 721.564C151.947 721.785 151.52 722.058 151.169 721.982Z" fill="#656565"/>
<path opacity="0.040467" d="M16.9441 106.584L-59.5921 160.35C-59.9268 160.587 -60.3698 160.547 -60.6071 160.212C-60.8443 159.878 -60.8035 159.435 -60.4327 159.29L16.2323 105.581C16.567 105.343 16.9173 105.42 17.1546 105.755C17.3195 105.904 17.2787 106.347 16.9441 106.584Z" fill="#656565"/>
<path opacity="0.345" d="M55.9065 519.942L42.5656 461.103C42.5137 460.696 42.7195 460.402 43.0903 460.257C43.4973 460.205 43.791 460.411 43.9356 460.782L57.2765 519.621C57.3283 520.027 57.1225 520.321 56.7517 520.466C56.3448 520.518 56.051 520.312 55.9065 519.942Z" fill="#656565"/>
<path opacity="0.2347" d="M127.549 763.004L153.007 737.916C153.249 737.715 153.656 737.663 153.985 737.961C154.187 738.203 154.238 738.61 153.94 738.94L128.575 763.992C128.276 764.322 127.833 764.281 127.596 763.947C127.173 763.685 127.214 763.242 127.549 763.004Z" fill="#656565"/>
<path opacity="0.2309" d="M11.2436 194.092L-60.3133 160.418C-60.6998 160.249 -60.8444 159.878 -60.6747 159.492C-60.505 159.105 -60.1343 158.961 -59.7477 159.13L11.7526 192.933C12.0464 193.139 12.191 193.509 11.9852 193.803C11.9082 194.153 11.5374 194.298 11.2436 194.092Z" fill="#656565"/>
<path opacity="0.1562" d="M98.5379 759.271L40.8925 649.829C40.7479 649.459 40.8249 649.108 41.1595 648.871C41.5303 648.727 41.8807 648.803 42.1179 649.138L99.7633 758.58C100.001 758.914 99.8309 759.301 99.4963 759.538C99.1617 759.775 98.6824 759.642 98.5379 759.271Z" fill="#656565"/>
<path opacity="0.5" d="M126.451 702.698L151.827 720.657C152.12 720.863 152.209 721.362 152.003 721.656C151.797 721.95 151.297 722.038 151.003 721.832L125.684 703.744C125.39 703.538 125.338 703.132 125.544 702.838C125.75 702.544 126.121 702.4 126.451 702.698Z" fill="#656565"/>
<path opacity="0.096312" d="M190.161 504.074L88.4815 437.534C88.1877 437.328 88.1358 436.921 88.3416 436.628C88.5474 436.334 88.9544 436.282 89.2482 436.487L190.985 502.899C191.278 503.104 191.366 503.604 191.161 503.897C190.955 504.191 190.455 504.279 190.161 504.074Z" fill="#656565"/>
<path opacity="0.3712" d="M42.9041 460.33L88.5464 436.334C88.9172 436.189 89.2676 436.266 89.4122 436.637C89.5567 437.007 89.4797 437.357 89.1089 437.502L43.4666 461.498C43.0959 461.643 42.7455 461.566 42.5082 461.231C42.3998 460.954 42.5695 460.567 42.9041 460.33Z" fill="#656565"/>
<path opacity="0.3808" d="M-50.21 664.34L41.3444 648.799C41.7513 648.747 42.0813 649.045 42.097 649.359C42.1489 649.766 41.943 650.06 41.5361 650.112L-50.0182 665.653C-50.4251 665.705 -50.7551 665.407 -50.7708 665.093C-50.7865 664.779 -50.5242 664.356 -50.21 664.34Z" fill="#656565"/>
<path opacity="0.4435" d="M94.3167 406.224L89.5006 437.136C89.4237 437.486 89.089 437.723 88.7386 437.647C88.3883 437.57 88.151 437.235 88.228 436.885L92.9514 406.01C93.0284 405.659 93.363 405.422 93.8061 405.463C94.0638 405.576 94.301 405.91 94.3167 406.224Z" fill="#656565"/>
<path opacity="0.5" d="M50.6033 427.226L43.9507 461.095C43.8737 461.446 43.539 461.683 43.096 461.642C42.6529 461.602 42.5084 461.231 42.5492 460.788L49.2946 426.882C49.3715 426.532 49.7062 426.295 50.0566 426.372C50.4431 426.541 50.6803 426.875 50.6033 427.226Z" fill="#656565"/>
<path opacity="0.5" d="M45.9469 450.604L43.8592 461.132C43.7823 461.482 43.4476 461.719 43.0046 461.679C42.6542 461.602 42.4169 461.267 42.4578 460.825L44.5455 450.297C44.6225 449.947 44.9571 449.709 45.3075 449.786C45.7867 449.919 46.0239 450.254 45.9469 450.604Z" fill="#656565"/>
<path opacity="0.072261" d="M127.539 764.076L33.2789 687.81C32.985 687.604 32.9332 687.197 33.2317 686.867C33.4375 686.574 33.8444 686.522 34.1382 686.727L128.398 762.993C128.692 763.199 128.78 763.698 128.481 764.028C128.332 764.193 127.832 764.281 127.539 764.076Z" fill="#656565"/>
<path opacity="0.5" d="M41.5726 650.204L-28.2341 663.453C-28.641 663.505 -28.9349 663.299 -28.9867 662.893C-29.0386 662.486 -28.8328 662.192 -28.462 662.048L41.3448 648.799C41.7517 648.747 42.0455 648.952 42.0974 649.359C42.2419 649.73 41.9434 650.06 41.5726 650.204Z" fill="#656565"/>
<path opacity="0.4697" d="M49.6869 426.517L93.3073 405.551C93.6781 405.406 94.0646 405.576 94.2657 405.818C94.4102 406.188 94.2405 406.575 93.9986 406.776L50.3421 427.649C49.9713 427.793 49.5848 427.624 49.4764 427.346C49.1465 427.048 49.3161 426.661 49.6869 426.517Z" fill="#656565"/>
<path opacity="0.5" d="M98.7488 758.442L151.015 720.762C151.349 720.524 151.792 720.565 152.03 720.899C152.267 721.234 152.226 721.677 151.891 721.914L99.6256 759.594C99.2909 759.832 98.9406 759.755 98.7033 759.421C98.3372 759.03 98.4142 758.679 98.7488 758.442Z" fill="#656565"/>
<path opacity="0.09903" d="M161.014 383.088L191.257 503.326C191.309 503.733 191.139 504.12 190.733 504.172C190.326 504.224 190.032 504.018 189.887 503.647L159.644 383.409C159.499 383.039 159.798 382.709 160.168 382.564C160.575 382.512 160.869 382.718 161.014 383.088Z" fill="#656565"/>
<path opacity="0.4174" d="M44.8439 449.967L93.1219 405.623C93.4566 405.386 93.8635 405.334 94.1007 405.668C94.338 406.003 94.3898 406.41 94.0552 406.647L45.7772 450.991C45.4425 451.228 45.1283 451.244 44.7983 450.946C44.5972 450.704 44.6381 450.261 44.8439 449.967Z" fill="#656565"/>
<path opacity="0.3632" d="M126.761 703.218L128.801 763.477C128.853 763.883 128.554 764.213 128.111 764.173C127.705 764.225 127.375 763.926 127.415 763.484L125.376 703.225C125.324 702.818 125.658 702.581 126.065 702.529C126.38 702.513 126.71 702.811 126.761 703.218Z" fill="#656565"/>
<path opacity="0.3639" d="M92.9719 405.788L122.217 351.257C122.423 350.964 122.793 350.819 123.18 350.988C123.474 351.194 123.618 351.565 123.449 351.951L94.2037 406.482C93.9979 406.776 93.6271 406.92 93.2406 406.751C92.9468 406.545 92.8022 406.175 92.9719 405.788Z" fill="#656565"/>
<path opacity="0.3194" d="M190.547 504.243L92.2363 504.382C91.8294 504.434 91.5922 504.099 91.5403 503.692C91.4885 503.286 91.8231 503.048 92.23 502.996L190.505 502.765C190.912 502.713 191.185 503.14 191.201 503.455C191.253 503.861 190.954 504.191 190.547 504.243Z" fill="#656565"/>
<path opacity="0.173" d="M47.2369 162.333L-59.9979 160.402C-60.4049 160.454 -60.6783 160.027 -60.694 159.713C-60.7459 159.306 -60.3185 159.033 -60.0043 159.017L47.2305 160.948C47.6375 160.896 47.8747 161.23 47.9266 161.637C47.8858 162.08 47.5872 162.41 47.2369 162.333Z" fill="#656565"/>
<path opacity="0.4515" d="M43.6988 460.447L92.7102 503.13C93.004 503.335 92.9632 503.778 92.7574 504.072C92.5516 504.366 92.0158 504.361 91.8147 504.119L42.8033 461.437C42.4733 461.139 42.5141 460.696 42.7561 460.495C42.998 460.293 43.405 460.242 43.6988 460.447Z" fill="#656565"/>
<path opacity="0.3368" d="M160.582 383.897L93.813 406.848C93.4422 406.993 93.0195 406.731 92.875 406.36C92.7304 405.99 92.9928 405.567 93.2709 405.458L159.948 382.543C160.318 382.399 160.705 382.568 160.849 382.939C161.123 383.366 160.953 383.752 160.582 383.897Z" fill="#656565"/>
<path opacity="0.2783" d="M94.2814 406.132L92.9271 503.686C92.979 504.092 92.5516 504.366 92.2374 504.382C91.9232 504.398 91.5932 504.099 91.5414 503.693L92.8957 406.139C92.8438 405.732 93.2712 405.458 93.5854 405.443C94.0284 405.483 94.2657 405.818 94.2814 406.132Z" fill="#656565"/>
<path opacity="0.01" d="M154.129 738.332L164.075 790.384C164.127 790.79 163.921 791.084 163.55 791.229C163.143 791.281 162.757 791.111 162.705 790.704L152.852 738.617C152.8 738.21 153.006 737.916 153.413 737.864C153.655 737.663 153.985 737.961 154.129 738.332Z" fill="#656565"/>
<path opacity="0.1456" d="M41.8239 648.932L151.735 720.694C152.029 720.899 152.117 721.398 151.911 721.692C151.705 721.986 151.298 722.038 150.912 721.869L41.0007 650.107C40.7068 649.902 40.655 649.495 40.8247 649.108C41.1232 648.779 41.5301 648.726 41.8239 648.932Z" fill="#656565"/>
<path opacity="0.2297" d="M181.407 556.375L91.8502 504.212C91.5564 504.006 91.4119 503.636 91.5816 503.25C91.7874 502.956 92.1582 502.811 92.5447 502.981L182.101 555.144C182.395 555.349 182.576 555.812 182.37 556.106C182.2 556.493 181.793 556.545 181.407 556.375Z" fill="#656565"/>
<path opacity="0.059581" d="M127.467 763.89L40.9284 649.922C40.6912 649.587 40.732 649.144 41.0666 648.907C41.4013 648.67 41.7516 648.747 42.0816 649.045L128.62 763.013C128.858 763.347 128.817 763.79 128.482 764.027C128.147 764.265 127.704 764.224 127.467 763.89Z" fill="#656565"/>
<path opacity="0.01" d="M190.418 504.187L43.0958 461.643C42.7455 461.566 42.4721 461.139 42.6418 460.752C42.7187 460.402 43.1461 460.129 43.5326 460.298L190.819 502.75C191.169 502.826 191.442 503.253 191.273 503.64C191.103 504.026 190.768 504.263 190.418 504.187Z" fill="#656565"/>
<path opacity="0.5" d="M127.399 763.169L150.772 720.963C150.977 720.669 151.348 720.524 151.735 720.694C152.028 720.899 152.173 721.27 152.003 721.656L128.631 763.863C128.461 764.249 128.054 764.301 127.668 764.132C127.374 763.926 127.193 763.463 127.399 763.169Z" fill="#656565"/>
<path opacity="0.1033" d="M190.031 504.017L93.1111 406.694C92.7812 406.396 92.822 405.953 93.1566 405.716C93.4913 405.479 93.8982 405.427 94.1355 405.761L191.056 503.084C191.386 503.382 191.345 503.825 191.01 504.063C190.768 504.264 190.325 504.223 190.031 504.017Z" fill="#656565"/>
<path opacity="0.5" d="M94.148 406.611L43.7822 461.482C43.4837 461.812 43.0407 461.772 42.8396 461.53C42.5096 461.232 42.5504 460.789 42.7924 460.588L93.1581 405.716C93.4566 405.386 93.8997 405.427 94.1008 405.669C94.3019 405.91 94.3538 406.317 94.148 406.611Z" fill="#656565"/>
<path opacity="0.5" d="M191.273 503.64L182.519 555.941C182.442 556.291 182.107 556.529 181.664 556.488C181.314 556.411 181.077 556.077 181.118 555.634L189.872 503.333C189.949 502.982 190.283 502.745 190.726 502.786C191.077 502.862 191.314 503.197 191.273 503.64Z" fill="#656565"/>
<path opacity="0.4292" d="M152.137 721.177L164.111 790.476C164.163 790.882 163.865 791.212 163.494 791.357C163.087 791.409 162.757 791.111 162.613 790.74L150.674 721.534C150.623 721.127 150.828 720.833 151.235 720.781C151.663 720.508 151.993 720.806 152.137 721.177Z" fill="#656565"/>
<path opacity="0.3679" d="M190.892 502.935L270.66 548.349C271.046 548.519 271.134 549.018 270.929 549.312C270.723 549.606 270.259 549.786 269.965 549.581L190.197 504.166C189.904 503.961 189.759 503.59 189.929 503.204C190.191 502.781 190.598 502.729 190.892 502.935Z" fill="#656565"/>
<path opacity="0.4346" d="M181.75 555.067L270.273 548.18C270.68 548.128 271.01 548.426 271.061 548.833C271.113 549.239 270.815 549.569 270.408 549.621L181.886 556.508C181.479 556.56 181.149 556.262 181.097 555.855C181.045 555.449 181.344 555.119 181.75 555.067Z" fill="#656565"/>
<path opacity="0.2035" d="M151.004 721.832L108.653 690.748C108.323 690.45 108.271 690.043 108.477 689.749C108.775 689.419 109.182 689.367 109.476 689.573L151.827 720.657C152.121 720.863 152.209 721.362 152.003 721.656C151.704 721.986 151.297 722.038 151.004 721.832Z" fill="#656565"/>
<path opacity="0.2526" d="M-12.7208 78.4496L-59.3857 160.056C-59.5915 160.35 -59.9623 160.495 -60.3488 160.325C-60.6426 160.12 -60.7871 159.749 -60.6175 159.363L-14.0814 77.6995C-13.9118 77.3131 -13.4122 77.2249 -13.0257 77.3943C-12.6957 77.6926 -12.515 78.1558 -12.7208 78.4496Z" fill="#656565"/>
<path opacity="0.2536" d="M127.358 763.612L108.344 690.228C108.199 689.858 108.461 689.435 108.868 689.383C109.275 689.331 109.662 689.5 109.714 689.907L128.6 763.235C128.651 763.641 128.482 764.028 128.075 764.08C127.833 764.281 127.41 764.019 127.358 763.612Z" fill="#656565"/>
<path opacity="0.5" d="M-31.0253 235.771L30.2283 275.066C30.5221 275.271 30.7028 275.734 30.4043 276.064C30.1985 276.358 29.735 276.539 29.4051 276.241L-31.8486 236.946C-32.1424 236.741 -32.3231 236.277 -32.0246 235.948C-31.7261 235.618 -31.448 235.509 -31.0253 235.771Z" fill="#656565"/>
<path opacity="0.4849" d="M-49.9197 283.704L29.7147 274.84C30.1216 274.788 30.4515 275.086 30.5034 275.493C30.5553 275.9 30.2568 276.23 29.8498 276.282L-49.7845 285.145C-50.1915 285.197 -50.5214 284.899 -50.5733 284.492C-50.589 284.178 -50.3266 283.756 -49.9197 283.704Z" fill="#656565"/>
<path opacity="0.1458" d="M21.1038 424.431L43.8628 460.596C44.1001 460.931 43.9304 461.317 43.5958 461.554C43.2612 461.792 42.8746 461.622 42.6735 461.38L19.8218 425.251C19.5845 424.917 19.718 424.438 20.0527 424.2C20.3873 423.963 20.8665 424.096 21.1038 424.431Z" fill="#656565"/>
<path opacity="0.052568" d="M20.2382 424.128L93.3992 405.515C93.8061 405.463 94.1926 405.632 94.2445 406.039C94.2963 406.446 94.1267 406.832 93.7198 406.884L20.5949 425.59C20.2241 425.735 19.8015 425.473 19.6569 425.102C19.569 424.603 19.8313 424.18 20.2382 424.128Z" fill="#656565"/>
<path opacity="0.056812" d="M20.3739 425.57L-79.4566 413.599C-79.8069 413.522 -80.1369 413.224 -80.096 412.781C-80.0191 412.431 -79.7206 412.101 -79.3702 412.178L20.5529 424.112C20.996 424.153 21.2694 424.58 21.1924 424.93C21.1154 425.281 20.7242 425.647 20.3739 425.57Z" fill="#656565"/>
<path opacity="0.027431" d="M-12.6078 78.1921L-30.6786 236.384C-30.7194 236.827 -31.054 237.064 -31.4971 237.023C-31.9402 236.983 -32.1774 236.648 -32.1366 236.205L-14.1019 77.921C-14.0611 77.4781 -13.7264 77.2409 -13.2834 77.2815C-12.8969 77.4509 -12.5669 77.7492 -12.6078 78.1921Z" fill="#656565"/>
<path opacity="0.5" d="M-48.6362 280.427L29.713 274.84C30.12 274.788 30.4499 275.086 30.5018 275.493C30.5536 275.9 30.2551 276.229 29.8482 276.282L-48.4084 281.832C-48.8153 281.884 -49.1452 281.586 -49.1971 281.179C-49.249 280.773 -48.9505 280.443 -48.6362 280.427Z" fill="#656565"/>
<path opacity="0.207" d="M162.648 790.833L108.323 690.45C108.178 690.079 108.219 689.636 108.682 689.456C109.053 689.311 109.496 689.352 109.641 689.722L163.873 790.142C164.018 790.512 163.977 790.955 163.606 791.1C163.272 791.337 162.885 791.168 162.648 790.833Z" fill="#656565"/>
<path opacity="0.4941" d="M-47.0383 256.321L29.9354 274.86C30.2858 274.937 30.5592 275.364 30.4822 275.714C30.4052 276.065 29.9779 276.338 29.6275 276.261L-47.3462 257.722C-47.6966 257.646 -47.97 257.218 -47.893 256.868C-47.816 256.518 -47.4814 256.281 -47.0383 256.321Z" fill="#656565"/>
<path opacity="0.2148" d="M-49.5546 71.3639L54.4342 121.099C54.8208 121.269 54.9088 121.768 54.7391 122.154C54.5694 122.541 54.1059 122.722 53.7194 122.552L-50.2695 72.8169C-50.656 72.6475 -50.8367 72.1843 -50.6309 71.8905C-50.4046 71.3753 -49.9411 71.1945 -49.5546 71.3639Z" fill="#656565"/>
<path opacity="0.061086" d="M54.7589 121.933L30.482 275.714C30.405 276.064 30.0138 276.43 29.6273 276.261C29.2769 276.184 28.947 275.886 28.9878 275.443L53.2648 121.661C53.3056 121.219 53.733 120.945 54.0833 121.022C54.5625 121.155 54.8359 121.582 54.7589 121.933Z" fill="#656565"/>
<path opacity="0.1452" d="M20.4659 425.534L-103.244 429.282C-103.651 429.334 -104.017 428.944 -103.94 428.593C-103.992 428.187 -103.6 427.821 -103.25 427.897L20.4595 424.148C20.8665 424.096 21.2325 424.487 21.1917 424.93C21.2074 425.244 20.9089 425.574 20.4659 425.534Z" fill="#656565"/>
<path opacity="0.099979" d="M18.2128 313.803L-32.1053 236.833C-32.3425 236.499 -32.209 236.019 -31.8744 235.782C-31.5397 235.545 -31.0605 235.678 -30.8233 236.013L19.5876 312.946C19.8248 313.281 19.6913 313.76 19.3566 313.997C18.8932 314.178 18.4501 314.137 18.2128 313.803Z" fill="#656565"/>
<path opacity="0.3784" d="M-59.6327 167.091L-14.0459 77.7922C-13.8763 77.4058 -13.3766 77.3176 -12.9901 77.4871C-12.6036 77.6565 -12.5156 78.1559 -12.6853 78.5423L-58.2721 167.841C-58.4418 168.227 -58.9414 168.315 -59.3279 168.146C-59.7505 167.884 -59.8385 167.384 -59.6327 167.091Z" fill="#656565"/>
<path opacity="0.3542" d="M74.2736 789.337L108.421 689.878C108.59 689.492 108.925 689.254 109.404 689.388C109.791 689.557 109.935 689.928 109.858 690.278L75.8039 789.701C75.6342 790.087 75.2996 790.324 74.8203 790.191C74.3773 790.151 74.1401 789.816 74.2736 789.337Z" fill="#656565"/>
<path opacity="0.4259" d="M-61.5589 416.223L20.516 424.02C20.959 424.06 21.1963 424.395 21.1555 424.838C21.1146 425.281 20.78 425.518 20.3369 425.477L-61.7741 417.588C-62.2172 417.548 -62.4544 417.213 -62.4136 416.77C-62.3728 416.327 -62.002 416.183 -61.5589 416.223Z" fill="#656565"/>
<path opacity="0.4934" d="M-12.989 77.4873L54.4708 121.192C54.7646 121.398 54.9453 121.861 54.6468 122.191C54.441 122.485 53.9775 122.665 53.6475 122.367L-13.8122 78.6623C-14.106 78.4567 -14.2867 77.9935 -13.9882 77.6636C-13.7824 77.3698 -13.2828 77.2817 -12.989 77.4873Z" fill="#656565"/>
<path opacity="0.2612" d="M-59.2412 166.724L53.8053 121.131C54.1761 120.986 54.6553 121.119 54.7998 121.49C54.9444 121.86 54.8109 122.339 54.4401 122.484L-58.6064 168.078C-58.9772 168.222 -59.3637 168.053 -59.601 167.718C-59.8744 167.291 -59.7047 166.905 -59.2412 166.724Z" fill="#656565"/>
<path opacity="0.1899" d="M162.597 790.426L168.842 737.716C168.883 737.273 169.31 736.999 169.753 737.04C170.196 737.081 170.434 737.415 170.393 737.858L164.019 790.512C163.978 790.955 163.643 791.192 163.2 791.151C162.886 791.167 162.556 790.869 162.597 790.426Z" fill="#656565"/>
<path opacity="0.3271" d="M18.507 314.009L-48.8503 281.792C-49.2368 281.622 -49.4175 281.159 -49.2116 280.865C-49.042 280.479 -48.5785 280.298 -48.2847 280.504L19.1653 312.685C19.5518 312.854 19.7325 313.317 19.5628 313.704C19.3931 314.09 18.9296 314.271 18.507 314.009Z" fill="#656565"/>
<path opacity="0.4312" d="M18.1446 313.082L29.0801 275.407C29.2497 275.021 29.5844 274.783 29.9709 274.953C30.3574 275.122 30.5946 275.457 30.425 275.843L19.5256 313.611C19.3559 313.997 19.0213 314.235 18.5421 314.101C18.2483 313.896 18.011 313.561 18.1446 313.082Z" fill="#656565"/>
<path opacity="0.1371" d="M-62.2078 416.477L18.2578 312.825C18.5563 312.495 18.9632 312.443 19.3858 312.705C19.7158 313.003 19.7677 313.41 19.5053 313.833L-61.0891 417.428C-61.3876 417.758 -61.7946 417.81 -62.1245 417.512C-62.4183 417.306 -62.5063 416.807 -62.2078 416.477Z" fill="#656565"/>
<path opacity="0.342" d="M18.3782 313.952L-47.6962 257.645C-48.0262 257.347 -47.9853 256.904 -47.7795 256.611C-47.5737 256.317 -47.0741 256.229 -46.7442 256.527L19.4229 312.797C19.7529 313.096 19.8048 313.502 19.5062 313.832C19.2077 314.162 18.672 314.158 18.3782 313.952Z" fill="#656565"/>
<path opacity="0.2381" d="M-105.726 423.74L20.4599 424.149C20.9029 424.189 21.2329 424.487 21.192 424.93C21.1512 425.373 20.8527 425.703 20.4096 425.662L-105.776 425.254C-106.219 425.213 -106.549 424.915 -106.508 424.472C-106.468 424.029 -106.169 423.699 -105.726 423.74Z" fill="#656565"/>
<path opacity="0.4096" d="M169.13 738.457L108.653 690.748C108.323 690.45 108.271 690.043 108.569 689.713C108.868 689.383 109.275 689.331 109.605 689.629L170.175 737.302C170.505 737.601 170.593 738.1 170.295 738.43C169.96 738.667 169.424 738.663 169.13 738.457Z" fill="#656565"/>
<path opacity="0.09038" d="M132.524 275.829L29.757 276.318C29.314 276.277 28.984 275.979 29.0249 275.536C28.973 275.129 29.4003 274.856 29.7146 274.84L132.445 274.259C132.888 274.299 133.218 274.597 133.177 275.04C133.265 275.54 132.967 275.87 132.524 275.829Z" fill="#656565"/>
<path opacity="0.3314" d="M19.6774 424.881L18.0681 313.433C18.1089 312.99 18.4074 312.66 18.8505 312.701C19.2935 312.741 19.6235 313.039 19.5826 313.482L21.192 424.93C21.2438 425.337 20.8526 425.703 20.4096 425.663C20.0592 425.586 19.6931 425.195 19.6774 424.881Z" fill="#656565"/>
<path opacity="0.283" d="M74.6659 788.971L169.255 737.128C169.589 736.891 170.068 737.024 170.342 737.451C170.579 737.786 170.445 738.265 170.018 738.538L75.3934 790.288C75.0226 790.433 74.5434 790.299 74.3988 789.929C74.1616 789.594 74.2951 789.115 74.6659 788.971Z" fill="#656565"/>
<path opacity="0.028443" d="M38.7739 613.19L109.605 689.629C109.935 689.927 109.894 690.37 109.595 690.7C109.261 690.937 108.854 690.989 108.524 690.691L37.6364 614.381C37.3992 614.046 37.4039 613.511 37.7385 613.273C38.0009 612.851 38.5366 612.855 38.7739 613.19Z" fill="#656565"/>
<path opacity="0.1481" d="M-74.0734 499.132L19.9599 424.237C20.2946 424 20.7376 424.04 20.9749 424.375C21.2121 424.709 21.1713 425.152 20.8728 425.482L-73.1243 500.469C-73.459 500.707 -73.9947 500.702 -74.232 500.368C-74.5054 499.941 -74.408 499.369 -74.0734 499.132Z" fill="#656565"/>
<path opacity="0.3952" d="M20.6453 424.076L78.9806 442.2C79.3671 442.37 79.6405 442.797 79.4708 443.183C79.3012 443.57 78.8738 443.843 78.4873 443.674L20.1158 425.457C19.7293 425.287 19.4921 424.953 19.6256 424.474C19.8314 424.18 20.2949 423.999 20.6453 424.076Z" fill="#656565"/>
<path opacity="0.2858" d="M18.5922 312.587L132.258 274.331C132.629 274.186 133.144 274.412 133.196 274.819C133.341 275.189 133.114 275.704 132.707 275.756L19.0416 314.013C18.6708 314.158 18.2482 313.896 18.1036 313.525C17.9952 313.247 18.2214 312.732 18.5922 312.587Z" fill="#656565"/>
<path opacity="0.2031" d="M327.939 699.562L295.523 690.113C295.136 689.943 294.863 689.516 295.033 689.13C295.202 688.743 295.537 688.506 296.016 688.639L328.468 698.181C328.855 698.351 329.092 698.685 328.959 699.164C328.753 699.458 328.289 699.639 327.939 699.562Z" fill="#656565"/>
<path opacity="0.06555" d="M19.6241 313.039L79.6049 442.704C79.7495 443.075 79.6159 443.554 79.2813 443.791C78.9105 443.936 78.4313 443.803 78.1579 443.376L18.1771 313.71C18.0326 313.34 18.1661 312.861 18.5369 312.716C18.9643 312.443 19.3508 312.612 19.6241 313.039Z" fill="#656565"/>
<path opacity="0.1759" d="M296.023 690.025L169.889 738.482C169.518 738.627 169.003 738.401 168.859 738.03C168.714 737.66 168.94 737.144 169.311 737L295.409 688.45C295.78 688.305 296.295 688.531 296.476 688.994C296.564 689.493 296.394 689.88 296.023 690.025Z" fill="#656565"/>
<path opacity="0.07691" d="M-73.0931 499.176L38.7755 613.19C39.1055 613.488 39.1008 614.024 38.7661 614.261C38.4676 614.591 37.9319 614.587 37.6946 614.252L-74.1379 500.331C-74.4678 500.033 -74.4631 499.497 -74.1285 499.26C-73.83 498.93 -73.3304 498.842 -73.0931 499.176Z" fill="#656565"/>
<path opacity="0.2147" d="M-72.9644 499.233L8.54183 607.693C8.77908 608.027 8.77438 608.562 8.34704 608.836C8.0124 609.073 7.47665 609.069 7.20325 608.642L-74.303 500.182C-74.5402 499.848 -74.5356 499.312 -74.1082 499.039C-73.7374 498.894 -73.2017 498.899 -72.9644 499.233Z" fill="#656565"/>
<path opacity="0.064182" d="M-73.8873 499.059L78.574 442.253C78.9448 442.108 79.4602 442.334 79.6047 442.704C79.7493 443.075 79.523 443.59 79.1523 443.735L-73.309 500.541C-73.6798 500.686 -74.1951 500.46 -74.3397 500.089C-74.5204 499.626 -74.2581 499.204 -73.8873 499.059Z" fill="#656565"/>
<path opacity="0.5" d="M8.02569 607.466L38.3881 613.02C38.8311 613.061 39.1045 613.488 39.0637 613.931C39.0228 614.374 38.5955 614.647 38.1524 614.607L7.79004 609.053C7.34697 609.012 7.0736 608.585 7.11444 608.142C7.15527 607.699 7.58262 607.426 8.02569 607.466Z" fill="#656565"/>
<path opacity="0.2275" d="M38.1656 613L156.643 599.124C157.05 599.072 157.509 599.427 157.561 599.834C157.612 600.24 157.257 600.699 156.85 600.751L38.3369 614.534C37.93 614.586 37.4712 614.232 37.5121 613.789C37.4602 613.382 37.7587 613.052 38.1656 613Z" fill="#656565"/>
<path opacity="0.093505" d="M7.80416 607.446L156.644 599.124C157.051 599.072 157.51 599.427 157.505 599.963C157.557 600.369 157.202 600.828 156.666 600.824L7.79007 609.053C7.38315 609.105 7.01705 608.714 6.9652 608.307C7.09872 607.828 7.39724 607.498 7.80416 607.446Z" fill="#656565"/>
<path opacity="0.2269" d="M296.512 689.087L337.208 822.432C337.389 822.895 337.127 823.318 336.663 823.498C336.2 823.679 335.777 823.417 335.596 822.954L294.992 689.573C294.848 689.202 295.074 688.687 295.574 688.599C295.944 688.454 296.331 688.623 296.512 689.087Z" fill="#656565"/>
<path opacity="0.159" d="M-53.8988 185.348L-34.431 34.2962C-34.3902 33.8533 -33.999 33.4872 -33.5198 33.6205C-33.0767 33.6611 -32.8033 34.0882 -32.8441 34.5311L-52.3119 185.583C-52.3528 186.025 -52.7801 186.299 -53.2232 186.258C-53.6662 186.218 -53.9396 185.791 -53.8988 185.348Z" fill="#656565"/>
<path opacity="0.017448" d="M0.525698 354.432L-97.5776 453.116C-97.8761 453.446 -98.4119 453.442 -98.7418 453.143C-99.0718 452.845 -99.0671 452.31 -98.7686 451.98L-0.794086 353.239C-0.402885 352.873 0.132856 352.878 0.498943 353.268C0.828892 353.567 0.824203 354.102 0.525698 354.432Z" fill="#656565"/>
<path opacity="0.4518" d="M0.00640485 354.741L-42.4471 360.629C-42.9467 360.717 -43.5343 360.306 -43.5297 359.77C-43.6177 359.271 -43.2626 358.812 -42.6703 358.688L-0.273329 352.929C0.226289 352.841 0.685086 353.196 0.773087 353.695C0.861087 354.195 0.506024 354.653 0.00640485 354.741Z" fill="#656565"/>
<path opacity="0.1903" d="M41.8916 323.032L-14.6406 335.265L63.9449 346.984L41.8916 323.032Z" fill="#656565"/>
<path opacity="0.1886" d="M65.8268 349.345L128.97 339.55L136.179 341.328L65.8268 349.345Z" fill="#656565"/>
<path opacity="0.2545" d="M101.093 627.839L100.519 661.686L59.6789 601.62L101.093 627.839Z" fill="#656565"/>
<path opacity="0.1821" d="M51.7245 352.072L65.8269 349.346L136.179 341.328L51.7245 352.072Z" fill="#656565"/>
<path opacity="0.1776" d="M140.334 708.169L101.094 627.839L100.52 661.686L140.334 708.169Z" fill="#656565"/>
<path opacity="0.1317" d="M101.093 627.839L59.6789 601.62L37.2324 611.977L101.093 627.839Z" fill="#656565"/>
<path opacity="0.062714" d="M-25.241 155.595L-3.26367 114.467L-32.9268 210.362L-25.241 155.595Z" fill="#656565"/>
<path opacity="0.1738" d="M-13.0707 345.86L51.7248 352.072L65.8272 349.345L-13.0707 345.86Z" fill="#656565"/>
<path opacity="0.101" d="M-25.2399 155.595L-32.9257 210.362L11.5636 193.54L-25.2399 155.595Z" fill="#656565"/>
<path opacity="0.1997" d="M56.5911 519.781L103.835 525.901L80.1155 510.818L56.5911 519.781Z" fill="#656565"/>
<path opacity="0.251" d="M-25.2397 155.596L-3.26243 114.467L16.5996 105.972L-25.2397 155.596Z" fill="#656565"/>
<path opacity="0.2457" d="M-13.0713 345.86L51.7241 352.072L-8.87573 318.286L-13.0713 345.86Z" fill="#656565"/>
<path opacity="0.2457" d="M-13.0713 345.86L51.7241 352.072L-8.87573 318.286L-13.0713 345.86Z" fill="#656565"/>
<path opacity="0.2793" d="M126.004 703.193L140.335 708.169L153.409 738.4L126.004 703.193Z" fill="#656565"/>
<path opacity="0.2793" d="M126.004 703.193L140.335 708.169L153.409 738.4L126.004 703.193Z" fill="#656565"/>
<path opacity="0.2793" d="M126.004 703.193L140.335 708.169L153.409 738.4L126.004 703.193Z" fill="#656565"/>
<path opacity="0.1242" d="M-32.9261 210.362L11.5633 193.541L47.2051 161.705L-32.9261 210.362Z" fill="#656565"/>
<path opacity="0.2565" d="M56.592 519.781L92.1699 503.661L80.1164 510.818L56.592 519.781Z" fill="#656565"/>
<path opacity="0.2565" d="M56.592 519.781L92.1699 503.661L80.1164 510.818L56.592 519.781Z" fill="#656565"/>
<path opacity="0.2185" d="M-3.26284 114.467L16.5992 105.971L47.2052 161.704L-3.26284 114.467Z" fill="#656565"/>
<path opacity="0.138" d="M11.5634 193.54L16.5992 105.971L47.2052 161.704L11.5634 193.54Z" fill="#656565"/>
<path opacity="0.091609" d="M-50.0489 665.025L-30.0123 710.365L33.8206 687.278L-50.0489 665.025Z" fill="#656565"/>
<path opacity="0.2927" d="M45.3735 450.507L49.9024 427.073L88.7993 436.983L45.3735 450.507Z" fill="#656565"/>
<path opacity="0.2927" d="M45.3735 450.507L49.9024 427.073L88.7993 436.983L45.3735 450.507Z" fill="#656565"/>
<path opacity="0.2927" d="M45.3735 450.507L49.9024 427.073L88.7993 436.983L45.3735 450.507Z" fill="#656565"/>
<path opacity="0.1799" d="M41.504 649.483L37.2324 611.977L33.8192 687.278L41.504 649.483Z" fill="#656565"/>
<path opacity="0.042801" d="M-30.0139 710.365L41.5039 649.484L33.8191 687.278L-30.0139 710.365Z" fill="#656565"/>
<path opacity="0.2181" d="M45.3752 450.507L92.1701 503.661L88.801 436.983L45.3752 450.507Z" fill="#656565"/>
<path opacity="0.038904" d="M99.0575 758.961L153.409 738.399L151.416 721.244L99.0575 758.961Z" fill="#656565"/>
<path opacity="0.2055" d="M126.004 703.192L99.0572 758.961L151.416 721.245L126.004 703.192Z" fill="#656565"/>
<path opacity="0.01" d="M49.9035 427.072L43.2509 460.942L92.1696 503.66L49.9035 427.072Z" fill="#656565"/>
<path opacity="0.1589" d="M45.3744 450.507L43.2506 460.942L92.1693 503.661L45.3744 450.507Z" fill="#656565"/>
<path opacity="0.2348" d="M-50.0502 665.026L41.5041 649.484L-28.4315 662.676L-50.0502 665.026Z" fill="#656565"/>
<path opacity="0.1261" d="M126.004 703.193L99.0575 758.962L128.044 763.452L126.004 703.193Z" fill="#656565"/>
<path opacity="0.1827" d="M126.004 703.192L128.043 763.451L151.416 721.245L126.004 703.192Z" fill="#656565"/>
<path opacity="0.12" d="M49.904 427.073L93.5605 406.2L43.2514 460.942L49.904 427.073Z" fill="#656565"/>
<path opacity="0.12" d="M49.904 427.073L93.5605 406.2L43.2514 460.942L49.904 427.073Z" fill="#656565"/>
<path opacity="0.1385" d="M45.3752 450.507L93.5605 406.2L43.2514 460.942L45.3752 450.507Z" fill="#656565"/>
<path opacity="0.2344" d="M128.044 763.451L151.416 721.244L163.39 790.543L128.044 763.451Z" fill="#656565"/>
<path opacity="0.1984" d="M-48.5672 281.148L-31.4354 236.359L29.7821 275.561L-48.5672 281.148Z" fill="#656565"/>
<path opacity="0.2079" d="M-49.8532 284.424L-47.1926 257.022L29.7812 275.561L-49.8532 284.424Z" fill="#656565"/>
<path opacity="0.036344" d="M-13.4017 78.0746L-49.9308 72.0442L54.0942 121.872L-13.4017 78.0746Z" fill="#656565"/>
<rect x="-1" y="21" width="407" height="721" fill="url(#paint0_linear)"/>
</g>
<defs>
<linearGradient id="paint0_linear" x1="140.111" y1="21" x2="-15.447" y2="706.711" gradientUnits="userSpaceOnUse">
<stop stop-color="#090909" stop-opacity="0.4"/>
<stop offset="0.96875" stop-color="#090909"/>
</linearGradient>
<clipPath id="clip0">
<rect width="400" height="738" fill="white" transform="translate(-1)"/>
</clipPath>
</defs>
</svg>
