<svg width="300" height="831" viewBox="0 0 300 831" fill="none" xmlns="http://www.w3.org/2000/svg">
<g clip-path="url(#clip0)">
<path opacity="0.5" d="M241.021 20.6248C241.621 21.3224 242.673 21.4019 243.37 20.8024C244.067 20.2029 244.146 19.1514 243.545 18.4538C242.945 17.7562 241.894 17.6767 241.197 18.2762C240.499 18.8757 240.421 19.9272 241.021 20.6248Z" fill="#616161"/>
<path opacity="0.5" d="M260.087 5.58902C260.687 6.28661 261.739 6.36614 262.436 5.76664C263.133 5.16714 263.212 4.11562 262.612 3.41804C262.011 2.72046 260.96 2.64098 260.263 3.24048C259.565 3.83998 259.487 4.89144 260.087 5.58902Z" fill="#616161"/>
<path opacity="0.5" d="M282.176 96.7857C282.797 97.5075 282.722 98.514 282.001 99.1343C281.279 99.7546 280.273 99.6785 279.652 98.9567C279.031 98.2349 279.166 97.1767 279.827 96.6081C280.437 95.9794 281.555 96.064 282.176 96.7857Z" fill="#616161"/>
<path opacity="0.5" d="M219.507 157.9C220.179 158.682 220.096 159.8 219.314 160.472C218.533 161.144 217.414 161.06 216.742 160.278C216.069 159.496 216.153 158.377 216.934 157.705C217.655 157.085 218.834 157.118 219.507 157.9Z" fill="#616161"/>
<path opacity="0.5" d="M257.524 33.8504C258.196 34.6323 258.113 35.7507 257.331 36.4227C256.55 37.0947 255.431 37.0101 254.759 36.2282C254.086 35.4463 254.169 34.3279 254.951 33.6559C255.732 32.9839 256.851 33.0685 257.524 33.8504Z" fill="#616161"/>
<path opacity="0.5" d="M288.717 331.22C289.39 332.002 289.298 333.232 288.516 333.904C287.735 334.576 286.505 334.483 285.832 333.701C285.159 332.919 285.251 331.689 286.033 331.017C286.874 330.294 288.044 330.438 288.717 331.22Z" fill="#616161"/>
<path opacity="0.5" d="M267.474 406.207C268.199 407.049 268.055 408.219 267.273 408.891C266.492 409.563 265.262 409.47 264.589 408.688C263.864 407.846 264.008 406.676 264.79 406.004C265.519 405.272 266.75 405.365 267.474 406.207Z" fill="#616161"/>
<path opacity="0.5" d="M291.288 274.279C292.013 275.121 291.921 276.351 291.079 277.075C290.238 277.798 289.007 277.705 288.283 276.863C287.558 276.021 287.65 274.791 288.492 274.067C289.273 273.395 290.564 273.437 291.288 274.279Z" fill="#616161"/>
<path opacity="0.5" d="M282.793 47.1766C283.517 48.0187 283.425 49.2489 282.584 49.9726C281.742 50.6962 280.512 50.6032 279.787 49.7612C279.063 48.9191 279.155 47.6889 279.996 46.9652C280.838 46.2415 282.068 46.3345 282.793 47.1766Z" fill="#616161"/>
<path opacity="0.5" d="M282.821 329.593C283.545 330.435 283.453 331.665 282.612 332.389C281.77 333.113 280.54 333.02 279.815 332.178C279.091 331.335 279.183 330.105 280.024 329.382C280.866 328.658 282.096 328.751 282.821 329.593Z" fill="#616161"/>
<path opacity="0.5" d="M270.594 71.1665C271.318 72.0086 271.278 73.2989 270.376 74.0743C269.535 74.798 268.304 74.7049 267.528 73.8027C266.752 72.9005 266.896 71.7304 267.737 71.0068C268.527 70.2229 269.869 70.3244 270.594 71.1665Z" fill="#616161"/>
<path opacity="0.5" d="M225.166 88.9893C225.89 89.8314 225.79 91.1734 224.949 91.8971C224.107 92.6208 222.765 92.5193 222.04 91.6772C221.316 90.8352 221.416 89.4931 222.258 88.7694C223.099 88.0458 224.39 88.0871 225.166 88.9893Z" fill="#616161"/>
<path opacity="0.5" d="M204.649 105.378C205.373 106.22 205.273 107.562 204.431 108.285C203.59 109.009 202.248 108.908 201.523 108.066C200.799 107.223 200.899 105.881 201.741 105.158C202.582 104.434 203.924 104.535 204.649 105.378Z" fill="#616161"/>
<path opacity="0.5" d="M175.661 380.202C176.385 381.044 176.285 382.386 175.443 383.109C174.602 383.833 173.26 383.732 172.535 382.89C171.811 382.047 171.911 380.705 172.753 379.982C173.542 379.198 174.885 379.299 175.661 380.202Z" fill="#616161"/>
<path opacity="0.5" d="M237.119 90.849C237.895 91.7512 237.743 93.0331 236.842 93.8085C235.94 94.5838 234.598 94.4824 233.873 93.6403C233.097 92.7381 233.197 91.3961 234.099 90.6207C235.001 89.8453 236.343 89.9468 237.119 90.849Z" fill="#616161"/>
<path opacity="0.5" d="M235.289 140.142C236.065 141.044 235.965 142.386 235.064 143.161C234.162 143.937 232.82 143.835 232.043 142.933C231.267 142.031 231.368 140.689 232.269 139.913C233.171 139.138 234.513 139.239 235.289 140.142Z" fill="#616161"/>
<path opacity="0.5" d="M300.118 529.244C300.89 530.14 302.242 530.243 303.138 529.472C304.035 528.701 304.136 527.349 303.364 526.452C302.593 525.555 301.24 525.453 300.344 526.224C299.448 526.995 299.347 528.347 300.118 529.244Z" fill="#616161"/>
<path opacity="0.5" d="M212.53 93.9953C213.307 94.8975 213.206 96.2396 212.305 97.015C211.403 97.7903 210.061 97.6889 209.285 96.7866C208.508 95.8844 208.609 94.5424 209.51 93.767C210.412 92.9916 211.754 93.0931 212.53 93.9953Z" fill="#616161"/>
<path opacity="0.5" d="M254.935 468.58C255.712 469.482 255.663 470.885 254.701 471.712C253.8 472.487 252.397 472.437 251.569 471.475C250.793 470.573 250.842 469.17 251.804 468.343C252.757 467.628 254.159 467.678 254.935 468.58Z" fill="#616161"/>
<path opacity="0.5" d="M134.604 221.495C135.404 222.425 136.806 222.531 137.736 221.731C138.665 220.932 138.77 219.53 137.97 218.6C137.17 217.67 135.768 217.564 134.838 218.363C133.909 219.163 133.804 220.565 134.604 221.495Z" fill="#616161"/>
<path opacity="0.5" d="M213.258 132.403C214.034 133.305 213.985 134.707 213.024 135.534C212.122 136.31 210.72 136.26 209.892 135.297C209.116 134.395 209.164 132.993 210.126 132.166C211.079 131.451 212.482 131.5 213.258 132.403Z" fill="#616161"/>
<path opacity="0.5" d="M215.081 469.785C215.909 470.747 215.749 472.141 214.847 472.916C213.946 473.692 212.543 473.642 211.715 472.68C210.939 471.777 211.048 470.323 211.95 469.548C212.851 468.773 214.305 468.883 215.081 469.785Z" fill="#616161"/>
<path opacity="0.5" d="M178.291 138.194C179.119 139.157 178.959 140.551 178.057 141.326C177.156 142.101 175.641 142.043 174.865 141.141C174.037 140.178 174.198 138.785 175.159 137.958C176.121 137.131 177.515 137.292 178.291 138.194Z" fill="#616161"/>
<path opacity="0.5" d="M254.104 87.8588C254.931 88.8212 254.823 90.2751 253.861 91.1022C252.899 91.9293 251.445 91.8193 250.617 90.857C249.789 89.8946 249.898 88.4407 250.86 87.6136C251.822 86.7865 253.276 86.8965 254.104 87.8588Z" fill="#616161"/>
<path opacity="0.5" d="M240.886 170.594C241.714 171.557 241.605 173.011 240.643 173.838C239.682 174.665 238.228 174.555 237.4 173.593C236.572 172.63 236.68 171.176 237.642 170.349C238.604 169.522 240.058 169.632 240.886 170.594Z" fill="#616161"/>
<path opacity="0.5" d="M96.6212 11.9011C97.4491 12.8635 97.3921 14.3776 96.4303 15.2047C95.4686 16.0317 94.0145 15.9218 93.1348 14.8993C92.3069 13.9369 92.4156 12.483 93.3774 11.656C94.279 10.8806 95.7933 10.9388 96.6212 11.9011Z" fill="#616161"/>
<path opacity="0.5" d="M193.675 98.6994C194.554 99.7219 194.385 101.227 193.424 102.055C192.402 102.933 190.896 102.763 190.068 101.801C189.188 100.778 189.357 99.2728 190.319 98.4457C191.341 97.567 192.795 97.6769 193.675 98.6994Z" fill="#616161"/>
<path opacity="0.5" d="M123.104 17.2775C123.983 18.3 123.918 19.9259 122.836 20.8563C121.814 21.7351 120.188 21.6684 119.257 20.5857C118.377 19.5632 118.442 17.9373 119.524 17.0069C120.658 16.1366 122.224 16.255 123.104 17.2775Z" fill="#616161"/>
<path opacity="0.5" d="M44.6079 95.9778C45.5393 97.0605 45.4223 98.6262 44.3403 99.5566C43.2584 100.487 41.6924 100.369 40.761 99.286C39.8296 98.2034 39.9467 96.6376 41.0286 95.7072C42.1106 94.7767 43.6765 94.8952 44.6079 95.9778Z" fill="#616161"/>
<path opacity="0.5" d="M254.522 6.29296C255.454 7.37561 255.328 9.0532 254.246 9.98364C253.164 10.9141 251.487 10.7872 250.555 9.70457C249.624 8.62192 249.749 6.94435 250.831 6.01391C251.965 5.14362 253.643 5.27046 254.522 6.29296Z" fill="#616161"/>
<path opacity="0.5" d="M227.644 358.207C228.627 359.35 228.493 361.139 227.351 362.121C226.209 363.104 224.419 362.968 223.436 361.825C222.453 360.683 222.587 358.893 223.729 357.911C224.871 356.929 226.66 357.064 227.644 358.207Z" fill="#616161"/>
<path opacity="0.5" d="M244.277 308.009C245.26 309.152 245.127 310.941 243.985 311.923C242.842 312.906 241.053 312.77 240.07 311.628C239.086 310.485 239.22 308.695 240.362 307.713C241.565 306.679 243.242 306.806 244.277 308.009Z" fill="#616161"/>
<path opacity="0.5" d="M284.301 229.325C285.284 230.468 285.15 232.257 284.008 233.24C282.866 234.222 281.077 234.086 280.093 232.944C279.11 231.801 279.244 230.011 280.386 229.029C281.537 227.935 283.266 228.122 284.301 229.325Z" fill="#616161"/>
<path opacity="0.5" d="M261.09 4.20246L242.024 19.2381C241.844 19.3932 241.767 19.6685 241.974 19.9091C242.129 20.0896 242.405 20.1666 242.585 20.0116L261.651 4.97591C261.831 4.82084 261.908 4.54548 261.753 4.36504C261.606 4.07276 261.331 3.9957 261.09 4.20246Z" fill="#656565"/>
<path opacity="0.085119" d="M309.436 -36.8496L261.09 4.20271C260.91 4.35778 260.885 4.69329 261.04 4.87373C261.195 5.05417 261.471 5.13125 261.711 4.92448L310.057 -36.1278C310.237 -36.2829 310.314 -36.5583 310.107 -36.7989C309.9 -37.0395 309.616 -37.0047 309.436 -36.8496Z" fill="#656565"/>
<path opacity="0.099722" d="M350.019 141.729L281.111 97.4923C280.896 97.3636 280.612 97.3983 280.483 97.6136C280.355 97.8288 280.39 98.1126 280.605 98.2414L349.514 142.478C349.729 142.607 350.013 142.572 350.141 142.357C350.218 142.082 350.123 141.849 350.019 141.729Z" fill="#656565"/>
<path opacity="0.068931" d="M309.728 -36.9963L222.746 -32.8311C222.522 -32.848 222.333 -32.5811 222.316 -32.3574C222.3 -32.1337 222.567 -31.9448 222.791 -31.9279L309.773 -36.0932C309.997 -36.0762 310.186 -36.3431 310.202 -36.5668C310.107 -36.7989 309.952 -36.9794 309.728 -36.9963Z" fill="#656565"/>
<path opacity="0.1485" d="M309.728 -36.9965L232.673 -36.9732C232.449 -36.9902 232.209 -36.7834 232.244 -36.4996C232.227 -36.2759 232.434 -36.0353 232.718 -36.0701L309.773 -36.0933C309.997 -36.0764 310.238 -36.2832 310.202 -36.567C310.167 -36.8508 309.952 -36.9796 309.728 -36.9965Z" fill="#656565"/>
<path opacity="0.01" d="M222.36 -32.1855L255.789 35.2374C255.884 35.4695 256.159 35.5465 256.391 35.4516C256.623 35.3567 256.7 35.0814 256.605 34.8492L223.176 -32.5737C223.081 -32.8058 222.806 -32.8829 222.574 -32.788C222.342 -32.693 222.213 -32.4778 222.36 -32.1855Z" fill="#656565"/>
<path opacity="0.030221" d="M232.235 -36.3876L255.685 35.1172C255.78 35.3494 255.995 35.4781 256.279 35.4433C256.511 35.3484 256.7 35.0815 256.605 34.8494L233.104 -36.7156C233.009 -36.9477 232.793 -37.0765 232.509 -37.0417C232.269 -36.8349 232.14 -36.6197 232.235 -36.3876Z" fill="#656565"/>
<path opacity="0.1494" d="M354.238 -33.5189L280.246 -33.0953C279.962 -33.0605 279.782 -32.9055 279.757 -32.57C279.792 -32.2861 279.947 -32.1057 280.231 -32.1405L354.283 -32.6157C354.507 -32.5988 354.747 -32.8055 354.712 -33.0894C354.677 -33.3732 354.462 -33.502 354.238 -33.5189Z" fill="#656565"/>
<path opacity="0.4126" d="M330.034 321.746L287.205 331.893C286.973 331.988 286.784 332.255 286.879 332.487C286.974 332.719 287.19 332.848 287.473 332.813L330.251 322.606C330.483 322.511 330.611 322.296 330.576 322.012C330.421 321.832 330.206 321.703 330.034 321.746Z" fill="#656565"/>
<path opacity="0.3052" d="M279.774 -32.7937L255.702 34.8935C255.625 35.1689 255.72 35.401 255.996 35.4781C256.271 35.5552 256.503 35.4602 256.58 35.1849L280.652 -32.5024C280.729 -32.7777 280.634 -33.0099 280.358 -33.0869C280.083 -33.164 279.851 -33.0691 279.774 -32.7937Z" fill="#656565"/>
<path opacity="0.229" d="M266.47 407.593L287.774 332.554C287.851 332.279 287.704 331.986 287.48 331.97C287.205 331.892 286.912 332.039 286.896 332.263L265.592 407.301C265.515 407.577 265.662 407.869 265.938 407.946C266.161 407.963 266.394 407.868 266.47 407.593Z" fill="#656565"/>
<path opacity="0.1705" d="M289.278 275.589L286.827 332.426C286.81 332.65 287.017 332.891 287.293 332.968C287.517 332.984 287.757 332.778 287.834 332.502L290.336 275.725C290.301 275.441 290.094 275.201 289.81 275.235C289.483 275.098 289.303 275.253 289.278 275.589Z" fill="#656565"/>
<path opacity="0.1027" d="M287.428 331.909L281.472 330.334C281.196 330.257 280.956 330.464 280.879 330.739C280.802 331.015 281.009 331.255 281.285 331.333L287.25 332.796C287.525 332.873 287.766 332.666 287.842 332.391C287.799 332.219 287.704 331.986 287.428 331.909Z" fill="#656565"/>
<path opacity="0.088765" d="M266.531 407.541L281.869 331.039C281.946 330.764 281.739 330.523 281.463 330.446C281.188 330.369 280.948 330.576 280.871 330.851L265.584 407.413C265.507 407.689 265.714 407.929 265.99 408.006C266.161 407.963 266.454 407.816 266.531 407.541Z" fill="#656565"/>
<path opacity="0.443" d="M289.286 275.477L280.819 330.791C280.742 331.067 281.001 331.368 281.284 331.333C281.508 331.35 281.8 331.203 281.877 330.928L290.344 275.614C290.421 275.338 290.214 275.098 289.939 275.02C289.543 275.047 289.303 275.254 289.286 275.477Z" fill="#656565"/>
<path opacity="0.2749" d="M281.721 48.726L317.989 -24.1127C318.118 -24.3279 318.031 -24.6719 317.755 -24.7489C317.54 -24.8777 317.196 -24.7912 317.119 -24.5158L280.911 48.2712C280.782 48.4864 280.869 48.8304 281.196 48.9676C281.3 49.0879 281.592 48.9412 281.721 48.726Z" fill="#656565"/>
<path opacity="0.1786" d="M372.054 347.98L281.412 330.386C281.136 330.309 280.896 330.516 280.819 330.791C280.742 331.067 280.949 331.307 281.224 331.384L371.867 348.978C372.142 349.055 372.383 348.848 372.46 348.573C372.536 348.297 372.329 348.057 372.054 347.98Z" fill="#656565"/>
<path opacity="0.3739" d="M316.991 -24.3007L319.755 45.5278C319.79 45.8116 319.997 46.0522 320.281 46.0174C320.565 45.9827 320.805 45.7759 320.77 45.4921L318.006 -24.3364C317.971 -24.6202 317.764 -24.8608 317.48 -24.8261C317.196 -24.7913 316.956 -24.5845 316.991 -24.3007Z" fill="#656565"/>
<path opacity="0.5" d="M281.308 48.9765L320.281 46.018C320.565 45.9832 320.754 45.7163 320.77 45.4926C320.735 45.2088 320.468 45.0199 320.244 45.003L281.272 47.9615C280.988 47.9962 280.799 48.2632 280.834 48.547C280.817 48.7707 281.024 49.0113 281.308 48.9765Z" fill="#656565"/>
<path opacity="0.5" d="M280.799 48.2628L268.6 72.2529C268.471 72.4681 268.558 72.8121 268.885 72.9493C269.101 73.078 269.445 72.9915 269.573 72.7763L281.772 48.7862C281.901 48.571 281.814 48.2271 281.599 48.0983C281.22 47.901 280.988 47.9959 280.799 48.2628Z" fill="#656565"/>
<path opacity="0.4887" d="M269.281 72.9231L320.453 45.9746C320.745 45.8279 320.822 45.5526 320.675 45.2603C320.58 45.0282 320.253 44.891 319.961 45.0376L268.788 71.9861C268.496 72.1327 268.419 72.408 268.566 72.7003C268.713 72.9926 268.989 73.0697 269.281 72.9231Z" fill="#656565"/>
<path opacity="0.1171" d="M281.66 48.7778L340.215 -25.7502C340.404 -26.0171 340.369 -26.3009 340.102 -26.4898C339.886 -26.6186 339.551 -26.6439 339.362 -26.377L280.859 48.2111C280.67 48.478 280.705 48.7619 280.973 48.9507C281.188 49.0795 281.472 49.0447 281.66 48.7778Z" fill="#656565"/>
<path opacity="0.3105" d="M320.702 45.6556L340.283 -25.9139C340.36 -26.1893 340.213 -26.4816 339.938 -26.5586C339.663 -26.6357 339.37 -26.4891 339.294 -26.2137L319.712 45.3558C319.635 45.6312 319.782 45.9235 320.057 46.0005C320.333 46.0776 320.625 45.9309 320.702 45.6556Z" fill="#656565"/>
<path opacity="0.3182" d="M223.853 90.7456L281.54 48.881C281.781 48.6742 281.858 48.3989 281.651 48.1583C281.444 47.9177 281.168 47.8406 280.928 48.0474L223.189 89.8518C222.949 90.0585 222.872 90.3339 223.079 90.5745C223.338 90.8753 223.673 90.9006 223.853 90.7456Z" fill="#656565"/>
<path opacity="0.047551" d="M223.793 90.7974L320.453 45.9744C320.685 45.8794 320.822 45.5524 320.675 45.2601C320.58 45.028 320.253 44.8907 320.021 44.9857L223.361 89.8087C223.069 89.9553 222.992 90.2307 223.139 90.523C223.174 90.8068 223.501 90.944 223.793 90.7974Z" fill="#656565"/>
<path opacity="0.090083" d="M316.93 -24.2489L331.626 61.2715C331.661 61.5553 331.929 61.7442 332.212 61.7095C332.496 61.6747 332.685 61.4078 332.65 61.1239L317.902 -24.4566C317.867 -24.7404 317.6 -24.9293 317.316 -24.8946C317.084 -24.7996 316.895 -24.5327 316.93 -24.2489Z" fill="#656565"/>
<path opacity="0.092602" d="M280.979 48.1076L202.775 106.36C202.535 106.567 202.51 106.903 202.665 107.083C202.872 107.324 203.208 107.349 203.388 107.194L281.592 48.9412C281.832 48.7344 281.857 48.3989 281.702 48.2185C281.495 47.9779 281.16 47.9525 280.979 48.1076Z" fill="#656565"/>
<path opacity="0.3278" d="M281.136 49.0196L332.04 61.7531C332.316 61.8302 332.608 61.6835 332.633 61.348C332.71 61.0727 332.563 60.7804 332.288 60.7033L281.323 48.0215C281.048 47.9444 280.756 48.0911 280.731 48.4266C280.714 48.6503 280.861 48.9425 281.136 49.0196Z" fill="#656565"/>
<path opacity="0.5" d="M223.793 90.7971L269.221 72.9743C269.453 72.8794 269.59 72.5523 269.495 72.3202C269.4 72.0881 269.073 71.9509 268.84 72.0458L223.413 89.8686C223.181 89.9635 223.044 90.2906 223.139 90.5227C223.174 90.8065 223.501 90.9437 223.793 90.7971Z" fill="#656565"/>
<path opacity="0.3201" d="M268.841 72.0461L202.896 106.257C202.604 106.404 202.527 106.679 202.674 106.971C202.82 107.264 203.096 107.341 203.388 107.194L269.393 72.9314C269.685 72.7848 269.762 72.5095 269.615 72.2172C269.348 72.0283 269.021 71.8911 268.841 72.0461Z" fill="#656565"/>
<path opacity="0.155" d="M280.826 48.6587L306.02 115.628C306.167 115.92 306.383 116.049 306.726 115.962C307.019 115.816 307.095 115.54 307.06 115.257L281.866 48.2875C281.771 48.0554 281.443 47.9182 281.211 48.0131C280.807 48.1513 280.73 48.4266 280.826 48.6587Z" fill="#656565"/>
<path opacity="0.3185" d="M269.109 72.9663L332.273 61.658C332.556 61.6233 332.745 61.3564 332.71 61.0725C332.675 60.7887 332.408 60.5998 332.124 60.6346L268.961 71.9428C268.677 71.9776 268.488 72.2446 268.523 72.5284C268.61 72.8723 268.877 73.0612 269.109 72.9663Z" fill="#656565"/>
<path opacity="0.1997" d="M319.764 45.4164L305.985 115.344C305.909 115.619 306.167 115.92 306.391 115.937C306.666 116.014 307.019 115.816 306.984 115.532L320.71 45.5442C320.787 45.2689 320.58 45.0283 320.305 44.9512C320.081 44.9343 319.78 45.1928 319.764 45.4164Z" fill="#656565"/>
<path opacity="0.2219" d="M235.918 92.6141L281.652 48.8899C281.892 48.6831 281.857 48.3993 281.65 48.1587C281.443 47.9181 281.16 47.9529 280.919 48.1597L235.185 91.8838C234.945 92.0906 234.92 92.4261 235.187 92.615C235.342 92.7955 235.678 92.8208 235.918 92.6141Z" fill="#656565"/>
<path opacity="0.3173" d="M268.67 72.8203L306.116 115.86C306.323 116.1 306.658 116.126 306.899 115.919C307.139 115.712 307.104 115.428 306.957 115.136L269.451 72.1483C269.244 71.9077 268.961 71.9425 268.72 72.1493C268.48 72.3561 268.463 72.5797 268.67 72.8203Z" fill="#656565"/>
<path opacity="0.2137" d="M332.753 61.2443L340.352 -26.0772C340.377 -26.4128 340.17 -26.6533 339.886 -26.6186C339.602 -26.5838 339.37 -26.4889 339.345 -26.1534L331.695 61.1081C331.67 61.4436 331.877 61.6842 332.161 61.6494C332.436 61.7265 332.677 61.5197 332.753 61.2443Z" fill="#656565"/>
<path opacity="0.4361" d="M235.807 92.6053L269.281 72.9229C269.573 72.7763 269.598 72.4408 269.503 72.2086C269.356 71.9164 269.021 71.891 268.84 72.0461L235.366 91.7285C235.074 91.8751 235.049 92.2106 235.144 92.4427C235.179 92.7266 235.566 92.8121 235.807 92.6053Z" fill="#656565"/>
<path opacity="0.5" d="M223.241 89.9119L202.724 106.3C202.483 106.507 202.458 106.842 202.613 107.023C202.82 107.263 203.156 107.289 203.336 107.134L223.853 90.7455C224.094 90.5387 224.119 90.2032 223.964 90.0227C223.817 89.7305 223.481 89.7051 223.241 89.9119Z" fill="#656565"/>
<path opacity="0.1218" d="M234.097 141.795L269.461 72.768C269.59 72.5528 269.503 72.2088 269.236 72.0199C269.021 71.8912 268.677 71.9776 268.488 72.2445L233.072 141.211C232.935 141.538 233.082 141.83 233.357 141.907C233.624 142.096 233.968 142.01 234.097 141.795Z" fill="#656565"/>
<path opacity="0.013026" d="M280.869 48.8307L314.732 86.3692C314.939 86.6098 315.275 86.6352 315.515 86.4284C315.756 86.2217 315.781 85.8861 315.574 85.6455L281.65 48.1587C281.443 47.9181 281.159 47.9529 280.919 48.1597C280.739 48.3147 280.714 48.6503 280.869 48.8307Z" fill="#656565"/>
<path opacity="0.1068" d="M315.713 86.0495L320.71 45.5441C320.787 45.2688 320.58 45.0282 320.245 45.0028C319.969 44.9257 319.729 45.1325 319.704 45.468L314.594 85.965C314.569 86.3005 314.776 86.5411 315.112 86.5664C315.447 86.5918 315.688 86.385 315.713 86.0495Z" fill="#656565"/>
<path opacity="0.2073" d="M223.398 90.8236L306.331 115.988C306.606 116.065 306.899 115.919 306.975 115.643C307.052 115.368 306.905 115.076 306.63 114.999L223.748 89.894C223.473 89.817 223.181 89.9636 223.104 90.239C222.975 90.4542 223.122 90.7465 223.398 90.8236Z" fill="#656565"/>
<path opacity="0.1844" d="M343.244 155.613L332.702 61.1843C332.667 60.9005 332.399 60.7116 332.116 60.7464C331.832 60.7812 331.643 61.0481 331.678 61.3319L342.221 155.761C342.256 156.045 342.523 156.234 342.807 156.199C343.091 156.164 343.279 155.897 343.244 155.613Z" fill="#656565"/>
<path opacity="0.5" d="M235.598 91.6337L223.645 89.774C223.369 89.6969 223.069 89.9554 223.052 90.1791C222.975 90.4544 223.182 90.695 223.458 90.7721L235.411 92.6318C235.686 92.7088 235.987 92.4504 236.064 92.175C236.08 91.9513 235.873 91.7107 235.598 91.6337Z" fill="#656565"/>
<path opacity="0.1122" d="M268.886 72.9491L315.06 86.506C315.335 86.583 315.628 86.4364 315.765 86.1094C315.841 85.834 315.695 85.5417 315.367 85.4045L269.245 71.9078C268.969 71.8307 268.677 71.9773 268.6 72.2527C268.463 72.5798 268.61 72.872 268.886 72.9491Z" fill="#656565"/>
<path opacity="0.087255" d="M203.044 107.28L306.443 115.997C306.778 116.022 307.019 115.815 307.044 115.48C307.009 115.196 306.862 114.904 306.578 114.938L203.18 106.222C202.844 106.196 202.604 106.403 202.639 106.687C202.502 107.014 202.709 107.255 203.044 107.28Z" fill="#656565"/>
<path opacity="0.4809" d="M331.703 60.9964L305.933 115.284C305.857 115.559 305.943 115.903 306.219 115.98C306.434 116.109 306.778 116.022 306.915 115.695L332.685 61.408C332.761 61.1326 332.675 60.7886 332.399 60.7116C332.124 60.6345 331.892 60.7294 331.703 60.9964Z" fill="#656565"/>
<path opacity="0.5" d="M235.314 91.6682L202.896 106.257C202.603 106.403 202.527 106.679 202.673 106.971C202.769 107.203 203.096 107.34 203.328 107.245L235.798 92.7171C236.09 92.5705 236.167 92.2951 236.08 91.9511C235.873 91.7105 235.546 91.5733 235.314 91.6682Z" fill="#656565"/>
<path opacity="0.1382" d="M235.686 92.7089L332.324 61.7182C332.556 61.6233 332.745 61.3564 332.658 61.0124C332.563 60.7803 332.296 60.5914 331.952 60.6779L235.366 91.7287C235.134 91.8236 234.945 92.0906 235.032 92.4345C235.127 92.6667 235.454 92.8038 235.686 92.7089Z" fill="#656565"/>
<path opacity="0.4075" d="M223.035 90.4026L233.099 141.606C233.134 141.89 233.401 142.079 233.745 141.993C234.028 141.958 234.217 141.691 234.13 141.347L224.067 90.1432C224.032 89.8593 223.765 89.6704 223.421 89.7569C223.189 89.8518 223 90.1187 223.035 90.4026Z" fill="#656565"/>
<path opacity="0.038385" d="M268.84 72.0463L210.717 94.9265C210.425 95.0731 210.288 95.4002 210.435 95.6924C210.582 95.9847 210.857 96.0618 211.141 96.027L269.213 73.0866C269.505 72.94 269.582 72.6647 269.487 72.4325C269.4 72.0886 269.133 71.8997 268.84 72.0463Z" fill="#656565"/>
<path opacity="0.3707" d="M235.351 92.6831L306.331 115.988C306.606 116.065 306.899 115.919 306.975 115.643C307.052 115.368 306.905 115.076 306.63 114.999L235.71 91.6418C235.435 91.5647 235.142 91.7114 235.066 91.9867C234.929 92.3138 235.076 92.6061 235.351 92.6831Z" fill="#656565"/>
<path opacity="0.4766" d="M234.035 141.115L203.455 106.299C203.248 106.059 202.904 106.145 202.724 106.3C202.543 106.455 202.518 106.791 202.673 106.971L233.202 141.727C233.409 141.968 233.744 141.993 233.985 141.786C234.217 141.691 234.242 141.356 234.035 141.115Z" fill="#656565"/>
<path opacity="0.020038" d="M223.621 90.8408L315.223 86.575C315.507 86.5402 315.748 86.3334 315.773 85.9979C315.738 85.7141 315.531 85.4735 315.195 85.4481L223.645 89.7741C223.361 89.8089 223.121 90.0157 223.156 90.2995C223.07 90.6867 223.337 90.8756 223.621 90.8408Z" fill="#656565"/>
<path opacity="0.064968" d="M342.83 155.132L233.708 140.978C233.372 140.952 233.132 141.159 233.107 141.495C233.142 141.779 233.237 142.011 233.572 142.036L342.695 156.19C342.97 156.267 343.271 156.009 343.288 155.785C343.313 155.45 343.054 155.149 342.83 155.132Z" fill="#656565"/>
<path opacity="0.01" d="M342.169 155.701L345.619 272.032C345.654 272.316 345.861 272.556 346.196 272.581C346.48 272.547 346.72 272.34 346.746 272.004L343.245 155.613C343.209 155.33 343.003 155.089 342.719 155.124C342.435 155.159 342.194 155.365 342.169 155.701Z" fill="#656565"/>
<path opacity="0.3451" d="M233.796 142.053L306.666 116.014C306.898 115.919 307.087 115.652 307 115.308C306.854 115.016 306.638 114.887 306.294 114.973L233.424 141.013C233.132 141.159 232.995 141.486 233.09 141.718C233.237 142.011 233.564 142.148 233.796 142.053Z" fill="#656565"/>
<path opacity="0.366" d="M223.361 89.8089L210.665 94.8663C210.373 95.013 210.236 95.34 210.331 95.5721C210.478 95.8644 210.805 96.0016 211.038 95.9067L223.681 90.7891C223.974 90.6425 224.05 90.3671 223.955 90.135C223.92 89.8511 223.645 89.7741 223.361 89.8089Z" fill="#656565"/>
<path opacity="0.2774" d="M343.201 155.441L315.678 85.7656C315.531 85.4733 315.204 85.3361 314.972 85.4311C314.679 85.5777 314.542 85.9047 314.638 86.1368L342.221 155.761C342.368 156.053 342.643 156.13 342.927 156.095C343.211 156.061 343.348 155.734 343.201 155.441Z" fill="#656565"/>
<path opacity="0.5" d="M234.997 92.1506L233.107 141.495C233.082 141.83 233.349 142.019 233.624 142.096C233.96 142.122 234.148 141.855 234.225 141.579L236.115 92.2352C236.141 91.8997 235.873 91.7108 235.598 91.6337C235.262 91.6083 234.962 91.8668 234.997 92.1506Z" fill="#656565"/>
<path opacity="0.065253" d="M352.565 -11.1509L314.662 85.8016C314.586 86.0769 314.672 86.4209 314.948 86.498C315.223 86.575 315.567 86.4886 315.644 86.2132L353.547 -10.7393C353.624 -11.0147 353.477 -11.3069 353.261 -11.4357C352.986 -11.5127 352.694 -11.3662 352.565 -11.1509Z" fill="#656565"/>
<path opacity="0.5" d="M314.654 85.9131L305.925 115.395C305.848 115.671 305.995 115.963 306.271 116.04C306.546 116.117 306.838 115.971 306.915 115.695L315.644 86.2129C315.721 85.9375 315.574 85.6452 315.247 85.508C315.032 85.3793 314.731 85.6377 314.654 85.9131Z" fill="#656565"/>
<path opacity="0.4094" d="M203.456 107.031L211.33 95.7601C211.518 95.4931 211.432 95.1492 211.164 94.9603C210.897 94.7714 210.553 94.8579 210.365 95.1248L202.543 106.455C202.355 106.722 202.441 107.066 202.657 107.195C202.984 107.332 203.328 107.246 203.456 107.031Z" fill="#656565"/>
<path opacity="0.098858" d="M336.005 535.218L332.156 424.986C332.121 424.703 331.853 424.514 331.57 424.548C331.286 424.583 331.157 424.798 331.08 425.074L334.87 535.357C334.905 535.641 335.172 535.83 335.507 535.855C335.799 535.708 336.04 535.502 336.005 535.218Z" fill="#656565"/>
<path opacity="0.2576" d="M235.574 92.7004L315.223 86.5749C315.507 86.5401 315.696 86.2732 315.721 85.9377C315.686 85.6539 315.419 85.465 315.195 85.448L235.598 91.6337C235.314 91.6685 235.125 91.9354 235.16 92.2192C235.024 92.5463 235.291 92.7352 235.574 92.7004Z" fill="#656565"/>
<path opacity="0.1406" d="M223.052 90.1789L211.024 133.696C210.947 133.971 211.146 134.323 211.421 134.4C211.696 134.477 212.049 134.279 212.126 134.004L224.102 90.427C224.179 90.1516 224.032 89.8593 223.757 89.7822C223.421 89.7569 223.129 89.9035 223.052 90.1789Z" fill="#656565"/>
<path opacity="0.1264" d="M210.806 96.0016L306.383 116.049C306.658 116.126 306.899 115.919 306.975 115.644C307.052 115.368 306.845 115.128 306.57 115.051L211.053 94.9518C210.777 94.8747 210.425 95.073 210.4 95.4085C210.331 95.5721 210.53 95.9245 210.806 96.0016Z" fill="#656565"/>
<path opacity="0.2347" d="M212.091 133.72L203.55 106.531C203.455 106.299 203.188 106.11 202.844 106.197C202.612 106.292 202.423 106.559 202.51 106.903L210.999 134.031C211.085 134.375 211.413 134.513 211.705 134.366C212.1 134.34 212.237 134.012 212.091 133.72Z" fill="#656565"/>
<path opacity="0.1447" d="M302.232 528.053L332.199 425.158C332.276 424.883 332.129 424.591 331.854 424.514C331.578 424.437 331.286 424.583 331.209 424.859L301.242 527.754C301.165 528.029 301.312 528.321 301.639 528.458C301.863 528.475 302.155 528.329 302.232 528.053Z" fill="#656565"/>
<path opacity="0.1562" d="M233.916 141.95L315.455 86.4798C315.696 86.273 315.773 85.9977 315.626 85.7054C315.419 85.4648 315.143 85.3878 314.851 85.5344L233.312 141.004C233.02 141.151 232.995 141.486 233.142 141.779C233.289 142.071 233.676 142.156 233.916 141.95Z" fill="#656565"/>
<path opacity="0.5" d="M235.426 91.6769L210.838 94.823C210.554 94.8578 210.305 95.1764 210.34 95.4602C210.375 95.744 210.694 95.993 210.978 95.9583L235.575 92.7004C235.859 92.6656 236.047 92.3987 236.012 92.1149C235.977 91.8311 235.77 91.5905 235.426 91.6769Z" fill="#656565"/>
<path opacity="0.072261" d="M211.697 134.478L306.606 116.066C306.89 116.031 307.079 115.764 306.992 115.42C306.957 115.136 306.69 114.947 306.406 114.982L211.496 133.394C211.213 133.429 210.964 133.748 211.051 134.092C211.094 134.264 211.413 134.513 211.697 134.478Z" fill="#656565"/>
<path opacity="0.07489" d="M361.266 383.942L346.694 271.944C346.659 271.66 346.392 271.471 346.056 271.446C345.721 271.421 345.584 271.748 345.559 272.083L360.131 384.081C360.166 384.365 360.484 384.614 360.768 384.579C361.164 384.553 361.353 384.286 361.266 383.942Z" fill="#656565"/>
<path opacity="0.227" d="M253.555 470.5L332.011 425.425C332.303 425.279 332.328 424.943 332.233 424.711C332.086 424.419 331.75 424.393 331.518 424.488L252.951 469.554C252.658 469.701 252.573 470.088 252.78 470.329C252.927 470.621 253.263 470.646 253.555 470.5Z" fill="#656565"/>
<path opacity="0.5" d="M234.078 141.287L211.371 95.2007C211.225 94.9085 210.897 94.7713 210.605 94.9179C210.313 95.0645 210.176 95.3916 210.323 95.6839L233.03 141.77C233.177 142.063 233.452 142.14 233.744 141.993C234.148 141.855 234.225 141.579 234.078 141.287Z" fill="#656565"/>
<path opacity="0.3632" d="M235.014 91.927L211.032 133.584C210.843 133.851 210.93 134.195 211.257 134.332C211.524 134.521 211.868 134.435 212.005 134.108L235.987 92.4505C236.175 92.1836 236.029 91.8913 235.761 91.7024C235.546 91.5736 235.202 91.6601 235.014 91.927Z" fill="#656565"/>
<path opacity="0.01" d="M202.603 106.404L176.126 139.324C175.937 139.591 175.972 139.875 176.179 140.116C176.446 140.304 176.782 140.33 176.97 140.063L203.396 107.082C203.585 106.815 203.55 106.531 203.283 106.343C203.188 106.11 202.844 106.197 202.603 106.404Z" fill="#656565"/>
<path opacity="0.054097" d="M335.866 534.814L253.621 469.605C253.354 469.416 253.01 469.503 252.822 469.77C252.633 470.037 252.668 470.321 252.935 470.509L335.18 535.718C335.447 535.907 335.731 535.872 335.92 535.605C336.108 535.338 336.082 534.943 335.866 534.814Z" fill="#656565"/>
<path opacity="0.1456" d="M315.135 85.4995L210.889 94.883C210.605 94.9178 210.356 95.2364 210.391 95.5202C210.426 95.8041 210.694 95.993 211.029 96.0183L315.275 86.6349C315.559 86.6001 315.748 86.3332 315.773 85.9976C315.686 85.6537 315.419 85.4647 315.135 85.4995Z" fill="#656565"/>
<path opacity="0.5" d="M233.82 140.986L211.78 133.359C211.505 133.282 211.213 133.429 211.076 133.756C210.999 134.031 211.146 134.324 211.473 134.461L233.512 142.088C233.788 142.165 234.08 142.018 234.217 141.691C234.182 141.408 234.035 141.115 233.82 140.986Z" fill="#656565"/>
<path opacity="0.2297" d="M251.472 -31.8965L334.053 -35.1012C334.336 -35.1359 334.577 -35.3427 334.602 -35.6782C334.567 -35.9621 334.36 -36.2026 334.024 -36.228L251.444 -33.0234C251.16 -32.9886 250.86 -32.7301 250.895 -32.4463C250.87 -32.1108 251.137 -31.9219 251.472 -31.8965Z" fill="#656565"/>
<path opacity="0.3416" d="M302.102 527.537L253.673 469.665C253.466 469.425 253.131 469.399 252.89 469.606C252.65 469.813 252.625 470.149 252.832 470.389L301.321 528.21C301.528 528.45 301.863 528.476 302.104 528.269C302.284 528.114 302.309 527.778 302.102 527.537Z" fill="#656565"/>
<path opacity="0.059581" d="M211.817 134.374L315.395 86.5312C315.688 86.3846 315.825 86.0576 315.678 85.7653C315.531 85.473 315.255 85.3959 314.911 85.4824L211.333 133.325C211.041 133.472 210.904 133.799 211.05 134.091C211.197 134.383 211.525 134.521 211.817 134.374Z" fill="#656565"/>
<path opacity="0.01" d="M264.652 -72.0084L384.311 -46.8228C384.586 -46.7457 384.939 -46.944 384.964 -47.2795C385.041 -47.5549 384.842 -47.9073 384.506 -47.9327L264.908 -73.17C264.632 -73.2471 264.28 -73.0488 264.255 -72.7133C264.23 -72.3777 264.377 -72.0855 264.652 -72.0084Z" fill="#656565"/>
<path opacity="0.5" d="M212.134 133.892L211.467 95.4328C211.432 95.149 211.225 94.9084 210.889 94.883C210.605 94.9178 210.365 95.1245 210.34 95.46L211.007 133.919C210.982 134.255 211.249 134.444 211.585 134.469C211.868 134.434 212.169 134.176 212.134 133.892Z" fill="#656565"/>
<path opacity="0.076693" d="M301.998 527.417L213.715 470.75C213.448 470.561 213.044 470.699 212.967 470.974C212.839 471.19 212.926 471.534 213.081 471.714L301.424 528.33C301.691 528.519 302.035 528.432 302.224 528.165C302.3 527.89 302.265 527.606 301.998 527.417Z" fill="#656565"/>
<path opacity="0.2564" d="M233.596 140.969L176.59 139.134C176.254 139.109 176.005 139.427 176.04 139.711C176.015 140.047 176.282 140.236 176.558 140.313L233.624 142.096C233.96 142.122 234.148 141.855 234.173 141.519C234.138 141.235 233.931 140.995 233.596 140.969Z" fill="#656565"/>
<path opacity="0.055645" d="M136.709 220.416L211.997 134.219C212.186 133.952 212.211 133.617 211.944 133.428C211.677 133.239 211.341 133.214 211.152 133.48L135.864 219.678C135.676 219.945 135.651 220.28 135.918 220.469C136.185 220.658 136.52 220.683 136.709 220.416Z" fill="#656565"/>
<path opacity="0.5" d="M253.234 469.52L213.38 470.724C213.096 470.759 212.796 471.018 212.831 471.301C212.866 471.585 213.124 471.886 213.408 471.851L253.262 470.646C253.546 470.612 253.787 470.405 253.812 470.069C253.837 469.734 253.518 469.485 253.234 469.52Z" fill="#656565"/>
<path opacity="0.1835" d="M333.076 420.951L252.95 469.555C252.71 469.762 252.633 470.037 252.78 470.329C252.987 470.57 253.262 470.647 253.495 470.552L333.62 421.948C333.912 421.802 333.998 421.415 333.791 421.174C333.704 420.83 333.368 420.805 333.076 420.951Z" fill="#656565"/>
<path opacity="0.4292" d="M210.425 95.0727L176.065 139.376C175.877 139.642 175.964 139.986 176.171 140.227C176.438 140.416 176.782 140.329 177.022 140.123L211.321 95.8715C211.51 95.6046 211.475 95.3208 211.208 95.1319C211.009 94.7795 210.665 94.8659 210.425 95.0727Z" fill="#656565"/>
<path opacity="0.1574" d="M136.829 220.313L177.091 139.959C177.228 139.632 177.081 139.34 176.814 139.151C176.538 139.074 176.194 139.16 176.066 139.376L135.804 219.729C135.668 220.056 135.814 220.349 136.03 220.477C136.297 220.666 136.641 220.58 136.829 220.313Z" fill="#656565"/>
<path opacity="0.5" d="M211.444 133.334L176.478 139.126C176.134 139.212 175.945 139.479 176.032 139.823C176.067 140.107 176.386 140.356 176.67 140.321L211.636 134.529C211.92 134.495 212.169 134.176 212.082 133.832C212.107 133.497 211.788 133.248 211.444 133.334Z" fill="#656565"/>
<path opacity="0.2035" d="M210.978 95.9581L252.43 89.9255C252.774 89.839 252.963 89.5721 252.928 89.2883C252.841 88.9443 252.574 88.7554 252.29 88.7902L210.838 94.8228C210.554 94.8576 210.305 95.1762 210.34 95.46C210.427 95.804 210.694 95.9929 210.978 95.9581Z" fill="#656565"/>
<path opacity="0.2536" d="M211.997 134.219L252.842 89.6755C253.083 89.4688 253.056 89.0731 252.789 88.8842C252.522 88.6953 252.187 88.6699 251.998 88.9368L211.264 133.489C211.076 133.756 211.05 134.091 211.318 134.28C211.413 134.512 211.808 134.486 211.997 134.219Z" fill="#656565"/>
<path opacity="0.2622" d="M211.154 134.212L238.722 172.456C238.929 172.696 239.316 172.782 239.556 172.575C239.797 172.368 239.822 172.033 239.727 171.8L212.159 133.557C211.952 133.316 211.616 133.291 211.384 133.386C210.972 133.636 210.947 133.971 211.154 134.212Z" fill="#656565"/>
<path opacity="0.207" d="M176.962 140.175L252.774 89.8392C253.014 89.6325 253.151 89.3054 252.893 89.0047C252.686 88.7641 252.358 88.6269 252.118 88.8336L176.358 139.229C176.117 139.436 175.98 139.763 176.187 140.004C176.334 140.296 176.67 140.321 176.962 140.175Z" fill="#656565"/>
<path opacity="0.3069" d="M239.46 171.611L176.865 139.211C176.598 139.022 176.194 139.161 176.117 139.436C175.929 139.703 176.067 140.107 176.343 140.184L238.877 172.636C239.204 172.773 239.548 172.686 239.685 172.359C239.814 172.144 239.727 171.8 239.46 171.611Z" fill="#656565"/>
<path opacity="0.3542" d="M239.754 172.196L252.919 89.4003C252.944 89.0648 252.798 88.7725 252.41 88.687C252.075 88.6616 251.834 88.8684 251.757 89.1437L238.54 171.879C238.515 172.215 238.662 172.507 239.049 172.592C239.376 172.73 239.668 172.583 239.754 172.196Z" fill="#656565"/>
<path opacity="0.1899" d="M177.151 139.907L192.474 100.464C192.611 100.137 192.412 99.7844 192.085 99.6472C191.758 99.51 191.466 99.6566 191.329 99.9837L176.117 139.436C175.981 139.763 176.127 140.055 176.455 140.192C176.67 140.321 177.014 140.235 177.151 139.907Z" fill="#656565"/>
<path opacity="0.4096" d="M191.993 100.878L252.43 89.9255C252.774 89.839 252.963 89.5721 252.876 89.2281C252.789 88.8841 252.522 88.6952 252.178 88.7817L191.689 99.6736C191.345 99.7601 191.097 100.079 191.183 100.423C191.33 100.715 191.709 100.912 191.993 100.878Z" fill="#656565"/>
<path opacity="0.283" d="M239.615 171.792L192.404 99.8964C192.257 99.6041 191.87 99.5186 191.517 99.7169C191.225 99.8635 191.14 100.251 191.339 100.603L238.61 172.447C238.817 172.687 239.204 172.773 239.445 172.566C239.737 172.419 239.822 172.032 239.615 171.792Z" fill="#656565"/>
<path opacity="0.028443" d="M330.655 61.4793L252.178 88.7817C251.834 88.8682 251.697 89.1952 251.784 89.5392C251.931 89.8315 252.198 90.0204 252.542 89.9339L331.01 62.7434C331.302 62.5967 331.499 62.218 331.352 61.9257C331.326 61.53 330.947 61.3327 330.655 61.4793Z" fill="#656565"/>
<path opacity="0.2031" d="M94.7158 14.0628L121.078 19.5423C121.414 19.5677 121.766 19.3694 121.791 19.0338C121.816 18.6983 121.669 18.4061 121.282 18.3205L94.8595 12.8927C94.524 12.8674 94.2318 13.014 94.1466 13.4012C94.1816 13.685 94.4403 13.9857 94.7158 14.0628Z" fill="#656565"/>
<path opacity="0.1759" d="M120.759 19.2933L191.45 100.612C191.657 100.852 192.105 100.886 192.345 100.679C192.586 100.472 192.619 100.025 192.412 99.7845L121.781 18.4145C121.574 18.1739 121.127 18.1401 120.826 18.3986C120.577 18.7172 120.552 19.0527 120.759 19.2933Z" fill="#656565"/>
<path opacity="0.2275" d="M331.154 61.5733L252.916 7.4648C252.649 7.2759 252.193 7.35391 252.004 7.62082C251.816 7.88773 251.894 8.34353 252.161 8.53243L330.459 62.5892C330.726 62.7781 331.182 62.7001 331.319 62.3731C331.508 62.1061 331.421 61.7622 331.154 61.5733Z" fill="#656565"/>
<path opacity="0.093505" d="M354.613 69.0266L252.916 7.46493C252.649 7.27603 252.193 7.35403 251.996 7.73278C251.807 7.9997 251.886 8.45549 252.265 8.65285L354.021 70.1628C354.289 70.3517 354.693 70.2136 354.881 69.9466C354.966 69.5594 354.88 69.2155 354.613 69.0266Z" fill="#656565"/>
<path opacity="0.2269" d="M120.766 18.4502L42.2185 97.0903C41.918 97.3487 41.9446 97.7444 42.2034 98.0452C42.4621 98.3459 42.8578 98.3196 43.1583 98.0611L121.654 19.3609C121.894 19.1541 121.928 18.7067 121.609 18.4577C121.402 18.2171 121.066 18.1917 120.766 18.4502Z" fill="#656565"/>
<path opacity="0.3825" d="M345.186 600.47L307.205 532.253C307.006 531.901 306.619 531.815 306.327 531.962C306.034 532.109 305.889 532.548 306.036 532.84L344.017 601.057C344.164 601.349 344.603 601.495 344.904 601.236C345.196 601.09 345.333 600.763 345.186 600.47Z" fill="#656565"/>
<path opacity="0.2855" d="M307.24 532.537L305.803 456.23C305.777 455.834 305.458 455.585 305.062 455.611C304.666 455.638 304.418 455.956 304.392 456.292L305.889 532.548C305.916 532.943 306.235 533.192 306.63 533.166C307.026 533.14 307.275 532.821 307.24 532.537Z" fill="#656565"/>
<path opacity="0.1056" d="M225.945 360.609L307.363 300.744C307.604 300.537 307.749 300.098 307.49 299.797C307.231 299.497 306.844 299.411 306.544 299.67L225.074 359.475C224.773 359.733 224.688 360.12 224.947 360.421C225.146 360.774 225.645 360.868 225.945 360.609Z" fill="#656565"/>
<path opacity="0.1932" d="M242.295 310.446L307.131 300.839C307.475 300.752 307.724 300.434 307.637 300.09C307.55 299.746 307.283 299.557 306.947 299.532L242.06 309.079C241.664 309.105 241.407 309.535 241.493 309.879C241.52 310.275 241.951 310.533 242.295 310.446Z" fill="#656565"/>
<path opacity="0.1096" d="M305.665 455.825L226.132 359.611C225.874 359.31 225.426 359.277 225.126 359.535C224.825 359.793 224.852 360.189 224.999 360.481L304.591 456.644C304.85 456.945 305.297 456.979 305.598 456.72C305.838 456.513 305.872 456.066 305.665 455.825Z" fill="#656565"/>
<path opacity="0.5" d="M226.194 360.29L242.887 310.041C242.973 309.654 242.834 309.249 242.447 309.164C242.06 309.078 241.656 309.217 241.57 309.604L224.877 359.853C224.791 360.241 224.99 360.593 225.317 360.73C225.705 360.816 226.057 360.618 226.194 360.29Z" fill="#656565"/>
<path opacity="0.062707" d="M281.543 230.859L224.937 359.802C224.8 360.129 224.938 360.533 225.317 360.73C225.644 360.868 226.049 360.73 226.246 360.351L282.903 231.468C283.04 231.141 282.85 230.677 282.523 230.54C282.144 230.343 281.74 230.481 281.543 230.859Z" fill="#656565"/>
<path opacity="0.3992" d="M281.551 230.747L241.527 309.432C241.33 309.81 241.469 310.215 241.848 310.412C242.226 310.609 242.631 310.471 242.828 310.092L282.851 231.408C283.048 231.029 282.91 230.625 282.531 230.428C282.204 230.291 281.688 230.42 281.551 230.747Z" fill="#656565"/>
<path opacity="0.2545" d="M281.29 48.469L269.03 72.5108L320.263 45.5106L281.29 48.469Z" fill="#656565"/>
<path opacity="0.1776" d="M223.603 90.3333L281.29 48.4688L269.031 72.5106L223.603 90.3333Z" fill="#656565"/>
<path opacity="0.1317" d="M281.29 48.4691L320.263 45.5106L332.194 61.2025L281.29 48.4691Z" fill="#656565"/>
<path opacity="0.2793" d="M235.556 92.1926L223.603 90.333L203.086 106.721L235.556 92.1926Z" fill="#656565"/>
<path opacity="0.2793" d="M235.556 92.1926L223.603 90.333L203.086 106.721L235.556 92.1926Z" fill="#656565"/>
<path opacity="0.2793" d="M235.556 92.1926L223.603 90.333L203.086 106.721L235.556 92.1926Z" fill="#656565"/>
<path opacity="0.1799" d="M315.153 86.0071L332.194 61.2021L306.424 115.489L315.153 86.0071Z" fill="#656565"/>
<path opacity="0.042801" d="M342.737 155.631L315.154 86.0073L306.425 115.49L342.737 155.631Z" fill="#656565"/>
<path opacity="0.038904" d="M233.666 141.537L203.086 106.721L210.908 95.3903L233.666 141.537Z" fill="#656565"/>
<path opacity="0.2055" d="M235.556 92.1926L233.666 141.537L210.907 95.3903L235.556 92.1926Z" fill="#656565"/>
<path opacity="0.1261" d="M235.556 92.1928L233.666 141.537L211.575 133.85L235.556 92.1928Z" fill="#656565"/>
<path opacity="0.1827" d="M235.556 92.1926L211.575 133.85L210.907 95.3903L235.556 92.1926Z" fill="#656565"/>
<path opacity="0.2344" d="M211.575 133.85L210.908 95.3903L176.548 139.693L211.575 133.85Z" fill="#656565"/>
<rect x="0.999924" y="-47" width="299" height="878" fill="url(#paint0_linear)"/>
</g>
<defs>
<linearGradient id="paint0_linear" x1="300" y1="831" x2="234.548" y2="-58.352" gradientUnits="userSpaceOnUse">
<stop stop-color="#090909" stop-opacity="0.55"/>
<stop offset="1" stop-color="#090909"/>
</linearGradient>
<clipPath id="clip0">
<rect width="300" height="831" fill="white"/>
</clipPath>
</defs>
</svg>
