<svg width="252" height="315" viewBox="0 0 252 315" fill="none" xmlns="http://www.w3.org/2000/svg">
<g clip-path="url(#clip0)">
<path opacity="0.5" d="M19.4396 305.871C20.2736 306.18 20.6772 307.059 20.3679 307.892C20.0586 308.725 19.1792 309.128 18.3452 308.819C17.5112 308.51 17.1077 307.631 17.417 306.797C17.7262 305.964 18.6698 305.585 19.4396 305.871Z" fill="#616161"/>
<path opacity="0.5" d="M29.7995 15.4838C30.6334 15.7931 31.0132 16.7361 30.7039 17.5694C30.3946 18.4026 29.451 18.7817 28.6812 18.4961C27.8473 18.1868 27.3795 17.284 27.6888 16.4508C28.0861 15.5773 28.9655 15.1744 29.7995 15.4838Z" fill="#616161"/>
<path opacity="0.5" d="M36.0452 278.633C36.8792 278.943 37.3231 279.909 37.0138 280.743C36.7045 281.576 35.7372 282.019 34.9032 281.71C34.0692 281.4 33.6253 280.433 33.9346 279.6C34.3081 278.791 35.2113 278.324 36.0452 278.633Z" fill="#616161"/>
<path opacity="0.5" d="M19.4094 111.893C20.2434 112.202 20.6874 113.169 20.3781 114.002C20.0688 114.836 19.1014 115.279 18.2674 114.969C17.4335 114.66 16.9895 113.693 17.2988 112.86C17.6081 112.027 18.5755 111.584 19.4094 111.893Z" fill="#616161"/>
<path opacity="0.5" d="M31.9567 292.795C32.8548 293.128 33.2988 294.095 32.9657 294.992C32.6326 295.889 31.6652 296.332 30.7671 295.999C29.869 295.666 29.4251 294.699 29.7582 293.802C30.0271 292.881 31.0586 292.461 31.9567 292.795Z" fill="#616161"/>
<path opacity="0.5" d="M8.9018 89.4739C9.79991 89.807 10.2439 90.7739 9.91077 91.6712C9.57768 92.5685 8.61031 93.0117 7.7122 92.6785C6.81409 92.3454 6.37014 91.3785 6.70323 90.4812C7.03632 89.5839 8.00369 89.1407 8.9018 89.4739Z" fill="#616161"/>
<path opacity="0.5" d="M135.617 84.1256C136.515 84.4588 137 85.5135 136.667 86.4108C136.334 87.3081 135.278 87.7916 134.38 87.4584C133.482 87.1253 132.998 86.0706 133.331 85.1733C133.664 84.276 134.655 83.7686 135.617 84.1256Z" fill="#616161"/>
<path opacity="0.5" d="M66.4353 265.188C67.3334 265.521 67.8177 266.576 67.4846 267.473C67.1515 268.371 66.0962 268.854 65.1981 268.521C64.2358 268.164 63.8157 267.133 64.1487 266.236C64.4818 265.338 65.473 264.831 66.4353 265.188Z" fill="#616161"/>
<path opacity="0.5" d="M56.107 181.728C57.0692 182.085 57.5535 183.14 57.1967 184.102C56.8398 185.063 55.7845 185.547 54.8222 185.19C53.86 184.833 53.3757 183.778 53.7326 182.816C54.0894 181.855 55.1447 181.372 56.107 181.728Z" fill="#616161"/>
<path opacity="0.5" d="M80.3021 284.259C81.2644 284.616 81.7487 285.671 81.3918 286.632C81.0349 287.594 79.9796 288.077 79.0173 287.72C78.0551 287.363 77.5708 286.309 77.9277 285.347C78.2846 284.386 79.3398 283.902 80.3021 284.259Z" fill="#616161"/>
<path opacity="0.5" d="M100.434 253.227C101.426 253.595 102.528 253.09 102.896 252.099C103.264 251.107 102.758 250.006 101.766 249.638C100.774 249.27 99.6716 249.775 99.3037 250.766C98.9357 251.757 99.4417 252.859 100.434 253.227Z" fill="#616161"/>
<path opacity="0.5" d="M33.7538 68.14C34.7802 68.5208 35.2407 69.6395 34.8839 70.6009C34.5032 71.6264 33.3837 72.0862 32.4215 71.7292C31.3951 71.3484 30.9345 70.2296 31.2914 69.2682C31.6483 68.3068 32.7274 67.7592 33.7538 68.14Z" fill="#616161"/>
<path opacity="0.5" d="M9.91175 43.6175C10.3144 42.5587 9.78169 41.3738 8.72194 40.9711C7.66219 40.5684 6.4767 41.1002 6.07406 42.159C5.67143 43.2178 6.20413 44.4026 7.26388 44.8054C8.32362 45.2081 9.50912 44.6763 9.91175 43.6175Z" fill="#616161"/>
<path opacity="0.5" d="M5.16743 135.122C6.19384 135.502 6.78265 136.669 6.37819 137.758C5.99751 138.784 4.83047 139.372 3.73991 138.967C2.71351 138.586 2.1247 137.42 2.52916 136.331C2.90983 135.305 4.14103 134.741 5.16743 135.122Z" fill="#616161"/>
<path opacity="0.5" d="M115.383 303.399C116.473 303.804 116.998 304.947 116.593 306.036C116.189 307.126 114.982 307.626 113.955 307.245C112.865 306.841 112.364 305.634 112.744 304.608C113.125 303.583 114.356 303.019 115.383 303.399Z" fill="#616161"/>
<path opacity="0.5" d="M39.9274 200.738C41.0179 201.142 41.5188 202.349 41.1381 203.374C40.7336 204.464 39.5263 204.964 38.4999 204.583C37.4093 204.179 36.9084 202.972 37.2891 201.946C37.6294 200.833 38.8368 200.333 39.9274 200.738Z" fill="#616161"/>
<path opacity="0.5" d="M56.3755 207.35C57.466 207.754 58.031 208.985 57.6266 210.074C57.2221 211.164 55.9909 211.728 54.9004 211.323C53.8098 210.919 53.2448 209.688 53.6492 208.599C54.0537 207.509 55.2849 206.945 56.3755 207.35Z" fill="#616161"/>
<path opacity="0.5" d="M147.665 171.213C148.82 171.641 149.385 172.872 148.956 174.025C148.528 175.179 147.297 175.743 146.142 175.315C144.988 174.886 144.423 173.656 144.851 172.502C145.279 171.348 146.51 170.784 147.665 171.213Z" fill="#616161"/>
<path opacity="0.5" d="M23.3705 49.1204C24.5252 49.5488 25.0902 50.7793 24.6619 51.933C24.2337 53.0866 23.0025 53.6508 21.8478 53.2224C20.6931 52.794 20.128 51.5635 20.5563 50.4099C20.9607 49.3203 22.2799 48.7159 23.3705 49.1204Z" fill="#616161"/>
<path opacity="0.5" d="M38.7768 185.945C39.9315 186.374 40.5369 187.692 40.1087 188.846C39.6804 190 38.3613 190.604 37.2066 190.176C36.0519 189.747 35.4465 188.429 35.8748 187.275C36.303 186.122 37.558 185.493 38.7768 185.945Z" fill="#616161"/>
<path opacity="0.5" d="M-1.57846 202.84C-0.359606 203.293 0.245777 204.611 -0.20627 205.829C-0.658317 207.046 -1.97746 207.651 -3.19632 207.199C-4.41517 206.747 -5.02056 205.428 -4.56852 204.21C-4.11647 202.993 -2.73316 202.412 -1.57846 202.84Z" fill="#616161"/>
<path opacity="0.5" d="M103.289 256.547C104.508 256.999 105.154 258.405 104.701 259.623C104.249 260.841 102.842 261.486 101.623 261.033C100.405 260.581 99.7589 259.175 100.211 257.957C100.663 256.739 102.006 256.071 103.289 256.547Z" fill="#616161"/>
<path opacity="0.084881" d="M18.6425 307.033L-33.9095 348.133C-34.1091 348.278 -34.1163 348.494 -33.9715 348.694C-33.8266 348.893 -33.6104 348.901 -33.4107 348.756L19.2054 307.679C19.4051 307.535 19.4123 307.318 19.2674 307.119C19.0988 306.983 18.8184 306.952 18.6425 307.033Z" fill="#656565"/>
<path opacity="0.2147" d="M-11.823 74.1291L29.5886 17.2286C29.7242 17.0601 29.6673 16.8202 29.4986 16.6848C29.3299 16.5493 29.0257 16.5823 28.9544 16.7745L-12.4573 73.6751C-12.5928 73.8436 -12.5359 74.0834 -12.3672 74.2189C-12.1986 74.3544 -11.9585 74.2976 -11.823 74.1291Z" fill="#656565"/>
<path opacity="0.5" d="M35.1125 279.966L18.5064 307.202C18.3708 307.371 18.4278 307.611 18.6606 307.77C18.8292 307.905 19.0693 307.849 19.2286 307.616L35.8109 280.443C35.8823 280.251 35.8254 280.011 35.6567 279.876C35.4881 279.74 35.248 279.797 35.1125 279.966Z" fill="#656565"/>
<path opacity="0.159" d="M19.1495 113.183L-11.7845 73.6334C-11.9294 73.4338 -12.1456 73.4265 -12.3453 73.5712C-12.545 73.7159 -12.5522 73.932 -12.4073 74.1315L18.5267 113.681C18.6716 113.881 18.9519 113.912 19.0875 113.744C19.2634 113.663 19.2944 113.383 19.1495 113.183Z" fill="#656565"/>
<path opacity="0.1823" d="M-14.6897 76.3475L29.5888 17.2291C29.7243 17.0606 29.6912 16.7566 29.5225 16.6211C29.3539 16.4857 29.1138 16.5424 28.9783 16.7109L-15.3002 75.8293C-15.4357 75.9978 -15.4026 76.3018 -15.2339 76.4373C-15.0652 76.5727 -14.8252 76.516 -14.6897 76.3475Z" fill="#656565"/>
<path opacity="0.1898" d="M19.1627 307.008L-17.043 280.086C-17.2116 279.951 -17.5158 279.984 -17.6513 280.152C-17.7868 280.321 -17.7537 280.625 -17.585 280.76L18.6444 307.618C18.813 307.753 19.0531 307.696 19.1886 307.528C19.3645 307.447 19.3313 307.143 19.1627 307.008Z" fill="#656565"/>
<path opacity="0.2183" d="M18.4993 307.418L25.4283 345.574C25.4852 345.813 25.718 345.973 25.9581 345.916C26.1981 345.859 26.3574 345.627 26.3005 345.387L19.3477 307.296C19.2908 307.056 19.1221 306.92 18.8821 306.977C18.6421 307.034 18.5066 307.202 18.4993 307.418Z" fill="#656565"/>
<path opacity="0.1698" d="M-27.3503 244.543L35.2666 280.533C35.4352 280.669 35.6991 280.548 35.8346 280.379C35.9701 280.211 35.849 279.947 35.6804 279.812L-27.0006 243.797C-27.1931 243.726 -27.4331 243.783 -27.5687 243.951C-27.64 244.144 -27.5189 244.407 -27.3503 244.543Z" fill="#656565"/>
<path opacity="0.363" d="M-15.3622 76.3894L18.5029 113.745C18.6715 113.881 18.9519 113.912 19.0874 113.743C19.2229 113.575 19.2302 113.359 19.0853 113.159L-14.7797 75.8034C-14.9484 75.6679 -15.2288 75.6368 -15.3643 75.8053C-15.4998 75.9738 -15.507 76.1899 -15.3622 76.3894Z" fill="#656565"/>
<path opacity="0.3266" d="M35.4885 279.74L-17.3232 280.056C-17.5395 280.048 -17.7629 280.257 -17.7702 280.473C-17.7774 280.689 -17.5684 280.913 -17.3521 280.92L35.4596 280.605C35.6758 280.612 35.8993 280.403 35.8424 280.163C35.9375 279.907 35.7048 279.748 35.4885 279.74Z" fill="#656565"/>
<path opacity="0.233" d="M18.5011 113.161L-25.8491 167.95C-25.9846 168.119 -25.9515 168.423 -25.7828 168.558C-25.6141 168.693 -25.31 168.66 -25.1744 168.492L19.1519 113.767C19.2875 113.598 19.2544 113.294 19.0857 113.159C18.8529 112.999 18.6367 112.992 18.5011 113.161Z" fill="#656565"/>
<path opacity="0.1905" d="M35.0651 280.094L25.4118 345.422C25.4045 345.638 25.5256 345.902 25.7419 345.909C25.9581 345.916 26.1578 345.772 26.2291 345.579L35.8825 280.252C35.8898 280.035 35.7449 279.836 35.5524 279.764C35.36 279.693 35.1365 279.902 35.0651 280.094Z" fill="#656565"/>
<path opacity="0.1242" d="M0.918331 -40.805L28.8999 17.1191C28.9806 17.2949 29.2372 17.3901 29.4772 17.3333C29.6531 17.2527 29.7483 16.9963 29.6676 16.8205L1.70983 -41.1676C1.56496 -41.3672 1.30834 -41.4624 1.10867 -41.3177C0.932783 -41.2371 0.837615 -40.9807 0.918331 -40.805Z" fill="#656565"/>
<path opacity="0.1599" d="M26.1962 345.275L-16.9622 280.263C-17.107 280.063 -17.3874 280.032 -17.5633 280.113C-17.763 280.257 -17.794 280.537 -17.7133 280.713L25.4451 345.726C25.5899 345.925 25.8703 345.957 26.0462 345.876C26.2697 345.667 26.3411 345.475 26.1962 345.275Z" fill="#656565"/>
<path opacity="0.080509" d="M-15.2336 76.4368L8.09997 91.437C8.26863 91.5725 8.57283 91.5395 8.66799 91.2831C8.80352 91.1147 8.77039 90.8107 8.51379 90.7155L-14.8436 75.7794C-15.0123 75.6439 -15.2523 75.7007 -15.4116 75.9333C-15.5234 76.0377 -15.4261 76.3654 -15.2336 76.4368Z" fill="#656565"/>
<path opacity="0.1672" d="M35.0888 280.029L30.9119 294.23C30.8168 294.487 30.9617 294.686 31.2183 294.781C31.4749 294.877 31.6745 294.732 31.7697 294.476L35.8824 280.251C35.9537 280.058 35.8326 279.795 35.6402 279.723C35.424 279.716 35.1601 279.837 35.0888 280.029Z" fill="#656565"/>
<path opacity="0.01" d="M-27.4141 244.519L31.0901 294.734C31.2587 294.87 31.5629 294.837 31.6984 294.668C31.834 294.5 31.8008 294.196 31.6322 294.06L-26.872 243.845C-27.0407 243.71 -27.3211 243.679 -27.4804 243.911C-27.6159 244.08 -27.6232 244.296 -27.4141 244.519Z" fill="#656565"/>
<path opacity="0.3855" d="M19.1898 113.271L8.65833 90.9154C8.51347 90.7158 8.25689 90.6206 8.05722 90.7653C7.88133 90.8459 7.78616 91.1023 7.84309 91.3421L18.3745 113.698C18.4552 113.873 18.7118 113.969 18.9518 113.912C19.1753 113.703 19.2705 113.447 19.1898 113.271Z" fill="#656565"/>
<path opacity="0.2922" d="M31.4636 293.925L-17.1713 280.039C-17.3637 279.967 -17.6276 280.088 -17.7228 280.345C-17.7941 280.537 -17.673 280.801 -17.4806 280.872L31.1543 294.758C31.4109 294.853 31.6344 294.644 31.7058 294.452C31.7771 294.26 31.7202 294.02 31.4636 293.925Z" fill="#656565"/>
<path opacity="0.1263" d="M19.0852 113.159L-25.3095 76.0531C-25.4782 75.9176 -25.7823 75.9506 -25.9179 76.1191C-26.0534 76.2876 -25.9965 76.5274 -25.8516 76.727L18.5669 113.769C18.7355 113.904 19.0397 113.871 19.1752 113.703C19.2466 113.51 19.2538 113.294 19.0852 113.159Z" fill="#656565"/>
<path opacity="0.2937" d="M26.2533 345.515L31.7299 294.389C31.7371 294.172 31.5281 293.949 31.3119 293.942C31.0956 293.934 30.8959 294.079 30.8887 294.295L25.4121 345.422C25.4049 345.638 25.5498 345.838 25.8301 345.869C26.0226 345.94 26.2461 345.731 26.2533 345.515Z" fill="#656565"/>
<path opacity="0.1299" d="M31.2238 293.982L-49.2508 315.536C-49.4908 315.593 -49.586 315.849 -49.529 316.089C-49.4721 316.329 -49.2155 316.424 -49.0396 316.343L31.4587 294.725C31.6988 294.669 31.8581 294.436 31.737 294.172C31.7204 294.02 31.4876 293.861 31.2238 293.982Z" fill="#656565"/>
<path opacity="0.01" d="M31.5277 293.949L-57.8596 260.278C-58.1162 260.182 -58.3158 260.327 -58.3872 260.519C-58.4586 260.712 -58.3375 260.975 -58.1451 261.047L31.2422 294.718C31.4988 294.813 31.6985 294.668 31.7699 294.476C31.8412 294.284 31.7202 294.02 31.5277 293.949Z" fill="#656565"/>
<path opacity="0.5" d="M8.44953 90.6919L-25.4375 76.0059C-25.6941 75.9108 -25.958 76.0316 -26.0293 76.2239C-26.1245 76.4803 -25.9796 76.6799 -25.811 76.8154L8.14024 91.5251C8.39684 91.6203 8.59652 91.4756 8.73205 91.3072C8.76307 91.027 8.70613 90.7871 8.44953 90.6919Z" fill="#656565"/>
<path opacity="0.3229" d="M65.5027 266.52L31.0478 294.062C30.8481 294.207 30.8171 294.487 30.962 294.687C31.1068 294.886 31.3872 294.917 31.5869 294.773L66.018 267.294C66.2177 267.149 66.1845 266.845 66.0397 266.646C65.9186 266.382 65.7024 266.375 65.5027 266.52Z" fill="#656565"/>
<path opacity="0.106" d="M79.6098 285.535L31.3119 293.941C31.0719 293.998 30.9126 294.231 30.9695 294.471C31.0264 294.71 31.1951 294.846 31.4351 294.789L79.7972 286.406C80.0372 286.35 80.1965 286.117 80.1396 285.877C80.0827 285.637 79.8499 285.478 79.6098 285.535Z" fill="#656565"/>
<path opacity="0.1451" d="M66.2725 266.806L55.9205 183.41C55.8636 183.17 55.6545 182.947 55.4145 183.003C55.1745 183.06 54.951 183.269 55.0079 183.509L65.3599 266.905C65.4169 267.144 65.6497 267.304 65.8897 267.247C66.106 267.254 66.2653 267.022 66.2725 266.806Z" fill="#656565"/>
<path opacity="0.5" d="M65.4167 267.144L79.3477 286.24C79.4926 286.44 79.773 286.471 79.9726 286.326C80.1723 286.181 80.2033 285.901 80.0585 285.702L66.1275 266.606C65.9826 266.406 65.7022 266.375 65.5025 266.52C65.3028 266.665 65.2718 266.945 65.4167 267.144Z" fill="#656565"/>
<path opacity="0.095671" d="M65.6145 266.415L-2.9073 293.716C-3.17113 293.837 -3.26629 294.093 -3.14522 294.357C-3.02414 294.62 -2.76757 294.716 -2.59168 294.635L65.954 267.27C66.2178 267.149 66.3129 266.893 66.1919 266.629C66.1112 266.453 65.8546 266.358 65.6145 266.415Z" fill="#656565"/>
<path opacity="0.1489" d="M79.6331 285.471L-2.75555 293.7C-3.05974 293.733 -3.21905 293.965 -3.16212 294.205C-3.1052 294.445 -2.89617 294.669 -2.65614 294.612L79.7325 286.383C79.9726 286.326 80.196 286.117 80.1391 285.877C80.1463 285.661 79.9135 285.502 79.6331 285.471Z" fill="#656565"/>
<path opacity="0.1685" d="M65.9536 267.271L101.325 251.808C101.589 251.687 101.684 251.431 101.563 251.167C101.442 250.904 101.185 250.808 100.922 250.929L65.6142 266.416C65.3504 266.536 65.2552 266.793 65.4001 266.992C65.4332 267.296 65.7539 267.415 65.9536 267.271Z" fill="#656565"/>
<path opacity="0.057505" d="M101.499 251.143L55.7757 183.21C55.6308 183.01 55.3742 182.915 55.1104 183.036C54.9107 183.181 54.8797 183.461 55.0008 183.725L100.636 251.698C100.781 251.898 101.126 251.953 101.325 251.808C101.613 251.623 101.644 251.343 101.499 251.143Z" fill="#656565"/>
<path opacity="0.3629" d="M100.698 251.138L79.2577 285.696C79.0984 285.928 79.2195 286.192 79.3881 286.328C79.6209 286.487 79.8848 286.366 80.0203 286.197L101.461 251.639C101.62 251.407 101.523 251.079 101.266 250.984C101.162 250.872 100.834 250.969 100.698 251.138Z" fill="#656565"/>
<path opacity="0.4523" d="M33.2537 69.4858L-10.6014 53.1436C-10.858 53.0484 -11.1218 53.1693 -11.217 53.4257C-11.3121 53.6821 -11.191 53.9458 -10.9344 54.0409L32.9206 70.3831C33.1772 70.4783 33.441 70.3574 33.5361 70.101C33.6075 69.9087 33.5103 69.581 33.2537 69.4858Z" fill="#656565"/>
<path opacity="0.076525" d="M33.1658 69.5268L-58.3734 49.7143C-58.6538 49.6832 -58.8535 49.8279 -58.9487 50.0843C-58.9797 50.3644 -58.8348 50.564 -58.5782 50.6592L32.961 70.4717C33.2414 70.5028 33.5052 70.3819 33.5363 70.1018C33.6314 69.8454 33.4462 69.5579 33.1658 69.5268Z" fill="#656565"/>
<path opacity="0.1866" d="M-18.0043 262.229L-3.16895 294.421C-3.04788 294.685 -2.79128 294.78 -2.52745 294.659C-2.26362 294.538 -2.16846 294.282 -2.28953 294.018L-17.101 261.762C-17.2221 261.498 -17.5429 261.379 -17.8067 261.5C-18.0064 261.645 -18.1253 261.965 -18.0043 262.229Z" fill="#656565"/>
<path opacity="0.142" d="M7.74656 42.4503L-11.0574 53.1939C-11.2571 53.3386 -11.3523 53.5949 -11.2312 53.8586C-11.0863 54.0582 -10.8297 54.1534 -10.5659 54.0325L8.27845 43.3768C8.54228 43.2559 8.59706 42.9116 8.47599 42.6479C8.26697 42.4246 8.01039 42.3294 7.74656 42.4503Z" fill="#656565"/>
<path opacity="0.045279" d="M32.9494 69.5193L-61.6991 88.9508C-62.0033 88.9838 -62.1864 89.2805 -62.0653 89.5441C-62.0322 89.8481 -61.7352 90.0312 -61.4714 89.9103L33.1771 70.4788C33.4171 70.4221 33.6002 70.1254 33.5433 69.8855C33.5102 69.5815 33.2774 69.4222 32.9494 69.5193Z" fill="#656565"/>
<path opacity="0.01" d="M-17.0609 261.85L-52.3657 165.259C-52.4867 164.996 -52.7433 164.901 -52.9834 164.957C-53.2472 165.078 -53.3423 165.335 -53.2854 165.574L-18.0449 262.141C-17.9238 262.404 -17.6672 262.5 -17.363 262.467C-17.0992 262.346 -17.004 262.089 -17.0609 261.85Z" fill="#656565"/>
<path opacity="0.393" d="M33.4222 69.6217L8.37113 42.5359C8.16211 42.3126 7.85793 42.3456 7.63446 42.5543C7.41099 42.7631 7.44415 43.0671 7.58902 43.2667L32.6638 70.2883C32.8729 70.5117 33.177 70.4787 33.3767 70.334C33.6002 70.1252 33.6312 69.845 33.4222 69.6217Z" fill="#656565"/>
<path opacity="0.075282" d="M32.6381 69.7682L3.93999 136.854C3.84482 137.111 3.94211 137.438 4.19871 137.533C4.45531 137.629 4.78328 137.532 4.87845 137.275L33.4885 70.2296C33.5837 69.9732 33.4627 69.7095 33.2061 69.6143C32.9971 69.391 32.7332 69.5118 32.6381 69.7682Z" fill="#656565"/>
<path opacity="0.2802" d="M4.18734 136.582L-53.0474 164.934C-53.3112 165.055 -53.3661 165.399 -53.2212 165.599C-53.0763 165.799 -52.8197 165.894 -52.5797 165.837L4.71923 137.508C4.98305 137.387 5.03784 137.043 4.91677 136.779C4.7719 136.58 4.45116 136.461 4.18734 136.582Z" fill="#656565"/>
<path opacity="0.1372" d="M100.619 251.546L114.164 305.5C114.197 305.804 114.518 305.923 114.822 305.89C115.126 305.857 115.245 305.537 115.212 305.233L101.579 251.319C101.523 251.079 101.226 250.896 100.962 251.017C100.746 251.01 100.586 251.242 100.619 251.546Z" fill="#656565"/>
<path opacity="0.2548" d="M7.72234 42.5136L-61.8751 89.0308C-62.0748 89.1754 -62.1937 89.4959 -61.9847 89.7193C-61.8398 89.9189 -61.5191 90.0379 -61.2956 89.8291L8.27803 43.376C8.4777 43.2313 8.59665 42.9108 8.41143 42.6234C8.26656 42.4238 7.94581 42.3048 7.72234 42.5136Z" fill="#656565"/>
<path opacity="0.2233" d="M4.74821 136.644L-61.2901 89.0295C-61.5229 88.8703 -61.8271 88.9033 -61.9864 89.1358C-62.1457 89.3684 -62.1126 89.6724 -61.8798 89.8317L4.15851 137.446C4.39131 137.605 4.69552 137.572 4.87863 137.275C5.01415 137.107 4.98102 136.803 4.74821 136.644Z" fill="#656565"/>
<path opacity="0.2139" d="M87.266 365.378L115.158 305.577C115.253 305.32 115.155 304.993 114.899 304.897C114.642 304.802 114.378 304.923 114.219 305.156L86.3917 364.981C86.2965 365.237 86.3938 365.565 86.6504 365.66C86.8428 365.732 87.1708 365.635 87.266 365.378Z" fill="#656565"/>
<path opacity="0.3443" d="M-59.138 101.714L4.13475 137.51C4.36756 137.669 4.69555 137.572 4.85487 137.339C5.01418 137.107 4.91692 136.779 4.68411 136.62L-58.5887 100.824C-58.8215 100.664 -59.1495 100.761 -59.2447 101.018C-59.4278 101.314 -59.3708 101.554 -59.138 101.714Z" fill="#656565"/>
<path opacity="0.165" d="M4.36307 136.5L-89.2738 152.224C-89.578 152.257 -89.7611 152.553 -89.7042 152.793C-89.671 153.097 -89.3741 153.28 -89.1341 153.224L4.5028 137.5C4.80699 137.467 4.9901 137.171 4.86903 136.907C4.87625 136.691 4.64347 136.532 4.36307 136.5Z" fill="#656565"/>
<path opacity="0.12" d="M-17.1421 261.674L-73.2613 186.749C-73.4703 186.525 -73.7507 186.494 -74.0145 186.615C-74.238 186.824 -74.269 187.104 -74.1479 187.368L-18.0287 262.293C-17.8838 262.493 -17.5393 262.547 -17.3396 262.403C-16.9879 262.242 -16.9569 261.961 -17.1421 261.674Z" fill="#656565"/>
<path opacity="0.1663" d="M4.94971 137.083L8.50881 42.9519C8.53983 42.6718 8.26666 42.4246 7.96247 42.4576C7.68208 42.4265 7.45861 42.6352 7.4276 42.9154L3.86849 137.047C3.83747 137.327 4.11064 137.574 4.39104 137.605C4.69522 137.572 4.91869 137.363 4.94971 137.083Z" fill="#656565"/>
<path opacity="0.2216" d="M38.8358 202.302L-17.8782 261.693C-18.1016 261.901 -18.0685 262.205 -17.8595 262.429C-17.6504 262.652 -17.3463 262.619 -17.1228 262.41L39.6553 203.043C39.8788 202.835 39.8457 202.531 39.6367 202.307C39.3635 202.06 38.9951 202.069 38.8358 202.302Z" fill="#656565"/>
<path opacity="0.1664" d="M4.18686 136.581L-73.9265 186.575C-74.1903 186.696 -74.2451 187.04 -74.1241 187.304C-74.003 187.567 -73.6584 187.622 -73.3946 187.501L4.71875 137.508C4.98258 137.387 5.03737 137.043 4.91629 136.779C4.73106 136.491 4.38653 136.436 4.18686 136.581Z" fill="#656565"/>
<path opacity="0.4036" d="M4.49161 136.548L-59.3344 131.538C-59.6148 131.507 -59.8621 131.78 -59.8931 132.06C-59.9241 132.34 -59.7151 132.563 -59.4347 132.594L4.39135 137.605C4.67174 137.636 4.89521 137.427 4.92623 137.147C4.98104 136.803 4.772 136.579 4.49161 136.548Z" fill="#656565"/>
<path opacity="0.3179" d="M39.677 202.394L4.91684 136.778C4.79577 136.515 4.47503 136.396 4.18741 136.581C3.92358 136.702 3.86876 137.046 3.98983 137.31L38.75 202.926C38.871 203.189 39.2156 203.244 39.4794 203.123C39.6791 202.979 39.798 202.658 39.677 202.394Z" fill="#656565"/>
<path opacity="0.1898" d="M-4.66067 249.678L-73.3013 186.661C-73.5341 186.502 -73.8383 186.535 -74.0618 186.743C-74.2211 186.976 -74.2521 187.256 -74.0431 187.479L-5.37864 250.433C-5.16962 250.656 -4.86544 250.623 -4.64197 250.415C-4.4185 250.206 -4.42786 249.838 -4.66067 249.678Z" fill="#656565"/>
<path opacity="0.5" d="M4.33933 136.565L-26.7038 144.299C-27.0318 144.396 -27.1269 144.653 -27.0938 144.957C-27.0607 145.261 -26.7399 145.38 -26.4357 145.347L4.63116 137.548C4.87119 137.491 5.05433 137.195 4.95704 136.867C4.83597 136.603 4.57937 136.508 4.33933 136.565Z" fill="#656565"/>
<path opacity="0.016983" d="M39.2751 202.1L-73.5983 186.478C-73.8787 186.447 -74.1663 186.632 -74.1973 186.912C-74.2284 187.192 -74.0432 187.48 -73.7628 187.511L39.1107 203.133C39.3911 203.164 39.6787 202.979 39.7098 202.699C39.7408 202.419 39.5317 202.195 39.2751 202.1Z" fill="#656565"/>
<path opacity="0.027348" d="M-17.2751 262.427L55.9277 209.736C56.1511 209.528 56.2059 209.183 56.0611 208.984C55.852 208.76 55.5075 208.706 55.3078 208.85L-17.8308 261.564C-18.0542 261.773 -18.0852 262.053 -17.8762 262.277C-17.7551 262.54 -17.4748 262.572 -17.2751 262.427Z" fill="#656565"/>
<path opacity="0.4429" d="M38.7715 202.278L-5.39718 249.697C-5.62065 249.906 -5.5875 250.21 -5.37848 250.433C-5.16946 250.657 -4.86528 250.624 -4.64181 250.415L39.591 203.019C39.8145 202.811 39.7814 202.507 39.5723 202.283C39.3633 202.06 38.995 202.069 38.7715 202.278Z" fill="#656565"/>
<path opacity="0.1196" d="M-6.33173 261.455L-73.261 186.749C-73.47 186.525 -73.7742 186.558 -73.9976 186.767C-74.2211 186.976 -74.1879 187.28 -74.0431 187.48L-7.11387 262.186C-6.90486 262.409 -6.53652 262.4 -6.37721 262.167C-6.15374 261.959 -6.18686 261.655 -6.33173 261.455Z" fill="#656565"/>
<path opacity="0.06567" d="M-4.47541 249.966L-26.0458 144.689C-26.0789 144.385 -26.3759 144.202 -26.7039 144.299C-27.0081 144.332 -27.1912 144.629 -27.0701 144.892L-5.4759 250.105C-5.44277 250.409 -5.14582 250.592 -4.84164 250.559C-4.6016 250.502 -4.41848 250.206 -4.47541 249.966Z" fill="#656565"/>
<path opacity="0.3415" d="M38.7476 202.342L-7.13252 261.449C-7.29184 261.682 -7.28249 262.05 -7.04968 262.209C-6.81687 262.369 -6.51269 262.336 -6.28922 262.127L39.6147 202.955C39.774 202.722 39.7409 202.418 39.5319 202.195C39.2991 202.036 38.9069 202.109 38.7476 202.342Z" fill="#656565"/>
<path opacity="0.2379" d="M39.5078 202.259L-26.2313 144.402C-26.4641 144.242 -26.8324 144.252 -26.9918 144.484C-27.1511 144.717 -27.1179 145.021 -26.9731 145.22L38.8539 203.038C39.0868 203.197 39.3909 203.164 39.6144 202.955C39.7499 202.787 39.7406 202.419 39.5078 202.259Z" fill="#656565"/>
<path opacity="0.3186" d="M-4.72975 250.455L55.9277 209.736C56.1511 209.527 56.2059 209.183 56.0611 208.983C55.8521 208.76 55.5717 208.729 55.3079 208.85L-5.28543 249.592C-5.57305 249.777 -5.60406 250.058 -5.41883 250.345C-5.29776 250.609 -4.95322 250.664 -4.72975 250.455Z" fill="#656565"/>
<path opacity="0.5" d="M38.9587 203.15L55.3833 209.826C55.6399 209.921 55.9917 209.76 56.0869 209.504C56.182 209.248 56.0847 208.92 55.764 208.801L39.3156 202.188C39.059 202.093 38.7311 202.19 38.6121 202.511C38.6049 202.727 38.7259 202.991 38.9587 203.15Z" fill="#656565"/>
<path opacity="0.085053" d="M-16.6492 366.715L-6.17015 261.807C-6.13913 261.527 -6.32436 261.239 -6.6689 261.184C-6.94929 261.153 -7.23693 261.338 -7.29174 261.682L-17.8349 366.567C-17.8659 366.847 -17.6807 367.135 -17.3361 367.19C-16.9916 367.245 -16.704 367.06 -16.6492 366.715Z" fill="#656565"/>
<path opacity="0.3039" d="M-6.37736 262.167L56.0153 209.696C56.2388 209.487 56.2936 209.143 56.0846 208.92C55.8755 208.696 55.531 208.641 55.3075 208.85L-7.02096 261.345C-7.24443 261.554 -7.23507 261.922 -7.00226 262.081C-6.94534 262.321 -6.60083 262.376 -6.37736 262.167Z" fill="#656565"/>
<path opacity="0.1026" d="M55.9565 208.872L-26.2951 144.378C-26.5279 144.218 -26.8963 144.227 -27.0556 144.46C-27.2149 144.693 -27.2056 145.061 -26.9727 145.22L55.2147 209.69C55.4475 209.849 55.8158 209.84 55.9752 209.608C56.2628 209.423 56.1655 209.095 55.9565 208.872Z" fill="#656565"/>
<path opacity="0.061074" d="M22.9034 50.7712L8.24278 42.4885C8.00997 42.3293 7.68198 42.4263 7.52266 42.6589C7.36335 42.8915 7.46061 43.2193 7.69342 43.3785L22.3303 51.7253C22.5631 51.8846 22.979 51.7472 23.0742 51.4908C23.2573 51.1941 23.16 50.8664 22.9034 50.7712Z" fill="#656565"/>
<path opacity="0.01" d="M39.327 203.141L147.081 173.768C147.409 173.671 147.592 173.374 147.471 173.111C147.373 172.783 147.076 172.6 146.813 172.721L39.0993 202.181C38.7713 202.278 38.6761 202.535 38.7093 202.838C38.7662 203.078 39.0632 203.261 39.327 203.141Z" fill="#656565"/>
<path opacity="0.034744" d="M22.0956 50.9814L-27.1031 144.588C-27.2624 144.821 -27.101 145.173 -26.8682 145.332C-26.6116 145.427 -26.2836 145.33 -26.1243 145.097L23.1385 51.5141C23.3216 51.2175 23.1602 50.8659 22.9036 50.7707C22.6066 50.5876 22.2787 50.6847 22.0956 50.9814Z" fill="#656565"/>
<path opacity="0.194" d="M39.7339 202.635L38.5761 188.059C38.5429 187.755 38.2698 187.508 37.9656 187.541C37.6614 187.574 37.4141 187.846 37.4473 188.15L38.7334 202.774C38.7666 203.078 39.0635 203.261 39.3036 203.204C39.5674 203.083 39.7267 202.851 39.7339 202.635Z" fill="#656565"/>
<path opacity="0.1993" d="M146.724 172.76L55.4596 208.833C55.1958 208.954 55.0768 209.275 55.1979 209.538C55.319 209.802 55.6397 209.921 55.8797 209.864L147.145 173.791C147.408 173.67 147.592 173.374 147.494 173.046C147.309 172.759 146.988 172.64 146.724 172.76Z" fill="#656565"/>
<path opacity="0.045711" d="M37.4613 187.719L-7.22058 261.49C-7.3799 261.723 -7.28259 262.05 -7.04978 262.21C-6.81697 262.369 -6.48901 262.272 -6.3297 262.039L38.4805 188.315C38.6636 188.019 38.5022 187.667 38.2456 187.572C37.9486 187.389 37.6207 187.486 37.4613 187.719Z" fill="#656565"/>
<path opacity="0.072685" d="M38.31 187.595L-26.2309 144.402C-26.4637 144.242 -26.7916 144.339 -26.951 144.572C-27.1103 144.805 -27.013 145.132 -26.7802 145.292L37.7369 188.55C37.9697 188.709 38.3618 188.636 38.5211 188.403C38.6401 188.083 38.5428 187.755 38.31 187.595Z" fill="#656565"/>
<path opacity="0.4411" d="M37.5041 188.391L55.1507 209.667C55.3597 209.89 55.7043 209.945 55.9277 209.736C56.1512 209.528 56.1822 209.247 55.997 208.96L38.3504 187.684C38.1414 187.46 37.7968 187.405 37.5734 187.614C37.3499 187.823 37.2951 188.167 37.5041 188.391Z" fill="#656565"/>
<path opacity="0.044765" d="M38.0173 188.581L146.993 173.808C147.297 173.775 147.48 173.479 147.447 173.175C147.414 172.871 147.117 172.688 146.813 172.72L37.8372 187.493C37.533 187.526 37.2857 187.799 37.383 188.127C37.4161 188.431 37.7131 188.614 38.0173 188.581Z" fill="#656565"/>
<path opacity="0.026526" d="M-2.38566 205.604L55.5997 209.833C55.8801 209.864 56.1274 209.591 56.1584 209.311C56.1894 209.031 55.9162 208.784 55.6358 208.753L-2.36608 204.372C-2.71062 204.317 -2.95791 204.589 -3.01272 204.934C-3.00338 205.302 -2.7302 205.549 -2.38566 205.604Z" fill="#656565"/>
<path opacity="0.5" d="M-2.14583 205.547L38.1691 188.564C38.433 188.443 38.6399 188.082 38.4546 187.795C38.3336 187.531 38.0366 187.348 37.6848 187.509L-2.60631 204.428C-2.87013 204.549 -3.07704 204.91 -2.89181 205.197C-2.79453 205.525 -2.40966 205.668 -2.14583 205.547Z" fill="#656565"/>
<path opacity="0.1514" d="M-1.94097 204.602L-77.9511 132.142C-78.1601 131.919 -78.5285 131.928 -78.7758 132.201C-78.9992 132.41 -78.9899 132.778 -78.7809 133.001L-2.77069 205.461C-2.56167 205.685 -2.19336 205.675 -1.9461 205.402C-1.72263 205.194 -1.73195 204.826 -1.94097 204.602Z" fill="#656565"/>
<path opacity="0.074444" d="M37.568 188.414L102.009 259.207C102.218 259.431 102.626 259.509 102.874 259.236C103.097 259.028 103.111 258.596 102.902 258.372L38.3739 187.619C38.1649 187.396 37.8204 187.341 37.5731 187.614C37.3497 187.823 37.359 188.191 37.568 188.414Z" fill="#656565"/>
<path opacity="0.034458" d="M97.4755 374.052L103.04 258.789C103.031 258.42 102.758 258.173 102.453 258.206C102.149 258.239 101.862 258.424 101.807 258.769L96.3064 374.056C96.2753 374.336 96.5247 374.647 96.893 374.638C97.1972 374.605 97.4848 374.42 97.4755 374.052Z" fill="#656565"/>
<path opacity="0.087062" d="M-2.64252 205.509L102.177 259.343C102.474 259.526 102.826 259.365 103.009 259.068C103.192 258.772 103.031 258.42 102.734 258.237L-2.10978 204.467C-2.43053 204.348 -2.75849 204.445 -2.87745 204.765C-3.06056 205.062 -2.89912 205.414 -2.64252 205.509Z" fill="#656565"/>
<path opacity="0.056221" d="M102.009 259.207L182.081 345.498C182.354 345.745 182.723 345.736 183.01 345.551C183.257 345.278 183.248 344.91 183.063 344.623L102.967 258.396C102.758 258.173 102.349 258.094 102.102 258.367C101.726 258.592 101.736 258.96 102.009 259.207Z" fill="#656565"/>
<path opacity="0.2067" d="M74.0728 375.359L182.682 345.648C183.01 345.551 183.217 345.19 183.12 344.863C183.022 344.535 182.661 344.328 182.333 344.425L73.724 374.136C73.396 374.233 73.1891 374.594 73.2864 374.922C73.3837 375.25 73.7448 375.457 74.0728 375.359Z" fill="#656565"/>
<path opacity="0.1917" d="M4.45316 137.044L-59.3729 132.034L-26.6137 144.843L4.45316 137.044Z" fill="#656565"/>
<path opacity="0.072195" d="M39.2133 202.66L-5.01954 250.056L55.6379 209.337L39.2133 202.66Z" fill="#656565"/>
<rect width="252" height="316" transform="matrix(-1 0 0 1 252 -1)" fill="url(#paint0_linear)"/>
</g>
<defs>
<linearGradient id="paint0_linear" x1="252" y1="316" x2="-24.1569" y2="145.665" gradientUnits="userSpaceOnUse">
<stop stop-color="#090909" stop-opacity="0.55"/>
<stop offset="1" stop-color="#090909" stop-opacity="0.9"/>
</linearGradient>
<clipPath id="clip0">
<path d="M252 0H8C3.58173 0 0 3.58172 0 8V307C0 311.418 3.58173 315 8 315H252V0Z" fill="white"/>
</clipPath>
</defs>
</svg>
