<svg width="208" height="770" viewBox="0 0 208 770" fill="none" xmlns="http://www.w3.org/2000/svg">
<g clip-path="url(#clip0)">
<path opacity="0.5" d="M117.135 524.107C115.953 524.469 114.702 523.804 114.341 522.622C113.979 521.441 114.645 520.19 115.828 519.829C117.01 519.468 118.261 520.133 118.623 521.314C118.984 522.496 118.318 523.746 117.135 524.107Z" fill="#616161"/>
<path opacity="0.5" d="M162.181 386.973C161.004 387.333 160.335 388.59 160.694 389.766C161.054 390.943 162.311 391.611 163.489 391.251C164.667 390.892 165.336 389.635 164.976 388.458C164.617 387.282 163.359 386.613 162.181 386.973Z" fill="#616161"/>
<path opacity="0.5" d="M129.65 643.542C128.409 643.922 127.095 643.223 126.716 641.983C126.337 640.742 127.036 639.429 128.277 639.05C129.519 638.671 130.833 639.369 131.212 640.61C131.591 641.85 130.892 643.163 129.65 643.542Z" fill="#616161"/>
<path opacity="0.5" d="M118.254 611.239C117.012 611.618 115.699 610.92 115.319 609.679C114.94 608.439 115.639 607.126 116.881 606.747C118.122 606.367 119.436 607.066 119.815 608.306C120.195 609.547 119.496 610.86 118.254 611.239Z" fill="#616161"/>
<path opacity="0.5" d="M23.7266 432.189C22.442 432.581 21.7728 433.838 22.1651 435.121C22.5575 436.405 23.8152 437.073 25.0997 436.681C26.3843 436.288 27.0208 434.925 26.6612 433.748C26.2688 432.465 24.9041 431.829 23.7266 432.189Z" fill="#616161"/>
<path opacity="0.5" d="M23.1528 703.32C21.8682 703.712 21.1989 704.969 21.5913 706.252C21.9836 707.536 23.2413 708.204 24.5259 707.812C25.8105 707.419 26.447 706.056 26.0874 704.879C25.8348 703.67 24.4374 702.927 23.1528 703.32Z" fill="#616161"/>
<path opacity="0.5" d="M49.5824 459.724C48.2978 460.116 47.5543 461.513 47.9466 462.796C48.3389 464.08 49.7364 464.822 51.021 464.43C52.3056 464.038 53.0491 462.641 52.6568 461.358C52.1574 460.107 50.867 459.332 49.5824 459.724Z" fill="#616161"/>
<path opacity="0.5" d="M90.1566 521.238C88.8721 521.631 88.1285 523.027 88.5208 524.311C88.9131 525.594 90.3106 526.337 91.5952 525.944C92.8798 525.552 93.6233 524.155 93.231 522.872C92.8387 521.588 91.4412 520.846 90.1566 521.238Z" fill="#616161"/>
<path opacity="0.5" d="M33.5863 76.9459C32.3017 77.3383 31.5582 78.7349 31.9505 80.0184C32.3428 81.3018 33.7402 82.0444 35.0248 81.652C36.3094 81.2596 37.053 79.8631 36.6607 78.5796C36.2683 77.2961 34.8709 76.5536 33.5863 76.9459Z" fill="#616161"/>
<path opacity="0.5" d="M190.696 591.683C189.411 592.076 188.668 593.472 189.06 594.756C189.452 596.039 190.85 596.782 192.134 596.39C193.419 595.997 194.162 594.601 193.77 593.317C193.378 592.034 191.98 591.291 190.696 591.683Z" fill="#616161"/>
<path opacity="0.5" d="M182.016 579.367C180.731 579.759 179.988 581.155 180.38 582.439C180.773 583.722 182.17 584.465 183.455 584.073C184.739 583.68 185.483 582.284 185.09 581C184.698 579.717 183.301 578.974 182.016 579.367Z" fill="#616161"/>
<path opacity="0.5" d="M20.7977 301.991C19.4379 302.406 17.9988 301.642 17.5835 300.283C17.1682 298.925 17.9339 297.487 19.2937 297.071C20.6535 296.656 22.0925 297.42 22.5078 298.779C22.9231 300.138 22.1575 301.576 20.7977 301.991Z" fill="#616161"/>
<path opacity="0.5" d="M34.4324 491.716C33.1478 492.109 32.2972 493.538 32.7222 494.928C33.1145 496.212 34.5446 497.061 35.9363 496.636C37.2209 496.244 38.0715 494.815 37.6465 493.424C37.2215 492.034 35.717 491.324 34.4324 491.716Z" fill="#616161"/>
<path opacity="0.5" d="M42.0047 325.802C40.7201 326.194 39.8694 327.623 40.2945 329.014C40.6868 330.297 42.117 331.147 43.5086 330.722C44.9002 330.297 45.6438 328.9 45.2188 327.51C44.6867 326.152 43.2893 325.409 42.0047 325.802Z" fill="#616161"/>
<path opacity="0.5" d="M100.001 646.869C98.6091 647.294 97.8656 648.69 98.2906 650.081C98.7156 651.471 100.113 652.214 101.505 651.789C102.896 651.363 103.64 649.967 103.215 648.576C102.79 647.186 101.392 646.443 100.001 646.869Z" fill="#616161"/>
<path opacity="0.5" d="M122.335 548.013C120.943 548.438 120.125 549.974 120.55 551.364C120.975 552.755 122.48 553.465 123.871 553.04C125.263 552.614 126.007 551.218 125.582 549.827C125.124 548.33 123.726 547.587 122.335 548.013Z" fill="#616161"/>
<path opacity="0.5" d="M115.546 322.866C114.048 323.324 113.23 324.86 113.688 326.358C114.145 327.855 115.682 328.672 117.181 328.214C118.68 327.756 119.498 326.22 119.04 324.723C118.582 323.225 117.045 322.409 115.546 322.866Z" fill="#616161"/>
<path opacity="0.5" d="M71.5324 529.617C70.0337 530.075 69.2158 531.611 69.6735 533.108C70.1312 534.606 71.6684 535.423 73.1671 534.965C74.6658 534.507 75.4837 532.971 75.026 531.473C74.6753 529.943 73.0311 529.159 71.5324 529.617Z" fill="#616161"/>
<path opacity="0.5" d="M59.8238 643.704C58.3251 644.162 57.5072 645.698 57.9649 647.196C58.4226 648.693 59.9598 649.51 61.4585 649.052C62.9572 648.594 63.7751 647.058 63.3174 645.561C62.8596 644.063 61.3225 643.247 59.8238 643.704Z" fill="#616161"/>
<path opacity="0.5" d="M123.451 325.364C121.952 325.821 121.134 327.358 121.592 328.855C122.05 330.352 123.587 331.169 125.085 330.711C126.584 330.254 127.402 328.717 126.944 327.22C126.487 325.723 124.949 324.906 123.451 325.364Z" fill="#616161"/>
<path opacity="0.5" d="M43.8179 328.288C42.3192 328.746 41.5013 330.282 41.959 331.78C42.4167 333.277 43.9539 334.094 45.4526 333.636C46.9513 333.178 47.7692 331.642 47.3115 330.145C46.8865 328.754 45.3166 327.83 43.8179 328.288Z" fill="#616161"/>
<path opacity="0.5" d="M15.5855 610.791C14.0868 611.249 13.2689 612.785 13.7266 614.283C14.1843 615.78 15.7215 616.597 17.2202 616.139C18.7189 615.681 19.5368 614.145 19.0791 612.648C18.6214 611.15 17.0842 610.334 15.5855 610.791Z" fill="#616161"/>
<path opacity="0.5" d="M56.2804 681.506C54.7817 681.964 53.8567 683.533 54.3471 685.137C54.8049 686.635 56.342 687.452 57.9478 686.961C59.5535 686.471 60.2644 684.967 59.8067 683.47C59.456 681.94 57.7791 681.049 56.2804 681.506Z" fill="#616161"/>
<path opacity="0.5" d="M159.371 412.624C157.872 413.081 157.054 414.618 157.544 416.222C158.002 417.719 159.539 418.536 161.038 418.078C162.537 417.621 163.355 416.084 162.897 414.587C162.407 412.983 160.869 412.166 159.371 412.624Z" fill="#616161"/>
<path opacity="0.5" d="M27.7987 330.258C26.3 330.715 25.3751 332.284 25.8655 333.889C26.3232 335.386 27.8931 336.31 29.4988 335.819C30.9975 335.362 31.8898 333.686 31.4321 332.188C30.8346 330.617 29.2974 329.8 27.7987 330.258Z" fill="#616161"/>
<path opacity="0.5" d="M46.1679 510.585C44.6692 511.043 43.7442 512.612 44.2346 514.216C44.6924 515.714 46.2622 516.637 47.868 516.147C49.3667 515.689 50.2916 514.12 49.8012 512.516C49.3435 511.018 47.7736 510.095 46.1679 510.585Z" fill="#616161"/>
<path opacity="0.5" d="M97.0058 737.01C95.5071 737.468 94.6148 739.144 95.0725 740.641C95.5303 742.139 97.2072 743.03 98.7059 742.572C100.205 742.114 101.097 740.438 100.639 738.941C100.181 737.444 98.6115 736.52 97.0058 737.01Z" fill="#616161"/>
<path opacity="0.5" d="M9.20695 51.181C7.70825 51.6388 6.81597 53.3146 7.27369 54.812C7.73141 56.3094 9.40834 57.2005 10.907 56.7427C12.4057 56.2849 13.298 54.609 12.8403 53.1117C12.3826 51.6143 10.7056 50.7232 9.20695 51.181Z" fill="#616161"/>
<path opacity="0.5" d="M-3.89268 148.853C-5.49842 149.344 -6.28365 150.987 -5.82593 152.484C-5.33552 154.089 -3.69128 154.873 -2.19259 154.415C-0.693889 153.957 0.198389 152.281 -0.259328 150.784C-0.717044 149.287 -2.39398 148.396 -3.89268 148.853Z" fill="#616161"/>
<path opacity="0.5" d="M19.0194 518.643C17.5207 519.101 16.6285 520.777 17.0862 522.274C17.5439 523.771 19.2208 524.663 20.7195 524.205C22.3252 523.714 23.1105 522.071 22.6528 520.574C22.1951 519.076 20.5181 518.185 19.0194 518.643Z" fill="#616161"/>
<path opacity="0.5" d="M62.1663 428.516C60.5605 429.007 59.7753 430.65 60.2657 432.254C60.7561 433.859 62.4004 434.643 63.8991 434.185C65.3978 433.727 66.3971 432.019 65.9394 430.521C65.449 428.917 63.772 428.026 62.1663 428.516Z" fill="#616161"/>
<path opacity="0.5" d="M81.3519 730.215C79.7461 730.705 78.9609 732.349 79.4513 733.953C79.9417 735.557 81.6187 736.448 83.1174 735.99C84.7231 735.5 85.6153 733.824 85.1249 732.22C84.6345 730.616 82.9576 729.724 81.3519 730.215Z" fill="#616161"/>
<path opacity="0.5" d="M19.3694 414.107C17.7637 414.598 16.8714 416.274 17.3291 417.771C17.8196 419.375 19.4965 420.266 21.1022 419.776C22.708 419.285 23.6002 417.61 23.1098 416.005C22.6521 414.508 20.9752 413.617 19.3694 414.107Z" fill="#616161"/>
<path opacity="0.5" d="M12.2718 439.898C10.666 440.388 9.77377 442.064 10.2642 443.668C10.7546 445.273 12.4315 446.164 14.0372 445.673C15.643 445.183 16.5353 443.507 16.0448 441.902C15.4474 440.331 13.7705 439.44 12.2718 439.898Z" fill="#616161"/>
<path opacity="0.5" d="M107.506 335.614C105.9 336.104 105.008 337.78 105.499 339.385C105.989 340.989 107.666 341.88 109.272 341.389C110.877 340.899 111.77 339.223 111.279 337.619C110.789 336.014 109.112 335.123 107.506 335.614Z" fill="#616161"/>
<path opacity="0.5" d="M146.926 374.209C145.32 374.699 144.428 376.375 144.918 377.979C145.409 379.584 147.086 380.475 148.692 379.984C150.297 379.494 151.19 377.818 150.699 376.214C150.209 374.609 148.532 373.718 146.926 374.209Z" fill="#616161"/>
<path opacity="0.5" d="M38.7874 116.17C37.1817 116.66 36.2894 118.336 36.7798 119.94C37.2702 121.545 38.9472 122.436 40.5529 121.945C42.1586 121.455 43.0509 119.779 42.5605 118.175C42.0701 116.57 40.3931 115.679 38.7874 116.17Z" fill="#616161"/>
<path opacity="0.5" d="M60.2971 503.579C58.6914 504.07 57.7992 505.746 58.2896 507.35C58.78 508.954 60.4569 509.846 62.0626 509.355C63.6684 508.865 64.5607 507.189 64.0702 505.584C63.5471 503.873 61.9029 503.089 60.2971 503.579Z" fill="#616161"/>
<path opacity="0.5" d="M108.297 752.506C106.691 752.997 105.799 754.673 106.29 756.277C106.78 757.881 108.457 758.772 110.063 758.282C111.668 757.792 112.561 756.116 112.07 754.511C111.58 752.907 109.903 752.016 108.297 752.506Z" fill="#616161"/>
<path opacity="0.5" d="M170.635 511.508C169.03 511.998 168.03 513.707 168.553 515.418C169.044 517.022 170.754 518.02 172.466 517.497C174.072 517.007 175.071 515.298 174.548 513.587C174.058 511.982 172.241 511.017 170.635 511.508Z" fill="#616161"/>
<path opacity="0.5" d="M9.00458 451.42C7.39884 451.911 6.50657 453.587 7.02967 455.298C7.52008 456.902 9.22971 457.9 10.8354 457.41C12.4412 456.919 13.4405 455.211 12.9174 453.499C12.2872 451.821 10.6103 450.93 9.00458 451.42Z" fill="#616161"/>
<path opacity="0.5" d="M71.8765 400.173C70.221 400.679 68.4692 399.748 67.9636 398.094C67.458 396.44 68.3902 394.69 70.0456 394.184C71.701 393.678 73.4528 394.609 73.9584 396.263C74.464 397.917 73.5319 399.668 71.8765 400.173Z" fill="#616161"/>
<path opacity="0.5" d="M156.385 569.42C154.78 569.91 153.78 571.619 154.303 573.33C154.794 574.935 156.503 575.933 158.216 575.409C159.822 574.919 160.821 573.21 160.298 571.499C159.775 569.788 157.991 568.929 156.385 569.42Z" fill="#616161"/>
<path opacity="0.5" d="M194.019 193.999C192.364 194.505 190.612 193.574 190.106 191.92C189.601 190.266 190.533 188.515 192.188 188.01C193.844 187.504 195.595 188.435 196.101 190.089C196.607 191.743 195.674 193.494 194.019 193.999Z" fill="#616161"/>
<path opacity="0.5" d="M9.56549 242.273C7.8527 242.796 6.88605 244.611 7.40916 246.323C7.93226 248.034 9.74895 248.999 11.4617 248.476C13.1745 247.953 14.1412 246.137 13.618 244.426C12.9879 242.748 11.2783 241.75 9.56549 242.273Z" fill="#616161"/>
<path opacity="0.5" d="M63.3546 713.843C61.6418 714.366 60.6751 716.182 61.1982 717.893C61.7213 719.605 63.538 720.57 65.2508 720.047C66.9636 719.524 67.9302 717.708 67.4071 715.997C66.884 714.285 65.0673 713.32 63.3546 713.843Z" fill="#616161"/>
<path opacity="0.5" d="M49.7921 71.762C48.0793 72.2852 47.1126 74.1007 47.6357 75.812C48.1588 77.5233 49.9755 78.4886 51.6883 77.9654C53.4011 77.4422 54.3677 75.6267 53.8446 73.9154C53.3215 72.2041 51.5048 71.2388 49.7921 71.762Z" fill="#616161"/>
<path opacity="0.5" d="M126.712 256.775C124.88 257.335 122.94 256.304 122.38 254.473C121.821 252.642 122.853 250.704 124.685 250.144C126.518 249.584 128.458 250.615 129.017 252.446C129.577 254.277 128.545 256.215 126.712 256.775Z" fill="#616161"/>
<path opacity="0.5" d="M50.3455 433.881C48.5257 434.437 47.4847 436.392 48.0405 438.211C48.5963 440.029 50.5527 441.068 52.3725 440.513C54.1924 439.957 55.2334 438.002 54.6776 436.183C54.1218 434.365 52.1654 433.325 50.3455 433.881Z" fill="#616161"/>
<path opacity="0.5" d="M124.358 616.274C122.431 616.862 121.316 618.957 121.904 620.882C122.493 622.808 124.589 623.922 126.516 623.333C128.443 622.744 129.558 620.65 128.97 618.724C128.274 616.832 126.178 615.718 124.358 616.274Z" fill="#616161"/>
<path opacity="0.5" d="M118.102 608.829L129.498 641.132C129.597 641.453 129.481 641.839 129.052 641.97C128.731 642.068 128.345 641.953 128.247 641.632L116.851 609.328C116.752 609.007 116.868 608.621 117.19 608.523C117.585 608.285 117.972 608.401 118.102 608.829Z" fill="#656565"/>
<path opacity="0.3429" d="M24.1173 434.993L-47.7326 403.263C-48.0121 403.115 -48.25 402.72 -48.1013 402.441C-47.9525 402.161 -47.557 401.923 -47.2776 402.072L24.5724 433.802C24.8519 433.95 25.0897 434.345 24.941 434.625C24.825 435.011 24.3968 435.142 24.1173 434.993Z" fill="#656565"/>
<path opacity="0.1933" d="M24.8991 434.871L-41.5544 518.436C-41.8102 518.748 -42.164 518.739 -42.4435 518.591C-42.7557 518.335 -42.7467 517.982 -42.598 517.702L23.8555 434.138C24.1113 433.826 24.4651 433.835 24.7446 433.983C25.0241 434.132 25.0478 434.592 24.8991 434.871Z" fill="#656565"/>
<path opacity="0.085119" d="M91.4129 523.428L118.103 608.829C118.201 609.15 117.978 609.569 117.657 609.667C117.336 609.765 116.95 609.65 116.819 609.222L90.1283 523.82C90.0302 523.5 90.1462 523.113 90.5744 522.982C91.0026 522.852 91.3148 523.107 91.4129 523.428Z" fill="#656565"/>
<path opacity="0.1194" d="M50.5742 462.58L-41.7687 518.502C-42.0572 518.707 -42.4437 518.591 -42.6489 518.303C-42.854 518.015 -42.738 517.628 -42.4495 517.423L49.8934 461.501C50.1819 461.296 50.5684 461.412 50.7735 461.7C51.0114 462.095 50.8954 462.482 50.5742 462.58Z" fill="#656565"/>
<path opacity="0.099722" d="M-91.627 705.753L23.8899 704.966C24.2437 704.974 24.5559 705.23 24.5469 705.584C24.5379 705.937 24.2822 706.249 23.9283 706.24L-91.5885 707.027C-91.9423 707.019 -92.2545 706.763 -92.2455 706.41C-92.1295 706.023 -91.8411 705.818 -91.627 705.753Z" fill="#656565"/>
<path opacity="0.5" d="M24.8835 434.058L50.7729 461.7C50.978 461.988 50.969 462.342 50.6806 462.547C50.3921 462.752 50.0383 462.743 49.8331 462.455L23.9438 434.812C23.7386 434.524 23.7476 434.171 24.0361 433.966C24.2175 433.793 24.5713 433.802 24.8835 434.058Z" fill="#656565"/>
<path opacity="0.1234" d="M24.8843 434.057L91.3476 523.214C91.5527 523.502 91.4367 523.888 91.2553 524.061C90.9668 524.266 90.613 524.257 90.4079 523.969L23.9446 434.812C23.7395 434.524 23.8555 434.138 24.1439 433.933C24.3253 433.76 24.6792 433.769 24.8843 434.057Z" fill="#656565"/>
<path opacity="0.4586" d="M50.7737 461.7L91.3476 523.214C91.5528 523.502 91.4367 523.888 91.1483 524.093C90.8598 524.299 90.4733 524.183 90.2682 523.895L49.6942 462.38C49.4891 462.092 49.6051 461.706 49.8936 461.501C50.2147 461.403 50.5686 461.412 50.7737 461.7Z" fill="#656565"/>
<path opacity="0.01" d="M24.9815 434.378L35.8595 494.088C35.9576 494.409 35.7018 494.721 35.3807 494.819C35.0595 494.917 34.7473 494.661 34.6493 494.341L23.8784 434.598C23.7803 434.278 24.036 433.966 24.3572 433.868C24.5713 433.802 24.9905 434.025 24.9815 434.378Z" fill="#656565"/>
<path opacity="0.068931" d="M91.1751 523.033L191.747 593.585C192.026 593.733 192.05 594.194 191.901 594.473C191.752 594.752 191.292 594.776 191.012 594.628L90.4405 524.076C90.161 523.927 90.1372 523.467 90.286 523.187C90.5744 522.982 90.8956 522.884 91.1751 523.033Z" fill="#656565"/>
<path opacity="0.1485" d="M91.1743 523.032L183.032 581.161C183.312 581.309 183.442 581.737 183.187 582.049C183.038 582.328 182.61 582.459 182.298 582.204L90.4397 524.075C90.1602 523.927 90.0294 523.499 90.2852 523.187C90.541 522.875 90.8948 522.884 91.1743 523.032Z" fill="#656565"/>
<path opacity="0.3407" d="M50.8629 462.374L35.8514 494.441C35.7027 494.72 35.2745 494.851 34.995 494.702C34.7156 494.554 34.4777 494.159 34.7335 493.847L49.852 461.747C50.0007 461.468 50.3962 461.23 50.7084 461.486C50.8808 461.667 50.9789 461.988 50.8629 462.374Z" fill="#656565"/>
<path opacity="0.2514" d="M90.5798 524.15L34.8875 494.735C34.608 494.587 34.4772 494.159 34.6259 493.879C34.7746 493.6 35.2028 493.469 35.4823 493.618L91.1747 523.033C91.4541 523.181 91.5849 523.609 91.4362 523.888C91.2875 524.168 90.8593 524.298 90.5798 524.15Z" fill="#656565"/>
<path opacity="0.5" d="M183.205 581.342L191.918 593.766C192.123 594.054 192.007 594.441 191.719 594.646C191.43 594.851 191.044 594.735 190.839 594.447L182.125 582.023C181.92 581.735 182.036 581.348 182.324 581.143C182.646 581.045 182.999 581.054 183.205 581.342Z" fill="#656565"/>
<path opacity="0.5" d="M20.5169 299.154L43.2274 327.884C43.4326 328.172 43.4236 328.526 43.1351 328.731C42.8467 328.936 42.4929 328.927 42.2877 328.639L19.5771 299.908C19.372 299.62 19.381 299.267 19.6694 299.062C19.9579 298.857 20.3117 298.865 20.5169 299.154Z" fill="#656565"/>
<path opacity="0.5" d="M20.1348 300.205L-44.3195 309.134C-44.6733 309.125 -44.9855 308.87 -45.0836 308.549C-45.0746 308.196 -44.926 307.916 -44.6048 307.818L19.8496 298.889C20.2034 298.898 20.5156 299.153 20.6137 299.474C20.7118 299.795 20.456 300.107 20.1348 300.205Z" fill="#656565"/>
<path opacity="0.3653" d="M-44.2503 307.827L42.9146 327.629C43.2685 327.637 43.5063 328.033 43.3903 328.419C43.2743 328.805 42.9858 329.01 42.5993 328.894L-44.5657 309.093C-44.9522 308.977 -45.1573 308.689 -45.0413 308.303C-45.0324 307.949 -44.6368 307.712 -44.2503 307.827Z" fill="#656565"/>
<path opacity="0.05066" d="M20.6051 299.828L-40.3934 415.406C-40.5421 415.685 -40.9703 415.816 -41.2498 415.667C-41.5293 415.519 -41.66 415.091 -41.5113 414.812L19.4871 299.234C19.6358 298.955 20.0641 298.824 20.3435 298.972C20.623 299.121 20.7538 299.549 20.6051 299.828Z" fill="#656565"/>
<path opacity="0.2107" d="M-40.4825 414.731L35.6548 493.8C35.86 494.088 35.851 494.441 35.5953 494.753C35.3068 494.958 34.953 494.95 34.6735 494.801L-41.4639 415.733C-41.669 415.445 -41.66 415.091 -41.4043 414.779C-41.1485 414.467 -40.6876 414.443 -40.4825 414.731Z" fill="#656565"/>
<path opacity="0.1282" d="M-41.4366 414.672L42.2397 327.718C42.5282 327.513 42.8494 327.415 43.1615 327.67C43.3667 327.959 43.4647 328.28 43.209 328.592L-40.4674 415.546C-40.7231 415.858 -41.077 415.849 -41.3892 415.593C-41.7014 415.338 -41.6924 414.984 -41.4366 414.672Z" fill="#656565"/>
<path opacity="0.01" d="M191.72 594.645L101.024 649.83C100.736 650.035 100.349 649.92 100.144 649.631C99.9389 649.343 100.055 648.957 100.343 648.752L191.039 593.567C191.327 593.362 191.714 593.478 191.919 593.766C192.124 594.054 192.115 594.408 191.72 594.645Z" fill="#656565"/>
<path opacity="0.030221" d="M183.114 582.189L101.239 649.765C100.95 649.97 100.596 649.961 100.284 649.706C100.079 649.418 100.055 648.957 100.344 648.752L182.326 581.143C182.614 580.938 182.968 580.947 183.28 581.203C183.411 581.63 183.402 581.984 183.114 582.189Z" fill="#656565"/>
<path opacity="0.064248" d="M123.385 549.914L191.746 593.585C192.025 593.734 192.156 594.162 191.9 594.474C191.752 594.753 191.323 594.884 191.011 594.628L122.683 551.064C122.404 550.915 122.273 550.488 122.529 550.176C122.678 549.896 123.106 549.766 123.385 549.914Z" fill="#656565"/>
<path opacity="0.1551" d="M182.438 582.278L122.824 551.138C122.544 550.989 122.414 550.562 122.53 550.175C122.678 549.896 123.107 549.765 123.493 549.881L183.14 581.128C183.419 581.277 183.55 581.705 183.401 581.984C183.039 582.329 182.718 582.427 182.438 582.278Z" fill="#656565"/>
<path opacity="0.1494" d="M35.4819 493.618L123.385 549.914C123.698 550.169 123.796 550.49 123.573 550.909C123.317 551.221 122.996 551.319 122.683 551.064L34.7472 494.661C34.4678 494.513 34.337 494.085 34.5928 493.773C34.8485 493.461 35.2024 493.47 35.4819 493.618Z" fill="#656565"/>
<path opacity="0.3052" d="M123.721 550.63L101.386 649.486C101.27 649.872 100.982 650.077 100.595 649.961C100.209 649.845 100.004 649.557 100.12 649.171L122.455 550.315C122.571 549.929 122.859 549.724 123.246 549.839C123.632 549.955 123.837 550.243 123.721 550.63Z" fill="#656565"/>
<path opacity="0.1423" d="M-5.85933 86.891L-96.5836 179.506C-96.8394 179.818 -97.3002 179.842 -97.5054 179.554C-97.8175 179.298 -97.8413 178.838 -97.5528 178.633L-6.82858 86.0176C-6.54012 85.8126 -6.07922 85.7887 -5.87409 86.0769C-5.6273 86.1184 -5.60357 86.579 -5.85933 86.891Z" fill="#656565"/>
<path opacity="0.1055" d="M-7.76124 386.61L116.03 324.825C116.458 324.694 116.845 324.81 116.943 325.13C117.041 325.451 116.925 325.838 116.636 326.043L-7.15483 387.829C-7.55034 388.066 -7.96954 387.844 -8.06763 387.523C-8.27276 387.235 -8.08239 386.709 -7.76124 386.61Z" fill="#656565"/>
<path opacity="0.5" d="M116.598 324.768L124.502 327.266C124.888 327.381 125.126 327.777 125.01 328.163C124.894 328.549 124.498 328.787 124.112 328.671L116.209 326.174C115.822 326.058 115.691 325.63 115.807 325.244C115.816 324.89 116.212 324.652 116.598 324.768Z" fill="#656565"/>
<path opacity="0.422" d="M44.5463 330.288L116.244 324.759C116.597 324.768 117.017 324.991 117.04 325.452C117.031 325.805 116.808 326.224 116.347 326.248L44.6501 331.776C44.1893 331.8 43.8771 331.545 43.8533 331.084C43.8623 330.731 44.2251 330.386 44.5463 330.288Z" fill="#656565"/>
<path opacity="0.4719" d="M-7.94285 386.783L44.1838 330.632C44.4396 330.32 44.9004 330.296 45.2126 330.552C45.5248 330.807 45.5485 331.268 45.2928 331.58L-6.83385 387.73C-7.08961 388.042 -7.55053 388.066 -7.86271 387.811C-8.20759 387.448 -8.2313 386.988 -7.94285 386.783Z" fill="#656565"/>
<path opacity="0.2474" d="M116.943 325.13L160.798 414.994C161.036 415.389 160.813 415.808 160.492 415.906C160.097 416.144 159.677 415.921 159.472 415.633L115.723 325.736C115.518 325.448 115.709 324.922 116.03 324.824C116.458 324.693 116.845 324.809 116.943 325.13Z" fill="#656565"/>
<path opacity="0.2085" d="M28.5275 332.257L116.243 324.759C116.597 324.768 117.016 324.991 117.007 325.344C116.998 325.698 116.775 326.117 116.421 326.108L28.5987 333.639C28.1378 333.662 27.8256 333.407 27.8019 332.946C27.8436 332.7 28.0666 332.281 28.5275 332.257Z" fill="#656565"/>
<path opacity="0.4136" d="M-8.04925 386.815L27.9192 332.56C28.175 332.248 28.6032 332.117 28.9154 332.373C29.2276 332.628 29.3583 333.056 29.1026 333.368L-7.00565 387.549C-7.26141 387.861 -7.6896 387.992 -8.00178 387.736C-8.17422 387.555 -8.30501 387.127 -8.04925 386.815Z" fill="#656565"/>
<path opacity="0.2749" d="M59.9335 646.361L71.6107 532.166C71.6196 531.812 71.9824 531.468 72.369 531.584C72.7228 531.592 73.0677 531.955 72.9517 532.341L61.2418 646.429C61.2329 646.782 60.8701 647.127 60.3765 647.044C60.1624 647.109 59.9246 646.714 59.9335 646.361Z" fill="#656565"/>
<path opacity="0.3739" d="M72.9424 532.695L16.9945 613.869C16.7387 614.181 16.3105 614.311 15.9984 614.056C15.6862 613.8 15.5554 613.373 15.8112 613.061L71.7591 531.887C72.0149 531.575 72.443 531.444 72.7552 531.699C73.0674 531.955 73.1982 532.383 72.9424 532.695Z" fill="#656565"/>
<path opacity="0.5" d="M60.2369 646.97L15.9989 614.056C15.6867 613.801 15.663 613.34 15.8117 613.061C16.0675 612.749 16.5284 612.725 16.8079 612.874L61.0459 645.787C61.358 646.043 61.3818 646.503 61.126 646.815C60.9773 647.095 60.5491 647.225 60.2369 646.97Z" fill="#656565"/>
<path opacity="0.4979" d="M44.653 330.255L124.253 327.224C124.607 327.233 125.027 327.456 125.05 327.916C125.041 328.27 124.818 328.689 124.357 328.713L44.7569 331.743C44.403 331.734 44.0581 331.372 44.0671 331.019C43.969 330.698 44.2248 330.386 44.653 330.255Z" fill="#656565"/>
<path opacity="0.086577" d="M71.8659 531.854L159.596 414.894C159.852 414.582 160.313 414.558 160.592 414.706C160.904 414.962 160.928 415.422 160.779 415.702L73.0166 532.555C72.7608 532.867 72.2999 532.891 72.0204 532.742C71.6339 532.626 71.6101 532.166 71.8659 531.854Z" fill="#656565"/>
<path opacity="0.5" d="M61.3826 646.503L57.8392 684.305C57.8302 684.659 57.4674 685.003 56.9738 684.92C56.62 684.911 56.2751 684.549 56.2841 684.195L59.8275 646.393C59.8365 646.039 60.1993 645.695 60.5531 645.704C61.1538 645.754 61.3589 646.042 61.3826 646.503Z" fill="#656565"/>
<path opacity="0.3959" d="M124.878 327.735L160.831 415.102C160.961 415.53 160.845 415.916 160.417 416.047C159.989 416.177 159.602 416.062 159.472 415.634L123.519 328.267C123.388 327.839 123.504 327.453 123.932 327.322C124.361 327.191 124.78 327.414 124.878 327.735Z" fill="#656565"/>
<path opacity="0.1025" d="M45.0739 330.478L160.627 414.813C160.939 415.069 161.07 415.497 160.814 415.809C160.558 416.121 160.13 416.252 159.818 415.996L44.265 331.66C43.9528 331.405 43.9291 330.944 44.1849 330.632C44.3336 330.353 44.7618 330.222 45.0739 330.478Z" fill="#656565"/>
<path opacity="0.4887" d="M56.5222 684.591L15.8276 613.875C15.5898 613.48 15.7058 613.094 16.1013 612.856C16.3898 612.651 16.8834 612.734 17.1212 613.129L57.8158 683.845C58.0536 684.24 57.9376 684.626 57.5421 684.864C57.1466 685.102 56.76 684.986 56.5222 684.591Z" fill="#656565"/>
<path opacity="0.3443" d="M28.5282 332.257L124.147 327.257C124.608 327.233 124.92 327.488 124.944 327.949C124.935 328.302 124.712 328.721 124.251 328.745L28.6321 333.745C28.1712 333.769 27.8263 333.407 27.8353 333.053C27.8116 332.593 28.1744 332.248 28.5282 332.257Z" fill="#656565"/>
<path opacity="0.5" d="M28.528 332.257L44.5464 330.288C45.0073 330.264 45.3195 330.519 45.3432 330.98C45.3342 331.334 45.1111 331.753 44.7573 331.744L28.7389 333.713C28.278 333.737 27.9659 333.481 27.9421 333.021C27.844 332.7 28.0671 332.281 28.528 332.257Z" fill="#656565"/>
<path opacity="0.5" d="M71.9466 532.882L46.615 513.957C46.3028 513.701 46.2791 513.241 46.4278 512.961C46.6836 512.649 47.1445 512.626 47.4239 512.774L72.7555 531.699C73.0677 531.955 73.0914 532.415 72.9427 532.695C72.6869 533.007 72.2587 533.137 71.9466 532.882Z" fill="#656565"/>
<path opacity="0.1171" d="M59.9668 646.467L46.3451 513.454C46.3213 512.994 46.5771 512.682 47.038 512.658C47.3919 512.667 47.8111 512.89 47.8348 513.35L61.3495 646.396C61.3732 646.856 61.1174 647.168 60.6566 647.192C60.3027 647.183 59.9905 646.928 59.9668 646.467Z" fill="#656565"/>
<path opacity="0.3105" d="M15.7703 613.307L46.3866 513.208C46.5027 512.822 46.8982 512.584 47.2847 512.7C47.6712 512.816 47.9091 513.211 47.793 513.597L17.1767 613.696C17.0607 614.082 16.6652 614.32 16.2786 614.204C15.8921 614.089 15.6543 613.693 15.7703 613.307Z" fill="#656565"/>
<path opacity="0.3182" d="M97.2467 740.094L60.0311 646.681C59.9004 646.253 60.0164 645.867 60.4446 645.736C60.8728 645.605 61.2593 645.721 61.3901 646.149L98.7127 739.529C98.8435 739.957 98.7275 740.343 98.2993 740.474C97.764 740.638 97.3448 740.415 97.2467 740.094Z" fill="#656565"/>
<path opacity="0.3423" d="M44.3705 331.628L-36.8 290.466C-37.2192 290.243 -37.35 289.815 -37.0942 289.503C-36.8712 289.084 -36.443 288.954 -36.1308 289.209L45.0397 330.371C45.459 330.594 45.5897 331.021 45.334 331.333C45.1109 331.752 44.6827 331.883 44.3705 331.628Z" fill="#656565"/>
<path opacity="0.082204" d="M-6.91391 386.702L20.7652 416.371C21.0774 416.626 20.9941 417.119 20.7383 417.431C20.4826 417.743 19.989 417.66 19.6768 417.405L-8.00233 387.736C-8.20746 387.448 -8.23119 386.988 -7.94274 386.783C-7.68698 386.471 -7.2261 386.447 -6.91391 386.702Z" fill="#656565"/>
<path opacity="0.047551" d="M97.2808 740.201L15.8272 613.875C15.6221 613.587 15.7054 613.093 16.1009 612.856C16.3894 612.651 16.8829 612.734 17.0881 613.022L98.5417 739.348C98.7795 739.743 98.6635 740.13 98.268 740.367C98.0122 740.679 97.5187 740.596 97.2808 740.201Z" fill="#656565"/>
<path opacity="0.040026" d="M160.632 415.981L47.5703 514.016C47.2818 514.221 46.8209 514.245 46.476 513.882C46.2709 513.594 46.2472 513.133 46.5029 512.821L159.597 414.893C159.886 414.688 160.347 414.665 160.659 414.92C160.971 415.176 160.888 415.669 160.632 415.981Z" fill="#656565"/>
<path opacity="0.033864" d="M116.925 325.838L108.981 338.906C108.725 339.218 108.297 339.349 107.877 339.126C107.565 338.87 107.435 338.443 107.658 338.024L115.634 325.062C115.89 324.75 116.318 324.62 116.63 324.875C117.05 325.098 117.18 325.526 116.925 325.838Z" fill="#656565"/>
<path opacity="0.3156" d="M-43.4202 319.735L44.7926 330.329C45.1465 330.338 45.4913 330.7 45.408 331.193C45.3991 331.547 45.0362 331.892 44.5427 331.809L-43.6375 321.322C-43.9913 321.313 -44.3689 320.844 -44.2529 320.457C-44.2766 319.997 -43.8811 319.759 -43.4202 319.735Z" fill="#656565"/>
<path opacity="0.090083" d="M72.9757 532.801L-9.03002 623.689C-9.28578 624.001 -9.74671 624.025 -10.0589 623.77C-10.3711 623.514 -10.3948 623.053 -10.139 622.741L71.9738 531.821C72.2296 531.509 72.6904 531.485 73.0026 531.741C73.2078 532.029 73.2315 532.489 72.9757 532.801Z" fill="#656565"/>
<path opacity="0.092602" d="M61.2848 646.182L110.607 774.605C110.737 775.033 110.514 775.452 110.193 775.55C109.765 775.681 109.346 775.458 109.248 775.137L59.9259 646.714C59.7951 646.286 60.0182 645.867 60.3393 645.769C60.7675 645.638 61.1867 645.861 61.2848 646.182Z" fill="#656565"/>
<path opacity="0.3278" d="M60.409 647.151L-9.8869 623.951C-10.2734 623.835 -10.5113 623.44 -10.2882 623.021C-10.1722 622.635 -9.77667 622.397 -9.39013 622.513L60.9385 645.82C61.325 645.936 61.5628 646.331 61.3398 646.75C61.1911 647.029 60.7956 647.267 60.409 647.151Z" fill="#656565"/>
<path opacity="0.5" d="M97.281 740.201L56.5547 684.697C56.3495 684.409 56.4329 683.916 56.7213 683.711C57.0098 683.506 57.5034 683.589 57.7085 683.877L98.4348 739.381C98.6399 739.669 98.5566 740.162 98.2682 740.367C98.0124 740.679 97.5188 740.596 97.281 740.201Z" fill="#656565"/>
<path opacity="0.5" d="M16.6316 614.214L-9.42628 623.927C-9.85448 624.058 -10.2737 623.835 -10.3718 623.514C-10.5025 623.087 -10.2795 622.668 -9.95833 622.57L16.1322 612.963C16.5604 612.832 16.947 612.948 17.0778 613.376C17.2502 613.557 17.0598 614.083 16.6316 614.214Z" fill="#656565"/>
<path opacity="0.434" d="M-41.5985 105.525L9.54033 53.4186C9.79609 53.1066 10.257 53.0827 10.6018 53.4451C10.914 53.7006 10.9378 54.1611 10.575 54.5058L-40.5966 106.506C-40.8524 106.818 -41.3133 106.841 -41.6582 106.479C-41.8306 106.298 -41.8543 105.837 -41.5985 105.525Z" fill="#656565"/>
<path opacity="0.3405" d="M19.9967 520.684L72.5842 531.518C72.9707 531.634 73.2085 532.029 73.1996 532.382C73.0835 532.769 72.688 533.006 72.3342 532.997L19.7794 522.271C19.3929 522.155 19.155 521.76 19.164 521.406C19.2473 520.913 19.6428 520.675 19.9967 520.684Z" fill="#656565"/>
<path opacity="0.3201" d="M57.7079 683.877L110.541 774.391C110.778 774.786 110.662 775.172 110.267 775.41C109.871 775.648 109.485 775.532 109.247 775.137L56.3817 684.516C56.1438 684.121 56.2599 683.735 56.6554 683.497C57.1163 683.473 57.6098 683.556 57.7079 683.877Z" fill="#656565"/>
<path opacity="0.1602" d="M71.676 532.38L62.3407 431.386C62.317 430.926 62.5728 430.614 63.0337 430.59C63.4946 430.566 63.8068 430.822 63.8305 431.282L73.133 532.169C73.1567 532.629 72.901 532.941 72.4401 532.965C72.0862 532.956 71.667 532.734 71.676 532.38Z" fill="#656565"/>
<path opacity="0.2449" d="M20.6107 521.549L17.1433 613.589C17.1344 613.943 16.7715 614.288 16.4177 614.279C16.0638 614.27 15.719 613.907 15.728 613.554L19.0883 521.546C19.0646 521.086 19.4601 520.848 19.921 520.824C20.2421 520.726 20.587 521.088 20.6107 521.549Z" fill="#656565"/>
<path opacity="0.155" d="M61.0516 646.955L-19.4843 707.807C-19.8798 708.045 -20.2336 708.036 -20.5785 707.674C-20.8163 707.278 -20.7003 706.892 -20.4446 706.58L60.0913 645.728C60.3798 645.523 60.8734 645.606 61.0785 645.894C61.4561 646.363 61.34 646.75 61.0516 646.955Z" fill="#656565"/>
<path opacity="0.5" d="M28.1387 333.662L-36.9064 290.499C-37.2186 290.243 -37.3494 289.815 -37.0936 289.503C-36.8378 289.191 -36.4097 289.061 -36.0975 289.316L28.9476 332.48C29.2598 332.735 29.3906 333.163 29.1348 333.475C28.9861 333.754 28.5252 333.778 28.1387 333.662Z" fill="#656565"/>
<path opacity="0.3185" d="M56.6943 684.772L-10.0909 623.663C-10.4031 623.407 -10.4268 622.947 -10.171 622.635C-9.91526 622.323 -9.45437 622.299 -9.14219 622.555L57.643 683.664C57.9551 683.919 57.9789 684.38 57.7231 684.692C57.3603 685.036 56.8994 685.06 56.6943 684.772Z" fill="#656565"/>
<path opacity="0.3216" d="M-12.276 62.0703L-53.6748 167.1C-53.7909 167.487 -54.2191 167.617 -54.6056 167.502C-54.9921 167.386 -55.1229 166.958 -55.0069 166.572L-13.608 61.5417C-13.492 61.1554 -13.0638 61.0246 -12.6773 61.1404C-12.2907 61.2562 -12.0529 61.6514 -12.276 62.0703Z" fill="#656565"/>
<path opacity="0.021593" d="M124.86 328.442L63.7474 431.776C63.4916 432.088 63.0634 432.218 62.6442 431.996C62.332 431.74 62.2012 431.312 62.3499 431.033L123.57 327.667C123.826 327.355 124.254 327.224 124.566 327.48C124.952 327.595 125.083 328.023 124.86 328.442Z" fill="#656565"/>
<path opacity="0.1997" d="M17.0699 613.729L-19.228 707.495C-19.344 707.881 -19.8792 708.045 -20.1587 707.896C-20.5453 707.78 -20.8158 707.278 -20.56 706.966L15.8449 613.168C15.9609 612.782 16.3891 612.651 16.7756 612.767C17.0551 612.915 17.2186 613.45 17.0699 613.729Z" fill="#656565"/>
<path opacity="0.1457" d="M45.3116 330.873L63.7993 431.176C63.9301 431.604 63.5672 431.948 63.139 432.079C62.7109 432.21 62.366 431.847 62.2679 431.527L43.8873 331.191C43.7565 330.763 44.1193 330.419 44.4405 330.32C44.9014 330.297 45.3206 330.519 45.3116 330.873Z" fill="#656565"/>
<path opacity="0.5" d="M-43.4187 319.735L28.743 332.191C29.1295 332.307 29.3674 332.702 29.3584 333.056C29.2424 333.442 28.8469 333.68 28.493 333.671L-43.6687 321.215C-44.0552 321.099 -44.2931 320.704 -44.2841 320.351C-44.1681 319.964 -43.7726 319.726 -43.4187 319.735Z" fill="#656565"/>
<path opacity="0.2219" d="M81.4535 733.225L59.8924 646.607C59.7616 646.179 60.0174 645.868 60.4456 645.737C60.8738 645.606 61.186 645.861 61.3167 646.289L82.8779 732.906C83.0086 733.334 82.7856 733.753 82.3247 733.777C82.0035 733.875 81.5843 733.652 81.4535 733.225Z" fill="#656565"/>
<path opacity="0.1351" d="M45.3014 331.226L20.8866 417.152C20.7706 417.538 20.375 417.776 19.9885 417.66C19.602 417.544 19.3642 417.149 19.4802 416.763L43.9277 330.944C44.0437 330.558 44.4392 330.32 44.8257 330.436C45.1796 330.445 45.4174 330.84 45.3014 331.226Z" fill="#656565"/>
<path opacity="0.3173" d="M57.327 684.929L-19.7724 708.012C-20.2006 708.143 -20.6199 707.92 -20.7506 707.492C-20.8814 707.064 -20.6256 706.752 -20.2301 706.514L56.902 683.539C57.3302 683.408 57.6424 683.663 57.7732 684.091C57.904 684.519 57.7552 684.798 57.327 684.929Z" fill="#656565"/>
<path opacity="0.2187" d="M-54.933 166.433L9.35976 53.591C9.58283 53.172 10.0437 53.1482 10.3232 53.2967C10.6354 53.5522 10.7662 53.98 10.6175 54.2593L-53.815 167.027C-54.0708 167.339 -54.499 167.47 -54.7785 167.321C-55.0253 167.28 -55.156 166.852 -54.933 166.433Z" fill="#656565"/>
<path opacity="0.1997" d="M160.311 416.079L63.2459 432.046C62.785 432.07 62.4728 431.815 62.342 431.387C62.3183 430.926 62.5741 430.614 63.0023 430.484L160.068 414.517C160.529 414.493 160.841 414.748 160.939 415.069C160.888 415.669 160.632 415.981 160.311 416.079Z" fill="#656565"/>
<path opacity="0.3173" d="M124.679 328.615L108.799 339.078C108.403 339.316 108.017 339.2 107.672 338.838C107.434 338.443 107.55 338.057 107.946 337.819L123.825 327.355C124.221 327.117 124.607 327.233 124.813 327.521C125.05 327.916 124.967 328.41 124.679 328.615Z" fill="#656565"/>
<path opacity="0.2803" d="M44.7943 330.329L108.515 337.762C108.869 337.771 109.246 338.24 109.237 338.594C109.154 339.087 108.759 339.325 108.405 339.316L44.6841 331.883C44.3303 331.874 43.9854 331.511 44.0687 331.018C44.045 330.558 44.3007 330.246 44.7943 330.329Z" fill="#656565"/>
<path opacity="0.2137" d="M-10.3524 622.807L46.4289 512.961C46.652 512.542 47.0802 512.412 47.3924 512.667C47.7045 512.923 47.9097 513.211 47.6866 513.63L-8.98765 623.443C-9.21072 623.862 -9.63891 623.992 -9.95109 623.737C-10.3376 623.621 -10.4684 623.193 -10.3524 622.807Z" fill="#656565"/>
<path opacity="0.2369" d="M124.878 327.735L148.525 376.761C148.763 377.156 148.54 377.575 148.145 377.813C147.749 378.05 147.33 377.828 147.092 377.432L123.552 328.374C123.314 327.979 123.537 327.56 123.858 327.461C124.253 327.224 124.747 327.307 124.878 327.735Z" fill="#656565"/>
<path opacity="0.2344" d="M61.8643 506.025L73.0679 531.955C73.1987 532.383 73.0827 532.769 72.6545 532.9C72.2263 533.031 71.9468 532.882 71.709 532.487L60.5054 506.557C60.3746 506.129 60.4906 505.743 60.8861 505.505C61.2399 505.514 61.7662 505.704 61.8643 506.025Z" fill="#656565"/>
<path opacity="0.169" d="M-40.9564 105.329L39.7957 118.318C40.1822 118.434 40.5271 118.797 40.4111 119.183C40.2951 119.569 39.9322 119.914 39.5457 119.798L-41.239 106.702C-41.6256 106.586 -41.8634 106.191 -41.8544 105.837C-41.7057 105.558 -41.3429 105.213 -40.9564 105.329Z" fill="#656565"/>
<path opacity="0.4361" d="M81.5939 733.298L56.5221 684.59C56.2842 684.195 56.5073 683.776 56.7958 683.571C57.1913 683.334 57.6105 683.556 57.7086 683.877L82.7805 732.585C83.0183 732.98 82.7952 733.399 82.5068 733.604C82.251 733.916 81.7247 733.726 81.5939 733.298Z" fill="#656565"/>
<path opacity="0.011267" d="M-2.59838 152.317L-127.168 255.973C-127.457 256.178 -127.918 256.202 -128.262 255.839C-128.468 255.551 -128.491 255.09 -128.129 254.746L-3.55865 151.091C-3.27019 150.885 -2.80927 150.862 -2.4644 151.224C-2.25926 151.512 -2.23556 151.973 -2.59838 152.317Z" fill="#656565"/>
<path opacity="0.2216" d="M13.0305 443.525L-82.3984 428.47C-82.7849 428.354 -83.1298 427.992 -83.0138 427.606C-82.8977 427.219 -82.642 426.907 -82.1484 426.991L13.3875 442.013C13.774 442.129 14.1189 442.491 14.0029 442.877C13.7798 443.296 13.3843 443.534 13.0305 443.525Z" fill="#656565"/>
<path opacity="0.2629" d="M29.2591 332.735L63.7652 431.069C63.896 431.497 63.6729 431.916 63.2447 432.046C62.8165 432.177 62.3973 431.954 62.2992 431.634L27.7931 333.3C27.6624 332.872 27.8854 332.453 28.2066 332.355C28.7418 332.192 29.161 332.415 29.2591 332.735Z" fill="#656565"/>
<path opacity="0.5" d="M98.6073 739.562L110.714 774.572C110.844 775 110.621 775.419 110.3 775.517C109.872 775.648 109.453 775.425 109.355 775.104L97.2484 740.094C97.1176 739.666 97.3407 739.247 97.6619 739.149C98.0574 738.911 98.4766 739.134 98.6073 739.562Z" fill="#656565"/>
<path opacity="0.5" d="M19.6417 520.676L46.8977 512.584C47.3259 512.453 47.6381 512.709 47.7689 513.136C47.8996 513.564 47.6766 513.983 47.2484 514.114L19.9924 522.206C19.5642 522.336 19.1449 522.114 19.0142 521.686C18.9904 521.225 19.2135 520.806 19.6417 520.676Z" fill="#656565"/>
<path opacity="0.2044" d="M109.072 338.059L160.797 414.995C161.003 415.283 160.919 415.776 160.524 416.014C160.235 416.219 159.742 416.136 159.537 415.848L107.704 338.945C107.466 338.55 107.582 338.164 107.838 337.852C108.341 337.581 108.834 337.664 109.072 338.059Z" fill="#656565"/>
<path opacity="0.3781" d="M148.558 376.868L160.863 415.209C160.994 415.636 160.771 416.055 160.45 416.154C160.021 416.284 159.602 416.062 159.504 415.741L147.092 377.433C146.961 377.005 147.184 376.586 147.612 376.455C148.008 376.217 148.427 376.44 148.558 376.868Z" fill="#656565"/>
<path opacity="0.4255" d="M63.7893 431.529L47.793 513.597C47.677 513.983 47.2815 514.221 46.9276 514.212C46.5411 514.096 46.3032 513.701 46.3122 513.348L62.3085 431.279C62.4245 430.893 62.82 430.655 63.1739 430.664C63.6675 430.747 63.8726 431.036 63.7893 431.529Z" fill="#656565"/>
<path opacity="0.5" d="M-13.1716 61.0581L9.86198 53.3207C10.2902 53.1899 10.7094 53.4127 10.8075 53.7335C10.9383 54.1613 10.7152 54.5803 10.394 54.6784L-12.6396 62.4158C-13.0678 62.5466 -13.487 62.3238 -13.6178 61.896C-13.7158 61.5751 -13.5998 61.1889 -13.1716 61.0581Z" fill="#656565"/>
<path opacity="0.1462" d="M-2.26852 151.866L-35.7623 290.032C-35.8783 290.418 -36.2738 290.656 -36.6604 290.54C-37.0469 290.424 -37.2848 290.029 -37.1687 289.643L-3.78198 151.51C-3.66597 151.123 -3.27047 150.886 -2.88393 151.001C-2.49739 151.117 -2.25955 151.512 -2.26852 151.866Z" fill="#656565"/>
<path opacity="0.3101" d="M29.3583 333.056L21.0689 416.98C21.0927 417.44 20.6972 417.678 20.2363 417.702C19.8824 417.693 19.5376 417.331 19.5138 416.87L27.9102 332.914C27.9192 332.56 28.282 332.215 28.7429 332.191C29.0224 332.34 29.3672 332.702 29.3583 333.056Z" fill="#656565"/>
<path opacity="0.1218" d="M46.5424 793.238L56.4229 684.27C56.4319 683.916 56.7947 683.572 57.2556 683.548C57.6094 683.557 57.9543 683.919 57.978 684.38L48.2046 793.315C48.1212 793.808 47.7257 794.046 47.3392 793.93C46.8783 793.954 46.5334 793.591 46.5424 793.238Z" fill="#656565"/>
<path opacity="0.013026" d="M60.8703 647.127L-7.81072 666.352C-8.23892 666.483 -8.65817 666.26 -8.78894 665.832C-8.91972 665.405 -8.69665 664.986 -8.26845 664.855L60.4453 645.737C60.8735 645.606 61.1856 645.862 61.3164 646.289C61.4145 646.61 61.1914 647.029 60.8703 647.127Z" fill="#656565"/>
<path opacity="0.1656" d="M29.3585 333.056L13.864 442.803C13.748 443.19 13.3852 443.534 12.9987 443.418C12.5051 443.335 12.2672 442.94 12.3833 442.554L27.8778 332.807C27.9938 332.42 28.2496 332.108 28.7432 332.192C29.1297 332.307 29.3675 332.703 29.3585 333.056Z" fill="#656565"/>
<path opacity="0.4042" d="M-12.1612 61.6844L-2.22693 151.619C-2.2032 152.08 -2.45895 152.392 -2.91984 152.416C-3.38073 152.439 -3.69292 152.184 -3.71665 151.723L-13.6183 61.8956C-13.642 61.435 -13.3862 61.123 -12.9254 61.0992C-12.6042 61.0011 -12.292 61.2566 -12.1612 61.6844Z" fill="#656565"/>
<path opacity="0.3756" d="M28.6362 332.224L108.482 337.655C108.943 337.631 109.181 338.026 109.205 338.487C109.229 338.947 108.833 339.185 108.372 339.209L28.6004 333.638C28.2465 333.629 27.9017 333.267 27.8779 332.807C27.9196 332.56 28.2824 332.215 28.6362 332.224Z" fill="#656565"/>
<path opacity="0.1068" d="M-8.73888 665.232L15.8439 613.168C15.9599 612.782 16.3881 612.651 16.8073 612.874C17.1938 612.989 17.3246 613.417 17.1015 613.836L-7.34144 665.974C-7.56451 666.393 -7.99271 666.524 -8.41194 666.301C-8.83117 666.079 -8.96195 665.651 -8.73888 665.232Z" fill="#656565"/>
<path opacity="0.2936" d="M21.0028 416.766L47.8018 513.244C47.9326 513.671 47.6768 513.984 47.2486 514.114C46.8204 514.245 46.5082 513.99 46.3775 513.562L19.4714 417.117C19.3406 416.689 19.5637 416.27 20.0246 416.246C20.4528 416.115 20.872 416.338 21.0028 416.766Z" fill="#656565"/>
<path opacity="0.2073" d="M97.733 740.531L-20.1255 708.003C-20.512 707.887 -20.7498 707.492 -20.6338 707.106C-20.5178 706.719 -20.1223 706.482 -19.7358 706.597L98.0157 739.158C98.4022 739.274 98.64 739.669 98.524 740.055C98.5151 740.409 98.1195 740.646 97.733 740.531Z" fill="#656565"/>
<path opacity="0.259" d="M-54.6767 166.12L39.3362 118.342C39.7317 118.104 40.151 118.327 40.3888 118.722C40.6266 119.117 40.4035 119.536 40.008 119.774L-53.9305 167.413C-54.326 167.651 -54.7452 167.428 -54.9504 167.14C-55.1555 166.851 -54.9651 166.326 -54.6767 166.12Z" fill="#656565"/>
<path opacity="0.3851" d="M13.7642 442.483L47.7684 513.137C48.0063 513.532 47.7832 513.951 47.355 514.082C46.9268 514.213 46.5402 514.097 46.4095 513.669L12.4379 443.122C12.2001 442.726 12.4231 442.307 12.8186 442.07C13.1071 441.865 13.6334 442.055 13.7642 442.483Z" fill="#656565"/>
<path opacity="0.1844" d="M-94.0167 727.416L-10.2459 622.774C-9.99013 622.462 -9.52924 622.438 -9.21706 622.694C-8.90488 622.949 -8.88113 623.41 -9.13689 623.722L-92.9078 728.363C-93.1635 728.675 -93.6244 728.699 -93.9366 728.444C-94.2488 728.188 -94.2725 727.728 -94.0167 727.416Z" fill="#656565"/>
<path opacity="0.5" d="M82.5742 732.297L98.2287 739.093C98.6152 739.209 98.7787 739.743 98.63 740.023C98.514 740.409 98.0858 740.54 97.6992 740.424L82.0448 733.629C81.6582 733.513 81.4948 732.978 81.6108 732.592C81.7595 732.312 82.1877 732.182 82.5742 732.297Z" fill="#656565"/>
<path opacity="0.1122" d="M56.9726 684.92L-8.30471 666.268C-8.69124 666.152 -8.92908 665.757 -8.84576 665.264C-8.72974 664.878 -8.33424 664.64 -7.84065 664.723L57.3296 683.408C57.7161 683.523 57.954 683.918 57.838 684.305C57.7546 684.798 57.3591 685.036 56.9726 684.92Z" fill="#656565"/>
<path opacity="0.3916" d="M-3.74799 151.617L9.35128 53.9443C9.4673 53.5581 9.83012 53.2134 10.2167 53.3292C10.5705 53.338 10.9154 53.7005 10.832 54.1937L-2.26722 151.866C-2.27618 152.219 -2.74607 152.597 -3.13261 152.481C-3.51914 152.365 -3.864 152.003 -3.74799 151.617Z" fill="#656565"/>
<path opacity="0.3534" d="M20.5372 521.689L-8.98817 623.442C-9.10419 623.829 -9.49968 624.066 -9.88622 623.951C-10.2728 623.835 -10.5106 623.44 -10.3945 623.053L19.1308 521.299C19.2468 520.913 19.6423 520.675 20.0288 520.791C20.4154 520.907 20.6532 521.302 20.5372 521.689Z" fill="#656565"/>
<path opacity="0.087255" d="M109.593 775.499L-20.265 707.928C-20.6842 707.705 -20.815 707.278 -20.592 706.859C-20.3362 706.547 -19.9407 706.309 -19.6285 706.564L110.229 774.135C110.648 774.358 110.779 774.785 110.523 775.097C110.44 775.591 110.012 775.721 109.593 775.499Z" fill="#656565"/>
<path opacity="0.5" d="M61.5918 507.043L47.4639 514.048C47.0684 514.286 46.6491 514.063 46.5183 513.635C46.2805 513.24 46.5036 512.821 46.8247 512.723L60.9527 505.718C61.3482 505.48 61.7674 505.703 62.0052 506.098C62.1033 506.419 61.8802 506.838 61.5918 507.043Z" fill="#656565"/>
<path opacity="0.4809" d="M-8.91295 623.303L-19.1202 707.462C-19.2362 707.849 -19.599 708.193 -19.9856 708.078C-20.3394 708.069 -20.6843 707.706 -20.601 707.213L-10.3937 623.054C-10.2777 622.668 -9.91486 622.323 -9.52832 622.439C-9.14178 622.555 -8.93668 622.843 -8.91295 623.303Z" fill="#656565"/>
<path opacity="0.2513" d="M-42.9664 320.066L20.7989 416.478C21.0368 416.873 20.9208 417.26 20.5579 417.604C20.1624 417.842 19.7759 417.726 19.5381 417.331L-44.2273 320.919C-44.4651 320.523 -44.3491 320.137 -43.9536 319.899C-43.5581 319.662 -43.1715 319.778 -42.9664 320.066Z" fill="#656565"/>
<path opacity="0.5" d="M82.8866 732.553L110.54 774.391C110.778 774.786 110.662 775.172 110.267 775.41C109.978 775.615 109.485 775.532 109.28 775.244L81.5187 733.438C81.2808 733.043 81.3969 732.657 81.7597 732.312C82.1879 732.181 82.6814 732.264 82.8866 732.553Z" fill="#656565"/>
<path opacity="0.1382" d="M81.658 733.513L-10.199 623.696C-10.4041 623.408 -10.4278 622.947 -10.065 622.602C-9.77656 622.397 -9.31569 622.373 -8.97082 622.736L82.7792 732.586C82.9843 732.874 83.008 733.334 82.6452 733.679C82.3567 733.884 81.8631 733.801 81.658 733.513Z" fill="#656565"/>
<path opacity="0.3943" d="M-12.3989 61.2896L40.2151 118.541C40.5273 118.797 40.4767 119.397 40.1882 119.602C39.9325 119.914 39.4389 119.831 39.1267 119.575L-13.4874 62.3237C-13.6925 62.0355 -13.7162 61.575 -13.4605 61.263C-13.0977 60.9183 -12.6041 61.0014 -12.3989 61.2896Z" fill="#656565"/>
<path opacity="0.3981" d="M19.2052 521.16L62.4575 431C62.6806 430.581 63.1088 430.45 63.528 430.673C63.9472 430.896 64.078 431.324 63.855 431.743L20.6026 521.902C20.3796 522.321 19.9514 522.452 19.5321 522.229C19.1129 522.007 18.9494 521.472 19.2052 521.16Z" fill="#656565"/>
<path opacity="0.4075" d="M98.4817 740.302L47.8749 793.766C47.6191 794.078 47.1583 794.102 46.8134 793.739C46.5012 793.484 46.4774 793.023 46.8403 792.679L97.4471 739.214C97.7028 738.902 98.1637 738.878 98.5086 739.241C98.7137 739.529 98.7375 739.99 98.4817 740.302Z" fill="#656565"/>
<path opacity="0.038385" d="M57.7077 683.878L109.758 754.984C109.996 755.379 109.913 755.872 109.517 756.11C109.121 756.348 108.735 756.232 108.423 755.976L56.4796 684.837C56.2417 684.442 56.3578 684.056 56.6462 683.851C57.009 683.506 57.4699 683.482 57.7077 683.878Z" fill="#656565"/>
<path opacity="0.3658" d="M19.057 521.44L19.4069 416.903C19.3831 416.443 19.7459 416.098 20.2395 416.181C20.5934 416.19 20.9382 416.552 20.9293 416.906L20.5794 521.442C20.6031 521.903 20.2403 522.248 19.8538 522.132C19.4256 522.263 19.0807 521.9 19.057 521.44Z" fill="#656565"/>
<path opacity="0.3707" d="M82.0787 733.735L-20.1253 708.003C-20.5118 707.887 -20.7497 707.492 -20.6336 707.105C-20.5176 706.719 -20.1221 706.481 -19.7356 706.597L82.4357 732.222C82.8222 732.338 83.0601 732.733 82.9441 733.12C82.8607 733.613 82.4652 733.851 82.0787 733.735Z" fill="#656565"/>
<path opacity="0.4758" d="M10.7743 53.6265L40.4945 118.69C40.6253 119.118 40.5093 119.504 40.1138 119.742C39.6856 119.872 39.299 119.757 39.0612 119.362L9.44805 54.2655C9.21023 53.8703 9.4333 53.4514 9.8288 53.2136C10.15 53.1155 10.5692 53.3383 10.7743 53.6265Z" fill="#656565"/>
<path opacity="0.5" d="M19.089 521.546L12.3408 442.8C12.3171 442.339 12.5728 442.027 13.0337 442.004C13.4946 441.98 13.8068 442.235 13.8305 442.696L20.5788 521.442C20.6025 521.902 20.3467 522.214 19.8858 522.238C19.532 522.229 19.0801 521.899 19.089 521.546Z" fill="#656565"/>
<path opacity="0.5" d="M20.4848 416.222L63.2801 430.632C63.6667 430.747 63.9045 431.143 63.7885 431.529C63.6725 431.915 63.277 432.153 62.8578 431.93L20.0623 417.521C19.6758 417.405 19.438 417.01 19.661 416.591C19.8841 416.172 20.0982 416.106 20.4848 416.222Z" fill="#656565"/>
<path opacity="0.5" d="M-3.55804 151.091L39.1217 118.408C39.5172 118.17 39.9037 118.286 40.2159 118.541C40.4537 118.936 40.4448 119.29 40.082 119.635L-2.70479 152.35C-3.1003 152.588 -3.48686 152.472 -3.79904 152.217C-3.92982 151.789 -3.8138 151.403 -3.55804 151.091Z" fill="#656565"/>
<path opacity="0.5" d="M12.9262 442.036L62.9268 430.622C63.355 430.492 63.6999 430.854 63.798 431.175C63.9288 431.603 63.673 431.915 63.2448 432.046L13.2442 443.459C12.816 443.59 12.3641 443.261 12.3731 442.907C12.2423 442.479 12.498 442.167 12.9262 442.036Z" fill="#656565"/>
<path opacity="0.020038" d="M97.4527 740.382L-8.55091 666.227C-8.8631 665.972 -8.99387 665.544 -8.7708 665.125C-8.51504 664.813 -8.08685 664.682 -7.66761 664.905L98.2289 739.093C98.5411 739.348 98.6719 739.776 98.4161 740.088C98.2258 740.614 97.7649 740.638 97.4527 740.382Z" fill="#656565"/>
<path opacity="0.3841" d="M109.056 338.766L63.7157 431.669C63.4926 432.088 63.0644 432.219 62.6452 431.996C62.2586 431.88 62.0951 431.345 62.3509 431.033L107.691 338.131C107.914 337.712 108.342 337.581 108.761 337.804C109.074 338.059 109.312 338.454 109.056 338.766Z" fill="#656565"/>
<path opacity="0.064968" d="M-93.1607 727.154L47.6219 792.557C48.0411 792.78 48.1719 793.208 47.9488 793.627C47.6931 793.939 47.4046 794.144 46.9854 793.921L-93.7972 728.518C-94.1838 728.402 -94.3472 727.867 -94.1985 727.588C-93.9755 727.169 -93.4402 727.006 -93.1607 727.154Z" fill="#656565"/>
<path opacity="0.5" d="M19.5347 520.708L60.9186 505.611C61.3468 505.48 61.7661 505.703 61.8968 506.131C62.0276 506.559 61.8045 506.978 61.4834 507.076L20.0995 522.173C19.6713 522.303 19.252 522.081 19.1539 521.76C19.0232 521.332 19.2462 520.913 19.5347 520.708Z" fill="#656565"/>
<path opacity="0.403" d="M148.22 377.673L63.4269 431.874C63.0314 432.112 62.6449 431.996 62.407 431.601C62.1692 431.205 62.2852 430.819 62.6807 430.581L147.441 376.274C147.837 376.036 148.223 376.152 148.461 376.547C148.731 377.049 148.648 377.542 148.22 377.673Z" fill="#656565"/>
<path opacity="0.5" d="M12.3826 442.554L19.5878 416.731C19.7039 416.345 20.0994 416.107 20.4859 416.223C20.8724 416.338 21.1102 416.734 20.9942 417.12L13.789 442.943C13.673 443.329 13.2775 443.567 12.891 443.451C12.5044 443.335 12.2666 442.94 12.3826 442.554Z" fill="#656565"/>
<path opacity="0.5" d="M60.4406 506.343L62.309 431.28C62.2853 430.819 62.6808 430.582 63.1417 430.558C63.4955 430.567 63.8404 430.929 63.8314 431.283L61.963 506.346C61.9867 506.806 61.6239 507.151 61.1303 507.068C60.8092 507.166 60.4643 506.804 60.4406 506.343Z" fill="#656565"/>
<path opacity="0.3451" d="M46.706 793.772L-20.5457 707.78C-20.7508 707.492 -20.7745 707.031 -20.4117 706.687C-20.0162 706.449 -19.6624 706.458 -19.3175 706.82L47.9342 792.812C48.172 793.208 48.0886 793.701 47.8002 793.906C47.4047 794.144 46.9111 794.06 46.706 793.772Z" fill="#656565"/>
<path opacity="0.2981" d="M19.7045 416.345L107.84 337.852C108.096 337.54 108.589 337.623 108.902 337.878C109.214 338.134 109.13 338.627 108.875 338.939L20.7064 417.325C20.3436 417.67 19.9571 417.554 19.6449 417.298C19.3654 417.15 19.4487 416.657 19.7045 416.345Z" fill="#656565"/>
<path opacity="0.5" d="M-8.85407 665.618L-10.3619 623.161C-10.3856 622.7 -10.0229 622.355 -9.66901 622.364C-9.31517 622.373 -8.86322 622.703 -8.87219 623.056L-7.25731 665.481C-7.23358 665.941 -7.59638 666.286 -8.05728 666.31C-8.48547 666.441 -8.83034 666.078 -8.85407 665.618Z" fill="#656565"/>
<path opacity="0.1026" d="M10.4995 454.005L47.7047 512.922C47.9426 513.318 47.8266 513.704 47.431 513.942C47.0355 514.179 46.649 514.064 46.4112 513.668L9.20589 454.751C8.96807 454.355 9.05138 453.862 9.44689 453.624C9.87509 453.494 10.2616 453.609 10.4995 454.005Z" fill="#656565"/>
<path opacity="0.1573" d="M12.5306 442.274L107.871 337.958C108.127 337.646 108.588 337.622 108.9 337.878C109.212 338.133 109.236 338.594 108.98 338.906L13.6396 443.222C13.3839 443.534 12.9229 443.558 12.6108 443.302C12.2986 443.047 12.2749 442.586 12.5306 442.274Z" fill="#656565"/>
<path opacity="0.366" d="M98.5412 739.348L109.865 754.951C110.103 755.346 110.02 755.839 109.731 756.045C109.336 756.282 108.842 756.199 108.637 755.911L97.4201 740.276C97.1823 739.881 97.2983 739.494 97.5868 739.289C97.8425 738.977 98.2291 739.093 98.5412 739.348Z" fill="#656565"/>
<path opacity="0.2774" d="M-93.8359 727.243L-8.48278 664.92C-8.08728 664.682 -7.59369 664.765 -7.38856 665.053C-7.15073 665.448 -7.23406 665.942 -7.52252 666.147L-92.9083 728.363C-93.3038 728.601 -93.6904 728.485 -94.0026 728.23C-94.3147 727.974 -94.2314 727.481 -93.8359 727.243Z" fill="#656565"/>
<path opacity="0.5" d="M82.9019 733.367L47.9495 793.627C47.7264 794.046 47.2655 794.07 46.879 793.954C46.4598 793.731 46.436 793.271 46.5521 792.884L81.5045 732.624C81.7275 732.205 82.1884 732.182 82.5749 732.297C82.9942 732.52 83.1576 733.055 82.9019 733.367Z" fill="#656565"/>
<path opacity="0.4049" d="M20.9373 416.552L61.8643 506.025C62.1022 506.42 61.8791 506.839 61.4836 507.076C61.0881 507.314 60.6689 507.091 60.431 506.696L19.504 417.224C19.2662 416.829 19.4893 416.41 19.8848 416.172C20.313 416.041 20.7322 416.264 20.9373 416.552Z" fill="#656565"/>
<path opacity="0.5" d="M147.265 377.614L107.845 339.019C107.533 338.763 107.509 338.303 107.872 337.958C108.127 337.646 108.588 337.622 108.933 337.985L148.353 376.58C148.666 376.835 148.582 377.329 148.327 377.641C148.071 377.953 147.577 377.869 147.265 377.614Z" fill="#656565"/>
<path opacity="0.5" d="M13.7007 442.268L61.8329 505.917C62.0707 506.312 61.9874 506.806 61.6989 507.011C61.3034 507.248 60.8098 507.165 60.6047 506.877L12.4725 443.228C12.2347 442.833 12.2437 442.479 12.6065 442.135C13.002 441.897 13.4956 441.98 13.7007 442.268Z" fill="#656565"/>
<path opacity="0.065253" d="M20.6121 521.55L-7.29839 665.728C-7.4144 666.114 -7.77724 666.459 -8.16378 666.343C-8.55032 666.228 -8.89517 665.865 -8.77915 665.479L19.1313 521.3C19.2473 520.914 19.6428 520.676 19.9967 520.685C20.3832 520.801 20.621 521.196 20.6121 521.55Z" fill="#656565"/>
<path opacity="0.5" d="M-7.37367 665.867L-19.1959 707.602C-19.3119 707.988 -19.7074 708.226 -20.0939 708.11C-20.4805 707.994 -20.7183 707.599 -20.6023 707.213L-8.78009 665.478C-8.66407 665.092 -8.26857 664.854 -7.77498 664.937C-7.42114 664.946 -7.25766 665.481 -7.37367 665.867Z" fill="#656565"/>
<path opacity="0.4094" d="M109.289 774.89L108.4 755.516C108.376 755.055 108.739 754.71 109.2 754.687C109.661 754.663 110.005 755.025 110.029 755.486L110.812 774.893C110.835 775.354 110.473 775.698 110.119 775.69C109.625 775.606 109.28 775.244 109.289 774.89Z" fill="#656565"/>
<path opacity="0.2576" d="M81.7986 733.587L-8.55059 666.227C-8.86276 665.972 -8.88648 665.511 -8.66342 665.092C-8.40765 664.78 -7.94677 664.756 -7.66729 664.905L82.5748 732.297C82.887 732.553 82.9107 733.013 82.655 733.325C82.5716 733.818 82.1108 733.842 81.7986 733.587Z" fill="#656565"/>
<path opacity="0.1406" d="M98.6304 740.022L80.16 800.978C80.044 801.364 79.5414 801.635 79.1549 801.519C78.7684 801.403 78.4978 800.901 78.6138 800.515L97.1914 739.527C97.3074 739.14 97.7029 738.903 98.0894 739.018C98.5086 739.241 98.7464 739.636 98.6304 740.022Z" fill="#656565"/>
<path opacity="0.1264" d="M108.842 756.199L-20.2337 708.036C-20.6202 707.92 -20.751 707.492 -20.635 707.106C-20.5189 706.72 -20.0908 706.589 -19.7042 706.705L109.338 754.761C109.725 754.877 109.996 755.379 109.772 755.798C109.731 756.044 109.228 756.315 108.842 756.199Z" fill="#656565"/>
<path opacity="0.040467" d="M10.3948 54.6781L-80.0181 108.49C-80.4136 108.728 -80.9071 108.645 -81.145 108.25C-81.3828 107.855 -81.2995 107.361 -80.8713 107.231L9.68131 53.4927C10.0768 53.255 10.4633 53.3708 10.7012 53.7659C10.8736 53.9471 10.7903 54.4404 10.3948 54.6781Z" fill="#656565"/>
<path opacity="0.345" d="M19.0896 521.547L9.10763 454.43C9.08391 453.97 9.33969 453.658 9.76788 453.527C10.2288 453.503 10.5409 453.758 10.6717 454.186L20.6537 521.303C20.6774 521.763 20.4217 522.075 19.9935 522.206C19.5326 522.23 19.2204 521.974 19.0896 521.547Z" fill="#656565"/>
<path opacity="0.1562" d="M46.6403 793.559L-8.75656 665.939C-8.88733 665.511 -8.77131 665.125 -8.3758 664.887C-7.9476 664.756 -7.56107 664.872 -7.32324 665.267L48.0736 792.887C48.3114 793.282 48.0884 793.701 47.6929 793.939C47.2974 794.176 46.7711 793.986 46.6403 793.559Z" fill="#656565"/>
<path opacity="0.5" d="M82.7465 732.478L109.692 754.77C110.004 755.025 110.061 755.593 109.805 755.905C109.549 756.217 108.981 756.273 108.669 756.018L81.7978 733.587C81.4857 733.331 81.4619 732.871 81.7177 732.559C81.9734 732.247 82.4017 732.116 82.7465 732.478Z" fill="#656565"/>
<path opacity="0.096312" d="M171.041 515.126L62.6122 431.889C62.3 431.633 62.2763 431.173 62.5321 430.861C62.7878 430.549 63.2487 430.525 63.5609 430.78L172.064 513.878C172.376 514.134 172.433 514.701 172.177 515.013C171.921 515.325 171.353 515.382 171.041 515.126Z" fill="#656565"/>
<path opacity="0.3712" d="M9.55346 453.592L62.7877 430.548C63.2159 430.418 63.6025 430.533 63.7333 430.961C63.8641 431.389 63.748 431.775 63.3198 431.906L10.0855 454.95C9.65735 455.08 9.27079 454.965 9.03297 454.569C8.93488 454.249 9.15796 453.83 9.55346 453.592Z" fill="#656565"/>
<path opacity="0.4435" d="M71.8097 397.27L63.7887 431.529C63.6727 431.915 63.2771 432.153 62.8906 432.037C62.5041 431.921 62.2662 431.526 62.3823 431.14L70.2963 396.914C70.4123 396.528 70.8078 396.29 71.3014 396.373C71.5809 396.522 71.8187 396.917 71.8097 397.27Z" fill="#656565"/>
<path opacity="0.5" d="M20.9937 417.119L10.6619 454.539C10.5458 454.925 10.1503 455.163 9.65675 455.08C9.16316 454.997 9.03237 454.569 9.1157 454.076L19.5546 416.623C19.6706 416.237 20.0662 415.999 20.4527 416.115C20.8719 416.338 21.1097 416.733 20.9937 417.119Z" fill="#656565"/>
<path opacity="0.5" d="M13.7891 442.943L10.5554 454.572C10.4393 454.959 10.0438 455.196 9.55026 455.113C9.16372 454.997 8.92588 454.602 9.00921 454.109L12.2429 442.48C12.359 442.093 12.7544 441.856 13.141 441.971C13.6673 442.161 13.9051 442.557 13.7891 442.943Z" fill="#656565"/>
<path opacity="0.072261" d="M78.7686 801.403L-20.5124 707.887C-20.8246 707.632 -20.8483 707.171 -20.4855 706.827C-20.2297 706.515 -19.7688 706.491 -19.4566 706.746L79.8243 800.262C80.1365 800.518 80.193 801.085 79.8301 801.43C79.6487 801.602 79.0808 801.659 78.7686 801.403Z" fill="#656565"/>
<path opacity="0.4697" d="M20.0241 416.246L70.7335 396.43C71.1617 396.299 71.5809 396.522 71.786 396.81C71.9168 397.238 71.6937 397.657 71.4053 397.862L20.6632 417.571C20.235 417.702 19.8158 417.479 19.7177 417.159C19.3728 416.796 19.5959 416.377 20.0241 416.246Z" fill="#656565"/>
<path opacity="0.5" d="M46.9478 792.647L108.772 754.817C109.167 754.58 109.661 754.663 109.898 755.058C110.136 755.453 110.053 755.946 109.657 756.184L47.8338 794.013C47.4382 794.251 47.0517 794.135 46.8139 793.74C46.4363 793.271 46.5523 792.884 46.9478 792.647Z" fill="#656565"/>
<path opacity="0.09903" d="M148.592 376.975L172.334 514.381C172.358 514.841 172.135 515.26 171.674 515.284C171.213 515.308 170.901 515.052 170.77 514.625L147.028 377.219C146.897 376.791 147.26 376.447 147.688 376.316C148.149 376.292 148.461 376.547 148.592 376.975Z" fill="#656565"/>
<path opacity="0.4174" d="M12.6049 442.135L70.5195 396.495C70.915 396.258 71.3759 396.234 71.6137 396.629C71.8515 397.024 71.8753 397.484 71.4798 397.722L13.5652 443.362C13.1697 443.6 12.8158 443.591 12.471 443.228C12.2658 442.94 12.3491 442.447 12.6049 442.135Z" fill="#656565"/>
<path opacity="0.3632" d="M83.0497 733.088L80.2337 800.839C80.2575 801.3 79.8946 801.644 79.401 801.561C78.9401 801.585 78.5953 801.223 78.6786 800.729L81.4946 732.978C81.4709 732.518 81.8663 732.28 82.3272 732.256C82.6811 732.265 83.026 732.627 83.0497 733.088Z" fill="#656565"/>
<path opacity="0.3639" d="M70.3392 396.668L107.765 337.991C108.021 337.679 108.449 337.548 108.869 337.771C109.181 338.026 109.311 338.454 109.088 338.873L71.6623 397.55C71.4066 397.862 70.9784 397.993 70.5591 397.77C70.247 397.514 70.1162 397.087 70.3392 396.668Z" fill="#656565"/>
<path opacity="0.3194" d="M171.46 515.349L61.1624 507.174C60.7015 507.198 60.4637 506.803 60.4399 506.343C60.4162 505.882 60.8117 505.644 61.2726 505.621L171.537 513.688C171.998 513.664 172.268 514.166 172.26 514.52C172.283 514.98 171.92 515.325 171.46 515.349Z" fill="#656565"/>
<path opacity="0.173" d="M39.6538 119.766L-80.4792 108.514C-80.9401 108.538 -81.2107 108.036 -81.2017 107.682C-81.2254 107.222 -80.7228 106.951 -80.369 106.96L39.764 118.212C40.2249 118.188 40.4627 118.583 40.4865 119.043C40.4031 119.537 40.0403 119.881 39.6538 119.766Z" fill="#656565"/>
<path opacity="0.4515" d="M10.4338 453.791L61.7997 505.811C62.1119 506.066 62.0286 506.559 61.7728 506.871C61.5171 507.183 60.9164 507.133 60.7113 506.845L9.3454 454.825C9.00052 454.463 9.08383 453.969 9.37229 453.764C9.66074 453.559 10.1217 453.535 10.4338 453.791Z" fill="#656565"/>
<path opacity="0.3368" d="M148.039 377.846L71.1929 397.927C70.7647 398.058 70.3127 397.728 70.182 397.301C70.0512 396.873 70.3813 396.421 70.7025 396.323L147.442 376.274C147.87 376.143 148.289 376.366 148.42 376.794C148.69 377.296 148.467 377.715 148.039 377.846Z" fill="#656565"/>
<path opacity="0.2783" d="M71.7772 397.164L61.9948 506.452C62.0185 506.913 61.516 507.183 61.1621 507.175C60.8083 507.166 60.4634 506.803 60.4397 506.343L70.2221 397.054C70.1984 396.593 70.7009 396.323 71.0548 396.332C71.5483 396.415 71.7862 396.81 71.7772 397.164Z" fill="#656565"/>
<path opacity="0.1456" d="M-7.63464 665.012L109.586 754.802C109.898 755.058 109.954 755.625 109.699 755.937C109.443 756.249 108.982 756.273 108.563 756.05L-8.65768 666.26C-8.96987 666.004 -8.99358 665.544 -8.77051 665.125C-8.4077 664.78 -7.94683 664.756 -7.63464 665.012Z" fill="#656565"/>
<path opacity="0.2297" d="M156.791 573.039L60.744 506.952C60.4318 506.696 60.3011 506.268 60.5241 505.849C60.7799 505.537 61.2081 505.407 61.6273 505.629L157.674 571.717C157.986 571.972 158.149 572.507 157.894 572.819C157.671 573.238 157.21 573.262 156.791 573.039Z" fill="#656565"/>
<path opacity="0.059581" d="M78.7029 801.189L-8.72323 666.046C-8.96105 665.651 -8.87774 665.157 -8.48223 664.92C-8.08673 664.682 -7.7002 664.798 -7.35532 665.16L80.0709 800.304C80.3087 800.699 80.2253 801.192 79.8298 801.43C79.4343 801.668 78.9407 801.584 78.7029 801.189Z" fill="#656565"/>
<path opacity="0.01" d="M171.32 515.275L9.65697 455.08C9.27043 454.965 8.99991 454.462 9.22298 454.044C9.33899 453.657 9.84154 453.387 10.2608 453.61L171.891 513.697C172.278 513.813 172.548 514.315 172.325 514.734C172.102 515.153 171.707 515.39 171.32 515.275Z" fill="#656565"/>
<path opacity="0.5" d="M78.6878 800.375L108.482 755.022C108.738 754.71 109.166 754.58 109.585 754.802C109.897 755.058 110.028 755.486 109.805 755.905L80.0109 801.258C79.7878 801.677 79.3269 801.7 78.9077 801.478C78.5955 801.222 78.432 800.687 78.6878 800.375Z" fill="#656565"/>
<path opacity="0.1033" d="M170.901 515.052L70.4187 397.696C70.0738 397.333 70.1571 396.84 70.5526 396.602C70.9481 396.364 71.409 396.341 71.6469 396.736L172.129 514.092C172.474 514.455 172.391 514.948 171.995 515.186C171.707 515.391 171.213 515.307 170.901 515.052Z" fill="#656565"/>
<path opacity="0.5" d="M71.5867 397.69L10.4384 454.959C10.0756 455.303 9.58197 455.22 9.37684 454.932C9.03196 454.57 9.11527 454.076 9.40373 453.871L70.552 396.602C70.9148 396.258 71.4084 396.341 71.6136 396.629C71.8187 396.917 71.8424 397.378 71.5867 397.69Z" fill="#656565"/>
<path opacity="0.5" d="M172.326 514.734L158.075 572.647C157.959 573.033 157.564 573.271 157.07 573.187C156.683 573.072 156.446 572.677 156.529 572.183L170.78 514.271C170.896 513.884 171.291 513.647 171.785 513.73C172.171 513.846 172.409 514.241 172.326 514.734Z" fill="#656565"/>
<path opacity="0.4292" d="M109.997 755.378L117.56 834.11C117.584 834.57 117.221 834.915 116.793 835.046C116.332 835.069 115.987 834.707 115.856 834.279L108.326 755.655C108.302 755.195 108.558 754.883 109.019 754.859C109.521 754.588 109.866 754.951 109.997 755.378Z" fill="#656565"/>
<path opacity="0.3679" d="M171.956 513.911L257.594 571.6C258.013 571.823 258.069 572.39 257.813 572.702C257.558 573.014 257.022 573.178 256.71 572.922L171.073 515.233C170.761 514.978 170.63 514.55 170.853 514.131C171.183 513.679 171.644 513.655 171.956 513.911Z" fill="#656565"/>
<path opacity="0.4346" d="M157.287 571.601L257.175 571.377C257.636 571.354 257.981 571.716 258.005 572.176C258.028 572.637 257.666 572.982 257.205 573.006L157.317 573.229C156.856 573.253 156.511 572.89 156.487 572.43C156.463 571.969 156.826 571.624 157.287 571.601Z" fill="#656565"/>
<path opacity="0.2035" d="M108.67 756.017L63.793 717.569C63.4481 717.206 63.4244 716.746 63.6801 716.434C64.0429 716.089 64.5038 716.065 64.816 716.321L109.693 754.769C110.005 755.025 110.061 755.592 109.805 755.904C109.443 756.249 108.982 756.273 108.67 756.017Z" fill="#656565"/>
<path opacity="0.2536" d="M78.6046 800.869L63.4897 716.96C63.3589 716.532 63.689 716.081 64.1499 716.057C64.6108 716.033 65.0301 716.256 65.0538 716.716L80.029 800.551C80.0527 801.011 79.8296 801.43 79.3687 801.454C79.0803 801.659 78.6283 801.329 78.6046 800.869Z" fill="#656565"/>
<path opacity="0.5" d="M-54.3605 195.493L11.0257 244.75C11.3379 245.006 11.5014 245.541 11.1386 245.885C10.8828 246.197 10.3476 246.361 10.0027 245.998L-55.3835 196.741C-55.6957 196.486 -55.8592 195.951 -55.4964 195.606C-55.1336 195.261 -54.8124 195.163 -54.3605 195.493Z" fill="#656565"/>
<path opacity="0.4849" d="M-79.6181 247.646L10.4669 244.454C10.9278 244.43 11.2727 244.792 11.2964 245.253C11.3201 245.713 10.9573 246.058 10.4964 246.082L-79.5886 249.275C-80.0494 249.298 -80.3943 248.936 -80.418 248.475C-80.4091 248.122 -80.079 247.67 -79.6181 247.646Z" fill="#656565"/>
<path opacity="0.1458" d="M-11.8623 411.485L10.6056 453.972C10.8434 454.367 10.6204 454.786 10.2249 455.024C9.82938 455.262 9.41013 455.039 9.205 454.751L-13.3699 412.296C-13.6078 411.901 -13.4174 411.375 -13.0219 411.138C-12.6264 410.9 -12.1001 411.09 -11.8623 411.485Z" fill="#656565"/>
<path opacity="0.052568" d="M-12.8081 411.073L70.8408 396.397C71.3017 396.373 71.7209 396.596 71.7447 397.057C71.7684 397.517 71.5453 397.936 71.0844 397.96L-12.5318 412.742C-12.96 412.873 -13.4119 412.543 -13.5427 412.115C-13.5991 411.548 -13.269 411.096 -12.8081 411.073Z" fill="#656565"/>
<path opacity="0.027431" d="M-20.3521 20.3337L-54.0233 196.209C-54.1066 196.703 -54.5022 196.94 -54.9957 196.857C-55.4893 196.774 -55.7271 196.379 -55.6438 195.886L-22.0053 19.9032C-21.9219 19.4099 -21.5264 19.1722 -21.0328 19.2553C-20.6136 19.4781 -20.2687 19.8405 -20.3521 20.3337Z" fill="#656565"/>
<path opacity="0.5" d="M-77.8985 244.081L10.4673 244.453C10.9282 244.429 11.2731 244.792 11.2968 245.252C11.3205 245.713 10.9577 246.058 10.4968 246.082L-77.7619 245.676C-78.2228 245.7 -78.5677 245.337 -78.5914 244.877C-78.6152 244.416 -78.2524 244.072 -77.8985 244.081Z" fill="#656565"/>
<path opacity="0.207" d="M115.888 834.387L63.4486 717.207C63.3178 716.779 63.4011 716.286 63.9363 716.122C64.3645 715.992 64.8581 716.075 64.9889 716.502L117.321 833.715C117.452 834.143 117.369 834.636 116.941 834.767C116.545 835.005 116.126 834.782 115.888 834.387Z" fill="#656565"/>
<path opacity="0.4941" d="M-74.066 217.182L10.7133 244.495C11.0998 244.611 11.3703 245.113 11.2543 245.499C11.1383 245.886 10.6357 246.156 10.2492 246.04L-74.53 218.728C-74.9166 218.612 -75.1871 218.11 -75.0711 217.723C-74.9551 217.337 -74.5596 217.099 -74.066 217.182Z" fill="#656565"/>
<path opacity="0.2148" d="M-61.2218 9.54554L51.2207 74.1328C51.64 74.3555 51.6964 74.923 51.4733 75.342C51.2503 75.761 50.715 75.9245 50.2958 75.7017L-62.1467 11.1144C-62.566 10.8917 -62.7294 10.3569 -62.4737 10.0449C-62.1763 9.48626 -61.641 9.32276 -61.2218 9.54554Z" fill="#656565"/>
<path opacity="0.061086" d="M51.5138 75.095L11.254 245.499C11.138 245.885 10.6681 246.262 10.2489 246.04C9.86236 245.924 9.5175 245.561 9.60082 245.068L49.8606 74.6644C49.9439 74.1712 50.4465 73.9007 50.833 74.0166C51.3593 74.2066 51.6298 74.7087 51.5138 75.095Z" fill="#656565"/>
<path opacity="0.3784" d="M-80.6347 116.046L-21.9314 19.7633C-21.7083 19.3443 -21.1404 19.2878 -20.7211 19.5106C-20.3019 19.7333 -20.2455 20.3008 -20.4686 20.7198L-79.1719 117.002C-79.395 117.421 -79.9629 117.478 -80.3821 117.255C-80.8341 116.925 -80.8905 116.358 -80.6347 116.046Z" fill="#656565"/>
<path opacity="0.3542" d="M16.8746 825.221L63.6054 716.574C63.8284 716.155 64.2239 715.917 64.7502 716.107C65.1695 716.33 65.3002 716.758 65.1842 717.144L18.5605 825.758C18.3374 826.177 17.9419 826.415 17.4156 826.225C16.922 826.142 16.6842 825.747 16.8746 825.221Z" fill="#656565"/>
<path opacity="0.4934" d="M-20.721 19.511L51.2537 74.2402C51.5659 74.4957 51.7294 75.0305 51.3666 75.3752C51.1108 75.6872 50.5756 75.8507 50.2307 75.4883L-21.744 20.759C-22.0562 20.5035 -22.2197 19.9688 -21.8569 19.6241C-21.6011 19.3121 -21.0332 19.2555 -20.721 19.511Z" fill="#656565"/>
<path opacity="0.2612" d="M-80.1653 115.668L50.5128 74.1149C50.941 73.9841 51.4672 74.1741 51.598 74.602C51.7288 75.0298 51.5384 75.5557 51.1102 75.6865L-79.5678 117.24C-79.996 117.371 -80.4153 117.148 -80.6531 116.753C-80.9236 116.251 -80.7005 115.832 -80.1653 115.668Z" fill="#656565"/>
<path opacity="0.4312" d="M-5.74994 286.361L9.70874 245.036C9.93181 244.617 10.3273 244.379 10.7465 244.602C11.1658 244.825 11.4036 245.22 11.1805 245.639L-4.24545 287.071C-4.46852 287.49 -4.86402 287.727 -5.39031 287.537C-5.70249 287.282 -5.94031 286.887 -5.74994 286.361Z" fill="#656565"/>
<path opacity="0.1371" d="M-104.648 395.506L-5.60152 286.082C-5.23871 285.737 -4.77781 285.713 -4.32589 286.043C-3.98101 286.405 -3.95727 286.866 -4.28739 287.318L-103.473 396.668C-103.836 397.012 -104.297 397.036 -104.642 396.674C-104.954 396.418 -105.011 395.851 -104.648 395.506Z" fill="#656565"/>
<path opacity="0.4096" d="M127.595 776.198L63.7924 717.569C63.4475 717.207 63.4238 716.746 63.7866 716.402C64.1494 716.057 64.6103 716.033 64.9552 716.395L128.865 774.991C129.21 775.354 129.267 775.921 128.904 776.266C128.508 776.504 127.908 776.453 127.595 776.198Z" fill="#656565"/>
<path opacity="0.09038" d="M125.716 254.274L10.3903 246.115C9.89668 246.032 9.5518 245.669 9.63513 245.176C9.6114 244.715 10.114 244.445 10.4678 244.454L125.76 252.506C126.254 252.589 126.599 252.951 126.516 253.445C126.572 254.012 126.209 254.357 125.716 254.274Z" fill="#656565"/>
<path opacity="0.3314" d="M-13.5004 411.869L-5.86571 286.747C-5.78238 286.254 -5.41957 285.909 -4.92599 285.993C-4.4324 286.076 -4.08753 286.438 -4.17085 286.931L-11.8055 412.053C-11.7818 412.514 -12.2516 412.891 -12.7452 412.808C-13.1318 412.692 -13.5093 412.223 -13.5004 411.869Z" fill="#656565"/>
<path opacity="0.028443" d="M-8.02818 624.669L64.9556 716.395C65.3005 716.757 65.2171 717.251 64.8543 717.595C64.4588 717.833 63.9979 717.857 63.653 717.495L-9.40506 625.909C-9.64289 625.513 -9.59226 624.913 -9.19676 624.676C-8.86664 624.224 -8.26601 624.274 -8.02818 624.669Z" fill="#656565"/>
<path opacity="0.1481" d="M-124.96 487.196L-13.1289 411.171C-12.7334 410.933 -12.2398 411.016 -12.002 411.411C-11.7641 411.807 -11.8475 412.3 -12.2103 412.644L-124.008 488.776C-124.404 489.014 -125.004 488.963 -125.242 488.568C-125.513 488.066 -125.355 487.433 -124.96 487.196Z" fill="#656565"/>
<path opacity="0.3952" d="M-12.3467 411.048L51.559 436.317C51.9782 436.54 52.2487 437.042 52.0257 437.461C51.8026 437.88 51.3 438.15 50.8808 437.928L-13.0575 412.552C-13.4768 412.329 -13.7146 411.934 -13.5242 411.408C-13.2685 411.096 -12.7332 410.933 -12.3467 411.048Z" fill="#656565"/>
<path opacity="0.2858" d="M-5.20641 285.844L125.545 252.571C125.973 252.44 126.532 252.737 126.556 253.197C126.687 253.625 126.389 254.184 125.928 254.208L-4.82307 287.481C-5.25126 287.611 -5.7032 287.282 -5.83397 286.854C-5.93206 286.533 -5.63461 285.974 -5.20641 285.844Z" fill="#656565"/>
<path opacity="0.06555" d="M-4.08758 286.438L52.2161 436.935C52.3468 437.363 52.1565 437.889 51.761 438.127C51.3328 438.258 50.8065 438.067 50.536 437.565L-5.76769 287.068C-5.89846 286.64 -5.70807 286.114 -5.27987 285.984C-4.77732 285.713 -4.3581 285.936 -4.08758 286.438Z" fill="#656565"/>
<path opacity="0.1759" d="M274.046 732.633L128.444 776.29C128.015 776.421 127.457 776.124 127.326 775.696C127.195 775.268 127.492 774.709 127.921 774.578L273.49 730.815C273.918 730.684 274.477 730.981 274.641 731.516C274.697 732.084 274.474 732.503 274.046 732.633Z" fill="#656565"/>
<path opacity="0.064182" d="M-124.746 487.13L51.0977 436.341C51.5259 436.21 52.0849 436.507 52.2156 436.935C52.3464 437.363 52.049 437.922 51.6208 438.052L-124.223 488.841C-124.651 488.972 -125.21 488.675 -125.341 488.247C-125.504 487.712 -125.174 487.261 -124.746 487.13Z" fill="#656565"/>
<path opacity="0.2275" d="M-8.69362 624.405L125.39 618.882C125.851 618.858 126.336 619.295 126.359 619.756C126.383 620.216 125.946 620.701 125.485 620.724L-8.63141 626.14C-9.09231 626.164 -9.57691 625.728 -9.49359 625.234C-9.51733 624.774 -9.15452 624.429 -8.69362 624.405Z" fill="#656565"/>
<path opacity="0.093505" d="M-42.2837 615.604L125.39 618.882C125.851 618.859 126.336 619.295 126.285 619.895C126.309 620.356 125.872 620.84 125.271 620.79L-42.4356 617.405C-42.8965 617.428 -43.2741 616.959 -43.2978 616.498C-43.1074 615.973 -42.7446 615.628 -42.2837 615.604Z" fill="#656565"/>
<path opacity="0.159" d="M-75.7503 137.007L-41.1167 -30.7431C-41.0334 -31.2364 -40.5635 -31.6138 -40.0372 -31.4237C-39.5436 -31.3406 -39.2731 -30.8385 -39.3564 -30.3453L-73.99 137.404C-74.0734 137.898 -74.5759 138.168 -75.0695 138.085C-75.5631 138.002 -75.8336 137.5 -75.7503 137.007Z" fill="#656565"/>
<path opacity="0.1903" d="M20.0463 299.531L-44.4081 308.46L42.7569 328.261L20.0463 299.531Z" fill="#656565"/>
<path opacity="0.1886" d="M44.6682 331.069L116.333 325.434L124.269 328.038L44.6682 331.069Z" fill="#656565"/>
<path opacity="0.2545" d="M60.6417 646.379L57.1309 684.288L16.4036 613.465L60.6417 646.379Z" fill="#656565"/>
<path opacity="0.1821" d="M28.6175 332.932L44.6686 331.069L124.269 328.038L28.6175 332.932Z" fill="#656565"/>
<path opacity="0.1776" d="M97.8564 739.791L60.6408 646.378L57.13 684.288L97.8564 739.791Z" fill="#656565"/>
<path opacity="0.1317" d="M60.6417 646.379L16.4036 613.465L-9.65428 623.179L60.6417 646.379Z" fill="#656565"/>
<path opacity="0.062714" d="M-41.0813 106.068L-12.9434 61.8062L-54.3422 166.836L-41.0813 106.068Z" fill="#656565"/>
<path opacity="0.1738" d="M-43.5442 320.475L28.6175 332.931L44.6686 331.069L-43.5442 320.475Z" fill="#656565"/>
<path opacity="0.1997" d="M19.8712 521.424L72.3517 532.291L47.0201 513.365L19.8712 521.424Z" fill="#656565"/>
<path opacity="0.251" d="M-41.0803 106.069L-12.9423 61.8065L10.0586 53.9622L-41.0803 106.069Z" fill="#656565"/>
<path opacity="0.2457" d="M-43.545 320.475L28.6168 332.931L-36.5027 289.907L-43.545 320.475Z" fill="#656565"/>
<path opacity="0.2457" d="M-43.545 320.475L28.6168 332.931L-36.5027 289.907L-43.545 320.475Z" fill="#656565"/>
<path opacity="0.2793" d="M82.202 732.995L97.8564 739.791L109.963 774.801L82.202 732.995Z" fill="#656565"/>
<path opacity="0.2793" d="M82.202 732.995L97.8564 739.791L109.963 774.801L82.202 732.995Z" fill="#656565"/>
<path opacity="0.2793" d="M82.202 732.995L97.8564 739.791L109.963 774.801L82.202 732.995Z" fill="#656565"/>
<path opacity="0.1242" d="M-54.3411 166.836L-3.00786 151.741L39.6719 119.058L-54.3411 166.836Z" fill="#656565"/>
<path opacity="0.2565" d="M19.8715 521.424L61.1484 506.36L47.0205 513.365L19.8715 521.424Z" fill="#656565"/>
<path opacity="0.2565" d="M19.8715 521.424L61.1484 506.36L47.0205 513.365L19.8715 521.424Z" fill="#656565"/>
<path opacity="0.2185" d="M-12.9427 61.8061L10.0582 53.9618L39.6714 119.058L-12.9427 61.8061Z" fill="#656565"/>
<path opacity="0.138" d="M-3.00833 151.741L10.0582 53.9618L39.6714 119.058L-3.00833 151.741Z" fill="#656565"/>
<path opacity="0.2927" d="M13.1563 442.785L20.2217 416.888L63.0171 431.297L13.1563 442.785Z" fill="#656565"/>
<path opacity="0.2927" d="M13.1563 442.785L20.2217 416.888L63.0171 431.297L13.1563 442.785Z" fill="#656565"/>
<path opacity="0.2927" d="M13.1563 442.785L20.2217 416.888L63.0171 431.297L13.1563 442.785Z" fill="#656565"/>
<path opacity="0.1799" d="M-8.03936 665.603L-9.6543 623.178L-19.8615 707.337L-8.03936 665.603Z" fill="#656565"/>
<path opacity="0.042801" d="M-93.4249 727.82L-8.03906 665.603L-19.8612 707.337L-93.4249 727.82Z" fill="#656565"/>
<path opacity="0.2181" d="M13.1561 442.786L61.1485 506.361L63.0169 431.298L13.1561 442.786Z" fill="#656565"/>
<path opacity="0.038904" d="M47.2509 793.255L109.964 774.801L109.182 755.393L47.2509 793.255Z" fill="#656565"/>
<path opacity="0.2055" d="M82.2027 732.995L47.2504 793.255L109.181 755.393L82.2027 732.995Z" fill="#656565"/>
<path opacity="0.01" d="M20.2209 416.888L9.88906 454.308L61.1479 506.36L20.2209 416.888Z" fill="#656565"/>
<path opacity="0.1589" d="M13.1553 442.785L9.88889 454.308L61.1477 506.36L13.1553 442.785Z" fill="#656565"/>
<path opacity="0.1261" d="M82.2031 732.995L47.2507 793.255L79.3871 800.747L82.2031 732.995Z" fill="#656565"/>
<path opacity="0.1827" d="M82.2027 732.995L79.3867 800.746L109.181 755.393L82.2027 732.995Z" fill="#656565"/>
<path opacity="0.12" d="M20.2208 416.888L70.9629 397.179L9.88893 454.308L20.2208 416.888Z" fill="#656565"/>
<path opacity="0.12" d="M20.2208 416.888L70.9629 397.179L9.88893 454.308L20.2208 416.888Z" fill="#656565"/>
<path opacity="0.1385" d="M13.1553 442.786L70.9629 397.179L9.88893 454.308L13.1553 442.786Z" fill="#656565"/>
<path opacity="0.2344" d="M79.3873 800.746L109.182 755.393L116.745 834.124L79.3873 800.746Z" fill="#656565"/>
<path opacity="0.1984" d="M-77.8835 244.895L-54.8712 196.117L10.4824 245.268L-77.8835 244.895Z" fill="#656565"/>
<path opacity="0.2079" d="M-79.6037 248.46L-74.298 217.955L10.4813 245.267L-79.6037 248.46Z" fill="#656565"/>
<path opacity="0.036344" d="M-21.2335 20.1346L-61.7013 10.2766L50.7739 74.9709L-21.2335 20.1346Z" fill="#656565"/>
<rect y="24" width="208" height="746" fill="url(#paint0_linear)"/>
</g>
<defs>
<linearGradient id="paint0_linear" x1="72.1156" y1="24" x2="-210.828" y2="640.047" gradientUnits="userSpaceOnUse">
<stop stop-color="#090909" stop-opacity="0.4"/>
<stop offset="0.96875" stop-color="#090909"/>
</linearGradient>
<clipPath id="clip0">
<rect width="208" height="770" fill="white"/>
</clipPath>
</defs>
</svg>
