<svg width="400" height="814" viewBox="0 0 400 814" fill="none" xmlns="http://www.w3.org/2000/svg">
<g clip-path="url(#clip0)">
<path opacity="0.5" d="M348.41 519.268C347.284 519.489 346.623 520.592 346.825 521.623C347.046 522.749 348.149 523.409 349.181 523.206C350.307 522.986 350.968 521.883 350.766 520.851C350.545 519.726 349.442 519.066 348.41 519.268Z" fill="#616161"/>
<path opacity="0.5" d="M401.173 557.811C400.047 558.032 399.292 559.154 399.513 560.279C399.733 561.404 400.855 562.158 401.981 561.938C403.107 561.717 403.862 560.595 403.641 559.47C403.421 558.345 402.299 557.591 401.173 557.811Z" fill="#616161"/>
<path opacity="0.5" d="M329.071 619.461C327.945 619.682 327.191 620.803 327.411 621.929C327.632 623.054 328.754 623.808 329.88 623.587C331.006 623.367 331.76 622.245 331.54 621.12C331.319 619.994 330.291 619.222 329.071 619.461Z" fill="#616161"/>
<path opacity="0.5" d="M385.603 540.511C384.477 540.731 383.629 541.871 383.868 543.09C384.088 544.216 385.229 545.063 386.448 544.824C387.574 544.604 388.329 543.482 388.09 542.263C387.963 541.119 386.823 540.272 385.603 540.511Z" fill="#616161"/>
<path opacity="0.5" d="M270.34 737.405C269.027 737.662 268.197 738.896 268.454 740.209C268.711 741.522 269.945 742.351 271.259 742.093C272.573 741.836 273.403 740.602 273.145 739.289C272.888 737.977 271.654 737.147 270.34 737.405Z" fill="#616161"/>
<path opacity="0.5" d="M261.631 602.978C260.318 603.235 259.488 604.469 259.745 605.782C260.002 607.095 261.237 607.924 262.55 607.667C263.864 607.409 264.694 606.176 264.436 604.863C264.179 603.55 262.945 602.721 261.631 602.978Z" fill="#616161"/>
<path opacity="0.5" d="M271.319 576.345C270.006 576.603 269.082 577.855 269.357 579.262C269.615 580.574 270.867 581.498 272.275 581.222C273.682 580.946 274.512 579.712 274.237 578.305C273.961 576.899 272.633 576.088 271.319 576.345Z" fill="#616161"/>
<path opacity="0.5" d="M314.726 45.6049C313.412 45.8624 312.507 47.2084 312.764 48.5212C313.021 49.8341 314.368 50.7387 315.681 50.4813C316.995 50.2238 317.9 48.8779 317.643 47.565C317.386 46.2521 316.133 45.3291 314.726 45.6049Z" fill="#616161"/>
<path opacity="0.5" d="M370.496 562.363C369.182 562.62 368.277 563.966 368.534 565.279C368.791 566.592 370.138 567.496 371.451 567.239C372.765 566.982 373.671 565.636 373.413 564.323C373.156 563.01 371.809 562.105 370.496 562.363Z" fill="#616161"/>
<path opacity="0.5" d="M369.36 310.963C368.046 311.22 367.141 312.566 367.398 313.879C367.656 315.192 369.002 316.096 370.316 315.839C371.723 315.563 372.535 314.236 372.278 312.923C372.02 311.61 370.767 310.687 369.36 310.963Z" fill="#616161"/>
<path opacity="0.5" d="M402.4 198.152C400.993 198.428 400.087 199.774 400.363 201.18C400.639 202.587 401.985 203.491 403.393 203.216C404.8 202.94 405.705 201.594 405.43 200.187C405.154 198.781 403.808 197.876 402.4 198.152Z" fill="#616161"/>
<path opacity="0.5" d="M345.941 334.151C344.534 334.427 343.628 335.773 343.904 337.179C344.179 338.586 345.526 339.491 346.933 339.215C348.341 338.939 349.246 337.593 348.971 336.186C348.695 334.78 347.348 333.875 345.941 334.151Z" fill="#616161"/>
<path opacity="0.5" d="M306.738 595.988C305.331 596.264 304.425 597.61 304.701 599.017C304.976 600.424 306.323 601.328 307.73 601.052C309.138 600.777 310.043 599.431 309.768 598.024C309.492 596.617 308.146 595.713 306.738 595.988Z" fill="#616161"/>
<path opacity="0.5" d="M297.807 705.535C296.407 705.81 295.051 704.898 294.777 703.5C294.503 702.102 295.415 700.746 296.814 700.471C298.213 700.197 299.57 701.109 299.844 702.507C300.118 703.905 299.206 705.261 297.807 705.535Z" fill="#616161"/>
<path opacity="0.5" d="M262.481 497.936C261.074 498.212 260.075 499.577 260.369 501.077C260.663 502.577 262.009 503.482 263.51 503.188C264.918 502.912 265.917 501.548 265.623 500.047C265.329 498.547 263.889 497.661 262.481 497.936Z" fill="#616161"/>
<path opacity="0.5" d="M364.3 526.768C362.892 527.044 361.893 528.409 362.187 529.909C362.463 531.316 363.828 532.314 365.329 532.02C366.83 531.726 367.736 530.38 367.442 528.879C367.054 527.397 365.707 526.493 364.3 526.768Z" fill="#616161"/>
<path opacity="0.5" d="M325.165 286.808C323.714 287.092 322.308 286.147 322.023 284.697C321.739 283.247 322.685 281.841 324.136 281.556C325.587 281.272 326.994 282.217 327.278 283.667C327.562 285.117 326.616 286.523 325.165 286.808Z" fill="#616161"/>
<path opacity="0.5" d="M318.173 441.547C316.672 441.842 315.691 443.3 315.985 444.8C316.279 446.301 317.738 447.281 319.239 446.987C320.74 446.692 321.721 445.234 321.427 443.734C321.133 442.233 319.674 441.253 318.173 441.547Z" fill="#616161"/>
<path opacity="0.5" d="M344.13 628.683C342.628 628.977 341.647 630.435 341.941 631.935C342.235 633.436 343.694 634.416 345.195 634.122C346.697 633.827 347.678 632.369 347.384 630.869C347.09 629.368 345.631 628.388 344.13 628.683Z" fill="#616161"/>
<path opacity="0.5" d="M390.883 547.071C389.382 547.365 388.307 548.842 388.62 550.436C388.914 551.937 390.391 553.01 391.986 552.698C393.581 552.385 394.562 550.927 394.25 549.333C393.956 547.832 392.385 546.777 390.883 547.071Z" fill="#616161"/>
<path opacity="0.5" d="M293.25 352.657C291.655 352.97 290.674 354.428 290.987 356.022C291.299 357.616 292.852 358.578 294.353 358.284C295.948 357.971 296.91 356.419 296.616 354.919C296.322 353.418 294.751 352.363 293.25 352.657Z" fill="#616161"/>
<path opacity="0.5" d="M382.207 757.354C380.612 757.666 379.65 759.218 379.944 760.718C380.238 762.219 381.809 763.274 383.31 762.98C384.905 762.667 385.868 761.116 385.574 759.615C385.28 758.115 383.803 757.041 382.207 757.354Z" fill="#616161"/>
<path opacity="0.5" d="M298.627 664.476C297.032 664.789 295.975 666.359 296.288 667.953C296.6 669.547 298.171 670.603 299.766 670.29C301.361 669.978 302.418 668.407 302.105 666.813C301.793 665.219 300.222 664.164 298.627 664.476Z" fill="#616161"/>
<path opacity="0.5" d="M396.259 233.437C394.664 233.75 393.607 235.32 393.92 236.914C394.232 238.508 395.803 239.564 397.398 239.251C398.993 238.939 400.05 237.368 399.737 235.774C399.425 234.18 397.854 233.124 396.259 233.437Z" fill="#616161"/>
<path opacity="0.5" d="M245.061 695.423C243.372 695.754 242.316 697.324 242.647 699.012C242.959 700.606 244.549 701.756 246.238 701.425C247.927 701.094 248.983 699.523 248.652 697.835C248.321 696.147 246.75 695.092 245.061 695.423Z" fill="#616161"/>
<path opacity="0.5" d="M278.498 163.033C276.809 163.364 275.753 164.935 276.084 166.623C276.415 168.311 277.986 169.366 279.675 169.035C281.364 168.704 282.42 167.134 282.089 165.446C281.758 163.758 280.187 162.702 278.498 163.033Z" fill="#616161"/>
<path opacity="0.5" d="M249.711 751.964C248.053 752.289 246.445 751.209 246.121 749.552C245.796 747.895 246.877 746.288 248.535 745.963C250.193 745.638 251.801 746.718 252.126 748.375C252.451 750.032 251.37 751.639 249.711 751.964Z" fill="#616161"/>
<path opacity="0.5" d="M319.022 506.039C317.333 506.37 316.277 507.94 316.608 509.628C316.939 511.316 318.51 512.371 320.198 512.04C321.887 511.709 322.944 510.139 322.613 508.451C322.282 506.763 320.711 505.708 319.022 506.039Z" fill="#616161"/>
<path opacity="0.5" d="M247.424 483.749C245.735 484.08 244.603 485.762 244.934 487.45C245.265 489.138 246.948 490.269 248.637 489.938C250.326 489.607 251.457 487.924 251.127 486.236C250.796 484.548 249.113 483.418 247.424 483.749Z" fill="#616161"/>
<path opacity="0.5" d="M369.685 516.462C367.996 516.793 366.864 518.475 367.195 520.163C367.526 521.851 369.209 522.982 370.898 522.651C372.587 522.32 373.719 520.638 373.388 518.95C373.057 517.262 371.374 516.131 369.685 516.462Z" fill="#616161"/>
<path opacity="0.5" d="M303.508 540.727C301.819 541.058 300.687 542.74 301.018 544.428C301.349 546.116 303.032 547.247 304.721 546.916C306.41 546.585 307.542 544.902 307.211 543.215C306.974 541.508 305.291 540.377 303.508 540.727Z" fill="#616161"/>
<path opacity="0.5" d="M209.345 684.7C207.656 685.031 206.524 686.713 206.855 688.401C207.186 690.089 208.869 691.22 210.558 690.889C212.247 690.558 213.379 688.876 213.048 687.188C212.811 685.481 211.128 684.35 209.345 684.7Z" fill="#616161"/>
<path opacity="0.5" d="M302.215 451.101C300.432 451.451 299.3 453.133 299.649 454.915C299.999 456.697 301.682 457.828 303.465 457.478C305.247 457.129 306.379 455.446 306.03 453.665C305.587 451.901 303.904 450.77 302.215 451.101Z" fill="#616161"/>
<path opacity="0.5" d="M350.701 753.693C348.918 754.043 347.786 755.725 348.135 757.507C348.484 759.289 350.167 760.42 351.95 760.07C353.733 759.721 354.865 758.038 354.516 756.257C354.185 754.569 352.483 753.344 350.701 753.693Z" fill="#616161"/>
<path opacity="0.5" d="M277.106 733.644C275.323 733.993 274.191 735.676 274.54 737.458C274.889 739.239 276.572 740.37 278.355 740.021C280.138 739.671 281.27 737.989 280.921 736.207C280.571 734.425 278.888 733.295 277.106 733.644Z" fill="#616161"/>
<path opacity="0.5" d="M375.005 687.29C373.222 687.64 372.09 689.322 372.439 691.104C372.788 692.886 374.472 694.016 376.254 693.667C378.037 693.318 379.169 691.635 378.82 689.854C378.47 688.072 376.787 686.941 375.005 687.29Z" fill="#616161"/>
<path opacity="0.5" d="M342.86 669.44C341.078 669.789 339.87 671.584 340.22 673.366C340.569 675.148 342.364 676.354 344.147 676.004C345.93 675.655 347.137 673.86 346.788 672.079C346.439 670.297 344.737 669.072 342.86 669.44Z" fill="#616161"/>
<path opacity="0.5" d="M320.48 290.744C318.698 291.094 317.49 292.889 317.84 294.67C318.189 296.452 319.984 297.658 321.767 297.309C323.55 296.959 324.757 295.165 324.408 293.383C324.059 291.601 322.357 290.377 320.48 290.744Z" fill="#616161"/>
<path opacity="0.5" d="M346.867 586.469C344.99 586.837 343.783 588.631 344.15 590.507C344.518 592.382 346.313 593.588 348.19 593.221C350.066 592.853 351.274 591.058 350.906 589.183C350.539 587.307 348.743 586.101 346.867 586.469Z" fill="#616161"/>
<path opacity="0.5" d="M249.781 640.454C247.905 640.822 246.604 642.635 246.989 644.604C247.357 646.479 249.171 647.779 251.141 647.393C253.018 647.025 254.319 645.212 253.933 643.243C253.547 641.274 251.658 640.086 249.781 640.454Z" fill="#616161"/>
<path opacity="0.5" d="M178.764 792.16C176.888 792.528 175.587 794.341 175.973 796.31C176.34 798.185 178.154 799.485 180.124 799.099C182.001 798.732 183.302 796.918 182.916 794.949C182.436 792.998 180.641 791.792 178.764 792.16Z" fill="#616161"/>
<path opacity="0.5" d="M190.562 391.478C188.592 391.864 187.403 393.753 187.77 395.628C188.156 397.597 190.045 398.785 191.922 398.417C193.892 398.031 195.081 396.143 194.714 394.267C194.44 392.373 192.532 391.092 190.562 391.478Z" fill="#616161"/>
<path opacity="0.5" d="M333.657 456.917C331.686 457.303 330.404 459.21 330.79 461.179C331.175 463.148 333.083 464.43 335.053 464.044C337.024 463.658 338.213 461.769 337.827 459.8C337.516 457.718 335.627 456.531 333.657 456.917Z" fill="#616161"/>
<path opacity="0.5" d="M354.413 720.929C352.444 721.315 350.535 720.032 350.149 718.064C349.763 716.096 351.047 714.188 353.016 713.802C354.985 713.416 356.894 714.699 357.28 716.667C357.666 718.635 356.382 720.543 354.413 720.929Z" fill="#616161"/>
<path opacity="0.2275" d="M349.098 520.789L401.861 559.332C402.085 559.483 402.159 559.858 401.914 560.101C401.763 560.325 401.388 560.399 401.164 560.248L348.382 521.611C348.158 521.461 348.084 521.085 348.235 520.861C348.498 520.712 348.873 520.639 349.098 520.789Z" fill="#656565"/>
<path opacity="0.095878" d="M349.004 520.808L386.328 542.22C386.552 542.371 386.626 542.746 386.475 542.97C386.324 543.194 386.043 543.25 385.743 543.211L348.512 521.781C348.288 521.63 348.215 521.255 348.365 521.031C348.498 520.713 348.779 520.657 349.004 520.808Z" fill="#656565"/>
<path opacity="0.5" d="M446.98 544.453L401.763 560.325C401.482 560.381 401.163 560.248 401.108 559.967C401.053 559.686 401.186 559.367 401.467 559.312L446.684 543.44C446.966 543.385 447.284 543.517 447.339 543.798C447.394 544.08 447.262 544.398 446.98 544.453Z" fill="#656565"/>
<path opacity="0.2203" d="M329.215 621.187L401.204 559.461C401.467 559.312 401.749 559.257 401.991 559.502C402.14 559.764 402.196 560.046 401.951 560.288L329.961 622.014C329.698 622.163 329.398 622.125 329.174 621.974C328.931 621.729 328.952 621.336 329.215 621.187Z" fill="#656565"/>
<path opacity="0.4229" d="M446.792 544.49L386.042 543.249C385.742 543.211 385.5 542.966 385.538 542.667C385.577 542.367 385.822 542.124 386.122 542.163L446.89 543.497C447.19 543.535 447.433 543.78 447.394 544.08C447.337 544.286 447.092 544.528 446.792 544.49Z" fill="#656565"/>
<path opacity="0.5" d="M401.163 560.248L385.612 543.041C385.369 542.797 385.408 542.497 385.653 542.254C385.897 542.012 386.197 542.05 386.44 542.295L401.992 559.502C402.141 559.764 402.102 560.064 401.951 560.289C401.688 560.437 401.388 560.399 401.163 560.248Z" fill="#656565"/>
<path opacity="0.1701" d="M329.045 621.317L385.577 542.367C385.728 542.142 386.103 542.069 386.346 542.313C386.571 542.464 386.626 542.745 386.493 543.064L329.961 622.014C329.81 622.239 329.435 622.312 329.192 622.068C328.95 621.823 328.894 621.542 329.045 621.317Z" fill="#656565"/>
<path opacity="0.045668" d="M469.269 621.395L385.612 543.042C385.369 542.797 385.408 542.498 385.653 542.255C385.804 542.031 386.197 542.051 386.422 542.202L470.079 620.555C470.322 620.799 470.283 621.099 470.038 621.342C469.793 621.585 469.512 621.64 469.269 621.395Z" fill="#656565"/>
<path opacity="0.048565" d="M401.11 559.479L443.746 509.057C443.991 508.814 444.272 508.759 444.515 509.004C444.758 509.248 444.813 509.53 444.568 509.772L401.933 560.195C401.688 560.437 401.388 560.399 401.164 560.248C401.015 559.985 400.96 559.704 401.11 559.479Z" fill="#656565"/>
<path opacity="0.096762" d="M401.204 559.461L439.492 527.126C439.755 526.977 440.055 527.016 440.298 527.26C440.447 527.523 440.408 527.823 440.258 528.047L401.969 560.382C401.706 560.531 401.406 560.493 401.163 560.248C401.014 559.985 400.941 559.61 401.204 559.461Z" fill="#656565"/>
<path opacity="0.2727" d="M385.746 542.236L443.821 508.945C444.085 508.796 444.403 508.928 444.552 509.191C444.701 509.454 444.568 509.772 444.305 509.921L386.212 543.118C385.949 543.267 385.63 543.135 385.481 542.872C385.445 542.685 385.483 542.385 385.746 542.236Z" fill="#656565"/>
<path opacity="0.3202" d="M385.916 542.105L439.662 526.996C439.943 526.94 440.261 527.073 440.317 527.354C440.372 527.636 440.239 527.954 439.958 528.009L386.212 543.119C385.93 543.174 385.612 543.041 385.557 542.76C385.408 542.497 385.653 542.254 385.916 542.105Z" fill="#656565"/>
<path opacity="0.2183" d="M425.959 380.013L407.81 431.089C407.677 431.407 407.32 431.575 407.002 431.442C406.684 431.31 406.517 430.953 406.649 430.635L424.816 379.652C424.949 379.334 425.212 379.185 425.53 379.318C425.848 379.45 425.997 379.713 425.959 380.013Z" fill="#656565"/>
<path opacity="0.1905" d="M409.266 338.587L407.867 430.883C407.828 431.183 407.602 431.519 407.302 431.481C407.002 431.442 406.759 431.198 406.704 430.916L408.103 338.621C408.142 338.321 408.387 338.078 408.668 338.023C408.95 337.968 409.211 338.306 409.266 338.587Z" fill="#656565"/>
<path opacity="0.1599" d="M406.819 430.504L480.981 350.533C481.226 350.29 481.619 350.31 481.844 350.461C482.087 350.706 482.066 351.099 481.915 351.323L407.753 431.295C407.508 431.538 407.115 431.517 406.89 431.367C406.629 431.028 406.574 430.747 406.819 430.504Z" fill="#656565"/>
<path opacity="0.2937" d="M406.686 430.822L410.647 359.058C410.686 358.758 411.024 358.497 411.324 358.536C411.624 358.575 411.867 358.819 411.828 359.119L407.867 430.883C407.828 431.183 407.583 431.426 407.19 431.405C406.908 431.46 406.647 431.122 406.686 430.822Z" fill="#656565"/>
<path opacity="0.5" d="M272.416 578.955L262.728 605.588C262.595 605.906 262.238 606.073 261.92 605.941C261.602 605.808 261.434 605.452 261.567 605.134L271.255 578.501C271.387 578.183 271.744 578.016 272.063 578.148C272.287 578.299 272.454 578.656 272.416 578.955Z" fill="#656565"/>
<path opacity="0.3229" d="M370.346 313.009L411.661 358.762C411.904 359.006 411.883 359.4 411.639 359.643C411.394 359.885 411 359.865 410.757 359.621L369.461 313.962C369.218 313.717 369.332 313.305 369.577 313.062C369.803 312.726 370.103 312.764 370.346 313.009Z" fill="#656565"/>
<path opacity="0.2822" d="M370.582 564.293L450.472 510.563C450.735 510.414 451.129 510.434 451.39 510.772C451.539 511.035 451.518 511.429 451.18 511.69L371.29 565.421C371.027 565.57 370.633 565.549 370.372 565.211C370.205 564.854 370.319 564.442 370.582 564.293Z" fill="#656565"/>
<path opacity="0.2028" d="M271.669 578.128L370.864 564.239C371.239 564.165 371.482 564.41 371.555 564.785C371.629 565.16 371.384 565.403 371.009 565.476L271.814 579.366C271.439 579.439 271.196 579.195 271.122 578.82C271.143 578.426 271.387 578.183 271.669 578.128Z" fill="#656565"/>
<path opacity="0.106" d="M346.609 336.066L411.324 358.536C411.643 358.668 411.81 359.025 411.677 359.343C411.545 359.661 411.282 359.81 410.964 359.678L346.154 337.226C345.836 337.093 345.668 336.737 345.801 336.419C345.933 336.1 346.29 335.933 346.609 336.066Z" fill="#656565"/>
<path opacity="0.036104" d="M262.056 604.648L307.2 597.846C307.575 597.772 307.912 597.998 307.891 598.392C307.965 598.767 307.739 599.104 307.363 599.177L262.201 605.885C261.826 605.959 261.583 605.714 261.51 605.339C261.455 605.058 261.681 604.722 262.056 604.648Z" fill="#656565"/>
<path opacity="0.4468" d="M371.37 564.334L431.546 610.87C431.788 611.115 431.862 611.49 431.617 611.733C431.372 611.975 430.997 612.049 430.66 611.823L370.485 565.287C370.242 565.042 370.168 564.667 370.413 564.425C370.658 564.182 371.033 564.108 371.37 564.334Z" fill="#656565"/>
<path opacity="0.3184" d="M272.063 578.148L307.518 597.978C307.855 598.205 307.928 598.58 307.796 598.898C307.663 599.216 307.288 599.289 306.97 599.157L271.514 579.327C271.196 579.194 271.123 578.819 271.255 578.501C271.369 578.089 271.838 577.997 272.063 578.148Z" fill="#656565"/>
<path opacity="0.1716" d="M476.951 576.069L370.897 565.401C370.597 565.362 370.336 565.024 370.356 564.63C370.395 564.331 370.733 564.069 371.033 564.108L477.069 574.683C477.462 574.703 477.723 575.042 477.703 575.435C477.589 575.847 477.25 576.108 476.951 576.069Z" fill="#656565"/>
<path opacity="0.1451" d="M369.22 313.23L402.278 200.513C402.411 200.195 402.749 199.933 403.068 200.066C403.386 200.198 403.647 200.537 403.515 200.855L370.456 313.572C370.324 313.89 369.967 314.057 369.649 313.925C369.349 313.886 369.181 313.53 369.22 313.23Z" fill="#656565"/>
<path opacity="0.4458" d="M371.291 565.421L307.551 599.141C307.194 599.308 306.876 599.176 306.708 598.819C306.541 598.462 306.674 598.144 306.937 597.995L370.676 564.275C371.033 564.108 371.351 564.24 371.519 564.597C371.668 564.86 371.535 565.178 371.291 565.421Z" fill="#656565"/>
<path opacity="0.5" d="M370.324 313.89L346.811 337.097C346.566 337.34 346.172 337.32 345.93 337.075C345.687 336.831 345.707 336.437 345.952 336.194L369.465 312.987C369.71 312.745 370.103 312.765 370.346 313.009C370.589 313.254 370.569 313.647 370.324 313.89Z" fill="#656565"/>
<path opacity="0.1257" d="M431.072 611.937L307.157 599.12C306.763 599.1 306.502 598.762 306.522 598.368C306.543 597.975 306.881 597.714 307.275 597.734L431.19 610.55C431.584 610.57 431.751 610.927 431.731 611.321C431.711 611.714 431.372 611.975 431.072 611.937Z" fill="#656565"/>
<path opacity="0.095671" d="M370.215 312.84L458.567 365.929C458.904 366.155 458.978 366.53 458.751 366.866C458.525 367.203 458.15 367.277 457.925 367.126L369.555 313.943C369.218 313.717 369.145 313.342 369.371 313.005C369.522 312.781 369.897 312.708 370.215 312.84Z" fill="#656565"/>
<path opacity="0.2048" d="M365.471 529.266L371.649 564.767C371.723 565.142 371.496 565.478 371.103 565.458C370.727 565.532 370.391 565.305 370.411 564.912L364.139 529.43C364.066 529.055 364.292 528.718 364.668 528.645C365.043 528.571 365.398 528.891 365.471 529.266Z" fill="#656565"/>
<path opacity="0.029308" d="M365.304 528.909L431.658 610.946C431.807 611.209 431.786 611.602 431.448 611.863C431.185 612.012 430.791 611.992 430.642 611.729L364.307 529.786C364.046 529.448 364.066 529.055 364.404 528.793C364.649 528.551 365.061 528.665 365.304 528.909Z" fill="#656565"/>
<path opacity="0.1489" d="M346.59 335.972L458.362 365.872C458.774 365.986 458.941 366.342 458.808 366.66C458.676 366.979 458.337 367.24 458.019 367.107L346.248 337.207C345.929 337.075 345.668 336.737 345.801 336.418C345.84 336.119 346.197 335.951 346.59 335.972Z" fill="#656565"/>
<path opacity="0.2865" d="M296.618 702.945L306.541 598.462C306.561 598.069 306.9 597.808 307.312 597.922C307.706 597.942 307.873 598.299 307.834 598.598L298.005 703.063C297.984 703.456 297.627 703.624 297.234 703.604C296.934 703.565 296.691 703.32 296.618 702.945Z" fill="#656565"/>
<path opacity="0.1685" d="M369.555 313.943L324.255 284.649C323.919 284.423 323.845 284.048 324.071 283.711C324.298 283.375 324.673 283.301 325.01 283.527L370.215 312.84C370.552 313.066 370.626 313.441 370.381 313.684C370.267 314.096 369.798 314.188 369.555 313.943Z" fill="#656565"/>
<path opacity="0.080652" d="M364.986 528.777L477.199 574.853C477.517 574.985 477.685 575.342 477.552 575.66C477.42 575.978 477.063 576.145 476.744 576.013L364.531 529.937C364.213 529.805 364.027 529.354 364.16 529.036C364.292 528.718 364.668 528.645 364.986 528.777Z" fill="#656565"/>
<path opacity="0.1799" d="M263.522 500.264L307.779 598.317C307.946 598.673 307.72 599.01 307.363 599.177C307.1 599.326 306.688 599.212 306.521 598.855L262.17 500.822C262.003 500.465 262.211 500.035 262.586 499.961C263.037 499.775 263.355 499.908 263.522 500.264Z" fill="#656565"/>
<path opacity="0.2139" d="M365.282 529.79L307.702 598.917C307.457 599.159 307.082 599.233 306.745 599.007C306.502 598.762 306.429 598.387 306.673 598.144L364.235 528.924C364.462 528.587 364.949 528.589 365.192 528.834C365.529 529.06 365.527 529.547 365.282 529.79Z" fill="#656565"/>
<path opacity="0.057505" d="M324.165 283.693L402.523 200.27C402.768 200.027 403.143 199.954 403.48 200.18C403.723 200.425 403.702 200.818 403.476 201.155L325.23 284.653C324.986 284.896 324.498 284.894 324.255 284.649C323.9 284.329 323.921 283.936 324.165 283.693Z" fill="#656565"/>
<path opacity="0.3629" d="M325.271 283.866L347.057 336.367C347.225 336.724 346.998 337.06 346.735 337.209C346.378 337.377 346.042 337.151 345.893 336.888L324.106 284.386C323.939 284.03 324.147 283.599 324.522 283.526C324.692 283.395 325.122 283.603 325.271 283.866Z" fill="#656565"/>
<path opacity="0.2854" d="M364.549 530.031L262.731 501.199C262.319 501.085 262.151 500.728 262.266 500.316C262.38 499.904 262.737 499.737 263.055 499.869L364.874 528.701C365.286 528.815 365.453 529.172 365.339 529.584C365.3 529.883 364.943 530.051 364.549 530.031Z" fill="#656565"/>
<path opacity="0.1311" d="M365.323 529.003L440.887 633.676C441.148 634.014 441.034 634.426 440.677 634.594C440.338 634.855 439.926 634.741 439.665 634.402L364.101 529.729C363.84 529.391 363.954 528.979 364.311 528.812C364.668 528.644 365.062 528.665 365.323 529.003Z" fill="#656565"/>
<path opacity="0.011351" d="M344.173 631.888L306.745 599.007C306.502 598.762 306.428 598.387 306.655 598.051C306.9 597.808 307.275 597.734 307.518 597.979L344.928 630.767C345.17 631.011 345.262 631.48 344.924 631.741C344.903 632.135 344.51 632.115 344.173 631.888Z" fill="#656565"/>
<path opacity="0.2718" d="M364.968 528.683L459.4 561.591C459.719 561.724 459.904 562.174 459.772 562.492C459.639 562.81 459.282 562.978 458.87 562.864L364.437 529.955C364.119 529.823 363.952 529.466 363.972 529.072C364.217 528.83 364.649 528.55 364.968 528.683Z" fill="#656565"/>
<path opacity="0.3227" d="M319.192 444.756L263.369 500.976C263.125 501.219 262.637 501.217 262.394 500.973C262.151 500.728 262.172 500.335 262.416 500.092L318.22 443.778C318.465 443.535 318.953 443.537 319.196 443.781C319.532 444.008 319.53 444.495 319.192 444.756Z" fill="#656565"/>
<path opacity="0.2938" d="M319.326 443.95L365.341 529.096C365.508 529.453 365.394 529.865 365.037 530.032C364.68 530.199 364.268 530.085 364.101 529.729L318.086 444.583C317.919 444.226 318.127 443.796 318.484 443.628C318.765 443.573 319.159 443.593 319.326 443.95Z" fill="#656565"/>
<path opacity="0.203" d="M365.414 529.472L345.356 631.462C345.242 631.873 344.903 632.135 344.491 632.021C344.079 631.907 343.818 631.568 343.932 631.156L364.084 529.148C364.198 528.736 364.555 528.569 364.967 528.683C365.285 528.815 365.453 529.172 365.414 529.472Z" fill="#656565"/>
<path opacity="0.303" d="M344.704 630.616L440.326 633.299C440.719 633.319 440.981 633.658 440.96 634.051C440.94 634.445 440.601 634.706 440.302 634.667L344.679 631.984C344.286 631.964 343.931 631.644 343.951 631.25C343.99 630.95 344.31 630.596 344.704 630.616Z" fill="#656565"/>
<path opacity="0.03313" d="M485.925 662.632L344.492 632.021C344.079 631.907 343.912 631.55 343.932 631.156C344.047 630.745 344.403 630.577 344.703 630.616L486.043 661.246C486.455 661.36 486.622 661.716 486.602 662.11C486.676 662.485 486.243 662.764 485.925 662.632Z" fill="#656565"/>
<path opacity="0.2253" d="M390.964 550.465L364.325 529.88C363.989 529.654 363.991 529.167 364.235 528.924C364.48 528.681 364.855 528.608 365.192 528.834L391.906 549.306C392.243 549.532 392.241 550.019 392.015 550.356C391.77 550.599 391.301 550.691 390.964 550.465Z" fill="#656565"/>
<path opacity="0.1402" d="M459.545 562.829L345.073 632.004C344.716 632.171 344.304 632.057 344.136 631.7C343.969 631.344 344.083 630.932 344.346 630.783L458.837 561.702C459.194 561.534 459.606 561.648 459.774 562.005C459.923 562.268 459.809 562.68 459.545 562.829Z" fill="#656565"/>
<path opacity="0.1016" d="M392.055 549.569L440.887 633.676C441.054 634.033 440.94 634.445 440.583 634.612C440.32 634.761 439.908 634.647 439.759 634.384L390.834 550.295C390.666 549.939 390.78 549.527 391.119 549.266C391.457 549.004 391.888 549.212 392.055 549.569Z" fill="#656565"/>
<path opacity="0.3795" d="M391.588 549.173L459.306 561.61C459.7 561.63 459.98 562.062 459.847 562.38C459.827 562.774 459.394 563.053 459.076 562.921L391.376 550.578C390.964 550.464 390.703 550.126 390.817 549.714C390.837 549.32 391.176 549.059 391.588 549.173Z" fill="#656565"/>
<path opacity="0.1372" d="M325.287 284.447L294.457 355.829C294.343 356.241 293.873 356.333 293.461 356.219C293.049 356.105 292.957 355.636 293.072 355.224L324.014 283.917C324.147 283.599 324.598 283.413 324.934 283.639C325.234 283.678 325.402 284.035 325.287 284.447Z" fill="#656565"/>
<path opacity="0.065818" d="M319.308 443.857L392.037 549.475C392.204 549.832 392.09 550.244 391.845 550.486C391.488 550.654 391.095 550.633 390.927 550.277L318.292 444.64C318.125 444.283 318.145 443.89 318.502 443.723C318.653 443.498 319.047 443.518 319.308 443.857Z" fill="#656565"/>
<path opacity="0.2139" d="M318.068 444.489L293.069 355.712C292.996 355.337 293.204 354.906 293.579 354.833C293.955 354.759 294.291 354.985 294.459 355.342L319.363 444.138C319.437 444.513 319.229 444.944 318.853 445.017C318.572 445.072 318.141 444.865 318.068 444.489Z" fill="#656565"/>
<path opacity="0.3339" d="M392.09 550.244L345.318 631.761C345.091 632.098 344.622 632.19 344.285 631.964C343.949 631.737 343.875 631.362 344.008 631.044L390.78 549.527C391.007 549.19 391.476 549.098 391.812 549.324C392.131 549.457 392.223 549.926 392.09 550.244Z" fill="#656565"/>
<path opacity="0.1008" d="M382.027 760.408L343.912 631.55C343.838 631.175 344.046 630.744 344.422 630.671C344.797 630.597 345.134 630.823 345.283 631.086L383.397 759.945C383.471 760.32 383.263 760.75 382.888 760.824C382.624 760.973 382.194 760.765 382.027 760.408Z" fill="#656565"/>
<path opacity="0.343" d="M383.006 759.437L463.384 785.265C463.703 785.397 463.888 785.848 463.756 786.166C463.623 786.484 463.266 786.651 462.967 786.612L382.494 760.803C382.082 760.689 381.896 760.239 382.01 759.827C382.255 759.584 382.612 759.417 383.006 759.437Z" fill="#656565"/>
<path opacity="0.068237" d="M383.024 759.531L515.65 812.318C516.062 812.432 516.248 812.883 516.021 813.219C515.907 813.631 515.438 813.723 515.12 813.591L382.4 760.822C382.064 760.596 381.896 760.239 382.01 759.828C382.349 759.566 382.706 759.399 383.024 759.531Z" fill="#656565"/>
<path opacity="0.3815" d="M298.787 666.782L344.253 630.801C344.591 630.54 344.985 630.56 345.246 630.899C345.507 631.237 345.487 631.631 345.148 631.892L299.701 667.966C299.362 668.228 298.875 668.226 298.614 667.887C298.352 667.549 298.448 667.044 298.787 666.782Z" fill="#656565"/>
<path opacity="0.1459" d="M403.634 693.171L344.079 631.906C343.818 631.568 343.839 631.175 344.177 630.914C344.422 630.671 344.816 630.691 345.152 630.917L404.707 692.181C404.968 692.52 404.966 693.007 404.627 693.268C404.477 693.492 403.989 693.491 403.634 693.171Z" fill="#656565"/>
<path opacity="0.027348" d="M485.429 325.998L396.34 236.83C396.079 236.492 396.08 236.004 396.325 235.762C396.664 235.5 397.151 235.502 397.394 235.747L486.39 324.934C486.651 325.272 486.631 325.666 486.292 325.927C486.066 326.263 485.672 326.243 485.429 325.998Z" fill="#656565"/>
<path opacity="0.4126" d="M390.95 549.396L438.282 501.558C438.62 501.297 439.108 501.299 439.351 501.544C439.612 501.882 439.591 502.276 439.365 502.612L392.015 550.356C391.77 550.598 391.282 550.597 390.946 550.37C390.609 550.144 390.611 549.657 390.95 549.396Z" fill="#656565"/>
<path opacity="0.080264" d="M392.015 550.355L299.87 667.836C299.55 668.191 299.156 668.17 298.819 667.944C298.483 667.718 298.485 667.231 298.711 666.894L390.856 549.414C391.082 549.078 391.57 549.079 391.906 549.306C392.243 549.532 392.241 550.019 392.015 550.355Z" fill="#656565"/>
<path opacity="0.05808" d="M392.204 549.831L404.986 692.613C405.06 692.988 404.74 693.343 404.271 693.435C403.895 693.509 403.446 693.207 403.448 692.72L390.76 549.92C390.78 549.526 391.007 549.19 391.494 549.192C391.776 549.136 392.131 549.456 392.204 549.831Z" fill="#656565"/>
<path opacity="0.1271" d="M462.464 470.333L392.015 550.356C391.788 550.692 391.301 550.69 390.964 550.464C390.627 550.238 390.629 549.751 390.856 549.414L461.287 469.298C461.607 468.943 462.001 468.963 462.338 469.189C462.693 469.509 462.784 469.978 462.464 470.333Z" fill="#656565"/>
<path opacity="0.3186" d="M470.823 306.658L396.339 236.829C396.078 236.491 396.08 236.004 396.325 235.761C396.663 235.5 397.057 235.52 397.394 235.746L471.784 305.594C472.139 305.914 472.119 306.307 471.799 306.662C471.572 306.999 471.085 306.997 470.823 306.658Z" fill="#656565"/>
<path opacity="0.216" d="M382.269 760.653L298.707 667.869C298.446 667.531 298.448 667.044 298.787 666.783C299.125 666.521 299.519 666.542 299.874 666.862L383.454 759.739C383.716 760.077 383.714 760.565 383.375 760.826C382.924 761.011 382.531 760.991 382.269 760.653Z" fill="#656565"/>
<path opacity="0.5" d="M421.225 231.564L397.07 237.076C396.695 237.15 396.246 236.849 396.172 236.473C396.099 236.098 396.307 235.668 396.776 235.576L420.949 230.157C421.325 230.083 421.755 230.291 421.847 230.76C421.808 231.06 421.582 231.396 421.225 231.564Z" fill="#656565"/>
<path opacity="0.46" d="M382.047 760.015L403.487 692.421C403.601 692.009 404.052 691.823 404.464 691.937C404.876 692.051 405.062 692.502 404.929 692.82L383.49 760.414C383.375 760.826 382.925 761.012 382.512 760.898C382.194 760.765 381.915 760.333 382.047 760.015Z" fill="#656565"/>
<path opacity="0.3039" d="M470.458 323.187L396.227 236.754C395.966 236.416 395.968 235.929 396.307 235.668C396.645 235.406 397.133 235.408 397.394 235.747L471.53 322.198C471.792 322.536 471.696 323.042 471.339 323.209C471.206 323.527 470.719 323.525 470.458 323.187Z" fill="#656565"/>
<path opacity="0.1026" d="M396.494 235.631L524.454 165.176C524.811 165.009 525.317 165.104 525.485 165.461C525.652 165.818 525.556 166.323 525.199 166.491L397.333 236.927C396.976 237.094 396.47 236.999 396.303 236.642C395.948 236.322 396.156 235.892 396.494 235.631Z" fill="#656565"/>
<path opacity="0.3535" d="M382.443 759.548L450.48 724.889C450.837 724.721 451.343 724.817 451.529 725.267C451.696 725.624 451.601 726.13 451.15 726.316L383.094 760.881C382.737 761.048 382.325 760.934 382.139 760.484C381.972 760.127 382.086 759.715 382.443 759.548Z" fill="#656565"/>
<path opacity="0.3344" d="M299.443 666.654L404.464 691.937C404.876 692.051 405.155 692.483 405.041 692.895C404.927 693.307 404.589 693.568 404.177 693.454L299.156 668.171C298.744 668.057 298.483 667.719 298.579 667.213C298.599 666.82 299.031 666.54 299.443 666.654Z" fill="#656565"/>
<path opacity="0.036604" d="M391.076 550.54L319.158 509.713C318.821 509.487 318.636 509.037 318.844 508.606C319.07 508.27 319.521 508.084 319.857 508.31L391.7 549.249C392.037 549.475 392.129 549.944 391.902 550.281C391.864 550.58 391.395 550.672 391.076 550.54Z" fill="#656565"/>
<path opacity="0.011726" d="M382.512 760.898L245.403 699.155C244.973 698.947 244.881 698.478 245.107 698.141C245.334 697.805 245.69 697.638 246.103 697.752L383.118 759.513C383.455 759.739 383.622 760.096 383.508 760.508C383.281 760.844 382.831 761.03 382.512 760.898Z" fill="#656565"/>
<path opacity="0.01" d="M420.719 231.468L278.728 166.689C278.298 166.481 278.112 166.031 278.338 165.694C278.546 165.264 278.997 165.078 279.334 165.304L421.249 230.195C421.68 230.403 421.753 230.778 421.639 231.19C421.507 231.508 421.056 231.694 420.719 231.468Z" fill="#656565"/>
<path opacity="0.065112" d="M382.719 760.954L249.083 749.751C248.69 749.731 248.316 749.317 248.43 748.905C248.451 748.511 248.865 748.138 249.258 748.158L382.912 759.456C383.306 759.476 383.585 759.908 383.565 760.302C383.432 760.62 383.112 760.975 382.719 760.954Z" fill="#656565"/>
<path opacity="0.5" d="M245.222 697.729L298.768 666.689C299.125 666.521 299.631 666.617 299.799 666.974C299.966 667.33 299.87 667.836 299.513 668.003L245.966 699.044C245.609 699.211 245.104 699.116 244.936 698.759C244.769 698.402 244.883 697.99 245.222 697.729Z" fill="#656565"/>
<path opacity="0.073594" d="M245.596 697.656L404.164 691.899C404.558 691.919 404.913 692.239 404.892 692.632C404.872 693.026 404.646 693.362 404.158 693.36L245.591 699.118C245.197 699.098 244.842 698.778 244.768 698.403C244.883 697.991 245.203 697.636 245.596 697.656Z" fill="#656565"/>
<path opacity="0.1931" d="M438.82 502.816L319.664 509.809C319.27 509.789 318.821 509.487 318.842 509.094C318.844 508.606 319.164 508.252 319.558 508.272L438.732 501.373C439.126 501.393 439.481 501.713 439.555 502.088C439.534 502.482 439.214 502.837 438.82 502.816Z" fill="#656565"/>
<path opacity="0.3672" d="M248.451 748.512L298.524 666.932C298.75 666.595 299.219 666.503 299.556 666.729C299.893 666.956 299.984 667.424 299.852 667.743L249.779 749.323C249.552 749.659 249.102 749.845 248.671 749.637C248.335 749.411 248.243 748.942 248.451 748.512Z" fill="#656565"/>
<path opacity="0.1993" d="M279.445 165.379L397.188 235.689C397.524 235.916 397.616 236.384 397.39 236.721C397.163 237.057 396.694 237.149 396.376 237.017L278.634 166.707C278.297 166.481 278.112 166.03 278.32 165.6C278.64 165.245 279.109 165.153 279.445 165.379Z" fill="#656565"/>
<path opacity="0.042831" d="M248.883 748.232L403.977 691.935C404.352 691.862 404.782 692.069 404.95 692.426C405.023 692.801 404.891 693.119 404.534 693.287L249.459 749.678C249.102 749.845 248.577 749.656 248.486 749.187C248.224 748.848 248.432 748.418 248.883 748.232Z" fill="#656565"/>
<path opacity="0.307" d="M439.008 502.78L370.533 520.289C370.063 520.381 369.633 520.173 369.541 519.704C369.468 519.329 369.676 518.899 370.126 518.713L438.62 501.298C438.996 501.224 439.426 501.432 439.518 501.901C439.591 502.276 439.383 502.706 439.008 502.78Z" fill="#656565"/>
<path opacity="0.1108" d="M462.108 470.5L319.852 509.772C319.383 509.864 318.952 509.656 318.86 509.187C318.768 508.718 318.976 508.288 319.445 508.196L461.72 469.018C462.095 468.944 462.525 469.152 462.599 469.527C462.691 469.996 462.483 470.427 462.108 470.5Z" fill="#656565"/>
<path opacity="0.03827" d="M383.508 760.508L352.883 831.947C352.675 832.377 352.224 832.563 351.794 832.355C351.364 832.147 351.178 831.697 351.386 831.267L382.123 759.903C382.237 759.491 382.706 759.399 383.118 759.513C383.436 759.645 383.622 760.096 383.508 760.508Z" fill="#656565"/>
<path opacity="0.2808" d="M462.295 470.463L370.702 520.158C370.345 520.326 369.839 520.23 369.578 519.892C369.41 519.535 369.506 519.029 369.939 518.75L461.626 469.036C461.983 468.869 462.489 468.965 462.656 469.321C462.748 469.79 462.652 470.296 462.295 470.463Z" fill="#656565"/>
<path opacity="0.4411" d="M426.555 211.53L397.427 236.909C397.088 237.17 396.601 237.168 396.34 236.83C396.078 236.491 396.099 236.098 396.419 235.743L425.547 210.364C425.886 210.103 426.374 210.105 426.635 210.443C426.896 210.782 426.894 211.269 426.555 211.53Z" fill="#656565"/>
<path opacity="0.1657" d="M299.438 668.115L210.211 688.62C209.742 688.712 209.293 688.411 209.22 688.036C209.128 687.567 209.43 687.118 209.805 687.045L299.05 666.633C299.425 666.56 299.856 666.768 299.948 667.236C300.021 667.612 299.813 668.042 299.438 668.115Z" fill="#656565"/>
<path opacity="0.5" d="M248.355 749.017L244.881 698.478C244.901 698.084 245.203 697.636 245.597 697.656C245.991 697.676 246.439 697.978 246.419 698.371L249.893 748.911C249.873 749.304 249.571 749.753 249.177 749.733C248.784 749.712 248.429 749.392 248.355 749.017Z" fill="#656565"/>
<path opacity="0.042161" d="M299.927 667.63L278.461 737.08C278.347 737.492 277.821 737.79 277.409 737.676C276.997 737.562 276.699 737.036 276.813 736.624L298.391 667.25C298.505 666.838 298.956 666.652 299.368 666.766C299.874 666.862 300.041 667.218 299.927 667.63Z" fill="#656565"/>
<path opacity="0.027991" d="M249.875 748.816L284.337 914.226C284.429 914.694 284.109 915.049 283.733 915.123C283.358 915.196 282.909 914.895 282.836 914.52L248.373 749.111C248.281 748.642 248.602 748.287 248.977 748.213C249.446 748.121 249.783 748.348 249.875 748.816Z" fill="#656565"/>
<path opacity="0.044765" d="M425.805 211.677L278.84 166.764C278.428 166.65 278.242 166.2 278.356 165.788C278.471 165.376 278.921 165.19 279.333 165.304L426.298 210.217C426.71 210.331 426.99 210.763 426.782 211.194C426.667 211.605 426.217 211.791 425.805 211.677Z" fill="#656565"/>
<path opacity="0.026526" d="M477.692 244.257L396.77 237.038C396.376 237.017 396.097 236.585 396.117 236.192C396.137 235.798 396.57 235.519 396.963 235.539L477.942 242.553C478.43 242.555 478.709 242.987 478.707 243.474C478.612 243.98 478.179 244.259 477.692 244.257Z" fill="#656565"/>
<path opacity="0.1159" d="M350.747 756.412L403.638 692.196C403.864 691.86 404.352 691.862 404.689 692.088C405.025 692.314 405.023 692.801 404.797 693.138L352.018 757.428C351.697 757.783 351.21 757.781 350.873 757.555C350.424 757.254 350.426 756.766 350.747 756.412Z" fill="#656565"/>
<path opacity="0.2018" d="M370.221 518.695L509.845 518.695C510.238 518.715 510.593 519.035 510.591 519.522C510.571 519.916 510.251 520.271 509.763 520.269L370.139 520.269C369.652 520.267 369.39 519.929 369.299 519.46C369.507 519.029 369.827 518.675 370.221 518.695Z" fill="#656565"/>
<path opacity="0.5" d="M319.364 509.77L247.878 487.555C247.466 487.441 247.262 486.897 247.395 486.579C247.509 486.167 247.96 485.981 248.372 486.095L319.858 508.31C320.27 508.424 320.549 508.856 320.341 509.287C320.227 509.698 319.776 509.884 319.364 509.77Z" fill="#656565"/>
<path opacity="0.5" d="M319.745 508.235L370.408 518.658C370.82 518.772 371.1 519.204 370.986 519.616C370.871 520.028 370.439 520.307 370.027 520.193L319.364 509.77C318.952 509.656 318.673 509.224 318.787 508.812C318.901 508.401 319.352 508.215 319.745 508.235Z" fill="#656565"/>
<path opacity="0.5" d="M245.403 699.154L209.724 688.619C209.311 688.505 209.014 687.979 209.222 687.549C209.336 687.137 209.768 686.857 210.18 686.971L245.878 697.601C246.29 697.715 246.57 698.147 246.362 698.577C246.266 699.083 245.815 699.268 245.403 699.154Z" fill="#656565"/>
<path opacity="0.1407" d="M351.085 756.15L450.574 724.87C450.931 724.703 451.38 725.004 451.547 725.361C451.714 725.718 451.413 726.166 451.056 726.334L351.585 757.708C351.116 757.8 350.685 757.592 350.593 757.123C350.501 756.654 350.709 756.224 351.085 756.15Z" fill="#656565"/>
<path opacity="0.041783" d="M249.875 748.817L289.435 914.882C289.527 915.351 289.225 915.8 288.85 915.873C288.474 915.947 288.044 915.739 287.858 915.289L248.298 749.223C248.206 748.754 248.526 748.399 248.901 748.326C249.352 748.14 249.783 748.348 249.875 748.817Z" fill="#656565"/>
<path opacity="0.2726" d="M370.045 520.287L247.878 487.555C247.466 487.441 247.186 487.009 247.3 486.597C247.415 486.185 247.847 485.906 248.259 486.02L370.426 518.751C370.838 518.865 371.118 519.298 371.004 519.709C370.889 520.121 370.457 520.401 370.045 520.287Z" fill="#656565"/>
<path opacity="0.5" d="M303.46 543.464L318.956 508.682C319.164 508.251 319.615 508.066 319.951 508.292C320.382 508.5 320.568 508.95 320.36 509.38L304.957 544.144C304.749 544.574 304.28 544.666 303.85 544.458C303.438 544.344 303.252 543.894 303.46 543.464Z" fill="#656565"/>
<path opacity="0.4685" d="M248.428 749.392L209.275 688.317C209.013 687.978 209.109 687.473 209.542 687.193C209.88 686.932 210.386 687.028 210.666 687.46L249.838 748.629C250.099 748.967 249.909 749.491 249.571 749.752C249.195 749.826 248.689 749.73 248.428 749.392Z" fill="#656565"/>
<path opacity="0.031721" d="M246.009 697.77L351.685 756.228C352.115 756.435 352.226 756.998 351.999 757.334C351.791 757.765 351.228 757.875 350.892 757.649L245.197 699.097C244.861 698.871 244.675 698.421 244.995 698.066C245.203 697.636 245.672 697.544 246.009 697.77Z" fill="#656565"/>
<path opacity="0.1706" d="M249.595 748.385L352.587 830.934C352.942 831.254 353.034 831.723 352.714 832.077C352.394 832.432 351.924 832.524 351.569 832.204L248.653 749.543C248.298 749.223 248.206 748.754 248.526 748.4C248.771 748.157 249.24 748.065 249.595 748.385Z" fill="#656565"/>
<path opacity="0.3004" d="M246.233 697.92L278.296 736.235C278.557 736.574 278.555 737.061 278.141 737.434C277.802 737.695 277.315 737.693 276.96 737.374L244.973 698.946C244.712 698.608 244.807 698.102 245.146 697.841C245.484 697.58 245.972 697.582 246.233 697.92Z" fill="#656565"/>
<path opacity="0.4949" d="M303.55 544.419L247.466 487.441C247.205 487.103 247.207 486.615 247.545 486.354C247.884 486.093 248.371 486.095 248.614 486.34L304.698 543.318C305.053 543.638 304.957 544.143 304.731 544.48C304.392 544.741 303.905 544.739 303.55 544.419Z" fill="#656565"/>
<path opacity="0.5" d="M318.878 509.281L302.108 454.531C301.922 454.08 302.224 453.631 302.693 453.539C303.162 453.448 303.593 453.655 303.684 454.124L320.455 508.874C320.547 509.343 320.339 509.773 319.964 509.847C319.401 509.957 318.952 509.656 318.878 509.281Z" fill="#656565"/>
<path opacity="0.5" d="M303.874 543.091L369.939 518.75C370.389 518.565 370.82 518.772 371.006 519.223C371.191 519.673 370.983 520.104 370.533 520.289L304.468 544.63C304.017 544.815 303.586 544.608 303.401 544.157C303.215 543.707 303.423 543.276 303.874 543.091Z" fill="#656565"/>
<path opacity="0.1392" d="M459.797 923.076L351.569 832.204C351.214 831.885 351.216 831.397 351.537 831.042C351.857 830.687 352.344 830.689 352.681 830.915L460.833 921.899C461.188 922.219 461.187 922.706 460.96 923.042C460.622 923.303 460.152 923.395 459.797 923.076Z" fill="#656565"/>
<path opacity="0.1804" d="M249.164 748.177L351.366 756.095C351.854 756.097 352.133 756.529 352.131 757.017C352.13 757.504 351.697 757.783 351.21 757.782L248.989 749.77C248.596 749.749 248.222 749.336 248.243 748.942C248.338 748.437 248.771 748.157 249.164 748.177Z" fill="#656565"/>
<path opacity="0.4299" d="M248.789 748.251L277.378 736.026C277.829 735.841 278.259 736.048 278.445 736.499C278.63 736.949 278.422 737.38 277.972 737.565L249.365 749.696C249.008 749.863 248.483 749.674 248.316 749.317C248.224 748.848 248.432 748.418 248.789 748.251Z" fill="#656565"/>
<path opacity="0.4967" d="M303.269 454.985L248.46 487.539C248.103 487.706 247.597 487.61 247.336 487.272C247.074 486.934 247.264 486.41 247.603 486.149L302.318 453.613C302.656 453.352 303.181 453.542 303.442 453.88C303.703 454.218 303.607 454.724 303.269 454.985Z" fill="#656565"/>
<path opacity="0.4332" d="M303.405 453.692L370.857 518.959C371.212 519.279 371.21 519.767 370.89 520.122C370.569 520.476 370.082 520.475 369.727 520.155L302.294 454.981C301.939 454.661 302.034 454.156 302.354 453.801C302.581 453.464 303.05 453.372 303.405 453.692Z" fill="#656565"/>
<path opacity="0.041034" d="M304.882 544.256L210.719 688.229C210.493 688.565 209.93 688.676 209.593 688.45C209.256 688.223 209.052 687.679 209.372 687.324L303.441 543.37C303.668 543.033 304.231 542.923 304.567 543.149C304.998 543.357 305.108 543.919 304.882 544.256Z" fill="#656565"/>
<path opacity="0.483" d="M303.346 543.875L301.977 454.361C301.979 453.874 302.412 453.595 302.805 453.615C303.199 453.635 303.554 453.955 303.628 454.33L304.996 543.844C304.994 544.331 304.562 544.61 304.168 544.59C303.68 544.588 303.419 544.25 303.346 543.875Z" fill="#656565"/>
<path opacity="0.2959" d="M350.991 756.169L469.425 704.719C469.875 704.534 470.306 704.741 470.473 705.098C470.659 705.549 470.451 705.979 470.094 706.146L351.66 757.596C351.21 757.782 350.779 757.574 350.593 757.123C350.426 756.767 350.634 756.336 350.991 756.169Z" fill="#656565"/>
<path opacity="0.053261" d="M518.491 852.172L352 832.412C351.588 832.298 351.233 831.978 351.329 831.472C351.349 831.079 351.763 830.706 352.175 830.82L518.666 850.58C519.078 850.694 519.452 851.108 519.338 851.52C519.317 851.913 518.885 852.193 518.491 852.172Z" fill="#656565"/>
<path opacity="0.4922" d="M277.166 737.431L209.499 688.468C209.162 688.242 209.052 687.679 209.279 687.342C209.505 687.006 210.068 686.896 210.405 687.122L278.165 736.066C278.52 736.386 278.612 736.855 278.386 737.192C278.084 737.64 277.615 737.732 277.166 737.431Z" fill="#656565"/>
<path opacity="0.5" d="M352.207 756.904L352.904 831.553C352.902 832.041 352.581 832.396 352.094 832.394C351.606 832.392 351.251 832.072 351.253 831.585L350.557 756.935C350.559 756.448 350.973 756.075 351.367 756.095C351.76 756.115 352.115 756.435 352.207 756.904Z" fill="#656565"/>
<path opacity="0.4329" d="M375.746 689.58L469.988 704.609C470.4 704.723 470.679 705.155 470.565 705.567C470.451 705.979 470.112 706.24 469.719 706.22L375.496 691.285C374.99 691.189 374.71 690.757 374.824 690.345C374.826 689.858 375.259 689.578 375.746 689.58Z" fill="#656565"/>
<path opacity="0.3063" d="M351.439 832.035L277.035 737.262C276.774 736.923 276.87 736.418 277.19 736.063C277.529 735.802 278.035 735.897 278.296 736.236L352.718 831.103C352.979 831.441 352.883 831.947 352.545 832.208C352.206 832.469 351.7 832.373 351.439 832.035Z" fill="#656565"/>
<path opacity="0.1563" d="M413.312 706.757L352.771 831.871C352.563 832.302 352.093 832.394 351.663 832.186C351.233 831.978 351.141 831.509 351.255 831.097L411.796 705.983C412.004 705.553 412.567 705.442 412.904 705.669C413.352 705.97 413.538 706.421 413.312 706.757Z" fill="#656565"/>
<path opacity="0.1356" d="M376.436 690.613L352.846 831.759C352.732 832.171 352.318 832.544 351.906 832.43C351.494 832.316 351.12 831.903 351.234 831.491L374.73 690.363C374.826 689.858 375.258 689.578 375.67 689.692C376.158 689.694 376.531 690.108 376.436 690.613Z" fill="#656565"/>
<path opacity="0.074444" d="M426.461 211.549L321.646 294.704C321.308 294.965 320.726 294.981 320.447 294.549C320.186 294.211 320.263 293.611 320.601 293.35L425.529 210.271C425.867 210.01 426.355 210.012 426.634 210.444C426.896 210.782 426.8 211.288 426.461 211.549Z" fill="#656565"/>
<path opacity="0.5" d="M351.098 757.706L277.484 737.563C277.072 737.449 276.774 736.923 276.888 736.511C277.002 736.099 277.435 735.82 277.847 735.934L351.46 756.076C351.872 756.19 352.152 756.623 352.056 757.128C352.036 757.522 351.603 757.801 351.098 757.706Z" fill="#656565"/>
<path opacity="0.1628" d="M376.779 825.608L469.18 704.962C469.5 704.607 469.969 704.515 470.324 704.835C470.679 705.155 470.771 705.624 470.451 705.978L378.144 826.607C377.824 826.962 377.355 827.054 376.906 826.752C376.551 826.432 376.553 825.945 376.779 825.608Z" fill="#656565"/>
<path opacity="0.5" d="M413.086 707.094L351.848 757.559C351.51 757.82 351.022 757.818 350.649 757.404C350.388 757.066 350.39 756.579 350.804 756.205L412.041 705.74C412.38 705.479 412.961 705.463 413.241 705.895C413.502 706.233 413.518 706.814 413.086 707.094Z" fill="#656565"/>
<path opacity="0.5" d="M376.36 690.726L352.074 757.222C351.96 757.634 351.416 757.838 351.004 757.724C350.573 757.516 350.387 757.066 350.502 756.654L374.787 690.158C374.995 689.727 375.446 689.542 375.858 689.656C376.289 689.863 376.568 690.295 376.36 690.726Z" fill="#656565"/>
<path opacity="0.2294" d="M412.822 707.242L277.878 737.583C277.409 737.675 276.96 737.374 276.962 736.887C276.888 736.511 277.19 736.063 277.565 735.989L412.51 705.648C412.979 705.556 413.428 705.858 413.52 706.327C413.499 706.72 413.198 707.169 412.822 707.242Z" fill="#656565"/>
<path opacity="0.1824" d="M343.733 671.899L469.988 704.609C470.4 704.723 470.679 705.155 470.565 705.567C470.451 705.979 470.019 706.258 469.607 706.144L343.37 673.528C342.958 673.414 342.678 672.982 342.774 672.477C342.888 672.065 343.321 671.785 343.733 671.899Z" fill="#656565"/>
<path opacity="0.3888" d="M375.965 691.192L278.065 737.547C277.615 737.732 277.184 737.524 276.998 737.074C276.831 736.717 277.021 736.193 277.378 736.026L375.277 689.672C375.728 689.486 376.158 689.694 376.419 690.032C376.605 690.483 376.415 691.007 375.965 691.192Z" fill="#656565"/>
<path opacity="0.1599" d="M342.678 672.982L303.382 544.063C303.291 543.594 303.499 543.164 303.968 543.072C304.437 542.98 304.867 543.187 304.959 543.656L344.349 672.557C344.534 673.008 344.233 673.456 343.782 673.642C343.313 673.734 342.864 673.432 342.678 672.982Z" fill="#656565"/>
<path opacity="0.5" d="M375.952 689.637L412.998 705.65C413.428 705.858 413.614 706.309 413.406 706.739C413.198 707.169 412.747 707.355 412.317 707.147L375.365 691.116C374.934 690.908 374.749 690.457 374.957 690.027C374.995 689.727 375.54 689.523 375.952 689.637Z" fill="#656565"/>
<path opacity="0.098326" d="M346.705 589.617L369.562 519.311C369.676 518.899 370.108 518.619 370.539 518.827C370.951 518.941 371.23 519.373 371.022 519.803L348.371 590.167C348.163 590.597 347.731 590.877 347.207 590.687C346.776 590.479 346.591 590.029 346.705 589.617Z" fill="#656565"/>
<path opacity="0.1901" d="M518.397 852.191L377.336 826.96C376.83 826.864 376.551 826.432 376.665 826.02C376.761 825.515 377.193 825.235 377.605 825.349L518.685 850.674C519.097 850.788 519.376 851.22 519.262 851.632C519.224 851.932 518.791 852.211 518.397 852.191Z" fill="#656565"/>
<path opacity="0.034458" d="M302.034 454.156L320.318 293.892C320.414 293.387 320.846 293.107 321.258 293.221C321.67 293.335 322.025 293.655 322.023 294.142L303.646 454.424C303.625 454.818 303.211 455.191 302.705 455.095C302.293 454.981 301.938 454.661 302.034 454.156Z" fill="#656565"/>
<path opacity="0.5" d="M352.152 756.623L378.279 825.801C378.464 826.252 378.256 826.682 377.806 826.868C377.355 827.054 376.924 826.846 376.739 826.395L350.612 757.217C350.426 756.766 350.634 756.336 351.085 756.15C351.442 755.983 351.966 756.172 352.152 756.623Z" fill="#656565"/>
<path opacity="0.2387" d="M376.906 826.753L277.166 737.431C276.811 737.111 276.813 736.624 277.133 736.269C277.453 735.914 277.941 735.916 278.296 736.236L378.13 825.539C378.485 825.859 378.501 826.44 378.181 826.795C377.824 826.962 377.242 826.979 376.906 826.753Z" fill="#656565"/>
<path opacity="0.087062" d="M478.067 244.184L321.383 294.853C320.932 295.038 320.484 294.737 320.298 294.286C320.112 293.836 320.414 293.387 320.865 293.201L477.567 242.626C478.036 242.535 478.466 242.742 478.558 243.211C478.744 243.662 478.442 244.11 478.067 244.184Z" fill="#656565"/>
<path opacity="0.4276" d="M344.367 672.651L352.189 756.81C352.187 757.297 351.867 757.652 351.398 757.744C350.91 757.742 350.555 757.423 350.463 756.954L342.642 672.795C342.644 672.307 342.964 671.952 343.433 671.86C343.921 671.862 344.369 672.164 344.367 672.651Z" fill="#656565"/>
<path opacity="0.3772" d="M344.121 673.381L278.235 737.416C277.915 737.771 277.409 737.675 277.054 737.355C276.699 737.035 276.795 736.53 277.021 736.193L342.813 672.176C343.151 671.915 343.733 671.899 343.994 672.237C344.443 672.539 344.441 673.026 344.121 673.381Z" fill="#656565"/>
<path opacity="0.3467" d="M413.388 706.645L378.277 826.289C378.162 826.7 377.636 826.998 377.224 826.884C376.812 826.77 376.514 826.244 376.628 825.833L411.739 706.189C411.853 705.777 412.38 705.479 412.792 705.593C413.316 705.782 413.502 706.233 413.388 706.645Z" fill="#656565"/>
<path opacity="0.2826" d="M376.399 690.426L378.334 826.083C378.332 826.57 377.918 826.944 377.43 826.942C377.036 826.922 376.588 826.62 376.589 826.133L374.749 690.457C374.751 689.97 375.165 689.597 375.671 689.693C376.064 689.713 376.419 690.033 376.399 690.426Z" fill="#656565"/>
<path opacity="0.5" d="M343.939 671.956L412.998 705.65C413.428 705.858 413.614 706.309 413.406 706.739C413.198 707.169 412.747 707.355 412.317 707.147L343.258 673.453C342.827 673.245 342.717 672.683 342.925 672.252C343.057 671.934 343.527 671.842 343.939 671.956Z" fill="#656565"/>
<path opacity="0.5" d="M375.177 691.153L343.07 673.49C342.639 673.282 342.529 672.72 342.737 672.289C342.945 671.859 343.508 671.749 343.939 671.957L375.97 689.731C376.401 689.939 376.511 690.502 376.285 690.838C376.077 691.268 375.608 691.36 375.177 691.153Z" fill="#656565"/>
<path opacity="0.1913" d="M304.792 543.3L348.187 589.229C348.542 589.549 348.465 590.149 348.145 590.504C347.825 590.858 347.225 590.781 346.87 590.461L303.55 544.42C303.288 544.082 303.29 543.594 303.629 543.333C303.949 542.978 304.437 542.98 304.792 543.3Z" fill="#656565"/>
<path opacity="0.026569" d="M303.572 454.049L348.355 589.586C348.54 590.036 348.257 590.579 347.788 590.671C347.337 590.857 346.794 590.573 346.703 590.105L302.108 454.531C302.016 454.062 302.224 453.632 302.693 453.54C303.05 453.373 303.48 453.58 303.572 454.049Z" fill="#656565"/>
<path opacity="0.1366" d="M375.558 689.617L512.699 677.445C513.187 677.447 513.542 677.767 513.634 678.235C513.632 678.723 513.312 679.078 512.843 679.17L375.683 691.248C375.196 691.246 374.841 690.927 374.843 690.439C374.863 690.046 375.089 689.709 375.558 689.617Z" fill="#656565"/>
<path opacity="0.1528" d="M344.349 672.557L378.297 825.895C378.389 826.364 378.087 826.813 377.618 826.905C377.149 826.997 376.7 826.695 376.608 826.226L342.66 672.888C342.568 672.42 342.87 671.971 343.339 671.879C343.808 671.787 344.257 672.089 344.349 672.557Z" fill="#656565"/>
<path opacity="0.033739" d="M304.882 544.256L251.21 644.264C251.002 644.695 250.439 644.805 250.009 644.597C249.578 644.389 249.468 643.827 249.676 643.397L303.46 543.464C303.668 543.034 304.231 542.923 304.568 543.149C304.904 543.376 305.09 543.826 304.882 544.256Z" fill="#656565"/>
<path opacity="0.054849" d="M178.508 795.327L209.24 687.643C209.354 687.231 209.786 686.951 210.199 687.065C210.611 687.179 210.89 687.611 210.776 688.023L180.25 795.765C180.155 796.27 179.61 796.474 179.104 796.379C178.692 796.265 178.413 795.833 178.508 795.327Z" fill="#656565"/>
<path opacity="0.1225" d="M348.318 589.399L413.353 705.97C413.538 706.421 413.443 706.927 412.992 707.112C412.541 707.298 412.035 707.202 411.849 706.752L346.721 590.199C346.442 589.766 346.631 589.242 347.064 588.963C347.533 588.871 348.039 588.967 348.318 589.399Z" fill="#656565"/>
<path opacity="0.2398" d="M374.785 690.644L346.702 590.104C346.611 589.635 346.912 589.187 347.381 589.095C347.851 589.003 348.281 589.211 348.373 589.68L376.474 690.313C376.566 690.782 376.264 691.231 375.795 691.323C375.402 691.303 374.971 691.095 374.785 690.644Z" fill="#656565"/>
<path opacity="0.086695" d="M251.269 643.571L278.463 736.592C278.649 737.043 278.347 737.492 277.878 737.584C277.409 737.676 276.978 737.468 276.886 736.999L249.617 644.089C249.525 643.621 249.715 643.097 250.278 642.986C250.634 642.819 251.177 643.102 251.269 643.571Z" fill="#656565"/>
<path opacity="0.2125" d="M178.98 794.748L277.284 736.044C277.623 735.783 278.147 735.973 278.408 736.311C278.669 736.649 278.48 737.173 278.141 737.435L179.873 796.325C179.441 796.605 178.917 796.415 178.637 795.983C178.358 795.551 178.547 795.027 178.98 794.748Z" fill="#656565"/>
<path opacity="0.4554" d="M342.717 672.683L346.647 589.823C346.649 589.336 347.063 588.963 347.569 589.059C348.057 589.06 348.336 589.492 348.334 589.98L344.31 672.857C344.308 673.345 343.894 673.718 343.388 673.622C342.976 673.508 342.715 673.17 342.717 672.683Z" fill="#656565"/>
<path opacity="0.070099" d="M346.912 589.187L483.345 472.473C483.684 472.212 484.265 472.195 484.526 472.533C484.787 472.872 484.804 473.453 484.465 473.714L348.051 590.522C347.712 590.783 347.113 590.706 346.851 590.367C346.59 590.029 346.592 589.542 346.912 589.187Z" fill="#656565"/>
<path opacity="0.3812" d="M343.276 673.547L250.215 644.654C249.691 644.465 249.505 644.014 249.601 643.508C249.715 643.097 250.241 642.799 250.653 642.913L343.733 671.899C344.145 672.013 344.443 672.539 344.329 672.951C344.233 673.457 343.707 673.755 343.276 673.547Z" fill="#656565"/>
<path opacity="0.1154" d="M376.209 690.95L354.406 717.911C354.086 718.266 353.523 718.377 353.074 718.075C352.719 717.755 352.609 717.192 352.911 716.744L374.92 689.839C375.24 689.484 375.728 689.486 376.064 689.712C376.438 690.126 376.53 690.595 376.209 690.95Z" fill="#656565"/>
<path opacity="0.056221" d="M321.646 294.704L191.783 395.718C191.35 395.998 190.845 395.902 190.49 395.582C190.21 395.15 190.306 394.645 190.626 394.29L320.508 293.369C320.846 293.107 321.428 293.091 321.707 293.523C322.174 293.918 322.079 294.424 321.646 294.704Z" fill="#656565"/>
<path opacity="0.4455" d="M347.975 590.634L250.89 644.619C250.439 644.805 249.933 644.709 249.654 644.277C249.468 643.827 249.564 643.321 250.014 643.135L347.1 589.15C347.551 588.965 348.057 589.06 348.243 589.511C348.504 589.849 348.314 590.373 347.975 590.634Z" fill="#656565"/>
<path opacity="0.2833" d="M344.349 672.557L354.559 717.2C354.651 717.669 354.368 718.211 353.899 718.303C353.429 718.395 352.887 718.112 352.795 717.643L342.678 672.982C342.586 672.513 342.888 672.065 343.357 671.973C343.808 671.787 344.257 672.088 344.349 672.557Z" fill="#656565"/>
<path opacity="0.1056" d="M334.453 459.488L484.002 472.344C484.489 472.346 484.863 472.76 484.767 473.266C484.765 473.753 484.351 474.126 483.845 474.031L334.315 461.268C333.809 461.172 333.436 460.759 333.531 460.253C333.552 459.86 333.966 459.486 334.453 459.488Z" fill="#656565"/>
<path opacity="0.082425" d="M512.936 679.151L353.898 718.303C353.429 718.395 352.887 718.112 352.87 717.531C352.778 717.062 353.08 716.613 353.549 716.521L512.606 677.463C513.075 677.371 513.524 677.672 513.615 678.141C513.689 678.516 513.406 679.059 512.936 679.151Z" fill="#656565"/>
<path opacity="0.153" d="M178.584 795.215L249.694 643.49C249.902 643.06 250.447 642.856 250.877 643.064C251.308 643.271 251.512 643.816 251.304 644.246L180.287 795.952C180.079 796.383 179.535 796.587 179.086 796.285C178.562 796.096 178.47 795.627 178.584 795.215Z" fill="#656565"/>
<path opacity="0.2092" d="M335.294 460.297L348.391 589.774C348.389 590.261 348.088 590.71 347.6 590.708C347.113 590.706 346.758 590.386 346.666 589.917L333.474 460.459C333.476 459.971 333.872 459.504 334.359 459.506C334.847 459.508 335.202 459.828 335.294 460.297Z" fill="#656565"/>
<path opacity="0.2724" d="M348.391 589.774L354.578 717.294C354.576 717.781 354.18 718.248 353.692 718.246C353.205 718.245 352.85 717.925 352.758 717.456L346.666 589.917C346.668 589.43 347.082 589.056 347.569 589.058C347.945 588.985 348.318 589.398 348.391 589.774Z" fill="#656565"/>
<path opacity="0.2905" d="M353.187 718.151L250.009 644.597C249.654 644.277 249.543 643.714 249.863 643.36C250.184 643.005 250.653 642.913 251.083 643.121L354.243 716.581C354.692 716.882 354.802 717.445 354.5 717.893C354.198 718.342 353.542 718.471 353.187 718.151Z" fill="#656565"/>
<path opacity="0.2067" d="M334.015 461.229L190.92 395.79C190.49 395.582 190.286 395.038 190.494 394.608C190.702 394.177 191.246 393.973 191.677 394.181L334.772 459.62C335.202 459.828 335.406 460.372 335.198 460.802C334.99 461.232 334.445 461.437 334.015 461.229Z" fill="#656565"/>
<path opacity="0.055186" d="M353.268 716.577L521.99 623.429C522.423 623.15 522.947 623.339 523.227 623.771C523.412 624.222 523.317 624.727 522.884 625.007L354.161 718.154C353.711 718.34 353.093 718.169 352.907 717.719C352.74 717.362 352.835 716.856 353.268 716.577Z" fill="#656565"/>
<path opacity="0.011578" d="M477.128 437.272L334.521 461.324C334.051 461.416 333.584 461.021 333.492 460.552C333.4 460.083 333.702 459.635 334.265 459.524L476.836 435.284C477.399 435.174 477.866 435.569 477.977 436.132C478.069 436.601 477.691 437.161 477.128 437.272Z" fill="#656565"/>
<path opacity="0.2022" d="M446.795 544.002L401.578 559.875L386.026 542.668L446.795 544.002Z" fill="#656565"/>
<path opacity="0.072195" d="M420.984 230.831L471.313 306.173L396.829 236.344L420.984 230.831Z" fill="#656565"/>
<path opacity="0.082511" d="M382.759 760.167L404.217 692.667L450.815 725.602L382.759 760.167Z" fill="#656565"/>
<path opacity="0.1933" d="M249.124 748.964L245.65 698.425L299.197 667.384L249.124 748.964Z" fill="#656565"/>
<path opacity="0.208" d="M249.124 748.964L245.65 698.424L209.97 687.889L249.124 748.964Z" fill="#656565"/>
<path opacity="0.2636" d="M304.115 543.823L319.611 509.041L370.273 519.464L304.115 543.823Z" fill="#656565"/>
<path opacity="0.2636" d="M304.115 543.823L319.611 509.041L370.273 519.464L304.115 543.823Z" fill="#656565"/>
<path opacity="0.2636" d="M304.115 543.823L319.611 509.041L370.273 519.464L304.115 543.823Z" fill="#656565"/>
<path opacity="0.1721" d="M319.611 509.04L302.84 454.29L248.031 486.844L319.611 509.04Z" fill="#656565"/>
<path opacity="0.1721" d="M319.611 509.04L302.84 454.29L248.031 486.844L319.611 509.04Z" fill="#656565"/>
<path opacity="0.1721" d="M319.611 509.04L302.84 454.29L248.031 486.844L319.611 509.04Z" fill="#656565"/>
<path opacity="0.1037" d="M304.115 543.822L302.84 454.29L248.031 486.844L304.115 543.822Z" fill="#656565"/>
<path opacity="0.2491" d="M375.63 690.479L412.563 706.417L469.853 705.414L375.63 690.479Z" fill="#656565"/>
<path opacity="0.1591" d="M375.63 690.479L351.326 756.882L277.712 736.74L375.63 690.479Z" fill="#656565"/>
<path opacity="0.2" d="M351.326 756.882L377.452 826.061L352.022 831.531L351.326 756.882Z" fill="#656565"/>
<path opacity="0.2" d="M351.326 756.882L377.452 826.061L352.022 831.531L351.326 756.882Z" fill="#656565"/>
<path opacity="0.088929" d="M412.563 706.417L351.326 756.882L377.452 826.061L412.563 706.417Z" fill="#656565"/>
<path opacity="0.1352" d="M343.504 672.723L412.563 706.417L351.326 756.882L343.504 672.723Z" fill="#656565"/>
<path opacity="0.2739" d="M375.63 690.48L343.504 672.723L412.563 706.417L375.63 690.48Z" fill="#656565"/>
<path opacity="0.2739" d="M375.63 690.48L343.504 672.723L412.563 706.417L375.63 690.48Z" fill="#656565"/>
<rect width="623" height="822" transform="matrix(-1 0 0 1 400 0)" fill="url(#paint0_linear)"/>
</g>
<defs>
<linearGradient id="paint0_linear" x1="216" y1="5.27425e-06" x2="80.9668" y2="799.184" gradientUnits="userSpaceOnUse">
<stop stop-color="#090909" stop-opacity="0.4"/>
<stop offset="0.96875" stop-color="#090909"/>
</linearGradient>
<clipPath id="clip0">
<rect width="400" height="814" fill="white" transform="matrix(-1 0 0 1 400 0)"/>
</clipPath>
</defs>
</svg>
