<svg width="208" height="660" viewBox="0 0 208 660" fill="none" xmlns="http://www.w3.org/2000/svg">
<g clip-path="url(#clip0)">
<path opacity="0.5" d="M168.816 610.317C169.439 609.353 169.184 608.164 168.221 607.541C167.257 606.919 166.068 607.175 165.445 608.139C164.823 609.102 165.158 610.344 166.041 610.914C166.872 611.565 168.193 611.281 168.816 610.317Z" fill="#616161"/>
<path opacity="0.5" d="M83.9514 547.62C84.6261 546.576 84.3424 545.254 83.2991 544.58C82.2557 543.906 80.9342 544.19 80.2595 545.234C79.5849 546.278 79.8685 547.6 80.9118 548.274C81.8749 548.896 83.2768 548.664 83.9514 547.62Z" fill="#616161"/>
<path opacity="0.5" d="M190.852 334.484C191.527 333.44 191.243 332.118 190.2 331.444C189.156 330.77 187.835 331.054 187.16 332.098C186.485 333.142 186.769 334.464 187.812 335.138C188.856 335.812 190.177 335.528 190.852 334.484Z" fill="#616161"/>
<path opacity="0.5" d="M138.103 329.312C138.778 328.268 138.466 326.814 137.422 326.14C136.379 325.466 134.925 325.779 134.25 326.823C133.576 327.867 133.888 329.32 134.931 329.995C136.055 330.721 137.428 330.356 138.103 329.312Z" fill="#616161"/>
<path opacity="0.5" d="M100.419 243.256C101.145 242.132 100.781 240.758 99.738 240.084C98.6946 239.41 97.241 239.723 96.5663 240.766C95.8398 241.891 96.2036 243.264 97.247 243.939C98.2384 244.693 99.6922 244.38 100.419 243.256Z" fill="#616161"/>
<path opacity="0.5" d="M150.528 396.882C151.254 395.758 150.942 394.304 149.819 393.578C148.695 392.852 147.241 393.164 146.515 394.289C145.788 395.413 146.1 396.867 147.224 397.593C148.267 398.267 149.801 398.006 150.528 396.882Z" fill="#616161"/>
<path opacity="0.5" d="M131.331 332.221C132.057 331.097 131.745 329.643 130.622 328.917C129.498 328.191 128.044 328.504 127.318 329.628C126.591 330.752 126.903 332.206 128.027 332.932C129.15 333.658 130.604 333.346 131.331 332.221Z" fill="#616161"/>
<path opacity="0.5" d="M159.197 642.808C159.923 641.684 159.663 640.149 158.46 639.371C157.336 638.645 155.882 638.958 155.104 640.163C154.325 641.367 154.689 642.741 155.813 643.467C156.885 644.274 158.47 643.932 159.197 642.808Z" fill="#616161"/>
<path opacity="0.5" d="M102.031 628.976C102.757 627.852 102.417 626.266 101.294 625.54C100.17 624.814 98.584 625.155 97.8575 626.279C97.1309 627.404 97.4713 628.99 98.5949 629.716C99.7186 630.442 101.252 630.181 102.031 628.976Z" fill="#616161"/>
<path opacity="0.5" d="M74.8415 612.772C75.5681 611.648 75.2277 610.061 74.104 609.335C72.9804 608.609 71.3946 608.951 70.668 610.075C69.9415 611.199 70.2818 612.785 71.4054 613.511C72.529 614.237 74.1149 613.896 74.8415 612.772Z" fill="#616161"/>
<path opacity="0.5" d="M192.606 582.658C193.351 581.505 194.889 581.174 196.042 581.919C197.194 582.664 197.524 584.202 196.779 585.355C196.034 586.509 194.495 586.84 193.343 586.095C192.19 585.35 191.86 583.812 192.606 582.658Z" fill="#616161"/>
<path opacity="0.5" d="M115.997 624.795C116.775 623.591 116.383 622.085 115.179 621.307C113.975 620.529 112.389 620.87 111.663 621.995C110.884 623.199 111.225 624.785 112.429 625.563C113.633 626.341 115.218 626 115.997 624.795Z" fill="#616161"/>
<path opacity="0.5" d="M176.114 211.686C176.893 210.481 176.552 208.895 175.348 208.117C174.144 207.339 172.559 207.681 171.78 208.885C171.002 210.09 171.342 211.676 172.546 212.454C173.75 213.232 175.336 212.891 176.114 211.686Z" fill="#616161"/>
<path opacity="0.5" d="M105.712 566.236C106.49 565.032 106.15 563.446 104.946 562.668C103.742 561.89 102.156 562.231 101.378 563.436C100.599 564.64 100.94 566.226 102.144 567.004C103.347 567.782 104.933 567.441 105.712 566.236Z" fill="#616161"/>
<path opacity="0.5" d="M162.597 79.4296C163.375 78.225 163.035 76.639 161.831 75.861C160.627 75.083 159.041 75.4243 158.263 76.6289C157.484 77.8335 157.824 79.4195 159.028 80.1975C160.232 80.9755 161.818 80.6342 162.597 79.4296Z" fill="#616161"/>
<path opacity="0.5" d="M212.126 619.18C212.904 617.975 212.564 616.389 211.36 615.611C210.156 614.833 208.57 615.174 207.792 616.379C207.013 617.583 207.354 619.17 208.558 619.948C209.761 620.726 211.347 620.384 212.126 619.18Z" fill="#616161"/>
<path opacity="0.5" d="M119.175 90.987C119.948 89.7895 121.546 89.4457 122.743 90.2191C123.94 90.9925 124.282 92.5903 123.509 93.7878C122.735 94.9853 121.137 95.329 119.94 94.5556C118.744 93.7822 118.401 92.1845 119.175 90.987Z" fill="#616161"/>
<path opacity="0.5" d="M86.1219 625.071C86.9004 623.866 86.56 622.28 85.3561 621.502C84.1522 620.724 82.5664 621.065 81.788 622.27C81.0095 623.475 81.3498 625.061 82.5537 625.839C83.7576 626.617 85.3435 626.275 86.1219 625.071Z" fill="#616161"/>
<path opacity="0.5" d="M75.1992 170.834C75.9776 169.629 75.6892 167.963 74.4051 167.133C73.2012 166.355 71.5351 166.645 70.7047 167.929C69.9263 169.134 70.2148 170.8 71.4989 171.63C72.7547 172.328 74.4207 172.039 75.1992 170.834Z" fill="#616161"/>
<path opacity="0.5" d="M80.6797 579.09C81.4581 577.885 81.1696 576.219 79.8855 575.389C78.6816 574.611 77.0154 574.901 76.1851 576.186C75.4066 577.39 75.6951 579.056 76.9793 579.886C78.235 580.584 79.9012 580.295 80.6797 579.09Z" fill="#616161"/>
<path opacity="0.5" d="M27.418 175.931C28.2483 174.646 27.8277 173.008 26.6238 172.23C25.4199 171.452 23.7538 171.741 22.9234 173.026C22.145 174.231 22.5137 175.949 23.7176 176.727C24.9215 177.505 26.6395 177.135 27.418 175.931Z" fill="#616161"/>
<path opacity="0.5" d="M178.85 215.73C179.68 214.445 179.34 212.859 178.055 212.029C176.852 211.251 175.134 211.621 174.355 212.825C173.577 214.03 173.945 215.748 175.149 216.526C176.353 217.304 178.071 216.934 178.85 215.73Z" fill="#616161"/>
<path opacity="0.5" d="M37.9804 577.908C38.8108 576.623 38.3902 574.985 37.1863 574.207C35.9824 573.429 34.1841 573.747 33.4057 574.952C32.5753 576.237 32.996 577.875 34.2801 578.705C35.5642 579.534 37.202 579.113 37.9804 577.908Z" fill="#616161"/>
<path opacity="0.5" d="M136.765 625.581C137.595 624.296 137.226 622.577 135.942 621.748C134.658 620.918 132.94 621.287 132.11 622.572C131.279 623.857 131.648 625.575 132.932 626.405C134.216 627.235 135.934 626.865 136.765 625.581Z" fill="#616161"/>
<path opacity="0.5" d="M107.39 528.955C108.22 527.67 107.851 525.952 106.567 525.122C105.283 524.292 103.565 524.662 102.735 525.947C101.904 527.232 102.273 528.95 103.557 529.78C104.841 530.61 106.559 530.24 107.39 528.955Z" fill="#616161"/>
<path opacity="0.5" d="M169.263 203.273C170.093 201.988 169.724 200.27 168.36 199.389C167.076 198.559 165.358 198.928 164.528 200.213C163.697 201.498 164.066 203.216 165.35 204.046C166.714 204.928 168.432 204.558 169.263 203.273Z" fill="#616161"/>
<path opacity="0.5" d="M62.8362 622.546C63.7184 621.181 63.2695 619.411 61.9853 618.581C60.6209 617.699 58.8509 618.149 58.0206 619.434C57.1384 620.799 57.5873 622.569 58.8715 623.399C60.2359 624.281 61.954 623.911 62.8362 622.546Z" fill="#616161"/>
<path opacity="0.5" d="M163.1 -0.0493102C164.034 -1.49483 163.637 -3.34529 162.192 -4.27888C160.748 -5.21246 158.898 -4.81426 157.964 -3.36874C157.029 -1.92323 157.426 -0.0728279 158.871 0.860759C160.316 1.79435 162.166 1.39621 163.1 -0.0493102Z" fill="#616161"/>
<path opacity="0.5" d="M167.606 364.999C168.54 363.554 168.143 361.703 166.698 360.77C165.254 359.836 163.404 360.234 162.469 361.68C161.535 363.125 161.932 364.976 163.377 365.909C164.741 366.791 166.672 366.445 167.606 364.999Z" fill="#616161"/>
<path opacity="0.5" d="M128.965 87.636C129.899 86.1905 129.421 84.2882 128.057 83.4065C126.612 82.4729 124.682 82.8192 123.748 84.2647C122.814 85.7102 123.239 87.6929 124.684 88.6264C126.128 89.56 128.03 89.0815 128.965 87.636Z" fill="#616161"/>
<path opacity="0.5" d="M139.868 179.04C140.854 177.514 140.429 175.532 138.904 174.546C137.379 173.561 135.396 173.988 134.41 175.513C133.424 177.039 133.85 179.022 135.375 180.007C136.9 180.993 138.882 180.566 139.868 179.04Z" fill="#616161"/>
<path opacity="0.5" d="M60.75 307.103C61.736 305.577 61.2822 303.462 59.7573 302.477C58.2323 301.491 56.1178 301.946 55.1318 303.472C54.1457 304.998 54.5995 307.113 56.1245 308.098C57.6494 309.083 59.7639 308.628 60.75 307.103Z" fill="#616161"/>
<path opacity="0.5" d="M88.8593 364.315C89.8454 362.79 89.3916 360.675 87.8666 359.689C86.3417 358.704 84.2272 359.159 83.2412 360.685C82.2552 362.211 82.709 364.325 84.2339 365.311C85.8391 366.348 87.8214 365.922 88.8593 364.315Z" fill="#616161"/>
<path opacity="0.5" d="M149.573 451.707C150.559 450.181 150.105 448.067 148.58 447.081C147.055 446.096 144.94 446.551 143.954 448.077C142.968 449.602 143.422 451.717 144.947 452.703C146.5 453.82 148.535 453.313 149.573 451.707Z" fill="#616161"/>
<path opacity="0.099722" d="M242.43 545.525L167.428 609.648C167.192 609.837 166.847 609.842 166.658 609.606C166.469 609.371 166.464 609.026 166.7 608.837L241.702 544.714C241.938 544.525 242.283 544.52 242.472 544.756C242.609 545.072 242.533 545.365 242.43 545.525Z" fill="#656565"/>
<path opacity="0.4126" d="M188.987 333.848L136.186 328.756C135.893 328.681 135.624 328.393 135.699 328.101C135.775 327.808 136.011 327.619 136.355 327.614L189.105 332.786C189.397 332.861 189.586 333.097 189.591 333.442C189.435 333.682 189.199 333.871 188.987 333.848Z" fill="#656565"/>
<path opacity="0.229" d="M98.9918 241.765L136.757 327.873C136.894 328.189 136.766 328.562 136.502 328.619C136.186 328.756 135.813 328.629 135.756 328.365L97.9912 242.257C97.8542 241.94 97.9815 241.567 98.2977 241.43C98.5621 241.373 98.8548 241.449 98.9918 241.765Z" fill="#656565"/>
<path opacity="0.1705" d="M147.913 395.647L135.648 328.181C135.591 327.916 135.799 327.595 136.115 327.458C136.38 327.401 136.701 327.609 136.838 327.925L149.155 395.311C149.16 395.656 148.952 395.977 148.607 395.982C148.239 396.199 147.999 396.044 147.913 395.647Z" fill="#656565"/>
<path opacity="0.1027" d="M136.451 328.7L129.598 331.557C129.282 331.694 128.961 331.487 128.824 331.171C128.687 330.854 128.894 330.533 129.21 330.396L136.092 327.671C136.408 327.533 136.729 327.741 136.866 328.057C136.842 328.27 136.767 328.562 136.451 328.7Z" fill="#656565"/>
<path opacity="0.088765" d="M99.0721 241.816L129.956 330.65C130.093 330.966 129.885 331.287 129.569 331.424C129.253 331.562 128.932 331.354 128.795 331.038L97.963 242.124C97.826 241.808 98.0335 241.487 98.3498 241.35C98.5622 241.373 98.9351 241.5 99.0721 241.816Z" fill="#656565"/>
<path opacity="0.443" d="M147.941 395.78L128.743 331.119C128.606 330.802 128.865 330.401 129.21 330.396C129.474 330.339 129.847 330.466 129.984 330.782L149.182 395.443C149.319 395.759 149.112 396.081 148.796 396.218C148.319 396.251 147.998 396.044 147.941 395.78Z" fill="#656565"/>
<path opacity="0.1786" d="M234.847 295.633L129.518 331.506C129.202 331.643 128.881 331.435 128.744 331.119C128.607 330.803 128.815 330.482 129.131 330.344L234.46 294.472C234.776 294.334 235.097 294.542 235.234 294.858C235.371 295.174 235.163 295.496 234.847 295.633Z" fill="#656565"/>
<path opacity="0.5" d="M175.635 667.548L222.651 664.689C222.996 664.684 223.265 664.972 223.322 665.236C223.327 665.581 223.039 665.85 222.774 665.907L175.758 668.766C175.413 668.771 175.144 668.483 175.139 668.139C175.082 667.874 175.29 667.553 175.635 667.548Z" fill="#656565"/>
<path opacity="0.1313" d="M235.204 294.725L289.748 393.954C289.885 394.27 289.758 394.643 289.522 394.832C289.206 394.969 288.833 394.842 288.644 394.606L234.1 295.378C233.963 295.062 234.09 294.689 234.326 294.5C234.642 294.362 235.067 294.409 235.204 294.725Z" fill="#656565"/>
<path opacity="0.5" d="M175.144 668.483L156.637 641.838C156.448 641.602 156.496 641.177 156.864 640.959C157.1 640.77 157.524 640.817 157.713 641.053L176.22 667.698C176.409 667.934 176.362 668.359 176.126 668.548C175.706 668.846 175.413 668.771 175.144 668.483Z" fill="#656565"/>
<path opacity="0.4887" d="M157.34 640.926L222.863 664.713C223.236 664.84 223.373 665.156 223.246 665.529C223.171 665.822 222.802 666.039 222.43 665.912L156.906 642.126C156.533 641.998 156.396 641.682 156.524 641.309C156.651 640.936 156.967 640.799 157.34 640.926Z" fill="#656565"/>
<path opacity="0.3182" d="M100.176 627.094L175.929 667.623C176.25 667.831 176.387 668.147 176.179 668.468C175.972 668.789 175.656 668.927 175.335 668.719L99.5301 628.27C99.209 628.063 99.072 627.747 99.2796 627.425C99.5391 627.024 99.9355 626.938 100.176 627.094Z" fill="#656565"/>
<path opacity="0.047551" d="M100.095 627.042L222.865 664.713C223.157 664.788 223.375 665.156 223.247 665.529C223.172 665.822 222.804 666.039 222.511 665.964L99.7418 628.294C99.3689 628.166 99.2319 627.85 99.3593 627.477C99.3544 627.133 99.7225 626.915 100.095 627.042Z" fill="#656565"/>
<path opacity="0.090083" d="M230.197 749.142L233.69 644.614C233.685 644.269 233.973 644 234.318 643.995C234.662 643.99 234.931 644.278 234.936 644.622L231.391 749.231C231.396 749.575 231.108 749.845 230.764 749.85C230.471 749.774 230.202 749.487 230.197 749.142Z" fill="#656565"/>
<path opacity="0.092602" d="M175.386 668.639L72.4447 611.906C72.1237 611.698 72.0386 611.302 72.1942 611.061C72.4018 610.739 72.7983 610.654 73.0391 610.81L175.98 667.543C176.301 667.75 176.386 668.147 176.231 668.388C176.023 668.709 175.627 668.794 175.386 668.639Z" fill="#656565"/>
<path opacity="0.4516" d="M227.23 244.035L235.312 294.909C235.317 295.254 235.11 295.575 234.765 295.58C234.42 295.585 234.099 295.378 234.095 295.033L225.931 244.107C225.927 243.762 226.134 243.441 226.479 243.436C226.771 243.511 227.093 243.719 227.23 244.035Z" fill="#656565"/>
<path opacity="0.3278" d="M175.424 667.525L234.107 643.972C234.423 643.835 234.796 643.962 234.881 644.358C235.018 644.675 234.891 645.048 234.575 645.185L175.811 668.686C175.495 668.823 175.122 668.696 175.037 668.299C174.98 668.035 175.108 667.662 175.424 667.525Z" fill="#656565"/>
<path opacity="0.5" d="M100.095 627.042L157.26 640.874C157.553 640.949 157.77 641.318 157.695 641.61C157.619 641.903 157.251 642.121 156.959 642.045L99.7929 628.213C99.5003 628.138 99.283 627.77 99.3585 627.477C99.3536 627.133 99.7218 626.915 100.095 627.042Z" fill="#656565"/>
<path opacity="0.3201" d="M156.959 642.045L72.6048 612.009C72.2319 611.882 72.0949 611.566 72.2222 611.193C72.3495 610.819 72.6658 610.682 73.0387 610.809L157.473 640.897C157.846 641.024 157.983 641.34 157.856 641.714C157.568 641.983 157.2 642.2 156.959 642.045Z" fill="#656565"/>
<path opacity="0.155" d="M175.112 668.006L194.188 583.908C194.315 583.535 194.551 583.346 194.976 583.393C195.349 583.52 195.486 583.836 195.491 584.181L176.415 668.279C176.339 668.572 175.971 668.789 175.678 668.714C175.173 668.615 175.036 668.299 175.112 668.006Z" fill="#656565"/>
<path opacity="0.3185" d="M157.128 640.902L234.399 644.047C234.743 644.042 235.012 644.33 235.017 644.674C235.022 645.019 234.734 645.288 234.389 645.293L157.119 642.149C156.775 642.154 156.506 641.866 156.501 641.521C156.548 641.096 156.836 640.827 157.128 640.902Z" fill="#656565"/>
<path opacity="0.1177" d="M227.121 243.851L288.347 348.763C288.484 349.079 288.437 349.504 288.12 349.641C287.804 349.778 287.431 349.651 287.242 349.415L226.017 244.503C225.88 244.187 226.007 243.814 226.243 243.625C226.56 243.488 226.904 243.483 227.121 243.851Z" fill="#656565"/>
<path opacity="0.1997" d="M222.132 665.492L194.192 584.252C194.055 583.936 194.314 583.535 194.578 583.478C194.895 583.341 195.348 583.52 195.353 583.864L223.241 665.184C223.378 665.5 223.171 665.821 222.855 665.959C222.59 666.016 222.189 665.756 222.132 665.492Z" fill="#656565"/>
<path opacity="0.2219" d="M114.273 622.885L176.06 667.595C176.381 667.803 176.386 668.147 176.179 668.468C175.971 668.79 175.626 668.795 175.305 668.587L113.518 623.877C113.197 623.67 113.112 623.273 113.4 623.004C113.556 622.763 113.952 622.678 114.273 622.885Z" fill="#656565"/>
<path opacity="0.103" d="M234.181 295.43L173.424 210.744C173.155 210.456 173.282 210.083 173.57 209.814C173.858 209.544 174.231 209.671 174.5 209.959L235.124 294.674C235.313 294.91 235.266 295.335 235.03 295.524C234.794 295.713 234.37 295.666 234.181 295.43Z" fill="#656565"/>
<path opacity="0.3173" d="M156.628 641.148L194.263 583.615C194.471 583.294 194.867 583.209 195.188 583.416C195.509 583.624 195.514 583.968 195.387 584.341L157.672 641.823C157.464 642.144 157.12 642.149 156.799 641.941C156.478 641.734 156.421 641.47 156.628 641.148Z" fill="#656565"/>
<path opacity="0.2137" d="M235.04 644.462L258.461 747.484C258.546 747.881 258.338 748.202 257.994 748.207C257.649 748.212 257.357 748.137 257.272 747.74L233.799 644.798C233.714 644.401 233.921 644.08 234.266 644.075C234.582 643.938 234.903 644.145 235.04 644.462Z" fill="#656565"/>
<path opacity="0.4361" d="M114.142 622.913L157.342 640.926C157.715 641.053 157.8 641.449 157.724 641.742C157.597 642.115 157.2 642.201 156.96 642.045L113.76 624.032C113.387 623.905 113.302 623.509 113.377 623.216C113.372 622.871 113.821 622.706 114.142 622.913Z" fill="#656565"/>
<path opacity="0.046909" d="M259.705 156.984L174.353 210.889C174.037 211.026 173.612 210.979 173.475 210.663C173.338 210.347 173.385 209.922 173.702 209.785L259.134 155.931C259.45 155.794 259.823 155.921 260.012 156.157C260.068 156.422 259.941 156.795 259.705 156.984Z" fill="#656565"/>
<path opacity="0.5" d="M99.5808 628.19L72.3921 611.986C72.071 611.778 71.986 611.382 72.1416 611.141C72.3492 610.82 72.7457 610.734 72.9865 610.89L100.175 627.094C100.496 627.302 100.581 627.698 100.426 627.939C100.298 628.312 99.9018 628.397 99.5808 628.19Z" fill="#656565"/>
<path opacity="0.1218" d="M104.018 564.458L157.583 641.081C157.771 641.317 157.724 641.742 157.437 642.012C157.201 642.201 156.776 642.154 156.507 641.866L102.89 565.323C102.673 564.955 102.8 564.581 103.116 564.444C103.404 564.175 103.829 564.222 104.018 564.458Z" fill="#656565"/>
<path opacity="0.013026" d="M175.134 667.794L209.396 617.416C209.604 617.095 210 617.01 210.321 617.217C210.642 617.425 210.727 617.821 210.52 618.142L176.178 668.468C175.97 668.789 175.625 668.794 175.304 668.587C175.064 668.431 174.979 668.034 175.134 667.794Z" fill="#656565"/>
<path opacity="0.01" d="M258.988 156.862L160.038 78.4592C159.769 78.1714 159.764 77.8268 159.972 77.5056C160.26 77.2362 160.604 77.2312 160.845 77.3868L259.795 155.789C260.064 156.077 260.069 156.422 259.781 156.691C259.574 157.012 259.309 157.069 258.988 156.862Z" fill="#656565"/>
<path opacity="0.1068" d="M210.619 617.637L223.241 665.184C223.378 665.5 223.171 665.822 222.774 665.907C222.458 666.044 222.137 665.837 222.052 665.44L209.297 617.922C209.212 617.525 209.42 617.204 209.816 617.119C210.212 617.033 210.534 617.241 210.619 617.637Z" fill="#656565"/>
<path opacity="0.07131" d="M216.052 254.115L235.205 294.726C235.342 295.042 235.215 295.415 234.898 295.552C234.582 295.689 234.209 295.562 234.072 295.246L214.787 254.664C214.65 254.348 214.777 253.975 215.146 253.757C215.49 253.752 215.863 253.879 216.052 254.115Z" fill="#656565"/>
<path opacity="0.2073" d="M99.6194 627.075L194.5 583.426C194.816 583.289 195.189 583.416 195.326 583.732C195.463 584.048 195.336 584.422 195.019 584.559L100.191 628.128C99.8747 628.265 99.5017 628.138 99.3647 627.822C99.1759 627.586 99.3032 627.213 99.6194 627.075Z" fill="#656565"/>
<path opacity="0.1844" d="M232.059 530.058L234.988 644.542C234.993 644.887 234.705 645.156 234.361 645.161C234.016 645.166 233.747 644.879 233.742 644.534L230.813 530.049C230.808 529.705 231.096 529.435 231.44 529.43C231.785 529.425 232.054 529.713 232.059 530.058Z" fill="#656565"/>
<path opacity="0.5" d="M114.051 624.108L100.086 628.289C99.7694 628.426 99.3681 628.166 99.3114 627.902C99.1744 627.586 99.382 627.265 99.6982 627.128L113.664 622.947C113.98 622.809 114.381 623.069 114.518 623.385C114.575 623.649 114.367 623.971 114.051 624.108Z" fill="#656565"/>
<path opacity="0.1122" d="M156.864 640.959L209.765 617.199C210.081 617.062 210.454 617.189 210.671 617.557C210.808 617.873 210.681 618.246 210.313 618.464L157.464 642.144C157.148 642.281 156.775 642.154 156.638 641.838C156.42 641.469 156.548 641.096 156.864 640.959Z" fill="#656565"/>
<path opacity="0.3534" d="M270.563 727.526L233.8 644.798C233.663 644.482 233.79 644.109 234.106 643.971C234.422 643.834 234.795 643.961 234.932 644.278L271.695 727.006C271.832 727.322 271.705 727.695 271.389 727.832C271.073 727.97 270.7 727.842 270.563 727.526Z" fill="#656565"/>
<path opacity="0.087255" d="M72.6137 610.763L194.631 583.398C195.027 583.312 195.348 583.52 195.433 583.916C195.438 584.261 195.311 584.634 194.966 584.639L72.9492 612.004C72.5528 612.09 72.2318 611.882 72.2269 611.538C72.0097 611.17 72.2172 610.848 72.6137 610.763Z" fill="#656565"/>
<path opacity="0.4809" d="M233.828 644.93L194.141 584.333C194.004 584.017 194.051 583.592 194.367 583.455C194.603 583.266 195.028 583.313 195.245 583.681L234.933 644.278C235.07 644.594 235.022 645.019 234.706 645.156C234.39 645.293 234.097 645.218 233.828 644.93Z" fill="#656565"/>
<path opacity="0.5" d="M113.707 624.113L72.6044 612.009C72.2315 611.882 72.0945 611.566 72.2218 611.193C72.2972 610.9 72.6653 610.682 72.958 610.758L114.112 622.781C114.485 622.908 114.622 623.224 114.575 623.649C114.367 623.97 113.999 624.188 113.707 624.113Z" fill="#656565"/>
<path opacity="0.5" d="M231.933 530.43L195.255 584.37C195.047 584.691 194.651 584.776 194.33 584.569C194.009 584.361 193.924 583.965 194.131 583.644L230.809 529.704C231.016 529.383 231.413 529.298 231.734 529.505C232.135 529.765 232.14 530.109 231.933 530.43Z" fill="#656565"/>
<path opacity="0.1382" d="M113.981 622.809L234.452 643.966C234.744 644.042 235.013 644.329 234.966 644.754C234.891 645.047 234.603 645.317 234.178 645.27L113.76 624.032C113.467 623.957 113.198 623.669 113.245 623.244C113.321 622.951 113.689 622.734 113.981 622.809Z" fill="#656565"/>
<path opacity="0.4075" d="M99.2548 627.637L102.855 564.846C102.851 564.501 103.138 564.232 103.563 564.278C103.908 564.273 104.177 564.561 104.13 564.986L100.529 627.778C100.534 628.123 100.246 628.392 99.8215 628.345C99.5288 628.27 99.2596 627.982 99.2548 627.637Z" fill="#656565"/>
<path opacity="0.038385" d="M156.96 642.045L83.8054 624.256C83.4325 624.129 83.2153 623.761 83.3426 623.388C83.4699 623.015 83.7861 622.878 84.1307 622.873L157.233 640.742C157.606 640.869 157.743 641.185 157.667 641.478C157.62 641.903 157.333 642.172 156.96 642.045Z" fill="#656565"/>
<path opacity="0.5" d="M226.258 244.659L173.716 210.819C173.395 210.612 173.31 210.215 173.518 209.894C173.725 209.573 174.07 209.568 174.443 209.695L226.984 243.535C227.305 243.742 227.39 244.139 227.183 244.46C226.895 244.729 226.498 244.815 226.258 244.659Z" fill="#656565"/>
<path opacity="0.3707" d="M113.584 622.895L194.499 583.426C194.815 583.289 195.188 583.416 195.325 583.732C195.462 584.048 195.334 584.421 195.018 584.559L114.184 624.079C113.867 624.216 113.494 624.089 113.358 623.773C113.14 623.405 113.268 623.032 113.584 622.895Z" fill="#656565"/>
<path opacity="0.4766" d="M104.055 565.279L73.2654 611.867C73.0578 612.188 72.633 612.141 72.3922 611.986C72.1514 611.83 72.0663 611.434 72.222 611.193L102.959 564.685C103.167 564.364 103.563 564.278 103.884 564.486C104.177 564.561 104.262 564.958 104.055 565.279Z" fill="#656565"/>
<path opacity="0.020038" d="M99.8831 627.018L209.949 617.09C210.294 617.085 210.615 617.292 210.7 617.689C210.705 618.033 210.497 618.355 210.101 618.44L100.086 628.288C99.7419 628.293 99.4208 628.086 99.416 627.741C99.2507 627.293 99.5385 627.023 99.8831 627.018Z" fill="#656565"/>
<path opacity="0.064968" d="M231.644 530.7L103.687 565.496C103.29 565.582 102.969 565.374 102.884 564.978C102.879 564.633 102.955 564.34 103.351 564.255L231.309 529.458C231.625 529.321 232.026 529.58 232.083 529.845C232.168 530.241 231.908 530.643 231.644 530.7Z" fill="#656565"/>
<path opacity="0.01" d="M230.76 530.13L215.763 390.656C215.758 390.311 215.966 389.99 216.362 389.905C216.707 389.9 217.028 390.107 217.113 390.504L232.058 530.058C232.063 530.402 231.856 530.723 231.511 530.729C231.167 530.734 230.845 530.526 230.76 530.13Z" fill="#656565"/>
<path opacity="0.3451" d="M103.616 564.198L194.896 583.341C195.188 583.416 195.457 583.704 195.41 584.129C195.283 584.502 195.047 584.691 194.622 584.644L103.342 565.502C102.969 565.375 102.752 565.006 102.828 564.714C102.955 564.341 103.323 564.123 103.616 564.198Z" fill="#656565"/>
<path opacity="0.5" d="M210.484 617.321L234.853 644.226C235.122 644.514 235.075 644.939 234.839 645.128C234.603 645.317 234.126 645.35 233.937 645.114L209.516 618.29C209.247 618.002 209.294 617.577 209.582 617.308C209.79 616.986 210.215 617.033 210.484 617.321Z" fill="#656565"/>
<path opacity="0.3655" d="M272.835 554.814L194.966 584.639C194.65 584.777 194.277 584.649 194.192 584.253C194.055 583.937 194.182 583.564 194.578 583.478L272.447 553.653C272.763 553.516 273.216 553.695 273.302 554.092C273.278 554.304 273.151 554.677 272.835 554.814Z" fill="#656565"/>
<path opacity="0.366" d="M99.7412 628.294L83.7528 624.337C83.3798 624.209 83.1626 623.841 83.238 623.549C83.3654 623.176 83.7334 622.958 84.0261 623.033L99.9627 627.071C100.336 627.198 100.473 627.514 100.397 627.807C100.402 628.151 100.086 628.289 99.7412 628.294Z" fill="#656565"/>
<path opacity="0.2774" d="M232.037 530.27L210.626 617.982C210.498 618.355 210.13 618.573 209.838 618.497C209.465 618.37 209.247 618.002 209.323 617.709L230.815 530.049C230.942 529.676 231.258 529.539 231.603 529.534C231.947 529.529 232.164 529.897 232.037 530.27Z" fill="#656565"/>
<path opacity="0.5" d="M113.248 623.589L102.883 564.978C102.798 564.582 103.086 564.312 103.402 564.175C103.799 564.09 104.068 564.378 104.205 564.694L114.57 623.305C114.655 623.701 114.367 623.971 114.051 624.108C113.654 624.193 113.253 623.934 113.248 623.589Z" fill="#656565"/>
<path opacity="0.065253" d="M270.591 727.658L209.407 618.105C209.27 617.789 209.317 617.364 209.633 617.227C209.95 617.09 210.374 617.137 210.511 617.453L271.696 727.006C271.833 727.322 271.705 727.695 271.469 727.884C271.153 728.021 270.78 727.894 270.591 727.658Z" fill="#656565"/>
<path opacity="0.5" d="M209.378 617.974L194.112 584.201C193.975 583.885 194.102 583.512 194.418 583.375C194.734 583.237 195.107 583.365 195.244 583.681L210.51 617.453C210.647 617.77 210.52 618.143 210.152 618.36C209.916 618.549 209.515 618.29 209.378 617.974Z" fill="#656565"/>
<path opacity="0.4355" d="M257.178 568.831L194.966 584.639C194.57 584.725 194.249 584.517 194.164 584.121C194.079 583.724 194.286 583.403 194.631 583.398L256.894 567.509C257.291 567.424 257.612 567.632 257.697 568.028C257.702 568.373 257.494 568.694 257.178 568.831Z" fill="#656565"/>
<path opacity="0.4094" d="M73.1481 610.994L84.4001 623.161C84.6692 623.448 84.6221 623.873 84.3343 624.143C84.0464 624.412 83.6216 624.365 83.3525 624.077L72.1524 611.83C71.8832 611.543 71.9303 611.118 72.1663 610.929C72.5344 610.711 72.9592 610.758 73.1481 610.994Z" fill="#656565"/>
<path opacity="0.098858" d="M161.04 77.9671L174.557 210.223C174.562 210.568 174.274 210.837 173.93 210.842C173.585 210.847 173.396 210.611 173.259 210.295L159.661 77.9871C159.656 77.6425 159.944 77.3731 160.341 77.2878C160.714 77.415 161.035 77.6224 161.04 77.9671Z" fill="#656565"/>
<path opacity="0.2576" d="M113.848 622.838L209.949 617.09C210.294 617.085 210.563 617.373 210.648 617.769C210.653 618.114 210.365 618.383 210.101 618.44L114.052 624.108C113.707 624.113 113.438 623.825 113.433 623.48C113.216 623.112 113.504 622.843 113.848 622.838Z" fill="#656565"/>
<path opacity="0.1406" d="M99.3124 627.902L77.8011 577.912C77.6641 577.596 77.8433 577.143 78.1595 577.005C78.4757 576.868 78.9289 577.047 79.0659 577.363L100.525 627.433C100.662 627.75 100.535 628.123 100.219 628.26C99.8223 628.345 99.4494 628.218 99.3124 627.902Z" fill="#656565"/>
<path opacity="0.1264" d="M83.7337 622.958L194.551 583.346C194.867 583.208 195.188 583.416 195.325 583.732C195.462 584.048 195.254 584.37 194.938 584.507L84.2014 624.171C83.8851 624.308 83.432 624.129 83.3469 623.732C83.2382 623.548 83.4175 623.095 83.7337 622.958Z" fill="#656565"/>
<path opacity="0.4598" d="M214.976 254.9L173.557 210.715C173.287 210.427 173.334 210.002 173.57 209.813C173.858 209.544 174.203 209.539 174.472 209.827L215.943 253.931C216.212 254.219 216.165 254.644 215.877 254.913C215.589 255.182 215.165 255.135 214.976 254.9Z" fill="#656565"/>
<path opacity="0.2347" d="M79.0706 577.708L73.3416 611.574C73.2662 611.867 72.9783 612.136 72.5535 612.09C72.2608 612.014 71.9916 611.727 72.0387 611.302L77.7159 577.516C77.763 577.091 78.1311 576.873 78.504 577C78.9807 576.967 79.198 577.335 79.0706 577.708Z" fill="#656565"/>
<path opacity="0.1447" d="M121.894 92.0608L174.58 210.011C174.717 210.327 174.59 210.7 174.273 210.837C173.957 210.975 173.584 210.847 173.447 210.531L120.762 92.5812C120.625 92.265 120.752 91.8919 121.12 91.6744C121.384 91.6175 121.757 91.7446 121.894 92.0608Z" fill="#656565"/>
<path opacity="0.1562" d="M103.775 564.302L210.241 617.165C210.562 617.373 210.699 617.689 210.572 618.062C210.364 618.383 210.048 618.521 209.675 618.393L103.209 565.53C102.836 565.403 102.751 565.006 102.878 564.633C103.006 564.26 103.454 564.095 103.775 564.302Z" fill="#656565"/>
<path opacity="0.5" d="M113.839 624.084L83.9654 624.36C83.6209 624.365 83.2715 624.025 83.2666 623.681C83.2618 623.336 83.6016 622.986 83.9461 622.981L113.848 622.838C114.193 622.833 114.462 623.12 114.467 623.465C114.472 623.81 114.264 624.131 113.839 624.084Z" fill="#656565"/>
<path opacity="0.5" d="M160.704 78.6616L121.536 92.9675C121.22 93.1047 120.767 92.9257 120.682 92.5292C120.545 92.213 120.724 91.7596 121.12 91.6743L160.289 77.3683C160.605 77.2311 161.058 77.4101 161.143 77.8066C161.148 78.1513 161.021 78.5244 160.704 78.6616Z" fill="#656565"/>
<path opacity="0.072261" d="M78.4759 576.868L194.816 583.289C195.16 583.284 195.43 583.572 195.383 583.997C195.387 584.341 195.1 584.611 194.755 584.616L78.415 578.195C78.0704 578.2 77.721 577.86 77.7681 577.435C77.7916 577.223 78.1314 576.873 78.4759 576.868Z" fill="#656565"/>
<path opacity="0.07489" d="M216.056 254.46L217.061 390.584C217.066 390.929 216.778 391.198 216.382 391.283C215.985 391.369 215.768 391 215.683 390.604L214.677 254.48C214.672 254.135 215.012 253.786 215.357 253.78C215.833 253.747 216.103 254.035 216.056 254.46Z" fill="#656565"/>
<path opacity="0.1827" d="M176.885 213.663L226.852 243.563C227.173 243.77 227.258 244.167 227.103 244.408C226.895 244.729 226.499 244.814 226.258 244.659L176.238 214.839C175.917 214.632 175.832 214.235 176.04 213.914C176.247 213.593 176.644 213.507 176.885 213.663Z" fill="#656565"/>
<path opacity="0.227" d="M73.2353 168.767L174.312 209.723C174.685 209.85 174.77 210.247 174.694 210.54C174.567 210.913 174.17 210.998 173.878 210.923L72.6692 169.995C72.2962 169.868 72.1309 169.419 72.3385 169.098C72.4658 168.725 72.8623 168.64 73.2353 168.767Z" fill="#656565"/>
<path opacity="0.5" d="M104.079 565.067L84.5419 623.821C84.4145 624.195 84.0464 624.412 83.6735 624.285C83.3006 624.158 83.0833 623.79 83.2106 623.417L102.748 564.662C102.875 564.289 103.191 564.152 103.564 564.279C104.069 564.378 104.206 564.694 104.079 565.067Z" fill="#656565"/>
<path opacity="0.3632" d="M113.305 623.853L77.8281 578.044C77.559 577.757 77.6061 577.332 77.9742 577.114C78.262 576.845 78.6868 576.892 78.9041 577.26L114.381 623.069C114.65 623.356 114.523 623.729 114.235 623.999C113.999 624.188 113.574 624.141 113.305 623.853Z" fill="#656565"/>
<path opacity="0.01" d="M72.2322 611.882L35.2104 576.914C34.9412 576.627 34.9363 576.282 35.1439 575.961C35.4318 575.691 35.8283 575.606 36.0974 575.894L73.0674 610.942C73.3365 611.229 73.3413 611.574 73.0535 611.843C72.9781 612.136 72.5532 612.089 72.2322 611.882Z" fill="#656565"/>
<path opacity="0.054097" d="M160.94 78.4725L73.4619 169.824C73.174 170.094 72.7492 170.047 72.4801 169.759C72.2109 169.471 72.2061 169.127 72.4939 168.857L159.972 77.5055C160.26 77.2361 160.605 77.2311 160.874 77.5189C161.143 77.8067 161.176 78.2835 160.94 78.4725Z" fill="#656565"/>
<path opacity="0.1456" d="M210.021 618.388L84.0179 624.279C83.6733 624.284 83.3239 623.945 83.3191 623.6C83.3142 623.255 83.6021 622.986 83.9986 622.901L210.002 617.01C210.346 617.005 210.615 617.292 210.7 617.689C210.653 618.114 210.365 618.383 210.021 618.388Z" fill="#656565"/>
<path opacity="0.5" d="M103.82 565.468L78.7597 578.19C78.4434 578.327 78.0705 578.2 77.8533 577.832C77.7163 577.515 77.8436 577.142 78.2117 576.925L103.272 564.203C103.588 564.066 103.961 564.193 104.178 564.561C104.183 564.906 104.056 565.279 103.82 565.468Z" fill="#656565"/>
<path opacity="0.3944" d="M176.05 214.603L173.476 210.663C173.259 210.295 173.387 209.922 173.623 209.733C173.858 209.544 174.364 209.643 174.552 209.879L177.178 213.738C177.395 214.106 177.268 214.48 177.032 214.669C176.692 215.018 176.187 214.92 176.05 214.603Z" fill="#656565"/>
<path opacity="0.1557" d="M211.52 256.196L173.424 210.743C173.154 210.456 173.201 210.031 173.489 209.761C173.777 209.492 174.202 209.539 174.471 209.827L212.62 255.199C212.889 255.487 212.842 255.912 212.554 256.181C212.214 256.531 211.789 256.484 211.52 256.196Z" fill="#656565"/>
<path opacity="0.3416" d="M121.824 92.6984L73.5137 169.744C73.3061 170.065 72.9096 170.151 72.5886 169.943C72.2676 169.736 72.1824 169.339 72.39 169.018L120.781 92.0241C120.988 91.7029 121.385 91.6175 121.706 91.825C121.946 91.9806 122.032 92.3772 121.824 92.6984Z" fill="#656565"/>
<path opacity="0.059581" d="M78.6351 576.972L210.161 617.114C210.534 617.241 210.751 617.609 210.624 617.982C210.497 618.355 210.18 618.492 209.756 618.445L78.2296 578.304C77.8566 578.177 77.6394 577.809 77.7667 577.435C77.8941 577.062 78.2622 576.845 78.6351 576.972Z" fill="#656565"/>
<path opacity="0.5" d="M79.0932 577.496L84.6161 623.528C84.621 623.873 84.4134 624.194 84.0169 624.28C83.6724 624.285 83.3513 624.077 83.2662 623.681L77.7433 577.648C77.6582 577.251 77.9461 576.982 78.3425 576.897C78.6871 576.892 79.0884 577.151 79.0932 577.496Z" fill="#656565"/>
<path opacity="0.076693" d="M121.721 92.8588L25.6297 175.002C25.3419 175.271 24.8368 175.173 24.6998 174.857C24.5109 174.621 24.558 174.196 24.7137 173.955L120.885 91.8634C121.173 91.594 121.597 91.6409 121.867 91.9286C122.004 92.2448 122.008 92.5895 121.721 92.8588Z" fill="#656565"/>
<path opacity="0.2564" d="M103.555 565.525L35.7961 577.065C35.3996 577.15 35.0502 576.811 35.0454 576.466C34.9603 576.07 35.2482 575.8 35.5644 575.663L103.404 564.175C103.8 564.09 104.069 564.377 104.154 564.774C104.159 565.119 103.952 565.44 103.555 565.525Z" fill="#656565"/>
<path opacity="0.5" d="M177.046 213.767L215.891 254.011C216.16 254.299 216.113 254.724 215.877 254.913C215.589 255.182 215.165 255.135 214.976 254.9L176.078 214.736C175.809 214.448 175.856 214.023 176.144 213.753C176.432 213.484 176.857 213.531 177.046 213.767Z" fill="#656565"/>
<path opacity="0.055645" d="M-25.1754 486.548L78.8762 577.128C79.1454 577.415 79.2304 577.812 78.9426 578.081C78.6548 578.351 78.2583 578.436 77.9892 578.148L-26.0625 487.569C-26.3316 487.281 -26.4167 486.885 -26.1288 486.615C-25.841 486.346 -25.4445 486.26 -25.1754 486.548Z" fill="#656565"/>
<path opacity="0.5" d="M73.0136 169.99L25.2329 175.087C24.8883 175.092 24.487 174.833 24.4822 174.488C24.4773 174.144 24.7369 173.742 25.0815 173.737L72.8621 168.64C73.2067 168.635 73.5277 168.842 73.6128 169.239C73.6979 169.635 73.3582 169.985 73.0136 169.99Z" fill="#656565"/>
<path opacity="0.1835" d="M176.319 214.891L72.6685 169.995C72.3475 169.788 72.2105 169.471 72.3378 169.098C72.5454 168.777 72.8616 168.64 73.1543 168.715L176.804 213.611C177.177 213.738 177.343 214.187 177.135 214.508C177.088 214.933 176.692 215.018 176.319 214.891Z" fill="#656565"/>
<path opacity="0.017959" d="M271.933 344.759L214.946 254.767C214.809 254.451 214.856 254.026 215.173 253.889C215.489 253.752 215.914 253.799 216.051 254.115L273.089 344.026C273.306 344.394 273.179 344.767 272.891 345.037C272.575 345.174 272.07 345.075 271.933 344.759Z" fill="#656565"/>
<path opacity="0.4292" d="M83.4314 624.129L35.1292 576.863C34.86 576.575 34.9071 576.15 35.1147 575.829C35.4026 575.56 35.8274 575.607 36.1484 575.814L84.3704 623.028C84.6395 623.316 84.6443 623.661 84.3565 623.93C84.1773 624.384 83.7525 624.337 83.4314 624.129Z" fill="#656565"/>
<path opacity="0.1574" d="M-25.015 486.652L36.2572 575.998C36.4745 576.366 36.3472 576.739 36.0593 577.009C35.7431 577.146 35.3183 577.099 35.1294 576.863L-26.1429 487.517C-26.3601 487.149 -26.2328 486.776 -25.9969 486.587C-25.709 486.318 -25.2842 486.365 -25.015 486.652Z" fill="#656565"/>
<path opacity="0.5" d="M177.126 213.819L212.649 255.331C212.918 255.619 212.871 256.044 212.503 256.261C212.215 256.531 211.79 256.484 211.521 256.196L175.998 214.684C175.729 214.396 175.776 213.971 176.064 213.702C176.432 213.484 176.857 213.531 177.126 213.819Z" fill="#656565"/>
<path opacity="0.5" d="M78.3617 578.276L35.6627 577.094C35.2379 577.047 34.9688 576.759 35.0158 576.334C35.011 575.99 35.3507 575.64 35.6953 575.635L78.3943 576.817C78.7388 576.812 79.0882 577.151 79.0412 577.576C79.1262 577.973 78.7865 578.322 78.3617 578.276Z" fill="#656565"/>
<path opacity="0.059025" d="M295.687 285.996L176.319 214.891C175.998 214.684 175.913 214.287 176.121 213.966C176.329 213.645 176.725 213.559 176.966 213.715L296.413 284.872C296.734 285.079 296.819 285.476 296.692 285.849C296.456 286.038 296.008 286.204 295.687 285.996Z" fill="#656565"/>
<path opacity="0.1727" d="M223.297 182.864L216.135 254.511C216.008 254.884 215.72 255.154 215.347 255.027C215.055 254.951 214.785 254.664 214.781 254.319L221.89 182.752C221.937 182.327 222.305 182.109 222.73 182.156C223.023 182.232 223.292 182.519 223.297 182.864Z" fill="#656565"/>
<path opacity="0.2035" d="M83.9463 622.981L134.429 623.387C134.853 623.434 135.123 623.721 135.127 624.066C135.08 624.491 134.792 624.76 134.448 624.765L83.9656 624.36C83.621 624.365 83.2716 624.025 83.2668 623.681C83.3138 623.256 83.6017 622.986 83.9463 622.981Z" fill="#656565"/>
<path opacity="0.080145" d="M167.43 201.178L215.942 253.931C216.211 254.218 216.164 254.643 215.876 254.913C215.64 255.102 215.163 255.135 214.975 254.899L166.411 202.227C166.142 201.94 166.241 201.434 166.529 201.165C166.765 200.976 167.19 201.023 167.43 201.178Z" fill="#656565"/>
<path opacity="0.2469" d="M271.881 344.839L211.572 256.116C211.303 255.828 211.482 255.375 211.718 255.186C212.006 254.916 212.459 255.095 212.648 255.331L273.089 344.026C273.307 344.394 273.179 344.767 272.891 345.037C272.575 345.174 272.15 345.127 271.881 344.839Z" fill="#656565"/>
<path opacity="0.2536" d="M78.8766 577.128L134.962 623.618C135.283 623.825 135.316 624.302 135.029 624.571C134.741 624.841 134.344 624.926 134.075 624.638L78.1217 578.12C77.8526 577.832 77.7675 577.435 78.0553 577.166C78.1308 576.873 78.6075 576.84 78.8766 577.128Z" fill="#656565"/>
<path opacity="0.2622" d="M77.8715 577.275L104.501 527.088C104.709 526.767 105.157 526.601 105.478 526.809C105.799 527.016 105.884 527.413 105.809 527.706L79.1791 577.892C78.9716 578.213 78.5751 578.299 78.2824 578.224C77.7489 577.993 77.6639 577.596 77.8715 577.275Z" fill="#656565"/>
<path opacity="0.435" d="M176.196 213.673L222.123 182.218C222.491 182.001 222.916 182.048 223.133 182.416C223.35 182.784 223.303 183.209 222.935 183.426L176.928 214.829C176.56 215.047 176.187 214.92 175.97 214.552C175.833 214.235 175.96 213.862 176.196 213.673Z" fill="#656565"/>
<path opacity="0.4487" d="M223.246 182.944L212.762 255.86C212.635 256.233 212.347 256.502 211.974 256.375C211.681 256.3 211.412 256.012 211.407 255.667L221.892 182.752C221.939 182.327 222.307 182.109 222.732 182.156C223.076 182.151 223.374 182.571 223.246 182.944Z" fill="#656565"/>
<path opacity="0.1792" d="M295.497 285.76L222.005 183.281C221.788 182.913 221.835 182.488 222.203 182.27C222.491 182.001 222.996 182.1 223.213 182.468L296.654 285.027C296.923 285.315 296.824 285.82 296.508 285.958C296.139 286.175 295.634 286.076 295.497 285.76Z" fill="#656565"/>
<path opacity="0.4443" d="M167.46 201.311L177.126 213.819C177.395 214.107 177.348 214.532 176.98 214.749C176.692 215.018 176.268 214.972 176.05 214.604L166.384 202.096C166.115 201.808 166.214 201.303 166.502 201.033C166.818 200.896 167.243 200.943 167.46 201.311Z" fill="#656565"/>
<path opacity="0.207" d="M36.0696 575.762L134.854 623.433C135.175 623.641 135.392 624.009 135.133 624.411C134.925 624.732 134.557 624.949 134.236 624.742L35.5035 576.99C35.1825 576.782 34.9653 576.414 35.1728 576.093C35.3002 575.72 35.6966 575.635 36.0696 575.762Z" fill="#656565"/>
<path opacity="0.4013" d="M167.512 201.23L212.701 255.251C212.97 255.538 212.923 255.963 212.635 256.233C212.347 256.502 211.922 256.455 211.653 256.167L166.464 202.147C166.195 201.859 166.294 201.354 166.53 201.165C166.738 200.844 167.243 200.942 167.512 201.23Z" fill="#656565"/>
<path opacity="0.3069" d="M105.519 527.975L36.1106 576.928C35.8228 577.198 35.3177 577.099 35.1807 576.783C34.9116 576.495 35.0106 575.99 35.3268 575.852L104.655 526.847C105.023 526.63 105.448 526.677 105.666 527.045C105.854 527.281 105.807 527.706 105.519 527.975Z" fill="#656565"/>
<path opacity="0.3542" d="M105.775 527.229L135.098 623.934C135.183 624.33 135.056 624.703 134.608 624.869C134.211 624.954 133.89 624.747 133.753 624.431L104.378 527.806C104.292 527.409 104.42 527.036 104.868 526.871C105.236 526.653 105.609 526.78 105.775 527.229Z" fill="#656565"/>
<path opacity="0.5" d="M166.713 201.056L222.386 182.161C222.783 182.076 223.104 182.283 223.321 182.651C223.406 183.048 223.199 183.369 222.882 183.506L167.209 202.401C166.813 202.487 166.411 202.227 166.326 201.831C166.189 201.515 166.397 201.193 166.713 201.056Z" fill="#656565"/>
<path opacity="0.1899" d="M36.3377 576.05L61.1137 620.636C61.3309 621.004 61.1517 621.457 60.7836 621.675C60.4155 621.892 60.0425 621.765 59.8253 621.397L35.1815 576.783C34.9642 576.414 35.0915 576.041 35.4596 575.824C35.6956 575.635 36.1204 575.682 36.3377 576.05Z" fill="#656565"/>
<path opacity="0.4096" d="M60.4719 620.221L134.429 623.387C134.853 623.434 135.122 623.721 135.075 624.146C135.028 624.571 134.741 624.841 134.316 624.794L60.3072 621.708C59.8824 621.661 59.5329 621.321 59.58 620.896C59.7073 620.523 60.1273 620.226 60.4719 620.221Z" fill="#656565"/>
<path opacity="0.283" d="M105.676 527.734L61.1237 621.325C60.9964 621.698 60.548 621.864 60.0948 621.685C59.7219 621.557 59.5566 621.109 59.7358 620.656L104.369 527.117C104.576 526.795 105.025 526.63 105.346 526.837C105.718 526.964 105.884 527.413 105.676 527.734Z" fill="#656565"/>
<path opacity="0.068237" d="M297.321 143.496L167.261 202.321C166.893 202.539 166.44 202.36 166.355 201.963C166.137 201.595 166.397 201.194 166.713 201.056L296.825 142.151C297.221 142.065 297.594 142.192 297.812 142.561C297.765 142.986 297.637 143.359 297.321 143.496Z" fill="#656565"/>
<path opacity="0.028443" d="M232.497 644.525L134.316 624.794C133.891 624.747 133.674 624.379 133.721 623.954C133.848 623.581 134.136 623.312 134.561 623.359L232.714 642.958C233.087 643.085 233.384 643.505 233.257 643.878C233.29 644.355 232.87 644.653 232.497 644.525Z" fill="#656565"/>
<path opacity="0.01" d="M166.978 201L274.81 215.128C275.235 215.175 275.481 215.675 275.353 216.048C275.226 216.421 274.938 216.691 274.513 216.644L166.733 202.435C166.308 202.388 166.091 202.02 166.138 201.595C166.265 201.222 166.553 200.953 166.978 201Z" fill="#656565"/>
<path opacity="0.1759" d="M-11.1691 729.32L59.8683 620.627C60.0759 620.306 60.6045 620.192 60.9256 620.399C61.2466 620.607 61.36 621.136 61.1525 621.457L-9.80465 730.202C-10.0122 730.523 -10.5409 730.637 -10.9422 730.378C-11.2916 730.038 -11.3766 729.642 -11.1691 729.32Z" fill="#656565"/>
<path opacity="0.2275" d="M233.077 644.331L148.559 721.771C148.271 722.041 147.714 722.022 147.445 721.735C147.176 721.447 147.194 720.89 147.482 720.62L232.081 643.232C232.369 642.962 232.926 642.981 233.143 643.349C233.412 643.637 233.365 644.062 233.077 644.331Z" fill="#656565"/>
<path opacity="0.093505" d="M259.86 631.584L148.559 721.772C148.271 722.041 147.714 722.023 147.416 721.603C147.147 721.315 147.166 720.758 147.586 720.46L258.968 630.325C259.256 630.055 259.761 630.154 260.03 630.442C260.195 630.89 260.148 631.315 259.86 631.584Z" fill="#656565"/>
<path opacity="0.5" d="M160.443 -2.45026L241.508 -16.0933C241.904 -16.1786 242.386 -15.8674 242.419 -15.3906C242.504 -14.9941 242.192 -14.5122 241.716 -14.4788L160.703 -0.916042C160.307 -0.83072 159.825 -1.14195 159.872 -1.5669C159.707 -2.01529 160.047 -2.36494 160.443 -2.45026Z" fill="#656565"/>
<path opacity="0.4078" d="M160.31 -2.42178L254.665 -36.2786C255.113 -36.4443 255.515 -36.185 255.68 -35.7366C255.765 -35.3401 255.586 -34.8866 255.189 -34.8013L160.834 -0.944431C160.438 -0.859109 159.985 -1.03819 159.819 -1.48657C159.734 -1.88309 159.914 -2.33646 160.31 -2.42178Z" fill="#656565"/>
<path opacity="0.3825" d="M161.277 -1.45499L127.14 86.2302C126.961 86.6836 126.513 86.8491 126.14 86.722C125.767 86.5948 125.521 86.0945 125.649 85.7214L159.786 -1.96358C159.913 -2.33668 160.413 -2.58266 160.814 -2.32333C161.187 -2.19617 161.405 -1.82808 161.277 -1.45499Z" fill="#656565"/>
<path opacity="0.1012" d="M125.857 85.4003L241.059 -15.9278C241.347 -16.1972 241.904 -16.1787 242.121 -15.8107C242.39 -15.5229 242.291 -15.0176 242.004 -14.7483L126.802 86.5798C126.514 86.8492 125.957 86.8308 125.688 86.543C125.471 86.1749 125.57 85.6697 125.857 85.4003Z" fill="#656565"/>
<path opacity="0.3597" d="M160.31 -2.42164L250.573 -33.1165C251.022 -33.2821 251.423 -33.0228 251.588 -32.5744C251.754 -32.126 251.494 -31.7245 251.046 -31.5588L160.702 -0.915863C160.305 -0.830541 159.852 -1.00958 159.767 -1.4061C159.734 -1.88293 159.913 -2.33632 160.31 -2.42164Z" fill="#656565"/>
<path opacity="0.01" d="M137.395 176.531L274.943 215.1C275.316 215.227 275.613 215.647 275.486 216.02C275.359 216.393 274.939 216.691 274.566 216.564L136.966 178.075C136.512 177.896 136.295 177.528 136.394 177.023C136.521 176.65 136.941 176.352 137.395 176.531Z" fill="#656565"/>
<path opacity="0.040601" d="M160.947 -2.35172L267.429 70.5583C267.83 70.8176 267.944 71.3463 267.604 71.696C267.344 72.0975 266.868 72.131 266.466 71.8716L160.037 -1.11869C159.635 -1.37802 159.602 -1.85479 159.81 -2.17602C160.15 -2.52569 160.626 -2.55918 160.947 -2.35172Z" fill="#656565"/>
<path opacity="0.039436" d="M164.367 362.792L275.385 242.936C275.725 242.587 276.23 242.685 276.499 242.973C276.768 243.261 276.801 243.738 276.594 244.059L165.627 363.835C165.34 364.104 164.863 364.137 164.513 363.798C164.192 363.59 164.159 363.113 164.367 362.792Z" fill="#656565"/>
<path opacity="0.033008" d="M125.858 85.4005L250.339 -32.9276C250.678 -33.2773 251.183 -33.1785 251.453 -32.8908C251.802 -32.5511 251.703 -32.0459 251.415 -31.7765L126.934 86.5516C126.647 86.8209 126.09 86.8025 125.872 86.4344C125.603 86.1467 125.57 85.6698 125.858 85.4005Z" fill="#656565"/>
<path opacity="0.1392" d="M126.305 85.2344L266.844 70.4075C267.32 70.3741 267.67 70.7137 267.703 71.1906C267.736 71.6674 267.396 72.0171 267 72.1024L126.433 86.7971C125.956 86.8305 125.607 86.4909 125.522 86.0944C125.569 85.6695 125.828 85.2679 126.305 85.2344Z" fill="#656565"/>
<path opacity="0.2855" d="M127.136 85.8855L137.96 177.238C137.993 177.715 137.653 178.065 137.176 178.098C136.7 178.132 136.35 177.792 136.265 177.396L125.522 86.0946C125.488 85.6178 125.828 85.2681 126.305 85.2346C126.782 85.2012 127.131 85.5408 127.136 85.8855Z" fill="#656565"/>
<path opacity="0.364" d="M251.669 -32.5228L267.755 71.1104C267.788 71.5872 267.448 71.9369 267.052 72.0222C266.656 72.1075 266.306 71.7679 266.221 71.3714L250.135 -32.2618C250.05 -32.6584 250.361 -33.1402 250.838 -33.1737C251.102 -33.2305 251.584 -32.9193 251.669 -32.5228Z" fill="#656565"/>
<path opacity="0.1056" d="M58.3293 304.513L165.373 362.644C165.694 362.852 165.939 363.352 165.68 363.754C165.42 364.155 164.972 364.321 164.571 364.061L57.4755 306.01C57.0742 305.751 56.9088 305.302 57.1683 304.901C57.3475 304.447 57.928 304.253 58.3293 304.513Z" fill="#656565"/>
<path opacity="0.1932" d="M86.0925 361.73L165.08 362.569C165.505 362.616 165.854 362.956 165.807 363.381C165.76 363.806 165.472 364.075 165.076 364.16L86.0364 363.402C85.5597 363.435 85.1819 362.963 85.229 362.538C85.1958 362.062 85.6677 361.683 86.0925 361.73Z" fill="#656565"/>
<path opacity="0.1581" d="M137.474 176.582L276.391 242.789C276.844 242.968 276.957 243.497 276.83 243.87C276.651 244.323 276.122 244.437 275.801 244.229L136.965 178.075C136.564 177.815 136.398 177.367 136.658 176.966C136.705 176.541 137.101 176.455 137.474 176.582Z" fill="#656565"/>
<path opacity="0.053261" d="M136.6 176.702L266.395 70.5736C266.763 70.3561 267.239 70.3227 267.537 70.7426C267.806 71.0304 267.787 71.5875 267.419 71.805L137.624 177.933C137.256 178.15 136.699 178.132 136.482 177.764C136.213 177.476 136.312 176.971 136.6 176.702Z" fill="#656565"/>
<path opacity="0.112" d="M203.766 -87.2729L267.727 70.978C267.892 71.4264 267.633 71.828 267.265 72.0455C266.816 72.2111 266.363 72.0321 266.198 71.5837L202.317 -86.6154C202.152 -87.0638 202.331 -87.5172 202.779 -87.6828C203.148 -87.9003 203.601 -87.7213 203.766 -87.2729Z" fill="#656565"/>
<path opacity="0.022743" d="M251.699 -32.3906L254.202 93.317C254.235 93.7938 253.844 94.2238 253.419 94.1769C252.942 94.2104 252.513 93.8189 252.56 93.3939L250.056 -32.3137C250.103 -32.7386 250.443 -33.0883 250.92 -33.1218C251.264 -33.1268 251.614 -32.7871 251.699 -32.3906Z" fill="#656565"/>
<path opacity="0.1628" d="M254.092 93.1331L276.796 243.393C276.83 243.87 276.57 244.271 276.093 244.305C275.617 244.338 275.215 244.079 275.182 243.602L252.426 93.4225C252.393 92.9457 252.653 92.5441 253.181 92.4303C253.658 92.3969 254.007 92.7366 254.092 93.1331Z" fill="#656565"/>
<path opacity="0.1901" d="M136.653 176.621L252.733 92.5959C253.153 92.2981 253.658 92.3969 253.875 92.7649C254.173 93.1849 254.074 93.6901 253.706 93.9076L137.545 177.881C137.177 178.098 136.672 178 136.455 177.632C136.266 177.396 136.365 176.891 136.653 176.621Z" fill="#656565"/>
<path opacity="0.1096" d="M137.862 177.744L58.7171 305.674C58.4576 306.076 57.929 306.19 57.5277 305.93C57.1264 305.671 57.0932 305.194 57.2205 304.821L136.446 176.943C136.706 176.541 137.234 176.428 137.636 176.687C137.957 176.894 138.07 177.423 137.862 177.744Z" fill="#656565"/>
<path opacity="0.5" d="M58.6779 304.852L86.8658 362.117C87.0312 362.565 86.9323 363.07 86.4839 363.236C86.0355 363.402 85.5304 363.303 85.3651 362.855L57.1771 305.59C57.0118 305.142 57.1909 304.689 57.559 304.471C58.0074 304.305 58.4606 304.484 58.6779 304.852Z" fill="#656565"/>
<path opacity="0.062707" d="M146.027 450.326L57.2568 305.642C57.0396 305.274 57.1385 304.769 57.5585 304.471C57.9266 304.253 58.4317 304.352 58.7292 304.772L147.552 449.376C147.769 449.744 147.618 450.33 147.25 450.547C146.83 450.845 146.325 450.746 146.027 450.326Z" fill="#656565"/>
<path opacity="0.3992" d="M146.057 450.459L85.3426 363.067C85.0451 362.647 85.144 362.142 85.564 361.844C85.984 361.546 86.4891 361.645 86.7866 362.065L147.501 449.457C147.799 449.877 147.7 450.382 147.28 450.68C146.912 450.897 146.274 450.827 146.057 450.459Z" fill="#656565"/>
<path opacity="0.2545" d="M175.698 668.157L157.111 641.459L222.714 665.298L175.698 668.157Z" fill="#656565"/>
<path opacity="0.1776" d="M99.9452 627.628L175.698 668.157L157.111 641.459L99.9452 627.628Z" fill="#656565"/>
<path opacity="0.1317" d="M175.698 668.157L222.714 665.298L234.381 644.604L175.698 668.157Z" fill="#656565"/>
<path opacity="0.2793" d="M113.91 623.447L99.9447 627.628L72.7562 611.424L113.91 623.447Z" fill="#656565"/>
<path opacity="0.2793" d="M113.91 623.447L99.9447 627.628L72.7562 611.424L113.91 623.447Z" fill="#656565"/>
<path opacity="0.2793" d="M113.91 623.447L99.9447 627.628L72.7562 611.424L113.91 623.447Z" fill="#656565"/>
<path opacity="0.091609" d="M272.561 554.182L231.45 530.119L194.692 584.007L272.561 554.182Z" fill="#656565"/>
<path opacity="0.1799" d="M209.96 617.779L234.381 644.604L194.693 584.007L209.96 617.779Z" fill="#656565"/>
<path opacity="0.042801" d="M231.451 530.119L209.959 617.78L194.693 584.007L231.451 530.119Z" fill="#656565"/>
<path opacity="0.1452" d="M226.569 244.177L215.499 254.441L174.028 210.337L226.569 244.177Z" fill="#656565"/>
<path opacity="0.1452" d="M226.569 244.177L215.499 254.441L174.028 210.337L226.569 244.177Z" fill="#656565"/>
<path opacity="0.1452" d="M226.569 244.177L215.499 254.441L174.028 210.337L226.569 244.177Z" fill="#656565"/>
<path opacity="0.038904" d="M103.544 564.836L72.755 611.424L83.9551 623.671L103.544 564.836Z" fill="#656565"/>
<path opacity="0.2055" d="M113.911 623.447L103.546 564.836L83.9565 623.671L113.911 623.447Z" fill="#656565"/>
<path opacity="0.1261" d="M113.91 623.447L103.545 564.836L78.4332 577.638L113.91 623.447Z" fill="#656565"/>
<path opacity="0.1827" d="M113.911 623.447L78.4336 577.638L83.9565 623.671L113.911 623.447Z" fill="#656565"/>
<path opacity="0.2416" d="M176.602 214.277L215.499 254.441L212.045 255.738L176.602 214.277Z" fill="#656565"/>
<path opacity="0.2416" d="M176.602 214.277L215.499 254.441L212.045 255.738L176.602 214.277Z" fill="#656565"/>
<path opacity="0.2416" d="M176.602 214.277L215.499 254.441L212.045 255.738L176.602 214.277Z" fill="#656565"/>
<path opacity="0.2344" d="M78.4321 577.638L83.9551 623.671L35.6529 576.404L78.4321 577.638Z" fill="#656565"/>
<path opacity="0.1153" d="M166.855 201.717L176.602 214.277L222.609 182.874L166.855 201.717Z" fill="#656565"/>
<path opacity="0.09078" d="M166.856 201.717L222.609 182.874L212.045 255.738L166.856 201.717Z" fill="#656565"/>
<rect width="208" height="660" transform="matrix(-1 0 0 1 208 0)" fill="url(#paint0_linear)"/>
</g>
<defs>
<linearGradient id="paint0_linear" x1="72.1156" y1="4.2348e-06" x2="-158.064" y2="566.469" gradientUnits="userSpaceOnUse">
<stop stop-color="#090909" stop-opacity="0.4"/>
<stop offset="0.96875" stop-color="#090909"/>
</linearGradient>
<clipPath id="clip0">
<rect width="208" height="660" fill="white" transform="matrix(-1 0 0 1 208 0)"/>
</clipPath>
</defs>
</svg>
