<svg width="208" height="738" viewBox="0 0 208 738" fill="none" xmlns="http://www.w3.org/2000/svg">
<g clip-path="url(#clip0)">
<path opacity="0.5" d="M123.982 495.647C122.958 496.046 121.805 495.54 121.406 494.517C121.006 493.494 121.513 492.34 122.537 491.941C123.561 491.542 124.714 492.047 125.113 493.071C125.513 494.094 125.006 495.247 123.982 495.647Z" fill="#616161"/>
<path opacity="0.5" d="M154.73 371.042C153.71 371.44 153.201 372.599 153.599 373.618C153.996 374.637 155.156 375.146 156.176 374.748C157.195 374.35 157.704 373.191 157.307 372.172C156.909 371.153 155.75 370.645 154.73 371.042Z" fill="#616161"/>
<path opacity="0.5" d="M143.071 600.703C141.996 601.123 140.785 600.592 140.366 599.517C139.947 598.443 140.478 597.232 141.553 596.812C142.628 596.393 143.84 596.924 144.259 597.998C144.678 599.073 144.146 600.284 143.071 600.703Z" fill="#616161"/>
<path opacity="0.5" d="M130.808 572.825C129.732 573.244 128.521 572.713 128.102 571.639C127.683 570.565 128.215 569.354 129.29 568.934C130.365 568.515 131.576 569.046 131.995 570.12C132.414 571.195 131.883 572.406 130.808 572.825Z" fill="#616161"/>
<path opacity="0.5" d="M35.0358 420.404C33.9235 420.838 33.4145 421.997 33.8481 423.108C34.2818 424.22 35.4413 424.728 36.5537 424.295C37.666 423.861 38.1389 422.609 37.7413 421.59C37.3077 420.478 36.0555 420.006 35.0358 420.404Z" fill="#616161"/>
<path opacity="0.5" d="M52.6778 660.836C51.5655 661.27 51.0565 662.429 51.4901 663.54C51.9238 664.652 53.0833 665.16 54.1956 664.726C55.308 664.292 55.7809 663.041 55.3834 662.022C55.0785 660.966 53.7902 660.402 52.6778 660.836Z" fill="#616161"/>
<path opacity="0.5" d="M59.7966 443.086C58.6843 443.52 58.1187 444.808 58.5524 445.919C58.9861 447.031 60.2744 447.596 61.3868 447.162C62.4991 446.728 63.0647 445.44 62.631 444.328C62.1046 443.253 60.909 442.652 59.7966 443.086Z" fill="#616161"/>
<path opacity="0.5" d="M99.8787 494.909C98.7663 495.343 98.2008 496.631 98.6344 497.743C99.0681 498.855 100.356 499.419 101.469 498.985C102.581 498.552 103.147 497.264 102.713 496.152C102.279 495.04 100.991 494.475 99.8787 494.909Z" fill="#616161"/>
<path opacity="0.5" d="M19.9919 104.774C18.8796 105.208 18.314 106.496 18.7477 107.608C19.1814 108.72 20.4697 109.284 21.5821 108.851C22.6944 108.417 23.26 107.129 22.8263 106.017C22.3926 104.905 21.1043 104.34 19.9919 104.774Z" fill="#616161"/>
<path opacity="0.5" d="M193.709 550.636C192.596 551.07 192.031 552.358 192.465 553.469C192.898 554.581 194.187 555.146 195.299 554.712C196.411 554.278 196.977 552.99 196.543 551.878C196.109 550.767 194.821 550.202 193.709 550.636Z" fill="#616161"/>
<path opacity="0.5" d="M185.189 540.296C184.077 540.73 183.511 542.018 183.945 543.13C184.379 544.241 185.667 544.806 186.779 544.372C187.892 543.938 188.457 542.65 188.024 541.539C187.59 540.427 186.302 539.862 185.189 540.296Z" fill="#616161"/>
<path opacity="0.5" d="M23.7218 305.163C22.5443 305.622 21.2176 305.04 20.7586 303.864C20.2995 302.687 20.8819 301.361 22.0594 300.901C23.2369 300.442 24.5635 301.024 25.0226 302.2C25.4817 303.377 24.8993 304.703 23.7218 305.163Z" fill="#616161"/>
<path opacity="0.5" d="M48.5086 472.466C47.3962 472.9 46.738 474.224 47.2078 475.428C47.6415 476.54 48.9659 477.197 50.171 476.727C51.2833 476.293 51.9416 474.969 51.4718 473.765C51.002 472.561 49.621 472.032 48.5086 472.466Z" fill="#616161"/>
<path opacity="0.5" d="M44.1141 324.854C43.0018 325.288 42.3435 326.612 42.8133 327.816C43.2469 328.928 44.5715 329.585 45.7765 329.115C46.9815 328.645 47.5471 327.357 47.0773 326.153C46.5148 324.985 45.2265 324.42 44.1141 324.854Z" fill="#616161"/>
<path opacity="0.5" d="M117.014 605.638C115.809 606.108 115.244 607.396 115.714 608.6C116.183 609.805 117.472 610.369 118.677 609.899C119.882 609.429 120.448 608.141 119.978 606.937C119.508 605.733 118.22 605.168 117.014 605.638Z" fill="#616161"/>
<path opacity="0.5" d="M130.192 516.494C128.987 516.964 128.365 518.38 128.835 519.585C129.305 520.789 130.686 521.318 131.891 520.848C133.096 520.378 133.661 519.09 133.192 517.885C132.686 516.588 131.397 516.023 130.192 516.494Z" fill="#616161"/>
<path opacity="0.5" d="M109.103 317.326C107.805 317.833 107.183 319.249 107.689 320.546C108.195 321.843 109.612 322.465 110.909 321.958C112.207 321.452 112.829 320.035 112.323 318.738C111.817 317.441 110.4 316.82 109.103 317.326Z" fill="#616161"/>
<path opacity="0.5" d="M3.47947 380.305C2.18173 380.811 1.5596 382.228 2.06555 383.525C2.57149 384.822 3.98868 385.443 5.28642 384.937C6.58417 384.431 7.2063 383.014 6.70035 381.717C6.1944 380.42 4.77722 379.799 3.47947 380.305Z" fill="#616161"/>
<path opacity="0.5" d="M83.9311 503.585C82.6334 504.092 82.0112 505.508 82.5172 506.805C83.0231 508.102 84.4403 508.724 85.7381 508.217C87.0358 507.711 87.6579 506.294 87.152 504.997C86.7387 503.664 85.2288 503.079 83.9311 503.585Z" fill="#616161"/>
<path opacity="0.5" d="M81.1904 605.523C79.8927 606.029 79.2706 607.446 79.7765 608.743C80.2825 610.04 81.6996 610.661 82.9974 610.155C84.2951 609.649 84.9172 608.232 84.4113 606.935C83.9053 605.638 82.4882 605.017 81.1904 605.523Z" fill="#616161"/>
<path opacity="0.5" d="M116.276 319.011C114.979 319.517 114.356 320.934 114.862 322.231C115.368 323.528 116.786 324.149 118.083 323.643C119.381 323.137 120.003 321.72 119.497 320.423C118.991 319.126 117.574 318.505 116.276 319.011Z" fill="#616161"/>
<path opacity="0.5" d="M45.8877 326.937C44.5899 327.443 43.9678 328.86 44.4738 330.157C44.9797 331.454 46.3969 332.075 47.6946 331.569C48.9924 331.063 49.6145 329.646 49.1086 328.349C48.6387 327.145 47.1854 326.431 45.8877 326.937Z" fill="#616161"/>
<path opacity="0.5" d="M39.7764 579.304C38.4786 579.81 37.8565 581.227 38.3624 582.524C38.8684 583.821 40.2856 584.442 41.5833 583.936C42.8811 583.429 43.5032 582.013 42.9972 580.716C42.4913 579.419 41.0741 578.797 39.7764 579.304Z" fill="#616161"/>
<path opacity="0.5" d="M80.5795 639.277C79.2818 639.783 78.567 641.236 79.109 642.626C79.615 643.923 81.0322 644.544 82.4226 644.001C83.8131 643.459 84.3425 642.078 83.8365 640.781C83.4233 639.448 81.8773 638.77 80.5795 639.277Z" fill="#616161"/>
<path opacity="0.5" d="M153.956 393.973C152.658 394.48 152.036 395.896 152.578 397.286C153.084 398.583 154.501 399.204 155.799 398.698C157.097 398.192 157.719 396.775 157.213 395.478C156.671 394.088 155.254 393.467 153.956 393.973Z" fill="#616161"/>
<path opacity="0.5" d="M31.8204 329.756C30.5226 330.262 29.8078 331.715 30.3499 333.105C30.8559 334.402 32.3092 335.116 33.6996 334.573C34.9973 334.067 35.676 332.521 35.1701 331.224C34.5353 329.871 33.1181 329.25 31.8204 329.756Z" fill="#616161"/>
<path opacity="0.5" d="M60.1758 488.41C58.8781 488.916 58.1633 490.369 58.7054 491.759C59.2113 493.056 60.6646 493.769 62.0551 493.227C63.3528 492.721 64.0677 491.268 63.5256 489.878C63.0196 488.581 61.5663 487.867 60.1758 488.41Z" fill="#616161"/>
<path opacity="0.5" d="M120.395 685.761C119.097 686.267 118.418 687.813 118.924 689.11C119.43 690.407 120.976 691.085 122.274 690.578C123.572 690.072 124.25 688.526 123.744 687.229C123.238 685.932 121.785 685.219 120.395 685.761Z" fill="#616161"/>
<path opacity="0.5" d="M133.469 715.991C132.171 716.498 131.492 718.043 131.998 719.34C132.504 720.637 134.05 721.315 135.348 720.809C136.646 720.303 137.324 718.757 136.819 717.46C136.313 716.163 134.767 715.485 133.469 715.991Z" fill="#616161"/>
<path opacity="0.5" d="M17.293 589.568C15.9953 590.074 15.3166 591.62 15.8226 592.917C16.3285 594.214 17.8745 594.892 19.1723 594.385C20.47 593.879 21.1487 592.334 20.6427 591.037C20.1368 589.74 18.5908 589.062 17.293 589.568Z" fill="#616161"/>
<path opacity="0.5" d="M-3.34173 83.5627C-4.63948 84.069 -5.31817 85.6146 -4.81222 86.9116C-4.30627 88.2085 -2.76024 88.8863 -1.4625 88.3801C-0.16475 87.8738 0.513923 86.3282 0.00797455 85.0312C-0.497974 83.7342 -2.04399 83.0565 -3.34173 83.5627Z" fill="#616161"/>
<path opacity="0.5" d="M36.6504 497.372C35.3527 497.878 34.674 499.424 35.1799 500.721C35.6859 502.018 37.2319 502.696 38.5296 502.189C39.9201 501.647 40.5061 500.137 40.0001 498.841C39.4942 497.544 37.9482 496.866 36.6504 497.372Z" fill="#616161"/>
<path opacity="0.5" d="M15.7602 669.687C14.4291 670.206 12.9294 669.549 12.4104 668.218C11.8915 666.888 12.5499 665.389 13.8809 664.87C15.212 664.35 16.7117 665.008 17.2306 666.338C17.7496 667.668 17.0912 669.168 15.7602 669.687Z" fill="#616161"/>
<path opacity="0.5" d="M68.8605 414.574C67.47 415.116 66.8841 416.625 67.4261 418.015C67.9682 419.405 69.4781 419.99 70.7759 419.483C72.0736 418.977 72.845 417.395 72.339 416.098C71.7969 414.709 70.2509 414.031 68.8605 414.574Z" fill="#616161"/>
<path opacity="0.5" d="M106.064 680.784C104.673 681.327 104.087 682.836 104.629 684.226C105.171 685.615 106.717 686.293 108.015 685.787C109.406 685.244 110.084 683.699 109.542 682.309C109 680.92 107.454 680.242 106.064 680.784Z" fill="#616161"/>
<path opacity="0.5" d="M29.9621 404.664C28.5716 405.206 27.893 406.752 28.3989 408.049C28.941 409.439 30.487 410.116 31.8775 409.574C33.2679 409.032 33.9466 407.486 33.4045 406.096C32.8985 404.799 31.3525 404.122 29.9621 404.664Z" fill="#616161"/>
<path opacity="0.5" d="M25.3976 428.006C24.0072 428.548 23.3285 430.094 23.8706 431.484C24.4127 432.873 25.9587 433.551 27.3491 433.009C28.7395 432.466 29.4182 430.92 28.8761 429.531C28.2414 428.177 26.6953 427.5 25.3976 428.006Z" fill="#616161"/>
<path opacity="0.5" d="M102.829 329.167C101.439 329.71 100.76 331.255 101.302 332.645C101.844 334.035 103.39 334.712 104.781 334.17C106.171 333.627 106.85 332.082 106.308 330.692C105.766 329.303 104.22 328.625 102.829 329.167Z" fill="#616161"/>
<path opacity="0.5" d="M140.353 360.747C138.962 361.289 138.284 362.835 138.826 364.224C139.368 365.614 140.914 366.292 142.304 365.749C143.695 365.207 144.373 363.661 143.831 362.272C143.289 360.882 141.743 360.204 140.353 360.747Z" fill="#616161"/>
<path opacity="0.5" d="M27.2296 139.203C25.8392 139.745 25.1605 141.291 25.7026 142.681C26.2447 144.07 27.7907 144.748 29.1812 144.206C30.5716 143.663 31.2503 142.118 30.7082 140.728C30.1661 139.338 28.6201 138.66 27.2296 139.203Z" fill="#616161"/>
<path opacity="0.5" d="M72.2296 481.252C70.8392 481.794 70.1605 483.34 70.7026 484.73C71.2447 486.119 72.7907 486.797 74.1811 486.255C75.5716 485.712 76.2503 484.167 75.7082 482.777C75.13 481.295 73.6201 480.71 72.2296 481.252Z" fill="#616161"/>
<path opacity="0.5" d="M79.0812 736.46C77.6907 737.003 77.012 738.548 77.5541 739.938C78.0962 741.328 79.6423 742.005 81.0327 741.463C82.4231 740.921 83.1018 739.375 82.5597 737.985C82.0176 736.596 80.4716 735.918 79.0812 736.46Z" fill="#616161"/>
<path opacity="0.5" d="M21.5285 626.982C20.138 627.525 19.4593 629.07 20.0014 630.46C20.5435 631.85 22.0896 632.527 23.48 631.985C24.8704 631.443 25.5491 629.897 25.007 628.507C24.4649 627.118 22.9189 626.44 21.5285 626.982Z" fill="#616161"/>
<path opacity="0.5" d="M131.441 698.744C130.05 699.287 129.371 700.832 129.914 702.222C130.456 703.611 132.002 704.289 133.392 703.747C134.782 703.204 135.461 701.659 134.919 700.269C134.377 698.88 132.831 698.202 131.441 698.744Z" fill="#616161"/>
<path opacity="0.5" d="M170.561 480.892C169.17 481.435 168.399 483.017 168.977 484.499C169.519 485.888 171.101 486.659 172.585 486.08C173.975 485.538 174.746 483.956 174.168 482.474C173.626 481.084 171.951 480.35 170.561 480.892Z" fill="#616161"/>
<path opacity="0.5" d="M23.2737 438.441C21.8832 438.983 21.2045 440.529 21.7828 442.011C22.3249 443.401 23.907 444.171 25.2975 443.629C26.6879 443.086 27.4593 441.505 26.881 440.022C26.2101 438.576 24.6641 437.899 23.2737 438.441Z" fill="#616161"/>
<path opacity="0.5" d="M75.5709 388.794C74.1375 389.353 72.5224 388.645 71.9635 387.212C71.4047 385.78 72.1137 384.165 73.5471 383.606C74.9806 383.047 76.5956 383.755 77.1545 385.187C77.7133 386.62 77.0043 388.234 75.5709 388.794Z" fill="#616161"/>
<path opacity="0.5" d="M161.807 533.194C160.416 533.736 159.645 535.318 160.223 536.8C160.765 538.19 162.348 538.96 163.831 538.382C165.221 537.839 165.992 536.257 165.414 534.775C164.836 533.293 163.197 532.651 161.807 533.194Z" fill="#616161"/>
<path opacity="0.5" d="M170.032 197.814C168.598 198.373 166.983 197.665 166.424 196.232C165.866 194.8 166.575 193.185 168.008 192.626C169.441 192.067 171.057 192.775 171.615 194.207C172.174 195.64 171.465 197.255 170.032 197.814Z" fill="#616161"/>
<path opacity="0.5" d="M9.76886 252.967C8.28573 253.545 7.55046 255.22 8.12869 256.702C8.70692 258.184 10.3818 258.918 11.8649 258.34C13.3481 257.761 14.0833 256.087 13.5051 254.605C12.8341 253.158 11.252 252.388 9.76886 252.967Z" fill="#616161"/>
<path opacity="0.5" d="M89.0169 667.474C87.5338 668.052 86.7985 669.727 87.3768 671.209C87.955 672.691 89.6298 673.425 91.113 672.847C92.5961 672.268 93.3313 670.594 92.7531 669.112C92.1749 667.629 90.5 666.895 89.0169 667.474Z" fill="#616161"/>
<path opacity="0.5" d="M34.0091 99.0928C32.526 99.6714 31.7907 101.346 32.3689 102.828C32.9472 104.31 34.622 105.045 36.1052 104.466C37.5883 103.887 38.3235 102.213 37.7453 100.731C37.1671 99.2485 35.4922 98.5143 34.0091 99.0928Z" fill="#616161"/>
<path opacity="0.5" d="M0.349983 402.126C-1.13315 402.705 -1.96109 404.415 -1.34672 405.99C-0.768499 407.472 0.942494 408.299 2.51832 407.685C4.09415 407.07 4.82939 405.395 4.21503 403.82C3.60067 402.246 1.92581 401.511 0.349983 402.126Z" fill="#616161"/>
<path opacity="0.5" d="M-1.20275 290.549C-2.77858 291.164 -3.51381 292.838 -2.89945 294.413C-2.28508 295.988 -0.51753 296.686 0.965604 296.108C2.54143 295.493 3.24053 293.726 2.6623 292.244C2.08407 290.761 0.280383 289.971 -1.20275 290.549Z" fill="#616161"/>
<path opacity="0.5" d="M149.551 715.055C147.975 715.669 147.276 717.436 147.854 718.919C148.469 720.494 150.236 721.192 151.72 720.613C153.295 719.998 153.994 718.231 153.416 716.749C152.802 715.174 151.127 714.44 149.551 715.055Z" fill="#616161"/>
<path opacity="0.5" d="M114.576 257.98C112.989 258.599 111.201 257.815 110.582 256.229C109.963 254.643 110.748 252.855 112.335 252.236C113.922 251.617 115.711 252.401 116.329 253.987C116.948 255.573 116.163 257.361 114.576 257.98Z" fill="#616161"/>
<path opacity="0.5" d="M18.1127 590.849C16.5369 591.464 15.7451 593.267 16.3595 594.842C16.9738 596.417 18.7776 597.208 20.3534 596.593C21.9292 595.978 22.721 594.175 22.1066 592.6C21.4923 591.025 19.6886 590.235 18.1127 590.849Z" fill="#616161"/>
<path opacity="0.5" d="M58.7417 420.122C57.1658 420.737 56.374 422.54 56.9884 424.115C57.6028 425.69 59.4064 426.48 60.9823 425.866C62.5581 425.251 63.3499 423.448 62.7356 421.873C62.1212 420.298 60.3175 419.507 58.7417 420.122Z" fill="#616161"/>
<path opacity="0.5" d="M136.554 576.881C134.886 577.531 134.037 579.463 134.688 581.131C135.338 582.799 137.271 583.646 138.939 582.995C140.608 582.344 141.456 580.412 140.806 578.744C140.063 577.113 138.13 576.266 136.554 576.881Z" fill="#616161"/>
<path opacity="0.5" d="M130.512 570.699L142.776 598.577C142.884 598.855 142.807 599.205 142.436 599.349C142.158 599.458 141.808 599.381 141.7 599.103L129.436 571.225C129.328 570.947 129.405 570.597 129.683 570.489C130.017 570.251 130.368 570.328 130.512 570.699Z" fill="#656565"/>
<path opacity="0.097547" d="M-29.5156 398.94L-17.014 500.802C-16.9983 501.116 -17.2041 501.41 -17.5183 501.426C-17.8325 501.442 -18.1263 501.236 -18.1421 500.922L-30.6437 399.06C-30.6594 398.746 -30.4536 398.452 -30.1394 398.436C-29.8252 398.421 -29.5314 398.626 -29.5156 398.94Z" fill="#656565"/>
<path opacity="0.3429" d="M35.5689 422.864L-30.2405 399.543C-30.4982 399.43 -30.7354 399.096 -30.6223 398.838C-30.5092 398.581 -30.1746 398.343 -29.9169 398.456L35.8925 421.777C36.1502 421.89 36.3874 422.225 36.2743 422.482C36.1974 422.832 35.8266 422.977 35.5689 422.864Z" fill="#656565"/>
<path opacity="0.1933" d="M36.2529 422.704L-17.0548 501.245C-17.2606 501.539 -17.5748 501.555 -17.8325 501.442C-18.1263 501.236 -18.142 500.922 -18.0289 500.664L35.2788 422.123C35.4846 421.83 35.7988 421.814 36.0565 421.927C36.3142 422.04 36.366 422.446 36.2529 422.704Z" fill="#656565"/>
<path opacity="0.085119" d="M101.138 496.767L130.513 570.699C130.621 570.977 130.452 571.363 130.174 571.472C129.895 571.58 129.545 571.503 129.401 571.133L100.026 497.201C99.9174 496.923 99.9943 496.572 100.365 496.428C100.736 496.283 101.03 496.489 101.138 496.767Z" fill="#656565"/>
<path opacity="0.1194" d="M60.8656 445.551L-17.2402 501.317C-17.4821 501.519 -17.8325 501.442 -18.0336 501.2C-18.2347 500.958 -18.1578 500.608 -17.9158 500.407L60.1899 444.641C60.4319 444.44 60.7822 444.517 60.9834 444.758C61.2206 445.093 61.1436 445.443 60.8656 445.551Z" fill="#656565"/>
<path opacity="0.099722" d="M-48.8954 670.679L53.4419 662.245C53.7561 662.229 54.0499 662.435 54.0657 662.749C54.0814 663.063 53.8755 663.357 53.5613 663.373L-48.776 671.807C-49.0902 671.822 -49.384 671.617 -49.3997 671.303C-49.3227 670.952 -49.0808 670.751 -48.8954 670.679Z" fill="#656565"/>
<path opacity="0.5" d="M36.1857 421.983L60.9837 444.758C61.1848 445 61.2005 445.314 60.9585 445.515C60.7166 445.716 60.4024 445.732 60.2012 445.491L35.4033 422.716C35.2022 422.474 35.1864 422.16 35.4284 421.959C35.5776 421.794 35.8919 421.778 36.1857 421.983Z" fill="#656565"/>
<path opacity="0.1234" d="M36.1868 421.983L101.066 496.581C101.267 496.823 101.19 497.173 101.041 497.338C100.799 497.539 100.485 497.555 100.284 497.313L35.4044 422.715C35.2033 422.473 35.2802 422.123 35.5222 421.922C35.6714 421.757 35.9857 421.741 36.1868 421.983Z" fill="#656565"/>
<path opacity="0.4586" d="M60.9845 444.758L101.066 496.581C101.267 496.823 101.19 497.173 100.948 497.374C100.706 497.576 100.356 497.499 100.155 497.257L60.0732 445.434C59.8721 445.192 59.9491 444.842 60.191 444.64C60.4691 444.532 60.7833 444.516 60.9845 444.758Z" fill="#656565"/>
<path opacity="0.01" d="M36.2941 422.261L49.9333 474.473C50.0417 474.751 49.8359 475.045 49.5578 475.153C49.2797 475.262 48.9859 475.056 48.8775 474.778L35.331 422.53C35.2226 422.252 35.4284 421.959 35.7065 421.85C35.8919 421.778 36.2784 421.947 36.2941 422.261Z" fill="#656565"/>
<path opacity="0.068931" d="M100.901 496.432L194.767 552.251C195.025 552.364 195.077 552.771 194.963 553.028C194.85 553.286 194.443 553.338 194.186 553.225L100.32 497.406C100.062 497.293 100.01 496.887 100.123 496.629C100.365 496.428 100.643 496.319 100.901 496.432Z" fill="#656565"/>
<path opacity="0.1485" d="M100.901 496.432L186.212 541.819C186.469 541.932 186.614 542.302 186.408 542.596C186.295 542.854 185.924 542.998 185.63 542.793L100.319 497.406C100.062 497.293 99.9172 496.922 100.123 496.629C100.329 496.335 100.643 496.319 100.901 496.432Z" fill="#656565"/>
<path opacity="0.3407" d="M61.1083 445.35L49.9494 474.787C49.8363 475.044 49.4655 475.189 49.2078 475.076C48.9502 474.963 48.7129 474.629 48.9187 474.335L60.1703 444.862C60.2834 444.604 60.618 444.367 60.9118 444.573C61.0768 444.722 61.1852 445 61.1083 445.35Z" fill="#656565"/>
<path opacity="0.2514" d="M100.449 497.462L49.1157 475.112C48.858 474.999 48.7135 474.628 48.8266 474.371C48.9397 474.113 49.3105 473.968 49.5682 474.081L100.901 496.432C101.159 496.545 101.303 496.915 101.19 497.173C101.077 497.431 100.706 497.575 100.449 497.462Z" fill="#656565"/>
<path opacity="0.5" d="M186.376 541.968L194.931 552.4C195.132 552.642 195.055 552.992 194.813 553.193C194.571 553.395 194.221 553.318 194.02 553.076L185.464 542.644C185.263 542.402 185.34 542.052 185.582 541.851C185.86 541.742 186.175 541.727 186.376 541.968Z" fill="#656565"/>
<path opacity="0.5" d="M23.283 302.666L45.3362 326.618C45.5373 326.86 45.553 327.174 45.3111 327.375C45.0691 327.576 44.7549 327.592 44.5538 327.35L22.5006 303.398C22.2995 303.156 22.2837 302.842 22.5257 302.641C22.7676 302.44 23.0819 302.424 23.283 302.666Z" fill="#656565"/>
<path opacity="0.5" d="M23.0167 303.624L-33.5155 315.857C-33.8297 315.873 -34.1235 315.667 -34.232 315.389C-34.2477 315.075 -34.1346 314.817 -33.8565 314.709L22.6758 302.476C22.99 302.46 23.2838 302.666 23.3922 302.943C23.5007 303.221 23.2948 303.515 23.0167 303.624Z" fill="#656565"/>
<path opacity="0.3653" d="M-33.5431 314.693L45.0424 326.413C45.3567 326.397 45.5939 326.731 45.517 327.081C45.44 327.432 45.198 327.633 44.8477 327.556L-33.7378 315.837C-34.0882 315.76 -34.2893 315.518 -34.2124 315.168C-34.2281 314.854 -33.8934 314.617 -33.5431 314.693Z" fill="#656565"/>
<path opacity="0.05066" d="M23.4074 303.258L-22.922 409.817C-23.0351 410.075 -23.4059 410.22 -23.6636 410.107C-23.9212 409.994 -24.0658 409.623 -23.9527 409.366L22.3767 302.806C22.4898 302.548 22.8606 302.404 23.1183 302.517C23.376 302.63 23.5205 303 23.4074 303.258Z" fill="#656565"/>
<path opacity="0.2107" d="M-23.0467 409.226L49.732 474.231C49.9331 474.473 49.9489 474.787 49.743 475.081C49.5011 475.282 49.1869 475.298 48.9292 475.185L-23.8495 410.179C-24.0506 409.938 -24.0664 409.624 -23.8605 409.33C-23.6547 409.036 -23.2478 408.984 -23.0467 409.226Z" fill="#656565"/>
<path opacity="0.1282" d="M-23.8973 409.237L44.4492 326.537C44.6912 326.336 44.9693 326.228 45.2631 326.433C45.4642 326.675 45.5726 326.953 45.3668 327.247L-22.9797 409.946C-23.1855 410.24 -23.4998 410.256 -23.7936 410.05C-24.0874 409.845 -24.1031 409.531 -23.8973 409.237Z" fill="#656565"/>
<path opacity="0.2421" d="M-24.0297 409.716L-34.2687 315.297C-34.2844 314.983 -34.0786 314.689 -33.7644 314.673C-33.4502 314.657 -33.1564 314.863 -33.1406 315.177L-22.9378 409.503C-22.922 409.817 -23.1278 410.111 -23.4421 410.127C-23.7563 410.143 -23.9213 409.994 -24.0297 409.716Z" fill="#656565"/>
<path opacity="0.01" d="M194.813 553.193L118.118 608.195C117.876 608.397 117.526 608.32 117.325 608.078C117.124 607.836 117.201 607.486 117.443 607.285L194.138 552.283C194.38 552.082 194.73 552.158 194.931 552.4C195.132 552.642 195.148 552.956 194.813 553.193Z" fill="#656565"/>
<path opacity="0.030221" d="M186.351 542.725L118.304 608.123C118.062 608.324 117.748 608.34 117.454 608.135C117.253 607.893 117.201 607.486 117.443 607.285L185.583 541.851C185.824 541.65 186.139 541.634 186.433 541.84C186.577 542.21 186.593 542.524 186.351 542.725Z" fill="#656565"/>
<path opacity="0.064248" d="M131.251 518.109L194.766 552.251C195.024 552.364 195.169 552.735 194.963 553.029C194.85 553.286 194.479 553.431 194.185 553.225L130.705 519.175C130.448 519.062 130.303 518.692 130.509 518.398C130.622 518.141 130.993 517.996 131.251 518.109Z" fill="#656565"/>
<path opacity="0.1551" d="M185.758 542.85L130.834 519.232C130.576 519.119 130.432 518.748 130.509 518.398C130.622 518.141 130.993 517.996 131.343 518.073L186.304 541.783C186.561 541.896 186.706 542.267 186.593 542.524C186.294 542.854 186.016 542.963 185.758 542.85Z" fill="#656565"/>
<path opacity="0.1494" d="M49.5674 474.082L131.251 518.109C131.544 518.314 131.653 518.592 131.483 518.979C131.277 519.272 130.999 519.381 130.706 519.175L48.9861 475.056C48.7284 474.943 48.5839 474.572 48.7897 474.278C48.9955 473.985 49.3097 473.969 49.5674 474.082Z" fill="#656565"/>
<path opacity="0.3052" d="M131.595 518.721L118.417 607.865C118.34 608.216 118.098 608.417 117.747 608.34C117.397 608.263 117.196 608.021 117.273 607.671L130.452 518.527C130.529 518.176 130.771 517.975 131.121 518.052C131.471 518.129 131.672 518.371 131.595 518.721Z" fill="#656565"/>
<path opacity="0.1423" d="M-14.3053 116.233L-88.5199 204.425C-88.7257 204.718 -89.1326 204.77 -89.3337 204.529C-89.6275 204.323 -89.6794 203.916 -89.4374 203.715L-15.2229 115.524C-14.981 115.323 -14.574 115.271 -14.3729 115.513C-14.1514 115.533 -14.0995 115.94 -14.3053 116.233Z" fill="#656565"/>
<path opacity="0.1055" d="M4.07391 382.101L109.662 319.03C110.032 318.886 110.383 318.962 110.491 319.24C110.6 319.518 110.523 319.868 110.281 320.07L4.69296 383.141C4.35832 383.378 3.97182 383.209 3.8634 382.931C3.6623 382.689 3.79582 382.21 4.07391 382.101Z" fill="#656565"/>
<path opacity="0.4187" d="M4.32172 383.285L-74.3124 375C-74.6627 374.924 -74.8639 374.682 -74.9157 374.275C-74.8387 373.925 -74.5968 373.724 -74.1899 373.672L4.44423 381.956C4.7946 382.033 4.9957 382.275 5.04756 382.682C4.97058 383.032 4.63595 383.269 4.32172 383.285Z" fill="#656565"/>
<path opacity="0.2353" d="M4.60024 383.177L-89.4924 418.495C-89.8632 418.64 -90.157 418.434 -90.3016 418.063C-90.41 417.785 -90.2403 417.399 -89.9622 417.291L4.13042 381.973C4.5012 381.828 4.79502 382.034 4.90344 382.312C5.08413 382.775 4.87832 383.069 4.60024 383.177Z" fill="#656565"/>
<path opacity="0.5" d="M110.162 318.942L117.334 320.627C117.685 320.704 117.922 321.038 117.845 321.389C117.768 321.739 117.433 321.976 117.083 321.899L109.911 320.214C109.56 320.138 109.416 319.767 109.493 319.417C109.477 319.103 109.812 318.865 110.162 318.942Z" fill="#656565"/>
<path opacity="0.422" d="M46.6675 328.661L109.847 318.958C110.162 318.942 110.548 319.112 110.6 319.519C110.616 319.833 110.446 320.219 110.039 320.271L46.8592 329.974C46.4523 330.026 46.1585 329.82 46.1066 329.414C46.0909 329.099 46.3894 328.77 46.6675 328.661Z" fill="#656565"/>
<path opacity="0.4719" d="M3.92447 382.266L46.3686 328.991C46.5744 328.697 46.9813 328.645 47.2751 328.851C47.569 329.056 47.6208 329.463 47.415 329.757L4.97088 383.032C4.76508 383.326 4.35813 383.378 4.06431 383.172C3.73437 382.874 3.68252 382.467 3.92447 382.266Z" fill="#656565"/>
<path opacity="0.3248" d="M4.69353 383.141L-59.0006 424.105C-59.3353 424.343 -59.7218 424.173 -59.9229 423.931C-60.124 423.69 -59.9905 423.211 -59.7124 423.102L4.01793 382.23C4.25987 382.029 4.73906 382.162 4.84747 382.44C5.10514 382.553 5.06432 382.996 4.69353 383.141Z" fill="#656565"/>
<path opacity="0.2474" d="M110.492 319.24L155.38 395.98C155.617 396.314 155.448 396.7 155.17 396.809C154.835 397.046 154.448 396.877 154.247 396.635L109.452 319.859C109.251 319.618 109.384 319.138 109.662 319.03C110.033 318.885 110.383 318.962 110.492 319.24Z" fill="#656565"/>
<path opacity="0.2085" d="M32.5998 331.48L109.846 318.958C110.16 318.942 110.547 319.112 110.562 319.426C110.578 319.74 110.408 320.126 110.094 320.142L32.7554 332.7C32.3485 332.752 32.0546 332.546 32.0028 332.14C32.0232 331.918 32.1929 331.532 32.5998 331.48Z" fill="#656565"/>
<path opacity="0.4136" d="M3.83204 382.302L32.081 331.789C32.2868 331.495 32.6576 331.351 32.9515 331.556C33.2453 331.762 33.3898 332.133 33.184 332.426L4.80618 382.883C4.60037 383.177 4.22959 383.321 3.93578 383.116C3.7708 382.967 3.62624 382.596 3.83204 382.302Z" fill="#656565"/>
<path opacity="0.2749" d="M81.4649 607.871L84.1702 505.84C84.1545 505.526 84.453 505.196 84.8033 505.273C85.1175 505.257 85.4475 505.555 85.3705 505.906L82.6291 607.843C82.6448 608.157 82.3463 608.487 81.9032 608.447C81.7178 608.519 81.4806 608.185 81.4649 607.871Z" fill="#656565"/>
<path opacity="0.3739" d="M85.3871 506.22L41.2312 581.937C41.0254 582.231 40.6546 582.376 40.3608 582.17C40.067 581.965 39.9224 581.594 40.1282 581.3L84.2842 505.582C84.49 505.289 84.8608 505.144 85.1546 505.35C85.4484 505.555 85.5929 505.926 85.3871 506.22Z" fill="#656565"/>
<path opacity="0.5" d="M81.7744 608.391L40.36 582.171C40.0662 581.965 40.0143 581.559 40.1274 581.301C40.3332 581.007 40.7402 580.955 40.9978 581.068L82.4123 607.288C82.7061 607.493 82.758 607.9 82.5521 608.194C82.439 608.452 82.0682 608.596 81.7744 608.391Z" fill="#656565"/>
<path opacity="0.4979" d="M46.7592 328.625L117.111 320.607C117.426 320.591 117.812 320.761 117.864 321.167C117.88 321.481 117.71 321.868 117.303 321.92L46.9509 329.937C46.6367 329.953 46.3067 329.655 46.291 329.341C46.1826 329.063 46.3884 328.769 46.7592 328.625Z" fill="#656565"/>
<path opacity="0.1603" d="M3.82768 382.838L-28.4667 298.41C-28.6112 298.04 -28.4415 297.653 -28.0708 297.509C-27.7 297.364 -27.3135 297.534 -27.1689 297.904L5.03271 382.368C5.17727 382.739 4.97145 383.032 4.69337 383.141C4.41528 383.249 3.93609 383.116 3.82768 382.838Z" fill="#656565"/>
<path opacity="0.086577" d="M84.3763 505.546L154.307 395.971C154.513 395.677 154.92 395.625 155.178 395.738C155.471 395.944 155.523 396.35 155.41 396.608L85.4431 506.091C85.2373 506.385 84.8304 506.437 84.5727 506.324C84.2224 506.247 84.1705 505.84 84.3763 505.546Z" fill="#656565"/>
<path opacity="0.5" d="M82.7594 607.9L82.1493 641.654C82.165 641.968 81.8665 642.298 81.4234 642.257C81.1092 642.273 80.7793 641.975 80.7636 641.661L81.3736 607.907C81.3579 607.593 81.6564 607.263 81.9707 607.247C82.5064 607.251 82.7075 607.493 82.7594 607.9Z" fill="#656565"/>
<path opacity="0.2193" d="M3.8627 382.931L-32.5911 326.17C-32.8283 325.835 -32.6587 325.449 -32.4167 325.248C-32.0821 325.011 -31.6956 325.18 -31.4945 325.422L4.90275 382.311C5.10387 382.553 5.06303 382.996 4.69225 383.141C4.4503 383.342 4.09995 383.265 3.8627 382.931Z" fill="#656565"/>
<path opacity="0.3959" d="M117.699 321.018L155.415 396.072C155.559 396.443 155.482 396.793 155.111 396.938C154.741 397.083 154.39 397.006 154.246 396.635L116.53 321.581C116.385 321.21 116.462 320.86 116.833 320.715C117.204 320.571 117.59 320.74 117.699 321.018Z" fill="#656565"/>
<path opacity="0.1025" d="M47.1467 328.794L155.215 395.831C155.509 396.036 155.653 396.407 155.447 396.701C155.242 396.995 154.871 397.139 154.577 396.934L46.5088 329.897C46.215 329.691 46.1632 329.285 46.369 328.991C46.4821 328.733 46.8528 328.589 47.1467 328.794Z" fill="#656565"/>
<path opacity="0.4887" d="M81.0009 641.995L40.1965 582.022C39.9593 581.687 40.0363 581.337 40.3709 581.1C40.6129 580.899 41.0559 580.939 41.2932 581.274L82.0975 641.247C82.3348 641.582 82.2578 641.932 81.9232 642.169C81.5885 642.407 81.2381 642.33 81.0009 641.995Z" fill="#656565"/>
<path opacity="0.3443" d="M32.6001 331.48L117.019 320.643C117.425 320.591 117.719 320.797 117.771 321.203C117.787 321.517 117.617 321.904 117.21 321.956L32.7919 332.792C32.3849 332.844 32.055 332.546 32.0393 332.232C31.9874 331.825 32.2859 331.495 32.6001 331.48Z" fill="#656565"/>
<path opacity="0.5" d="M32.6013 331.48L46.6676 328.661C47.0745 328.609 47.3683 328.815 47.4202 329.222C47.4359 329.536 47.2662 329.922 46.952 329.938L32.8857 332.757C32.4788 332.809 32.185 332.603 32.1331 332.196C32.0247 331.918 32.1944 331.532 32.6013 331.48Z" fill="#656565"/>
<path opacity="0.5" d="M84.5158 506.453L60.7958 491.369C60.502 491.164 60.4502 490.757 60.5633 490.499C60.7691 490.206 61.176 490.154 61.4337 490.266L85.1536 505.35C85.4475 505.555 85.4993 505.962 85.3862 506.22C85.1804 506.514 84.8096 506.658 84.5158 506.453Z" fill="#656565"/>
<path opacity="0.1171" d="M81.5018 607.963L60.5233 490.942C60.4714 490.535 60.6773 490.242 61.0842 490.19C61.3984 490.174 61.7849 490.343 61.8368 490.75L82.7226 607.807C82.7744 608.214 82.5686 608.508 82.1617 608.56C81.8475 608.575 81.5537 608.37 81.5018 607.963Z" fill="#656565"/>
<path opacity="0.3105" d="M40.1086 581.522L60.5446 490.72C60.6215 490.37 60.9562 490.133 61.3065 490.21C61.6569 490.287 61.8941 490.621 61.8172 490.971L41.3812 581.773C41.3042 582.123 40.9696 582.36 40.6192 582.283C40.2688 582.207 40.0316 581.872 40.1086 581.522Z" fill="#656565"/>
<path opacity="0.3182" d="M120.814 688.479L81.5742 608.148C81.4297 607.778 81.5067 607.427 81.8774 607.283C82.2482 607.138 82.5986 607.215 82.7431 607.585L122.076 687.88C122.221 688.25 122.144 688.601 121.773 688.745C121.309 688.926 120.923 688.757 120.814 688.479Z" fill="#656565"/>
<path opacity="0.3423" d="M46.6017 329.861L-28.1006 298.801C-28.4871 298.632 -28.6317 298.261 -28.4258 297.967C-28.2562 297.581 -27.8854 297.436 -27.5916 297.642L47.1107 328.702C47.4972 328.871 47.6418 329.242 47.4359 329.535C47.2663 329.922 46.8955 330.066 46.6017 329.861Z" fill="#656565"/>
<path opacity="0.082204" d="M4.83176 382.126L31.3518 406.577C31.6456 406.783 31.6048 407.226 31.3989 407.52C31.1931 407.813 30.7501 407.773 30.4563 407.567L3.93626 383.116C3.73515 382.874 3.68328 382.467 3.92523 382.266C4.13104 381.972 4.53795 381.92 4.83176 382.126Z" fill="#656565"/>
<path opacity="0.047551" d="M120.851 688.572L40.1959 582.022C39.9948 581.78 40.0356 581.337 40.3702 581.1C40.6122 580.898 41.0552 580.939 41.2563 581.181L121.911 687.731C122.148 688.066 122.071 688.416 121.737 688.653C121.531 688.947 121.088 688.906 120.851 688.572Z" fill="#656565"/>
<path opacity="0.040026" d="M155.298 396.865L61.6468 491.358C61.4049 491.559 60.9979 491.611 60.6679 491.312C60.4668 491.071 60.415 490.664 60.6208 490.37L154.308 395.971C154.55 395.769 154.957 395.717 155.25 395.923C155.544 396.129 155.503 396.572 155.298 396.865Z" fill="#656565"/>
<path opacity="0.033864" d="M110.522 319.868L104.355 331.987C104.149 332.281 103.779 332.425 103.392 332.256C103.098 332.05 102.954 331.68 103.123 331.293L109.326 319.267C109.532 318.974 109.902 318.829 110.196 319.035C110.583 319.204 110.727 319.575 110.522 319.868Z" fill="#656565"/>
<path opacity="0.3156" d="M-32.01 325.196L46.8879 328.681C47.2022 328.665 47.5321 328.963 47.4913 329.406C47.507 329.72 47.2085 330.05 46.7654 330.01L-32.0963 326.617C-32.4106 326.633 -32.7767 326.242 -32.6997 325.892C-32.7515 325.485 -32.4169 325.248 -32.01 325.196Z" fill="#656565"/>
<path opacity="0.090083" d="M85.4231 506.312L18.8207 592.388C18.6148 592.681 18.2079 592.733 17.9141 592.528C17.6203 592.322 17.5684 591.915 17.7742 591.622L84.4694 505.51C84.6752 505.216 85.0821 505.164 85.3759 505.37C85.577 505.612 85.6289 506.018 85.4231 506.312Z" fill="#656565"/>
<path opacity="0.092602" d="M82.6512 607.622L134.966 718.183C135.11 718.553 134.941 718.94 134.663 719.048C134.292 719.193 133.905 719.023 133.797 718.746L81.4823 608.185C81.3378 607.814 81.5075 607.428 81.7855 607.319C82.1563 607.175 82.5428 607.344 82.6512 607.622Z" fill="#656565"/>
<path opacity="0.3278" d="M81.9393 608.54L18.0784 592.677C17.728 592.601 17.4907 592.266 17.6604 591.88C17.7374 591.53 18.072 591.292 18.4224 591.369L82.3195 607.324C82.6698 607.401 82.9071 607.735 82.7374 608.122C82.6243 608.379 82.2896 608.616 81.9393 608.54Z" fill="#656565"/>
<path opacity="0.5" d="M120.85 688.571L81.0362 642.087C80.8351 641.846 80.8759 641.403 81.1179 641.202C81.3598 641.001 81.8029 641.041 82.004 641.283L121.818 687.767C122.019 688.009 121.978 688.452 121.736 688.653C121.531 688.946 121.088 688.906 120.85 688.571Z" fill="#656565"/>
<path opacity="0.5" d="M40.9318 582.268L18.4853 592.625C18.1145 592.77 17.728 592.6 17.6196 592.323C17.475 591.952 17.6447 591.566 17.9228 591.457L40.4054 581.192C40.7762 581.048 41.1266 581.124 41.2711 581.495C41.4361 581.644 41.3026 582.123 40.9318 582.268Z" fill="#656565"/>
<path opacity="0.434" d="M-44.736 135.148L-2.89668 85.5243C-2.69087 85.2306 -2.28395 85.1785 -1.954 85.4768C-1.6602 85.6824 -1.60832 86.0891 -1.90683 86.419L-43.7823 135.95C-43.9881 136.244 -44.3951 136.296 -44.725 135.998C-44.89 135.849 -44.9418 135.442 -44.736 135.148Z" fill="#656565"/>
<path opacity="0.3405" d="M37.6518 499.117L84.9887 505.2C85.3391 505.277 85.5763 505.612 85.5921 505.926C85.5151 506.276 85.1804 506.513 84.8662 506.529L37.5654 500.538C37.215 500.461 36.9778 500.127 36.9621 499.813C37.0029 499.37 37.3376 499.132 37.6518 499.117Z" fill="#656565"/>
<path opacity="0.3201" d="M82.0038 641.283L134.892 717.998C135.13 718.332 135.053 718.682 134.718 718.92C134.383 719.157 134.033 719.08 133.796 718.746L80.8711 641.939C80.6338 641.604 80.7108 641.254 81.0454 641.017C81.4524 640.965 81.8954 641.005 82.0038 641.283Z" fill="#656565"/>
<path opacity="0.1602" d="M84.2429 506.025L69.2073 417.107C69.1555 416.7 69.3613 416.406 69.7682 416.354C70.1751 416.302 70.4689 416.508 70.5208 416.914L85.5202 505.741C85.572 506.147 85.3662 506.441 84.9593 506.493C84.6451 506.509 84.2586 506.34 84.2429 506.025Z" fill="#656565"/>
<path opacity="0.2449" d="M38.2565 499.842L41.3449 581.68C41.3606 581.994 41.0621 582.324 40.7479 582.34C40.4337 582.356 40.1037 582.058 40.088 581.744L36.9069 499.942C36.8551 499.535 37.1897 499.298 37.5966 499.246C37.8747 499.137 38.2047 499.435 38.2565 499.842Z" fill="#656565"/>
<path opacity="0.155" d="M82.4956 608.323L15.1853 667.669C14.8507 667.907 14.5365 667.922 14.2065 667.624C13.9693 667.29 14.0462 666.94 14.2521 666.646L81.5624 607.299C81.8043 607.098 82.2474 607.139 82.4485 607.38C82.8146 607.771 82.7376 608.121 82.4956 608.323Z" fill="#656565"/>
<path opacity="0.5" d="M32.3493 332.752L-28.1941 298.837C-28.4879 298.632 -28.6324 298.261 -28.4266 297.967C-28.2208 297.674 -27.85 297.529 -27.5562 297.735L32.9871 331.649C33.2809 331.855 33.4255 332.225 33.2196 332.519C33.1065 332.777 32.6996 332.829 32.3493 332.752Z" fill="#656565"/>
<path opacity="0.3185" d="M81.1642 642.144L17.8772 592.436C17.5834 592.23 17.5316 591.823 17.7374 591.529C17.9432 591.236 18.3501 591.184 18.6439 591.389L81.9309 641.098C82.2247 641.304 82.2766 641.71 82.0708 642.004C81.7723 642.334 81.3653 642.386 81.1642 642.144Z" fill="#656565"/>
<path opacity="0.3216" d="M-21.6556 94.6563L-51.3187 190.552C-51.3957 190.902 -51.7665 191.046 -52.1168 190.97C-52.4672 190.893 -52.6117 190.522 -52.5348 190.172L-22.8716 94.2768C-22.7947 93.9266 -22.4239 93.7819 -22.0735 93.8587C-21.7232 93.9355 -21.4859 94.2699 -21.6556 94.6563Z" fill="#656565"/>
<path opacity="0.021593" d="M117.731 321.646L70.4801 417.357C70.2743 417.651 69.9035 417.796 69.517 417.626C69.2232 417.421 69.0786 417.05 69.1918 416.793L116.535 321.045C116.741 320.751 117.111 320.607 117.405 320.812C117.756 320.889 117.9 321.26 117.731 321.646Z" fill="#656565"/>
<path opacity="0.1997" d="M41.2874 581.809L15.3915 667.376C15.3145 667.726 14.8511 667.907 14.5934 667.794C14.243 667.717 13.9696 667.29 14.1754 666.996L40.164 581.393C40.241 581.043 40.6117 580.899 40.9621 580.975C41.2198 581.088 41.4005 581.552 41.2874 581.809Z" fill="#656565"/>
<path opacity="0.1457" d="M47.3835 329.129L70.4851 416.822C70.6297 417.193 70.3312 417.523 69.9604 417.667C69.5896 417.812 69.2597 417.514 69.1512 417.236L46.1422 329.506C45.9977 329.136 46.2962 328.806 46.5743 328.697C46.9812 328.645 47.3677 328.815 47.3835 329.129Z" fill="#656565"/>
<path opacity="0.5" d="M-32.0099 325.196L32.7856 331.407C33.136 331.484 33.3732 331.818 33.3889 332.132C33.312 332.483 32.9773 332.72 32.6631 332.736L-32.1324 326.524C-32.4827 326.448 -32.72 326.113 -32.7357 325.799C-32.6588 325.449 -32.3241 325.212 -32.0099 325.196Z" fill="#656565"/>
<path opacity="0.2219" d="M106.355 683.446L81.4454 608.092C81.3008 607.722 81.5066 607.428 81.8774 607.283C82.2482 607.139 82.542 607.344 82.6866 607.715L107.596 683.069C107.741 683.439 107.571 683.826 107.164 683.878C106.886 683.986 106.5 683.817 106.355 683.446Z" fill="#656565"/>
<path opacity="0.1351" d="M47.3982 329.443L31.5103 407.262C31.4333 407.612 31.0986 407.85 30.7482 407.773C30.3979 407.696 30.1606 407.362 30.2376 407.011L46.1617 329.284C46.2387 328.934 46.5734 328.697 46.9237 328.774C47.2379 328.758 47.4752 329.092 47.3982 329.443Z" fill="#656565"/>
<path opacity="0.3173" d="M81.7369 642.241L14.944 667.87C14.5732 668.015 14.1867 667.845 14.0421 667.475C13.8976 667.104 14.1034 666.81 14.438 666.573L81.2671 641.037C81.6379 640.892 81.9317 641.098 82.0763 641.468C82.2208 641.839 82.1077 642.097 81.7369 642.241Z" fill="#656565"/>
<path opacity="0.2187" d="M-52.478 190.044L-3.0455 85.6894C-2.87583 85.303 -2.46891 85.251 -2.21124 85.3639C-1.91743 85.5695 -1.77287 85.9401 -1.88599 86.1977L-51.4473 190.496C-51.6531 190.789 -52.0239 190.934 -52.2816 190.821C-52.5031 190.801 -52.6476 190.43 -52.478 190.044Z" fill="#656565"/>
<path opacity="0.1997" d="M155.02 396.975L70.0536 417.631C69.6467 417.683 69.3529 417.478 69.2083 417.107C69.1564 416.701 69.3623 416.407 69.733 416.262L154.699 395.605C155.106 395.553 155.4 395.759 155.509 396.037C155.504 396.572 155.298 396.866 155.02 396.975Z" fill="#656565"/>
<path opacity="0.3173" d="M117.582 321.811L104.208 332.152C103.873 332.39 103.523 332.313 103.193 332.015C102.955 331.68 103.032 331.33 103.367 331.093L116.742 320.752C117.076 320.514 117.427 320.591 117.628 320.833C117.865 321.167 117.824 321.61 117.582 321.811Z" fill="#656565"/>
<path opacity="0.2803" d="M46.888 328.681L103.865 331.004C104.18 330.988 104.546 331.379 104.561 331.693C104.521 332.136 104.186 332.373 103.872 332.389L46.8943 330.066C46.5801 330.082 46.2502 329.784 46.291 329.341C46.2392 328.934 46.445 328.64 46.888 328.681Z" fill="#656565"/>
<path opacity="0.2137" d="M17.5885 591.694L60.5637 490.499C60.7334 490.113 61.1042 489.968 61.398 490.174C61.6918 490.379 61.8929 490.621 61.7232 491.007L18.8407 592.166C18.6711 592.553 18.3003 592.697 18.0065 592.492C17.6561 592.415 17.5116 592.044 17.5885 591.694Z" fill="#656565"/>
<path opacity="0.2369" d="M117.699 321.018L141.942 362.902C142.179 363.237 142.009 363.623 141.675 363.86C141.34 364.098 140.953 363.928 140.716 363.594L116.566 321.673C116.329 321.339 116.499 320.952 116.777 320.844C117.112 320.607 117.555 320.647 117.699 321.018Z" fill="#656565"/>
<path opacity="0.2344" d="M73.7825 483.315L85.4489 505.556C85.5935 505.926 85.5165 506.276 85.1457 506.421C84.7749 506.566 84.5173 506.453 84.28 506.118L72.6136 483.878C72.4691 483.507 72.546 483.157 72.8806 482.92C73.1949 482.904 73.6741 483.037 73.7825 483.315Z" fill="#656565"/>
<path opacity="0.169" d="M-44.1801 134.931L28.2652 141.04C28.6156 141.117 28.9455 141.415 28.8685 141.766C28.7916 142.116 28.4931 142.446 28.1427 142.369L-44.3388 136.167C-44.6891 136.09 -44.9264 135.756 -44.9421 135.442C-44.829 135.184 -44.5305 134.854 -44.1801 134.931Z" fill="#656565"/>
<path opacity="0.4361" d="M106.483 683.502L80.9995 641.995C80.7623 641.661 80.932 641.274 81.1739 641.073C81.5086 640.836 81.8951 641.005 82.0035 641.283L107.487 682.79C107.724 683.125 107.555 683.511 107.313 683.712C107.107 684.006 106.628 683.873 106.483 683.502Z" fill="#656565"/>
<path opacity="0.011267" d="M-7.03467 174.024L-110.51 274.27C-110.752 274.471 -111.159 274.523 -111.488 274.225C-111.69 273.983 -111.741 273.576 -111.443 273.247L-7.96796 173.001C-7.72601 172.799 -7.31907 172.747 -6.98912 173.046C-6.788 173.287 -6.73617 173.694 -7.03467 174.024Z" fill="#656565"/>
<path opacity="0.2216" d="M26.3132 431.172L-59.2794 424.214C-59.6298 424.137 -59.9597 423.839 -59.8828 423.488C-59.8058 423.138 -59.6 422.844 -59.1569 422.885L26.5284 429.807C26.8787 429.884 27.2087 430.182 27.1317 430.532C26.9621 430.918 26.6274 431.156 26.3132 431.172Z" fill="#656565"/>
<path opacity="0.2629" d="M33.2803 331.855L70.4483 416.73C70.5929 417.1 70.4232 417.486 70.0524 417.631C69.6816 417.776 69.2951 417.606 69.1867 417.328L32.0187 332.454C31.8742 332.083 32.0438 331.697 32.3219 331.588C32.7854 331.407 33.1719 331.577 33.2803 331.855Z" fill="#656565"/>
<path opacity="0.5" d="M121.983 687.916L135.057 718.146C135.202 718.517 135.032 718.903 134.754 719.012C134.383 719.156 133.997 718.987 133.888 718.709L120.814 688.479C120.669 688.108 120.839 687.722 121.117 687.613C121.452 687.376 121.838 687.545 121.983 687.916Z" fill="#656565"/>
<path opacity="0.5" d="M37.3385 499.132L60.9556 490.133C61.3263 489.988 61.6202 490.194 61.7647 490.564C61.9093 490.935 61.7396 491.321 61.3688 491.466L37.7518 500.466C37.381 500.61 36.9945 500.441 36.8499 500.07C36.7981 499.664 36.9677 499.277 37.3385 499.132Z" fill="#656565"/>
<path opacity="0.2044" d="M104.381 331.23L155.379 395.98C155.58 396.222 155.54 396.665 155.205 396.902C154.963 397.103 154.52 397.063 154.319 396.821L103.228 332.107C102.991 331.773 103.068 331.423 103.274 331.129C103.701 330.855 104.144 330.896 104.381 331.23Z" fill="#656565"/>
<path opacity="0.3781" d="M141.977 362.995L155.451 396.165C155.595 396.536 155.426 396.922 155.148 397.031C154.777 397.175 154.39 397.006 154.282 396.728L140.716 363.594C140.571 363.224 140.741 362.837 141.111 362.693C141.446 362.455 141.833 362.625 141.977 362.995Z" fill="#656565"/>
<path opacity="0.4255" d="M70.5 417.136L61.8156 490.971C61.7386 491.322 61.404 491.559 61.0898 491.575C60.7394 491.498 60.5021 491.164 60.4864 490.849L69.1708 417.014C69.2478 416.664 69.5824 416.426 69.8967 416.411C70.3397 416.451 70.5409 416.693 70.5 417.136Z" fill="#656565"/>
<path opacity="0.1462" d="M-6.77151 173.602L-27.2096 298.347C-27.2865 298.697 -27.6212 298.934 -27.9715 298.858C-28.3219 298.781 -28.5592 298.446 -28.4822 298.096L-8.13685 173.387C-8.05987 173.037 -7.72523 172.8 -7.37487 172.876C-7.0245 172.953 -6.78724 173.288 -6.77151 173.602Z" fill="#656565"/>
<path opacity="0.3101" d="M33.3901 332.133L31.6611 407.097C31.713 407.504 31.3783 407.741 30.9714 407.793C30.6572 407.809 30.3272 407.511 30.2754 407.104L32.097 332.103C32.0813 331.789 32.3798 331.459 32.7867 331.407C33.0444 331.52 33.3744 331.819 33.3901 332.133Z" fill="#656565"/>
<path opacity="0.1218" d="M79.4288 738.993L80.8916 641.717C80.8758 641.403 81.1744 641.073 81.5813 641.021C81.8955 641.006 82.2255 641.304 82.2773 641.711L80.9073 738.95C80.8664 739.393 80.5318 739.631 80.1814 739.554C79.7745 739.606 79.4446 739.308 79.4288 738.993Z" fill="#656565"/>
<path opacity="0.013026" d="M82.3473 608.488L22.758 630.132C22.3872 630.277 22.0007 630.108 21.8561 629.737C21.7116 629.367 21.8812 628.98 22.252 628.835L81.8775 607.283C82.2483 607.139 82.5421 607.344 82.6867 607.715C82.7951 607.993 82.6254 608.379 82.3473 608.488Z" fill="#656565"/>
<path opacity="0.1656" d="M33.3899 332.133L27.0033 430.476C26.9263 430.826 26.6278 431.156 26.2774 431.079C25.8344 431.039 25.5971 430.704 25.6741 430.354L32.0607 332.011C32.1377 331.661 32.3435 331.367 32.7866 331.408C33.1369 331.484 33.3742 331.819 33.3899 332.133Z" fill="#656565"/>
<path opacity="0.4042" d="M-21.5777 94.3064L-6.75145 173.38C-6.69959 173.787 -6.90539 174.081 -7.31231 174.133C-7.71923 174.185 -8.01304 173.979 -8.0649 173.572L-22.855 94.5912C-22.9068 94.1845 -22.701 93.8907 -22.2941 93.8387C-22.016 93.7302 -21.7222 93.9358 -21.5777 94.3064Z" fill="#656565"/>
<path opacity="0.3756" d="M32.6943 331.443L103.831 330.911C104.238 330.859 104.475 331.194 104.527 331.601C104.579 332.007 104.244 332.245 103.837 332.297L32.7572 332.7C32.443 332.715 32.113 332.417 32.0611 332.01C32.0816 331.789 32.3801 331.459 32.6943 331.443Z" fill="#656565"/>
<path opacity="0.1068" d="M21.8597 629.201L40.1635 581.393C40.2405 581.043 40.6112 580.898 40.9977 581.068C41.3481 581.145 41.4927 581.515 41.323 581.902L23.1481 629.766C22.9784 630.152 22.6076 630.297 22.2211 630.128C21.8346 629.958 21.69 629.588 21.8597 629.201Z" fill="#656565"/>
<path opacity="0.2936" d="M31.5881 406.912L61.8006 490.657C61.9452 491.028 61.7394 491.322 61.3686 491.466C60.9978 491.611 60.704 491.405 60.5594 491.035L30.2542 407.325C30.1097 406.955 30.2793 406.568 30.6863 406.516C31.0571 406.372 31.4435 406.541 31.5881 406.912Z" fill="#656565"/>
<path opacity="0.2073" d="M121.273 688.834L14.6295 667.886C14.2792 667.809 14.0419 667.475 14.1189 667.124C14.1959 666.774 14.5305 666.537 14.8809 666.614L121.431 687.597C121.782 687.674 122.019 688.009 121.942 688.359C121.958 688.673 121.623 688.91 121.273 688.834Z" fill="#656565"/>
<path opacity="0.259" d="M-52.2723 189.75L27.8588 141.092C28.1934 140.855 28.58 141.024 28.8172 141.359C29.0545 141.693 28.8848 142.08 28.5501 142.317L-51.5244 190.846C-51.8591 191.083 -52.2455 190.913 -52.4467 190.672C-52.6478 190.43 -52.5142 189.951 -52.2723 189.75Z" fill="#656565"/>
<path opacity="0.3851" d="M26.8938 430.198L61.764 490.565C62.0012 490.899 61.8316 491.286 61.4608 491.431C61.09 491.575 60.7396 491.498 60.595 491.128L25.761 430.853C25.5238 430.519 25.6934 430.132 26.0281 429.895C26.27 429.694 26.7492 429.827 26.8938 430.198Z" fill="#656565"/>
<path opacity="0.1844" d="M-49.565 690.046L17.6811 591.658C17.8869 591.364 18.2938 591.312 18.5876 591.518C18.8815 591.724 18.9333 592.13 18.7275 592.424L-48.5186 690.812C-48.7244 691.106 -49.1314 691.158 -49.4252 690.952C-49.719 690.747 -49.7709 690.34 -49.565 690.046Z" fill="#656565"/>
<path opacity="0.5" d="M107.287 682.549L121.617 687.525C121.967 687.602 122.148 688.065 122.035 688.323C121.958 688.673 121.587 688.818 121.237 688.741L106.906 683.764C106.556 683.687 106.375 683.224 106.452 682.874C106.565 682.616 106.936 682.472 107.287 682.549Z" fill="#656565"/>
<path opacity="0.1122" d="M81.4235 642.257L22.3154 630.091C21.965 630.014 21.7278 629.68 21.7686 629.237C21.8456 628.887 22.1802 628.65 22.6233 628.69L81.6387 640.892C81.9891 640.969 82.2263 641.303 82.1494 641.654C82.1085 642.096 81.7739 642.334 81.4235 642.257Z" fill="#656565"/>
<path opacity="0.3916" d="M-8.10188 173.48L-3.02993 86.0033C-2.95296 85.653 -2.65445 85.3231 -2.30408 85.3999C-1.98985 85.3841 -1.65991 85.6823 -1.70075 86.1252L-6.77269 173.602C-6.75696 173.916 -7.14819 174.282 -7.49856 174.205C-7.84892 174.128 -8.17886 173.83 -8.10188 173.48Z" fill="#656565"/>
<path opacity="0.3534" d="M38.2 499.971L18.8418 592.166C18.7648 592.516 18.4302 592.754 18.0798 592.677C17.7295 592.6 17.4922 592.266 17.5692 591.915L36.9274 499.72C37.0043 499.37 37.339 499.132 37.6893 499.209C38.0397 499.286 38.277 499.62 38.2 499.971Z" fill="#656565"/>
<path opacity="0.087255" d="M134.126 719.043L14.5013 667.829C14.1148 667.66 13.9703 667.289 14.1399 666.903C14.3457 666.609 14.6804 666.372 14.9742 666.577L134.599 717.791C134.986 717.961 135.13 718.331 134.924 718.625C134.883 719.068 134.513 719.213 134.126 719.043Z" fill="#656565"/>
<path opacity="0.5" d="M73.6081 484.237L61.5546 491.394C61.22 491.631 60.8335 491.462 60.6889 491.091C60.4517 490.757 60.6213 490.37 60.8994 490.262L72.9529 483.105C73.2876 482.867 73.6741 483.037 73.9114 483.371C74.0198 483.649 73.8501 484.035 73.6081 484.237Z" fill="#656565"/>
<path opacity="0.4809" d="M18.8977 592.038L15.4845 667.339C15.4075 667.69 15.109 668.02 14.7586 667.943C14.4444 667.959 14.1145 667.66 14.1553 667.217L17.5685 591.916C17.6455 591.566 17.944 591.236 18.2944 591.313C18.6447 591.389 18.8458 591.631 18.8977 592.038Z" fill="#656565"/>
<path opacity="0.2513" d="M-31.5862 325.458L31.3876 406.67C31.6248 407.005 31.5479 407.355 31.2494 407.685C30.9147 407.922 30.5644 407.846 30.3271 407.511L-32.6467 326.299C-32.8839 325.964 -32.807 325.614 -32.4723 325.377C-32.1377 325.14 -31.7873 325.216 -31.5862 325.458Z" fill="#656565"/>
<path opacity="0.5" d="M107.58 682.754L134.892 717.997C135.129 718.332 135.052 718.682 134.718 718.919C134.476 719.12 134.033 719.08 133.832 718.838L106.427 683.631C106.19 683.296 106.267 682.946 106.565 682.616C106.936 682.472 107.379 682.512 107.58 682.754Z" fill="#656565"/>
<path opacity="0.5" d="M-49.2288 689.809L14.5681 666.63C14.9388 666.485 15.3253 666.654 15.4699 667.025C15.6144 667.396 15.4448 667.782 15.074 667.927L-48.7228 691.106C-49.0936 691.251 -49.4801 691.081 -49.6247 690.711C-49.8054 690.247 -49.5996 689.954 -49.2288 689.809Z" fill="#656565"/>
<path opacity="0.1382" d="M106.556 683.688L17.7858 592.472C17.5847 592.23 17.5328 591.823 17.8313 591.493C18.0733 591.292 18.4802 591.24 18.8101 591.538L107.488 682.79C107.689 683.032 107.741 683.439 107.443 683.769C107.201 683.97 106.757 683.929 106.556 683.688Z" fill="#656565"/>
<path opacity="0.3943" d="M-21.8162 93.9722L28.6518 141.21C28.9456 141.416 28.9409 141.951 28.699 142.152C28.4932 142.446 28.0501 142.405 27.7563 142.2L-22.7117 94.962C-22.9128 94.7202 -22.9647 94.3135 -22.7589 94.0197C-22.4604 93.6898 -22.0173 93.7304 -21.8162 93.9722Z" fill="#656565"/>
<path opacity="0.3981" d="M36.9841 499.591L69.2856 416.756C69.4553 416.37 69.8261 416.225 70.2126 416.395C70.5991 416.564 70.7437 416.935 70.574 417.321L38.2725 500.156C38.1028 500.542 37.732 500.687 37.3455 500.517C36.959 500.348 36.7783 499.885 36.9841 499.591Z" fill="#656565"/>
<path opacity="0.4075" d="M121.923 688.58L80.6458 739.372C80.4399 739.666 80.033 739.718 79.7031 739.42C79.4093 739.214 79.3574 738.808 79.6559 738.478L120.933 687.686C121.139 687.392 121.545 687.34 121.875 687.638C122.077 687.88 122.128 688.287 121.923 688.58Z" fill="#656565"/>
<path opacity="0.038385" d="M82.0033 641.283L132.899 700.843C133.136 701.177 133.096 701.62 132.761 701.858C132.426 702.095 132.076 702.018 131.782 701.812L80.979 642.217C80.7417 641.882 80.8187 641.532 81.0607 641.331C81.3592 641.001 81.7661 640.949 82.0033 641.283Z" fill="#656565"/>
<path opacity="0.3658" d="M36.8702 499.849L30.182 407.14C30.1302 406.734 30.4287 406.404 30.8717 406.444C31.186 406.428 31.5159 406.727 31.5316 407.041L38.2198 499.75C38.2717 500.156 37.9732 500.486 37.6228 500.409C37.252 500.554 36.9221 500.256 36.8702 499.849Z" fill="#656565"/>
<path opacity="0.3707" d="M106.942 683.857L14.6294 667.886C14.279 667.809 14.0418 667.475 14.1188 667.124C14.1957 666.774 14.5304 666.537 14.8807 666.614L107.157 682.492C107.508 682.569 107.745 682.903 107.668 683.253C107.627 683.696 107.292 683.933 106.942 683.857Z" fill="#656565"/>
<path opacity="0.4758" d="M-1.78836 85.626L28.9103 141.323C29.0549 141.694 28.9779 142.044 28.6432 142.281C28.2725 142.426 27.9221 142.349 27.6848 142.015L-2.92114 86.2814C-3.15839 85.947 -2.98871 85.5606 -2.65407 85.3233C-2.37598 85.2148 -1.98948 85.3843 -1.78836 85.626Z" fill="#656565"/>
<path opacity="0.5" d="M36.9058 499.941L25.6527 430.575C25.6008 430.168 25.8066 429.874 26.2135 429.822C26.6204 429.77 26.9143 429.976 26.9661 430.382L38.2193 499.749C38.2711 500.156 38.0653 500.45 37.6584 500.502C37.3441 500.517 36.9215 500.255 36.9058 499.941Z" fill="#656565"/>
<path opacity="0.4766" d="M79.8973 738.277L134.249 717.715C134.619 717.571 134.949 717.869 135.058 718.147C135.166 718.425 134.996 718.811 134.718 718.92L80.4598 739.445C80.089 739.59 79.7025 739.42 79.5579 739.05C79.3568 738.808 79.5265 738.422 79.8973 738.277Z" fill="#656565"/>
<path opacity="0.5" d="M31.0928 406.464L69.9897 416.374C70.3401 416.451 70.5774 416.786 70.5004 417.136C70.4234 417.486 70.0888 417.723 69.7023 417.554L30.8053 407.644C30.4549 407.567 30.2177 407.233 30.3873 406.846C30.557 406.46 30.7424 406.388 31.0928 406.464Z" fill="#656565"/>
<path opacity="0.5" d="M-7.96883 173.001L27.673 141.165C28.0076 140.928 28.358 141.004 28.6518 141.21C28.889 141.544 28.9048 141.858 28.6062 142.188L-7.12822 174.06C-7.46286 174.298 -7.81325 174.221 -8.10705 174.015C-8.25161 173.645 -8.17464 173.295 -7.96883 173.001Z" fill="#656565"/>
<path opacity="0.2352" d="M-69.3959 644.413L17.923 591.457C18.2577 591.22 18.6442 591.389 18.8814 591.724C19.1187 592.058 18.949 592.444 18.7071 592.646L-68.5757 645.694C-68.9104 645.931 -69.2969 645.762 -69.5341 645.428C-69.8075 645 -69.7305 644.65 -69.3959 644.413Z" fill="#656565"/>
<path opacity="0.5" d="M26.1208 429.858L69.6755 416.39C70.0463 416.245 70.3762 416.544 70.4846 416.822C70.6292 417.192 70.4234 417.486 70.0526 417.631L26.4979 431.099C26.1272 431.243 25.7045 430.981 25.6888 430.667C25.5443 430.297 25.7501 430.003 26.1208 429.858Z" fill="#656565"/>
<path opacity="0.020038" d="M121.015 688.721L22.0924 630.071C21.7986 629.866 21.6541 629.495 21.8237 629.109C22.0296 628.815 22.4003 628.67 22.7868 628.84L121.616 687.526C121.91 687.731 122.055 688.102 121.849 688.395C121.715 688.875 121.308 688.927 121.015 688.721Z" fill="#656565"/>
<path opacity="0.3841" d="M104.413 331.858L70.4443 417.265C70.2747 417.651 69.9039 417.796 69.5174 417.627C69.167 417.55 68.9863 417.087 69.1921 416.793L103.16 331.386C103.33 331 103.701 330.855 104.087 331.025C104.381 331.23 104.619 331.565 104.413 331.858Z" fill="#656565"/>
<path opacity="0.064968" d="M-48.8223 689.757L80.3408 738.318C80.7273 738.487 80.8719 738.858 80.7022 739.244C80.4964 739.538 80.2545 739.739 79.868 739.569L-49.2952 691.009C-49.6455 690.932 -49.8263 690.469 -49.7131 690.211C-49.5435 689.825 -49.08 689.644 -48.8223 689.757Z" fill="#656565"/>
<path opacity="0.5" d="M37.245 499.169L72.9156 483.012C73.2864 482.868 73.6729 483.037 73.8174 483.408C73.962 483.778 73.7923 484.164 73.5142 484.273L37.8437 500.43C37.4729 500.574 37.0863 500.405 36.9779 500.127C36.8334 499.756 37.0031 499.37 37.245 499.169Z" fill="#656565"/>
<path opacity="0.403" d="M141.731 363.732L70.2022 417.466C69.8676 417.703 69.5172 417.626 69.2799 417.292C69.0427 416.958 69.1196 416.607 69.4543 416.37L140.947 362.543C141.282 362.306 141.632 362.383 141.869 362.717C142.143 363.144 142.102 363.587 141.731 363.732Z" fill="#656565"/>
<path opacity="0.5" d="M25.674 430.354L30.3317 406.976C30.4087 406.625 30.7433 406.388 31.0937 406.465C31.444 406.542 31.6813 406.876 31.6043 407.226L26.9466 430.605C26.8696 430.955 26.535 431.192 26.1846 431.115C25.8343 431.038 25.597 430.704 25.674 430.354Z" fill="#656565"/>
<path opacity="0.5" d="M72.5417 483.693L69.1726 417.015C69.1207 416.608 69.4553 416.371 69.8623 416.319C70.1765 416.303 70.5065 416.601 70.5222 416.915L73.8912 483.593C73.9431 484 73.6446 484.33 73.2016 484.289C72.9235 484.398 72.5935 484.1 72.5417 483.693Z" fill="#656565"/>
<path opacity="0.3451" d="M79.61 739.456L14.2437 667.716C14.0425 667.475 13.9907 667.068 14.2892 666.738C14.6238 666.501 14.9381 666.485 15.268 666.783L80.6343 738.523C80.8716 738.857 80.8307 739.3 80.5888 739.501C80.2541 739.739 79.8111 739.698 79.61 739.456Z" fill="#656565"/>
<path opacity="0.2981" d="M30.4092 406.625L103.274 331.129C103.48 330.835 103.923 330.876 104.217 331.081C104.511 331.287 104.47 331.73 104.264 332.024L31.3629 407.427C31.0644 407.757 30.714 407.681 30.4202 407.475C30.1625 407.362 30.2034 406.919 30.4092 406.625Z" fill="#656565"/>
<path opacity="0.5" d="M21.7842 629.551L17.6054 592.008C17.5535 591.601 17.852 591.272 18.1662 591.256C18.4804 591.24 18.9031 591.502 18.9188 591.816L23.1904 629.323C23.2422 629.73 22.9437 630.06 22.5368 630.112C22.166 630.256 21.8361 629.958 21.7842 629.551Z" fill="#656565"/>
<path opacity="0.2996" d="M18.6361 592.46L-46.9918 643.252C-47.3265 643.489 -47.7695 643.449 -48.0068 643.114C-48.244 642.78 -48.167 642.43 -47.8324 642.192L17.8316 591.493C18.1663 591.256 18.5166 591.333 18.7177 591.574C18.955 591.909 18.878 592.259 18.6361 592.46Z" fill="#656565"/>
<path opacity="0.3655" d="M-68.8947 644.324L14.9748 666.577C15.3252 666.654 15.5624 666.989 15.3928 667.375C15.3158 667.725 14.9811 667.963 14.5946 667.793L-69.2749 645.54C-69.6253 645.463 -69.8987 645.036 -69.729 644.65C-69.5798 644.485 -69.2451 644.248 -68.8947 644.324Z" fill="#656565"/>
<path opacity="0.1026" d="M24.7704 440.632L61.6921 490.379C61.9294 490.714 61.8524 491.064 61.5178 491.301C61.1831 491.539 60.8327 491.462 60.5955 491.127L23.6737 441.38C23.4365 441.046 23.4773 440.603 23.812 440.366C24.1828 440.221 24.5331 440.298 24.7704 440.632Z" fill="#656565"/>
<path opacity="0.1573" d="M25.787 430.096L103.31 331.221C103.516 330.927 103.923 330.875 104.217 331.081C104.51 331.286 104.562 331.693 104.356 331.987L26.8334 430.862C26.6276 431.155 26.2207 431.207 25.9269 431.002C25.6331 430.796 25.5812 430.389 25.787 430.096Z" fill="#656565"/>
<path opacity="0.366" d="M121.911 687.731L132.992 700.807C133.23 701.141 133.189 701.584 132.947 701.785C132.612 702.022 132.169 701.982 131.968 701.74L120.979 688.628C120.742 688.294 120.819 687.944 121.061 687.742C121.267 687.449 121.617 687.526 121.911 687.731Z" fill="#656565"/>
<path opacity="0.2774" d="M-49.4146 689.881L22.067 628.907C22.4017 628.67 22.8448 628.711 23.0459 628.952C23.2831 629.287 23.2423 629.73 23.0003 629.931L-48.5174 690.812C-48.8521 691.049 -49.2025 690.973 -49.4963 690.767C-49.7901 690.561 -49.7492 690.118 -49.4146 689.881Z" fill="#656565"/>
<path opacity="0.5" d="M107.647 683.475L80.7007 739.244C80.531 739.631 80.1241 739.683 79.7737 739.606C79.3872 739.436 79.3353 739.03 79.4123 738.679L106.359 682.91C106.528 682.524 106.935 682.472 107.286 682.549C107.672 682.718 107.853 683.181 107.647 683.475Z" fill="#656565"/>
<path opacity="0.4049" d="M31.5164 406.727L73.7825 483.315C74.0198 483.65 73.8501 484.036 73.5154 484.273C73.1808 484.511 72.7943 484.341 72.5571 484.007L30.291 407.418C30.0537 407.084 30.2234 406.697 30.5581 406.46C30.9288 406.316 31.3153 406.485 31.5164 406.727Z" fill="#656565"/>
<path opacity="0.5" d="M140.881 363.743L103.357 332.164C103.063 331.958 103.011 331.551 103.31 331.221C103.515 330.928 103.922 330.876 104.252 331.174L141.777 362.754C142.071 362.959 142.03 363.402 141.824 363.696C141.618 363.99 141.175 363.949 140.881 363.743Z" fill="#656565"/>
<path opacity="0.5" d="M26.8217 430.012L73.7454 483.222C73.9827 483.557 73.9418 483.999 73.6999 484.2C73.3652 484.438 72.9222 484.397 72.7211 484.155L25.7974 430.945C25.5601 430.611 25.5444 430.297 25.8429 429.967C26.1775 429.73 26.6206 429.77 26.8217 430.012Z" fill="#656565"/>
<path opacity="0.065253" d="M38.2552 499.843L23.1686 629.545C23.0916 629.895 22.7931 630.225 22.4427 630.148C22.0923 630.072 21.7624 629.773 21.8394 629.423L36.926 499.721C37.003 499.371 37.3376 499.133 37.6519 499.117C38.0022 499.194 38.2395 499.529 38.2552 499.843Z" fill="#656565"/>
<path opacity="0.5" d="M23.1126 629.673L15.4277 667.468C15.3508 667.818 15.0161 668.056 14.6658 667.979C14.3154 667.902 14.0781 667.568 14.1551 667.217L21.8399 629.423C21.9169 629.072 22.2515 628.835 22.6946 628.876C23.0088 628.86 23.1895 629.323 23.1126 629.673Z" fill="#656565"/>
<path opacity="0.4355" d="M-47.1475 642.032L14.9745 666.578C15.361 666.747 15.5056 667.118 15.3359 667.504C15.1662 667.89 14.7955 668.035 14.5016 667.829L-47.713 643.32C-48.0995 643.15 -48.2441 642.78 -48.0744 642.393C-47.8686 642.099 -47.4978 641.955 -47.1475 642.032Z" fill="#656565"/>
<path opacity="0.4094" d="M133.817 718.524L131.732 701.406C131.68 700.999 131.978 700.669 132.385 700.617C132.792 700.565 133.122 700.863 133.174 701.27L135.167 718.425C135.219 718.831 134.92 719.161 134.606 719.177C134.163 719.137 133.833 718.838 133.817 718.524Z" fill="#656565"/>
<path opacity="0.2576" d="M106.685 683.744L22.0935 630.071C21.7997 629.865 21.7478 629.459 21.9175 629.072C22.1233 628.779 22.5302 628.727 22.7879 628.84L107.287 682.549C107.581 682.754 107.633 683.161 107.427 683.455C107.386 683.898 106.979 683.95 106.685 683.744Z" fill="#656565"/>
<path opacity="0.1406" d="M122.035 688.323L109.744 743.605C109.667 743.955 109.24 744.228 108.89 744.152C108.539 744.075 108.266 743.648 108.343 743.298L120.726 687.979C120.803 687.629 121.138 687.392 121.488 687.469C121.875 687.638 122.112 687.972 122.035 688.323Z" fill="#656565"/>
<path opacity="0.1264" d="M132.169 701.982L14.5371 667.922C14.1867 667.845 14.0422 667.475 14.1192 667.125C14.1961 666.774 14.5669 666.63 14.9173 666.707L132.513 700.673C132.864 700.75 133.137 701.177 132.967 701.564C132.947 701.785 132.52 702.058 132.169 701.982Z" fill="#656565"/>
<path opacity="0.040467" d="M-2.05594 86.5839L-78.5921 140.35C-78.9268 140.587 -79.3698 140.547 -79.6071 140.212C-79.8443 139.878 -79.8035 139.435 -79.4327 139.29L-2.76769 85.5806C-2.43304 85.3434 -2.08269 85.4202 -1.84544 85.7546C-1.68046 85.9037 -1.7213 86.3466 -2.05594 86.5839Z" fill="#656565"/>
<path opacity="0.345" d="M36.9065 499.942L23.5656 441.103C23.5137 440.696 23.7195 440.402 24.0903 440.257C24.4973 440.205 24.791 440.411 24.9356 440.782L38.2765 499.621C38.3283 500.027 38.1225 500.321 37.7517 500.466C37.3448 500.518 37.051 500.312 36.9065 499.942Z" fill="#656565"/>
<path opacity="0.2347" d="M108.549 743.004L134.007 717.916C134.249 717.715 134.656 717.663 134.985 717.961C135.187 718.203 135.238 718.61 134.94 718.94L109.575 743.992C109.276 744.322 108.833 744.281 108.596 743.947C108.173 743.685 108.214 743.242 108.549 743.004Z" fill="#656565"/>
<path opacity="0.1562" d="M79.5379 739.271L21.8925 629.829C21.7479 629.459 21.8249 629.108 22.1595 628.871C22.5303 628.727 22.8807 628.803 23.1179 629.138L80.7633 738.58C81.0006 738.914 80.8309 739.301 80.4963 739.538C80.1617 739.775 79.6824 739.642 79.5379 739.271Z" fill="#656565"/>
<path opacity="0.5" d="M107.451 682.698L132.827 700.657C133.12 700.863 133.209 701.362 133.003 701.656C132.797 701.95 132.297 702.038 132.003 701.832L106.684 683.744C106.39 683.538 106.338 683.132 106.544 682.838C106.75 682.544 107.121 682.4 107.451 682.698Z" fill="#656565"/>
<path opacity="0.096312" d="M171.161 484.074L69.4815 417.534C69.1877 417.328 69.1358 416.921 69.3416 416.628C69.5474 416.334 69.9544 416.282 70.2482 416.487L171.985 482.899C172.278 483.104 172.366 483.604 172.161 483.897C171.955 484.191 171.455 484.279 171.161 484.074Z" fill="#656565"/>
<path opacity="0.3712" d="M23.9041 440.33L69.5464 416.334C69.9172 416.189 70.2676 416.266 70.4122 416.637C70.5567 417.007 70.4797 417.357 70.1089 417.502L24.4666 441.498C24.0959 441.643 23.7455 441.566 23.5082 441.231C23.3998 440.954 23.5695 440.567 23.9041 440.33Z" fill="#656565"/>
<path opacity="0.3808" d="M-69.21 644.34L22.3444 628.799C22.7513 628.747 23.0813 629.045 23.097 629.359C23.1489 629.766 22.943 630.06 22.5361 630.112L-69.0182 645.653C-69.4251 645.705 -69.7551 645.407 -69.7708 645.093C-69.7865 644.779 -69.5242 644.356 -69.21 644.34Z" fill="#656565"/>
<path opacity="0.4435" d="M75.3167 386.224L70.5006 417.136C70.4237 417.486 70.089 417.723 69.7386 417.647C69.3883 417.57 69.151 417.235 69.228 416.885L73.9514 386.01C74.0284 385.659 74.363 385.422 74.8061 385.463C75.0638 385.576 75.301 385.91 75.3167 386.224Z" fill="#656565"/>
<path opacity="0.5" d="M31.6033 407.226L24.9507 441.095C24.8737 441.446 24.539 441.683 24.096 441.642C23.6529 441.602 23.5084 441.231 23.5492 440.788L30.2946 406.882C30.3715 406.532 30.7062 406.295 31.0566 406.372C31.4431 406.541 31.6803 406.875 31.6033 407.226Z" fill="#656565"/>
<path opacity="0.5" d="M26.9469 430.604L24.8592 441.132C24.7823 441.482 24.4476 441.719 24.0046 441.679C23.6542 441.602 23.4169 441.267 23.4578 440.825L25.5455 430.297C25.6225 429.947 25.9571 429.709 26.3075 429.786C26.7867 429.919 27.0239 430.254 26.9469 430.604Z" fill="#656565"/>
<path opacity="0.072261" d="M108.539 744.076L14.2789 667.81C13.985 667.604 13.9332 667.197 14.2317 666.867C14.4375 666.574 14.8444 666.522 15.1382 666.727L109.398 742.993C109.692 743.199 109.78 743.698 109.481 744.028C109.332 744.193 108.832 744.281 108.539 744.076Z" fill="#656565"/>
<path opacity="0.5" d="M22.5726 630.204L-47.2341 643.453C-47.641 643.505 -47.9349 643.299 -47.9867 642.893C-48.0386 642.486 -47.8328 642.192 -47.462 642.048L22.3448 628.799C22.7517 628.747 23.0455 628.952 23.0974 629.359C23.2419 629.73 22.9434 630.06 22.5726 630.204Z" fill="#656565"/>
<path opacity="0.4697" d="M30.6869 406.517L74.3073 385.551C74.6781 385.406 75.0646 385.576 75.2657 385.818C75.4102 386.188 75.2405 386.575 74.9986 386.776L31.3421 407.649C30.9713 407.793 30.5848 407.624 30.4764 407.346C30.1465 407.048 30.3161 406.661 30.6869 406.517Z" fill="#656565"/>
<path opacity="0.5" d="M79.7488 738.442L132.015 700.762C132.349 700.524 132.792 700.565 133.03 700.899C133.267 701.234 133.226 701.677 132.891 701.914L80.6256 739.594C80.2909 739.832 79.9406 739.755 79.7033 739.421C79.3372 739.03 79.4142 738.679 79.7488 738.442Z" fill="#656565"/>
<path opacity="0.09903" d="M142.014 363.088L172.257 483.326C172.309 483.733 172.139 484.12 171.733 484.172C171.326 484.224 171.032 484.018 170.887 483.647L140.644 363.409C140.499 363.039 140.798 362.709 141.168 362.564C141.575 362.512 141.869 362.718 142.014 363.088Z" fill="#656565"/>
<path opacity="0.4174" d="M25.8439 429.967L74.1219 385.623C74.4566 385.386 74.8635 385.334 75.1007 385.668C75.338 386.003 75.3898 386.41 75.0552 386.647L26.7772 430.991C26.4425 431.228 26.1283 431.244 25.7983 430.946C25.5972 430.704 25.6381 430.261 25.8439 429.967Z" fill="#656565"/>
<path opacity="0.3632" d="M107.761 683.218L109.801 743.477C109.853 743.883 109.554 744.213 109.111 744.173C108.705 744.225 108.375 743.926 108.415 743.484L106.376 683.225C106.324 682.818 106.658 682.581 107.065 682.529C107.38 682.513 107.71 682.811 107.761 683.218Z" fill="#656565"/>
<path opacity="0.3639" d="M73.9719 385.788L103.217 331.257C103.423 330.964 103.793 330.819 104.18 330.988C104.474 331.194 104.618 331.565 104.449 331.951L75.2037 386.482C74.9979 386.776 74.6271 386.92 74.2406 386.751C73.9468 386.545 73.8022 386.175 73.9719 385.788Z" fill="#656565"/>
<path opacity="0.3194" d="M171.547 484.243L73.2363 484.382C72.8294 484.434 72.5922 484.099 72.5403 483.692C72.4885 483.286 72.8231 483.048 73.23 482.996L171.505 482.765C171.912 482.713 172.185 483.14 172.201 483.455C172.253 483.861 171.954 484.191 171.547 484.243Z" fill="#656565"/>
<path opacity="0.173" d="M28.2369 142.333L-78.9979 140.402C-79.4049 140.454 -79.6783 140.027 -79.694 139.713C-79.7459 139.306 -79.3185 139.033 -79.0043 139.017L28.2305 140.948C28.6375 140.896 28.8747 141.23 28.9266 141.637C28.8858 142.08 28.5872 142.41 28.2369 142.333Z" fill="#656565"/>
<path opacity="0.4515" d="M24.6988 440.447L73.7102 483.13C74.004 483.335 73.9632 483.778 73.7574 484.072C73.5516 484.366 73.0158 484.361 72.8147 484.119L23.8033 441.437C23.4733 441.139 23.5141 440.696 23.7561 440.495C23.998 440.293 24.405 440.242 24.6988 440.447Z" fill="#656565"/>
<path opacity="0.3368" d="M141.582 363.897L74.813 386.848C74.4422 386.993 74.0195 386.731 73.875 386.36C73.7304 385.99 73.9928 385.567 74.2709 385.458L140.948 362.543C141.318 362.399 141.705 362.568 141.849 362.939C142.123 363.366 141.953 363.752 141.582 363.897Z" fill="#656565"/>
<path opacity="0.2783" d="M75.2814 386.132L73.9271 483.686C73.979 484.092 73.5516 484.366 73.2374 484.382C72.9232 484.398 72.5932 484.099 72.5414 483.693L73.8957 386.139C73.8438 385.732 74.2712 385.458 74.5854 385.443C75.0284 385.483 75.2657 385.818 75.2814 386.132Z" fill="#656565"/>
<path opacity="0.01" d="M135.129 718.332L145.075 770.384C145.127 770.79 144.921 771.084 144.55 771.229C144.143 771.281 143.757 771.111 143.705 770.704L133.852 718.617C133.8 718.21 134.006 717.916 134.413 717.864C134.655 717.663 134.985 717.961 135.129 718.332Z" fill="#656565"/>
<path opacity="0.1456" d="M22.8239 628.932L132.735 700.694C133.029 700.899 133.117 701.398 132.911 701.692C132.705 701.986 132.298 702.038 131.912 701.869L22.0007 630.107C21.7068 629.902 21.655 629.495 21.8247 629.108C22.1232 628.779 22.5301 628.726 22.8239 628.932Z" fill="#656565"/>
<path opacity="0.5" d="M80.211 738.261L109.104 742.787C109.455 742.864 109.692 743.199 109.651 743.641C109.574 743.992 109.24 744.229 108.796 744.188L79.9031 739.662C79.5528 739.585 79.3155 739.251 79.3563 738.808C79.5621 738.514 79.8968 738.277 80.211 738.261Z" fill="#656565"/>
<path opacity="0.2297" d="M162.407 536.375L72.8502 484.212C72.5564 484.006 72.4119 483.636 72.5816 483.25C72.7874 482.956 73.1582 482.811 73.5447 482.981L163.101 535.144C163.395 535.349 163.576 535.812 163.37 536.106C163.2 536.493 162.793 536.545 162.407 536.375Z" fill="#656565"/>
<path opacity="0.059581" d="M108.467 743.89L21.9284 629.922C21.6912 629.587 21.732 629.144 22.0666 628.907C22.4013 628.67 22.7516 628.747 23.0816 629.045L109.62 743.013C109.858 743.347 109.817 743.79 109.482 744.027C109.147 744.265 108.704 744.224 108.467 743.89Z" fill="#656565"/>
<path opacity="0.01" d="M171.418 484.187L24.0958 441.643C23.7455 441.566 23.4721 441.139 23.6418 440.752C23.7187 440.402 24.1461 440.129 24.5326 440.298L171.819 482.75C172.169 482.826 172.442 483.253 172.273 483.64C172.103 484.026 171.768 484.263 171.418 484.187Z" fill="#656565"/>
<path opacity="0.5" d="M108.399 743.169L131.772 700.963C131.977 700.669 132.348 700.524 132.735 700.694C133.028 700.899 133.173 701.27 133.003 701.656L109.631 743.863C109.461 744.249 109.054 744.301 108.668 744.132C108.374 743.926 108.193 743.463 108.399 743.169Z" fill="#656565"/>
<path opacity="0.1033" d="M171.031 484.017L74.1111 386.694C73.7812 386.396 73.822 385.953 74.1566 385.716C74.4913 385.479 74.8982 385.427 75.1355 385.761L172.056 483.084C172.386 483.382 172.345 483.825 172.01 484.063C171.768 484.264 171.325 484.223 171.031 484.017Z" fill="#656565"/>
<path opacity="0.5" d="M75.148 386.611L24.7822 441.482C24.4837 441.812 24.0407 441.772 23.8396 441.53C23.5096 441.232 23.5504 440.789 23.7924 440.588L74.1581 385.716C74.4566 385.386 74.8997 385.427 75.1008 385.669C75.3019 385.91 75.3538 386.317 75.148 386.611Z" fill="#656565"/>
<path opacity="0.2564" d="M80.47 738.374L144.674 769.9C145.06 770.069 145.148 770.569 144.943 770.862C144.773 771.249 144.366 771.301 144.016 771.224L79.7755 739.606C79.389 739.436 79.3372 739.029 79.5068 738.643C79.7127 738.349 80.0834 738.205 80.47 738.374Z" fill="#656565"/>
<path opacity="0.5" d="M172.273 483.64L163.519 535.941C163.442 536.291 163.107 536.529 162.664 536.488C162.314 536.411 162.077 536.077 162.118 535.634L170.872 483.333C170.949 482.982 171.283 482.745 171.726 482.786C172.077 482.862 172.314 483.197 172.273 483.64Z" fill="#656565"/>
<path opacity="0.4292" d="M133.137 701.177L145.111 770.476C145.163 770.882 144.865 771.212 144.494 771.357C144.087 771.409 143.757 771.111 143.613 770.74L131.674 701.534C131.623 701.127 131.828 700.833 132.235 700.781C132.663 700.508 132.993 700.806 133.137 701.177Z" fill="#656565"/>
<path opacity="0.3679" d="M171.892 482.935L251.66 528.349C252.046 528.519 252.134 529.018 251.929 529.312C251.723 529.606 251.259 529.786 250.965 529.581L171.197 484.166C170.904 483.961 170.759 483.59 170.929 483.204C171.191 482.781 171.598 482.729 171.892 482.935Z" fill="#656565"/>
<path opacity="0.5" d="M109.492 742.957L144.803 769.956C145.133 770.255 145.185 770.661 144.886 770.991C144.68 771.285 144.181 771.373 143.887 771.168L108.576 744.168C108.283 743.962 108.195 743.463 108.493 743.133C108.663 742.747 109.162 742.659 109.492 742.957Z" fill="#656565"/>
<path opacity="0.4346" d="M162.75 535.067L251.273 528.18C251.68 528.128 252.01 528.426 252.061 528.833C252.113 529.239 251.815 529.569 251.408 529.621L162.886 536.508C162.479 536.56 162.149 536.262 162.097 535.855C162.045 535.449 162.344 535.119 162.75 535.067Z" fill="#656565"/>
<path opacity="0.2035" d="M132.004 701.832L89.6526 670.748C89.3226 670.45 89.2708 670.043 89.4766 669.749C89.7751 669.419 90.182 669.367 90.4758 669.573L132.827 700.657C133.121 700.863 133.209 701.362 133.003 701.656C132.704 701.986 132.297 702.038 132.004 701.832Z" fill="#656565"/>
<path opacity="0.2536" d="M108.358 743.612L89.3436 670.228C89.1991 669.858 89.4615 669.435 89.8684 669.383C90.2753 669.331 90.6618 669.5 90.7137 669.907L109.6 743.235C109.651 743.641 109.482 744.028 109.075 744.08C108.833 744.281 108.41 744.019 108.358 743.612Z" fill="#656565"/>
<path opacity="0.5" d="M-50.0253 215.771L11.2283 255.066C11.5221 255.271 11.7028 255.734 11.4043 256.064C11.1985 256.358 10.735 256.539 10.4051 256.241L-50.8486 216.946C-51.1424 216.741 -51.3231 216.277 -51.0246 215.948C-50.7261 215.618 -50.448 215.509 -50.0253 215.771Z" fill="#656565"/>
<path opacity="0.4849" d="M-68.9197 263.704L10.7147 254.84C11.1216 254.788 11.4515 255.086 11.5034 255.493C11.5553 255.9 11.2568 256.23 10.8498 256.282L-68.7845 265.145C-69.1915 265.197 -69.5214 264.899 -69.5733 264.492C-69.589 264.178 -69.3266 263.756 -68.9197 263.704Z" fill="#656565"/>
<path opacity="0.1458" d="M2.10378 404.431L24.8628 440.596C25.1001 440.931 24.9304 441.317 24.5958 441.554C24.2612 441.792 23.8746 441.622 23.6735 441.38L0.821757 405.251C0.584505 404.917 0.718015 404.438 1.05266 404.2C1.3873 403.963 1.86653 404.096 2.10378 404.431Z" fill="#656565"/>
<path opacity="0.052568" d="M1.23823 404.128L74.3992 385.515C74.8061 385.463 75.1926 385.632 75.2445 386.039C75.2963 386.446 75.1267 386.832 74.7198 386.884L1.59492 405.59C1.22414 405.735 0.801504 405.473 0.656947 405.102C0.56895 404.603 0.831314 404.18 1.23823 404.128Z" fill="#656565"/>
<path opacity="0.056812" d="M1.37387 405.57L-98.4566 393.599C-98.8069 393.522 -99.1369 393.224 -99.096 392.781C-99.0191 392.431 -98.7206 392.101 -98.3702 392.178L1.55292 404.112C1.99598 404.153 2.26939 404.58 2.19241 404.93C2.11544 405.281 1.72423 405.647 1.37387 405.57Z" fill="#656565"/>
<path opacity="0.027431" d="M-31.6078 58.1921L-49.6786 216.384C-49.7194 216.827 -50.054 217.064 -50.4971 217.023C-50.9402 216.983 -51.1774 216.648 -51.1366 216.205L-33.1019 57.921C-33.0611 57.4781 -32.7264 57.2409 -32.2834 57.2815C-31.8969 57.4509 -31.5669 57.7492 -31.6078 58.1921Z" fill="#656565"/>
<path opacity="0.5" d="M-67.6362 260.427L10.713 254.84C11.12 254.788 11.4499 255.086 11.5018 255.493C11.5536 255.9 11.2551 256.229 10.8482 256.282L-67.4084 261.832C-67.8153 261.884 -68.1452 261.586 -68.1971 261.179C-68.249 260.773 -67.9505 260.443 -67.6362 260.427Z" fill="#656565"/>
<path opacity="0.207" d="M143.648 770.833L89.3227 670.45C89.1782 670.079 89.219 669.636 89.6825 669.456C90.0532 669.311 90.4963 669.352 90.6409 669.722L144.873 770.142C145.018 770.512 144.977 770.955 144.606 771.1C144.272 771.337 143.885 771.168 143.648 770.833Z" fill="#656565"/>
<path opacity="0.4941" d="M-66.0383 236.321L10.9354 254.86C11.2858 254.937 11.5592 255.364 11.4822 255.714C11.4052 256.065 10.9779 256.338 10.6275 256.261L-66.3462 237.722C-66.6966 237.646 -66.97 237.218 -66.893 236.868C-66.816 236.518 -66.4814 236.281 -66.0383 236.321Z" fill="#656565"/>
<path opacity="0.2148" d="M-68.5546 51.3639L35.4342 101.099C35.8208 101.269 35.9088 101.768 35.7391 102.154C35.5694 102.541 35.1059 102.722 34.7194 102.552L-69.2695 52.8169C-69.656 52.6475 -69.8367 52.1843 -69.6309 51.8905C-69.4046 51.3753 -68.9411 51.1945 -68.5546 51.3639Z" fill="#656565"/>
<path opacity="0.061086" d="M35.7589 101.933L11.482 255.714C11.405 256.064 11.0138 256.43 10.6273 256.261C10.2769 256.184 9.94699 255.886 9.98782 255.443L34.2648 101.661C34.3056 101.219 34.733 100.945 35.0833 101.022C35.5625 101.155 35.8359 101.582 35.7589 101.933Z" fill="#656565"/>
<path opacity="0.1452" d="M1.46587 405.534L-122.244 409.282C-122.651 409.334 -123.017 408.944 -122.94 408.593C-122.992 408.187 -122.6 407.821 -122.25 407.897L1.45954 404.148C1.86647 404.096 2.23255 404.487 2.19171 404.93C2.20743 405.244 1.90893 405.574 1.46587 405.534Z" fill="#656565"/>
<path opacity="0.099979" d="M-0.78715 293.803L-51.1053 216.833C-51.3425 216.499 -51.209 216.019 -50.8744 215.782C-50.5397 215.545 -50.0605 215.678 -49.8233 216.013L0.587577 292.946C0.824828 293.281 0.69129 293.76 0.356646 293.997C-0.106834 294.178 -0.549899 294.137 -0.78715 293.803Z" fill="#656565"/>
<path opacity="0.3542" d="M55.2736 769.337L89.4206 669.878C89.5902 669.492 89.9249 669.254 90.4041 669.388C90.7906 669.557 90.9352 669.928 90.8582 670.278L56.8039 769.701C56.6342 770.087 56.2996 770.324 55.8203 770.191C55.3773 770.151 55.1401 769.816 55.2736 769.337Z" fill="#656565"/>
<path opacity="0.4259" d="M-80.5589 396.223L1.51596 404.02C1.95902 404.06 2.19629 404.395 2.15546 404.838C2.11462 405.281 1.77997 405.518 1.33691 405.477L-80.7741 397.588C-81.2172 397.548 -81.4544 397.213 -81.4136 396.77C-81.3728 396.327 -81.002 396.183 -80.5589 396.223Z" fill="#656565"/>
<path opacity="0.4934" d="M-31.989 57.4873L35.4708 101.192C35.7646 101.398 35.9453 101.861 35.6468 102.191C35.441 102.485 34.9775 102.665 34.6475 102.367L-32.8122 58.6623C-33.106 58.4567 -33.2867 57.9935 -32.9882 57.6636C-32.7824 57.3698 -32.2828 57.2817 -31.989 57.4873Z" fill="#656565"/>
<path opacity="0.2612" d="M-78.2412 146.724L34.8053 101.131C35.1761 100.986 35.6553 101.119 35.7998 101.49C35.9444 101.86 35.8109 102.339 35.4401 102.484L-77.6064 148.078C-77.9772 148.222 -78.3637 148.053 -78.601 147.718C-78.8744 147.291 -78.7047 146.905 -78.2412 146.724Z" fill="#656565"/>
<path opacity="0.1899" d="M143.597 770.426L149.842 717.716C149.883 717.273 150.31 716.999 150.753 717.04C151.196 717.081 151.434 717.415 151.393 717.858L145.019 770.512C144.978 770.955 144.643 771.192 144.2 771.151C143.886 771.167 143.556 770.869 143.597 770.426Z" fill="#656565"/>
<path opacity="0.3271" d="M-0.493006 294.009L-67.8503 261.792C-68.2368 261.622 -68.4175 261.159 -68.2116 260.865C-68.042 260.479 -67.5785 260.298 -67.2847 260.504L0.165264 292.685C0.551768 292.854 0.732466 293.317 0.562796 293.704C0.393126 294.09 -0.0703617 294.271 -0.493006 294.009Z" fill="#656565"/>
<path opacity="0.4312" d="M-0.855434 293.082L10.0801 255.407C10.2497 255.021 10.5844 254.783 10.9709 254.953C11.3574 255.122 11.5946 255.457 11.425 255.843L0.525617 293.611C0.355949 293.997 0.0212995 294.235 -0.457901 294.101C-0.751711 293.896 -0.988965 293.561 -0.855434 293.082Z" fill="#656565"/>
<path opacity="0.1371" d="M-81.2078 396.477L-0.742235 292.825C-0.443729 292.495 -0.0368055 292.443 0.385839 292.705C0.715787 293.003 0.767661 293.41 0.505295 293.833L-80.0891 397.428C-80.3876 397.758 -80.7946 397.81 -81.1245 397.512C-81.4183 397.306 -81.5063 396.807 -81.2078 396.477Z" fill="#656565"/>
<path opacity="0.342" d="M-0.621824 293.952L-66.6962 237.645C-67.0262 237.347 -66.9853 236.904 -66.7795 236.611C-66.5737 236.317 -66.0741 236.229 -65.7442 236.527L0.422936 292.797C0.752883 293.096 0.804754 293.502 0.506249 293.832C0.207745 294.162 -0.328014 294.158 -0.621824 293.952Z" fill="#656565"/>
<path opacity="0.2381" d="M-124.726 403.74L1.45986 404.149C1.90293 404.189 2.23287 404.487 2.19203 404.93C2.1512 405.373 1.85269 405.703 1.40963 405.662L-124.776 405.254C-125.219 405.213 -125.549 404.915 -125.508 404.472C-125.468 404.029 -125.169 403.699 -124.726 403.74Z" fill="#656565"/>
<path opacity="0.4096" d="M150.13 718.457L89.6527 670.748C89.3228 670.45 89.2709 670.043 89.5694 669.713C89.8679 669.383 90.2748 669.331 90.6048 669.629L151.175 717.302C151.505 717.601 151.593 718.1 151.295 718.43C150.96 718.667 150.424 718.663 150.13 718.457Z" fill="#656565"/>
<path opacity="0.09038" d="M113.524 255.829L10.757 256.318C10.314 256.277 9.98402 255.979 10.0249 255.536C9.97299 255.129 10.4003 254.856 10.7146 254.84L113.445 254.259C113.888 254.299 114.218 254.597 114.177 255.04C114.265 255.54 113.967 255.87 113.524 255.829Z" fill="#656565"/>
<path opacity="0.3314" d="M0.677397 404.881L-0.931933 293.433C-0.891098 292.99 -0.59259 292.66 -0.149529 292.701C0.293533 292.741 0.623476 293.039 0.582641 293.482L2.19197 404.93C2.24383 405.337 1.85263 405.703 1.40957 405.663C1.0592 405.586 0.69312 405.195 0.677397 404.881Z" fill="#656565"/>
<path opacity="0.283" d="M55.6659 768.971L150.255 717.128C150.589 716.891 151.068 717.024 151.342 717.451C151.579 717.786 151.445 718.265 151.018 718.538L56.3934 770.288C56.0226 770.433 55.5434 770.299 55.3988 769.929C55.1616 769.594 55.2951 769.115 55.6659 768.971Z" fill="#656565"/>
<path opacity="0.028443" d="M19.7739 593.19L90.6048 669.629C90.9347 669.927 90.8939 670.37 90.5954 670.7C90.2607 670.937 89.8538 670.989 89.5238 670.691L18.6364 594.381C18.3992 594.046 18.4039 593.511 18.7385 593.273C19.0009 592.851 19.5366 592.855 19.7739 593.19Z" fill="#656565"/>
<path opacity="0.1481" d="M-93.0734 479.132L0.959924 404.237C1.29457 404 1.73762 404.04 1.97488 404.375C2.21213 404.709 2.17129 405.152 1.87279 405.482L-92.1243 480.469C-92.459 480.707 -92.9947 480.702 -93.232 480.368C-93.5054 479.941 -93.408 479.369 -93.0734 479.132Z" fill="#656565"/>
<path opacity="0.3952" d="M1.64527 404.076L59.9806 422.2C60.3671 422.37 60.6405 422.797 60.4708 423.183C60.3012 423.57 59.8738 423.843 59.4873 423.674L1.11583 405.457C0.729329 405.287 0.492079 404.953 0.625612 404.474C0.83142 404.18 1.2949 403.999 1.64527 404.076Z" fill="#656565"/>
<path opacity="0.2858" d="M-0.407792 292.587L113.258 254.331C113.629 254.186 114.144 254.412 114.196 254.819C114.341 255.189 114.114 255.704 113.707 255.756L0.041597 294.013C-0.329192 294.158 -0.751841 293.896 -0.896398 293.525C-1.00482 293.247 -0.778574 292.732 -0.407792 292.587Z" fill="#656565"/>
<path opacity="0.06555" d="M0.624147 293.039L60.6049 422.704C60.7495 423.075 60.6159 423.554 60.2813 423.791C59.9105 423.936 59.4313 423.803 59.1579 423.376L-0.822852 293.71C-0.967408 293.34 -0.833861 292.861 -0.463078 292.716C-0.0357375 292.443 0.350756 292.612 0.624147 293.039Z" fill="#656565"/>
<path opacity="0.1759" d="M277.023 670.025L150.889 718.482C150.518 718.627 150.003 718.401 149.859 718.03C149.714 717.66 149.94 717.144 150.311 717L276.409 668.45C276.78 668.305 277.295 668.531 277.476 668.994C277.564 669.493 277.394 669.88 277.023 670.025Z" fill="#656565"/>
<path opacity="0.07691" d="M-92.0931 479.176L19.7755 593.19C20.1055 593.488 20.1008 594.024 19.7661 594.261C19.4676 594.591 18.9319 594.587 18.6946 594.252L-93.1379 480.331C-93.4678 480.033 -93.4631 479.497 -93.1285 479.26C-92.83 478.93 -92.3304 478.842 -92.0931 479.176Z" fill="#656565"/>
<path opacity="0.064182" d="M-92.8873 479.059L59.574 422.253C59.9448 422.108 60.4602 422.334 60.6047 422.704C60.7493 423.075 60.523 423.59 60.1523 423.735L-92.309 480.541C-92.6798 480.686 -93.1951 480.46 -93.3397 480.089C-93.5204 479.626 -93.2581 479.204 -92.8873 479.059Z" fill="#656565"/>
<path opacity="0.5" d="M-10.9743 587.466L19.3881 593.02C19.8311 593.061 20.1045 593.488 20.0637 593.931C20.0228 594.374 19.5955 594.647 19.1524 594.607L-11.21 589.053C-11.653 589.012 -11.9264 588.585 -11.8856 588.142C-11.8447 587.699 -11.4174 587.426 -10.9743 587.466Z" fill="#656565"/>
<path opacity="0.2275" d="M19.1656 593L137.643 579.124C138.05 579.072 138.509 579.427 138.561 579.834C138.612 580.24 138.257 580.699 137.85 580.751L19.3369 594.534C18.93 594.586 18.4712 594.232 18.5121 593.789C18.4602 593.382 18.7587 593.052 19.1656 593Z" fill="#656565"/>
<path opacity="0.093505" d="M-11.1958 587.446L137.644 579.124C138.051 579.072 138.51 579.427 138.505 579.963C138.557 580.369 138.202 580.828 137.666 580.824L-11.2099 589.053C-11.6169 589.105 -11.9829 588.714 -12.0348 588.307C-11.9013 587.828 -11.6028 587.498 -11.1958 587.446Z" fill="#656565"/>
<path opacity="0.017448" d="M-18.4743 334.432L-116.578 433.116C-116.876 433.446 -117.412 433.442 -117.742 433.143C-118.072 432.845 -118.067 432.31 -117.769 431.98L-19.7941 333.239C-19.4029 332.873 -18.8671 332.878 -18.5011 333.268C-18.1711 333.567 -18.1758 334.102 -18.4743 334.432Z" fill="#656565"/>
<path opacity="0.1903" d="M22.8916 303.032L-33.6406 315.265L44.9449 326.984L22.8916 303.032Z" fill="#656565"/>
<path opacity="0.1886" d="M46.8268 329.345L109.97 319.55L117.179 321.328L46.8268 329.345Z" fill="#656565"/>
<path opacity="0.2545" d="M82.0933 607.839L81.5194 641.686L40.6789 581.62L82.0933 607.839Z" fill="#656565"/>
<path opacity="0.1821" d="M32.7245 332.072L46.8269 329.346L117.179 321.328L32.7245 332.072Z" fill="#656565"/>
<path opacity="0.1776" d="M121.334 688.169L82.0936 607.839L81.5197 641.686L121.334 688.169Z" fill="#656565"/>
<path opacity="0.1317" d="M82.0934 607.839L40.6789 581.62L18.2324 591.977L82.0934 607.839Z" fill="#656565"/>
<path opacity="0.062714" d="M-44.241 135.595L-22.2637 94.4668L-51.9268 190.362L-44.241 135.595Z" fill="#656565"/>
<path opacity="0.1738" d="M-32.0707 325.86L32.7248 332.072L46.8272 329.345L-32.0707 325.86Z" fill="#656565"/>
<path opacity="0.1997" d="M37.5911 499.781L84.8354 505.901L61.1155 490.818L37.5911 499.781Z" fill="#656565"/>
<path opacity="0.251" d="M-44.2397 135.596L-22.2624 94.467L-2.40039 85.9717L-44.2397 135.596Z" fill="#656565"/>
<path opacity="0.2457" d="M-32.0713 325.86L32.7241 332.072L-27.8757 298.286L-32.0713 325.86Z" fill="#656565"/>
<path opacity="0.2457" d="M-32.0713 325.86L32.7241 332.072L-27.8757 298.286L-32.0713 325.86Z" fill="#656565"/>
<path opacity="0.2793" d="M107.004 683.193L121.335 688.169L134.409 718.4L107.004 683.193Z" fill="#656565"/>
<path opacity="0.2793" d="M107.004 683.193L121.335 688.169L134.409 718.4L107.004 683.193Z" fill="#656565"/>
<path opacity="0.2793" d="M107.004 683.193L121.335 688.169L134.409 718.4L107.004 683.193Z" fill="#656565"/>
<path opacity="0.1242" d="M-51.9261 190.362L-7.43671 173.541L28.2051 141.705L-51.9261 190.362Z" fill="#656565"/>
<path opacity="0.2565" d="M37.592 499.781L73.1699 483.661L61.1164 490.818L37.592 499.781Z" fill="#656565"/>
<path opacity="0.2565" d="M37.592 499.781L73.1699 483.661L61.1164 490.818L37.592 499.781Z" fill="#656565"/>
<path opacity="0.2185" d="M-22.2628 94.4666L-2.4008 85.9713L28.2052 141.704L-22.2628 94.4666Z" fill="#656565"/>
<path opacity="0.138" d="M-7.4366 173.54L-2.4008 85.9713L28.2052 141.704L-7.4366 173.54Z" fill="#656565"/>
<path opacity="0.091609" d="M-69.0489 645.025L-49.0123 690.365L14.8206 667.278L-69.0489 645.025Z" fill="#656565"/>
<path opacity="0.2927" d="M26.3735 430.507L30.9024 407.073L69.7993 416.983L26.3735 430.507Z" fill="#656565"/>
<path opacity="0.2927" d="M26.3735 430.507L30.9024 407.073L69.7993 416.983L26.3735 430.507Z" fill="#656565"/>
<path opacity="0.2927" d="M26.3735 430.507L30.9024 407.073L69.7993 416.983L26.3735 430.507Z" fill="#656565"/>
<path opacity="0.1799" d="M22.504 629.483L18.2324 591.977L14.8192 667.278L22.504 629.483Z" fill="#656565"/>
<path opacity="0.042801" d="M-49.0139 690.365L22.5039 629.484L14.8191 667.278L-49.0139 690.365Z" fill="#656565"/>
<path opacity="0.2181" d="M26.3752 430.507L73.1701 483.661L69.801 416.983L26.3752 430.507Z" fill="#656565"/>
<path opacity="0.038904" d="M80.0575 738.961L134.409 718.399L132.416 701.244L80.0575 738.961Z" fill="#656565"/>
<path opacity="0.2055" d="M107.004 683.192L80.0572 738.961L132.416 701.245L107.004 683.192Z" fill="#656565"/>
<path opacity="0.01" d="M30.9035 407.072L24.2509 440.942L73.1696 483.66L30.9035 407.072Z" fill="#656565"/>
<path opacity="0.1589" d="M26.3744 430.507L24.2506 440.942L73.1693 483.661L26.3744 430.507Z" fill="#656565"/>
<path opacity="0.2348" d="M-69.0502 645.026L22.5041 629.484L-47.4315 642.676L-69.0502 645.026Z" fill="#656565"/>
<path opacity="0.1261" d="M107.004 683.193L80.0575 738.962L109.044 743.452L107.004 683.193Z" fill="#656565"/>
<path opacity="0.1827" d="M107.004 683.192L109.043 743.451L132.416 701.245L107.004 683.192Z" fill="#656565"/>
<path opacity="0.12" d="M30.904 407.073L74.5605 386.2L24.2514 440.942L30.904 407.073Z" fill="#656565"/>
<path opacity="0.12" d="M30.904 407.073L74.5605 386.2L24.2514 440.942L30.904 407.073Z" fill="#656565"/>
<path opacity="0.1385" d="M26.3752 430.507L74.5605 386.2L24.2514 440.942L26.3752 430.507Z" fill="#656565"/>
<path opacity="0.2344" d="M109.044 743.451L132.416 701.244L144.39 770.543L109.044 743.451Z" fill="#656565"/>
<path opacity="0.1984" d="M-67.5672 261.148L-50.4354 216.359L10.7821 255.561L-67.5672 261.148Z" fill="#656565"/>
<path opacity="0.2079" d="M-68.8532 264.424L-66.1926 237.022L10.7812 255.561L-68.8532 264.424Z" fill="#656565"/>
<path opacity="0.036344" d="M-32.4017 58.0746L-68.9308 52.0442L35.0942 101.872L-32.4017 58.0746Z" fill="#656565"/>
<rect y="21" width="208" height="721" fill="url(#paint0_linear)"/>
</g>
<defs>
<linearGradient id="paint0_linear" x1="72.1156" y1="21" x2="-195.251" y2="623.317" gradientUnits="userSpaceOnUse">
<stop stop-color="#090909" stop-opacity="0.4"/>
<stop offset="0.96875" stop-color="#090909"/>
</linearGradient>
<clipPath id="clip0">
<rect width="208" height="738" fill="white"/>
</clipPath>
</defs>
</svg>
