<svg width="84" height="73" viewBox="0 0 84 73" fill="none" xmlns="http://www.w3.org/2000/svg">
<g clip-path="url(#clip0)" filter="url(#filter0_d)">
<path d="M58 57C63.5 57 68 52.8 68 47.7C68 42.6 63.5 38.4 58 38.4C48 38.4 54.7 20.4 68 20.4V16C44.3 16 35 57 58 57ZM29.3 57C34.8 57 39.3 52.8 39.3 47.7C39.3 42.6 34.8 38.4 29.3 38.4C19.3 38.4 26 20.4 39.3 20.4V16C15.5 16 6.19999 57 29.3 57Z" fill="#FFA707"/>
</g>
<defs>
<filter id="filter0_d" x="0" y="0" width="84" height="73" filterUnits="userSpaceOnUse" color-interpolation-filters="sRGB">
<feFlood flood-opacity="0" result="BackgroundImageFix"/>
<feColorMatrix in="SourceAlpha" type="matrix" values="0 0 0 0 0 0 0 0 0 0 0 0 0 0 0 0 0 0 127 0"/>
<feOffset/>
<feGaussianBlur stdDeviation="8"/>
<feColorMatrix type="matrix" values="0 0 0 0 1 0 0 0 0 0.643137 0 0 0 0 0.00784314 0 0 0 0.5 0"/>
<feBlend mode="normal" in2="BackgroundImageFix" result="effect1_dropShadow"/>
<feBlend mode="normal" in="SourceGraphic" in2="effect1_dropShadow" result="shape"/>
</filter>
<clipPath id="clip0">
<rect width="52" height="41" fill="white" transform="translate(16 16)"/>
</clipPath>
</defs>
</svg>
