<svg width="46" height="46" viewBox="0 0 46 46" fill="none" xmlns="http://www.w3.org/2000/svg">
<path opacity="0.3" d="M41.525 4.47494C39.2451 2.20572 36.2298 0.825187 33.0222 0.581991C29.8147 0.338794 26.6257 1.24892 24.0297 3.14844C21.4337 5.04797 19.6013 7.81203 18.8625 10.9428C18.1237 14.0736 18.5271 17.3652 20 20.2249L14 26.1499V28.9999H9.5V33.4999H5V37.9999H2L0.5 39.4999V45.4999H6.5L25.85 25.9999C28.7067 27.4265 31.9765 27.7943 35.0787 27.038C38.1809 26.2818 40.9147 24.4504 42.7943 21.8693C44.674 19.2881 45.5779 16.1242 45.3455 12.9396C45.1131 9.75502 43.7595 6.75589 41.525 4.47494V4.47494ZM37.1 13.0999C36.6786 13.5149 36.144 13.7961 35.5633 13.9081C34.9827 14.0202 34.3818 13.9581 33.8363 13.7297C33.2908 13.5013 32.825 13.1167 32.4974 12.6244C32.1698 12.132 31.995 11.5538 31.995 10.9624C31.995 10.3711 32.1698 9.79286 32.4974 9.30051C32.825 8.80816 33.2908 8.42362 33.8363 8.19522C34.3818 7.96681 34.9827 7.90473 35.5633 8.01677C36.144 8.12881 36.6786 8.40998 37.1 8.82494C37.3835 9.10409 37.6086 9.43683 37.7622 9.80379C37.9159 10.1708 37.995 10.5646 37.995 10.9624C37.995 11.3603 37.9159 11.7541 37.7622 12.1211C37.6086 12.4881 37.3835 12.8208 37.1 13.0999Z" stroke="white" stroke-miterlimit="10" stroke-linecap="round" stroke-linejoin="round"/>
</svg>
