<svg width="48" height="48" viewBox="0 0 48 48" fill="none" xmlns="http://www.w3.org/2000/svg">
<g opacity="0.3">
<path d="M18.0652 37.9635L16.5 45.7492C16.5 45.7492 20.7165 45.1042 25.8465 41.4907C30.9765 37.8765 30.102 34.9035 29.529 30.2227M17.8073 18.5002C13.1273 17.9287 10.155 17.0557 6.5415 22.182C2.92725 27.3135 2.25 31.5 2.25 31.5L10.0673 29.9655L17.8073 18.5002Z" stroke="white" stroke-linecap="round" stroke-linejoin="round"/>
<path d="M36.75 14.2493C38.4069 14.2493 39.75 12.9061 39.75 11.2493C39.75 9.59241 38.4069 8.24927 36.75 8.24927C35.0931 8.24927 33.75 9.59241 33.75 11.2493C33.75 12.9061 35.0931 14.2493 36.75 14.2493Z" stroke="white" stroke-linecap="round" stroke-linejoin="round"/>
<path d="M29.25 21.75C30.9069 21.75 32.25 20.4069 32.25 18.75C32.25 17.0931 30.9069 15.75 29.25 15.75C27.5931 15.75 26.25 17.0931 26.25 18.75C26.25 20.4069 27.5931 21.75 29.25 21.75Z" stroke="white" stroke-linecap="round" stroke-linejoin="round"/>
<path d="M46.4468 1.58474C46.4468 1.58474 35.6288 -0.141012 23.5028 11.9835C16.167 19.3185 10.0673 29.9655 10.0673 29.9655L18.0653 37.9635C18.0653 37.9635 28.7115 31.863 36.0473 24.5272C48.171 12.4027 46.4475 1.58474 46.4475 1.58474H46.4468Z" stroke="white" stroke-linecap="round" stroke-linejoin="round"/>
</g>
</svg>
