<svg width="48" height="48" viewBox="0 0 48 48" fill="none" xmlns="http://www.w3.org/2000/svg">
<g opacity="0.3">
<path d="M1.5 4.5H9L16.5 34.5H40.5L46.5 16.5H12" stroke="white" stroke-miterlimit="10" stroke-linecap="round" stroke-linejoin="round"/>
<path d="M17.25 43.5C18.9069 43.5 20.25 42.1569 20.25 40.5C20.25 38.8431 18.9069 37.5 17.25 37.5C15.5931 37.5 14.25 38.8431 14.25 40.5C14.25 42.1569 15.5931 43.5 17.25 43.5Z" stroke="white" stroke-miterlimit="10" stroke-linecap="round" stroke-linejoin="round"/>
<path d="M36.75 43.5C38.4069 43.5 39.75 42.1569 39.75 40.5C39.75 38.8431 38.4069 37.5 36.75 37.5C35.0931 37.5 33.75 38.8431 33.75 40.5C33.75 42.1569 35.0931 43.5 36.75 43.5Z" stroke="white" stroke-miterlimit="10" stroke-linecap="round" stroke-linejoin="round"/>
</g>
</svg>
