<svg width="38" height="46" viewBox="0 0 38 46" fill="none" xmlns="http://www.w3.org/2000/svg">
<path d="M32.5 9.5C27.325 14.075 28 21.5 28 21.5C28 21.5 20.35 9.875 23.5 0.5C20.425 6.8 7 8.45 13 26C5.425 23.15 5.5 14 5.5 14C5.5 14 1 18.5 1 27.5C1 32.2739 2.89642 36.8523 6.27208 40.2279C9.64773 43.6036 14.2261 45.5 19 45.5C23.7739 45.5 28.3523 43.6036 31.7279 40.2279C35.1036 36.8523 37 32.2739 37 27.5C37 18.35 30.475 18.425 32.5 9.5Z" stroke="white" stroke-miterlimit="10" stroke-linecap="round" stroke-linejoin="round"/>
</svg>
