<svg width="119" height="60" viewBox="0 0 119 60" fill="none" xmlns="http://www.w3.org/2000/svg">
<g opacity="0.3" clip-path="url(#clip0)">
<path fill-rule="evenodd" clip-rule="evenodd" d="M28.448 29.4283C28.8902 17.9453 34 9.29574 43.9249 3.57908C46.3815 2.13749 49.0838 1.193 51.8844 0.646192C55.7659 -0.149168 59.7457 -0.298298 63.6272 0.596483C64.4133 0.745613 65.5434 0.397642 65.8873 1.59068C65.8873 1.64039 65.9855 1.64039 66.0347 1.64039C68.8844 1.39184 70.9971 3.08198 73.2572 4.32473C77.3353 6.66111 80.578 9.94197 83.0347 13.9685C84.0665 15.6089 84.8526 17.3985 85.5896 19.2377C87.1127 23.1151 87.7514 27.0919 87.6041 31.2179C87.3584 36.8351 85.737 42.0049 82.6416 46.6777C79.3006 51.6984 74.8786 55.3769 69.3757 57.7133C65.1012 59.5526 60.6792 60.1988 56.0607 59.9503C51.0491 59.652 46.4798 58.1607 42.2543 55.5261C37.5376 52.5435 33.9017 48.5667 31.396 43.4962C30.5116 41.7564 29.922 39.8674 29.2832 38.0778C28.7428 36.5865 29.185 35.2444 29.5289 33.8525C29.578 33.6039 29.6763 33.4051 29.6763 33.1565C29.6763 32.9577 29.6272 32.7092 29.3815 32.6594C29.185 32.6097 29.0376 32.7092 28.9884 32.8583C28.9393 33.0571 28.7919 33.256 28.5462 33.1565C28.2514 33.0571 28.3497 32.7589 28.3497 32.56C28.448 31.4664 28.448 30.4722 28.448 29.4283ZM36.604 12.2286C36.5549 12.328 36.5058 12.4772 36.4075 12.5766C34.0983 15.5592 32.3786 18.8401 31.3468 22.5683C30.1185 27.0919 29.8728 31.6155 30.9538 36.1391C32.2312 41.6073 34.737 46.4788 38.8642 50.3065C42.8439 53.9851 47.4133 56.3711 52.7688 57.5145C57.9769 58.6081 64.4624 57.8127 69.3757 55.5758C74.5347 53.1897 78.6127 49.5609 81.5607 44.6893C84.5087 39.8177 85.7861 34.2005 85.5405 29.0306C85.4913 27.6387 85.3931 26.2966 85.1474 24.9544C84.7052 22.7174 83.9682 20.6296 83.2312 18.4921C82.789 17.1996 81.9538 16.1557 81.2659 15.0621C77.7775 9.44487 72.815 5.66691 66.6734 3.52937C62.9393 2.23691 59.0087 1.98836 55.078 2.28662C54.1936 2.33633 53.3584 2.23691 52.474 2.6843C51.7861 3.03227 50.6561 3.38024 50.1647 3.03227C49.526 2.58488 49.0838 2.78372 48.5434 2.83343C48.4451 3.1814 49.2803 3.72821 48.3468 3.92705C47.3642 4.07618 46.5289 4.6727 45.6445 5.07038C45.448 5.16981 45.1532 5.36865 45.0549 5.07038C44.711 4.02647 44.0723 4.82184 43.4827 4.62299C43.6301 4.92126 43.6792 5.12009 43.8266 5.16981C44.9075 5.6669 44.0723 5.96517 43.6792 6.01488C43.0896 6.1143 42.7948 6.56169 42.3526 6.85995C40.0433 8.35125 38.5202 10.8367 35.867 11.9304C36.0636 12.2286 36.4075 11.9304 36.604 12.2286Z" fill="white"/>
<path fill-rule="evenodd" clip-rule="evenodd" d="M80.0376 44.4405C79.2023 45.385 78.5636 46.3792 77.7283 47.274C76.8439 48.2682 76.0087 49.3121 74.9769 50.2069C72.078 52.7421 68.7861 54.5317 65.052 55.5259C61.9075 56.3709 58.763 56.7189 55.4711 56.3212C54.8815 56.2218 54.5867 55.9733 54.2428 55.4762C53.8497 56.1224 53.2601 56.1224 52.6214 55.9733C51.8353 55.7247 51.0491 55.5756 50.263 55.327C49.7717 55.1779 49.2312 55.0785 48.8873 54.5317C48.6416 54.0843 48.1994 54.7305 47.7081 54.4322C46.0376 53.3883 44.2688 52.593 42.6474 51.3502C41.2717 50.2566 39.896 49.2127 38.6676 47.9699C38.3237 47.622 37.4884 47.1249 38.0289 46.6278C38.6185 46.0312 38.9624 46.9757 39.3064 47.3237C43.2861 51.4993 48.0029 54.1837 53.7023 55.1779C57.2399 55.7744 60.6792 55.675 64.1185 54.7802C68.3931 53.6866 72.1272 51.5491 75.4191 48.5167C76.0087 47.9699 76.7948 47.5225 77.237 46.926C77.6792 46.3792 77.9248 45.5341 78.4162 44.8879C78.8584 44.4405 79.2514 44.192 80.0376 44.4405Z" fill="white"/>
<path fill-rule="evenodd" clip-rule="evenodd" d="M84.1156 28.8317C83.2312 28.9311 83.1329 28.3346 83.0838 27.6883C83.0346 25.5508 82.445 23.463 81.8554 21.4249C81.5115 20.1821 80.4797 19.2376 80.578 17.8458C78.7109 15.8574 77.4335 13.4216 75.419 11.5326C72.3237 8.59969 68.7369 6.61129 64.6589 5.41825C62.3497 4.77202 59.9913 4.52347 57.5838 4.57318C57.289 4.57318 56.7976 4.87144 56.6502 4.27492C56.6011 4.12579 56.5028 4.12579 56.3554 4.22521C55.3237 5.07028 54.2427 4.6726 53.1127 4.42405C53.0635 4.42405 53.0635 4.32463 53.0144 4.27492C53.9971 3.77782 54.1936 3.77782 54.9797 4.52347C54.7832 3.82753 55.078 3.72811 55.5693 3.62869C57.8786 3.28072 60.0895 3.57898 62.3497 3.97666C65.8381 4.52347 69.0317 5.86564 72.0289 7.75462C75.0751 9.69332 77.63 12.1788 79.5953 15.2111C80.9219 17.2989 82.052 19.4365 82.7398 21.8723C83.2803 23.7613 83.7225 25.6005 83.9682 27.5392C84.1647 27.9866 83.8699 28.3843 84.1156 28.8317Z" fill="white"/>
<path fill-rule="evenodd" clip-rule="evenodd" d="M84.0665 28.8315C84.3122 30.2234 84.3121 31.5656 83.87 32.9575C83.6734 33.554 83.8699 34.2996 83.7226 34.9956C83.2312 37.4314 82.6416 39.7677 81.315 41.9053C80.2832 43.5954 80.2832 43.5954 79.4971 43.8937C79.3006 43.5954 79.4971 43.2474 79.6445 43.148C81.0202 42.2532 80.8237 40.6128 81.4624 39.3701C82.1994 37.9782 82.4451 36.3875 82.789 34.8465C83.133 33.3054 83.1821 31.7644 83.2312 30.2234C83.2312 29.4778 83.6734 29.1795 84.0665 28.8315C84.0665 28.8315 84.1156 28.8315 84.0665 28.8315Z" fill="white"/>
<path fill-rule="evenodd" clip-rule="evenodd" d="M37.4884 46.5284C35.7196 44.2418 34.3439 41.806 33.4104 39.1216C32.7717 37.3321 32.1821 35.5425 32.1329 33.6535C32.1329 33.1564 32.1821 32.6593 32.2803 32.1622C32.3295 31.9634 32.1821 31.7148 32.526 31.7148C32.8208 31.7148 32.8208 31.9137 32.8699 32.1125C33.0665 33.2061 33.263 34.2501 33.4104 35.3437C33.6561 37.1332 34.4422 38.8234 34.9335 40.5135C35.1792 41.3586 35.7688 42.0545 36.211 42.8499C36.7023 43.695 36.9971 44.5897 37.7832 45.236C38.2254 45.6834 37.8324 46.081 37.4884 46.5284Z" fill="white"/>
<path fill-rule="evenodd" clip-rule="evenodd" d="M34.5896 18.2932C34.9335 17.0008 35.7197 16.0066 36.4566 14.9129C38.3237 12.2286 40.4856 9.89222 43.237 8.10266C43.2861 8.05295 43.3844 8.10266 43.4335 8.10266C43.7283 8.89802 43.3353 9.24599 42.6965 9.69338C40.0925 11.6321 37.9798 14.0679 36.3584 16.9013C35.9653 17.5973 35.6705 18.4423 34.5896 18.2932Z" fill="white"/>
<path fill-rule="evenodd" clip-rule="evenodd" d="M34.5896 18.2434C34.5896 18.2931 34.5404 18.4422 34.5896 18.4422C35.474 19.1879 34.8352 19.9335 34.5404 20.6295C33.5578 22.8664 33.263 25.3022 32.7717 27.6883C32.6243 28.3345 32.9682 29.0305 32.6734 29.7264C32.1821 29.5773 31.789 29.3785 31.8381 28.7819C32.1329 25.1034 32.7717 21.5243 34.5896 18.2434ZM32.2803 27.5889C32.2312 27.6386 32.2312 27.6883 32.1821 27.738C32.2312 27.7877 32.2803 27.8374 32.3295 27.7877C32.3786 27.7877 32.3786 27.6883 32.4277 27.6386C32.3786 27.6386 32.3295 27.6386 32.2803 27.5889Z" fill="white"/>
<path d="M64.8063 48.2186C60.974 43.6453 57.1907 39.072 53.3584 34.4987C50.7543 31.3669 48.1503 28.2352 45.5462 25.1035C44.1214 23.4133 42.6965 21.7232 41.2717 20.0331C40.8295 19.4862 40.4364 19.2377 40.2399 20.2319C40.2399 20.3313 40.0433 20.4307 39.9942 20.5302C38.078 23.3139 37.1445 26.4456 36.8006 29.8259C36.5549 32.0132 36.8988 34.1507 37.3902 36.2385C37.8324 38.1772 38.6185 40.0165 39.6994 41.6569C39.8468 41.8558 39.8468 42.3031 40.3381 42.1043C40.8786 41.8558 40.3381 41.6072 40.3381 41.3587C40.3381 41.2095 40.2399 41.0107 40.1416 40.9113C38.3237 37.9287 37.5376 34.6478 37.5376 31.019C37.4884 27.6387 38.3728 24.3578 40.1907 21.3752C40.6329 20.6296 40.8786 20.6793 41.4191 21.3255C43.2861 23.6122 45.1532 25.8988 47.0694 28.1358C51.4913 33.4548 55.9133 38.724 60.3353 44.043C61.4162 45.3355 62.4971 46.6776 63.578 47.9701C63.9711 48.4175 64.0202 48.7157 63.4306 48.9146C63.1358 49.014 62.8902 49.2625 62.6445 49.3123C61.0231 49.6602 59.4509 50.2567 57.7803 50.3065C57.5347 50.3065 57.0433 50.2567 57.0925 50.7041C57.1416 51.1018 57.5838 50.9527 57.8786 50.9527C60.2861 50.9527 62.4971 50.0579 64.659 49.1631C65.1503 49.014 65.1503 48.666 64.8063 48.2186Z" fill="white"/>
<path d="M56.2572 50.3562C54.341 50.0083 52.3757 50.1574 50.5086 49.3123C48.9364 48.6164 47.315 48.1193 45.8901 47.1251C44.9075 46.4291 44.1213 45.4349 42.9913 44.9875C42.7948 45.3355 42.8439 45.5841 43.1878 45.8823C45.0549 47.6222 47.1676 48.9644 49.526 49.8591C51.6878 50.6545 53.9479 51.1516 56.2572 51.1019C56.5029 51.1019 56.8468 51.1516 56.8959 50.7539C56.8468 50.3562 56.5029 50.406 56.2572 50.3562Z" fill="white"/>
<path d="M40.8295 42.6014C40.7312 42.7008 40.5347 42.8002 40.5838 42.999C40.6821 43.5956 42.2543 44.9377 42.8931 44.9377C42.5491 44.043 41.6647 43.4961 41.2225 42.7008C41.1243 42.5517 41.026 42.4522 40.8295 42.6014Z" fill="white"/>
<path d="M42.8931 44.9875C42.8931 44.9875 42.9422 44.9378 42.8931 44.9875C42.8931 44.9378 42.8931 44.9378 42.8931 44.9875Z" fill="white"/>
<path fill-rule="evenodd" clip-rule="evenodd" d="M47.0203 6.26343C47.0203 6.31314 47.0694 6.31314 47.0694 6.36285C47.0203 6.36285 47.0203 6.36285 46.9711 6.36285C46.9711 6.36285 46.922 6.31314 46.922 6.26343C46.9711 6.26343 47.0203 6.26343 47.0203 6.26343Z" fill="white"/>
<path fill-rule="evenodd" clip-rule="evenodd" d="M70.8989 46.8765L70.948 46.9262L70.8989 46.9759L70.8497 46.9262C70.8497 46.9262 70.8989 46.8765 70.8989 46.8765Z" fill="white"/>
<path fill-rule="evenodd" clip-rule="evenodd" d="M32.2803 27.5891C32.3294 27.6388 32.3785 27.6388 32.4277 27.6885C32.3785 27.7382 32.3785 27.8377 32.3294 27.8377C32.2803 27.8377 32.2311 27.788 32.182 27.788C32.2311 27.6885 32.2311 27.6388 32.2803 27.5891Z" fill="white"/>
<path d="M47.9538 21.5742L47.0694 20.5302L47.7573 19.9337L49.1821 21.6736L47.4625 23.1649C47.1185 23.1152 46.7746 23.0157 46.4307 22.8169C46.0867 22.6181 45.7919 22.3695 45.5463 22.0713C44.9567 21.3753 44.711 20.6794 44.7601 19.9337C44.8093 19.1881 45.2023 18.5418 45.8411 17.995C46.4798 17.4482 47.1185 17.1997 47.8555 17.2494C48.5925 17.2991 49.2312 17.5973 49.7717 18.2436C50.2139 18.7904 50.4596 19.3372 50.5087 19.9834L49.6734 20.1823C49.6734 19.9834 49.6243 19.7846 49.5752 19.536C49.4769 19.2875 49.3786 19.0886 49.2312 18.9395C48.8873 18.4921 48.4451 18.2933 47.9538 18.2436C47.4625 18.1939 47.0203 18.3927 46.5289 18.7904C46.0867 19.1881 45.8411 19.5857 45.7919 20.0829C45.7428 20.58 45.8902 21.0273 46.2833 21.4747C46.4307 21.6239 46.5781 21.773 46.7746 21.9221C46.9711 22.0713 47.1677 22.121 47.3151 22.121L47.9538 21.5742Z" fill="white"/>
<path d="M50.2139 27.5393L48.1012 25.0041L52.2775 21.3752L54.3411 23.811L53.6532 24.4076L52.2284 22.7174L51.1966 23.6122L52.474 25.1532L51.7862 25.7497L50.5087 24.2087L49.4278 25.1532L50.9018 26.9428L50.2139 27.5393Z" fill="white"/>
<path d="M52.081 29.677L51.4423 28.9313L55.6186 25.3025L56.2573 26.0481L54.292 27.7383L57.6822 27.6886L58.4191 28.5833L54.9798 28.5336L54.292 32.3116L53.5058 31.3671L54.1937 27.788L52.081 29.677Z" fill="white"/>
<path d="M59.4509 31.2676L58.2717 29.8757L58.9596 29.3289L61.9075 32.8086L61.2197 33.4051L60.0405 32.0132L56.5521 35.0455L55.9133 34.2999L59.4509 31.2676Z" fill="white"/>
<path d="M60.2862 35.1948C60.8758 34.6479 61.5636 34.4491 62.3497 34.4988C63.1359 34.5485 63.7746 34.8965 64.3151 35.5427C64.8555 36.189 65.1012 36.8849 65.052 37.6305C65.0029 38.3762 64.659 39.0721 64.0203 39.6189C63.3815 40.1658 62.6937 40.4143 61.9567 40.3149C61.2197 40.2652 60.5318 39.9172 60.0405 39.271C59.5 38.6247 59.2544 37.9288 59.3035 37.1832C59.3035 36.3878 59.6474 35.7416 60.2862 35.1948ZM60.974 35.9901C60.5318 36.3381 60.3353 36.7855 60.237 37.2826C60.1879 37.7797 60.3353 38.2271 60.6792 38.6745C61.0232 39.1219 61.4654 39.3207 61.9567 39.3704C62.448 39.3704 62.8902 39.2213 63.3324 38.8733C63.7746 38.5253 64.0203 38.0779 64.0694 37.5311C64.1185 37.034 63.9711 36.5866 63.6272 36.1392C63.2833 35.7416 62.8411 35.493 62.3497 35.493C61.8584 35.4433 61.4162 35.6421 60.974 35.9901Z" fill="white"/>
<path d="M65.1995 42.1541L63.6273 43.4963L62.9885 42.7507L67.1648 39.1218C67.3614 39.3207 67.5579 39.5692 67.7544 39.8178C67.9509 40.0663 68.1475 40.2652 68.2457 40.4143C69.1301 41.4582 69.1301 42.3033 68.2457 43.0489C67.9018 43.3472 67.607 43.4466 67.2631 43.4963C66.9192 43.4963 66.6244 43.4466 66.3787 43.2975L65.7891 46.0812L65.0521 45.1865L65.6417 42.6512L65.1995 42.1541ZM67.607 40.9611C67.607 40.9611 67.5579 40.9114 67.5088 40.8617C67.4596 40.812 67.4105 40.7623 67.3614 40.6628C67.3122 40.5634 67.214 40.5137 67.1648 40.464L65.9365 41.5576L66.3296 42.0547C66.5261 42.3033 66.7718 42.4524 67.0174 42.5021C67.2631 42.5518 67.4596 42.5021 67.7053 42.3033C68.0492 41.9056 68.0492 41.5079 67.607 40.9611Z" fill="white"/>
<path d="M62.1531 18.1441L61.76 17.5476C61.6126 17.2991 61.1705 17.3985 61.1705 17.6967V18.3927C61.1705 18.9395 61.2687 19.536 61.4161 20.0828L61.7109 21.1267L60.9739 21.9718L60.8265 21.4747L60.3352 21.6238L60.4826 22.1209C60.4826 22.1209 60.5809 22.2204 60.6791 22.3198L59.7456 23.4134L59.5982 22.966L59.1069 23.1151L59.2543 23.6122C59.2543 23.6122 59.3525 23.7117 59.4017 23.8111L58.7629 24.5567L58.6647 25.6006L62.2514 23.2643L63.4306 27.2411C63.5288 27.589 63.7254 27.8873 63.971 28.0861L62.5953 29.3786L62.7918 30.0745L64.6589 28.9809L66.7716 28.8815L66.5751 28.1856L64.7572 27.8376C64.9046 27.4896 64.9046 27.0919 64.8063 26.6943L63.6762 22.7672H67.9508L67.3121 21.9718L66.3786 21.7233C66.4277 21.6238 66.4277 21.4747 66.4277 21.4747L66.2803 20.9776L65.7889 21.1267L65.9364 21.5741L64.5606 21.1764C64.6098 21.077 64.6098 20.9279 64.6098 20.9279L64.4624 20.4308L63.971 20.5799L64.1184 21.077L63.0866 20.7788L62.7918 19.7846C62.7427 19.188 62.497 18.6412 62.1531 18.1441Z" fill="white"/>
<path d="M57.2399 6.31323H57.289C57.4364 6.31323 57.633 6.46236 57.8295 6.76062L57.8786 6.90975H57.8295C57.7312 6.81033 57.633 6.71091 57.4856 6.76062C57.3873 6.76062 57.3382 6.81033 57.289 6.90975L57.3873 7.40685C57.3382 7.40685 57.3382 7.45656 57.3382 7.45656H57.289V7.55598H57.3382V7.45656H57.3873C57.5838 8.59989 57.7312 9.1467 57.8786 9.1467L57.9278 9.29584C57.9769 9.29584 58.0752 9.34555 58.2226 9.49468V9.54439C58.1243 9.69352 58.026 9.84265 57.9769 9.99178L58.5174 12.4276C58.5665 12.527 58.6648 12.6264 58.7139 12.5767H58.763C58.8613 12.5767 58.9596 12.527 59.0087 12.3779C58.763 12.7755 58.5174 12.9744 58.2717 12.9744L57.9769 12.8252H57.9278C57.7312 12.9744 57.633 13.0241 57.5347 13.0241H57.4364C57.2399 13.0241 57.0434 12.875 56.7977 12.5767C56.9451 12.6264 57.0925 12.6761 57.1908 12.6761C57.289 12.6761 57.3382 12.5767 57.3382 12.4773L57.2399 12.1293L57.3873 12.0299L57.289 12.0796H57.2399V11.7813C57.1416 11.7813 57.0925 11.5328 57.0434 11.0854H56.7977H56.552L56.5029 11.1351L56.159 11.0854C56.159 11.1351 56.1099 11.1351 55.9625 11.1848C55.9133 11.6819 55.8151 12.0796 55.7659 12.3281V12.6761C55.8151 12.7755 55.8642 12.8252 55.9625 12.8252C56.0116 12.8252 56.1099 12.7755 56.2081 12.7258V12.7755C56.159 12.9247 56.0116 13.0738 55.7659 13.2229H55.6677C55.5203 13.2229 55.422 13.1732 55.2746 13.0241C55.1272 13.1732 55.0289 13.2229 54.9307 13.2229H54.8324C54.4393 13.1732 54.2919 13.0241 54.2428 12.8252C54.3411 12.875 54.4393 12.9247 54.5376 12.9247C54.685 12.9247 54.8324 12.7755 54.8815 12.4773V12.4276L55.0781 11.831H55.0289V11.7813L55.0781 11.3837L55.2255 10.638V10.5883C55.2255 10.5386 55.2746 10.4392 55.2746 10.2403C55.2255 10.1409 55.1272 9.99178 54.9798 9.84264C54.9798 9.79293 55.1272 9.64381 55.3237 9.49468L55.4711 9.24612C55.4711 9.09699 55.5203 8.99757 55.6677 8.94786H55.6185C55.6185 9.04728 55.5694 9.04729 55.5694 9.04729V8.99757C55.7168 8.25192 55.8151 7.80453 55.8151 7.60569L55.8642 7.40685C55.8642 7.20801 55.7659 7.10859 55.6185 7.10859L55.422 7.20801C55.5694 6.90975 55.7659 6.71091 55.9133 6.71091C55.9133 6.6612 55.9625 6.6612 56.0116 6.6612V6.71091V6.6612H56.0607V6.71091H56.1098V6.6612C56.3064 6.6612 56.5029 6.76062 56.6994 6.90975C56.896 6.46236 57.0925 6.31323 57.2399 6.31323ZM55.3237 11.5328H55.3729H55.3237ZM55.4711 11.5328H55.5694V11.4831H55.5203L55.4711 11.5328ZM55.6185 11.4831H55.6677H55.6185ZM55.9133 8.6496V8.69931L56.0116 8.6496H55.9133ZM56.0116 6.86004L56.1098 6.76062C56.0607 6.81033 56.0116 6.86004 56.0116 6.86004ZM56.1098 8.55018L56.5029 8.35134H56.4538L56.1098 8.55018ZM56.2081 6.61149H56.3064H56.2572H56.2081ZM56.6012 8.30163C56.6012 8.59989 56.552 8.69931 56.4538 8.74902L56.4046 9.09699L56.4538 9.1467C56.4046 9.34554 56.3064 9.69352 56.2081 10.1409V10.1906C56.2572 10.1906 56.3064 10.1906 56.3064 10.2403L56.4046 10.1906H56.8468C56.8468 10.1409 56.896 10.1409 56.9942 10.1409L56.7977 9.1467V9.09699C56.6994 8.79873 56.6012 8.50047 56.6012 8.30163ZM56.6012 8.20221L56.552 8.30163H56.6012V8.20221ZM56.6503 8.25192C56.7486 8.20221 56.7977 8.20221 56.7977 8.1525C56.6994 8.1525 56.6503 8.20221 56.6503 8.25192ZM56.8468 8.25192L56.9451 8.30163L57.0925 8.25192V8.30163H57.1416C57.1416 8.25192 57.0925 8.25192 57.0434 8.25192H56.8468ZM56.9451 8.05308L57.0434 8.00337V7.95366L56.9451 8.05308ZM57.0925 7.85424C57.1416 7.85424 57.2399 7.80453 57.3382 7.6554C57.2399 7.70511 57.1908 7.75482 57.0925 7.85424ZM57.1416 8.30163L57.2399 8.35134V8.30163H57.1416ZM57.3382 8.40105L57.3873 8.45076V8.40105H57.3382ZM57.4364 8.50047L57.5347 8.55018C57.5347 8.50047 57.5347 8.50047 57.4364 8.50047ZM57.5838 11.9802L57.5347 12.0299H57.5838V11.9802ZM57.7312 12.179L57.7804 12.2287V12.179H57.7312ZM57.7804 12.2784L57.8786 12.3281V12.2784H57.7804ZM57.8786 11.8808L58.0752 11.831V11.7813C57.9278 11.831 57.8786 11.831 57.8786 11.8808ZM57.9278 11.7316H57.9769V11.6819L57.9278 11.7316ZM57.9278 12.3281L58.026 12.4276H58.0752V12.3779L57.9278 12.3281ZM58.37 12.5767C58.4191 12.6761 58.4682 12.7258 58.5665 12.7258L58.37 12.5767Z" fill="white"/>
<path d="M61.5636 6.66128C61.6618 6.66128 61.7601 6.7607 61.8584 6.90983C61.9566 6.81041 62.0549 6.7607 62.1532 6.7607C62.6445 6.86012 62.9393 7.10867 62.9884 7.50635L62.6936 7.35722C62.4971 7.35722 62.3497 7.35722 62.3497 7.45664L62.2514 8.05316L62.2023 8.20229L62.1532 8.40113V8.59997L62.104 8.7491V8.94794L62.0058 9.49475L62.3006 10.0416V10.0913C62.1532 10.2404 62.0549 10.2901 62.0058 10.2901V10.3398C61.9075 10.3895 61.8092 10.489 61.8092 10.6381L61.7601 11.0855L61.711 11.4832H61.6618L61.6127 11.682V11.8311H61.5636V12.1294L61.4653 12.6265V12.6762L61.4162 12.7756C61.5144 12.9745 61.6127 13.1236 61.6618 13.1236C61.7601 13.1236 61.8584 13.1236 61.9566 13.0739C61.9075 13.223 61.711 13.3721 61.367 13.3721V13.3224C61.2196 13.4218 61.1214 13.4218 61.0231 13.4218C60.8757 13.3721 60.7283 13.3224 60.6792 13.1733C60.6792 13.223 60.5318 13.2727 60.2861 13.223C59.9422 13.0739 59.6965 12.9247 59.5983 12.7259L59.5 12.5768H59.5491L59.7948 12.7756C60.0405 12.7259 60.1879 12.6762 60.237 12.4774V12.4276L60.2861 12.2785L60.3353 12.2288V12.03H60.3844L60.4335 11.7317V11.682C60.5318 11.2346 60.5809 10.8866 60.6792 10.7375V10.5884L60.7283 10.4392V10.1907V10.141L60.4827 9.64388C60.7775 9.39533 60.9249 9.19649 60.974 9.09707L61.0723 8.69939V8.50055V8.45084L61.2688 7.85432C61.2196 7.85432 61.2196 7.70519 61.2688 7.40693L61.3179 7.35722C61.367 7.20809 61.2688 7.10867 61.0231 7.00925C60.9248 7.00925 60.8266 7.00925 60.7283 7.05896V7.00925C60.9249 6.81041 61.2196 6.66128 61.5636 6.61157V6.66128ZM60.7283 10.2404L60.8757 10.1907L60.7283 10.2404ZM60.8757 10.141L61.0231 10.0913C60.974 10.0416 60.974 10.0913 60.8757 10.141ZM60.9249 12.1791L61.0231 12.2288C61.0231 12.1791 60.974 12.1791 60.9249 12.1791ZM60.974 12.03L61.0231 12.0797L60.974 12.03ZM60.974 10.3398L61.0723 10.3895V10.3398H60.974ZM61.1214 9.89243L61.0723 9.94214H61.1214V9.89243ZM61.1214 12.1294L61.2196 12.1791L61.1214 12.1294ZM61.1214 12.3282L61.2196 12.4276L61.1214 12.3282ZM61.2688 9.7433L61.2196 9.84272V9.89243L61.2688 9.7433ZM61.2688 12.2288L61.367 12.2785V12.3282H61.4162V12.2785L61.2688 12.2288ZM61.2688 7.2578C61.2688 7.30751 61.2688 7.30751 61.3179 7.30751L61.2688 7.2578ZM61.5144 9.49475L61.4653 9.54446H61.5144V9.49475ZM61.5636 9.39533L61.5144 9.44504H61.5636V9.39533ZM61.5144 10.0913L61.6127 10.0416L61.5144 10.0913ZM61.6618 9.29591L61.711 9.2462L61.6618 9.29591ZM61.711 7.2578L61.8584 7.30751V7.2578H61.7601H61.711ZM61.8092 9.14678L61.7601 9.19649L61.8092 9.14678ZM61.8584 8.99765L61.9075 9.04736V8.99765H61.8584ZM61.9075 7.2578L61.9566 7.30751V7.2578H61.9075ZM62.0549 7.2578L62.1532 7.30751L62.0549 7.2578Z" fill="white"/>
<path d="M67.214 8.40115C67.5088 8.55028 67.7544 8.79883 67.9018 9.1468C68.0492 9.59419 68.0492 9.94216 67.9018 10.2404C67.8527 10.3895 67.8035 10.4393 67.7544 10.4393V10.5387C67.607 10.8369 67.3614 11.1352 67.0174 11.334C66.9683 11.334 66.87 11.3837 66.6244 11.5329V11.5826C66.87 11.8808 67.0174 12.0797 67.0174 12.2288V12.3282L66.9683 12.3779C67.0174 12.3779 67.0174 12.4774 66.9192 12.6265L66.87 12.7259L66.8209 12.8253V12.875V12.9248L66.7226 13.1733L66.6244 13.223V13.2727L66.477 13.5213C66.477 13.6704 66.3787 13.9687 66.2313 14.3166C66.2804 14.4658 66.3296 14.5155 66.3787 14.5652C66.4278 14.5652 66.477 14.5652 66.5752 14.5652C66.5261 14.6149 66.5261 14.6646 66.477 14.6646L66.4278 14.6149L66.3296 14.5652L66.5261 14.7143C66.3787 14.8634 66.0348 14.9629 65.5926 14.9132H65.4943L65.4452 14.8634C65.2978 14.8137 65.1995 14.6646 65.1504 14.4161C65.1012 14.3663 65.0521 14.2669 65.003 14.0184H65.0521L65.1012 13.8692L65.1504 13.919C65.1012 13.919 65.1012 13.8692 65.1504 13.8195L65.1012 13.7201L65.1504 13.6704V13.571L65.2978 13.3224V13.2727L65.3469 13.1236H65.396L65.4452 12.9745L65.4943 12.9248L65.5434 12.7756L65.5926 12.7259L65.6417 12.6762V12.5768L65.74 12.4277L65.7891 12.2785H65.8382C65.7891 12.2785 65.8382 12.1791 65.8874 11.9803C65.9365 11.8808 65.7891 11.7317 65.4452 11.5826L65.1995 11.4832L64.9047 12.1791L64.7082 12.5768V12.6762H64.659V12.7756L64.6099 12.9248H64.5608V13.0739H64.5116V13.1236H64.4625L64.4134 13.3721H64.3642V13.4716L64.3151 13.5213C64.3151 13.7698 64.4134 13.919 64.5116 13.9687C64.5608 14.0184 64.659 13.9687 64.8064 13.919C64.7082 14.0184 64.6099 14.0681 64.5116 14.1178C64.3151 14.2669 64.1677 14.3166 63.9712 14.2669C63.8238 14.1675 63.6764 14.0184 63.5781 13.7698C63.3816 13.8692 63.2342 13.8692 63.1359 13.8692H63.0868C62.8903 13.7698 62.6937 13.5213 62.5955 13.0242L62.8411 13.223L62.9885 13.2727L63.0377 13.3224V13.2727C63.0868 13.2727 63.1359 13.223 63.2833 13.0739C63.2342 13.0739 63.2342 13.0242 63.2833 12.9745H63.3324V12.875V12.8253L63.4307 12.6762L63.4798 12.5271L63.529 12.4774L63.5781 12.3282L63.6272 12.2288H63.6764V12.1791L63.9221 11.5329L63.9712 11.4832L64.1186 10.9861L64.1677 10.9364L64.0203 10.489V10.4393C64.3642 10.2901 64.5116 10.141 64.5608 10.0913L64.659 9.94216V9.89245V9.84274L64.7082 9.79303V9.6439H64.7573V9.49477L64.8064 9.39535L64.8556 9.19651L64.9538 8.99767L65.003 8.89825L65.0521 8.74912L65.2978 8.25202C65.2486 8.10289 65.1995 8.05318 65.1012 8.00347H64.7082C64.9538 7.85434 65.1995 7.75491 65.4452 7.80462C65.4943 7.75491 65.5926 7.75491 65.74 7.85434C65.8382 7.90405 65.8874 8.05318 65.9856 8.20231C66.3787 8.1526 66.6244 8.10289 66.7718 8.20231V8.25202L67.214 8.40115ZM64.4625 10.7872C64.4625 10.8369 64.3642 10.8369 64.1677 10.7872L64.2168 10.8369C64.3642 10.8369 64.4625 10.8369 64.5116 10.8866V10.8369H64.4625V10.7872ZM64.266 10.7375L64.3642 10.7872L64.266 10.7375ZM64.659 9.99187L64.7082 10.0913L64.659 9.99187ZM64.8556 10.8866L64.9538 10.9364L64.8556 10.8866ZM65.2978 11.2843L65.3469 11.334L65.2978 11.2843ZM65.396 10.9364L65.4452 10.9861H65.5926L65.5434 10.9364H65.396ZM65.4452 14.0681L65.6417 14.2669L65.6908 14.3166C65.6908 14.2669 65.6417 14.2172 65.4452 14.0681ZM66.5261 8.84854C66.5261 8.89825 66.477 8.89825 66.477 8.89825V8.84854H66.3787L66.3296 8.79883L66.2313 8.99767L66.1822 9.04738V9.09709L66.0839 9.24622L65.9856 9.54448L65.8874 9.6439L65.8382 9.84274L65.7891 9.99187L65.74 10.0416V10.1907L65.6417 10.3398V10.4393L65.5926 10.489C65.5434 10.5884 65.5434 10.6878 65.6417 10.7375L65.9365 10.8866C66.2313 10.9364 66.4278 10.8369 66.5261 10.6381C66.5752 10.5387 66.6244 10.489 66.6735 10.5387C66.6244 10.5387 66.6244 10.489 66.6244 10.4393L66.8209 10.0416H66.87C67.0174 9.54448 67.0666 9.29593 66.9683 9.24622C66.9683 9.19651 66.9192 9.09709 66.7226 8.99767H66.6735L66.5261 8.84854ZM65.7891 14.3166L65.9365 14.4161L65.7891 14.3166ZM65.7891 10.9861L65.8874 11.0358V10.9861H65.7891ZM65.7891 11.0855L65.8874 11.1352L65.7891 11.0855ZM66.0348 10.9861L66.133 11.0358H66.0839L66.0348 10.9861ZM66.0839 8.25202L66.1822 8.30173L66.0839 8.25202ZM66.0839 14.4658C66.0839 14.5155 66.0839 14.5155 66.133 14.5155L66.0839 14.4658ZM66.1822 11.334L66.2804 11.4335H66.3296L66.1822 11.334ZM66.3296 10.9861L66.3787 11.0358L66.3296 10.9861ZM66.3787 11.4832C66.3787 11.5329 66.3787 11.5329 66.4278 11.5329L66.3787 11.4832ZM66.477 8.40115L66.5752 8.50057L66.477 8.40115ZM66.5752 11.682L66.6244 11.7814H66.6735L66.5752 11.682ZM66.6244 8.50057L66.7226 8.59999L66.7718 8.6497V8.59999H66.6735L66.6244 8.50057ZM66.6244 10.9861L66.6735 11.0358H66.7226L66.6244 10.9861ZM66.8209 11.9306L66.87 11.9803L66.8209 11.9306ZM66.9192 8.69941L66.9683 8.79883V8.74912L66.9192 8.69941ZM67.0174 10.9364H67.1648H67.0174ZM67.1157 8.84854L67.2631 8.94796H67.3122L67.214 8.89825L67.1157 8.84854ZM67.3614 8.99767L67.4596 9.04738L67.3614 8.99767ZM67.4596 9.09709L67.5579 9.19651L67.6561 9.24622L67.4596 9.09709ZM67.7053 9.24622L67.8035 9.34564H67.8527L67.7053 9.24622Z" fill="white"/>
<path d="M77.2862 16.9016L77.3353 16.9513C77.4336 17.0508 77.4336 17.349 77.3353 17.8461L77.2862 17.8958L77.237 17.8461C77.1879 17.7467 77.1388 17.697 77.1879 17.697L77.0896 17.5976L77.0405 17.5479C76.9422 17.5976 76.8931 17.5976 76.844 17.5976L76.7457 17.697L76.6474 17.7467C76.6966 17.7964 76.5983 17.8461 76.4509 17.9952H76.4018C76.4509 18.045 76.3035 18.1941 76.0578 18.4923C76.0578 18.5421 76.0578 18.5918 76.0087 18.6415H75.9596L75.8613 18.7906H75.8122C75.8122 18.8403 75.8122 18.89 75.7139 18.9397L75.6648 18.9894V19.0392L75.6156 19.0889C75.6156 19.1386 75.5665 19.238 75.37 19.4368C75.37 19.6854 75.3208 19.8842 75.3208 20.0831H74.8786L74.8295 20.1328L74.7313 20.2322L74.6821 20.1825L74.1908 20.8287H74.1416C74.1908 20.8784 73.9943 21.0773 73.6503 21.4749C73.4538 21.7235 73.4047 21.9223 73.5029 22.0218L73.5521 22.0715C73.6012 22.1212 73.6503 22.1709 73.7486 22.1709V22.2206C73.3555 22.2703 73.1099 22.2206 72.9625 22.0218C72.9625 22.0218 72.9133 22.0218 72.8151 21.9223C72.7659 21.8726 72.7659 21.7235 72.7168 21.4749C72.6185 21.4749 72.4711 21.4252 72.3237 21.3755L72.2746 21.3258C72.1763 21.1767 72.1763 20.9778 72.1763 20.7293L72.2746 20.3316H72.3237L72.422 20.6299L72.4711 20.6796C72.5203 20.7293 72.6185 20.779 72.6677 20.7293V20.6796L72.7659 20.6299L72.9625 20.3813L73.1099 20.2819C73.1099 20.2322 73.3555 19.9339 73.8469 19.4368V19.4865L73.9451 19.3374L74.1416 19.1883C74.1416 19.1386 74.1908 19.0889 74.2891 18.9397H74.3382C74.2891 18.89 74.2891 18.89 74.3382 18.8403H74.3873C74.4364 18.7409 74.633 18.4923 74.9278 18.1444C74.7312 18.1941 74.5347 18.2935 74.4365 18.3432C74.0925 18.5421 73.9451 18.6415 73.896 18.5421L73.8469 18.6415C73.4047 18.89 73.2081 18.9894 73.159 18.9397L73.1099 18.9894C73.0116 19.0392 72.8642 19.1386 72.6185 19.1883V19.238H72.5694L72.5203 19.2877L72.422 19.3871C72.0289 19.6357 71.7833 19.6854 71.7833 19.6357L71.685 19.5363L71.1445 18.8403V18.7409L71.4393 18.5421L71.5376 18.4426L71.6359 18.3929H71.5867L71.5376 18.3432H71.5867V18.2935L71.7833 18.1444L72.0289 17.8958H71.9798C72.3237 17.5479 72.8151 17.001 73.4538 16.2554C73.0607 16.5039 72.8151 16.6034 72.7659 16.5039L72.6677 16.6034L72.5694 16.6531L72.6185 16.7028L72.5694 16.7525C72.5203 16.7525 72.5203 16.7525 72.4711 16.7028L72.422 16.7525L72.4711 16.8022C71.685 17.2496 71.2428 17.4484 71.0954 17.4484L70.9971 17.5479C70.948 17.5976 70.8989 17.5976 70.8989 17.5976V17.6473L70.3584 17.8958L70.3093 17.9455V17.9952H70.3584L70.4076 18.045C70.4076 18.045 70.4567 18.045 70.555 18.0947L70.5058 18.1444C70.3584 18.2438 70.1619 18.2438 69.818 18.1444L69.7197 18.045C69.6706 17.9455 69.6706 17.8461 69.7197 17.697C69.5232 17.6473 69.3758 17.5976 69.3758 17.5479C69.2284 17.3987 69.2775 17.1005 69.5232 16.7028C69.5232 16.8519 69.5723 16.9513 69.5723 17.001L69.6214 17.0508C69.7688 17.1502 69.9162 17.1005 70.1128 16.9513C70.2602 16.9513 70.5058 16.8519 70.8006 16.6531L70.948 16.5537L71.1937 16.5039V16.4542H71.2919V16.4045L71.6359 16.2554L71.685 16.156L71.7833 16.1063C71.8324 15.808 71.8815 15.6589 71.9798 15.6092C72.3729 15.7086 72.6677 15.7086 72.8151 15.6092C72.8642 15.5595 72.9625 15.5097 73.1099 15.5097V15.46C73.159 15.46 73.2081 15.4103 73.3064 15.46L73.2573 15.4103L74.1416 15.0126L74.1908 14.9629L74.3873 14.8635V14.9132V14.8635L74.4856 14.8138C74.6821 14.6647 74.7312 14.5155 74.633 14.3664L74.4856 14.267L74.5347 14.2173C74.9769 14.2173 75.2226 14.3167 75.37 14.4658C75.4191 14.5653 75.4682 14.6647 75.4682 14.8635C75.6156 14.8635 75.7139 14.9629 75.8122 15.0624C75.9104 15.2115 75.9104 15.5097 75.8122 15.9074H75.763L75.7139 15.8577V15.7583C75.5665 15.7086 75.4191 15.7086 75.2717 15.808L74.7804 16.3548H74.7313L74.6821 16.5039L74.4856 16.6531V16.7028H74.4365C74.4856 16.7525 74.4364 16.8519 74.2891 16.9513H74.2399C74.2399 17.001 74.1417 17.1502 73.8469 17.3987C73.8469 17.4484 73.7486 17.5976 73.4538 17.8461L73.5029 17.8958C73.6012 17.7964 73.6995 17.7964 73.7977 17.7964L73.896 17.7467C73.9943 17.6473 74.1417 17.6473 74.1908 17.6473V17.5976C74.4856 17.4484 74.6821 17.349 74.7804 17.349L74.8786 17.2496L74.9278 17.2993L74.9769 17.2496L74.9278 17.1999L74.9769 17.1502H75.026V17.1005C75.4682 16.8519 75.7139 16.7525 75.763 16.8022L75.9104 16.6531H75.9596C76.107 16.5039 76.1561 16.4045 76.107 16.3548L75.9596 16.2554V16.2057C76.4018 16.156 76.6474 16.2554 76.7948 16.4045C76.8931 16.5039 76.8931 16.6531 76.844 16.8022C76.8931 16.8022 76.8931 16.8022 76.9422 16.8519C77.0896 16.7525 77.1879 16.8022 77.2862 16.9016ZM70.0145 17.2993L70.1128 17.349L70.0145 17.2993ZM70.3584 17.4484L70.4567 17.4981L70.3584 17.4484ZM70.5058 17.4484L70.6041 17.4981L70.5058 17.4484ZM72.2255 16.3051L72.3237 16.3548L72.2255 16.3051ZM72.3237 18.2935V18.3432L72.3729 18.2935H72.3237ZM72.3237 16.3548L72.422 16.4045L72.3237 16.3548ZM72.5203 18.3929V18.4426L72.5694 18.3929H72.5203ZM72.5694 16.4045C72.5694 16.4542 72.6185 16.4542 72.6677 16.4542L72.5694 16.4045ZM72.6677 18.4426L72.7659 18.4923L72.6677 18.4426ZM73.0607 18.5421L73.159 18.5918L73.0607 18.5421ZM73.2081 18.5918H73.2573H73.2081ZM73.2573 16.8519L73.4047 16.9016L73.2573 16.8519ZM73.3555 18.6415L73.4538 18.6912L73.3555 18.6415ZM73.4047 17.2496V17.349V17.2496ZM73.5029 17.3987L73.5521 17.4981L73.5029 17.3987ZM73.7977 17.9952L73.8469 18.0947L73.7977 17.9952ZM73.8469 18.1444V18.2438V18.1444ZM73.9943 17.001L74.0434 17.0508L73.9943 17.001ZM74.0925 17.001L74.1908 17.0508L74.0925 17.001ZM74.3382 18.9894L74.3873 19.0889L74.3382 18.9894ZM74.8786 14.8635H74.7313H74.8786ZM74.8295 14.4658V14.5653V14.4658ZM74.9278 14.8138V14.9132V14.8138ZM75.026 15.2612V15.3606V15.2612ZM75.0752 14.9132V15.0126L75.1243 14.9629L75.0752 14.9132ZM75.0752 15.46V15.5595V15.46ZM75.1734 17.2993H75.2226H75.1734ZM75.763 17.4484L75.8613 17.4981L75.763 17.4484ZM75.9596 17.5479L76.0578 17.6473L76.0087 17.5976L75.9596 17.5479ZM76.4509 17.697H76.5H76.4509Z" fill="white"/>
<path d="M80.2833 23.7613V23.811C80.3324 23.9602 80.2341 24.159 79.9885 24.4573L79.8411 24.5567V24.507C79.9393 24.4076 79.9393 24.2584 79.9393 24.1093C79.9393 24.0099 79.8411 24.0099 79.7428 23.9602L79.3006 24.2087C79.3006 24.159 79.2515 24.159 79.2023 24.2087V24.159V24.1093L79.1041 24.159V24.2087H79.2023V24.2584C78.1706 24.7058 77.6792 25.0041 77.7284 25.1532L77.6301 25.2526C77.6301 25.3023 77.6301 25.4018 77.5318 25.6006H77.4827C77.2862 25.5012 77.1388 25.4515 76.9914 25.4515L74.7804 26.5948C74.6821 26.6942 74.633 26.7439 74.6821 26.8433V26.8931C74.7313 26.9925 74.7804 27.0422 74.9278 27.0919V27.1416C74.4856 26.9925 74.2399 26.7936 74.1908 26.5948L74.2399 26.2965V26.2468C74.0925 26.0977 73.9943 25.9983 73.9451 25.9486L73.896 25.8491C73.8469 25.6503 73.896 25.4018 74.1417 25.1532C74.1417 25.352 74.1417 25.4515 74.1417 25.5509C74.1908 25.6503 74.2399 25.6503 74.3382 25.6503L74.6821 25.4515L74.8295 25.5509L74.7313 25.4515V25.4018L74.9769 25.3023C74.9769 25.2526 75.1734 25.1035 75.5665 24.9544V24.9047L75.5174 24.7058L75.4682 24.4573L75.4191 24.4076L75.37 24.0596C75.3208 24.0596 75.2717 24.0099 75.2226 23.9105C74.7313 23.9602 74.3382 24.0099 74.0925 24.0099L73.7486 24.1093C73.6503 24.159 73.6503 24.2584 73.6503 24.3081C73.6503 24.3578 73.7486 24.4573 73.7977 24.507H73.7486C73.6012 24.507 73.4047 24.4076 73.2081 24.2087L73.159 24.1093C73.1099 24.0099 73.159 23.8607 73.2573 23.6619C73.1099 23.5625 73.0116 23.4631 72.9625 23.3636L72.9133 23.2642C72.9133 22.8665 72.9625 22.6677 73.159 22.618C73.1099 22.7174 73.1099 22.8168 73.159 22.9162C73.2081 23.0654 73.3555 23.1648 73.6503 23.1648V23.1151H73.6995L74.2891 23.1648V23.1151H74.3382L74.7313 23.0654V23.0157L75.4682 22.966V22.9162C75.5174 22.9162 75.6156 22.9163 75.8122 22.8665C75.9104 22.8168 76.0087 22.6677 76.107 22.4689C76.2052 22.4689 76.3035 22.5683 76.5492 22.7174L76.7948 22.8168C76.9422 22.7671 77.0405 22.8168 77.1388 22.966V22.9162C77.0405 22.9162 77.0405 22.9163 76.9914 22.8665H77.0405C77.7775 22.8168 78.2688 22.8168 78.4162 22.7671H78.6128C78.8093 22.7174 78.9076 22.5683 78.8584 22.4191L78.711 22.27C79.0549 22.3694 79.2515 22.4689 79.3006 22.618C79.3497 22.618 79.3498 22.618 79.3989 22.7174H79.448V22.7671H79.3989V22.8168H79.448C79.4971 23.0157 79.448 23.2145 79.3497 23.4631C80.0867 23.5128 80.2833 23.6619 80.2833 23.7613ZM74.5839 26.4954C74.4856 26.5451 74.4856 26.6445 74.4856 26.6942L74.5839 26.4954ZM74.7313 25.9983L74.633 26.0977V26.1474H74.6821L74.7313 25.9983ZM74.7804 25.8491L74.7313 25.9486H74.7804V25.8491ZM74.8295 23.2145V23.2642V23.2145ZM74.8295 25.7497L74.7804 25.8491H74.8295V25.7497ZM74.8786 23.3636L74.9278 23.4631V23.4134L74.8786 23.3636ZM74.9769 23.5128V23.5625V23.5128ZM75.026 25.6006H74.9278V25.6503L75.026 25.6006ZM75.0752 25.6503V25.7H75.1243L75.0752 25.6503ZM75.1734 25.7994L75.2717 25.9486H75.3208C75.2226 25.8491 75.1734 25.7994 75.1734 25.7994ZM75.3208 25.8491V25.8989H75.37L75.3208 25.8491ZM78.2688 23.6619C77.974 23.7116 77.8266 23.7116 77.8266 23.6122V23.6619L77.4827 23.7116L77.4336 23.7613C77.237 23.7613 76.8931 23.7613 76.4018 23.811H76.3526C76.3526 23.8607 76.3526 23.9105 76.3035 23.9105V23.9602L76.3526 24.0596L76.4509 24.507C76.5 24.507 76.5 24.5567 76.5492 24.6064L77.4827 24.159H77.5318C77.8266 23.9105 78.0723 23.7613 78.2688 23.6619ZM77.7284 23.0654H77.6792L77.7775 23.1151L77.7284 23.0654ZM77.9249 23.2642L78.2197 23.5625V23.5128L77.9249 23.2642ZM78.3671 23.6122H78.2688V23.6619L78.3671 23.6122ZM78.2688 24.5567V24.6561C78.318 24.6561 78.318 24.6064 78.2688 24.5567ZM78.3671 24.4076L78.318 24.507L78.3671 24.4076ZM78.318 23.7116C78.3671 23.811 78.4162 23.811 78.4654 23.811C78.4162 23.7116 78.3671 23.6619 78.318 23.7116ZM78.3671 23.9105L78.318 24.0099L78.3671 24.1093H78.318V24.159C78.3671 24.159 78.3671 24.1093 78.3671 24.0099H78.318L78.3671 23.9105ZM78.3671 24.2087L78.318 24.3081H78.3671H78.4162L78.3671 24.2087ZM78.6128 23.9105L78.711 24.0099H78.7602L78.6128 23.9105ZM78.8093 24.0099C78.8093 24.0596 78.9075 24.159 79.0549 24.2087C79.0058 24.159 78.9075 24.1093 78.8093 24.0099ZM79.4971 22.7174L79.5954 22.8168C79.5463 22.7671 79.4971 22.7174 79.4971 22.7174ZM79.7428 22.8168L79.7919 22.9162V22.8665L79.7428 22.8168Z" fill="white"/>
<path d="M81.1186 28.1358C81.1186 28.2353 81.0694 28.3347 80.922 28.4838C81.0694 28.5832 81.1186 28.6827 81.1186 28.7324C81.1677 29.2295 80.9712 29.5774 80.6272 29.7266L80.6763 29.3786C80.6272 29.1798 80.5781 29.0803 80.4798 29.0803L79.8902 29.13H79.7428H79.5463L79.3498 29.1798H79.2024L79.0058 29.2295L78.4654 29.2792L78.0232 29.6769H77.974C77.8266 29.5774 77.7284 29.478 77.7284 29.4283V29.478C77.6301 29.3786 77.5318 29.3289 77.3844 29.3289L76.9422 29.3786L76.5492 29.4283V29.3786H76.3526L76.2053 29.4283V29.3786L75.9104 29.4283H75.37L75.3209 29.478H75.2226C75.0261 29.6271 74.9769 29.7763 74.9769 29.826C74.9769 29.9254 75.0261 30.0248 75.1243 30.1242C74.9278 30.1242 74.7804 29.9751 74.6821 29.6271C74.5839 29.478 74.4856 29.3786 74.4856 29.3289C74.4856 29.1798 74.5347 29.0306 74.633 28.9312C74.5839 28.9312 74.5347 28.8318 74.4856 28.5335C74.5347 28.1358 74.633 27.8873 74.7804 27.7382L74.9278 27.6387L74.8295 27.937C74.9278 28.1856 75.0261 28.285 75.2226 28.285V28.2353H75.37L75.4191 28.285L75.6156 28.2353L75.8613 28.1856H75.9104C76.4018 28.1358 76.6966 28.1358 76.8931 28.1856L77.0405 28.1358H77.1879L77.4336 28.0861H77.4827L77.8758 27.6885C78.1706 27.937 78.4162 28.0364 78.5145 28.0364H78.9076L79.1041 27.9867H79.1532H79.792C79.792 27.937 79.9394 27.8873 80.2342 27.8873H80.2833C80.4307 27.8873 80.4798 27.7382 80.5289 27.5393C80.5289 27.4399 80.4798 27.3405 80.3816 27.2908H80.4307C80.6763 27.4399 80.8729 27.6387 81.0203 28.0364L81.1186 28.1358ZM75.5665 29.0803L75.5174 29.1798L75.5665 29.0803ZM75.6648 28.8815L75.6156 28.9809C75.6156 28.9312 75.6648 28.9312 75.6648 28.8815ZM75.7139 29.2295L75.6648 29.3289V29.3786H75.7139V29.2295ZM75.763 29.0306L75.7139 29.13L75.763 29.0306ZM75.8122 28.8815L75.763 28.9312L75.8122 28.8815ZM77.4336 28.4838V28.5832H77.4827L77.4336 28.4838ZM77.4336 28.1856V28.2353L77.5318 28.285L77.4336 28.1856ZM77.581 28.285L77.6792 28.3844C77.6792 28.3844 77.6301 28.3844 77.581 28.285ZM77.7775 28.9312L77.8266 28.9809L77.7775 28.9312ZM77.8758 28.4838H77.8266V28.5335L77.8758 28.4838ZM78.0723 28.5832L77.974 28.5335H77.9249L78.0723 28.5832ZM78.3671 28.7821H78.318V28.8318L78.3671 28.7821ZM78.4654 28.7821H78.4162V28.8318L78.4654 28.7821ZM78.5636 28.8815L78.6128 28.9312L78.5636 28.8815ZM78.7602 28.9809H78.711H78.7602ZM78.9076 28.9809V29.0306H78.9567L78.9076 28.9809ZM80.4307 27.9867C80.3816 27.9867 80.3816 28.0364 80.3816 28.0364L80.4307 27.9867ZM80.5289 28.3844V28.5335H80.5781V28.4341L80.5289 28.3844ZM80.5781 28.5832L80.5289 28.6329H80.5781V28.5832ZM80.6272 28.7324V28.8318V28.7324Z" fill="white"/>
<path d="M80.9711 33.2062C80.9219 33.5542 80.6763 33.8027 80.2341 33.9519C80.3323 33.8524 80.3815 33.8027 80.3815 33.7033V33.6536C80.3815 33.5045 80.3323 33.3553 80.1358 33.3056H79.9393L79.4479 33.2062L79.3988 33.1565L79.3497 33.1068L79.3005 33.1565L79.2023 33.1068L79.1532 33.1565L79.104 33.1068H78.9566L78.8584 33.0571L78.8092 33.1068H78.7601L78.6618 33.0571H78.5636L78.5144 33.0074L78.1214 33.1068C78.1214 33.1565 78.0231 33.2559 77.8266 33.3553C77.5809 33.0571 77.3844 32.9079 77.3352 32.9079L77.1878 32.8582H76.9913L76.6965 32.8085H76.4508L76.4017 32.7588L76.3526 32.8085L76.2052 32.7588H75.9104H75.8612L75.8121 32.7091L75.763 32.7588L75.7138 32.8085L75.5173 32.7588C75.2225 32.7091 75.0751 32.8582 75.026 33.1068C74.9768 33.3553 75.2225 33.6039 75.6647 33.9021L75.9104 33.9519H76.0578V34.0513H76.1069V34.0016L76.156 33.9021L76.3034 33.9519L76.6965 34.0016C76.7948 34.0016 76.8439 34.0513 76.8439 34.101V34.2004L76.7948 34.2501L76.7456 34.449V34.7969H76.6965L76.2543 34.6975H76.156L76.1069 34.6478C75.9104 34.6478 75.7138 34.6478 75.5173 34.6478C75.2225 34.5484 74.9768 34.3992 74.9277 34.2998C74.6821 34.101 74.5347 33.9519 74.5838 33.8027C74.5347 33.8027 74.4855 33.6536 74.4855 33.405L74.5347 33.3553C74.4364 33.3553 74.4364 33.1068 74.4855 32.7091C74.5347 32.5103 74.6329 32.2617 74.8786 31.9635L74.6821 31.8143H74.7312L74.6821 31.6652C74.7312 31.3669 74.8786 31.0687 75.2225 30.7207H75.2716L75.1734 31.0687C75.2225 31.2178 75.2716 31.3172 75.419 31.3669C75.4682 31.3669 75.5173 31.4166 75.5173 31.4166H75.6156L75.6647 31.4664L75.763 31.4166H75.8612L75.9595 31.4664V31.4166L76.156 31.4664L76.5491 31.5161H76.5982L76.9913 31.5658L77.1387 31.6155H77.237L77.3844 31.6652C77.5318 31.6652 77.7283 31.6155 77.974 31.4166C78.1705 31.6155 78.3179 31.7646 78.5144 31.864C78.6127 31.8143 78.711 31.8143 78.8584 31.8143L79.104 31.9137H79.3988L79.6936 32.0132H79.7919V32.0629H79.841L79.8901 32.0132L80.1358 32.0629C80.4797 32.0629 80.6271 31.9635 80.6271 31.8143V31.7646C80.6271 31.7149 80.578 31.6155 80.5289 31.5161H80.578C80.7254 31.6155 80.8728 31.7149 80.9219 31.9137L80.8728 32.0132L80.9219 31.9137C81.0202 32.0629 81.0693 32.2617 81.0202 32.4606C81.0202 32.6097 80.9219 32.7091 80.7745 32.8582C80.9711 32.9079 81.0202 33.0571 80.9711 33.2062ZM74.6329 33.753L74.5838 33.9021H74.6329V33.753ZM74.8295 33.4548L74.7803 33.5045L74.8295 33.4548ZM74.9277 33.3056L74.8786 33.3553L74.9277 33.3056ZM75.4682 31.6652L75.5173 31.7646L75.4682 31.6652ZM75.5173 31.9137L75.4682 31.9635L75.5173 31.9137ZM75.5173 31.8143L75.4682 31.864H75.5173V31.8143ZM75.5664 32.0629V32.1623V32.1126V32.0629ZM75.5664 32.212C75.5664 32.3611 75.5664 32.4606 75.6156 32.56C75.6156 32.4108 75.5664 32.3114 75.5664 32.212ZM76.2052 34.2998C76.2052 34.449 76.2543 34.5484 76.3034 34.5484C76.2052 34.449 76.2052 34.3992 76.2052 34.2998ZM76.5 34.2004L76.4508 34.2501L76.5 34.2004ZM78.7601 32.0629L78.8092 32.1126L78.7601 32.0629ZM78.8092 32.0132V32.0629V32.0132ZM78.9566 32.212L78.9075 32.1623V32.212H78.9566ZM79.0058 32.5103L79.0549 32.6097L79.0058 32.5103ZM79.1532 32.4606L79.2023 32.56L79.1532 32.4606ZM79.4479 32.9577L79.4971 33.0571L79.4479 32.9577ZM80.5289 32.6097L80.4797 32.7091L80.5289 32.6097ZM80.578 32.5103L80.5289 32.56H80.578V32.5103ZM80.7254 32.3114L80.6271 32.3611H80.6763L80.7254 32.3114ZM80.8237 32.1126L80.7745 32.1623L80.8237 32.1126Z" fill="white"/>
<path d="M42.0578 31.8144C41.763 31.8641 41.4682 31.9138 41.1243 31.9138C40.7803 31.9138 40.4855 31.9138 40.1907 31.8144C39.8959 31.7647 39.6503 31.6653 39.4046 31.5162C39.1589 31.367 39.0115 31.2179 38.8641 30.9693C38.7167 30.7208 38.6676 30.4722 38.6676 30.174C38.6676 29.7763 38.7659 29.4283 38.9624 29.1301C39.1589 28.8318 39.4537 28.633 39.7977 28.5336C40.1416 28.4341 40.5347 28.3347 40.9769 28.3347C41.3208 28.3347 41.6156 28.3347 41.9104 28.4341C42.2052 28.4838 42.4508 28.5833 42.6474 28.7324C42.893 28.8815 43.0404 29.0307 43.1878 29.2792C43.3352 29.5278 43.3844 29.7763 43.3844 30.1243C43.3844 30.4225 43.3352 30.7208 43.237 30.9693C43.1387 31.2179 42.9422 31.4167 42.7456 31.5162C42.5982 31.6653 42.3526 31.7647 42.0578 31.8144ZM41.1243 30.8202C41.2717 30.8202 41.4682 30.8202 41.6156 30.7705C41.763 30.7705 41.9104 30.7208 42.0578 30.6711C42.2052 30.6214 42.3526 30.5717 42.4508 30.4722C42.5491 30.3728 42.5982 30.2734 42.5982 30.1243C42.5982 29.9751 42.5491 29.8757 42.4508 29.7763C42.3526 29.6769 42.2052 29.6272 42.0578 29.5775C41.9104 29.5278 41.763 29.5278 41.6156 29.478C41.4682 29.478 41.3208 29.478 41.1243 29.478C40.9769 29.478 40.7803 29.478 40.6329 29.5278C40.4855 29.5278 40.3381 29.5775 40.1416 29.6272C39.9942 29.6769 39.8468 29.7266 39.7485 29.826C39.6503 29.9254 39.6011 30.0249 39.6011 30.174C39.6011 30.3231 39.6503 30.4225 39.7485 30.522C39.8468 30.6214 39.9942 30.6711 40.1416 30.7208C40.289 30.7705 40.4364 30.7705 40.6329 30.8202C40.7803 30.8202 40.9769 30.8202 41.1243 30.8202Z" fill="white"/>
<path d="M40.0925 36.537L39.7485 35.4931L42.893 34.3994L42.0086 33.8029L42.5491 33.0076L44.0722 34.0515L44.4162 34.996L40.0925 36.537Z" fill="white"/>
<path d="M44.7601 41.3091C44.367 41.6074 43.9248 41.7068 43.4826 41.6074C43.0404 41.508 42.6474 41.2594 42.3526 40.8618C42.0578 40.4641 41.9104 40.0167 41.9595 39.5693C42.0086 39.1219 42.2052 38.7242 42.5982 38.426C42.9422 38.1774 43.4335 38.0283 44.0231 37.9786L45.9884 37.8792L46.7745 38.9231L44.8583 38.9728H44.8092C44.9075 39.0225 44.9566 39.1219 45.0549 39.2213C45.3005 39.5693 45.3988 39.9173 45.3497 40.3149C45.3005 40.7126 45.104 41.0606 44.7601 41.3091ZM44.0722 40.4641C44.2196 40.3149 44.3179 40.1658 44.367 40.0167C44.4162 39.8178 44.367 39.6687 44.2196 39.4699C44.0722 39.3207 43.9248 39.2213 43.7283 39.1716C43.5318 39.1219 43.3844 39.2213 43.1878 39.3207C43.0404 39.4202 42.9422 39.619 42.893 39.7681C42.8439 39.967 42.893 40.1161 43.0404 40.3149C43.1878 40.4641 43.3352 40.5635 43.5318 40.6132C43.7283 40.6132 43.9248 40.5635 44.0722 40.4641Z" fill="white"/>
<path d="M48.6416 44.5897C48.4451 44.8383 48.2485 45.0371 47.9537 45.1366C47.7081 45.236 47.4624 45.236 47.1676 45.1863C46.9219 45.1366 46.6763 44.9874 46.4306 44.8383C46.0867 44.5897 45.7919 44.2915 45.6445 43.9435C45.4971 43.5955 45.4971 43.1979 45.5953 42.8002L46.578 43.1482C46.5289 43.2973 46.5289 43.4464 46.578 43.6453C46.6271 43.7944 46.7254 43.9435 46.8728 44.0429C47.0202 44.1424 47.1676 44.1921 47.315 44.1921C47.4624 44.1921 47.6098 44.0926 47.7081 43.9435C47.8063 43.7447 47.8555 43.5955 47.7572 43.3967C47.6589 43.1979 47.5115 43.0487 47.315 42.8996L47.1185 42.7505L47.5607 42.1042L47.8063 42.3031C48.2485 42.6013 48.5433 42.6013 48.7398 42.3031C48.8381 42.154 48.8381 42.0545 48.789 41.9054C48.7399 41.7563 48.6416 41.6569 48.5433 41.5574C48.3959 41.458 48.2977 41.4083 48.1503 41.458C48.0029 41.5077 47.8555 41.5077 47.7572 41.6569L47.0693 40.9112C47.3641 40.6627 47.7081 40.5632 48.052 40.5632C48.4451 40.5632 48.789 40.7124 49.0838 40.9112C49.4277 41.1598 49.6734 41.458 49.8208 41.8557C49.9682 42.2037 49.919 42.5516 49.6734 42.8996C49.526 43.0984 49.3786 43.2476 49.1329 43.2973C48.9364 43.347 48.6907 43.347 48.4942 43.2973C48.6907 43.4961 48.789 43.7447 48.789 43.9932C48.8381 44.1921 48.789 44.3909 48.6416 44.5897Z" fill="white"/>
<path d="M53.5549 46.479C53.4075 46.9264 53.1619 47.2247 52.7688 47.3241C52.3757 47.4732 51.9827 47.4732 51.4914 47.3241C51.0492 47.175 50.6561 46.9264 50.4596 46.6282C50.2139 46.2802 50.1648 45.9322 50.3122 45.4848C50.4104 45.2363 50.5087 45.0374 50.7544 44.8883C50.9509 44.7392 51.1966 44.6895 51.4422 44.6895C51.2457 44.5403 51.1474 44.3912 51.0492 44.1924C51 43.9935 50.9509 43.7947 51.0492 43.5461C51.1474 43.1484 51.3931 42.8999 51.737 42.7508C52.0809 42.6016 52.474 42.6016 52.9162 42.7508C53.3584 42.8999 53.6532 43.0987 53.8989 43.397C54.1445 43.6953 54.1937 44.0432 54.0463 44.4409C53.9971 44.6895 53.8497 44.8386 53.7023 44.9877C53.5549 45.1368 53.3584 45.1866 53.1127 45.1866C53.3093 45.3357 53.4567 45.4848 53.5549 45.7334C53.6532 45.9819 53.6532 46.2305 53.5549 46.479ZM52.5723 46.131C52.6214 45.9819 52.6214 45.7831 52.5231 45.6339C52.4249 45.4848 52.3266 45.3854 52.1301 45.3357C51.9335 45.286 51.7861 45.286 51.6387 45.3854C51.4914 45.4848 51.3931 45.5842 51.344 45.7334C51.2948 45.8825 51.2948 46.0813 51.3931 46.2305C51.4914 46.3796 51.5896 46.479 51.7861 46.5287C51.9827 46.5784 52.1301 46.5784 52.2775 46.5287C52.4249 46.4293 52.5231 46.2802 52.5723 46.131ZM52.7688 44.4906C52.9162 44.4409 52.9653 44.2918 53.0145 44.1924C53.0636 44.0432 53.0636 43.8941 52.9653 43.7947C52.9162 43.6455 52.7688 43.5958 52.6214 43.5461C52.474 43.4964 52.3266 43.4964 52.2283 43.5958C52.0809 43.6455 52.0318 43.745 51.9827 43.8941C51.9335 44.0432 51.9335 44.1924 52.0318 44.2918C52.0809 44.4409 52.2283 44.4906 52.3757 44.5403C52.5231 44.59 52.6705 44.59 52.7688 44.4906Z" fill="white"/>
<path fill-rule="evenodd" clip-rule="evenodd" d="M32.9191 31.4664C31.2486 31.2179 29.6763 30.7208 28.0549 30.5717C25.6965 30.3231 23.4364 30.5717 21.1272 30.8699C20.1937 31.019 19.2601 30.8202 18.3757 31.3173C17.1474 32.0132 15.87 32.2618 14.4451 32.1624C13.3642 32.1127 12.3815 32.8583 11.1532 32.8583C7.91042 32.908 5.01157 31.9138 2.16186 30.5717C2.01446 30.5219 1.9162 30.4225 1.81793 30.2734C1.71966 30.174 1.67053 30.0248 1.57227 29.7266C3.43932 30.3728 5.15897 31.2179 6.97689 31.6156C8.50001 31.9138 10.0231 32.2121 11.5463 32.3612C12.7746 32.5103 14.1012 31.9635 15.3786 31.6156C17.9827 30.9693 20.5376 30.0746 23.2399 29.7266C24.37 29.5775 25.5491 29.5277 26.6792 29.6272C28.5463 29.7763 30.4133 29.9751 32.1821 30.6214C32.526 30.8202 32.8208 30.8699 32.9191 31.4664Z" fill="white"/>
<path fill-rule="evenodd" clip-rule="evenodd" d="M2.01453 38.5749C2.75152 38.2767 3.24285 38.3761 3.73418 38.5749C6.14169 39.6686 8.64747 40.0662 11.2515 40.3645C12.6272 40.5136 14.003 40.2651 15.3296 40.0165C17.9336 39.4697 20.4394 38.6744 22.9943 38.0778C23.8296 37.879 24.7631 37.9784 25.5983 37.9287C25.844 37.9287 26.0405 38.0778 26.0405 38.3264C26.0405 38.5749 25.8931 38.7738 25.6475 38.8235C25.5001 38.8732 25.3527 38.8732 25.2053 38.8732C21.8642 38.4258 18.8671 40.0662 15.7717 40.7125C13.3642 41.2096 11.0059 41.1101 8.64747 40.8119C6.68216 40.5633 4.71684 39.9171 2.89892 39.072C2.60412 38.9229 2.40759 38.7738 2.01453 38.5749Z" fill="white"/>
<path fill-rule="evenodd" clip-rule="evenodd" d="M23.4856 33.9518C23.3382 34.6477 22.9452 34.7471 22.503 34.7968C20.1937 35.0454 18.0319 35.9402 15.7718 36.4373C12.9221 37.0835 10.1215 37.0338 7.27176 36.3876C5.15905 35.8905 3.14459 35.1448 1.17928 34.1506C0.884479 34.0015 0.344016 33.9021 0.491415 33.5541C0.687947 33.057 1.17928 33.4547 1.47407 33.6038C4.86425 35.2939 8.40182 36.3379 12.2342 36.2384C14.74 36.139 17.1966 35.4431 19.555 34.6974C20.8325 34.3495 22.1099 34.25 23.4856 33.9518Z" fill="white"/>
<path fill-rule="evenodd" clip-rule="evenodd" d="M22.6503 21.7232C22.5029 22.5185 21.7659 22.3694 21.2746 22.5185C18.2283 23.1648 15.3295 24.4075 12.1358 24.5567C8.30347 24.7555 4.7659 23.9601 1.27746 22.3694C0.786129 22.1706 0.933528 21.4249 0.2948 21.4746C0.393066 21.2261 0.589597 21.2758 0.736996 21.3255C3.83237 22.8168 7.07515 23.811 10.4653 23.9104C12.2341 23.9601 14.052 23.7116 15.7717 23.2145C17.5405 22.6677 19.3584 22.27 21.1763 21.7729C21.6676 21.6735 22.159 21.6238 22.6503 21.7232Z" fill="white"/>
<path fill-rule="evenodd" clip-rule="evenodd" d="M19.4075 27.0918C13.4625 29.2791 7.81216 29.3288 2.21101 26.7439C1.62141 26.4953 1.03182 26.1971 0.442222 25.8988C0.147425 25.7497 -0.196506 25.6503 0.0491589 25.2526C0.245691 24.9543 0.540488 25.1532 0.73702 25.3023C1.96534 26.1474 3.34107 26.545 4.71679 26.9427C7.95956 27.9369 11.2515 28.2352 14.6416 27.6387C16.1648 27.3901 17.5896 26.3959 19.4075 27.0918Z" fill="white"/>
<path fill-rule="evenodd" clip-rule="evenodd" d="M28.9885 25.8491C30.266 26.2468 31.7891 26.0977 32.9191 27.1913C33.1648 27.4398 33.5579 27.2907 33.9018 27.2907C34.1966 27.2907 34.5897 27.2907 34.5405 27.7381C34.4914 28.1855 34.0492 28.0364 33.8035 27.9369C32.5261 27.3901 31.1504 27.1416 29.7746 26.7936C29.4307 26.6942 29.0868 26.6445 28.792 26.5948C28.4972 26.5451 28.055 26.6942 28.1041 26.2468C28.1041 25.6503 28.5954 25.8988 28.9885 25.8491Z" fill="white"/>
<path fill-rule="evenodd" clip-rule="evenodd" d="M25.9422 22.27C25.3035 22.27 24.6647 22.27 24.026 22.27C23.7803 22.27 23.5347 22.3197 23.5347 21.9717C23.5347 21.6735 23.7803 21.574 23.9769 21.574C25.4017 21.4249 26.7774 21.6237 28.2023 21.6735C28.3988 21.6735 28.5462 21.8226 28.5462 22.0711C28.5462 22.3197 28.3006 22.3694 28.1532 22.3694C27.4162 22.3694 26.7283 22.3694 25.9913 22.3694C25.9422 22.3197 25.9422 22.3197 25.9422 22.27Z" fill="white"/>
<path fill-rule="evenodd" clip-rule="evenodd" d="M22.8468 26.4953C23.1416 25.5508 23.8786 25.6502 24.4191 25.5508C25.2543 25.4017 26.1387 25.5011 27.0231 25.6999C27.2688 25.7496 27.4162 25.9485 27.367 26.197C27.367 26.3959 27.1705 26.4456 27.0231 26.3959C25.6474 26.0976 24.3208 26.3959 22.8468 26.4953Z" fill="white"/>
<path fill-rule="evenodd" clip-rule="evenodd" d="M31.0029 38.3264C31.7399 38.4258 32.4769 38.7241 33.2139 39.0223C33.4104 39.072 33.607 39.1217 33.5578 39.3703C33.5087 39.5691 33.3613 39.7183 33.1648 39.6686C32.2312 39.4697 31.3468 39.2709 30.4133 39.0223C30.1677 38.9726 29.9711 38.7241 30.1185 38.4755C30.2659 38.1773 30.659 38.3761 31.0029 38.3264Z" fill="white"/>
<path fill-rule="evenodd" clip-rule="evenodd" d="M31.789 34.5484C32.3295 34.797 33.0665 34.7473 33.4596 35.2941C33.5087 35.3438 33.4104 35.5427 33.3613 35.5427C32.6243 35.6918 31.9856 35.2941 31.2977 35.145C31.1503 35.0953 31.1012 34.9461 31.1994 34.7473C31.3468 34.5484 31.5434 34.4987 31.789 34.5484Z" fill="white"/>
<path fill-rule="evenodd" clip-rule="evenodd" d="M28.4971 33.9021C28.841 34.1507 29.5289 33.9518 29.6271 34.5981C29.6763 34.946 29.2341 34.8466 28.9884 34.7969C28.5953 34.6478 27.9075 34.8466 27.9075 34.101C27.9075 33.753 28.2514 33.9021 28.4971 33.9021Z" fill="white"/>
<path fill-rule="evenodd" clip-rule="evenodd" d="M28.3989 38.3262C28.3498 38.7239 28.1533 38.8731 27.8585 38.8731C27.5637 38.8731 27.318 38.7736 27.318 38.4257C27.318 38.0777 27.5637 37.9783 27.8585 37.9783C28.2024 37.9286 28.4481 38.028 28.3989 38.3262Z" fill="white"/>
<path fill-rule="evenodd" clip-rule="evenodd" d="M117.28 31.4168C115.511 31.1682 113.841 30.6214 112.121 30.4226C109.665 30.174 107.257 30.4226 104.8 30.7705C103.818 30.9197 102.835 30.7208 101.902 31.2179C100.624 31.9636 99.2485 32.2121 97.7745 32.1127C96.6444 32.0133 95.5635 32.8584 94.3352 32.8584C90.945 32.9081 87.8496 31.8642 84.8525 30.4723C84.7051 30.4226 84.5577 30.3232 84.4595 30.174C84.3612 30.0746 84.3121 29.8758 84.1647 29.5775C86.13 30.2734 87.9479 31.1682 89.8641 31.5659C91.4855 31.9139 93.1069 32.1624 94.7283 32.3613C96.0548 32.5104 97.4306 31.9139 98.8063 31.6156C101.558 30.9197 104.26 29.9752 107.11 29.6272C108.289 29.4781 109.517 29.4284 110.746 29.5278C112.711 29.7266 114.676 29.8758 116.543 30.5717C116.838 30.7705 117.182 30.8203 117.28 31.4168Z" fill="white"/>
<path fill-rule="evenodd" clip-rule="evenodd" d="M84.656 38.9726C85.4421 38.6743 85.9826 38.7738 86.4739 38.9726C88.9797 40.1159 91.682 40.5136 94.3843 40.8616C95.8583 41.0107 97.2832 40.7622 98.708 40.4639C101.41 39.9171 104.113 39.0223 106.815 38.3761C107.699 38.1772 108.682 38.227 109.566 38.227C109.812 38.227 110.009 38.3761 110.058 38.6744C110.058 38.9726 109.861 39.1217 109.616 39.1715C109.468 39.2212 109.272 39.2212 109.124 39.2212C105.587 38.7738 102.442 40.4639 99.1502 41.1599C96.5953 41.7067 94.0895 41.6072 91.6329 41.2593C89.5202 40.961 87.5057 40.3148 85.5404 39.42C85.2947 39.3206 85.0491 39.1715 84.656 38.9726Z" fill="white"/>
<path fill-rule="evenodd" clip-rule="evenodd" d="M107.355 34.1012C107.208 34.8468 106.766 34.9463 106.324 34.996C103.867 35.2445 101.607 36.2387 99.1994 36.7358C96.2023 37.3821 93.2543 37.3821 90.2572 36.6861C87.9971 36.189 85.8844 35.3439 83.8208 34.3497C83.526 34.2006 82.9364 34.1012 83.0838 33.7035C83.2803 33.2064 83.7717 33.6041 84.1156 33.7532C87.7023 35.5428 91.4364 36.6364 95.4653 36.537C98.1185 36.4376 100.673 35.6919 103.228 34.8965C104.555 34.4989 105.882 34.3994 107.355 34.1012Z" fill="white"/>
<path fill-rule="evenodd" clip-rule="evenodd" d="M106.471 21.1765C106.275 22.0216 105.538 21.8724 104.997 21.9719C101.803 22.6678 98.7081 23.9603 95.367 24.1094C91.3381 24.3579 87.5549 23.4632 83.8699 21.8227C83.3786 21.5742 83.4769 20.8285 82.8381 20.8782C82.9364 20.6297 83.1329 20.6297 83.3295 20.7291C86.5722 22.3198 90.0115 23.314 93.5983 23.4632C95.4653 23.5129 97.3815 23.2643 99.1994 22.7175C101.066 22.1707 102.983 21.6736 104.899 21.1765C105.39 21.1268 105.931 21.0274 106.471 21.1765Z" fill="white"/>
<path fill-rule="evenodd" clip-rule="evenodd" d="M103.032 26.8435C96.7427 29.1798 90.7976 29.1798 84.8526 26.4955C84.2138 26.1972 83.6242 25.899 82.9855 25.6504C82.6907 25.5013 82.2976 25.4019 82.5924 24.9545C82.789 24.6562 83.1329 24.8551 83.3294 25.0042C84.6069 25.899 86.0809 26.2967 87.5057 26.744C90.945 27.8377 94.3844 28.1359 97.9711 27.4897C99.5924 27.1914 101.116 26.1475 103.032 26.8435Z" fill="white"/>
<path fill-rule="evenodd" clip-rule="evenodd" d="M113.153 25.5012C114.48 25.9486 116.101 25.7498 117.28 26.8931C117.575 27.1416 117.968 26.9925 118.312 26.9925C118.607 26.9925 119.049 26.9925 119 27.4399C118.951 27.937 118.46 27.7382 118.214 27.6387C116.838 27.0422 115.413 26.7937 113.939 26.4457C113.595 26.3463 113.251 26.2966 112.908 26.2469C112.613 26.1972 112.121 26.3463 112.171 25.8492C112.22 25.3024 112.711 25.6006 113.153 25.5012Z" fill="white"/>
<path fill-rule="evenodd" clip-rule="evenodd" d="M109.96 21.7729C109.272 21.7729 108.584 21.7729 107.896 21.7729C107.65 21.7729 107.405 21.8226 107.355 21.4746C107.355 21.1267 107.601 21.077 107.847 21.077C109.321 20.9278 110.795 21.1267 112.318 21.1764C112.514 21.1764 112.711 21.3255 112.662 21.5741C112.662 21.8723 112.416 21.8723 112.22 21.8723C111.433 21.8723 110.696 21.8723 109.91 21.8723C109.96 21.8226 109.96 21.7729 109.96 21.7729Z" fill="white"/>
<path fill-rule="evenodd" clip-rule="evenodd" d="M106.668 26.1972C106.962 25.203 107.749 25.3024 108.289 25.203C109.173 25.0539 110.107 25.1036 111.04 25.4019C111.335 25.5013 111.433 25.6504 111.433 25.9487C111.433 26.1972 111.237 26.1972 111.09 26.1475C109.616 25.7995 108.191 26.0978 106.668 26.1972Z" fill="white"/>
<path fill-rule="evenodd" clip-rule="evenodd" d="M115.266 38.7241C116.052 38.8235 116.838 39.1715 117.624 39.4697C117.821 39.5195 118.017 39.5692 117.968 39.8674C117.919 40.0663 117.772 40.2154 117.526 40.1657C116.543 39.9171 115.61 39.7183 114.627 39.4697C114.381 39.42 114.136 39.1715 114.332 38.9229C114.529 38.575 114.873 38.7738 115.266 38.7241Z" fill="white"/>
<path fill-rule="evenodd" clip-rule="evenodd" d="M116.101 34.6977C116.691 34.996 117.428 34.8965 117.87 35.4931C117.919 35.5428 117.821 35.7913 117.772 35.7913C116.985 35.9404 116.298 35.4931 115.561 35.3936C115.413 35.3439 115.364 35.1451 115.462 34.996C115.61 34.6977 115.855 34.648 116.101 34.6977Z" fill="white"/>
<path fill-rule="evenodd" clip-rule="evenodd" d="M112.613 34.0016C112.957 34.2502 113.743 34.0514 113.792 34.6976C113.841 35.0953 113.399 34.9958 113.153 34.8964C112.711 34.7473 111.974 34.9461 111.974 34.1508C111.974 33.8525 112.367 34.0016 112.613 34.0016Z" fill="white"/>
<path fill-rule="evenodd" clip-rule="evenodd" d="M112.514 38.6745C112.465 39.1219 112.269 39.2213 111.925 39.2213C111.63 39.2213 111.384 39.1219 111.384 38.7242C111.384 38.3266 111.679 38.2769 111.974 38.2769C112.269 38.2769 112.564 38.3763 112.514 38.6745Z" fill="white"/>
</g>
<defs>
<clipPath id="clip0">
<rect width="119" height="60" fill="white"/>
</clipPath>
</defs>
</svg>
