<svg width="10" height="10" viewBox="0 0 10 10" fill="none" xmlns="http://www.w3.org/2000/svg">
<g clip-path="url(#clip0)">
<path d="M8.47863 5.85486C8.36408 4.36348 7.66971 3.42889 7.05713 2.60416C6.4899 1.84064 6 1.18131 6 0.20869C6 0.130565 5.95625 0.0591589 5.88688 0.0233581C5.81729 -0.0126575 5.73367 -0.00675905 5.67041 0.0392175C4.75041 0.697538 3.98279 1.80709 3.71465 2.86576C3.5285 3.60281 3.50387 4.43141 3.50041 4.97865C2.6508 4.79719 2.45834 3.52633 2.45631 3.51248C2.44674 3.44656 2.40646 3.3892 2.34787 3.35787C2.28867 3.32695 2.21908 3.32471 2.15906 3.35441C2.11451 3.37598 1.06551 3.90898 1.00447 6.03713C1.0002 6.10793 1 6.17894 1 6.24994C1 8.31746 2.68232 9.99969 4.75 9.99969C4.75285 9.99988 4.7559 10.0003 4.75834 9.99969C4.75916 9.99969 4.75996 9.99969 4.76098 9.99969C6.82357 9.99377 8.5 8.31381 8.5 6.24994C8.5 6.14598 8.47863 5.85486 8.47863 5.85486ZM4.75 9.58305C4.0607 9.58305 3.5 8.98576 3.5 8.25156C3.5 8.22654 3.4998 8.20131 3.50162 8.17039C3.50996 7.86076 3.56877 7.64939 3.63326 7.50881C3.75412 7.7684 3.97018 8.00703 4.32113 8.00703C4.43629 8.00703 4.52947 7.91385 4.52947 7.79871C4.52947 7.50211 4.53559 7.15992 4.60943 6.85109C4.67516 6.57726 4.83221 6.28594 5.03119 6.0524C5.11969 6.35553 5.29223 6.60086 5.46068 6.84031C5.70178 7.18289 5.951 7.53709 5.99475 8.14109C5.99738 8.17689 6.00004 8.21291 6.00004 8.25156C6 8.98574 5.4393 9.58305 4.75 9.58305Z" fill="#8E8E8E"/>
</g>
<defs>
<clipPath id="clip0">
<rect width="10" height="10" fill="white"/>
</clipPath>
</defs>
</svg>
