<svg width="11" height="10" viewBox="0 0 11 10" fill="none" xmlns="http://www.w3.org/2000/svg">
<g clip-path="url(#clip0)">
<path d="M0.799939 4.55C1.34994 3.1 2.79994 2.35 4.39994 2.65C5.94994 1.1 8.09994 0.05 10.2499 0C10.3999 0 10.4999 0.1 10.4999 0.25C10.4499 2.4 9.39994 4.55 7.89994 6.1C8.14994 7.65 7.44994 9.15 5.99994 9.7C6.24994 9.05 6.29994 8.3 6.09994 7.55C5.84994 7.7 5.59994 7.85 5.34994 7.95C5.24994 8 5.14994 8 5.04994 7.9L2.54994 5.4C2.49994 5.35 2.49994 5.25 2.54994 5.15C2.64994 4.9 2.79994 4.65 2.94994 4.45C2.19994 4.25 1.44994 4.3 0.799939 4.55ZM6.29994 4.2C6.69994 4.6 7.29994 4.6 7.69994 4.2C8.09994 3.8 8.09994 3.2 7.69994 2.8C7.29994 2.4 6.69994 2.4 6.29994 2.8C5.89994 3.2 5.89994 3.8 6.29994 4.2Z" fill="#8E8E8E"/>
<path d="M0.649999 7.19999L1.69999 6.15C1.89999 5.95 2.19999 5.95 2.39999 6.15C2.59999 6.35 2.59999 6.65 2.39999 6.85L1.34999 7.89999C1.15 8.09999 0.849998 8.09999 0.649999 7.89999C0.45 7.69999 0.45 7.39999 0.649999 7.19999Z" fill="#8E8E8E"/>
<path d="M2.59995 9.14994L3.64994 8.09995C3.84994 7.89995 4.14994 7.89995 4.34994 8.09995C4.54994 8.29995 4.54994 8.59995 4.34994 8.79995L3.29995 9.84994C3.09995 10.0499 2.79995 10.0499 2.59995 9.84994C2.39995 9.64994 2.39995 9.34994 2.59995 9.14994Z" fill="#8E8E8E"/>
<path d="M1.24992 8.60001L2.69992 7.15C2.89992 6.95 3.19993 6.95 3.39993 7.15C3.59993 7.35 3.59993 7.65 3.39993 7.85L1.94992 9.30001C1.74992 9.50001 1.44992 9.50001 1.24992 9.30001C1.04991 9.10001 1.04991 8.80001 1.24992 8.60001Z" fill="#8E8E8E"/>
</g>
<defs>
<clipPath id="clip0">
<rect width="10" height="10" fill="white" transform="translate(0.5)"/>
</clipPath>
</defs>
</svg>
