<svg width="12" height="12" viewBox="0 0 12 12" fill="none" xmlns="http://www.w3.org/2000/svg">
<path d="M6 4.94531C5.41842 4.94531 4.94531 5.41842 4.94531 6C4.94531 6.58158 5.41842 7.05469 6 7.05469C6.58158 7.05469 7.05469 6.58158 7.05469 6C7.05469 5.41842 6.58158 4.94531 6 4.94531Z" fill="#090909"/>
<path d="M11.7597 4.9635L10.3132 4.48903C10.2575 4.33008 10.1923 4.17284 10.1178 4.01902L10.789 2.67696C10.8566 2.5417 10.8302 2.37827 10.7231 2.27116L9.72881 1.2769C9.6217 1.16979 9.45895 1.14335 9.32302 1.21097L7.98096 1.88217C7.82714 1.80766 7.66992 1.74244 7.51095 1.68682L7.03648 0.240305C6.98876 0.0968203 6.85453 0 6.70312 0H5.29688C5.14547 0 5.01122 0.0968203 4.9635 0.240328L4.48903 1.68684C4.33008 1.74246 4.17284 1.80769 4.01902 1.8822L2.67696 1.21099C2.54135 1.14335 2.37862 1.16911 2.27116 1.27692L1.2769 2.27116C1.16979 2.37827 1.14335 2.5417 1.21097 2.67696L1.88217 4.01902C1.80766 4.17284 1.74244 4.33005 1.68682 4.48903L0.240305 4.9635C0.0968203 5.01124 0 5.14547 0 5.29688V6.70312C0 6.85453 0.0968203 6.98878 0.240328 7.0365L1.68684 7.51097C1.74246 7.66992 1.80769 7.82716 1.8822 7.98098L1.21099 9.32304C1.14335 9.4583 1.16979 9.62173 1.27692 9.72884L2.27119 10.7231C2.379 10.8306 2.54241 10.857 2.67698 10.789L4.01904 10.1178C4.17286 10.1923 4.33008 10.2576 4.48905 10.3132L4.96352 11.7597C5.01122 11.9032 5.14547 12 5.29688 12H6.70312C6.85453 12 6.98876 11.9032 7.0365 11.7597L7.51097 10.3132C7.66992 10.2575 7.82716 10.1923 7.98098 10.1178L9.32304 10.789C9.45797 10.8563 9.62138 10.8299 9.72884 10.7231L10.7231 9.72881C10.8302 9.6217 10.8566 9.45827 10.789 9.32302L10.1178 7.98096C10.1923 7.82714 10.2576 7.66992 10.3132 7.51095L11.7597 7.03648C11.9032 6.98878 12 6.85453 12 6.70312V5.29688C12 5.14547 11.9032 5.01122 11.7597 4.9635ZM6 8.46094C4.64318 8.46094 3.53906 7.35682 3.53906 6C3.53906 4.64318 4.64318 3.53906 6 3.53906C7.35682 3.53906 8.46094 4.64318 8.46094 6C8.46094 7.35682 7.35682 8.46094 6 8.46094Z" fill="#090909"/>
</svg>
