<svg width="11" height="10" viewBox="0 0 11 10" fill="none" xmlns="http://www.w3.org/2000/svg">
<g clip-path="url(#clip0)">
<path d="M8.39166 7.48579H4.37798L4.12991 6.4935H9.37524L10.5 1.99443H3.00515L2.60982 0.413086H0.5V1.00213H2.1499L3.77669 7.5093C3.30312 7.611 2.94697 8.03274 2.94697 8.53625C2.94697 9.11547 3.4182 9.5867 3.99743 9.5867C4.57667 9.5867 5.0479 9.11545 5.0479 8.53625C5.0479 8.37079 5.00933 8.2142 4.94087 8.07483H7.44823C7.37977 8.2142 7.3412 8.37079 7.3412 8.53625C7.3412 9.11547 7.81245 9.5867 8.39166 9.5867C8.97088 9.5867 9.44213 9.11545 9.44213 8.53625C9.44211 7.95704 8.97086 7.48579 8.39166 7.48579Z" fill="#8E8E8E"/>
</g>
<defs>
<clipPath id="clip0">
<rect width="10" height="10" fill="white" transform="translate(0.5)"/>
</clipPath>
</defs>
</svg>
