<svg width="9" height="10" viewBox="0 0 9 10" fill="none" xmlns="http://www.w3.org/2000/svg">
<path d="M0.500244 9.99995V0.199951H4.50424C5.66158 0.199951 6.57624 0.512618 7.24824 1.13795C7.92024 1.76328 8.25624 2.58928 8.25624 3.61595C8.25624 4.70795 7.88291 5.55728 7.13624 6.16395C6.38958 6.76128 5.44224 7.05995 4.29424 7.05995H2.65624V9.99995H0.500244ZM2.65624 5.14195H4.36424C4.89624 5.14195 5.31158 5.00195 5.61024 4.72195C5.91824 4.44195 6.07224 4.07795 6.07224 3.62995C6.07224 3.15395 5.91824 2.78995 5.61024 2.53795C5.30224 2.27662 4.87291 2.14595 4.32224 2.14595H2.65624V5.14195Z" fill="#8E8E8E"/>
</svg>
