<svg width="18" height="19" viewBox="0 0 18 19" fill="none" xmlns="http://www.w3.org/2000/svg">
<path d="M9.00002 6.08371C7.19182 6.08371 5.7273 7.54827 5.7273 9.35643C5.7273 11.1646 7.19182 12.6292 9.00002 12.6292C10.8082 12.6292 12.2727 11.1646 12.2727 9.35646C12.2727 7.54831 10.8082 6.08371 9.00002 6.08371ZM16.3146 8.53826C15.9382 5.12644 13.23 2.41826 9.81819 2.04191V0.356445H8.18181V2.04191C4.76999 2.41826 2.06182 5.12644 1.68547 8.53826H0V10.1746H1.68547C2.06182 13.5865 4.77003 16.2946 8.18185 16.671V18.3565H9.81819V16.671C13.23 16.2946 15.9382 13.5865 16.3146 10.1746H18V8.53826H16.3146ZM9.00002 15.0837C5.83776 15.0837 3.27276 12.5187 3.27276 9.35646C3.27276 6.1942 5.83776 3.6292 9.00002 3.6292C12.1623 3.6292 14.7273 6.19416 14.7273 9.35646C14.7273 12.5188 12.1623 15.0837 9.00002 15.0837Z" fill="url(#paint0_linear)"/>
<defs>
<linearGradient id="paint0_linear" x1="3.375" y1="3.16894" x2="14.9063" y2="16.3877" gradientUnits="userSpaceOnUse">
<stop stop-color="#4E4E4E"/>
<stop offset="1" stop-color="#4E4E4E" stop-opacity="0.2"/>
</linearGradient>
</defs>
</svg>
