<svg width="56" height="56" viewBox="0 0 56 56" fill="none" xmlns="http://www.w3.org/2000/svg">
<path d="M25.2 17.0625C23.0316 17.3315 20.9281 17.9833 18.9875 18.9875C12.075 22.6625 10.9375 28.6125 10.9375 33.25C10.9375 37.8875 12.95 44.7125 20.3875 50.75H26.775V47.25L34.5625 47.6875C35.1249 48.7756 35.7994 49.802 36.575 50.75H42.4375V45.5C44.3037 44.187 46.0595 42.7238 47.6875 41.125C50.225 41.3875 52.85 39.375 53.8125 33.5125C53.8125 32.6375 53.375 32.375 52.9375 32.375C52.0059 32.2937 51.1066 31.9939 50.3125 31.5C49.9625 31.0625 48.9125 27.3875 46.9875 24.5C47.7202 22.6695 48.966 21.0896 50.575 19.95C48.125 18.725 45.5875 17.85 40.6 18.375C39.2875 18.1125 37.1 17.5875 35 17.2375" stroke="#4E4E4E" stroke-miterlimit="10" stroke-linecap="round" stroke-linejoin="round"/>
<path d="M30.1875 19.25C34.0535 19.25 37.1875 16.116 37.1875 12.25C37.1875 8.38401 34.0535 5.25 30.1875 5.25C26.3215 5.25 23.1875 8.38401 23.1875 12.25C23.1875 16.116 26.3215 19.25 30.1875 19.25Z" stroke="#4E4E4E" stroke-miterlimit="10" stroke-linecap="round" stroke-linejoin="round"/>
<path d="M24.675 21.9625C28.2724 20.7331 32.1712 20.7024 35.7875 21.875M10.9375 33.25C8.4 32.9875 2.1875 32.025 2.1875 35C2.1875 37.975 3.85 37.975 5.5125 37.275C7.175 36.575 9.275 32.4625 2.1875 29.75L10.9375 33.25Z" stroke="#4E4E4E" stroke-miterlimit="10" stroke-linecap="round" stroke-linejoin="round"/>
<path d="M42.4375 30.625C42.9207 30.625 43.3125 30.2332 43.3125 29.75C43.3125 29.2668 42.9207 28.875 42.4375 28.875C41.9543 28.875 41.5625 29.2668 41.5625 29.75C41.5625 30.2332 41.9543 30.625 42.4375 30.625Z" stroke="#4E4E4E" stroke-miterlimit="10" stroke-linecap="round" stroke-linejoin="round"/>
</svg>
