<svg width="56" height="56" viewBox="0 0 56 56" fill="none" xmlns="http://www.w3.org/2000/svg">
<path d="M30.8878 1.75C18.6378 1.75 9.88778 6.3 9.88778 15.75V24.5C9.26452 27.0676 8.06793 29.4608 6.38778 31.5C5.60028 32.2875 5.33778 33.6875 7.17528 34.2125C9.01278 34.7375 9.36278 34.5625 9.53778 35.7C9.71278 36.8375 9.01278 38.15 10.0628 38.5C11.1128 38.85 10.1503 39.9875 11.2003 40.8625C12.2503 41.7375 10.3253 45.4125 14.1753 45.4125H18.2878C20.3003 45.4125 20.3878 46.9 20.3878 48.9125C20.3878 50.925 18.6378 54.1625 18.6378 54.1625H43.1378C43.1378 54.1625 39.6378 50.575 39.6378 47.1625C39.6378 41.9125 50.1378 33.6 50.1378 19.1625C50.1378 4.725 39.6378 1.75 30.8878 1.75Z" stroke="#4E4E4E" stroke-miterlimit="10" stroke-linecap="round" stroke-linejoin="round"/>
<path d="M30.3617 14L25.6367 21H34.3867L30.0117 27.475" stroke="#4E4E4E" stroke-miterlimit="10" stroke-linecap="round" stroke-linejoin="round"/>
<path d="M37.712 12.425C36.817 11.2893 35.6777 10.3698 34.3786 9.73482C33.0795 9.09987 31.654 8.76579 30.2081 8.75738C28.7621 8.74897 27.3329 9.06646 26.0265 9.68626C24.7201 10.3061 23.5701 11.2122 22.662 12.3375C20.9113 12.615 19.3311 13.5463 18.2403 14.9434C17.1495 16.3405 16.6293 18.0995 16.7848 19.8651C16.9403 21.6308 17.7598 23.2718 19.078 24.4568C20.3961 25.6418 22.1148 26.2827 23.887 26.25H24.4995C26.136 27.4513 28.1131 28.099 30.1432 28.099C32.1733 28.099 34.1505 27.4513 35.787 26.25H36.137C37.8597 26.2548 39.5237 25.6242 40.8105 24.4789C42.0974 23.3336 42.9167 21.754 43.1117 20.0423C43.3067 18.3307 42.8637 16.6073 41.8674 15.2019C40.8712 13.7964 39.3916 12.8077 37.712 12.425V12.425Z" stroke="#4E4E4E" stroke-miterlimit="10" stroke-linecap="round" stroke-linejoin="round"/>
</svg>
