<svg width="56" height="56" viewBox="0 0 56 56" fill="none" xmlns="http://www.w3.org/2000/svg">
<path d="M28 54.25C42.4975 54.25 54.25 42.4975 54.25 28C54.25 13.5025 42.4975 1.75 28 1.75C13.5025 1.75 1.75 13.5025 1.75 28C1.75 42.4975 13.5025 54.25 28 54.25Z" stroke="#4E4E4E" stroke-linecap="round" stroke-linejoin="round"/>
<path d="M8.75 28C8.75 22.8946 10.7781 17.9983 14.3882 14.3882C17.9983 10.7781 22.8946 8.75 28 8.75C33.1054 8.75 38.0017 10.7781 41.6118 14.3882C45.2219 17.9983 47.25 22.8946 47.25 28" stroke="#4E4E4E" stroke-linecap="round" stroke-linejoin="round"/>
<path d="M21 17.5L24.6645 32.4993C24.8097 32.9943 25.0628 33.451 25.4058 33.8365C25.7487 34.222 26.1728 34.5265 26.6476 34.7283C27.1225 34.9301 27.6361 35.0241 28.1516 35.0035C28.6671 34.9829 29.1716 34.8482 29.6288 34.6091C30.086 34.37 30.4845 34.0325 30.7955 33.6209C31.1065 33.2093 31.3224 32.7338 31.4276 32.2287C31.5327 31.7236 31.5245 31.2015 31.4036 30.6999C31.2827 30.1984 31.052 29.7299 30.7283 29.3283C30.7335 29.2215 21 17.5 21 17.5Z" stroke="#4E4E4E" stroke-linecap="round" stroke-linejoin="round"/>
</svg>
