<svg width="24" height="24" viewBox="0 0 24 24" fill="none" xmlns="http://www.w3.org/2000/svg">
<g clip-path="url(#clip0)">
<path d="M11.9999 24.0007C18.6272 24.0007 23.9997 18.6281 23.9997 12.0008C23.9997 5.37346 18.6272 0.000938416 11.9999 0.000938416C5.37252 0.000938416 0 5.37346 0 12.0008C0 18.6281 5.37252 24.0007 11.9999 24.0007Z" fill="#41B4E6"/>
<path d="M24.0001 12.0001C24.0001 11.7077 23.9891 11.418 23.9685 11.1308L18.9951 6.1575L5.00502 11.6606L10.3577 17.0133L10.4279 17.2661L10.5188 17.1744L10.5192 17.1748L10.4279 17.2661L16.3491 23.1872C20.8266 21.4453 24.0001 17.0936 24.0001 12.0001Z" fill="#0091C8"/>
<path d="M10.8346 13.7484L16.2576 17.8428L18.995 6.1575L5.00487 11.6606L9.26191 13.0706L17.0311 7.85925L10.8346 13.7484Z" fill="white"/>
<path d="M9.26207 13.0706L10.428 17.2661L10.8347 13.7484L17.0313 7.85925L9.26207 13.0706Z" fill="#D2D2D7"/>
<path d="M12.5972 15.0791L10.428 17.2661L10.8347 13.7484L12.5972 15.0791Z" fill="#B9B9BE"/>
</g>
<defs>
<clipPath id="clip0">
<rect width="24" height="24" fill="white"/>
</clipPath>
</defs>
</svg>
