<svg width="20" height="14" viewBox="0 0 20 14" fill="none" xmlns="http://www.w3.org/2000/svg">
<path d="M0 2C0 0.89543 0.895431 0 2 0H17.6C18.7046 0 19.6 0.895431 19.6 2V12C19.6 13.1046 18.7046 14 17.6 14H2C0.895433 14 0 13.1046 0 12V2Z" fill="white"/>
<mask id="mask0" mask-type="alpha" maskUnits="userSpaceOnUse" x="0" y="0" width="20" height="14">
<path d="M0 2C0 0.89543 0.895431 0 2 0H17.6C18.7046 0 19.6 0.895431 19.6 2V12C19.6 13.1046 18.7046 14 17.6 14H2C0.895433 14 0 13.1046 0 12V2Z" fill="white"/>
</mask>
<g mask="url(#mask0)">
<path fill-rule="evenodd" clip-rule="evenodd" d="M0 7H19.6V0H0V7Z" fill="#156DD1"/>
<path fill-rule="evenodd" clip-rule="evenodd" d="M0 14H19.6V7H0V14Z" fill="#FFD948"/>
</g>
</svg>
