<svg width="56" height="56" viewBox="0 0 56 56" fill="none" xmlns="http://www.w3.org/2000/svg">
<rect x="0.5" y="-0.5" width="55" height="55" rx="27.5" transform="matrix(1 0 0 -1 0 55)" fill="url(#paint0_linear)" stroke="#4E4E4E"/>
<path d="M27.5985 11.25L27.5985 24.75" stroke="#FFA200" stroke-miterlimit="10" stroke-linecap="round" stroke-linejoin="round"/>
<path d="M32.8477 16.5L27.5977 11.25L22.3477 16.5" stroke="#FFA200" stroke-miterlimit="10" stroke-linecap="round" stroke-linejoin="round"/>
<path d="M11.0514 40V33.7H12.4374V36.193H14.9934V33.7H16.3794V40H14.9934V37.471H12.4374V40H11.0514ZM19.1133 40.09C18.6393 40.09 18.2433 39.958 17.9253 39.694C17.6133 39.43 17.4573 39.064 17.4573 38.596C17.4573 38.086 17.6313 37.702 17.9793 37.444C18.3333 37.186 18.8073 37.057 19.4013 37.057C19.8033 37.057 20.1963 37.123 20.5803 37.255V37.174C20.5803 36.586 20.2353 36.292 19.5453 36.292C19.1313 36.292 18.6873 36.379 18.2133 36.553L17.8713 35.509C18.4593 35.251 19.0833 35.122 19.7433 35.122C20.4693 35.122 21.0123 35.302 21.3723 35.662C21.7203 36.01 21.8943 36.523 21.8943 37.201V40H20.5713V39.478C20.2053 39.886 19.7193 40.09 19.1133 40.09ZM19.5273 39.145C19.8453 39.145 20.1033 39.067 20.3013 38.911C20.4993 38.749 20.5983 38.545 20.5983 38.299V38.056C20.3403 37.936 20.0493 37.876 19.7253 37.876C19.4253 37.876 19.1913 37.936 19.0233 38.056C18.8613 38.17 18.7803 38.338 18.7803 38.56C18.7803 38.74 18.8493 38.884 18.9873 38.992C19.1253 39.094 19.3053 39.145 19.5273 39.145ZM23.0714 35.176H25.7174C26.2094 35.176 26.5994 35.284 26.8874 35.5C27.1814 35.716 27.3284 36.01 27.3284 36.382C27.3284 36.886 27.0734 37.249 26.5634 37.471C27.1934 37.663 27.5084 38.068 27.5084 38.686C27.5084 39.094 27.3464 39.415 27.0224 39.649C26.7044 39.883 26.2664 40 25.7084 40H23.0714V35.176ZM24.4214 37.111H25.3844C25.5704 37.111 25.7114 37.066 25.8074 36.976C25.9094 36.886 25.9604 36.769 25.9604 36.625C25.9604 36.499 25.9124 36.394 25.8164 36.31C25.7264 36.226 25.5884 36.184 25.4024 36.184H24.4214V37.111ZM24.4214 38.929H25.5014C25.9154 38.929 26.1224 38.767 26.1224 38.443C26.1224 38.131 25.9034 37.975 25.4654 37.975H24.4214V38.929ZM30.7539 40.108C30.0219 40.108 29.4189 39.877 28.9449 39.415C28.4709 38.947 28.2339 38.341 28.2339 37.597C28.2339 36.895 28.4589 36.301 28.9089 35.815C29.3589 35.329 29.9289 35.086 30.6189 35.086C31.3809 35.086 31.9629 35.338 32.3649 35.842C32.7669 36.346 32.9679 36.967 32.9679 37.705C32.9679 37.777 32.9619 37.897 32.9499 38.065H29.5929C29.6589 38.371 29.7939 38.605 29.9979 38.767C30.2019 38.929 30.4599 39.01 30.7719 39.01C31.1979 39.01 31.5879 38.845 31.9419 38.515L32.7249 39.208C32.2389 39.808 31.5819 40.108 30.7539 40.108ZM29.5749 37.21H31.6359C31.5939 36.898 31.4829 36.649 31.3029 36.463C31.1289 36.277 30.9009 36.184 30.6189 36.184C30.3429 36.184 30.1119 36.277 29.9259 36.463C29.7459 36.643 29.6289 36.892 29.5749 37.21ZM33.9874 41.44V35.176H35.3554V35.869C35.7394 35.347 36.2404 35.086 36.8584 35.086C37.4584 35.086 37.9744 35.311 38.4064 35.761C38.8384 36.211 39.0544 36.823 39.0544 37.597C39.0544 38.365 38.8384 38.974 38.4064 39.424C37.9804 39.868 37.4644 40.09 36.8584 40.09C36.2584 40.09 35.7574 39.85 35.3554 39.37V41.44H33.9874ZM35.6704 38.56C35.8984 38.806 36.1774 38.929 36.5074 38.929C36.8374 38.929 37.1164 38.806 37.3444 38.56C37.5724 38.308 37.6864 37.981 37.6864 37.579C37.6864 37.189 37.5724 36.871 37.3444 36.625C37.1164 36.373 36.8374 36.247 36.5074 36.247C36.1774 36.247 35.8984 36.373 35.6704 36.625C35.4484 36.871 35.3374 37.195 35.3374 37.597C35.3374 37.987 35.4484 38.308 35.6704 38.56ZM39.6557 40L41.3477 37.552L39.7187 35.176H41.1857L42.0857 36.58L42.9947 35.176H44.4257L42.7967 37.525L44.4977 40H43.0307L42.0587 38.497L41.0867 40H39.6557Z" fill="white"/>
<defs>
<linearGradient id="paint0_linear" x1="28" y1="1.40222e-06" x2="-1.43468" y2="35.0333" gradientUnits="userSpaceOnUse">
<stop stop-color="#171717"/>
<stop offset="1" stop-color="#303030"/>
</linearGradient>
</defs>
</svg>
