<svg width="18" height="18" viewBox="0 0 18 18" fill="none" xmlns="http://www.w3.org/2000/svg">
<path d="M12.7333 7.21348C12.7333 8.84014 11.8267 10.2801 10.8667 11.1601V12.0135C10.8667 12.5468 11.1333 13.3735 13.8 13.8801C14.5529 14.0242 15.251 14.3749 15.8161 14.8929C16.3812 15.4109 16.7911 16.0759 17 16.8135H1C1.12295 16.0801 1.47162 15.4034 1.99742 14.8776C2.52323 14.3518 3.19997 14.0031 3.93333 13.8801C6.6 13.4001 7.13333 12.5468 7.13333 12.0135V11.1601C6.17333 10.2801 5.26667 8.86681 5.26667 7.21348V4.65348C5.26667 1.88014 7.24 0.813477 9 0.813477C10.76 0.813477 12.7333 1.88014 12.7333 4.65348V7.21348Z" stroke="#FFA200" stroke-miterlimit="10" stroke-linecap="round" stroke-linejoin="round"/>
</svg>
