<svg width="10" height="10" viewBox="0 0 10 10" fill="none" xmlns="http://www.w3.org/2000/svg">
<path d="M7.1875 8.57813L5.64062 9.6875L6.23438 7.89062L4.6875 6.875H6.59375L7.1875 5L7.78125 6.875H9.6875L8.14062 7.89062L8.73438 9.6875L7.1875 8.57813Z" fill="#090909"/>
<path d="M4.34375 7.39058C4.23428 7.31562 4.1515 7.20777 4.10739 7.08263C4.06329 6.9575 4.06016 6.82158 4.09844 6.69454C4.13672 6.56751 4.21444 6.45595 4.32034 6.37602C4.42625 6.29609 4.55484 6.25194 4.6875 6.24996H5.65625C5.07812 6.01558 5.0625 5.74996 5.0625 5.56246V5.31246C5.3808 5.01769 5.60845 4.63827 5.71875 4.21871C6.10938 4.21871 6.1875 3.42183 6.1875 3.31246C6.1875 3.20308 6.20312 2.71871 5.8125 2.71871C6.65625 0.703081 4.4375 -0.359419 2.78125 0.796831C2.09375 0.796831 2.04688 1.71871 2.29688 2.71871C1.90625 2.71871 1.92188 3.18746 1.92188 3.31246C1.92188 3.43746 2.01562 4.21871 2.39062 4.21871C2.50093 4.63827 2.72858 5.01769 3.04688 5.31246V5.56246C3.04688 5.81246 3.04688 6.18746 1.78125 6.43746C0.515625 6.68746 0.3125 7.81246 0.3125 7.81246H4.96875L4.34375 7.39058Z" fill="#090909"/>
</svg>
