<svg width="24" height="24" viewBox="0 0 24 24" fill="none" xmlns="http://www.w3.org/2000/svg">
<path d="M24 12C24 5.37258 18.6274 0 12 0C5.37258 0 0 5.37258 0 12C0 18.6274 5.37258 24 12 24C18.6274 24 24 18.6274 24 12Z" fill="#7D3DAF"/>
<path d="M19.5904 7.73617L19.5857 7.71721C19.2023 6.16734 17.4739 4.50478 15.8866 4.15826L15.8687 4.15457C13.3129 3.6648 10.6873 3.6648 8.13151 4.15457L8.11308 4.15826C6.52635 4.50425 4.79796 6.16734 4.41404 7.71721L4.40983 7.73617C3.93586 9.88496 3.93586 12.1112 4.40983 14.26L4.41404 14.279C4.78268 15.7625 6.38153 17.3492 7.90927 17.7858V19.5158C7.90936 19.6545 7.95091 19.79 8.02858 19.9049C8.10625 20.0198 8.21649 20.1089 8.34516 20.1607C8.47383 20.2125 8.61504 20.2246 8.75067 20.1956C8.88629 20.1665 9.01014 20.0976 9.1063 19.9976L10.8594 18.1755C11.2397 18.1966 11.6199 18.2087 12.0006 18.2087C13.2989 18.2078 14.5942 18.0844 15.8693 17.84L15.8872 17.8364C17.4744 17.4904 19.2049 15.8273 19.5862 14.2774L19.5909 14.2584C20.0645 12.1101 20.0643 9.88442 19.5904 7.73617ZM18.2033 13.9462C17.9473 14.9573 16.635 16.2143 15.5922 16.4466C14.2364 16.7053 12.8565 16.8167 11.4766 16.7789C11.4632 16.7785 11.4497 16.7809 11.4372 16.786C11.4247 16.7911 11.4134 16.7987 11.404 16.8084L10.1243 18.1223L8.76294 19.5195C8.74123 19.5431 8.71284 19.5596 8.68153 19.5667C8.65022 19.5738 8.61749 19.5712 8.5877 19.5593C8.5579 19.5473 8.53245 19.5266 8.51474 19.4998C8.49703 19.473 8.4879 19.4415 8.48856 19.4094V16.5435C8.4885 16.5206 8.48049 16.4984 8.46589 16.4807C8.45129 16.463 8.43101 16.451 8.40852 16.4466C7.36579 16.2143 6.05396 14.9573 5.7975 13.9462C5.37069 12.0032 5.37069 9.99084 5.7975 8.04793C6.05396 7.03681 7.36579 5.77975 8.40852 5.5475C10.782 5.09408 13.2198 5.09408 15.5933 5.5475C16.6365 5.77975 17.9484 7.03681 18.2043 8.04793C18.6313 9.99086 18.631 12.0034 18.2033 13.9462Z" fill="white"/>
<path d="M14.2684 15.269C14.1105 15.2206 13.9551 15.1874 13.8134 15.1289C12.3431 14.5191 10.9902 13.7323 9.9164 12.5258C9.30709 11.8412 8.82996 11.0655 8.42657 10.246C8.2354 9.85738 8.07425 9.45609 7.90995 9.05217C7.76038 8.68617 7.98104 8.30805 8.21328 8.03262C8.4351 7.77743 8.70845 7.5721 9.01534 7.43016C9.25232 7.31641 9.48614 7.38171 9.6594 7.58288C10.0387 8.01229 10.3727 8.47979 10.6558 8.97792C10.8269 9.28757 10.7801 9.66622 10.4699 9.87687C10.3946 9.92953 10.3256 9.98852 10.2555 10.0459C10.1925 10.0933 10.1378 10.151 10.0939 10.2165C10.0577 10.278 10.0361 10.347 10.0307 10.4181C10.0254 10.4892 10.0363 10.5606 10.0628 10.6268C10.4457 11.68 11.0903 12.4958 12.1488 12.9366C12.3183 13.0071 12.4884 13.0893 12.6833 13.0661C13.0103 13.0277 13.1157 12.6696 13.3447 12.4821C13.5738 12.2946 13.8545 12.2967 14.0957 12.4494C14.3369 12.6022 14.5697 12.7654 14.803 12.9313C15.0334 13.0886 15.2556 13.2577 15.4686 13.4379C15.6709 13.6159 15.7404 13.8497 15.6266 14.0915C15.416 14.5344 15.1147 14.9025 14.6787 15.1379C14.5549 15.2042 14.4075 15.2258 14.2679 15.2685C14.1078 15.2195 14.4075 15.2264 14.2684 15.269Z" fill="white"/>
<path d="M12.004 6.92358C13.9267 6.97624 15.5066 8.25384 15.8447 10.155C15.9026 10.4788 15.9226 10.8101 15.95 11.1387C15.9605 11.2772 15.8826 11.4083 15.733 11.4099C15.5835 11.4115 15.5097 11.283 15.4997 11.1466C15.4797 10.8728 15.466 10.5984 15.4286 10.3266C15.2296 8.89422 14.0873 7.70878 12.6617 7.45495C12.4474 7.4165 12.2278 7.4065 12.0103 7.38385C11.8729 7.36963 11.6943 7.36121 11.6627 7.19005C11.6369 7.04681 11.7581 6.93306 11.8945 6.92674C11.9313 6.92674 11.9687 6.92674 12.0061 6.92674C13.9272 6.97729 11.9671 6.92358 12.004 6.92358Z" fill="white"/>
<path d="M14.9262 10.7121C14.9233 10.7571 14.917 10.8019 14.9073 10.8459C14.8546 11.0392 14.5634 11.0634 14.496 10.8685C14.4782 10.8083 14.4704 10.7455 14.4728 10.6827C14.4789 10.274 14.3774 9.87103 14.1784 9.51406C13.9648 9.14564 13.6476 8.84807 13.2663 8.6583C13.0362 8.54897 12.7914 8.47375 12.5396 8.43501C12.43 8.4171 12.3194 8.40604 12.2094 8.39077C12.1806 8.38931 12.1524 8.38195 12.1266 8.36915C12.1007 8.35636 12.0778 8.33839 12.0592 8.31638C12.0406 8.29436 12.0267 8.26875 12.0184 8.24115C12.01 8.21355 12.0075 8.18453 12.0108 8.15589C12.011 8.12687 12.0173 8.09821 12.0293 8.07178C12.0413 8.04535 12.0587 8.02173 12.0804 8.00246C12.1021 7.98319 12.1276 7.9687 12.1553 7.95993C12.1829 7.95116 12.2121 7.94831 12.241 7.95156C12.6797 7.96814 13.1096 8.0801 13.5007 8.27965C14.2985 8.70095 14.754 9.36924 14.8873 10.2598C14.8931 10.3003 14.9031 10.3398 14.9062 10.3804C14.9136 10.4804 14.9183 10.5805 14.9262 10.7121C14.9189 10.58 14.9231 10.7358 14.9262 10.7121Z" fill="white"/>
<path d="M13.7304 10.6653C13.5698 10.6679 13.4834 10.5789 13.4671 10.4314C13.4585 10.3282 13.4434 10.2257 13.4218 10.1244C13.3779 9.92529 13.2651 9.74808 13.1032 9.62412C13.0246 9.56756 12.9367 9.52515 12.8435 9.49878C12.7256 9.46455 12.6029 9.47403 12.4854 9.44612C12.4569 9.44116 12.4297 9.43063 12.4053 9.41512C12.3809 9.39961 12.3598 9.37944 12.3432 9.35576C12.3266 9.33207 12.3149 9.30535 12.3087 9.27712C12.3024 9.24888 12.3018 9.2197 12.3069 9.19123C12.3178 9.13581 12.3486 9.0863 12.3936 9.05205C12.4385 9.0178 12.4944 9.00118 12.5507 9.00533C13.2964 9.058 13.8289 9.44454 13.9052 10.3219C13.9148 10.3837 13.9148 10.4466 13.9052 10.5083C13.8981 10.5499 13.8773 10.588 13.8463 10.6166C13.8152 10.6451 13.7756 10.6626 13.7335 10.6663C13.5698 10.6684 13.8036 10.6605 13.7304 10.6653Z" fill="white"/>
</svg>
