<svg width="22" height="13" viewBox="0 0 22 13" fill="none" xmlns="http://www.w3.org/2000/svg">
<path d="M10.7811 12.4219H12.0041C12.1084 12.4196 12.211 12.3952 12.3052 12.3504C12.3993 12.3055 12.483 12.2413 12.5505 12.1619C12.6557 11.9969 12.7115 11.8053 12.7113 11.6097C12.7113 11.6097 12.6791 9.95302 13.4505 9.69298C14.1898 9.46573 15.1564 11.3172 16.2184 12.032C16.6271 12.3045 17.1115 12.441 17.6024 12.4219H20.3381C20.531 12.4219 21.7222 12.2596 21.1095 11.1548C21.0453 11.0584 20.7238 10.3101 19.0498 8.75088C17.3119 7.1267 17.5693 7.38641 19.6284 4.59288C20.8836 2.90377 21.3664 1.86427 21.2378 1.41074C21.1414 1.05331 20.1449 1.11824 20.1449 1.11824H17.0573C16.9252 1.10085 16.7909 1.12323 16.6716 1.18252C16.5588 1.26636 16.4701 1.37845 16.4144 1.50749C16.0999 2.35155 15.7127 3.16674 15.2573 3.94391C13.8732 6.31541 13.3261 6.44527 13.1008 6.28295C12.5865 5.92552 12.7151 4.91849 12.7151 4.17149C12.7151 1.86491 13.0687 0.922808 12.0401 0.663094C11.5675 0.541858 11.0783 0.498432 10.5918 0.534522C9.4989 0.534522 8.56418 0.534522 8.01679 0.794558C7.66322 0.956879 7.40608 1.34677 7.56679 1.37924C7.91271 1.41434 8.23335 1.57638 8.46679 1.83406C8.78822 2.25641 8.78822 3.26345 8.78822 3.26345C8.78822 3.26345 8.98108 5.95959 8.37036 6.28488C7.95251 6.51213 7.37393 6.05763 6.14961 3.91338C5.72905 3.17247 5.36377 2.40152 5.05676 1.60681C4.99699 1.47099 4.90938 1.34922 4.79961 1.24938C4.66223 1.1373 4.49415 1.0694 4.31747 1.05459H1.38315C1.38315 1.05459 0.93315 1.02245 0.772435 1.28184C0.736901 1.36387 0.718567 1.45232 0.718567 1.54172C0.718567 1.63111 0.736901 1.71956 0.772435 1.80159C0.772435 1.80159 3.08897 7.25656 5.6964 9.98581C8.07818 12.617 10.7817 12.4222 10.7817 12.4222L10.7811 12.4219Z" fill="white"/>
</svg>
