<svg width="270" height="240" viewBox="0 0 270 240" fill="none" xmlns="http://www.w3.org/2000/svg">
<g clip-path="url(#clip0)">
<path d="M249.384 180.924C242.204 179.36 255.355 176.161 255.355 176.161C255.355 176.161 198.199 178.578 195.853 176.161C193.436 173.744 213.839 172.535 213.839 172.535C213.839 172.535 216.611 168.128 218.602 167.346C220.592 166.564 225 168.554 227.417 168.554C229.834 168.554 228.625 165.355 232.18 163.365C235.805 161.374 238.578 165.782 242.204 164.573C245.829 163.365 242.63 156.185 250.166 150.995C257.772 145.806 262.535 154.976 262.535 154.976C264.526 155.758 266.872 155.9 269.218 156.398C264.526 136.848 242.488 122.915 241.848 108.554C241.137 92.417 253.009 79.6208 240.355 54.8104C227.701 29.9288 223.223 42.725 197.915 27.2274C197.915 27.2274 183.768 5.68714 163.72 4.40752C143.602 3.0568 136.208 11.1611 115.379 13.7914C94.5496 16.4217 75.924 9.73927 50.6159 23.8862C25.3789 37.962 31.3505 52.0378 32.0614 64.834C32.7723 77.6303 11.9429 99.0995 9.73914 118.578C7.53535 138.057 21.6112 142.749 23.1041 156.896C24.597 171.043 -10.3793 183.768 2.98559 206.659C5.61592 211.137 8.67279 214.265 11.9429 216.398C13.9335 211.208 18.9098 207.512 24.8102 207.512C32.3458 207.512 38.4595 213.554 38.5306 221.09C43.2226 215.9 50.0472 212.559 57.6538 212.559C71.8718 212.559 83.3884 224.076 83.3884 238.294C83.3884 238.436 83.3884 238.649 83.3884 238.791C84.8813 238.294 86.5164 238.009 88.2225 238.009C90.924 238.009 93.4832 238.72 95.7581 239.929C97.9619 231.469 105.64 225.284 114.739 225.284C114.81 225.284 114.952 225.284 115.024 225.284V167.63H132.227V231.469C133.72 230.758 135.355 230.403 137.061 230.403C137.346 230.403 137.63 230.403 137.843 230.474V167.701H155.118V235.45C157.109 233.957 159.526 233.033 162.227 233.033C163.862 233.033 165.355 233.389 166.777 233.957C170.545 228.768 176.73 225.426 183.625 225.426C192.441 225.426 200.047 230.9 203.033 238.72C204.739 238.08 206.587 237.654 208.578 237.654C210.426 237.654 212.133 238.009 213.768 238.578C213.057 236.303 212.63 233.815 212.63 231.256C212.63 217.891 223.436 207.085 236.801 207.085C237.441 207.085 238.009 207.085 238.649 207.156C237.654 205.379 237.085 203.389 237.085 201.256C237.085 194.644 242.417 189.313 249.028 189.313C252.014 189.313 254.787 190.45 256.848 192.227C259.976 188.886 262.891 185.545 265.166 181.706C258.483 181.706 252.156 181.564 249.384 180.924ZM66.1135 115.521C61.2794 114.455 70.1657 112.322 70.1657 112.322C70.1657 112.322 63.9808 112.607 56.5164 112.82C56.6586 114.171 55.45 115.806 55.45 115.806C55.45 115.806 43.7913 116.374 41.1609 115.806C38.5306 115.237 43.3647 114.028 43.3647 114.028C43.3647 114.028 22.5354 114.881 21.6823 114.028C20.8292 113.175 28.2226 112.749 28.2226 112.749C28.2226 112.749 29.2178 111.114 29.9998 110.829C30.4974 110.616 31.4216 110.9 32.2036 111.114C32.7012 110.971 33.1989 110.9 33.8387 110.829C34.0519 110.403 34.1941 109.834 34.9761 109.408C36.2557 108.697 37.3221 110.261 38.6017 109.834C39.8813 109.408 38.7439 106.777 41.5164 104.858C44.2889 102.938 45.9951 106.28 45.9951 106.28H46.0662C47.559 106.137 50.0472 107.204 51.469 107.204C53.1041 107.204 52.251 105.071 54.668 103.72C57.0851 102.37 58.9335 105.355 61.3505 104.502C63.7676 103.72 61.6349 98.8862 66.6823 95.4028C71.8008 91.9194 74.9998 98.1042 74.9998 98.1042C77.7012 99.1705 81.1846 98.3885 84.0993 101.588C87.014 104.787 83.5306 105.853 84.8813 107.488C86.232 109.123 92.4169 106.137 93.9809 108.839C95.6159 111.54 92.3458 115.521 92.3458 115.521C92.3458 115.521 70.9477 116.588 66.1135 115.521ZM94.8339 224.36C91.3505 224.36 88.4358 221.517 88.4358 217.962C88.4358 214.479 91.2794 211.564 94.8339 211.564C98.3173 211.564 101.232 214.408 101.232 217.962C101.232 221.517 98.3884 224.36 94.8339 224.36ZM107.559 194.787C108.839 194.787 109.834 195.782 109.834 197.062C109.834 198.341 108.839 199.336 107.559 199.336C106.279 199.336 105.284 198.341 105.284 197.062C105.284 195.782 106.279 194.787 107.559 194.787ZM106.777 219.242C104.787 219.242 103.223 217.678 103.223 215.687C103.223 213.697 104.787 212.133 106.777 212.133C108.768 212.133 110.332 213.697 110.332 215.687C110.403 217.678 108.768 219.242 106.777 219.242ZM163.862 231.967C162.156 231.967 160.805 230.616 160.805 228.91C160.805 227.204 162.156 225.853 163.862 225.853C165.569 225.853 166.919 227.204 166.919 228.91C166.919 230.616 165.497 231.967 163.862 231.967ZM162.796 220.806C159.668 220.806 157.18 218.317 157.18 215.189C157.18 212.062 159.668 209.573 162.796 209.573C165.924 209.573 168.412 212.062 168.412 215.189C168.412 218.317 165.924 220.806 162.796 220.806ZM179.858 217.749C178.294 217.749 177.085 216.469 177.085 214.976C177.085 213.412 178.365 212.204 179.858 212.204C181.351 212.204 182.63 213.483 182.63 214.976C182.701 216.469 181.422 217.749 179.858 217.749Z" fill="#2B2B2B"/>
<path opacity="0.1" d="M196.99 28.4361C196.99 28.4361 192.014 18.9101 184.194 24.3129C176.374 29.6447 179.644 37.1091 175.948 38.3177C172.251 39.5262 169.336 35.0475 165.64 37.1091C161.943 39.1707 163.152 42.4409 160.663 42.4409C158.175 42.4409 153.625 40.3793 151.564 41.2323C149.502 42.0854 146.588 46.5641 146.588 46.5641C146.588 46.5641 125.545 47.7726 128.033 50.2608C130.521 52.7489 189.526 50.2608 189.526 50.2608C189.526 50.2608 175.877 53.5309 183.341 55.2371C190.806 56.8722 223.791 55.2371 223.791 55.2371C223.791 55.2371 228.768 49.0523 226.28 44.929C223.791 40.8058 214.336 45.3556 212.275 42.8674C210.213 40.3793 215.545 38.7442 211.066 33.7679C206.516 28.8627 201.114 30.1423 196.99 28.4361Z" fill="white" stroke="#263238" stroke-miterlimit="10" stroke-linecap="round" stroke-linejoin="round"/>
<path opacity="0.1" d="M226.991 48.1989C226.92 47.9146 226.92 47.7013 226.991 47.4169C226.991 46.5638 226.777 45.7819 226.28 44.9999C223.792 40.8766 214.337 45.4264 212.275 42.9383C210.213 40.4501 215.545 38.815 211.066 33.8387C208.01 30.4975 204.526 29.9288 201.327 29.4312C200.687 29.7155 200.048 29.9999 199.408 30.4975C191.588 35.8293 194.858 43.2937 191.161 44.5022C187.465 45.7108 184.55 41.2321 180.853 43.2937C177.156 45.3553 178.365 48.6255 175.877 48.6255C173.389 48.6255 168.839 46.5638 166.777 47.4169C165.498 47.9146 163.934 49.834 162.938 51.1847C176.872 50.8293 189.597 50.3316 189.597 50.3316C189.597 50.3316 175.948 53.6018 183.412 55.3079C190.877 56.943 223.863 55.3079 223.863 55.3079C223.863 55.3079 226.706 51.6823 226.991 48.1989Z" fill="white"/>
<path opacity="0.1" d="M64.3363 144.74C64.3363 144.74 61.2795 138.839 56.4453 142.18C51.6112 145.522 53.6017 150.071 51.3269 150.853C49.052 151.635 47.2747 148.792 44.9288 150.071C42.6539 151.351 43.3648 153.413 41.8719 153.413C40.3079 153.413 37.5354 152.133 36.2558 152.631C34.9761 153.128 33.1989 155.972 33.1989 155.972C33.1989 155.972 20.1894 156.754 21.6823 158.247C23.2463 159.811 59.7155 158.247 59.7155 158.247C59.7155 158.247 51.2558 160.308 55.8766 161.304C60.4975 162.299 80.9003 161.304 80.9003 161.304C80.9003 161.304 83.9572 157.465 82.4643 154.905C80.9003 152.346 75.0709 155.19 73.7913 153.626C72.5117 152.062 75.8529 151.067 73.0093 148.01C70.1657 145.024 66.8956 145.735 64.3363 144.74Z" fill="white" stroke="#263238" stroke-miterlimit="10" stroke-linecap="round" stroke-linejoin="round"/>
<path opacity="0.1" d="M80.9003 161.374C80.9003 161.374 83.9572 157.535 82.4643 154.976C80.9003 152.417 75.071 155.26 73.7913 153.697C72.5117 152.133 75.8529 151.137 73.0093 148.08C70.3079 145.166 67.1089 145.734 64.6207 144.881C61.2795 148.365 62.7724 152.559 60.6397 153.341C58.3648 154.194 56.5876 151.137 54.2416 152.488C51.9667 153.91 52.6776 156.114 51.1847 156.114C49.6207 156.114 46.8482 154.692 45.5686 155.26C44.3601 155.758 42.6539 158.602 42.5117 158.815C51.398 158.602 59.7155 158.246 59.7155 158.246C59.7155 158.246 51.2558 160.308 55.8766 161.303C56.7297 161.516 58.0804 161.587 59.7866 161.659C65.1184 161.445 69.0994 161.303 69.0994 161.303C69.0994 161.303 68.4596 161.445 67.6776 161.73C74.289 161.659 80.9003 161.374 80.9003 161.374Z" fill="white"/>
<path opacity="0.1" d="M98.4594 18.199C98.4594 18.199 95.4025 12.2986 90.5684 15.6398C85.7343 18.981 87.7248 23.5308 85.4499 24.3128C83.175 25.0948 81.3978 22.2512 79.0518 23.5308C76.7769 24.8104 77.4878 26.872 75.9949 26.872C74.4309 26.872 71.6584 25.5924 70.3788 26.09C69.0992 26.5877 67.3219 29.4313 67.3219 29.4313C67.3219 29.4313 54.3125 30.2133 55.8054 31.7061C57.3693 33.2701 93.8385 31.7061 93.8385 31.7061C93.8385 31.7061 85.3788 33.7678 89.9997 34.763C94.6205 35.7583 115.023 34.763 115.023 34.763C115.023 34.763 118.08 30.9242 116.587 28.3649C115.023 25.8057 109.194 28.6493 107.914 27.0853C106.635 25.5213 109.976 24.5261 107.132 21.4692C104.289 18.4834 101.019 19.1943 98.4594 18.199Z" fill="white" stroke="#263238" stroke-miterlimit="10" stroke-linecap="round" stroke-linejoin="round"/>
<path opacity="0.1" d="M115.023 34.834C115.023 34.834 118.08 30.9952 116.587 28.4359C115.023 25.8767 109.194 28.7203 107.914 27.1563C106.635 25.5923 109.976 24.5971 107.132 21.5402C104.786 18.9809 102.156 19.1231 99.8811 18.6255C95.2603 21.9667 97.1797 26.4454 94.9048 27.2274C92.6299 28.0094 90.8527 25.1658 88.5067 26.4454C86.2318 27.725 86.9427 29.7866 85.4498 29.7866C83.8859 29.7866 81.1134 28.507 79.8337 29.0046C78.5541 29.5023 76.7769 32.3459 76.7769 32.3459C85.592 32.1326 93.9096 31.7771 93.9096 31.7771C93.9096 31.7771 85.4498 33.8388 90.0707 34.834C90.4261 34.9051 90.8527 34.9762 91.3503 35.0473C98.0328 34.834 103.365 34.6207 103.365 34.6207C103.365 34.6207 102.227 34.9051 101.09 35.2606C107.843 35.1895 115.023 34.834 115.023 34.834Z" fill="white"/>
<path opacity="0.1" d="M231.873 85.3372C231.873 85.3372 228.816 79.4367 223.982 82.778C219.148 86.1192 221.138 90.669 218.863 91.451C216.589 92.233 214.811 89.3894 212.465 90.669C210.19 91.9486 210.901 94.0102 209.409 94.0102C207.845 94.0102 205.072 92.7306 203.792 93.2282C202.513 93.7258 200.736 96.5694 200.736 96.5694C200.736 96.5694 187.726 97.3514 189.219 98.8443C190.783 100.408 227.252 98.8443 227.252 98.8443C227.252 98.8443 218.792 100.906 223.413 101.901C228.034 102.896 248.437 101.901 248.437 101.901C248.437 101.901 251.494 98.0623 250.001 95.5031C248.437 92.9439 242.608 95.7875 241.328 94.2235C240.048 92.6595 243.39 91.6642 240.546 88.6074C237.773 85.5505 234.432 86.3325 231.873 85.3372Z" fill="white" stroke="#263238" stroke-miterlimit="10" stroke-linecap="round" stroke-linejoin="round"/>
<path opacity="0.1" d="M248.508 101.901C248.508 101.901 251.565 98.0626 250.072 95.5034C248.508 92.9441 242.679 95.7877 241.399 94.2238C240.19 92.7309 243.247 91.7356 240.83 88.892C240.546 88.8209 240.261 88.7498 239.977 88.6076C239.977 88.6076 239.693 88.0389 239.124 87.328C237.062 85.9773 234.788 86.0484 232.868 85.5508C232.584 85.693 232.37 85.8351 232.086 86.0484C227.252 89.3896 229.243 93.9394 226.968 94.7214C224.693 95.5034 222.916 92.6598 220.57 93.9394C218.295 95.219 219.006 97.2806 217.513 97.2806C215.949 97.2806 213.176 96.001 211.897 96.4986C210.972 96.8541 209.693 98.5603 209.124 99.3422C218.366 99.129 227.323 98.7735 227.323 98.7735C227.323 98.7735 218.863 100.835 223.484 101.83C224.764 102.115 227.323 102.257 230.309 102.257C233.366 102.115 235.427 102.044 235.427 102.044C235.427 102.044 235.143 102.115 234.716 102.257C241.399 102.257 248.508 101.901 248.508 101.901Z" fill="white"/>
<path d="M126.611 40.0239V42.6543" stroke="white" stroke-miterlimit="10" stroke-linecap="round" stroke-linejoin="round"/>
<path d="M167.417 121.209L191.588 168.839C192.37 170.403 191.232 172.181 189.526 172.181H157.109C155.261 172.181 153.839 170.688 153.839 168.91V122.346L167.417 121.209Z" fill="#263238" stroke="#263238" stroke-miterlimit="10" stroke-linecap="round" stroke-linejoin="round"/>
<path d="M186.114 172.18L160.521 121.849L153.839 122.417V168.981C153.839 170.83 155.332 172.251 157.109 172.251H186.114V172.18Z" fill="white" stroke="black" stroke-miterlimit="10"/>
<path d="M103.294 121.209L79.1234 168.839C78.3414 170.403 79.4788 172.181 81.185 172.181H113.531C115.379 172.181 116.801 170.688 116.801 168.91V122.346L103.294 121.209Z" fill="#263238" stroke="#263238" stroke-miterlimit="10" stroke-linecap="round" stroke-linejoin="round"/>
<path d="M84.5975 172.18L110.19 121.849L116.872 122.417V168.981C116.872 170.83 115.379 172.251 113.602 172.251H84.5975C84.5264 172.251 84.5975 172.18 84.5975 172.18Z" fill="white" stroke="black" stroke-miterlimit="10"/>
<path d="M110.19 121.849L90.6401 160.308C97.4648 155.403 106.422 150.498 116.872 148.152V122.417L110.19 121.849Z" fill="#FFA200"/>
<path d="M124.123 152.773L115.521 167.702H132.725L124.123 152.773Z" fill="#FFA200" stroke="#263238" stroke-miterlimit="10" stroke-linecap="round" stroke-linejoin="round"/>
<path d="M146.73 152.773L138.057 167.702H155.332L146.73 152.773Z" fill="#FFA200" stroke="#263238" stroke-miterlimit="10" stroke-linecap="round" stroke-linejoin="round"/>
<path d="M133.01 167.56H115.166V170.759H133.01V167.56Z" fill="#263238" stroke="#263238" stroke-miterlimit="10" stroke-linecap="round" stroke-linejoin="round"/>
<path d="M155.545 167.56H137.702V170.759H155.545V167.56Z" fill="#263238" stroke="#263238" stroke-miterlimit="10" stroke-linecap="round" stroke-linejoin="round"/>
<path d="M138.412 1.77746C136.777 -0.141967 133.792 -0.141967 132.157 1.77746C123.981 11.2324 102.441 38.3888 102.441 64.0523V139.052L114.313 160.664H156.469L168.341 139.052V64.0523C168.341 38.3888 146.659 11.1613 138.412 1.77746Z" fill="white" stroke="black" stroke-miterlimit="10"/>
<path d="M135.142 3.34163C135.142 1.99092 131.374 9.953 128.673 13.4364C128.744 13.1521 128.744 12.8677 128.815 12.5833C128.815 12.5833 112.962 32.7729 108.199 51.8251C108.199 51.8251 107.488 54.3843 106.99 57.7966C106.635 60.2137 106.208 113.602 105.995 145.593L114.313 160.735H133.578H134.858C134.431 159.171 135.569 151.991 135.071 150.143C135.142 108.768 135.142 5.97196 135.142 3.34163Z" fill="#FFA200"/>
<path d="M110.047 137.702C110.636 137.702 111.114 137.224 111.114 136.635C111.114 136.046 110.636 135.569 110.047 135.569C109.458 135.569 108.981 136.046 108.981 136.635C108.981 137.224 109.458 137.702 110.047 137.702Z" stroke="#263238" stroke-miterlimit="10" stroke-linecap="round" stroke-linejoin="round"/>
<path d="M115.806 137.702C116.395 137.702 116.872 137.224 116.872 136.635C116.872 136.046 116.395 135.569 115.806 135.569C115.217 135.569 114.739 136.046 114.739 136.635C114.739 137.224 115.217 137.702 115.806 137.702Z" stroke="#263238" stroke-miterlimit="10" stroke-linecap="round" stroke-linejoin="round"/>
<path d="M121.564 137.702C122.153 137.702 122.63 137.224 122.63 136.635C122.63 136.046 122.153 135.569 121.564 135.569C120.975 135.569 120.498 136.046 120.498 136.635C120.498 137.224 120.975 137.702 121.564 137.702Z" stroke="#263238" stroke-miterlimit="10" stroke-linecap="round" stroke-linejoin="round"/>
<path d="M127.322 137.702C127.911 137.702 128.389 137.224 128.389 136.635C128.389 136.046 127.911 135.569 127.322 135.569C126.733 135.569 126.256 136.046 126.256 136.635C126.256 137.224 126.733 137.702 127.322 137.702Z" stroke="#263238" stroke-miterlimit="10" stroke-linecap="round" stroke-linejoin="round"/>
<path d="M143.247 137.702C143.835 137.702 144.313 137.224 144.313 136.635C144.313 136.046 143.835 135.569 143.247 135.569C142.658 135.569 142.18 136.046 142.18 136.635C142.18 137.224 142.658 137.702 143.247 137.702Z" stroke="#263238" stroke-miterlimit="10" stroke-linecap="round" stroke-linejoin="round"/>
<path d="M149.005 137.702C149.594 137.702 150.071 137.224 150.071 136.635C150.071 136.046 149.594 135.569 149.005 135.569C148.416 135.569 147.938 136.046 147.938 136.635C147.938 137.224 148.416 137.702 149.005 137.702Z" stroke="#263238" stroke-miterlimit="10" stroke-linecap="round" stroke-linejoin="round"/>
<path d="M154.763 137.702C155.352 137.702 155.829 137.224 155.829 136.635C155.829 136.046 155.352 135.569 154.763 135.569C154.174 135.569 153.697 136.046 153.697 136.635C153.697 137.224 154.174 137.702 154.763 137.702Z" stroke="#263238" stroke-miterlimit="10" stroke-linecap="round" stroke-linejoin="round"/>
<path d="M160.593 137.702C161.182 137.702 161.659 137.224 161.659 136.635C161.659 136.046 161.182 135.569 160.593 135.569C160.004 135.569 159.526 136.046 159.526 136.635C159.526 137.224 160.004 137.702 160.593 137.702Z" stroke="#263238" stroke-miterlimit="10" stroke-linecap="round" stroke-linejoin="round"/>
<path d="M106.28 67.9619V138.27" stroke="#263238" stroke-miterlimit="10" stroke-linecap="round" stroke-linejoin="round"/>
<path d="M112.678 39.4551C109.55 46.3508 107.204 53.7442 106.493 61.1375" stroke="#263238" stroke-miterlimit="10" stroke-linecap="round" stroke-linejoin="round"/>
<path d="M138.626 6.61135C137.133 4.76301 134.431 4.76301 132.938 6.61135C129.1 11.4455 121.991 21.0426 116.019 32.7014" stroke="#263238" stroke-miterlimit="10" stroke-linecap="round" stroke-linejoin="round"/>
<path d="M135.426 173.815C134.644 173.815 134.005 173.175 134.005 172.393L132.512 122.559C132.512 120.924 133.791 119.645 135.426 119.645C137.061 119.645 138.341 120.924 138.341 122.559L136.848 172.393C136.848 173.175 136.208 173.815 135.426 173.815Z" fill="#263238" stroke="#263238" stroke-miterlimit="10" stroke-linecap="round" stroke-linejoin="round"/>
<path d="M135.427 199.266V202.607" stroke="#263238" stroke-miterlimit="10" stroke-linecap="round" stroke-linejoin="round"/>
<path d="M132.157 1.77746C128.744 5.68742 123.128 12.5832 117.654 21.114H152.986C147.512 12.5832 141.825 5.68742 138.413 1.77746C136.778 -0.141967 133.863 -0.141967 132.157 1.77746Z" fill="#263238" stroke="#263238" stroke-miterlimit="10" stroke-linecap="round" stroke-linejoin="round"/>
<path d="M126.683 20.1185C127.271 20.1185 127.749 19.6411 127.749 19.0522C127.749 18.4633 127.271 17.9858 126.683 17.9858C126.094 17.9858 125.616 18.4633 125.616 19.0522C125.616 19.6411 126.094 20.1185 126.683 20.1185Z" fill="white"/>
<path d="M133.507 19.0522C133.507 19.6209 133.01 20.1185 132.441 20.1185C131.872 20.1185 131.375 19.6209 131.375 19.0522C131.375 18.4835 131.872 17.9858 132.441 17.9858C133.01 17.9858 133.507 18.4835 133.507 19.0522Z" fill="white"/>
<path d="M138.199 20.1185C138.788 20.1185 139.266 19.6411 139.266 19.0522C139.266 18.4633 138.788 17.9858 138.199 17.9858C137.61 17.9858 137.133 18.4633 137.133 19.0522C137.133 19.6411 137.61 20.1185 138.199 20.1185Z" fill="white"/>
<path d="M143.957 20.1185C144.546 20.1185 145.024 19.6411 145.024 19.0522C145.024 18.4633 144.546 17.9858 143.957 17.9858C143.369 17.9858 142.891 18.4633 142.891 19.0522C142.891 19.6411 143.369 20.1185 143.957 20.1185Z" fill="white"/>
<path d="M124.052 19.1945C124.052 19.1945 131.232 7.74904 134.076 4.26562" stroke="white" stroke-miterlimit="10" stroke-linecap="round" stroke-linejoin="round"/>
<path d="M156.469 160.664L168.341 138.981H102.441L114.313 160.664H156.469Z" fill="#263238" stroke="#263238" stroke-miterlimit="10" stroke-linecap="round" stroke-linejoin="round"/>
<path d="M116.091 148.934C115.877 149.005 115.806 149.218 115.877 149.432L116.944 151.92C117.015 152.062 117.157 152.133 117.299 152.133C117.37 152.133 117.37 152.133 117.441 152.133C117.654 152.062 117.726 151.849 117.654 151.635L116.588 149.147C116.517 148.934 116.304 148.863 116.091 148.934Z" fill="white"/>
<path d="M117.939 144.669C118.01 144.811 118.152 144.882 118.294 144.882C118.365 144.882 118.365 144.882 118.436 144.882C118.649 144.811 118.721 144.598 118.649 144.384L116.303 138.981H115.521L117.939 144.669Z" fill="white"/>
<path d="M151.92 150.782C151.991 150.782 151.991 150.782 152.062 150.782C152.204 150.782 152.346 150.711 152.417 150.569L157.82 138.981H157.038L151.778 150.285C151.635 150.498 151.706 150.711 151.92 150.782Z" fill="white"/>
<path d="M117.228 160.024C117.299 160.166 117.441 160.237 117.583 160.237C117.654 160.237 117.654 160.237 117.725 160.237C117.939 160.166 118.01 159.953 117.939 159.74L108.91 138.981H108.057L117.228 160.024Z" fill="white"/>
<path d="M161.872 138.981L152.488 158.105C152.417 158.247 152.488 158.46 152.631 158.602C152.702 158.602 152.702 158.673 152.773 158.673C152.915 158.673 153.057 158.602 153.057 158.46L162.583 138.981H161.872Z" fill="white"/>
<path d="M115.237 147.797C115.308 147.939 115.45 148.01 115.593 148.01C115.664 148.01 115.664 148.01 115.735 148.01C115.948 147.939 116.019 147.726 115.948 147.512L112.323 138.981H111.541L115.237 147.797Z" fill="white"/>
<path d="M169.834 77.2036V79.5496" stroke="#263238" stroke-miterlimit="10" stroke-linecap="round" stroke-linejoin="round"/>
<path d="M169.834 63.4121V75.6396" stroke="#263238" stroke-miterlimit="10" stroke-linecap="round" stroke-linejoin="round"/>
<path d="M171.185 89.1465V98.8858" stroke="#263238" stroke-miterlimit="10" stroke-linecap="round" stroke-linejoin="round"/>
<path d="M170.971 66.6825V87.4408C170.971 87.4408 171.54 87.4408 171.753 85.9479C172.038 84.455 171.469 81.4692 172.18 80.2607C172.82 79.0522 173.815 78.2702 174.17 76.9906C174.597 75.782 173.246 74.8579 173.744 72.7962C174.312 70.8057 176.587 71.8721 176.161 69.1707C175.948 67.7489 174.384 67.2512 173.246 66.6114C172.891 66.3981 172.535 66.1849 172.393 65.8294C172.18 65.2607 172.891 63.9811 172.393 63.6256C171.824 63.1991 171.185 63.8389 170.971 64.3365C170.758 65.0474 170.971 65.9716 170.971 66.6825Z" fill="white" stroke="#263238" stroke-miterlimit="10"/>
<path d="M80.8296 185.047V211.777" stroke="#263238" stroke-miterlimit="10" stroke-linecap="round" stroke-linejoin="round"/>
<path d="M80.9005 173.389V183.768C80.9005 183.768 80.6161 183.768 80.4739 183.057C80.3317 182.346 80.6161 180.853 80.2606 180.213C79.9052 179.573 79.4786 179.218 79.2654 178.578C79.0521 177.938 79.763 177.512 79.4786 176.516C79.1943 175.521 78.0568 176.019 78.2701 174.668C78.4123 173.957 79.1943 173.744 79.6919 173.389C79.8341 173.317 80.0474 173.175 80.1185 172.962C80.2606 172.678 79.9052 172.038 80.1185 171.825C80.4028 171.611 80.6872 171.967 80.8294 172.18C80.9715 172.607 80.9005 173.104 80.9005 173.389Z" fill="white" stroke="#263238" stroke-miterlimit="10"/>
<path d="M99.7393 67.4644V78.3411" stroke="#263238" stroke-miterlimit="10" stroke-linecap="round" stroke-linejoin="round"/>
<path d="M99.7393 80.7583V84.7393" stroke="#263238" stroke-miterlimit="10" stroke-linecap="round" stroke-linejoin="round"/>
<path d="M98.4595 104.005V107.986" stroke="#263238" stroke-miterlimit="10" stroke-linecap="round" stroke-linejoin="round"/>
<path d="M98.7439 68.2465V102.37C98.7439 102.37 98.1752 102.37 97.962 99.9527C97.6776 97.5356 98.2463 92.6304 97.5354 90.6399C96.8956 88.6493 95.9003 87.2986 95.5449 85.3081C95.1184 83.3176 96.4691 81.7536 95.9714 78.4124C95.4027 75.0711 93.1278 76.8484 93.5544 72.4408C93.7677 70.0948 95.3316 69.3128 96.4691 68.2465C96.8245 67.891 97.18 67.5356 97.3221 66.9669C97.5354 66.0427 96.8245 63.9811 97.3221 63.2702C97.8909 62.5593 98.5307 63.6967 98.7439 64.4787C98.8861 65.5451 98.7439 67.1801 98.7439 68.2465Z" fill="white" stroke="#263238" stroke-miterlimit="10"/>
<path d="M135.427 176.872V196.777" stroke="#263238" stroke-miterlimit="10" stroke-linecap="round" stroke-linejoin="round"/>
<path d="M102.156 162.156V164.502" stroke="#263238" stroke-miterlimit="10" stroke-linecap="round" stroke-linejoin="round"/>
<path d="M102.156 148.365V160.663" stroke="#263238" stroke-miterlimit="10" stroke-linecap="round" stroke-linejoin="round"/>
<path d="M100.806 174.17V197.061" stroke="#263238" stroke-miterlimit="10" stroke-linecap="round" stroke-linejoin="round"/>
<path d="M101.019 151.635V172.393C101.019 172.393 100.45 172.393 100.237 170.901C99.9525 169.408 100.521 166.422 99.8103 165.213C99.1705 164.005 98.1753 163.223 97.8198 161.943C97.3933 160.735 98.744 159.81 98.2463 157.749C97.6776 155.758 95.4027 156.825 95.8293 154.123C96.0426 152.701 97.6065 152.204 98.744 151.564C99.0994 151.351 99.4549 151.138 99.5971 150.782C99.8103 150.213 99.0994 148.934 99.5971 148.578C100.166 148.152 100.806 148.792 101.019 149.289C101.232 150 101.019 150.995 101.019 151.635Z" fill="white" stroke="#263238" stroke-miterlimit="10"/>
<path d="M189.242 185.047V195.995" stroke="#263238" stroke-miterlimit="10" stroke-linecap="round" stroke-linejoin="round"/>
<path d="M189.171 173.389V183.768C189.171 183.768 189.455 183.768 189.597 183.057C189.739 182.346 189.455 180.853 189.81 180.213C190.166 179.573 190.592 179.218 190.806 178.578C191.019 177.938 190.308 177.512 190.592 176.516C190.877 175.521 192.014 176.019 191.801 174.668C191.659 173.957 190.877 173.744 190.379 173.389C190.237 173.317 190.024 173.175 189.953 172.962C189.81 172.678 190.166 172.038 189.953 171.825C189.668 171.611 189.384 171.967 189.242 172.18C189.1 172.607 189.171 173.104 189.171 173.389Z" fill="white" stroke="#263238" stroke-miterlimit="10"/>
<path d="M167.133 171.754V174.1" stroke="#263238" stroke-miterlimit="10" stroke-linecap="round" stroke-linejoin="round"/>
<path d="M167.133 157.891V170.19" stroke="#263238" stroke-miterlimit="10" stroke-linecap="round" stroke-linejoin="round"/>
<path d="M168.483 183.697V223.792" stroke="#263238" stroke-miterlimit="10" stroke-linecap="round" stroke-linejoin="round"/>
<path d="M168.27 161.162V181.92C168.27 181.92 168.839 181.92 169.052 180.427C169.336 178.934 168.768 175.948 169.479 174.74C170.118 173.531 171.114 172.749 171.469 171.47C171.896 170.261 170.545 169.337 171.043 167.275C171.611 165.285 173.886 166.351 173.46 163.65C173.246 162.228 171.682 161.73 170.545 161.09C170.19 160.877 169.834 160.664 169.692 160.308C169.479 159.74 170.19 158.46 169.692 158.105C169.123 157.678 168.483 158.318 168.27 158.816C168.057 159.526 168.27 160.522 168.27 161.162Z" fill="white" stroke="#263238" stroke-miterlimit="10"/>
<path d="M137.63 61.9907H133.151L130.912 64.9765V67.4646L131.907 67.9622V69.9527L134.644 72.4409H135.64L138.625 69.9527V67.9622L139.621 67.4646V64.9765L137.63 61.9907Z" fill="white"/>
<path d="M143.393 65.3303C143.402 65.1574 143.393 64.9844 143.376 64.8201C143.333 64.5089 143.28 64.1976 143.228 63.8863C143.22 63.8258 143.185 63.7739 143.133 63.7479C142.29 63.2464 141.439 62.7449 140.597 62.2434C140.562 62.2174 140.501 62.1915 140.527 62.1483C140.554 62.105 140.606 62.1396 140.64 62.1483L143.037 62.7103C143.072 62.7276 143.107 62.7276 143.142 62.719C143.124 62.6844 143.089 62.6671 143.055 62.6498C141.778 61.8456 140.501 61.0415 139.225 60.2373C139.164 60.1941 139.094 60.1854 139.025 60.2114C137.818 60.6091 136.611 61.0069 135.404 61.4133C135.317 61.4392 135.23 61.4392 135.152 61.4133C133.944 61.0155 132.737 60.6178 131.53 60.2114C131.461 60.1854 131.391 60.1941 131.33 60.2373C130.054 61.0415 128.777 61.8456 127.5 62.6498C127.466 62.6671 127.431 62.693 127.405 62.719C127.431 62.7276 127.466 62.719 127.492 62.7103L129.229 62.3039L129.941 62.131C129.967 62.1223 130.002 62.1137 130.01 62.1396C130.019 62.1656 130.002 62.2001 129.976 62.2088L129.932 62.2347C129.116 62.719 128.291 63.2118 127.466 63.6961C127.37 63.7393 127.301 63.8344 127.283 63.9468C127.214 64.4051 127.118 64.8634 127.127 65.339C127.136 65.7626 127.118 66.1863 127.205 66.61C127.257 66.8522 127.275 67.1029 127.335 67.3537C127.431 67.7082 127.553 68.0454 127.709 68.374C127.83 68.642 127.961 68.8928 128.117 69.1436C128.134 69.1695 128.143 69.2041 128.187 69.2214C128.221 69.1954 128.247 69.1609 128.265 69.1263L129.124 67.9157C129.151 67.8811 129.168 67.8379 129.22 67.8465C129.272 67.8638 129.272 67.9157 129.272 67.9589V68.0022C129.263 68.2789 129.246 68.5556 129.237 68.8323C129.22 69.403 129.194 69.9823 129.177 70.553C129.177 70.6049 129.194 70.6481 129.229 70.6827C129.897 71.3572 130.566 72.0316 131.244 72.7061C131.261 72.7234 131.27 72.7493 131.313 72.7407C131.391 72.611 131.469 72.4726 131.556 72.3429C131.634 72.2132 131.713 72.0748 131.799 71.9538L131.825 71.9624V73.2249C131.817 73.3027 131.851 73.3805 131.912 73.4324C133.007 74.4527 134.092 75.4817 135.186 76.502C135.204 76.528 135.238 76.5539 135.265 76.5626L135.317 76.5193C136.42 75.4817 137.523 74.4441 138.634 73.4065C138.678 73.3632 138.704 73.3113 138.704 73.2508V72.0403C138.704 72.0143 138.686 71.9797 138.73 71.9538L139.216 72.7579C139.251 72.7407 139.277 72.7234 139.294 72.6974C139.963 72.0316 140.623 71.3572 141.292 70.6914C141.335 70.6568 141.353 70.6049 141.344 70.553C141.326 70.1898 141.318 69.818 141.3 69.4549C141.283 68.962 141.266 68.4778 141.248 67.9849C141.248 67.933 141.24 67.8725 141.3 67.8465C141.361 67.8206 141.379 67.8898 141.413 67.9244C141.7 68.3221 141.986 68.7199 142.273 69.1263C142.299 69.1609 142.325 69.1868 142.343 69.2214C142.369 69.2041 142.395 69.1782 142.403 69.1436C142.56 68.9015 142.69 68.642 142.812 68.3826C142.968 68.0541 143.089 67.7082 143.185 67.3537C143.246 67.1029 143.272 66.8521 143.315 66.6014C143.341 66.4544 143.367 66.2988 143.376 66.1518C143.402 65.8751 143.393 65.607 143.393 65.3303ZM136.246 71.7203C136.229 71.7203 136.22 71.703 136.194 71.6771C136.133 71.5993 136.081 71.5215 136.02 71.435C135.942 71.5042 135.872 71.582 135.803 71.6684C135.69 71.7981 135.577 71.9365 135.464 72.0662C135.464 72.0748 135.456 72.0748 135.447 72.0835C135.438 72.0921 135.438 72.0921 135.43 72.1008C135.421 72.1094 135.412 72.1094 135.404 72.1181C135.395 72.1181 135.386 72.1267 135.369 72.1267C135.36 72.1267 135.36 72.1267 135.351 72.1267H135.343C135.247 72.1267 135.152 72.1181 135.056 72.1267C135.004 72.1267 134.952 72.1094 134.917 72.0662C134.761 71.876 134.596 71.6857 134.44 71.5042C134.422 71.4869 134.405 71.4609 134.387 71.4436C134.292 71.5387 134.231 71.6512 134.153 71.7549C134.049 71.6512 133.936 71.5474 133.84 71.435C133.814 71.409 133.806 71.3745 133.806 71.3399V70.9248C133.806 70.8902 133.823 70.8556 133.849 70.847C133.849 70.847 133.858 70.847 133.858 70.8383C134.274 70.6049 134.7 70.3801 135.117 70.1466C135.134 70.138 135.152 70.1293 135.169 70.1207C135.186 70.1207 135.195 70.1207 135.212 70.1207C135.23 70.1207 135.256 70.1293 135.273 70.1466C135.69 70.3801 136.098 70.6049 136.515 70.8297C136.559 70.847 136.585 70.8902 136.576 70.9335V71.3226C136.576 71.3745 136.559 71.4263 136.515 71.4609C136.437 71.5387 136.368 71.6079 136.289 71.6857C136.281 71.6944 136.263 71.7117 136.246 71.7203C136.255 71.7203 136.246 71.7203 136.246 71.7203ZM139.294 66.1345C139.216 66.2728 139.147 66.4112 139.077 66.5495C139.051 66.5927 139.016 66.6273 138.982 66.6619C138.634 66.9386 138.295 67.2153 137.948 67.492C137.896 67.5266 137.87 67.5871 137.87 67.6477C137.87 67.8725 137.913 68.0886 137.931 68.3135C137.939 68.4691 137.983 68.6248 138.026 68.7718C138.026 68.7718 138.026 68.7718 138.026 68.7804C138.044 68.8409 138.061 68.9015 138.078 68.962C138.087 68.9966 138.096 69.0312 138.104 69.0571C138.122 69.1436 138.13 69.1436 138.044 69.1609L137.201 69.3424C137.14 69.3511 137.132 69.377 137.14 69.4376C137.14 69.4462 137.14 69.4549 137.149 69.4635C137.158 69.4721 137.166 69.4808 137.184 69.4808H137.245L138 69.4894C138.026 69.4894 138.044 69.4894 138.07 69.4981C138.096 69.5067 138.122 69.524 138.13 69.55L138.139 69.5586C138.139 69.5673 138.148 69.5673 138.148 69.5759C138.157 69.6105 138.157 69.6451 138.148 69.671C138.122 69.8007 138.061 69.9218 137.974 70.0169C137.939 70.0515 137.896 70.0774 137.844 70.0774C137.592 70.0774 137.349 70.0255 137.123 69.9218L137.088 69.9045C137.054 69.8872 137.01 69.8699 137.001 69.9045C136.984 69.9304 136.984 69.9564 136.993 69.9823C136.993 69.9823 136.993 69.991 137.001 69.991C137.001 69.9996 137.01 70.0083 137.019 70.0083C137.088 70.0688 137.149 70.1466 137.262 70.1466C137.279 70.1466 137.314 70.1725 137.34 70.1985C137.358 70.2158 137.366 70.2331 137.384 70.2504C137.384 70.2504 137.384 70.2504 137.384 70.259C137.392 70.2677 137.392 70.285 137.392 70.2936C137.375 70.3628 137.314 70.4233 137.245 70.4406H136.758C136.715 70.4406 136.671 70.4233 136.645 70.3801C136.602 70.3195 136.533 70.285 136.454 70.2936C136.402 70.2936 136.359 70.285 136.315 70.2504C136.202 70.1812 136.09 70.1034 135.977 70.0342C135.881 69.965 135.786 69.8872 135.699 69.8007C135.638 69.7488 135.586 69.697 135.534 69.6451C135.516 69.6364 135.508 69.6191 135.499 69.6105C135.482 69.5846 135.482 69.5586 135.499 69.524C135.534 69.4376 135.569 69.3424 135.595 69.256C135.612 69.2214 135.629 69.1868 135.655 69.1609C135.725 69.083 135.786 69.0139 135.846 68.936C135.881 68.8928 135.925 68.8582 135.968 68.8323C136.298 68.6507 136.628 68.4605 136.958 68.2789C136.975 68.2616 136.993 68.2529 137.019 68.2443C137.054 68.2356 137.071 68.2011 137.062 68.1665C137.062 68.1578 137.062 68.1492 137.062 68.1492V68.1405C137.054 68.1232 137.028 68.1232 137.01 68.1146C136.906 68.08 136.793 68.0541 136.689 68.0541C136.498 68.0454 136.298 68.08 136.133 68.1751C135.864 68.3135 135.586 68.4432 135.308 68.5729C135.247 68.6075 135.178 68.6075 135.126 68.5729C134.778 68.4086 134.44 68.2443 134.092 68.08C134.075 68.0627 134.049 68.0627 134.031 68.0541C133.832 68.0627 133.623 68.0195 133.423 68.1059C133.397 68.1146 133.363 68.1146 133.363 68.1578C133.363 68.1751 133.363 68.1838 133.371 68.2011C133.371 68.2011 133.371 68.2011 133.371 68.2097C133.38 68.227 133.397 68.2356 133.415 68.2443C133.649 68.374 133.875 68.5037 134.109 68.6334C134.214 68.6939 134.318 68.7545 134.422 68.8063C134.526 68.8582 134.578 68.9447 134.657 69.0139C134.7 69.0571 134.743 69.109 134.77 69.1522C134.813 69.2214 134.848 69.2992 134.874 69.377C134.891 69.4203 134.908 69.4721 134.926 69.5154C134.943 69.55 134.935 69.5932 134.9 69.6191C134.717 69.7834 134.552 69.965 134.327 70.0947C134.266 70.1293 134.205 70.1639 134.153 70.2071C134.083 70.2677 133.997 70.2936 133.91 70.285C133.858 70.2763 133.823 70.3109 133.797 70.3455C133.753 70.3974 133.684 70.4319 133.614 70.4233H133.18C133.119 70.4147 133.076 70.3801 133.05 70.3282C133.05 70.3195 133.041 70.3109 133.041 70.3022C133.041 70.2936 133.033 70.2849 133.033 70.2763C133.05 70.2071 133.102 70.1466 133.172 70.1293C133.276 70.1293 133.337 70.0428 133.406 69.9823C133.423 69.965 133.432 69.9391 133.423 69.9131C133.423 69.9131 133.423 69.9045 133.415 69.9045V69.8958L133.406 69.8872C133.38 69.8613 133.345 69.8699 133.319 69.8872C133.18 69.9737 133.024 69.9823 132.876 70.0255C132.763 70.0515 132.65 70.0601 132.538 70.0515C132.512 70.0515 132.485 70.0428 132.468 70.0255C132.433 69.991 132.399 69.9477 132.373 69.9131C132.347 69.8785 132.329 69.8353 132.312 69.7921C132.312 69.7834 132.303 69.7661 132.303 69.7575V69.7488C132.294 69.7316 132.294 69.7143 132.286 69.697C132.286 69.697 132.286 69.697 132.286 69.6883C132.286 69.6797 132.277 69.671 132.277 69.6624C132.268 69.6364 132.26 69.6105 132.268 69.5846C132.277 69.5067 132.347 69.4549 132.425 69.4721C132.685 69.4635 132.946 69.4635 133.206 69.4635C133.258 69.4635 133.276 69.4462 133.276 69.3943C133.276 69.3857 133.276 69.3684 133.267 69.3684V69.3597C133.258 69.3424 133.241 69.3338 133.215 69.3338C132.954 69.2819 132.703 69.23 132.442 69.1695L132.364 69.1522C132.32 69.1436 132.303 69.1349 132.303 69.1176C132.303 69.109 132.303 69.0917 132.312 69.0571C132.338 68.962 132.355 68.8669 132.39 68.7804C132.451 68.5729 132.494 68.3567 132.512 68.1319C132.538 67.9676 132.555 67.8033 132.555 67.6304C132.555 67.6131 132.555 67.6044 132.555 67.5871C132.555 67.5785 132.555 67.5698 132.546 67.5612C132.546 67.5525 132.538 67.5439 132.529 67.5353C132.52 67.518 132.503 67.5093 132.485 67.492C132.138 67.2153 131.791 66.9386 131.443 66.6533C131.409 66.6273 131.374 66.5927 131.348 66.5582C131.348 66.5582 131.348 66.5582 131.348 66.5495C131.313 66.4803 131.278 66.4112 131.244 66.342C131.209 66.2728 131.174 66.2036 131.131 66.1258C131.131 66.1172 131.122 66.1172 131.122 66.1085V66.0999C131.113 66.0653 131.122 66.0307 131.157 66.0048C131.339 65.8145 131.521 65.6243 131.704 65.4427C131.799 65.3649 131.904 65.2871 132.008 65.2265C132.034 65.2179 132.06 65.2092 132.086 65.2092C132.234 65.2006 132.381 65.2265 132.52 65.2871C132.546 65.2957 132.572 65.313 132.59 65.339C132.59 65.3476 132.598 65.3562 132.598 65.3649C132.598 65.3735 132.607 65.3822 132.607 65.3908C132.633 65.5032 132.659 65.6157 132.685 65.7194C132.685 65.7367 132.694 65.7454 132.694 65.754C132.694 65.7626 132.703 65.7713 132.711 65.7886C132.729 65.8145 132.737 65.8318 132.763 65.8491C132.885 65.9615 132.998 66.0739 133.111 66.195C133.145 66.2382 133.206 66.2642 133.258 66.2555H133.588C133.632 66.2555 133.649 66.2555 133.667 66.2642C133.684 66.2728 133.684 66.2988 133.684 66.342V66.8694C133.684 66.9127 133.693 66.9473 133.71 66.9819C133.71 66.9905 133.719 66.9991 133.727 67.0078C133.797 67.1288 133.858 67.2499 133.918 67.371C133.918 67.371 133.918 67.371 133.918 67.3796C133.953 67.4315 134.023 67.4574 134.083 67.4315C134.109 67.4142 134.101 67.3883 134.101 67.371V67.1202C134.101 66.9213 134.109 66.7224 134.101 66.5236C134.092 66.4457 134.127 66.3679 134.188 66.316C134.301 66.2209 134.413 66.1172 134.509 66.0134C134.631 65.8837 134.726 65.7281 134.717 65.5378V65.3562L134.691 65.3476C134.622 65.4254 134.561 65.5119 134.509 65.5984C134.44 65.6848 134.37 65.7626 134.309 65.8578C134.274 65.9096 134.214 65.9356 134.153 65.9269C134.049 65.9183 134.014 65.9096 133.997 65.8578C133.988 65.8318 133.979 65.8059 133.971 65.7626C133.944 65.6502 133.918 65.5378 133.892 65.4341C133.892 65.4168 133.884 65.3995 133.875 65.3908C133.866 65.3735 133.849 65.3562 133.832 65.3476C133.449 65.1487 133.076 64.9498 132.694 64.751C132.52 64.6645 132.347 64.5694 132.173 64.4829C132.147 64.4743 132.129 64.457 132.121 64.431C132.112 64.4137 132.112 64.4051 132.112 64.3878V63.5663C132.112 63.5231 132.129 63.4885 132.164 63.4626C132.607 63.1167 133.05 62.7795 133.493 62.4336C133.536 62.3904 133.597 62.3904 133.649 62.4163C133.988 62.5979 134.327 62.7795 134.674 62.9611C134.839 63.0475 134.995 63.134 135.16 63.2205C135.204 63.2464 135.273 63.2464 135.317 63.2205C135.542 63.0994 135.777 62.9784 136.003 62.8573C136.281 62.7103 136.559 62.5633 136.828 62.4163C136.871 62.3904 136.932 62.3904 136.967 62.4336C137.41 62.7795 137.853 63.1254 138.295 63.4626C138.313 63.4712 138.322 63.4885 138.33 63.4972C138.339 63.5058 138.339 63.5145 138.348 63.5231C138.356 63.5491 138.365 63.5663 138.356 63.5923C138.356 63.8517 138.356 64.1025 138.356 64.3619C138.365 64.4224 138.33 64.4743 138.269 64.5002C137.731 64.7769 137.184 65.0623 136.645 65.3476C136.611 65.3649 136.585 65.3995 136.576 65.4427C136.541 65.5811 136.506 65.7194 136.48 65.8664C136.48 65.901 136.446 65.9269 136.411 65.9269C136.211 65.9529 136.211 65.9529 136.09 65.7886C135.994 65.6675 135.899 65.5378 135.803 65.4168C135.794 65.3995 135.786 65.3735 135.742 65.3822C135.742 65.5378 135.725 65.6848 135.794 65.8318C135.803 65.8578 135.82 65.8751 135.838 65.901C135.846 65.9183 135.864 65.9442 135.881 65.9615C135.977 66.0912 136.098 66.195 136.22 66.3074L136.229 66.316C136.263 66.3333 136.289 66.3593 136.315 66.3939C136.324 66.4025 136.333 66.4198 136.333 66.4285C136.341 66.4371 136.341 66.4457 136.35 66.463C136.368 66.5149 136.376 66.5668 136.376 66.6187C136.368 66.8781 136.376 67.1375 136.376 67.3969C136.376 67.4142 136.368 67.4401 136.376 67.4574C136.376 67.4661 136.394 67.4747 136.411 67.4747C136.463 67.4747 136.515 67.5007 136.55 67.4315C136.619 67.2931 136.698 67.1461 136.776 67.0078C136.793 66.9732 136.793 66.9386 136.793 66.904V66.3766C136.793 66.2815 136.793 66.2815 136.889 66.2815H137.236C137.271 66.2815 137.314 66.2728 137.34 66.2469C137.479 66.1085 137.609 65.9615 137.757 65.8405C137.783 65.8232 137.783 65.7972 137.783 65.7713C137.809 65.6502 137.844 65.5292 137.87 65.4081C137.879 65.3822 137.879 65.3476 137.913 65.339C138.018 65.2957 138.122 65.2698 138.226 65.2438C138.443 65.2092 138.599 65.339 138.747 65.46C138.947 65.6416 139.129 65.8491 139.32 66.048C139.32 66.048 139.329 66.0566 139.329 66.0653L139.338 66.0739C139.312 66.0826 139.312 66.1085 139.294 66.1345Z" fill="#2B2B2B"/>
<path d="M134.613 83.143L131.852 87.9074H131.834H131.826C131.817 87.8901 131.8 87.8728 131.791 87.8556L129.055 83.1603C129.142 83.1257 134.37 83.1171 134.613 83.143ZM138.052 88.2965L135.308 83.5754C135.299 83.5667 135.291 83.5494 135.282 83.5408H135.273H135.256L132.494 88.3052C132.781 88.3311 137.966 88.3225 138.052 88.2965ZM138.713 87.9334L141.492 83.1344H135.925L138.713 87.9334ZM138.052 89.0488H132.494L135.282 93.8392L138.052 89.0488Z" fill="#2B2B2B"/>
<path d="M142.785 70.5189L145.556 65.7285L148.335 70.5102C148.248 70.5362 143.063 70.5448 142.785 70.5189ZM121.508 82.0192L124.287 77.2202H118.72L121.508 82.0192ZM149.012 82.0192L151.791 77.2202H146.225L149.012 82.0192ZM127.718 82.3737L124.938 77.592L122.168 82.3824C122.455 82.4083 127.631 82.3997 127.718 82.3737ZM124.93 65.7545C124.826 65.8928 122.194 70.4497 122.177 70.5275H127.7C127.665 70.4238 124.999 65.8323 124.93 65.7545ZM131.157 77.2202H125.598L128.386 82.0192L131.157 77.2202ZM139.346 77.2202L142.134 82.0192L144.913 77.2202H139.346ZM142.794 82.391H148.361L145.573 77.592L142.794 82.391ZM127.718 71.2712H122.159L124.947 76.0615L127.718 71.2712ZM148.344 71.2712H142.785L145.573 76.0615L148.344 71.2712ZM121.499 71.6343L118.72 76.4333H124.278L121.499 71.6343ZM131.157 76.4247L128.369 71.6343L125.598 76.4247H131.157ZM139.346 76.4247H144.904L142.117 71.6343L139.346 76.4247ZM151.783 76.4247L148.995 71.6343L146.225 76.4247H151.783ZM132.485 77.1856L135.273 81.976L138.044 77.1856H132.485ZM134.596 82.3478C134.544 82.2181 131.877 77.6266 131.817 77.5747L129.055 82.3478H134.596ZM138.704 77.5574L135.933 82.3478H141.491L138.704 77.5574Z" fill="#2B2B2B"/>
<path d="M129.055 56.2943C129.255 56.3202 129.411 56.3548 129.542 56.3721C129.906 56.424 130.176 56.4845 130.254 56.5018C130.384 56.5277 130.488 56.5537 130.636 56.5883C131.157 56.7266 131.322 56.8304 131.322 56.8304C131.348 56.839 131.374 56.8477 131.4 56.8736C131.417 56.8909 131.435 56.9169 131.435 56.9428C131.435 56.9601 131.426 56.9774 131.417 56.9947C131.391 57.0206 131.365 57.0379 131.331 57.0379C131.287 57.0552 131.244 57.0811 131.209 57.1071C131.087 57.2022 131.044 57.3665 131.105 57.5048C131.174 57.6345 131.261 57.7642 131.365 57.868C131.478 57.9977 131.6 58.0755 131.782 58.0409C131.86 58.0236 131.947 58.0582 132.025 57.9977C132.147 57.9026 132.26 57.8161 132.312 57.6691C132.355 57.5394 132.381 57.4011 132.381 57.2541C132.373 56.7958 132.381 56.3289 132.39 55.8706C132.434 56.0176 132.486 56.1559 132.512 56.3029C132.555 56.4845 132.625 56.6574 132.711 56.8217C132.781 56.9514 132.85 57.0811 132.937 57.2108C132.998 57.2973 133.068 57.3751 133.146 57.453C133.354 57.6605 133.658 57.7383 133.945 57.6518C133.988 57.6432 134.032 57.6172 134.066 57.5913C134.24 57.453 134.353 57.2541 134.379 57.0293C134.405 56.8909 134.335 56.7612 134.214 56.692C134.153 56.6574 134.084 56.6315 134.014 56.6142C133.971 56.6056 133.927 56.5969 133.884 56.5796C133.858 56.571 133.823 56.5623 133.814 56.5277C133.806 56.4932 133.84 56.4672 133.867 56.4499C134.292 56.1905 134.57 55.8014 134.822 55.3864C134.935 55.2134 135.022 55.0232 135.1 54.833C135.161 54.6773 135.213 54.513 135.239 54.3574C135.239 54.3141 135.247 54.2709 135.265 54.2363C135.291 54.2363 135.299 54.2536 135.299 54.2709C135.343 54.5476 135.43 54.8243 135.551 55.0751C135.751 55.4815 136.012 55.8619 136.324 56.1819C136.411 56.2683 136.515 56.3462 136.62 56.4153C136.637 56.424 136.654 56.4326 136.672 56.4499C136.706 56.4672 136.741 56.4845 136.732 56.5277C136.724 56.571 136.68 56.5796 136.646 56.5883C136.55 56.6142 136.463 56.6402 136.376 56.6747C136.246 56.718 136.151 56.839 136.159 56.9774C136.159 57.0984 136.194 57.2281 136.255 57.3319C136.316 57.427 136.385 57.5135 136.472 57.5827C136.576 57.6518 136.698 57.6864 136.819 57.6778C137.002 57.6864 137.175 57.6259 137.323 57.5135C137.471 57.3924 137.601 57.2454 137.688 57.0811C137.801 56.8996 137.896 56.7093 137.966 56.5105C138.018 56.3462 138.061 56.1819 138.105 56.0176C138.113 55.983 138.131 55.9484 138.139 55.8965C138.157 55.9484 138.157 56.0003 138.148 56.0522C138.148 56.5018 138.139 56.9514 138.157 57.4011C138.157 57.6259 138.27 57.8421 138.452 57.9804C138.513 58.0323 138.591 58.0582 138.66 58.0496C138.756 58.0496 138.843 58.0496 138.938 58.0496C138.99 58.0496 139.034 58.0323 139.069 57.9977C139.19 57.8767 139.294 57.7556 139.399 57.6172C139.512 57.4443 139.468 57.2108 139.303 57.0984C139.294 57.0898 139.286 57.0898 139.277 57.0811C139.234 57.0552 139.19 57.0379 139.147 57.012C139.077 56.9687 139.077 56.9255 139.138 56.8736C139.182 56.839 139.234 56.8131 139.294 56.7958C139.633 56.6661 139.981 56.5623 140.337 56.4932C140.701 56.4153 141.066 56.3721 141.431 56.3116C141.457 56.3116 141.483 56.3116 141.509 56.3116C141.414 56.3548 141.318 56.4067 141.231 56.4672C140.962 56.6488 140.762 56.8909 140.562 57.133C140.337 57.4184 140.128 57.7124 139.954 58.0323C139.807 58.2831 139.677 58.5425 139.555 58.8192C139.433 59.1045 139.312 59.3985 139.173 59.6752C139.147 59.7271 139.103 59.7617 139.051 59.779C137.827 60.1681 136.602 60.5485 135.378 60.9376C135.308 60.9636 135.23 60.9549 135.152 60.929C133.936 60.5399 132.72 60.1594 131.504 59.779C131.444 59.7617 131.4 59.7184 131.374 59.6666C131.235 59.3899 131.113 59.1045 130.992 58.8105C130.87 58.5165 130.731 58.2744 130.592 58.015C130.54 57.9285 130.488 57.8421 130.436 57.7469C130.219 57.3924 129.967 57.0638 129.681 56.7612C129.498 56.5883 129.298 56.4326 129.081 56.3202C129.081 56.3202 129.029 56.2943 129.029 56.2856C129.012 56.2856 129.038 56.2856 129.055 56.2943Z" fill="#2B2B2B"/>
<path d="M138.295 56.597C138.295 56.8564 138.287 57.1072 138.295 57.3666C138.295 57.5309 138.365 57.6865 138.486 57.7903C138.53 57.8335 138.591 57.8595 138.651 57.8595C138.695 57.8508 138.747 57.8508 138.79 57.8595C138.877 57.8681 138.964 57.8335 139.008 57.7643C139.077 57.6779 139.146 57.5914 139.207 57.5049C139.277 57.4271 139.259 57.3061 139.181 57.2369C139.164 57.2282 139.146 57.211 139.129 57.211C139.077 57.185 139.034 57.1591 138.99 57.1331C138.877 57.064 138.851 56.9256 138.912 56.8132C138.929 56.7873 138.947 56.77 138.964 56.7527C139.034 56.6921 139.112 56.6489 139.207 56.623C139.529 56.5019 139.867 56.3981 140.206 56.329C140.614 56.2425 141.022 56.182 141.431 56.1301C141.474 56.1301 141.517 56.1301 141.552 56.1387C141.622 56.156 141.665 56.2079 141.674 56.2771C141.682 56.3463 141.656 56.4068 141.596 56.4414C141.587 56.45 141.569 56.4587 141.552 56.4587C141.3 56.5624 141.074 56.7354 140.892 56.9429C140.562 57.3061 140.284 57.7038 140.041 58.1275C139.859 58.4561 139.685 58.802 139.546 59.1565C139.459 59.3554 139.381 59.5629 139.277 59.7618C139.242 59.8482 139.164 59.9088 139.077 59.9347C137.861 60.3152 136.637 60.7043 135.421 61.0934C135.308 61.128 135.186 61.128 135.073 61.0934C133.857 60.7043 132.642 60.3152 131.417 59.9347C131.322 59.9088 131.252 59.8482 131.209 59.7531C131.061 59.4678 130.939 59.1651 130.818 58.8711C130.705 58.5944 130.557 58.3437 130.418 58.0929C130.375 58.0151 130.332 57.9459 130.279 57.8681C130.036 57.4617 129.741 57.0899 129.402 56.7613C129.272 56.6403 129.124 56.5365 128.951 56.476C128.933 56.4673 128.916 56.4587 128.899 56.45C128.838 56.4154 128.803 56.3463 128.82 56.2771C128.829 56.2079 128.881 56.156 128.942 56.1474C129.029 56.1301 129.116 56.1301 129.203 56.156C129.689 56.2339 130.175 56.303 130.653 56.4241C130.905 56.4933 131.157 56.5797 131.4 56.6835C131.461 56.7008 131.521 56.7354 131.573 56.7873C131.652 56.8737 131.643 57.0034 131.565 57.0899C131.521 57.1331 131.469 57.1677 131.417 57.1937C131.252 57.2715 131.235 57.3493 131.322 57.5049C131.4 57.6346 131.495 57.7471 131.608 57.8422C131.626 57.8595 131.652 57.8681 131.678 57.8681C131.712 57.8681 131.738 57.8681 131.773 57.8681C131.843 57.8595 131.903 57.8854 131.973 57.8335C132.06 57.773 132.129 57.6865 132.173 57.5828C132.207 57.479 132.225 57.3579 132.233 57.2455C132.225 56.8824 132.233 56.5192 132.233 56.156C132.233 56.0609 132.233 55.9745 132.225 55.8793C132.216 55.8275 132.225 55.7756 132.242 55.7237C132.26 55.6459 132.32 55.5853 132.398 55.5853C132.477 55.5853 132.537 55.6372 132.555 55.715C132.598 55.8793 132.65 56.035 132.685 56.1993C132.72 56.3722 132.781 56.5365 132.867 56.6921C132.963 56.9083 133.093 57.1158 133.258 57.2888C133.406 57.4444 133.623 57.5136 133.831 57.479C133.901 57.4704 133.962 57.4444 134.014 57.3925C134.127 57.2888 134.196 57.1591 134.214 57.0034C134.222 56.8997 134.214 56.8564 134.118 56.8045C134.04 56.7613 133.953 56.7354 133.866 56.7181C133.823 56.7094 133.779 56.6921 133.736 56.6662C133.632 56.6057 133.606 56.4673 133.666 56.3722C133.675 56.3636 133.684 56.3549 133.692 56.3376C133.719 56.3117 133.745 56.2857 133.779 56.2684C133.936 56.1733 134.075 56.0609 134.196 55.9312C134.518 55.5767 134.778 55.1616 134.952 54.712C135.021 54.5564 135.065 54.3921 135.082 54.2278C135.082 54.1673 135.108 54.1067 135.16 54.0721C135.238 54.003 135.36 54.0203 135.429 54.0981C135.447 54.124 135.464 54.1586 135.473 54.1846C135.577 54.859 135.916 55.4038 136.35 55.9139C136.472 56.0609 136.619 56.182 136.784 56.2857C136.802 56.2944 136.81 56.303 136.819 56.3117C136.888 56.3636 136.923 56.45 136.914 56.5365C136.897 56.623 136.836 56.6835 136.758 56.7094C136.706 56.7267 136.654 56.7354 136.602 56.7527C136.55 56.77 136.489 56.7873 136.446 56.8132C136.367 56.8391 136.315 56.9256 136.341 57.0034C136.367 57.1677 136.454 57.3234 136.584 57.4271C136.619 57.4531 136.654 57.4704 136.697 57.4704C136.906 57.5136 137.123 57.4531 137.279 57.3061C137.375 57.2196 137.453 57.1245 137.514 57.0121C137.67 56.7613 137.792 56.4846 137.87 56.1993C137.905 56.0436 137.957 55.8793 138 55.7237C138.017 55.6372 138.087 55.5767 138.174 55.5853C138.252 55.594 138.313 55.6459 138.33 55.7237C138.339 55.7583 138.339 55.8015 138.339 55.8361C138.304 56.0955 138.304 56.597 138.295 56.597ZM129.038 56.2944C129.046 56.303 129.506 56.5797 129.671 56.7613C129.958 57.064 130.21 57.3925 130.427 57.7471C130.479 57.8335 130.54 57.92 130.583 58.0151C130.722 58.2745 130.87 58.5339 130.983 58.8106C131.096 59.0873 131.226 59.39 131.365 59.6667C131.391 59.7185 131.434 59.7618 131.495 59.7791C132.711 60.1595 133.918 60.5486 135.134 60.9291C135.204 60.955 135.282 60.955 135.36 60.9377C136.576 60.5486 137.8 60.1595 139.016 59.7791C139.068 59.7618 139.12 59.7272 139.138 59.6753C139.277 59.3986 139.398 59.1133 139.52 58.8193C139.633 58.5512 139.772 58.2918 139.919 58.0324C140.093 57.7125 140.293 57.4098 140.519 57.1331C140.718 56.891 140.918 56.6489 141.187 56.4673C141.274 56.4068 141.37 56.3549 141.465 56.3117C141.439 56.3117 141.413 56.3117 141.387 56.3117C141.022 56.3722 140.658 56.4154 140.293 56.4933C139.937 56.5624 139.589 56.6662 139.251 56.7959C139.199 56.8132 139.146 56.8391 139.094 56.8737C139.034 56.9256 139.034 56.9688 139.103 57.0121C139.146 57.038 139.19 57.0553 139.233 57.0812C139.416 57.185 139.476 57.4098 139.372 57.5914C139.372 57.6001 139.364 57.6087 139.355 57.6087C139.259 57.7471 139.146 57.8768 139.034 57.9892C138.999 58.0238 138.955 58.041 138.903 58.041C138.808 58.041 138.721 58.041 138.625 58.041C138.547 58.041 138.469 58.0151 138.417 57.9719C138.235 57.8335 138.13 57.6174 138.122 57.3925C138.104 56.9429 138.122 56.4933 138.113 56.0436C138.122 55.9917 138.122 55.9399 138.104 55.888C138.087 55.9399 138.078 55.9745 138.07 56.009C138.026 56.1733 137.991 56.3463 137.931 56.5019C137.852 56.7008 137.766 56.891 137.653 57.0726C137.557 57.2369 137.436 57.3839 137.288 57.5049C137.149 57.6174 136.975 57.6779 136.793 57.6692C136.671 57.6779 136.55 57.6433 136.446 57.5741C136.359 57.5049 136.289 57.4185 136.228 57.3234C136.168 57.211 136.133 57.0899 136.133 56.9602C136.124 56.8218 136.22 56.7008 136.35 56.6576C136.437 56.623 136.532 56.597 136.619 56.5711C136.654 56.5624 136.697 56.5538 136.706 56.5106C136.715 56.4673 136.671 56.45 136.645 56.4327C136.628 56.4241 136.611 56.4154 136.593 56.3981C136.489 56.329 136.385 56.2512 136.298 56.1647C135.985 55.8361 135.725 55.4643 135.525 55.0579C135.395 54.8071 135.308 54.5391 135.273 54.2537C135.273 54.2364 135.264 54.2191 135.238 54.2191C135.221 54.2537 135.212 54.297 135.212 54.3402C135.178 54.5045 135.134 54.6688 135.073 54.8244C135.004 55.0147 134.908 55.2049 134.795 55.3778C134.544 55.7842 134.266 56.182 133.84 56.4414C133.814 56.4587 133.779 56.476 133.788 56.5192C133.797 56.5624 133.831 56.5624 133.857 56.5711C133.901 56.5797 133.944 56.597 133.988 56.6057C134.057 56.623 134.127 56.6489 134.188 56.6835C134.309 56.744 134.379 56.8824 134.353 57.0207C134.326 57.2455 134.214 57.4444 134.04 57.5828C134.005 57.6087 133.962 57.6346 133.918 57.6433C133.64 57.7298 133.328 57.6519 133.128 57.4444C133.05 57.3752 132.98 57.2888 132.92 57.2023C132.833 57.0812 132.763 56.9515 132.694 56.8132C132.607 56.6489 132.537 56.476 132.494 56.2944C132.468 56.1474 132.416 56.009 132.372 55.862C132.364 56.329 132.364 56.7873 132.364 57.2455C132.364 57.3839 132.338 57.5222 132.294 57.6606C132.242 57.8076 132.129 57.9027 132.008 57.9892C131.929 58.0497 131.851 58.0238 131.764 58.0324C131.591 58.067 131.461 57.9892 131.348 57.8595C131.243 57.7557 131.157 57.6346 131.087 57.4963C131.018 57.3579 131.061 57.1937 131.191 57.0985C131.226 57.0726 131.269 57.0467 131.313 57.0294C131.365 57.0034 131.426 56.9861 131.426 56.9256C131.426 56.8651 131.356 56.8391 131.304 56.8132C131.061 56.7094 130.818 56.623 130.557 56.5624C130.219 56.476 129.88 56.4154 129.533 56.3636C129.411 56.3463 129.038 56.2771 129.038 56.2944Z" fill="#2B2B2B"/>
</g>
<defs>
<clipPath id="clip0">
<rect width="269.289" height="240" fill="white"/>
</clipPath>
</defs>
</svg>
