<svg width="260" height="240" viewBox="0 0 260 240" fill="none" xmlns="http://www.w3.org/2000/svg">
<g clip-path="url(#clip0)">
<path opacity="0.2" d="M231.171 179.16C217.834 178.151 231.642 176.202 243.969 174.723C256.295 173.244 200.119 172.773 199.58 166.857C199.109 160.941 242.958 162.891 243.969 156.504C244.979 150.118 210.425 142.723 206.989 142.252C203.554 141.781 208.471 140.302 218.844 135.395C229.217 130.487 173.513 127.059 173.513 127.059C173.513 127.059 138.083 125.176 130 128.874V231.664H127.44C126.767 236.235 126.295 237.58 129.663 238.252C136.062 239.529 167.585 236.773 189.274 236.302C210.964 235.832 163.14 232.336 153.777 230.386C144.414 228.437 176.948 228.907 186.782 226.42C196.616 223.933 182.808 223.933 178.43 219.025C173.984 214.118 215.409 210.689 220.798 209.21C226.186 207.731 209.953 205.244 205.508 200.336C201.062 195.428 244.912 193.479 256.767 189.042C268.622 184.538 244.508 180.168 231.171 179.16Z" fill="white"/>
<path opacity="0.1" d="M69.0413 121.412C63.5853 120.471 64.7978 122.353 60.2174 119.866C60.2174 119.866 55.3677 117.109 50.7874 117.714C46.2071 118.319 43.7822 119.866 39.2693 120.471C34.6889 121.076 31.9946 120.134 25.5957 120.807C19.1967 121.412 15.8962 122.017 12.2589 122.622C8.62159 123.227 3.43506 124.168 3.43506 124.168H76.8548C76.9895 124.168 74.4972 122.353 69.0413 121.412Z" fill="white"/>
<path opacity="0.1" d="M230.161 111.126C224.705 110.185 225.917 112.067 221.337 109.58C221.337 109.58 216.487 106.824 211.907 107.429C207.327 108.034 204.902 109.58 200.389 110.185C195.809 110.79 193.114 109.849 186.715 110.521C180.316 111.126 177.016 111.731 173.379 112.336C169.741 112.941 164.555 113.882 164.555 113.882H237.974C238.042 113.815 235.617 112 230.161 111.126Z" fill="white"/>
<path opacity="0.2" d="M73.9588 204.773C68.5028 203.832 69.7152 205.714 65.1349 203.227C65.1349 203.227 60.2852 200.471 55.7049 201.076C51.1246 201.681 48.6997 203.227 44.1867 203.832C39.6064 204.437 36.9121 203.496 30.5132 204.168C24.1142 204.773 20.8137 205.378 17.1764 205.983C13.5391 206.588 8.35254 207.529 8.35254 207.529H81.7722C81.8396 207.462 79.4147 205.647 73.9588 204.773Z" fill="white"/>
<path opacity="0.2" d="M60.5544 173.176C57.1192 172.37 54.0207 171.563 48.0259 170.756C42.0311 169.949 39.4715 171.16 35.228 170.353C30.9845 169.546 28.6943 167.529 24.4508 166.79C20.2073 165.983 15.6269 169.613 15.6269 169.613C11.3834 172.773 12.5285 170.42 7.40933 171.63C2.29016 172.84 0 175.193 0 175.193H68.772C68.772 175.193 63.9223 173.983 60.5544 173.176Z" fill="white"/>
<path opacity="0.2" d="M101.642 230.252C99.4195 229.714 97.3314 229.176 93.4247 228.706C89.5179 228.168 87.834 228.975 85.005 228.437C82.176 227.899 80.6941 226.622 77.9325 226.084C75.1034 225.546 72.1397 227.899 72.1397 227.899C69.3107 229.983 70.0516 228.437 66.7511 229.243C63.4506 230.05 61.9014 231.596 61.9014 231.596H107.098C107.098 231.529 103.932 230.722 101.642 230.252Z" fill="white"/>
<path opacity="0.2" d="M118.523 237.702C114.617 237.164 112.933 237.971 110.104 237.433C107.275 236.895 105.793 235.618 103.031 235.08C100.202 234.542 97.2383 236.895 97.2383 236.895C94.4093 238.979 95.1503 237.433 91.8497 238.24C88.4819 239.046 87 240.593 87 240.593H132.197C132.197 240.593 129.031 239.786 126.808 239.248C124.518 238.777 122.43 238.24 118.523 237.702Z" fill="white"/>
<path opacity="0.2" d="M222.523 218.702C218.617 218.164 216.933 218.971 214.104 218.433C211.275 217.895 209.793 216.618 207.031 216.08C204.202 215.542 201.238 217.895 201.238 217.895C198.409 219.979 199.15 218.433 195.85 219.24C192.482 220.046 191 221.593 191 221.593H236.197C236.197 221.593 233.031 220.786 230.808 220.248C228.518 219.777 226.43 219.24 222.523 218.702Z" fill="white"/>
<path opacity="0.1" d="M130 124.168H199.85C199.85 124.168 197.425 122.353 191.969 121.412C186.513 120.471 187.725 122.353 183.145 119.866C183.145 119.866 178.295 117.109 173.715 117.714C169.135 118.319 166.71 119.866 162.197 120.471C157.617 121.076 154.922 120.134 148.523 120.807C142.124 121.412 138.824 122.017 135.187 122.622C133.57 122.891 131.617 123.227 129.933 123.496V124.168H130Z" fill="white"/>
<path opacity="0.1" d="M235.078 121.949C232.047 122.218 230.497 122.554 228.746 122.823C226.995 123.092 224.57 123.563 224.57 123.563H259.326C259.326 123.563 258.181 122.689 255.622 122.286C253.062 121.882 253.601 122.689 251.445 121.546C251.445 121.546 249.155 120.269 247 120.538C244.844 120.807 243.699 121.546 241.544 121.815C239.388 122.084 238.109 121.613 235.078 121.949Z" fill="white"/>
<path opacity="0.2" d="M56.9845 165.781C56.9845 165.781 54.6944 164.504 52.5389 164.773C50.3835 165.042 49.2384 165.781 47.083 166.05C44.9275 166.319 43.6477 165.916 40.6167 166.185C37.5856 166.454 36.0363 166.79 34.2851 167.059C32.5338 167.328 30.1089 167.798 30.1089 167.798H64.8654C64.8654 167.798 63.7203 166.924 61.1607 166.521C58.5338 166.05 59.14 166.924 56.9845 165.781Z" fill="white"/>
<path opacity="0.1" d="M61.6324 135.462C59.0728 135.059 59.6117 135.866 57.4562 134.723C57.4562 134.723 55.1661 133.446 53.0106 133.714C50.8552 133.983 49.7101 134.723 47.5547 134.992C45.3992 135.261 44.1194 134.857 41.0883 135.126C38.0572 135.395 36.508 135.731 34.7567 136C33.0054 136.269 30.5806 136.74 30.5806 136.74H65.337C65.337 136.74 64.192 135.866 61.6324 135.462Z" fill="white"/>
<path d="M231.441 100.437C231.373 100.034 231.239 99.6974 231.036 99.4285L230.296 98.4201C230.296 98.4201 230.902 98.689 231.777 98.6218C232.653 98.6218 234 99.1596 234 99.1596C234 99.1596 233.259 97.9495 232.316 97.8151C231.373 97.7479 230.161 97.8151 230.161 97.8151C230.161 97.8151 230.363 97.6134 231.239 97.1428C232.114 96.7395 232.384 96.8739 232.384 96.8739H233.259C233.259 96.8739 232.99 95.8655 232.047 95.8655C231.104 95.9327 230.026 97.479 230.026 97.479C230.026 97.479 230.43 96.9411 229.824 95.4622C229.218 93.9832 228.005 93.5126 228.005 93.5126C228.005 93.5126 228.477 95.2605 228.948 96.1344C229.353 97.0084 229.555 97.5462 229.555 97.5462C229.555 97.5462 229.218 97.3445 228.814 97.1428C227.332 93.5798 224.637 88.8067 220.865 86.8571L220.125 85.9159C220.125 85.9159 220.731 86.1848 221.606 86.1176C222.482 86.1176 223.829 86.6554 223.829 86.6554C223.829 86.6554 223.088 85.4453 222.145 85.3109C221.202 85.2437 219.99 85.3109 219.99 85.3109C219.99 85.3109 220.192 85.1092 221.068 84.6386C221.943 84.2353 222.213 84.3697 222.213 84.3697H223.088C223.088 84.3697 222.819 83.3613 221.876 83.3613C220.933 83.4285 219.855 84.9748 219.855 84.9748C219.855 84.9748 220.259 84.4369 219.653 82.958C219.047 81.479 217.834 81.0084 217.834 81.0084C217.834 81.0084 218.306 82.7563 218.777 83.6302C219.182 84.5042 219.384 85.042 219.384 85.042C219.384 85.042 218.306 84.3025 217.565 84.3697C216.824 84.3697 215.679 85.2437 215.679 85.2437C215.679 85.2437 216.487 85.7143 217.565 85.7815C218.575 85.8487 219.586 85.9159 219.586 85.9159C219.586 85.9159 219.384 86.0504 219.114 86.2521C218.912 86.1848 218.71 86.1848 218.508 86.1176C214.534 85.5798 211.435 86.2521 208.674 86.7227C207.394 85.9159 206.518 85.5798 206.518 85.5798C206.518 85.5798 208.337 85.5126 210.156 85.3109C211.974 85.1092 213.456 84.5042 213.456 84.5042C213.456 84.5042 211.503 83.4958 210.156 83.4958C208.808 83.4958 206.855 84.5042 206.855 84.5042C206.855 84.5042 207.192 83.8319 208 82.689C208.808 81.5462 209.819 79.1932 209.819 79.1932C209.819 79.1932 207.663 79.8655 206.518 81.8151C205.373 83.7647 206.047 84.4369 206.047 84.4369C206.047 84.4369 204.228 82.4874 202.544 82.4874C200.86 82.4874 200.389 83.8319 200.389 83.8319H201.871C201.871 83.8319 202.342 83.6302 203.824 84.1008C205.306 84.5714 205.643 84.9075 205.643 84.9075C205.643 84.9075 203.487 84.8403 201.803 84.9748C201.197 85.042 200.658 85.3109 200.187 85.5798C195.404 82.2185 191.228 72.3361 178.296 69.1092C164.689 65.7479 143.943 85.4453 131.347 88.3361C119.358 91.0924 93.0209 84.0336 72.4769 89.0756C71.938 88.8739 71.3318 88.6722 70.7929 88.6722C69.7826 88.6722 68.3007 89.4117 68.3007 89.4117C68.3007 89.4117 68.5701 88.9411 69.1764 88.0672C69.7826 87.1932 70.5235 85.4453 70.5235 85.4453C70.5235 85.4453 68.9069 85.9159 68.0313 87.4622C67.1556 88.9411 67.6271 89.479 67.6271 89.479C67.6271 89.479 66.28 88 65.0002 88C63.7204 88 63.3836 89.0084 63.3836 89.0084H64.5287C64.5287 89.0084 64.9328 88.8739 66.0106 89.21C67.1556 89.6134 67.4251 89.8151 67.4251 89.8151C67.4251 89.8151 65.8085 89.7479 64.5287 89.8823C63.2489 90.0168 62.2385 91.2269 62.2385 91.2269C62.2385 91.2269 64.1245 90.6218 65.2696 90.6218C66.4147 90.6218 67.223 90.3529 67.223 90.3529L66.6841 90.8235C63.8551 91.7647 61.4302 92.6386 59.2748 93.3781C59.5442 93.3781 60.622 93.5798 61.565 94.6554C62.6427 95.8655 62.4406 96.5378 62.4406 96.5378C62.4406 96.5378 62.9121 94.6554 63.7878 94.3193C64.6634 93.9832 65.2023 94.8571 65.2023 94.8571L64.394 95.1932C64.394 95.1932 64.0572 95.126 63.3836 95.7983C62.71 96.4706 62.5753 96.7395 62.5753 96.7395C62.5753 96.7395 63.7204 96.2017 64.596 96C65.5391 95.7983 66.6168 96.6722 66.6168 96.6722C66.6168 96.6722 65.0675 96.605 64.3266 96.9411C63.5183 97.2773 62.9121 97.2101 62.9121 97.2101L63.9225 97.8823C64.1919 98.084 64.4613 98.3529 64.6634 98.689L65.7411 100.639C65.7411 100.639 64.6634 99.9664 64.0572 99.3613C63.451 98.7563 62.7774 97.7479 62.7774 97.7479C62.7774 97.7479 62.3732 99.3613 61.9017 100.235C61.3629 101.109 60.7567 101.781 60.7567 101.781C60.7567 101.781 60.7567 99.9664 61.3629 98.9579C61.9017 97.8823 62.4406 97.3445 62.4406 97.3445C62.4406 97.3445 61.4976 97.6806 60.4872 97.9495C59.4769 98.2185 58.5339 98.0168 58.5339 98.0168C58.5339 98.0168 59.3422 96.8739 60.0157 96.605C60.6893 96.3361 61.9691 96.6722 61.9691 96.6722C61.9691 96.6722 61.6323 96.2689 60.9587 95.5966C60.2852 94.9243 59.3422 93.5798 59.2074 93.4453C55.0313 94.9243 52.0675 96.2016 49.6427 97.1428C49.2385 97.0084 48.767 96.8739 48.3629 96.8739C47.622 96.8739 46.4769 97.4117 46.4769 97.4117C46.4769 97.4117 46.6789 97.0084 47.1504 96.4033C47.622 95.7311 48.1608 94.4538 48.1608 94.4538C48.1608 94.4538 46.9484 94.8571 46.2748 95.9327C45.6012 97.0756 46.0054 97.4117 46.0054 97.4117C46.0054 97.4117 44.995 96.2689 44.052 96.2689C43.109 96.2689 42.8396 97.0084 42.8396 97.0084H43.7826C43.7826 97.0084 44.052 96.8739 44.9277 97.1428C45.8033 97.4117 45.938 97.6134 45.938 97.6134C45.938 97.6134 44.7256 97.5462 43.7826 97.6806C42.8396 97.7479 42.0986 98.689 42.0986 98.689C42.0986 98.689 43.5131 98.2185 44.3888 98.2185C45.2644 98.2185 45.8707 98.0168 45.8707 98.0168L45.0624 98.7563C44.995 98.8235 44.9277 98.958 44.8603 99.0252C43.109 99.6302 41.6271 100.034 39.7411 100.168C33.5442 100.706 23.9121 102.992 23.9121 102.992H232.653L231.845 102.387L231.441 100.437ZM47.7567 97.9495C47.4872 98.084 47.2178 98.1512 46.9484 98.2857C46.6116 98.084 46.4095 98.0168 46.4095 98.0168C46.4095 98.0168 47.0157 98.0168 47.7567 97.9495ZM46.1401 98.4201C46.1401 98.4201 46.2074 98.4874 46.2748 98.5546C46.2074 98.5546 46.1401 98.6218 46.0054 98.6218C46.0727 98.4874 46.1401 98.4201 46.1401 98.4201ZM56.9846 99.1596C56.3784 99.4285 55.8396 99.3613 55.8396 99.3613L56.6479 99.8991C56.8499 100.034 57.052 100.235 57.1867 100.504L57.995 101.983C57.995 101.983 57.1194 101.445 56.7152 100.975C56.2437 100.504 55.7049 99.6974 55.7049 99.6974C55.7049 99.6974 55.4354 100.908 55.0313 101.647C54.6271 102.319 54.0883 102.857 54.0883 102.857C54.0883 102.857 54.0883 101.445 54.5598 100.639C54.9639 99.8319 55.3681 99.4285 55.3681 99.4285C55.3681 99.4285 54.6271 99.6975 53.8188 99.8991C53.0779 100.101 52.337 99.9664 52.337 99.9664C52.337 99.9664 52.9432 99.0924 53.4821 98.8907C54.0209 98.689 55.0313 98.8907 55.0313 98.8907C55.0313 98.8907 54.7618 98.5546 54.223 98.0168C53.6841 97.479 52.8758 96.3361 52.8758 96.3361C52.8758 96.3361 53.8862 96.3361 54.6945 97.3445C55.5028 98.2857 55.3681 98.7563 55.3681 98.7563C55.3681 98.7563 55.7722 97.3445 56.4458 97.0756C57.1194 96.8067 57.5909 97.479 57.5909 97.479L56.9846 97.7479C56.9846 97.7479 56.7152 97.6806 56.2437 98.2185C55.7049 98.7563 55.6375 98.9579 55.6375 98.9579C55.6375 98.9579 56.5131 98.5546 57.1867 98.4201C57.8603 98.2185 58.7359 98.9579 58.7359 98.9579C58.7359 98.9579 57.5909 98.8907 56.9846 99.1596ZM68.0313 90.2857C68.0313 90.2857 68.166 90.2857 68.4354 90.2857C68.3681 90.2857 68.2333 90.3529 68.166 90.3529C68.0986 90.3529 68.0313 90.2857 68.0313 90.2857ZM71.938 98.5546C71.3318 98.8235 70.7929 98.7563 70.7929 98.7563L71.6012 99.2941C71.8033 99.4285 72.0054 99.6302 72.1401 99.8991L72.9484 101.378C72.9484 101.378 72.0727 100.84 71.6686 100.37C71.1971 99.8991 70.6582 99.0924 70.6582 99.0924C70.6582 99.0924 70.3888 100.302 69.9846 101.042C69.5805 101.714 69.0416 102.252 69.0416 102.252C69.0416 102.252 69.0416 100.84 69.5131 100.034C69.9173 99.2269 70.3214 98.8235 70.3214 98.8235C70.3214 98.8235 69.5805 99.0924 68.7722 99.2941C68.0313 99.4958 67.2903 99.3613 67.2903 99.3613C67.2903 99.3613 67.8966 98.4874 68.4354 98.2857C68.9743 98.084 69.9846 98.2857 69.9846 98.2857C69.9846 98.2857 69.7152 97.9495 69.1764 97.4117C68.6375 96.8739 67.8292 95.7311 67.8292 95.7311C67.8292 95.7311 68.8396 95.7311 69.6479 96.7395C70.4562 97.6806 70.3214 98.1512 70.3214 98.1512C70.3214 98.1512 70.7256 96.7395 71.3992 96.4706C72.0727 96.2016 72.5442 96.8739 72.5442 96.8739L71.938 97.1428C71.938 97.1428 71.6686 97.0756 71.1971 97.6134C70.6582 98.1512 70.5909 98.3529 70.5909 98.3529C70.5909 98.3529 71.4665 97.9495 72.1401 97.8151C72.8137 97.6134 73.6893 98.3529 73.6893 98.3529C73.6893 98.3529 72.5442 98.2857 71.938 98.5546ZM205.912 86.3193C205.912 86.3193 206.182 86.6554 206.586 87.0588C206.249 87.126 205.845 87.126 205.508 87.126C205.777 86.6554 205.912 86.3193 205.912 86.3193ZM202.746 86.0504C204.228 86.0504 205.306 85.7143 205.306 85.7143L203.959 87.0588C203.959 87.0588 203.959 87.0588 203.891 87.126C202.948 86.9916 202.073 86.7899 201.13 86.3193C201.736 86.1176 202.275 86.0504 202.746 86.0504ZM192.373 95.7311C193.451 96.4706 194.192 98.0168 194.192 98.0168C194.192 98.0168 193.114 97.6806 192.104 97.0084C191.093 96.4033 190.016 95.126 190.016 95.126C190.016 95.126 189.544 96.2689 189.005 97.0084C188.534 97.7479 187.389 98.689 187.389 98.689L187.928 96.605C187.995 96.2016 188.197 95.8655 188.534 95.6638L189.544 94.7227C189.544 94.7227 188.736 94.9916 187.658 94.9916C186.581 94.9916 184.694 95.5966 184.694 95.5966C184.694 95.5966 185.705 94.3865 186.917 94.2521C188.13 94.1176 189.746 94.1848 189.746 94.1848C189.746 94.1848 189.477 93.9832 188.399 93.5798C187.321 93.2437 186.917 93.3781 186.917 93.3781H185.907C185.907 93.3781 186.244 92.3697 187.523 92.3697C188.736 92.3697 190.083 93.8487 190.083 93.8487C190.083 93.8487 189.612 93.3781 190.42 91.8991C191.296 90.4201 192.845 89.9495 192.845 89.9495C192.845 89.9495 192.104 91.6302 191.498 92.5042C190.891 93.3781 190.622 93.8487 190.622 93.8487C190.622 93.8487 192.104 93.1092 193.047 93.1092C194.057 93.1092 195.472 93.8487 195.472 93.8487C195.472 93.8487 194.394 94.3193 193.047 94.4538C191.7 94.5882 190.353 94.6554 190.353 94.6554C190.353 94.6554 191.296 94.9916 192.373 95.7311ZM201.938 98.5546C202.14 98.8235 202.275 99.1596 202.342 99.563L202.679 101.714C202.679 101.714 201.871 100.706 201.534 99.9664C201.197 99.2269 200.86 98.0168 200.86 98.0168C200.86 98.0168 199.985 99.4285 199.176 100.101C198.368 100.773 197.56 101.176 197.56 101.176C197.56 101.176 198.166 99.4958 199.042 98.689C199.917 97.8823 200.591 97.5462 200.591 97.5462C200.591 97.5462 199.58 97.5462 198.57 97.4117C197.56 97.3445 196.684 96.8739 196.684 96.8739C196.684 96.8739 197.829 96.0672 198.57 96C199.311 96 200.389 96.6722 200.389 96.6722C200.389 96.6722 200.187 96.1344 199.783 95.2605C199.378 94.3865 198.84 92.6386 198.84 92.6386C198.84 92.6386 200.052 93.1092 200.658 94.5882C201.264 96.0672 200.86 96.605 200.86 96.605C200.86 96.605 201.938 95.0588 202.881 94.9916C203.824 94.9243 204.093 96 204.093 96H203.218C203.218 96 202.948 95.8655 202.073 96.2689C201.197 96.6722 200.995 96.9411 200.995 96.9411C200.995 96.9411 202.207 96.8067 203.15 96.9411C204.093 97.0084 204.834 98.2857 204.834 98.2857C204.834 98.2857 203.42 97.7479 202.612 97.7479C201.736 97.7479 201.13 97.5462 201.13 97.5462L201.938 98.5546ZM217.228 98.3529C218.71 99.3613 219.72 101.513 219.72 101.513C219.72 101.513 218.239 101.042 216.891 100.168C215.544 99.3613 214.062 97.6134 214.062 97.6134C214.062 97.6134 213.389 99.1596 212.715 100.168C212.042 101.176 210.56 102.454 210.56 102.454L211.301 99.6302C211.435 99.1596 211.705 98.689 212.109 98.2857L213.456 96.9411C213.456 96.9411 212.378 97.2773 210.897 97.2773C209.415 97.2773 206.855 98.084 206.855 98.084C206.855 98.084 208.202 96.4706 209.886 96.2689C211.57 96.1344 213.726 96.2017 213.726 96.2017C213.726 96.2017 213.389 95.9327 211.907 95.3949C210.425 94.9243 209.954 95.126 209.954 95.126H208.472C208.472 95.126 208.943 93.7815 210.627 93.7815C212.311 93.7815 214.13 95.7311 214.13 95.7311C214.13 95.7311 213.456 95.0588 214.601 93.1092C215.746 91.1596 217.902 90.4874 217.902 90.4874C217.902 90.4874 216.891 92.7731 216.083 93.9832C215.275 95.126 214.938 95.7983 214.938 95.7983C214.938 95.7983 216.891 94.7899 218.239 94.7899C219.586 94.7899 221.539 95.7983 221.539 95.7983C221.539 95.7983 220.057 96.4706 218.239 96.605C216.42 96.7395 214.601 96.8739 214.601 96.8739C214.601 96.8739 215.746 97.4117 217.228 98.3529ZM229.622 98.4201C229.622 98.4201 229.487 98.4874 229.353 98.6218C229.353 98.5546 229.285 98.4874 229.285 98.4201C229.487 98.4201 229.622 98.4201 229.622 98.4201ZM229.622 99.3613C229.824 99.0924 229.891 98.9579 229.891 98.9579C229.891 98.9579 230.228 100.168 230.565 100.908C230.767 101.378 231.171 101.916 231.441 102.252L230.296 101.378C230.296 101.378 230.093 100.571 229.622 99.3613Z" fill="#2B2B2B"/>
<path opacity="0.05" d="M227.938 57.6806C225.648 56.605 224.638 57.4789 223.829 56.605C223.021 55.6638 226.119 53.3108 219.922 50.8907C219.922 50.8907 219.518 45.7142 211.031 45.5797C202.544 45.3781 204.834 50.7562 202.544 52.0335C200.254 53.3108 199.648 51.294 197.358 52.5713C195.068 53.8486 196.145 56.4033 194.259 56.8066C192.373 57.1428 189.948 55.126 187.658 56.4705C185.368 57.7478 185.368 58.8907 184.358 58.8907C183.347 58.8907 181.259 58.1512 180.047 58.8907C178.834 59.6302 177.353 60.5713 177.353 60.5713H229.689C229.622 60.4369 230.228 58.7562 227.938 57.6806Z" fill="white"/>
<path opacity="0.1" d="M126.497 67.5631C123.332 66.0169 121.85 67.2942 120.705 66.0169C119.56 64.7396 123.87 61.3783 115.181 58.0169C115.181 58.0169 114.575 50.7564 102.653 50.4875C90.7306 50.2186 93.9638 57.748 90.7306 59.5631C87.5648 61.3783 86.6892 58.5547 83.456 60.3699C80.2902 62.185 81.7047 65.8152 79.0778 66.2858C76.4508 66.8236 72.9482 63.9329 69.7824 65.748C67.4249 67.0925 66.8187 68.2354 66.0778 68.7732C65.6736 68.7732 65.3368 68.706 65 68.3698C64.3265 67.6304 66.7513 65.748 61.9016 63.9329C61.9016 63.9329 61.5648 59.8993 54.9638 59.7648C48.3627 59.6304 50.114 63.7984 48.3627 64.8068C46.6114 65.8152 46.0726 64.2018 44.3213 65.2102C42.57 66.2186 43.3783 68.2354 41.8964 68.5043C40.4145 68.7732 38.5285 67.227 36.7099 68.2354C34.9586 69.2438 34.9586 70.1178 34.1503 70.1178C33.342 70.1178 31.7254 69.5127 30.7824 70.1178C29.8394 70.7228 28.6943 71.3951 28.6943 71.3951H55.2332H69.5803H128.788C128.788 71.4623 129.663 69.1093 126.497 67.5631Z" fill="white"/>
<path opacity="0.15" d="M176.948 24.2017C172.435 21.9832 170.347 23.8655 168.731 21.9832C167.114 20.1681 173.244 15.3949 160.917 10.6218C160.917 10.6218 160.109 0.336125 143.202 -9.296e-06C126.296 -0.336144 130.876 10.2857 126.296 12.8403C121.783 15.3949 120.503 11.3613 115.99 13.916C111.477 16.4706 113.498 21.5798 109.793 22.3193C106.088 23.0588 101.171 19.0252 96.5909 21.5798C92.078 24.1344 92.078 26.3529 89.9899 26.3529C87.9018 26.3529 83.793 24.8739 81.3681 26.3529C78.8759 27.8319 76.0469 29.647 76.0469 29.647H180.249C180.249 29.7143 181.461 26.4202 176.948 24.2017Z" fill="white"/>
<path d="M239.658 103.328H246.327" stroke="#263238" stroke-miterlimit="10" stroke-linecap="round" stroke-linejoin="round"/>
<path d="M32.3989 103.328H234.539" stroke="#263238" stroke-miterlimit="10" stroke-linecap="round" stroke-linejoin="round"/>
<path d="M18.7251 103.328H28.1552" stroke="#263238" stroke-miterlimit="10" stroke-linecap="round" stroke-linejoin="round"/>
<path d="M7.61133 103.328H14.0103" stroke="#263238" stroke-miterlimit="10" stroke-linecap="round" stroke-linejoin="round"/>
<path d="M125.958 232.74C125.958 232.74 122.186 227.362 112.756 225.143C103.326 222.925 95.7821 223.328 95.7821 217.412C95.7821 211.496 99.891 192.807 92.0101 189.11C84.1293 185.412 65.8754 181.782 68.435 176.269C70.9272 170.757 77.865 168.941 70.9272 163.026C63.9894 157.11 51.7303 154.555 51.3935 149.042C51.0568 143.53 60.4868 140.975 66.8184 141.311C73.0827 141.647 70.2536 136.538 69.0412 133.244C67.7614 129.95 82.9169 130.286 84.8029 130.286C86.6215 130.219 123.062 216.807 125.958 232.74Z" fill="url(#paint0_linear)" stroke="#263238" stroke-miterlimit="10"/>
<path d="M127.238 233.479C127.238 233.479 131.01 228.101 140.44 225.882C149.87 223.664 157.414 224.067 157.414 218.151C157.414 212.235 153.306 193.546 161.186 189.849C169.067 186.151 187.321 182.521 184.762 177.008C182.269 171.496 175.332 169.681 182.269 163.765C189.207 157.849 201.466 155.294 201.803 149.782C202.14 144.269 192.71 141.714 186.378 142.05C180.114 142.387 182.943 137.277 184.155 133.983C185.435 130.689 170.28 131.025 168.394 131.025C166.508 130.958 130.067 217.546 127.238 233.479Z" fill="url(#paint1_linear)" stroke="#263238" stroke-miterlimit="10"/>
<path d="M97.3313 225.614C97.3313 225.614 86.4194 226.084 84.7354 219.227C83.0515 212.37 95.2432 207.933 86.4194 202.084C77.5955 196.168 57.9271 199.126 55.3675 190.79C52.8753 182.454 62.1033 178.555 62.1033 178.555C62.1033 178.555 55.3676 185.412 62.5074 188.37C69.6473 191.328 93.5593 193.748 95.2432 204.034C96.6577 212.639 86.6214 220.235 97.3313 225.614Z" fill="url(#paint2_linear)" stroke="#263238" stroke-miterlimit="10"/>
<path d="M156.471 225.614C156.471 225.614 167.383 226.084 169.067 219.227C170.751 212.37 158.559 207.933 167.383 202.084C176.207 196.168 195.875 199.126 198.435 190.79C200.995 182.454 191.699 178.555 191.699 178.555C191.699 178.555 198.435 185.412 191.295 188.37C184.155 191.328 160.243 193.748 158.559 204.034C157.145 212.639 167.181 220.235 156.471 225.614Z" fill="url(#paint3_linear)" stroke="#263238" stroke-miterlimit="10"/>
<path d="M81.0308 202.891C81.9064 203.294 82.5126 203.698 82.9168 204.236" stroke="#263238" stroke-miterlimit="10" stroke-linecap="round" stroke-linejoin="round"/>
<path d="M54.7612 195.294C55.7716 196.168 57.1861 197.042 59.0721 197.782C63.8545 199.597 72.6783 200.404 78.2016 201.883" stroke="#263238" stroke-miterlimit="10" stroke-linecap="round" stroke-linejoin="round"/>
<path d="M52.0669 190.79C52.0669 190.79 52.1343 191.933 53.0773 193.345" stroke="#263238" stroke-miterlimit="10" stroke-linecap="round" stroke-linejoin="round"/>
<path d="M54.3574 158.118C58.8704 160 66.7512 163.092 67.8289 165.58C69.1761 168.605 64.7978 169.008 64.7978 169.008" stroke="#263238" stroke-miterlimit="10" stroke-linecap="round" stroke-linejoin="round"/>
<path d="M49.9116 155.16C50.3158 155.63 50.922 156.168 51.6629 156.706" stroke="#263238" stroke-miterlimit="10" stroke-linecap="round" stroke-linejoin="round"/>
<path d="M48.9014 153.345C48.9014 153.345 48.9014 153.546 49.1034 153.883" stroke="#263238" stroke-miterlimit="10" stroke-linecap="round" stroke-linejoin="round"/>
<path d="M174.793 202.891C173.917 203.294 173.311 203.698 172.907 204.236" stroke="#263238" stroke-miterlimit="10" stroke-linecap="round" stroke-linejoin="round"/>
<path d="M201.062 195.294C200.052 196.168 198.637 197.042 196.751 197.782C191.969 199.597 183.145 200.404 177.622 201.883" stroke="#263238" stroke-miterlimit="10" stroke-linecap="round" stroke-linejoin="round"/>
<path d="M203.756 190.79C203.756 190.79 203.689 191.933 202.746 193.345" stroke="#263238" stroke-miterlimit="10" stroke-linecap="round" stroke-linejoin="round"/>
<path d="M201.466 158.118C196.953 160 189.072 163.092 187.995 165.58C186.648 168.605 191.026 169.008 191.026 169.008" stroke="#263238" stroke-miterlimit="10" stroke-linecap="round" stroke-linejoin="round"/>
<path d="M205.912 155.16C205.508 155.63 204.902 156.168 204.161 156.706" stroke="#263238" stroke-miterlimit="10" stroke-linecap="round" stroke-linejoin="round"/>
<path d="M206.922 153.345C206.922 153.345 206.922 153.546 206.72 153.883" stroke="#263238" stroke-miterlimit="10" stroke-linecap="round" stroke-linejoin="round"/>
<path d="M173.041 102.319H127.373H126.632H125.891H80.1552L76.1138 106.151V134.588C76.1138 135.731 76.3832 136.807 76.8547 137.815C79.549 143.261 90.3262 168.202 96.9272 178.756C109.052 198.118 124.948 230.655 125.824 232.672C125.958 233.076 126.295 233.277 126.632 233.345C126.969 233.277 127.238 233.008 127.44 232.672C128.316 230.655 144.212 198.118 156.337 178.756C162.87 168.269 173.715 143.261 176.409 137.815C176.881 136.807 177.15 135.731 177.15 134.588V106.151L173.041 102.319Z" fill="white" stroke="#263238" stroke-miterlimit="10" stroke-linecap="round" stroke-linejoin="round"/>
<path d="M173.041 102.319H127.373H126.632H125.891H80.1552L76.1138 106.151V138.353C76.1138 139.496 76.3832 140.571 76.8547 141.58C79.549 147.025 90.3262 168.269 96.9272 178.824C109.052 198.185 124.948 230.723 125.824 232.74C125.958 233.143 126.295 233.345 126.632 233.412C126.969 233.345 127.238 233.076 127.44 232.74C128.316 230.723 144.212 198.185 156.337 178.824C162.87 168.336 173.715 147.025 176.409 141.58C176.881 140.571 177.15 139.496 177.15 138.353V106.151L173.041 102.319Z" fill="#263238" stroke="#263238" stroke-miterlimit="10" stroke-linecap="round" stroke-linejoin="round"/>
<path d="M126.497 149.849V143.731" stroke="white" stroke-miterlimit="10" stroke-linecap="round" stroke-linejoin="round"/>
<path d="M126.497 232.739V160.403" stroke="white" stroke-miterlimit="10" stroke-linecap="round" stroke-linejoin="round"/>
<path d="M119.492 173.647C115.047 156.303 103.259 146.756 97.7357 143.059C89.3833 142.655 82.3108 141.647 76.4507 140.639C76.5854 140.975 76.6528 141.311 76.8548 141.58C79.5491 147.025 90.3263 168.269 96.9274 178.824C109.052 198.185 124.948 230.723 125.824 232.74C125.958 233.143 126.295 233.345 126.632 233.412C126.497 233.412 126.43 233.345 126.295 233.277C125.824 221.849 124.207 192 119.492 173.647ZM103.124 180.773C101.777 181.513 98.6113 178.42 95.917 173.849C93.2901 169.277 92.2123 164.975 93.5595 164.168C94.9066 163.429 98.0724 166.521 100.767 171.092C103.394 175.731 104.471 180.034 103.124 180.773Z" fill="#FFA200" stroke="#263238" stroke-miterlimit="10" stroke-linecap="round" stroke-linejoin="round"/>
<path d="M156 142.857C150.544 146.353 138.285 155.967 133.704 173.647C128.922 192.067 127.305 221.983 126.901 233.345C126.834 233.412 126.767 233.412 126.632 233.412C126.969 233.345 127.238 233.076 127.44 232.74C128.316 230.723 144.212 198.185 156.337 178.824C162.87 168.336 173.715 147.025 176.409 141.58C176.678 141.042 176.881 140.437 177.015 139.899C171.088 141.042 164.15 142.252 156 142.857ZM157.953 173.849C155.326 178.42 152.093 181.513 150.746 180.773C149.399 180.034 150.476 175.664 153.103 171.093C155.73 166.521 158.963 163.429 160.311 164.168C161.658 164.975 160.58 169.278 157.953 173.849Z" fill="#FFA200" stroke="#263238" stroke-miterlimit="10" stroke-linecap="round" stroke-linejoin="round"/>
<path d="M127.171 102.319H125.891H80.1552L76.1138 106.151V114.487C87.7666 121.277 106.021 125.58 126.497 125.58C146.974 125.58 165.228 121.21 176.881 114.487V106.151L172.839 102.319H127.171Z" fill="white" stroke="#263238" stroke-miterlimit="10" stroke-linecap="round" stroke-linejoin="round"/>
<path d="M125.958 39.6639C125.958 39.6639 123.331 39.8656 121.108 38.1849V32.8068C121.108 30.3194 123.129 28.2354 125.689 28.2354C128.181 28.2354 130.269 30.2522 130.269 32.8068V37.9832C130.269 38.0505 130.269 39.3278 125.958 39.6639Z" fill="white" stroke="#263238" stroke-miterlimit="10"/>
<path d="M118.145 59.2268L121.782 61.7814H130.808L135.052 58.8906H132.694L129.933 60.9074V59.0251H121.984V60.7058L119.762 59.0251L118.145 59.2268Z" fill="#263238"/>
<path d="M114.575 59.5628C114.575 59.5628 111.948 59.7645 109.725 58.0839V52.7057C109.725 50.2183 111.746 48.1343 114.305 48.1343C116.798 48.1343 118.886 50.1511 118.886 52.7057V57.8822C118.818 57.8822 118.818 59.1595 114.575 59.5628Z" fill="white" stroke="#263238" stroke-miterlimit="10" stroke-linecap="round" stroke-linejoin="round"/>
<path d="M137.746 59.5628C137.746 59.5628 135.119 59.7645 132.896 58.0839V52.7057C132.896 50.2183 134.917 48.1343 137.476 48.1343C139.969 48.1343 142.057 50.1511 142.057 52.7057V57.8822C142.057 57.8822 142.057 59.1595 137.746 59.5628Z" fill="white" stroke="#263238" stroke-miterlimit="10" stroke-linecap="round" stroke-linejoin="round"/>
<path d="M127.777 54.3192V51.294H126.969V42.8234H128.046V39.3276H126.969H124.611H123.533V42.8234H124.611V51.294H123.803V54.3192H122.456V57.815H129.191V54.3192H127.777Z" fill="#263238"/>
<path d="M138.756 57.748H112.622V59.4287H138.756V57.748Z" fill="white" stroke="#263238" stroke-miterlimit="10" stroke-linecap="round" stroke-linejoin="round"/>
<path d="M126.699 111.596C146.031 111.596 163.544 109.378 176.409 105.681L172.839 102.252H127.171H125.891H80.1554L76.6528 105.613C89.5855 109.311 107.233 111.596 126.699 111.596Z" fill="#FFA200" stroke="#263238" stroke-miterlimit="10" stroke-linecap="round" stroke-linejoin="round"/>
<path d="M175.87 92.9077C175.601 91.0926 174.119 89.748 172.301 89.748H152.161H126.161H100.161H80.0207C78.2021 89.748 76.7202 91.0926 76.4508 92.9077C76.0466 95.8657 75.4404 99.9665 75.4404 101.378C75.4404 103.597 75.9793 104.471 75.9793 104.471H126.161H176.342C176.342 104.471 176.881 103.53 176.881 101.378C176.881 100.034 176.342 95.8657 175.87 92.9077Z" fill="white" stroke="#263238" stroke-miterlimit="10" stroke-linecap="round" stroke-linejoin="round"/>
<path d="M150.342 61.647H101.171V63.4621H150.342V61.647Z" fill="white" stroke="#263238" stroke-miterlimit="10" stroke-linecap="round" stroke-linejoin="round"/>
<path d="M101.171 63.5293L100.969 66.6217L98.0728 70.3192H100.834H153.508L150.207 66.2856L150.342 63.5293H101.171Z" fill="white" stroke="#263238" stroke-miterlimit="10" stroke-linecap="round" stroke-linejoin="round"/>
<path d="M103.394 63.5293L103.259 66.6217L100.565 70.3192H103.057H151.016L147.985 66.2856L148.187 63.5293H103.394Z" fill="#FFA200" stroke="#263238" stroke-miterlimit="10" stroke-linecap="round" stroke-linejoin="round"/>
<path d="M159.368 74.7565H92.6841V71.933C92.6841 70.6557 93.7618 69.5801 95.0416 69.5801H157.01C158.29 69.5801 159.368 70.6557 159.368 71.933V74.7565Z" fill="white" stroke="#263238" stroke-miterlimit="10" stroke-linecap="round" stroke-linejoin="round"/>
<path d="M166.238 79.6638H85.1396V76.5713C85.1396 74.6217 86.7562 73.0083 88.7096 73.0083H162.668C164.622 73.0083 166.238 74.6217 166.238 76.5713V79.6638Z" fill="white" stroke="#263238" stroke-miterlimit="10" stroke-linecap="round" stroke-linejoin="round"/>
<path d="M125.15 89.8152H101.912L85.1396 79.7312C85.1396 79.7312 87.6992 77.916 92.1448 77.916C96.5904 77.916 162.87 77.916 162.87 77.916C162.87 77.916 165.834 77.5799 166.171 79.7312L152.565 90.0169L125.15 89.8152Z" fill="#FFA200" stroke="#263238" stroke-miterlimit="10" stroke-linecap="round" stroke-linejoin="round"/>
<path d="M157.01 78.79H94.9067V91.2943H157.01V78.79Z" fill="#263238" stroke="#263238" stroke-miterlimit="10" stroke-linecap="round" stroke-linejoin="round"/>
<path d="M101.373 78.79H99.689V91.2943H101.373V78.79Z" fill="#FFA200"/>
<path d="M152.228 78.79H150.544V91.2943H152.228V78.79Z" fill="#FFA200"/>
<path d="M142.798 78.79H140.238V91.2943H142.798V78.79Z" fill="#FFA200"/>
<path d="M111.679 78.79H109.119V91.2943H111.679V78.79Z" fill="#FFA200"/>
<path d="M121.647 78.79H118.684V91.2943H121.647V78.79Z" fill="#FFA200"/>
<path d="M133.233 78.79H130.269V91.2943H133.233V78.79Z" fill="#FFA200"/>
<path d="M157.212 90.5547H94.3677V97.5463H157.212V90.5547Z" fill="#FFA200" stroke="#263238" stroke-miterlimit="10" stroke-linecap="round" stroke-linejoin="round"/>
<path d="M139.969 90.5547H111.544V97.5463H139.969V90.5547Z" fill="#FFA200" stroke="#263238" stroke-miterlimit="10" stroke-linecap="round" stroke-linejoin="round"/>
<path d="M126.699 111.597C141.383 111.597 154.99 110.319 166.373 108.101V103.798L157.145 97.5464H94.3004L86.7563 103.462V108.101C98.2071 110.319 111.948 111.597 126.699 111.597Z" fill="white" stroke="#263238" stroke-miterlimit="10" stroke-linecap="round" stroke-linejoin="round"/>
<path d="M96.7932 91.4291V97.4795L94.0315 103.53H82.9849C82.9849 103.53 84.2647 99.698 88.9123 97.6139C93.4926 95.5971 95.5134 94.1181 95.5134 94.1181V91.1602L96.7932 91.4291Z" fill="white" stroke="#263238" stroke-miterlimit="10" stroke-linecap="round" stroke-linejoin="round"/>
<path d="M82.9173 103.597C82.9173 103.597 82.3784 94.9246 82.7152 91.2944C83.052 87.5969 84.938 88.0002 84.938 88.0002L95.4458 91.2944" stroke="#263238" stroke-miterlimit="10" stroke-linecap="round" stroke-linejoin="round"/>
<path d="M86.2852 88.5381V99.1599" stroke="#263238" stroke-miterlimit="10" stroke-linecap="round" stroke-linejoin="round"/>
<path d="M88.8447 89.2773V97.6807" stroke="#263238" stroke-miterlimit="10" stroke-linecap="round" stroke-linejoin="round"/>
<path d="M90.8657 89.8154V96.4037" stroke="#263238" stroke-miterlimit="10" stroke-linecap="round" stroke-linejoin="round"/>
<path d="M92.6841 90.5547V95.7984" stroke="#263238" stroke-miterlimit="10" stroke-linecap="round" stroke-linejoin="round"/>
<path d="M154.99 91.4291V97.4795L157.751 103.53H168.798C168.798 103.53 167.518 99.698 162.871 97.6139C158.29 95.5971 156.27 94.1181 156.27 94.1181V91.1602L154.99 91.4291Z" fill="white" stroke="#263238" stroke-miterlimit="10" stroke-linecap="round" stroke-linejoin="round"/>
<path d="M156.27 91.2945L166.777 88.0004C166.777 88.0004 168.596 87.6643 169 91.2945C169.337 94.992 168.798 103.597 168.798 103.597" stroke="#263238" stroke-miterlimit="10" stroke-linecap="round" stroke-linejoin="round"/>
<path d="M165.498 88.5381V99.1599" stroke="#263238" stroke-miterlimit="10" stroke-linecap="round" stroke-linejoin="round"/>
<path d="M162.871 89.2778V97.6812" stroke="#263238" stroke-miterlimit="10" stroke-linecap="round" stroke-linejoin="round"/>
<path d="M160.85 89.8154V96.4037" stroke="#263238" stroke-miterlimit="10" stroke-linecap="round" stroke-linejoin="round"/>
<path d="M159.031 90.5552V95.7989" stroke="#263238" stroke-miterlimit="10" stroke-linecap="round" stroke-linejoin="round"/>
<path d="M94.0312 109.311C103.865 110.79 114.979 111.664 126.767 111.664C137.814 111.664 148.254 110.925 157.617 109.647V103.664H94.0986V109.311H94.0312Z" fill="#FFA200" stroke="#263238" stroke-miterlimit="10" stroke-linecap="round" stroke-linejoin="round"/>
<path d="M158.29 69.8488V67.1598C158.29 67.1598 158.29 66.1514 156.067 66.1514C153.845 66.1514 98.2747 66.1514 96.0519 66.1514C93.8291 66.1514 93.8291 67.1598 93.8291 67.1598V69.8488" stroke="#263238" stroke-miterlimit="10" stroke-linecap="round" stroke-linejoin="round"/>
<path d="M104.876 66.1514V69.311" stroke="#263238" stroke-miterlimit="10" stroke-linecap="round" stroke-linejoin="round"/>
<path d="M118.819 66.1514V69.311" stroke="#263238" stroke-miterlimit="10" stroke-linecap="round" stroke-linejoin="round"/>
<path d="M132.829 66.1514V69.311" stroke="#263238" stroke-miterlimit="10" stroke-linecap="round" stroke-linejoin="round"/>
<path d="M146.772 66.1514V69.311" stroke="#263238" stroke-miterlimit="10" stroke-linecap="round" stroke-linejoin="round"/>
</g>
<defs>
<linearGradient id="paint0_linear" x1="88.6715" y1="130.276" x2="34.5552" y2="177.154" gradientUnits="userSpaceOnUse">
<stop/>
<stop offset="1" stop-color="#303030"/>
</linearGradient>
<linearGradient id="paint1_linear" x1="164.525" y1="131.016" x2="110.409" y2="177.893" gradientUnits="userSpaceOnUse">
<stop/>
<stop offset="1" stop-color="#303030"/>
</linearGradient>
<linearGradient id="paint2_linear" x1="76.1359" y1="178.555" x2="51.0818" y2="205.412" gradientUnits="userSpaceOnUse">
<stop stop-color="#171717"/>
<stop offset="1" stop-color="#303030"/>
</linearGradient>
<linearGradient id="paint3_linear" x1="177.676" y1="178.555" x2="152.623" y2="205.423" gradientUnits="userSpaceOnUse">
<stop stop-color="#171717"/>
<stop offset="1" stop-color="#303030"/>
</linearGradient>
<clipPath id="clip0">
<rect width="260" height="240" fill="white"/>
</clipPath>
</defs>
</svg>
