<svg width="307" height="240" viewBox="0 0 307 240" fill="none" xmlns="http://www.w3.org/2000/svg">
<g clip-path="url(#clip0)">
<path opacity="0.1" d="M259.604 73.6692C256.032 71.7619 254.444 73.3513 253.174 71.7619C251.904 70.1725 256.746 65.9606 247.061 61.7487C247.061 61.7487 246.426 52.6891 233.247 52.3712C220.068 52.0533 223.562 61.4308 220.068 63.6559C216.496 65.8811 215.543 62.3844 212.05 64.6096C208.478 66.8348 210.145 71.3645 207.207 72.0003C204.349 72.6361 200.459 69.1394 196.887 71.3646C193.314 73.5897 193.314 75.5765 191.726 75.5765C190.138 75.5765 186.884 74.3049 184.978 75.5765C183.073 76.848 180.771 78.4374 180.771 78.4374H262.224C262.145 78.5169 263.177 75.6559 259.604 73.6692Z" fill="white"/>
<path opacity="0.1" d="M189.424 30.0401C187.36 28.9276 186.407 29.8812 185.613 28.9276C184.819 27.9739 187.677 25.5103 181.961 23.0468C181.961 23.0468 181.564 17.7223 173.784 17.4839C165.924 17.3249 168.068 22.8084 165.924 24.1593C163.86 25.5103 163.225 23.3646 161.161 24.7156C159.097 26.0666 160.05 28.6891 158.303 29.0865C156.556 29.4839 154.334 27.3382 152.19 28.6891C150.047 30.0401 150.126 31.1527 149.173 31.1527C148.221 31.1527 146.315 30.358 145.204 31.1527C144.092 31.9474 142.743 32.9011 142.743 32.9011H191.012C190.932 32.9011 191.488 31.2322 189.424 30.0401Z" fill="white"/>
<path opacity="0.1" d="M165.607 106.729C163.543 105.616 162.59 106.57 161.796 105.616C161.002 104.662 163.86 102.199 158.144 99.7353C158.144 99.7353 157.747 94.4107 149.967 94.1723C142.108 94.0134 144.251 99.4968 142.108 100.848C140.043 102.199 139.408 100.053 137.344 101.404C135.28 102.755 136.233 105.378 134.486 105.775C132.74 106.172 130.517 104.027 128.373 105.378C126.309 106.729 126.309 107.841 125.356 107.841C124.404 107.841 122.498 107.047 121.387 107.841C120.275 108.636 118.926 109.59 118.926 109.59H167.195C167.115 109.59 167.671 107.921 165.607 106.729Z" fill="white"/>
<path d="M235.787 235.391H276.673C275.879 230.384 272.703 231.258 272.227 223.47C271.989 219.576 275.641 214.728 275.323 209.563C275.085 205.351 270.877 200.98 270.56 196.132C270.242 191.761 273.815 186.914 273.497 182.225C273.18 177.775 268.972 173.483 268.575 168.874C268.178 164.344 271.671 159.497 271.274 154.887C270.877 150.357 266.59 146.146 266.114 141.616C265.638 137.007 269.052 132 268.496 127.629C267.94 122.94 263.494 118.887 262.939 114.516C262.303 109.669 265.4 104.583 264.685 100.371C263.812 95.2847 259.048 91.5496 258.016 87.8145C256.19 80.8211 256.429 74.0661 254.206 73.5893C251.824 73.1125 251.348 79.7085 249.522 87.0992C248.648 90.8343 243.964 94.5694 243.25 99.6555C242.615 103.788 245.87 108.795 245.393 113.563C244.917 117.854 240.63 121.987 240.154 126.675C239.757 131.046 243.25 135.894 242.932 140.503C242.615 144.954 238.407 149.245 238.09 153.775C237.772 158.305 241.424 163.073 241.186 167.523C240.948 172.132 236.819 176.424 236.581 180.874C236.343 185.563 240.074 190.252 239.836 194.622C239.677 199.391 235.549 203.841 235.47 208.053C235.311 213.139 239.042 217.828 238.883 221.722C238.645 230.146 234.755 228.397 234.676 235.152L235.787 235.391Z" fill="url(#paint0_linear)"/>
<path d="M253.332 87.2583V233.483" stroke="#4E4E4E" stroke-miterlimit="10"/>
<path d="M259.683 102.596L253.094 108.318L247.616 101.086" stroke="#4E4E4E" stroke-miterlimit="10"/>
<path d="M259.683 128.027L253.094 133.748L247.616 126.517" stroke="#4E4E4E" stroke-miterlimit="10"/>
<path d="M259.683 151.947L253.094 157.748L247.616 150.437" stroke="#4E4E4E" stroke-miterlimit="10"/>
<path d="M259.683 180.477L253.094 186.199L247.616 178.967" stroke="#4E4E4E" stroke-miterlimit="10"/>
<path d="M259.683 209.245L253.094 214.967L247.616 207.735" stroke="#4E4E4E" stroke-miterlimit="10"/>
<path d="M192.758 235.391H228.245C227.531 231.02 224.752 231.814 224.435 225.059C224.276 221.642 227.372 217.51 227.134 213.059C226.896 209.404 223.323 205.669 223.006 201.457C222.768 197.642 225.864 193.43 225.546 189.377C225.229 185.483 221.577 181.828 221.259 177.775C220.942 173.881 223.958 169.589 223.641 165.695C223.323 161.722 219.592 158.066 219.195 154.172C218.798 150.198 221.736 145.828 221.259 142.013C220.783 137.96 216.972 134.463 216.416 130.649C215.861 126.437 218.56 121.987 217.925 118.41C217.131 113.96 213.003 110.781 212.209 107.523C210.621 101.483 210.78 95.6024 208.874 95.2051C206.81 94.8077 206.413 100.53 204.825 106.967C204.032 110.225 200.062 113.483 199.348 117.854C198.792 121.43 201.65 125.801 201.174 129.934C200.777 133.669 197.045 137.245 196.648 141.298C196.331 145.112 199.348 149.324 199.03 153.298C198.712 157.192 195.14 160.847 194.822 164.821C194.584 168.715 197.68 172.847 197.522 176.742C197.283 180.715 193.711 184.45 193.552 188.344C193.393 192.397 196.569 196.45 196.41 200.265C196.251 204.397 192.758 208.212 192.599 211.867C192.441 216.318 195.696 220.371 195.616 223.708C195.378 231.02 192.044 229.51 191.964 235.391H192.758Z" fill="url(#paint1_linear)"/>
<path d="M207.922 106.887V233.722" stroke="#4E4E4E" stroke-miterlimit="10"/>
<path d="M213.479 120.238L207.684 125.165L203 118.887" stroke="#4E4E4E" stroke-miterlimit="10"/>
<path d="M213.479 142.252L207.684 147.258L203 140.98" stroke="#4E4E4E" stroke-miterlimit="10"/>
<path d="M213.479 163.073L207.684 168.079L203 161.722" stroke="#4E4E4E" stroke-miterlimit="10"/>
<path d="M213.479 187.788L207.684 192.715L203 186.437" stroke="#4E4E4E" stroke-miterlimit="10"/>
<path d="M213.479 212.742L207.684 217.748L203 211.391" stroke="#4E4E4E" stroke-miterlimit="10"/>
<path d="M67.8781 235.391H117.259C116.306 229.351 112.416 230.384 111.939 221.086C111.701 216.397 116.068 210.516 115.671 204.318C115.353 199.232 110.352 193.987 109.955 188.185C109.637 182.94 113.924 177.059 113.448 171.417C113.051 166.013 107.97 160.927 107.494 155.285C107.017 149.881 111.225 143.92 110.749 138.437C110.272 132.953 105.033 127.867 104.556 122.463C104 116.9 108.049 110.861 107.414 105.536C106.779 99.8939 101.381 94.9667 100.666 89.8012C99.8722 83.9998 103.604 77.8012 102.73 72.7945C101.619 66.6753 95.9027 62.225 94.7119 57.6952C92.489 49.2714 92.7271 41.0859 90.1073 40.6091C87.2492 40.0528 86.6141 47.9998 84.4706 56.98C83.3591 61.4303 77.8019 66.0396 76.8492 72.1588C76.1347 77.1654 80.0248 83.2051 79.3897 89.0065C78.8339 94.172 73.5942 99.1786 73.1179 104.821C72.6415 110.146 76.8492 115.947 76.4522 121.51C76.0553 126.914 70.9743 132 70.6568 137.483C70.3392 142.967 74.6263 148.689 74.3881 154.093C74.0705 159.655 69.1484 164.821 68.9102 170.146C68.672 175.788 73.1179 181.43 72.8797 186.675C72.6415 192.477 67.7194 197.801 67.5606 202.808C67.3224 208.927 71.8476 214.649 71.6889 219.338C71.3713 229.51 66.7667 227.364 66.6079 235.549L67.8781 235.391Z" fill="url(#paint2_linear)"/>
<path d="M88.9956 56.6621V233.086" stroke="#4E4E4E" stroke-miterlimit="10"/>
<path d="M96.7762 75.1789L88.6784 82.0928L82.1685 73.3511" stroke="#4E4E4E" stroke-miterlimit="10"/>
<path d="M96.7762 105.854L88.6784 112.848L82.1685 104.026" stroke="#4E4E4E" stroke-miterlimit="10"/>
<path d="M96.7762 134.781L88.6784 141.695L82.1685 132.954" stroke="#4E4E4E" stroke-miterlimit="10"/>
<path d="M96.7762 169.112L88.6784 176.106L82.1685 167.285" stroke="#4E4E4E" stroke-miterlimit="10"/>
<path d="M96.7762 203.841L88.6784 210.834L82.1685 202.013" stroke="#4E4E4E" stroke-miterlimit="10"/>
<path d="M57.0015 180.794V223.867C57.0015 228.159 60.4946 231.655 64.7817 231.655H154.016C158.303 231.655 161.796 228.159 161.796 223.867V218.94" stroke="#263238" stroke-width="2" stroke-miterlimit="10" stroke-linecap="round" stroke-linejoin="round"/>
<path d="M59.8596 172.371H53.1909V177.298H59.8596V172.371Z" fill="#263238" stroke="#263238" stroke-miterlimit="10" stroke-linecap="round" stroke-linejoin="round"/>
<path d="M53.9849 148.848H21.2764V237.695H53.9849V148.848Z" fill="#1A1A1A"/>
<path d="M21.2764 237.775H35.8841V160.609L35.8047 148.848H21.2764V237.775Z" fill="#2B2B2B"/>
<path opacity="0.5" d="M21.2764 237.775H35.8841V160.609L35.8047 148.848H21.2764V237.775Z" fill="#4E4E4E"/>
<path d="M42.2353 191.046H39.933L41.6796 186.437H36.1223L33.7406 192.874H35.4078L32.5498 200.662L42.2353 191.046Z" fill="#FFA200"/>
<path d="M53.9849 148.848H21.2764V237.695H53.9849V148.848Z" stroke="#263238" stroke-miterlimit="10"/>
<path d="M37.6306 175.152C46.6629 175.152 53.9849 163.944 53.9849 150.119C53.9849 136.294 46.6629 125.086 37.6306 125.086C28.5984 125.086 21.2764 136.294 21.2764 150.119C21.2764 163.944 28.5984 175.152 37.6306 175.152Z" fill="#1A1A1A" stroke="#263238" stroke-miterlimit="10" stroke-linecap="round" stroke-linejoin="round"/>
<path d="M41.4415 150.357H33.82C33.1055 150.357 32.5498 149.801 32.5498 149.086V143.523C32.5498 142.808 33.1055 142.251 33.82 142.251H41.4415C42.156 142.251 42.7117 142.808 42.7117 143.523V149.086C42.7117 149.801 42.156 150.357 41.4415 150.357Z" fill="white" stroke="#263238" stroke-miterlimit="10" stroke-linecap="round" stroke-linejoin="round"/>
<path d="M43.2674 165.059C43.2674 161.96 40.7269 159.497 37.7101 159.497C34.6139 159.497 32.1528 162.04 32.1528 165.059C32.1528 168.079 34.6933 170.622 37.7101 170.622C40.7269 170.622 43.2674 168.159 43.2674 165.059Z" fill="#263238" stroke="#263238" stroke-miterlimit="10" stroke-linecap="round" stroke-linejoin="round"/>
<path opacity="0.2" d="M40.4093 165.059C40.4093 163.549 39.1391 162.278 37.6307 162.278C36.1223 162.278 34.8521 163.549 34.8521 165.059C34.8521 166.569 36.1223 167.841 37.6307 167.841C39.2185 167.841 40.4093 166.569 40.4093 165.059Z" fill="white"/>
<path d="M39.3774 133.192C39.3774 132.238 38.5835 131.443 37.6309 131.443C36.6782 131.443 35.8843 132.238 35.8843 133.192C35.8843 134.145 36.6782 134.94 37.6309 134.94C38.5835 134.94 39.3774 134.145 39.3774 133.192Z" fill="#263238" stroke="#263238" stroke-miterlimit="10" stroke-linecap="round" stroke-linejoin="round"/>
<path d="M58.4308 176.821H55.5728V181.748H58.4308V176.821Z" fill="#263238" stroke="#263238" stroke-miterlimit="10" stroke-linecap="round" stroke-linejoin="round"/>
<path d="M53.9849 221.404H21.2764V237.775H53.9849V221.404Z" fill="black" stroke="#263238" stroke-miterlimit="10" stroke-linecap="round" stroke-linejoin="round"/>
<path d="M306.603 232.212H0.396973V238.172H306.603V232.212Z" fill="#1A1A1A" stroke="#263238" stroke-miterlimit="10" stroke-linecap="round" stroke-linejoin="round"/>
<path d="M306.603 236.821H0.396973V239.602H306.603V236.821Z" fill="#263238" stroke="#263238" stroke-miterlimit="10" stroke-linecap="round" stroke-linejoin="round"/>
<path d="M113.686 170.146H113.289C111.463 170.146 110.193 168.318 110.749 166.57C111.305 164.901 112.178 163.232 113.766 162.993C116.941 162.437 125.674 165.139 125.674 166.967C125.674 168.795 125.674 169.59 124.642 169.59C123.61 169.59 118.053 169.59 118.053 169.59L112.734 175.391L112.654 175.311C111.463 174.358 111.543 172.609 112.654 171.576C112.892 171.179 113.369 170.702 113.686 170.146Z" fill="#263238" stroke="#263238" stroke-miterlimit="10" stroke-linecap="round" stroke-linejoin="round"/>
<path d="M173.466 219.417H261.351C261.351 219.417 274.053 210.914 271.433 188.662C268.813 166.411 254.523 181.272 249.204 196.053H210.065C210.065 196.053 201.57 179.126 187.836 181.192C174.022 183.338 173.466 219.417 173.466 219.417Z" fill="#263238" stroke="#263238" stroke-miterlimit="10" stroke-linecap="round" stroke-linejoin="round"/>
<path d="M195.06 214.967C195.06 208.451 193.155 202.57 190.218 198.358V192.159H179.659C171.085 192.159 164.178 202.331 164.178 214.967C164.178 227.603 171.085 237.775 179.659 237.775H190.218V231.576C193.155 227.444 195.06 221.484 195.06 214.967Z" fill="#263238" stroke="#263238" stroke-miterlimit="10" stroke-linecap="round" stroke-linejoin="round"/>
<path d="M190.218 237.775C198.768 237.775 205.699 227.564 205.699 214.967C205.699 202.371 198.768 192.159 190.218 192.159C181.668 192.159 174.737 202.371 174.737 214.967C174.737 227.564 181.668 237.775 190.218 237.775Z" fill="#263238"/>
<path opacity="0.2" d="M190.218 237.775C198.768 237.775 205.699 227.564 205.699 214.967C205.699 202.371 198.768 192.159 190.218 192.159C181.668 192.159 174.737 202.371 174.737 214.967C174.737 227.564 181.668 237.775 190.218 237.775Z" fill="white"/>
<path d="M190.218 237.775C198.768 237.775 205.699 227.564 205.699 214.967C205.699 202.371 198.768 192.159 190.218 192.159C181.668 192.159 174.737 202.371 174.737 214.967C174.737 227.564 181.668 237.775 190.218 237.775Z" stroke="#263238" stroke-miterlimit="10" stroke-linecap="round" stroke-linejoin="round"/>
<path d="M99.5547 192.238H89.5516C81.4538 192.238 74.9438 202.41 74.9438 215.046C74.9438 227.682 81.4538 237.854 89.5516 237.854H99.5547C107.652 237.854 114.162 227.682 114.162 215.046C114.162 202.41 107.652 192.238 99.5547 192.238Z" fill="#263238" stroke="#263238" stroke-miterlimit="10" stroke-linecap="round" stroke-linejoin="round"/>
<path d="M190.218 233.165C197.014 233.165 202.523 225.018 202.523 214.967C202.523 204.916 197.014 196.768 190.218 196.768C183.421 196.768 177.912 204.916 177.912 214.967C177.912 225.018 183.421 233.165 190.218 233.165Z" fill="white" stroke="#2B2B2B" stroke-miterlimit="10" stroke-linecap="round" stroke-linejoin="round"/>
<path d="M267.464 214.967C267.464 208.451 266.273 202.57 264.368 198.358V192.159H255C249.602 192.159 245.156 202.331 245.156 214.967C245.156 227.603 249.522 237.775 255 237.775H264.368V231.576C266.273 227.444 267.464 221.484 267.464 214.967Z" fill="#263238" stroke="#263238" stroke-miterlimit="10" stroke-linecap="round" stroke-linejoin="round"/>
<path d="M264.368 237.775C269.805 237.775 274.212 227.564 274.212 214.967C274.212 202.371 269.805 192.159 264.368 192.159C258.931 192.159 254.523 202.371 254.523 214.967C254.523 227.564 258.931 237.775 264.368 237.775Z" fill="#263238"/>
<path opacity="0.2" d="M264.368 237.775C269.805 237.775 274.212 227.564 274.212 214.967C274.212 202.371 269.805 192.159 264.368 192.159C258.931 192.159 254.523 202.371 254.523 214.967C254.523 227.564 258.931 237.775 264.368 237.775Z" fill="white"/>
<path d="M264.368 237.775C269.805 237.775 274.212 227.564 274.212 214.967C274.212 202.371 269.805 192.159 264.368 192.159C258.931 192.159 254.523 202.371 254.523 214.967C254.523 227.564 258.931 237.775 264.368 237.775Z" stroke="#263238" stroke-miterlimit="10" stroke-linecap="round" stroke-linejoin="round"/>
<path d="M264.367 233.165C268.708 233.165 272.227 225.018 272.227 214.967C272.227 204.916 268.708 196.768 264.367 196.768C260.027 196.768 256.508 204.916 256.508 214.967C256.508 225.018 260.027 233.165 264.367 233.165Z" fill="white" stroke="#2B2B2B" stroke-miterlimit="10" stroke-linecap="round" stroke-linejoin="round"/>
<path d="M177.198 220.53C177.198 202.411 183.47 187.709 191.25 187.709C199.03 187.709 205.302 202.411 205.302 220.53C205.302 221.563 205.302 222.517 205.222 223.47H255.317C255.317 222.517 255.238 221.484 255.238 220.53C255.238 202.411 259.842 187.709 265.479 187.709C269.29 187.709 272.545 194.305 274.371 204.08V177.219C274.371 174.676 272.545 172.53 270.084 172.053C270.004 172.053 269.925 172.053 269.846 171.974C266.352 171.258 260.16 164.662 250.395 156.318C240.71 147.974 231.977 147.258 231.977 147.258H210.462H144.251C142.584 147.258 140.996 147.815 139.646 148.848L109.717 171.974C109.717 171.974 82.9623 177.219 77.0874 183.099C71.2126 188.98 71.8477 223.391 71.8477 223.391H177.118C177.198 222.517 177.198 221.563 177.198 220.53Z" fill="#FFA200"/>
<path opacity="0.3" d="M194.503 172.051L199.187 147.336H144.329C142.662 147.336 141.074 147.892 139.724 148.925L109.794 172.051C109.794 172.051 83.0399 177.296 77.1651 183.177C71.2902 189.058 71.9253 223.468 71.9253 223.468H165.923C166.637 204.872 170.845 196.051 170.845 196.051H144.884C164.97 174.356 194.503 172.051 194.503 172.051Z" fill="black"/>
<path d="M177.198 220.53C177.198 202.411 183.47 187.709 191.25 187.709C199.03 187.709 205.302 202.411 205.302 220.53C205.302 221.563 205.302 222.517 205.222 223.47H255.317C255.317 222.517 255.238 221.484 255.238 220.53C255.238 202.411 259.842 187.709 265.479 187.709C269.29 187.709 272.545 194.305 274.371 204.08V177.219C274.371 174.676 272.545 172.53 270.084 172.053C270.004 172.053 269.925 172.053 269.846 171.974C266.352 171.258 260.16 164.662 250.395 156.318C240.71 147.974 231.977 147.258 231.977 147.258H210.462H144.251C142.584 147.258 140.996 147.815 139.647 148.848L109.717 171.974C109.717 171.974 82.9623 177.219 77.0874 183.099C71.2126 188.98 71.8477 223.391 71.8477 223.391H177.118C177.198 222.517 177.198 221.563 177.198 220.53Z" stroke="#263238" stroke-miterlimit="10" stroke-linecap="round" stroke-linejoin="round"/>
<path d="M210.541 147.338H144.33C142.663 147.338 141.075 147.894 139.726 148.927L109.796 172.053H194.505L210.541 147.338Z" fill="#FFA200" stroke="#263238" stroke-miterlimit="10" stroke-linecap="round" stroke-linejoin="round"/>
<path d="M175.849 181.351C171.085 181.431 162.749 181.748 159.097 183.179C153.858 185.245 150.444 187.311 150.444 187.311H167.433L175.849 181.351Z" fill="#263238" stroke="#263238" stroke-miterlimit="10" stroke-linecap="round" stroke-linejoin="round"/>
<path d="M168.465 192.556V189.457H150.444L153.699 192.477C153.619 192.477 153.619 192.556 153.54 192.556H168.465Z" fill="#263238" stroke="#263238" stroke-miterlimit="10" stroke-linecap="round" stroke-linejoin="round"/>
<path d="M170.212 188.026V192.556C171.323 192.397 172.752 191.921 173.705 190.411C175.452 187.629 179.342 181.271 179.342 181.271L170.212 188.026Z" fill="#263238" stroke="#263238" stroke-miterlimit="10" stroke-linecap="round" stroke-linejoin="round"/>
<path d="M78.8339 192.477L82.0889 189.457H74.388C74.1499 190.411 73.9117 191.444 73.7529 192.556H78.9927C78.9133 192.556 78.9133 192.477 78.8339 192.477Z" fill="#263238" stroke="#263238" stroke-miterlimit="10" stroke-linecap="round" stroke-linejoin="round"/>
<path d="M76.2141 184.371C75.7377 185.166 75.3408 186.199 74.9438 187.311H82.0889C82.0889 187.311 79.866 185.961 76.2141 184.371Z" fill="#263238" stroke="#263238" stroke-miterlimit="10" stroke-linecap="round" stroke-linejoin="round"/>
<path d="M194.505 172.053H245.87C245.87 172.053 253.174 169.589 251.11 160.609C250.395 157.51 235.867 150.517 233.723 150.517C231.659 150.517 208.716 150.517 208.716 150.517L194.505 172.053Z" fill="#263238"/>
<path opacity="0.2" d="M194.505 172.053H245.87C245.87 172.053 253.174 169.589 251.11 160.609C250.395 157.51 235.867 150.517 233.723 150.517C231.659 150.517 208.716 150.517 208.716 150.517L194.505 172.053Z" fill="white" stroke="#263238" stroke-miterlimit="10" stroke-linecap="round" stroke-linejoin="round"/>
<path d="M194.505 172.053H245.87C245.87 172.053 253.174 169.589 251.11 160.609C250.395 157.51 235.867 150.517 233.723 150.517C231.659 150.517 208.716 150.517 208.716 150.517L194.505 172.053Z" stroke="#263238" stroke-miterlimit="10" stroke-linecap="round" stroke-linejoin="round"/>
<path d="M137.662 150.517L109.796 172.053H194.505L208.477 150.517H137.662Z" fill="#263238" stroke="#263238" stroke-miterlimit="10" stroke-linecap="round" stroke-linejoin="round"/>
<path d="M83.3594 188.026V195.338L88.5991 199.152H130.596L140.361 195.02V188.026H83.3594Z" fill="#263238" stroke="#263238" stroke-miterlimit="10" stroke-linecap="round" stroke-linejoin="round"/>
<path opacity="0.3" d="M85.2647 188.026H83.3594V189.934H85.2647V188.026Z" fill="white"/>
<path opacity="0.3" d="M87.4879 190.172H85.5825V192.079H87.4879V190.172Z" fill="white"/>
<path opacity="0.3" d="M89.6309 192.318H87.7256V194.225H89.6309V192.318Z" fill="white"/>
<path opacity="0.3" d="M91.7745 194.463H89.8691V196.371H91.7745V194.463Z" fill="white"/>
<path opacity="0.3" d="M139.964 188.026H138.059V189.934H139.964V188.026Z" fill="white"/>
<path opacity="0.3" d="M137.82 190.172H135.915V192.079H137.82V190.172Z" fill="white"/>
<path opacity="0.3" d="M135.677 192.318H133.772V194.225H135.677V192.318Z" fill="white"/>
<path opacity="0.3" d="M133.454 194.463H131.549V196.371H133.454V194.463Z" fill="white"/>
<path opacity="0.3" d="M94.712 194.463H92.8066V196.371H94.712V194.463Z" fill="white"/>
<path opacity="0.3" d="M97.7286 194.463H95.8232V196.371H97.7286V194.463Z" fill="white"/>
<path opacity="0.3" d="M100.667 194.463H98.7612V196.371H100.667V194.463Z" fill="white"/>
<path opacity="0.3" d="M103.683 194.463H101.778V196.371H103.683V194.463Z" fill="white"/>
<path opacity="0.3" d="M106.62 194.463H104.715V196.371H106.62V194.463Z" fill="white"/>
<path opacity="0.3" d="M109.637 194.463H107.732V196.371H109.637V194.463Z" fill="white"/>
<path opacity="0.3" d="M112.654 194.463H110.749V196.371H112.654V194.463Z" fill="white"/>
<path opacity="0.3" d="M115.592 194.463H113.687V196.371H115.592V194.463Z" fill="white"/>
<path opacity="0.3" d="M118.608 194.463H116.703V196.371H118.608V194.463Z" fill="white"/>
<path opacity="0.3" d="M121.546 194.463H119.64V196.371H121.546V194.463Z" fill="white"/>
<path opacity="0.3" d="M124.563 194.463H122.657V196.371H124.563V194.463Z" fill="white"/>
<path opacity="0.3" d="M127.5 194.463H125.595V196.371H127.5V194.463Z" fill="white"/>
<path opacity="0.3" d="M130.517 194.463H128.611V196.371H130.517V194.463Z" fill="white"/>
<path d="M160.526 208.212H73.9909L72.8 198.914C72.2443 204 72.0061 209.483 71.9268 213.934L72.2443 215.205L73.9909 211.708H81.3741L76.7695 215.523H145.521L143.06 211.708H160.446L165.289 214.49H168.782V196.768L160.526 208.212Z" fill="#263238" stroke="#263238" stroke-miterlimit="10" stroke-linecap="round" stroke-linejoin="round"/>
<path d="M212.606 170.146H212.209C210.383 170.146 209.113 168.318 209.668 166.57C210.224 164.901 211.097 163.232 212.685 162.993C215.861 162.437 224.594 165.139 224.594 166.967C224.594 168.795 224.594 169.59 223.562 169.59C222.53 169.59 216.972 169.59 216.972 169.59L211.653 175.391L211.574 175.311C210.383 174.358 210.462 172.609 211.574 171.576C211.891 171.179 212.288 170.702 212.606 170.146Z" fill="#FFA200"/>
<path d="M228.404 172.053H231.342C231.024 167.762 229.833 158.384 225.07 150.517C224.117 150.517 223.164 150.517 222.132 150.517C223.8 154.093 227.769 163.47 228.404 172.053Z" fill="#263238" stroke="#263238" stroke-miterlimit="10" stroke-linecap="round" stroke-linejoin="round"/>
<path d="M165.766 156.318L166.798 159.258C166.798 159.258 164.654 161.086 164.654 164.026C164.654 166.172 164.654 170.066 164.654 172.053H158.144L163.622 156.318H165.766ZM135.359 160.291C130.914 162.993 124.165 169.033 120.831 172.053H142.584L153.857 154.729L146.474 155.285C146.474 155.285 141.472 156.636 135.359 160.291ZM180.373 158.225L177.753 157.669H174.022L172.99 158.702C172.99 158.702 175.61 158.94 175.928 160.53C176.166 162.119 176.166 165.298 176.166 165.298H177.992C177.992 165.298 177.992 162.358 179.341 161.086C180.691 159.735 181.723 158.94 181.723 158.94L180.373 158.225Z" fill="#4E4E4E" stroke="#263238" stroke-miterlimit="10" stroke-linecap="round" stroke-linejoin="round"/>
<path d="M211.495 175.311L211.574 175.391L216.893 169.59C216.893 169.59 222.45 169.59 223.482 169.59C224.356 169.59 224.514 169.033 224.514 167.762H209.51C209.669 169.033 210.78 170.066 212.209 170.066H212.606C212.288 170.702 211.891 171.179 211.415 171.497C210.304 172.609 210.304 174.358 211.495 175.311Z" fill="#263238" stroke="#263238" stroke-miterlimit="10" stroke-linecap="round" stroke-linejoin="round"/>
<path d="M227.769 178.49H221.815V179.762H227.769V178.49Z" fill="#263238"/>
<path d="M254.603 178.49H248.648V179.762H254.603V178.49Z" fill="#263238"/>
<path d="M255 173.325C255 173.325 259.287 176.265 261.827 186.517C261.827 186.517 251.189 187.788 251.189 217.192" stroke="#263238" stroke-miterlimit="10" stroke-linecap="round" stroke-linejoin="round"/>
<path d="M249.919 218.464H206.969H205.302C205.302 219.179 205.302 219.815 205.302 220.53C205.302 221.563 205.302 222.517 205.223 223.47H255.318C255.318 222.517 255.238 221.484 255.238 220.53C255.238 220.451 255.238 220.371 255.238 220.292L249.919 218.464Z" fill="#263238" stroke="#263238" stroke-miterlimit="10" stroke-linecap="round" stroke-linejoin="round"/>
<path d="M177.198 220.53C177.198 219.815 177.198 219.179 177.198 218.464H71.9268C71.9268 221.484 71.9268 223.47 71.9268 223.47H177.198C177.198 222.517 177.198 221.563 177.198 220.53Z" fill="#263238" stroke="#263238" stroke-miterlimit="10" stroke-linecap="round" stroke-linejoin="round"/>
<path d="M272.545 175.868C270.878 175.868 269.528 177.219 269.528 178.888C269.528 179.364 269.687 179.921 269.925 180.318L274.45 188.662V177.219C274.45 176.742 274.371 176.344 274.292 175.868H274.212H272.545Z" fill="#263238" stroke="#263238" stroke-miterlimit="10" stroke-linecap="round" stroke-linejoin="round"/>
<path d="M231.659 176.503C231.659 176.503 241.186 190.252 231.659 213.616" stroke="#263238" stroke-miterlimit="10" stroke-linecap="round" stroke-linejoin="round"/>
</g>
<defs>
<linearGradient id="paint0_linear" x1="255.674" y1="73.5649" x2="206.976" y2="88.6071" gradientUnits="userSpaceOnUse">
<stop stop-color="#171717"/>
<stop offset="1" stop-color="#303030"/>
</linearGradient>
<linearGradient id="paint1_linear" x1="210.105" y1="95.1856" x2="168.013" y2="108.149" gradientUnits="userSpaceOnUse">
<stop stop-color="#171717"/>
<stop offset="1" stop-color="#303030"/>
</linearGradient>
<linearGradient id="paint2_linear" x1="91.9332" y1="40.5815" x2="33.2108" y2="58.7387" gradientUnits="userSpaceOnUse">
<stop stop-color="#171717"/>
<stop offset="1" stop-color="#303030"/>
</linearGradient>
<clipPath id="clip0">
<rect width="307" height="240" fill="white"/>
</clipPath>
</defs>
</svg>
