<svg width="24" height="24" viewBox="0 0 24 24" fill="none" xmlns="http://www.w3.org/2000/svg">
<path d="M24 12C24 5.37258 18.6274 0 12 0C5.37258 0 0 5.37258 0 12C0 18.6274 5.37258 24 12 24C18.6274 24 24 18.6274 24 12Z" fill="#1BD741"/>
<path d="M3.6068 20.4021L4.78223 16.227C4.02507 14.9399 3.62664 13.4735 3.62839 11.9802C3.62839 7.35856 7.38851 3.59792 12.0107 3.59792C16.6329 3.59792 20.3931 7.35804 20.3931 11.9802C20.3931 16.6025 16.6329 20.3626 12.0107 20.3626C10.5758 20.3634 9.16481 19.9954 7.91303 19.2941L3.6068 20.4021ZM8.13263 17.7689L8.3891 17.9269C9.47986 18.5917 10.7328 18.9429 12.0102 18.9417C15.8483 18.9417 18.9706 15.8194 18.9706 11.9813C18.9706 8.14324 15.8488 5.01981 12.0107 5.01981C8.17266 5.01981 5.05028 8.14219 5.05028 11.9802C5.04859 13.3116 5.43013 14.6153 6.14935 15.7356L6.32209 16.0047L5.64537 18.4093L8.13263 17.7689Z" fill="white"/>
<path d="M9.6563 8.079L9.11072 8.04898C8.94024 8.03894 8.77253 8.09559 8.64307 8.20697C8.37976 8.43605 7.95846 8.87842 7.82838 9.4556C7.63511 10.3156 7.93371 11.3688 8.70627 12.4221C9.47883 13.4754 10.9181 15.1606 13.4633 15.8805C14.2854 16.1148 14.9305 15.9568 15.4302 15.6408C15.625 15.5147 15.7927 15.3512 15.9239 15.1599C16.0551 14.9685 16.147 14.7531 16.1944 14.526L16.2813 14.1205C16.2949 14.0577 16.2867 13.9921 16.258 13.9346C16.2292 13.8772 16.1817 13.8313 16.1233 13.8045L14.2833 12.955C14.2253 12.9283 14.16 12.922 14.098 12.9372C14.036 12.9524 13.981 12.9882 13.942 13.0388L13.2184 13.9762C13.1919 14.0107 13.1552 14.0359 13.1135 14.0483C13.0718 14.0607 13.0272 14.0596 12.9862 14.0452C12.4922 13.8714 10.8365 13.1783 9.92804 11.4283C9.9089 11.3913 9.90118 11.3494 9.90587 11.308C9.91056 11.2665 9.92744 11.2274 9.95438 11.1956L10.6443 10.3977C10.6787 10.3578 10.7013 10.309 10.7094 10.2568C10.7175 10.2047 10.7108 10.1513 10.6901 10.1028L9.90013 8.2491C9.87939 8.20083 9.84557 8.15933 9.80248 8.12927C9.7594 8.09921 9.70876 8.0818 9.6563 8.079Z" fill="white"/>
</svg>
