<svg width="36" height="37" viewBox="0 0 36 37" fill="none" xmlns="http://www.w3.org/2000/svg">
<g clip-path="url(#clip0)">
<path d="M35.2565 10.408C34.7701 8.57687 33.3364 7.13519 31.5154 6.64548C28.8155 5.91763 19.0992 5.89648 18 5.89648C16.9008 5.89648 7.18451 5.91763 4.48517 6.6452C2.66364 7.13519 1.22992 8.57687 0.743774 10.4072C0.0085144 13.1683 0 18.6546 0 18.8867C0 19.1188 0.0085144 24.6051 0.7435 27.3654C1.22992 29.1966 2.66364 30.6382 4.48462 31.128C7.18451 31.8558 16.9008 31.877 18 31.877C19.0992 31.877 28.8155 31.8558 31.5148 31.1282C33.3364 30.6382 34.7701 29.1966 35.2562 27.3662C35.9915 24.6051 36 19.1188 36 18.8867C36 18.6546 35.9915 13.1683 35.2565 10.408ZM33.2177 26.8241C32.9247 27.9279 32.062 28.7967 30.9663 29.0914C28.9094 29.6459 20.9092 29.7676 18 29.7676C15.0911 29.7676 7.09085 29.6459 5.03311 29.0911C3.93805 28.7967 3.07562 27.9279 2.78201 26.8232C2.11761 24.3288 2.10938 18.9408 2.10938 18.8867C2.10938 18.8326 2.11707 13.4471 2.78229 10.9494C3.07535 9.84552 3.93805 8.97678 5.03366 8.68207C7.09058 8.12753 15.0911 8.00586 18 8.00586C20.9089 8.00586 28.9094 8.12753 30.9669 8.68234C32.062 8.97678 32.9247 9.84552 33.218 10.9502C33.8824 13.4446 33.8906 18.8326 33.8906 18.8867C33.8906 18.9408 33.8829 24.3263 33.2177 26.8241Z" fill="white"/>
<g filter="url(#filter0_d)">
<path d="M13.4778 25.746L25.5232 18.8869L13.4778 12.0273V25.746ZM15.5871 15.6561L21.2605 18.8869L15.5871 22.1175V15.6561Z" fill="#D01900"/>
</g>
</g>
<defs>
<filter id="filter0_d" x="-0.522247" y="-1.97266" width="40.0454" height="41.7186" filterUnits="userSpaceOnUse" color-interpolation-filters="sRGB">
<feFlood flood-opacity="0" result="BackgroundImageFix"/>
<feColorMatrix in="SourceAlpha" type="matrix" values="0 0 0 0 0 0 0 0 0 0 0 0 0 0 0 0 0 0 127 0"/>
<feOffset/>
<feGaussianBlur stdDeviation="7"/>
<feColorMatrix type="matrix" values="0 0 0 0 1 0 0 0 0 0.1625 0 0 0 0 0.1625 0 0 0 1 0"/>
<feBlend mode="normal" in2="BackgroundImageFix" result="effect1_dropShadow"/>
<feBlend mode="normal" in="SourceGraphic" in2="effect1_dropShadow" result="shape"/>
</filter>
<clipPath id="clip0">
<rect width="36" height="36" fill="white" transform="translate(0 0.904297)"/>
</clipPath>
</defs>
</svg>
