<svg width="22" height="22" viewBox="0 0 22 22" fill="none" xmlns="http://www.w3.org/2000/svg">
<g clip-path="url(#clip0)">
<path d="M20.8609 6.14516C20.5829 5.09879 19.7636 4.27497 18.7231 3.99513C17.1803 3.57922 11.6281 3.56714 11 3.56714C10.3719 3.56714 4.81973 3.57922 3.27725 3.99498C2.23637 4.27497 1.41711 5.09879 1.13931 6.14469C0.71916 7.72248 0.714294 10.8575 0.714294 10.9901C0.714294 11.1227 0.71916 14.2578 1.13915 15.8351C1.41711 16.8815 2.23637 17.7053 3.27693 17.9851C4.81973 18.401 10.3719 18.4131 11 18.4131C11.6281 18.4131 17.1803 18.401 18.7228 17.9853C19.7636 17.7053 20.5829 16.8815 20.8607 15.8356C21.2809 14.2578 21.2857 11.1227 21.2857 10.9901C21.2857 10.8575 21.2809 7.72248 20.8609 6.14516ZM19.6958 15.5258C19.5284 16.1565 19.0354 16.653 18.4093 16.8214C17.234 17.1382 12.6624 17.2078 11 17.2078C9.33778 17.2078 4.76621 17.1382 3.59036 16.8212C2.96461 16.653 2.47179 16.1565 2.30402 15.5253C1.92436 14.0999 1.91965 11.021 1.91965 10.9901C1.91965 10.9592 1.92405 7.88178 2.30417 6.4545C2.47164 5.82373 2.96461 5.32731 3.59067 5.1589C4.76605 4.84202 9.33778 4.7725 11 4.7725C12.6622 4.7725 17.234 4.84202 18.4097 5.15906C19.0354 5.32731 19.5284 5.82373 19.696 6.45497C20.0757 7.88037 20.0804 10.9592 20.0804 10.9901C20.0804 11.021 20.076 14.0985 19.6958 15.5258Z" fill="white"/>
<path d="M8.41589 14.9095L15.299 10.9901L8.41589 7.07031V14.9095ZM9.62125 9.1439L12.8632 10.9901L9.62125 12.8361V9.1439Z" fill="white"/>
</g>
<defs>
<clipPath id="clip0">
<rect width="20.5714" height="20.5714" fill="white" transform="translate(0.714294 0.714355)"/>
</clipPath>
</defs>
</svg>
