<svg width="18" height="18" viewBox="0 0 18 18" fill="none" xmlns="http://www.w3.org/2000/svg">
<g clip-path="url(#clip0_951_10360)">
<path d="M12.5666 13.0871L6.03979 15.7275L5.97183 15.755C5.18454 16.0816 4.28155 15.7087 3.95495 14.9211L0.11843 5.6805C-0.208522 4.89322 0.164731 3.99023 0.952018 3.66363L6.80981 1.2316C7.59745 0.904643 8.50047 1.2779 8.82707 2.0648L9.29106 3.05965L12.0155 8.89905L12.5666 13.0871Z" fill="#FCC938"/>
<path d="M17.9342 6.2093L15.0444 15.7886C14.7983 16.6045 13.9371 17.0667 13.1212 16.8205L8.05653 15.2926L7.04881 14.9884C6.23252 14.7423 5.7707 13.8815 6.01687 13.0652L8.90664 3.48628C9.15277 2.67034 10.0135 2.20817 10.8295 2.45434L16.9022 4.28643C16.9577 4.30334 17.0117 4.32282 17.0638 4.34557C17.7777 4.64981 18.1634 5.44884 17.9342 6.2093Z" fill="#ED3B3B"/>
</g>
<defs>
<clipPath id="clip0_951_10360">
<rect width="18" height="18" fill="white"/>
</clipPath>
</defs>
</svg>
