<svg width="20" height="20" viewBox="0 0 20 20" fill="none" xmlns="http://www.w3.org/2000/svg">
<g clip-path="url(#clip0_805_15888)">
<path d="M10.6398 8.75707C10.9719 8.42508 11.4133 8.24223 11.8828 8.24223C12.3523 8.24223 12.7937 8.42508 13.1258 8.75707L18.1172 13.7485V6.23438C18.1172 6.07899 18.0554 5.92996 17.9455 5.82008L12.2971 0.171642C12.1639 0.0384784 11.9749 -0.0226153 11.7889 0.00757997C11.603 0.0377362 11.443 0.155432 11.3587 0.323908L5.87227 11.2969H2.34375V13.8907H5.50625L10.6398 8.75707Z" fill="#2364B5"/>
<path d="M18.1172 15.6484C18.1172 15.493 18.0554 15.344 17.9455 15.2341L12.2971 9.5857C12.1872 9.47582 12.0382 9.41406 11.8828 9.41406C11.7274 9.41406 11.5784 9.47582 11.4685 9.5857L5.99168 15.0625H2.34375V17.6562H18.1172V15.6484Z" fill="#2364B5"/>
<path d="M19.4141 18.8281H1.17188V0.585938C1.17188 0.262344 0.909531 0 0.585938 0C0.262344 0 0 0.262344 0 0.585938V19.4141C0 19.7377 0.262344 20 0.585938 20H19.4141C19.7377 20 20 19.7377 20 19.4141C20 19.0905 19.7377 18.8281 19.4141 18.8281Z" fill="#2364B5"/>
</g>
<defs>
<clipPath id="clip0_805_15888">
<rect width="20" height="20" fill="white"/>
</clipPath>
</defs>
</svg>
