<svg width="20" height="20" viewBox="0 0 20 20" fill="none" xmlns="http://www.w3.org/2000/svg">
<path d="M1.25 10.613V18.113C1.25 18.803 1.81125 19.363 2.5 19.363H8.75V10.613H1.25Z" fill="#2364B5"/>
<path d="M18.75 5.6129H14.795C15.0788 5.41915 15.3225 5.22665 15.4925 5.05415C16.5012 4.0404 16.5012 2.3904 15.4925 1.37665C14.5125 0.389151 12.805 0.391651 11.8263 1.37665C11.2838 1.9204 9.84625 4.13415 10.045 5.6129H9.955C10.1525 4.13415 8.715 1.9204 8.17375 1.37665C7.19375 0.391651 5.48625 0.391651 4.5075 1.37665C3.5 2.3904 3.5 4.0404 4.50625 5.05415C4.6775 5.22665 4.92125 5.41915 5.205 5.6129H1.25C0.56125 5.6129 0 6.17415 0 6.8629V8.7379C0 9.0829 0.28 9.3629 0.625 9.3629H8.75V6.8629H11.25V9.3629H19.375C19.72 9.3629 20 9.0829 20 8.7379V6.8629C20 6.17415 19.44 5.6129 18.75 5.6129ZM8.67625 5.57165C8.67625 5.57165 8.62375 5.6129 8.445 5.6129C7.58125 5.6129 5.9325 4.7154 5.39375 4.1729C4.87 3.6454 4.87 2.7854 5.39375 2.2579C5.6475 2.0029 5.98375 1.8629 6.34125 1.8629C6.6975 1.8629 7.03375 2.0029 7.2875 2.2579C8.13 3.1054 8.9675 5.2704 8.67625 5.57165ZM11.5538 5.6129C11.3763 5.6129 11.3237 5.5729 11.3237 5.57165C11.0325 5.2704 11.87 3.1054 12.7125 2.2579C13.2163 1.74915 14.0975 1.74665 14.6063 2.2579C15.1313 2.7854 15.1313 3.6454 14.6063 4.1729C14.0675 4.7154 12.4187 5.6129 11.5538 5.6129Z" fill="#2364B5"/>
<path d="M11.25 10.613V19.363H17.5C18.19 19.363 18.75 18.803 18.75 18.113V10.613H11.25Z" fill="#2364B5"/>
</svg>
