<svg width="20" height="20" viewBox="0 0 20 20" fill="none" xmlns="http://www.w3.org/2000/svg">
<g clip-path="url(#clip0_805_7466)">
<path d="M16.2917 6.04492C16.3862 6.58393 16.4342 7.13797 16.4342 7.70316C16.4342 9.42173 15.764 11.0342 14.5471 12.2436C13.9566 12.8304 13.2684 13.291 12.5016 13.6126C11.709 13.9451 10.8673 14.1137 10.0001 14.1137C8.28129 14.1137 6.66712 13.4533 5.45496 12.2542C4.2368 11.0492 3.56592 9.43918 3.56592 7.72065C3.56592 7.08686 3.66285 6.54355 3.80083 6.04492H1.78223V17.689H11.1482L15.4499 20V17.689H18.2178V6.04492H16.2917Z" fill="#2364B5"/>
<path d="M4.73975 7.7207C4.73975 9.61165 5.73774 11.2519 7.23553 12.1668C7.10541 11.8333 7.03322 11.4711 7.03322 11.0921C7.03322 10.4441 7.2385 9.82837 7.62685 9.31147C8.08192 8.70578 9.99992 6.96998 9.99992 6.96998C9.99992 6.96998 11.918 8.70574 12.373 9.31147C12.7614 9.82837 12.9667 10.4441 12.9667 11.0921C12.9667 11.4686 12.8954 11.8286 12.7669 12.1603C14.2633 11.2399 15.2601 9.5931 15.2601 7.7032C15.2601 5.70957 14.5977 4.08745 13.6122 2.82007C12.5049 1.39601 11.0853 0.57278 9.82789 0C9.83274 1.99951 8.9455 3.27311 8.28784 3.77553C8.28784 3.77553 7.25146 2.55421 5.96083 2.28067C5.87991 4.8042 4.73975 5.77895 4.73975 7.7207Z" fill="#2364B5"/>
<path d="M10 8.55762C9.50604 9.01817 8.81379 9.6862 8.56553 10.0166C8.33117 10.3286 8.20728 10.7005 8.20728 11.0921C8.20728 12.0806 9.01148 12.8848 10 12.8848C10.9885 12.8848 11.7927 12.0806 11.7927 11.0921C11.7927 10.7005 11.6688 10.3286 11.4345 10.0167C11.186 9.68588 10.494 9.01805 10 8.55762Z" fill="#2364B5"/>
</g>
<defs>
<clipPath id="clip0_805_7466">
<rect width="20" height="20" fill="white"/>
</clipPath>
</defs>
</svg>
