<svg width="20" height="20" viewBox="0 0 20 20" fill="none" xmlns="http://www.w3.org/2000/svg">
<path d="M1.17647 7.059H4.70588V4.70605H1.17647C0.527059 4.70605 0 5.23308 0 5.88253C0 6.53233 0.526667 7.059 1.17647 7.059Z" fill="#2364B5"/>
<path d="M5.88232 2.35303H9.41174V7.05891H5.88232V2.35303Z" fill="#2364B5"/>
<path d="M10.5881 0H14.7058V7.05882H10.5881V0Z" fill="#2364B5"/>
<path d="M1.17647 8.23549C0.748039 8.23549 0.346353 8.11985 0 7.91895V17.059C0 18.6808 1.31941 20.0002 2.94118 20.0002H20V17.059H16.4706C14.8488 17.059 13.5294 15.7396 13.5294 14.1178C13.5294 12.4961 14.8488 11.1767 16.4706 11.1767H20V8.23549C18.8121 8.23549 1.30031 8.23549 1.17647 8.23549ZM6.88651 15.538L6.05463 16.3698L5.22271 15.538L4.39082 16.3698L3.55894 15.538L4.39086 14.7061L3.55898 13.8742L4.39086 13.0423L5.22274 13.8742L6.05467 13.0423L6.88655 13.8742L6.05463 14.7061L6.88651 15.538ZM11.7647 15.2943H9.41177V16.4708H11.7647V17.6473H8.23529V14.1178H10.5882V12.9414H8.23529V11.7649H11.7647V15.2943Z" fill="#2364B5"/>
<path d="M14.7058 14.1177C14.7058 15.0908 15.4974 15.8824 16.4705 15.8824H19.9999V12.353H16.4705C15.4974 12.353 14.7058 13.1446 14.7058 14.1177ZM17.647 14.706H16.4705V13.5295H17.647V14.706Z" fill="#2364B5"/>
<path d="M15.8823 4.70605H18.2353V7.059H15.8823V4.70605Z" fill="#2364B5"/>
</svg>
