<svg width="20" height="20" viewBox="0 0 20 20" fill="none" xmlns="http://www.w3.org/2000/svg">
<g clip-path="url(#clip0_805_7424)">
<path fill-rule="evenodd" clip-rule="evenodd" d="M6.05805 11.7734C6.05805 11.946 6.19797 12.0859 6.37055 12.0859H16.683C16.8556 12.0859 16.9955 11.946 16.9955 11.7734V8.22656C16.9955 8.05398 16.8556 7.91406 16.683 7.91406H6.37055C6.19797 7.91406 6.05805 8.05398 6.05805 8.22656V11.7734ZM19.6875 13.9102H6.37059C6.19801 13.9102 6.05809 14.0501 6.05809 14.2227V17.7699C6.0582 17.9425 6.19805 18.0823 6.37059 18.0824H19.6875C19.86 18.0823 19.9999 17.9425 20 17.7699V14.2227C20 14.0501 19.8601 13.9102 19.6875 13.9102ZM6.37059 6.08984H13.0291C13.2016 6.08984 13.3416 5.94992 13.3416 5.77734V2.23004C13.3414 2.0575 13.2016 1.9177 13.0291 1.91754H6.37059C6.19805 1.91766 6.0582 2.0575 6.05809 2.23004V5.77734C6.05809 5.94992 6.19801 6.08984 6.37059 6.08984ZM2.65625 7.54688C1.18926 7.54688 0 8.73613 0 10.2031C0 11.6701 1.18926 12.8594 2.65625 12.8594C4.12324 12.8594 5.3125 11.6701 5.3125 10.2031C5.31082 8.7368 4.12258 7.54855 2.65625 7.54688ZM2.65625 1.34766C1.18926 1.34766 0 2.53691 0 4.00391C0 5.4709 1.18926 6.66016 2.65625 6.66016C4.12324 6.66016 5.3125 5.4709 5.3125 4.00391C5.31094 2.53754 4.12262 1.34922 2.65625 1.34766ZM2.65625 13.3398C1.18926 13.3398 0 14.5291 0 15.9961C0 17.4631 1.18926 18.6523 2.65625 18.6523C4.12324 18.6523 5.3125 17.4631 5.3125 15.9961C5.31078 14.5298 4.12254 13.3416 2.65625 13.3398ZM2.96836 2.89453C2.96836 2.89723 2.96879 2.89961 2.96879 2.90234V5.10547C2.96879 5.27805 2.82887 5.41797 2.65629 5.41797C2.48371 5.41797 2.34379 5.27805 2.34379 5.10547V3.46438C2.19324 3.54832 2.00312 3.4943 1.91922 3.34371C1.83805 3.19805 1.88566 3.01434 2.02738 2.92648L2.49086 2.63707C2.68574 2.5077 2.97039 2.6602 2.9682 2.89461L2.96836 2.89453ZM3.72453 11.2969C3.72453 11.4695 3.58461 11.6094 3.41203 11.6094H1.90031C1.72789 11.6096 1.58797 11.47 1.58777 11.2975C1.58773 11.2464 1.60023 11.196 1.62422 11.1508C1.7632 10.8893 1.95723 10.6609 2.19301 10.4816C2.19648 10.4789 2.2 10.4765 2.20371 10.4738C2.79102 10.0661 2.98312 9.75004 2.96934 9.6032C2.9627 9.53324 2.89367 9.48867 2.83687 9.46336C2.70137 9.40355 2.53703 9.41367 2.47434 9.46062C2.41047 9.5082 2.3741 9.58418 2.37703 9.66375C2.38262 9.83625 2.24734 9.98063 2.07484 9.98621C1.9034 9.99176 1.75953 9.85812 1.75246 9.68676C1.74207 9.40203 1.87211 9.13031 2.10035 8.9598C2.35484 8.76957 2.7527 8.74266 3.09016 8.89223C3.38168 9.02113 3.56441 9.25898 3.59148 9.54418C3.63445 9.99574 3.28941 10.4801 2.56598 10.9832C2.56547 10.9837 2.56488 10.984 2.56438 10.9845H3.41203C3.58461 10.9845 3.72453 11.1244 3.72453 11.297V11.2969ZM3.27398 15.8594C3.63137 16.2016 3.64375 16.7687 3.30156 17.1261C3.14566 17.2889 2.93406 17.387 2.70902 17.4007C2.69051 17.402 2.67203 17.4023 2.65375 17.4023C2.20035 17.4018 1.81867 17.063 1.76437 16.6129C1.74375 16.4415 1.86598 16.2859 2.03734 16.2653C2.20871 16.2446 2.36434 16.3669 2.38496 16.5382C2.40262 16.687 2.5375 16.7932 2.68621 16.7755C2.83492 16.7578 2.94113 16.6229 2.92344 16.4742C2.90789 16.3434 2.80051 16.2427 2.66895 16.2355C2.66258 16.2352 2.65633 16.2348 2.65012 16.234C2.6423 16.2348 2.63449 16.2352 2.62691 16.2355C2.45457 16.2449 2.30719 16.1128 2.29777 15.9405C2.28836 15.7681 2.42047 15.6207 2.59285 15.6113C2.70227 15.6053 2.78609 15.5118 2.78008 15.4023C2.77406 15.2929 2.68051 15.2091 2.57109 15.2151C2.4748 15.2204 2.39629 15.2941 2.38496 15.3899C2.36445 15.5612 2.20895 15.6836 2.03758 15.663C1.86621 15.6425 1.74391 15.487 1.76437 15.3157C1.81813 14.8641 2.22777 14.5416 2.67938 14.5953C3.13098 14.6491 3.45348 15.0587 3.39973 15.5103C3.38488 15.6347 3.34191 15.7541 3.27398 15.8594Z" fill="#2364B5"/>
</g>
<defs>
<clipPath id="clip0_805_7424">
<rect width="20" height="20" fill="white"/>
</clipPath>
</defs>
</svg>
