<svg width="20" height="20" viewBox="0 0 20 20" fill="none" xmlns="http://www.w3.org/2000/svg">
<path d="M6.68125 0.625H2.69375C1.55121 0.625 0.625 1.55121 0.625 2.69375V6.68125C0.625 7.82379 1.55121 8.75 2.69375 8.75H6.68125C7.82379 8.75 8.75 7.82379 8.75 6.68125V2.69375C8.75 1.55121 7.82379 0.625 6.68125 0.625Z" fill="#2364B5"/>
<path d="M17.3063 0.625H13.3187C12.1762 0.625 11.25 1.55121 11.25 2.69375V6.68125C11.25 7.82379 12.1762 8.75 13.3187 8.75H17.3063C18.4488 8.75 19.375 7.82379 19.375 6.68125V2.69375C19.375 1.55121 18.4488 0.625 17.3063 0.625Z" fill="#2364B5"/>
<path d="M6.68125 11.25H2.69375C1.55121 11.25 0.625 12.1762 0.625 13.3187V17.3063C0.625 18.4488 1.55121 19.375 2.69375 19.375H6.68125C7.82379 19.375 8.75 18.4488 8.75 17.3063V13.3187C8.75 12.1762 7.82379 11.25 6.68125 11.25Z" fill="#2364B5"/>
<path d="M15.3125 19.375C17.5562 19.375 19.375 17.5562 19.375 15.3125C19.375 13.0688 17.5562 11.25 15.3125 11.25C13.0688 11.25 11.25 13.0688 11.25 15.3125C11.25 17.5562 13.0688 19.375 15.3125 19.375Z" fill="#2364B5"/>
</svg>
