<svg width="18" height="17" viewBox="0 0 18 17" fill="none" xmlns="http://www.w3.org/2000/svg">
<path d="M8.70272 0.0573635C8.64342 0.0866928 8.56188 0.141684 8.5211 0.174679C8.4618 0.226006 7.59447 1.93444 6.3676 4.41644C6.10814 4.9407 5.98583 5.10567 5.80421 5.201C5.75973 5.22299 5.25934 5.30731 4.69224 5.3843C4.12514 5.46496 3.50244 5.55661 3.3097 5.58594C3.11696 5.61894 2.53133 5.69959 2.01241 5.77292C0.466781 5.98189 0.348171 6.01122 0.173964 6.20186C0.0442344 6.34117 -0.000244141 6.45482 -0.000244141 6.65646C-0.000244141 6.92043 0.0664736 7.00842 0.685467 7.606C3.53209 10.3373 3.96576 10.7736 4.01394 10.9459C4.05842 11.0962 4.05101 11.1842 3.94723 11.7964C3.79155 12.691 3.49503 14.4141 3.32823 15.3599C3.1392 16.4378 3.15032 16.6138 3.41719 16.8374C3.57657 16.9694 3.76561 17.0207 3.96576 16.9914C4.12143 16.9694 4.18074 16.9254 4.56622 16.5588C6.20822 15.0043 7.12744 13.7798 7.74273 12.3317C7.95771 11.8221 8.31354 10.6086 8.28759 10.4729C8.27647 10.418 8.21717 10.3336 8.15786 10.2823C8.05037 10.1906 8.03925 10.1906 7.36096 10.1906C6.79756 10.1906 6.65301 10.1797 6.54552 10.1283C6.39725 10.0587 6.29347 9.86803 6.32683 9.72871C6.34907 9.65172 6.90876 8.8085 7.68713 7.68666C7.8391 7.47035 8.14304 7.03041 8.36543 6.70779C8.69531 6.23119 8.79168 6.11387 8.89176 6.08454C9.01407 6.04421 9.18458 6.06621 9.26983 6.1322C9.31801 6.16886 9.58118 6.53915 10.1853 7.42269C10.367 7.68299 10.6375 8.07894 10.7932 8.30257C11.2788 9.00281 11.4715 9.28877 11.6012 9.47575C11.7606 9.71405 11.768 9.88636 11.6161 10.0513L11.5086 10.1723L10.7858 10.1906C9.83322 10.2163 9.81098 10.231 9.92589 10.9129C10.063 11.6974 10.367 12.5407 10.7932 13.3069C11.364 14.3298 11.9682 15.0923 13.1098 16.2288C13.7992 16.9107 13.8659 16.9694 14.0142 16.9914C14.433 17.0574 14.8408 16.7348 14.8371 16.3425C14.8334 16.2765 14.8111 16.0895 14.7778 15.9282C14.7481 15.7669 14.6332 15.107 14.522 14.4617C14.4108 13.8165 14.2403 12.8523 14.1476 12.317C13.9141 10.9899 13.9178 11.0339 14.0327 10.8432C14.0846 10.7552 14.6035 10.2236 15.1929 9.65905C17.3204 7.61333 17.8838 7.05608 17.9394 6.94976C18.0284 6.78111 18.0173 6.53181 17.9172 6.33017C17.7689 6.02955 17.6689 6.00022 16.0046 5.77292C15.4746 5.69959 14.8334 5.60794 14.5776 5.57128C14.3218 5.53095 13.6954 5.4393 13.1876 5.36964C12.3537 5.25232 12.2462 5.23032 12.1127 5.13867C11.9793 5.05068 11.9015 4.91503 11.2788 3.67954C10.9007 2.93164 10.3781 1.89045 10.1186 1.36252C9.5923 0.306662 9.4811 0.12702 9.29577 0.0500298C9.12898 -0.0196266 8.83987 -0.0159607 8.70272 0.0573635Z" fill="#1A1B1D"/>
</svg>
