<svg width="135" height="40" viewBox="0 0 135 40" fill="none" xmlns="http://www.w3.org/2000/svg">
<path d="M10.8787 2.56749C10.8046 2.60199 10.7027 2.66669 10.6517 2.70551C10.5776 2.76589 9.49339 4.77581 7.95981 7.69581C7.63548 8.31259 7.48259 8.50668 7.25556 8.61882C7.19996 8.6447 6.57449 8.7439 5.86561 8.83448C5.15673 8.92936 4.37836 9.03719 4.13743 9.0717C3.89651 9.11052 3.16446 9.20541 2.51582 9.29167C0.583781 9.53752 0.435519 9.57202 0.21776 9.7963C0.0555982 9.9602 0 10.0939 0 10.3311C0 10.6417 0.0833972 10.7452 0.857139 11.4482C4.41542 14.6615 4.9575 15.1748 5.01774 15.3775C5.07333 15.5543 5.06407 15.6579 4.93434 16.3782C4.73975 17.4306 4.36909 19.4577 4.1606 20.5705C3.92431 21.8386 3.9382 22.0456 4.27179 22.3087C4.47102 22.464 4.70731 22.5244 4.9575 22.4899C5.1521 22.464 5.22623 22.4122 5.70808 21.9809C7.76058 20.1521 8.90961 18.7116 9.67872 17.0079C9.94744 16.4083 10.3922 14.9807 10.3598 14.8211C10.3459 14.7564 10.2718 14.6572 10.1976 14.5968C10.0633 14.489 10.0494 14.489 9.2015 14.489C8.49726 14.489 8.31656 14.4761 8.1822 14.4157C7.99687 14.3337 7.86714 14.1094 7.90884 13.9455C7.93664 13.855 8.63625 12.8629 9.60922 11.5431C9.79918 11.2887 10.1791 10.7711 10.4571 10.3915C10.8694 9.83081 10.9899 9.69279 11.115 9.65829C11.2679 9.61084 11.481 9.63672 11.5876 9.71436C11.6478 9.75749 11.9768 10.1931 12.732 11.2326C12.959 11.5388 13.2972 12.0046 13.4918 12.2677C14.0988 13.0915 14.3397 13.428 14.5019 13.6479C14.7011 13.9283 14.7104 14.131 14.5204 14.3251L14.386 14.4674L13.4826 14.489C12.2918 14.5192 12.264 14.5364 12.4077 15.3387C12.5791 16.2617 12.959 17.2537 13.4918 18.1552C14.2053 19.3585 14.9605 20.2557 16.3876 21.5927C17.2493 22.395 17.3327 22.464 17.5181 22.4899C18.0416 22.5675 18.5513 22.188 18.5466 21.7264C18.542 21.6488 18.5142 21.4288 18.4725 21.2391C18.4354 21.0493 18.2918 20.2729 18.1528 19.5138C18.0138 18.7547 17.8007 17.6203 17.6849 16.9906C17.393 15.4293 17.3976 15.481 17.5412 15.2567C17.6061 15.1532 18.2547 14.5278 18.9914 13.8636C21.6509 11.4569 22.3551 10.8013 22.4246 10.6762C22.5358 10.4778 22.5219 10.1845 22.3968 9.94726C22.2115 9.59359 22.0864 9.55908 20.0061 9.29167C19.3435 9.20541 18.542 9.09758 18.2223 9.05445C17.9026 9.007 17.1196 8.89917 16.4849 8.81722C15.4424 8.6792 15.308 8.65332 15.1412 8.54549C14.9744 8.44198 14.8771 8.28239 14.0988 6.82887C13.6262 5.94899 12.9729 4.72405 12.6486 4.10296C11.9907 2.86078 11.8517 2.64944 11.62 2.55886C11.4115 2.47691 11.0501 2.48122 10.8787 2.56749Z" fill="white"/>
<path d="M49.9297 11.4011H40.2543V15.2473H45.409C44.7199 17.0879 43.0384 18.2143 40.4748 18.2143C36.7259 18.2143 34.4104 15.8242 34.4104 12.5549C34.4104 9.17582 36.8362 6.78571 40.0889 6.78571C42.2665 6.78571 44.0032 7.77473 44.8026 9.03846L48.5514 6.8956C46.9251 4.31319 43.8102 2.5 40.1165 2.5C34.438 2.5 30 6.95055 30 12.5275C30 18.0494 34.3553 22.5 40.4197 22.5C45.8225 22.5 49.9297 18.9286 49.9297 13.0494V11.4011Z" fill="white"/>
<path d="M64.3795 12.1429C65.427 11.2363 66.061 9.97253 66.061 8.37912C66.061 5.05494 63.332 2.88462 59.9691 2.88462H52.4162V22.1154H60.5204C63.966 22.1154 66.7501 19.8901 66.7501 16.4835C66.7501 14.533 65.8129 13.0494 64.3795 12.1429ZM59.9691 7.00549C60.989 7.00549 61.6505 7.71978 61.6505 8.70879C61.6505 9.6978 60.9614 10.4121 59.9691 10.4121H56.8266V7.00549H59.9691ZM60.5204 17.9945H56.8266V14.3132H60.5204C61.623 14.3132 62.3397 15.0824 62.3397 16.1538C62.3397 17.2253 61.623 17.9945 60.5204 17.9945Z" fill="white"/>
<path d="M73.355 17.8846V14.478H80.2463V10.3022H73.355V7.11538H80.9355V2.88462H68.9446V22.1154H81.0733V17.8846H73.355Z" fill="white"/>
<path d="M96.5174 2.88462H82.1834V7.11538H87.1452V22.1154H91.5556V7.11538H96.5174V2.88462Z" fill="white"/>
<path d="M97.9075 22.5C99.3409 22.5 100.526 21.3187 100.526 19.8901C100.526 18.4615 99.3409 17.2802 97.9075 17.2802C96.4741 17.2802 95.2888 18.4615 95.2888 19.8901C95.2888 21.3187 96.4741 22.5 97.9075 22.5Z" fill="white"/>
<path d="M113.572 22.1154H118.313L114.206 15.0549C116.329 13.9835 117.762 11.8407 117.762 9.47802C117.762 5.82418 114.813 2.88462 111.146 2.88462H103.428V22.1154H107.839V15.7967H109.933L113.572 22.1154ZM107.839 7.00549H111.146C112.359 7.00549 113.352 8.07692 113.352 9.47802C113.352 10.8791 112.359 11.9505 111.146 11.9505H107.839V7.00549Z" fill="white"/>
<path d="M127.557 22.5C131.802 22.5 135 20.0275 135 15.9066V2.88462H130.59V15.522C130.59 16.978 129.9 18.2143 127.557 18.2143C125.214 18.2143 124.525 16.978 124.525 15.522V2.88462H120.115V15.9066C120.115 20.0275 123.312 22.5 127.557 22.5Z" fill="white"/>
<path d="M4.29827 40C3.40379 40 2.63595 39.8143 1.99478 39.4429C1.3536 39.0715 0.858862 38.5516 0.510568 37.8831C0.170189 37.2063 0 36.4099 0 35.4938C0 34.5777 0.170189 33.7854 0.510568 33.1169C0.858862 32.4484 1.3536 31.9285 1.99478 31.5571C2.63595 31.1857 3.40379 31 4.29827 31C4.87612 31 5.40252 31.0867 5.87747 31.26C6.35241 31.425 6.75612 31.6685 7.08858 31.9904L6.50677 33.5131C6.14265 33.216 5.79435 33.0055 5.46189 32.8817C5.13734 32.7579 4.76926 32.696 4.35764 32.696C3.57397 32.696 2.97238 32.9395 2.55284 33.4264C2.14122 33.9051 1.93541 34.5942 1.93541 35.4938C1.93541 36.3934 2.14122 37.0867 2.55284 37.5736C2.97238 38.0605 3.57397 38.304 4.35764 38.304C4.76926 38.304 5.13734 38.2421 5.46189 38.1183C5.79435 37.9945 6.14265 37.784 6.50677 37.4869L7.08858 39.0096C6.75612 39.3232 6.35241 39.5667 5.87747 39.74C5.40252 39.9133 4.87612 40 4.29827 40Z" fill="white"/>
<path d="M10.1972 39.8638V32.7084H7.53746V31.1362H14.7092V32.7084H12.0495V39.8638H10.1972Z" fill="white"/>
<path d="M13.7001 39.8638L17.5472 31.1362H19.0789L22.9734 39.8638H21.0974L20.0881 37.4374L20.8124 37.9697H15.8373L16.5735 37.4374L15.5642 39.8638H13.7001ZM18.3071 33.1664L16.7754 36.9546L16.4548 36.4842H20.195L19.9219 36.9546L18.3546 33.1664H18.3071Z" fill="white"/>
<path d="M23.6952 39.8638V31.1362H27.5541C28.4724 31.1362 29.1808 31.3384 29.6795 31.7428C30.1782 32.1472 30.4276 32.7001 30.4276 33.4017C30.4276 33.9216 30.2772 34.3631 29.9764 34.7263C29.6835 35.0894 29.2798 35.3329 28.7653 35.4567V35.2586C29.3669 35.3659 29.8299 35.6052 30.1545 35.9766C30.4869 36.3398 30.6532 36.8143 30.6532 37.4003C30.6532 38.1761 30.388 38.7827 29.8576 39.2201C29.3352 39.6492 28.6109 39.8638 27.6848 39.8638H23.6952ZM25.4644 38.4278H27.4592C27.9183 38.4278 28.2705 38.337 28.5159 38.1554C28.7613 37.9739 28.884 37.685 28.884 37.2889C28.884 36.8845 28.7613 36.5956 28.5159 36.4223C28.2705 36.2407 27.9183 36.1499 27.4592 36.1499H25.4644V38.4278ZM25.4644 34.7263H27.2217C27.7045 34.7263 28.0608 34.6355 28.2903 34.4539C28.5199 34.2724 28.6347 34 28.6347 33.6369C28.6347 33.282 28.5199 33.0138 28.2903 32.8322C28.0608 32.6506 27.7045 32.5598 27.2217 32.5598H25.4644V34.7263Z" fill="white"/>
<path d="M31.9627 39.8638V31.1362H33.7913V34.751H35.0499L34.7293 34.9615L37.0803 31.1362H39.0988L36.4035 35.3329L35.6792 34.8129C36.2412 34.912 36.7043 35.1142 37.0684 35.4195C37.4404 35.7249 37.761 36.1582 38.0302 36.7194L39.5381 39.8638H37.5433L36.4153 37.3879C36.2412 36.9917 36.0275 36.7153 35.7742 36.5585C35.5209 36.3934 35.1963 36.3109 34.8005 36.3109H33.7913V39.8638H31.9627Z" fill="white"/>
<path d="M40.3926 39.8638V31.1362H42.1024V37.2022H41.8055L46.3413 31.1362H47.7186V39.8638H45.9969V33.7978H46.2938L41.7462 39.8638H40.3926Z" fill="white"/>
<path d="M52.7648 39.8638V31.1362H58.9391V32.6094H54.5221V34.6644H56.8375C57.7636 34.6644 58.4879 34.8872 59.0104 35.3329C59.5328 35.7703 59.794 36.4099 59.794 37.2517C59.794 38.0935 59.5328 38.7414 59.0104 39.1953C58.4879 39.641 57.7636 39.8638 56.8375 39.8638H52.7648ZM54.5221 38.403H56.6C57.0987 38.403 57.4628 38.3081 57.6924 38.1183C57.922 37.9285 58.0367 37.6396 58.0367 37.2517C58.0367 36.8721 57.922 36.5915 57.6924 36.4099C57.4628 36.2201 57.0987 36.1252 56.6 36.1252H54.5221V38.403Z" fill="white"/>
<path d="M62.2553 39.8638L63.7514 36.9051L63.7751 37.4622L59.9281 31.1362H61.8872L64.6776 35.8033H64.3332L66.6605 31.1362H68.5721L64.1789 39.8638H62.2553Z" fill="white"/>
<path d="M69.2187 39.8638V31.1362H71.0472V34.751H72.3058L71.9852 34.9615L74.3362 31.1362H76.3547L73.6594 35.3329L72.9351 34.8129C73.4971 34.912 73.9602 35.1142 74.3244 35.4195C74.6964 35.7249 75.017 36.1582 75.2861 36.7194L76.7941 39.8638H74.7993L73.6713 37.3879C73.4972 36.9917 73.2834 36.7153 73.0301 36.5585C72.7768 36.3934 72.4523 36.3109 72.0565 36.3109H71.0472V39.8638H69.2187Z" fill="white"/>
<path d="M77.6604 39.8638V31.1362H79.2871L82.1961 37.945H81.8162L84.7252 31.1362H86.34V39.8638H84.654V33.934H85.1289L82.5286 39.8638H81.46L78.8478 33.934H79.3464V39.8638H77.6604Z" fill="white"/>
<path d="M88.0612 39.8638V31.1362H93.8793V32.6341H89.8303V34.6768H93.5943V36.1871H89.8303V38.3659H93.8793V39.8638H88.0612Z" fill="white"/>
<path d="M95.1691 39.8638V31.1362H96.9977V34.751H98.2563L97.9357 34.9615L100.287 31.1362H102.305L99.6099 35.3329L98.8856 34.8129C99.4476 34.912 99.9107 35.1142 100.275 35.4195C100.647 35.7249 100.967 36.1582 101.237 36.7194L102.745 39.8638H100.75L99.6218 37.3879C99.4476 36.9917 99.2339 36.7153 98.9806 36.5585C98.7273 36.3934 98.4027 36.3109 98.0069 36.3109H96.9977V39.8638H95.1691Z" fill="white"/>
<path d="M103.599 39.8638V31.1362H109.417V32.6341H105.368V34.6768H109.132V36.1871H105.368V38.3659H109.417V39.8638H103.599Z" fill="white"/>
<path d="M110.707 39.8638V31.1362H114.613C115.555 31.1362 116.268 31.3755 116.751 31.8542C117.241 32.3246 117.487 32.9725 117.487 33.7978C117.487 34.6149 117.241 35.2669 116.751 35.7538C116.268 36.2325 115.555 36.4718 114.613 36.4718H112.559V39.8638H110.707ZM112.559 34.9739H114.376C114.819 34.9739 115.148 34.8707 115.361 34.6644C115.583 34.458 115.694 34.1692 115.694 33.7978C115.694 33.4264 115.583 33.1417 115.361 32.9436C115.148 32.7373 114.819 32.6341 114.376 32.6341H112.559V34.9739Z" fill="white"/>
<path d="M118.354 35.4938C118.354 34.586 118.516 33.7978 118.841 33.1293C119.173 32.4525 119.648 31.9285 120.266 31.5571C120.883 31.1857 121.615 31 122.462 31C123.309 31 124.042 31.1857 124.659 31.5571C125.276 31.9285 125.751 32.4525 126.084 33.1293C126.424 33.7978 126.594 34.5818 126.594 35.4814C126.594 36.3975 126.424 37.1939 126.084 37.8707C125.751 38.5392 125.276 39.0633 124.659 39.4429C124.042 39.8143 123.309 40 122.462 40C121.615 40 120.883 39.8143 120.266 39.4429C119.656 39.0633 119.185 38.5351 118.853 37.8583C118.52 37.1816 118.354 36.3934 118.354 35.4938ZM120.289 35.4938C120.289 36.3934 120.468 37.099 120.824 37.6107C121.188 38.1142 121.734 38.3659 122.462 38.3659C123.175 38.3659 123.717 38.1142 124.089 37.6107C124.461 37.099 124.647 36.3934 124.647 35.4938C124.647 34.586 124.461 33.8845 124.089 33.3893C123.725 32.8858 123.183 32.6341 122.462 32.6341C121.734 32.6341 121.188 32.8858 120.824 33.3893C120.468 33.8845 120.289 34.586 120.289 35.4938Z" fill="white"/>
<path d="M128.042 39.8638V31.1362H131.901C132.819 31.1362 133.528 31.3384 134.026 31.7428C134.525 32.1472 134.774 32.7001 134.774 33.4017C134.774 33.9216 134.624 34.3631 134.323 34.7263C134.03 35.0894 133.627 35.3329 133.112 35.4567V35.2586C133.714 35.3659 134.177 35.6052 134.501 35.9766C134.834 36.3398 135 36.8143 135 37.4003C135 38.1761 134.735 38.7827 134.204 39.2201C133.682 39.6492 132.958 39.8638 132.032 39.8638H128.042ZM129.811 38.4278H131.806C132.265 38.4278 132.617 38.337 132.863 38.1554C133.108 37.9739 133.231 37.685 133.231 37.2889C133.231 36.8845 133.108 36.5956 132.863 36.4223C132.617 36.2407 132.265 36.1499 131.806 36.1499H129.811V38.4278ZM129.811 34.7263H131.569C132.051 34.7263 132.408 34.6355 132.637 34.4539C132.867 34.2724 132.981 34 132.981 33.6369C132.981 33.282 132.867 33.0138 132.637 32.8322C132.408 32.6506 132.051 32.5598 131.569 32.5598H129.811V34.7263Z" fill="white"/>
</svg>
