<svg width="15" height="16" viewBox="0 0 15 16" fill="none" xmlns="http://www.w3.org/2000/svg">
<g clip-path="url(#clip0_660_19204)">
<path d="M0.9375 8.45947V14.0845C0.9375 14.602 1.35844 15.022 1.875 15.022H6.5625V8.45947H0.9375Z" fill="white"/>
<path d="M14.0625 4.70949H11.0963C11.3091 4.56418 11.4919 4.41981 11.6194 4.29043C12.3759 3.53012 12.3759 2.29262 11.6194 1.53231C10.8844 0.79168 9.60375 0.793555 8.86969 1.53231C8.46281 1.94012 7.38469 3.60043 7.53375 4.70949H7.46625C7.61438 3.60043 6.53625 1.94012 6.13031 1.53231C5.39531 0.793555 4.11469 0.793555 3.38063 1.53231C2.625 2.29262 2.625 3.53012 3.37969 4.29043C3.50813 4.41981 3.69094 4.56418 3.90375 4.70949H0.9375C0.420938 4.70949 0 5.13043 0 5.64699V7.05324C0 7.31199 0.21 7.52199 0.46875 7.52199H6.5625V5.64699H8.4375V7.52199H14.5312C14.79 7.52199 15 7.31199 15 7.05324V5.64699C15 5.13043 14.58 4.70949 14.0625 4.70949ZM6.50719 4.67856C6.50719 4.67856 6.46781 4.70949 6.33375 4.70949C5.68594 4.70949 4.44938 4.03637 4.04531 3.62949C3.6525 3.23387 3.6525 2.58887 4.04531 2.19324C4.23563 2.00199 4.48781 1.89699 4.75594 1.89699C5.02313 1.89699 5.27531 2.00199 5.46562 2.19324C6.0975 2.82887 6.72563 4.45262 6.50719 4.67856ZM8.66531 4.70949C8.53219 4.70949 8.49281 4.67949 8.49281 4.67856C8.27437 4.45262 8.9025 2.82887 9.53438 2.19324C9.91219 1.81168 10.5731 1.80981 10.9547 2.19324C11.3484 2.58887 11.3484 3.23387 10.9547 3.62949C10.5506 4.03637 9.31406 4.70949 8.66531 4.70949Z" fill="white"/>
<rect x="10.5" y="1.5" width="4" height="4" rx="2" fill="#1571E3" stroke="#FAFAFA"/>
<path d="M8.4375 8.45947V15.022H13.125C13.6425 15.022 14.0625 14.602 14.0625 14.0845V8.45947H8.4375Z" fill="white"/>
</g>
<defs>
<clipPath id="clip0_660_19204">
<rect width="15" height="15" fill="white" transform="translate(0 0.5)"/>
</clipPath>
</defs>
</svg>
