<svg width="15" height="16" viewBox="0 0 15 16" fill="none" xmlns="http://www.w3.org/2000/svg">
<path d="M5 6C5 4.61929 6.11929 3.5 7.5 3.5C8.88071 3.5 10 4.61929 10 6C10 7.38071 8.88071 8.5 7.5 8.5C6.11929 8.5 5 7.38071 5 6Z" fill="white"/>
<path fill-rule="evenodd" clip-rule="evenodd" d="M7.5 0.5C3.35786 0.5 0 3.85786 0 8C0 12.1421 3.35786 15.5 7.5 15.5C11.6421 15.5 15 12.1421 15 8C15 3.85786 11.6421 0.5 7.5 0.5ZM1 8C1 4.41015 3.91015 1.5 7.5 1.5C11.0899 1.5 14 4.41015 14 8C14 9.84956 13.2275 11.5187 11.9875 12.7024C11.8365 10.9086 10.3328 9.5 8.5 9.5H6.5C4.66724 9.5 3.16345 10.9086 3.01247 12.7024C1.77251 11.5187 1 9.84956 1 8Z" fill="white"/>
</svg>
