<svg width="40" height="40" viewBox="0 0 40 40" fill="none" xmlns="http://www.w3.org/2000/svg">
<path d="M20 0C8.95443 0 0 8.95443 0 20C0 31.0456 8.95443 40 20 40C31.0456 40 40 31.0456 40 20C39.9876 8.95964 31.0404 0.0123698 20 0ZM35.4886 9.59342L34.1025 15.4854L26.8001 17.9193L20.6667 13.0133V5.78451L27.6667 2.9847C30.8359 4.42057 33.5436 6.70833 35.4886 9.59342ZM35.5999 30.2301L28.9886 31.2741L25.3887 26.5186L27.2227 19.1852L34.444 16.7786L38.5807 21.7425C38.2988 24.7734 37.2751 27.6885 35.5999 30.2301ZM11.0407 31.2786L4.40007 30.2301C2.72494 27.6878 1.7015 24.7721 1.41992 21.7406L5.55339 16.7767L12.7747 19.1833L14.6087 26.5205L11.0407 31.2786ZM1.33919 19.7513C1.37467 16.7773 2.125 13.8551 3.52669 11.2321L4.60807 15.832L1.33919 19.7513ZM15.8538 26L14.0853 18.9186L20 14.1872L25.916 18.9206L24.1462 26H15.8538ZM35.3919 15.8294L36.4733 11.2295C37.875 13.8525 38.6253 16.7744 38.6608 19.7487L35.3919 15.8294ZM25.8486 2.27669L20 4.61589L14.1201 2.28744C17.9261 1.01888 22.0404 1.0153 25.8486 2.27669ZM12.3014 3L19.3333 5.78678V13.0133L13.1999 17.9193L5.89746 15.4854L4.51139 9.59342C6.44987 6.71875 9.14583 4.43685 12.3014 3ZM5.514 31.7559L10.9333 32.612L14.2106 37.7454C10.7972 36.6244 7.77832 34.5452 5.514 31.7559ZM16.1221 38.2588L12.1439 32.0306L15.6667 27.3333H24.3333L27.9066 32.0534L24.4401 38.1286C21.7132 38.8001 18.8698 38.8457 16.1227 38.262L16.1221 38.2588ZM26.292 37.5726L29.1335 32.5999L34.4886 31.7552C32.3372 34.4046 29.5029 36.416 26.292 37.5726Z" fill="#F1F5F9"/>
</svg>
