<svg width="21" height="17" viewBox="0 0 21 17" fill="none" xmlns="http://www.w3.org/2000/svg">
<path d="M20.9751 2.29988C20.2251 2.62488 19.4501 2.84988 18.6251 2.94988C19.4751 2.44988 20.1251 1.64988 20.4251 0.674878C19.6251 1.14988 18.7501 1.47488 17.8251 1.67488C17.0751 0.874878 16.0001 0.374878 14.8251 0.374878C12.5501 0.374878 10.7251 2.22488 10.7251 4.47488C10.7251 4.79988 10.7501 5.09988 10.8251 5.39988C7.4251 5.24988 4.4251 3.59988 2.4001 1.12488C0.950098 3.72488 2.5751 5.87488 3.6501 6.59988C3.0001 6.59988 2.3501 6.39988 1.8001 6.09988C1.8001 8.12488 3.2251 9.79988 5.0751 10.1749C4.6751 10.2999 3.7751 10.3749 3.2251 10.2499C3.7501 11.8749 5.2751 13.0749 7.0501 13.0999C5.6501 14.1999 3.6001 15.0749 0.975098 14.7999C2.8001 15.9749 4.9501 16.6499 7.2751 16.6499C14.8251 16.6499 18.9251 10.3999 18.9251 4.99988C18.9251 4.82488 18.9251 4.64988 18.9001 4.47488C19.7501 3.84988 20.4501 3.12488 20.9751 2.29988Z" fill="#F1F5F9"/>
</svg>
