<svg width="12" height="21" viewBox="0 0 12 21" fill="none" xmlns="http://www.w3.org/2000/svg">
<path d="M3.60009 11.8001C3.52509 11.8001 1.8751 11.8001 1.1251 11.8001C0.725098 11.8001 0.600098 11.6501 0.600098 11.2751C0.600098 10.2751 0.600098 9.25015 0.600098 8.25015C0.600098 7.85015 0.750098 7.72515 1.1251 7.72515H3.60009C3.60009 7.65015 3.60009 6.20015 3.60009 5.52515C3.60009 4.52515 3.77509 3.57515 4.27509 2.70015C4.80009 1.80015 5.55009 1.20015 6.50009 0.850146C7.12509 0.625146 7.75009 0.525146 8.42509 0.525146H10.8751C11.2251 0.525146 11.3751 0.675146 11.3751 1.02515V3.87515C11.3751 4.22515 11.2251 4.37515 10.8751 4.37515C10.2001 4.37515 9.52508 4.37515 8.85009 4.40015C8.17509 4.40015 7.82509 4.72515 7.82509 5.42515C7.80009 6.17515 7.82509 6.90015 7.82509 7.67515H10.7251C11.1251 7.67515 11.2751 7.82515 11.2751 8.22515V11.2501C11.2751 11.6501 11.1501 11.7751 10.7251 11.7751C9.82508 11.7751 7.90009 11.7751 7.82509 11.7751V19.9251C7.82509 20.3501 7.70009 20.5001 7.25009 20.5001C6.20009 20.5001 5.17509 20.5001 4.12509 20.5001C3.75009 20.5001 3.60009 20.3501 3.60009 19.9751C3.60009 17.3501 3.60009 11.8751 3.60009 11.8001Z" fill="white"/>
</svg>
