<?xml version="1.0" encoding="utf-8"?>
<!-- Generator: Adobe Illustrator 23.1.0, SVG Export Plug-In . SVG Version: 6.00 Build 0)  -->
<svg version="1.1" xmlns="http://www.w3.org/2000/svg" xmlns:xlink="http://www.w3.org/1999/xlink" x="0px" y="0px"
	 viewBox="0 0 615.3 441.06" style="enable-background:new 0 0 615.3 441.06;" xml:space="preserve">
<style type="text/css">
	.st0{display:none;}
	.st1{display:inline;fill:#FFFFFF;}
	.st2{fill:#DADAF2;}
	.st3{fill:#AEAECC;}
	.st4{fill:#E9E9FE;}
	.st5{fill:#F7F8FF;}
	.st6{fill:#D7DCFF;}
	.st7{fill:#91CDF8;}
	.st8{fill:#2B284F;}
	.st9{fill:#FFFFFF;}
	.st10{fill:#484777;}
	.st11{fill:none;stroke:#D7DCFF;stroke-miterlimit:10;}
	.st12{fill:none;stroke:#4549C3;stroke-miterlimit:10;}
	.st13{fill:#4549C3;}
	.st14{fill:none;stroke:#4549C3;stroke-miterlimit:10;stroke-dasharray:8.2986,8.2986;}
	.st15{fill:none;stroke:#4549C3;stroke-miterlimit:10;stroke-dasharray:8.25,8.25;}
	.st16{fill:none;stroke:#F36290;stroke-linecap:round;stroke-linejoin:round;stroke-miterlimit:10;}
	.st17{fill:#F36290;}
	.st18{fill:#72C0E3;}
	.st19{fill:#7F85FC;}
	.st20{fill:none;stroke:#3C46B6;stroke-linecap:round;stroke-linejoin:round;stroke-miterlimit:10;}
	.st21{fill:none;stroke:#3C46B6;stroke-miterlimit:10;}
	.st22{opacity:0.61;fill:#AEAECC;}
	.st23{fill:#4FA0FF;}
	.st24{fill:#18156F;}
	.st25{fill:#FE95AC;}
	.st26{fill:#6FBDFD;}
	.st27{fill:#FF7D9F;}
	.st28{fill:#FFB6D6;}
	.st29{fill:#3C88D3;}
	.st30{fill:#E8809C;}
	.st31{fill:#3C46B6;}
	.st32{fill:#2D3991;}
	.st33{fill:#3341A0;}
	.st34{fill:#B9C2EA;}
	.st35{fill:#E57693;}
	.st36{fill:#D85082;}
	.st37{fill:#9281FF;}
	.st38{fill:#7A6CF1;}
	.st39{fill:#5B65D7;}
	.st40{fill:#3C49AA;}
	.st41{display:inline;}
	.st42{fill:#A5B7C6;}
</style>
<g id="BACKGROUND" class="st0">
	<rect x="-93.36" y="-33.78" class="st1" width="750" height="500"/>
</g>
<g id="OBJECTS">
	<g>
		<g>
			<polygon class="st2" points="349.45,407.17 520.82,363.52 615.3,391.25 453.7,441.06 			"/>
			<polygon class="st3" points="449.91,392.76 526.72,373.19 569.06,385.62 496.64,407.94 			"/>
		</g>
		<g>
			<polygon class="st4" points="249.1,405.55 420.47,361.89 514.95,389.62 353.35,439.43 			"/>
			<polygon class="st2" points="352.77,394.06 429.57,374.5 471.92,386.92 399.49,409.25 			"/>
		</g>
		<path class="st5" d="M107.06,336.8c0,0-54.73,10.75-59.62-42.03c-4.89-52.78,75.26-42.03,48.87-94.81
			C69.92,147.19,10.3,163.81,12.26,78.78c1.95-85.03,98.71-80.14,114.35-47.89c15.64,32.25,70.37,47.89,117.28,25.41
			C290.81,33.82,358.25-11.14,412,2.54s70.37,38.12,67.44,78.19c-2.93,40.07-18.57,84.05,16.62,112.4
			c35.19,28.34,66.46,93.83,0,130.97c0,0-21.5,12.55-35.19,13.61L107.06,336.8z"/>
		<rect x="105.11" y="70.96" class="st6" width="359.73" height="266.18"/>
		<rect x="105.11" y="70.96" class="st7" width="359.73" height="14.19"/>
		<rect x="105.11" y="85.15" class="st8" width="12.71" height="251.99"/>
		<rect x="450.12" y="85.15" class="st8" width="14.72" height="251.99"/>
		<path class="st8" d="M116.1,78c0,1.91-1.55,3.46-3.46,3.46c-1.91,0-3.46-1.55-3.46-3.46c0-1.91,1.55-3.46,3.46-3.46
			C114.55,74.54,116.1,76.09,116.1,78z"/>
		<path class="st8" d="M126.61,78c0,1.91-1.55,3.46-3.46,3.46c-1.91,0-3.46-1.55-3.46-3.46c0-1.91,1.55-3.46,3.46-3.46
			C125.06,74.54,126.61,76.09,126.61,78z"/>
		<path class="st8" d="M137.16,78c0,1.91-1.55,3.46-3.46,3.46c-1.91,0-3.46-1.55-3.46-3.46c0-1.91,1.55-3.46,3.46-3.46
			C135.61,74.54,137.16,76.09,137.16,78z"/>
		<rect x="171.92" y="132.56" class="st9" width="222.19" height="145.95"/>
		<rect x="117.81" y="85.15" class="st10" width="332.31" height="12.52"/>
		<g>
			<path class="st8" d="M164.7,21.37h9.84c0,0-1.23,10.11,7.92,12.16l-11.2,29.1l-13.94-28.42
				C157.32,34.22,165.52,31.76,164.7,21.37z"/>
			<rect x="164.7" y="13.72" class="st8" width="9.84" height="4.65"/>
			<line class="st11" x1="171.26" y1="62.63" x2="170.44" y2="33.81"/>
			<circle class="st6" cx="170.46" cy="32.62" r="1.84"/>
		</g>
		<g>
			<polyline class="st12" points="105.58,54.71 171.26,62.63 245.58,36.13 			"/>
			<circle class="st13" cx="104.72" cy="54.71" r="1.23"/>
			<circle class="st13" cx="246.26" cy="35.7" r="1.23"/>
		</g>
		<g>
			<g>
				<path class="st12" d="M464.84,254.05c0,0,1.46-0.29,3.86-1.04"/>
				<path class="st14" d="M476.46,250.08c8.53-3.83,19.8-10.93,26.77-23.39c12.38-22.15,9.77-43.99-6.52-57.83
					c-11.26-9.57-16.29-16.36-17.47-22.51"/>
				<path class="st12" d="M479.01,142.21c0.1-1.31,0.36-2.6,0.76-3.92"/>
			</g>
		</g>
		<g>
			<g>
				<path class="st12" d="M105.11,149.15c0,0-1.46-0.35-3.94-0.66"/>
				<path class="st15" d="M92.94,148.07c-7.76,0.14-18.11,1.82-27.58,8.25c-18.24,12.38-25.41,41.7,0,68.42
					c20.06,21.09,30.79,30,36.33,38.91"/>
				<path class="st12" d="M103.67,267.27c0.56,1.2,1.04,2.44,1.44,3.73"/>
			</g>
		</g>
		<g>
			<path class="st16" d="M164.61,369.97c0,0,11.08-1.78,14.99-11.56c3.91-9.77,4.56-13.03,4.56-20.52c0-7.49,4.24-11.73,8.14-13.36"
				/>
			<path class="st17" d="M175.6,364.21c0,0-9.21-6.31-6.31-11.4C172.19,347.71,179.36,356.68,175.6,364.21z"/>
			<path class="st17" d="M182.04,352.47c0,0,4.48-10.22,10.02-8.33C197.61,346.04,190.14,354.76,182.04,352.47z"/>
			<path class="st17" d="M183.98,342.26c0,0-10.82-2.74-9.86-8.52C175.08,327.96,184.9,333.9,183.98,342.26z"/>
			<path class="st17" d="M191.24,324.98c0,0,3.1-10.72,8.85-9.56C205.83,316.57,199.56,326.19,191.24,324.98z"/>
		</g>
		<g>
			<path class="st16" d="M485.26,347.53c0,0,11.08-1.78,14.99-11.56c3.91-9.77,4.56-13.03,4.56-20.52c0-7.49,4.24-11.73,8.14-13.36"
				/>
			<path class="st17" d="M496.26,341.77c0,0-9.21-6.31-6.31-11.4C492.85,325.27,500.02,334.24,496.26,341.77z"/>
			<path class="st17" d="M502.7,330.03c0,0,4.48-10.22,10.02-8.33C518.27,323.6,510.8,332.32,502.7,330.03z"/>
			<path class="st17" d="M504.63,319.82c0,0-10.82-2.74-9.86-8.52C495.74,305.52,505.56,311.46,504.63,319.82z"/>
			<path class="st17" d="M511.89,302.54c0,0,3.1-10.72,8.85-9.56C526.49,294.13,520.22,303.75,511.89,302.54z"/>
		</g>
		<g>
			<ellipse class="st18" cx="98.54" cy="370.26" rx="27.69" ry="4.24"/>
			<ellipse class="st18" cx="153.93" cy="370.26" rx="27.69" ry="4.24"/>
			<path class="st18" d="M180.07,357.25c0.55,2.27-11.06,7.03-25.92,10.62c-14.87,3.59-27.36,4.66-27.91,2.39
				c-0.55-2.27,11.06-7.03,25.92-10.62C167.02,356.04,179.52,354.97,180.07,357.25z"/>
			<path class="st18" d="M176.18,346.32c1.01,2.11-9.35,9.18-23.14,15.79c-13.79,6.61-25.79,10.26-26.8,8.15
				c-1.01-2.11,9.35-9.18,23.14-15.79C163.17,347.86,175.17,344.21,176.18,346.32z"/>
			<path class="st18" d="M169.38,335.53c1.47,1.82-7,11.07-18.91,20.67c-11.91,9.59-22.76,15.89-24.23,14.07
				c-1.47-1.82,7-11.07,18.91-20.67C157.06,340,167.91,333.71,169.38,335.53z"/>
			<path class="st18" d="M160.41,326.67c1.84,1.44-4.32,12.37-13.75,24.41s-18.58,20.62-20.42,19.18
				c-1.84-1.44,4.32-12.37,13.75-24.41C149.42,333.82,158.57,325.23,160.41,326.67z"/>
			<path class="st18" d="M148.8,319.68c2.14,0.95-1.18,13.05-7.42,27.01c-6.23,13.97-13.02,24.52-15.15,23.56
				c-2.14-0.95,1.18-13.05,7.42-27.01C139.88,329.28,146.67,318.73,148.8,319.68z"/>
			<path class="st18" d="M135.95,315.73c2.3,0.41,2,12.95-0.69,28.01c-2.68,15.06-6.72,26.93-9.03,26.52
				c-2.3-0.41-2-12.95,0.69-28.01C129.6,327.2,133.65,315.32,135.95,315.73z"/>
			<path class="st18" d="M122.07,315.03c2.33-0.18,5.16,12.04,6.31,27.3c1.15,15.25,0.19,27.76-2.14,27.93
				c-2.33,0.18-5.16-12.04-6.31-27.3C118.78,327.72,119.74,315.21,122.07,315.03z"/>
			
				<ellipse transform="matrix(0.9534 -0.3017 0.3017 0.9534 -98.2471 51.5859)" class="st18" cx="117.88" cy="343.86" rx="4.24" ry="27.69"/>
			<path class="st18" d="M94.82,324.65c1.93-1.33,10.52,7.81,19.2,20.4c8.68,12.6,14.15,23.88,12.22,25.21
				c-1.93,1.33-10.52-7.81-19.2-20.4C98.36,337.26,92.89,325.98,94.82,324.65z"/>
			<path class="st18" d="M83.74,334.74c1.5-1.79,12.23,4.7,23.96,14.51s20.03,19.21,18.53,21.01c-1.5,1.79-12.23-4.7-23.96-14.51
				S82.24,336.54,83.74,334.74z"/>
			<path class="st18" d="M76.01,346.92c0.99-2.12,13.03,1.38,26.9,7.83s24.31,13.39,23.33,15.51c-0.99,2.12-13.03-1.38-26.9-7.83
				C85.47,355.99,75.02,349.05,76.01,346.92z"/>
			<path class="st18" d="M72.14,358.36c0.5-2.28,13.02-1.47,27.96,1.81c14.94,3.29,26.64,7.8,26.14,10.08
				c-0.5,2.28-13.02,1.47-27.96-1.81S71.64,360.65,72.14,358.36z"/>
		</g>
		<g>
			<path class="st19" d="M487.92,364.99c0,2.34-12.4,4.24-27.69,4.24s-27.69-1.9-27.69-4.24c0-2.34,12.4-4.24,27.69-4.24
				S487.92,362.65,487.92,364.99z"/>
			<path class="st19" d="M543.3,364.99c0,2.34-12.4,4.24-27.69,4.24s-27.69-1.9-27.69-4.24c0-2.34,12.4-4.24,27.69-4.24
				S543.3,362.65,543.3,364.99z"/>
			<path class="st19" d="M541.75,351.97c0.55,2.27-11.06,7.03-25.92,10.62c-14.87,3.59-27.36,4.66-27.91,2.39
				c-0.55-2.27,11.06-7.03,25.92-10.62C528.7,350.77,541.2,349.7,541.75,351.97z"/>
			<path class="st19" d="M537.86,341.04c1.01,2.11-9.35,9.18-23.14,15.79c-13.79,6.61-25.79,10.26-26.8,8.15
				c-1.01-2.11,9.35-9.18,23.14-15.79C524.85,342.59,536.85,338.93,537.86,341.04z"/>
			
				<ellipse transform="matrix(0.7789 -0.6271 0.6271 0.7789 -105.3644 396.3665)" class="st19" cx="509.49" cy="347.62" rx="27.69" ry="4.24"/>
			
				<ellipse transform="matrix(0.617 -0.787 0.787 0.617 -76.6585 528.8855)" class="st19" cx="505" cy="343.2" rx="27.69" ry="4.24"/>
			<path class="st19" d="M510.48,314.41c2.14,0.95-1.18,13.05-7.42,27.01c-6.23,13.97-13.02,24.52-15.15,23.56
				c-2.14-0.95,1.18-13.05,7.42-27.01C501.56,324.01,508.35,313.46,510.48,314.41z"/>
			<path class="st19" d="M497.63,310.46c2.3,0.41,2,12.95-0.69,28.01c-2.68,15.06-6.72,26.93-9.03,26.52
				c-2.3-0.41-2-12.95,0.69-28.01C491.28,321.93,495.33,310.05,497.63,310.46z"/>
			<path class="st19" d="M483.75,309.76c2.33-0.18,5.16,12.04,6.31,27.3s0.19,27.76-2.14,27.93c-2.33,0.18-5.16-12.04-6.31-27.3
				C480.46,322.44,481.42,309.94,483.75,309.76z"/>
			<path class="st19" d="M471.21,312.18c2.23-0.71,7.78,10.54,12.39,25.12c4.61,14.58,6.55,26.97,4.32,27.68
				c-2.23,0.71-7.78-10.54-12.39-25.12C470.91,325.28,468.98,312.89,471.21,312.18z"/>
			
				<ellipse transform="matrix(0.8236 -0.5672 0.5672 0.8236 -110.7795 328.2282)" class="st19" cx="472.21" cy="342.18" rx="4.24" ry="27.69"/>
			<path class="st19" d="M445.42,329.47c1.5-1.79,12.23,4.7,23.96,14.51c11.73,9.81,20.03,19.21,18.53,21.01
				c-1.5,1.79-12.23-4.7-23.96-14.51C452.22,340.67,443.92,331.26,445.42,329.47z"/>
			<path class="st19" d="M437.69,341.65c0.99-2.12,13.03,1.38,26.9,7.83c13.87,6.44,24.31,13.39,23.33,15.51
				c-0.99,2.12-13.03-1.38-26.9-7.83S436.7,343.77,437.69,341.65z"/>
			<path class="st19" d="M433.82,353.09c0.5-2.28,13.02-1.47,27.96,1.81c14.94,3.29,26.64,7.8,26.14,10.08
				c-0.5,2.28-13.02,1.47-27.96-1.81C445.02,359.89,433.32,355.38,433.82,353.09z"/>
		</g>
		<g>
			<path class="st19" d="M139.36,376.55c0,0-15.89-1.63-23.03-9.12c-7.14-7.49-4.59-10.75,0-11.73c4.59-0.98,7.7,0.98,3.87-6.52
				c-3.84-7.49-5.28-11.08,0-11.4c5.28-0.33,7.89,3.91,10.17,1.3c2.28-2.61-0.33-13.36,7.82-17.27c8.14-3.91,13.3,2.93,8.11,12.05
				c-5.18,9.12-1.92,11.4,4.27,10.43c6.19-0.98,11.04,3.91,7.96,6.84c-3.08,2.93-13.18,5.21-9.59,7.17
				c3.58,1.95,12.29,2.28,10.54,6.19C157.73,368.41,142.48,375.25,139.36,376.55z"/>
			<path class="st20" d="M135.79,343c0,0-3.39,19.02,3.57,33.56"/>
		</g>
		<path class="st2" d="M194.01,245.28c0,0,2.02-24.14,10.71-33.14c8.69-9,19.11-3,23.89,5.08c4.78,8.08,12.94-27.11,28.62-40.14
			c15.68-13.03,25.68,1.52,32.63,20.09c6.95,18.57,26.84,13.79,36.44-3.15c9.6-16.94,12.21-28.24,27.41-26.5
			c15.2,1.74,13.03,77.76,13.03,77.76H194.01z"/>
		<path class="st21" d="M206.81,245.28c0,0,2.02-24.14,10.71-33.14c8.69-9,19.11-3,23.89,5.08c4.78,8.08,12.94-27.11,28.62-40.14
			c15.68-13.03,25.68,1.52,32.63,20.09s26.84,13.79,36.44-3.15c9.6-16.94,12.21-28.24,27.41-26.5c15.2,1.74,13.03,77.76,13.03,77.76
			"/>
		<g>
			<ellipse class="st22" cx="274.66" cy="411.19" rx="58.6" ry="6.96"/>
			<path class="st23" d="M251.28,277.51c0,0,1.3-4.78,10.61-7.06c7.53-1.84,24.14-5.54,24.14-5.54l25.19-28.67l4.78,3.69
				c0,0-16.94,23.67-20.2,29.32c-3.26,5.65-7.6,10.86-8.25,14.12c-0.65,3.26-3.69,28.24-3.69,28.24s-13.03,4.13-25.19,1.74
				c0,0-2.39-20.85-3.26-25.41c0,0-4.78,6.95-6.95,8.47c-2.17,1.52-32.36,0.87-32.36,0.87s-1.74-3.48,0-4.78
				c0,0,22.15-2.61,25.19-3.26C244.33,288.59,251.28,277.51,251.28,277.51z"/>
			<path class="st24" d="M269.52,234.51c0,0-11.29-3.46-16.07,9.02c-4.78,12.48-3.48,19.65-5.86,23.78c0,0,8.91,4.78,23.02,2.61
				c14.12-2.17,15.42-5,15.42-5S287.12,237.11,269.52,234.51z"/>
			<path class="st25" d="M289.94,333.55c-1.3-4.78-6.08-21.94-6.08-21.94s-13.03,4.13-25.19,1.74c0,0-4.13,26.28-5.21,39.75
				s-3.69,20.63-4.78,26.93c-1.09,6.3-1.52,20.63-1.52,20.63s4.56,1.52,7.17,0c0,0,6.08-18.68,7.17-23.46
				c1.09-4.78,0.22-9.99,2.39-15.42c2.17-5.43,9.75-27.58,9.75-27.58s9.8,26.71,9.8,31.71c0,5,11.95,33.23,11.95,33.23
				s3.26,0.87,6.3-1.09c0,0-3.26-19.55-5.43-30.19C294.07,357.22,291.24,338.32,289.94,333.55z"/>
			<path class="st26" d="M247.15,400.66c0,0-3.34,9.12-0.81,9.53c2.52,0.41,7.9,0.16,9.45,0c1.55-0.16-1.47-9.53-1.47-9.53
				C251.71,402.18,247.15,400.66,247.15,400.66z"/>
			<path class="st26" d="M301.67,398.05c-3.04,1.95-6.3,1.09-6.3,1.09s-2.82,10.64-0.29,11.05c2.52,0.41,7.9,0.16,9.45,0
				C306.07,410.03,301.67,398.05,301.67,398.05z"/>
			<g>
				<path class="st27" d="M268.66,333.22c1.72,0.16,3.35,0.28,4.99,0.27c0.82,0,1.64-0.02,2.47-0.08c0.83-0.04,1.65-0.15,2.53-0.19
					c-1.5,0.88-3.26,1.26-5,1.27c-0.87,0-1.74-0.09-2.59-0.3C270.22,333.99,269.39,333.69,268.66,333.22z"/>
			</g>
			<path class="st28" d="M216.09,292.5c0,0-2.82-1.79-4.21-2.77c-1.38-0.98-3.99-2.52-4.89-2.2c-0.9,0.33,0.41,1.34,1.22,2.46
				c0.81,1.12,0.81,1.12,0.81,1.12s-1.38,0.16-3.75-0.08c-2.36-0.24-4.48-0.9-4.81-0.41c-0.33,0.49,0.81,1.3,2.69,1.87
				c1.87,0.57,2.28,1.14,1.06,1.55c-1.22,0.41-4.81,0.16-5.13,0.73c-0.33,0.57,0.24,1.22,2.44,1.22c2.2,0,3.01,0.33,2.93,0.65
				c-0.08,0.33-2.93,2.28-3.01,2.77c-0.08,0.49,1.47,0.24,4.48-1.22c0,0,1.71-0.65,0.73,0.73c-0.98,1.38-1.71,3.58,0.49,1.95
				c2.2-1.63,2.93-2.69,3.75-3.1c0.81-0.41,5.19-0.52,5.19-0.52S214.36,293.8,216.09,292.5z"/>
			<path class="st28" d="M321.77,231.87c2.85-1.76,3.88-2.94,3.43-3.13c-0.46-0.19-3.63,1.17-3.95,1.07
				c-0.32-0.11-0.16-0.97,1.02-2.83c1.17-1.86,0.93-2.69,0.27-2.72s-2.36,3.13-3.36,3.95c-1,0.82-1.26,0.17-0.74-1.72
				c0.52-1.89,0.44-3.29-0.15-3.27c-0.59,0.01-1.17,2.15-2.22,4.28c-1.05,2.13-1.93,3.21-1.93,3.21s0,0-0.51-1.29
				c-0.51-1.29-0.67-2.93-1.43-2.35c-0.75,0.58-0.84,3.61-0.75,5.31c0.06,1.13,0.08,2.98,0.09,4.09l4.21,3.25
				c0.55-0.81,2.38-3.47,3.04-3.87c0.78-0.47,2.07-0.53,4.62-1.51c2.55-0.99,0.3-1.54-1.39-1.46
				C320.3,232.97,321.77,231.87,321.77,231.87z"/>
			<polygon class="st29" points="255.41,287.94 254.56,282.15 253.9,290.06 			"/>
			<g>
				<path class="st30" d="M255.41,366.29c1.41-7.33,4.13-15.8,5.19-29.44c0.68-8.7,1.38-17.64,1.79-22.97
					c-1.24-0.12-2.49-0.29-3.73-0.54c0,0-4.13,26.28-5.21,39.75s-3.69,20.63-4.78,26.93c-1.09,6.3-1.52,20.63-1.52,20.63
					s1.56,0.52,3.37,0.64C251.52,393.47,254.26,372.23,255.41,366.29z"/>
				<path class="st30" d="M288.98,371.9c-4.11-14.1-7.95-23.04-9.56-27.99c-1.61-4.95-5.8-9.71-5.8-9.71s9.8,26.71,9.8,31.71
					c0,5,11.95,33.23,11.95,33.23s0.87,0.23,2.12,0.18C295.76,393.99,292.03,382.35,288.98,371.9z"/>
			</g>
		</g>
		<g>
			
				<rect x="491.74" y="91.91" transform="matrix(0.7394 0.6733 -0.6733 0.7394 194.0382 -311.374)" class="st13" width="14.95" height="6.09"/>
			<path class="st8" d="M499.83,99.62l-5.53-5.03l-13.98,15.35l1.33,1.21c-1.24-0.24-2.57,0.14-3.48,1.14
				c-1.39,1.53-1.28,3.89,0.25,5.28c1.53,1.39,3.89,1.28,5.28-0.25c0.91-1,1.16-2.36,0.81-3.57l1.33,1.21L499.83,99.62z"/>
			<path class="st13" d="M499.53,91.11c0,0,2.18-7.94,5.77-8.6c3.59-0.66,6.42,3.23,4.78,5.85c-1.64,2.62-7.07,5.92-7.07,5.92
				L499.53,91.11z"/>
		</g>
		<path class="st2" d="M552.31,149.58v-6.52h-3.78c-0.34-1.43-0.9-2.76-1.64-3.99l2.66-2.66l-4.61-4.61l-2.62,2.62
			c-1.23-0.77-2.58-1.35-4.02-1.71v-3.66h-6.52v3.58c-1.49,0.33-2.88,0.91-4.15,1.67l-2.5-2.5l-4.61,4.61l2.45,2.45
			c-0.8,1.28-1.4,2.69-1.77,4.2h-3.44v6.52h3.43c0.36,1.51,0.96,2.93,1.76,4.21l-2.44,2.44l4.61,4.61l2.48-2.48
			c1.27,0.77,2.67,1.35,4.17,1.68v3.55h6.52v-3.64c1.45-0.36,2.81-0.95,4.04-1.73l2.61,2.61l4.61-4.61l-2.65-2.65
			c0.74-1.22,1.29-2.57,1.63-4H552.31z M535.04,152.73c-3.54,0-6.41-2.87-6.41-6.41c0-3.54,2.87-6.41,6.41-6.41
			c3.54,0,6.41,2.87,6.41,6.41C541.45,149.86,538.58,152.73,535.04,152.73z"/>
		<path class="st2" d="M34.53,173.4v-6.52h-3.78c-0.34-1.43-0.9-2.76-1.64-3.99l2.66-2.66l-4.61-4.61l-2.62,2.62
			c-1.23-0.77-2.58-1.35-4.02-1.71v-3.66h-6.52v3.58c-1.49,0.33-2.88,0.91-4.15,1.67l-2.5-2.5l-4.61,4.61l2.45,2.45
			c-0.8,1.28-1.4,2.69-1.77,4.2H0v6.52h3.43c0.36,1.51,0.96,2.93,1.76,4.21l-2.44,2.44l4.61,4.61l2.48-2.48
			c1.27,0.77,2.67,1.35,4.17,1.68v3.55h6.52v-3.64c1.45-0.36,2.81-0.95,4.04-1.73l2.61,2.61l4.61-4.61l-2.65-2.65
			c0.74-1.22,1.29-2.57,1.63-4H34.53z M17.27,176.54c-3.54,0-6.41-2.87-6.41-6.41c0-3.54,2.87-6.41,6.41-6.41s6.41,2.87,6.41,6.41
			C23.67,173.68,20.81,176.54,17.27,176.54z"/>
		<path class="st2" d="M226,19.97v-5.13h-2.97c-0.27-1.12-0.71-2.18-1.29-3.14l2.1-2.1l-3.63-3.63l-2.07,2.07
			c-0.97-0.61-2.03-1.06-3.17-1.35V3.82h-5.13v2.81c-1.17,0.26-2.27,0.71-3.27,1.32l-1.96-1.96l-3.63,3.63l1.93,1.93
			c-0.63,1-1.11,2.12-1.39,3.3h-2.71v5.13h2.7c0.28,1.19,0.75,2.3,1.39,3.31l-1.92,1.92l3.63,3.63l1.95-1.95
			c1,0.61,2.1,1.06,3.28,1.33v2.79h5.13v-2.86c1.14-0.29,2.21-0.75,3.18-1.36l2.05,2.05l3.63-3.63l-2.09-2.09
			c0.58-0.96,1.02-2.02,1.29-3.14H226z M212.41,22.44c-2.78,0-5.04-2.26-5.04-5.04c0-2.78,2.26-5.04,5.04-5.04s5.04,2.26,5.04,5.04
			C217.46,20.19,215.2,22.44,212.41,22.44z"/>
		
			<ellipse transform="matrix(0.7071 -0.7071 0.7071 0.7071 -56.5184 203.2574)" class="st2" cx="217.09" cy="169.85" rx="13.45" ry="13.45"/>
		
			<ellipse transform="matrix(0.7071 -0.7071 0.7071 0.7071 -54.3853 208.4072)" class="st21" cx="224.38" cy="169.85" rx="13.45" ry="13.45"/>
		<g>
			<g>
				<path class="st31" d="M408.11,371.9c0,0-3.4-4.53,2.27-10.2c0,0-3.28-19.18,16.29-21.77c0,0,3.69-12.92,14.76-14.4
					c11.07-1.48,19.93,5.54,22.52,15.13c0,0,8.49-2.95,16.24,2.21c7.75,5.17,7.01,15.87,7.01,15.87s8.49,3.03,5.17,13.14H408.11z"/>
			</g>
			<path class="st32" d="M427.42,356.47c3.04-8.13,10.2-10.75,10.2-10.75c-1.06-10.67,3.27-16.88,7.48-20.35
				c-1.19-0.04-2.42,0-3.67,0.17c-11.07,1.48-14.76,14.4-14.76,14.4c-19.56,2.58-16.29,21.77-16.29,21.77
				c-5.66,5.66-2.27,10.2-2.27,10.2h23.49C427.25,367.76,425.39,361.9,427.42,356.47z"/>
		</g>
		<g>
			<g>
				
					<rect x="15.64" y="294.97" transform="matrix(0.998 -0.0628 0.0628 0.998 -21.6953 2.0757)" class="st13" width="13.03" height="101.95"/>
				
					<rect x="12.26" y="289.54" transform="matrix(0.998 -0.0628 0.0628 0.998 -18.3315 1.7575)" class="st6" width="13.03" height="5.54"/>
				<path class="st25" d="M25.1,289.14l-13.01,0.82l-0.31-4.88c-0.19-3.05,2.13-5.68,5.18-5.87l1.95-0.12
					c3.05-0.19,5.68,2.13,5.87,5.18L25.1,289.14z"/>
				<polygon class="st33" points="22.48,397 16.07,295.26 12.45,295.48 18.85,397.23 31.86,396.41 31.86,396.41 				"/>
				<polygon class="st34" points="16.08,295.26 15.73,289.73 12.1,289.96 12.45,295.48 25.45,294.67 25.45,294.67 				"/>
				<path class="st35" d="M15.5,284.91c-0.18-2.83,1.8-5.29,4.52-5.79c-0.36-0.05-0.72-0.06-1.1-0.04l-1.95,0.12
					c-3.05,0.19-5.37,2.82-5.18,5.87l0.31,4.88l3.71-0.23L15.5,284.91z"/>
			</g>
			<g>
				
					<rect x="53.66" y="305.75" transform="matrix(-0.971 -0.2392 0.2392 -0.971 33.2827 717.4896)" class="st17" width="13.03" height="101.95"/>
				<polygon class="st6" points="78.7,308.79 76.97,288.54 66.04,305.67 				"/>
				<g>
					<polygon class="st36" points="51.15,407 54.31,407.78 54.31,407.78 					"/>
					<polygon class="st36" points="71.91,307.12 74.71,307.81 66.04,305.67 41.66,404.66 47.52,406.11 					"/>
				</g>
				<polygon class="st34" points="71.91,307.12 76.97,288.54 66.04,305.67 				"/>
			</g>
			<rect x="31.86" y="199.84" class="st37" width="22.84" height="206.38"/>
			<rect x="31.86" y="199.84" class="st38" width="8.78" height="206.38"/>
			<path class="st39" d="M12.48,414.54c0,0,27.69,8.14,62.88,0l9.45-88.62H2.38L12.48,414.54z"/>
			<path class="st40" d="M15.96,351.31c-4.21-10.07-6.58-18.74-7.91-25.39H2.38l10.1,88.62c0,0,27.69,8.14,62.88,0
				C36.67,404.96,25.87,375.03,15.96,351.31z"/>
		</g>
	</g>
</g>
<g id="DESIGNED_BY_FREEPIK" class="st0">
	<g class="st41">
		<g id="XMLID_319_">
			<g id="XMLID_338_">
				<path id="XMLID_346_" class="st42" d="M291.75,431.68c-0.43,0.44-0.8,0.93-1.11,1.45l-0.47-0.24c-0.07-0.3-0.35-0.5-0.66-0.47
					c-0.33,0.04-0.57,0.34-0.53,0.67c0.04,0.33,0.34,0.57,0.67,0.53c0.07-0.01,0.13-0.03,0.18-0.05l0.45,0.23
					c-0.25,0.55-0.43,1.14-0.54,1.74l0.75,0.13c0.23-1.31,0.85-2.51,1.79-3.47L291.75,431.68z"/>
				<path id="XMLID_345_" class="st42" d="M297.24,429.38c-0.17,0-0.34,0.01-0.51,0.02l-0.07-0.63c0.19-0.15,0.3-0.39,0.27-0.64
					c-0.05-0.39-0.4-0.67-0.8-0.63c-0.39,0.05-0.67,0.4-0.63,0.8c0.03,0.25,0.19,0.46,0.4,0.56l0.07,0.62
					c-0.71,0.12-1.4,0.33-2.06,0.65l0.33,0.68c0.93-0.45,1.94-0.67,3-0.67c0.5,0,0.99,0.05,1.48,0.16l0.16-0.74
					C298.34,429.44,297.79,429.38,297.24,429.38z"/>
				<path id="XMLID_344_" class="st42" d="M303.84,431.93c0.33-0.04,0.57-0.34,0.53-0.67c-0.04-0.33-0.34-0.57-0.67-0.53
					c-0.31,0.04-0.54,0.3-0.53,0.61l-0.42,0.36c-0.42-0.43-0.89-0.81-1.41-1.14l-0.4,0.64c1.13,0.71,2.02,1.73,2.56,2.93l0.69-0.31
					c-0.25-0.55-0.57-1.07-0.94-1.54l0.4-0.35C303.71,431.93,303.77,431.94,303.84,431.93z"/>
				<path id="XMLID_343_" class="st42" d="M296.69,439.59c-0.39,0.02-0.77,0.03-1.16,0.03c-0.88,0-1.73-0.06-2.48-0.18
					c-0.39-0.06-0.85-0.15-1.27-0.29c1.05,1.86,3.07,3.13,5.39,3.13c2.86,0,5.26-1.92,5.95-4.5c-0.68,0.45-1.51,0.83-2.46,1.12
					C299.48,439.27,298.11,439.51,296.69,439.59z"/>
				<path id="XMLID_339_" class="st42" d="M297.24,430.9c-3.35,0-6.08,2.67-6.08,5.94c0,0.43,0.05,0.85,0.14,1.26
					c0.67,0.48,2.71,0.89,5.35,0.73c2.88-0.17,5.3-0.96,6.67-2.16c-0.01-0.2-0.02-0.39-0.05-0.58
					C302.89,433.13,300.29,430.9,297.24,430.9z M295.08,437.41c-1.02,0-1.85-0.83-1.85-1.85c0-1.02,0.83-1.85,1.85-1.85
					c1.02,0,1.85,0.83,1.85,1.85C296.93,436.58,296.1,437.41,295.08,437.41z M299.81,436.5c-0.75,0-1.36-0.61-1.36-1.36
					s0.61-1.36,1.36-1.36c0.75,0,1.36,0.61,1.36,1.36S300.56,436.5,299.81,436.5z"/>
			</g>
			<path id="XMLID_336_" class="st42" d="M313.24,432.77c-0.29-0.12-0.81-0.31-1.38-0.24c-0.55,0.07-0.84,0.34-0.84,1.01v0.87h2.23
				v1.72h-2.23v5.45h-1.93v-5.45h-1.34v-1.72h1.34v-0.89c0-1.68,0.9-2.78,2.57-2.78c0.64,0,1.16,0.12,1.59,0.31L313.24,432.77z"/>
			<path id="XMLID_334_" class="st42" d="M317.94,436.1c-0.18-0.03-0.36-0.05-0.53-0.05c-0.9,0-1.51,0.55-1.51,1.61v3.91h-1.93
				v-7.17h1.87v0.78c0.45-0.67,1.14-0.98,2.02-0.98c0.41,0,0.85,0.13,1.09,0.34L317.94,436.1z"/>
			<path id="XMLID_331_" class="st42" d="M325.61,437.98c0,0.22-0.01,0.49-0.04,0.65h-5.08c0.21,1.04,0.93,1.49,1.84,1.49
				c0.62,0,1.3-0.25,1.81-0.69l1.13,1.24c-0.81,0.75-1.85,1.09-3.06,1.09c-2.2,0-3.72-1.5-3.72-3.75c0-2.26,1.48-3.8,3.63-3.8
				C324.19,434.21,325.6,435.74,325.61,437.98z M320.5,437.31h3.18c-0.18-0.92-0.73-1.44-1.56-1.44
				C321.2,435.87,320.67,436.42,320.5,437.31z"/>
			<path id="XMLID_328_" class="st42" d="M333.26,437.98c0,0.22-0.02,0.49-0.04,0.65h-5.08c0.21,1.04,0.93,1.49,1.84,1.49
				c0.62,0,1.3-0.25,1.81-0.69l1.13,1.24c-0.81,0.75-1.85,1.09-3.06,1.09c-2.2,0-3.72-1.5-3.72-3.75c0-2.26,1.48-3.8,3.63-3.8
				C331.84,434.21,333.26,435.74,333.26,437.98z M328.15,437.31h3.18c-0.18-0.92-0.73-1.44-1.56-1.44
				C328.85,435.87,328.32,436.42,328.15,437.31z"/>
			<path id="XMLID_325_" class="st42" d="M341.61,437.98c0,2.15-1.5,3.77-3.47,3.77c-0.96,0-1.64-0.38-2.11-0.93v3.71h-1.92V434.4
				h1.89v0.79c0.47-0.58,1.15-0.98,2.14-0.98C340.11,434.21,341.61,435.83,341.61,437.98z M335.93,437.98
				c0,1.13,0.75,1.98,1.84,1.98c1.14,0,1.85-0.88,1.85-1.98c0-1.1-0.71-1.98-1.85-1.98C336.68,436.01,335.93,436.85,335.93,437.98z"
				/>
			<path id="XMLID_322_" class="st42" d="M344.71,432.05c0,0.7-0.54,1.23-1.24,1.23c-0.7,0-1.23-0.53-1.23-1.23
				c0-0.7,0.53-1.24,1.23-1.24C344.17,430.81,344.71,431.36,344.71,432.05z M344.45,441.57h-1.93v-7.17h1.93V441.57z"/>
			<path id="XMLID_320_" class="st42" d="M347.68,436.95l2.7-2.55h2.37l-3.48,3.38l3.5,3.8h-2.38l-2.72-2.9v2.9h-1.93v-10.66h1.93
				V436.95z"/>
		</g>
		<g>
			<path class="st42" d="M216.06,441.51v-1.05c-0.53,0.72-1.39,1.23-2.39,1.23c-1.85,0-3.15-1.41-3.15-3.71
				c0-2.26,1.29-3.72,3.15-3.72c0.95,0,1.82,0.47,2.39,1.25v-3.76h1.1v9.77H216.06z M216.06,439.59v-3.21
				c-0.4-0.62-1.24-1.14-2.12-1.14c-1.42,0-2.27,1.17-2.27,2.74c0,1.57,0.85,2.72,2.27,2.72
				C214.81,440.7,215.66,440.2,216.06,439.59z"/>
			<path class="st42" d="M218.58,437.96c0-2.05,1.46-3.71,3.49-3.71c2.14,0,3.4,1.67,3.4,3.79v0.28h-5.73
				c0.09,1.33,1.03,2.45,2.55,2.45c0.81,0,1.63-0.32,2.18-0.89l0.53,0.72c-0.7,0.7-1.65,1.08-2.81,1.08
				C220.09,441.68,218.58,440.17,218.58,437.96z M222.05,435.17c-1.51,0-2.26,1.27-2.31,2.36h4.64
				C224.36,436.47,223.66,435.17,222.05,435.17z"/>
			<path class="st42" d="M226.25,440.57l0.57-0.79c0.47,0.54,1.36,1.01,2.33,1.01c1.08,0,1.67-0.51,1.67-1.22
				c0-1.71-4.38-0.66-4.38-3.28c0-1.1,0.95-2.04,2.64-2.04c1.2,0,2.05,0.45,2.62,1.03l-0.51,0.76c-0.42-0.51-1.2-0.89-2.11-0.89
				c-0.97,0-1.57,0.48-1.57,1.11c0,1.55,4.38,0.53,4.38,3.28c0,1.19-0.95,2.14-2.78,2.14C227.95,441.68,226.97,441.33,226.25,440.57
				z"/>
			<path class="st42" d="M233.12,432.69c0-0.41,0.34-0.75,0.73-0.75c0.41,0,0.75,0.34,0.75,0.75c0,0.41-0.34,0.73-0.75,0.73
				C233.46,433.42,233.12,433.1,233.12,432.69z M233.31,441.51v-7.07h1.1v7.07H233.31z"/>
			<path class="st42" d="M236.23,443.32l0.56-0.82c0.59,0.7,1.29,0.97,2.3,0.97c1.17,0,2.27-0.57,2.27-2.12v-1.01
				c-0.51,0.72-1.38,1.26-2.37,1.26c-1.85,0-3.15-1.38-3.15-3.66c0-2.27,1.29-3.68,3.15-3.68c0.95,0,1.8,0.47,2.37,1.25v-1.07h1.1
				v6.87c0,2.34-1.64,3.08-3.37,3.08C237.88,444.38,237.06,444.14,236.23,443.32z M241.35,439.47v-3.09
				c-0.38-0.62-1.23-1.14-2.11-1.14c-1.42,0-2.27,1.13-2.27,2.7c0,1.55,0.85,2.7,2.27,2.7
				C240.12,440.63,240.97,440.09,241.35,439.47z"/>
			<path class="st42" d="M249.06,441.51v-4.63c0-1.24-0.63-1.64-1.58-1.64c-0.86,0-1.68,0.53-2.09,1.1v5.17h-1.1v-7.07h1.1v1.03
				c0.5-0.59,1.46-1.2,2.52-1.2c1.48,0,2.26,0.75,2.26,2.29v4.97H249.06z"/>
			<path class="st42" d="M251.58,437.96c0-2.05,1.46-3.71,3.49-3.71c2.14,0,3.4,1.67,3.4,3.79v0.28h-5.73
				c0.09,1.33,1.03,2.45,2.55,2.45c0.81,0,1.63-0.32,2.18-0.89l0.53,0.72c-0.7,0.7-1.66,1.08-2.81,1.08
				C253.09,441.68,251.58,440.17,251.58,437.96z M255.05,435.17c-1.51,0-2.26,1.27-2.31,2.36h4.64
				C257.36,436.47,256.66,435.17,255.05,435.17z"/>
			<path class="st42" d="M264.99,441.51v-1.05c-0.53,0.72-1.39,1.23-2.39,1.23c-1.85,0-3.15-1.41-3.15-3.71
				c0-2.26,1.29-3.72,3.15-3.72c0.95,0,1.82,0.47,2.39,1.25v-3.76h1.1v9.77H264.99z M264.99,439.59v-3.21
				c-0.4-0.62-1.25-1.14-2.12-1.14c-1.42,0-2.27,1.17-2.27,2.74c0,1.57,0.85,2.72,2.27,2.72C263.75,440.7,264.6,440.2,264.99,439.59
				z"/>
			<path class="st42" d="M271.34,441.51v-9.77h1.1v3.76c0.57-0.78,1.42-1.25,2.39-1.25c1.85,0,3.15,1.46,3.15,3.72
				c0,2.3-1.3,3.71-3.15,3.71c-1,0-1.86-0.51-2.39-1.23v1.05H271.34z M274.54,440.7c1.44,0,2.29-1.16,2.29-2.72
				c0-1.57-0.85-2.74-2.29-2.74c-0.86,0-1.73,0.53-2.11,1.14v3.21C272.82,440.2,273.68,440.7,274.54,440.7z"/>
			<path class="st42" d="M279.17,443.28c0.16,0.07,0.42,0.12,0.6,0.12c0.48,0,0.81-0.16,1.05-0.75l0.47-1.07l-2.96-7.15h1.19
				l2.36,5.8l2.34-5.8h1.2l-3.54,8.51c-0.42,1.03-1.14,1.42-2.08,1.44c-0.23,0-0.6-0.04-0.81-0.1L279.17,443.28z"/>
		</g>
	</g>
</g>
</svg>
