<?xml version="1.0" encoding="utf-8"?>
<!-- Generator: Adobe Illustrator 23.1.0, SVG Export Plug-In . SVG Version: 6.00 Build 0)  -->
<svg version="1.1" xmlns="http://www.w3.org/2000/svg" xmlns:xlink="http://www.w3.org/1999/xlink" x="0px" y="0px"
	 viewBox="0 0 675.69 396.69" style="enable-background:new 0 0 675.69 396.69;" xml:space="preserve">
<style type="text/css">
	.st0{display:none;}
	.st1{display:inline;fill:#FFFFFF;}
	.st2{fill:#D2D9FF;}
	.st3{fill:#77C6E9;}
	.st4{fill:none;stroke:#341F78;stroke-linecap:round;stroke-linejoin:round;stroke-miterlimit:10;}
	.st5{fill:#63B3CE;}
	.st6{fill:#4958ED;}
	.st7{fill:#3E50CE;}
	.st8{fill:#98A3F4;}
	.st9{fill:#808FD8;}
	.st10{fill:#2B284F;}
	.st11{fill:#FFFFFF;}
	.st12{fill:#E9EFFF;}
	.st13{fill:#7DA2FF;}
	.st14{fill:#F2C73C;}
	.st15{fill:#FFDA73;}
	.st16{fill:#E5827C;}
	.st17{fill:#BC4D88;}
	.st18{fill:#D3A629;}
	.st19{fill:#211D35;}
	.st20{fill:#F4F3FE;}
	.st21{fill:#3500B7;}
	.st22{fill:#1A0087;}
	.st23{fill:none;stroke:#98A3F4;stroke-miterlimit:10;}
	.st24{fill:#A3A3A3;}
	.st25{fill:#D3D3D3;}
	.st26{fill:#341F78;}
	.st27{display:inline;}
	.st28{fill:#A5B7C6;}
</style>
<g id="BACKGROUND" class="st0">
	<rect x="-43.13" y="-51.65" class="st1" width="750" height="500"/>
</g>
<g id="OBJECTS">
	<g>
		<path class="st2" d="M627,173.14H506.58c1.13,0,2.25-0.05,3.35-0.15c-16.29-1.43-28.99-13.17-28.99-27.44v0
			c0-14.27,12.7-26.01,28.99-27.44c-1.1-0.1-2.22-0.15-3.35-0.15c17.86,0,32.33-12.35,32.33-27.58l0,0
			c0-15.23-14.48-27.58-32.33-27.58H91.8c-17.86,0-32.33,12.35-32.33,27.58l0,0c0,15.23,14.48,27.58,32.33,27.58h-8.25
			c17.86,0,32.33,12.35,32.33,27.58v0c0,15.23-14.48,27.58-32.33,27.58H48.69C21.8,173.14,0,191.74,0,214.68l0,0
			c0,22.94,21.8,41.53,48.69,41.53h34.87c17.86,0,32.33,12.35,32.33,27.58v0c0,15.23-14.48,27.58-32.33,27.58h8.25
			c-17.86,0-32.33,12.35-32.33,27.58v0c0,15.23,14.48,27.58,32.33,27.58h414.78c17.86,0,32.33-12.35,32.33-27.58v0
			c0-15.23-14.48-27.58-32.33-27.58c1.13,0,2.25-0.05,3.35-0.15c-16.29-1.43-28.99-13.17-28.99-27.44v0
			c0-14.27,12.7-26.01,28.99-27.44c-1.1-0.1-2.21-0.15-3.34-0.15H627c26.89,0,48.69-18.6,48.69-41.53l0,0
			C675.69,191.74,653.89,173.14,627,173.14z"/>
		<g>
			<path class="st3" d="M173.62,370.71c0,0-12.58,18.42-31.17,5.04c-18.58-13.38-16.2-9.5-39.32-9.21s-18.66-23.87-13.46-30.18
				c5.2-6.32,2.6-18.58-12.26-15.24s-30.85,2.97-24.9-14.87c5.95-17.84-10.03-22.3-15.98-36.8c-5.95-14.5-5.57-30.85,3.72-32.71
				c9.29-1.86,18.21,12.64,26.02,12.26c7.81-0.37,11.52-14.08,20.81-12.43c9.29,1.65,9.37,7.23,16.02,22.09
				c6.65,14.87,14.09,13.75,23.38,10.41c9.29-3.35,18.21,1.12,23.04,14.12c4.83,13.01,6.57,29.36,10.53,30.85
				C164.01,315.55,183.97,348.94,173.62,370.71z"/>
			<path class="st4" d="M64.77,263.51c0,0,82.4,42.32,108.85,107.2"/>
			<path class="st5" d="M101.74,296.33c4.27,4.72,5.95,10.15,3.76,12.14c-2.2,1.99-7.44-0.22-11.71-4.94
				c-4.27-4.72-5.95-10.15-3.76-12.14S97.47,291.62,101.74,296.33z"/>
			<path class="st5" d="M89.33,262.74c2.18,2.18,2.77,5.12,1.31,6.57c-1.45,1.45-4.39,0.86-6.57-1.31
				c-2.18-2.18-2.77-5.12-1.31-6.57C84.21,259.98,87.15,260.57,89.33,262.74z"/>
			<path class="st5" d="M137.15,291.11c4.54,4.54,6.3,10.12,3.94,12.48c-2.36,2.36-7.95,0.59-12.48-3.94
				c-4.54-4.54-6.3-10.12-3.94-12.48C127.02,284.81,132.61,286.58,137.15,291.11z"/>
			
				<ellipse transform="matrix(0.7737 -0.6336 0.6336 0.7737 -189.2462 162.4761)" class="st5" cx="132.79" cy="346.12" rx="11.15" ry="16.82"/>
		</g>
		<g>
			<path class="st6" d="M171.35,369.68c0,0-24.9-55.34-49.06-92.71c-24.16-37.37-21.19-76.03,8.92-79.74
				C161.32,193.51,187.33,260.03,171.35,369.68z"/>
			<path class="st4" d="M138.35,222.87c0,0,35.6,65.41,33,146.81"/>
			<path class="st7" d="M133.44,234.89c2.28,6.31,1.52,12.36-1.7,13.52c-3.22,1.16-7.67-3.01-9.95-9.31
				c-2.28-6.31-1.52-12.36,1.7-13.52C126.71,224.41,131.16,228.58,133.44,234.89z"/>
			<path class="st7" d="M145.97,265.17c1.43,3.95,0.93,7.75-1.11,8.49c-2.04,0.74-4.85-1.87-6.28-5.82
				c-1.43-3.95-0.93-7.75,1.11-8.49C141.73,258.61,144.54,261.22,145.97,265.17z"/>
			
				<ellipse transform="matrix(0.9405 -0.3399 0.3399 0.9405 -74.6676 69.1197)" class="st7" cx="159.98" cy="247.71" rx="5.06" ry="11.96"/>
			<path class="st7" d="M154.23,294.04c0.85,2.02,0.57,4.06-0.64,4.58c-1.21,0.51-2.88-0.71-3.73-2.72
				c-0.85-2.02-0.57-4.06,0.64-4.58C151.7,290.81,153.37,292.03,154.23,294.04z"/>
		</g>
		<g>
			<path class="st8" d="M124.28,381.79c0,0-4.23-5.64,2.82-12.69c0,0-4.08-23.88,20.27-27.09c0,0,4.59-16.08,18.38-17.92
				c13.78-1.84,24.81,6.89,28.02,18.84c0,0,10.57-3.68,20.21,2.76c9.65,6.43,8.73,19.75,8.73,19.75s10.57,3.77,6.43,16.35H124.28z"
				/>
			<path class="st9" d="M170.38,355.51c0,0-7.76,0-9.35-13.52c-0.82-6.99,2.18-13.4,5.26-17.95c-0.18,0.02-0.36,0.02-0.54,0.05
				c-13.78,1.84-18.38,17.92-18.38,17.92c-24.35,3.22-20.27,27.09-20.27,27.09c-7.05,7.05-2.82,12.69-2.82,12.69h44.36
				C156.13,368.66,170.38,355.51,170.38,355.51z"/>
		</g>
		<g>
			<path class="st3" d="M501,370.71c0,0,12.58,18.42,31.17,5.04c18.58-13.38,16.2-9.5,39.32-9.21
				c23.12,0.29,18.66-23.87,13.46-30.18c-5.2-6.32-2.6-18.58,12.27-15.24c14.87,3.35,30.85,2.97,24.9-14.87
				c-5.95-17.84,10.04-22.3,15.98-36.8c5.95-14.5,5.58-30.85-3.72-32.71c-9.29-1.86-18.21,12.64-26.02,12.26
				c-7.8-0.37-11.52-14.08-20.81-12.43c-9.29,1.65-9.37,7.23-16.02,22.09c-6.65,14.87-14.09,13.75-23.38,10.41
				c-9.29-3.35-18.21,1.12-23.04,14.12c-4.83,13.01-6.57,29.36-10.53,30.85C510.61,315.55,490.64,348.94,501,370.71z"/>
			<path class="st4" d="M609.84,263.51c0,0-82.4,42.32-108.85,107.2"/>
			
				<ellipse transform="matrix(0.6713 -0.7412 0.7412 0.6713 -32.7 526.1343)" class="st5" cx="576.85" cy="299.94" rx="11.52" ry="5.37"/>
			<path class="st5" d="M585.29,262.74c-2.18,2.18-2.77,5.12-1.31,6.57c1.45,1.45,4.39,0.86,6.57-1.31
				c2.18-2.18,2.77-5.12,1.31-6.57C590.41,259.98,587.46,260.57,585.29,262.74z"/>
			<path class="st5" d="M537.47,291.11c-4.54,4.54-6.3,10.12-3.94,12.48c2.36,2.36,7.95,0.59,12.48-3.94
				c4.54-4.54,6.3-10.12,3.94-12.48C547.59,284.81,542,286.58,537.47,291.11z"/>
			<path class="st5" d="M533.2,339.05c-5.89,7.19-6.79,16.17-2.03,20.08c4.76,3.9,13.4,1.24,19.28-5.95
				c5.89-7.19,6.79-16.17,2.03-20.08C547.72,329.2,539.09,331.86,533.2,339.05z"/>
		</g>
		<g>
			<path class="st6" d="M503.26,369.68c0,0,24.9-55.34,49.06-92.71c24.16-37.37,21.18-76.03-8.92-79.74
				C513.3,193.51,487.28,260.03,503.26,369.68z"/>
			<path class="st4" d="M536.26,222.87c0,0-35.6,65.41-33,146.81"/>
			<path class="st7" d="M541.17,234.89c-2.28,6.31-1.52,12.36,1.7,13.52s7.67-3.01,9.95-9.31c2.28-6.31,1.52-12.36-1.7-13.52
				C547.9,224.41,543.45,228.58,541.17,234.89z"/>
			<path class="st7" d="M528.65,265.17c-1.43,3.95-0.93,7.75,1.11,8.49c2.04,0.74,4.85-1.87,6.28-5.82
				c1.43-3.95,0.93-7.75-1.11-8.49C532.88,258.61,530.07,261.22,528.65,265.17z"/>
			<path class="st7" d="M509.88,245.99c-2.24,6.21-1.93,12.01,0.69,12.96c2.63,0.95,6.58-3.32,8.82-9.52
				c2.24-6.21,1.93-12.01-0.69-12.96C516.07,235.51,512.13,239.78,509.88,245.99z"/>
			<path class="st7" d="M520.39,294.04c-0.85,2.02-0.57,4.06,0.64,4.58c1.21,0.51,2.88-0.71,3.73-2.72
				c0.85-2.02,0.57-4.06-0.64-4.58C522.91,290.81,521.24,292.03,520.39,294.04z"/>
		</g>
		<g>
			<path class="st8" d="M550.34,381.79c0,0,4.23-5.64-2.82-12.69c0,0,4.08-23.88-20.27-27.09c0,0-4.59-16.08-18.38-17.92
				c-13.78-1.84-24.81,6.89-28.02,18.84c0,0-10.57-3.68-20.21,2.76c-9.65,6.43-8.73,19.75-8.73,19.75s-10.57,3.77-6.43,16.35H550.34
				z"/>
			<path class="st9" d="M504.24,355.51c0,0,7.76,0,9.35-13.52c0.82-6.99-2.18-13.4-5.26-17.95c0.18,0.02,0.36,0.02,0.54,0.05
				c13.78,1.84,18.38,17.92,18.38,17.92c24.35,3.22,20.27,27.09,20.27,27.09c7.05,7.05,2.82,12.69,2.82,12.69h-44.36
				C518.48,368.66,504.24,355.51,504.24,355.51z"/>
		</g>
		<path class="st10" d="M495.73,336.36H179.96c-9.07,0-16.42-7.35-16.42-16.42v-201.3c0-9.07,7.35-16.42,16.42-16.42h315.78
			c9.07,0,16.42,7.35,16.42,16.42v201.3C512.16,329.01,504.8,336.36,495.73,336.36z"/>
		<path class="st11" d="M488.32,331.38H187.37c-9.07,0-16.42-7.35-16.42-16.42V123.61c0-9.07,7.35-16.42,16.42-16.42h300.95
			c9.07,0,16.42,7.35,16.42,16.42v191.35C504.75,324.03,497.39,331.38,488.32,331.38z"/>
		<rect x="176.91" y="122.28" class="st2" width="317.4" height="10.41"/>
		<rect x="241.58" y="276.89" class="st2" width="188.06" height="4.46"/>
		<rect x="241.58" y="288.41" class="st2" width="188.06" height="4.46"/>
		<rect x="241.58" y="299.94" class="st2" width="188.06" height="4.46"/>
		<rect x="304.64" y="336.36" class="st12" width="61.94" height="26.02"/>
		<path class="st13" d="M375.57,370.71h-79.91v-1.03c0-4.04,3.27-7.31,7.31-7.31h65.29c4.04,0,7.31,3.27,7.31,7.31V370.71z"/>
		<path class="st13" d="M9.96,92.82c0,0,11.08-26.12,19.02-26.11c7.94,0,11.47,7.18,15.52,5.94c4.05-1.23,12.19-35.98,24.53-34.7
			c12.33,1.27,10.5,30.45,22.77,32.71c12.27,2.26,19.48-17.64,33.17-14.3s16.59,28.35,20.17,34.54c3.58,6.18,9.27,10.51,1.82,10.54
			C139.51,101.47-6.95,101.19,9.96,92.82z"/>
		<path class="st13" d="M448.46,68.75c0,0,12.02-8.64,23.37-32.21c11.35-23.57,24.3-22.11,28.69-20.75
			c4.39,1.36,10.98,16.98,16.53,31.06c5.55,14.08,12.56,8.51,16.59-3.92c4.04-12.43,12.9-4.5,14.12,0.41
			c1.22,4.91,3.33,13.96,11.67,11.07s11.21-0.87,12.08,3.64c0.87,4.51,5.94,7.03,24.1,8.4c18.16,1.37,25.94,8.87,13.16,11.15
			C596,79.86,407.34,78.77,448.46,68.75z"/>
		<g>
			<path class="st14" d="M462.48,222.61V258c0,0.86,0.69,1.55,1.55,1.55l0,0c0.86,0,1.55-0.69,1.55-1.55v-17.16
				c0-1.57,1.28-2.85,2.85-2.85l0,0c1.57,0,2.85,1.28,2.85,2.85v23.61c0,1.92,1.55,3.47,3.47,3.47l0,0c1.92,0,3.47-1.55,3.47-3.47
				v-22.19c0-1.81,1.47-3.28,3.28-3.28l0,0c1.81,0,3.28,1.47,3.28,3.28l0,0c0,1.66,1.34,3,3,3h1.15c2.29,0,4.15-1.86,4.15-4.15
				v-18.51H462.48z"/>
			<path class="st15" d="M492.8,222.61h-29.17c-0.98,0-1.77-0.79-1.77-1.77v-3.51c0-0.98,0.79-1.77,1.77-1.77h29.17
				c0.98,0,1.77,0.79,1.77,1.77v3.51C494.57,221.82,493.77,222.61,492.8,222.61z"/>
		</g>
		<g>
			<path class="st16" d="M549.57,242.2c0,0-2.11,8.18-3.1,13.01c-0.99,4.83,7.56,6.81,7.56,6.81l-0.74,4.21c0,0,4.71-0.25,6.19,2.11
				l2.35-9.54c0,0,2.48-2.6,1.98-5.82c-0.5-3.22-3.84-2.85-4.96,0c0,0-3.73-3.96-3.72-9.29
				C555.14,243.69,552.67,245.05,549.57,242.2z"/>
			<path class="st17" d="M568.53,243.57c0,0,1.12-3.22-1.11-5.57s-6.57-2.48-9.91-1.98c-0.61,0.09-3.1-0.12-6.44-1.24
				c-3.34-1.12-6.94,0-7.68,3.47c-0.74,3.47,5.15,8.13,5.15,8.13l0,0c0.59-2.38,1.05-4.17,1.05-4.17c3.1,2.85,5.57,1.49,5.57,1.49
				c-0.01,5.33,3.72,9.29,3.72,9.29c1.11-2.85,4.46-3.22,4.96,0c0.5,3.22-1.98,5.82-1.98,5.82s6.19-3.22,7.68-7.68
				C571,246.66,568.53,243.57,568.53,243.57z"/>
			<path class="st14" d="M553.29,266.24c0,0-6.94-0.62-12.26-1.73c-5.33-1.11-31.22-11.77-31.22-11.77s-2.23,2.35-2.23,5.2
				c0,0,16.6,11.27,22.86,13.75c6.26,2.48,13.44,6.94,13.44,6.94s-0.5,19.2,0,26.02c0.5,6.81,0.5,9.17,0.5,9.17
				s11.89,1.11,21.18-1.86c0,0-0.98-23.42-1.67-29.86s-4.4-13.75-4.4-13.75S557.25,265.37,553.29,266.24z"/>
			<path class="st18" d="M543.69,288.54c0.06-5.41,0.18-9.91,0.18-9.91s-0.89-0.55-2.29-1.36c-0.01,0.01-8.73,7.56-9.35,7.68
				c-0.62,0.12-8.67-7.68-8.67-7.68c-1.73,0.62-4.21,2.73-4.21,2.73s9.04,13.75,11.77,14.37
				C533.84,294.98,543.69,288.54,543.69,288.54L543.69,288.54z"/>
			<path class="st16" d="M521.36,270.39c0,0,1.42,5.3,2.2,6.88c0,0-2.69,1.18-4.21,2.73c0,0-2.82-1.58-4.58-4.8s-2.32-4.15,1.39-6.1
				C519.87,267.14,520.59,267.67,521.36,270.39z"/>
			<polygon class="st18" points="543.87,278.63 547.47,280.7 543.87,282.93 			"/>
			<path class="st16" d="M530.93,377.43l2.51,9.29c0,0,1.95,2.6,6.04,0.65l-1.86-9.94H530.93z"/>
			<path class="st6" d="M523.03,393.69c0,0,0.56-1.49,3.72-2.14c3.16-0.65,6.69-4.83,6.69-4.83s2.04,2.69,6.04,0.65
				c0,0,1.39,3.72,1.11,6.32C540.59,393.69,523.68,395.92,523.03,393.69z"/>
			<path class="st16" d="M565.81,376.49l2.51,9.29c0,0,1.95,2.6,6.04,0.65l-1.62-11.24L565.81,376.49z"/>
			<path class="st6" d="M557.92,392.75c0,0,0.56-1.49,3.72-2.14c3.16-0.65,6.69-4.83,6.69-4.83s2.04,2.69,6.04,0.65
				c0,0,1.39,3.72,1.11,6.32C575.48,392.75,558.57,394.98,557.92,392.75z"/>
			<path class="st19" d="M565.92,377.43c0,0,4.03-0.74,6.82-2.23c0,0-4.91-28.62-6.82-36.42c-1.91-7.81-4.14-19.14-4.14-19.14
				l-13.94,16.72C547.84,336.36,563,366.65,565.92,377.43z"/>
			<path class="st10" d="M565.55,311.95c-9.29,2.97-21.18,1.86-21.18,1.86s-16.97,32.58-18.09,37.6
				c-1.11,5.02,4.65,26.02,4.65,26.02s3.53,2.23,6.5,0.74c0,0-0.56-21,0.19-25.09c0.74-4.09,15.8-19.33,23.04-26.95
				C567.91,318.52,565.55,311.95,565.55,311.95z"/>
			<polygon class="st20" points="478.05,222.61 517.24,273.44 519.65,271.44 482.9,222.61 			"/>
			<path class="st16" d="M509.8,252.73c0,0-3.87-2.69-5.64-3.72c-1.77-1.02-4-3.44-4-3.44s-0.28,1.86-1.11,2.23
				c-0.84,0.37-3.44,1.21-3.72,1.95c-0.28,0.74,0.46,2.23,0.74,2.97c0.28,0.74-0.37,1.83,0.19,2.54c0.56,0.71,0.28,2.01,1.21,2.11
				c0.93,0.09,6.23-0.09,7.53,0c1.3,0.09,2.57,0.56,2.57,0.56S507.45,255.43,509.8,252.73z"/>
			<path class="st16" d="M519.34,277.64c0,0-2.28-2.82,0-4.55c0,0-3.84,0.19-2.91-1.12c0.93-1.3,2.94-2.48,4.54-2.73l2.04,6.63
				L519.34,277.64z"/>
		</g>
		<g>
			
				<rect x="223.89" y="152.78" transform="matrix(0.9783 0.207 -0.207 0.9783 50.8132 -63.1318)" class="st8" width="206.4" height="116.95"/>
			
				<rect x="235.56" y="146.47" transform="matrix(0.9783 0.207 -0.207 0.9783 46.3942 -49.2623)" class="st9" width="46.09" height="101.21"/>
			
				<rect x="300.31" y="171.27" transform="matrix(0.9783 0.207 -0.207 0.9783 44.5296 -71.5361)" class="st9" width="127.62" height="11.52"/>
			
				<rect x="296.07" y="191.32" transform="matrix(0.9783 0.207 -0.207 0.9783 48.5874 -70.224)" class="st9" width="127.62" height="11.52"/>
			
				<rect x="291.73" y="211.82" transform="matrix(0.9783 0.207 -0.207 0.9783 52.7384 -68.8817)" class="st9" width="127.62" height="11.52"/>
			
				<rect x="287.1" y="233.71" transform="matrix(0.9783 0.207 -0.207 0.9783 57.1683 -67.4492)" class="st9" width="127.62" height="11.52"/>
		</g>
		<g>
			<path class="st16" d="M244.61,55.28c0,0-6.1-0.49-7.99-1.02c0,0-0.74,3.2-2.14,5.18c0,0,2.31,2.77,6.2,4.06
				c3.89,1.28,5.03,1.71,6.41-2.77C248.49,56.25,247.75,55.57,244.61,55.28z"/>
			<path class="st17" d="M246.26,9.96c0,0-1.66-7.68-8.92-9.54c-7.26-1.87-19.92,2.49-19.92,13.9s2.07,26.76,2.07,26.76
				s11.62,2.28,18.88,0c7.26-2.28,7.26-2.28,7.26-2.28s-3.32-7.68-2.49-12.86C243.98,20.75,249.27,15.78,246.26,9.96z"/>
			<path class="st16" d="M243.56,12.66c0,0-10.37,3.73-15.77,0c0,0,1.24-3.11-1.45-4.36c-2.7-1.24-6.64,3.53-5.81,8.51l-6.43,4.24
				c0,0,4.36,0.95,5.81,5.72l4.77-2.49c0,0,0.83,4.36,5.19,4.15C234.23,28.22,240.66,20.13,243.56,12.66z"/>
			<path class="st21" d="M183.4,39.83c0,0,21.37-19.73,30.7-18.79c0,0,4.98,0.74,5.81,5.72l1.87,20.12L232.3,61
				c0,0-0.77,3.73-3.47,4.36c0,0-13.9-11.41-14.73-14.11c-0.83-2.7-1.45-9.15-1.45-9.15s-4.98,1.68-7.05,5.21
				c-2.07,3.53-2.49,8.51-2.49,8.51S181.74,52.28,183.4,39.83z"/>
			<path class="st9" d="M203.11,55.81c0,0,11,9.96,15.14,13.69c4.15,3.73,4.98,27.38,4.98,27.38s-1.66,1.87-5.81,1.04
				c0,0-3.73-10.37-4.25-19.09l-17.74-10.17l-0.94-15.37L203.11,55.81z"/>
			<path class="st6" d="M194.49,53.3L194.49,53.3c-5.72-2.32-12.02-6.49-11.09-13.47c0,0-7.05,5.81-6.02,15.77
				c1.04,9.96,11,20.33,11,20.33c-4.15,7.05-7.88,24.9-7.88,24.9c0.21,3.53,4.77,2.49,4.77,2.49s14.94-23.24,14.11-27.38
				C198.55,71.78,194.49,53.3,194.49,53.3z"/>
			<path class="st22" d="M212.65,42.09v-8.48l-3.79,10.42C208.86,44.03,210.58,42.9,212.65,42.09z"/>
			<path class="st22" d="M221.78,46.89l9.09,12.19l3.15,0.88c2.63-3.32,2.7-6.65,2.7-6.65L221.78,46.89z"/>
			<path class="st8" d="M180.5,100.83c0,0-2.07,2.7-1.52,7.54c0,0,10.37,1.52,14.8,0.69c0,0-3.73-3.25-8.51-5.74
				C185.27,103.32,181.33,104.63,180.5,100.83z"/>
			<path class="st8" d="M217.42,97.92v5.54c0,0,8.44,1.46,15.49,0c0,0-2.49-2.56-5.81-3.67c-3.32-1.11-3.87-2.9-3.87-2.9
				S221.16,98.55,217.42,97.92z"/>
			<path class="st16" d="M228.84,65.35c0,0,2.14,2.9,4.08,3.04c1.94,0.14,1.66,1.38,3.18,1.52c1.52,0.14,2.49,0.14,3.73-1.66
				c1.24-1.8,0.41,0.14,1.24-1.8c0.83-1.94-8.77-5.46-8.77-5.46S231.53,63.69,228.84,65.35z"/>
			<line class="st23" x1="241.23" y1="138.02" x2="241.23" y2="55.7"/>
			<path class="st16" d="M237.07,58.96c0,0,3.56,1.93,5-0.93c0,0,0.58,4.25,1.82,2.97c1.24-1.28,2.12-3.73,2.07-5.54l-7.7-0.89
				L237.07,58.96z"/>
		</g>
		<g>
			<rect x="445.1" y="363.81" class="st24" width="23.61" height="32.88"/>
			<polygon class="st25" points="445.1,396.69 468.71,396.69 445.1,363.81 			"/>
			<path class="st14" d="M445.27,362.38h23.01c0.84,0,1.53,0.68,1.53,1.53v10.19c0,0-0.17,3.2-2.53,1.86
				c-2.36-1.35-1.26-5.57-2.7-6.62c-1.76-1.29-5.16,3.19-3.69,7.13c0.92,2.46-0.55,4.5-3.14,4.08c-3.89-0.63-2.13-8.65-3.88-10.58
				c-1.6-1.77-4.81-1.35-5.4,3.88c-0.59,5.23-3.54,6.24-4.64,5.23c-0.89-0.82-0.33-11.37-0.09-15.27
				C443.8,363,444.46,362.38,445.27,362.38z"/>
		</g>
		<g>
			<g>
				<path class="st26" d="M172.21,389.36c-0.06,0-0.12,0-0.18-0.01c-0.94-0.1-1.62-0.94-1.53-1.88l22.8-222.5
					c0.1-0.94,0.94-1.63,1.88-1.53c0.94,0.1,1.62,0.94,1.53,1.88l-22.8,222.51C173.82,388.7,173.07,389.36,172.21,389.36z"/>
			</g>
			<g>
				<path class="st26" d="M241.58,389.36c-0.87,0-1.61-0.66-1.7-1.54l-22.8-222.51c-0.1-0.94,0.59-1.78,1.53-1.88
					c0.94-0.09,1.78,0.59,1.88,1.53l22.8,222.5c0.1,0.94-0.59,1.78-1.53,1.88C241.7,389.36,241.64,389.36,241.58,389.36z"/>
			</g>
			<g>
				<path class="st26" d="M221.17,191.08H192.6c-0.95,0-1.71-0.77-1.71-1.71s0.77-1.71,1.71-1.71h28.57c0.95,0,1.71,0.77,1.71,1.71
					S222.12,191.08,221.17,191.08z"/>
			</g>
			<g>
				<path class="st26" d="M224.26,220.23h-34.72c-0.95,0-1.71-0.77-1.71-1.71c0-0.95,0.77-1.71,1.71-1.71h34.72
					c0.95,0,1.71,0.77,1.71,1.71C225.97,219.46,225.2,220.23,224.26,220.23z"/>
			</g>
			<g>
				<path class="st26" d="M228.12,256.86h-42.34c-0.95,0-1.71-0.77-1.71-1.71c0-0.94,0.77-1.71,1.71-1.71h42.34
					c0.95,0,1.71,0.77,1.71,1.71C229.84,256.09,229.07,256.86,228.12,256.86z"/>
			</g>
			<g>
				<path class="st26" d="M232.14,298.12h-50.59c-0.95,0-1.71-0.77-1.71-1.71c0-0.94,0.77-1.71,1.71-1.71h50.59
					c0.95,0,1.71,0.77,1.71,1.71C233.85,297.35,233.09,298.12,232.14,298.12z"/>
			</g>
			<g>
				<path class="st26" d="M238.15,356.65h-62.59c-0.95,0-1.71-0.77-1.71-1.71c0-0.94,0.77-1.71,1.71-1.71h62.59
					c0.95,0,1.71,0.77,1.71,1.71C239.86,355.88,239.1,356.65,238.15,356.65z"/>
			</g>
		</g>
		
			<ellipse transform="matrix(0.9316 -0.3635 0.3635 0.9316 -46.7044 33.6911)" class="st2" cx="66.16" cy="140.93" rx="13.45" ry="13.45"/>
		
			<ellipse transform="matrix(0.2309 -0.973 0.973 0.2309 279.5572 632.3146)" class="st2" cx="539.75" cy="139.32" rx="11.84" ry="11.84"/>
		<circle class="st2" cx="649.58" cy="288.88" r="7.53"/>
		<circle class="st2" cx="22.67" cy="297.48" r="11.59"/>
	</g>
</g>
<g id="DESIGNED_BY_FREEPIK" class="st0">
	<g class="st27">
		<g id="XMLID_319_">
			<g id="XMLID_338_">
				<path id="XMLID_346_" class="st28" d="M341.98,413.81c-0.43,0.44-0.8,0.93-1.11,1.45l-0.47-0.24c-0.07-0.3-0.35-0.5-0.66-0.47
					c-0.33,0.04-0.57,0.34-0.53,0.67c0.04,0.33,0.34,0.57,0.67,0.53c0.07-0.01,0.13-0.03,0.18-0.05l0.45,0.23
					c-0.25,0.55-0.43,1.14-0.54,1.74l0.75,0.13c0.23-1.31,0.85-2.51,1.79-3.47L341.98,413.81z"/>
				<path id="XMLID_345_" class="st28" d="M347.46,411.51c-0.17,0-0.34,0.01-0.51,0.02l-0.07-0.63c0.19-0.15,0.3-0.39,0.27-0.64
					c-0.05-0.39-0.4-0.67-0.8-0.63c-0.39,0.05-0.67,0.4-0.63,0.8c0.03,0.25,0.19,0.46,0.4,0.56l0.07,0.62
					c-0.71,0.12-1.4,0.33-2.06,0.65l0.33,0.68c0.93-0.45,1.94-0.67,3-0.67c0.5,0,0.99,0.05,1.48,0.16l0.16-0.74
					C348.56,411.57,348.01,411.51,347.46,411.51z"/>
				<path id="XMLID_344_" class="st28" d="M354.07,414.06c0.33-0.04,0.57-0.34,0.53-0.67c-0.04-0.33-0.34-0.57-0.67-0.53
					c-0.31,0.04-0.54,0.3-0.53,0.61l-0.42,0.36c-0.42-0.43-0.89-0.81-1.41-1.14l-0.4,0.64c1.13,0.71,2.02,1.73,2.56,2.93l0.69-0.31
					c-0.25-0.55-0.57-1.07-0.94-1.55l0.4-0.35C353.94,414.06,354,414.07,354.07,414.06z"/>
				<path id="XMLID_343_" class="st28" d="M346.92,421.72c-0.39,0.02-0.78,0.03-1.16,0.03c-0.88,0-1.73-0.06-2.48-0.18
					c-0.39-0.06-0.85-0.15-1.27-0.29c1.05,1.86,3.07,3.13,5.39,3.13c2.86,0,5.26-1.92,5.95-4.5c-0.68,0.45-1.51,0.83-2.46,1.12
					C349.71,421.39,348.33,421.63,346.92,421.72z"/>
				<path id="XMLID_339_" class="st28" d="M347.46,413.03c-3.35,0-6.08,2.67-6.08,5.94c0,0.43,0.05,0.85,0.14,1.26
					c0.67,0.48,2.71,0.89,5.35,0.73c2.88-0.17,5.3-0.96,6.67-2.16c-0.01-0.19-0.02-0.39-0.05-0.58
					C353.12,415.26,350.52,413.03,347.46,413.03z M345.3,419.54c-1.02,0-1.85-0.83-1.85-1.85c0-1.02,0.83-1.85,1.85-1.85
					c1.02,0,1.85,0.83,1.85,1.85C347.15,418.71,346.32,419.54,345.3,419.54z M350.04,418.63c-0.75,0-1.36-0.61-1.36-1.36
					s0.61-1.36,1.36-1.36c0.75,0,1.36,0.61,1.36,1.36S350.79,418.63,350.04,418.63z"/>
			</g>
			<path id="XMLID_336_" class="st28" d="M363.47,414.89c-0.29-0.12-0.81-0.31-1.38-0.24c-0.55,0.07-0.84,0.34-0.84,1.01v0.87h2.23
				v1.72h-2.23v5.45h-1.93v-5.45h-1.34v-1.72h1.34v-0.89c0-1.68,0.9-2.78,2.57-2.78c0.64,0,1.16,0.12,1.59,0.31L363.47,414.89z"/>
			<path id="XMLID_334_" class="st28" d="M368.17,418.23c-0.18-0.03-0.36-0.05-0.53-0.05c-0.9,0-1.51,0.55-1.51,1.61v3.91h-1.93
				v-7.17h1.87v0.78c0.45-0.67,1.14-0.98,2.02-0.98c0.41,0,0.85,0.13,1.09,0.34L368.17,418.23z"/>
			<path id="XMLID_331_" class="st28" d="M375.84,420.1c0,0.22-0.01,0.49-0.04,0.65h-5.08c0.21,1.04,0.93,1.49,1.84,1.49
				c0.62,0,1.3-0.25,1.81-0.69l1.13,1.24c-0.81,0.75-1.85,1.09-3.06,1.09c-2.2,0-3.72-1.5-3.72-3.75c0-2.26,1.48-3.8,3.63-3.8
				C374.42,416.34,375.83,417.87,375.84,420.1z M370.72,419.44h3.18c-0.18-0.92-0.73-1.44-1.56-1.44
				C371.43,418,370.89,418.55,370.72,419.44z"/>
			<path id="XMLID_328_" class="st28" d="M383.49,420.1c0,0.22-0.02,0.49-0.04,0.65h-5.08c0.21,1.04,0.93,1.49,1.84,1.49
				c0.62,0,1.3-0.25,1.81-0.69l1.13,1.24c-0.81,0.75-1.85,1.09-3.06,1.09c-2.2,0-3.72-1.5-3.72-3.75c0-2.26,1.48-3.8,3.63-3.8
				C382.07,416.34,383.48,417.87,383.49,420.1z M378.38,419.44h3.18c-0.18-0.92-0.73-1.44-1.56-1.44
				C379.08,418,378.55,418.55,378.38,419.44z"/>
			<path id="XMLID_325_" class="st28" d="M391.84,420.11c0,2.15-1.49,3.77-3.47,3.77c-0.96,0-1.64-0.38-2.11-0.93v3.71h-1.92v-10.13
				h1.89v0.79c0.47-0.58,1.15-0.98,2.14-0.98C390.34,416.34,391.84,417.96,391.84,420.11z M386.16,420.11
				c0,1.13,0.75,1.98,1.84,1.98c1.14,0,1.85-0.88,1.85-1.98c0-1.1-0.71-1.98-1.85-1.98C386.91,418.13,386.16,418.98,386.16,420.11z"
				/>
			<path id="XMLID_322_" class="st28" d="M394.94,414.18c0,0.7-0.54,1.23-1.24,1.23c-0.7,0-1.23-0.53-1.23-1.23
				c0-0.7,0.53-1.24,1.23-1.24C394.4,412.94,394.94,413.49,394.94,414.18z M394.68,423.7h-1.93v-7.17h1.93V423.7z"/>
			<path id="XMLID_320_" class="st28" d="M397.9,419.08l2.7-2.55h2.37l-3.48,3.38l3.5,3.8h-2.38l-2.72-2.9v2.9h-1.93v-10.66h1.93
				V419.08z"/>
		</g>
		<g>
			<path class="st28" d="M266.28,423.64v-1.05c-0.53,0.72-1.39,1.23-2.39,1.23c-1.85,0-3.15-1.41-3.15-3.71
				c0-2.26,1.29-3.72,3.15-3.72c0.95,0,1.82,0.47,2.39,1.25v-3.76h1.1v9.77H266.28z M266.28,421.72v-3.21
				c-0.4-0.62-1.24-1.14-2.12-1.14c-1.42,0-2.27,1.17-2.27,2.74c0,1.57,0.85,2.72,2.27,2.72
				C265.04,422.83,265.89,422.33,266.28,421.72z"/>
			<path class="st28" d="M268.8,420.09c0-2.05,1.46-3.71,3.49-3.71c2.14,0,3.4,1.67,3.4,3.79v0.28h-5.73
				c0.09,1.33,1.03,2.45,2.55,2.45c0.81,0,1.63-0.32,2.18-0.89l0.53,0.72c-0.7,0.7-1.65,1.08-2.81,1.08
				C270.31,423.81,268.8,422.3,268.8,420.09z M272.28,417.29c-1.51,0-2.26,1.27-2.31,2.36h4.64
				C274.59,418.6,273.89,417.29,272.28,417.29z"/>
			<path class="st28" d="M276.48,422.7l0.57-0.79c0.47,0.54,1.36,1.01,2.33,1.01c1.08,0,1.67-0.51,1.67-1.22
				c0-1.71-4.38-0.66-4.38-3.28c0-1.1,0.95-2.04,2.64-2.04c1.2,0,2.05,0.45,2.62,1.03l-0.51,0.76c-0.42-0.51-1.2-0.89-2.11-0.89
				c-0.97,0-1.57,0.48-1.57,1.11c0,1.55,4.38,0.53,4.38,3.28c0,1.19-0.95,2.14-2.78,2.14C278.18,423.81,277.2,423.46,276.48,422.7z"
				/>
			<path class="st28" d="M283.35,414.82c0-0.41,0.34-0.75,0.73-0.75c0.41,0,0.75,0.34,0.75,0.75c0,0.41-0.34,0.73-0.75,0.73
				C283.69,415.55,283.35,415.23,283.35,414.82z M283.54,423.64v-7.07h1.1v7.07H283.54z"/>
			<path class="st28" d="M286.45,425.45l0.56-0.82c0.59,0.7,1.29,0.97,2.3,0.97c1.17,0,2.27-0.57,2.27-2.12v-1.01
				c-0.51,0.72-1.38,1.26-2.37,1.26c-1.85,0-3.15-1.38-3.15-3.66c0-2.27,1.29-3.68,3.15-3.68c0.95,0,1.8,0.47,2.37,1.25v-1.07h1.1
				v6.87c0,2.34-1.64,3.08-3.37,3.08C288.11,426.51,287.29,426.27,286.45,425.45z M291.58,421.6v-3.09
				c-0.38-0.62-1.23-1.14-2.11-1.14c-1.42,0-2.27,1.13-2.27,2.7c0,1.55,0.85,2.7,2.27,2.7C290.35,422.76,291.2,422.21,291.58,421.6z
				"/>
			<path class="st28" d="M299.28,423.64v-4.63c0-1.24-0.63-1.64-1.58-1.64c-0.86,0-1.68,0.53-2.09,1.1v5.17h-1.1v-7.07h1.1v1.03
				c0.5-0.59,1.46-1.2,2.52-1.2c1.48,0,2.26,0.75,2.26,2.29v4.97H299.28z"/>
			<path class="st28" d="M301.8,420.09c0-2.05,1.46-3.71,3.49-3.71c2.14,0,3.4,1.67,3.4,3.79v0.28h-5.73
				c0.09,1.33,1.03,2.45,2.55,2.45c0.81,0,1.63-0.32,2.18-0.89l0.53,0.72c-0.7,0.7-1.66,1.08-2.81,1.08
				C303.31,423.81,301.8,422.3,301.8,420.09z M305.28,417.29c-1.51,0-2.26,1.27-2.31,2.36h4.64
				C307.59,418.6,306.89,417.29,305.28,417.29z"/>
			<path class="st28" d="M315.22,423.64v-1.05c-0.53,0.72-1.39,1.23-2.39,1.23c-1.85,0-3.15-1.41-3.15-3.71
				c0-2.26,1.29-3.72,3.15-3.72c0.95,0,1.82,0.47,2.39,1.25v-3.76h1.1v9.77H315.22z M315.22,421.72v-3.21
				c-0.4-0.62-1.25-1.14-2.12-1.14c-1.42,0-2.27,1.17-2.27,2.74c0,1.57,0.85,2.72,2.27,2.72
				C313.98,422.83,314.83,422.33,315.22,421.72z"/>
			<path class="st28" d="M321.56,423.64v-9.77h1.1v3.76c0.57-0.78,1.42-1.25,2.39-1.25c1.85,0,3.15,1.46,3.15,3.72
				c0,2.3-1.3,3.71-3.15,3.71c-1,0-1.86-0.51-2.39-1.23v1.05H321.56z M324.77,422.83c1.44,0,2.29-1.16,2.29-2.72
				c0-1.57-0.85-2.74-2.29-2.74c-0.86,0-1.73,0.53-2.11,1.14v3.21C323.04,422.33,323.91,422.83,324.77,422.83z"/>
			<path class="st28" d="M329.4,425.41c0.16,0.07,0.43,0.12,0.6,0.12c0.48,0,0.81-0.16,1.05-0.75l0.47-1.07l-2.96-7.15h1.19
				l2.36,5.8l2.34-5.8h1.2l-3.54,8.51c-0.42,1.03-1.14,1.42-2.08,1.44c-0.23,0-0.6-0.04-0.81-0.1L329.4,425.41z"/>
		</g>
	</g>
</g>
</svg>
