<?xml version="1.0" encoding="utf-8"?>
<!-- Generator: Adobe Illustrator 23.1.0, SVG Export Plug-In . SVG Version: 6.00 Build 0)  -->
<svg version="1.1" xmlns="http://www.w3.org/2000/svg" xmlns:xlink="http://www.w3.org/1999/xlink" x="0px" y="0px"
	 viewBox="0 0 500 433" style="enable-background:new 0 0 500 433;" xml:space="preserve">
<style type="text/css">
	.st0{fill:#F5F5F5;}
	.st1{fill:#E6E6E6;}
	.st2{fill:#27DEBF;}
	.st3{fill:#FFFFFF;}
	.st4{opacity:0.2;}
	.st5{fill:#F28F8F;}
	.st6{fill:#F0F0F0;}
	.st7{fill:#FAFAFA;}
	.st8{opacity:0.1;}
	.st9{opacity:0.3;fill:#FFFFFF;}
	.st10{fill:#37474F;}
	.st11{fill:#455A64;}
	.st12{fill:#263238;}
	.st13{fill:#FFFFFF;stroke:#27DEBF;stroke-miterlimit:10;}
	.st14{fill:#27DEBF;stroke:#27DEBF;stroke-miterlimit:10;}
	.st15{opacity:0.7;}
	.st16{opacity:0.3;}
	.st17{opacity:0.6;}
	.st18{fill:#E0E0E0;}
	.st19{fill:#FFA8A7;}
	.st20{fill:#EBEBEB;}
</style>
<g id="Floor">
	<path class="st0" d="M101.4,387c83.79,43.77,219.63,43.77,303.41,0c83.79-43.77,83.79-114.74,0-158.51
		c-83.79-43.77-219.63-43.77-303.41,0C17.62,272.27,17.62,343.23,101.4,387z"/>
</g>
<g id="Shadow">
	<g id="XMLID_16929_">
		<ellipse class="st1" cx="405.97" cy="265.03" rx="29.57" ry="14.09"/>
	</g>
	<g id="XMLID_16800_">
		<ellipse class="st1" cx="100.88" cy="348.63" rx="27.11" ry="12.92"/>
	</g>
	<g id="XMLID_16984_">
		<ellipse class="st1" cx="302.16" cy="372.94" rx="28.21" ry="13.45"/>
	</g>
	<g id="XMLID_17009_">
		<ellipse class="st1" cx="162.14" cy="308.58" rx="28.21" ry="13.45"/>
	</g>
</g>
<g id="Plants">
	<g>
		<g id="XMLID_16796_">
			<g id="XMLID_16792_">
				<path class="st2" d="M328.15,232.14c0.69-8.29,19.69-39.39,25.5-44.21c5.82-4.82,16.06-17,11.65-23.93
					c-4.42-6.93-17.41-3.84-29.61,17.74c-9.46,16.73-12.4,53.73-12.4,53.73L328.15,232.14z"/>
			</g>
			<g id="XMLID_16793_">
				<path class="st3" d="M325.55,231.36c-0.03,0-0.05,0-0.08-0.01c-0.27-0.04-0.46-0.3-0.42-0.57
					c5.38-34.72,16.79-56.38,34.88-66.22c0.24-0.13,0.55-0.04,0.68,0.2c0.13,0.24,0.04,0.55-0.2,0.68
					c-17.8,9.68-29.05,31.11-34.37,65.5C326.01,231.18,325.79,231.36,325.55,231.36z"/>
			</g>
		</g>
		<g>
			<path class="st2" d="M330.06,191.92c0,0,15.26-26.36,27.88-38.44c7-6.69,11.3-10.97,10.92-16.06c-0.28-3.83-3.47-5.88-10.34-4.19
				c-13.67,3.36-20.96,17.21-25.72,32.72C329.46,176.87,330.06,191.92,330.06,191.92z"/>
			<path class="st4" d="M330.06,191.92c0,0,15.26-26.36,27.88-38.44c7-6.69,11.3-10.97,10.92-16.06c-0.28-3.83-3.47-5.88-10.34-4.19
				c-13.67,3.36-20.96,17.21-25.72,32.72C329.46,176.87,330.06,191.92,330.06,191.92z"/>
		</g>
		<g id="XMLID_16795_">
			<path class="st3" d="M331.83,187.59c-0.03,0-0.05,0-0.08-0.01c-0.27-0.04-0.46-0.3-0.42-0.57c5.43-34.27,26.07-47.17,32.27-50.3
				c0.25-0.12,0.55-0.03,0.67,0.22c0.13,0.25,0.03,0.55-0.22,0.67c-6.09,3.08-26.37,15.77-31.73,49.57
				C332.29,187.42,332.08,187.59,331.83,187.59z"/>
		</g>
	</g>
</g>
<g id="Social_media">
	<g>
		<g id="XMLID_16766_">
			<path class="st5" d="M123.33,68.3l-6.94-4.01l0,0c-2.57-1.52-6.38-1.23-10.64,1.23c-5.89,3.4-10.93,11.66-12.99,18.59l-4.92-2.83
				l0,0c-2.53-1.7-6-1.96-9.83,0.25c-7.73,4.46-13.99,14.34-13.99,22.07c0,7.32,4.52,12,10.08,14.99l0,0l5.47,3.15l0.07-0.78
				c1.09,0.37,2.18,0.7,3.25,0.98l9.02,2.39l9.01-12.8c8.59-12.2,18.82-29.05,18.82-40.1c0-0.43-0.02-0.83-0.06-1.23l1.9,1
				L123.33,68.3z"/>
		</g>
		<g id="XMLID_16969_">
			<path class="st1" d="M123.33,68.3l-6.94-4.01l0,0c-2.57-1.52-6.38-1.23-10.64,1.23c-5.89,3.4-10.93,11.66-12.99,18.59l-4.92-2.83
				l0,0c-2.53-1.7-6-1.96-9.83,0.25c-7.73,4.46-13.99,14.34-13.99,22.07c0,7.32,4.52,12,10.08,14.99l0,0l5.47,3.15l0.07-0.78
				c1.09,0.37,2.18,0.7,3.25,0.98l9.02,2.39l9.01-12.8c8.59-12.2,18.82-29.05,18.82-40.1c0-0.43-0.02-0.83-0.06-1.23l1.9,1
				L123.33,68.3z"/>
		</g>
		<g id="XMLID_16750_">
			<g id="XMLID_16751_">
				<g id="XMLID_16764_">
					<path class="st6" d="M99.01,128.45L90,126.06c-8.61-2.28-18.87-7.31-18.87-18.34c0-7.73,6.26-17.61,13.99-22.07
						c7.11-4.1,12.98,0.29,13.87,6.64c0.89-7.38,6.76-18.55,13.87-22.66c7.73-4.46,13.99-1.81,13.99,5.91
						c0,11.05-10.24,27.9-18.82,40.1L99.01,128.45z"/>
				</g>
			</g>
		</g>
	</g>
	<g>
		<g id="XMLID_16731_">
			<g id="XMLID_16767_">
				<path class="st7" d="M186.54,70.17c0-0.61-0.08-1.09-0.21-1.48l5.39-6.17l-6.9-3.88c-0.65-0.45-1.59-0.5-2.85,0.23l-11.99,6.95
					l-1.61,0.93c0.3-1.49,0.49-2.89,0.58-4.2c0.04-0.59,0.05-1.16,0.05-1.72l0.22,0.12l4.04-4.72l-6.84-3.85
					c-2.31-1.5-6.31,1.35-6.31,2.49c0,1.37,0.6,8.49,0.02,10.54c-0.6,2.03-6.76,16.12-6.76,16.12v0.95l0.02,28.43
					c0,0,19.56-11.31,22.5-13.01c2.96-1.72,5.01-5.36,5.01-7.83c0-2.03-0.6-3.22-0.6-3.22c1.91-1.1,3.82-5.09,3.82-6.79
					c0-2.56-0.88-3.22-0.88-3.22C185.28,75.12,186.54,72.2,186.54,70.17z"/>
			</g>
			<g id="XMLID_16744_">
				<polygon class="st1" points="160.5,114.91 153.39,110.8 153.36,81.43 160.48,85.54 				"/>
			</g>
			<g id="XMLID_16742_">
				<g id="XMLID_16743_">
					<path class="st6" d="M191.23,84.05c0,1.7-1.91,5.69-3.82,6.79c0,0,0.58,1.19,0.58,3.24c0.02,2.45-2.05,6.11-4.99,7.81
						c-2.94,1.7-22.5,13.01-22.5,13.01l-0.04-28.12v-1.24c0,0,6.18-14.09,6.76-16.14c0.6-2.03,0-9.16,0-10.52s5.58-5.09,7.35-1.19
						c1.77,3.89,1.93,7.88,0.89,13.06l13.6-7.86c2.87-1.66,4.04,0.72,4.04,2.57c0.02,2.64-1.45,4.94-2.19,5.86
						c0,0,2.71-0.81,2.71,2.84c0,2.05-1.24,4.97-3.31,6.67C190.34,80.83,191.23,81.51,191.23,84.05z"/>
				</g>
			</g>
			<g id="XMLID_16732_">
				<g id="XMLID_16741_">
					<polygon class="st6" points="147.44,126.41 157.27,120.74 157.24,86.56 147.44,92.23 					"/>
				</g>
			</g>
		</g>
		<g id="XMLID_16730_">
			<polygon class="st1" points="147.44,126.41 140.32,122.3 140.32,88.12 147.44,92.23 			"/>
		</g>
		<g id="XMLID_16729_">
			<polygon class="st0" points="150.13,82.45 157.24,86.56 147.44,92.23 140.32,88.12 			"/>
		</g>
		<g id="XMLID_16703_">
			<path class="st1" d="M167.23,69.4c-0.58,2.05-6.76,16.14-6.76,16.14l-7.11-4.01c0,0,6.16-14.09,6.76-16.12
				c0.58-2.05-0.02-9.17-0.02-10.54l7.13,4.01C167.23,60.24,167.83,67.37,167.23,69.4z"/>
		</g>
	</g>
</g>
<g id="Speech_bubble">
	<g>
		<g>
			<path class="st2" d="M415.48,114.11l-3.3-6.2l2.65-7.66v-4.69l-8.12,4.69v4.69l3.49,6.05c0.06,0.1,0.14,0.17,0.24,0.21l0,0
				L415.48,114.11z"/>
			<path class="st8" d="M415.48,114.11l-3.3-6.2l2.65-7.66v-4.69l-8.12,4.69v4.69l3.49,6.05c0.06,0.1,0.14,0.17,0.24,0.21l0,0
				L415.48,114.11z"/>
		</g>
		<g>
			<path class="st2" d="M396.64,84.98l22.38-12.95c1.34-0.78,3.53-0.78,4.87,0l1.98,1.14c1.35,0.78,2.44,2.67,2.44,4.22v18.12
				c0,1.55-1.09,3.44-2.44,4.22l-22.38,12.95c-1.35,0.78-3.53,0.78-4.87,0l-1.98-1.14c-1.34-0.78-2.44-2.67-2.44-4.22V89.2
				C394.21,87.65,395.3,85.76,396.64,84.98z"/>
			<path class="st9" d="M396.64,84.98l22.38-12.95c1.34-0.78,3.53-0.78,4.87,0l1.98,1.14c1.35,0.78,2.44,2.67,2.44,4.22v18.12
				c0,1.55-1.09,3.44-2.44,4.22l-22.38,12.95c-1.35,0.78-3.53,0.78-4.87,0l-1.98-1.14c-1.34-0.78-2.44-2.67-2.44-4.22V89.2
				C394.21,87.65,395.3,85.76,396.64,84.98z"/>
		</g>
		<path class="st2" d="M403.5,112.69c-1.35,0.78-2.44,0.15-2.44-1.41l0-18.12c0-1.55,1.09-3.44,2.44-4.22l22.38-12.95
			c1.35-0.78,2.44-0.15,2.44,1.41v18.12c0,1.55-1.09,3.44-2.44,4.22"/>
		<g>
			<path class="st2" d="M394.21,107.32c0,1.55,1.09,3.44,2.44,4.22l1.98,1.14c1.22,0.7,3.11,0.76,4.45,0.2
				c-1.15,0.43-2.02-0.21-2.02-1.6l0-18.12c0-0.78,0.27-1.64,0.71-2.4l-6.85-3.96c-0.44,0.76-0.71,1.62-0.71,2.4V107.32z"/>
			<path class="st8" d="M394.21,107.32c0,1.55,1.09,3.44,2.44,4.22l1.98,1.14c1.22,0.7,3.11,0.76,4.45,0.2
				c-1.15,0.43-2.02-0.21-2.02-1.6l0-18.12c0-0.78,0.27-1.64,0.71-2.4l-6.85-3.96c-0.44,0.76-0.71,1.62-0.71,2.4V107.32z"/>
		</g>
		<path class="st2" d="M411.8,107.88l3.49,6.05c0.22,0.39,0.8,0.33,0.94-0.09l3.69-10.65V98.5l-8.12,4.69V107.88z"/>
		<path class="st3" d="M414.7,101.69l-2.5-0.66c-2.38-0.63-5.22-2.02-5.22-5.08c0-2.14,1.73-4.87,3.87-6.11
			c1.97-1.14,3.59,0.08,3.84,1.84c0.25-2.04,1.87-5.13,3.84-6.27c2.14-1.23,3.87-0.5,3.87,1.64c0,3.06-2.83,7.72-5.21,11.1
			L414.7,101.69z"/>
	</g>
	<g>
		<g>
			<path class="st2" d="M84.1,161.7l22.38-12.95c1.35-0.78,3.53-0.78,4.87,0l1.98,1.15c1.35,0.78,2.44,2.67,2.44,4.22l0,18.12
				c0,1.55-1.09,3.44-2.44,4.22L90.96,189.4c-1.35,0.78-3.53,0.78-4.87,0l-1.98-1.14c-1.35-0.78-2.44-2.67-2.44-4.22v-18.12
				C81.66,164.36,82.75,162.47,84.1,161.7z"/>
			<path class="st9" d="M84.1,161.7l22.38-12.95c1.35-0.78,3.53-0.78,4.87,0l1.98,1.15c1.35,0.78,2.44,2.67,2.44,4.22l0,18.12
				c0,1.55-1.09,3.44-2.44,4.22L90.96,189.4c-1.35,0.78-3.53,0.78-4.87,0l-1.98-1.14c-1.35-0.78-2.44-2.67-2.44-4.22v-18.12
				C81.66,164.36,82.75,162.47,84.1,161.7z"/>
		</g>
		<g>
			<path class="st2" d="M102.93,190.83l-3.3-6.2l2.65-7.66v-4.69l-8.12,4.69v4.69l3.49,6.05c0.06,0.1,0.14,0.17,0.24,0.21l0,0
				L102.93,190.83z"/>
			<path class="st8" d="M102.93,190.83l-3.3-6.2l2.65-7.66v-4.69l-8.12,4.69v4.69l3.49,6.05c0.06,0.1,0.14,0.17,0.24,0.21l0,0
				L102.93,190.83z"/>
		</g>
		<path class="st2" d="M90.96,189.4c-1.35,0.78-2.44,0.15-2.44-1.41l0-18.12c0-1.55,1.09-3.44,2.44-4.22l22.38-12.95
			c1.35-0.78,2.44-0.15,2.44,1.41l0,18.12c0,1.55-1.09,3.44-2.44,4.22"/>
		<path class="st2" d="M81.66,184.04c0,1.55,1.09,3.44,2.44,4.22l1.98,1.14c1.22,0.7,3.11,0.76,4.46,0.2
			c-1.15,0.43-2.02-0.21-2.02-1.6l0-18.12c0-0.78,0.27-1.64,0.71-2.4l-6.85-3.96c-0.44,0.76-0.71,1.62-0.71,2.4V184.04z"/>
		<path class="st8" d="M81.66,184.04c0,1.55,1.09,3.44,2.44,4.22l1.98,1.14c1.22,0.7,3.11,0.76,4.46,0.2
			c-1.15,0.43-2.02-0.21-2.02-1.6l0-18.12c0-0.78,0.27-1.64,0.71-2.4l-6.85-3.96c-0.44,0.76-0.71,1.62-0.71,2.4V184.04z"/>
		<path class="st2" d="M99.26,184.59l3.49,6.05c0.22,0.39,0.8,0.33,0.94-0.09l3.69-10.65v-4.69l-8.12,4.69V184.59z"/>
		<path class="st3" d="M93.7,173.77c-1.27,0.73-2.29,2.51-2.29,3.97c0,1.46,1.03,2.05,2.29,1.32c1.27-0.73,2.29-2.51,2.29-3.97
			C95.99,173.63,94.96,173.04,93.7,173.77z"/>
		<path class="st3" d="M102.15,168.88c-1.27,0.73-2.29,2.51-2.29,3.97c0,1.46,1.03,2.05,2.29,1.32c1.27-0.73,2.29-2.51,2.29-3.97
			C104.44,168.74,103.41,168.15,102.15,168.88z"/>
		<path class="st3" d="M110.59,163.99c-1.27,0.73-2.29,2.51-2.29,3.97c0,1.46,1.03,2.05,2.29,1.32c1.27-0.73,2.29-2.51,2.29-3.97
			C112.88,163.85,111.86,163.26,110.59,163.99z"/>
	</g>
</g>
<g id="Devices">
	<g>
		<g>
			<g id="XMLID_16878_">
				<path class="st10" d="M321.41,30.43l-97.22,56.1c-2.39,1.38-4.33,4.74-4.33,7.5v215.19c0,2.76,1.94,3.88,4.33,2.5l97.22-56.1
					c2.39-1.38,4.33-4.74,4.33-7.5l0-215.19C325.74,30.17,323.8,29.05,321.41,30.43z"/>
			</g>
			<g id="XMLID_16877_">
				<path class="st11" d="M224.19,86.53l97.22-56.1c2.14-1.23,3.91-0.47,4.26,1.68c-0.33-2.58-2.1-5.44-4.26-6.68l-3.53-2.04
					c-2.39-1.38-6.27-1.38-8.66,0L212,79.5c-1.2,0.69-2.28,1.88-3.06,3.23l12.19,7.04C221.91,88.41,222.99,87.22,224.19,86.53z"/>
			</g>
			<g id="XMLID_16876_">
				<path class="st12" d="M207.67,302.18c0,2.76,1.94,6.12,4.33,7.5l3.53,2.04c2.16,1.25,5.53,1.36,7.92,0.35
					c-2.04,0.77-3.6-0.38-3.6-2.85V94.03c0-1.38,0.48-2.91,1.27-4.27l-12.19-7.04c-0.78,1.36-1.27,2.89-1.27,4.27L207.67,302.18z"/>
			</g>
			<g id="XMLID_16875_">
				<path class="st7" d="M226.52,113.33l92.56-53.41c1.44-0.83,2.6-0.16,2.6,1.5l0,162.91c0,1.66-1.16,3.67-2.6,4.5l-92.56,53.41
					c-1.43,0.83-2.6,0.16-2.6-1.5l0-162.91C223.92,116.17,225.08,114.16,226.52,113.33z"/>
			</g>
			<g>
				<g id="XMLID_16874_">
					<path class="st12" d="M271.82,66.83c-0.84,0.49-1.52,1.67-1.52,2.64c0,0.97,0.68,1.37,1.52,0.88c0.84-0.48,1.52-1.67,1.52-2.64
						C273.34,66.74,272.66,66.35,271.82,66.83z"/>
				</g>
				<g id="XMLID_16870_">
					<g id="XMLID_16872_">
						<path class="st12" d="M257.43,82.31c-1.68,0.97-3.05,3.33-3.05,5.28c0,1.94,1.36,2.73,3.05,1.76
							c1.68-0.97,3.05-3.33,3.05-5.28C260.48,82.13,259.11,81.34,257.43,82.31z"/>
					</g>
					<g id="XMLID_16871_">
						<path class="st12" d="M264.88,81.65c0,1.29,0.97,1.79,2.17,1.09l20.04-11.57c1.2-0.69,2.16-2.3,2.16-3.6
							c0-1.3-0.97-1.79-2.17-1.1l-20.04,11.57C265.85,78.75,264.88,80.36,264.88,81.65z"/>
					</g>
				</g>
			</g>
			<g id="XMLID_16869_">
				<path class="st10" d="M214.41,119.77c1.35,0.78,2.44,2.67,2.44,4.22c0,1.55-1.09,2.18-2.44,1.41c-1.35-0.78-2.44-2.67-2.44-4.22
					S213.07,118.99,214.41,119.77z"/>
			</g>
			<g id="XMLID_16868_">
				<path class="st10" d="M214.41,138.54c1.35,0.78,2.44,2.67,2.44,4.22s-1.09,2.18-2.44,1.41c-1.35-0.78-2.44-2.67-2.44-4.22
					C211.98,138.4,213.07,137.77,214.41,138.54z"/>
			</g>
			<g id="XMLID_16867_">
				<path class="st11" d="M213.66,120.14c1.35,0.78,2.44,2.67,2.44,4.22c0,1.55-1.09,2.18-2.44,1.41c-1.35-0.78-2.44-2.67-2.44-4.22
					C211.22,120,212.32,119.37,213.66,120.14z"/>
			</g>
			<g id="XMLID_16866_">
				<path class="st11" d="M213.66,138.92c1.35,0.78,2.44,2.67,2.44,4.22c0,1.55-1.09,2.18-2.44,1.41c-1.35-0.78-2.44-2.67-2.44-4.22
					S212.32,138.14,213.66,138.92z"/>
			</g>
		</g>
		<g>
			<path class="st12" d="M272.8,262.72c-3.32,1.92-6.01,6.58-6.01,10.42c0,3.83,2.69,5.39,6.01,3.47c3.32-1.92,6.01-6.58,6.01-10.42
				C278.81,262.35,276.12,260.8,272.8,262.72z"/>
			<g id="XMLID_16926_">
				<path class="st13" d="M245.71,279.91c-0.85,0-0.94-0.95-0.94-1.35l0-162.91c0-1.47,1.08-3.33,2.35-4.07l92.56-53.41
					c0.33-0.19,0.64-0.29,0.91-0.29c0.85,0,0.94,0.95,0.94,1.35l0,162.91c0,1.47-1.08,3.33-2.35,4.07l-92.56,53.41
					C246.29,279.81,245.98,279.91,245.71,279.91z"/>
			</g>
			<g id="XMLID_16920_">
				<path class="st14" d="M340.59,58.39c0.38,0,0.44,0.54,0.44,0.85l0,162.91c0,1.29-0.98,2.99-2.1,3.63l-92.56,53.41
					c-0.25,0.14-0.48,0.22-0.66,0.22c-0.38,0-0.44-0.54-0.44-0.85V115.65c0-1.29,0.98-2.99,2.1-3.63l92.56-53.41
					C340.18,58.46,340.41,58.39,340.59,58.39 M340.59,57.39c-0.35,0-0.74,0.11-1.16,0.35l-92.56,53.41c-1.43,0.83-2.6,2.84-2.6,4.5
					v162.91c0,1.17,0.59,1.85,1.44,1.85c0.35,0,0.74-0.11,1.16-0.35l92.56-53.41c1.43-0.83,2.6-2.84,2.6-4.5l0-162.91
					C342.03,58.07,341.44,57.39,340.59,57.39L340.59,57.39z"/>
			</g>
			<g>
				<path class="st2" d="M342.03,59.24c0-1.66-1.16-2.33-2.6-1.5l-92.56,53.41c-1.43,0.83-2.6,2.84-2.6,4.5v13.38l97.76-56.44V59.24
					z"/>
				<path class="st8" d="M342.03,59.24c0-1.66-1.16-2.33-2.6-1.5l-92.56,53.41c-1.43,0.83-2.6,2.84-2.6,4.5v13.38l97.76-56.44V59.24
					z"/>
			</g>
			<g id="XMLID_16930_">
				<path class="st3" d="M254.47,114.23c-0.25-0.14-0.61-0.09-1.01,0.14c-0.96,0.56-1.77,1.96-1.77,3.07c0,0.46,0.14,0.8,0.38,0.94
					c0.24,0.14,0.61,0.09,1.01-0.14c0.96-0.56,1.77-1.96,1.77-3.07C254.85,114.71,254.71,114.37,254.47,114.23z"/>
			</g>
			<g id="XMLID_16933_">
				<path class="st3" d="M256.58,110.82l-0.23,0.13v-0.46c0-0.63-0.44-0.89-0.99-0.57l-4.2,2.43c-0.55,0.32-0.99,1.08-0.99,1.71
					v0.45l-0.23,0.13c-0.73,0.42-1.32,1.44-1.32,2.28l0,4.09c0,0.84,0.59,1.18,1.32,0.76l6.63-3.83c0.73-0.42,1.32-1.44,1.32-2.28
					v-4.09C257.9,110.74,257.31,110.4,256.58,110.82z M253.46,118.9c-0.37,0.21-0.73,0.32-1.07,0.32c-0.25,0-0.49-0.06-0.7-0.18
					c-0.49-0.28-0.77-0.85-0.77-1.6c0-1.39,0.95-3.03,2.15-3.73c0.65-0.37,1.28-0.42,1.77-0.14c0.49,0.29,0.76,0.85,0.76,1.6
					C255.61,116.56,254.67,118.2,253.46,118.9z M256.5,113.47c-0.34,0.2-0.62,0.04-0.62-0.36c0-0.39,0.28-0.87,0.62-1.07
					c0.34-0.2,0.62-0.04,0.62,0.36C257.12,112.8,256.84,113.27,256.5,113.47z"/>
			</g>
			<path class="st3" d="M336.68,63.35l-6.47,3.74c-0.71,0.41-1.29,1.41-1.29,2.23v3.99c0,0.82,0.58,1.15,1.29,0.74l3.85-2.22
				l1.51,1.51c0.16,0.16,0.43,0.05,0.43-0.18v-2.45l0.69-0.4c0.71-0.41,1.29-1.41,1.29-2.23v-3.99
				C337.97,63.27,337.39,62.94,336.68,63.35z"/>
			<path class="st2" d="M256.73,126.62c3.38-1.92,6.12-0.36,6.12,3.5c0,3.86-2.74,8.57-6.12,10.52c-3.38,1.95-6.12,0.38-6.12-3.5
				C250.6,133.25,253.34,128.54,256.73,126.62z"/>
			<g id="XMLID_747_">
				<path class="st2" d="M268.91,121.91l20.31-11.73c1.2-0.69,2.17-0.2,2.17,1.1c0,1.3-0.97,2.91-2.17,3.6l-20.31,11.73
					c-1.2,0.69-2.16,0.2-2.16-1.1C266.75,124.21,267.72,122.6,268.91,121.91z"/>
			</g>
			<g id="XMLID_7_" class="st15">
				<path class="st3" d="M268.91,121.91l20.31-11.73c1.2-0.69,2.17-0.2,2.17,1.1c0,1.3-0.97,2.91-2.17,3.6l-20.31,11.73
					c-1.2,0.69-2.16,0.2-2.16-1.1C266.75,124.21,267.72,122.6,268.91,121.91z"/>
			</g>
			<g id="XMLID_749_">
				<path class="st2" d="M268.23,130.22l13.93-8.04c0.82-0.47,1.48-0.14,1.48,0.75c0,0.89-0.67,1.99-1.48,2.47l-13.93,8.04
					c-0.82,0.47-1.48,0.14-1.48-0.75C266.75,131.8,267.41,130.69,268.23,130.22z"/>
			</g>
			<g id="XMLID_8_" class="st15">
				<path class="st3" d="M268.23,130.22l13.93-8.04c0.82-0.47,1.48-0.14,1.48,0.75c0,0.89-0.67,1.99-1.48,2.47l-13.93,8.04
					c-0.82,0.47-1.48,0.14-1.48-0.75C266.75,131.8,267.41,130.69,268.23,130.22z"/>
			</g>
			<path class="st2" d="M256.73,231.76c3.38-1.92,6.12-0.36,6.12,3.5c0,3.86-2.74,8.57-6.12,10.52c-3.38,1.95-6.12,0.38-6.12-3.5
				C250.6,238.4,253.34,233.69,256.73,231.76z"/>
			<g id="XMLID_752_">
				<path class="st2" d="M268.91,227.06l20.31-11.73c1.2-0.69,2.17-0.2,2.17,1.1s-0.97,2.9-2.17,3.6l-20.31,11.73
					c-1.2,0.69-2.16,0.2-2.16-1.09C266.75,229.36,267.72,227.75,268.91,227.06z"/>
			</g>
			<g id="XMLID_9_" class="st15">
				<path class="st3" d="M268.91,227.06l20.31-11.73c1.2-0.69,2.17-0.2,2.17,1.1s-0.97,2.9-2.17,3.6l-20.31,11.73
					c-1.2,0.69-2.16,0.2-2.16-1.09C266.75,229.36,267.72,227.75,268.91,227.06z"/>
			</g>
			<g id="XMLID_751_">
				<path class="st2" d="M268.23,235.36l13.93-8.04c0.82-0.47,1.48-0.14,1.48,0.75c0,0.89-0.67,1.99-1.48,2.46l-13.93,8.04
					c-0.82,0.47-1.48,0.14-1.48-0.75C266.75,236.94,267.41,235.83,268.23,235.36z"/>
			</g>
			<g id="XMLID_10_" class="st15">
				<path class="st3" d="M268.23,235.36l13.93-8.04c0.82-0.47,1.48-0.14,1.48,0.75c0,0.89-0.67,1.99-1.48,2.46l-13.93,8.04
					c-0.82,0.47-1.48,0.14-1.48-0.75C266.75,236.94,267.41,235.83,268.23,235.36z"/>
			</g>
			<path class="st0" d="M254.83,146.46l76.91-44.4c1.2-0.69,2.17-0.13,2.17,1.25v76.82c0,1.38-0.97,3.06-2.16,3.76l-76.92,44.66
				c-1.19,0.69-2.16,0.14-2.16-1.25l0-77.08C252.66,148.83,253.63,147.15,254.83,146.46z"/>
			<g id="XMLID_754_">
				<path class="st2" d="M283.06,164.05c-1.08-1.25-2.59-1.08-3.36,0.39l-27.04,51.28l0,11.57c0,1.38,0.97,1.94,2.16,1.24
					l76.91-44.43c1.19-0.69,2.16-2.37,2.16-3.76v-25.61l-14.58-25.95c-0.81-1.44-1.94-1.36-2.53,0.19l-19.45,51.55L283.06,164.05z"
					/>
			</g>
			<g id="XMLID_5_" class="st16">
				<path class="st3" d="M283.06,164.05c-1.08-1.25-2.59-1.08-3.36,0.39l-27.04,51.28l0,11.57c0,1.38,0.97,1.94,2.16,1.24
					l76.91-44.43c1.19-0.69,2.16-2.37,2.16-3.76v-25.61l-14.58-25.95c-0.81-1.44-1.94-1.36-2.53,0.19l-19.45,51.55L283.06,164.05z"
					/>
			</g>
			<g id="XMLID_753_">
				<path class="st2" d="M260.78,167.24c6.79-3.89,12.29-13.36,12.29-21.17c0-3.98-1.43-6.74-3.73-7.98l-14.51,8.38
					c-1.2,0.69-2.17,2.37-2.17,3.75v18.14C254.83,169.3,257.66,169.02,260.78,167.24z"/>
			</g>
			<g id="XMLID_4_" class="st17">
				<path class="st3" d="M260.78,167.24c6.79-3.89,12.29-13.36,12.29-21.17c0-3.98-1.43-6.74-3.73-7.98l-14.51,8.38
					c-1.2,0.69-2.17,2.37-2.17,3.75v18.14C254.83,169.3,257.66,169.02,260.78,167.24z"/>
			</g>
			<g id="XMLID_750_">
				<path class="st2" d="M254.83,252l76.91-44.4c1.2-0.69,2.17-0.2,2.17,1.09c0,1.29-0.97,2.9-2.17,3.59l-76.91,44.4
					c-1.2,0.69-2.17,0.2-2.17-1.09C252.66,254.29,253.63,252.69,254.83,252z"/>
			</g>
			<g id="XMLID_11_" class="st17">
				<path class="st3" d="M254.83,252l76.91-44.4c1.2-0.69,2.17-0.2,2.17,1.09c0,1.29-0.97,2.9-2.17,3.59l-76.91,44.4
					c-1.2,0.69-2.17,0.2-2.17-1.09C252.66,254.29,253.63,252.69,254.83,252z"/>
			</g>
			<g id="XMLID_757_">
				<path class="st2" d="M254.83,261.38l76.91-44.4c1.2-0.69,2.17-0.2,2.17,1.09c0,1.29-0.97,2.9-2.17,3.59l-76.91,44.4
					c-1.2,0.69-2.17,0.2-2.17-1.1C252.66,263.68,253.63,262.07,254.83,261.38z"/>
			</g>
			<g id="XMLID_12_" class="st17">
				<path class="st3" d="M254.83,261.38l76.91-44.4c1.2-0.69,2.17-0.2,2.17,1.09c0,1.29-0.97,2.9-2.17,3.59l-76.91,44.4
					c-1.2,0.69-2.17,0.2-2.17-1.1C252.66,263.68,253.63,262.07,254.83,261.38z"/>
			</g>
			<path class="st7" d="M266.69,104.65l54.87-31.68c1.67-0.97,3.03-0.18,3.03,1.75v0.04c0,1.93-1.36,4.28-3.03,5.24l-54.86,31.54
				c-1.68,0.96-3.03,0.2-3.03-1.7C263.66,107.94,265.02,105.62,266.69,104.65z"/>
		</g>
	</g>
</g>
<g id="Character_4">
	<g>
		<polygon class="st5" points="427.9,164.68 431.79,171.81 425.74,177 420.19,168.21 		"/>
		<path class="st18" d="M413.3,148.79c3.86,0.04,8.11,1.44,9.57,4.47c1.46,3.02,6.03,12.45,6.03,12.45s-3.41,4.99-8.82,4.64
			L413.3,148.79z"/>
		<path class="st2" d="M427.6,172.92c1.13-2.1,1.41-2.2,2.08-2.66c0.67-0.46,4.8-1.08,6.51-1.22c2.01-0.17,2.73,0.2,2.17,1.93
			c-1.2,3.71-4.83,11.57-5.64,12.66c-0.53,0.71-0.64,1.37-2.91,1.59c-2.12,0.21-4.77,0.32-5.55,0.37c-0.78,0.05-1.86,0.24-1.16-2.06
			c0.7-2.3,2.35-6.03,3.09-7.63C427.06,174.02,427.6,172.92,427.6,172.92z"/>
		<path class="st12" d="M382.54,243.67c-0.96-0.49-1.57,0.73-2.44,1.71c-0.61,0.69-1.56,1.77-1.7,2.55
			c-0.21,1.16,0.83,2.98,1.99,3.98c1.16,1,2.5,1.72,2.92,3.93c0.42,2.2,1.28,3.51,3.56,4.5c2.5,1.08,5.85,0.73,6.99,0
			c1.35-0.87,0.12-1.82-1.77-4.52c-2.46-3.52-4.38-6.04-4.38-9.33L382.54,243.67z"/>
		<path class="st19" d="M384.51,240.78l-2.02,2.96c-0.88,1.28-0.6,3.07,0.68,3.95c0.02,0.01,0.04,0.03,0.06,0.04
			c1.23,0.8,2.88,0.48,3.87-0.6l3.16-3.44L384.51,240.78z"/>
		<path class="st10" d="M421.65,182.94c0.13,3.78-0.94,19.04-3.55,25.8c-2.61,6.75-4.12,10.95-4.94,12.36
			c-0.82,1.4-24.48,24.44-24.48,24.44s-4.01-0.29-4.65-4.19c0,0,9.69-16.48,11.79-19.86c2.1-3.38,9.53-8.56,9.53-8.56l-0.68-29.56
			L421.65,182.94z"/>
		<path class="st19" d="M386.6,179.26c0.05-0.66,2.02-8.12,3.02-11.57l7.33,2.52l-1.72,5.44l-6.45,6.67
			C386.62,181.89,386.56,179.92,386.6,179.26z"/>
		
			<rect x="415.54" y="255.48" transform="matrix(-0.9751 0.2218 -0.2218 -0.9751 883.2827 419.2362)" class="st19" width="5.13" height="7.47"/>
		<path class="st10" d="M421.65,182.94h-23.99c-0.21,2.66-0.79,4.15-0.9,10.57c-0.19,10.4,9.49,29.3,9.49,29.3
			c-0.12,1.41-0.72,7.33,0.63,12.59c2.12,8.29,7.9,22.31,7.9,22.31s3.62,0.52,5.42-1.58c0,0-3.2-28.47-4.06-35.76
			c-0.93-7.89-3.33-22.31-3.33-22.31s1.66-1.51,4.29-5.14C420.92,187.63,421.65,182.94,421.65,182.94"/>
		<path class="st20" d="M405.38,149.02c-4.6,1.11-10.87,2.55-12.69,7.53c-1.8,4.93-4.42,13.81-4.42,13.81
			c1.01,1.75,6.56,3.2,8.48,2.19l0.9-2.99v13.39c3.6,3.91,16.14,5.74,23.99,0c0,0,0-21.01,0-25c0-4-2.22-8.79-8.35-9.15
			L405.38,149.02z"/>
		<polygon class="st18" points="397.66,169.56 399.97,162.3 397.66,172.81 		"/>
		<g id="XMLID_16899_">
			<path class="st12" d="M403.65,128.57c0,0-1.27-0.22-2.26,0.79c-0.97,0.99-0.77,2.83,0,7.06l3,0.34L403.65,128.57z"/>
		</g>
		<g id="XMLID_16898_">
			<path class="st12" d="M421.16,127.35c0,0,1.21,0,1.88-0.38c0.92-0.53,1.16,0.52,0.66,1.43c-0.5,0.91-1.45,2.1-3.48,2.32
				c-0.03-0.13-0.86-2.34-0.86-2.34L421.16,127.35z"/>
		</g>
		<g id="XMLID_16897_">
			<path class="st19" d="M405.06,136.77c-0.45,0.27-1.08-0.59-1.63-1.17c-0.55-0.58-2.34-1.36-3.24,0.52
				c-0.91,1.92,1.16,4.48,2.37,5.32c1.44,1,2.5,0.22,2.5,0.22l0.32,7.35c0,0,1.59,3.9,5.91,4.49c4.32,0.58,3.43-2.97,2.01-4.72
				l-0.01-2.67c0,0,2.23,0.45,3.28,0.17c0.56-0.15,1.91-1.77,2.77-3.59c0.97-2.04,2.59-5.66,1.15-11.78
				c-1.55-6.58-8.62-6.78-12.83-4.13C403.46,129.44,405.06,136.77,405.06,136.77z"/>
		</g>
		<g id="XMLID_16896_">
			<path class="st12" d="M405.06,137.52c-0.22,0-1.08-1.41-1.63-1.92c-0.77-0.7,0.22-7.03,0.22-7.03s-0.78-2.4,0.74-4
				c1.52-1.59,4.46-1.32,6.62-1.4c2.24-0.08,4.64-0.22,7.7-1.54c3.06-1.33,3.29-1.49,3.66-0.14c0.38,1.34,0.52,4.42-1.3,6.48
				l-0.99,1.62c0,0-0.93,0.78-3.78,1.13c-2.85,0.35-7.71-1.18-8.32-1.27c-0.83-0.11-1,0.69-1.45,2.88
				C406.14,134.25,405.82,137.51,405.06,137.52z"/>
		</g>
		<g id="XMLID_16895_">
			<path class="st12" d="M403.66,129.07l-2.7-1.45c0.38-0.77,1.3-1.07,2.04-0.67C403.75,127.34,404.04,128.29,403.66,129.07z"/>
		</g>
		<g id="XMLID_16894_">
			<path class="st5" d="M413.29,146.12c0,0-4-0.81-5.39-1.55c-0.94-0.5-1.71-1.36-1.93-1.91c0,0,0.26,1.19,1.1,2.25
				c1.02,1.31,6.23,2.27,6.23,2.27V146.12z"/>
		</g>
		<g id="XMLID_16892_">
			<path class="st12" d="M413.42,136.63c0,0.46-0.36,0.83-0.8,0.83c-0.44,0-0.8-0.38-0.8-0.83c0-0.46,0.36-0.83,0.8-0.83
				C413.06,135.79,413.42,136.17,413.42,136.63z"/>
		</g>
		<g id="XMLID_16891_">
			<path class="st12" d="M412.57,133.6l-1.71,0.95c-0.25-0.49-0.07-1.1,0.4-1.36C411.73,132.92,412.32,133.11,412.57,133.6z"/>
		</g>
		<g id="XMLID_16890_">
			<path class="st5" d="M412.93,141.98l1.83,0.69c-0.18,0.52-0.74,0.8-1.24,0.61C413.01,143.08,412.75,142.5,412.93,141.98z"/>
		</g>
		<g id="XMLID_16889_">
			<path class="st12" d="M420.56,134.27l-1.56-1.2c0.32-0.45,0.93-0.54,1.36-0.21C420.79,133.19,420.88,133.82,420.56,134.27z"/>
		</g>
		<g id="XMLID_16888_">
			<path class="st12" d="M420.08,136.4c0,0.46-0.36,0.83-0.8,0.83c-0.44,0-0.8-0.38-0.8-0.83c0-0.46,0.36-0.83,0.8-0.83
				C419.72,135.57,420.08,135.94,420.08,136.4z"/>
		</g>
		<g id="XMLID_16887_">
			<polygon class="st5" points="416.31,136.3 415.56,141.07 418.19,140.76 			"/>
		</g>
		<path class="st12" d="M420.87,259.82l-0.16-0.71c0.53,0.1,2.77,3.83,5,5.45c2.44,1.77,4.56,2.82,5.65,3.62
			c1.46,1.07-0.65,3.26-4.24,3.46c-1.78,0.1-5.02-0.44-6.02-1.39c-1-0.95-1.72-2.52-2.51-3.2c-0.79-0.68-2.4-1.28-2.94-2.15
			c-0.3-0.48-0.34-1.67-0.31-2.69c0.03-0.94,0.06-1.97,0.38-1.95c0.03,0.11,0.12,0.54,0.12,0.54c0.46,0.32,1.88,0.73,3.04,0.67
			C419.72,261.41,421.29,261.22,420.87,259.82z"/>
		<path class="st12" d="M415.5,215.53c0,0-2.13-15.13-2.7-17.47c0,0,3.43-1.91,4.74-3.39c0,0-1.55,2.25-3.24,4.05L415.5,215.53z"/>
		<path class="st12" d="M402.65,215.03c0,0,2.56,6.37,3.59,7.78c0,0-0.26,4.86-0.22,5.84l-1.34,1.17c0,0-0.06-4.08,0.6-6.55
			C405.28,223.27,403.35,219.05,402.65,215.03z"/>
		<path class="st2" d="M399.48,212.47"/>
		<path class="st19" d="M395.24,175.65c0,0,20.18,2.16,22.54,1.43c2.37-0.73,5.55-3.1,7.26-4.08c1.71-0.98,2.94-1.06,2.94-0.65
			c0,0.41-1.46,2.64-1.8,3.57c-0.33,0.92,1.58,0.93,4.08,0.35c2.5-0.58,3.51-2.04,4.16-1.18c0.65,0.85-1.39,5.02-5.55,6.57
			c-4.16,1.55-7.25,0.53-10.68,0.67c-3.43,0.14-24.63,1.5-29.41,0c0,0-0.55-2.23,1.65-4.06
			C392.64,176.42,395.24,175.65,395.24,175.65z"/>
	</g>
</g>
<g id="Character_3">
	<g>
		<path class="st19" d="M283.42,272.04c0.05-0.66,1.28-7.66,2.12-11.57l8.23,2.52l-1.32,5.48l-6.85,6.62
			C283.44,274.67,283.38,272.7,283.42,272.04z"/>
		<path class="st12" d="M316.59,252.23h-26.27v-28.36c0-6.15,4.98-11.13,11.13-11.13h4c6.15,0,11.13,4.98,11.13,11.13V252.23z"/>
		<polygon class="st5" points="323.23,257.29 327.12,264.42 321.06,269.6 315.52,260.82 		"/>
		<path class="st11" d="M308.63,241.39c3.86,0.04,8.11,1.44,9.57,4.47c1.46,3.02,6.03,12.45,6.03,12.45s-3.41,4.99-8.82,4.64
			L308.63,241.39z"/>
		<path class="st12" d="M311.75,364.76c1.32,1.84,2.83,3.37,4.46,4.92c0.24,0.23,0.5,0.48,0.61,0.8c0.18,0.52,0.4,1.77-1.92,2.28
			c-2.26,0.5-4.95,0-6.79-1.47c-1.69-1.36-1.49-3.75-3.05-5.31c-1.16-1.16-2.72-1.61-3.6-3.04c-0.61-1-0.28-2.2,0.28-3.66
			c0.61-1.6,0.94-2.82,1.47-2.63l-0.18,0.75c0.55,1.17,4.03,1.9,5.69,1.34C308.71,358.73,310.89,363.56,311.75,364.76z"/>
		<path class="st19" d="M313.11,366.48c0,0,0-0.01,0-0.01c-0.47-0.55-0.93-1.11-1.36-1.71c-0.55-0.77-1.66-3.05-2.37-4.58
			c-0.43-0.93-0.51-1.98-0.22-2.96l1.14-3.85l-5.98-1.38l-1.3,5.39v0c-0.28,1.22,0.61,2.45,2.24,4.23c1.63,1.78,3.5,5.7,5.04,6.82
			c1.53,1.11,2.71,1.22,3.47,0.83C314.55,368.86,314.66,368.5,313.11,366.48z"/>
		<path class="st12" d="M295.61,368.15v-0.84c0.33,0.99,1.88,5.25,4.22,7.39c1.86,1.7,4.4,3.66,5.05,5.55
			c0.67,1.97-3.54,2.63-5.28,2.32c-2.02-0.36-4.64-1.51-6.06-3.25c-1-1.23-1.64-2.69-2.35-3.65c-0.71-0.97-2.36-2.05-2.75-3.17
			c-0.21-0.62,0.04-1.96,0.34-3.1c0.27-1.04,0.57-2.19,0.93-2.09c0,0.13,0,0.64,0,0.64c0.43,0.47,1.61,0.95,2.95,1
			C293.53,368.98,295.62,368.81,295.61,368.15z"/>
		<path class="st19" d="M301.52,376.19c-0.58-0.52-1.16-1.02-1.69-1.5c-1.64-1.49-2.88-4.03-3.6-5.75
			c-0.41-0.99-0.62-2.04-0.62-3.11v-3.37h-5.9v5.48l0,0v0v0.15l0.03,0.02c0.28,1.23,2.99,4.49,4.53,6.62
			c1.03,1.43,2.99,3.24,5.34,3.55C301.83,378.57,302.96,377.87,301.52,376.19z"/>
		<path class="st10" d="M290.88,276.39c-4.58,10,0.16,45.21,0.16,45.21c-0.14,1.62-1.99,4.81-2.68,11.96
			c-0.82,8.44,1.28,29.62,1.28,29.62s2.73,1.79,5.97,0.24c0,0,5.63-31.91,6.69-40.29c0.92-7.32,3.38-26.92,3.38-26.92l4.97,26.27
			c0,0-2.35,3.58-3.3,6.57c-1.19,3.7-3.6,24.85-3.6,24.85s2.24,2.36,6.1,1.79c0,0,11.55-28.98,12.07-34.92
			c0.31-3.55-4.87-45.82-4.87-45.82L290.88,276.39z"/>
		<path class="st12" d="M305.68,296.2l0.8-5.78c0,0,6.29-1.3,9.14-3.98c0,0-2.99,3.72-7.43,4.94l-0.84,5.58l1.05,12.93L305.68,296.2
			z"/>
		<path class="st11" d="M298.96,241.66L298.96,241.66c-3.5,0.84-6.28,3.24-7.75,6.34c-1.12,2.36-1.13,5.1-0.28,7.56l4.09,11.83
			c0,0-1.92,4.63-4.14,9c10.26,5.73,23.08,2.72,26.16-1.46c0.13-0.89-0.05-4.88,0.2-9.43c0.27-4.85,0.93-10.32,0.17-13.32
			c-1.42-5.56-4.07-10.79-9.34-10.79L298.96,241.66z"/>
		<path class="st11" d="M297.43,241.66c-3.5,0.5-8.64,1.2-10.42,9.53c-1.8,8.44-2.32,11.37-2.32,11.37s2.87,3.34,8.68,3.32l1.81-6.4
			L297.43,241.66z"/>
		<path class="st12" d="M299.42,248.68L299.42,248.68c-2.54,0-4.6-2.06-4.6-4.6v-13.4h4.6V248.68z"/>
		<path class="st19" d="M312.28,218.05c1.39,0.82,3.1,4.31,2.93,11.62c-0.14,6.2-2.15,7.73-3.16,8.17
			c-1.01,0.44-2.96,0.17-4.85-0.14v3.72c0,0,2.61,3.04,2.45,4.74c-0.17,1.71-3.78,2.11-6.22,0.44c-2.45-1.67-4.02-4.2-4.02-4.2
			v-8.99c0,0-1.28,1.71-3.37,0.32c-2.09-1.39-2.17-4.82-0.95-6.05c1.21-1.23,3.83-0.84,4.32,0.86c0,0,3.02,0.11,7.03-2.1
			C310.47,224.24,312.01,220.46,312.28,218.05z"/>
		<path class="st12" d="M308.29,228.12c0.02,0.45-0.31,0.83-0.74,0.85c-0.43,0.02-0.8-0.33-0.82-0.77
			c-0.02-0.45,0.31-0.83,0.74-0.85C307.9,227.33,308.27,227.67,308.29,228.12z"/>
		<path class="st5" d="M308.5,233.37l1.81,0.58c-0.15,0.52-0.68,0.81-1.18,0.65C308.63,234.44,308.35,233.89,308.5,233.37z"/>
		<path class="st12" d="M314.68,225.72l-1.58-1.09c0.29-0.45,0.87-0.57,1.31-0.27C314.85,224.66,314.97,225.27,314.68,225.72z"/>
		<path class="st12" d="M314.32,227.55c0.02,0.45-0.31,0.83-0.74,0.85c-0.43,0.02-0.8-0.33-0.82-0.77
			c-0.02-0.45,0.31-0.83,0.74-0.85C313.93,226.76,314.3,227.11,314.32,227.55z"/>
		<polygon class="st5" points="310.64,227.11 310.77,231.8 313.24,231.04 		"/>
		<path class="st5" d="M307.21,237.7c-1.99-0.26-6.09-1.44-6.73-3.06c0,0,0.21,1.02,1.44,2.07c1.22,1.05,5.3,2.23,5.3,2.23V237.7z"
			/>
		<path class="st2" d="M322.92,265.52c1.13-2.1,1.41-2.2,2.08-2.66c0.67-0.46,4.8-1.08,6.51-1.22c2.01-0.17,2.73,0.2,2.17,1.93
			c-1.2,3.71-4.83,11.57-5.64,12.66c-0.53,0.71-0.64,1.37-2.91,1.59c-2.12,0.21-4.77,0.32-5.55,0.37c-0.78,0.05-1.86,0.24-1.16-2.06
			c0.7-2.3,2.35-6.03,3.09-7.63C322.38,266.62,322.92,265.52,322.92,265.52z"/>
		<path class="st19" d="M292.45,268.48c0,0,18.29,1.93,20.65,1.2c2.37-0.74,5.55-3.1,7.26-4.08c1.71-0.98,2.94-1.06,2.94-0.65
			s-1.46,2.64-1.8,3.57c-0.33,0.92,1.58,0.93,4.08,0.35c2.5-0.58,3.51-2.04,4.16-1.18c0.65,0.85-1.39,5.02-5.55,6.57
			c-4.16,1.55-7.25,0.53-10.68,0.67c-3.43,0.14-23.14,1.68-27.92,0.18c0,0-0.55-2.23,1.65-4.06
			C289.46,269.2,292.45,268.48,292.45,268.48z"/>
		<path class="st10" d="M293.77,263.78c0,0,1.3-3.44,2.01-6.49c0,0-0.33,4.83-1.69,7.43L293.77,263.78z"/>
	</g>
</g>
<g id="Character_2">
	<g>
		<polygon class="st5" points="145.78,204.31 142.53,211.33 148.58,216.51 153.81,207.68 		"/>
		<path class="st10" d="M160.7,188.25c-3.86,0.04-8.11,1.44-9.57,4.47c-1.46,3.02-6.03,12.45-6.03,12.45s3.41,4.99,8.82,4.64
			L160.7,188.25z"/>
		<g id="XMLID_17030_">
			<rect x="172.1" y="299.64" class="st19" width="5.34" height="7.77"/>
		</g>
		<g id="XMLID_17029_">
			
				<rect x="153.47" y="290.11" transform="matrix(0.9994 -0.0344 0.0344 0.9994 -10.0229 5.5462)" class="st19" width="5.34" height="7.77"/>
		</g>
		<g id="XMLID_17028_">
			<path class="st10" d="M177.08,223.78c0,5.1,0.66,38.06,0.66,38.06c0.12,1.47,1.5,4.17,1.2,9.8c-0.4,7.65-1.06,28.9-1.06,28.9
				s-2.5,2.48-6.03,0c0,0-4.83-28.87-5.79-36.45c-0.83-6.62-2.25-24.59-2.25-24.59l-4.94,21.16c0,0,0.87,4.97,1.06,8.48
				s-0.91,23.78-0.91,23.78s-2.71,1.88-5.81,0.22c0,0-4.29-29.62-4.84-32.79c-0.55-3.17,3.75-36.57,3.75-36.57H177.08z"/>
		</g>
		<g id="XMLID_17027_">
			<path class="st11" d="M169.05,188.49c0.02,0.01,0.05,0.01,0.07,0.02c4.7,1.17,7.96,5.45,7.96,10.29v9.19v15.79
				c-3.74,4.07-16.79,5.97-24.96,0c0,0,0-21.85,0-26.01c0-4.16,2.31-9.15,8.69-9.52L169.05,188.49z"/>
		</g>
		<path class="st12" d="M170.85,167.22c0,0,1.32-0.23,2.35,0.83c1.01,1.03,0.8,2.95,0,7.34l-3.12,0.36L170.85,167.22z"/>
		<path class="st12" d="M152.64,165.95c0,0-1.26,0-1.95-0.4c-0.96-0.55-1.21,0.54-0.68,1.48c0.52,0.95,1.51,2.18,3.62,2.41
			c0.03-0.14,0.9-2.44,0.9-2.44L152.64,165.95z"/>
		<path class="st19" d="M169.38,175.75c0.46,0.28,1.13-0.61,1.7-1.21c0.57-0.6,2.44-1.42,3.37,0.55c0.95,2-1.21,4.66-2.47,5.54
			c-1.5,1.04-2.6,0.23-2.6,0.23l-0.33,7.65c0,0-1.66,4.06-6.15,4.67c-4.49,0.61-3.57-3.09-2.09-4.91l0.01-2.78
			c0,0-2.32,0.47-3.41,0.18c-0.59-0.16-1.98-1.85-2.88-3.73c-1.01-2.12-2.7-5.89-1.2-12.26c1.61-6.84,8.96-7.05,13.35-4.29
			C171.06,168.12,169.38,175.75,169.38,175.75z"/>
		<path class="st12" d="M169.38,176.53c0.23,0,1.12-1.47,1.7-1.99c0.8-0.73-0.23-7.32-0.23-7.32s0.81-2.5-0.77-4.16
			c-1.58-1.66-4.64-1.38-6.88-1.46c-2.33-0.08-4.83-0.22-8.01-1.61c-3.18-1.38-3.42-1.54-3.81-0.15c-0.39,1.4-0.54,4.6,1.35,6.74
			l1.58,0.58c0,0,0.85,0.76,3.82,1.12c2.97,0.36,7.59-0.07,8.22-0.16c0.86-0.12,1.04,0.72,1.51,2.99
			C168.26,173.13,168.6,176.52,169.38,176.53z"/>
		<path class="st12" d="M170.84,167.74l2.8-1.5c-0.4-0.8-1.35-1.12-2.12-0.7C170.75,165.95,170.45,166.93,170.84,167.74z"/>
		<path class="st5" d="M160.82,185.47c0,0,4.16-0.84,5.61-1.61c0.97-0.52,1.77-1.41,2.01-1.99c0,0-0.27,1.23-1.14,2.34
			c-1.06,1.36-6.48,2.36-6.48,2.36V185.47z"/>
		<path class="st12" d="M161.82,174.71c0,0.48,0.37,0.86,0.83,0.86c0.46,0,0.83-0.39,0.83-0.87s-0.37-0.86-0.83-0.86
			C162.19,173.85,161.82,174.24,161.82,174.71z"/>
		<path class="st12" d="M162.7,171.57l1.78,0.98c0.26-0.51,0.08-1.15-0.42-1.42C163.58,170.86,162.97,171.06,162.7,171.57z"/>
		<path class="st5" d="M161.88,180.36l-1.9,0.71c0.19,0.55,0.77,0.83,1.29,0.63C161.8,181.51,162.07,180.91,161.88,180.36z"/>
		<path class="st12" d="M154.39,172.26l1.63-1.25c-0.33-0.47-0.96-0.56-1.41-0.22C154.15,171.14,154.06,171.8,154.39,172.26z"/>
		<path class="st12" d="M154.89,174.48c0,0.48,0.37,0.86,0.83,0.86c0.46,0,0.83-0.39,0.83-0.87c0-0.48-0.37-0.86-0.83-0.86
			C155.26,173.61,154.89,174,154.89,174.48z"/>
		<polygon class="st5" points="159.14,173.69 158.86,178.7 156.25,177.8 		"/>
		<g id="XMLID_16997_">
			<path class="st12" d="M172.1,304.77v-0.76c-0.51,0.22-1.7,4.75-3.81,6.68c-1.68,1.54-3.98,3.31-4.56,5.02
				c-0.61,1.78,3.2,2.76,4.77,2.48c1.83-0.32,4.99-1.61,5.79-2.8c0.79-1.19,1.17-2.95,1.81-3.83c0.65-0.87,2.13-1.85,2.48-2.86
				c0.19-0.56-0.04-1.77-0.31-2.8c-0.25-0.94-0.52-1.98-0.84-1.89c0,0.12,0,0.58,0,0.58c-0.39,0.43-1.46,0.85-2.67,0.9
				C173.99,305.52,172.09,305.37,172.1,304.77z"/>
		</g>
		<g id="XMLID_16996_">
			<path class="st12" d="M153.55,296.32c-0.28,0.01-0.5,0.4-1.11,1.06c-0.74,0.8-1.95,1.66-3.14,2.26c-2,1-5.88,2.54-7.64,3.33
				c-1.1,0.5-1.05,1.82,0.09,2.58c1.14,0.75,3.88,1.3,7.17,0.56c1.79-0.4,4.13-2.06,5.6-1.97c1.48,0.09,4.24,0.07,5.33-0.68
				c1.09-0.75,0.65-2.36,0.35-3.74c-0.34-1.5-0.82-3.81-1.32-3.71l0.02,0.47c-0.64,0.97-3.91,1.37-5.32,0.65L153.55,296.32z"/>
		</g>
		<path class="st2" d="M146.41,212.39c-1.13-2.1-1.41-2.2-2.08-2.66c-0.67-0.46-4.8-1.08-6.51-1.22c-2.01-0.17-2.73,0.2-2.17,1.93
			c1.2,3.71,4.83,11.57,5.64,12.66c0.53,0.71,0.64,1.37,2.91,1.59c2.11,0.21,4.77,0.32,5.55,0.37c0.78,0.05,1.86,0.24,1.16-2.06
			c-0.7-2.3-2.35-6.03-3.09-7.63C146.95,213.48,146.41,212.39,146.41,212.39z"/>
		<path class="st19" d="M187.4,218.73c-0.05-0.66-2.02-8.12-3.02-11.57l-7.33,2.52l1.72,5.44l6.45,6.67
			C187.39,221.35,187.44,219.38,187.4,218.73z"/>
		<path class="st19" d="M178.77,215.11c0,0-20.18,2.16-22.54,1.43c-2.37-0.73-5.55-3.1-7.26-4.08c-1.71-0.98-2.94-1.06-2.94-0.65
			c0,0.41,1.46,2.64,1.8,3.57c0.33,0.92-1.58,0.93-4.08,0.35c-2.5-0.58-3.51-2.04-4.16-1.18c-0.65,0.85,1.39,5.02,5.55,6.57
			c4.16,1.55,7.25,0.53,10.68,0.67c3.43,0.14,24.63,1.5,29.41,0c0,0,0.55-2.23-1.65-4.06S178.77,215.11,178.77,215.11z"/>
		<path class="st11" d="M170.74,189.06c3.17,1.04,9.46,1.58,11.48,8.44c2.03,6.86,3.05,11.31,3.05,11.31
			c-1.19,1.59-5.95,3.44-8.19,2.76L170.74,189.06z"/>
		<polygon class="st10" points="177.08,211.57 174.91,203.87 177.08,214.71 		"/>
	</g>
</g>
<g id="Character_1">
	<g>
		<g>
			<path class="st2" d="M131.56,227.75c-0.09,0.14-0.95,1.54-0.95,1.54l-3.91,5.6l-3.81,5.71c-0.24,0.37-0.69,0.53-1.11,0.39
				c-0.08-0.03-0.17-0.05-0.26-0.09c-1.32-0.49-3.3-1.31-5.93-2.53c-2.11-0.98-2.02-1.29-2.02-1.65c0-0.04-0.03-0.69,0.04-0.86
				c0-0.01,0-0.01,0-0.02h0.01c0.43-0.82,1.76-2.87,3.55-5.46c3.18-4.62,4.71-6.67,5.67-8.01c0.22-0.32,0.61-0.54,1.25-0.33
				c1.71,0.57,5.18,2.06,6.96,2.8c0.02,0.01,0.05,0.03,0.08,0.05C132.11,225.4,131.57,227.71,131.56,227.75z"/>
			<g>
				<path class="st2" d="M131.66,227.57c-0.01,0.04-1.05,1.72-1.05,1.72l-3.77,5.74l-3.95,5.57c-0.24,0.37-0.69,0.53-1.11,0.39
					c-0.08-0.03-0.17-0.05-0.26-0.09c-1.32-0.49-3.3-1.31-5.93-2.53c-2.11-0.98-2.02-1.29-2.02-1.65c0-0.04-0.03-0.69,0.04-0.86
					c0-0.01,0-0.01,0-0.02h0.01c2.02,0.88,8.33,3.89,8.54,3.78c0.51-0.24,4.79-7.12,7.07-10.63c1.14-1.75,1.66-2.49,2.03-3.09
					c0.35-0.56,0.04-0.88-0.14-1c-0.03-0.02-0.05-0.04-0.08-0.05c0.55,0.23,0.71,0.75,0.85,1.2
					C132.03,226.5,132.11,226.83,131.66,227.57z"/>
				<path class="st8" d="M131.66,227.57c-0.01,0.04-1.05,1.72-1.05,1.72l-3.77,5.74l-3.95,5.57c-0.24,0.37-0.69,0.53-1.11,0.39
					c-0.08-0.03-0.17-0.05-0.26-0.09c-1.32-0.49-3.3-1.31-5.93-2.53c-2.11-0.98-2.02-1.29-2.02-1.65c0-0.04-0.03-0.69,0.04-0.86
					c0-0.01,0-0.01,0-0.02h0.01c2.02,0.88,8.33,3.89,8.54,3.78c0.51-0.24,4.79-7.12,7.07-10.63c1.14-1.75,1.66-2.49,2.03-3.09
					c0.35-0.56,0.04-0.88-0.14-1c-0.03-0.02-0.05-0.04-0.08-0.05c0.55,0.23,0.71,0.75,0.85,1.2
					C132.03,226.5,132.11,226.83,131.66,227.57z"/>
			</g>
			<polygon class="st7" points="122.85,223.71 129.87,226.65 122.39,237.77 115.41,234.55 			"/>
		</g>
		<path class="st19" d="M120.88,262.46c1.92-0.55,4.82-7.69,7.03-15.78c2.21-8.09,3.33-9.9,3.4-12.45c0.08-2.55-0.11-5.9-0.11-5.9
			l-3.79,5.55c0,0-0.15-1.41-0.96-3.08c-0.49-1-1.4-1.79-2.15-1.19c-0.4,0.32,0.65,1.69,0.43,4.75c-0.13,1.82,0.23,3.67,0.23,3.67
			l-7.06,17.1L120.88,262.46z"/>
		<path class="st5" d="M92.47,226.97c-2.23-0.63-4.11,0.56-5.17,4.11c-1.44,4.87-3.11,12.91-4.01,20.37
			c-0.3,2.47-0.64,5.47,1.72,5.71c1.8,0.18,6.97-0.82,7.9-1.72c1.23-1.18,0.98-5.94,0.98-5.94h-2.66c0,0,0.58-3.76,0.75-4.89
			c0.6-3.84,1.49-8.66,1.49-8.66L92.47,226.97z"/>
		<polygon class="st19" points="105.56,223.49 104.65,231.5 96.75,232.42 97.89,221.79 		"/>
		<path class="st12" d="M88.65,211.8c0.65-7.4,4.66-10.44,7.76-11.17c6.26-1.47,12.44,0.63,14.96,5.01c0.67,1.16,1.6,5,0,8.66
			C110.02,217.4,88.65,211.8,88.65,211.8"/>
		<path class="st19" d="M111.8,215.78c0,0,1.13,3.06,0.83,3.28c-0.29,0.23-1.48,0.26-1.48,0.26L111.8,215.78z"/>
		<path class="st19" d="M108.43,206.14c1.49,1.28,4.05,3.59,3.33,10.03c-0.74,6.61-2.34,8.4-3.42,9.04
			c-0.73,0.43-3.91-0.32-5.39-1.18c-1.85-1.09-5.92-3.9-7.17-7.69c-1.46-4.46-0.73-9.78,2.5-11.17
			C102.82,203.2,107.16,205.06,108.43,206.14z"/>
		<path class="st12" d="M110.27,206.31c0,0,0.47,5.21-4.23,9.28c0,0-0.93-2.41-2.99-1.85c-2.07,0.56-2.04,3.28-0.52,4.76
			c1.52,1.48,3.11,0.85,3.11,0.85s-0.37,3.07-2.53,5.03c0,0-6.75,1.96-11.79-4.1c-4.58-5.49-3.22-14.2,3.92-16.77
			C104.48,200.18,110.27,206.31,110.27,206.31z"/>
		<path class="st12" d="M95.8,343.98l3.41,4.74c0,0-1.58,0.93-4.95,1.05c-3.05,0.12-3.89-0.88-4-1.13c-0.51-1.1,0.29-3.1,0.51-4.81
			L95.8,343.98z"/>
		<path class="st12" d="M99.02,346.45c0,0,4.13-0.26,6.99-0.62c2.86-0.36,5.12,1.03,4.45,2.21c-0.67,1.18-2.24,2.15-4.69,2.98
			c-2.1,0.71-4.61,1.22-6.8,1.88c-2.24,0.67-3.68,1.44-4.95,1c-1.42-0.49-2.03-1.06-1.91-2.09c0.12-1.03,1.15-4.36,1.15-4.36
			L99.02,346.45z"/>
		<path class="st5" d="M90.26,339.22c0,0,0.52,4.3,0.56,5.23c0.04,0.92,4.2,1.22,4.99-0.47l0.13-5.26L90.26,339.22z"/>
		<path class="st19" d="M94.45,341.87l-1.49,6.53c0,0-0.14,0.8,3.26,1.3c3.4,0.51,8.73-1.78,9.64-2.24c0.91-0.46,1.02-1.39-2.32-1.2
			c-3.34,0.19-4.52,0.19-4.52,0.19l1.08-2.89L94.45,341.87z"/>
		<path class="st11" d="M90.26,254.45c-2.85,4.43-5.55,8.33-6.13,13.31c-1.22,10.52,2.78,22.54,3.63,30.32c0,0-2.69,3.49-2.68,7.6
			c0,3.21,5.18,33.55,5.18,33.55s3.77,1.15,5.67-0.5l3.56-55.8l-1.88-6.79L90.26,254.45z"/>
		<path class="st10" d="M99.5,282.92l-1.88-6.79c0,0-5.2-1.26-10.17-4.03c0,0,1.92,3.5,7.44,5.41l2.87,8.73l0.25,19.98L99.5,282.92z
			"/>
		<path class="st11" d="M90.26,254.45c-1.52,2.49-5.17,6.74-4.39,10.82c0.94,4.95,3.6,8.43,11.75,10.85l7.64,27.68
			c0,0-3.98,3.72-5.2,7.27c-1.22,3.54-5.61,30.8-5.61,30.8s1.36,2.22,5.65,1.68c0,0,14.97-34.19,16.02-36.39
			c1.06-2.2,1.74-3.85,1.27-7.43c-0.48-3.58-5.58-42.8-5.58-42.8L90.26,254.45z"/>
		<path class="st7" d="M88.87,229.48c0.6-1.57,2.48-2.88,4.17-2.42c5.33,1.45,13.62,3.36,15.19,3.82h0c0,0-0.71,10.27,5.43,13.89
			c-0.29,2.29-1.85,12.16-1.85,12.16s-7.38,3.58-13.45,1.81c-6.07-1.76-8.11-4.3-8.11-4.3l3.04-4.95
			c-0.65-1.61-3.16-7.07-4.78-12.15C87.75,234.94,88.27,231.05,88.87,229.48z"/>
		<path class="st18" d="M92.47,247.55c0.08,0.18,6.11,3.41,7.91,3.91c-2.83-0.14-5.18-0.8-7.08-1.96L92.47,247.55z"/>
		<path class="st18" d="M113.49,243.98c0,0-3.46-1.44-5.11-4.8c0,0,0.24,4.93,5.11,7.92V243.98z"/>
		<path class="st19" d="M108.24,230.88c3.35,1,5.43,1.32,7.24,2.94c2.38,2.13,4.84,14.24,5.34,16.74c0.87,4.33,1.83,8.84,0.89,10.85
			c-0.68,1.46-4.37,2.55-6-2.17c-0.35-1.01-0.41-1.45-0.72-2.36c-1.52-4.52-3.82-13.16-3.82-13.16S106.64,241.22,108.24,230.88z"/>
		<path class="st12" d="M91.98,203.47c-1.2,0.69-3.35,1.36-4.68,7.6c-1.33,6.25-1.97,13.95-1.93,15.89
			c0.05,1.95,4.07,7.34,12.55,6.82c8.48-0.52,11.56-5.48,11.56-5.48s-4.16-1.7-3.84-8.96c0,0-1.46,2.89-5.5,1.45
			C96.12,219.35,91.98,203.47,91.98,203.47z"/>
	</g>
</g>
</svg>
