<?xml version="1.0" encoding="utf-8"?>
<!-- Generator: Adobe Illustrator 23.1.0, SVG Export Plug-In . SVG Version: 6.00 Build 0)  -->
<svg version="1.1" xmlns="http://www.w3.org/2000/svg" xmlns:xlink="http://www.w3.org/1999/xlink" x="0px" y="0px"
	 viewBox="0 0 447.63 391.47" style="enable-background:new 0 0 447.63 391.47;" xml:space="preserve">
<style type="text/css">
	.st0{display:none;}
	.st1{display:inline;fill:#FFFFFF;}
	.st2{fill:#CCCCFF;}
	.st3{fill:#B6B6EF;}
	.st4{fill:#9B9BDD;}
	.st5{fill:#161642;}
	.st6{fill:#FFFFFF;}
	.st7{fill:#E3E3FF;}
	.st8{fill:#2A3554;}
	.st9{fill:#5F46F1;}
	.st10{fill:#8380F9;}
	.st11{font-family:'Montserrat-Black';}
	.st12{font-size:76.0486px;}
	.st13{fill:#445279;}
	.st14{fill:#3C3CC2;}
	.st15{fill:#F8AE81;}
	.st16{fill:#FA8465;}
	.st17{fill:#FA664D;}
	.st18{opacity:0.5;}
	.st19{opacity:0.4;}
	.st20{opacity:0.4;fill:#8380F9;}
	.st21{display:inline;}
	.st22{fill:#112129;}
</style>
<g id="BACKGROUND" class="st0">
	<rect x="-22.7" y="-67.58" class="st1" width="500" height="500"/>
</g>
<g id="OBJECTS">
	<ellipse class="st2" cx="221.25" cy="335.62" rx="221.25" ry="14"/>
	<g>
		<path class="st2" d="M411.16,33.07c0,1.2-0.49,2.29-1.28,3.08c-0.78,0.8-1.88,1.28-3.07,1.28h-93.24c-2.39,0-4.36-1.96-4.36-4.36
			c0-1.2,0.49-2.29,1.28-3.08c0.78-0.8,1.88-1.28,3.07-1.28h4.41c1.74-4.04,5.76-6.87,10.44-6.87c3.15,0,6,1.28,8.06,3.35
			c2.75-4.66,7.81-7.79,13.61-7.79c1.59,0,3.13,0.24,4.58,0.68c3.03-5.7,9.03-9.59,15.94-9.59c8.3,0,15.28,5.6,17.39,13.23
			c1.53-0.76,3.25-1.2,5.09-1.2c5.18,0,9.54,3.46,10.92,8.19h2.81C409.19,28.7,411.16,30.67,411.16,33.07z"/>
		<path class="st2" d="M122.95,30.72c0,1.2-0.49,2.29-1.28,3.08c-0.79,0.79-1.88,1.28-3.07,1.28H25.35c-2.39,0-4.36-1.96-4.36-4.36
			c0-1.2,0.49-2.29,1.28-3.08c0.78-0.8,1.88-1.28,3.07-1.28h4.41c1.74-4.04,5.76-6.87,10.44-6.87c3.15,0,6,1.28,8.06,3.35
			c2.75-4.66,7.81-7.79,13.61-7.79c1.59,0,3.13,0.24,4.58,0.68c3.03-5.7,9.03-9.59,15.94-9.59c8.3,0,15.28,5.6,17.39,13.23
			c1.53-0.76,3.25-1.2,5.09-1.2c5.18,0,9.54,3.46,10.92,8.19h2.81C120.99,26.36,122.95,28.32,122.95,30.72z"/>
		<path class="st2" d="M234.4,46.86c0,1.05-0.43,2-1.12,2.69c-0.69,0.69-1.64,1.12-2.68,1.12h-81.44c-2.09,0-3.81-1.71-3.81-3.81
			c0-1.05,0.43-2,1.12-2.69c0.69-0.69,1.64-1.12,2.68-1.12H153c1.52-3.53,5.03-6,9.12-6c2.75,0,5.24,1.12,7.04,2.93
			c2.4-4.07,6.82-6.8,11.89-6.8c1.39,0,2.73,0.21,4,0.59c2.65-4.98,7.89-8.38,13.93-8.38c7.25,0,13.35,4.9,15.19,11.56
			c1.34-0.67,2.84-1.05,4.44-1.05c4.52,0,8.34,3.02,9.54,7.15h2.45C232.69,43.05,234.4,44.76,234.4,46.86z"/>
	</g>
	<g>
		<g>
			<g>
				<path class="st3" d="M380.48,145.65l2.29,0.42l1.22,0.22l3.45,0.63c0,0,43.65-46.51,27.8-68.45
					c-4.88-6.75-16.53-4.69-19.75,20.58C392.52,122.49,380.48,145.65,380.48,145.65z"/>
				<g>
					<path class="st4" d="M382.78,146.07l1.22,0.22c8.44-11.75,14.36-25.08,17.95-34.56c4.26-11.26,6.24-19.69,6.25-19.77
						c0.07-0.3-0.12-0.6-0.42-0.67c-0.3-0.07-0.6,0.12-0.67,0.42c-0.02,0.08-1.98,8.45-6.22,19.65
						C397.28,120.88,391.3,134.32,382.78,146.07z"/>
				</g>
			</g>
			<g>
				<path class="st2" d="M359.96,168.72l2.74,1.98l1.45,1.05l4.11,2.97c0,0,86.02-33.6,78.96-72.14
					c-2.17-11.87-18.69-16.42-38.63,14.6C390.11,145.94,359.96,168.72,359.96,168.72z"/>
				<g>
					<path class="st3" d="M362.69,170.7l1.45,1.05c18.35-10.1,34.39-23.83,44.98-33.99c12.58-12.07,20.41-21.85,20.49-21.95
						c0.28-0.35,0.22-0.86-0.13-1.14c-0.35-0.28-0.86-0.22-1.14,0.13c-0.08,0.1-7.86,9.81-20.37,21.81
						C397.34,146.82,381.16,160.65,362.69,170.7z"/>
				</g>
			</g>
		</g>
		<g>
			<g>
				<path class="st3" d="M67.89,231.65l-2.29,0.42l-1.22,0.22l-3.45,0.63c0,0-43.65-46.51-27.8-68.45
					c4.88-6.75,16.53-4.69,19.75,20.58C55.86,208.48,67.89,231.65,67.89,231.65z"/>
				<g>
					<path class="st4" d="M65.6,232.07l-1.22,0.22c-8.44-11.75-14.36-25.08-17.95-34.56c-4.26-11.26-6.24-19.69-6.25-19.77
						c-0.07-0.3,0.12-0.6,0.42-0.67c0.3-0.07,0.6,0.12,0.67,0.42c0.02,0.08,1.98,8.45,6.22,19.65
						C51.09,206.88,57.07,220.32,65.6,232.07z"/>
				</g>
			</g>
			<g>
				<path class="st2" d="M88.42,254.72l-2.74,1.98l-1.45,1.05l-4.11,2.97c0,0-86.02-33.6-78.96-72.14
					c2.17-11.87,18.69-16.42,38.63,14.6C58.27,231.94,88.42,254.72,88.42,254.72z"/>
				<g>
					<path class="st3" d="M85.68,256.7l-1.45,1.05c-18.35-10.1-34.39-23.83-44.98-33.99c-12.58-12.07-20.41-21.85-20.49-21.95
						c-0.28-0.35-0.22-0.86,0.13-1.14c0.35-0.28,0.86-0.22,1.14,0.13c0.08,0.1,7.86,9.81,20.36,21.81
						C51.04,232.81,67.22,246.65,85.68,256.7z"/>
				</g>
			</g>
		</g>
		<g>
			<g>
				<path class="st3" d="M157.49,121.94c-15.53-12.39-28.02-23.91-37.2-34.3c-11.99-13.57-18.3-25.25-18.75-34.7
					c-0.03-0.63,0.45-1.16,1.08-1.19c0.63-0.03,1.16,0.45,1.19,1.08c0.79,16.53,21.22,40.88,59.11,70.5L157.49,121.94z"/>
			</g>
			<path class="st2" d="M110.62,74.65c0,0-6.42,7-18.28-4.77C92.33,69.88,105.2,61.95,110.62,74.65z"/>
			<path class="st2" d="M116.42,81.03c0,0-7.35-6.02,3.74-18.52C120.16,62.51,128.79,74.91,116.42,81.03z"/>
			<path class="st2" d="M104.03,59.87c0,0-8.93-3.23-2.65-18.71C101.39,41.16,113.66,49.98,104.03,59.87z"/>
			<path class="st2" d="M127.7,94.23c0,0-3.67,8.76-18.82,1.7C108.88,95.93,118.3,84.12,127.7,94.23z"/>
			<path class="st2" d="M134.59,99.84c0,0-8.28-4.66,0.48-18.89C135.08,80.95,145.72,91.67,134.59,99.84z"/>
			<path class="st2" d="M143.27,108.45c0,0-3.51,8.83-18.78,2.05C124.49,110.51,133.69,98.52,143.27,108.45z"/>
		</g>
	</g>
	<g>
		<g>
			<g>
				<path class="st5" d="M397.04,117.88v183.53c0,7.57-6.13,13.7-13.7,13.7H70.56c-7.57,0-13.7-6.13-13.7-13.7V117.88
					c0-7.57,6.13-13.7,13.7-13.7h312.78C390.91,104.18,397.04,110.32,397.04,117.88z"/>
				<path class="st6" d="M381.93,127.21v164.87c0,4.85-3.93,8.79-8.78,8.79H80.75c-2.05,0-3.93-0.7-5.43-1.88
					c-0.4-0.31-0.77-0.66-1.1-1.03c-1.4-1.55-2.25-3.61-2.25-5.87V127.21c0-4.85,3.94-8.79,8.79-8.79h292.39
					c1.62,0,3.14,0.44,4.44,1.21c1.23,0.72,2.26,1.73,3.01,2.93C381.45,123.92,381.93,125.51,381.93,127.21z"/>
				<g>
					<g>
						<g>
							<g>
								<rect x="135.5" y="154.13" class="st7" width="187.76" height="106.53"/>
								<rect x="135.5" y="154.13" class="st8" width="187.76" height="9.15"/>
								<g>
									<path class="st9" d="M305.6,158.7c0,1.05-0.85,1.9-1.9,1.9c-1.05,0-1.9-0.85-1.9-1.9c0-1.05,0.85-1.9,1.9-1.9
										C304.75,156.8,305.6,157.65,305.6,158.7z"/>
									<path class="st9" d="M311.75,158.7c0,1.05-0.85,1.9-1.9,1.9c-1.05,0-1.9-0.85-1.9-1.9c0-1.05,0.85-1.9,1.9-1.9
										C310.9,156.8,311.75,157.65,311.75,158.7z"/>
									<path class="st10" d="M317.6,158.7c0,1.05-0.85,1.9-1.9,1.9c-1.05,0-1.9-0.85-1.9-1.9c0-1.05,0.85-1.9,1.9-1.9
										C316.75,156.8,317.6,157.65,317.6,158.7z"/>
								</g>
							</g>
						</g>
					</g>
					<g>
						<g>
							<g>
								<path class="st8" d="M156.62,254.03c-0.25,0-0.45-0.2-0.45-0.45v-84.13c0-0.25,0.2-0.45,0.45-0.45
									c0.25,0,0.45,0.2,0.45,0.45v84.13C157.07,253.83,156.87,254.03,156.62,254.03z"/>
							</g>
						</g>
						<path class="st8" d="M157.96,169.66c0,0.75-0.61,1.36-1.36,1.36c-0.75,0-1.36-0.61-1.36-1.36c0-0.75,0.61-1.36,1.36-1.36
							C157.35,168.3,157.96,168.91,157.96,169.66z"/>
						<path class="st8" d="M157.96,253.58c0,0.75-0.61,1.36-1.36,1.36c-0.75,0-1.36-0.61-1.36-1.36c0-0.75,0.61-1.36,1.36-1.36
							C157.35,252.22,157.96,252.83,157.96,253.58z"/>
					</g>
					<g>
						<g>
							<path class="st8" d="M301.83,254.03c-0.25,0-0.45-0.2-0.45-0.45v-84.13c0-0.25,0.2-0.45,0.45-0.45c0.25,0,0.45,0.2,0.45,0.45
								v84.13C302.27,253.83,302.07,254.03,301.83,254.03z"/>
						</g>
						<path class="st8" d="M303.16,169.66c0,0.75-0.61,1.36-1.36,1.36c-0.75,0-1.36-0.61-1.36-1.36c0-0.75,0.61-1.36,1.36-1.36
							C302.56,168.3,303.16,168.91,303.16,169.66z"/>
						<path class="st8" d="M303.16,253.58c0,0.75-0.61,1.36-1.36,1.36c-0.75,0-1.36-0.61-1.36-1.36c0-0.75,0.61-1.36,1.36-1.36
							C302.56,252.22,303.16,252.83,303.16,253.58z"/>
					</g>
					<text transform="matrix(1 0 0 1 172.9922 237.6752)" class="st8 st11 st12">Aa</text>
				</g>
				<g>
					<rect x="92.53" y="154.13" class="st7" width="23.39" height="105.96"/>
					<rect x="92.53" y="154.13" class="st8" width="23.39" height="7.03"/>
				</g>
				<g>
					<rect x="339.17" y="207.96" class="st7" width="23.39" height="52.13"/>
					<rect x="339.17" y="207.96" class="st8" width="23.39" height="7.48"/>
				</g>
				<g>
					<rect x="339.71" y="154.49" class="st7" width="23.39" height="30.39"/>
					<rect x="339.71" y="154.49" class="st8" width="23.39" height="7.48"/>
				</g>
			</g>
			<path class="st8" d="M428.82,307.78v1.17c0,5.84-1.87,11.24-5.05,15.63c-4.85,6.71-12.74,11.07-21.65,11.07H51.78
				c-8.91,0-16.8-4.36-21.65-11.07c-3.18-4.39-5.05-9.79-5.05-15.63v-1.17H428.82z"/>
			<path class="st13" d="M181.7,307.78v0.27c0,2.11,1.42,3.83,3.16,3.83h82.42c1.75,0,3.16-1.71,3.16-3.83v-0.27H181.7z"/>
			<g>
				<path class="st7" d="M381.93,127.21v9.73H71.97v-9.73c0-1.87,0.58-3.6,1.58-5.03c1.58-2.27,4.22-3.76,7.2-3.76h292.39
					c2.98,0,5.62,1.49,7.2,3.76C381.35,123.61,381.93,125.34,381.93,127.21z"/>
				<g>
					<path class="st9" d="M358.03,129.01c0,1.39-1.13,2.52-2.52,2.52c-1.39,0-2.52-1.13-2.52-2.52c0-1.39,1.13-2.52,2.52-2.52
						C356.9,126.5,358.03,127.62,358.03,129.01z"/>
					<path class="st9" d="M366.19,129.01c0,1.39-1.13,2.52-2.52,2.52c-1.39,0-2.52-1.13-2.52-2.52c0-1.39,1.13-2.52,2.52-2.52
						C365.06,126.5,366.19,127.62,366.19,129.01z"/>
					<path class="st10" d="M373.96,129.01c0,1.39-1.13,2.52-2.52,2.52c-1.39,0-2.52-1.13-2.52-2.52c0-1.39,1.13-2.52,2.52-2.52
						C372.83,126.5,373.96,127.62,373.96,129.01z"/>
				</g>
				<path class="st6" d="M307.06,130.62H142.65c-0.41,0-0.75-0.34-0.75-0.75v-3.41c0-0.42,0.34-0.75,0.75-0.75h164.41
					c0.41,0,0.75,0.34,0.75,0.75v3.41C307.82,130.28,307.48,130.62,307.06,130.62z"/>
				<path class="st8" d="M102.28,128.16v1.82c0,0.52-0.57,0.85-1.02,0.59l-1.58-0.91l-1.58-0.91c-0.45-0.26-0.45-0.91,0-1.18
					l1.58-0.91l1.58-0.91c0.45-0.26,1.02,0.07,1.02,0.59V128.16z"/>
				<path class="st8" d="M110.49,128.16v1.82c0,0.52,0.57,0.85,1.02,0.59l1.58-0.91l1.58-0.91c0.45-0.26,0.45-0.91,0-1.18
					l-1.58-0.91l-1.58-0.91c-0.45-0.26-1.02,0.07-1.02,0.59V128.16z"/>
			</g>
			<path class="st2" d="M380.35,122.19H73.55c1.58-2.27,4.22-3.76,7.2-3.76h292.39C376.13,118.43,378.76,119.91,380.35,122.19z"/>
			<path class="st7" d="M318.48,286.79H131.24c-3.66,0-6.63-2.97-6.63-6.63l0,0c0-3.66,2.97-6.63,6.63-6.63h187.24
				c3.66,0,6.63,2.97,6.63,6.63v0C325.11,283.82,322.14,286.79,318.48,286.79z"/>
		</g>
	</g>
	<g>
		<path class="st2" d="M405.67,385.28c0,3.42-21.11,6.19-47.16,6.19c-26.05,0-47.16-2.77-47.16-6.19c0-3.42,21.11-6.19,47.16-6.19
			C384.56,379.09,405.67,381.86,405.67,385.28z"/>
		<g>
			<g>
				<g>
					<g>
						<path class="st9" d="M395.69,317.77h-71.18c1.18-7.14,6.84-12.33,13.44-12.31l22.15,0.06l22.15-0.06
							C388.85,305.44,394.51,310.63,395.69,317.77z"/>
					</g>
					<g>
						<rect x="330.11" y="316.75" class="st9" width="3.88" height="66.36"/>
						<rect x="386.21" y="316.75" class="st9" width="3.88" height="66.36"/>
						<rect x="333.99" y="335.34" class="st14" width="52.22" height="3.74"/>
					</g>
				</g>
				<g>
					<path class="st10" d="M342.67,228.44c0,0-11.89,15.85-13.47,29.68c-1.12,9.76,13.47,24.36,13.47,24.36l5.02-2.5l-5.01-11.29
						c-1.78-5.5-3.98-7.67-2.36-13.22l3.63-7.82C344.38,241.77,343.78,235.26,342.67,228.44z"/>
					<path class="st10" d="M380.13,228.2c0,0,11.73,16.9,12.7,30.79c0.84,11.97-13.53,23.49-13.53,23.49l-4.15-2.06l5.74-11.41
						c1.78-5.5,2.63-8.82,0.2-14.8l-3.08-6.56L380.13,228.2z"/>
					<g>
						<path class="st10" d="M381.76,291.14c-10.43,2.82-44.55-1.53-44.55-1.53l7.88-25.07l-1-14.9l-0.13-2.02l-1.29-19.18
							c8.25-3.42,13.35-4.75,21.41-4.17c5.53,0.4,10.94,1.77,16.05,3.93l-3.67,35.64L381.76,291.14z"/>
						<g>
							<path class="st9" d="M353.62,235.99c7.53-0.88,14.53-6.05,14.85-6.29c0.19-0.14,0.22-0.4,0.09-0.59
								c-0.14-0.19-0.4-0.22-0.59-0.09c-0.08,0.06-8.32,6.14-16.25,6.25c-0.24,0-0.42,0.19-0.41,0.43c0,0.23,0.19,0.42,0.43,0.41
								C352.36,236.11,353,236.07,353.62,235.99z"/>
						</g>
						<g>
							<path class="st9" d="M357.66,261.7c7.14-2.54,12.81-9.14,13.07-9.44c0.15-0.18,0.13-0.44-0.05-0.59
								c-0.18-0.15-0.44-0.13-0.59,0.05c-0.07,0.08-6.74,7.84-14.45,9.71c-0.23,0.05-0.36,0.28-0.31,0.51
								c0.05,0.23,0.28,0.36,0.51,0.31C356.46,262.1,357.06,261.91,357.66,261.7z"/>
						</g>
					</g>
					<g>
						<polygon class="st15" points="359.69,370.29 360.3,375.82 366.19,375.96 366.68,371.37 						"/>
						<g>
							<path class="st5" d="M358.76,282.54c0,0-15.24-0.84-20.41,3.39c-5.16,4.22-4.13,16.35,1.13,19.66
								c5.26,3.31,14.23,9.81,14.23,9.81l5.7,56.7l7.54,0.26c0,0,6.94-56.95,3.42-67.98C366.86,293.34,358.76,282.54,358.76,282.54z
								"/>
							<path class="st8" d="M367.65,369.54c0.41,1.32,0.21,2.61-0.19,3.88l-8.67-0.19c-0.31-1.26-0.35-2.53-0.17-3.8L367.65,369.54z
								"/>
						</g>
					</g>
					<g>
						<path class="st6" d="M380.34,282.11h-40l-3.7-21.62c-0.32-1.87,1.12-3.58,3.02-3.58h41.35c1.9,0,3.34,1.71,3.02,3.58
							L380.34,282.11z"/>
						<path class="st2" d="M376.75,286.81h-32.8c-2,0-3.62-1.62-3.62-3.62v-1.08h40.04v1.08
							C380.38,285.19,378.75,286.81,376.75,286.81z"/>
						<path class="st2" d="M363.9,270.4c0,1.92-1.56,3.47-3.47,3.47c-1.92,0-3.47-1.56-3.47-3.47c0-1.92,1.56-3.47,3.47-3.47
							C362.34,266.93,363.9,268.48,363.9,270.4z"/>
					</g>
					<g>
						<polygon class="st15" points="334.69,354.72 333.38,360.2 338.66,361.24 340.82,356.35 						"/>
						<g>
							<path class="st8" d="M366.51,281.6c0,0-10.21-3.52-16.19,3.87c-5.98,7.39-16.01,69.8-16.01,69.8l6.87,2.84l22.08-55.42
								c0,0,17.98,10.26,20.16-4.33C385.15,286.81,366.51,281.6,366.51,281.6z"/>
							<path class="st13" d="M342.74,355.25c-0.03,1.43-0.63,2.63-1.44,3.75l-8.44-2.99c0.11-1.34,0.47-2.6,1.06-3.79L342.74,355.25
								z"/>
						</g>
					</g>
					<g>
						<path class="st10" d="M337.41,359.3c0,0-3.2-1.62-4.14-1.81c-0.94-0.19-8.73,5.34-10.93,5.28c-4-0.1-5.28,5.77-3.01,6.57
							c6.57,2.31,18.74,2.02,18.74,2.02s2.7-7.3,2.75-9.77C340.88,359.14,339.15,360.41,337.41,359.3z"/>
						<g>
							<g>
								<path class="st6" d="M330.42,364.52c0.11,0.05,0.25,0.06,0.38,0.01c0.25-0.09,0.36-0.37,0.27-0.61
									c-0.03-0.08-0.82-1.99-2.12-2.87c-1.72-1.18-3.31-0.36-3.38-0.33c-0.23,0.12-0.32,0.41-0.19,0.64
									c0.13,0.23,0.42,0.31,0.65,0.19c0.04-0.02,1.14-0.57,2.37,0.27c1.06,0.72,1.76,2.43,1.77,2.45
									C330.22,364.38,330.31,364.47,330.42,364.52z"/>
							</g>
							<g>
								<path class="st6" d="M332.02,363.41c0.11,0.05,0.25,0.06,0.38,0.01c0.25-0.09,0.36-0.37,0.27-0.61
									c-0.03-0.08-0.82-1.99-2.12-2.87c-1.72-1.18-3.31-0.36-3.38-0.33c-0.23,0.12-0.32,0.41-0.19,0.64
									c0.13,0.23,0.42,0.31,0.65,0.19c0.04-0.02,1.15-0.57,2.37,0.27c1.06,0.73,1.76,2.43,1.77,2.45
									C331.82,363.27,331.91,363.36,332.02,363.41z"/>
							</g>
							<g>
								<path class="st6" d="M328.36,365.31c0.11,0.05,0.25,0.06,0.38,0.01c0.25-0.09,0.36-0.37,0.27-0.61
									c-0.03-0.08-0.82-1.99-2.12-2.87c-1.72-1.18-3.31-0.36-3.38-0.33c-0.23,0.12-0.32,0.41-0.19,0.64
									c0.13,0.23,0.42,0.31,0.65,0.19c0.04-0.02,1.15-0.57,2.37,0.27c1.06,0.73,1.76,2.43,1.77,2.45
									C328.16,365.17,328.25,365.26,328.36,365.31z"/>
							</g>
						</g>
					</g>
					<g>
						<path class="st10" d="M362.57,375.59c0,0,3.28-0.99,4.19-1.01c0.92-0.02,7.31,6.46,9.39,6.78c3.77,0.57,4,6.3,1.73,6.67
							c-6.56,1.08-17.94-1.21-17.94-1.21s-1.33-7.31-0.96-9.63C359.35,374.86,360.76,376.34,362.57,375.59z"/>
						<g>
							<g>
								<path class="st6" d="M368.28,381.65c-0.12,0.03-0.24,0.02-0.36-0.05c-0.21-0.13-0.28-0.41-0.15-0.62
									c0.04-0.07,1.1-1.73,2.46-2.35c1.81-0.82,3.17,0.21,3.22,0.25c0.2,0.15,0.23,0.44,0.07,0.63c-0.16,0.19-0.44,0.23-0.64,0.07
									c-0.04-0.03-0.98-0.73-2.27-0.14c-1.11,0.5-2.06,1.99-2.07,2.01C368.48,381.56,368.39,381.63,368.28,381.65z"/>
							</g>
							<g>
								<path class="st6" d="M366.96,380.35c-0.12,0.03-0.24,0.01-0.36-0.05c-0.21-0.13-0.28-0.41-0.15-0.62
									c0.04-0.07,1.1-1.73,2.46-2.35c1.82-0.82,3.17,0.21,3.23,0.26c0.2,0.15,0.23,0.44,0.07,0.63c-0.16,0.19-0.44,0.23-0.64,0.07
									c-0.04-0.03-0.98-0.73-2.27-0.14c-1.12,0.51-2.06,1.99-2.07,2C367.17,380.25,367.07,380.32,366.96,380.35z"/>
							</g>
							<g>
								<path class="st6" d="M370.08,382.74c-0.12,0.03-0.24,0.02-0.36-0.05c-0.21-0.13-0.28-0.41-0.15-0.62
									c0.04-0.07,1.1-1.73,2.46-2.35c1.82-0.82,3.17,0.21,3.23,0.25c0.2,0.15,0.23,0.44,0.07,0.63c-0.16,0.19-0.44,0.23-0.64,0.07
									c-0.04-0.03-0.98-0.73-2.27-0.14c-1.12,0.51-2.06,1.99-2.07,2.01C370.29,382.64,370.19,382.71,370.08,382.74z"/>
							</g>
						</g>
					</g>
					<g>
						<path class="st8" d="M371.47,192.68c0,0,4.85,7.51,4.32,15.34c-0.53,7.83,0.72,16.86-6.29,16.46c-7-0.4-19.5,2.81-23.47-3.29
							C342.07,215.11,371.47,192.68,371.47,192.68z"/>
						<path class="st5" d="M373.27,206.5c0,0,1.26,11.35-4.12,14.47c-5.38,3.12-9.28-0.36-9.28-0.36S371.21,204.79,373.27,206.5z"/>
						<g>
							<g>
								<path class="st16" d="M350.91,206.45c0,0-1.93-2.58-3.37-0.45c-1.44,2.13,0.59,8.43,4.11,6.89L350.91,206.45z"/>
								<g>
									<path class="st17" d="M350.88,210.95c-0.13,0-0.25-0.09-0.29-0.22c-0.55-1.94-2.56-2.73-2.58-2.74
										c-0.15-0.06-0.23-0.23-0.17-0.38c0.06-0.15,0.23-0.23,0.38-0.17c0.09,0.04,2.31,0.9,2.94,3.13
										c0.04,0.16-0.05,0.32-0.21,0.37C350.94,210.94,350.91,210.95,350.88,210.95z"/>
								</g>
								<g>
									<path class="st17" d="M348.85,209.97c-0.06,0-0.11-0.02-0.16-0.05c-0.14-0.09-0.18-0.27-0.09-0.41
										c0.01-0.02,0.37-0.57,1.12-0.9c0.15-0.07,0.33,0,0.39,0.15c0.07,0.15,0,0.33-0.15,0.39c-0.58,0.26-0.86,0.67-0.86,0.68
										C349.05,209.92,348.95,209.97,348.85,209.97z"/>
								</g>
							</g>
							<g>
								<path class="st16" d="M370.83,206.45c0,0,1.93-2.58,3.37-0.45c1.44,2.13-0.59,8.43-4.11,6.89L370.83,206.45z"/>
								<g>
									<path class="st17" d="M370.86,210.95c0.13,0,0.25-0.09,0.29-0.22c0.55-1.94,2.56-2.73,2.58-2.74
										c0.15-0.06,0.23-0.23,0.17-0.38c-0.06-0.15-0.23-0.23-0.38-0.17c-0.09,0.04-2.31,0.9-2.94,3.13
										c-0.04,0.16,0.05,0.32,0.21,0.37C370.8,210.94,370.83,210.95,370.86,210.95z"/>
								</g>
								<g>
									<path class="st17" d="M372.89,209.97c0.06,0,0.11-0.02,0.16-0.05c0.14-0.09,0.18-0.27,0.09-0.41
										c-0.01-0.02-0.37-0.57-1.12-0.9c-0.15-0.07-0.33,0-0.39,0.15c-0.07,0.15,0,0.33,0.15,0.39c0.58,0.26,0.86,0.67,0.86,0.68
										C372.69,209.92,372.79,209.97,372.89,209.97z"/>
								</g>
							</g>
							<path class="st15" d="M365.63,218.23v6.26c0,0-1.87,3.19-4.39,3.41c-2.52,0.22-4.76-2.74-4.76-2.74v-6.48L365.63,218.23z"/>
							<path class="st16" d="M365.63,218.23v2.78c-1.69,1.88-4.7,2.55-9.15,1.89l0-4.23L365.63,218.23z"/>
							<path class="st15" d="M372.23,202.15c-0.12,2.43-0.35,5.47-0.81,7.91c-0.12,0.61-0.25,1.18-0.39,1.69
								c-1.32,4.61-4.61,12.52-13.84,9.23c-4.07-1.45-5.96-5.99-6.8-10.61c-0.57-3.13-0.66-6.3-0.62-8.56
								c0.04-2.31,1.31-4.42,3.32-5.56c5.45-3.09,11.19-1.94,14.97-0.48C370.68,196.77,372.36,199.35,372.23,202.15z"/>
							<path class="st8" d="M356.81,207.41c0,0.67-0.34,1.21-0.77,1.21c-0.42,0-0.77-0.54-0.77-1.21c0-0.67,0.34-1.21,0.77-1.21
								C356.46,206.2,356.81,206.75,356.81,207.41z"/>
							<path class="st8" d="M366.31,207.41c0,0.67-0.34,1.21-0.77,1.21c-0.42,0-0.77-0.54-0.77-1.21c0-0.67,0.34-1.21,0.77-1.21
								C365.96,206.2,366.31,206.75,366.31,207.41z"/>
							<path class="st8" d="M354.51,203.39c0.64-0.18,1.93-0.49,3.29-0.49c0.36,0,0.63,0.32,0.57,0.67l0,0.01
								c-0.05,0.28-0.3,0.48-0.59,0.47c-0.93-0.04-3.36,0.09-4.51,0.55c-0.02-0.2,0.09-0.42,0.26-0.61
								C353.79,203.69,354.14,203.49,354.51,203.39z"/>
							<path class="st8" d="M366.94,203.41c-0.64-0.18-1.93-0.49-3.29-0.49c-0.36,0-0.63,0.32-0.57,0.67l0,0.01
								c0.05,0.28,0.3,0.48,0.59,0.47c0.93-0.04,3.36,0.09,4.51,0.55c0.02-0.2-0.09-0.42-0.26-0.61
								C367.66,203.71,367.32,203.52,366.94,203.41z"/>
							<g>
								<path class="st16" d="M360.97,212.33c-0.23,0-0.46-0.04-0.65-0.15c-0.17-0.1-0.39-0.31-0.43-0.73
									c-0.11-1.09,0.17-4.52,0.18-4.66c0.01-0.16,0.16-0.29,0.32-0.27c0.16,0.01,0.29,0.16,0.27,0.32c0,0.04-0.29,3.52-0.18,4.55
									c0.02,0.18,0.09,0.24,0.15,0.28c0.28,0.17,0.92,0,1.19-0.11c0.15-0.06,0.33,0.01,0.39,0.16c0.06,0.15-0.01,0.33-0.16,0.39
									C361.97,212.14,361.48,212.33,360.97,212.33z"/>
							</g>
							<path class="st6" d="M357.2,214.21c0.22,1.13,0.97,3.21,3.49,3.21c2.52,0,3.23-1.9,3.47-3.21H357.2z"/>
							<g>
								<path class="st16" d="M360.65,219.16c-0.73,0-1.37-0.39-1.39-0.41c-0.14-0.09-0.18-0.27-0.1-0.41
									c0.09-0.14,0.27-0.18,0.41-0.1l0,0c0.01,0,0.53,0.32,1.08,0.32c0.6,0,1.14-0.32,1.14-0.32c0.14-0.08,0.32-0.04,0.41,0.1
									c0.08,0.14,0.04,0.32-0.1,0.41C362.07,218.77,361.42,219.16,360.65,219.16z"/>
							</g>
						</g>
						<path class="st8" d="M373.43,201.67c-0.1,0.27-0.36,0.44-0.72,0.55c0.03,0.66-0.04,1.44-0.11,2.2
							c-0.37,4.3-1.45,5.05-1.7,3.99c-0.16-0.71-0.15-4.75-0.07-6.07c-0.85-0.06-1.58-0.2-1.58-0.2l-1-4.17l-0.35,4.12
							c-1.5,0.52-4.98-0.31-4.98-0.31l-1.17-4.11l-0.72,3.96c-2.24,1.09-5.05,0.36-5.05,0.36l-0.64-4.27l-1.49,4.27
							c0,0-4.78,1.72-4.84,0c-0.03-1,0.7-3.81,1.32-5.99c0.67-2.38,2.24-4.38,4.35-5.52c5.94-3.19,12.21-1.49,14.37-0.21
							C373.61,192.99,373.43,201.67,373.43,201.67z"/>
						<path class="st8" d="M351.65,193c0,0-3.94,4.68-5.24,13.05c-1.3,8.37-3.09,14.55,1.95,17.31c5.46,2.99,4.98-3.14,4.91-4.81
							c-0.08-1.67-4.72-6.22-1.62-19.06C352.65,195.36,351.65,193,351.65,193z"/>
						<path class="st5" d="M350.73,210.29C350.73,210.29,350.73,210.3,350.73,210.29c0,0.07,0.01,0.4,0.03,0.93
							c0.01,0.32,0.03,0.72,0.06,1.16c0.19,2.82,0.73,7.69,2.34,9.38c0.64,0.67,1.86,1,3.31,1.14v-2.22
							c-1.52-0.72-2.71-1.91-3.63-3.37c-0.57-1.23-1.55-3.16-2.01-6.18L350.73,210.29z"/>
						<path class="st6" d="M372.3,213.03c0,0.38-0.31,0.7-0.7,0.7c-0.38,0-0.7-0.31-0.7-0.7s0.31-0.7,0.7-0.7
							C371.99,212.33,372.3,212.65,372.3,213.03z"/>
					</g>
				</g>
			</g>
		</g>
		<g>
			<path class="st9" d="M345.91,245.39c-0.02,0.04-0.9,1.72-1.82,4.25l-0.13-2.02c0.63-1.53,1.14-2.5,1.2-2.62
				c0.11-0.21,0.37-0.28,0.57-0.18C345.94,244.93,346.01,245.19,345.91,245.39z"/>
		</g>
		<g>
			<path class="st9" d="M376.07,245.39c0.02,0.04,0.93,1.77,1.85,4.3l0.19-1.87c-0.63-1.53-1.23-2.7-1.29-2.82
				c-0.11-0.21-0.37-0.28-0.57-0.18C376.04,244.93,375.97,245.19,376.07,245.39z"/>
		</g>
	</g>
	<g>
		<g>
			<path class="st15" d="M166.58,255.8c1.36,2.6,2.68,4.85,3.96,6.78c9.47,14.34,16.52,11.27,20.31,6.84c1.34-1.57,2.31-3.21,3-4.74
				c1.13-2.49,1.53-4.65,1.65-5.6l-1.76,0.41c-2.08,0.96-5.54,2.28-8.1,1.88c-0.33-0.05-0.64-0.13-0.93-0.24
				c-2.3-0.87-5.42-5.39-7.54-8.83c-1.39-2.25-2.34-4.04-2.34-4.04L166.58,255.8z"/>
			<path class="st16" d="M166.58,255.8c1.36,2.6,2.68,4.85,3.96,6.78c2.69-2.95,5.13-7.3,6.63-10.27c-1.39-2.25-2.34-4.04-2.34-4.04
				L166.58,255.8z"/>
			<path class="st16" d="M183.59,261.85c0,0,1.91,5.86,10.25,2.84c1.13-2.49,1.53-4.65,1.65-5.6l-1.76,0.41
				c-2.08,0.96-5.54,2.28-8.1,1.88L183.59,261.85z"/>
		</g>
		<g>
			<path class="st15" d="M118.03,267.83c0.01,1.63-0.04,3.3-0.19,4.94c0,0.04-0.01,0.07-0.01,0.11c-0.03,0.33-0.07,0.67-0.13,1
				c-1.33,8.22-9.7,15.29-11.53,4.69c-0.24-1.41-0.35-2.96-0.34-4.6c0-0.36,0.01-0.73,0.02-1.1c0.03-1,0.1-2.02,0.2-3.06
				c0.04-0.44,0.09-0.89,0.14-1.33c0.06-0.49,0.12-0.98,0.19-1.47c0.17-1.22,0.37-2.45,0.59-3.66c0.74-4,1.7-7.81,2.51-10.68
				c0.88-3.11,1.56-5.14,1.56-5.14l5.87,7.22c0,0,0.47,2.63,0.81,6.38c0.03,0.29,0.05,0.58,0.07,0.88c0.12,1.48,0.2,3.1,0.24,4.79
				c0,0.09,0,0.17,0.01,0.26C118.02,267.31,118.03,267.57,118.03,267.83z"/>
			<path class="st16" d="M109.47,252.65c1.74,3.2,4.61,7.44,8.3,9.34c-0.02-0.3-0.05-0.6-0.07-0.88c-0.33-3.75-0.8-6.38-0.8-6.38
				l-5.87-7.21C111.03,247.52,110.35,249.54,109.47,252.65z"/>
			<path class="st16" d="M118.03,267.83c0.01,1.63-0.04,3.3-0.19,4.94c-3.63,0.34-8.76,0.53-11.99,0.1c0.03-1,0.1-2.02,0.2-3.06
				c0.04-0.44,0.09-0.89,0.14-1.33l11.83-1.68c0,0.09,0,0.17,0.01,0.26C118.02,267.31,118.03,267.57,118.03,267.83z"/>
		</g>
		<path class="st10" d="M168.1,230.1c0,0,8.49,14.99,9.89,20.07c0,0-5.8,9.7-11.06,10.77l-1.95-6.61
			C164.97,254.32,164.76,233.63,168.1,230.1z"/>
		<g>
			<path class="st10" d="M149.44,222.39l18.65,7.7l-8.25,63.91c0,0-25.67,3.61-38.95,0V230.1l18.13-8.11L149.44,222.39z"/>
			<g>
				<g>
					<path class="st9" d="M153.25,257.23c-3.13,3.26-7.52,6.33-13.64,8.09c-0.24,0.07-0.48-0.09-0.51-0.34c0,0,0-0.01,0-0.01
						c-0.02-0.19,0.1-0.38,0.29-0.43c5.96-1.72,10.24-4.71,13.29-7.88c0.23-0.24,0.63-0.11,0.68,0.22c0,0,0,0.01,0,0.01
						C153.38,257.01,153.34,257.14,153.25,257.23z"/>
				</g>
				<g>
					<path class="st9" d="M153.1,251.15v0.02c0,0.06-0.02,0.13-0.05,0.18c-0.21,0.36-0.44,0.73-0.71,1.12
						c-1.48,2.1-4.27,4.89-9.18,6.22c-0.03,0.01-0.06,0.01-0.1,0.01c-0.16,0-0.31-0.11-0.35-0.27c-0.05-0.19,0.06-0.4,0.26-0.45
						c5.29-1.43,8.06-4.62,9.45-7.02C152.6,250.63,153.1,250.77,153.1,251.15z"/>
				</g>
				<g>
					<path class="st9" d="M152.43,234.52C152.43,234.53,152.43,234.53,152.43,234.52c-0.01,0.23-0.22,0.39-0.43,0.34
						c-4.45-0.87-7.94-2.85-10.27-4.54c-3.21-2.34-4.91-4.6-4.98-4.7c-0.12-0.16-0.09-0.39,0.08-0.51c0.16-0.12,0.39-0.09,0.51,0.08
						c0.06,0.08,5.42,7.13,14.81,8.96C152.31,234.18,152.44,234.34,152.43,234.52z"/>
				</g>
			</g>
		</g>
		<g>
			<g>
				<g>
					<path class="st15" d="M181.08,334.68l-2-10.29h6.83l1.67,9.72C187.58,334.11,184.84,335.89,181.08,334.68z"/>
					<path class="st10" d="M185.76,334.58c0,0,1.52-1.99,2.71-1.89c1.19,0.1,10.27,7.49,13.4,8.13c3.13,0.64,2.5,2.94,1.91,4.12
						c-0.59,1.17-25.03-0.73-25.03-0.73s-0.59-7.29,0.24-9.51C179.79,332.47,183.3,335.08,185.76,334.58z"/>
					<g>
						<g>
							<g>
								<g>
									<path class="st6" d="M190.76,339.72c-0.11,0.03-0.24,0.02-0.34-0.04c-0.21-0.12-0.28-0.39-0.16-0.6
										c0.04-0.07,1.02-1.72,2.32-2.36c1.73-0.85,3.05,0.14,3.11,0.18c0.19,0.15,0.23,0.42,0.08,0.62
										c-0.15,0.19-0.42,0.23-0.62,0.08c-0.04-0.03-0.96-0.69-2.19-0.09c-1.06,0.52-1.94,2-1.94,2.01
										C190.96,339.62,190.87,339.69,190.76,339.72z"/>
								</g>
							</g>
						</g>
						<g>
							<g>
								<g>
									<path class="st6" d="M189.47,338.47c-0.11,0.03-0.24,0.02-0.34-0.04c-0.21-0.12-0.28-0.39-0.16-0.6
										c0.04-0.07,1.02-1.72,2.32-2.36c1.73-0.85,3.05,0.14,3.11,0.18c0.19,0.15,0.23,0.42,0.08,0.62
										c-0.15,0.19-0.42,0.23-0.62,0.08c-0.04-0.03-0.96-0.69-2.19-0.09c-1.06,0.52-1.94,2-1.94,2.01
										C189.67,338.37,189.57,338.44,189.47,338.47z"/>
								</g>
							</g>
						</g>
						<g>
							<path class="st6" d="M192.53,340.74c-0.11,0.03-0.24,0.02-0.34-0.04c-0.21-0.12-0.28-0.39-0.16-0.6
								c0.04-0.07,1.02-1.72,2.32-2.36c1.73-0.85,3.05,0.14,3.11,0.18c0.19,0.15,0.23,0.42,0.08,0.62
								c-0.15,0.19-0.42,0.23-0.62,0.08c-0.04-0.03-0.96-0.69-2.19-0.09c-1.06,0.52-1.94,2-1.94,2.01
								C192.73,340.65,192.63,340.71,192.53,340.74z"/>
						</g>
					</g>
				</g>
			</g>
			<g>
				<g>
					<path class="st5" d="M150.06,287.6c0,0,11.7-29.04,18.97-27.9c11.26,1.77,18.79,36.35,17.86,68.6l-7.72,0.44
						c0,0-8.65-30.38-10.2-38.34c0,0-5.96,20.68-19.38,17.8C139.66,306.07,146.14,295.9,150.06,287.6z"/>
				</g>
			</g>
			<g>
				<path class="st8" d="M180.09,327.41l0.95-0.17c-0.02-0.11-2.08-11.42-4.57-22.84c-5.08-23.31-6.99-24.4-7.62-24.76
					c-0.52-0.3-0.95-0.22-1.22-0.1c-1.27,0.55-1.91,3.27-2.88,7.39c-1.56,6.65-3.7,15.77-9.61,19.58l0.52,0.81
					c6.24-4.03,8.43-13.36,10.03-20.17c0.77-3.27,1.5-6.36,2.32-6.73c0.05-0.02,0.15-0.06,0.36,0.06
					C170.99,281.97,176.81,309.36,180.09,327.41z"/>
			</g>
			<polygon class="st8" points="187.66,325.94 178.19,326.73 178.01,326.74 178.53,329.88 187.84,329.23 			"/>
		</g>
		<g>
			<g>
				<path class="st8" d="M153.06,308.34c0,0-13.6,2.61-31.63-0.63c1.48-7.45,4.86-13.3,10.35-18.5l24.32,1.76
					C157.63,296.71,156.52,302.5,153.06,308.34z"/>
				<g>
					<g>
						<path class="st10" d="M156.94,332.38c0,0,3.22-0.71,4.1-0.65c0.88,0.06,6.48,6.91,8.45,7.39c3.57,0.87,3.32,6.49,1.12,6.67
							c-6.37,0.53-17.1-2.64-17.1-2.64s-0.68-7.26-0.14-9.5C153.9,331.41,155.14,332.97,156.94,332.38z"/>
						<path class="st15" d="M155.04,332.87l-2.37-9.25h6.83l1.53,8.92C161.04,332.55,158.81,334.08,155.04,332.87z"/>
						<g>
							<g>
								<g>
									<g>
										<path class="st6" d="M161.91,338.77c-0.11,0.02-0.24-0.01-0.34-0.08c-0.2-0.14-0.24-0.42-0.09-0.61
											c0.05-0.07,1.2-1.6,2.55-2.1c1.81-0.66,3.02,0.46,3.07,0.51c0.18,0.17,0.18,0.44,0.02,0.62
											c-0.17,0.18-0.44,0.18-0.62,0.02c-0.03-0.03-0.88-0.79-2.17-0.32c-1.11,0.4-2.14,1.78-2.15,1.79
											C162.12,338.7,162.02,338.75,161.91,338.77z"/>
									</g>
								</g>
							</g>
							<g>
								<path class="st6" d="M160.75,337.39c-0.11,0.02-0.24-0.01-0.34-0.08c-0.19-0.14-0.24-0.42-0.09-0.61
									c0.05-0.07,1.2-1.6,2.55-2.1c1.81-0.66,3.02,0.46,3.07,0.51c0.18,0.17,0.18,0.44,0.02,0.62c-0.17,0.18-0.44,0.18-0.62,0.02
									c-0.03-0.03-0.88-0.79-2.17-0.32c-1.11,0.4-2.14,1.78-2.15,1.79C160.96,337.31,160.86,337.37,160.75,337.39z"/>
							</g>
							<g>
								<path class="st6" d="M163.55,339.98c-0.11,0.02-0.24-0.01-0.34-0.08c-0.2-0.14-0.24-0.42-0.09-0.61
									c0.05-0.07,1.2-1.6,2.55-2.1c1.81-0.66,3.02,0.46,3.07,0.51c0.18,0.17,0.18,0.44,0.02,0.62c-0.17,0.18-0.44,0.18-0.62,0.02
									c-0.03-0.03-0.88-0.79-2.17-0.32c-1.11,0.4-2.14,1.78-2.15,1.79C163.76,339.9,163.66,339.96,163.55,339.98z"/>
							</g>
						</g>
					</g>
				</g>
				<path class="st5" d="M123.09,308.2c1.73,0.37,3.33,0.35,4.81,0.04c0.49-0.1,0.96-0.24,1.42-0.4
					c9.05-3.21,13.15-17.43,13.15-17.43c1.55,7.96,10.52,38.32,10.52,38.32l1.4-0.18l0.96-0.13l5.29-0.7
					c1.04-31.22-6.86-66.24-18.11-68.01c-7.27-1.15-18.97,27.9-18.97,27.9C119.63,295.9,113.15,306.07,123.09,308.2z"/>
				<g>
					<path class="st8" d="M127.9,308.23c0.49-0.1,0.96-0.24,1.42-0.4c3.31-5.33,5.04-12.79,6.43-18.8
						c1.11-4.78,2.15-9.29,3.52-10.06c0.21-0.12,0.42-0.14,0.65-0.05c1.17,0.38,3.92,4.25,9.2,25.84
						c2.52,10.29,4.61,20.55,5.25,23.79c0.13,0.66,0.21,1.03,0.21,1.05l0.95-0.18c0-0.02-0.07-0.37-0.19-0.99
						c-0.63-3.18-2.73-13.51-5.28-23.89c-6.21-25.34-8.94-26.24-9.84-26.54c-0.5-0.16-0.98-0.12-1.43,0.14
						c-1.74,0.98-2.69,5.05-3.99,10.69C133.35,295.1,131.51,303.02,127.9,308.23z"/>
				</g>
				<polygon class="st8" points="161.26,325.51 151.92,327.22 151.74,327.25 152.56,330.32 161.76,328.77 				"/>
			</g>
		</g>
		<path class="st10" d="M120.9,230.1l-12.1,17.52c0,0,5.37,10.13,10.63,11.19c0,0,5.48-9.57,6.12-14.46
			C126.2,239.45,122.79,230.52,120.9,230.1z"/>
		<g>
			<g>
				<g>
					<g>
						
							<rect x="77.88" y="247.64" transform="matrix(0.9947 -0.1029 0.1029 0.9947 -25.5869 16.5015)" class="st9" width="138.56" height="17.27"/>
						<g>
							
								<rect x="77.36" y="250.64" transform="matrix(0.9947 -0.1029 0.1029 0.9947 -25.0688 16.4205)" class="st14" width="138.56" height="1.15"/>
							
								<rect x="77.88" y="255.7" transform="matrix(0.9947 -0.1029 0.1029 0.9947 -25.5868 16.5014)" class="st14" width="138.56" height="1.15"/>
							
								<rect x="78.41" y="260.76" transform="matrix(0.9947 -0.1029 0.1029 0.9947 -26.1043 16.5819)" class="st14" width="138.56" height="1.15"/>
						</g>
					</g>
					<g>
						
							<rect x="78.23" y="254.4" transform="matrix(0.9947 -0.1029 0.1029 0.9947 -26.6255 9.8165)" class="st8" width="7.25" height="17.27"/>
					</g>
					<path class="st10" d="M77.36,254.82l-2.05,0.21c-4.74,0.49-8.19,4.73-7.7,9.48l0,0c0.49,4.74,4.73,8.19,9.48,7.7l2.05-0.21
						L77.36,254.82z"/>
					<g>
						<polygon class="st15" points="216.97,257.74 215.19,240.56 227.25,244.47 229.76,245.28 236.85,247.58 230.07,251.05 
							227.43,252.4 						"/>
						<path class="st8" d="M230.07,251.05c-0.32-0.72-0.57-1.61-0.68-2.69c-0.13-1.29,0.05-2.3,0.37-3.07l7.09,2.3L230.07,251.05z"
							/>
					</g>
				</g>
			</g>
		</g>
		<g>
			<g>
				<path class="st15" d="M195.9,260.65c0,0-0.4-1.94-1.44-4.66c-0.53-1.38-2.23-2.36-2.73-0.94c-0.4,1.12,0.24,2.16,0.18,3.32
					c0,0-0.27-0.72-0.82-2.57c-0.5-1.67-1.64-1.79-2.04-0.69c-0.38,1.04-0.06,1.06,0.04,1.93c0.13,1.16,0.35,2.61,0.35,2.61
					s-0.06-1.64-1.01-3.72c-0.44-0.95-0.85-1.99-2.01-0.9c-0.58,0.54-0.35,2.41-0.26,4.37c0,0-0.45-2.7-1.56-3.6
					c-0.88-0.71-1.48-0.37-1.38,1.08c0.12,1.88,0.34,2.43,0.49,3.56c0.16,1.13,1.22,2.92,2.38,2.8c1.16-0.12,1.56-0.83,2.31-0.73
					c0.75,0.1,1.93,0.42,2.53,0.06c0.6-0.35,1.15-0.35,2.02-0.2C193.78,262.52,195.72,261.78,195.9,260.65z"/>
			</g>
		</g>
		<g>
			<path class="st15" d="M118.21,270c0,0-0.08-1.98-0.66-4.83c-0.3-1.45-1.57-2.72-2.3-1.41c-0.58,1.04-0.35,2.2-0.61,3.33
				c0,0-0.15-0.76-0.39-2.67c-0.22-1.73-1.32-2.03-1.9-1.01c-0.55,0.96-0.23,1.04-0.28,1.91c-0.06,1.16-0.08,2.63-0.08,2.63
				s0.21-1.63-0.39-3.83c-0.27-1.01-0.51-2.1-1.84-1.22c-0.67,0.44-0.74,2.32-0.97,4.27c0,0,0.27-2.33-0.68-3.4
				c-0.75-0.85-1.67-1.01-1.82,0.44c-0.18,1.87-0.07,2.45-0.1,3.59c-0.03,1.14,0.72,3.07,1.89,3.15c1.17,0.07,1.67-0.57,2.4-0.34
				c0.73,0.22,1.84,0.73,2.49,0.48c0.65-0.25,1.19-0.16,2.02,0.13C115.81,271.5,117.84,271.09,118.21,270z"/>
		</g>
		<g>
			<path class="st8" d="M155.08,201.69c0,0.52-0.03,1.03-0.08,1.53c-0.02,0.2-0.05,0.4-0.08,0.6c-0.88,5.75-5.35,9.81-11.47,9.81
				c-6.3,0-10.38-3.99-10.99-9.96c-0.02-0.19-0.04-0.38-0.05-0.57c-0.02-0.34-0.03-0.69-0.03-1.05c0-6.85,3.57-12.4,11.79-12.4
				C151.02,189.64,155.08,194.84,155.08,201.69z"/>
			<g>
				<path class="st16" d="M133.91,205c0,0-1.9-2.54-3.32-0.44c-1.42,2.1,0.59,8.3,4.05,6.79L133.91,205z"/>
				<g>
					<path class="st17" d="M133.89,209.43c-0.13,0-0.25-0.08-0.28-0.21c-0.54-1.91-2.52-2.69-2.54-2.7
						c-0.15-0.06-0.23-0.23-0.17-0.38c0.06-0.15,0.23-0.23,0.38-0.17c0.09,0.04,2.28,0.88,2.9,3.09c0.04,0.16-0.05,0.32-0.2,0.36
						C133.94,209.42,133.91,209.43,133.89,209.43z"/>
				</g>
				<g>
					<path class="st17" d="M131.89,208.46c-0.05,0-0.11-0.02-0.16-0.05c-0.14-0.09-0.18-0.27-0.09-0.4c0.01-0.02,0.37-0.56,1.1-0.89
						c0.15-0.07,0.32,0,0.39,0.15c0.07,0.15,0,0.32-0.15,0.39c-0.57,0.25-0.84,0.66-0.85,0.67
						C132.08,208.42,131.98,208.46,131.89,208.46z"/>
				</g>
			</g>
			<g>
				<path class="st16" d="M153.54,205c0,0,1.9-2.54,3.32-0.44c1.42,2.1-0.59,8.3-4.05,6.79L153.54,205z"/>
				<g>
					<g>
						<path class="st17" d="M153.56,209.43c0.13,0,0.25-0.08,0.28-0.21c0.54-1.91,2.52-2.69,2.54-2.7c0.15-0.06,0.23-0.23,0.17-0.38
							c-0.06-0.15-0.23-0.23-0.38-0.17c-0.09,0.04-2.28,0.88-2.9,3.09c-0.04,0.16,0.05,0.32,0.2,0.36
							C153.51,209.42,153.53,209.43,153.56,209.43z"/>
					</g>
				</g>
				<g>
					<g>
						<path class="st17" d="M155.56,208.46c0.05,0,0.11-0.02,0.16-0.05c0.14-0.09,0.18-0.27,0.09-0.4c-0.01-0.02-0.37-0.56-1.1-0.89
							c-0.15-0.07-0.32,0-0.39,0.15c-0.07,0.15,0,0.32,0.15,0.39c0.57,0.25,0.84,0.66,0.85,0.67
							C155.37,208.42,155.47,208.46,155.56,208.46z"/>
					</g>
				</g>
			</g>
			<path class="st15" d="M148.41,216.6v6.17c0,0-1.84,3.14-4.33,3.35c-2.48,0.22-4.69-2.7-4.69-2.7v-6.38L148.41,216.6z"/>
			<path class="st16" d="M148.41,216.6v2.74c-1.67,1.85-4.63,2.31-9.02,1.67v-3.97L148.41,216.6z"/>
			<path class="st15" d="M154.91,200.77c-0.11,2.4-0.34,5.39-0.8,7.79c-0.11,0.6-0.24,1.16-0.39,1.66
				c-1.3,4.54-4.54,12.34-13.63,9.09c-4.01-1.43-5.87-5.9-6.7-10.45c-0.56-3.09-0.65-6.21-0.61-8.44c0.04-2.28,1.29-4.36,3.27-5.48
				c5.36-3.04,11.02-1.91,14.75-0.47C153.39,195.46,155.05,198,154.91,200.77z"/>
			<path class="st8" d="M140.67,205.39c0,0.66-0.34,1.19-0.76,1.19c-0.42,0-0.76-0.53-0.76-1.19c0-0.66,0.34-1.19,0.76-1.19
				C140.33,204.2,140.67,204.73,140.67,205.39z"/>
			<path class="st8" d="M149.47,205.39c0,0.66-0.34,1.19-0.76,1.19c-0.42,0-0.76-0.53-0.76-1.19c0-0.66,0.34-1.19,0.76-1.19
				C149.13,204.2,149.47,204.73,149.47,205.39z"/>
			<path class="st8" d="M151.15,201.27c0,0-2.39-0.95-4.23-0.15l0.18,1.02c0,0,2.7-0.23,4.06,0.32
				C151.28,202.07,151.3,201.67,151.15,201.27z"/>
			<path class="st8" d="M137.22,201.27c0,0,2.39-0.95,4.23-0.15l-0.18,1.02c0,0-2.7-0.23-4.06,0.32
				C137.08,202.07,137.06,201.67,137.22,201.27z"/>
			<g>
				<path class="st16" d="M144.02,210.53c-0.49,0.06-1-0.07-1.08-0.09c-0.16-0.04-0.25-0.2-0.21-0.36c0.04-0.16,0.2-0.25,0.36-0.21
					c0.28,0.07,0.93,0.16,1.18-0.03c0.05-0.04,0.11-0.11,0.11-0.29c-0.02-1.03-0.71-4.4-0.72-4.43c-0.03-0.16,0.07-0.31,0.23-0.35
					c0.16-0.03,0.31,0.07,0.35,0.23c0.03,0.14,0.71,3.46,0.73,4.54c0.01,0.41-0.18,0.64-0.34,0.76
					C144.46,210.43,144.24,210.5,144.02,210.53z"/>
			</g>
			<path class="st6" d="M140.02,212.28c0.24,1.2,1.04,3.42,3.72,3.42c2.69,0,3.44-2.03,3.7-3.42H140.02z"/>
			<g>
				<path class="st16" d="M143.51,217.52c0.76,0,1.4-0.38,1.43-0.4c0.14-0.08,0.18-0.26,0.1-0.4s-0.26-0.18-0.4-0.1
					c0,0-0.53,0.32-1.12,0.32c-0.54,0-1.06-0.31-1.07-0.31c-0.14-0.08-0.32-0.04-0.4,0.1c-0.09,0.14-0.04,0.32,0.1,0.4
					C142.16,217.13,142.79,217.52,143.51,217.52z"/>
			</g>
			<path class="st8" d="M154.6,205.05h-1.33c0.15-1.33-0.34-2.94-0.74-4.02c-0.91-2.43,1.02-3.51-0.54-4.73
				c-1.56-1.22-5.45-0.7-8.15-0.79c-2.72-0.09-7.09-0.05-8.15,0.2c-1.06,0.24-0.48,2.01-0.09,3.38c0.39,1.37-1.3,2.88-1.59,4.29
				c-0.08,0.41-0.06,1.01,0,1.66h-1.11c-0.13-1.72-0.15-3.33-0.13-4.63c0.04-2.28,1.29-4.36,3.27-5.48
				c5.36-3.04,11.02-1.91,14.75-0.47c2.59,0.99,4.24,3.53,4.11,6.3C154.85,202.08,154.75,203.57,154.6,205.05z"/>
			<g>
				<g>
					<path class="st6" d="M145.82,206.21c0-2.01,1.63-3.64,3.64-3.64c2.01,0,3.64,1.63,3.64,3.64c0,2.01-1.63,3.64-3.64,3.64
						C147.46,209.85,145.82,208.21,145.82,206.21z M146.39,206.21c0,1.69,1.38,3.07,3.07,3.07c1.69,0,3.07-1.38,3.07-3.07
						c0-1.69-1.38-3.07-3.07-3.07C147.77,203.13,146.39,204.51,146.39,206.21z"/>
				</g>
				<g>
					<path class="st6" d="M135.87,206.21c0-2.01,1.63-3.64,3.64-3.64c2.01,0,3.64,1.63,3.64,3.64c0,2.01-1.63,3.64-3.64,3.64
						C137.51,209.85,135.87,208.21,135.87,206.21z M136.44,206.21c0,1.69,1.38,3.07,3.07,3.07c1.69,0,3.07-1.38,3.07-3.07
						c0-1.69-1.38-3.07-3.07-3.07C137.82,203.13,136.44,204.51,136.44,206.21z"/>
				</g>
				<g>
					<path class="st6" d="M154.99,203.22c0.16,0.14,0.08,0.51-0.08,0.6c-1.33,0.26-2.21,1.13-2.23,1.14
						c-0.05,0.05-0.13,0.08-0.2,0.08c-0.07,0-0.15-0.03-0.2-0.08c-0.11-0.11-0.11-0.29,0-0.4
						C152.35,204.49,153.4,203.46,154.99,203.22z"/>
				</g>
				<g>
					<path class="st6" d="M136.66,204.91c-0.06,0.08-0.15,0.13-0.24,0.13c-0.05,0-0.11-0.01-0.16-0.05
						c-0.02-0.01-1.99-1.28-3.81-1.33c-0.21-0.18-0.19-0.37-0.05-0.57c2.01,0.02,4.07,1.36,4.17,1.42
						C136.71,204.6,136.74,204.77,136.66,204.91z"/>
				</g>
				<g>
					<path class="st6" d="M142.95,205.39c0.01-0.01,0.68-0.92,1.57-0.92c0.88,0,1.49,0.91,1.49,0.92l0.48-0.31
						c-0.03-0.05-0.78-1.18-1.97-1.18c-1.18,0-1.99,1.11-2.03,1.16L142.95,205.39z"/>
				</g>
			</g>
		</g>
	</g>
	<g>
		<g>
			<g>
				<g>
					<path class="st10" d="M276.47,45.91c0,8.35-2.23,16.18-6.12,22.92c-6.93,11.99-13.54,24.16-19.55,36.64l-3.39,7.03h-33.68
						l-4.96-10.24c-5.48-11.32-11.52-22.36-17.87-33.23c-3.97-6.79-6.24-14.69-6.24-23.13c0-24.92,20.02-45.29,44.78-45.89
						C229.88,0,230.32,0,230.76,0C256.02,0.11,276.47,20.62,276.47,45.91z"/>
					<g class="st18">
						<path class="st10" d="M193.8,49.58c-1.81,0-3.34-1.39-3.48-3.23c-0.04-0.54-0.9-13.35,8.41-26.51
							c9.53-13.48,25.56-14.79,26.24-14.84c1.93-0.15,3.6,1.31,3.75,3.24c0.14,1.93-1.31,3.6-3.24,3.74
							c-0.12,0.01-13.45,1.18-21.03,11.9c-7.79,11.02-7.15,21.84-7.14,21.95c0.13,1.92-1.32,3.6-3.24,3.74
							C193.97,49.57,193.89,49.58,193.8,49.58z"/>
					</g>
					<g>
						<g>
							<g class="st19">
								<path class="st10" d="M246.11,66.9c-0.26,0-0.51-0.15-0.63-0.38l-1.51-2.9l-1.51,2.9c-0.12,0.24-0.37,0.38-0.63,0.38
									c-0.26,0-0.51-0.15-0.63-0.38l-1.51-2.9l-1.51,2.9c-0.12,0.24-0.37,0.38-0.63,0.38l0,0c-0.27,0-0.51-0.15-0.63-0.38
									l-1.51-2.9l-1.51,2.9c-0.12,0.24-0.37,0.38-0.63,0.38l0,0c-0.27,0-0.51-0.15-0.63-0.38l-1.51-2.9l-1.51,2.9
									c-0.12,0.24-0.37,0.38-0.63,0.38c-0.27,0-0.51-0.15-0.63-0.38l-1.51-2.9l-1.51,2.9c-0.12,0.24-0.37,0.38-0.63,0.38l0,0
									c-0.27,0-0.51-0.15-0.63-0.38l-1.51-2.9l-1.51,2.9c-0.12,0.24-0.37,0.38-0.63,0.38c-0.26,0-0.51-0.15-0.63-0.38l-1.51-2.9
									l-1.51,2.9c-0.12,0.24-0.37,0.38-0.63,0.38l0,0c-0.26,0-0.51-0.15-0.63-0.38l-2.14-4.11c-0.18-0.35-0.05-0.78,0.3-0.96
									c0.35-0.18,0.78-0.05,0.96,0.3l1.51,2.9l1.51-2.9c0.12-0.24,0.37-0.38,0.63-0.38c0.27,0,0.51,0.15,0.63,0.38l1.51,2.9
									l1.51-2.9c0.12-0.24,0.37-0.38,0.63-0.38c0.27,0,0.51,0.15,0.63,0.38l1.51,2.9l1.51-2.9c0.12-0.24,0.37-0.38,0.63-0.38
									c0.27,0,0.51,0.15,0.63,0.38l1.51,2.9l1.51-2.9c0.12-0.24,0.37-0.38,0.63-0.38c0.26,0,0.51,0.15,0.63,0.38l1.51,2.9
									l1.51-2.9c0.12-0.24,0.37-0.38,0.63-0.38l0,0c0.27,0,0.51,0.15,0.63,0.38l1.51,2.9l1.51-2.9c0.12-0.24,0.37-0.38,0.63-0.38
									c0.27,0,0.51,0.15,0.63,0.38l1.51,2.9l1.51-2.9c0.12-0.24,0.37-0.38,0.63-0.38c0.27,0,0.51,0.15,0.63,0.38l1.51,2.9
									l1.51-2.9c0.18-0.35,0.61-0.48,0.96-0.3c0.35,0.18,0.48,0.61,0.3,0.96l-2.14,4.11C246.62,66.75,246.37,66.9,246.11,66.9z"/>
							</g>
							<g>
								<g>
									<g>
										<polygon class="st8" points="221.47,112.48 211.91,63.79 213.3,63.52 222.93,112.5 										"/>
									</g>
								</g>
								<g>
									<g>
										<path class="st8" d="M215.72,63.66c0,1.72-1.39,3.11-3.11,3.11c-1.72,0-3.11-1.39-3.11-3.11c0-1.72,1.39-3.11,3.11-3.11
											C214.32,60.55,215.72,61.94,215.72,63.66z"/>
									</g>
								</g>
							</g>
							<g>
								<g>
									<g>
										<polygon class="st8" points="241.16,112.48 250.72,63.79 249.32,63.52 239.71,112.48 										"/>
									</g>
								</g>
								<g>
									<g>
										<path class="st8" d="M246.91,63.66c0,1.72,1.39,3.11,3.11,3.11c1.72,0,3.11-1.39,3.11-3.11c0-1.72-1.39-3.11-3.11-3.11
											C248.3,60.55,246.91,61.94,246.91,63.66z"/>
									</g>
								</g>
							</g>
						</g>
					</g>
					<path class="st20" d="M276.47,45.91c0,8.35-2.23,16.18-6.12,22.92c-6.93,11.99-13.54,24.16-19.55,36.64l-3.39,7.03h-30.36
						c19.56-1.96,41.55-37.54,38.41-71.38c-3.22-34.78-24.53-40.78-26.02-41.11C229.88,0,230.32,0,230.76,0
						C256.02,0.11,276.47,20.62,276.47,45.91z"/>
				</g>
				<g>
					<g>
						<path class="st8" d="M249.02,114.81v4.96c0,1.28-1.04,2.31-2.31,2.31H213.8c-1.28,0-2.31-1.04-2.31-2.31v-4.96
							c0-1.28,1.04-2.31,2.31-2.31h32.91C247.98,112.5,249.02,113.53,249.02,114.81z"/>
						<path class="st5" d="M249.02,116.84v2.93c0,1.28-1.04,2.31-2.31,2.31H213.8c-1.28,0-2.31-1.04-2.31-2.31v-2.93H249.02z"/>
					</g>
					<g>
						<path class="st8" d="M249.02,124.4v4.96c0,1.15-0.83,2.1-1.93,2.28c-0.13,0.02-0.26,0.03-0.39,0.03H213.8
							c-0.13,0-0.26-0.01-0.39-0.03c-1.09-0.18-1.93-1.13-1.93-2.28v-4.96c0-1.28,1.04-2.31,2.31-2.31h32.91
							C247.98,122.08,249.02,123.12,249.02,124.4z"/>
						<path class="st5" d="M249.02,126.39v2.96c0,1.15-0.83,2.1-1.93,2.28h-33.68c-1.09-0.18-1.93-1.13-1.93-2.28v-2.96H249.02z"/>
					</g>
					<g>
						<path class="st8" d="M249.02,133.98v4.96c0,1.15-0.84,2.1-1.94,2.28c-0.12,0.02-0.25,0.03-0.38,0.03H213.8
							c-0.13,0-0.26-0.01-0.38-0.03c-1.1-0.18-1.93-1.13-1.93-2.28v-4.96c0-1.28,1.04-2.31,2.31-2.31h32.91
							C247.98,131.67,249.02,132.7,249.02,133.98z"/>
						<path class="st5" d="M249.02,135.98v2.96c0,1.15-0.84,2.1-1.94,2.28h-33.67c-1.1-0.18-1.93-1.13-1.93-2.28v-2.96H249.02z"/>
					</g>
					<path class="st5" d="M221.28,141.25c0.04,5.06,4.15,9.15,9.21,9.15c5.07,0,9.18-4.09,9.21-9.15H221.28z"/>
				</g>
			</g>
		</g>
	</g>
	<g>
		<g>
			<g>
				<g>
					<path class="st10" d="M418.54,272.15c0,2.87-2.34,5.21-5.21,5.21c-2.87,0-5.21-2.34-5.21-5.21c0-2.87,2.34-5.21,5.21-5.21
						C416.2,266.94,418.54,269.27,418.54,272.15z M409.75,272.15c0,1.97,1.6,3.58,3.58,3.58c1.97,0,3.58-1.6,3.58-3.58
						c0-1.97-1.6-3.58-3.58-3.58C411.35,268.57,409.75,270.18,409.75,272.15z"/>
				</g>
				<g>
					<path class="st9" d="M423.84,245.66c0,2.87-2.34,5.21-5.21,5.21c-2.87,0-5.21-2.34-5.21-5.21c0-2.87,2.34-5.21,5.21-5.21
						C421.5,240.45,423.84,242.79,423.84,245.66z M415.05,245.66c0,1.97,1.6,3.58,3.58,3.58c1.97,0,3.58-1.6,3.58-3.58
						c0-1.97-1.6-3.58-3.58-3.58C416.66,242.08,415.05,243.69,415.05,245.66z"/>
				</g>
				<g>
					<g>
						<g>
							<path class="st9" d="M434.48,233.11c0,0.45-0.37,0.82-0.82,0.82h-3.61c-0.45,0-0.82-0.37-0.82-0.82s0.37-0.82,0.82-0.82h3.61
								C434.12,232.29,434.48,232.66,434.48,233.11z"/>
						</g>
						<g>
							<path class="st9" d="M440.79,233.11c0,0.45-0.37,0.82-0.82,0.82h-3.61c-0.45,0-0.82-0.37-0.82-0.82s0.37-0.82,0.82-0.82h3.61
								C440.42,232.29,440.79,232.66,440.79,233.11z"/>
						</g>
					</g>
					<g>
						<g>
							<path class="st9" d="M435.83,228.05v3.24c0,0.45-0.37,0.82-0.82,0.82s-0.82-0.37-0.82-0.82v-3.24c0-0.45,0.37-0.82,0.82-0.82
								S435.83,227.6,435.83,228.05z"/>
						</g>
						<g>
							<path class="st9" d="M435.83,234.93v3.24c0,0.45-0.37,0.82-0.82,0.82s-0.82-0.37-0.82-0.82v-3.24c0-0.45,0.37-0.82,0.82-0.82
								S435.83,234.48,435.83,234.93z"/>
						</g>
					</g>
				</g>
				<g>
					<g>
						<g>
							<g>
								<path class="st14" d="M428.6,260.94c0,0.45-0.37,0.82-0.82,0.82h-3.61c-0.45,0-0.82-0.37-0.82-0.82
									c0-0.45,0.37-0.82,0.82-0.82h3.61C428.24,260.13,428.6,260.49,428.6,260.94z"/>
							</g>
							<g>
								<path class="st14" d="M434.91,260.94c0,0.45-0.37,0.82-0.82,0.82h-3.61c-0.45,0-0.82-0.37-0.82-0.82
									c0-0.45,0.37-0.82,0.82-0.82h3.61C434.55,260.13,434.91,260.49,434.91,260.94z"/>
							</g>
						</g>
						<g>
							<g>
								<path class="st14" d="M429.95,255.88v3.24c0,0.45-0.37,0.82-0.82,0.82s-0.82-0.37-0.82-0.82v-3.24
									c0-0.45,0.37-0.82,0.82-0.82S429.95,255.43,429.95,255.88z"/>
							</g>
							<g>
								<path class="st14" d="M429.95,262.77V266c0,0.45-0.37,0.82-0.82,0.82s-0.82-0.37-0.82-0.82v-3.24
									c0-0.45,0.37-0.82,0.82-0.82S429.95,262.31,429.95,262.77z"/>
							</g>
						</g>
					</g>
				</g>
			</g>
		</g>
		<g>
			<g>
				<g>
					<path class="st9" d="M31.96,98.3c0,2.87-2.34,5.21-5.21,5.21s-5.21-2.34-5.21-5.21c0-2.87,2.34-5.21,5.21-5.21
						S31.96,95.43,31.96,98.3z M30.33,98.3c0-1.97-1.6-3.58-3.58-3.58c-1.97,0-3.58,1.6-3.58,3.58c0,1.97,1.6,3.58,3.58,3.58
						C28.72,101.88,30.33,100.27,30.33,98.3z"/>
				</g>
				<g>
					<g>
						<path class="st10" d="M53.24,91.27c0,2.87-2.34,5.21-5.21,5.21c-2.87,0-5.21-2.34-5.21-5.21c0-2.87,2.34-5.21,5.21-5.21
							C50.9,86.06,53.24,88.4,53.24,91.27z M51.6,91.27c0-1.97-1.6-3.58-3.58-3.58c-1.97,0-3.58,1.6-3.58,3.58
							c0,1.97,1.6,3.58,3.58,3.58C50,94.85,51.6,93.24,51.6,91.27z"/>
					</g>
				</g>
				<g>
					<g>
						<g>
							<path class="st14" d="M53.9,68.9c-0.45,0-0.82,0.37-0.82,0.82v3.61c0,0.45,0.37,0.82,0.82,0.82s0.82-0.37,0.82-0.82v-3.61
								C54.72,69.26,54.36,68.9,53.9,68.9z"/>
						</g>
						<g>
							<path class="st14" d="M53.9,62.59c-0.45,0-0.82,0.37-0.82,0.82v3.61c0,0.45,0.37,0.82,0.82,0.82s0.82-0.37,0.82-0.82v-3.61
								C54.72,62.95,54.36,62.59,53.9,62.59z"/>
						</g>
					</g>
					<g>
						<g>
							<path class="st14" d="M58.97,67.54h-3.24c-0.45,0-0.82,0.37-0.82,0.82s0.37,0.82,0.82,0.82h3.24c0.45,0,0.82-0.37,0.82-0.82
								S59.42,67.54,58.97,67.54z"/>
						</g>
						<g>
							<path class="st14" d="M52.08,67.54h-3.24c-0.45,0-0.82,0.37-0.82,0.82s0.37,0.82,0.82,0.82h3.24c0.45,0,0.82-0.37,0.82-0.82
								S52.53,67.54,52.08,67.54z"/>
						</g>
					</g>
				</g>
				<g>
					<g>
						<g>
							<g>
								<path class="st9" d="M31.81,74.67c-0.45,0-0.82,0.37-0.82,0.82v3.61c0,0.45,0.37,0.82,0.82,0.82c0.45,0,0.82-0.37,0.82-0.82
									v-3.61C32.63,75.04,32.26,74.67,31.81,74.67z"/>
							</g>
							<g>
								<path class="st9" d="M31.81,68.36c-0.45,0-0.82,0.37-0.82,0.82v3.61c0,0.45,0.37,0.82,0.82,0.82c0.45,0,0.82-0.37,0.82-0.82
									v-3.61C32.63,68.73,32.26,68.36,31.81,68.36z"/>
							</g>
						</g>
						<g>
							<g>
								<path class="st9" d="M36.87,73.32h-3.24c-0.45,0-0.82,0.37-0.82,0.82s0.37,0.82,0.82,0.82h3.24c0.45,0,0.82-0.37,0.82-0.82
									S37.32,73.32,36.87,73.32z"/>
							</g>
							<g>
								<path class="st9" d="M29.99,73.32h-3.24c-0.45,0-0.82,0.37-0.82,0.82s0.37,0.82,0.82,0.82h3.24c0.45,0,0.82-0.37,0.82-0.82
									S30.44,73.32,29.99,73.32z"/>
							</g>
						</g>
					</g>
				</g>
			</g>
		</g>
		<g>
			<g>
				<g>
					<path class="st2" d="M306.81,61.86c0.1,0.01,0.2,0,0.3-0.04c1.03-0.44,1.64-0.64,1.64-0.64c0.32-0.11,0.49-0.45,0.38-0.76
						c-0.11-0.32-0.45-0.49-0.76-0.38c-0.03,0.01-0.65,0.22-1.73,0.67c-0.31,0.13-0.45,0.48-0.32,0.79
						C306.4,61.7,306.6,61.83,306.81,61.86z"/>
				</g>
				<g>
					<path class="st2" d="M276.02,94.26c-0.41,1.1-0.8,2.23-1.14,3.36c-0.09,0.28-0.36,0.45-0.64,0.42c-0.04,0-0.08-0.01-0.11-0.02
						c-0.32-0.1-0.5-0.44-0.4-0.75c0.36-1.16,0.75-2.31,1.17-3.43c0.12-0.31,0.46-0.47,0.78-0.35
						C275.98,93.6,276.14,93.94,276.02,94.26z"/>
					<path class="st2" d="M273.94,101.04c-0.28,1.14-0.53,2.3-0.74,3.47c-0.06,0.31-0.35,0.52-0.66,0.49c-0.02,0-0.03,0-0.05-0.01
						c-0.33-0.06-0.54-0.38-0.48-0.7c0.22-1.19,0.48-2.38,0.76-3.54c0.08-0.32,0.41-0.52,0.73-0.44
						C273.82,100.39,274.02,100.72,273.94,101.04z"/>
					<path class="st2" d="M271.39,119.28c-0.3-0.03-0.53-0.28-0.54-0.59c-0.02-1.21-0.01-2.43,0.03-3.61
						c0.01-0.33,0.29-0.6,0.62-0.59c0.34,0.01,0.6,0.29,0.59,0.62c-0.04,1.17-0.04,2.37-0.03,3.56c0.01,0.33-0.26,0.61-0.59,0.61
						C271.44,119.29,271.41,119.28,271.39,119.28z"/>
					<path class="st2" d="M272.12,107.34c0.33,0.04,0.56,0.35,0.52,0.68c-0.07,0.55-0.14,1.1-0.19,1.64
						c-0.07,0.63-0.12,1.26-0.17,1.9c-0.03,0.33-0.32,0.58-0.65,0.56c-0.01,0-0.01,0-0.02,0c-0.32-0.03-0.56-0.32-0.54-0.65
						c0.05-0.64,0.11-1.29,0.18-1.93c0.06-0.55,0.12-1.11,0.2-1.67c0.04-0.33,0.34-0.56,0.66-0.52
						C272.11,107.34,272.12,107.34,272.12,107.34z"/>
					<path class="st2" d="M277.37,90.98c-0.11,0.24-0.36,0.38-0.61,0.35c-0.06-0.01-0.12-0.02-0.18-0.05
						c-0.3-0.14-0.44-0.49-0.3-0.8c0.49-1.1,1.03-2.2,1.58-3.26c0.16-0.3,0.52-0.41,0.82-0.25c0.3,0.16,0.41,0.52,0.25,0.82
						C278.37,88.82,277.85,89.9,277.37,90.98z"/>
					<path class="st2" d="M303.9,63.31c-1.04,0.53-2.08,1.11-3.11,1.72c-0.12,0.07-0.25,0.09-0.37,0.08
						c-0.18-0.02-0.36-0.12-0.46-0.29c-0.17-0.29-0.08-0.66,0.21-0.83c1.05-0.62,2.12-1.21,3.18-1.75c0.3-0.15,0.66-0.03,0.81,0.26
						C304.31,62.8,304.19,63.16,303.9,63.31z"/>
					<path class="st2" d="M294.89,69c-0.13,0.1-0.28,0.14-0.43,0.12c-0.16-0.02-0.31-0.1-0.42-0.23c-0.2-0.27-0.15-0.64,0.11-0.85
						c0.96-0.73,1.95-1.44,2.94-2.11c0.28-0.19,0.65-0.11,0.84,0.16c0.19,0.28,0.11,0.65-0.16,0.84
						C296.8,67.59,295.83,68.29,294.89,69z"/>
					<path class="st2" d="M284.74,78.89c-0.13,0.17-0.34,0.24-0.54,0.22c-0.11-0.01-0.22-0.05-0.31-0.13
						c-0.26-0.21-0.3-0.59-0.09-0.85c0.75-0.94,1.54-1.87,2.35-2.76c0.22-0.25,0.61-0.27,0.85-0.04c0.25,0.22,0.26,0.61,0.04,0.85
						C286.25,77.07,285.48,77.97,284.74,78.89z"/>
					<path class="st2" d="M289.52,73.64c-0.13,0.13-0.31,0.19-0.48,0.17c-0.14-0.01-0.27-0.07-0.37-0.18
						c-0.23-0.24-0.23-0.62,0.01-0.85c0.86-0.84,1.76-1.66,2.67-2.45c0.25-0.22,0.63-0.19,0.85,0.06c0.22,0.25,0.19,0.63-0.06,0.85
						C291.24,72.01,290.36,72.82,289.52,73.64z"/>
					<path class="st2" d="M280.67,84.7c-0.13,0.21-0.35,0.31-0.58,0.29c-0.09-0.01-0.17-0.04-0.25-0.09
						c-0.28-0.17-0.37-0.55-0.2-0.83c0.63-1.03,1.3-2.05,1.99-3.03c0.19-0.27,0.57-0.34,0.84-0.15c0.27,0.19,0.34,0.57,0.15,0.84
						C281.94,82.69,281.28,83.69,280.67,84.7z"/>
				</g>
			</g>
			<g>
				<g>
					<polygon class="st10" points="306.82,57.72 304.18,47.93 336.57,48.21 					"/>
					<polygon class="st9" points="336.57,48.21 308.39,60.09 308.32,60.12 307.11,62.13 306.82,57.72 					"/>
					<polygon class="st14" points="307.11,62.13 309.73,61.71 308.32,60.12 					"/>
					<polygon class="st10" points="311.86,58.62 308.32,60.12 315.62,68.35 336.57,48.21 					"/>
				</g>
			</g>
		</g>
		<g>
			<g>
				<rect x="402.53" y="177.95" class="st10" width="42.12" height="30.14"/>
				<polygon class="st5" points="444.64,200.12 442.59,196.67 435.81,185.24 422.24,208.09 444.64,208.09 				"/>
				<polygon class="st8" points="419.44,208.09 402.53,208.09 410.98,194.47 419.44,180.84 427.89,194.47 436.35,208.09 				"/>
				<polygon class="st6" points="413.95,189.67 419.44,193.78 424.92,189.67 419.44,180.84 				"/>
				<polygon class="st6" points="431.19,193.02 435.81,196.67 440.43,193.02 435.81,185.24 				"/>
			</g>
		</g>
		<g>
			<g>
				<path class="st10" d="M44.22,125.68v20.3c0,1.3-1.05,2.34-2.34,2.34H21.57c-0.89,0-1.66-0.49-2.06-1.22
					c-0.04-0.08-0.08-0.16-0.1-0.24c-0.04-0.12-0.08-0.24-0.12-0.37c0-0.02-0.01-0.02-0.01-0.04c0-0.02-0.01-0.04-0.01-0.06
					c-0.02-0.14-0.04-0.27-0.04-0.42v-20.3c0-1.22,0.92-2.21,2.09-2.34c0.08,0,0.17-0.01,0.25-0.01h20.31c0.24,0,0.47,0.03,0.69,0.1
					c0,0,0,0,0.01,0C43.53,123.74,44.22,124.62,44.22,125.68z"/>
			</g>
			<g>
				<path class="st6" d="M37.52,136.79c-1.84-3.44-3.82-6.57-5.43-10.43v5.58c0.52,0.16,0.91,0.65,0.91,1.22
					c0,0.71-0.57,1.28-1.28,1.28c-0.7,0-1.28-0.57-1.28-1.28c0-0.57,0.38-1.06,0.91-1.22v-5.58c-1.6,3.85-2.99,5.38-5.43,10.43
					l3.87,3.91h1.93h1.87L37.52,136.79z"/>
				<rect x="29.78" y="141.94" class="st6" width="3.81" height="2.09"/>
			</g>
		</g>
		<g>
			<g>
				<path class="st9" d="M373.44,66.12v19.13c0,1.23-0.99,2.21-2.21,2.21h-19.14c-0.84,0-1.57-0.46-1.94-1.15
					c-0.04-0.08-0.08-0.15-0.1-0.23c-0.04-0.11-0.08-0.23-0.11-0.35c0-0.02-0.01-0.02-0.01-0.04s-0.01-0.04-0.01-0.05
					c-0.02-0.13-0.04-0.26-0.04-0.39V66.12c0-1.15,0.87-2.08,1.97-2.2c0.08,0,0.16-0.01,0.23-0.01h19.14c0.23,0,0.45,0.03,0.65,0.1
					c0,0,0,0,0.01,0C372.78,64.29,373.44,65.12,373.44,66.12z"/>
			</g>
			<g>
				<g>
					<path class="st6" d="M361.68,67.17c-0.05,0-0.09,0-0.14,0c-2.62,0.06-4.75,2.22-4.75,4.87c0,0.89,0.24,1.73,0.66,2.45
						c0.67,1.15,1.31,2.32,1.89,3.52l0.53,1.09h0.35h3.22l0.36-0.75c0.64-1.32,1.34-2.61,2.07-3.88c0.41-0.72,0.65-1.54,0.65-2.43
						C366.52,69.35,364.36,67.18,361.68,67.17z"/>
					<path class="st6" d="M363.45,80.45h-3.59v1.2c0,0.99,0.8,1.79,1.79,1.79l0,0c0.99,0,1.79-0.8,1.79-1.79V80.45z"/>
				</g>
			</g>
		</g>
	</g>
	<g>
		<path class="st10" d="M284.74,343.31h-21.52c-2.93,0-5.52-1.88-6.42-4.67l-9.13-28.09c-0.37-1.15,0.43-2.34,1.63-2.44
			c16.61-1.29,33.07-1.29,49.35,0c1.2,0.1,2,1.29,1.63,2.44l-9.13,28.09C290.26,341.43,287.66,343.31,284.74,343.31z"/>
		<path class="st5" d="M298.38,310.16c0,0.75-10.86,1.35-24.25,1.35c-13.39,0-24.25-0.61-24.25-1.35c0-0.75,10.86-1.35,24.25-1.35
			C287.52,308.81,298.38,309.41,298.38,310.16z"/>
		<g>
			<g>
				<path class="st14" d="M275,290.21c0,0-0.24-15.69-19.99-18.12C255.01,272.09,255.71,294.32,275,290.21z"/>
			</g>
			<g>
				<path class="st14" d="M272.84,271.6c0,0,1.97-15.56,21.87-15.8C294.71,255.8,291.56,277.82,272.84,271.6z"/>
			</g>
			<g>
				<path class="st9" d="M272.84,258.97V310c0.82,0.23,1.59,0.23,2.27,0v-51.03c0-0.63-0.51-1.14-1.14-1.14l0,0
					C273.35,257.83,272.84,258.34,272.84,258.97z"/>
			</g>
			<g>
				<path class="st9" d="M273.68,272.57c0,0,11.61,11,24.88-10.42C298.56,262.15,275.57,257.55,273.68,272.57z"/>
			</g>
			<g>
				<path class="st9" d="M274.48,289.93c0,0,12.96,9.36,23.28-13.63C297.76,276.29,274.36,274.78,274.48,289.93z"/>
			</g>
			<g>
				<path class="st9" d="M273.98,291.91c0,0-0.46-15.98-24.98-10.19C249,281.73,262.03,301.22,273.98,291.91z"/>
			</g>
			<g>
				<path class="st9" d="M275.16,271.77c0,0-0.06-15.99-24.72-10.8C250.43,260.97,262.99,280.78,275.16,271.77z"/>
			</g>
		</g>
	</g>
	<g>
		<g>
			<path class="st9" d="M13.45,334.36L10,333.53c-2.81-0.67-4.54-3.49-3.86-6.3l23.39-97.51l13.61,3.26l-23.38,97.51
				C19.07,333.3,16.25,335.03,13.45,334.36z"/>
			
				<rect x="31.76" y="210.75" transform="matrix(0.9724 0.2332 -0.2332 0.9724 52.6532 -2.9401)" class="st10" width="13.99" height="20.89"/>
			<path class="st6" d="M57.02,196.15c-0.87,5.66-3.46,11.45-9.02,16.52l-13.61-3.26c0,0-3.43-9.03,0.02-16.12
				c0.77-1.57,1.55-2.83,2.34-3.84c0,0,0,0,0.01,0c6.37-8.23,13.03-0.75,14.42-19.99C51.17,169.46,59.14,182.41,57.02,196.15z"/>
			<path class="st9" d="M57.02,196.15c-3.99,3.59-10.72-2.4-12.87-5.38c-2.57-3.56-7.21-1.41-7.39-1.32
				c6.37-8.23,13.03-0.75,14.42-19.99C51.17,169.46,59.14,182.41,57.02,196.15z"/>
		</g>
	</g>
</g>
<g id="DESIGNED_BY_FREEPIK" class="st0">
	<g class="st21">
		<g id="XMLID_1_">
			<g id="XMLID_20_">
				<path id="XMLID_28_" class="st22" d="M237.41,397.89c-0.43,0.44-0.8,0.93-1.11,1.45l-0.47-0.24c-0.07-0.3-0.35-0.5-0.66-0.47
					c-0.33,0.04-0.57,0.34-0.53,0.67c0.04,0.33,0.34,0.57,0.67,0.53c0.07-0.01,0.13-0.03,0.18-0.05l0.45,0.23
					c-0.25,0.55-0.43,1.14-0.54,1.74l0.75,0.13c0.23-1.31,0.85-2.51,1.79-3.47L237.41,397.89z"/>
				<path id="XMLID_27_" class="st22" d="M242.89,395.58c-0.17,0-0.34,0.01-0.51,0.02l-0.07-0.63c0.19-0.15,0.3-0.39,0.27-0.64
					c-0.05-0.39-0.4-0.67-0.8-0.63c-0.39,0.05-0.67,0.4-0.63,0.8c0.03,0.25,0.19,0.46,0.4,0.56l0.07,0.62
					c-0.71,0.12-1.4,0.33-2.06,0.65l0.33,0.68c0.93-0.45,1.94-0.67,3-0.67c0.5,0,0.99,0.05,1.48,0.16l0.16-0.74
					C243.99,395.64,243.44,395.58,242.89,395.58z"/>
				<path id="XMLID_26_" class="st22" d="M249.5,398.13c0.33-0.04,0.57-0.34,0.53-0.67c-0.04-0.33-0.34-0.57-0.67-0.53
					c-0.31,0.04-0.54,0.3-0.53,0.61l-0.42,0.36c-0.42-0.43-0.89-0.81-1.41-1.14l-0.4,0.64c1.13,0.71,2.02,1.73,2.56,2.93l0.69-0.31
					c-0.25-0.55-0.57-1.07-0.94-1.55l0.4-0.35C249.37,398.14,249.43,398.14,249.5,398.13z"/>
				<path id="XMLID_25_" class="st22" d="M242.35,405.79c-0.39,0.02-0.78,0.03-1.16,0.03c-0.88,0-1.73-0.06-2.48-0.18
					c-0.39-0.06-0.85-0.15-1.27-0.29c1.05,1.86,3.07,3.13,5.39,3.13c2.86,0,5.26-1.92,5.95-4.5c-0.68,0.45-1.51,0.83-2.46,1.12
					C245.14,405.47,243.76,405.71,242.35,405.79z"/>
				<path id="XMLID_21_" class="st22" d="M242.89,397.1c-3.35,0-6.08,2.67-6.08,5.94c0,0.43,0.05,0.85,0.14,1.26
					c0.67,0.48,2.71,0.89,5.35,0.73c2.88-0.17,5.3-0.96,6.67-2.16c-0.01-0.2-0.02-0.39-0.05-0.58
					C248.54,399.33,245.95,397.1,242.89,397.1z M240.73,403.62c-1.02,0-1.85-0.83-1.85-1.85c0-1.02,0.83-1.85,1.85-1.85
					c1.02,0,1.85,0.83,1.85,1.85C242.58,402.79,241.75,403.62,240.73,403.62z M245.47,402.71c-0.75,0-1.36-0.61-1.36-1.36
					c0-0.75,0.61-1.36,1.36-1.36c0.75,0,1.36,0.61,1.36,1.36C246.83,402.1,246.22,402.71,245.47,402.71z"/>
			</g>
			<path id="XMLID_18_" class="st22" d="M258.9,398.97c-0.29-0.12-0.81-0.31-1.38-0.24c-0.55,0.07-0.84,0.34-0.84,1.01v0.87h2.23
				v1.72h-2.23v5.45h-1.93v-5.45h-1.34v-1.72h1.34v-0.89c0-1.68,0.9-2.78,2.57-2.78c0.64,0,1.16,0.12,1.59,0.31L258.9,398.97z"/>
			<path id="XMLID_16_" class="st22" d="M263.6,402.3c-0.18-0.03-0.36-0.05-0.53-0.05c-0.9,0-1.51,0.55-1.51,1.61v3.91h-1.93v-7.17
				h1.87v0.78c0.45-0.67,1.14-0.98,2.02-0.98c0.41,0,0.85,0.13,1.09,0.34L263.6,402.3z"/>
			<path id="XMLID_13_" class="st22" d="M271.27,404.18c0,0.22-0.01,0.49-0.04,0.65h-5.08c0.21,1.04,0.93,1.49,1.84,1.49
				c0.62,0,1.3-0.25,1.81-0.69l1.13,1.24c-0.81,0.75-1.85,1.09-3.06,1.09c-2.2,0-3.72-1.5-3.72-3.75c0-2.26,1.48-3.8,3.63-3.8
				C269.85,400.41,271.26,401.94,271.27,404.18z M266.15,403.51h3.18c-0.18-0.92-0.73-1.44-1.56-1.44
				C266.86,402.08,266.32,402.62,266.15,403.51z"/>
			<path id="XMLID_10_" class="st22" d="M278.92,404.18c0,0.22-0.02,0.49-0.04,0.65h-5.08c0.21,1.04,0.93,1.49,1.84,1.49
				c0.62,0,1.3-0.25,1.81-0.69l1.13,1.24c-0.81,0.75-1.85,1.09-3.06,1.09c-2.2,0-3.72-1.5-3.72-3.75c0-2.26,1.48-3.8,3.63-3.8
				C277.5,400.41,278.91,401.94,278.92,404.18z M273.81,403.51h3.18c-0.18-0.92-0.73-1.44-1.56-1.44
				C274.51,402.08,273.98,402.62,273.81,403.51z"/>
			<path id="XMLID_7_" class="st22" d="M287.27,404.19c0,2.15-1.5,3.77-3.47,3.77c-0.96,0-1.64-0.38-2.11-0.93v3.71h-1.92V400.6
				h1.89v0.79c0.47-0.58,1.15-0.98,2.14-0.98C285.77,400.41,287.27,402.03,287.27,404.19z M281.59,404.19
				c0,1.13,0.75,1.98,1.84,1.98c1.14,0,1.85-0.88,1.85-1.98c0-1.1-0.71-1.98-1.85-1.98C282.34,402.21,281.59,403.05,281.59,404.19z"
				/>
			<path id="XMLID_4_" class="st22" d="M290.37,398.26c0,0.7-0.54,1.23-1.24,1.23c-0.7,0-1.23-0.53-1.23-1.23
				c0-0.7,0.53-1.24,1.23-1.24C289.83,397.01,290.37,397.56,290.37,398.26z M290.11,407.78h-1.93v-7.17h1.93V407.78z"/>
			<path id="XMLID_2_" class="st22" d="M293.33,403.16l2.7-2.55h2.37l-3.48,3.38l3.5,3.8h-2.38l-2.72-2.9v2.9h-1.93v-10.66h1.93
				V403.16z"/>
		</g>
		<g>
			<path class="st22" d="M161.71,407.71v-1.05c-0.53,0.72-1.39,1.23-2.39,1.23c-1.85,0-3.15-1.41-3.15-3.71
				c0-2.26,1.29-3.72,3.15-3.72c0.95,0,1.82,0.47,2.39,1.25v-3.76h1.1v9.77H161.71z M161.71,405.79v-3.21
				c-0.4-0.62-1.24-1.14-2.12-1.14c-1.42,0-2.27,1.17-2.27,2.74c0,1.57,0.85,2.72,2.27,2.72
				C160.47,406.9,161.32,406.41,161.71,405.79z"/>
			<path class="st22" d="M164.23,404.17c0-2.05,1.46-3.71,3.49-3.71c2.14,0,3.4,1.67,3.4,3.79v0.28h-5.73
				c0.09,1.33,1.03,2.45,2.55,2.45c0.81,0,1.63-0.32,2.18-0.89l0.53,0.72c-0.7,0.7-1.65,1.08-2.81,1.08
				C165.74,407.89,164.23,406.38,164.23,404.17z M167.7,401.37c-1.51,0-2.26,1.27-2.31,2.36h4.64
				C170.02,402.67,169.32,401.37,167.7,401.37z"/>
			<path class="st22" d="M171.91,406.77l0.57-0.79c0.47,0.54,1.36,1.01,2.33,1.01c1.08,0,1.67-0.51,1.67-1.22
				c0-1.71-4.38-0.66-4.38-3.28c0-1.1,0.95-2.04,2.64-2.04c1.2,0,2.05,0.45,2.62,1.03l-0.51,0.76c-0.42-0.51-1.2-0.89-2.11-0.89
				c-0.97,0-1.57,0.48-1.57,1.11c0,1.55,4.38,0.53,4.38,3.28c0,1.19-0.95,2.14-2.78,2.14C173.61,407.89,172.63,407.53,171.91,406.77
				z"/>
			<path class="st22" d="M178.78,398.89c0-0.41,0.34-0.75,0.73-0.75c0.41,0,0.75,0.34,0.75,0.75c0,0.41-0.34,0.73-0.75,0.73
				C179.12,399.62,178.78,399.3,178.78,398.89z M178.97,407.71v-7.07h1.1v7.07H178.97z"/>
			<path class="st22" d="M181.88,409.53l0.56-0.82c0.59,0.7,1.29,0.97,2.3,0.97c1.17,0,2.27-0.57,2.27-2.12v-1.01
				c-0.51,0.72-1.38,1.26-2.37,1.26c-1.85,0-3.15-1.38-3.15-3.66c0-2.27,1.29-3.68,3.15-3.68c0.95,0,1.8,0.47,2.37,1.25v-1.07h1.1
				v6.87c0,2.34-1.64,3.08-3.37,3.08C183.54,410.58,182.72,410.35,181.88,409.53z M187.01,405.67v-3.09
				c-0.38-0.62-1.23-1.14-2.11-1.14c-1.42,0-2.27,1.13-2.27,2.7c0,1.55,0.85,2.7,2.27,2.7
				C185.78,406.83,186.63,406.29,187.01,405.67z"/>
			<path class="st22" d="M194.71,407.71v-4.63c0-1.24-0.63-1.64-1.58-1.64c-0.86,0-1.68,0.53-2.09,1.1v5.17h-1.1v-7.07h1.1v1.03
				c0.5-0.59,1.46-1.2,2.52-1.2c1.48,0,2.26,0.75,2.26,2.29v4.97H194.71z"/>
			<path class="st22" d="M197.23,404.17c0-2.05,1.46-3.71,3.49-3.71c2.14,0,3.4,1.67,3.4,3.79v0.28h-5.73
				c0.09,1.33,1.03,2.45,2.55,2.45c0.81,0,1.63-0.32,2.18-0.89l0.53,0.72c-0.7,0.7-1.66,1.08-2.81,1.08
				C198.74,407.89,197.23,406.38,197.23,404.17z M200.71,401.37c-1.51,0-2.26,1.27-2.31,2.36h4.64
				C203.02,402.67,202.32,401.37,200.71,401.37z"/>
			<path class="st22" d="M210.65,407.71v-1.05c-0.53,0.72-1.39,1.23-2.39,1.23c-1.85,0-3.15-1.41-3.15-3.71
				c0-2.26,1.29-3.72,3.15-3.72c0.95,0,1.82,0.47,2.39,1.25v-3.76h1.1v9.77H210.65z M210.65,405.79v-3.21
				c-0.4-0.62-1.25-1.14-2.12-1.14c-1.42,0-2.27,1.17-2.27,2.74c0,1.57,0.85,2.72,2.27,2.72
				C209.41,406.9,210.26,406.41,210.65,405.79z"/>
			<path class="st22" d="M216.99,407.71v-9.77h1.1v3.76c0.57-0.78,1.42-1.25,2.39-1.25c1.85,0,3.15,1.46,3.15,3.72
				c0,2.3-1.3,3.71-3.15,3.71c-1,0-1.86-0.51-2.39-1.23v1.05H216.99z M220.2,406.9c1.44,0,2.29-1.16,2.29-2.72
				c0-1.57-0.85-2.74-2.29-2.74c-0.86,0-1.73,0.53-2.11,1.14v3.21C218.47,406.41,219.34,406.9,220.2,406.9z"/>
			<path class="st22" d="M224.83,409.48c0.16,0.07,0.43,0.12,0.6,0.12c0.48,0,0.81-0.16,1.05-0.75l0.47-1.07l-2.96-7.15h1.19
				l2.36,5.8l2.34-5.8h1.2l-3.54,8.51c-0.42,1.03-1.14,1.42-2.08,1.44c-0.23,0-0.6-0.04-0.81-0.1L224.83,409.48z"/>
		</g>
	</g>
</g>
</svg>
