<svg width="310" height="310" viewBox="0 0 310 310" fill="none" xmlns="http://www.w3.org/2000/svg">
<circle cx="155" cy="155" r="155" fill="#F7F7F7"/>
<path fill-rule="evenodd" clip-rule="evenodd" d="M209.279 187C214.82 177.621 218 166.682 218 155C218 120.206 189.794 92 155 92C120.206 92 92 120.206 92 155C92 166.682 95.1796 177.621 100.721 187H209.279Z" fill="white"/>
<path d="M107.365 224.48C109.365 222.52 111.935 221.54 115.075 221.54C118.215 221.54 120.775 222.52 122.755 224.48C124.755 226.44 125.755 228.95 125.755 232.01C125.755 235.07 124.755 237.58 122.755 239.54C120.775 241.48 118.215 242.45 115.075 242.45C111.935 242.45 109.365 241.48 107.365 239.54C105.385 237.58 104.395 235.07 104.395 232.01C104.395 228.95 105.385 226.44 107.365 224.48ZM110.275 236.99C111.515 238.27 113.115 238.91 115.075 238.91C117.035 238.91 118.635 238.27 119.875 236.99C121.115 235.69 121.735 234.03 121.735 232.01C121.735 229.99 121.105 228.33 119.845 227.03C118.605 225.73 117.015 225.08 115.075 225.08C113.135 225.08 111.535 225.73 110.275 227.03C109.035 228.33 108.415 229.99 108.415 232.01C108.415 234.03 109.035 235.69 110.275 236.99ZM130.039 230.42C131.359 229.2 133.109 228.59 135.289 228.59C137.469 228.59 139.219 229.2 140.539 230.42C141.999 231.74 142.729 233.44 142.729 235.52C142.729 237.58 141.999 239.27 140.539 240.59C139.219 241.81 137.469 242.42 135.289 242.42C133.109 242.42 131.359 241.81 130.039 240.59C128.579 239.27 127.849 237.58 127.849 235.52C127.849 233.44 128.579 231.74 130.039 230.42ZM132.679 238.1C133.379 238.82 134.249 239.18 135.289 239.18C136.329 239.18 137.199 238.82 137.899 238.1C138.599 237.38 138.949 236.52 138.949 235.52C138.949 234.5 138.599 233.63 137.899 232.91C137.199 232.19 136.329 231.83 135.289 231.83C134.249 231.83 133.379 232.19 132.679 232.91C131.979 233.63 131.629 234.5 131.629 235.52C131.629 236.52 131.979 237.38 132.679 238.1ZM146.79 230.42C148.11 229.2 149.86 228.59 152.04 228.59C154.22 228.59 155.97 229.2 157.29 230.42C158.75 231.74 159.48 233.44 159.48 235.52C159.48 237.58 158.75 239.27 157.29 240.59C155.97 241.81 154.22 242.42 152.04 242.42C149.86 242.42 148.11 241.81 146.79 240.59C145.33 239.27 144.6 237.58 144.6 235.52C144.6 233.44 145.33 231.74 146.79 230.42ZM149.43 238.1C150.13 238.82 151 239.18 152.04 239.18C153.08 239.18 153.95 238.82 154.65 238.1C155.35 237.38 155.7 236.52 155.7 235.52C155.7 234.5 155.35 233.63 154.65 232.91C153.95 232.19 153.08 231.83 152.04 231.83C151 231.83 150.13 232.19 149.43 232.91C148.73 233.63 148.38 234.5 148.38 235.52C148.38 236.52 148.73 237.38 149.43 238.1ZM163.541 230.42C164.861 229.2 166.611 228.59 168.791 228.59C170.971 228.59 172.721 229.2 174.041 230.42C175.501 231.74 176.231 233.44 176.231 235.52C176.231 237.58 175.501 239.27 174.041 240.59C172.721 241.81 170.971 242.42 168.791 242.42C166.611 242.42 164.861 241.81 163.541 240.59C162.081 239.27 161.351 237.58 161.351 235.52C161.351 233.44 162.081 231.74 163.541 230.42ZM166.181 238.1C166.881 238.82 167.751 239.18 168.791 239.18C169.831 239.18 170.701 238.82 171.401 238.1C172.101 237.38 172.451 236.52 172.451 235.52C172.451 234.5 172.101 233.63 171.401 232.91C170.701 232.19 169.831 231.83 168.791 231.83C167.751 231.83 166.881 232.19 166.181 232.91C165.481 233.63 165.131 234.5 165.131 235.52C165.131 236.52 165.481 237.38 166.181 238.1ZM182.421 240.32V248.87H178.761V229.01H182.421V230.69C183.401 229.29 184.811 228.59 186.651 228.59C188.451 228.59 189.931 229.17 191.091 230.33C192.391 231.63 193.041 233.35 193.041 235.49C193.041 237.69 192.361 239.44 191.001 240.74C189.801 241.86 188.331 242.42 186.591 242.42C184.851 242.42 183.461 241.72 182.421 240.32ZM185.661 231.83C184.721 231.83 183.931 232.12 183.291 232.7C182.471 233.4 182.061 234.33 182.061 235.49C182.061 236.67 182.461 237.61 183.261 238.31C183.921 238.89 184.721 239.18 185.661 239.18C186.641 239.18 187.461 238.87 188.121 238.25C188.881 237.55 189.261 236.63 189.261 235.49C189.261 234.37 188.891 233.46 188.151 232.76C187.471 232.14 186.641 231.83 185.661 231.83ZM204.158 229.97L202.358 232.1C201.738 231.52 201.028 231.23 200.228 231.23C199.788 231.23 199.438 231.33 199.178 231.53C198.938 231.71 198.818 231.96 198.818 232.28C198.818 232.8 199.208 233.19 199.988 233.45L200.858 233.72C202.558 234.26 203.658 234.88 204.158 235.58C204.598 236.18 204.818 236.9 204.818 237.74C204.818 239.06 204.338 240.16 203.378 241.04C202.378 241.96 201.078 242.42 199.478 242.42C197.458 242.42 195.778 241.7 194.438 240.26L196.358 238.04C197.218 239.04 198.178 239.54 199.238 239.54C199.758 239.54 200.188 239.42 200.528 239.18C200.868 238.92 201.038 238.57 201.038 238.13C201.038 237.53 200.658 237.09 199.898 236.81L199.058 236.51C197.758 236.05 196.828 235.53 196.268 234.95C195.608 234.25 195.278 233.42 195.278 232.46C195.278 231.26 195.728 230.28 196.628 229.52C197.408 228.9 198.538 228.59 200.018 228.59C201.578 228.59 202.958 229.05 204.158 229.97ZM211.007 235.91H207.287V221.99H211.007V235.91ZM207.467 241.73C207.027 241.27 206.807 240.71 206.807 240.05C206.807 239.39 207.027 238.84 207.467 238.4C207.927 237.94 208.487 237.71 209.147 237.71C209.807 237.71 210.357 237.94 210.797 238.4C211.257 238.84 211.487 239.39 211.487 240.05C211.487 240.71 211.257 241.27 210.797 241.73C210.357 242.17 209.807 242.39 209.147 242.39C208.487 242.39 207.927 242.17 207.467 241.73Z" fill="#3C3700"/>
<rect x="133.24" y="110.143" width="36.0602" height="77.0376" rx="5" fill="white"/>
<rect x="145.533" y="90.4736" width="11.4737" height="20.4887" fill="white"/>
<rect x="145.533" y="79.8196" width="11.4737" height="10.6541" rx="3" fill="#A09B82"/>
<path d="M134.06 177.346H169.3V181.361C169.3 184.122 167.062 186.361 164.3 186.361H139.06C136.298 186.361 134.06 184.122 134.06 181.361V177.346Z" fill="#9B3717"/>
<path d="M142.683 188H124.891C124.207 188 123.751 187.542 123.751 186.854C123.751 186.166 124.207 185.708 124.891 185.708H142.683C143.368 185.708 143.824 186.166 143.824 186.854C143.824 187.542 143.368 188 142.683 188Z" fill="#3C3700"/>
<g clip-path="url(#clip0)">
<path d="M143.552 148.662C143.666 151.618 143.78 154.233 143.893 155.483C144.234 163.101 139.914 168.331 134.115 168.331C128.317 168.331 123.883 163.101 124.338 155.483C124.451 154.119 124.565 151.618 124.679 148.662" fill="#9B3717"/>
</g>
<g clip-path="url(#clip1)">
<path d="M189.56 161.774C189.636 163.745 189.712 165.488 189.788 166.322C190.015 171.401 187.135 174.887 183.269 174.887C179.404 174.887 176.448 171.401 176.751 166.322C176.827 165.413 176.902 163.745 176.978 161.774" fill="#9B3717"/>
</g>
<path d="M133.787 188C133.102 188 132.646 187.542 132.646 186.854V166.452C130.251 166.223 127.97 165.077 126.374 163.243C123.864 160.607 122.61 156.71 122.838 152.354C123.066 148.114 123.75 130.807 123.75 130.807V129.66H143.709V130.807C143.709 131.036 144.508 148.228 144.622 152.354C144.85 156.71 143.595 160.607 141.086 163.243C139.375 165.077 137.208 166.108 134.813 166.452V186.854C134.927 187.427 134.471 188 133.787 188ZM126.031 131.953C125.803 135.85 125.347 148.916 125.119 152.469C124.891 156.251 125.917 159.461 127.97 161.638C129.567 163.243 131.506 164.16 133.787 164.16C136.068 164.16 138.007 163.243 139.603 161.638C141.656 159.461 142.683 156.251 142.455 152.469C142.227 148.916 141.77 135.85 141.542 131.953H126.031Z" fill="#3C3700"/>
<path d="M143.368 146.624H124.321C123.637 146.624 123.181 146.165 123.181 145.477C123.181 144.79 123.637 144.331 124.321 144.331H143.368C144.052 144.331 144.508 144.79 144.508 145.477C144.508 146.165 143.938 146.624 143.368 146.624Z" fill="#3C3700"/>
<path d="M189.216 188H177.013C176.328 188 175.872 187.541 175.872 186.854C175.872 186.166 176.328 185.708 177.013 185.708H189.216C189.9 185.708 190.356 186.166 190.356 186.854C190.356 187.541 189.9 188 189.216 188Z" fill="#3C3700"/>
<path d="M183.172 188C182.488 188 182.032 187.541 182.032 186.854V173.1C180.435 172.871 178.952 172.068 177.812 170.807C175.987 168.974 175.189 166.223 175.303 163.014C175.417 160.148 175.987 148.113 175.987 148.113V146.967H190.357V148.113C190.357 148.113 190.814 160.034 191.042 163.014C191.156 166.108 190.357 168.859 188.533 170.807C187.392 172.068 185.909 172.756 184.313 173.1V186.854C184.313 187.427 183.742 188 183.172 188ZM178.04 149.374C177.926 152.354 177.584 160.836 177.47 163.128C177.356 165.65 178.04 167.713 179.408 169.203C180.435 170.234 181.689 170.807 183.172 170.807C184.655 170.807 185.909 170.234 186.936 169.203C188.304 167.827 188.989 165.65 188.875 163.128C188.761 160.721 188.418 152.354 188.304 149.374H178.04Z" fill="#3C3700"/>
<path d="M189.673 159.575H176.557C175.873 159.575 175.417 159.117 175.417 158.429C175.417 157.741 175.873 157.283 176.557 157.283H189.673C190.358 157.283 190.814 157.741 190.814 158.429C190.814 159.117 190.244 159.575 189.673 159.575Z" fill="#3C3700"/>
<path d="M164.81 188H138.122C135.157 188 132.647 185.593 132.647 182.498V165.306C132.647 164.618 133.104 164.16 133.788 164.16C134.472 164.16 134.928 164.618 134.928 165.306V182.498C134.928 184.218 136.297 185.708 138.122 185.708H164.81C166.52 185.708 168.003 184.332 168.003 182.498V115.104C168.003 113.385 166.635 111.895 164.81 111.895H138.122C136.411 111.895 134.928 113.27 134.928 115.104V130.807C134.928 131.494 134.472 131.953 133.788 131.953C133.104 131.953 132.647 131.494 132.647 130.807V115.104C132.647 112.124 135.043 109.603 138.122 109.603H164.81C167.775 109.603 170.284 112.009 170.284 115.104V182.498C170.284 185.478 167.889 188 164.81 188Z" fill="#3C3700"/>
<path d="M158.309 112.009H144.737V82.3239C144.737 80.49 146.22 79 148.045 79H155.002C156.827 79 158.309 80.49 158.309 82.3239V112.009ZM147.018 109.717H156.028V82.3239C156.028 81.7508 155.572 81.2923 155.002 81.2923H148.045C147.475 81.2923 147.018 81.7508 147.018 82.3239V109.717Z" fill="#3C3700"/>
<path d="M158.309 99.4017H144.737V89.5447H158.309V99.4017ZM147.018 97.1093H156.028V91.837H147.018V97.1093Z" fill="#3C3700"/>
<path d="M162.415 120.72C161.731 120.72 161.274 120.262 161.274 119.574V117.282C161.274 116.594 161.731 116.136 162.415 116.136C163.099 116.136 163.555 116.594 163.555 117.282V119.574C163.555 120.147 163.099 120.72 162.415 120.72Z" fill="#3C3700"/>
<path d="M162.415 126.91C161.731 126.91 161.274 126.451 161.274 125.763V124.159C161.274 123.471 161.731 123.013 162.415 123.013C163.099 123.013 163.555 123.471 163.555 124.159V125.763C163.555 126.451 163.099 126.91 162.415 126.91Z" fill="#3C3700"/>
<path d="M162.415 133.786C161.731 133.786 161.274 133.328 161.274 132.64V130.463C161.274 129.775 161.731 129.316 162.415 129.316C163.099 129.316 163.555 129.775 163.555 130.463V132.64C163.555 133.213 163.099 133.786 162.415 133.786Z" fill="#3C3700"/>
<path d="M162.415 181.008C161.731 181.008 161.274 180.55 161.274 179.862V138.371C161.274 137.684 161.731 137.225 162.415 137.225C163.099 137.225 163.555 137.684 163.555 138.371V179.862C163.555 180.435 163.099 181.008 162.415 181.008Z" fill="#3C3700"/>
<path d="M183.318 126.955L187.955 131.592" stroke="#EDEDEC" stroke-width="2" stroke-linecap="round" stroke-linejoin="round"/>
<path d="M183.318 131.592L187.955 126.955" stroke="#EDEDEC" stroke-width="2" stroke-linecap="round" stroke-linejoin="round"/>
<g opacity="0.4">
<path d="M120.101 188.087H111.433C110.749 188.087 110.293 187.669 110.293 187.043C110.293 186.417 110.749 186 111.433 186H120.101C120.786 186 121.242 186.417 121.242 187.043C121.242 187.669 120.672 188.087 120.101 188.087Z" fill="#3C3700"/>
</g>
<g opacity="0.4">
<path d="M201.766 188.087H195.379C194.694 188.087 194.238 187.669 194.238 187.043C194.238 186.417 194.694 186 195.379 186H201.766C202.45 186 202.906 186.417 202.906 187.043C202.906 187.669 202.336 188.087 201.766 188.087Z" fill="#3C3700"/>
</g>
<path opacity="0.4" d="M172.26 188.087H124.894C124.21 188.087 123.754 187.669 123.754 187.043C123.754 186.417 124.21 186 124.894 186L172.26 186C172.944 186 173.401 186.417 173.401 187.043C173.401 187.669 172.944 188.087 172.26 188.087Z" fill="#3C3700"/>
<path d="M218.5 96V107" stroke="#EDEDEC" stroke-width="2" stroke-linecap="round" stroke-linejoin="round"/>
<path d="M213 101.5L224 101.5" stroke="#EDEDEC" stroke-width="2" stroke-linecap="round" stroke-linejoin="round"/>
<path d="M90.1367 91.1367L96.4102 97.4102" stroke="#EDEDEC" stroke-width="2" stroke-linecap="round" stroke-linejoin="round"/>
<path d="M90.1367 97.4102L96.4102 91.1367" stroke="#EDEDEC" stroke-width="2" stroke-linecap="round" stroke-linejoin="round"/>
<defs>
<clipPath id="clip0">
<rect x="124.224" y="148.662" width="19.6692" height="19.6692" fill="white"/>
</clipPath>
<clipPath id="clip1">
<rect x="176.675" y="161.774" width="13.1128" height="13.1128" fill="white"/>
</clipPath>
</defs>
</svg>
