<svg width="64" height="41" viewBox="0 0 64 41" fill="none" xmlns="http://www.w3.org/2000/svg">
<g clip-path="url(#clip0)">
<path d="M64 38.8036C64 40.0064 63.0303 41 61.8565 41H2.14354C0.969697 41 0 40.0064 0 38.8036V2.19643C0 0.993622 0.969697 0 2.14354 0H61.9075C63.0813 0 64.051 0.993622 64.051 2.19643V38.8036H64Z" fill="white"/>
<path d="M19.8537 19.5586V18.8787L19.5475 19.5586H16.8936L16.5873 18.8264V19.5063H11.6368L11.0754 18.0943H10.1057L9.49324 19.5063H6.94141V15.218L8.82976 10.8774H12.4534L12.9637 12.1325V10.9297H17.3529L18.3226 13.0216L19.2923 10.9297H33.2253C33.2253 10.9297 33.9398 10.9297 34.4502 11.2435V10.9297H37.9717V11.4004C37.9717 11.4004 38.5841 10.9297 39.5538 10.9297C40.4725 10.9297 45.7293 10.9297 45.7293 10.9297L46.2907 12.1848V10.9297H50.2715L50.9861 12.1848V10.9297H54.7628V19.6109H50.884L49.9653 18.0943V19.6109H44.9127L44.2492 18.042H43.2795L42.616 19.6109H39.707C39.707 19.6109 38.6352 19.6109 37.8186 18.9833C37.8186 19.2971 37.8186 19.6109 37.8186 19.6109H32.0004C32.0004 19.6109 32.0004 17.8851 32.0004 17.5713C32.0004 17.2575 31.7963 17.3098 31.7963 17.3098H31.5921V19.6109H19.8537V19.5586Z" fill="white"/>
<path d="M16.9443 21.4412H24.5998L25.7226 22.7486L26.8455 21.4412H32.7147C32.7147 21.4412 33.2761 21.4412 33.7864 21.7549V21.4412C33.7864 21.4412 38.3797 21.4412 39.0432 21.4412C39.7067 21.4412 40.2681 21.8072 40.2681 21.8072V21.4412H47.0049V21.7549C47.0049 21.7549 47.4643 21.4412 48.1277 21.4412C48.7912 21.4412 52.5169 21.4412 52.5169 21.4412V21.7549C52.5169 21.7549 53.0783 21.4412 53.6397 21.4412C54.2011 21.4412 57.1102 21.4412 57.1102 21.4412V29.5993C57.1102 29.5993 56.6509 30.1223 55.7322 30.1223H51.19V29.8608C51.19 29.8608 50.7817 30.1223 50.1182 30.1223C49.4547 30.1223 38.0225 30.1223 38.0225 30.1223C38.0225 30.1223 38.0225 28.2396 38.0225 28.0304C38.0225 27.8213 37.9204 27.769 37.7673 27.769H37.6142V30.1223H33.8375V27.769C33.8375 27.769 33.4292 27.9782 32.7147 27.9782C32.0002 27.9782 31.3367 27.9782 31.3367 27.9782V30.07H26.6923L25.6206 28.7626L24.4978 30.1223H16.9443V21.4412Z" fill="white"/>
<path d="M41.085 22.6963H45.9334V24.056H42.565V25.2065H45.8314V26.357H42.565V27.5598H45.9334V28.8672H41.085V22.6963Z" fill="#0078A9"/>
<path d="M55.2221 25.1019C57.0084 25.2064 57.1615 26.1478 57.1615 27.0891C57.1615 28.2396 56.2429 28.8672 55.2732 28.8672H52.1599V27.5598H54.5587C54.967 27.5598 55.5794 27.5598 55.5794 26.9845C55.5794 26.723 55.4773 26.5138 55.018 26.4615C54.8139 26.4092 54.0993 26.4092 53.9973 26.4092C52.3641 26.357 52.0068 25.5202 52.0068 24.5266C52.0068 23.3761 52.7724 22.7485 53.7421 22.7485H56.8553V24.0559H54.6097C54.0993 24.0559 53.5379 24.0036 53.5379 24.5789C53.5379 24.945 53.7931 25.0496 54.1504 25.0496C54.3035 25.0496 55.1201 25.1019 55.2221 25.1019Z" fill="#0078A9"/>
<path d="M49.6587 25.1019C51.445 25.2064 51.5981 26.1478 51.5981 27.0891C51.5981 28.2396 50.6794 28.8672 49.7097 28.8672H46.5965V27.5598H48.9952C49.4035 27.5598 50.0159 27.5598 50.0159 26.9845C50.0159 26.723 49.9139 26.5138 49.4545 26.4615C49.2504 26.4092 48.5359 26.4092 48.4338 26.4092C46.8006 26.357 46.4434 25.5202 46.4434 24.5266C46.4434 23.3761 47.2089 22.7485 48.1786 22.7485H51.2918V24.0559H49.0462C48.5359 24.0559 47.9745 24.0036 47.9745 24.5789C47.9745 24.945 48.2296 25.0496 48.5869 25.0496C48.74 25.0496 49.5566 25.1019 49.6587 25.1019Z" fill="#0078A9"/>
<path d="M32.2051 22.7486H27.0504L25.3661 24.6312L23.733 22.6963H17.9658V28.8149H23.5799L25.3661 26.7754L27.1014 28.8149H29.9084V26.7231H31.8988C32.6644 26.7231 34.0424 26.6708 34.0424 24.5266C33.9913 23.0624 32.9706 22.7486 32.2051 22.7486ZM22.8143 27.5598H19.3948V26.357H22.6612V25.2065H19.3948V24.056H22.9674L24.3964 25.7294L22.8143 27.5598ZM28.4283 28.2919L26.3358 25.7294L28.4283 23.3238V28.2919ZM31.7457 25.5203H29.9084V24.056H31.7457C32.3582 24.056 32.5623 24.4743 32.5623 24.7358C32.5623 25.1542 32.3582 25.5203 31.7457 25.5203Z" fill="#0078A9"/>
<path d="M39.3501 26.0955C40.1667 25.6771 40.3709 25.1541 40.3709 24.3697C40.3709 23.0623 39.3501 22.7485 38.5846 22.7485H34.7568V28.8672H36.2369V26.723H38.1763C38.6867 26.723 38.8908 27.246 38.8908 27.7689L38.9418 28.9195H40.3709L40.3198 27.6121C40.3198 26.6184 40.0136 26.1478 39.3501 26.0955ZM38.0742 25.4679H36.2369V24.0559H38.0742C38.6867 24.0559 38.8908 24.4743 38.8908 24.7358C38.8908 25.1541 38.6867 25.4679 38.0742 25.4679Z" fill="#0078A9"/>
<path d="M36.8492 12.1326H35.3691V18.3035H36.8492V12.1326Z" fill="#0078A9"/>
<path d="M23.3242 12.1326H28.1217V13.44H24.7532V14.5905H28.0196V15.7933H24.7532V16.9961H28.1217V18.2512H23.3242V12.1326Z" fill="#0078A9"/>
<path d="M33.5826 15.4795C34.3991 15.0611 34.6033 14.5382 34.6033 13.7537C34.6033 12.4463 33.5826 12.1326 32.817 12.1326H28.9893V18.2512H30.4693V16.1071H32.4087C32.9191 16.1071 33.1232 16.63 33.1232 17.153L33.1743 18.3035H34.6033L34.5523 17.0484C34.5012 16.0025 34.246 15.5318 33.5826 15.4795ZM32.3066 14.852H30.4693V13.44H32.3066C32.9191 13.44 33.1232 13.8583 33.1232 14.1198C33.1232 14.5382 32.868 14.852 32.3066 14.852Z" fill="#0078A9"/>
<path d="M19.9047 12.1326L18.1184 16.2639L16.3322 12.1326H14.0355V18.042L11.4837 12.1326H9.54428L6.94141 18.2512H8.47251L9.03391 16.8915H11.994L12.5554 18.2512H15.5156V13.7014L17.506 18.2512H18.833L20.8234 13.7537V18.2512H22.3034V12.1326H19.9047ZM9.54428 15.5841L10.4119 13.44L11.3306 15.5841H9.54428V15.5841Z" fill="#0078A9"/>
<path d="M52.0067 12.1326V16.3686L49.5059 12.1326H47.3114V17.8852L44.8106 12.1326H42.8712L40.8297 16.8915C40.8297 16.8915 39.9621 16.8915 39.911 16.8915C39.5538 16.8393 38.9924 16.5778 38.9924 15.4796V15.0089C38.9924 13.5446 39.7579 13.44 40.7276 13.44H41.6463V12.0803H39.7069C39.0434 12.0803 37.5633 12.6033 37.5123 15.1135C37.4613 16.8393 38.1758 18.1989 39.809 18.1989H41.7484L42.3098 16.8393H45.2699L45.8313 18.1989H48.7404V13.7015L51.3943 18.1989H53.3847V12.1326H52.0067ZM42.9732 15.5841L43.8409 13.44L44.7595 15.5841H42.9732V15.5841Z" fill="#0078A9"/>
</g>
<defs>
<clipPath id="clip0">
<path d="M0 0H64V41H0V0Z" fill="white"/>
</clipPath>
</defs>
</svg>
