<svg width="32" height="32" viewBox="0 0 32 32" fill="none" xmlns="http://www.w3.org/2000/svg">
<circle cx="16" cy="16" r="16" fill="#F7F7F7"/>
<path d="M13 21.25H10.75V13.75H13V21.25ZM21.25 21.25H19V17.2435C19 16.1995 18.628 15.6797 17.8907 15.6797C17.3065 15.6797 16.936 15.9707 16.75 16.5535V21.25H14.5C14.5 21.25 14.53 14.5 14.5 13.75H16.276L16.4132 15.25H16.4597C16.921 14.5 17.6582 13.9915 18.6693 13.9915C19.438 13.9915 20.0597 14.2052 20.5345 14.7422C21.0122 15.28 21.25 16.0015 21.25 17.0147V21.25Z" fill="#C7C6C1"/>
<path d="M11.8754 13C12.5174 13 13.0379 12.4963 13.0379 11.875C13.0379 11.2537 12.5174 10.75 11.8754 10.75C11.2334 10.75 10.7129 11.2537 10.7129 11.875C10.7129 12.4963 11.2334 13 11.8754 13Z" fill="#C7C6C1"/>
</svg>
