<svg width="32" height="32" viewBox="0 0 32 32" fill="none" xmlns="http://www.w3.org/2000/svg">
<circle cx="16" cy="16" r="16" fill="#F7F7F7"/>
<path d="M21.1663 12.2589C21.7723 11.8869 22.1735 11.3792 22.37 10.7334C21.8166 11.0328 21.2227 11.2503 20.6068 11.3792C20.0795 10.8122 19.412 10.5242 18.6118 10.5242C17.8295 10.5242 17.1688 10.7987 16.6295 11.3327C16.3691 11.5862 16.1632 11.8903 16.0245 12.2263C15.8857 12.5622 15.817 12.923 15.8225 13.2864C15.8225 13.5182 15.8518 13.7252 15.9103 13.9007C13.6033 13.8219 11.6938 12.8649 10.1893 11.0229C9.9343 11.4737 9.8068 11.9327 9.8068 12.4074C9.8068 13.3832 10.2185 14.1564 11.0405 14.7242C10.5718 14.6844 10.1585 14.5659 9.8068 14.3717C9.8068 15.0684 10.0115 15.6504 10.4218 16.1627C10.8203 16.6618 11.3819 17.0046 12.008 17.1309C11.774 17.1909 11.5273 17.2194 11.2738 17.2194C11.0398 17.2194 10.874 17.1999 10.7758 17.1572C10.9483 17.7249 11.2738 18.1854 11.744 18.5379C12.2089 18.8909 12.7744 19.0861 13.358 19.0952C12.359 19.8789 11.2168 20.2667 9.92455 20.2667C9.60805 20.2667 9.3838 20.2622 9.24805 20.2382C10.5208 21.0647 11.9375 21.4749 13.505 21.4749C15.1093 21.4749 16.5268 21.0684 17.7605 20.2554C18.9943 19.4469 19.9048 18.4494 20.4898 17.2749C21.0683 16.1385 21.3695 14.8812 21.3688 13.6059V13.2549C21.908 12.8574 22.3748 12.37 22.7488 11.8142C22.2438 12.0331 21.7114 12.1827 21.1663 12.2589V12.2589Z" fill="#C7C6C1"/>
</svg>
