<svg width="24" height="24" viewBox="0 0 24 24" fill="none" xmlns="http://www.w3.org/2000/svg">
<path fill-rule="evenodd" clip-rule="evenodd" d="M3 3.55556C3 3.24873 3.24873 3 3.55556 3H7.44444C7.75127 3 8 3.24873 8 3.55556V7.44444C8 7.75127 7.75127 8 7.44444 8H3.55556C3.24873 8 3 7.75127 3 7.44444V3.55556Z" fill="#A09B82"/>
<path fill-rule="evenodd" clip-rule="evenodd" d="M17 3.55556C17 3.24873 17.2487 3 17.5556 3H21.4444C21.7513 3 22 3.24873 22 3.55556V7.44444C22 7.75127 21.7513 8 21.4444 8H17.5556C17.2487 8 17 7.75127 17 7.44444V3.55556Z" fill="#A09B82"/>
<path fill-rule="evenodd" clip-rule="evenodd" d="M10 3.55556C10 3.24873 10.2487 3 10.5556 3H14.4444C14.7513 3 15 3.24873 15 3.55556V7.44444C15 7.75127 14.7513 8 14.4444 8H10.5556C10.2487 8 10 7.75127 10 7.44444V3.55556Z" fill="#A09B82"/>
<path fill-rule="evenodd" clip-rule="evenodd" d="M17 17.5556C17 17.2487 17.2487 17 17.5556 17H21.4444C21.7513 17 22 17.2487 22 17.5556V21.4444C22 21.7513 21.7513 22 21.4444 22H17.5556C17.2487 22 17 21.7513 17 21.4444V17.5556Z" fill="#A09B82"/>
<path fill-rule="evenodd" clip-rule="evenodd" d="M17 10.5556C17 10.2487 17.2487 10 17.5556 10H21.4444C21.7513 10 22 10.2487 22 10.5556V14.4444C22 14.7513 21.7513 15 21.4444 15H17.5556C17.2487 15 17 14.7513 17 14.4444V10.5556Z" fill="#A09B82"/>
<path fill-rule="evenodd" clip-rule="evenodd" d="M10 17.5556C10 17.2487 10.2487 17 10.5556 17H14.4444C14.7513 17 15 17.2487 15 17.5556V21.4444C15 21.7513 14.7513 22 14.4444 22H10.5556C10.2487 22 10 21.7513 10 21.4444V17.5556Z" fill="#A09B82"/>
<path fill-rule="evenodd" clip-rule="evenodd" d="M10 10.5556C10 10.2487 10.2487 10 10.5556 10H14.4444C14.7513 10 15 10.2487 15 10.5556V14.4444C15 14.7513 14.7513 15 14.4444 15H10.5556C10.2487 15 10 14.7513 10 14.4444V10.5556Z" fill="#A09B82"/>
<path fill-rule="evenodd" clip-rule="evenodd" d="M3 17.5556C3 17.2487 3.24873 17 3.55556 17H7.44444C7.75127 17 8 17.2487 8 17.5556V21.4444C8 21.7513 7.75127 22 7.44444 22H3.55556C3.24873 22 3 21.7513 3 21.4444V17.5556Z" fill="#A09B82"/>
<path fill-rule="evenodd" clip-rule="evenodd" d="M3 10.5556C3 10.2487 3.24873 10 3.55556 10H7.44444C7.75127 10 8 10.2487 8 10.5556V14.4444C8 14.7513 7.75127 15 7.44444 15H3.55556C3.24873 15 3 14.7513 3 14.4444V10.5556Z" fill="#A09B82"/>
</svg>
