<svg width="20" height="20" viewBox="0 0 20 20" fill="none" xmlns="http://www.w3.org/2000/svg">
<path fill-rule="evenodd" clip-rule="evenodd" d="M2.5 3.24074C2.5 2.83164 2.83164 2.5 3.24074 2.5L16.7593 2.5C17.1684 2.5 17.5 2.83164 17.5 3.24074V4.25926C17.5 4.66836 17.1684 5 16.7593 5H3.24074C2.83164 5 2.5 4.66836 2.5 4.25926V3.24074Z" fill="#EDEDEC"/>
<path fill-rule="evenodd" clip-rule="evenodd" d="M2.5 7.40749C2.5 6.99839 2.83164 6.66675 3.24074 6.66675L16.7593 6.66675C17.1684 6.66675 17.5 6.99839 17.5 7.40749V8.42601C17.5 8.83511 17.1684 9.16675 16.7593 9.16675H3.24074C2.83164 9.16675 2.5 8.83511 2.5 8.42601V7.40749Z" fill="#EDEDEC"/>
<path fill-rule="evenodd" clip-rule="evenodd" d="M2.5 11.574C2.5 11.1649 2.83164 10.8333 3.24074 10.8333L16.7593 10.8333C17.1684 10.8333 17.5 11.1649 17.5 11.574V12.5925C17.5 13.0016 17.1684 13.3333 16.7593 13.3333H3.24074C2.83164 13.3333 2.5 13.0016 2.5 12.5925V11.574Z" fill="#EDEDEC"/>
<path fill-rule="evenodd" clip-rule="evenodd" d="M2.5 15.7407C2.5 15.3316 2.83164 15 3.24074 15L16.7593 15C17.1684 15 17.5 15.3316 17.5 15.7407V16.7593C17.5 17.1684 17.1684 17.5 16.7593 17.5H3.24074C2.83164 17.5 2.5 17.1684 2.5 16.7593V15.7407Z" fill="#EDEDEC"/>
</svg>
