<svg width="18" height="18" viewBox="0 0 18 18" fill="none" xmlns="http://www.w3.org/2000/svg">
<path fill-rule="evenodd" clip-rule="evenodd" d="M8.66696 1.75893C8.66674 1.75904 8.66651 1.75915 8.66629 1.75926L2.66795 4.75843L2.66629 4.75926C2.54133 4.82135 2.43618 4.91707 2.36264 5.03565C2.28913 5.15419 2.25014 5.29088 2.25004 5.43037C2.25004 5.43032 2.25004 5.43041 2.25004 5.43037V12.5753C2.24906 12.7151 2.28715 12.8524 2.36004 12.9716C2.43281 13.0907 2.53735 13.1871 2.6619 13.25C2.6617 13.2499 2.66211 13.2501 2.6619 13.25L8.66045 16.2493C8.76465 16.3014 8.87977 16.3287 8.99629 16.3287C9.1128 16.3287 9.22771 16.3015 9.33191 16.2494L15.3321 13.2493L15.3338 13.2485C15.4587 13.1864 15.5639 13.0907 15.6374 12.9721C15.711 12.8535 15.75 12.7167 15.75 12.5772V5.43051C15.75 5.29098 15.711 5.15423 15.6374 5.03565C15.5639 4.91707 15.4587 4.82135 15.3338 4.75926L15.3321 4.75843L9.33379 1.75926C9.33356 1.75915 9.33334 1.75904 9.33311 1.75893C9.22958 1.70761 9.11559 1.68091 9.00004 1.68091C8.88448 1.68091 8.77049 1.70761 8.66696 1.75893ZM9.66754 1.08761L10.0013 0.415964C9.69016 0.261362 9.34746 0.180908 9.00004 0.180908C8.65262 0.180908 8.30991 0.261362 7.99879 0.415964L7.99713 0.416792L1.99879 3.41596C1.99848 3.41612 1.99817 3.41627 1.99786 3.41642C1.6234 3.60271 1.30827 3.88969 1.08785 4.24514C0.867248 4.60089 0.750259 5.01112 0.750036 5.42971L0.750036 12.5678C0.747659 12.9861 0.861955 13.3968 1.08012 13.7538C1.29878 14.1116 1.61307 14.4012 1.98755 14.5899L1.98963 14.5909L7.98941 17.5908C8.302 17.7472 8.64674 17.8287 8.99629 17.8287C9.34575 17.8287 9.69041 17.7473 10.0029 17.5909C10.003 17.5909 10.0029 17.591 10.0029 17.5909L16.0013 14.5918C16.0015 14.5916 16.0018 14.5915 16.002 14.5914C16.3766 14.4051 16.6918 14.1181 16.9122 13.7626C17.1328 13.4068 17.2498 12.9966 17.25 12.578V5.43011C17.2498 5.01152 17.1328 4.60089 16.9122 4.24514C16.6918 3.8897 16.3767 3.60273 16.0022 3.41644C16.0019 3.41628 16.0016 3.41612 16.0013 3.41596L10.0029 0.416792L9.66754 1.08761Z" fill="#9B3717"/>
<path fill-rule="evenodd" clip-rule="evenodd" d="M1.06922 4.2847C1.25446 3.91422 1.70496 3.76405 2.07545 3.94929L9.00004 7.41159L15.9246 3.94929C16.2951 3.76405 16.7456 3.91422 16.9309 4.2847C17.1161 4.65519 16.9659 5.10569 16.5954 5.29093L9.33545 8.92093C9.1243 9.02651 8.87577 9.02651 8.66463 8.92093L1.40463 5.29093C1.03414 5.10569 0.883974 4.65519 1.06922 4.2847Z" fill="#9B3717"/>
<path fill-rule="evenodd" clip-rule="evenodd" d="M9.00004 7.50011C9.41425 7.50011 9.75004 7.8359 9.75004 8.25011V17.0701C9.75004 17.4843 9.41425 17.8201 9.00004 17.8201C8.58582 17.8201 8.25004 17.4843 8.25004 17.0701V8.25011C8.25004 7.8359 8.58582 7.50011 9.00004 7.50011Z" fill="#9B3717"/>
<path fill-rule="evenodd" clip-rule="evenodd" d="M4.57922 2.2897C4.76446 1.91922 5.21496 1.76905 5.58545 1.95429L13.0854 5.70429C13.4559 5.88953 13.6061 6.34004 13.4209 6.71052C13.2356 7.08101 12.7851 7.23117 12.4146 7.04593L4.91463 3.29593C4.54414 3.11069 4.39397 2.66019 4.57922 2.2897Z" fill="#9B3717"/>
</svg>
