<svg width="17" height="16" viewBox="0 0 17 16" fill="none" xmlns="http://www.w3.org/2000/svg">
<g clip-path="url(#clip0)">
<path fill-rule="evenodd" clip-rule="evenodd" d="M2.267 8C2.33987 8.12591 2.43646 8.28637 2.55612 8.47165C2.86347 8.94754 3.31862 9.5804 3.90953 10.2107C5.10352 11.4843 6.77285 12.6667 8.83984 12.6667C10.9068 12.6667 12.5762 11.4843 13.7702 10.2107C14.3611 9.5804 14.8162 8.94754 15.1236 8.47165C15.2432 8.28637 15.3398 8.12591 15.4127 8C15.3398 7.87409 15.2432 7.71363 15.1236 7.52835C14.8162 7.05246 14.3611 6.4196 13.7702 5.78929C12.5762 4.51571 10.9068 3.33333 8.83984 3.33333C6.77285 3.33333 5.10352 4.51571 3.90953 5.78929C3.31862 6.4196 2.86347 7.05246 2.55612 7.52835C2.43646 7.71363 2.33987 7.87409 2.267 8ZM16.1732 8C16.7695 7.70186 16.7693 7.70163 16.7692 7.70139L16.7682 7.69925L16.7658 7.69469L16.7583 7.67988C16.7519 7.66752 16.7429 7.65021 16.7313 7.62829C16.7081 7.58447 16.6745 7.52215 16.6305 7.44399C16.5426 7.28776 16.4133 7.06768 16.2436 6.80498C15.9051 6.28088 15.402 5.5804 14.7429 4.87737C13.4369 3.48429 11.4395 2 8.83984 2C6.24017 2 4.24283 3.48429 2.93682 4.87737C2.27773 5.5804 1.77455 6.28088 1.43607 6.80498C1.26641 7.06768 1.13704 7.28776 1.04916 7.44399C1.00519 7.52215 0.971537 7.58447 0.948346 7.62829C0.936748 7.65021 0.927761 7.66752 0.921402 7.67988L0.913837 7.69469L0.911536 7.69925L0.910757 7.7008C0.910635 7.70104 0.910226 7.70186 1.50651 8L0.910226 7.70186C0.816383 7.88954 0.816383 8.11046 0.910226 8.29814L1.50651 8C0.910226 8.29814 0.910103 8.2979 0.910226 8.29814L0.911536 8.30075L0.913837 8.30531L0.921402 8.32012C0.927761 8.33248 0.936748 8.34979 0.948346 8.37171C0.971537 8.41553 1.00519 8.47785 1.04916 8.55601C1.13704 8.71224 1.26641 8.93232 1.43607 9.19502C1.77455 9.71913 2.27773 10.4196 2.93682 11.1226C4.24283 12.5157 6.24017 14 8.83984 14C11.4395 14 13.4369 12.5157 14.7429 11.1226C15.402 10.4196 15.9051 9.71913 16.2436 9.19502C16.4133 8.93232 16.5426 8.71224 16.6305 8.55601C16.6745 8.47785 16.7081 8.41553 16.7313 8.37171C16.7429 8.34979 16.7519 8.33248 16.7583 8.32012L16.7658 8.30531L16.7682 8.30075L16.7689 8.2992C16.7691 8.29896 16.7695 8.29814 16.1732 8ZM16.1732 8L16.7695 8.29814C16.8633 8.11046 16.8631 7.88907 16.7692 7.70139L16.1732 8Z" fill="#C7C6C1"/>
<path fill-rule="evenodd" clip-rule="evenodd" d="M8.83952 6.66659C8.10314 6.66659 7.50618 7.26354 7.50618 7.99992C7.50618 8.7363 8.10314 9.33325 8.83952 9.33325C9.5759 9.33325 10.1729 8.7363 10.1729 7.99992C10.1729 7.26354 9.5759 6.66659 8.83952 6.66659ZM6.17285 7.99992C6.17285 6.52716 7.36676 5.33325 8.83952 5.33325C10.3123 5.33325 11.5062 6.52716 11.5062 7.99992C11.5062 9.47268 10.3123 10.6666 8.83952 10.6666C7.36676 10.6666 6.17285 9.47268 6.17285 7.99992Z" fill="#C7C6C1"/>
</g>
<defs>
<clipPath id="clip0">
<path d="M0.839844 0H16.8398V16H0.839844V0Z" fill="white"/>
</clipPath>
</defs>
</svg>
