<svg width="73" height="85" viewBox="0 0 73 85" fill="none" xmlns="http://www.w3.org/2000/svg">
<path d="M67.3333 29.2222C67.0556 28.1111 65.9444 27.5556 64.8333 28.1111C63.7222 28.3889 63.1667 29.5 63.7222 30.6111C64.5556 33.6667 65.1111 36.4444 65.1111 39.7778C65.1111 55.3333 52.3333 68.1111 36.5 68.1111C20.6667 68.1111 7.88889 55.3333 7.88889 39.5C7.88889 23.6667 20.6667 10.8889 36.5 10.8889C39.5556 10.8889 42.6111 11.4444 45.6667 12.2778C46.7778 12.5556 47.8889 12 48.1667 11.1667C48.4444 10.0556 47.8889 8.94444 47.0556 8.66667C43.4444 7.55556 40.1111 7 36.5 7C18.4444 7 4 21.4444 4 39.5C4 57.5556 18.4444 72 36.5 72C54.5556 72 69 57.5556 69 39.5C69 35.8889 68.4444 32.5556 67.3333 29.2222Z" fill="#9B3717"/>
<path d="M56.7777 24.7778H60.9444V19.5001H66.2222V15.3334H60.9444V9.77783H56.7777V15.3334H51.2222V19.5001H56.7777V24.7778Z" fill="#9B3717"/>
<path d="M26.4009 42L25.4989 39.536H20.1749L19.1849 42H15.1589L20.7909 27.326H24.9489L30.4709 42H26.4009ZM21.2309 36.632H24.4869L22.8369 31.88L21.2309 36.632ZM38.7743 36.654V33.684H46.3423C46.3423 35.1947 46.159 36.478 45.7923 37.534C45.4403 38.5753 44.839 39.492 43.9883 40.284C42.6683 41.516 40.945 42.132 38.8183 42.132C36.4863 42.132 34.609 41.406 33.1863 39.954C31.7783 38.546 31.0743 36.7787 31.0743 34.652C31.0743 32.4227 31.8077 30.5893 33.2743 29.152C34.7117 27.7147 36.611 26.996 38.9723 26.996C40.527 26.996 41.847 27.326 42.9323 27.986C44.0763 28.69 44.949 29.6947 45.5503 31L41.9203 32.496C41.6857 31.9093 41.3337 31.418 40.8643 31.022C40.2777 30.538 39.5957 30.296 38.8183 30.296C37.821 30.296 36.985 30.6333 36.3103 31.308C35.4597 32.1587 35.0343 33.2807 35.0343 34.674C35.0343 35.9647 35.423 37.0207 36.2003 37.842C36.9043 38.59 37.799 38.964 38.8843 38.964C39.7497 38.964 40.4537 38.7367 40.9963 38.282C41.4803 37.886 41.781 37.3433 41.8983 36.654H38.7743ZM57.1094 27.326V30.56H52.5774V33.002H56.8674V36.236H52.5774V38.766H57.1094V42H48.7714V27.326H57.1094Z" fill="#9B3717"/>
<path d="M27.2627 49.968V49.072H29.2147V55.68C29.2147 56.3307 29.1507 56.896 29.0227 57.376C28.9054 57.8667 28.6494 58.3093 28.2547 58.704C27.604 59.3547 26.692 59.68 25.5187 59.68C24.388 59.68 23.524 59.4133 22.9267 58.88C22.3614 58.4 21.988 57.712 21.8067 56.816H23.9187C24.004 57.168 24.164 57.4453 24.3987 57.648C24.6654 57.8933 25.06 58.016 25.5827 58.016C26.0627 58.016 26.4574 57.872 26.7667 57.584C27.0974 57.264 27.2627 56.752 27.2627 56.048V55.072C26.7614 55.84 26.052 56.224 25.1347 56.224C24.1747 56.224 23.3747 55.9093 22.7347 55.28C21.9987 54.544 21.6307 53.6267 21.6307 52.528C21.6307 51.3867 21.988 50.4693 22.7027 49.776C23.3427 49.1573 24.1374 48.848 25.0867 48.848C26.0467 48.848 26.772 49.2213 27.2627 49.968ZM25.5667 50.576C25.044 50.576 24.612 50.736 24.2707 51.056C23.8547 51.4293 23.6467 51.92 23.6467 52.528C23.6467 53.072 23.8174 53.5253 24.1587 53.888C24.532 54.2933 25.0014 54.496 25.5667 54.496C26.0787 54.496 26.5107 54.336 26.8627 54.016C27.2787 53.632 27.4867 53.136 27.4867 52.528C27.4867 51.9947 27.3 51.5307 26.9267 51.136C26.564 50.7627 26.1107 50.576 25.5667 50.576ZM36.3884 49.968V49.072H38.3404V56H36.3884V55.104C35.8658 55.8507 35.1564 56.224 34.2604 56.224C33.2151 56.224 32.3618 55.8667 31.7004 55.152C31.0498 54.4373 30.7244 53.5627 30.7244 52.528C30.7244 51.4827 31.0444 50.608 31.6844 49.904C32.3244 49.2 33.1511 48.848 34.1644 48.848C35.1671 48.848 35.9084 49.2213 36.3884 49.968ZM36.0364 51.136C35.6738 50.7627 35.2151 50.576 34.6604 50.576C34.1058 50.576 33.6471 50.7627 33.2844 51.136C32.9218 51.5093 32.7404 51.9733 32.7404 52.528C32.7404 53.0827 32.9218 53.552 33.2844 53.936C33.6471 54.3093 34.1058 54.496 34.6604 54.496C35.2151 54.496 35.6738 54.3093 36.0364 53.936C36.3991 53.552 36.5804 53.0827 36.5804 52.528C36.5804 51.9733 36.3991 51.5093 36.0364 51.136ZM43.4974 50.736H42.1534V56H40.2014V50.736H39.4334V49.072H40.2014V46.704H42.1534V49.072H43.4974V50.736ZM49.5219 53.776L51.3139 54.064C51.2393 54.256 51.1379 54.448 51.0099 54.64C50.8926 54.8213 50.7059 55.0507 50.4499 55.328C50.1939 55.5947 49.8473 55.8133 49.4099 55.984C48.9726 56.144 48.4713 56.224 47.9059 56.224C46.8179 56.224 45.9326 55.8987 45.2499 55.248C44.5246 54.5653 44.1619 53.664 44.1619 52.544C44.1619 51.4347 44.5139 50.528 45.2179 49.824C45.8793 49.1733 46.7486 48.848 47.8259 48.848C48.9993 48.848 49.9006 49.2267 50.5299 49.984C51.0846 50.6453 51.3619 51.552 51.3619 52.704V52.864H46.1779C46.1779 53.3333 46.2899 53.7227 46.5139 54.032C46.8339 54.4693 47.2979 54.688 47.9059 54.688C48.6313 54.688 49.1699 54.384 49.5219 53.776ZM46.2419 51.616H49.5219C49.4473 51.168 49.2499 50.8267 48.9299 50.592C48.6206 50.3467 48.2686 50.224 47.8739 50.224C47.4899 50.224 47.1379 50.3467 46.8179 50.592C46.5086 50.8373 46.3166 51.1787 46.2419 51.616Z" fill="#9B3717"/>
</svg>
