<svg width="26" height="26" viewBox="0 0 26 26" fill="none" xmlns="http://www.w3.org/2000/svg">
<path d="M15.2852 7.96655H19.7994C20.1994 7.96655 20.5423 8.13655 20.7709 8.47655L22.7137 11.9332H23.2852C23.9137 11.9332 24.428 12.3299 24.428 13.1799V17.0332C24.428 17.6566 23.9137 18.1666 23.2852 18.1666H22.1423" stroke="#AEADA5" stroke-width="1.5" stroke-miterlimit="10" stroke-linecap="round"/>
<path d="M9.57129 18.1667H15.2856V4.56665H1.57129V18.1667H4.99986" stroke="#AEADA5" stroke-width="1.5" stroke-miterlimit="10" stroke-linecap="round"/>
<path d="M22.1427 18.1666C22.1427 19.4132 21.1141 20.4332 19.857 20.4332C18.5999 20.4332 17.5713 19.4132 17.5713 18.1666C17.5713 16.9199 18.5999 15.8999 19.857 15.8999C21.1141 15.8999 22.1427 16.9199 22.1427 18.1666Z" stroke="#AEADA5" stroke-width="1.5" stroke-miterlimit="10" stroke-linecap="round"/>
<path d="M9.57143 18.1666C9.57143 19.4132 8.54286 20.4332 7.28571 20.4332C6.02857 20.4332 5 19.4132 5 18.1666C5 16.9199 6.02857 15.8999 7.28571 15.8999C8.54286 15.8999 9.57143 16.9199 9.57143 18.1666Z" stroke="#AEADA5" stroke-width="1.5" stroke-miterlimit="10" stroke-linecap="round"/>
<path d="M15.2852 18.1667H17.5709" stroke="#AEADA5" stroke-width="1.5" stroke-miterlimit="10" stroke-linecap="round"/>
<path d="M15.8574 12.5H20.4289L21.5717 11.9333H22.7146" stroke="#AEADA5" stroke-width="1.5" stroke-miterlimit="10" stroke-linecap="round"/>
<path d="M1.57129 13.6333H15.2856" stroke="#AEADA5" stroke-width="1.5" stroke-miterlimit="10" stroke-linecap="round"/>
</svg>
