<svg xmlns="http://www.w3.org/2000/svg" width="19" height="14" viewBox="0 0 19 14"><g><g><g><g><path fill="#012169" d="M-4.769 0h28.576v14.037H-4.769z"/></g><g><path fill="#fff" d="M-1.574 0L9.52 5.45 6.325 7.019l-11.094-5.45V0zm25.381 12.47v1.567h-3.195L9.519 8.587l3.194-1.568zM20.612 0L9.519 5.45l3.194 1.569 11.094-5.45V0zM-4.77 12.47v1.567h3.195L9.52 8.587 6.325 7.02z"/></g><g><path fill="#fff" d="M11.9 0v4.68H7.138V0zm0 14.037H7.138v-4.68h4.76zM-4.77 4.68v4.677H7.139V4.68zm28.576 4.677V4.68H11.899v4.677z"/></g><g><path fill="#c8102e" d="M23.807 5.615v2.807h-12.86V5.615zM-4.769 8.422V5.615h12.86v2.807zM10.948 0v5.615H8.09V0zM8.09 8.422h2.858v5.615H8.09zm-12.859 5.615l9.524-4.68h2.132l-9.527 4.68zm0-14.037l9.524 4.68H2.626l-7.395-3.633zm16.922 4.68L21.678 0h2.129l-9.524 4.68zm11.654 9.357l-9.524-4.68h2.129l7.395 3.633z"/></g></g></g></g></svg>