<svg width="12" height="12" viewBox="0 0 12 12" fill="none" xmlns="http://www.w3.org/2000/svg">
<path fill-rule="evenodd" clip-rule="evenodd" d="M2.75 11C2.75 10.7239 2.97386 10.5 3.25 10.5L9.25 10.5C9.38261 10.5 9.50979 10.4473 9.60355 10.3536C9.69732 10.2598 9.75 10.1326 9.75 10L9.75 2C9.75 1.86739 9.69732 1.74022 9.60355 1.64645C9.50979 1.55268 9.38261 1.5 9.25 1.5L3.25 1.5C2.97386 1.5 2.75 1.27614 2.75 1C2.75 0.723858 2.97386 0.5 3.25 0.5L9.25 0.5C9.64783 0.5 10.0294 0.658035 10.3107 0.93934C10.592 1.22064 10.75 1.60217 10.75 2L10.75 10C10.75 10.3978 10.592 10.7794 10.3107 11.0607C10.0294 11.342 9.64782 11.5 9.25 11.5L3.25 11.5C2.97386 11.5 2.75 11.2761 2.75 11Z" fill="#9B3717"/>
<path fill-rule="evenodd" clip-rule="evenodd" d="M8.10355 5.64645C8.29881 5.84171 8.29881 6.15829 8.10355 6.35355L6.10355 8.35355C5.90829 8.54882 5.59171 8.54882 5.39645 8.35355C5.20118 8.15829 5.20118 7.84171 5.39645 7.64645L7.04289 6L5.39645 4.35356C5.20118 4.15829 5.20118 3.84171 5.39645 3.64645C5.59171 3.45119 5.90829 3.45119 6.10355 3.64645L8.10355 5.64645Z" fill="#9B3717"/>
<path fill-rule="evenodd" clip-rule="evenodd" d="M8.25 6C8.25 6.27614 8.02614 6.5 7.75 6.5L2.25 6.5C1.97386 6.5 1.75 6.27614 1.75 6C1.75 5.72386 1.97386 5.5 2.25 5.5L7.75 5.5C8.02614 5.5 8.25 5.72386 8.25 6Z" fill="#9B3717"/>
</svg>
