<svg xmlns="http://www.w3.org/2000/svg" width="16" height="15" viewBox="0 0 16 15"><g><g><path fill="#9b3717" d="M8.003.67c.254 0 .486.144.598.372L10.506 4.9l4.26.623a.667.667 0 0 1 .37 1.137l-3.083 3.002.727 4.241a.667.667 0 0 1-.967.703l-3.81-2.004-3.81 2.004a.667.667 0 0 1-.967-.703l.728-4.241L.872 6.66a.667.667 0 0 1 .368-1.137L5.5 4.9l1.906-3.86A.667.667 0 0 1 8.003.67zm0 2.173L6.541 5.805a.667.667 0 0 1-.501.365l-3.271.478 2.366 2.304a.667.667 0 0 1 .192.59l-.558 3.256 2.924-1.538a.666.666 0 0 1 .62 0l2.925 1.538-.558-3.255a.667.667 0 0 1 .192-.59l2.366-2.305-3.271-.478a.667.667 0 0 1-.501-.365z"/></g></g></svg>