<svg width="12" height="12" viewBox="0 0 12 12" fill="none" xmlns="http://www.w3.org/2000/svg">
<path fill-rule="evenodd" clip-rule="evenodd" d="M6.02345 0.5C6.21376 0.5 6.38757 0.608036 6.47181 0.778688L7.90058 3.67323L11.0958 4.14026C11.284 4.16778 11.4404 4.29978 11.4991 4.48078C11.5578 4.66179 11.5086 4.86041 11.3723 4.99318L9.06071 7.24468L9.60626 10.4255C9.63843 10.6131 9.56131 10.8027 9.40732 10.9145C9.25333 11.0264 9.04918 11.0411 8.88073 10.9525L6.02345 9.44992L3.16618 10.9525C2.99772 11.0411 2.79357 11.0264 2.63959 10.9145C2.4856 10.8027 2.40847 10.6131 2.44065 10.4255L2.98619 7.24468L0.674586 4.99318C0.538277 4.86041 0.48914 4.66179 0.547829 4.48078C0.606518 4.29978 0.762858 4.16778 0.951138 4.14026L4.14632 3.67323L5.5751 0.778688C5.65933 0.608036 5.83314 0.5 6.02345 0.5Z" fill="#9B3717"/>
</svg>
