<svg xmlns="http://www.w3.org/2000/svg" width="24" height="24" viewBox="0 0 24 24"><g><g><g/><g><path fill="#3c3700" d="M8 20a2 2 0 1 1 4 0 2 2 0 0 1-4 0z"/></g><g><path fill="#3c3700" d="M16 20a2 2 0 1 1 4 0 2 2 0 0 1-4 0z"/></g><g><path fill="#3c3700" d="M1.32 3a1 1 0 0 1 1-1h2a1 1 0 0 1 .98.804L5.82 5H22a1 1 0 0 1 .983 1.187l-1.602 8.398A3 3 0 0 1 18.391 17H8.69a3 3 0 0 1-2.99-2.414L4.03 6.239a.993.993 0 0 1-.017-.084L3.5 4H2.32a1 1 0 0 1-1-1zm4.901 4l1.44 7.195a1 1 0 0 0 1 .805H18.42a1 1 0 0 0 1-.802L20.792 7z"/></g></g></g></svg>