<svg xmlns="http://www.w3.org/2000/svg" width="16" height="16" viewBox="0 0 16 16"><g><g><g/><g><path fill="#a09b82" d="M13.337 3.333a.67.67 0 0 1 .666.667v8a.67.67 0 0 1-.666.667H2.67A.67.67 0 0 1 2.003 12V4a.67.67 0 0 1 .667-.667zM.67 12c0 1.101.898 2 2 2h10.667c1.101 0 2-.898 2-2V4c0-1.102-.899-2-2-2H2.67c-1.102 0-2 .898-2 2z"/></g><g><path fill="#a09b82" d="M.79 3.614a.667.667 0 0 1 .929-.163L8.003 7.85l6.285-4.4a.667.667 0 0 1 .764 1.093L8.386 9.21a.667.667 0 0 1-.765 0L.954 4.543a.667.667 0 0 1-.163-.929z"/></g></g></g></svg>