<svg width="19" height="19" viewBox="0 0 19 19" fill="none" xmlns="http://www.w3.org/2000/svg">
<circle cx="9.50065" cy="9.49968" r="7.16667" stroke="#C7C6C1" stroke-width="1.5"/>
<path d="M11.6249 6.57682L11.2164 7.42232C10.9124 7.21332 10.5387 7.10882 10.0954 7.10882C9.59503 7.10882 9.16436 7.22599 8.80336 7.46032C8.44869 7.68832 8.20169 8.01132 8.06236 8.42932H10.8269L10.5419 9.09432H7.92936C7.89769 9.34132 7.89453 9.57565 7.91986 9.79732H10.2664L9.98136 10.4623H8.01486C8.12253 10.9057 8.36003 11.2572 8.72736 11.5168C9.09469 11.7702 9.52219 11.8968 10.0099 11.8968C10.5609 11.8968 11.0675 11.7163 11.5299 11.3553V12.3908C11.0169 12.6568 10.5007 12.7898 9.98136 12.7898C9.06936 12.7898 8.34419 12.5302 7.80586 12.0108C7.37519 11.6055 7.11553 11.0893 7.02686 10.4623H6.38086L6.66586 9.79732H6.95086C6.92553 9.57565 6.92869 9.34132 6.96036 9.09432H6.38086L6.66586 8.42932H7.05536C7.19469 7.88465 7.45436 7.42232 7.83436 7.04232C8.39169 6.49132 9.15486 6.21582 10.1239 6.21582C10.7065 6.21582 11.2069 6.33615 11.6249 6.57682Z" fill="#C7C6C1"/>
</svg>
