<svg xmlns="http://www.w3.org/2000/svg" width="14" height="18" viewBox="0 0 14 18"><g><g><path fill="#9b3717" d="M6.737.798a.75.75 0 0 1 .526 0l6 2.25a.75.75 0 0 1 .487.702V9c0 2.585-1.711 4.65-3.256 6.002a17.01 17.01 0 0 1-3.135 2.157l-.016.008-.005.002-.002.001s0 .24-.1.042a.75.75 0 0 0 .1-.041l-.1-.199L7 16.5l-.336.67c.179.09.385-.136.572-.198L7 16.5l-.336.67h-.002l-.005-.003-.016-.008a6.416 6.416 0 0 1-.262-.14 17.008 17.008 0 0 1-2.873-2.017C1.961 13.65.25 11.585.25 9V3.75a.75.75 0 0 1 .487-.702zM7 15.648a15.519 15.519 0 0 0 2.506-1.774C10.961 12.6 12.25 10.914 12.25 9V4.27L7 2.3 1.75 4.27V9c0 1.915 1.289 3.6 2.744 4.873A15.519 15.519 0 0 0 7 15.647z"/></g></g></svg>