<svg width="16" height="16" viewBox="0 0 16 16" fill="none" xmlns="http://www.w3.org/2000/svg">
<path fill-rule="evenodd" clip-rule="evenodd" d="M6.72445 1.06266C6.83145 0.821904 7.0702 0.666748 7.33366 0.666748C8.0409 0.666748 8.71918 0.9477 9.21928 1.4478C9.71937 1.94789 10.0003 2.62617 10.0003 3.33341V5.33341H13.1036C13.3921 5.33074 13.6778 5.39053 13.941 5.50867C14.2055 5.62739 14.4411 5.80219 14.6313 6.02097C14.8215 6.23975 14.9619 6.49728 15.0428 6.77571C15.1236 7.05414 15.143 7.34681 15.0994 7.63346L14.1795 13.6334C14.1794 13.6335 14.1795 13.6332 14.1795 13.6334C14.107 14.1101 13.8648 14.5451 13.4974 14.8574C13.1309 15.1689 12.6644 15.3379 12.1835 15.3334H2.66699C2.13656 15.3334 1.62785 15.1227 1.25278 14.7476C0.877706 14.3726 0.666992 13.8638 0.666992 13.3334V8.66675C0.666992 8.13631 0.877706 7.62761 1.25278 7.25253C1.62785 6.87746 2.13656 6.66675 2.66699 6.66675H4.23374L6.72445 1.06266ZM5.33366 7.47489L7.73888 2.06315C7.9398 2.12725 8.12457 2.23871 8.27647 2.39061C8.52652 2.64065 8.66699 2.97979 8.66699 3.33341V6.00008C8.66699 6.36827 8.96547 6.66675 9.33366 6.66675H13.107L13.1145 6.66671C13.2112 6.66561 13.3069 6.68554 13.3951 6.72511C13.4832 6.76468 13.5617 6.82295 13.6252 6.89588C13.6886 6.9688 13.7354 7.05465 13.7623 7.14746C13.7892 7.24018 13.7957 7.33764 13.7812 7.43311C13.7813 7.43302 13.7812 7.4332 13.7812 7.43311L12.8612 13.4335C12.8371 13.5924 12.7563 13.7373 12.6338 13.8415C12.5113 13.9456 12.3553 14.0019 12.1945 14.0001L5.33366 14.0001V7.47489ZM4.00033 14.0001V8.00008H2.66699C2.49018 8.00008 2.32061 8.07032 2.19559 8.19534C2.07056 8.32037 2.00033 8.48994 2.00033 8.66675V13.3334C2.00033 13.5102 2.07056 13.6798 2.19559 13.8048C2.32061 13.9298 2.49018 14.0001 2.66699 14.0001H4.00033Z" fill="#9B3717"/>
</svg>
