<svg width="241" height="22" viewBox="0 0 241 22" fill="none" xmlns="http://www.w3.org/2000/svg">
<g clip-path="url(#clip0)">
<path d="M0 1.10769L10.134 21.4433H13.4928L16.2145 15.8314L18.8204 10.6419L23.3807 1.12278H20.8906C20.3209 1.04645 19.7431 1.16951 19.2478 1.47261C18.7525 1.7757 18.3679 2.24167 18.1544 2.79729L16.3448 6.20667L14.4772 2.78221C14.2666 2.23181 13.8863 1.77003 13.3962 1.46961C12.9061 1.16918 12.334 1.04716 11.77 1.12278H8.87453L13.8113 11.0492L11.9292 14.534L5.55925 2.76712C5.35258 2.22345 4.97945 1.76609 4.49778 1.46603C4.01611 1.16598 3.45285 1.04001 2.89544 1.10769H0Z" fill="white"/>
<path d="M61.7755 13.4931L57.3455 0.760742H56.3755L51.7428 13.4931L47.0233 0.866342H43.375L51.1927 21.2472H52.3219L56.7954 8.87686L61.1096 21.2472H62.2243L70.4474 0.866342H66.7991L61.7755 13.4931Z" fill="white"/>
<path d="M83.0854 8.54485H75.4993V0.866211H72.1406V21.0207H75.4993V11.8637H83.0854V21.0207H86.4441V0.866211H83.0854V8.54485Z" fill="white"/>
<path d="M93.7962 0.866211H90.4375V21.0207H93.7962V0.866211Z" fill="white"/>
<path d="M122.144 0.866211L115.195 8.30348V0.866211H111.836V21.0207H115.195V12.7538L115.499 12.437L122.173 21.0207H126.646L117.887 10.0383L126.675 0.866211H122.144Z" fill="white"/>
<path d="M135.419 8.42416L131.264 0.866211H127.398L133.739 12.3465V21.0207H137.084V12.3465L143.454 0.866211H139.588L135.419 8.42416Z" fill="white"/>
<path d="M172.699 0.866342L167.69 13.4931L163.26 0.760742H162.29L157.657 13.4931L152.937 0.866342H149.289L157.092 21.2472H158.222L162.709 8.87686L167.009 21.2472H168.138L176.347 0.866342H172.699Z" fill="white"/>
<path d="M209.355 10.6419C210.158 9.57665 210.582 8.25482 210.557 6.9006C210.585 6.04364 210.426 5.19118 210.093 4.4073C209.759 3.62342 209.26 2.92853 208.631 2.37488C207 1.22058 205.036 0.687771 203.072 0.866306H199.496V21.0208H202.855V12.9952H202.971L208.342 21.0208H212.468L206.561 12.5577C207.666 12.2482 208.645 11.5765 209.355 10.6419V10.6419ZM203.492 9.87249H202.855V4.20025H203.608C206.069 4.20025 207.27 5.09031 207.27 6.93077C207.27 8.77123 206.04 9.87249 203.492 9.87249V9.87249Z" fill="white"/>
<path d="M217.882 0.866211H214.523V21.0207H223.412V17.7019H217.882V0.866211Z" fill="white"/>
<path d="M237.66 3.50618C236.718 2.58151 235.59 1.88597 234.359 1.4696C232.879 1.02114 231.34 0.817522 229.799 0.866175H225.586V21.0207H229.741C231.265 21.0715 232.787 20.8834 234.258 20.4625C235.473 20.0432 236.588 19.3592 237.53 18.4561C238.558 17.5213 239.372 16.3588 239.913 15.0537C240.454 13.7486 240.708 12.3339 240.657 10.9133C240.691 9.52756 240.442 8.15006 239.925 6.87275C239.409 5.59544 238.636 4.44771 237.66 3.50618V3.50618ZM237.269 11.3658C237.252 12.2359 237.066 13.0933 236.723 13.8866C236.379 14.6798 235.886 15.3926 235.271 15.9821L235.011 16.2084C234.432 16.7003 233.776 17.0832 233.071 17.3398H232.911H232.767H232.622H232.52H229.046V4.20012H230.074C231.987 4.05631 233.883 4.66449 235.387 5.90481C236.043 6.54897 236.559 7.33175 236.901 8.20073C237.243 9.06971 237.403 10.0048 237.37 10.9434L237.269 11.3658Z" fill="white"/>
<path d="M104.874 8.84653L102.992 8.0319C101.733 7.48882 101.11 6.80996 101.11 5.96516C101.108 5.67512 101.169 5.38838 101.29 5.1269C101.41 4.86542 101.586 4.63613 101.805 4.45659C102.263 4.09719 102.81 3.88085 103.381 3.83278C103.953 3.7847 104.526 3.90687 105.033 4.18504V4.18504C105.52 4.55315 105.913 5.04006 106.177 5.6031L106.307 5.84447L109.058 4.13978L108.928 3.9135C108.196 2.44386 106.953 1.32128 105.453 0.775667C104.859 0.577568 104.238 0.480778 103.615 0.489038C102.944 0.480563 102.275 0.577183 101.631 0.775667C100.815 1.0054 100.058 1.42295 99.4163 1.99761C98.8717 2.47317 98.4358 3.06931 98.1403 3.74261C97.8448 4.41592 97.6971 5.14943 97.708 5.88973C97.708 8.18276 99.0544 9.94779 101.733 11.1245L103.542 11.9089C103.95 12.0906 104.342 12.3076 104.715 12.5576C105.006 12.7492 105.269 12.9829 105.497 13.2516C105.682 13.486 105.829 13.7512 105.931 14.036C106.021 14.3492 106.065 14.6747 106.061 15.0015C106.071 15.398 106.006 15.7926 105.869 16.1627C105.733 16.5329 105.527 16.8714 105.265 17.1588C104.966 17.4481 104.613 17.6705 104.228 17.812C103.843 17.9535 103.435 18.0112 103.028 17.9815C102.621 17.9518 102.224 17.8353 101.861 17.6393C101.499 17.4433 101.179 17.1719 100.922 16.842V16.842C100.538 16.1576 100.319 15.3862 100.285 14.5942V14.2925L96.8828 15.0619V15.3183C97.0502 16.9939 97.7719 18.5567 98.9241 19.7384C99.708 20.5029 100.68 21.0252 101.733 21.247C102.21 21.3428 102.695 21.3882 103.18 21.3828C103.632 21.3839 104.083 21.3385 104.527 21.247C105.707 21.0024 106.794 20.4048 107.654 19.5272C108.247 18.9188 108.714 18.1897 109.026 17.3851C109.337 16.5806 109.486 15.7178 109.464 14.8507C109.496 13.561 109.103 12.2987 108.349 11.2753C107.407 10.1712 106.212 9.3353 104.874 8.84653V8.84653Z" fill="white"/>
<path d="M188.709 0.775749C187.95 0.592696 187.173 0.501579 186.393 0.504206C185.599 0.501688 184.808 0.592782 184.033 0.775749C182.222 1.19984 180.561 2.146 179.241 3.50627C178.286 4.44226 177.526 5.57407 177.01 6.83059C176.495 8.08711 176.234 9.44119 176.245 10.8078C176.193 12.2914 176.46 13.7683 177.026 15.1306C177.592 16.493 178.443 17.7065 179.516 18.6825C181.354 20.4239 183.75 21.387 186.234 21.3829C186.796 21.3832 187.358 21.3378 187.913 21.2471V21.2471C190.004 20.918 191.938 19.8973 193.429 18.3355C194.385 17.4026 195.147 16.2738 195.665 15.02C196.183 13.7661 196.447 12.4143 196.44 11.0491C196.456 9.67114 196.201 8.30437 195.691 7.03305C195.18 5.76174 194.425 4.61283 193.472 3.65712C192.187 2.23454 190.532 1.23323 188.709 0.775749V0.775749ZM193.053 11.4715C193.053 11.4715 193.053 11.6073 193.053 11.6827V12.1051C192.847 13.5851 192.186 14.9559 191.171 16.0123L190.924 16.2537C189.682 17.4523 188.042 18.1014 186.35 18.064H185.713C184.2 17.9019 182.788 17.1982 181.717 16.0727C181.241 15.5952 180.836 15.046 180.515 14.4434C179.965 13.3618 179.686 12.1526 179.705 10.9284C179.683 9.99635 179.846 9.06964 180.182 8.2056C180.518 7.34155 181.021 6.55852 181.659 5.9049C182.124 5.41057 182.656 4.98885 183.237 4.65278C184.219 4.11526 185.313 3.8405 186.422 3.85324C187.292 3.84192 188.156 4.01531 188.96 4.36284C189.764 4.71037 190.491 5.22477 191.098 5.87472C191.733 6.53967 192.232 7.33149 192.565 8.20257C192.899 9.07365 193.059 10.006 193.038 10.9435C193.053 11.1246 193.053 11.3056 193.038 11.4715H193.053Z" fill="white"/>
<path d="M30.2993 0.655034C29.7029 0.557589 29.0925 0.672932 28.5669 0.982357C28.0413 1.29178 27.6315 1.77714 27.4038 2.35972L20.9904 14.3227L19.5427 11.6978L16.8789 17.0834L19.0505 21.3828H22.6119L32.8618 0.655034H30.2993Z" fill="#9B3717"/>
<path d="M39.4641 0.745605H37.3359V21.3678H39.4641V0.745605Z" fill="white"/>
</g>
<defs>
<clipPath id="clip0">
<rect y="0.489014" width="240.655" height="20.9692" fill="white"/>
</clipPath>
</defs>
</svg>
