<svg width="16" height="16" viewBox="0 0 16 16" fill="none" xmlns="http://www.w3.org/2000/svg">
<path fill-rule="evenodd" clip-rule="evenodd" d="M3.33301 2.66659C3.1562 2.66659 2.98663 2.73682 2.8616 2.86185C2.73658 2.98687 2.66634 3.15644 2.66634 3.33325V12.3904L4.19494 10.8618C4.31996 10.7368 4.48953 10.6666 4.66634 10.6666H12.6663C12.8432 10.6666 13.0127 10.5963 13.1377 10.4713C13.2628 10.3463 13.333 10.1767 13.333 9.99992V3.33325C13.333 3.15644 13.2628 2.98687 13.1377 2.86185C13.0127 2.73682 12.8432 2.66659 12.6663 2.66659H3.33301ZM1.91879 1.91904C2.29387 1.54397 2.80257 1.33325 3.33301 1.33325H12.6663C13.1968 1.33325 13.7055 1.54397 14.0806 1.91904C14.4556 2.29411 14.6663 2.80282 14.6663 3.33325V9.99992C14.6663 10.5304 14.4556 11.0391 14.0806 11.4141C13.7055 11.7892 13.1968 11.9999 12.6663 11.9999H4.94248L2.47108 14.4713C2.28041 14.662 1.99367 14.719 1.74455 14.6158C1.49544 14.5127 1.33301 14.2696 1.33301 13.9999V3.33325C1.33301 2.80282 1.54372 2.29411 1.91879 1.91904Z" fill="#A09B82"/>
</svg>
