<svg xmlns="http://www.w3.org/2000/svg" width="48" height="30" viewBox="0 0 48 30"><g><g><g/><g><g><path fill="#fff" d="M48 28.393c0 .88-.727 1.607-1.608 1.607H1.608C.728 30 0 29.273 0 28.393V1.607C0 .727.727 0 1.608 0H46.43c.88 0 1.607.727 1.607 1.607v26.786z"/></g></g><g><g/><g><g><g><g><path fill="#0099df" d="M38.626 18.443v-.303l-.118.243h-.06l-.117-.243v.303h-.06v-.363h.119l.118.242.118-.242h.118v.363zm-.472 0v-.303h.118v-.06h-.295v.06h.118v.303z"/></g></g><g><path fill="#6c6bbd" d="M28.081 20.01h-8.115V5.025h8.115z"/></g><g><g><path fill="#eb001b" d="M20.485 12.537c0-3.03 1.357-5.758 3.539-7.515-1.593-1.273-3.598-2.061-5.72-2.061-5.131 0-9.26 4.243-9.26 9.516s4.129 9.516 9.26 9.516c2.181 0 4.127-.788 5.72-2.061-2.182-1.637-3.539-4.364-3.539-7.395z"/></g></g><g><g><path fill="#0099df" d="M39.027 12.537c0 5.274-4.128 9.516-9.26 9.516-2.181 0-4.127-.788-5.72-2.06 2.182-1.758 3.539-4.425 3.539-7.516s-1.357-5.758-3.539-7.516c1.593-1.273 3.598-2.06 5.72-2.06 5.073.12 9.26 4.363 9.26 9.636z"/></g></g><g><g><path fill="#231f20" d="M30.817 24.267c.118 0 .236 0 .354.06l-.177.546c-.118-.06-.236-.06-.295-.06-.353 0-.53.242-.53.666v1.394h-.531v-2.545h.53v.303c.119-.243.296-.364.65-.364zm-2.005.546h-.884v1.151c0 .243.059.424.354.424.117 0 .294-.06.471-.12l.177.484c-.177.121-.472.182-.649.182-.648 0-.825-.364-.825-.91v-1.15h-.472v-.486h.472V23.6h.53v.788h.885zm-5.543.545c-.06-.364-.295-.606-.649-.606-.354 0-.59.242-.649.606zm.53.424h-1.828c.06.425.354.606.708.606.236 0 .53-.06.708-.242l.236.424a1.575 1.575 0 0 1-1.003.364c-.708 0-1.238-.546-1.238-1.334 0-.787.53-1.333 1.238-1.333s1.18.546 1.18 1.333v.182zm2.36-.788a1.447 1.447 0 0 0-.767-.242c-.295 0-.472.121-.472.303s.177.242.413.242l.236.061c.53.06.884.303.884.727 0 .485-.412.849-1.12.849-.413 0-.767-.121-1.062-.303l.236-.424c.177.12.472.242.826.242s.59-.121.59-.303c0-.121-.118-.243-.413-.243l-.236-.06c-.649-.121-.944-.364-.944-.788 0-.485.413-.788 1.062-.788.354 0 .707.06 1.002.242zm6.605-.181c-.118 0-.236 0-.295.06-.118 0-.177.06-.295.121-.118.06-.118.182-.118.303 0 .122-.06.182-.06.303 0 .122 0 .243.06.304.059.06.118.181.177.242.059.06.177.121.236.182a.52.52 0 0 0 .295.06c.117 0 .235 0 .294-.06.118 0 .177-.06.236-.121.06-.061.118-.182.177-.243.06-.121.06-.182.06-.303s0-.242-.06-.303c-.059-.182-.118-.303-.177-.364-.059-.06-.118-.12-.236-.12-.118-.061-.177-.061-.294-.061zm0-.546c.176 0 .353 0 .53.121.177.06.295.182.413.303.118.122.236.243.295.425.059.181.118.363.118.545 0 .182-.059.303-.118.485a1.842 1.842 0 0 1-.295.424.945.945 0 0 1-.413.243c-.177.12-.354.12-.53.12-.177 0-.354 0-.531-.12a.945.945 0 0 1-.413-.243 1.843 1.843 0 0 1-.295-.424c-.059-.182-.118-.364-.118-.546 0-.181.06-.363.118-.545.059-.182.177-.303.295-.424.118-.122.236-.243.413-.303.177-.061.354-.061.53-.061zm-13.152 2.121c.472 0 .767-.363.767-.788 0-.424-.295-.787-.767-.787-.471 0-.766.363-.766.787 0 .425.295.788.766.788zm1.18-.788v1.273h-.53v-.303c-.178.243-.414.364-.768.364-.707 0-1.238-.546-1.238-1.334s.53-1.333 1.238-1.333c.354 0 .65.121.826.364v-.303h.53V25.6zm-3.598 1.273V25.48c0-.424-.176-.666-.53-.666-.354 0-.59.242-.59.666v1.394h-.53V25.48c0-.424-.178-.666-.532-.666-.353 0-.59.242-.59.666v1.394h-.53v-2.545h.53v.303c.178-.303.472-.364.708-.364.413 0 .649.182.826.424.236-.303.59-.424.885-.424.59 0 .943.424.943 1.03v1.576z"/></g></g><g><g><path fill="#231f20" d="M34.686 26.672c.06 0 .06 0 .118.06v-.12h-.177v.242h.06v-.06h.117l-.059-.061h-.059zm-.059.242s0-.06-.059-.06-.059-.06-.059-.06v-.122c.06-.06.118 0 .118-.06 0-.061.06-.061.06-.061h.117s-.059.06 0 .06c.06 0 .06.061.06.061v.121s-.06 0-.06.06c0 .061-.059.061-.059.061zm-.059-.424l-.059.06s-.059 0-.059.061v.242l.06.061s0 .061.058.061h.236l.06-.06c.058 0 .058 0 .058-.061v-.121-.122l-.059-.06s0-.06-.059-.06h-.118-.118z"/></g></g></g></g></g></g></g></svg>