<svg xmlns="http://www.w3.org/2000/svg" width="48" height="30" viewBox="0 0 48 30"><g><g><g/><g><g><path fill="#006fcf" d="M48 28.393c0 .88-.727 1.607-1.608 1.607H1.608C.728 30 0 29.273 0 28.393V1.607C0 .727.727 0 1.608 0H46.43c.88 0 1.607.727 1.607 1.607v26.786z"/></g><g><g><path fill="#fff" d="M14.894 14.312v-.497l-.23.497h-1.99l-.23-.536v.498H8.732L8.31 13.24h-.727l-.46 1.033H5.21v-3.138L6.626 7.96h2.718l.383.918v-.88h3.292l.727 1.53.727-1.53h10.45s.536 0 .919.23v-.23h2.64v.345s.46-.345 1.187-.345h4.632l.421.919v-.919h2.986l.536.919v-.919h2.832v6.352h-2.91l-.688-1.11v1.11h-3.79l-.497-1.148h-.727l-.498 1.148h-2.182s-.804 0-1.416-.459v.46h-4.364v-1.493c0-.23-.153-.191-.153-.191h-.153v1.683h-8.804z"/></g><g><path fill="#fff" d="M12.71 15.69h5.742l.842.957.842-.957h4.402s.42 0 .804.23v-.23h3.942c.498 0 .919.268.919.268v-.268h5.053v.23s.344-.23.842-.23h3.291v.23s.421-.23.842-.23h2.603v5.97s-.344.382-1.033.382h-3.407v-.191s-.306.191-.804.191H28.52v-1.53c0-.154-.077-.192-.192-.192h-.115v1.722H25.38V20.32s-.306.153-.842.153h-1.034v1.53h-3.483l-.804-.956-.842.995H12.71z"/></g><g><path fill="#006fcf" d="M30.81 16.61h3.636v.995H31.92v.842h2.45v.842h-2.45v.88h2.526v.956H30.81z"/></g><g><path fill="#006fcf" d="M41.411 18.372c1.34.076 1.455.765 1.455 1.454 0 .842-.689 1.301-1.416 1.301h-2.335v-.957h1.799c.306 0 .765 0 .765-.42 0-.192-.076-.345-.42-.383-.154-.038-.69-.038-.766-.038C39.268 19.29 39 18.679 39 17.95c0-.842.574-1.301 1.301-1.301h2.335v.957h-1.684c-.383 0-.804-.039-.804.382 0 .268.192.345.46.345.114 0 .727.038.803.038z"/></g><g><path fill="#006fcf" d="M37.241 18.372c1.34.076 1.455.765 1.455 1.454 0 .842-.689 1.301-1.416 1.301h-2.335v-.957h1.799c.306 0 .765 0 .765-.42 0-.192-.076-.345-.42-.383-.154-.038-.69-.038-.766-.038-1.225-.039-1.493-.65-1.493-1.378 0-.842.574-1.301 1.301-1.301h2.335v.957h-1.684c-.383 0-.804-.039-.804.382 0 .268.192.345.46.345.114 0 .727.038.803.038z"/></g><g><path fill="#006fcf" d="M24.15 16.648c.574 0 1.34.23 1.377 1.301 0 1.57-1.033 1.607-1.607 1.607h-1.493v1.531h-2.105l-1.302-1.492-1.34 1.492h-4.21V16.61h4.325l1.225 1.416 1.263-1.378zm-5.857 2.181l-1.072-1.224h-2.68v.842h2.45v.842h-2.45v.88h2.565zm3.024-1.76l-1.57 1.76 1.57 1.875zm2.488 1.607c.421 0 .612-.268.612-.574 0-.191-.153-.497-.612-.497h-1.378v1.071z"/></g><g><path fill="#006fcf" d="M30.242 20.247l.039.918h-1.072l-.039-.842c0-.382-.153-.765-.535-.765H27.18v1.569h-1.11V16.65h2.87c.575 0 1.34.23 1.34 1.186 0 .574-.153.957-.765 1.263.498.038.689.383.727 1.148zm-1.684-1.607c.46 0 .612-.23.612-.536 0-.191-.153-.497-.612-.497H27.18v1.033z"/></g><g><path fill="#006fcf" d="M27.64 8.88h-1.11v4.515h1.11z"/></g><g><path fill="#006fcf" d="M17.49 8.88h3.598v.957h-2.526v.841h2.45v.88h-2.45v.88h2.526v.919H17.49z"/></g><g><path fill="#006fcf" d="M25.912 12.477l.039.918h-1.072l-.039-.842c0-.382-.153-.765-.535-.765H22.85v1.569h-1.11V8.88h2.87c.575 0 1.34.23 1.34 1.186 0 .574-.153.957-.765 1.263.498.038.689.383.727 1.148zm-1.684-1.607c.421 0 .612-.23.612-.536 0-.191-.153-.497-.612-.497H22.85v1.033z"/></g><g><path fill="#006fcf" d="M16.732 8.88v4.477h-1.11v-3.29l-1.493 3.29h-.996l-1.492-3.329v3.329H9.42l-.422-.995H6.78l-.42.995H5.21L7.162 8.88h1.455l1.914 4.324V8.88h1.722l1.34 3.023 1.34-3.023zm-8.23 2.526l-.69-1.57-.65 1.57z"/></g><g><path fill="#006fcf" d="M40.036 8.878v4.439h-1.493l-1.99-3.29v3.29h-2.182l-.42-.995H31.73l-.421.995h-1.455c-1.224 0-1.76-.995-1.722-2.258.038-1.836 1.148-2.219 1.646-2.219h1.454v.995h-.689c-.727 0-1.301.076-1.301 1.148v.344c0 .804.421.995.689 1.033h.689l1.531-3.482h1.455l1.875 4.21v-4.21h1.646l1.876 3.1v-3.1zm-6.469 2.526l-.689-1.57-.65 1.57z"/></g></g></g></g></g></svg>