<svg width="64" height="41" viewBox="0 0 64 41" fill="none" xmlns="http://www.w3.org/2000/svg">
<g clip-path="url(#clip0)">
<path d="M64 38.8036C64 40.0064 63.0303 41 61.8565 41H2.14354C0.969697 41 0 40.0064 0 38.8036V2.19643C0 0.993622 0.969697 0 2.14354 0H61.9075C63.0813 0 64.051 0.993622 64.051 2.19643V38.8036H64Z" fill="white"/>
<path d="M44.3511 18.3036C43.9428 18.0944 43.3303 17.9375 42.4627 17.9375C42.0544 17.9375 41.5951 17.9898 41.1868 18.0421C40.8806 18.0944 40.8296 18.0944 40.6254 18.1467C40.2171 18.2513 40.1661 18.6696 40.1661 18.6696L40.013 19.1926C39.9619 19.5587 40.115 19.5064 40.2171 19.5064C40.3702 19.4541 40.4723 19.4018 40.8296 19.2972C41.1868 19.1926 41.5441 19.1403 41.8503 19.1403C42.2586 19.1403 42.6158 19.1926 42.82 19.2972C43.0241 19.4018 43.1262 19.5587 43.1262 19.7679C43.1262 19.8202 43.1262 19.8724 43.1262 19.9247C43.1262 19.977 43.0752 20.0293 42.9731 20.0293C42.3607 20.0816 41.9524 20.1339 41.391 20.1862C40.8806 20.2385 40.4213 20.3954 40.013 20.5523C39.6047 20.7615 39.2985 20.9707 39.0943 21.2844C38.8902 21.6505 38.7881 22.0689 38.7881 22.4872C38.7881 22.9056 38.9412 23.2717 39.2474 23.5332C39.5536 23.7946 39.9109 23.9515 40.3702 23.9515C40.6764 23.9515 40.8806 23.9515 41.0337 23.8992C41.1868 23.8469 41.3399 23.7946 41.5441 23.7423C41.6972 23.6901 41.8503 23.5855 42.0034 23.4809C42.1565 23.3763 42.2586 23.324 42.4117 23.2194L42.3607 23.324C42.3096 23.5332 42.4627 23.6901 42.6669 23.7423C42.82 23.7423 43.2793 23.7423 43.4835 23.7423H43.6366C43.8407 23.7423 44.0449 23.5332 44.0959 23.324L44.8615 19.8724C44.8615 19.7679 44.9125 19.7156 44.9125 19.611C44.9125 19.5064 44.9125 19.4018 44.9125 19.3495C44.9635 18.8788 44.7594 18.5128 44.3511 18.3036ZM42.4627 22.3827C42.3096 22.4872 42.2075 22.5395 42.0544 22.5918C41.8503 22.6964 41.6461 22.6964 41.493 22.6964C41.2378 22.6964 41.0337 22.6441 40.8806 22.5918C40.7275 22.5395 40.6764 22.3827 40.6764 22.1735C40.6764 21.9643 40.7275 21.7551 40.8296 21.6505C40.9316 21.4936 41.0847 21.389 41.2889 21.3367C41.493 21.2844 41.6972 21.2321 42.0034 21.1798C42.2586 21.1276 42.7179 21.0753 42.7689 21.0753C42.82 21.0753 42.871 21.023 42.82 21.2321C42.82 21.2844 42.6669 21.912 42.6158 22.1735C42.6158 22.2258 42.5138 22.3304 42.4627 22.3827Z" fill="#336699"/>
<path d="M30.9283 17.9897C30.7242 17.9897 30.418 18.1989 30.2648 18.4081C30.2648 18.4081 28.7337 21.0752 28.5806 21.3367C28.4786 21.4936 28.4275 21.389 28.3765 21.3367C28.3765 21.2844 27.9172 18.4081 27.9172 18.4081C27.8661 18.1989 27.6109 17.9897 27.3558 17.9897H26.3861C26.1309 17.9897 26.0288 18.1989 26.0798 18.4081C26.0798 18.4081 26.7943 22.6441 26.9475 23.6377C26.9985 24.213 26.9475 24.2653 26.9475 24.2653L26.0288 25.991C25.8757 26.2002 25.9778 26.4094 26.1819 26.4094H27.3047C27.5089 26.4094 27.8151 26.2002 27.9682 25.991L32.2042 18.6173C32.2042 18.6173 32.6125 17.9897 32.2553 17.9897C31.9491 17.9897 30.9283 17.9897 30.9283 17.9897Z" fill="#003366"/>
<path d="M17.5568 19.5063C17.2506 19.7678 16.7913 19.8724 16.2299 19.8724H15.9747C15.7195 19.8724 15.6174 19.6632 15.6685 19.454L15.9747 18.042C16.0257 17.8328 16.2299 17.6237 16.4851 17.6237H16.8423C17.2506 17.6237 17.5568 17.676 17.761 17.8328C17.9651 17.9897 18.0672 18.1989 18.0672 18.4604C18.0162 18.9311 17.863 19.2448 17.5568 19.5063ZM19.8535 17.3099C19.7004 17.0484 19.5473 16.8392 19.2921 16.6823C19.0369 16.5254 18.7307 16.4209 18.3734 16.3163C18.0162 16.264 17.6079 16.2117 17.0975 16.2117H14.8519C14.5967 16.2117 14.3926 16.4209 14.3415 16.63L12.8615 23.3239C12.8104 23.5331 12.9635 23.7423 13.1677 23.7423H14.2394C14.4436 23.7423 14.6988 23.5331 14.7498 23.3239L15.1071 21.7027C15.1581 21.4936 15.3623 21.2844 15.6174 21.2844H15.9237C17.2506 21.2844 18.2203 21.0229 18.9859 20.4476C19.7004 19.9247 20.0576 19.1925 20.0576 18.3035C20.0576 17.9374 20.0066 17.5714 19.8535 17.3099Z" fill="#003366"/>
<path d="M36.8996 19.5586C36.5934 19.82 36.134 19.9246 35.5726 19.9246H35.3175C35.0623 19.9246 34.9602 19.7154 35.0112 19.5063L35.3175 18.0943C35.3685 17.8851 35.5726 17.6759 35.8278 17.6759H36.1851C36.5934 17.6759 36.8996 17.7282 37.1037 17.8851C37.3079 18.042 37.41 18.2512 37.41 18.5126C37.3589 18.931 37.2058 19.2971 36.8996 19.5586ZM39.1963 17.3621C39.0431 17.1007 38.839 16.8915 38.6348 16.7346C38.3797 16.5777 38.0734 16.4731 37.7162 16.3685C37.3589 16.3162 36.9506 16.2639 36.4403 16.2639H34.1947C33.9395 16.2639 33.7353 16.4731 33.6843 16.6823L32.2042 23.3762C32.1532 23.5853 32.3063 23.7945 32.5104 23.7945H33.5822C33.7864 23.7945 34.0415 23.5853 34.0926 23.3762L34.4498 21.755C34.5009 21.5458 34.7561 21.3366 34.9602 21.3366H35.2664C36.5934 21.3366 37.5631 21.0751 38.3286 20.4999C39.0431 19.9246 39.4004 19.2448 39.4004 18.3558C39.4004 17.9374 39.3494 17.6236 39.1963 17.3621Z" fill="#336699"/>
<path d="M25.0083 18.3036C24.6 18.0944 23.9876 17.9375 23.12 17.9375C22.7117 17.9375 22.2523 17.9898 21.844 18.0421C21.5378 18.0944 21.4868 18.0944 21.2826 18.1467C20.8743 18.2513 20.8233 18.6696 20.8233 18.6696L20.6702 19.1926C20.6192 19.5587 20.7723 19.5064 20.8743 19.5064C21.0275 19.4541 21.1295 19.4018 21.4868 19.2972C21.844 19.1926 22.2013 19.1403 22.5075 19.1403C22.9158 19.1403 23.2731 19.1926 23.4772 19.2972C23.6814 19.4018 23.7834 19.5587 23.7834 19.7679C23.7834 19.8202 23.7834 19.8724 23.7834 19.9247C23.7834 19.977 23.7324 20.0293 23.6303 20.0293C23.0179 20.0816 22.6096 20.1339 22.0482 20.1862C21.5378 20.2385 21.0785 20.3954 20.6702 20.5523C20.2619 20.7615 19.9557 20.9707 19.7515 21.2844C19.5474 21.5982 19.4453 21.9643 19.4453 22.435C19.4453 22.8533 19.5984 23.2194 19.9046 23.4809C20.2109 23.7423 20.5681 23.8992 21.0275 23.8992C21.3337 23.8992 21.5378 23.8992 21.6909 23.8469C21.844 23.7946 21.9971 23.7423 22.2013 23.6901C22.3544 23.6378 22.5075 23.5332 22.6606 23.4286C22.8137 23.324 22.9158 23.2717 23.0689 23.1671L23.0179 23.324C22.9668 23.5332 23.12 23.6901 23.3241 23.7423C23.4772 23.7423 23.9365 23.7423 24.1407 23.7423H24.2938C24.4979 23.6901 24.7021 23.5332 24.7531 23.324L25.5187 19.8724C25.5187 19.7679 25.5697 19.7156 25.5697 19.611C25.5697 19.5064 25.5697 19.4018 25.5697 19.3495C25.5697 18.8788 25.3656 18.5128 25.0083 18.3036ZM23.12 22.3827C22.9668 22.4872 22.8648 22.5395 22.7117 22.5918C22.5075 22.6964 22.3034 22.6964 22.1503 22.6964C21.8951 22.6964 21.6909 22.6441 21.5378 22.5918C21.3847 22.5395 21.3337 22.3827 21.3337 22.1735C21.3337 21.9643 21.3847 21.7551 21.4868 21.6505C21.5889 21.4936 21.742 21.389 21.9461 21.3367C22.1503 21.2844 22.3544 21.2321 22.6606 21.1798C22.9158 21.1276 23.3751 21.0753 23.4262 21.0753C23.4772 21.0753 23.5282 21.023 23.4772 21.2321C23.4772 21.2844 23.3241 21.912 23.2731 22.1735C23.2731 22.2258 23.171 22.3304 23.12 22.3827Z" fill="#003366"/>
<path d="M48.0264 16.3164H47.0567C46.8526 16.3164 46.6484 16.4733 46.5463 16.6825C46.5463 16.6825 46.5463 16.6825 46.5463 16.7348C46.5463 16.7348 46.5463 16.8394 46.4953 16.9963L45.1683 23.1149C45.1173 23.2718 45.1173 23.3241 45.1173 23.3764C45.0663 23.5855 45.2194 23.7424 45.4235 23.7947H46.3932C46.5974 23.7947 46.8015 23.6378 46.9036 23.4286C46.9036 23.4286 46.9036 23.4286 46.9036 23.3764L48.3326 16.7348C48.3837 16.4733 48.2306 16.3164 48.0264 16.3164Z" fill="#336699"/>
<path d="M49.4545 17.6759C49.4035 17.6759 49.4035 17.6759 49.3524 17.6759C49.3014 17.6759 49.3014 17.6759 49.2503 17.6759C49.1483 17.6759 49.0462 17.6236 48.9952 17.5713C48.9441 17.519 48.8931 17.4144 48.8931 17.3098V16.7346H48.791V16.5777H48.8931V16.2639H49.0462V16.5777H49.4035V16.7346H49.0462V17.2575C49.0462 17.3098 49.0462 17.3621 49.0462 17.3621C49.0462 17.4144 49.0462 17.4144 49.0972 17.4667L49.1483 17.519C49.1483 17.519 49.1993 17.519 49.2503 17.519C49.3014 17.519 49.3014 17.519 49.3524 17.519C49.4035 17.519 49.4035 17.519 49.4035 17.519V17.6759H49.4545Z" fill="#336699"/>
<path d="M51.189 17.6759H51.0359V17.0483C51.0359 16.9961 51.0359 16.9438 51.0359 16.8915C51.0359 16.8392 51.0359 16.8392 50.9849 16.7869C50.9849 16.7346 50.9339 16.7346 50.9339 16.7346C50.8828 16.7346 50.8828 16.7346 50.8318 16.7346C50.7808 16.7346 50.7297 16.7346 50.6787 16.7869C50.6276 16.7869 50.5766 16.8392 50.5256 16.8915V16.9438V16.9961V17.6759H50.3725V17.0483C50.3725 16.9961 50.3725 16.9438 50.3725 16.8915C50.3725 16.8392 50.3725 16.8392 50.3214 16.7869C50.3214 16.7346 50.2704 16.7346 50.2704 16.7346C50.2194 16.7346 50.2194 16.7346 50.1683 16.7346C50.1173 16.7346 50.0662 16.7346 50.0152 16.7869C49.9642 16.7869 49.9131 16.8392 49.8621 16.8915V17.6759H49.709V16.63H49.8621V16.7346C49.9131 16.6823 49.9642 16.63 50.0152 16.63C50.0662 16.63 50.1173 16.5777 50.1683 16.5777C50.2194 16.5777 50.3214 16.5777 50.3725 16.63C50.4235 16.6823 50.4745 16.6823 50.4745 16.7346C50.5256 16.6823 50.6276 16.63 50.6787 16.5777C50.7297 16.5254 50.7808 16.5254 50.8828 16.5254C50.9849 16.5254 51.087 16.5777 51.138 16.63C51.189 16.6823 51.2401 16.7869 51.2401 16.9438V17.6759H51.189Z" fill="#336699"/>
</g>
<defs>
<clipPath id="clip0">
<path d="M0 0H64V41H0V0Z" fill="white"/>
</clipPath>
</defs>
</svg>
