<svg width="12" height="12" viewBox="0 0 12 12" fill="none" xmlns="http://www.w3.org/2000/svg">
<path fill-rule="evenodd" clip-rule="evenodd" d="M6 0.5C6.19031 0.5 6.36412 0.608036 6.44836 0.778688L7.87713 3.67323L11.0723 4.14026C11.2606 4.16778 11.4169 4.29978 11.4756 4.48078C11.5343 4.66179 11.4852 4.86041 11.3489 4.99318L9.03726 7.24468L9.5828 10.4255C9.61497 10.6131 9.53785 10.8027 9.38386 10.9145C9.22987 11.0264 9.02573 11.0411 8.85727 10.9525L6 9.44992L3.14273 10.9525C2.97428 11.0411 2.77013 11.0264 2.61614 10.9145C2.46215 10.8027 2.38503 10.6131 2.41721 10.4255L2.96275 7.24468L0.651148 4.99318C0.514839 4.86041 0.465703 4.66179 0.524391 4.48078C0.58308 4.29978 0.73942 4.16778 0.9277 4.14026L4.12288 3.67323L5.55165 0.778688C5.63589 0.608036 5.80969 0.5 6 0.5ZM6 2.12963L4.90336 4.35131C4.83059 4.49874 4.69 4.60097 4.52732 4.62474L2.07422 4.9833L3.84887 6.71182C3.96681 6.82669 4.02064 6.99226 3.99281 7.15452L3.5741 9.59584L5.76728 8.44246C5.91297 8.36585 6.08704 8.36585 6.23273 8.44246L8.42591 9.59584L8.00719 7.15452C7.97936 6.99226 8.0332 6.82669 8.15113 6.71182L9.92579 4.9833L7.47269 4.62474C7.31001 4.60097 7.16942 4.49874 7.09665 4.35131L6 2.12963Z" fill="#9B3717"/>
</svg>
