<svg width="72" height="72" viewBox="0 0 72 72" fill="none" xmlns="http://www.w3.org/2000/svg">
<circle cx="36" cy="36" r="36" fill="#F7F7F7"/>
<path opacity="0.4" d="M26.5 56H40" stroke="#3C3700" stroke-width="1.5" stroke-linecap="round" stroke-linejoin="round"/>
<path opacity="0.4" d="M43 56H45" stroke="#3C3700" stroke-width="1.5" stroke-linecap="round" stroke-linejoin="round"/>
<g clip-path="url(#clip0)">
<path d="M22.5757 49.4092C20.1839 47.0174 18.5045 44.1167 17.6394 40.9106C16.8251 37.7554 16.8251 34.4984 17.5885 31.3941L17.6902 31.0887C18.5045 27.8318 20.1839 24.931 22.5757 22.5392C24.9676 20.1473 27.8683 18.468 31.0744 17.6028L31.3797 17.5011C34.5349 16.7886 37.7919 16.7886 40.9471 17.6028C44.1532 18.468 47.1048 20.1982 49.4458 22.5392C51.8376 24.931 53.517 27.8318 54.3821 31.0379C55.2473 34.1422 55.2473 37.3991 54.433 40.5543L54.3312 40.8597C53.4661 44.0658 51.7358 47.0174 49.3949 49.3584C47.003 51.7502 44.1023 53.4296 40.8962 54.2947L40.6418 54.4474C37.5375 55.2107 34.2805 55.2107 31.1253 54.3965C27.8683 53.4805 24.9676 51.8011 22.5757 49.4092ZM18.8098 31.0887L18.7589 31.3432C17.8938 34.3457 17.8938 37.6027 18.7081 40.6561C19.5223 43.7095 21.1508 46.4576 23.39 48.6968C25.6291 50.936 28.4281 52.5135 31.4306 53.3787C34.484 54.1929 37.6901 54.2438 40.6926 53.3787L40.998 53.2769C43.8987 52.4118 46.545 50.8851 48.7333 48.6968C50.8707 46.5594 52.4483 43.8622 53.3134 40.9615L53.3134 40.6561C54.1277 37.6027 54.1277 34.4475 53.3134 31.3941C52.4992 28.3407 50.8707 25.5926 48.6315 23.3534C46.4432 21.0634 43.6443 19.4858 40.6926 18.6715C37.6392 17.8573 34.3823 17.8573 31.3797 18.7224L31.0744 18.8242C28.1736 19.6893 25.5273 21.216 23.3391 23.4043C21.1508 25.4908 19.5732 28.188 18.8098 31.0887ZM24.6622 47.3227C22.6775 45.338 21.2017 42.8444 20.4892 40.0963C19.7767 37.3483 19.7767 34.4984 20.4892 31.7503C21.2017 29.0022 22.6266 26.5595 24.6113 24.5748C26.596 22.5901 29.0897 21.1143 31.8377 20.4018C34.5349 19.6384 37.4357 19.6893 40.1837 20.4018C42.9318 21.1143 45.3745 22.5392 47.4102 24.5748C49.3949 26.5595 50.8707 29.0531 51.5832 31.8012C52.2956 34.5493 52.2956 37.3991 51.5832 40.1472C50.8707 42.8953 49.4458 45.338 47.4102 47.3736C45.4254 49.3584 42.9318 50.8342 40.2346 51.4957C37.5374 52.2591 34.6367 52.2082 31.8886 51.4957C29.1406 50.7833 26.6469 49.3075 24.6622 47.3227ZM46.5959 25.389C44.713 23.5061 42.372 22.183 39.8784 21.5214C37.3339 20.8089 34.6367 20.8598 32.1431 21.5214C29.6495 22.183 27.3085 23.5061 25.4256 25.389C23.5426 27.272 22.2195 29.6129 21.5579 32.1066C20.8454 34.6511 20.8454 37.2974 21.5579 39.8419C22.2195 42.3355 23.5426 44.6765 25.4256 46.5594C27.3085 48.4423 29.6495 49.7655 32.1431 50.4271C34.6876 51.1395 37.3848 51.0886 39.8784 50.4271C42.372 49.7655 44.713 48.4423 46.5959 46.5594C48.4789 44.6765 49.802 42.3355 50.4636 39.8419C51.176 37.2974 51.176 34.6511 50.4636 32.1066C49.802 29.6129 48.4789 27.272 46.5959 25.389Z" fill="#3C3700"/>
<path d="M22.5753 49.4089C22.3718 49.2054 22.3209 48.8491 22.5753 48.5947L24.6109 46.5591C24.8145 46.3555 25.1707 46.3046 25.4252 46.5591C25.6796 46.8135 25.6796 47.1189 25.4252 47.3733L23.3387 49.4598C23.1351 49.6634 22.7789 49.6125 22.5753 49.4089Z" fill="#3C3700"/>
<path d="M46.5956 25.3887C46.392 25.1852 46.3411 24.8289 46.5956 24.5745L48.6312 22.5389C48.9365 22.3353 49.2419 22.3353 49.4455 22.5389C49.649 22.7424 49.6999 23.0987 49.4455 23.3531L47.359 25.4396C47.1554 25.6432 46.7992 25.5923 46.5956 25.3887Z" fill="#3C3700"/>
<path d="M30.8713 54.2442C30.7186 54.0915 30.6677 53.9389 30.7186 53.6844L31.5328 50.8346C31.6346 50.5292 31.8891 50.3765 32.1944 50.4783C32.4998 50.5801 32.6524 50.8346 32.5507 51.1399L31.7364 53.9898C31.6346 54.2951 31.3802 54.4478 31.0748 54.346C30.9731 54.346 30.9222 54.2951 30.8713 54.2442Z" fill="#3C3700"/>
<path d="M39.6243 21.369C39.4716 21.2163 39.4207 21.0637 39.4716 20.8092L40.235 17.9085C40.3368 17.6031 40.5912 17.4505 40.8966 17.5522C41.2019 17.654 41.3546 17.9085 41.2528 18.2138L40.4894 21.1146C40.3877 21.4199 40.1332 21.5726 39.8279 21.4708C39.777 21.5217 39.7261 21.4708 39.6243 21.369Z" fill="#3C3700"/>
<path d="M40.4385 54.2441L40.3367 54.1424L39.5734 51.1398C39.4716 50.8345 39.6752 50.5292 39.9296 50.4783C40.2349 50.3765 40.5403 50.58 40.5912 50.8345L41.3545 53.6335C41.4054 53.7861 41.3545 54.0406 41.2019 54.1933C40.9474 54.4477 40.6421 54.4477 40.4385 54.2441Z" fill="#3C3700"/>
<path d="M31.6346 21.42C31.5837 21.3691 31.4819 21.2673 31.4819 21.1655L30.7185 18.3666C30.6676 18.2139 30.7185 17.9595 30.8712 17.8068C31.0748 17.6032 31.431 17.5523 31.6346 17.7559L31.7363 17.8577L31.7872 18.0103L32.4997 20.8602C32.6015 21.1655 32.3979 21.4709 32.1435 21.5218C31.9399 21.6235 31.7363 21.5218 31.6346 21.42Z" fill="#3C3700"/>
<path d="M48.683 49.4608L46.5965 47.3744C46.393 47.1708 46.3421 46.8146 46.5965 46.5601C46.851 46.3057 47.1563 46.3057 47.4108 46.5601L49.4973 48.6466C49.7008 48.8502 49.7517 49.2064 49.4973 49.4608C49.2428 49.7153 48.8866 49.6644 48.683 49.4608Z" fill="#3C3700"/>
<path d="M24.662 25.4399L22.5755 23.3534C22.372 23.1499 22.3211 22.7936 22.5755 22.5392C22.83 22.2847 23.1353 22.2847 23.3898 22.5392L25.4763 24.6257C25.6799 24.8292 25.7307 25.1855 25.4763 25.4399C25.2218 25.6944 24.8656 25.6435 24.662 25.4399Z" fill="#3C3700"/>
<path d="M17.8939 31.6996L17.7921 31.5978C17.5886 31.3943 17.5377 31.0381 17.7921 30.7836C17.9448 30.6309 18.1992 30.58 18.3519 30.6309L21.1509 31.3943C21.4562 31.4961 21.6089 31.7505 21.5071 32.0559C21.4053 32.3612 21.1509 32.5139 20.8455 32.4121L17.8939 31.6996Z" fill="#3C3700"/>
<path d="M50.6163 40.4018C50.4637 40.2491 50.4128 40.0965 50.4637 39.842C50.5654 39.5367 50.8199 39.384 51.1252 39.4858L54.1278 40.2491L54.2295 40.3509C54.4331 40.5545 54.484 40.9107 54.2295 41.1652C54.0769 41.3178 53.8224 41.3687 53.6697 41.3178L50.8708 40.5545C50.7181 40.5036 50.6672 40.4527 50.6163 40.4018Z" fill="#3C3700"/>
<path d="M17.7912 41.1642C17.7403 41.1133 17.6385 41.0115 17.6385 40.9097C17.5368 40.6044 17.7403 40.299 17.9948 40.2482L20.8955 39.4848C21.2009 39.383 21.5062 39.5866 21.5571 39.841C21.6589 40.1464 21.4553 40.4517 21.2009 40.5026L18.3001 41.266C18.0966 41.3677 17.893 41.266 17.7912 41.1642Z" fill="#3C3700"/>
<path d="M50.6164 32.3612C50.5655 32.3103 50.4637 32.2085 50.4637 32.1067C50.362 31.8014 50.5655 31.4961 50.82 31.4452L53.6698 30.6309C53.9752 30.5292 54.2805 30.7327 54.3314 30.9872C54.4332 31.2925 54.2296 31.5978 53.9752 31.6487L51.1253 32.463C50.9217 32.5648 50.7691 32.5139 50.6164 32.3612Z" fill="#3C3700"/>
<path d="M24.1023 33.2261C23.8987 33.0225 23.8479 32.6663 24.1023 32.4119L33.2626 23.2516C33.4661 23.048 33.8223 22.9972 34.0768 23.2516C34.3313 23.5061 34.3313 23.8114 34.0768 24.0658L24.9166 33.2261C24.6621 33.4805 24.3059 33.4297 24.1023 33.2261Z" fill="#3C3700"/>
<path d="M25.4767 42.7429C25.2731 42.5393 25.2222 42.1831 25.4767 41.9286L40.7438 26.6615C40.9473 26.458 41.3036 26.4071 41.558 26.6615C41.8125 26.916 41.8125 27.2213 41.558 27.4758L26.2909 42.7429C25.9856 42.9464 25.6802 42.9464 25.4767 42.7429Z" fill="#3C3700"/>
<path d="M30.871 46.1017C30.6674 45.8981 30.6165 45.5419 30.871 45.2874L46.138 30.0203C46.3416 29.8168 46.6978 29.7659 46.9523 30.0203C47.2067 30.2748 47.2067 30.5801 46.9523 30.8346L31.6852 46.1017C31.4308 46.3561 31.1254 46.3561 30.871 46.1017Z" fill="#3C3700"/>
<path d="M39.3688 48.4924C39.1652 48.2888 39.1143 47.9326 39.3688 47.6782L48.0201 39.0268C48.2237 38.8233 48.5799 38.7724 48.8344 39.0268C49.0888 39.2813 49.0888 39.5866 48.8344 39.8411L40.183 48.4924C39.9286 48.7468 39.5723 48.696 39.3688 48.4924Z" fill="#3C3700"/>
<circle cx="36.0719" cy="36.072" r="8.24621" fill="white" stroke="#C41433" stroke-width="1.5"/>
<path d="M33 33L39 39" stroke="#C41433" stroke-width="1.5"/>
<path d="M39 33L33 39" stroke="#C41433" stroke-width="1.5"/>
</g>
<defs>
<clipPath id="clip0">
<rect x="17" y="17" width="38" height="38" fill="white"/>
</clipPath>
</defs>
</svg>
