<svg xmlns="http://www.w3.org/2000/svg" width="18" height="16" viewBox="0 0 18 16"><g><g><path fill="#a09b82" d="M15.891 3.013c.808-.496 1.343-1.173 1.605-2.034-.738.4-1.53.69-2.351.861-.703-.756-1.593-1.14-2.66-1.14-1.043 0-1.924.366-2.643 1.078a3.56 3.56 0 0 0-1.076 2.605c0 .309.039.585.117.819-3.076-.105-5.622-1.381-7.628-3.837-.34.601-.51 1.213-.51 1.846 0 1.301.549 2.332 1.645 3.089-.625-.053-1.176-.211-1.645-.47 0 .929.273 1.705.82 2.388A3.623 3.623 0 0 0 3.68 9.509c-.312.08-.641.118-.979.118-.312 0-.533-.026-.664-.083.23.757.664 1.371 1.291 1.841.62.47 1.374.731 2.152.743C4.148 13.173 2.625 13.69.902 13.69c-.422 0-.721-.006-.902-.038 1.697 1.102 3.586 1.649 5.676 1.649 2.139 0 4.029-.542 5.674-1.626 1.645-1.078 2.859-2.408 3.639-3.974a10.77 10.77 0 0 0 1.172-4.892v-.468a7.787 7.787 0 0 0 1.84-1.921 8.143 8.143 0 0 1-2.11.593z"/></g></g></svg>