<svg xmlns="http://www.w3.org/2000/svg" width="38" height="46" viewBox="0 0 38 46"><g><g><g><path fill="#f43c3c" d="M11.475 22.95c6.337 0 11.475-5.138 11.475-11.475S17.812 0 11.475 0 0 5.138 0 11.475 5.138 22.95 11.475 22.95z"/></g><g><g><path fill="#f1f2f6" d="M28.895 33.71c.349.19.714.348 1.09.476a11.546 11.546 0 0 1-2.061 3.068l-1.007 6.702a2.212 2.212 0 0 1-1.313 1.71 2.214 2.214 0 0 1-2.144-.207l-4.988-3.431c-.996.156-2.012.235-3.03.235-4.061 0-7.893-1.23-10.79-3.465C1.652 36.484 0 33.375 0 30.046c0-3.33 1.652-6.439 4.652-8.753 2.362-1.822 5.348-2.976 8.572-3.34.032.063.065.126.1.189.411.752.908 1.548 1.47 2.367-6.744.254-12.126 4.434-12.126 9.536 0 5.266 5.73 9.549 12.774 9.549 1.043 0 2.084-.096 3.094-.285l.544-.101 5.305 3.648 1.029-6.847.306-.31c.833-.843 1.465-1.765 1.885-2.737.423.26.853.51 1.29.747zm7.961-5.628a4.661 4.661 0 0 1-1.342 2.834 4.701 4.701 0 0 1-3.305 1.358 4.659 4.659 0 0 1-2.227-.565c-5.904-3.201-12.093-9.968-14.666-14.664a4.674 4.674 0 0 1 .786-5.545 4.66 4.66 0 0 1 2.834-1.342 1.639 1.639 0 0 1 1.327.475l3.295 3.296c.352.352.525.838.475 1.333a4.642 4.642 0 0 1-1.01 2.463.625.625 0 0 0-.001.78 36.087 36.087 0 0 0 5.488 5.493.623.623 0 0 0 .779-.003 4.645 4.645 0 0 1 2.465-1.012 1.64 1.64 0 0 1 1.332.475l3.295 3.296c.35.351.524.835.475 1.328z"/></g><g><path fill="#262a2f" d="M29.955 32.65c.349.19.714.35 1.09.476a11.545 11.545 0 0 1-2.061 3.069l-1.007 6.701a2.212 2.212 0 0 1-1.313 1.71 2.214 2.214 0 0 1-2.144-.207l-4.988-3.43c-.996.155-2.012.234-3.03.234-4.061 0-7.893-1.23-10.79-3.465-3-2.314-4.652-5.422-4.652-8.751 0-3.33 1.652-6.438 4.652-8.752 2.362-1.822 5.348-2.976 8.572-3.34.032.063.065.126.1.189a28.19 28.19 0 0 0 1.47 2.367c-6.744.254-12.126 4.434-12.126 9.536 0 5.264 5.73 9.547 12.774 9.547 1.043 0 2.084-.095 3.094-.284l.544-.102 5.305 3.648 1.029-6.846.306-.31c.833-.843 1.465-1.765 1.885-2.737.423.26.853.51 1.29.747zm7.961-5.631a4.66 4.66 0 0 1-1.342 2.833 4.702 4.702 0 0 1-3.305 1.359 4.66 4.66 0 0 1-2.227-.566c-5.904-3.2-12.093-9.966-14.666-14.661a4.672 4.672 0 0 1 .786-5.544 4.66 4.66 0 0 1 2.834-1.342 1.64 1.64 0 0 1 1.327.475l3.295 3.296c.352.351.525.837.475 1.332a4.64 4.64 0 0 1-1.01 2.463.625.625 0 0 0-.001.78 36.084 36.084 0 0 0 5.488 5.491.623.623 0 0 0 .779-.003 4.645 4.645 0 0 1 2.465-1.011 1.64 1.64 0 0 1 1.331.475l3.296 3.295c.35.351.524.835.475 1.328z"/></g></g></g></g></svg>