<svg xmlns="http://www.w3.org/2000/svg" width="72" height="71" viewBox="0 0 72 71"><g><g><g><path fill="#fff" d="M15.257 12.655v8.35H3.96V65.68l3.467 1.825 42.629-.395V55.603h8.827V11.6H15.257"/></g><g><path fill="#f43c3c" d="M53.45 36.9c10.19 0 18.45-8.26 18.45-18.45S63.64 0 53.45 0 35 8.26 35 18.45 43.26 36.9 53.45 36.9z"/></g><g><path fill="#f1f2f6" d="M59.915 16.447v38.127a5.445 5.445 0 0 1-5.447 5.447H16.34a5.445 5.445 0 0 1-5.446-5.446V16.447A5.445 5.445 0 0 1 16.34 11h38.128a5.445 5.445 0 0 1 5.447 5.447zm-4.7-.939H15.258v40.09h39.959zM4.459 66.697h44.563v4.218H5.447A5.445 5.445 0 0 1 0 65.468V21.894h4.458zM28.8 47l9.6-19.2h-9.6V23h14.4v4.8L33.6 47z"/></g><g><path fill="#141b23" d="M61.915 14.447v38.127a5.445 5.445 0 0 1-5.447 5.447H18.34a5.445 5.445 0 0 1-5.446-5.446V14.447A5.445 5.445 0 0 1 18.34 9h38.128a5.445 5.445 0 0 1 5.447 5.447zm-4.7-.939H17.258v40.09h39.959zM6.459 64.697h44.563v4.218H7.447A5.445 5.445 0 0 1 2 63.468V19.894h4.458zM30.8 45l9.6-19.2h-9.6V21h14.4v4.8L35.6 45z"/></g></g></g></svg>