<svg xmlns="http://www.w3.org/2000/svg" width="36" height="46" viewBox="0 0 36 46"><g><g><g><path fill="#f43c3c" d="M12.475 22.95c6.337 0 11.475-5.138 11.475-11.475S18.812 0 12.475 0 1 5.138 1 11.475 6.138 22.95 12.475 22.95z"/></g><g><g><path fill="#f1f2f6" d="M32.276 37.91a2.672 2.672 0 0 1-2.671 2.667h-2.671V29.844a2.671 2.671 0 0 1 5.342 0zm-29.542 0v-8.066a2.671 2.671 0 0 1 5.342 0v10.733h-2.67a2.672 2.672 0 0 1-2.672-2.666zm8.067-5.354h13.398v8.02H10.801zm.068-18.822h13.262a4.106 4.106 0 0 1 4.101 4.102v6.784a5.41 5.41 0 0 0-4.032 5.202H10.8a5.41 5.41 0 0 0-4.032-5.202v-6.784a4.106 4.106 0 0 1 4.101-4.102zM30.967 24.62v-6.784A6.844 6.844 0 0 0 24.13 11H10.869a6.844 6.844 0 0 0-6.836 6.836v6.784A5.41 5.41 0 0 0 0 29.844v8.067a5.41 5.41 0 0 0 4.033 5.225v1.497a1.367 1.367 0 1 0 2.735 0V43.31h21.464v1.322a1.367 1.367 0 1 0 2.735 0v-1.498A5.41 5.41 0 0 0 35 37.911v-8.067a5.41 5.41 0 0 0-4.033-5.224z"/></g><g><path fill="#262a2f" d="M33.276 36.91a2.672 2.672 0 0 1-2.671 2.667h-2.671V28.844a2.671 2.671 0 0 1 5.342 0zm-29.542 0v-8.066a2.671 2.671 0 0 1 5.342 0v10.733h-2.67a2.672 2.672 0 0 1-2.672-2.666zm8.067-5.354h13.398v8.02H11.801zm.068-18.822h13.262a4.106 4.106 0 0 1 4.101 4.102v6.784a5.41 5.41 0 0 0-4.032 5.202H11.8a5.41 5.41 0 0 0-4.032-5.202v-6.784a4.106 4.106 0 0 1 4.101-4.102zM31.967 23.62v-6.784A6.844 6.844 0 0 0 25.13 10H11.869a6.844 6.844 0 0 0-6.836 6.836v6.784A5.41 5.41 0 0 0 1 28.844v8.067a5.41 5.41 0 0 0 4.033 5.225v1.497a1.367 1.367 0 1 0 2.735 0V42.31h21.464v1.322a1.367 1.367 0 1 0 2.735 0v-1.498A5.41 5.41 0 0 0 36 36.911v-8.067a5.41 5.41 0 0 0-4.033-5.224z"/></g></g></g></g></svg>