<svg xmlns="http://www.w3.org/2000/svg" width="37" height="45" viewBox="0 0 37 45"><g><g><g><path fill="#f43c3c" d="M11.475 22.95c6.337 0 11.475-5.138 11.475-11.475S17.812 0 11.475 0 0 5.138 0 11.475 5.138 22.95 11.475 22.95z"/></g><g><g><path fill="#f1f2f6" d="M33.043 36.113c-1.63-1.593-3.725-2.287-6.031-2.287h-9.763c-.816 0-1.478.662-1.478 1.479v5.048L3.75 30.048l12.02-10.305v8.802a1.479 1.479 0 1 0 2.957 0V26.27h8.285a6.038 6.038 0 0 1 6.031 6.032v3.812zm-6.031-12.8h-8.284V16.53c-.001-1.26-1.484-1.943-2.442-1.122L.516 28.925a1.479 1.479 0 0 0 0 2.245l15.77 13.518c.955.818 2.441.142 2.441-1.123v-6.782h8.285c2.471 0 4.164 1.044 5.175 3.194.824 1.753.856 3.583.856 3.597A1.478 1.478 0 0 0 36 43.565V32.301c0-4.956-4.032-8.988-8.988-8.988z"/></g><g><path fill="#262a2f" d="M34.043 35.113c-1.63-1.593-3.725-2.287-6.031-2.287h-9.763c-.816 0-1.478.662-1.478 1.479v5.048L4.75 29.048l12.02-10.305v8.802a1.479 1.479 0 1 0 2.957 0V25.27h8.285a6.038 6.038 0 0 1 6.031 6.032v3.812zm-6.031-12.8h-8.284V15.53c-.001-1.26-1.484-1.943-2.442-1.122L1.516 27.925a1.479 1.479 0 0 0 0 2.245l15.77 13.518c.955.818 2.441.142 2.441-1.123v-6.782h8.285c2.471 0 4.164 1.044 5.175 3.194.824 1.753.856 3.583.856 3.597A1.478 1.478 0 0 0 37 42.565V31.301c0-4.956-4.032-8.988-8.988-8.988z"/></g></g></g></g></svg>