<svg xmlns="http://www.w3.org/2000/svg" width="542" height="400" viewBox="0 0 542 400"><g><g><path fill="#f43c3c" d="M196.688 259.375V91.061a46.607 46.607 0 0 0 15.625 2.689H455.28v44.531h-28.125c-25.848 0-46.875 21.027-46.875 46.875 0 25.849 21.027 46.875 46.875 46.875h28.125V275H212.312c-8.615 0-15.625-7.01-15.625-15.625zm289.843-58.594h-59.375c-8.615 0-15.625-7.01-15.625-15.625s7.01-15.625 15.625-15.625h59.375zM357.625 368.75v-62.5h128.906v-74.219h31.25v-93.75h-31.25V62.5H212.312c-8.615 0-15.625-7.01-15.625-15.625s7.01-15.625 15.625-15.625h274.22V0h-274.22c-25.848 0-46.875 21.027-46.875 46.875v212.5c0 25.848 21.027 46.875 46.875 46.875h114.063v62.5H142V400h400v-31.25z"/></g><g transform="rotate(-45 62 161)"><path fill="#f43c3c" d="M-10 146h57V89h30v57h57v30H77v57H47v-57h-57z"/></g></g></svg>