<svg xmlns="http://www.w3.org/2000/svg" width="662" height="460" viewBox="0 0 662 460"><g><g><g><path fill="#fff" d="M.48 199.305L40.785 159 .48 118.695l21.213-21.213 40.305 40.305 40.305-40.305 21.214 21.213L83.21 159l40.306 40.305-21.214 21.213-40.305-40.305-40.305 40.305zM541.998 368.75V400h-400v-31.25h184.375v-62.5H212.311c-25.849 0-46.875-21.027-46.875-46.875v-212.5C165.436 21.027 186.462 0 212.31 0H486.53v31.25H212.31c-8.614 0-15.624 7.01-15.624 15.625S203.696 62.5 212.31 62.5H486.53v75.781h31.25v93.75h-31.25v74.219H357.623v62.5zM486.53 169.531h-59.375c-8.616 0-15.625 7.01-15.625 15.625s7.01 15.625 15.625 15.625h59.375zM212.31 275h242.97v-42.969h-28.125c-25.849 0-46.875-21.026-46.875-46.875 0-25.848 21.026-46.875 46.875-46.875h28.125V93.75H212.31a46.607 46.607 0 0 1-15.624-2.689v168.314c0 8.615 7.01 15.625 15.625 15.625z"/></g></g><g><g><path fill="#f43c3c" d="M316.688 319.375V151.061a46.607 46.607 0 0 0 15.625 2.689H575.28v44.531h-28.125c-25.848 0-46.875 21.027-46.875 46.875 0 25.849 21.027 46.875 46.875 46.875h28.125V335H332.313c-8.616 0-15.625-7.01-15.625-15.625zm289.843-58.594h-59.375c-8.615 0-15.625-7.01-15.625-15.625s7.01-15.625 15.625-15.625h59.375zM477.625 428.75v-62.5h128.906v-74.219h31.25v-93.75h-31.25V122.5H332.313c-8.616 0-15.625-7.01-15.625-15.625s7.01-15.625 15.625-15.625H606.53V60H332.313c-25.849 0-46.875 21.027-46.875 46.875v212.5c0 25.848 21.026 46.875 46.875 46.875h114.062v62.5H262V460h400v-31.25z"/></g><g transform="rotate(-45 182 221)"><path fill="#f43c3c" d="M110 206h57v-57h30v57h57v30h-57v57h-30v-57h-57z"/></g></g></g></svg>