<svg xmlns="http://www.w3.org/2000/svg" width="123" height="134" viewBox="0 0 123 134"><g><g><path fill="#f1f2f6" d="M200 100c0 55.14-44.86 100-100 100S0 155.14 0 100 44.86 0 100 0s100 44.86 100 100zm-21.429 0c0-43.324-35.247-78.571-78.571-78.571S21.429 56.676 21.429 100c0 43.324 35.247 78.57 78.571 78.57s78.571-35.246 78.571-78.57zm-21.442.045c0 5.918-4.797 10.715-10.715 10.715H100c-5.917 0-10.714-4.798-10.714-10.715V53.63c0-5.917 4.797-10.714 10.714-10.714 5.917 0 10.714 4.797 10.714 10.714v35.701h35.7c5.918 0 10.715 4.797 10.715 10.714z"/></g></g></svg>