<svg xmlns="http://www.w3.org/2000/svg" width="123" height="134" viewBox="0 0 123 134"><g><g><path fill="#f1f2f6" d="M21.786 196.078V98.04L91.5 150.327a10.878 10.878 0 0 0 6.535 2.178c2.3 0 4.6-.726 6.536-2.178l69.712-52.288v98.04zM98.04 24.51l68.99 51.743-68.99 51.743-68.99-51.743zm98.028 51.515c-.002-.095.003-.191 0-.287-.007-.117-.023-.233-.032-.35-.012-.156-.027-.31-.046-.464l-.01-.11c-.006-.034-.006-.07-.012-.105-.017-.126-.046-.25-.069-.376a9.723 9.723 0 0 0-.095-.481c-.006-.03-.01-.059-.017-.088-.007-.028-.01-.055-.016-.083-.03-.125-.071-.247-.106-.372a11.034 11.034 0 0 0-.146-.486c-.018-.053-.031-.108-.05-.162-.04-.116-.091-.23-.136-.347-.06-.156-.121-.311-.188-.464-.029-.064-.054-.13-.084-.194-.047-.102-.104-.2-.155-.302-.073-.144-.145-.289-.224-.43-.045-.08-.088-.16-.134-.238-.052-.087-.111-.169-.165-.255-.084-.132-.165-.263-.253-.39a7.788 7.788 0 0 0-.194-.273c-.013-.018-.023-.036-.036-.053-.046-.061-.1-.115-.147-.176a10.018 10.018 0 0 0-.271-.337c-.077-.09-.151-.179-.231-.267-.074-.08-.15-.157-.225-.235a12.044 12.044 0 0 0-.29-.289c-.078-.075-.153-.152-.235-.225-.088-.08-.177-.155-.267-.231-.11-.093-.223-.182-.337-.27-.06-.048-.114-.101-.176-.148l-.13-.097-.041-.03-86.974-65.231a10.893 10.893 0 0 0-13.072 0L4.523 67.413c-.009.007-.017.015-.026.02l-.14.105c-.061.047-.115.1-.176.147-.115.09-.23.18-.34.274-.089.075-.176.148-.261.226-.083.074-.159.152-.238.227-.099.096-.195.194-.291.292-.075.077-.15.152-.222.232-.08.087-.156.178-.232.267-.094.11-.182.225-.272.338-.048.06-.1.114-.146.176-.013.016-.023.035-.036.052-.067.09-.13.182-.194.274-.088.127-.17.258-.253.39-.054.085-.114.167-.165.254-.047.078-.09.159-.135.239-.08.14-.151.285-.224.43-.05.1-.108.2-.155.302-.03.064-.055.13-.084.194-.067.152-.128.308-.188.464-.045.115-.096.23-.136.346-.019.054-.032.109-.05.162-.053.16-.1.323-.146.487-.035.124-.075.247-.106.372l-.016.082c-.007.03-.01.06-.017.088-.036.16-.066.32-.095.482-.023.125-.051.25-.07.375-.004.035-.005.071-.01.106-.005.037-.006.074-.011.11-.018.153-.033.307-.046.463-.01.117-.025.233-.031.35-.004.096 0 .192 0 .288 0 .075-.011.15-.011.226v130.719c0 6.016 4.877 10.893 10.893 10.893h174.292c6.016 0 10.893-4.877 10.893-10.893V76.252c0-.076-.01-.15-.011-.227z"/></g></g></svg>