<svg xmlns="http://www.w3.org/2000/svg" width="40" height="40" viewBox="0 0 40 40"><g><g><path fill="#f43c3c" d="M10.641 19.352a1.813 1.813 0 0 1-3.625 0c0-6.802 5.534-12.336 12.336-12.336a1.813 1.813 0 0 1 0 3.625c-4.803 0-8.71 3.908-8.71 8.711zM5.668 5.668A19.226 19.226 0 0 1 19.352 0a1.813 1.813 0 0 1 0 3.625c-4.2 0-8.15 1.636-11.12 4.607a15.624 15.624 0 0 0-4.607 11.12 1.813 1.813 0 1 1-3.625 0C0 14.183 2.013 9.323 5.668 5.668zm7.11 17.092a1.813 1.813 0 0 1 2.563 0l3.68 3.68 7.414-7.415-3.68-3.68a1.813 1.813 0 0 1 0-2.563l7.417-7.415a1.813 1.813 0 0 1 2.563 0l4.953 4.953c2.265 2.264 2.798 5.86 1.503 10.124-1.177 3.873-3.764 7.945-7.284 11.465C26.99 36.826 20.96 39.88 16.17 39.88c-2.394 0-4.417-.757-5.85-2.19l-4.954-4.954a1.813 1.813 0 0 1 0-2.563zm.104 12.366c.75.749 1.855 1.129 3.287 1.129 3.806 0 8.978-2.713 13.175-6.91 3.106-3.106 5.371-6.642 6.378-9.955.875-2.88.658-5.252-.597-6.507l-3.672-3.671-4.852 4.852 3.68 3.68a1.813 1.813 0 0 1 0 2.562l-9.979 9.978a1.813 1.813 0 0 1-2.563 0l-3.68-3.679-4.848 4.85 3.671 3.67z"/></g></g></svg>