<svg xmlns="http://www.w3.org/2000/svg" width="18" height="19" viewBox="0 0 18 19"><g><g><g><path fill="#5b5b5b" d="M17.978 3.59v12.207a2.597 2.597 0 0 1-2.594 2.594H2.594A2.597 2.597 0 0 1 0 15.797V3.59C0 2.5.887 1.613 1.976 1.613h3.556V.92a.692.692 0 0 1 1.383 0v.692h4.149V.92a.692.692 0 0 1 1.383 0v.692h3.555c1.09 0 1.976.887 1.976 1.976zm-1.383 0a.594.594 0 0 0-.593-.594h-3.555v.691a.692.692 0 0 1-1.383 0v-.691h-4.15v.691a.691.691 0 0 1-1.382 0v-.691H1.976a.594.594 0 0 0-.593.593v2.173H14.29a.691.691 0 0 1 0 1.383H1.383v8.652c0 .668.543 1.211 1.211 1.211h12.79c.668 0 1.211-.543 1.211-1.21z"/></g></g></g></svg>