<svg xmlns="http://www.w3.org/2000/svg" width="22" height="16" viewBox="0 0 22 16">
    <path fill="#F43C3C" fill-rule="nonzero" d="M14.212.022c.383 0 .693.31.693.694v.692h2.958c.23 0 .442.114.57.3l.05.083 2.08 4.136h-.003l1.294 1.666c.071.091.118.198.137.31l.009.115v4.506c0 .383-.31.694-.693.694h-2.012a2.778 2.778 0 0 1-2.68 2.056 2.778 2.778 0 0 1-2.679-2.056H9.82a2.778 2.778 0 0 1-2.68 2.056 2.778 2.778 0 0 1-2.678-2.056H2.658a.693.693 0 1 1 0-1.387H4.45a2.778 2.778 0 0 1 2.69-2.103c1.299 0 2.391.896 2.692 2.103h4.092a2.778 2.778 0 0 1 2.692-2.103c1.297 0 2.39.896 2.69 2.103h1.307V8.256l-1.01-1.3h-5.39a.693.693 0 0 1-.694-.694V1.409H2.658a.693.693 0 1 1 0-1.387zm2.404 11.093c-.765 0-1.387.622-1.387 1.386a1.388 1.388 0 0 0 2.773 0c0-.764-.622-1.386-1.386-1.386zm-9.475 0c-.765 0-1.387.622-1.387 1.386a1.388 1.388 0 0 0 2.773 0c0-.764-.622-1.386-1.386-1.386zM5.015 8.319a.693.693 0 1 1 0 1.386h-3.19a.693.693 0 1 1 0-1.386zm1.594-2.727a.693.693 0 1 1 0 1.386H.693a.693.693 0 1 1 0-1.386zm10.827-2.796h-2.531v2.773h3.925l-1.394-2.773zm-9.694.069a.693.693 0 1 1 0 1.386H1.826a.693.693 0 1 1 0-1.386z"/>
</svg>
