<svg xmlns="http://www.w3.org/2000/svg" width="16" height="12" viewBox="0 0 16 12"><g><g><path fill="#f43c3c" d="M5.5 8.156a.781.781 0 1 0 0 1.563.781.781 0 0 0 0-1.563zm-2.188 0a.781.781 0 1 0 0 1.563.781.781 0 0 0 0-1.563zm11.438 2.656H1.25v-3.75h13.5zM1.25 1.25H7.5v4.563H1.25zm10.031 0h1.875v1.875h-1.875zm4.094 4.563h-2.531V4.375h.937c.345 0 .625-.28.625-.625V.625A.625.625 0 0 0 13.781 0h-3.125a.625.625 0 0 0-.625.625V3.75c0 .345.28.625.625.625h.938v1.438H8.75V.625A.625.625 0 0 0 8.125 0h-7.5A.625.625 0 0 0 0 .625v10.813c0 .345.28.624.625.624h14.75c.345 0 .625-.28.625-.624v-5a.625.625 0 0 0-.625-.625z"/></g></g></svg>