<svg xmlns="http://www.w3.org/2000/svg" width="65" height="68" viewBox="0 0 65 68"><g><g><g><path fill="#fff" d="M11.01 11.794l1.592 28.771 10.069 16.39 13.995 6.076 14.349-7.309 9.23-15.157L62.3 12.35 46.953 9.053 36.997 2l-10.65 7.053z"/></g><g><path fill="#f43c3c" d="M18.45 59.9c10.19 0 18.45-8.26 18.45-18.45S28.64 23 18.45 23 0 31.26 0 41.45 8.26 59.9 18.45 59.9z"/></g><g><path fill="#f1f2f6" d="M34.664 63.03C11.03 54.446 11.388 35.639 11.705 19.026c.019-.997.037-1.963.05-2.91 9.222-.39 16.596-3.184 22.909-8.683 6.313 5.499 13.688 8.293 22.91 8.682.014.947.032 1.913.051 2.91.317 16.613.674 35.421-22.961 44.007zm27.565-44.094c-.034-1.776-.066-3.453-.066-5.076a2.302 2.302 0 0 0-2.303-2.303c-9.846 0-17.343-2.83-23.591-8.905a2.302 2.302 0 0 0-3.21 0c-6.249 6.076-13.744 8.905-23.59 8.905a2.302 2.302 0 0 0-2.302 2.303c0 1.623-.032 3.301-.066 5.077-.316 16.527-.748 39.16 26.809 48.712a2.3 2.3 0 0 0 1.507 0c27.559-9.552 27.127-32.186 26.812-48.713z"/></g><g><path d="M36.664 61.03C13.03 52.446 13.388 33.639 13.705 17.026c.019-.997.037-1.963.05-2.91 9.222-.39 16.596-3.184 22.909-8.683 6.313 5.499 13.688 8.293 22.91 8.682.014.947.032 1.913.051 2.91.317 16.613.674 35.421-22.961 44.007zm27.565-44.094c-.034-1.776-.066-3.453-.066-5.076a2.302 2.302 0 0 0-2.303-2.303c-9.846 0-17.343-2.83-23.591-8.905a2.302 2.302 0 0 0-3.21 0c-6.249 6.076-13.744 8.905-23.59 8.905a2.302 2.302 0 0 0-2.302 2.303c0 1.623-.032 3.301-.066 5.077-.316 16.527-.748 39.16 26.809 48.712a2.3 2.3 0 0 0 1.507 0c27.559-9.552 27.127-32.186 26.812-48.713z"/></g><g><path d="M44.594 24.894L33.482 36.006l-4.742-4.742a2.303 2.303 0 0 0-3.256 3.256l6.37 6.37c.45.45 1.039.674 1.628.674.59 0 1.179-.225 1.628-.674l12.74-12.74a2.302 2.302 0 1 0-3.256-3.256z"/></g></g></g></svg>