<svg xmlns="http://www.w3.org/2000/svg" width="20" height="20" viewBox="0 0 20 20"><g><g opacity=".4"><path fill="#fff" d="M14.743 3.625H5.23c-.887 0-1.605.718-1.605 1.605v9.513c0 .886.718 1.605 1.605 1.605h9.513c.886 0 1.605-.719 1.605-1.605V5.23c0-.887-.719-1.605-1.605-1.605zM19.973 0v19.973H0V0zm-7.321 6.697v-1.02c0-.299.242-.54.54-.54h1.02c.3 0 .541.241.541.54v1.02a.541.541 0 0 1-.54.54h-1.02a.541.541 0 0 1-.541-.54zM7.31 9.987a2.676 2.676 0 1 1 5.353 0 2.676 2.676 0 0 1-5.353 0zm6.558-.85h1.253v5.388a.596.596 0 0 1-.596.596H5.448a.596.596 0 0 1-.596-.596V9.138h1.253a3.973 3.973 0 1 0 7.763 0z"/></g></g></svg>