<svg xmlns="http://www.w3.org/2000/svg" width="19" height="16" viewBox="0 0 19 16"><g><g><path d="M9.68 9.684a.857.857 0 0 0 1.212 1.212l2.571-2.571a.863.863 0 0 0 .057-.063l.022-.03c.01-.012.02-.025.028-.038l.022-.036.021-.036c.007-.012.012-.025.018-.038l.018-.037.014-.038.014-.042.01-.038c.004-.014.008-.028.01-.043.004-.015.005-.03.007-.045.002-.012.005-.025.006-.038a.86.86 0 0 0 .004-.083v-.001-.002a.862.862 0 0 0-.004-.083l-.005-.038-.007-.045-.01-.042-.01-.04-.015-.04-.014-.038-.017-.037c-.006-.013-.012-.027-.02-.04-.005-.011-.013-.022-.02-.034l-.022-.037-.027-.037-.023-.03a.865.865 0 0 0-.054-.06l-.003-.003-2.571-2.572A.857.857 0 0 0 9.68 5.753l1.108 1.108H.858a.857.857 0 0 0 0 1.715h9.93z"/></g><g><path d="M17.424 0H6.567a.857.857 0 0 0-.857.857v3.429a.857.857 0 0 0 1.714 0V1.714h9.143v12H7.424v-2.571a.857.857 0 0 0-1.714 0v3.428c0 .474.384.858.857.858h10.857a.857.857 0 0 0 .857-.858V.857A.857.857 0 0 0 17.424 0z"/></g></g></svg>