<svg xmlns="http://www.w3.org/2000/svg" width="136" height="40" viewBox="0 0 136 40"><g><g><g transform="rotate(90 122 20)"><path fill="#f43c3c" d="M130 6h6v28h-6zm-11 6h6v22h-6zm-11-6h6v28h-6z"/></g><g><path fill="#f43c3c" d="M62 0h40v40H62z"/></g><g><path fill="#fff" d="M90 6h6v28h-6z"/></g><g><path fill="#fff" d="M79 9h6v22h-6z"/></g><g><path fill="#fff" d="M68 6h6v28h-6z"/></g><g><path fill="#f43c3c" d="M56 34h-6.13l-2.436-6.36H36.28L33.977 34H28L38.869 6h5.958zM41.786 12.532l-3.774 10.39h7.624z"/></g><g><path fill="#f43c3c" d="M0 34V6h5.556v11.02h10.888V6H22v28h-5.556V21.757H5.556V34z"/></g></g></g></svg>