<svg xmlns="http://www.w3.org/2000/svg" width="18" height="11" viewBox="0 0 18 11"><g><g><path fill="#f43c3c" d="M1.688 8.625H.563a.563.563 0 0 1 0-1.125h1.125a.563.563 0 0 1 0 1.125zm.75-3H.562a.563.563 0 0 1 0-1.125h1.875a.563.563 0 0 1 0 1.125zm.75-3H.562a.563.563 0 0 1 0-1.125h2.625a.563.563 0 0 1 0 1.125zM15.201 10.5H5.066a1.687 1.687 0 0 1-1.667-1.947l.937-6.021a.56.56 0 0 1 .01-.063l.162-1.041A1.68 1.68 0 0 1 6.175 0h10.138a1.687 1.687 0 0 1 1.667 1.947l-.118.754a.562.562 0 0 1-.023.153l-.968 6.218a1.68 1.68 0 0 1-1.668 1.428zM4.51 8.726a.555.555 0 0 0 .128.453c.109.126.26.196.427.196h10.138a.56.56 0 0 0 .555-.476l.812-5.214-4.905 2.453a2.051 2.051 0 0 1-1.969-.067L5.324 3.493zm1.665-7.601a.56.56 0 0 0-.556.476l-.108.697L10.267 5.1a.936.936 0 0 0 .895.031l5.62-2.81.086-.548a.555.555 0 0 0-.129-.453.555.555 0 0 0-.426-.196z"/></g></g></svg>