<svg xmlns="http://www.w3.org/2000/svg" width="16" height="16" viewBox="0 0 16 16"><g><g><path fill="#ff8334" d="M14.6 5.469a1.246 1.246 0 0 0-.436-.477L8.658 1.466a1.24 1.24 0 0 0-1.31 0L1.842 4.988c-.19.12-.339.287-.438.48l5.94 3.693a1.24 1.24 0 0 0 1.317 0zm.139 4.917V6.85L9.32 10.22a2.49 2.49 0 0 1-1.317.379 2.49 2.49 0 0 1-1.317-.38L1.267 6.852v6.653c0 .688.56 1.248 1.248 1.248H13.49c.688 0 1.248-.56 1.248-1.248a.624.624 0 0 1 1.247 0A2.498 2.498 0 0 1 13.491 16H2.515A2.498 2.498 0 0 1 .02 13.504V6.038c0-.855.43-1.64 1.15-2.101L6.68.413 6.686.41a2.48 2.48 0 0 1 2.634 0l.007.004 5.51 3.528c.72.461 1.149 1.246 1.149 2.101v4.344a.624.624 0 0 1-1.247 0zm-6.736-4.46a.624.624 0 0 1-.624-.623V3.15a.624.624 0 0 1 1.248 0v2.152c0 .344-.28.623-.624.623zm0 2.183a.624.624 0 0 1 0-1.247.624.624 0 0 1 0 1.247z"/></g></g></svg>