<svg xmlns="http://www.w3.org/2000/svg" width="20" height="20" viewBox="0 0 20 20"><g><g><path fill="#fff" d="M20 20H0V0h20zM5.885 5.973c-.013 2.254 1.832 4.12 4.082 4.127 2.273.008 4.13-1.815 4.143-4.064.011-2.303-1.817-4.165-4.093-4.17a4.124 4.124 0 0 0-4.132 4.107zm8.808 4.55a.937.937 0 0 0-1.073-.428c-.224.057-.417.17-.597.308-1.822 1.225-4.315 1.19-6.13-.056a1.952 1.952 0 0 0-.279-.165c-.503-.237-.988-.126-1.276.287-.337.483-.294.951.132 1.36.11.107.235.198.356.293.973.762 2.11 1.072 3.372 1.204-.089.095-.146.16-.207.222-.925.927-1.85 1.855-2.777 2.781-.192.192-.33.405-.343.684-.02.413.236.824.639 1.02.38.183.767.125 1.094-.197.727-.717 1.45-1.438 2.16-2.17.179-.184.276-.223.477-.012.693.724 1.413 1.423 2.12 2.134.185.186.393.318.659.337.42.029.85-.24 1.041-.65.176-.374.109-.773-.21-1.094-.933-.944-1.874-1.882-2.811-2.824-.065-.065-.114-.12-.218-.234.69-.083 1.387-.207 2.024-.453a4.95 4.95 0 0 0 1.782-1.153c.329-.337.332-.76.065-1.194zm-6.71-4.52A2.009 2.009 0 0 1 10 3.968c1.117 0 2.008.892 2.012 2.01a2 2 0 0 1-2.001 2.02 2.005 2.005 0 0 1-2.027-1.995z"/></g></g></svg>