<svg xmlns="http://www.w3.org/2000/svg" width="20" height="22" viewBox="0 0 20 22"><g><g opacity=".4"><g opacity=".4"><path fill="#fff" d="M19.003 4.952c-.2-.246-.43-.471-.688-.672a7.742 7.742 0 0 1-.178 2.033c-.418 1.962-1.42 3.629-2.896 4.82-1.474 1.192-3.315 1.821-5.324 1.821h-2.93l-.948 4.443A1.91 1.91 0 0 1 4.18 18.9H2.86l-.238 1.091a.951.951 0 0 0 .929 1.153h3.228a.95.95 0 0 0 .93-.752L8.816 15.2h3.699c1.789 0 3.423-.557 4.727-1.61 1.304-1.053 2.19-2.533 2.563-4.28.378-1.765.108-3.232-.803-4.357z"/></g><g opacity=".4"><path fill="#fff" d="M8.067 3.655h2.535c.597 0 1.13.25 1.464.686.354.463.457 1.103.284 1.756l-.007.026c-.319 1.346-1.645 2.44-2.956 2.44h-2.43zM5.109 17.194l1.108-5.195h3.699c1.789 0 3.423-.556 4.727-1.61 1.304-1.053 2.19-2.533 2.564-4.279.377-1.766.107-3.232-.804-4.358C15.529.672 14.035 0 12.503 0H4.447a.95.95 0 0 0-.93.748L.023 16.793a.95.95 0 0 0 .929 1.153h3.228a.95.95 0 0 0 .93-.752z"/></g></g></g></svg>