<svg xmlns="http://www.w3.org/2000/svg" width="12" height="12" viewBox="0 0 12 12">
    <path fill="#000" fill-rule="nonzero" d="M11.98 1.897A1.878 1.878 0 0 0 8.776.573L1.224 8.155c-.245.246-.433.55-.542.88l-.007.02L0 12.023l2.976-.666.022-.007c.33-.11.634-.297.88-.543l7.553-7.583c.354-.355.55-.826.549-1.327zM1.65 10.694l-.315-.316.228-1.002 1.092 1.093-1.005.225zm9.118-8.131L3.435 9.924 2.108 8.596 7.13 3.553l.765.765.662-.663-.766-.766.713-.715.767.767.663-.662-.77-.769.275-.275a.94.94 0 0 1 1.329 1.328z" opacity=".4"/>
</svg>
