<?xml version="1.0" encoding="utf-8"?>
<!-- Generator: Adobe Illustrator 22.0.1, SVG Export Plug-In . SVG Version: 6.00 Build 0)  -->
<svg version="1.1" id="Layer_1" xmlns="http://www.w3.org/2000/svg" xmlns:xlink="http://www.w3.org/1999/xlink" x="0px" y="0px"
	 viewBox="0 0 26 26" style="enable-background:new 0 0 26 26;" xml:space="preserve">
<style type="text/css">
	.st0{fill:#F43C3C;}
</style>
<path id="dp-logo" class="st0" d="M4.1,11.2C5.2,7,8.7,4,13,4c3.4,0,6.3,1.8,7.7,4.4l-3.4,2.2C16.6,9.3,15,8.3,13,8.3
	c-2.8,0-4.9,2.1-5.2,5.1c0.2,0,0.4,0,0.7,0.1c0,0,0,0,0,0c1.2,0.1,2.8,0.2,4.8,0.2c0.2,0,0.3,0,0.4,0c5.9,0,6.9-0.5,8-1.2
	c0,0,0,0,0,0c1-0.8,0.1-1.4,0.1-1.4c2.5,0.7,4,1.5,4,2.5c0,0.7-1,1.7-3.6,2.4c0,0,0,0,0,0c-0.2,0.1-0.4,0.1-0.7,0.2
	c-1,3.7-4.1,5.8-7.9,5.8c-4.1,0-7.2-2.4-8.5-5.8c-0.1,0-0.2,0-0.2-0.1c-2.8-0.7-4.1-1.8-4.1-2.5C0.8,12.7,1.8,11.8,4.1,11.2z"/>
</svg>
