<svg xmlns="http://www.w3.org/2000/svg" width="24" height="26" viewBox="0 0 24 26"><g><g><path fill="#f43c3c" d="M18.989 23.96a2.995 2.995 0 1 1 0-5.989 2.995 2.995 0 0 1 0 5.99zM5.012 15.975a2.995 2.995 0 1 1 0-5.99 2.995 2.995 0 0 1 0 5.99zM18.989 1.997a2.995 2.995 0 1 1 0 5.99 2.995 2.995 0 0 1 0-5.99zm0 13.977c-1.767 0-3.31.923-4.197 2.308l-5.345-3.055a4.945 4.945 0 0 0 .557-2.248c0-.502-.097-.978-.235-1.435l5.562-3.178a4.962 4.962 0 0 0 3.658 1.618 4.992 4.992 0 1 0-4.992-4.992c0 .502.097.977.235 1.435L8.67 9.605a4.959 4.959 0 0 0-3.658-1.618 4.992 4.992 0 1 0 0 9.984 4.94 4.94 0 0 0 3.014-1.038l-.019.04 6.044 3.454c-.019.18-.054.354-.054.539a4.992 4.992 0 1 0 4.992-4.992z"/></g></g></svg>