<svg xmlns="http://www.w3.org/2000/svg" width="18" height="27" viewBox="0 0 18 27"><g><g><g><path fill="#ee7f00" d="M6.897 21.147l-.072.073a2.215 2.215 0 0 1-3.195.073l-.658-.677c.626 2.971 3.286 4.964 6.388 4.964a.52.52 0 0 1 .272.074c4.9-.025 6.942-2.84 7.3-7.34.072-1.309-.146-2.108-.51-2.544-.072-.073-.217-.145-.29-.218-.073-.073-.073-.073-.145-.073l-1.478-.346a.957.957 0 0 1-.12-.017.6.6 0 0 1-.067-.027l-4.22-.99c-.072-.073-.145-.073-.217-.073a2.073 2.073 0 0 0-.945 0c-.435.073-.726.29-.871.8-.363 1.09-.073 1.743 1.743 2.252l3.85.872c.654.145.436 1.163-.218 1.017H13.3c-.436-.072-1.017-.072-1.526.146-.944.363-1.525 1.162-1.598 2.688 0 .291-.218.51-.508.51a.497.497 0 0 1-.509-.51c.073-1.671.727-2.761 1.744-3.342l-1.38-.291a5.98 5.98 0 0 1-1.29-.487c-.154.25-.357.465-.607.632l-.145.073a2.212 2.212 0 0 1-.21.133 2.22 2.22 0 0 1-.373 2.628zM1.82 19.43l-.803-.826C-.146 17.441-.291 15.915.58 14.971l.073-.073a2.02 2.02 0 0 1 1.352-.653c-.67-1.247-.472-2.67.538-3.344l.217-.072c1.001-.612 1.916-.415 2.682.298l-.862-7.42C4.217 2.4 5.015 1.02 6.25.727c.653-.144 1.306 0 1.814.364s.871.945 1.017 1.526l1.503 6.77 1.99-6.915c.363-1.308 1.743-2.107 3.05-1.744 1.234.363 1.96 1.526 1.67 2.761L15.13 14.314l.928.22c.291 0 .654.146 1.09.582.654.654.944 1.744.8 3.27-.437 5.014-2.907 8.357-8.573 8.284a.52.52 0 0 1-.277-.077c-3.894-.125-7.19-3.057-7.28-7.163zm14.53-16.159c.146-.726-.29-1.38-.943-1.598-.799-.218-1.597.29-1.815 1.09l-2.469 8.574c-.138.277-.343.488-.613.382a.491.491 0 0 1-.485-.382l-1.96-8.502c-.072-.363-.29-.654-.58-.872-.29-.218-.654-.29-1.017-.218-.653.146-1.161 1.018-.944 1.672v.072l1.143 9.29.713 1.086c.297-.425.735-.686 1.27-.784a3.948 3.948 0 0 1 1.308 0c.146.073.218.073.291.073l3.873.92zm-10.547 10.1a.378.378 0 0 1-.118-.178L5.23 12.5c-.653-.945-1.307-1.308-2.033-.872l-.073.145c-.58.364-.653 1.308-.072 2.253l.44.66c.074.076.13.16.164.247l1.574 2.363c.219.35.596.543.989.56a.46.46 0 0 1 .397-.043c.124-.032.244-.083.356-.154l.073-.072c.2-.15.33-.3.416-.472-.542-.562-.678-1.253-.531-2.029zm-4.496 2.181l-.072.073c-.509.508-.436 1.453.363 2.252l.898.9c.148.049.26.162.31.31l1.55 1.552a1.28 1.28 0 0 0 1.816-.146l.073-.072c.473-.406.506-1.126.098-1.634a2.303 2.303 0 0 1-1.984-.982l-1.574-2.363a1.122 1.122 0 0 0-1.478.11z"/></g></g></g></svg>