<svg xmlns="http://www.w3.org/2000/svg" width="29" height="34" viewBox="0 0 29 34"><g><g opacity=".4"><g opacity=".4"><path fill="#fff" d="M27.09 32.688c0-.506.444-.95.95-.95s.95.444.95.95-.444.95-.95.95a.973.973 0 0 1-.95-.95zm-.695-.443v1.266h-.19c-1.709 0-2.531-1.076-2.531-2.405v-4.05h1.392v.76c0 .696.506 1.202 1.266 1.202v1.329c-.507 0-.95-.19-1.266-.507v1.203c0 .886.57 1.265 1.329 1.202zm-3.417-3.607v1.453c-.823 0-1.33.442-1.33 1.263v2.21h-1.391v-4.926h1.328v.568c.254-.442.697-.631 1.393-.568zm-6.134 3.807c.7 0 1.271-.572 1.271-1.27 0-.763-.572-1.271-1.27-1.271-.7 0-1.271.572-1.271 1.27 0 .7.572 1.271 1.27 1.271zm-.005 1.256c-1.455 0-2.657-1.14-2.657-2.595 0-1.392 1.202-2.594 2.657-2.594 1.456 0 2.658 1.139 2.658 2.594 0 1.456-1.202 2.595-2.658 2.595zm-4.298-4.687v.506c.254-.316.699-.506 1.27-.506v1.327c-.762.063-1.27.506-1.27 1.2v2.023h-1.397v-4.676c0-1.264.826-2.401 2.54-2.401h.191v1.263c-.762 0-1.334.38-1.334 1.264zm-4.746 3.431c.699 0 1.27-.572 1.27-1.27 0-.763-.571-1.271-1.27-1.271-.699 0-1.27.572-1.27 1.27 0 .7.571 1.271 1.27 1.271zm-.005 1.256c-1.455 0-2.658-1.14-2.658-2.595 0-1.392 1.203-2.594 2.658-2.594 1.456 0 2.658 1.139 2.658 2.594 0 1.456-1.202 2.595-2.658 2.595zm-7.91-1.14l.95-.949c.316.38.759.76 1.391.76.57 0 .95-.317.95-.886 0-.57-.443-.76-1.203-.95C.64 30.157.07 29.398.07 28.513c0-1.14.886-2.152 2.278-2.152.886 0 1.645.443 2.025 1.202l-1.14.696c-.252-.316-.569-.57-.948-.57a.731.731 0 0 0-.76.76c0 .443.443.633 1.14.823 1.075.38 1.961.886 1.961 2.151 0 1.33-1.012 2.279-2.405 2.279-.949 0-1.771-.443-2.341-1.14z"/></g><g opacity=".4"><g opacity=".4"><path fill="#fff" d="M12.224 16.295c.443.443.443 1.139 0 1.519l-.063.063a1.116 1.116 0 0 1-1.582.126L8.174 15.6c-.696-.696-.76-1.519-.316-1.962l.063-.063c.38-.38.95-.38 1.329-.063.19.126.443.126.633-.064s.126-.443-.064-.633c-.759-.57-1.835-.506-2.468.19l-.063.064c-.76.822-.633 2.151.38 3.164l2.278 2.341c.76.76 2.025.76 2.784-.063l.064-.064c.759-.759.759-2.025-.064-2.784-.19-.19-.443-.19-.632 0-.064.19-.064.506.126.633z"/></g><g opacity=".4"><path fill="#fff" d="M10.767 3.263l.949 8.163c0 .253.253.38.506.38s.38-.253.38-.506l-1.013-8.227V3.01c-.19-.57.254-1.329.823-1.456.316-.063.633 0 .886.19s.443.443.506.76l1.709 7.404c.063.253.316.38.506.316.253-.063.38-.316.317-.506L14.69 2.314a2.376 2.376 0 0 0-.886-1.33C13.361.67 12.792.543 12.222.67c-1.076.253-1.772 1.455-1.455 2.594z"/></g><g opacity=".4"><path fill="#fff" d="M19.88 12.88L21.84 3.07c.253-1.076-.38-2.088-1.456-2.405-1.139-.316-2.34.38-2.657 1.52l-2.152 7.466c-.063.254.063.443.317.57.253.127.442-.063.57-.316l2.15-7.468c.19-.696.887-1.139 1.583-.949.57.19.949.76.822 1.392l-2.025 9.809c-.063.253.127.443.317.506.316.063.506-.063.57-.316z"/></g><g opacity=".4"><path fill="#fff" d="M14.941 22.308c-3.1 0-5.695-2.278-5.695-5.505a.433.433 0 0 0-.443-.443.433.433 0 0 0-.443.443c0 3.734 3.038 6.391 6.581 6.391.253 0 .443-.19.443-.443a.433.433 0 0 0-.443-.443z"/></g><g opacity=".4"><path fill="#fff" d="M13.366 14.71c-.063.253-.19.443-.443.633l-.063.063c-.506.317-1.203.19-1.519-.316l-1.898-2.848c-.507-.823-.443-1.645.063-1.962l.063-.126c.633-.38 1.203-.063 1.772.76l1.582 2.404c.127.19.38.253.633.126.19-.126.253-.38.126-.632L12.1 10.407c-.759-1.14-1.771-1.645-2.91-.95L9 9.522c-.95.633-1.076 2.025-.317 3.164l1.899 2.848c.633.886 1.835 1.139 2.72.506l.127-.063c.38-.253.633-.633.76-1.076.063-.253-.064-.443-.317-.506-.19-.064-.443.063-.506.316z"/></g><g opacity=".4"><path fill="#fff" d="M16.269 16.1c-.886.507-1.455 1.456-1.519 2.911 0 .253.19.443.443.443s.443-.19.443-.443c.063-1.329.57-2.025 1.392-2.341.443-.19.95-.19 1.33-.127h.126c.57.127.76-.76.19-.886l-3.354-.76c-1.582-.442-1.835-1.012-1.519-1.96.127-.444.38-.634.76-.697.253-.063.569-.063.822 0 .063 0 .127 0 .19.063l5.126 1.203c.063 0 .063 0 .126.063.064.063.19.127.253.19.317.38.507 1.076.443 2.215-.316 3.986-2.151 6.454-6.58 6.391a.433.433 0 0 0-.444.443c0 .253.19.443.443.443 4.936.063 7.088-2.848 7.467-7.214.127-1.329-.126-2.278-.696-2.848-.38-.38-.696-.506-.949-.506l-5.063-1.202c-.063 0-.126 0-.253-.064a3.441 3.441 0 0 0-1.139 0c-.696.127-1.202.57-1.392 1.33-.443 1.392 0 2.53 2.152 3.1z"/></g></g></g></g></svg>