<svg xmlns="http://www.w3.org/2000/svg" width="26" height="27" viewBox="0 0 26 27"><g><g><path fill="#fff" d="M20.565 19.984l-8.99-2.995L23.119 4.67zm-9.472 2.752l-.238-3.61 2.262.754zM9.22 16.195l-5.314-1.77 14.992-8.559zM25.477.252a1.133 1.133 0 0 0-1.204-.055L.598 13.727a1.127 1.127 0 0 0 .203 2.048l7.743 2.58.507 7.699a1.125 1.125 0 0 0 1.126 1.053c.36 0 .704-.173.92-.476l4.254-6.007 5.744 1.914a1.113 1.113 0 0 0 .938-.103c.283-.17.476-.455.53-.78L25.947 1.36c.07-.43-.11-.861-.468-1.11z"/></g></g></svg>