<svg xmlns="http://www.w3.org/2000/svg" width="20" height="20" viewBox="0 0 20 20"><g><g opacity=".4"><path fill="#fff" d="M15.528 4.798L4.21 9.164a.325.325 0 0 0 .004.608l2.757 1.03 1.068 3.432c.068.22.337.301.515.156l1.538-1.253a.458.458 0 0 1 .558-.016l2.773 2.013c.191.139.461.034.51-.197l2.03-9.77a.325.325 0 0 0-.435-.369zM19.973 0v19.973H0V0zM13.37 7.083l-4.448 4.135a.922.922 0 0 0-.286.552l-.151 1.122c-.02.15-.231.165-.273.02l-.582-2.048a.543.543 0 0 1 .237-.61l5.39-3.32c.096-.06.196.072.113.15z"/></g></g></svg>