<svg xmlns="http://www.w3.org/2000/svg" width="22" height="22" viewBox="0 0 22 22"><g><g><g><path fill="#fff" d="M14.687 15.133a.858.858 0 1 1 1.717 0 .858.858 0 0 1-1.717 0zm0-2.575a.858.858 0 1 1 1.717 0 .858.858 0 0 1-1.717 0zm4.721 2.575c0 .947.77 1.717 1.717 1.717h.858V22H.01v-5.15h.858c.947 0 1.717-.77 1.717-1.717 0-.946-.77-1.716-1.717-1.716H.01v-5.15h.022L.03 8.263 17.55 0l2.185 4.646-.73.38a1.713 1.713 0 0 0-.926 1.524c0 .947.77 1.717 1.716 1.717h2.189v5.15h-.858c-.947 0-1.717.77-1.717 1.716zM4.046 8.267h12.777a3.411 3.411 0 0 1-.462-1.717c0-1.001.43-1.931 1.161-2.574l-.795-1.69L13.24 3.93a.858.858 0 0 1-1.55.731zm13.645 6.866a3.44 3.44 0 0 1 2.575-3.324V9.983h-3.862a.858.858 0 1 1-1.717 0H1.727v1.826a3.44 3.44 0 0 1 2.575 3.324 3.44 3.44 0 0 1-2.575 3.325v1.825h12.96a.858.858 0 1 1 1.717 0h3.862v-1.825a3.44 3.44 0 0 1-2.575-3.325zm-4.978-8.497a.858.858 0 1 1 1.717 0 .858.858 0 0 1-1.717 0zm1.974 11.072a.858.858 0 1 1 1.717 0 .858.858 0 0 1-1.717 0z"/></g></g></g></svg>