<svg xmlns="http://www.w3.org/2000/svg" width="406" height="381" viewBox="0 0 406 381"><g><g><g><path fill="#f43c3c" d="M286.06 268.326c0-7.778 6.306-14.084 14.085-14.084 7.778 0 14.083 6.306 14.083 14.084 0 7.779-6.305 14.084-14.083 14.084-7.779 0-14.084-6.305-14.084-14.084zm0-42.253c0-7.778 6.306-14.084 14.085-14.084 7.778 0 14.083 6.306 14.083 14.084 0 7.779-6.305 14.084-14.083 14.084-7.779 0-14.084-6.305-14.084-14.084zm77.464 42.253c0 15.532 12.636 28.168 28.169 28.168h14.084V381H45.22v-84.505h14.085c15.532 0 28.168-12.636 28.168-28.169 0-15.532-12.636-28.168-28.168-28.168H45.22v-84.506h.36l-.03-.063L333.015 20l35.865 76.239-11.996 6.247c-9.37 4.88-15.19 14.458-15.19 24.998 0 15.532 12.636 28.168 28.169 28.168h35.914v84.506h-14.084c-15.533 0-28.169 12.636-28.169 28.168zM111.448 155.653h209.656a55.974 55.974 0 0 1-7.58-28.169c0-16.433 7.068-31.694 19.053-42.243l-13.048-27.734-57.206 26.982c3.071 6.97.048 15.153-6.883 18.413-6.922 3.256-15.14.378-18.56-6.412zm223.907 112.673c0-26.203 17.98-48.285 42.252-54.555V183.82h-63.379c0 7.778-6.305 14.084-14.083 14.084-7.779 0-14.084-6.306-14.084-14.084H73.389v29.951c24.27 6.269 42.252 28.352 42.252 54.555S97.661 316.61 73.39 322.88v29.951H286.06c0-7.778 6.306-14.084 14.084-14.084 7.779 0 14.084 6.306 14.084 14.084h63.379v-29.95c-24.272-6.27-42.253-28.352-42.253-54.555zm-81.691-139.437c0-7.779 6.305-14.084 14.084-14.084 7.778 0 14.084 6.305 14.084 14.084 0 7.778-6.306 14.084-14.084 14.084-7.779 0-14.084-6.306-14.084-14.084zm32.397 181.69c0-7.778 6.305-14.084 14.084-14.084 7.778 0 14.083 6.306 14.083 14.084s-6.305 14.084-14.083 14.084c-7.779 0-14.084-6.306-14.084-14.084z"/></g><g><g><path fill="#f43c3c" d="M242.231 312.814l-.493.196-1.183.295c-.526.13-1.133.278-1.822.442-.689.164-1.491.327-2.412.492-.915.164-1.888.313-2.903.444a78.352 78.352 0 0 1-3.297.345 43.374 43.374 0 0 1-3.545.146c-8.336 0-15.835-2.247-22.496-6.743-6.662-4.497-11.568-10.585-14.718-18.262h38.098l2.363-17.428h-45.186c-.197-4.463-.197-7.908 0-10.337h48.043l2.365-17.525h-46.076c3.282-7.35 8.204-13.126 14.768-17.327 6.563-4.202 13.98-6.301 22.25-6.301.263-.131 1.23-.098 2.903.098s2.627.279 2.855.246c.227-.033 1.084.066 2.559.295l2.216.344 1.723.345c.493.099 1.133.246 1.133.246l.394.098 5.71-21.659S233.074 199 226.38 199c-14.703 0-27.844 4.202-39.43 12.602-11.584 8.4-19.575 19.494-23.973 33.276l-12.797.001v17.525l9.747-.004c-.199 3.151-.23 6.595-.1 10.338h-9.647v17.43l12.503-.007c4.135 14.505 11.946 26.041 23.432 34.606 11.486 8.567 24.908 12.849 40.266 12.849 1.248 0 2.51-.031 3.791-.1a56.113 56.113 0 0 0 3.595-.294 94.355 94.355 0 0 0 3.298-.442 87.248 87.248 0 0 0 2.952-.493c.886-.163 1.723-.327 2.51-.49a22.178 22.178 0 0 0 2.119-.543 21.072 21.072 0 0 1 1.574-.44 4.848 4.848 0 0 0 1.032-.344l.494-.1z"/></g></g><g><g><path fill="#f43c3c" d="M109.245.11L44.77 64.571 19.707 39.516 0 59.222l44.77 44.764 84.18-84.17z"/></g></g></g></g></svg>