<svg xmlns="http://www.w3.org/2000/svg" width="505" height="420" viewBox="0 0 505 420"><g><g><g><path fill="#fff" d="M285.06 267.326c0-7.778 6.306-14.084 14.085-14.084 7.778 0 14.083 6.306 14.083 14.084 0 7.779-6.305 14.084-14.083 14.084-7.779 0-14.084-6.305-14.084-14.084zm0-42.253c0-7.778 6.306-14.084 14.085-14.084 7.778 0 14.083 6.306 14.083 14.084 0 7.779-6.305 14.084-14.083 14.084-7.779 0-14.084-6.305-14.084-14.084zm77.464 42.253c0 15.532 12.636 28.168 28.169 28.168h14.084V380H44.22v-84.505h14.085c15.532 0 28.168-12.636 28.168-28.169 0-15.532-12.636-28.168-28.168-28.168H44.22v-84.506h.36l-.03-.063L332.015 19l35.865 76.239-11.996 6.247c-9.37 4.88-15.19 14.458-15.19 24.998 0 15.532 12.636 28.168 28.169 28.168h35.914v84.506h-14.084c-15.533 0-28.169 12.636-28.169 28.168zM110.448 154.653h209.656a55.974 55.974 0 0 1-7.58-28.169c0-16.433 7.068-31.694 19.053-42.243l-13.048-27.734-57.206 26.982c3.071 6.97.048 15.153-6.883 18.413-6.922 3.256-15.14.378-18.56-6.412zm223.907 112.673c0-26.203 17.98-48.285 42.252-54.555V182.82h-63.379c0 7.778-6.305 14.084-14.083 14.084-7.779 0-14.084-6.306-14.084-14.084H72.389v29.951c24.27 6.269 42.252 28.352 42.252 54.555S96.661 315.61 72.39 321.88v29.951H285.06c0-7.778 6.306-14.084 14.084-14.084 7.779 0 14.084 6.306 14.084 14.084h63.379v-29.95c-24.272-6.27-42.253-28.352-42.253-54.555zm-81.691-139.437c0-7.779 6.305-14.084 14.084-14.084 7.778 0 14.084 6.305 14.084 14.084 0 7.778-6.306 14.084-14.084 14.084-7.779 0-14.084-6.306-14.084-14.084zm32.397 181.69c0-7.778 6.305-14.084 14.084-14.084 7.778 0 14.083 6.306 14.083 14.084s-6.305 14.084-14.083 14.084c-7.779 0-14.084-6.306-14.084-14.084z"/></g><g><g><path fill="#f1f2f6" d="M248.714 330.73l-3.447-15.653c-.196-.92-.688-1.61-1.477-2.067-.854-.46-1.707-.524-2.559-.196l-.493.196-1.183.295c-.526.13-1.133.278-1.822.442-.689.164-1.491.327-2.412.492-.915.164-1.888.313-2.903.444a78.352 78.352 0 0 1-3.297.345 43.374 43.374 0 0 1-3.545.146c-8.336 0-15.835-2.247-22.496-6.743-6.662-4.497-11.568-10.585-14.718-18.262h38.098c.724 0 1.38-.246 1.969-.74.592-.49.953-1.097 1.082-1.821l2.363-11.027c.198-.982 0-1.869-.59-2.657-.655-.788-1.478-1.183-2.46-1.183h-45.187c-.197-4.463-.197-7.908 0-10.337h48.043c1.774 0 2.823-.853 3.15-2.56l2.363-11.223c.196-.918-.03-1.77-.689-2.559-.588-.788-1.409-1.183-2.46-1.183H187.97c3.282-7.35 8.204-13.126 14.768-17.327 6.563-4.202 13.98-6.301 22.25-6.301.263-.131 1.23-.098 2.903.098s2.627.279 2.855.246c.227-.033 1.084.066 2.559.295l2.216.344 1.723.345c.493.099.87.18 1.133.246l.394.098c.852.264 1.638.181 2.362-.245.723-.428 1.183-1.067 1.38-1.92l4.234-15.654c.196-.853.096-1.64-.295-2.362-.591-.79-1.249-1.281-1.97-1.478-6.038-1.509-12.407-2.264-19.1-2.264-14.704 0-27.845 4.202-39.43 12.602s-19.576 19.494-23.974 33.276h-9.647c-.92 0-1.673.295-2.264.885-.59.59-.886 1.346-.886 2.265v11.223c0 .919.295 1.674.886 2.263.59.592 1.346.886 2.264.886h6.597c-.199 3.151-.23 6.595-.1 10.338h-6.497c-.853 0-1.591.312-2.215.935-.623.623-.935 1.362-.935 2.214v11.125c0 .855.312 1.591.935 2.217.624.623 1.362.932 2.215.932h9.353c4.135 14.505 11.946 26.041 23.432 34.606 11.486 8.567 24.908 12.849 40.266 12.849 1.248 0 2.51-.031 3.791-.1a56.113 56.113 0 0 0 3.595-.294 94.355 94.355 0 0 0 3.298-.442 87.248 87.248 0 0 0 2.952-.493c.886-.163 1.723-.327 2.51-.49a22.178 22.178 0 0 0 2.119-.543 21.072 21.072 0 0 1 1.574-.44 4.848 4.848 0 0 0 1.032-.344l.494-.1c.722-.261 1.28-.738 1.673-1.428.394-.685.49-1.425.295-2.212z"/></g></g><g><g><path fill="#fff" d="M109.245.11L44.77 64.571 19.707 39.516 0 59.222l44.77 44.764 84.18-84.17z"/></g></g></g><g><g><path fill="#f43c3c" d="M385.06 307.326c0-7.778 6.306-14.084 14.085-14.084 7.778 0 14.083 6.306 14.083 14.084 0 7.779-6.305 14.084-14.083 14.084-7.779 0-14.084-6.305-14.084-14.084zm0-42.253c0-7.778 6.306-14.084 14.085-14.084 7.778 0 14.083 6.306 14.083 14.084 0 7.779-6.305 14.084-14.083 14.084-7.779 0-14.084-6.305-14.084-14.084zm77.464 42.253c0 15.532 12.636 28.168 28.169 28.168h14.084V420H144.22v-84.505h14.085c15.532 0 28.168-12.636 28.168-28.169 0-15.532-12.636-28.168-28.168-28.168H144.22v-84.506h.36l-.03-.063L432.015 59l35.865 76.239-11.996 6.247c-9.37 4.88-15.19 14.458-15.19 24.998 0 15.532 12.636 28.168 28.169 28.168h35.914v84.506h-14.084c-15.533 0-28.169 12.636-28.169 28.168zM210.448 194.653h209.656a55.974 55.974 0 0 1-7.58-28.169c0-16.433 7.068-31.694 19.053-42.243l-13.048-27.734-57.206 26.982c3.071 6.97.048 15.153-6.883 18.413-6.922 3.256-15.14.378-18.56-6.412zm223.907 112.673c0-26.203 17.98-48.285 42.252-54.555V222.82h-63.379c0 7.778-6.305 14.084-14.083 14.084-7.779 0-14.084-6.306-14.084-14.084H172.389v29.951c24.27 6.269 42.252 28.352 42.252 54.555s-17.98 48.285-42.252 54.554v29.951H385.06c0-7.778 6.306-14.084 14.084-14.084 7.779 0 14.084 6.306 14.084 14.084h63.379v-29.95c-24.272-6.27-42.253-28.352-42.253-54.555zm-81.691-139.437c0-7.779 6.305-14.084 14.084-14.084 7.778 0 14.084 6.305 14.084 14.084 0 7.778-6.306 14.084-14.084 14.084-7.779 0-14.084-6.306-14.084-14.084zm32.397 181.69c0-7.778 6.305-14.084 14.084-14.084 7.778 0 14.083 6.306 14.083 14.084s-6.305 14.084-14.083 14.084c-7.779 0-14.084-6.306-14.084-14.084z"/></g><g><g><path fill="#f43c3c" d="M341.231 351.814l-.493.196-1.183.295c-.526.13-1.133.278-1.822.442-.689.164-1.491.327-2.412.492-.915.164-1.888.313-2.903.444a78.352 78.352 0 0 1-3.297.345 43.374 43.374 0 0 1-3.545.146c-8.336 0-15.835-2.247-22.496-6.743-6.662-4.497-11.568-10.585-14.718-18.262h38.098l2.363-17.428h-45.186c-.197-4.463-.197-7.908 0-10.337h48.043l2.365-17.525h-46.076c3.282-7.35 8.204-13.126 14.768-17.327 6.563-4.202 13.98-6.301 22.25-6.301.263-.131 1.23-.098 2.903.098s2.627.279 2.855.246c.227-.033 1.084.066 2.559.295l2.216.344 1.723.345c.493.099 1.133.246 1.133.246l.394.098 5.71-21.659S332.074 238 325.38 238c-14.703 0-27.844 4.202-39.43 12.602-11.584 8.4-19.575 19.494-23.973 33.276l-12.797.001v17.525l9.747-.004c-.199 3.151-.23 6.595-.1 10.338h-9.647v17.43l12.503-.007c4.135 14.505 11.946 26.041 23.432 34.606 11.486 8.567 24.908 12.849 40.266 12.849 1.248 0 2.51-.031 3.791-.1a56.113 56.113 0 0 0 3.595-.294 94.355 94.355 0 0 0 3.298-.442 87.248 87.248 0 0 0 2.952-.493c.886-.163 1.723-.327 2.51-.49a22.178 22.178 0 0 0 2.119-.543 21.072 21.072 0 0 1 1.574-.44 4.848 4.848 0 0 0 1.032-.344l.494-.1z"/></g></g><g><g><path fill="#f43c3c" d="M208.245 39.11l-64.475 64.461-25.063-25.055L99 98.222l44.77 44.764 84.18-84.17z"/></g></g></g></g></svg>