<svg xmlns="http://www.w3.org/2000/svg" width="15" height="17" viewBox="0 0 15 17"><g><g><path fill="#ff8334" d="M9.344 2.008H5.652v1.154h3.692zm5.642 1.154v1.259h-1.332l-1.04 11.822a.63.63 0 0 1-.627.574H2.988a.63.63 0 0 1-.626-.574L1.322 4.42H.01V3.162h4.384V1.8c0-.579.47-1.049 1.049-1.049h4.11c.579 0 1.05.47 1.05 1.049v1.363zM12.39 4.421H2.585l.98 11.137h7.845zM4.71 13.735L4.436 6.29l1.258-.046.272 7.446zm2.16-7.469h1.258v7.447H6.87zm3.418 7.47L9.03 13.69l.272-7.447 1.258.047z"/></g></g></svg>