<svg xmlns="http://www.w3.org/2000/svg" width="20" height="20" viewBox="0 0 20 20"><g><g><g><path fill="#fff" d="M13.101 9.494c-.128.002-.186-.105-.194-.22-.017-.228-.028-.456-.06-.681a2.857 2.857 0 0 0-2.304-2.386c-.179-.032-.362-.04-.543-.059-.114-.012-.264-.019-.29-.16-.02-.12.08-.214.194-.22.03-.002.061 0 .092 0 1.471.04.215.006.024 0 1.59.055 2.895 1.112 3.175 2.683.048.27.065.545.087.818.009.115-.056.224-.18.225zm-2.053-2.282a2.184 2.184 0 0 0-.605-.186c-.092-.015-.184-.024-.276-.037-.11-.015-.17-.086-.165-.196.005-.102.08-.176.192-.17.368.021.723.1 1.05.274.664.351 1.043.907 1.154 1.648.005.034.013.067.016.101.006.083.01.167.016.277-.002.02-.004.067-.015.11-.043.162-.287.182-.343.02a.484.484 0 0 1-.019-.155c0-.34-.074-.678-.245-.974a1.812 1.812 0 0 0-.76-.712zm.377 1.672a.242.242 0 0 1-.017-.001c-.121-.004-.187-.077-.2-.194-.01-.085-.018-.172-.038-.256a.72.72 0 0 0-.263-.416.685.685 0 0 0-.215-.105c-.098-.028-.2-.02-.296-.044-.106-.026-.165-.113-.148-.213a.191.191 0 0 1 .202-.154c.616.045 1.056.366 1.12 1.097.004.051.009.106-.003.155-.018.08-.075.122-.132.13h-.01zm1.59 2.854c-.174.369-.426.675-.79.871-.104.055-.227.073-.343.109-.133-.04-.26-.068-.379-.117-1.224-.508-2.35-1.163-3.244-2.168-.507-.571-.904-1.216-1.24-1.899-.16-.323-.294-.66-.43-.994-.125-.304.059-.62.252-.849.182-.215.415-.38.668-.502.198-.095.392-.04.537.127.311.362.598.743.83 1.162.142.258.103.573-.155.749-.063.043-.12.093-.179.14a.585.585 0 0 0-.135.143.39.39 0 0 0-.026.342c.319.876.856 1.557 1.738 1.923.14.06.282.127.445.108.272-.031.36-.33.55-.486a.52.52 0 0 1 .626-.027c.201.127.396.263.59.401.19.136.378.268.554.422.168.149.226.343.131.545zm-.03-7.115a15.944 15.944 0 0 0-5.984 0c-.868.194-1.961 1.24-2.175 2.083a11.445 11.445 0 0 0 0 4.91c.214.842 1.307 1.89 2.175 2.083a.082.082 0 0 1 .068.08v2.387c0 .12.145.178.228.092l1.134-1.164L9.497 14a.081.081 0 0 1 .06-.024 15.96 15.96 0 0 0 3.428-.277c.868-.194 1.961-1.24 2.174-2.083.356-1.63.356-3.28 0-4.91-.213-.842-1.305-1.89-2.174-2.083z"/></g><g><path fill="#fff" d="M16.306 11.876l-.004.016c-.32 1.29-1.758 2.676-3.078 2.964l-.015.003a17.149 17.149 0 0 1-4.17.278l-1.458 1.518a.579.579 0 0 1-.996-.401v-1.441c-1.272-.364-2.603-1.685-2.91-2.92l-.003-.017a12.622 12.622 0 0 1 0-5.433l.004-.016c.32-1.29 1.758-2.676 3.078-2.964l.016-.003a17.094 17.094 0 0 1 6.439 0l.015.003c1.32.288 2.759 1.673 3.078 2.964l.004.016c.394 1.803.394 3.63 0 5.433zM0 0v19.988h19.988V0z"/></g></g></g></svg>