<svg xmlns="http://www.w3.org/2000/svg" width="40" height="14" viewBox="0 0 40 14"><g><g opacity=".4"><g opacity=".4"><g opacity=".4"><path fill="#fff" d="M3.08 2.96l1.435 10.288h3.528L14.614.51h-3.706L8.117 6.417a60.503 60.503 0 0 0-1.03 2.293 90.728 90.728 0 0 0-.184-2.15L6.334.51H.7L6.562 5.15z"/></g><g opacity=".4"><path fill="#fff" d="M17.14 13.247L19.556.51H16.24l-2.42 12.737z"/></g><g opacity=".4"><path fill="#fff" d="M19.089 12.5c.777.582 2.144.931 3.657.931 3.14 0 5.246-1.773 5.246-4.41 0-1.442-.843-2.587-2.57-3.494-.972-.541-1.558-.907-1.558-1.366 0-.43.453-.894 1.52-.894 1.04 0 1.841.407 1.987.488l.379.208 1.06-2.84-.28-.152C27.74.535 26.754.32 25.524.32c-3.007 0-5.106 1.755-5.106 4.268 0 1.823 1.434 2.835 2.692 3.513 1.186.614 1.417.965 1.417 1.363 0 .763-.827 1.037-1.533 1.037a5.277 5.277 0 0 1-2.638-.713l-.374-.225-1.122 2.764z"/></g><g opacity=".4"><path fill="#fff" d="M34.658 5.377c.133-.287.27-.61.402-.951.023.303.048.586.065.832l.198 2.178H33.71zm-2.038 4.758h2.873l.25 3.113h3.445L37.694.51H33.84l-6.2 12.738h3.555z"/></g></g></g></g></svg>