<svg xmlns="http://www.w3.org/2000/svg" width="67" height="19" viewBox="0 0 67 19"><g><g opacity=".4"><g opacity=".4"><g opacity=".4"><path fill="#fff" d="M12.655 14.186c-.28.13-.574.24-.875.315-1.14.314-2.287.328-3.421-.041-1.373-.445-2.288-1.381-2.827-2.7-.103-.254-.178-.52-.253-.787H4.193a.324.324 0 0 1-.328-.328v-.724c0-.185.144-.329.328-.329h.888v-.594h-.888a.324.324 0 0 1-.328-.328v-.725c0-.184.144-.328.328-.328h1.134l.04-.11c.308-.97.827-1.797 1.64-2.426.642-.5 1.38-.773 2.178-.902 1.134-.185 2.227-.028 3.292.39.068.027.137.06.198.095.253.15.321.342.205.615-.123.287-.239.574-.369.861-.109.247-.266.322-.526.26-.355-.082-.71-.191-1.072-.266-.758-.158-1.51-.164-2.247.13-.635.252-1.017.73-1.284 1.34-.006.006-.006.013-.006.02H9.58c.185 0 .328.143.328.328v.725a.324.324 0 0 1-.328.328H7.068c-.007.191 0 .39 0 .594h2.52c.185 0 .328.144.328.328v.725a.324.324 0 0 1-.328.328H7.287c.28.793.73 1.408 1.577 1.675.676.212 1.36.198 2.05.061.354-.075.703-.184 1.058-.26.28-.06.43.014.546.267.13.287.253.574.369.868.11.26.04.472-.232.595zM9.383.04A9.382 9.382 0 0 0 0 9.423c0 5.184 4.2 9.384 9.383 9.384 5.184 0 9.377-4.2 9.377-9.384C18.76 4.24 14.56.04 9.383.04z"/></g></g><g opacity=".4"><g opacity=".4"><g opacity=".4"><path fill="#fff" d="M24.601 13.107L22.17 5.52h1.878l.922 3.21c.26.901.499 1.769.676 2.711h.034c.191-.915.43-1.81.69-2.677l.97-3.244h1.823l-2.554 7.587z"/></g><g opacity=".4"><path fill="#fff" d="M32.019 8.696c.778 0 1.092.83 1.092 1.647 0 .988-.43 1.648-1.092 1.648-.73 0-1.127-.708-1.127-1.648 0-.803.307-1.647 1.127-1.647zm.048-1.216c-1.77 0-2.937 1.14-2.937 2.916s1.236 2.834 2.848 2.834c1.475 0 2.902-.922 2.902-2.936 0-1.653-1.127-2.814-2.813-2.814z"/></g><g opacity=".4"><path fill="#fff" d="M35.938 9.413c0-.813-.02-1.339-.048-1.81h1.475l.055 1.01h.048c.28-.798.956-1.133 1.488-1.133.157 0 .24 0 .362.02v1.612c-.123-.02-.273-.048-.464-.048-.628 0-1.059.335-1.168.868a2.15 2.15 0 0 0-.034.382v2.793h-1.714V9.413z"/></g><g opacity=".4"><path fill="#fff" d="M41.894 9.921h.02c.124-.225.26-.45.397-.662l1.113-1.653h2.062l-1.973 2.226 2.253 3.278h-2.103l-1.332-2.26-.437.54v1.72H40.18V5.12h1.714v4.801z"/></g><g opacity=".4"><path fill="#fff" d="M49.245 11.11c0 .102-.014.205-.034.294a.921.921 0 0 1-.882.628c-.38 0-.672-.219-.672-.656 0-.662.692-.88 1.588-.867zm.215 1.987h1.536c-.061-.3-.082-.812-.082-1.338V9.847c0-1.298-.58-2.377-2.417-2.377-1.004 0-1.755.273-2.138.485l.314 1.106c.362-.225.963-.416 1.523-.416.847 0 1.004.416 1.004.71v.082c-1.946-.014-3.23.676-3.23 2.103 0 .874.662 1.687 1.776 1.687.655 0 1.215-.239 1.577-.676h.034l.103.553z"/></g><g opacity=".4"><path fill="#fff" d="M52.264 11.612c.314.19.97.416 1.475.416.52 0 .731-.177.731-.464 0-.287-.17-.417-.813-.628-1.133-.383-1.577-1.004-1.564-1.653 0-1.024.881-1.803 2.24-1.803.642 0 1.216.143 1.55.314l-.307 1.182a2.664 2.664 0 0 0-1.195-.315c-.416 0-.655.171-.655.451 0 .26.211.396.887.628 1.045.362 1.49.888 1.496 1.701 0 1.024-.813 1.776-2.383 1.776-.717 0-1.36-.157-1.776-.383z"/></g><g opacity=".4"><path fill="#fff" d="M57.154 11.612c.314.19.97.416 1.475.416.52 0 .731-.177.731-.464 0-.287-.17-.417-.813-.628-1.133-.383-1.577-1.004-1.564-1.653 0-1.024.881-1.803 2.24-1.803.642 0 1.216.143 1.55.314l-.307 1.182a2.664 2.664 0 0 0-1.195-.315c-.416 0-.655.171-.655.451 0 .26.211.396.887.628 1.045.362 1.49.888 1.496 1.701 0 1.024-.813 1.776-2.383 1.776-.717 0-1.36-.157-1.776-.383z"/></g><g opacity=".4"><path fill="#fff" d="M63.359 9.734c.047-.458.341-1.114 1.058-1.114.792 0 .97.697.97 1.114zm3.558 1.167a4.34 4.34 0 0 0 .054-.676c0-1.359-.676-2.745-2.451-2.745-1.913 0-2.78 1.543-2.78 2.937 0 1.72 1.065 2.8 2.937 2.8.744 0 1.434-.11 1.994-.335l-.226-1.161a4.96 4.96 0 0 1-1.523.225c-.799 0-1.495-.334-1.55-1.045z"/></g></g></g></g></g></svg>