<svg width="20" height="20" viewBox="0 0 20 20" fill="none" xmlns="http://www.w3.org/2000/svg">
<path d="M9.99998 0C4.48598 0 0 4.48598 0 9.99998C0 15.514 4.48598 20 9.99998 20C15.514 20 20 15.514 20 9.99998C20 4.48598 15.514 0 9.99998 0ZM9.99998 18C5.589 18 1.99997 14.411 1.99997 9.99998C1.99997 5.58895 5.589 2.00001 9.99998 2.00001C14.411 2.00001 18 5.589 18 9.99998C18 14.411 14.411 18 9.99998 18Z" fill="#595959"/>
<path d="M10.9991 4.99909H8.99907V8.99907H4.99909V10.9991H8.99907V14.9991H10.9991V10.9991H14.9991V8.99907H10.9991V4.99909Z" fill="#595959"/>
</svg>
