<svg width="22" height="22" viewBox="0 0 22 22" fill="none" xmlns="http://www.w3.org/2000/svg">
<path d="M22 11.001C22 9.50699 21.261 8.108 20.064 7.247C20.3 5.79102 19.834 4.27902 18.778 3.222C17.727 2.172 16.2139 1.69598 14.754 1.93598C13.892 0.738983 12.494 0 11 0C9.506 0 8.10702 0.738983 7.24602 1.93598C5.78802 1.69598 4.27204 2.17097 3.22101 3.222C2.166 4.27799 1.70001 5.78999 1.93603 7.24597C0.738983 8.10697 0 9.506 0 11C0 12.494 0.738983 13.894 1.93598 14.755C1.69997 16.211 2.166 17.723 3.222 18.779C4.27298 19.829 5.79098 20.305 7.24597 20.066C8.10796 21.261 9.50699 22 11 22C12.4929 22 13.8919 21.262 14.7539 20.067C15.0049 20.107 15.2589 20.128 15.5149 20.128C16.7489 20.128 17.908 19.649 18.7789 18.779C19.834 17.723 20.3009 16.211 20.0639 14.756C21.261 13.895 22 12.494 22 11.001ZM18.484 13.375L17.667 13.7629L17.971 14.6149C18.319 15.5879 18.0859 16.642 17.365 17.365C16.6549 18.073 15.5629 18.309 14.614 17.971L13.762 17.667L13.374 18.485C12.931 19.419 12.022 20 11 20C9.97803 20 9.068 19.42 8.62499 18.484L8.23799 17.667L7.38501 17.971C6.43701 18.31 5.34402 18.073 4.63499 17.365C3.91298 16.642 3.68099 15.588 4.02801 14.6149L4.33303 13.7629L3.51604 13.375C2.58103 12.9319 2.00006 12.021 2.00006 11C2.00006 9.97892 2.58004 9.06997 3.51407 8.62696L4.33209 8.24094L4.0281 7.38796C3.68109 6.41394 3.9141 5.35794 4.63509 4.63598C5.34407 3.92798 6.43607 3.69098 7.38608 4.02899L8.23808 4.33298L8.62499 3.51599C9.068 2.58201 9.97897 2.00001 11 2.00001C12.021 2.00001 12.931 2.58201 13.374 3.51599L13.762 4.33298L14.614 4.02899C15.5629 3.69098 16.656 3.92798 17.364 4.63598C18.086 5.35799 18.319 6.41296 17.971 7.38697L17.667 8.23996L18.485 8.62696C19.419 9.06894 20 9.97897 20 11C20 12.0209 19.419 12.932 18.484 13.375Z" fill="#009432"/>
<path d="M9.68617 12.2913L7.69315 10.9613L6.30617 13.0423L10.3132 15.7133L16.0171 7.72832L13.9822 6.27529L9.68617 12.2913Z" fill="#009432"/>
</svg>
