<svg width="62" height="62" viewBox="0 0 62 62" fill="none" xmlns="http://www.w3.org/2000/svg">
<path d="M62 32V6H48V0H14V6H0V32H6V47.1421C4.27979 47.5889 3 49.1411 3 51C3 53.2061 4.79395 55 7 55C8.85791 55 10.4111 53.7212 10.8579 52H20V53.7212L22.4561 54.5391L21.2979 56.854L25.146 60.7021L27.46 59.5449L28.2788 62H33.7202L34.5391 59.5449L36.853 60.7021L40.7012 56.854L39.543 54.5391L42 53.7212V52H51.1421C51.5889 53.7212 53.1421 55 55 55C57.2061 55 59 53.2061 59 51C59 49.1411 57.7202 47.5889 56 47.1421V32H62ZM48 30V24H60V30H48ZM17 30H16V22H46V30H17ZM48 16H60V22H48V16ZM46 20H16V12H46V20ZM14 22H2V16H14V22ZM60 8V14H48V8H60ZM46 2V10H16V2H46ZM14 8V14H2V8H14ZM2 24H14V30H2V24ZM7 53C5.89697 53 5 52.103 5 51C5 49.897 5.89697 49 7 49C8.10303 49 9 49.897 9 51C9 52.103 8.10303 53 7 53ZM10.8579 50C10.4941 48.6011 9.39893 47.5059 8 47.1421V32H30V40H28.2788L27.46 42.4551L25.146 41.2979L21.2979 45.146L22.4561 47.4609L20 48.2788V50H10.8579ZM40 52.2788L37.7021 53.0449L37.5342 53.4902C37.4858 53.6172 37.436 53.7422 37.3809 53.8652L37.187 54.2979L38.2681 56.46L36.459 58.269L34.2969 57.188L33.8638 57.3818C33.7388 57.438 33.6128 57.4868 33.4849 57.5371L33.0439 57.7061L32.2788 60H29.7202L28.9551 57.7061L28.5142 57.5371C28.3862 57.4868 28.2588 57.437 28.1348 57.3818L27.7021 57.188L25.54 58.269L23.731 56.46L24.812 54.2979L24.6182 53.8652C24.563 53.7422 24.5132 53.6172 24.4648 53.4902L24.2969 53.0449L22 52.2788V49.7202L24.2979 48.9541L24.4658 48.5088C24.5142 48.3818 24.564 48.2568 24.6191 48.1338L24.813 47.7012L23.7319 45.5391L25.541 43.73L27.7031 44.811L28.1362 44.6172C28.2612 44.561 28.3872 44.5122 28.5151 44.4619L28.9561 44.293L29.7212 42H32.2798L33.0449 44.2939L33.4858 44.4629C33.6138 44.5132 33.7412 44.563 33.8652 44.6182L34.2979 44.812L36.46 43.731L38.269 45.54L37.188 47.7021L37.3818 48.1348C37.437 48.2578 37.4868 48.3828 37.5352 48.5098L37.7031 48.9551L40 49.7212V52.2788ZM57 51C57 52.103 56.103 53 55 53C53.897 53 53 52.103 53 51C53 49.897 53.897 49 55 49C56.103 49 57 49.897 57 51ZM54 47.1421C52.6011 47.5059 51.5059 48.6011 51.1421 50H42V48.2788L39.5439 47.4609L40.7021 45.146L36.854 41.2979L34.54 42.4551L33.7212 40H32V32H54V47.1421Z" fill="#009432"/>
<path d="M18 4H20V6H18V4Z" fill="#009432"/>
<path d="M22 4H24V6H22V4Z" fill="#009432"/>
<path d="M42 4H44V8H42V4Z" fill="#009432"/>
<path d="M38 4H40V8H38V4Z" fill="#009432"/>
<path d="M34 4H36V8H34V4Z" fill="#009432"/>
<path d="M18 14H20V16H18V14Z" fill="#009432"/>
<path d="M22 14H24V16H22V14Z" fill="#009432"/>
<path d="M42 14H44V18H42V14Z" fill="#009432"/>
<path d="M38 14H40V18H38V14Z" fill="#009432"/>
<path d="M34 14H36V18H34V14Z" fill="#009432"/>
<path d="M18 24H20V26H18V24Z" fill="#009432"/>
<path d="M22 24H24V26H22V24Z" fill="#009432"/>
<path d="M42 24H44V28H42V24Z" fill="#009432"/>
<path d="M38 24H40V28H38V24Z" fill="#009432"/>
<path d="M34 24H36V28H34V24Z" fill="#009432"/>
<path d="M56 10H58V12H56V10Z" fill="#009432"/>
<path d="M52 10H54V12H52V10Z" fill="#009432"/>
<path d="M56 18H58V20H56V18Z" fill="#009432"/>
<path d="M52 18H54V20H52V18Z" fill="#009432"/>
<path d="M56 26H58V28H56V26Z" fill="#009432"/>
<path d="M52 26H54V28H52V26Z" fill="#009432"/>
<path d="M8 10H10V12H8V10Z" fill="#009432"/>
<path d="M4 10H6V12H4V10Z" fill="#009432"/>
<path d="M8 18H10V20H8V18Z" fill="#009432"/>
<path d="M4 18H6V20H4V18Z" fill="#009432"/>
<path d="M8 26H10V28H8V26Z" fill="#009432"/>
<path d="M4 26H6V28H4V26Z" fill="#009432"/>
<path d="M31 46C28.2432 46 26 48.2432 26 51C26 53.7568 28.2432 56 31 56C33.7568 56 36 53.7568 36 51C36 48.2432 33.7568 46 31 46ZM31 54C29.3462 54 28 52.6538 28 51C28 49.3462 29.3462 48 31 48C32.6538 48 34 49.3462 34 51C34 52.6538 32.6538 54 31 54Z" fill="#009432"/>
</svg>
