<svg width="62" height="62" viewBox="0 0 62 62" fill="none" xmlns="http://www.w3.org/2000/svg">
<g clip-path="url(#clip0)">
<path d="M57 12H45.1382C43.0391 6.07617 37.3311 2 31 2C24.6689 2 18.9609 6.07617 16.8618 12H5C2.24316 12 0 14.2432 0 17V53C0 56.8589 3.14014 60 7 60H55C58.8599 60 62 56.8589 62 53V17C62 14.2432 59.7568 12 57 12ZM5 14H18.333L18.5459 13.2852C20.1738 7.81787 25.2959 4 31 4C36.7041 4 41.8262 7.81787 43.4541 13.2852L43.667 14H57C58.6538 14 60 15.3462 60 17V49H58V18C58 16.897 57.103 16 56 16H44V17C44 21.6138 41.5088 25.9238 37.499 28.2461L37 28.5352V39H39V29.6748C43.0498 27.1138 45.645 22.75 45.9658 18H56V49H6V18H16.0342C16.355 22.75 18.9512 27.1138 23 29.6748V39H25V28.5352L24.501 28.2461C20.4912 25.9238 18 21.6138 18 17V16H6C4.89697 16 4 16.897 4 18V49H2V17C2 15.3462 3.34619 14 5 14ZM23 51H39V52C39 52.5518 38.5508 53 38 53H24C23.4492 53 23 52.5518 23 52V51ZM55 58H7C4.24316 58 2 55.7568 2 53V51H21V52C21 53.6538 22.3462 55 24 55H38C39.6538 55 41 53.6538 41 52V51H60V53C60 55.7568 57.7568 58 55 58Z" fill="#009432"/>
<path d="M30 12V18H35V16H32V12H30Z" fill="#009432"/>
<path d="M8 20H10V22H8V20Z" fill="#009432"/>
<path d="M8 24H10V33H8V24Z" fill="#009432"/>
<path d="M12 26H14V28H12V26Z" fill="#009432"/>
<path d="M12 30H14V39H12V30Z" fill="#009432"/>
<path d="M16 32H18V34H16V32Z" fill="#009432"/>
<path d="M16 36H18V45H16V36Z" fill="#009432"/>
<path d="M52 20H54V22H52V20Z" fill="#009432"/>
<path d="M52 24H54V33H52V24Z" fill="#009432"/>
<path d="M48 26H50V28H48V26Z" fill="#009432"/>
<path d="M48 30H50V39H48V30Z" fill="#009432"/>
<path d="M44 32H46V34H44V32Z" fill="#009432"/>
<path d="M44 36H46V45H44V36Z" fill="#009432"/>
<path d="M37 41H39V43H37V41Z" fill="#009432"/>
<path d="M37 45H39V47H37V45Z" fill="#009432"/>
<path d="M23 41H25V43H23V41Z" fill="#009432"/>
<path d="M23 45H25V47H23V45Z" fill="#009432"/>
<path d="M52 35H54V37H52V35Z" fill="#009432"/>
<path d="M52 39H54V41H52V39Z" fill="#009432"/>
<path d="M8 35H10V37H8V35Z" fill="#009432"/>
<path d="M8 39H10V41H8V39Z" fill="#009432"/>
<path d="M12 41H14V43H12V41Z" fill="#009432"/>
<path d="M48 41H50V43H48V41Z" fill="#009432"/>
<path d="M27 27.249V47H29V25.8071L28.2998 25.5869C24.854 24.5049 22.4492 21.5239 22.062 18H24V16H22.0591C22.522 11.835 25.8359 8.52197 30 8.05908V10H32V8.05908C36.1641 8.52197 39.478 11.835 39.9409 16H38V18H39.939C39.5518 21.5239 37.146 24.5049 33.7012 25.5869L33.001 25.8071V47H35.001V27.249C39.2168 25.6108 42.001 21.5811 42.001 17C42.001 10.9351 37.0659 6 31.001 6C24.936 6 20.001 10.9351 20.001 17C20 21.5811 22.7842 25.6108 27 27.249Z" fill="#009432"/>
</g>
<defs>
<clipPath id="clip0">
<rect width="62" height="62" fill="white"/>
</clipPath>
</defs>
</svg>
