<svg width="62" height="62" viewBox="0 0 62 62" fill="none" xmlns="http://www.w3.org/2000/svg">
<path d="M4 50H6V52H4V50Z" fill="#009432"/>
<path d="M8 50H10V52H8V50Z" fill="#009432"/>
<path d="M12 50H14V52H12V50Z" fill="#009432"/>
<path d="M57 12H56V0H6V12H5C2.24316 12 0 14.2432 0 17V51C0 53.7568 2.24316 56 5 56H18V60H14V62H48V60H44V56H57C59.7568 56 62 53.7568 62 51V17C62 14.2432 59.7568 12 57 12ZM54 2V8H8V2H54ZM5 14H8V10H54V42H8V16H6V44H56V14H57C58.6538 14 60 15.3462 60 17V48H18.4141L16.4141 46H2V17C2 15.3462 3.34619 14 5 14ZM57 54H22V56H42V60H20V54H5C3.34619 54 2 52.6538 2 51V48H15.5859L17.5859 50H60V51C60 52.6538 58.6538 54 57 54Z" fill="#009432"/>
<path d="M10 4H12V6H10V4Z" fill="#009432"/>
<path d="M14 4H16V6H14V4Z" fill="#009432"/>
<path d="M18 4H20V6H18V4Z" fill="#009432"/>
<path d="M21 34C25.3701 34 29.3262 31.4092 31.0781 27.3999L29.2461 26.6001C27.9468 29.5698 25.167 31.5708 22 31.9268V29.9199C25.3862 29.4321 28 26.519 28 23C28 19.481 25.3862 16.5679 22 16.0801V14.0742C25.167 14.4292 27.9468 16.4312 29.2461 19.4009L29.5078 20.001H36V18.001H30.7949C28.9238 14.335 25.1489 12.001 21 12.001C14.9351 12.001 10 16.936 10 23.001C10 29.0659 14.9351 34 21 34ZM13.7661 28.332L15.5078 27.3262C16.5952 28.7031 18.1851 29.6592 20 29.9199V31.9409C17.4468 31.6572 15.2192 30.2979 13.7661 28.332ZM12 23C12 21.7178 12.2729 20.501 12.7578 19.396L14.5039 20.4038C14.1821 21.208 14 22.083 14 23C14 23.917 14.1821 24.792 14.5049 25.5952L12.7588 26.603C12.2729 25.499 12 24.2822 12 23ZM26 23C26 25.7568 23.7568 28 21 28C18.2432 28 16 25.7568 16 23C16 20.2432 18.2432 18 21 18C23.7568 18 26 20.2432 26 23ZM20 14.0591V16.0801C18.1851 16.3418 16.5952 17.2969 15.5078 18.6738L13.7661 17.668C15.2192 15.7021 17.4468 14.3428 20 14.0591Z" fill="#009432"/>
<path d="M18 23C18 24.6538 19.3462 26 21 26C22.6538 26 24 24.6538 24 23C24 21.3462 22.6538 20 21 20C19.3462 20 18 21.3462 18 23ZM22 23C22 23.5518 21.5518 24 21 24C20.4482 24 20 23.5518 20 23C20 22.4482 20.4482 22 21 22C21.5518 22 22 22.4482 22 23Z" fill="#009432"/>
<path d="M36 38V32H30V38H25V40H52V15H46V38H44V26H38V38H36ZM48 17H50V38H48V17ZM32 34H34V38H32V34ZM40 28H42V38H40V28Z" fill="#009432"/>
<path d="M38 18H40V20H38V18Z" fill="#009432"/>
<path d="M42 18H44V20H42V18Z" fill="#009432"/>
</svg>
