<svg width="62" height="62" viewBox="0 0 62 62" fill="none" xmlns="http://www.w3.org/2000/svg">
<path d="M0 0V54H30.604C33.6128 58.7949 38.9331 62 45 62C54.374 62 62 54.374 62 45V0H0ZM60 2V8H2V2H60ZM45 60C36.729 60 30 53.271 30 45C30 36.729 36.729 30 45 30C53.271 30 60 36.729 60 45C60 53.271 53.271 60 45 60ZM42 24V22H48V24H42ZM46 26V28.0508C45.667 28.0308 45.3379 28 45 28C44.6621 28 44.333 28.0308 44 28.0508V26H46ZM48 28.2808V26H50V20H40V26H42V28.2808C34.0542 29.7041 28 36.6509 28 45C28 47.4971 28.5552 49.8618 29.5259 52H2V10H60V37.0171C57.5889 32.5039 53.2002 29.2129 48 28.2808Z" fill="#009432"/>
<path d="M45 32C37.832 32 32 37.832 32 45C32 52.168 37.832 58 45 58C52.168 58 58 52.168 58 45C58 37.832 52.168 32 45 32ZM55.9492 46C55.7422 48.2832 54.8379 50.3672 53.4468 52.0342L51.3628 49.9502L49.9492 51.3638L52.0332 53.4482C50.3662 54.8389 48.2822 55.7422 45.999 55.9492V53H43.999V55.9492C41.7158 55.7422 39.6328 54.8379 37.9648 53.4482L40.0488 51.3638L38.6348 49.9502L36.5508 52.0342C35.1602 50.3672 34.2559 48.2832 34.0488 46H37V44H34.0508C34.2578 41.7168 35.1621 39.6328 36.5532 37.9658L38.6372 40.0498L40.0508 38.6362L37.9668 36.5518C39.6338 35.1611 41.7178 34.2578 44.001 34.0508V37H46.001V34.0508C48.2842 34.2578 50.3672 35.1621 52.0352 36.5518L49.9512 38.6362L51.3652 40.0498L53.4492 37.9658C54.8398 39.6328 55.7441 41.7168 55.9512 44H53V46H55.9492Z" fill="#009432"/>
<path d="M45 42C43.3462 42 42 43.3462 42 45C42 46.6538 43.3462 48 45 48C46.6538 48 48 46.6538 48 45C48 43.3462 46.6538 42 45 42ZM45 46C44.4492 46 44 45.5518 44 45C44 44.4482 44.4492 44 45 44C45.5508 44 46 44.4482 46 45C46 45.5518 45.5508 46 45 46Z" fill="#009432"/>
<path d="M16 33H4V35H18V32.6182L24.7642 36L18 39.3818V37H4V39H16V42.6182L29.2358 36L16 29.3818V33Z" fill="#009432"/>
<path d="M7 44C5.34619 44 4 45.3462 4 47C4 48.6538 5.34619 50 7 50C8.65381 50 10 48.6538 10 47C10 45.3462 8.65381 44 7 44ZM7 48C6.44922 48 6 47.5518 6 47C6 46.4482 6.44922 46 7 46C7.55078 46 8 46.4482 8 47C8 47.5518 7.55078 48 7 48Z" fill="#009432"/>
<path d="M15 44C13.3462 44 12 45.3462 12 47C12 48.6538 13.3462 50 15 50C16.6538 50 18 48.6538 18 47C18 45.3462 16.6538 44 15 44ZM15 48C14.4492 48 14 47.5518 14 47C14 46.4482 14.4492 46 15 46C15.5508 46 16 46.4482 16 47C16 47.5518 15.5508 48 15 48Z" fill="#009432"/>
<path d="M23 44C21.3462 44 20 45.3462 20 47C20 48.6538 21.3462 50 23 50C24.6538 50 26 48.6538 26 47C26 45.3462 24.6538 44 23 44ZM23 48C22.4492 48 22 47.5518 22 47C22 46.4482 22.4492 46 23 46C23.5508 46 24 46.4482 24 47C24 47.5518 23.5508 48 23 48Z" fill="#009432"/>
<path d="M16 12H4V20H16V12ZM14 18H6V14H14V18Z" fill="#009432"/>
<path d="M18 20H30V12H18V20ZM20 14H28V18H20V14Z" fill="#009432"/>
<path d="M4 22H30V24H4V22Z" fill="#009432"/>
<path d="M4 26H30V28H4V26Z" fill="#009432"/>
<path d="M4 4H6V6H4V4Z" fill="#009432"/>
<path d="M8 4H10V6H8V4Z" fill="#009432"/>
<path d="M12 4H14V6H12V4Z" fill="#009432"/>
</svg>
