<svg width="20" height="16" viewBox="0 0 20 16" fill="none" xmlns="http://www.w3.org/2000/svg">
<path d="M18 0H2.00001C0.896015 0 0 0.897984 0 1.99997V14C0 15.103 0.896015 16 2.00001 16H18C19.104 16 20 15.103 20 14V1.99997C20 0.897984 19.104 0 18 0ZM17.997 14H2.00001V1.99997H18L17.997 14Z" fill="#009432"/>
<path d="M8.29298 10.706C8.53096 10.9439 8.87198 11.0489 9.20099 10.979C9.53001 10.912 9.80399 10.6829 9.92901 10.3709L11.102 7.43896L12.106 9.44695C12.235 9.70396 12.467 9.89296 12.744 9.96693C13.023 10.0409 13.317 9.99093 13.5561 9.83193L16.0001 8.20195V5.79796L13.3881 7.53998L11.895 4.55297C11.719 4.20098 11.352 3.97898 10.959 4.00097C10.564 4.01798 10.218 4.26295 10.071 4.62895L8.63404 8.22093L7.70606 7.29295C7.36907 6.95596 6.84107 6.90393 6.44404 7.16793L4.00003 8.79791V11.2019L6.87304 9.28691L8.29298 10.706Z" fill="#009432"/>
</svg>
