<svg width="109" height="109" viewBox="0 0 109 109" fill="none" xmlns="http://www.w3.org/2000/svg">
<path d="M70 40C70 35.5879 66.4121 32 62 32C57.5879 32 54 35.5879 54 40C54 44.4121 57.5879 48 62 48C66.4121 48 70 44.4121 70 40ZM58 40C58 37.7939 59.7939 36 62 36C64.2061 36 66 37.7939 66 40C66 42.2061 64.2061 44 62 44C59.7939 44 58 42.2061 58 40Z" fill="#F5F5F5"/>
<path d="M52 80V92H72V80H68V52H52V64H56V80H52ZM56 60V56H64V84H68V88H56V84H60V60H56Z" fill="#F5F5F5"/>
<path d="M62 0C27.8145 0 0 27.8145 0 62C0 96.1855 27.8145 124 62 124C96.1855 124 124 96.1855 124 62C124 27.8145 96.1855 0 62 0ZM62 120C30.0176 120 4 93.9824 4 62C4 30.0176 30.0176 4 62 4C93.9824 4 120 30.0176 120 62C120 93.9824 93.9824 120 62 120Z" fill="#F5F5F5"/>
<path d="M62 12C51.5283 12 41.4922 15.2139 32.9756 21.2979L35.2998 24.5537C43.1338 18.958 52.3682 16 62 16C87.3643 16 108 36.6357 108 62C108 71.6318 105.042 80.8662 99.4463 88.7002L102.702 91.0244C108.786 82.5078 112 72.4717 112 62C112 34.4297 89.5703 12 62 12Z" fill="#F5F5F5"/>
<path d="M62 108C36.6357 108 16 87.3643 16 62C16 52.3662 18.958 43.1338 24.5537 35.2998L21.2998 32.9756C15.2158 41.4922 12 51.5283 12 62C12 89.5703 34.4297 112 62 112C72.4717 112 82.5078 108.786 91.0244 102.702L88.7002 99.4463C80.8662 105.042 71.6318 108 62 108Z" fill="#F5F5F5"/>
</svg>
