<svg width="20" height="20" viewBox="0 0 20 20" fill="none" xmlns="http://www.w3.org/2000/svg">
<path d="M18 0H2.00001C0.896015 0 0 0.897984 0 2.00001V18C0 19.103 0.896015 20 2.00001 20H18C19.104 20 20 19.103 20 18V2.00001C20 0.897984 19.104 0 18 0ZM18 18H2.00001V16H4.30303L7.00003 14.202L10.066 16.246L12.856 13.922L14.52 16H18V18ZM18 14H15.48L13.143 11.079L9.93299 13.754L6.99998 11.798L3.69698 14H2.00001V10H3.414L5.00001 8.41504L8.08302 11.4981L12.083 6.49804L16 10.4151L18 8.41499V14ZM18 6H17.586L16 7.58601L11.917 3.50301L7.91699 8.50302L5.00001 5.58604L2.586 8.00006H2.00001V2.00006H18V6Z" fill="#595959"/>
</svg>
