<svg width="62" height="62" viewBox="0 0 62 62" fill="none" xmlns="http://www.w3.org/2000/svg">
<path d="M10 21H12V19C12 17.9248 12.355 16.8589 13 16C13.939 14.748 15.4341 14 17 14H18V12H17C15.4351 12 13.939 11.252 13 10C12.355 9.14111 12 8.0752 12 7V5H10V7C10 8.0752 9.64502 9.14111 9 10C8.06104 11.252 6.56592 12 5 12H4V14H5C6.56494 14 8.06104 14.748 9 16C9.64502 16.8589 10 17.9248 10 19V21ZM10.6001 14.7998C10.0479 14.064 9.354 13.4619 8.57812 13C9.354 12.5381 10.0479 11.936 10.6001 11.2002C10.751 10.999 10.873 10.7798 11 10.5649C11.1279 10.7808 11.249 11 11.3999 11.2002C11.9521 11.936 12.646 12.5381 13.4219 13C12.646 13.4619 11.9521 14.064 11.3999 14.7998C11.249 15.001 11.127 15.2202 11 15.4351C10.873 15.2202 10.751 15.001 10.6001 14.7998Z" fill="#222222"/>
<path d="M10 0H12V2H10V0Z" fill="#222222"/>
<path d="M10 23H12V25H10V23Z" fill="#222222"/>
<path d="M20 12H22V14H20V12Z" fill="#222222"/>
<path d="M0 12H2V14H0V12Z" fill="#222222"/>
<path d="M53 46.999C52.355 46.1411 52 45.0752 52 44V42H50V44C50 45.0752 49.645 46.1411 49 47C48.061 48.252 46.5659 49 45 49H44V51H45C46.5649 51 48.061 51.748 49 53.001C49.645 53.8589 50 54.9248 50 56V58H52V56C52 54.9248 52.355 53.8589 53 53C53.939 51.748 55.4341 51 57 51H58V49H57C55.4351 49 53.939 48.252 53 46.999ZM51.3999 51.7998C51.249 52.001 51.127 52.2202 51 52.436C50.8721 52.2212 50.751 52.002 50.6001 51.8008C50.0479 51.0649 49.353 50.4619 48.5771 50C49.353 49.5381 50.0469 48.936 50.5991 48.2002C50.75 47.999 50.8721 47.7798 50.999 47.564C51.127 47.7788 51.248 47.998 51.3989 48.1992C51.9512 48.9351 52.646 49.5381 53.4219 50C52.647 50.4619 51.9521 51.064 51.3999 51.7998Z" fill="#222222"/>
<path d="M50 37H52V39H50V37Z" fill="#222222"/>
<path d="M50 60H52V62H50V60Z" fill="#222222"/>
<path d="M60 49H62V51H60V49Z" fill="#222222"/>
<path d="M40 49H42V51H40V49Z" fill="#222222"/>
<path d="M43.5659 22H18.4341L11.752 33.1372L31 53.4541L50.248 33.1372L43.5659 22ZM35.6362 34L31 48.6792L26.3638 34H35.6362ZM26.7661 32L31 24.9438L35.2339 32H26.7661ZM32.7661 24H41.2339L37 31.0562L32.7661 24ZM25 31.0562L20.7661 24H29.2339L25 31.0562ZM23.2339 32H14.7661L19 24.9438L23.2339 32ZM24.2671 34L28.7378 48.1592L15.3252 34H24.2671ZM37.7329 34H46.6748L33.2622 48.1592L37.7329 34ZM38.7661 32L43 24.9438L47.2339 32H38.7661Z" fill="#222222"/>
<path d="M47 14H49V16H47V14Z" fill="#222222"/>
<path d="M45 16H47V18H45V16Z" fill="#222222"/>
<path d="M47 18H49V20H47V18Z" fill="#222222"/>
<path d="M49 16H51V18H49V16Z" fill="#222222"/>
<path d="M14 46H16V48H14V46Z" fill="#222222"/>
<path d="M12 48H14V50H12V48Z" fill="#222222"/>
<path d="M14 50H16V52H14V50Z" fill="#222222"/>
<path d="M16 48H18V50H16V48Z" fill="#222222"/>
</svg>
