<svg width="20" height="22" viewBox="0 0 20 22" fill="none" xmlns="http://www.w3.org/2000/svg">
<path d="M3 2.00001H13V5.99999H17V6.99997H19V4.58601L14.414 0H3C1.89703 0 1.00003 0.897983 1.00003 2.00001V7.00002H3.00004L3 2.00001Z" fill="#595959"/>
<path d="M17 20H3V19H1.00003V20C1.00003 21.103 1.89703 22 3.00004 22H17C18.103 22 19 21.103 19 20V19H17V20Z" fill="#595959"/>
<path d="M17 11H20V8.99999H17C15.346 8.99999 14 10.346 14 12V14C14 15.654 15.346 17 17 17H20V15H17C16.449 15 16 14.552 16 14V12C16 11.448 16.449 11 17 11Z" fill="#595959"/>
<path d="M5.99999 13C5.99999 10.794 4.20599 8.99999 2.00001 8.99999H0V17H2.00001C4.20599 17 5.99999 15.206 5.99999 13ZM2.00001 11C3.10303 11 4.00003 11.898 4.00003 13C4.00003 14.103 3.10303 15 2.00001 15V11Z" fill="#595959"/>
<path d="M7.00002 12V14C7.00002 15.654 8.34604 17 10 17C11.654 17 13 15.654 13 14V12C13 10.346 11.654 8.99999 10 8.99999C8.34604 8.99999 7.00002 10.346 7.00002 12ZM11 12V14C11 14.552 10.551 15 10 15C9.44905 15 9.00003 14.552 9.00003 14V12C9.00003 11.448 9.44905 11 10 11C10.551 11 11 11.448 11 12Z" fill="#595959"/>
</svg>
