<svg width="20" height="20" viewBox="0 0 20 20" fill="none" xmlns="http://www.w3.org/2000/svg">
<path d="M9.99998 0C4.48598 0 0 4.48598 0 9.99998C0 15.514 4.48598 20 9.99998 20C15.514 20 20 15.514 20 9.99998C20 4.48598 15.514 0 9.99998 0ZM9.99998 18C5.589 18 1.99997 14.411 1.99997 9.99998C1.99997 5.58895 5.589 2.00001 9.99998 2.00001C14.411 2.00001 18 5.589 18 9.99998C18 14.411 14.411 18 9.99998 18Z" fill="#C21E37"/>
<path d="M13.2915 5.29299L9.99952 8.586L6.70655 5.29299L5.29154 6.70702L8.58455 9.99998L5.29154 13.293L6.70655 14.707L9.99952 11.415L13.2915 14.707L14.7065 13.293L11.4135 9.99998L14.7065 6.70702L13.2915 5.29299Z" fill="#C21E37"/>
</svg>
