<svg width="16" height="11" viewBox="0 0 16 11" fill="none" xmlns="http://www.w3.org/2000/svg">
<path d="M8 0C4.36364 0 1.23636 2.27333 0 5.5C1.23636 8.72667 4.36364 11 8 11C11.6364 11 14.7636 8.72667 16 5.5C14.7636 2.27333 11.6364 0 8 0ZM8 9.16667C5.96364 9.16667 4.36364 7.55333 4.36364 5.5C4.36364 3.44667 5.96364 1.83333 8 1.83333C10.0364 1.83333 11.6364 3.44667 11.6364 5.5C11.6364 7.55333 10.0364 9.16667 8 9.16667ZM8 3.3C6.76364 3.3 5.81818 4.25333 5.81818 5.5C5.81818 6.74667 6.76364 7.7 8 7.7C9.23636 7.7 10.1818 6.74667 10.1818 5.5C10.1818 4.25333 9.23636 3.3 8 3.3Z" fill="#009432"/>
</svg>
