<svg width="16" height="14" viewBox="0 0 16 14" fill="none" xmlns="http://www.w3.org/2000/svg">
<path d="M7.87825 4.4321L10.1686 6.75316L10.1795 6.63158C10.1795 5.41209 9.2016 4.42105 7.99822 4.42105L7.87825 4.4321Z" fill="#595959"/>
<path d="M7.9984 2.94742C10.0052 2.94742 11.6339 4.59796 11.6339 6.63164C11.6339 7.1069 11.5394 7.56006 11.3758 7.97637L13.5026 10.1316C14.6005 9.20321 15.4658 8.00217 16.0002 6.63164C14.7387 3.39691 11.6376 1.10532 7.99843 1.10532C6.98047 1.10532 6.00617 1.28952 5.10092 1.6211L6.67147 3.20898C7.08224 3.04689 7.52942 2.94742 7.9984 2.94742Z" fill="#595959"/>
<path d="M0.727096 0.939474L2.71575 2.95475C1.51602 3.90528 0.567144 5.16897 0 6.63158C1.25791 9.86631 4.36265 12.1579 7.99819 12.1579C9.12522 12.1579 10.2013 11.9369 11.1866 11.5353L13.6151 14L14.5422 13.0642L1.65416 0L0.727096 0.939474ZM4.74802 5.01054L5.8714 6.14896C5.83869 6.3074 5.81687 6.4658 5.81687 6.63158C5.81687 7.85107 6.79482 8.84211 7.99819 8.84211C8.16179 8.84211 8.31813 8.82001 8.47083 8.78685L9.59421 9.92527C9.11067 10.1684 8.57263 10.3158 7.99819 10.3158C5.99138 10.3158 4.36265 8.66527 4.36265 6.63158C4.36265 6.04949 4.50808 5.50422 4.74802 5.01054Z" fill="#595959"/>
</svg>
