<svg width="58" height="62" viewBox="0 0 58 62" fill="none" xmlns="http://www.w3.org/2000/svg">
<path d="M55.1747 48.476C54.2421 44.011 50.7541 40.642 46.2899 39.892L35.9438 38.153V36.647C42.907 33.852 47.8484 27.003 47.8484 19C47.8484 8.523 39.3932 0 28.9995 0C18.6058 0 10.1506 8.523 10.1506 19C10.1506 27.003 15.092 33.852 22.0552 36.647V38.153L11.7081 39.892C7.24392 40.642 3.75688 44.011 2.82336 48.476L0 62H58L55.1747 48.476ZM39.5956 40.794L36.4666 50.257L30.4509 44.951L35.2921 40.071L39.5956 40.794ZM28.9995 43.586L24.0393 38.586V37.31C25.6226 37.747 27.2803 38 28.9995 38C30.7187 38 32.3764 37.747 33.9597 37.31V38.586L28.9995 43.586ZM12.1347 19C12.1347 9.626 19.7001 2 28.9995 2C38.299 2 45.8643 9.626 45.8643 19C45.8643 28.374 38.299 36 28.9995 36C19.7001 36 12.1347 28.374 12.1347 19ZM22.707 40.071L27.5481 44.951L21.5324 50.257L18.4035 40.794L22.707 40.071ZM24.2833 60H10.2667L11.1367 52.11L9.16552 51.889L8.27069 60H2.4444L4.76579 48.888C5.52967 45.235 8.38279 42.478 12.0355 41.865L16.4223 41.128L20.5939 53.744L23.6077 51.086L25.9261 54.204L24.2833 60ZM26.3458 60L28.1047 53.797L25.1037 49.765L28.9549 46.369L28.9995 46.414L29.0441 46.369L32.8943 49.765L29.8933 53.797L31.6522 60H26.3458ZM48.8345 51.89L46.8633 52.111L47.7323 60H33.7157L32.0729 54.203L34.3913 51.085L37.4051 53.743L41.5767 41.127L45.9635 41.864C49.6172 42.478 52.4703 45.234 53.2332 48.888L55.5546 60H49.7283L48.8345 51.89Z" fill="#333333"/>
<path d="M28.5039 6C25.4951 6 23.0477 8.468 23.0477 11.5V12H25.0318V11.5C25.0318 9.57 26.5893 8 28.5039 8C30.4186 8 31.9761 9.57 31.9761 11.5V12.136C31.9761 13.071 31.615 13.949 30.9593 14.612L28.0079 17.586V23H29.992V18.414L32.363 16.025C33.3937 14.985 33.9602 13.604 33.9602 12.135V11.5C33.9602 8.468 31.5128 6 28.5039 6Z" fill="#333333"/>
<path d="M29 26C27.3591 26 26.0238 27.346 26.0238 29C26.0238 30.654 27.3591 32 29 32C30.6408 32 31.9761 30.654 31.9761 29C31.9761 27.346 30.6408 26 29 26ZM29 30C28.4534 30 28.0079 29.552 28.0079 29C28.0079 28.448 28.4534 28 29 28C29.5466 28 29.992 28.448 29.992 29C29.992 29.552 29.5466 30 29 30Z" fill="#333333"/>
</svg>
