<svg width="62" height="62" viewBox="0 0 62 62" fill="none" xmlns="http://www.w3.org/2000/svg">
<path d="M23 0C20.243 0 18 2.243 18 5V7H20V5C20 3.346 21.346 2 23 2C24.654 2 26 3.346 26 5V7H28V5C28 2.243 25.757 0 23 0Z" fill="#333333"/>
<path d="M33.781 6H12.219L9.719 16H36.281L33.781 6ZM12.281 14L13.781 8H32.219L33.719 14H12.281Z" fill="#333333"/>
<path d="M44 56V57C44 58.654 42.654 60 41 60H5C3.346 60 2 58.654 2 57V13C2 11.346 3.346 10 5 10H11.989V8H5C2.243 8 0 10.243 0 13V57C0 59.757 2.243 62 5 62H41C43.757 62 46 59.757 46 57V56H44Z" fill="#333333"/>
<path d="M41 8H34.021V10H41C42.654 10 44 11.346 44 13V44H46V13C46 10.243 43.757 8 41 8Z" fill="#333333"/>
<path d="M42 41H40V44H42V41Z" fill="#333333"/>
<path d="M35 12V14H40V39H42V12H35Z" fill="#333333"/>
<path d="M4 12V61H6V14H11V12H4Z" fill="#333333"/>
<path d="M42 56H40V61H42V56Z" fill="#333333"/>
<path d="M57 47H23C20.243 47 18 49.243 18 52C18 54.757 20.243 57 23 57H57C59.757 57 62 54.757 62 52C62 49.243 59.757 47 57 47ZM57 55H23C21.346 55 20 53.654 20 52C20 50.346 21.346 49 23 49H57C58.654 49 60 50.346 60 52C60 53.654 58.654 55 57 55Z" fill="#333333"/>
<path d="M16.213 51.728L19.123 51H20V49H19L15.728 49.788C14.71 50.042 14 50.952 14 52C14 53.048 14.71 53.958 15.727 54.212L18.757 54.97L20 55V53H19.123L16.213 52.272C16.087 52.241 16 52.129 16 52C16 51.871 16.087 51.759 16.213 51.728Z" fill="#333333"/>
<path d="M53 43H35C33.346 43 32 44.346 32 46C32 47.654 33.346 49 35 49H53C54.654 49 56 47.654 56 46C56 44.346 54.654 43 53 43ZM53 47H35C34.449 47 34 46.552 34 46C34 45.448 34.449 45 35 45H53C53.551 45 54 45.448 54 46C54 46.552 53.551 47 53 47Z" fill="#333333"/>
<path d="M52 48H50V56H52V48Z" fill="#333333"/>
<path d="M22 48V46H10V58H22V56H12V48H22Z" fill="#333333"/>
<path d="M10 32V44H22V32H10ZM20 42H12V34H20V42Z" fill="#333333"/>
<path d="M10 18V30H22V18H10ZM20 28H12V20H20V28Z" fill="#333333"/>
<path d="M23.4 33.2L16.094 38.68L14.707 37.293L13.293 38.707L15.906 41.32L24.6 34.8L23.4 33.2Z" fill="#333333"/>
<path d="M23.4 19.2L16.094 24.68L14.707 23.293L13.293 24.707L15.906 27.32L24.6 20.8L23.4 19.2Z" fill="#333333"/>
<path d="M36 19H28V21H36V19Z" fill="#333333"/>
<path d="M36 23H28V25H36V23Z" fill="#333333"/>
<path d="M36 27H28V29H36V27Z" fill="#333333"/>
<path d="M36 33H28V35H36V33Z" fill="#333333"/>
<path d="M36 37H28V39H36V37Z" fill="#333333"/>
<path d="M30 41H28V43H30V41Z" fill="#333333"/>
<path d="M18 10H16V12H18V10Z" fill="#333333"/>
<path d="M30 10H28V12H30V10Z" fill="#333333"/>
</svg>
