<svg width="62" height="62" viewBox="0 0 62 62" fill="none" xmlns="http://www.w3.org/2000/svg">
<path d="M57 38H60V60H18V38H51V20H50L54 14.667L58 20H57V34H59V22H62L54 11.333L46 22H49V36H16V40V62H62V36H57V38Z" fill="#0939A8"/>
<path d="M39 48C38.448 48 38 47.552 38 47C38 46.448 38.448 46 39 46C39.552 46 40 46.448 40 47H42C42 45.698 41.161 44.598 40 44.184V42H38V44.184C36.839 44.598 36 45.698 36 47C36 48.654 37.346 50 39 50C39.552 50 40 50.448 40 51C40 51.552 39.552 52 39 52C38.448 52 38 51.552 38 51H36C36 52.302 36.839 53.402 38 53.816V56H40V53.816C41.161 53.402 42 52.302 42 51C42 49.346 40.654 48 39 48Z" fill="#0939A8"/>
<path d="M20 40V47H22V42H27V40H20Z" fill="#0939A8"/>
<path d="M22 56V51H20V58H27V56H22Z" fill="#0939A8"/>
<path d="M51 40V42H56V47H58V40H51Z" fill="#0939A8"/>
<path d="M56 51V56H51V58H58V51H56Z" fill="#0939A8"/>
<path d="M0 0V26H5V24H2V2H44V24H11V42H12L8 47.333L4 42H5V28H3V40H0L8 50.667L16 40H13V26H46V22V0H0Z" fill="#0939A8"/>
<path d="M4 4V11H6V6H11V4H4Z" fill="#0939A8"/>
<path d="M6 20V15H4V22H11V20H6Z" fill="#0939A8"/>
<path d="M35 4V6H40V11H42V4H35Z" fill="#0939A8"/>
<path d="M40 15V20H35V22H42V15H40Z" fill="#0939A8"/>
<path d="M23 18C21.897 18 21 17.103 21 16H23V14H21V12H23V10H21C21 8.897 21.897 8 23 8C24.103 8 25 8.897 25 10H27C27 7.794 25.206 6 23 6C20.794 6 19 7.794 19 10H17V12H19V14H17V16H19C19 18.206 20.794 20 23 20C25.206 20 27 18.206 27 16H25C25 17.103 24.103 18 23 18Z" fill="#0939A8"/>
<path d="M46 48H44V50H46V48Z" fill="#0939A8"/>
<path d="M34 48H32V50H34V48Z" fill="#0939A8"/>
<path d="M32 30H30V32H32V30Z" fill="#0939A8"/>
<path d="M36 30H34V32H36V30Z" fill="#0939A8"/>
<path d="M28 30H26V32H28V30Z" fill="#0939A8"/>
</svg>
