<svg width="62" height="62" viewBox="0 0 62 62" fill="none" xmlns="http://www.w3.org/2000/svg">
<path d="M39 31H41V29H39V26.236L41 22.236V16.586L38.414 14H35V12H39V4H35V0H27V4H23V12H27V14H23.586L21 16.586V22.236L23 26.236V29H21V31H23C23 37.06 21.06 52.097 17.358 60H15V62H47V60H44.642C40.94 52.097 39 37.06 39 31ZM25 10V6H29V2H33V6H37V10H33V14H29V10H25ZM19.562 60C23.136 51.629 25 37.001 25 31H33V29H25V27H33V25H24.618L23 21.764V17.414L24.414 16H37.586L39 17.414V21.764L37.382 25H35V27H37V29H35V31H37C37 37.001 38.864 51.629 42.438 60H19.562Z" fill="#0939A8"/>
<path d="M52 20C57.514 20 62 15.514 62 10C62 4.486 57.514 0 52 0C46.486 0 42 4.486 42 10C42 15.514 46.486 20 52 20ZM52 2C56.411 2 60 5.589 60 10C60 14.411 56.411 18 52 18C47.589 18 44 14.411 44 10C44 5.589 47.589 2 52 2Z" fill="#0939A8"/>
<path d="M53 13H51C50.448 13 50 12.552 50 12H48C48 13.654 49.346 15 51 15V17H53V15C54.654 15 56 13.654 56 12C56 10.346 54.654 9 53 9H51C50.448 9 50 8.552 50 8C50 7.448 50.448 7 51 7H53C53.552 7 54 7.448 54 8H56C56 6.346 54.654 5 53 5V3H51V5C49.346 5 48 6.346 48 8C48 9.654 49.346 11 51 11H53C53.552 11 54 11.448 54 12C54 12.552 53.552 13 53 13Z" fill="#0939A8"/>
<path d="M10 36C15.514 36 20 31.514 20 26C20 20.486 15.514 16 10 16C4.486 16 0 20.486 0 26C0 31.514 4.486 36 10 36ZM10 18C14.411 18 18 21.589 18 26C18 30.411 14.411 34 10 34C5.589 34 2 30.411 2 26C2 21.589 5.589 18 10 18Z" fill="#0939A8"/>
<path d="M11 29H9C8.448 29 8 28.552 8 28H6C6 29.654 7.346 31 9 31V33H11V31C12.654 31 14 29.654 14 28C14 26.346 12.654 25 11 25H9C8.448 25 8 24.552 8 24C8 23.448 8.448 23 9 23H11C11.552 23 12 23.448 12 24H14C14 22.346 12.654 21 11 21V19H9V21C7.346 21 6 22.346 6 24C6 25.654 7.346 27 9 27H11C11.552 27 12 27.448 12 28C12 28.552 11.552 29 11 29Z" fill="#0939A8"/>
<path d="M49 51H47V53H49V51Z" fill="#0939A8"/>
<path d="M49 38H47V49H49V38Z" fill="#0939A8"/>
<path d="M43.0783 34H46.9993V36H48.9993V32H46.9203L51.9993 24.744L57.0783 32H54.9993V47H56.9993V34H60.9203L51.9993 21.256L43.0783 34Z" fill="#0939A8"/>
<path d="M57 49H55V51H57V49Z" fill="#0939A8"/>
<path d="M7 60H5V62H7V60Z" fill="#0939A8"/>
<path d="M12.9993 56H14.9993V50H18.9203L9.99929 37.256L1.07829 50H4.99929V58H6.99929V48H4.92029L9.99929 40.744L15.0783 48H12.9993V56Z" fill="#0939A8"/>
</svg>
