<svg width="16" height="10" viewBox="0 0 16 10" fill="none" xmlns="http://www.w3.org/2000/svg">
<path d="M5.61364 6.03152H8.1134C7.67461 7.24329 6.48622 8.11209 5.09493 8.10206C3.40679 8.08989 2.01093 6.77075 1.94539 5.12298C1.87514 3.35669 3.32585 1.89786 5.11878 1.89786C5.93857 1.89786 6.68667 2.20297 7.25067 2.70292C7.38425 2.82137 7.5876 2.82212 7.71899 2.70132L8.63714 1.85724C8.78071 1.72522 8.78123 1.50227 8.63808 1.3698C7.74364 0.542094 6.5438 0.0261798 5.22066 0.000941669C2.39856 -0.0528769 0.0197849 2.20726 0.000127336 4.96435C-0.0197048 7.74215 2.2796 10 5.11878 10C7.84916 10 10.0796 7.91175 10.2291 5.28123C10.233 5.24825 10.2357 4.13364 10.2357 4.13364H5.61364C5.42419 4.13364 5.27063 4.28364 5.27063 4.4687V5.69646C5.27063 5.88152 5.42422 6.03152 5.61364 6.03152Z" fill="#F34A38"/>
<path d="M14.4711 4.2451V3.04551C14.4711 2.88334 14.3366 2.75189 14.1705 2.75189H13.1369C12.9709 2.75189 12.8363 2.88334 12.8363 3.04551V4.2451H11.6082C11.4422 4.2451 11.3076 4.37654 11.3076 4.53872V5.54838C11.3076 5.71055 11.4422 5.84199 11.6082 5.84199H12.8363V7.04158C12.8363 7.20376 12.9709 7.3352 13.1369 7.3352H14.1705C14.3366 7.3352 14.4711 7.20376 14.4711 7.04158V5.84199H15.6992C15.8652 5.84199 15.9998 5.71055 15.9998 5.54838V4.53872C15.9998 4.37654 15.8652 4.2451 15.6992 4.2451H14.4711Z" fill="#F34A38"/>
</svg>
