<svg width="20" height="20" viewBox="0 0 20 20" fill="none" xmlns="http://www.w3.org/2000/svg">
<path d="M19 0H5.00002C4.44699 0 3.99999 0.447985 3.99999 0.999986V15C3.99999 15.552 4.44699 16 4.99998 16H19C19.553 16 20 15.552 20 15V0.999986C20 0.447985 19.553 0 19 0ZM18 14H6.00001V2.00002H18V14Z" fill="#595959"/>
<path d="M2.00002 3.99999H0V19C0 19.552 0.447001 20 0.999986 20H16V18H2.00002V3.99999Z" fill="#595959"/>
<path d="M9.00001 6.99901C10.1046 6.99901 11 6.10357 11 4.99899C11 3.89441 10.1046 2.99897 9.00001 2.99897C7.89543 2.99897 7 3.89441 7 4.99899C7 6.10357 7.89543 6.99901 9.00001 6.99901Z" fill="#595959"/>
<path d="M14 7L11.412 10.882L10 9.00001L7 13H17L14 7Z" fill="#595959"/>
</svg>
