<?xml version="1.0" encoding="iso-8859-1"?>
<!-- Generator: Adobe Illustrator 19.0.0, SVG Export Plug-In . SVG Version: 6.00 Build 0)  -->
<svg version="1.1" id="Layer_1" xmlns="http://www.w3.org/2000/svg" xmlns:xlink="http://www.w3.org/1999/xlink" x="0px" y="0px"
	 viewBox="0 0 512 512" style="enable-background:new 0 0 512 512;" xml:space="preserve">
<g>
	<g>
		<path d="M384,167.541c-76.075,0-113.365,62.165-146.283,117.013c-31.019,51.691-57.792,96.32-109.717,96.32
			c-49.451,0-85.333-35.883-85.333-85.333c0-47.04,38.293-85.333,85.333-85.333h33.835l-48.917,48.917l30.165,30.165
			l100.416-100.416L143.083,88.459l-30.165,30.165l48.917,48.917H128c-70.592,0-128,57.408-128,128c0,72.96,55.04,128,128,128
			c76.075,0,113.365-62.165,146.283-117.013c31.019-51.691,57.792-96.32,109.717-96.32c49.451,0,85.333,35.883,85.333,85.333
			c0,47.04-38.293,85.333-85.333,85.333c-27.755,0-48.256-12.971-66.133-32.747l-25.963,34.624
			c23.467,23.872,52.523,40.789,92.096,40.789c70.592,0,128-57.408,128-128C512,222.581,456.96,167.541,384,167.541z"/>
	</g>
</g>
<g>
</g>
<g>
</g>
<g>
</g>
<g>
</g>
<g>
</g>
<g>
</g>
<g>
</g>
<g>
</g>
<g>
</g>
<g>
</g>
<g>
</g>
<g>
</g>
<g>
</g>
<g>
</g>
<g>
</g>
</svg>
