<svg width="24" height="24" viewBox="0 0 24 24" fill="none" xmlns="http://www.w3.org/2000/svg">
<path d="M22.9998 10.0001H15.9999V12.0001H21.9998V22H11.9999V16H9.99994V22.9999C9.99994 23.5529 10.4479 23.9999 10.9999 23.9999H22.9998C23.5527 23.9999 23.9997 23.5529 23.9997 22.9999V11.0001C23.9998 10.4471 23.5528 10.0001 22.9998 10.0001Z" fill="#595959"/>
<path d="M14.9191 21.3941L15.517 20.0001H18.484L19.082 21.3941L20.92 20.6061L17.92 13.6061C17.762 13.2381 17.4001 13.0001 17 13.0001C16.601 13.0001 16.238 13.2381 16.081 13.6061L13.081 20.6061L14.9191 21.3941ZM17.0001 16.5381L17.6271 18.0001H16.3741L17.0001 16.5381Z" fill="#595959"/>
<path d="M6 7.38098L6.99998 7.881L8.00002 7.38098V6H6V7.38098Z" fill="#595959"/>
<path d="M14 0H0V14H14V0ZM12 6H9.99998V8.00002C9.99998 8.379 9.786 8.72602 9.447 8.89402L9.23602 9L11.447 10.105L10.552 11.894L7.00003 10.118L3.44705 11.894L2.55206 10.105L4.764 9L4.55302 8.89402C4.21402 8.72503 4.00003 8.37802 4.00003 8.00002V6H2.00002V3.99998H6V2.00002H8.00002V4.00003H12V6Z" fill="#595959"/>
<path d="M23 2.99995H19.414L20.707 1.70695L19.293 0.292966L15.5859 3.99998L19.293 7.707L20.7069 6.29301L19.4139 5.00001H21.9999V8.00001H24V3.99993C24 3.44695 23.553 2.99995 23 2.99995Z" fill="#595959"/>
<path d="M4.293 17.7071L5.586 19.0001H2.00002V16.0001H0V20.0001C0 20.5531 0.447984 21.0001 0.999984 21.0001H5.586L4.293 22.2931L5.70698 23.7071L9.414 20.0001L5.70698 16.2931L4.293 17.7071Z" fill="#595959"/>
</svg>
