<svg width="20" height="20" viewBox="0 0 20 20" fill="none" xmlns="http://www.w3.org/2000/svg">
<path d="M4.3519 4.35098C5.8249 2.871 7.8289 1.99997 10.0009 1.99997C14.4119 2.00001 18.0009 5.589 18.0009 9.99998H20.0009C20.0009 4.485 15.5149 0 10.0009 0C7.2859 0 4.77992 1.089 2.93891 2.93798L1.00091 0.999984V6.99998H7.0009L4.3519 4.35098Z" fill="#595959"/>
<path d="M15.649 15.649C14.176 17.129 12.173 18 9.99998 18C5.589 18 1.99997 14.411 1.99997 9.99996H0C0 15.515 4.48598 20 9.99998 20C12.716 20 15.221 18.911 17.063 17.062L19 19V13H13L15.649 15.649Z" fill="#595959"/>
</svg>
