<svg width="116" height="22" viewBox="0 0 116 22" fill="none" xmlns="http://www.w3.org/2000/svg">
<path d="M4.86 5.04V10.22H13.932V13.86H4.86V21H0.324V1.4H15.136V5.04H4.86ZM27.3954 21.336C25.3981 21.336 23.5874 20.9067 21.9634 20.048C20.3581 19.1707 19.0887 17.9667 18.1554 16.436C17.2407 14.8867 16.7834 13.1413 16.7834 11.2C16.7834 9.25867 17.2407 7.52267 18.1554 5.992C19.0887 4.44267 20.3581 3.23867 21.9634 2.38C23.5874 1.50267 25.4074 1.064 27.4234 1.064C29.1221 1.064 30.6527 1.36267 32.0154 1.96C33.3967 2.55733 34.5541 3.416 35.4874 4.536L32.5754 7.224C31.2501 5.69333 29.6074 4.928 27.6474 4.928C26.4341 4.928 25.3514 5.19867 24.3994 5.74C23.4474 6.26267 22.7007 7 22.1594 7.952C21.6367 8.904 21.3754 9.98667 21.3754 11.2C21.3754 12.4133 21.6367 13.496 22.1594 14.448C22.7007 15.4 23.4474 16.1467 24.3994 16.688C25.3514 17.2107 26.4341 17.472 27.6474 17.472C29.6074 17.472 31.2501 16.6973 32.5754 15.148L35.4874 17.836C34.5541 18.9747 33.3967 19.8427 32.0154 20.44C30.6341 21.0373 29.0941 21.336 27.3954 21.336ZM56.3866 21L56.3586 9.24L50.5906 18.928H48.5466L42.8066 9.492V21H38.5506V1.4H42.3026L49.6386 13.58L56.8626 1.4H60.5866L60.6426 21H56.3866Z" fill="#0A39A8"/>
<path d="M65.2928 1.4H69.8288V17.304H79.6568V21H65.2928V1.4ZM88.1233 5.712C90.4566 5.712 92.2486 6.272 93.4993 7.392C94.7499 8.49333 95.3753 10.164 95.3753 12.404V21H91.2873V19.124C90.4659 20.524 88.9353 21.224 86.6953 21.224C85.5379 21.224 84.5299 21.028 83.6713 20.636C82.8313 20.244 82.1873 19.7027 81.7393 19.012C81.2913 18.3213 81.0673 17.5373 81.0673 16.66C81.0673 15.26 81.5899 14.1587 82.6353 13.356C83.6993 12.5533 85.3326 12.152 87.5353 12.152H91.0073C91.0073 11.2 90.7179 10.472 90.1393 9.968C89.5606 9.44533 88.6926 9.184 87.5353 9.184C86.7326 9.184 85.9393 9.31467 85.1553 9.576C84.3899 9.81867 83.7366 10.1547 83.1953 10.584L81.6273 7.532C82.4486 6.95333 83.4286 6.50533 84.5673 6.188C85.7246 5.87067 86.9099 5.712 88.1233 5.712ZM87.7873 18.284C88.5339 18.284 89.1966 18.116 89.7753 17.78C90.3539 17.4253 90.7646 16.912 91.0073 16.24V14.7H88.0113C86.2193 14.7 85.3233 15.288 85.3233 16.464C85.3233 17.024 85.5379 17.472 85.9673 17.808C86.4153 18.1253 87.0219 18.284 87.7873 18.284ZM108.233 5.712C109.633 5.712 110.902 6.03867 112.041 6.692C113.198 7.32667 114.103 8.232 114.757 9.408C115.41 10.5653 115.737 11.9187 115.737 13.468C115.737 15.0173 115.41 16.38 114.757 17.556C114.103 18.7133 113.198 19.6187 112.041 20.272C110.902 20.9067 109.633 21.224 108.233 21.224C106.161 21.224 104.583 20.5707 103.501 19.264V21H99.3285V0.223999H103.697V7.532C104.798 6.31867 106.31 5.712 108.233 5.712ZM107.477 17.64C108.597 17.64 109.511 17.2667 110.221 16.52C110.949 15.7547 111.312 14.7373 111.312 13.468C111.312 12.1987 110.949 11.1907 110.221 10.444C109.511 9.67867 108.597 9.296 107.477 9.296C106.357 9.296 105.433 9.67867 104.704 10.444C103.995 11.1907 103.641 12.1987 103.641 13.468C103.641 14.7373 103.995 15.7547 104.704 16.52C105.433 17.2667 106.357 17.64 107.477 17.64Z" fill="#C21E37"/>
</svg>
