<svg width="359" height="521" viewBox="0 0 359 521" fill="none" xmlns="http://www.w3.org/2000/svg">
<path d="M300.895 431.272C300.895 431.272 299.643 432.524 298.642 433.776C297.39 435.278 294.136 437.03 292.634 438.031C291.132 438.782 284.874 443.789 283.372 448.545C282.12 453.301 286.626 454.052 291.382 453.051C296.138 452.3 300.394 447.794 301.896 446.292C303.148 444.79 307.653 441.285 313.411 438.282C319.168 435.278 315.664 431.272 315.664 431.272H300.895Z" fill="#160A5B"/>
<path d="M343.698 445.541C343.698 445.541 344.699 447.794 344.949 450.547C345.2 453.301 345.7 459.309 345.7 461.061C345.95 462.813 345.95 467.069 342.696 471.324C339.442 475.58 337.94 477.082 333.935 475.58C329.93 474.078 329.93 467.069 330.681 463.564C331.432 460.06 332.183 452.049 331.932 451.298C331.682 450.547 332.183 450.047 332.183 450.047L343.698 445.541Z" fill="#160A5B"/>
<path d="M286.621 349.667C286.621 349.667 287.372 381.458 294.882 398.23C294.882 398.23 300.139 412.999 300.89 430.772C300.89 430.772 299.638 433.776 301.39 436.279C303.142 438.782 313.906 441.035 315.909 432.774C317.661 424.764 316.91 409.494 315.158 402.986C313.155 396.728 315.909 379.205 315.909 379.205C315.909 379.205 318.913 381.208 322.668 393.724C326.673 406.24 329.427 410.996 330.678 414.501C331.93 418.005 333.181 439.283 332.43 449.546C332.43 449.546 341.192 450.798 343.695 446.542C346.198 442.287 347.2 420.509 346.449 413.75C345.698 406.741 342.944 384.462 343.194 377.703C343.695 370.944 344.947 365.187 343.445 358.428C341.943 351.669 295.382 336.4 295.382 336.4L286.621 349.667Z" fill="#24126A"/>
<path opacity="0.7" d="M286.621 349.667C286.621 349.667 287.372 381.458 294.882 398.23C294.882 398.23 300.139 412.999 300.89 430.772C300.89 430.772 299.638 433.776 301.39 436.279C303.142 438.782 313.906 441.035 315.909 432.774C317.661 424.764 316.91 409.494 315.158 402.986C313.155 396.728 315.909 379.205 315.909 379.205C315.909 379.205 318.913 381.208 322.668 393.724C326.673 406.24 329.427 410.996 330.678 414.501C331.93 418.005 333.181 439.283 332.43 449.546C332.43 449.546 341.192 450.798 343.695 446.542C346.198 442.287 347.2 420.509 346.449 413.75C345.698 406.741 342.944 384.462 343.194 377.703C343.695 370.944 344.947 365.187 343.445 358.428C341.943 351.669 295.382 336.4 295.382 336.4L286.621 349.667Z" fill="url(#paint0_linear)"/>
<path d="M343.199 377.703C343.699 370.944 344.951 365.187 343.449 358.428C342.948 355.925 335.939 352.17 327.428 348.415C313.16 347.163 295.136 345.662 293.885 345.912C292.883 346.162 289.88 347.164 287.376 348.165L286.375 349.667C286.375 349.667 286.375 351.669 286.625 354.673C289.88 355.675 296.388 354.673 296.388 354.673C297.389 356.926 302.896 364.937 309.655 368.191C316.664 371.695 336.69 370.444 337.942 371.695C339.193 372.947 339.444 390.47 339.193 392.723C338.943 394.975 341.196 408.743 342.948 421.259C344.7 433.275 341.947 448.044 341.947 448.545C342.698 448.044 343.199 447.543 343.449 447.043C345.952 442.787 346.953 421.009 346.202 414.25C345.702 406.991 342.948 384.712 343.199 377.703Z" fill="#160A5B"/>
<path d="M302.146 245.532C302.146 245.532 291.883 247.785 288.378 248.786C287.877 249.037 287.377 249.287 287.126 249.787C286.125 252.291 283.622 260.301 285.624 271.566C287.877 285.584 287.126 295.096 287.126 295.096L282.37 319.878C282.37 319.878 276.362 343.409 276.863 344.16C277.364 344.911 290.631 354.924 294.886 353.422C299.142 351.92 297.64 349.667 297.64 349.667C297.64 349.667 300.894 366.689 315.914 366.689C330.683 366.438 342.949 366.689 345.452 360.431C347.955 354.423 344.701 329.14 342.198 319.127C339.694 309.114 333.436 289.088 333.436 289.088L355.215 265.057L336.691 250.789C336.691 250.789 332.185 242.528 330.432 241.527C328.68 240.525 327.679 241.276 327.679 241.276L302.146 245.532Z" fill="#453C9E"/>
<path d="M302.146 245.532C302.146 245.532 291.883 247.785 288.378 248.786C287.877 249.037 287.377 249.287 287.126 249.787C286.125 252.291 283.622 260.301 285.624 271.566C287.877 285.584 287.126 295.096 287.126 295.096L282.37 319.878C282.37 319.878 276.362 343.409 276.863 344.16C277.364 344.911 290.631 354.924 294.886 353.422C299.142 351.92 297.64 349.667 297.64 349.667C297.64 349.667 300.894 366.689 315.914 366.689C330.683 366.438 342.949 366.689 345.452 360.431C347.955 354.423 344.701 329.14 342.198 319.127C339.694 309.114 333.436 289.088 333.436 289.088L355.215 265.057L336.691 250.789C336.691 250.789 332.185 242.528 330.432 241.527C328.68 240.525 327.679 241.276 327.679 241.276L302.146 245.532Z" fill="#453C9E"/>
<path opacity="0.7" d="M302.146 245.532C302.146 245.532 291.883 247.785 288.378 248.786C287.877 249.037 287.377 249.287 287.126 249.787C286.125 252.291 283.622 260.301 285.624 271.566C287.877 285.584 287.126 295.096 287.126 295.096L282.37 319.878C282.37 319.878 276.362 343.409 276.863 344.16C277.364 344.911 290.631 354.924 294.886 353.422C299.142 351.92 297.64 349.667 297.64 349.667C297.64 349.667 300.894 366.689 315.914 366.689C330.683 366.438 342.949 366.689 345.452 360.431C347.955 354.423 344.701 329.14 342.198 319.127C339.694 309.114 333.436 289.088 333.436 289.088L355.215 265.057L336.691 250.789C336.691 250.789 332.185 242.528 330.432 241.527C328.68 240.525 327.679 241.276 327.679 241.276L302.146 245.532Z" fill="url(#paint1_linear)"/>
<path d="M329.68 241.777C329.68 241.777 333.435 246.283 327.928 252.541C324.674 256.296 318.666 264.557 313.91 273.068C310.906 278.324 307.902 281.328 306.4 285.834C306.4 285.834 306.15 280.327 305.9 271.816C305.649 263.806 305.649 255.545 305.9 253.542C306.651 249.537 325.425 239.524 329.68 241.777Z" fill="#F0F6FF"/>
<path d="M315.412 255.545C315.412 255.545 313.409 256.796 312.909 256.546C312.158 256.546 310.155 254.293 310.155 254.293C310.155 254.293 304.648 254.293 304.147 251.79C303.647 249.537 303.146 247.034 302.645 246.032C302.145 244.781 299.892 239.023 299.642 236.771C299.642 234.518 299.642 230.262 298.64 228.009C297.639 225.756 296.387 203.728 317.665 204.228C339.193 204.729 332.434 227.008 332.434 227.008C332.434 227.008 333.936 227.759 332.935 230.512C331.933 233.266 331.683 233.767 331.182 235.018C330.682 236.27 330.431 237.271 329.18 238.523L328.929 241.276C328.929 241.276 329.931 245.282 327.177 249.287C324.674 253.292 315.412 255.545 315.412 255.545Z" fill="#FCD1C5"/>
<path d="M287.877 249.036C287.877 249.036 285.624 249.287 278.114 268.061C273.858 278.575 267.6 289.339 266.349 296.848C265.097 304.608 265.848 312.869 267.35 313.37C268.852 313.87 295.386 323.883 303.647 327.137C304.148 327.388 304.648 327.137 304.648 326.637L306.901 313.87L290.38 307.612C290.38 307.612 287.126 303.857 284.372 302.355C284.372 302.355 287.626 296.348 287.376 294.595C287.126 292.843 287.626 275.571 285.624 268.562C283.871 261.302 287.877 249.036 287.877 249.036Z" fill="#4846A5"/>
<path opacity="0.7" d="M287.877 249.036C287.877 249.036 285.624 249.287 278.114 268.061C273.858 278.575 267.6 289.339 266.349 296.848C265.097 304.608 265.848 312.869 267.35 313.37C268.852 313.87 295.386 323.883 303.647 327.137C304.148 327.388 304.648 327.137 304.648 326.637L306.901 313.87L290.38 307.612C290.38 307.612 287.126 303.857 284.372 302.355C284.372 302.355 287.626 296.348 287.376 294.595C287.126 292.843 287.626 275.571 285.624 268.562C283.871 261.302 287.877 249.036 287.877 249.036Z" fill="url(#paint2_linear)"/>
<path d="M297.389 298.35C297.389 298.35 295.136 296.848 294.636 296.598C294.135 296.348 291.131 295.346 290.38 295.096C289.88 294.846 288.127 295.096 287.376 295.096C287.126 295.096 286.876 295.346 286.625 295.597C285.874 296.848 283.872 300.603 284.122 302.105C284.122 302.105 289.629 305.61 290.13 307.112L291.131 307.362C291.131 307.362 294.886 299.352 297.389 298.35Z" fill="#FCD1C5"/>
<path d="M342.195 319.628C341.444 317.125 340.693 314.121 339.692 311.117L306.148 325.385C306.148 325.385 316.161 337.651 333.684 336.9C338.44 336.65 341.945 334.898 344.448 333.396C343.947 327.889 342.946 322.882 342.195 319.628Z" fill="#24126A"/>
<path d="M354.962 265.558C354.962 265.558 346.201 266.809 338.941 278.074C331.932 289.339 326.675 302.355 326.675 302.355L326.425 303.857C325.674 307.612 321.669 309.865 318.164 308.363C310.655 305.109 299.39 299.852 297.387 298.35C297.387 298.35 290.629 302.105 288.876 310.616C287.374 317.625 287.875 317.625 287.875 317.625C287.875 317.625 317.664 331.393 328.928 331.393C340.443 331.143 354.962 293.594 356.464 285.834C358.216 277.824 359.968 267.56 354.962 265.558Z" fill="#24126A"/>
<path d="M354.962 265.558C354.962 265.558 346.201 266.809 338.941 278.074C331.932 289.339 326.675 302.355 326.675 302.355L326.425 303.857C325.674 307.612 321.669 309.865 318.164 308.363C310.655 305.109 299.39 299.852 297.387 298.35C297.387 298.35 290.629 302.105 288.876 310.616C287.374 317.625 287.875 317.625 287.875 317.625C287.875 317.625 317.664 331.393 328.928 331.393C340.443 331.143 354.962 293.594 356.464 285.834C358.216 277.824 359.968 267.56 354.962 265.558Z" fill="#4846A5"/>
<path opacity="0.7" d="M354.962 265.558C354.962 265.558 346.201 266.809 338.941 278.074C331.932 289.339 326.675 302.355 326.675 302.355L326.425 303.857C325.674 307.612 321.669 309.865 318.164 308.363C310.655 305.109 299.39 299.852 297.387 298.35C297.387 298.35 290.629 302.105 288.876 310.616C287.374 317.625 287.875 317.625 287.875 317.625C287.875 317.625 317.664 331.393 328.928 331.393C340.443 331.143 354.962 293.594 356.464 285.834C358.216 277.824 359.968 267.56 354.962 265.558Z" fill="url(#paint3_linear)"/>
<path d="M322.42 310.116C322.42 310.116 326.175 313.62 327.677 311.618C329.429 309.615 328.929 309.365 328.929 309.365C328.929 309.365 332.183 309.365 332.684 307.112C333.184 305.109 334.686 306.11 334.937 303.858C334.937 301.605 332.183 302.105 332.183 302.105L322.42 310.116Z" fill="#453C9E"/>
<path d="M317.915 308.113C317.915 308.113 318.916 307.112 320.167 306.11C321.419 305.109 323.672 300.353 323.922 299.852C324.173 299.351 328.679 296.097 330.931 295.847C333.184 295.847 331.432 298.1 330.931 298.601C330.431 299.101 328.428 300.102 328.428 300.102C328.428 300.102 326.175 301.855 325.925 302.105C325.675 302.355 331.933 301.604 332.934 302.355C333.935 302.856 333.685 304.608 332.934 305.109C332.183 305.61 331.682 305.61 331.682 305.61C331.682 305.61 332.433 307.612 330.431 308.363C328.428 309.364 328.178 308.864 328.178 308.864C328.178 308.864 327.928 312.118 324.924 311.367L317.915 308.113Z" fill="#FCD1C5"/>
<path d="M298.14 216.745C298.14 216.745 295.386 225.756 302.646 223.003C309.905 220.5 316.664 216.244 318.917 217.746C320.669 218.998 320.669 222.752 320.419 224.505C320.419 225.005 320.419 225.756 320.919 226.257L323.172 229.511C323.423 229.762 323.673 230.262 323.673 230.763L323.923 233.016C323.923 233.516 324.424 234.017 324.925 234.017H325.425C325.926 234.017 326.426 233.767 326.677 233.016L327.177 229.762C327.177 229.762 328.93 225.506 332.685 227.008C332.685 227.008 335.188 223.754 334.437 216.745C333.686 209.736 330.432 202.476 316.664 201.225C302.646 200.223 298.14 216.745 298.14 216.745Z" fill="#AA8383"/>
<path d="M319.168 263.305L317.165 261.803C317.165 261.803 315.163 263.305 314.412 265.057C313.661 266.81 314.412 272.066 314.412 272.066L313.661 273.068L312.91 271.566L312.159 265.308L312.91 260.552L316.915 261.052C316.915 261.052 318.667 262.053 319.168 263.305Z" fill="#C4CCD6"/>
<path d="M309.403 257.047C309.403 257.047 307.15 257.297 306.148 258.048C306.148 258.048 308.401 258.048 308.902 258.298C309.152 258.298 309.403 257.047 309.403 257.047Z" fill="#C4CCD6"/>
<path d="M313.664 257.548L317.419 261.052C317.419 261.052 314.165 262.554 313.164 265.558C313.164 265.558 309.158 266.309 308.658 264.807C308.407 263.305 308.658 259.55 308.157 258.048C307.656 256.296 313.664 257.548 313.664 257.548Z" fill="#24126A"/>
<path d="M308.903 264.557C308.903 264.557 308.152 267.561 307.401 268.812C306.65 270.064 305.899 271.566 305.899 271.566V289.339C305.899 289.339 312.408 275.821 313.91 273.068C313.91 273.068 313.659 266.559 313.159 265.308C312.408 264.306 308.903 264.557 308.903 264.557Z" fill="#24126A"/>
<path d="M326.427 238.523C322.172 250.789 310.156 254.544 310.156 254.544C310.156 254.544 312.409 256.546 312.91 256.797C313.661 256.797 315.413 255.795 315.413 255.795C315.413 255.795 324.675 253.542 327.178 249.537C329.932 245.532 328.931 241.527 328.931 241.527L329.181 238.773C327.429 239.524 326.427 238.523 326.427 238.523Z" fill="#E2B1A6"/>
<path d="M336.188 252.791C336.188 252.791 334.435 258.549 334.185 258.799C333.935 259.049 329.93 258.549 329.93 258.549L331.932 262.304C331.932 262.304 311.656 284.082 307.4 295.847C307.4 295.847 316.913 281.078 333.935 263.305L331.431 259.8L335.687 260.551L336.188 252.791Z" fill="#24126A"/>
<path d="M302.896 247.785L301.895 249.037L303.146 250.288L299.392 253.793C299.392 253.793 298.14 277.573 302.896 293.344C302.896 293.344 296.638 278.825 298.14 253.042L302.145 250.288L300.894 249.037L302.896 247.785Z" fill="#24126A"/>
<path d="M315.662 379.455L310.656 373.948C313.159 377.453 310.406 392.973 309.905 396.728C309.655 400.232 312.658 407.742 313.91 416.503C315.162 425.265 312.658 437.531 312.658 437.531C314.16 436.78 315.412 435.278 315.913 433.025C317.665 425.014 316.914 409.745 315.162 403.236C312.909 396.728 315.662 379.455 315.662 379.455Z" fill="#160A5B"/>
<path d="M325.423 234.017C325.923 234.017 326.424 233.767 326.674 233.016L327.175 229.762C327.175 229.762 328.927 225.506 332.682 227.008C332.682 227.008 334.935 224.004 334.434 217.245C330.429 223.253 321.417 226.257 321.417 226.257L323.67 229.511C323.921 229.762 324.171 230.262 324.171 230.763L324.421 233.016C324.421 233.516 324.922 234.017 325.423 234.017Z" fill="#936D6D"/>
<path d="M118.654 520.388L237.558 451.799L118.654 383.21L0 451.799L118.654 520.388Z" fill="#312A91"/>
<path d="M118.654 500.612L237.558 432.024L118.654 363.435L0 432.024L118.654 500.612Z" fill="#312A91"/>
<path opacity="0.7" d="M118.656 485.092L210.525 432.023L118.656 378.955L27.0378 432.023L118.656 485.092Z" fill="url(#paint4_linear)"/>
<path d="M0 432.023V451.799L118.654 520.388V500.612L0 432.023Z" fill="url(#paint5_linear)"/>
<path d="M237.557 432.023V451.799L118.653 520.388V500.612L237.557 432.023Z" fill="#312A91"/>
<path opacity="0.7" d="M237.557 432.023V451.799L118.653 520.388V500.612L237.557 432.023Z" fill="url(#paint6_linear)"/>
<path d="M118.654 478.834L237.558 410.245L118.654 341.656L0 410.245L118.654 478.834Z" fill="#312A91"/>
<path d="M118.654 459.058L237.558 390.47L118.654 321.881L0.000244141 390.47L118.654 459.058Z" fill="#312A91"/>
<path opacity="0.7" d="M118.654 459.058L237.558 390.47L118.654 321.881L0.000244141 390.47L118.654 459.058Z" fill="url(#paint7_linear)"/>
<path opacity="0.3" d="M118.654 416.003L162.711 390.47L118.654 365.187L74.8474 390.47L118.654 416.003Z" fill="#42E8E0"/>
<path opacity="0.3" d="M118.654 382.459L89.6165 399.231L74.8474 390.47L118.654 365.187L162.711 390.47L147.692 399.231L118.654 382.459Z" fill="#42E8E0"/>
<path d="M118.654 382.459L89.6165 399.231L74.8474 390.47L118.654 365.187L162.711 390.47L147.692 399.231L118.654 382.459Z" fill="#42E8E0"/>
<path d="M0 390.47V410.245L118.654 478.834V459.059L0 390.47Z" fill="url(#paint8_linear)"/>
<path d="M237.557 390.47V410.245L118.653 478.834V459.059L237.557 390.47Z" fill="#312A91"/>
<path opacity="0.7" d="M237.557 390.47V410.245L118.653 478.834V459.059L237.557 390.47Z" fill="url(#paint9_linear)"/>
<path opacity="0.3" d="M118.653 478.834V500.612L237.557 432.023V410.245L118.653 478.834Z" fill="#42E8E0"/>
<path opacity="0.3" d="M210.526 426.016V432.023L118.657 485.092L27.0381 432.023V426.016L118.657 478.834L210.526 426.016Z" fill="#42E8E0"/>
<path opacity="0.3" d="M118.653 478.834V485.092L210.522 432.023V426.016L118.653 478.834Z" fill="#42E8E0"/>
<path opacity="0.5" d="M237.558 410.245V432.023L118.654 500.612L0 432.023V410.245L118.654 478.834L237.558 410.245Z" fill="#5CFFF3"/>
<path d="M234.802 390.47L117.4 322.882L118.652 321.881L237.556 390.47L118.652 459.058L117.4 458.307L234.802 390.47Z" fill="url(#paint10_linear)"/>
<path opacity="0.5" d="M237.555 410.245V432.024L235.803 433.025V411.247L237.555 410.245Z" fill="#42E8E0"/>
<path opacity="0.5" d="M0 410.245V432.023L1.50196 433.025V411.246L0 410.245Z" fill="#42E8E0"/>
<path opacity="0.5" d="M118.655 478.834L121.659 477.332V499.11L118.655 500.612L115.902 499.11V477.332L118.655 478.834Z" fill="#42E8E0"/>
<path d="M118.654 442.287L237.558 373.698L118.654 305.109L0 373.698L118.654 442.287Z" fill="#312A91"/>
<path d="M118.654 422.511L237.558 353.922L118.654 285.333L0 353.922L118.654 422.511Z" fill="#312A91"/>
<path opacity="0.7" d="M118.656 406.991L210.525 353.922L118.656 301.104L27.0378 353.922L118.656 406.991Z" fill="url(#paint11_linear)"/>
<path d="M0 353.922V373.698L118.654 442.287V422.511L0 353.922Z" fill="url(#paint12_linear)"/>
<path d="M237.557 353.922V373.698L118.653 442.287V422.511L237.557 353.922Z" fill="#312A91"/>
<path opacity="0.7" d="M237.557 353.922V373.698L118.653 442.287V422.511L237.557 353.922Z" fill="url(#paint13_linear)"/>
<path d="M118.654 400.733L237.558 332.144L118.654 263.555L0 332.144L118.654 400.733Z" fill="#312A91"/>
<path d="M118.654 380.958L237.558 312.369L118.654 243.78L0.000244141 312.369L118.654 380.958Z" fill="#312A91"/>
<path opacity="0.7" d="M118.654 380.958L237.558 312.369L118.654 243.78L0.000244141 312.369L118.654 380.958Z" fill="url(#paint14_linear)"/>
<path opacity="0.3" d="M118.654 337.902L162.711 312.369L118.654 287.086L74.8474 312.369L118.654 337.902Z" fill="#42E8E0"/>
<path opacity="0.3" d="M118.654 304.358L89.6165 321.13L74.8474 312.369L118.654 287.086L162.711 312.369L147.692 321.13L118.654 304.358Z" fill="#42E8E0"/>
<path d="M118.654 304.358L89.6165 321.13L74.8474 312.369L118.654 287.086L162.711 312.369L147.692 321.13L118.654 304.358Z" fill="#42E8E0"/>
<path d="M0 312.369V332.144L118.654 400.733V380.957L0 312.369Z" fill="url(#paint15_linear)"/>
<path d="M237.557 312.369V332.144L118.653 400.733V380.957L237.557 312.369Z" fill="#312A91"/>
<path opacity="0.7" d="M237.557 312.369V332.144L118.653 400.733V380.957L237.557 312.369Z" fill="url(#paint16_linear)"/>
<path opacity="0.3" d="M118.653 400.733V422.511L237.557 353.922V332.144L118.653 400.733Z" fill="#42E8E0"/>
<path opacity="0.3" d="M210.526 347.915V353.922L118.657 406.991L27.0381 353.922V347.915L118.657 400.733L210.526 347.915Z" fill="#42E8E0"/>
<path opacity="0.3" d="M118.653 400.733V406.991L210.522 353.922V347.915L118.653 400.733Z" fill="#42E8E0"/>
<path opacity="0.5" d="M237.558 332.144V353.922L118.654 422.511L0 353.922V332.144L118.654 400.733L237.558 332.144Z" fill="#5CFFF3"/>
<path d="M234.802 312.369L117.4 244.781L118.652 243.78L237.556 312.369L118.652 380.957L117.4 380.206L234.802 312.369Z" fill="url(#paint17_linear)"/>
<path opacity="0.5" d="M237.555 332.144V353.922L235.803 354.924V333.145L237.555 332.144Z" fill="#42E8E0"/>
<path opacity="0.5" d="M0 332.144V353.922L1.50196 354.924V333.145L0 332.144Z" fill="#42E8E0"/>
<path opacity="0.5" d="M118.655 400.733L121.659 399.231V421.009L118.655 422.511L115.902 421.009V399.231L118.655 400.733Z" fill="#42E8E0"/>
<path d="M118.654 364.186L237.558 295.597L118.654 227.008L0 295.597L118.654 364.186Z" fill="#312A91"/>
<path d="M118.654 344.41L237.558 275.821L118.654 207.232L0 275.821L118.654 344.41Z" fill="#312A91"/>
<path opacity="0.7" d="M118.656 328.89L210.525 275.821L118.656 223.003L27.0378 275.821L118.656 328.89Z" fill="url(#paint18_linear)"/>
<path d="M0 275.821V295.597L118.654 364.186V344.41L0 275.821Z" fill="url(#paint19_linear)"/>
<path d="M237.557 275.821V295.597L118.653 364.186V344.41L237.557 275.821Z" fill="#312A91"/>
<path opacity="0.7" d="M237.557 275.821V295.597L118.653 364.186V344.41L237.557 275.821Z" fill="url(#paint20_linear)"/>
<path d="M118.654 322.632L237.558 254.043L118.654 185.454L0 254.043L118.654 322.632Z" fill="#312A91"/>
<path d="M118.654 303.107L237.558 234.518L118.654 165.929L0.000244141 234.518L118.654 303.107Z" fill="#312A91"/>
<path opacity="0.7" d="M118.654 303.107L237.558 234.518L118.654 165.929L0.000244141 234.518L118.654 303.107Z" fill="url(#paint21_linear)"/>
<path opacity="0.3" d="M118.654 259.801L162.711 234.518L118.654 208.985L74.8474 234.518L118.654 259.801Z" fill="#42E8E0"/>
<path opacity="0.3" d="M118.654 226.257L89.6165 243.029L74.8474 234.518L118.654 208.985L162.711 234.518L147.692 243.029L118.654 226.257Z" fill="#42E8E0"/>
<path d="M118.654 226.257L89.6165 243.029L74.8474 234.518L118.654 208.985L162.711 234.518L147.692 243.029L118.654 226.257Z" fill="#42E8E0"/>
<path d="M0 234.518V254.043L118.654 322.632V303.107L0 234.518Z" fill="url(#paint22_linear)"/>
<path d="M237.557 234.518V254.043L118.653 322.632V303.107L237.557 234.518Z" fill="#312A91"/>
<path opacity="0.7" d="M237.557 234.518V254.043L118.653 322.632V303.107L237.557 234.518Z" fill="url(#paint23_linear)"/>
<path opacity="0.3" d="M118.653 322.632V344.41L237.557 275.821V254.043L118.653 322.632Z" fill="#42E8E0"/>
<path opacity="0.3" d="M210.526 269.813V275.821L118.657 328.89L27.0381 275.821V269.813L118.657 322.632L210.526 269.813Z" fill="#42E8E0"/>
<path opacity="0.3" d="M118.653 322.632V328.89L210.522 275.821V269.813L118.653 322.632Z" fill="#42E8E0"/>
<path opacity="0.5" d="M237.558 254.043V275.821L118.654 344.41L0 275.821V254.043L118.654 322.632L237.558 254.043Z" fill="#5CFFF3"/>
<path d="M234.802 234.518L117.4 166.68L118.652 165.929L237.556 234.518L118.652 303.107L117.4 302.105L234.802 234.518Z" fill="url(#paint24_linear)"/>
<path opacity="0.5" d="M237.555 254.043V275.821L235.803 276.822V255.044L237.555 254.043Z" fill="#42E8E0"/>
<path opacity="0.5" d="M0 254.043V275.821L1.50196 276.822V255.044L0 254.043Z" fill="#42E8E0"/>
<path opacity="0.5" d="M118.655 322.632L121.659 321.13V342.908L118.655 344.41L115.902 342.908V321.13L118.655 322.632Z" fill="#42E8E0"/>
<path d="M118.654 286.084L237.558 217.496L118.654 148.907L0 217.496L118.654 286.084Z" fill="#312A91"/>
<path d="M118.654 266.309L237.558 197.72L118.654 129.131L0 197.72L118.654 266.309Z" fill="#312A91"/>
<path opacity="0.7" d="M118.656 250.789L210.525 197.72L118.656 144.902L27.0378 197.72L118.656 250.789Z" fill="url(#paint25_linear)"/>
<path d="M0 197.72V217.496L118.654 286.084V266.309L0 197.72Z" fill="url(#paint26_linear)"/>
<path d="M237.557 197.72V217.496L118.653 286.084V266.309L237.557 197.72Z" fill="#312A91"/>
<path opacity="0.7" d="M237.557 197.72V217.496L118.653 286.084V266.309L237.557 197.72Z" fill="url(#paint27_linear)"/>
<path d="M118.654 244.531L237.558 175.942L118.654 107.353L0 175.942L118.654 244.531Z" fill="#312A91"/>
<path d="M118.654 225.005L237.558 156.417L118.654 87.8279L0.000244141 156.417L118.654 225.005Z" fill="#312A91"/>
<path opacity="0.7" d="M118.654 225.005L237.558 156.417L118.654 87.8279L0.000244141 156.417L118.654 225.005Z" fill="url(#paint28_linear)"/>
<path opacity="0.3" d="M118.654 181.699L162.711 156.417L118.654 130.884L74.8474 156.417L118.654 181.699Z" fill="#42E8E0"/>
<path opacity="0.3" d="M118.654 148.156L89.6165 164.928L74.8474 156.417L118.654 130.884L162.711 156.417L147.692 164.928L118.654 148.156Z" fill="#42E8E0"/>
<path d="M118.654 148.156L89.6165 164.928L74.8474 156.417L118.654 130.884L162.711 156.417L147.692 164.928L118.654 148.156Z" fill="#42E8E0"/>
<path d="M0 156.417V175.942L118.654 244.531V225.005L0 156.417Z" fill="url(#paint29_linear)"/>
<path d="M237.557 156.417V175.942L118.653 244.531V225.005L237.557 156.417Z" fill="#312A91"/>
<path opacity="0.7" d="M237.557 156.417V175.942L118.653 244.531V225.005L237.557 156.417Z" fill="url(#paint30_linear)"/>
<path opacity="0.3" d="M118.653 244.531V266.309L237.557 197.72V175.942L118.653 244.531Z" fill="#42E8E0"/>
<path opacity="0.3" d="M210.526 191.712V197.72L118.657 250.789L27.0381 197.72V191.712L118.657 244.531L210.526 191.712Z" fill="#42E8E0"/>
<path opacity="0.3" d="M118.653 244.531V250.789L210.522 197.72V191.712L118.653 244.531Z" fill="#42E8E0"/>
<path opacity="0.5" d="M237.558 175.942V197.72L118.654 266.309L0 197.72V175.942L118.654 244.531L237.558 175.942Z" fill="#5CFFF3"/>
<path d="M234.802 156.417L117.4 88.5788L118.652 87.8279L237.556 156.417L118.652 225.005L117.4 224.004L234.802 156.417Z" fill="url(#paint31_linear)"/>
<path opacity="0.5" d="M237.555 175.942V197.72L235.803 198.721V176.943L237.555 175.942Z" fill="#42E8E0"/>
<path opacity="0.5" d="M0 175.942V197.72L1.50196 198.721V176.943L0 175.942Z" fill="#42E8E0"/>
<path opacity="0.5" d="M118.655 244.531L121.659 243.029V264.807L118.655 266.309L115.902 264.807V243.029L118.655 244.531Z" fill="#42E8E0"/>
<path opacity="0.7" d="M75.0979 156.416L76.5999 2.71753H163.462L162.461 156.416L118.654 181.699L75.0979 156.416Z" fill="url(#paint32_linear)"/>
<path opacity="0.9" d="M112.897 131.885C114.695 131.885 116.152 130.428 116.152 128.631C116.152 126.834 114.695 125.377 112.897 125.377C111.1 125.377 109.643 126.834 109.643 128.631C109.643 130.428 111.1 131.885 112.897 131.885Z" fill="#42E8E0"/>
<path opacity="0.3" d="M155.454 103.849C156.56 103.849 157.457 102.952 157.457 101.846C157.457 100.74 156.56 99.8435 155.454 99.8435C154.348 99.8435 153.452 100.74 153.452 101.846C153.452 102.952 154.348 103.849 155.454 103.849Z" fill="#42E8E0"/>
<path opacity="0.2" d="M140.933 80.3182C142.039 80.3182 142.935 79.4216 142.935 78.3156C142.935 77.2096 142.039 76.313 140.933 76.313C139.827 76.313 138.93 77.2096 138.93 78.3156C138.93 79.4216 139.827 80.3182 140.933 80.3182Z" fill="#42E8E0"/>
<path opacity="0.2" d="M78.6037 71.8074C79.2949 71.8074 79.8553 71.2471 79.8553 70.5558C79.8553 69.8646 79.2949 69.3042 78.6037 69.3042C77.9124 69.3042 77.3521 69.8646 77.3521 70.5558C77.3521 71.2471 77.9124 71.8074 78.6037 71.8074Z" fill="#42E8E0"/>
<path opacity="0.2" d="M83.6125 66.3001C85.1332 66.3001 86.366 65.0673 86.366 63.5465C86.366 62.0258 85.1332 60.793 83.6125 60.793C82.0917 60.793 80.8589 62.0258 80.8589 63.5465C80.8589 65.0673 82.0917 66.3001 83.6125 66.3001Z" fill="#42E8E0"/>
<path opacity="0.2" d="M146.691 75.3118C147.382 75.3118 147.942 74.7515 147.942 74.0602C147.942 73.369 147.382 72.8086 146.691 72.8086C145.999 72.8086 145.439 73.369 145.439 74.0602C145.439 74.7515 145.999 75.3118 146.691 75.3118Z" fill="#42E8E0"/>
<path opacity="0.3" d="M149.195 141.898C150.301 141.898 151.198 141.001 151.198 139.895C151.198 138.789 150.301 137.893 149.195 137.893C148.089 137.893 147.192 138.789 147.192 139.895C147.192 141.001 148.089 141.898 149.195 141.898Z" fill="#42E8E0"/>
<path opacity="0.2" d="M134.424 118.368C135.53 118.368 136.427 117.471 136.427 116.365C136.427 115.259 135.53 114.363 134.424 114.363C133.318 114.363 132.421 115.259 132.421 116.365C132.421 117.471 133.318 118.368 134.424 118.368Z" fill="#42E8E0"/>
<path opacity="0.2" d="M140.432 113.361C141.124 113.361 141.684 112.801 141.684 112.11C141.684 111.418 141.124 110.858 140.432 110.858C139.741 110.858 139.181 111.418 139.181 112.11C139.181 112.801 139.741 113.361 140.432 113.361Z" fill="#42E8E0"/>
<path opacity="0.9" d="M120.639 95.093C121.05 93.4856 120.079 91.8497 118.472 91.4393C116.865 91.0289 115.229 91.9992 114.818 93.6066C114.408 95.214 115.378 96.8498 116.986 97.2602C118.593 97.6707 120.229 96.7004 120.639 95.093Z" fill="#42E8E0"/>
<path opacity="0.3" d="M88.5438 62.4218C88.7834 61.4841 88.2174 60.5298 87.2798 60.2903C86.3421 60.0508 85.3878 60.6167 85.1483 61.5544C84.9088 62.492 85.4747 63.4464 86.4124 63.6859C87.35 63.9254 88.3043 63.3594 88.5438 62.4218Z" fill="#42E8E0"/>
<path opacity="0.2" d="M106.598 45.3461C106.872 44.2745 106.225 43.1839 105.154 42.9102C104.082 42.6364 102.992 43.2832 102.718 44.3548C102.444 45.4265 103.091 46.5171 104.162 46.7908C105.234 47.0645 106.325 46.4177 106.598 45.3461Z" fill="#42E8E0"/>
<path opacity="0.2" d="M161.13 52.1776C161.301 51.5079 160.896 50.8263 160.227 50.6553C159.557 50.4842 158.875 50.8885 158.704 51.5583C158.533 52.2281 158.937 52.9096 159.607 53.0806C160.277 53.2517 160.959 52.8474 161.13 52.1776Z" fill="#42E8E0"/>
<path opacity="0.2" d="M159.749 45.4287C160.091 44.0892 159.283 42.7259 157.943 42.3838C156.604 42.0416 155.241 42.8501 154.898 44.1896C154.556 45.5291 155.365 46.8924 156.704 47.2345C158.044 47.5767 159.407 46.7682 159.749 45.4287Z" fill="#42E8E0"/>
<path opacity="0.2" d="M101.759 40.1696C101.93 39.4998 101.525 38.8182 100.856 38.6471C100.186 38.476 99.5043 38.8802 99.3332 39.55C99.1621 40.2198 99.5664 40.9014 100.236 41.0725C100.906 41.2436 101.588 40.8393 101.759 40.1696Z" fill="#42E8E0"/>
<path opacity="0.2" d="M88.9734 141.021C89.4205 140.493 89.3556 139.704 88.8285 139.257C88.3013 138.809 87.5115 138.874 87.0644 139.401C86.6173 139.929 86.6822 140.718 87.2094 141.166C87.7365 141.613 88.5263 141.548 88.9734 141.021Z" fill="#42E8E0"/>
<path opacity="0.2" d="M88.1456 133.61C89.1293 132.45 88.9867 130.712 87.827 129.729C86.6672 128.745 84.9296 128.887 83.9458 130.047C82.9621 131.207 83.1047 132.944 84.2644 133.928C85.4241 134.912 87.1618 134.769 88.1456 133.61Z" fill="#42E8E0"/>
<path opacity="0.3" d="M87.9757 129.868C88.7649 129.307 88.9506 128.214 88.3905 127.424C87.8304 126.635 86.7365 126.45 85.9473 127.01C85.1581 127.57 84.9724 128.664 85.5325 129.453C86.0927 130.242 87.1865 130.428 87.9757 129.868Z" fill="#42E8E0"/>
<path opacity="0.2" d="M86.4826 105.263C87.3845 104.622 87.5967 103.372 86.9566 102.47C86.3164 101.568 85.0663 101.356 84.1644 101.996C83.2624 102.637 83.0502 103.887 83.6904 104.789C84.3305 105.691 85.5806 105.903 86.4826 105.263Z" fill="#42E8E0"/>
<path opacity="0.2" d="M79.8272 104.592C80.391 104.192 80.5236 103.411 80.1235 102.847C79.7234 102.283 78.9421 102.151 78.3784 102.551C77.8146 102.951 77.682 103.732 78.0821 104.296C78.4822 104.86 79.2635 104.992 79.8272 104.592Z" fill="#42E8E0"/>
<g opacity="0.9">
<path opacity="0.9" d="M128.857 162.824C129.267 161.217 128.297 159.581 126.69 159.17C125.082 158.76 123.447 159.73 123.036 161.337C122.625 162.945 123.596 164.581 125.203 164.991C126.81 165.402 128.446 164.432 128.857 162.824Z" fill="#42E8E0"/>
<path opacity="0.9" d="M120.063 146.545C120.337 145.473 119.69 144.383 118.619 144.109C117.547 143.835 116.456 144.482 116.183 145.554C115.909 146.625 116.556 147.716 117.627 147.99C118.699 148.263 119.79 147.616 120.063 146.545Z" fill="#42E8E0"/>
</g>
<path opacity="0.9" d="M112.897 93.5853C114.695 93.5853 116.152 92.1284 116.152 90.3311C116.152 88.5339 114.695 87.0769 112.897 87.0769C111.1 87.0769 109.643 88.5339 109.643 90.3311C109.643 92.1284 111.1 93.5853 112.897 93.5853Z" fill="#42E8E0"/>
<path opacity="0.3" d="M155.454 65.5489C156.56 65.5489 157.457 64.6523 157.457 63.5463C157.457 62.4403 156.56 61.5437 155.454 61.5437C154.348 61.5437 153.452 62.4403 153.452 63.5463C153.452 64.6523 154.348 65.5489 155.454 65.5489Z" fill="#42E8E0"/>
<path opacity="0.2" d="M140.933 42.0186C142.039 42.0186 142.935 41.122 142.935 40.016C142.935 38.91 142.039 38.0134 140.933 38.0134C139.827 38.0134 138.93 38.91 138.93 40.016C138.93 41.122 139.827 42.0186 140.933 42.0186Z" fill="#42E8E0"/>
<path opacity="0.2" d="M78.6037 33.5074C79.2949 33.5074 79.8553 32.947 79.8553 32.2558C79.8553 31.5645 79.2949 31.0042 78.6037 31.0042C77.9124 31.0042 77.3521 31.5645 77.3521 32.2558C77.3521 32.947 77.9124 33.5074 78.6037 33.5074Z" fill="#42E8E0"/>
<path opacity="0.2" d="M83.6125 28.0003C85.1332 28.0003 86.366 26.7675 86.366 25.2467C86.366 23.726 85.1332 22.4932 83.6125 22.4932C82.0917 22.4932 80.8589 23.726 80.8589 25.2467C80.8589 26.7675 82.0917 28.0003 83.6125 28.0003Z" fill="#42E8E0"/>
<path opacity="0.2" d="M146.691 37.0118C147.382 37.0118 147.942 36.4514 147.942 35.7602C147.942 35.0689 147.382 34.5085 146.691 34.5085C145.999 34.5085 145.439 35.0689 145.439 35.7602C145.439 36.4514 145.999 37.0118 146.691 37.0118Z" fill="#42E8E0"/>
<path opacity="0.3" d="M149.195 103.598C150.301 103.598 151.198 102.702 151.198 101.596C151.198 100.49 150.301 99.593 149.195 99.593C148.089 99.593 147.192 100.49 147.192 101.596C147.192 102.702 148.089 103.598 149.195 103.598Z" fill="#42E8E0"/>
<path opacity="0.2" d="M134.424 80.0677C135.53 80.0677 136.427 79.1711 136.427 78.0651C136.427 76.9591 135.53 76.0625 134.424 76.0625C133.318 76.0625 132.421 76.9591 132.421 78.0651C132.421 79.1711 133.318 80.0677 134.424 80.0677Z" fill="#42E8E0"/>
<path opacity="0.2" d="M140.432 75.0613C141.124 75.0613 141.684 74.501 141.684 73.8097C141.684 73.1185 141.124 72.5581 140.432 72.5581C139.741 72.5581 139.181 73.1185 139.181 73.8097C139.181 74.501 139.741 75.0613 140.432 75.0613Z" fill="#42E8E0"/>
<path opacity="0.9" d="M120.711 56.7701C121.121 55.1627 120.151 53.5267 118.544 53.1161C116.936 52.7055 115.301 53.6757 114.89 55.2831C114.479 56.8905 115.45 58.5265 117.057 58.9371C118.664 59.3477 120.3 58.3775 120.711 56.7701Z" fill="#42E8E0"/>
<path opacity="0.3" d="M88.5897 24.0839C88.8293 23.1462 88.2633 22.1919 87.3256 21.9524C86.388 21.7129 85.4337 22.2788 85.1942 23.2165C84.9547 24.1542 85.5206 25.1085 86.4583 25.348C87.3959 25.5875 88.3502 25.0215 88.5897 24.0839Z" fill="#42E8E0"/>
<path opacity="0.2" d="M106.649 7.00726C106.923 5.93565 106.276 4.84504 105.205 4.5713C104.133 4.29757 103.042 4.94438 102.769 6.01598C102.495 7.08758 103.142 8.17821 104.213 8.45194C105.285 8.72567 106.375 8.07886 106.649 7.00726Z" fill="#42E8E0"/>
<path opacity="0.2" d="M161.177 13.8419C161.348 13.1722 160.944 12.4906 160.274 12.3196C159.605 12.1485 158.923 12.5529 158.752 13.2226C158.581 13.8924 158.985 14.5739 159.655 14.745C160.325 14.916 161.006 14.5117 161.177 13.8419Z" fill="#42E8E0"/>
<path opacity="0.2" d="M159.812 7.10887C160.154 5.76937 159.346 4.4061 158.006 4.06394C156.667 3.72177 155.304 4.53027 154.961 5.86978C154.619 7.20928 155.428 8.57255 156.767 8.91471C158.107 9.25688 159.47 8.44838 159.812 7.10887Z" fill="#42E8E0"/>
<path opacity="0.2" d="M101.801 1.83215C101.972 1.16239 101.567 0.480761 100.898 0.309677C100.228 0.138594 99.5463 0.542845 99.3752 1.2126C99.2041 1.88235 99.6084 2.56398 100.278 2.73507C100.948 2.90615 101.63 2.5019 101.801 1.83215Z" fill="#42E8E0"/>
<path opacity="0.2" d="M89.0144 102.705C89.4615 102.178 89.3966 101.388 88.8695 100.941C88.3423 100.494 87.5525 100.559 87.1054 101.086C86.6583 101.613 86.7232 102.403 87.2504 102.85C87.7775 103.297 88.5673 103.232 89.0144 102.705Z" fill="#42E8E0"/>
<path opacity="0.2" d="M88.1763 95.292C89.1601 94.1323 89.0175 92.3947 87.8578 91.4109C86.698 90.4271 84.9604 90.5697 83.9766 91.7295C82.9928 92.8892 83.1355 94.6269 84.2952 95.6106C85.4549 96.5944 87.1926 96.4517 88.1763 95.292Z" fill="#42E8E0"/>
<path opacity="0.3" d="M87.8595 91.3535C88.6487 90.7934 88.8344 89.6995 88.2743 88.9103C87.7141 88.1211 86.6203 87.9354 85.8311 88.4955C85.0419 89.0557 84.8562 90.1495 85.4163 90.9387C85.9764 91.7279 87.0703 91.9136 87.8595 91.3535Z" fill="#42E8E0"/>
<path opacity="0.2" d="M86.5053 66.9536C87.4072 66.3134 87.6194 65.0633 86.9793 64.1613C86.3391 63.2594 85.089 63.0472 84.1871 63.6873C83.2851 64.3275 83.0729 65.5776 83.7131 66.4796C84.3532 67.3815 85.6033 67.5937 86.5053 66.9536Z" fill="#42E8E0"/>
<path opacity="0.2" d="M79.8413 66.2536C80.4049 65.8534 80.5375 65.0721 80.1373 64.5085C79.7371 63.9448 78.9558 63.8123 78.3922 64.2124C77.8285 64.6126 77.696 65.3939 78.0961 65.9576C78.4963 66.5212 79.2776 66.6538 79.8413 66.2536Z" fill="#42E8E0"/>
<g opacity="0.9">
<path opacity="0.9" d="M128.899 124.487C129.31 122.879 128.34 121.244 126.732 120.833C125.125 120.422 123.489 121.393 123.078 123C122.668 124.607 123.638 126.243 125.245 126.654C126.853 127.064 128.489 126.094 128.899 124.487Z" fill="#42E8E0"/>
<path opacity="0.9" d="M120.088 108.181C120.362 107.109 119.715 106.018 118.644 105.745C117.572 105.471 116.481 106.118 116.208 107.189C115.934 108.261 116.581 109.352 117.652 109.625C118.724 109.899 119.814 109.252 120.088 108.181Z" fill="#42E8E0"/>
</g>
<path opacity="0.5" d="M118.654 225.006V520.388L0 451.799V156.417L118.654 225.006Z" fill="#5CFFF3"/>
<path d="M108.142 233.266C108.142 234.518 109.143 236.02 110.145 236.771C111.146 237.522 112.147 236.771 112.147 235.519C112.147 234.268 111.146 232.766 110.145 232.015C109.143 231.514 108.142 232.015 108.142 233.266Z" fill="#88FFF3"/>
<path d="M101.628 229.511C101.628 230.763 102.63 232.265 103.631 233.016C104.632 233.767 105.634 233.016 105.634 231.764C105.634 230.513 104.632 229.011 103.631 228.26C102.379 227.759 101.628 228.26 101.628 229.511Z" fill="#88FFF3"/>
<path d="M94.873 225.756C94.873 227.008 95.8744 228.51 96.8756 229.261C97.8769 230.012 98.8782 229.261 98.8782 228.009C98.8782 226.758 97.8769 225.256 96.8756 224.505C95.8744 223.754 94.873 224.254 94.873 225.756Z" fill="#88FFF3"/>
<path d="M41.0544 196.969L91.8702 226.257V221.501L41.0544 192.213V196.969Z" fill="#88FFF3"/>
<path d="M108.142 244.28C108.142 245.532 109.143 247.034 110.145 247.785C111.146 248.536 112.147 247.785 112.147 246.533C112.147 245.282 111.146 243.78 110.145 243.029C109.143 242.528 108.142 243.029 108.142 244.28Z" fill="#88FFF3"/>
<path d="M101.628 240.275C101.628 241.527 102.629 243.029 103.631 243.78C104.632 244.531 105.633 243.78 105.633 242.528C105.633 241.277 104.632 239.775 103.631 239.024C102.379 238.523 101.628 239.024 101.628 240.275Z" fill="#88FFF3"/>
<path d="M94.8726 236.52C94.8726 237.772 95.8739 239.274 96.8752 240.025C97.8765 240.776 98.8777 240.025 98.8777 238.773C98.8777 237.522 97.8765 236.02 96.8752 235.269C95.8739 234.768 94.8726 235.269 94.8726 236.52Z" fill="#88FFF3"/>
<path d="M41.0535 207.733L91.8693 237.021V232.515L41.0535 203.227V207.733Z" fill="#88FFF3"/>
<path d="M108.142 255.045C108.142 256.296 109.143 257.798 110.145 258.549C111.146 259.3 112.147 258.549 112.147 257.297C112.147 256.046 111.146 254.544 110.145 253.793C109.143 253.292 108.142 253.793 108.142 255.045Z" fill="#88FFF3"/>
<path d="M101.628 251.289C101.628 252.541 102.629 254.043 103.631 254.794C104.632 255.545 105.633 254.794 105.633 253.542C105.633 252.291 104.632 250.789 103.631 250.038C102.379 249.537 101.628 250.038 101.628 251.289Z" fill="#88FFF3"/>
<path d="M94.8726 247.535C94.8726 248.786 95.8739 250.288 96.8752 251.039C97.8765 251.79 98.8777 251.039 98.8777 249.787C98.8777 248.536 97.8765 247.034 96.8752 246.283C95.8739 245.782 94.8726 246.283 94.8726 247.535Z" fill="#88FFF3"/>
<path d="M41.0535 218.747L91.8693 248.035V243.529L41.0535 213.991V218.747Z" fill="#88FFF3"/>
<path d="M108.142 266.058C108.142 267.31 109.143 268.812 110.145 269.563C111.146 270.314 112.147 269.563 112.147 268.311C112.147 267.06 111.146 265.558 110.145 264.807C109.143 264.306 108.142 264.807 108.142 266.058Z" fill="#88FFF3"/>
<path d="M101.628 262.304C101.628 263.555 102.629 265.057 103.631 265.808C104.632 266.559 105.633 265.808 105.633 264.557C105.633 263.305 104.632 261.803 103.631 261.052C102.379 260.552 101.628 261.052 101.628 262.304Z" fill="#88FFF3"/>
<path d="M94.8726 258.549C94.8726 259.8 95.8739 261.302 96.8752 262.053C97.8765 262.804 98.8777 262.053 98.8777 260.802C98.8777 259.55 97.8765 258.048 96.8752 257.297C95.8739 256.546 94.8726 257.047 94.8726 258.549Z" fill="#88FFF3"/>
<path d="M41.0535 229.762L91.8693 259.049V254.293L41.0535 225.005V229.762Z" fill="#88FFF3"/>
<path d="M108.142 277.073C108.142 278.324 109.143 279.826 110.145 280.577C111.146 281.328 112.147 280.577 112.147 279.326C112.147 278.074 111.146 276.572 110.145 275.821C109.143 275.321 108.142 275.821 108.142 277.073Z" fill="#88FFF3"/>
<path d="M101.628 273.068C101.628 274.319 102.629 275.821 103.631 276.572C104.632 277.323 105.633 276.572 105.633 275.321C105.633 274.069 104.632 272.567 103.631 271.816C102.379 271.315 101.628 271.816 101.628 273.068Z" fill="#88FFF3"/>
<path d="M94.8726 269.313C94.8726 270.564 95.8739 272.066 96.8752 272.817C97.8765 273.568 98.8777 272.817 98.8777 271.566C98.8777 270.314 97.8765 268.812 96.8752 268.061C95.8739 267.561 94.8726 268.061 94.8726 269.313Z" fill="#88FFF3"/>
<path d="M41.0535 240.526L91.8693 269.814V265.308L41.0535 236.02V240.526Z" fill="#88FFF3"/>
<path d="M108.142 287.837C108.142 289.088 109.143 290.59 110.145 291.341C111.146 292.092 112.147 291.341 112.147 290.089C112.147 288.838 111.146 287.336 110.145 286.585C109.143 286.084 108.142 286.585 108.142 287.837Z" fill="#88FFF3"/>
<path d="M101.628 284.082C101.628 285.334 102.629 286.835 103.631 287.586C104.632 288.337 105.633 287.586 105.633 286.335C105.633 285.083 104.632 283.581 103.631 282.83C102.379 282.33 101.628 282.83 101.628 284.082Z" fill="#88FFF3"/>
<path d="M94.8726 280.327C94.8726 281.579 95.8739 283.081 96.8752 283.832C97.8765 284.583 98.8777 283.832 98.8777 282.58C98.8777 281.328 97.8765 279.826 96.8752 279.075C95.8739 278.575 94.8726 279.075 94.8726 280.327Z" fill="#88FFF3"/>
<path d="M41.0535 251.54L91.8693 280.828V276.322L41.0535 246.783V251.54Z" fill="#88FFF3"/>
<path d="M108.142 298.851C108.142 300.103 109.143 301.605 110.145 302.356C111.146 303.107 112.147 302.356 112.147 301.104C112.147 299.852 111.146 298.351 110.145 297.6C109.143 297.099 108.142 297.6 108.142 298.851Z" fill="#88FFF3"/>
<path d="M101.628 295.096C101.628 296.348 102.629 297.85 103.631 298.601C104.632 299.352 105.633 298.601 105.633 297.349C105.633 296.097 104.632 294.596 103.631 293.845C102.629 293.094 101.628 293.845 101.628 295.096Z" fill="#88FFF3"/>
<path d="M94.8726 291.341C94.8726 292.593 95.8739 294.095 96.8752 294.846C97.8765 295.597 98.8777 294.846 98.8777 293.594C98.8777 292.343 97.8765 290.841 96.8752 290.09C95.8739 289.339 94.8726 289.839 94.8726 291.341Z" fill="#88FFF3"/>
<path d="M41.0535 262.554L91.8693 291.842V287.086L41.0535 257.798V262.554Z" fill="#88FFF3"/>
<path d="M108.142 309.865C108.142 311.117 109.143 312.619 110.145 313.37C111.146 314.121 112.147 313.37 112.147 312.118C112.147 310.867 111.146 309.365 110.145 308.614C109.143 308.113 108.142 308.614 108.142 309.865Z" fill="#88FFF3"/>
<path d="M101.628 305.86C101.628 307.112 102.629 308.614 103.631 309.365C104.632 310.116 105.633 309.365 105.633 308.113C105.633 306.862 104.632 305.36 103.631 304.609C102.629 303.858 101.628 304.609 101.628 305.86Z" fill="#88FFF3"/>
<path d="M94.8726 302.105C94.8726 303.357 95.8739 304.859 96.8752 305.61C97.8765 306.361 98.8777 305.61 98.8777 304.358C98.8777 303.106 97.8765 301.604 96.8752 300.853C95.8739 300.353 94.8726 300.853 94.8726 302.105Z" fill="#88FFF3"/>
<path d="M41.0535 273.318L91.8693 302.606V298.1L41.0535 268.812V273.318Z" fill="#88FFF3"/>
<path d="M108.142 320.629C108.142 321.881 109.143 323.383 110.145 324.134C111.146 324.885 112.147 324.134 112.147 322.882C112.147 321.631 111.146 320.129 110.145 319.378C109.143 318.877 108.142 319.378 108.142 320.629Z" fill="#88FFF3"/>
<path d="M101.628 316.874C101.628 318.126 102.629 319.628 103.631 320.379C104.632 321.13 105.633 320.379 105.633 319.127C105.633 317.876 104.632 316.374 103.631 315.623C102.629 314.872 101.628 315.623 101.628 316.874Z" fill="#88FFF3"/>
<path d="M94.8726 313.119C94.8726 314.371 95.8739 315.873 96.8752 316.624C97.8765 317.375 98.8777 316.624 98.8777 315.372C98.8777 314.121 97.8765 312.619 96.8752 311.868C95.8739 311.367 94.8726 311.868 94.8726 313.119Z" fill="#88FFF3"/>
<path d="M41.0535 284.332L91.8693 313.62V308.864L41.0535 279.576V284.332Z" fill="#88FFF3"/>
<path d="M108.142 331.643C108.142 332.895 109.143 334.397 110.145 335.148C111.146 335.899 112.147 335.148 112.147 333.896C112.147 332.645 111.146 331.143 110.145 330.392C109.143 329.891 108.142 330.392 108.142 331.643Z" fill="#88FFF3"/>
<path d="M101.628 327.889C101.628 329.14 102.629 330.642 103.631 331.393C104.632 332.144 105.633 331.393 105.633 330.142C105.633 328.89 104.632 327.388 103.631 326.637C102.629 325.886 101.628 326.637 101.628 327.889Z" fill="#88FFF3"/>
<path d="M94.8726 324.134C94.8726 325.385 95.8739 326.887 96.8752 327.638C97.8765 328.389 98.8777 327.638 98.8777 326.386C98.8777 325.135 97.8765 323.633 96.8752 322.882C95.8739 322.131 94.8726 322.632 94.8726 324.134Z" fill="#88FFF3"/>
<path d="M41.0535 295.346L91.8693 324.634V319.878L41.0535 290.59V295.346Z" fill="#88FFF3"/>
<path d="M108.142 342.658C108.142 343.91 109.143 345.412 110.145 346.163C111.146 346.914 112.147 346.163 112.147 344.911C112.147 343.659 111.146 342.157 110.145 341.406C109.143 340.906 108.142 341.406 108.142 342.658Z" fill="#88FFF3"/>
<path d="M101.628 338.653C101.628 339.904 102.629 341.406 103.631 342.157C104.632 342.908 105.633 342.157 105.633 340.906C105.633 339.654 104.632 338.152 103.631 337.401C102.629 336.65 101.628 337.401 101.628 338.653Z" fill="#88FFF3"/>
<path d="M94.8726 334.898C94.8726 336.149 95.8739 337.651 96.8752 338.402C97.8765 339.153 98.8777 338.402 98.8777 337.151C98.8777 335.899 97.8765 334.397 96.8752 333.646C95.8739 333.146 94.8726 333.646 94.8726 334.898Z" fill="#88FFF3"/>
<path d="M41.0535 306.111L91.8693 335.398V330.893L41.0535 301.605V306.111Z" fill="#88FFF3"/>
<path d="M108.142 353.422C108.142 354.673 109.143 356.175 110.145 356.926C111.146 357.677 112.147 356.926 112.147 355.675C112.147 354.423 111.146 352.921 110.145 352.17C109.143 351.669 108.142 352.17 108.142 353.422Z" fill="#88FFF3"/>
<path d="M101.628 349.667C101.628 350.918 102.629 352.42 103.631 353.171C104.632 353.922 105.633 353.171 105.633 351.92C105.633 350.668 104.632 349.166 103.631 348.415C102.629 347.664 101.628 348.415 101.628 349.667Z" fill="#88FFF3"/>
<path d="M94.8726 345.912C94.8726 347.164 95.8739 348.666 96.8752 349.417C97.8765 350.168 98.8777 349.417 98.8777 348.165C98.8777 346.913 97.8765 345.411 96.8752 344.66C95.8739 344.16 94.8726 344.66 94.8726 345.912Z" fill="#88FFF3"/>
<path d="M41.0535 317.125L91.8693 346.413V341.657L41.0535 312.369V317.125Z" fill="#88FFF3"/>
<path opacity="0.5" d="M6.50879 297.349L36.2973 314.622V189.96L6.50879 172.688V297.349Z" fill="#88FFF3"/>
<path d="M108.142 363.184C108.142 364.436 109.143 365.938 110.145 366.689C111.146 367.44 112.147 366.689 112.147 365.437C112.147 364.185 111.146 362.684 110.145 361.933C109.143 361.432 108.142 361.933 108.142 363.184Z" fill="#88FFF3"/>
<path d="M101.628 359.429C101.628 360.681 102.63 362.183 103.631 362.934C104.632 363.685 105.634 362.934 105.634 361.682C105.634 360.431 104.632 358.929 103.631 358.178C102.63 357.427 101.628 358.178 101.628 359.429Z" fill="#88FFF3"/>
<path d="M94.873 355.674C94.873 356.926 95.8744 358.428 96.8756 359.179C97.8769 359.93 98.8782 359.179 98.8782 357.927C98.8782 356.676 97.8769 355.174 96.8756 354.423C95.8744 353.922 94.873 354.423 94.873 355.674Z" fill="#88FFF3"/>
<path d="M41.0544 326.887L91.8702 356.175V351.419L41.0544 322.131V326.887Z" fill="#88FFF3"/>
<path d="M108.142 374.199C108.142 375.45 109.143 376.952 110.145 377.703C111.146 378.454 112.147 377.703 112.147 376.452C112.147 375.2 111.146 373.698 110.145 372.947C109.143 372.447 108.142 372.947 108.142 374.199Z" fill="#88FFF3"/>
<path d="M101.628 370.444C101.628 371.695 102.629 373.197 103.631 373.948C104.632 374.699 105.633 373.948 105.633 372.697C105.633 371.445 104.632 369.943 103.631 369.192C102.629 368.441 101.628 369.192 101.628 370.444Z" fill="#88FFF3"/>
<path d="M94.8726 366.439C94.8726 367.69 95.8739 369.192 96.8752 369.943C97.8765 370.694 98.8777 369.943 98.8777 368.691C98.8777 367.44 97.8765 365.938 96.8752 365.187C95.8739 364.686 94.8726 365.187 94.8726 366.439Z" fill="#88FFF3"/>
<path d="M41.0535 337.651L91.8693 367.19V362.433L41.0535 333.146V337.651Z" fill="#88FFF3"/>
<path d="M108.142 385.213C108.142 386.464 109.143 387.966 110.145 388.717C111.146 389.468 112.147 388.717 112.147 387.466C112.147 386.214 111.146 384.712 110.145 383.961C109.143 383.21 108.142 383.961 108.142 385.213Z" fill="#88FFF3"/>
<path d="M101.628 381.208C101.628 382.459 102.629 383.961 103.631 384.712C104.632 385.463 105.633 384.712 105.633 383.461C105.633 382.209 104.632 380.707 103.631 379.956C102.629 379.205 101.628 379.956 101.628 381.208Z" fill="#88FFF3"/>
<path d="M94.8726 377.453C94.8726 378.705 95.8739 380.207 96.8752 380.958C97.8765 381.708 98.8777 380.958 98.8777 379.706C98.8777 378.454 97.8765 376.952 96.8752 376.201C95.8739 375.701 94.8726 376.201 94.8726 377.453Z" fill="#88FFF3"/>
<path d="M41.0535 348.666L91.8693 377.953V373.448L41.0535 344.16V348.666Z" fill="#88FFF3"/>
<path d="M108.142 395.977C108.142 397.229 109.143 398.731 110.145 399.481C111.146 400.232 112.147 399.481 112.147 398.23C112.147 396.978 111.146 395.476 110.145 394.725C109.143 394.225 108.142 394.725 108.142 395.977Z" fill="#88FFF3"/>
<path d="M101.628 392.222C101.628 393.474 102.629 394.975 103.631 395.726C104.632 396.477 105.633 395.726 105.633 394.475C105.633 393.223 104.632 391.721 103.631 390.97C102.629 390.219 101.628 390.97 101.628 392.222Z" fill="#88FFF3"/>
<path d="M94.8726 388.467C94.8726 389.719 95.8739 391.221 96.8752 391.972C97.8765 392.723 98.8777 391.972 98.8777 390.72C98.8777 389.468 97.8765 387.967 96.8752 387.216C95.8739 386.715 94.8726 387.216 94.8726 388.467Z" fill="#88FFF3"/>
<path d="M41.0535 359.68L91.8693 388.968V384.211L41.0535 354.924V359.68Z" fill="#88FFF3"/>
<path d="M108.142 406.991C108.142 408.242 109.143 409.744 110.145 410.495C111.146 411.246 112.147 410.495 112.147 409.244C112.147 407.992 111.146 406.49 110.145 405.739C109.143 405.239 108.142 405.739 108.142 406.991Z" fill="#88FFF3"/>
<path d="M101.628 403.236C101.628 404.488 102.629 405.99 103.631 406.741C104.632 407.492 105.633 406.741 105.633 405.489C105.633 404.237 104.632 402.735 103.631 401.984C102.629 401.233 101.628 401.984 101.628 403.236Z" fill="#88FFF3"/>
<path d="M94.8726 399.231C94.8726 400.482 95.8739 401.984 96.8752 402.735C97.8765 403.486 98.8777 402.735 98.8777 401.484C98.8777 400.232 97.8765 398.73 96.8752 397.979C95.8739 397.479 94.8726 397.979 94.8726 399.231Z" fill="#88FFF3"/>
<path d="M41.0535 370.444L91.8693 399.982V395.226L41.0535 365.938V370.444Z" fill="#88FFF3"/>
<path d="M108.142 418.005C108.142 419.257 109.143 420.759 110.145 421.51C111.146 422.261 112.147 421.51 112.147 420.258C112.147 419.007 111.146 417.505 110.145 416.754C109.143 416.003 108.142 416.754 108.142 418.005Z" fill="#88FFF3"/>
<path d="M101.628 414C101.628 415.252 102.629 416.754 103.631 417.504C104.632 418.255 105.633 417.504 105.633 416.253C105.633 415.001 104.632 413.499 103.631 412.748C102.629 411.997 101.628 412.748 101.628 414Z" fill="#88FFF3"/>
<path d="M94.8726 410.245C94.8726 411.497 95.8739 412.999 96.8752 413.75C97.8765 414.501 98.8777 413.75 98.8777 412.498C98.8777 411.247 97.8765 409.745 96.8752 408.994C95.8739 408.493 94.8726 408.994 94.8726 410.245Z" fill="#88FFF3"/>
<path d="M41.0535 381.458L91.8693 410.746V406.24L41.0535 376.952V381.458Z" fill="#88FFF3"/>
<path d="M108.142 428.769C108.142 430.021 109.143 431.523 110.145 432.274C111.146 433.025 112.147 432.274 112.147 431.022C112.147 429.77 111.146 428.269 110.145 427.518C109.143 427.017 108.142 427.518 108.142 428.769Z" fill="#88FFF3"/>
<path d="M101.628 425.014C101.628 426.266 102.629 427.768 103.631 428.519C104.632 429.27 105.633 428.519 105.633 427.267C105.633 426.016 104.632 424.514 103.631 423.763C102.379 423.262 101.628 423.763 101.628 425.014Z" fill="#88FFF3"/>
<path d="M94.8726 421.26C94.8726 422.511 95.8739 424.013 96.8752 424.764C97.8765 425.515 98.8777 424.764 98.8777 423.513C98.8777 422.261 97.8765 420.759 96.8752 420.008C95.8739 419.507 94.8726 420.008 94.8726 421.26Z" fill="#88FFF3"/>
<path d="M41.0535 392.472L91.8693 421.76V417.004L41.0535 387.716V392.472Z" fill="#88FFF3"/>
<path d="M108.142 439.784C108.142 441.035 109.143 442.537 110.145 443.288C111.146 444.039 112.147 443.288 112.147 442.037C112.147 440.785 111.146 439.283 110.145 438.532C109.143 438.032 108.142 438.532 108.142 439.784Z" fill="#88FFF3"/>
<path d="M101.628 436.029C101.628 437.28 102.629 438.782 103.631 439.533C104.632 440.284 105.633 439.533 105.633 438.282C105.633 437.03 104.632 435.528 103.631 434.777C102.629 434.026 101.628 434.777 101.628 436.029Z" fill="#88FFF3"/>
<path d="M94.8726 432.024C94.8726 433.275 95.8739 434.777 96.8752 435.528C97.8765 436.279 98.8777 435.528 98.8777 434.277C98.8777 433.025 97.8765 431.523 96.8752 430.772C95.8739 430.271 94.8726 430.772 94.8726 432.024Z" fill="#88FFF3"/>
<path d="M41.0535 403.236L91.8693 432.775V428.018L41.0535 398.73V403.236Z" fill="#88FFF3"/>
<path d="M108.142 450.797C108.142 452.049 109.143 453.551 110.145 454.302C111.146 455.053 112.147 454.302 112.147 453.05C112.147 451.799 111.146 450.297 110.145 449.546C109.143 448.795 108.142 449.546 108.142 450.797Z" fill="#88FFF3"/>
<path d="M101.628 446.793C101.628 448.044 102.629 449.546 103.631 450.297C104.632 451.048 105.633 450.297 105.633 449.045C105.633 447.794 104.632 446.292 103.631 445.541C102.379 445.04 101.628 445.541 101.628 446.793Z" fill="#88FFF3"/>
<path d="M94.8726 443.037C94.8726 444.289 95.8739 445.791 96.8752 446.542C97.8765 447.293 98.8777 446.542 98.8777 445.29C98.8777 444.039 97.8765 442.537 96.8752 441.786C95.8739 441.285 94.8726 441.786 94.8726 443.037Z" fill="#88FFF3"/>
<path d="M41.0535 414.25L91.8693 443.538V439.032L41.0535 409.744V414.25Z" fill="#88FFF3"/>
<path d="M108.142 461.562C108.142 462.813 109.143 464.315 110.145 465.066C111.146 465.817 112.147 465.066 112.147 463.815C112.147 462.563 111.146 461.061 110.145 460.31C109.143 459.809 108.142 460.31 108.142 461.562Z" fill="#88FFF3"/>
<path d="M101.628 457.807C101.628 459.058 102.629 460.56 103.631 461.311C104.632 462.062 105.633 461.311 105.633 460.06C105.633 458.808 104.632 457.306 103.631 456.555C102.629 455.804 101.628 456.555 101.628 457.807Z" fill="#88FFF3"/>
<path d="M94.8726 454.052C94.8726 455.303 95.8739 456.805 96.8752 457.556C97.8765 458.307 98.8777 457.556 98.8777 456.305C98.8777 455.053 97.8765 453.551 96.8752 452.8C95.8739 452.3 94.8726 452.8 94.8726 454.052Z" fill="#88FFF3"/>
<path d="M41.0535 425.264L91.8693 454.552V449.796L41.0535 420.508V425.264Z" fill="#88FFF3"/>
<path d="M108.142 472.576C108.142 473.827 109.143 475.329 110.145 476.08C111.146 476.831 112.147 476.08 112.147 474.829C112.147 473.577 111.146 472.075 110.145 471.324C109.143 470.824 108.142 471.324 108.142 472.576Z" fill="#88FFF3"/>
<path d="M101.628 468.821C101.628 470.072 102.629 471.574 103.631 472.325C104.632 473.076 105.633 472.325 105.633 471.074C105.633 469.822 104.632 468.32 103.631 467.569C102.629 466.818 101.628 467.569 101.628 468.821Z" fill="#88FFF3"/>
<path d="M94.8726 464.816C94.8726 466.068 95.8739 467.57 96.8752 468.321C97.8765 469.072 98.8777 468.321 98.8777 467.069C98.8777 465.817 97.8765 464.315 96.8752 463.564C95.8739 463.064 94.8726 463.564 94.8726 464.816Z" fill="#88FFF3"/>
<path d="M41.0535 436.029L91.8693 465.567V460.811L41.0535 431.523V436.029Z" fill="#88FFF3"/>
<path d="M108.142 483.59C108.142 484.842 109.143 486.344 110.145 487.095C111.146 487.846 112.147 487.095 112.147 485.843C112.147 484.592 111.146 483.09 110.145 482.339C109.143 481.588 108.142 482.339 108.142 483.59Z" fill="#88FFF3"/>
<path d="M101.628 479.585C101.628 480.837 102.629 482.339 103.631 483.09C104.632 483.841 105.633 483.09 105.633 481.838C105.633 480.586 104.632 479.084 103.631 478.333C102.629 477.582 101.628 478.333 101.628 479.585Z" fill="#88FFF3"/>
<path d="M94.8726 475.83C94.8726 477.082 95.8739 478.584 96.8752 479.335C97.8765 480.086 98.8777 479.335 98.8777 478.083C98.8777 476.832 97.8765 475.33 96.8752 474.579C95.8739 474.078 94.8726 474.579 94.8726 475.83Z" fill="#88FFF3"/>
<path d="M41.0535 447.043L91.8693 476.331V471.825L41.0535 442.537V447.043Z" fill="#88FFF3"/>
<path opacity="0.5" d="M6.50879 427.267L36.2973 444.539V319.878L6.50879 302.606V427.267Z" fill="#88FFF3"/>
<path d="M114.396 214.242C113.144 214.993 113.144 216.244 114.396 216.745C115.647 217.496 117.65 217.496 118.902 216.745C120.153 215.994 120.153 214.742 118.902 214.242C117.65 213.741 115.647 213.741 114.396 214.242Z" fill="#FCCC6B"/>
<path d="M107.389 210.236C106.137 210.987 106.137 212.239 107.389 212.74C108.641 213.491 110.643 213.491 111.895 212.74C113.146 211.989 113.146 210.737 111.895 210.236C110.643 209.485 108.641 209.485 107.389 210.236Z" fill="#FCCC6B"/>
<path d="M100.38 206.231C99.128 206.982 99.128 208.234 100.38 208.735C101.631 209.485 103.634 209.485 104.885 208.735C106.137 207.984 106.137 206.732 104.885 206.231C103.634 205.731 101.631 205.48 100.38 206.231Z" fill="#FCCC6B"/>
<path d="M100.38 206.231C99.128 206.982 99.128 208.234 100.38 208.734C101.631 209.485 103.634 209.485 104.885 208.734C106.137 207.983 106.137 206.732 104.885 206.231C103.634 205.73 101.631 205.48 100.38 206.231Z" fill="#FCCC6B"/>
<path d="M93.1223 202.226C91.8707 202.977 91.8707 204.229 93.1223 204.729C94.3739 205.48 96.3765 205.48 97.6281 204.729C98.8797 203.978 98.8797 202.727 97.6281 202.226C96.6268 201.475 94.3739 201.475 93.1223 202.226Z" fill="#FCCC6B"/>
<path d="M86.114 198.221C84.8624 198.972 84.8624 200.223 86.114 200.724C87.3656 201.475 89.3682 201.475 90.6198 200.724C91.8715 199.973 91.8715 198.721 90.6198 198.221C89.3682 197.47 87.3656 197.47 86.114 198.221Z" fill="#FCCC6B"/>
<path d="M38.802 170.685C37.5504 171.436 37.5504 172.688 38.802 173.188C40.0536 173.939 42.0562 173.939 43.3078 173.188C44.5595 172.437 44.5595 171.186 43.3078 170.685C42.0562 169.934 40.0536 169.934 38.802 170.685Z" fill="#FCCC6B"/>
<path d="M31.7922 166.68C30.5406 167.431 30.5406 168.683 31.7922 169.183C33.0439 169.934 35.0464 169.934 36.298 169.183C37.5497 168.432 37.5497 167.181 36.298 166.68C35.0464 165.929 33.0439 165.929 31.7922 166.68Z" fill="#FCCC6B"/>
<path d="M24.7832 162.424C23.5316 163.175 23.5316 164.427 24.7832 164.928C26.0348 165.679 28.0374 165.679 29.289 164.928C30.5407 164.177 30.5407 162.925 29.289 162.424C28.0374 161.924 26.0348 161.924 24.7832 162.424Z" fill="#FCCC6B"/>
<path d="M24.7834 162.425C23.5318 163.176 23.5318 164.427 24.7834 164.928C26.0351 165.679 28.0377 165.679 29.2893 164.928C30.5409 164.177 30.5409 162.925 29.2893 162.425C28.0377 161.924 26.0351 161.924 24.7834 162.425Z" fill="#FCCC6B"/>
<path d="M17.7778 158.419C16.5262 159.17 16.5262 160.422 17.7778 160.923C19.0294 161.423 21.032 161.674 22.2837 160.923C23.5353 160.172 23.5353 158.92 22.2837 158.419C21.032 157.668 19.0294 157.668 17.7778 158.419Z" fill="#FCCC6B"/>
<path d="M10.7654 154.414C9.51376 155.165 9.51376 156.417 10.7654 156.917C12.017 157.668 14.0196 157.668 15.2712 156.917C16.5228 156.166 16.5228 154.915 15.2712 154.414C14.0196 153.663 12.017 153.663 10.7654 154.414Z" fill="#FCCC6B"/>
<path d="M145.933 260.551C145.933 261.803 144.932 263.305 143.93 264.056C142.929 264.807 141.928 264.056 141.928 262.804C141.928 261.553 142.929 260.051 143.93 259.3C144.932 258.799 145.933 259.3 145.933 260.551Z" fill="#88FFF3"/>
<path d="M152.442 256.796C152.442 258.048 151.44 259.55 150.439 260.301C149.438 261.052 148.437 260.301 148.437 259.049C148.437 257.798 149.438 256.296 150.439 255.545C151.691 255.044 152.442 255.545 152.442 256.796Z" fill="#88FFF3"/>
<path d="M159.202 253.042C159.202 254.293 158.201 255.795 157.199 256.546C156.198 257.297 155.197 256.546 155.197 255.295C155.197 254.043 156.198 252.541 157.199 251.79C158.201 251.289 159.202 251.79 159.202 253.042Z" fill="#88FFF3"/>
<path d="M213.018 224.254L162.202 253.542V248.786L213.018 219.498V224.254Z" fill="#88FFF3"/>
<path d="M145.933 297.6C145.933 298.851 144.932 300.353 143.93 301.104C142.929 301.855 141.928 301.104 141.928 299.852C141.928 298.601 142.929 297.099 143.93 296.348C144.932 295.597 145.933 296.348 145.933 297.6Z" fill="#88FFF3"/>
<path d="M152.442 293.594C152.442 294.846 151.44 296.348 150.439 297.099C149.438 297.85 148.437 297.099 148.437 295.847C148.437 294.595 149.438 293.094 150.439 292.343C151.44 291.592 152.442 292.343 152.442 293.594Z" fill="#88FFF3"/>
<path d="M159.202 289.839C159.202 291.091 158.201 292.593 157.199 293.344C156.198 294.095 155.197 293.344 155.197 292.092C155.197 290.841 156.198 289.339 157.199 288.588C158.201 288.087 159.202 288.588 159.202 289.839Z" fill="#88FFF3"/>
<path d="M213.018 261.052L162.202 290.34V285.834L213.018 256.546V261.052Z" fill="#88FFF3"/>
<path d="M145.933 338.903C145.933 340.154 144.932 341.656 143.93 342.407C142.929 343.158 141.928 342.407 141.928 341.156C141.928 339.904 142.929 338.402 143.93 337.651C144.932 337.15 145.933 337.651 145.933 338.903Z" fill="#88FFF3"/>
<path d="M152.442 335.148C152.442 336.4 151.44 337.901 150.439 338.652C149.438 339.403 148.437 338.652 148.437 337.401C148.437 336.149 149.438 334.647 150.439 333.896C151.44 333.145 152.442 333.896 152.442 335.148Z" fill="#88FFF3"/>
<path d="M159.202 331.393C159.202 332.645 158.201 334.147 157.199 334.898C156.198 335.649 155.197 334.898 155.197 333.646C155.197 332.395 156.198 330.893 157.199 330.142C158.201 329.391 159.202 329.891 159.202 331.393Z" fill="#88FFF3"/>
<path d="M213.018 302.606L162.202 331.894V327.138L213.018 297.85V302.606Z" fill="#88FFF3"/>
<path d="M145.933 375.7C145.933 376.952 144.932 378.454 143.93 379.205C142.929 379.956 141.928 379.205 141.928 377.953C141.928 376.702 142.929 375.2 143.93 374.449C144.932 373.698 145.933 374.449 145.933 375.7Z" fill="#88FFF3"/>
<path d="M152.442 371.946C152.442 373.197 151.44 374.699 150.439 375.45C149.438 376.201 148.437 375.45 148.437 374.199C148.437 372.947 149.438 371.445 150.439 370.694C151.691 370.193 152.442 370.694 152.442 371.946Z" fill="#88FFF3"/>
<path d="M159.202 368.191C159.202 369.442 158.201 370.944 157.199 371.695C156.198 372.446 155.197 371.695 155.197 370.444C155.197 369.192 156.198 367.69 157.199 366.939C158.201 366.439 159.202 366.939 159.202 368.191Z" fill="#88FFF3"/>
<path d="M213.018 339.403L162.202 368.691V363.935L213.018 334.647V339.403Z" fill="#88FFF3"/>
<path d="M145.933 417.254C145.933 418.506 144.932 420.008 143.93 420.759C142.929 421.51 141.928 420.759 141.928 419.507C141.928 418.255 142.929 416.753 143.93 416.003C144.932 415.252 145.933 416.003 145.933 417.254Z" fill="#88FFF3"/>
<path d="M152.442 413.499C152.442 414.751 151.44 416.253 150.439 417.004C149.438 417.755 148.437 417.004 148.437 415.752C148.437 414.501 149.438 412.999 150.439 412.248C151.691 411.497 152.442 411.998 152.442 413.499Z" fill="#88FFF3"/>
<path d="M159.202 409.494C159.202 410.746 158.201 412.248 157.199 412.999C156.198 413.75 155.197 412.999 155.197 411.747C155.197 410.496 156.198 408.994 157.199 408.243C158.201 407.742 159.202 408.243 159.202 409.494Z" fill="#88FFF3"/>
<path d="M213.018 380.707L162.202 410.245V405.489L213.018 376.201V380.707Z" fill="#88FFF3"/>
<path d="M145.933 454.052C145.933 455.304 144.932 456.806 143.93 457.557C142.929 458.308 141.928 457.557 141.928 456.305C141.928 455.054 142.929 453.552 143.93 452.801C144.932 452.3 145.933 452.801 145.933 454.052Z" fill="#88FFF3"/>
<path d="M152.442 450.297C152.442 451.549 151.44 453.051 150.439 453.802C149.438 454.553 148.437 453.802 148.437 452.55C148.437 451.299 149.438 449.797 150.439 449.046C151.44 448.295 152.442 449.046 152.442 450.297Z" fill="#88FFF3"/>
<path d="M159.202 446.542C159.202 447.794 158.201 449.296 157.199 450.047C156.198 450.798 155.197 450.047 155.197 448.795C155.197 447.544 156.198 446.042 157.199 445.291C158.201 444.54 159.202 445.04 159.202 446.542Z" fill="#88FFF3"/>
<path d="M213.018 417.755L162.202 447.043V442.287L213.018 412.999V417.755Z" fill="#88FFF3"/>
<defs>
<linearGradient id="paint0_linear" x1="349.406" y1="369.884" x2="268.768" y2="429.086" gradientUnits="userSpaceOnUse">
<stop stop-color="#180D5B"/>
<stop offset="0.0949797" stop-color="#1A1660"/>
<stop offset="0.2466" stop-color="#1E2D6E"/>
<stop offset="0.436" stop-color="#255385"/>
<stop offset="0.6555" stop-color="#2F87A5"/>
<stop offset="0.8978" stop-color="#3CCACE"/>
<stop offset="1" stop-color="#42E8E0"/>
</linearGradient>
<linearGradient id="paint1_linear" x1="346.164" y1="290.599" x2="269.806" y2="329.798" gradientUnits="userSpaceOnUse">
<stop stop-color="#180D5B"/>
<stop offset="0.0949797" stop-color="#1A1660"/>
<stop offset="0.2466" stop-color="#1E2D6E"/>
<stop offset="0.436" stop-color="#255385"/>
<stop offset="0.6555" stop-color="#2F87A5"/>
<stop offset="0.8978" stop-color="#3CCACE"/>
<stop offset="1" stop-color="#42E8E0"/>
</linearGradient>
<linearGradient id="paint2_linear" x1="321.68" y1="270.332" x2="264.39" y2="309.922" gradientUnits="userSpaceOnUse">
<stop stop-color="#180D5B"/>
<stop offset="0.0949797" stop-color="#1A1660"/>
<stop offset="0.2466" stop-color="#1E2D6E"/>
<stop offset="0.436" stop-color="#255385"/>
<stop offset="0.6555" stop-color="#2F87A5"/>
<stop offset="0.8978" stop-color="#3CCACE"/>
<stop offset="1" stop-color="#42E8E0"/>
</linearGradient>
<linearGradient id="paint3_linear" x1="375.093" y1="282.956" x2="292.419" y2="321.736" gradientUnits="userSpaceOnUse">
<stop stop-color="#180D5B"/>
<stop offset="0.0949797" stop-color="#1A1660"/>
<stop offset="0.2466" stop-color="#1E2D6E"/>
<stop offset="0.436" stop-color="#255385"/>
<stop offset="0.6555" stop-color="#2F87A5"/>
<stop offset="0.8978" stop-color="#3CCACE"/>
<stop offset="1" stop-color="#42E8E0"/>
</linearGradient>
<linearGradient id="paint4_linear" x1="-38.51" y1="518.256" x2="205.676" y2="384.341" gradientUnits="userSpaceOnUse">
<stop stop-color="#180D5B"/>
<stop offset="0.0949797" stop-color="#1A1660"/>
<stop offset="0.2466" stop-color="#1E2D6E"/>
<stop offset="0.436" stop-color="#255385"/>
<stop offset="0.6555" stop-color="#2F87A5"/>
<stop offset="0.8978" stop-color="#3CCACE"/>
<stop offset="1" stop-color="#42E8E0"/>
</linearGradient>
<linearGradient id="paint5_linear" x1="158.228" y1="476.175" x2="-11.5978" y2="476.175" gradientUnits="userSpaceOnUse">
<stop stop-color="#2B237C"/>
<stop offset="1" stop-color="#180D5B"/>
</linearGradient>
<linearGradient id="paint6_linear" x1="106.311" y1="517.005" x2="260.983" y2="429.078" gradientUnits="userSpaceOnUse">
<stop stop-color="#180D5B"/>
<stop offset="0.0951337" stop-color="#1A1560"/>
<stop offset="0.2465" stop-color="#1E2D6E"/>
<stop offset="0.2819" stop-color="#1F3372"/>
<stop offset="0.3779" stop-color="#22447C"/>
<stop offset="0.5681" stop-color="#2B7097"/>
<stop offset="0.832" stop-color="#39B7C2"/>
<stop offset="1" stop-color="#42E8E0"/>
</linearGradient>
<linearGradient id="paint7_linear" x1="39.5317" y1="442.018" x2="238.783" y2="312.602" gradientUnits="userSpaceOnUse">
<stop stop-color="#180D5B"/>
<stop offset="0.0949797" stop-color="#1A1660"/>
<stop offset="0.2466" stop-color="#1E2D6E"/>
<stop offset="0.436" stop-color="#255385"/>
<stop offset="0.6555" stop-color="#2F87A5"/>
<stop offset="0.8978" stop-color="#3CCACE"/>
<stop offset="1" stop-color="#42E8E0"/>
</linearGradient>
<linearGradient id="paint8_linear" x1="158.228" y1="434.73" x2="-11.5978" y2="434.73" gradientUnits="userSpaceOnUse">
<stop stop-color="#2B237C"/>
<stop offset="1" stop-color="#180D5B"/>
</linearGradient>
<linearGradient id="paint9_linear" x1="126.099" y1="464.068" x2="265.296" y2="385.588" gradientUnits="userSpaceOnUse">
<stop stop-color="#180D5B"/>
<stop offset="0.0951337" stop-color="#1A1560"/>
<stop offset="0.2465" stop-color="#1E2D6E"/>
<stop offset="0.2819" stop-color="#1F3372"/>
<stop offset="0.3779" stop-color="#22447C"/>
<stop offset="0.5681" stop-color="#2B7097"/>
<stop offset="0.832" stop-color="#39B7C2"/>
<stop offset="1" stop-color="#42E8E0"/>
</linearGradient>
<linearGradient id="paint10_linear" x1="79.1454" y1="399.512" x2="239.334" y2="363.339" gradientUnits="userSpaceOnUse">
<stop stop-color="#180D5B"/>
<stop offset="0.0949797" stop-color="#1A1660"/>
<stop offset="0.2466" stop-color="#1E2D6E"/>
<stop offset="0.436" stop-color="#255385"/>
<stop offset="0.6555" stop-color="#2F87A5"/>
<stop offset="0.8978" stop-color="#3CCACE"/>
<stop offset="1" stop-color="#42E8E0"/>
</linearGradient>
<linearGradient id="paint11_linear" x1="-38.51" y1="440.177" x2="205.676" y2="306.261" gradientUnits="userSpaceOnUse">
<stop stop-color="#180D5B"/>
<stop offset="0.0949797" stop-color="#1A1660"/>
<stop offset="0.2466" stop-color="#1E2D6E"/>
<stop offset="0.436" stop-color="#255385"/>
<stop offset="0.6555" stop-color="#2F87A5"/>
<stop offset="0.8978" stop-color="#3CCACE"/>
<stop offset="1" stop-color="#42E8E0"/>
</linearGradient>
<linearGradient id="paint12_linear" x1="158.228" y1="398.096" x2="-11.5978" y2="398.096" gradientUnits="userSpaceOnUse">
<stop stop-color="#2B237C"/>
<stop offset="1" stop-color="#180D5B"/>
</linearGradient>
<linearGradient id="paint13_linear" x1="106.311" y1="438.926" x2="260.983" y2="350.999" gradientUnits="userSpaceOnUse">
<stop stop-color="#180D5B"/>
<stop offset="0.0951337" stop-color="#1A1560"/>
<stop offset="0.2465" stop-color="#1E2D6E"/>
<stop offset="0.2819" stop-color="#1F3372"/>
<stop offset="0.3779" stop-color="#22447C"/>
<stop offset="0.5681" stop-color="#2B7097"/>
<stop offset="0.832" stop-color="#39B7C2"/>
<stop offset="1" stop-color="#42E8E0"/>
</linearGradient>
<linearGradient id="paint14_linear" x1="39.5317" y1="363.939" x2="238.783" y2="234.523" gradientUnits="userSpaceOnUse">
<stop stop-color="#180D5B"/>
<stop offset="0.0949797" stop-color="#1A1660"/>
<stop offset="0.2466" stop-color="#1E2D6E"/>
<stop offset="0.436" stop-color="#255385"/>
<stop offset="0.6555" stop-color="#2F87A5"/>
<stop offset="0.8978" stop-color="#3CCACE"/>
<stop offset="1" stop-color="#42E8E0"/>
</linearGradient>
<linearGradient id="paint15_linear" x1="158.228" y1="356.65" x2="-11.5978" y2="356.65" gradientUnits="userSpaceOnUse">
<stop stop-color="#2B237C"/>
<stop offset="1" stop-color="#180D5B"/>
</linearGradient>
<linearGradient id="paint16_linear" x1="126.099" y1="385.988" x2="265.296" y2="307.509" gradientUnits="userSpaceOnUse">
<stop stop-color="#180D5B"/>
<stop offset="0.0951337" stop-color="#1A1560"/>
<stop offset="0.2465" stop-color="#1E2D6E"/>
<stop offset="0.2819" stop-color="#1F3372"/>
<stop offset="0.3779" stop-color="#22447C"/>
<stop offset="0.5681" stop-color="#2B7097"/>
<stop offset="0.832" stop-color="#39B7C2"/>
<stop offset="1" stop-color="#42E8E0"/>
</linearGradient>
<linearGradient id="paint17_linear" x1="79.1454" y1="321.432" x2="239.334" y2="285.259" gradientUnits="userSpaceOnUse">
<stop stop-color="#180D5B"/>
<stop offset="0.0949797" stop-color="#1A1660"/>
<stop offset="0.2466" stop-color="#1E2D6E"/>
<stop offset="0.436" stop-color="#255385"/>
<stop offset="0.6555" stop-color="#2F87A5"/>
<stop offset="0.8978" stop-color="#3CCACE"/>
<stop offset="1" stop-color="#42E8E0"/>
</linearGradient>
<linearGradient id="paint18_linear" x1="-38.51" y1="362.097" x2="205.676" y2="228.182" gradientUnits="userSpaceOnUse">
<stop stop-color="#180D5B"/>
<stop offset="0.0949797" stop-color="#1A1660"/>
<stop offset="0.2466" stop-color="#1E2D6E"/>
<stop offset="0.436" stop-color="#255385"/>
<stop offset="0.6555" stop-color="#2F87A5"/>
<stop offset="0.8978" stop-color="#3CCACE"/>
<stop offset="1" stop-color="#42E8E0"/>
</linearGradient>
<linearGradient id="paint19_linear" x1="158.228" y1="320.016" x2="-11.5978" y2="320.016" gradientUnits="userSpaceOnUse">
<stop stop-color="#2B237C"/>
<stop offset="1" stop-color="#180D5B"/>
</linearGradient>
<linearGradient id="paint20_linear" x1="106.311" y1="360.846" x2="260.983" y2="272.919" gradientUnits="userSpaceOnUse">
<stop stop-color="#180D5B"/>
<stop offset="0.0951337" stop-color="#1A1560"/>
<stop offset="0.2465" stop-color="#1E2D6E"/>
<stop offset="0.2819" stop-color="#1F3372"/>
<stop offset="0.3779" stop-color="#22447C"/>
<stop offset="0.5681" stop-color="#2B7097"/>
<stop offset="0.832" stop-color="#39B7C2"/>
<stop offset="1" stop-color="#42E8E0"/>
</linearGradient>
<linearGradient id="paint21_linear" x1="39.5317" y1="285.858" x2="238.783" y2="156.443" gradientUnits="userSpaceOnUse">
<stop stop-color="#180D5B"/>
<stop offset="0.0949797" stop-color="#1A1660"/>
<stop offset="0.2466" stop-color="#1E2D6E"/>
<stop offset="0.436" stop-color="#255385"/>
<stop offset="0.6555" stop-color="#2F87A5"/>
<stop offset="0.8978" stop-color="#3CCACE"/>
<stop offset="1" stop-color="#42E8E0"/>
</linearGradient>
<linearGradient id="paint22_linear" x1="158.228" y1="278.571" x2="-11.5978" y2="278.571" gradientUnits="userSpaceOnUse">
<stop stop-color="#2B237C"/>
<stop offset="1" stop-color="#180D5B"/>
</linearGradient>
<linearGradient id="paint23_linear" x1="126.099" y1="307.908" x2="265.296" y2="229.429" gradientUnits="userSpaceOnUse">
<stop stop-color="#180D5B"/>
<stop offset="0.0951337" stop-color="#1A1560"/>
<stop offset="0.2465" stop-color="#1E2D6E"/>
<stop offset="0.2819" stop-color="#1F3372"/>
<stop offset="0.3779" stop-color="#22447C"/>
<stop offset="0.5681" stop-color="#2B7097"/>
<stop offset="0.832" stop-color="#39B7C2"/>
<stop offset="1" stop-color="#42E8E0"/>
</linearGradient>
<linearGradient id="paint24_linear" x1="79.1454" y1="243.353" x2="239.334" y2="207.179" gradientUnits="userSpaceOnUse">
<stop stop-color="#180D5B"/>
<stop offset="0.0949797" stop-color="#1A1660"/>
<stop offset="0.2466" stop-color="#1E2D6E"/>
<stop offset="0.436" stop-color="#255385"/>
<stop offset="0.6555" stop-color="#2F87A5"/>
<stop offset="0.8978" stop-color="#3CCACE"/>
<stop offset="1" stop-color="#42E8E0"/>
</linearGradient>
<linearGradient id="paint25_linear" x1="-38.51" y1="284.017" x2="205.676" y2="150.102" gradientUnits="userSpaceOnUse">
<stop stop-color="#180D5B"/>
<stop offset="0.0949797" stop-color="#1A1660"/>
<stop offset="0.2466" stop-color="#1E2D6E"/>
<stop offset="0.436" stop-color="#255385"/>
<stop offset="0.6555" stop-color="#2F87A5"/>
<stop offset="0.8978" stop-color="#3CCACE"/>
<stop offset="1" stop-color="#42E8E0"/>
</linearGradient>
<linearGradient id="paint26_linear" x1="158.228" y1="241.936" x2="-11.5978" y2="241.936" gradientUnits="userSpaceOnUse">
<stop stop-color="#2B237C"/>
<stop offset="1" stop-color="#180D5B"/>
</linearGradient>
<linearGradient id="paint27_linear" x1="106.311" y1="282.766" x2="260.983" y2="194.839" gradientUnits="userSpaceOnUse">
<stop stop-color="#180D5B"/>
<stop offset="0.0951337" stop-color="#1A1560"/>
<stop offset="0.2465" stop-color="#1E2D6E"/>
<stop offset="0.2819" stop-color="#1F3372"/>
<stop offset="0.3779" stop-color="#22447C"/>
<stop offset="0.5681" stop-color="#2B7097"/>
<stop offset="0.832" stop-color="#39B7C2"/>
<stop offset="1" stop-color="#42E8E0"/>
</linearGradient>
<linearGradient id="paint28_linear" x1="39.5317" y1="207.779" x2="238.783" y2="78.3633" gradientUnits="userSpaceOnUse">
<stop stop-color="#180D5B"/>
<stop offset="0.0949797" stop-color="#1A1660"/>
<stop offset="0.2466" stop-color="#1E2D6E"/>
<stop offset="0.436" stop-color="#255385"/>
<stop offset="0.6555" stop-color="#2F87A5"/>
<stop offset="0.8978" stop-color="#3CCACE"/>
<stop offset="1" stop-color="#42E8E0"/>
</linearGradient>
<linearGradient id="paint29_linear" x1="158.228" y1="200.491" x2="-11.5978" y2="200.491" gradientUnits="userSpaceOnUse">
<stop stop-color="#2B237C"/>
<stop offset="1" stop-color="#180D5B"/>
</linearGradient>
<linearGradient id="paint30_linear" x1="126.099" y1="229.829" x2="265.296" y2="151.349" gradientUnits="userSpaceOnUse">
<stop stop-color="#180D5B"/>
<stop offset="0.0951337" stop-color="#1A1560"/>
<stop offset="0.2465" stop-color="#1E2D6E"/>
<stop offset="0.2819" stop-color="#1F3372"/>
<stop offset="0.3779" stop-color="#22447C"/>
<stop offset="0.5681" stop-color="#2B7097"/>
<stop offset="0.832" stop-color="#39B7C2"/>
<stop offset="1" stop-color="#42E8E0"/>
</linearGradient>
<linearGradient id="paint31_linear" x1="79.1454" y1="165.273" x2="239.334" y2="129.1" gradientUnits="userSpaceOnUse">
<stop stop-color="#180D5B"/>
<stop offset="0.0949797" stop-color="#1A1660"/>
<stop offset="0.2466" stop-color="#1E2D6E"/>
<stop offset="0.436" stop-color="#255385"/>
<stop offset="0.6555" stop-color="#2F87A5"/>
<stop offset="0.8978" stop-color="#3CCACE"/>
<stop offset="1" stop-color="#42E8E0"/>
</linearGradient>
<linearGradient id="paint32_linear" x1="119.23" y1="181.726" x2="119.23" y2="36.0524" gradientUnits="userSpaceOnUse">
<stop stop-color="#42E8E0"/>
<stop offset="1" stop-color="white"/>
</linearGradient>
</defs>
</svg>
