<?xml version="1.0" encoding="iso-8859-1"?>
<!-- Generator: Adobe Illustrator 19.0.0, SVG Export Plug-In . SVG Version: 6.00 Build 0)  -->
<svg version="1.1" id="Layer_1" xmlns="http://www.w3.org/2000/svg" xmlns:xlink="http://www.w3.org/1999/xlink" x="0px" y="0px"
	 viewBox="0 0 426.667 426.667" style="enable-background:new 0 0 426.667 426.667;" xml:space="preserve">
<g>
	<g>
		<g>
			<path d="M357.973,8c-4.053-5.056-10.176-8-16.64-8h-256c-6.464,0-12.587,2.944-16.64,8c-4.053,5.035-5.589,11.648-4.203,17.963
				l42.667,192l41.664-9.259L111.915,42.667h63.019L192,128h42.667l17.067-85.333h63.019l-36.907,166.037l41.664,9.259l42.667-192
				C363.563,19.648,362.027,13.035,357.973,8z"/>
			<path d="M320,234.667h-50.795l-36.779-73.536c-7.232-14.443-30.933-14.443-38.165,0l-36.779,73.536h-50.816
				c-7.872,0-15.083,4.331-18.816,11.285c-3.712,6.933-3.307,15.339,1.067,21.888l37.419,56.149l-19.051,76.181
				c-1.984,8.043,0.875,16.576,7.381,21.803c6.464,5.205,15.403,6.165,22.869,2.432l75.797-37.888l75.797,37.909
				c3.008,1.493,6.293,2.24,9.536,2.24c4.757,0,9.493-1.579,13.333-4.715c6.507-5.227,9.387-13.739,7.381-21.803l-19.051-76.181
				l37.419-56.149c4.373-6.528,4.779-14.955,1.067-21.888C335.083,238.997,327.872,234.667,320,234.667z M256.619,325.141
				l10.091,40.341l-43.84-21.909c-2.987-1.493-6.272-2.24-9.536-2.24s-6.549,0.747-9.536,2.261l-43.84,21.909l10.091-40.341
				c1.451-5.845,0.363-12.011-2.965-17.003l-20.544-30.827h24.128c8.085,0,15.467-4.565,19.093-11.797l23.573-47.168l23.573,47.147
				c3.627,7.232,11.008,11.797,19.093,11.797h24.128l-20.544,30.827C256.235,313.131,255.168,319.317,256.619,325.141z"/>
		</g>
	</g>
</g>
<g>
</g>
<g>
</g>
<g>
</g>
<g>
</g>
<g>
</g>
<g>
</g>
<g>
</g>
<g>
</g>
<g>
</g>
<g>
</g>
<g>
</g>
<g>
</g>
<g>
</g>
<g>
</g>
<g>
</g>
</svg>
