<svg width="20" height="20" viewBox="0 0 20 20" fill="none" xmlns="http://www.w3.org/2000/svg">
<path d="M11 4.99909H8.99998V6.05007C7.85998 6.28206 6.99996 7.29207 6.99996 8.49905C6.99996 9.87704 8.12197 10.999 9.49995 10.999H10.5C10.776 10.999 11 11.2231 11 11.4991C11 11.7751 10.776 11.9991 10.5 11.9991H6.99996V13.9991H8.99998V14.9991H11V13.9481C12.14 13.7161 13 12.7051 13 11.4991C13 10.1211 11.879 8.99907 10.5 8.99907H9.5C9.22498 8.99907 8.99998 8.77505 8.99998 8.49905C8.99998 8.22305 9.22498 7.99904 9.5 7.99904H13V5.99907H11V4.99909Z" fill="#009432"/>
<path d="M9.99998 0C4.48598 0 0 4.48598 0 9.99998C0 15.515 4.48598 20 9.99998 20C15.515 20 20 15.515 20 9.99998C20 4.48598 15.515 0 9.99998 0ZM9.99998 18C5.589 18 1.99997 14.411 1.99997 9.99998C1.99997 5.58895 5.589 2.00001 9.99998 2.00001C14.411 2.00001 18 5.589 18 9.99998C18 14.411 14.411 18 9.99998 18Z" fill="#009432"/>
</svg>
