<svg width="22" height="20" viewBox="0 0 22 20" fill="none" xmlns="http://www.w3.org/2000/svg">
<path d="M21 3.99998H18V0.999983C18 0.447984 17.553 3.67786e-09 17 3.67786e-09H0.999983C0.446999 -4.68713e-05 0 0.447984 0 0.999983V19C0 19.552 0.446999 19.9999 0.999983 19.9999H19C19.266 19.9999 19.5199 19.8949 19.707 19.7069L21.707 17.7069C21.895 17.5199 22 17.2649 22 16.9999V4.99996C22 4.44796 21.553 3.99998 21 3.99998ZM2.00001 17.9999V1.99997H16V17.9999H2.00001ZM20 16.5859L18.586 17.9999H18V5.99994H20V16.5859Z" fill="#595959"/>
<path d="M13 3.99895H3.99998V6.99894H13V3.99895Z" fill="#595959"/>
<path d="M7.99996 7.99897H3.99998V9.99899H7.99996V7.99897Z" fill="#595959"/>
<path d="M13 7.99897H8.99999V9.99899H13V7.99897Z" fill="#595959"/>
<path d="M7.99996 10.999H3.99998V12.999H7.99996V10.999Z" fill="#595959"/>
<path d="M13 10.999H8.99999V12.999H13V10.999Z" fill="#595959"/>
<path d="M7.99996 13.999H3.99998V15.999H7.99996V13.999Z" fill="#595959"/>
<path d="M13 13.999H8.99999V15.999H13V13.999Z" fill="#595959"/>
</svg>
