<svg width="18" height="20" viewBox="0 0 18 20" fill="none" xmlns="http://www.w3.org/2000/svg">
<path d="M8.00004 14.586L5.70706 12.293L4.29302 13.707L8.00004 17.415L13.707 11.707L12.293 10.293L8.00004 14.586Z" fill="#595959"/>
<path d="M16 5.00001H14V3H12.858C12.411 1.281 10.858 0 8.99999 0C7.14201 0 5.589 1.281 5.142 3H3.99998V5.00001H2.00001C0.896999 5.00001 0 5.898 0 7.00003V18C0 19.103 0.896999 20 2.00001 20H16C17.103 20 18 19.103 18 18V6.99998C18 5.898 17.103 5.00001 16 5.00001ZM8.99999 2.00001C9.73898 2.00001 10.385 2.40201 10.731 3H7.26801C7.61503 2.40201 8.26101 2.00001 8.99999 2.00001ZM6 5.00001H12V7.00003H6V5.00001ZM16 18H2.00001V6.99998H4.00003V8.99999H14V6.99998H16V18Z" fill="#595959"/>
</svg>
