<svg width="20" height="20" viewBox="0 0 20 20" fill="none" xmlns="http://www.w3.org/2000/svg">
<path d="M18.001 14.5907V11.6279H11.001V9.76744H15.293L14.9681 8.60371C14.501 6.92559 13.085 5.67719 11.347 5.27071C12.323 4.80933 13.0001 3.87724 13.0001 2.7907C13.0001 1.25211 11.654 0 10 0C8.34606 0 7.00004 1.25211 7.00004 2.7907C7.00004 3.87719 7.67706 4.80928 8.65304 5.27071C6.91604 5.67723 5.50004 6.92559 5.03302 8.60371L4.70799 9.76744H9.00001V11.6279H2.00002V14.5907C0.837986 14.9758 0 15.9991 0 17.2093C0 18.7479 1.34602 20 3 20C4.65399 20 6.00001 18.7479 6.00001 17.2093C6.00001 15.9981 5.16202 14.9758 3.99999 14.5907V13.4884H9.00001V14.5907C7.83803 14.9758 6.99999 15.9991 6.99999 17.2093C6.99999 18.7479 8.34601 20 10 20C11.654 20 13 18.7479 13 17.2093C13 15.9981 12.162 14.9758 11 14.5907V13.4884H16V14.5907C14.838 14.9758 14 15.9991 14 17.2093C14 18.7479 15.346 20 17 20C18.654 20 20 18.7479 20 17.2093C20.001 15.9981 19.163 14.9758 18.001 14.5907ZM4.00102 17.2093C4.00102 17.7219 3.55201 18.1395 3.00104 18.1395C2.45002 18.1395 2.00105 17.7218 2.00105 17.2093C2.00105 16.6967 2.45007 16.2791 3.00104 16.2791C3.55201 16.279 4.00102 16.6967 4.00102 17.2093ZM10.001 1.86048C10.552 1.86048 11.001 2.27817 11.001 2.7907C11.001 3.30327 10.552 3.72091 10.001 3.72091C9.45001 3.72091 9.00105 3.30322 9.00105 2.7907C9.001 2.27812 9.45001 1.86048 10.001 1.86048ZM11.001 17.2093C11.001 17.7219 10.552 18.1395 10.001 18.1395C9.45001 18.1395 9.00105 17.7218 9.00105 17.2093C9.00105 16.6967 9.45006 16.2791 10.001 16.2791C10.552 16.279 11.001 16.6967 11.001 17.2093ZM7.63703 7.90696C8.19001 7.32928 8.99003 6.97674 9.859 6.97674H10.142C11.012 6.97674 11.811 7.32928 12.365 7.90696H7.63703ZM17.001 18.1395C16.45 18.1395 16.001 17.7218 16.001 17.2093C16.001 16.6967 16.4501 16.2791 17.001 16.2791C17.552 16.2791 18.001 16.6968 18.001 17.2093C18.001 17.7218 17.552 18.1395 17.001 18.1395Z" fill="#009432"/>
</svg>
