<svg width="14" height="20" viewBox="0 0 14 20" fill="none" xmlns="http://www.w3.org/2000/svg">
<path d="M12 8.99999H3.99998V5.00001C3.99998 3.34603 5.346 2.00001 6.99998 2.00001C8.65396 2.00001 9.99998 3.34603 9.99998 5.00001V6H12V5.00001C12 2.24301 9.75698 0 6.99998 0C4.24298 0 2.00001 2.24301 2.00001 5.00001V8.99999C0.896015 8.99999 0 9.89601 0 11V18C0 19.103 0.896015 20 2.00001 20H12C13.104 20 14 19.103 14 18V11C14 9.89601 13.104 8.99999 12 8.99999ZM2.00001 18V11H12L12.002 18H2.00001Z" fill="#595959"/>
<path d="M6.99998 16C7.82841 16 8.49998 15.3284 8.49998 14.5C8.49998 13.6715 7.82841 13 6.99998 13C6.17155 13 5.49998 13.6715 5.49998 14.5C5.49998 15.3284 6.17155 16 6.99998 16Z" fill="#595959"/>
</svg>
