<svg width="20" height="22" viewBox="0 0 20 22" fill="none" xmlns="http://www.w3.org/2000/svg">
<path d="M3 2.00001H13V5.99999H17V6.99997H19V4.58601L14.414 0H3C1.89703 0 1.00003 0.897983 1.00003 2.00001V7.00002H3.00004L3 2.00001Z" fill="#595959"/>
<path d="M17 20H3V19H1.00003V20C1.00003 21.103 1.89703 22 3.00004 22H17C18.103 22 19 21.103 19 20V19H17V20Z" fill="#595959"/>
<path d="M7.00002 8.99999V17H9.00003C11.206 17 13 15.206 13 13C13 10.794 11.206 8.99999 8.99999 8.99999H7.00002ZM11 13C11 14.103 10.103 15 8.99999 15V11C10.103 11 11 11.898 11 13Z" fill="#595959"/>
<path d="M20 11V8.99999H16C14.897 8.99999 14 9.89797 14 11V17H16V14H19V12H16V11H20Z" fill="#595959"/>
<path d="M2.00001 15H3C4.65398 15 5.99999 13.654 5.99999 12C5.99999 10.346 4.65398 8.99999 3 8.99999H0V17H2.00001V15ZM2.00001 11H3C3.55101 11 3.99998 11.448 3.99998 12C3.99998 12.552 3.55096 13 3 13H2.00001V11Z" fill="#595959"/>
</svg>
