<svg width="21" height="21" viewBox="0 0 21 21" fill="none" xmlns="http://www.w3.org/2000/svg">
<path d="M9.99954 13.9984C9.99954 11.6935 8.42362 9.76762 6.2977 9.19062C7.30064 8.70563 7.99961 7.68567 7.99961 6.49875C7.99961 4.84484 6.65366 3.49889 4.99975 3.49889C3.34584 3.49889 1.99988 4.84484 1.99988 6.49875C1.99988 7.6867 2.69885 8.70567 3.70179 9.19062C1.57591 9.76659 0 11.6935 0 13.9984V15.9983C0 16.5513 0.44698 16.9983 0.99994 16.9983H1.99988V19.9982C1.99993 20.5511 2.44691 20.9981 2.99987 20.9981H6.99967C7.55263 20.9981 7.99961 20.5511 7.99961 19.9982V16.9983H8.9996C9.55256 16.9983 9.99954 16.5513 9.99954 15.9983V13.9984ZM4.99979 5.49877C5.55079 5.49877 5.99973 5.94776 5.99973 6.49871C5.99973 7.0497 5.55074 7.49865 4.99979 7.49865C4.4488 7.49865 3.99985 7.04965 3.99985 6.49871C3.99981 5.94776 4.44979 5.49877 4.99979 5.49877ZM7.99966 14.9984H6.99972C6.44671 14.9984 5.99973 15.4463 5.99973 15.9983V18.9982H3.99981V15.9983C3.99981 15.4463 3.55283 14.9984 2.99987 14.9984H1.99993V13.9984C1.99993 12.3445 3.34588 10.9986 4.99979 10.9986C6.6537 10.9986 7.99966 12.3445 7.99966 13.9984V14.9984Z" fill="#595959"/>
<path d="M15.7533 15.4233C16.5052 14.8773 16.9992 13.9983 16.9992 13.0004C16.9992 11.3465 15.6532 10.0005 13.9993 10.0005C12.3454 10.0005 10.9994 11.3465 10.9994 13.0004C10.9994 13.9983 11.4934 14.8773 12.2454 15.4233C10.9215 16.0752 9.99946 17.4272 9.99946 19.0001V20.0001C9.99946 20.553 10.4464 21 10.9994 21H16.9991C17.5521 21 17.9991 20.553 17.9991 20.0001V19.0001C17.9992 17.4272 17.0782 16.0752 15.7533 15.4233ZM13.9994 12.0004C14.5504 12.0004 14.9993 12.4494 14.9993 13.0004C14.9993 13.5513 14.5503 14.0003 13.9994 14.0003C13.4484 14.0003 12.9994 13.5513 12.9994 13.0004C12.9994 12.4494 13.4494 12.0004 13.9994 12.0004ZM11.9994 19.0001C11.9994 17.8962 12.8954 17.0002 13.9994 17.0002C15.1033 17.0002 15.9993 17.8962 15.9993 19.0001H11.9994Z" fill="#595959"/>
<path d="M17.9992 2.99987V0H15.9993V2.99987H12.9994V4.99979H15.9993V7.99966H17.9992V4.99979H20.9991V2.99987H17.9992Z" fill="#595959"/>
</svg>
