<svg width="21" height="19" viewBox="0 0 21 19" fill="none" xmlns="http://www.w3.org/2000/svg">
<path d="M9.99998 10.9994C9.99998 8.69437 8.424 6.76837 6.29798 6.19134C7.30097 5.70633 7.99997 4.68633 7.99997 3.49936C7.99997 1.84537 6.65395 0.499359 4.99997 0.499359C3.34598 0.499359 1.99997 1.84537 1.99997 3.49936C1.99997 4.68736 2.69897 5.70637 3.70195 6.19134C1.57598 6.76734 0 8.69433 0 10.9994V12.9994C0 13.5524 0.447 13.9994 0.999984 13.9994H1.99997V16.9994C2.00002 17.5523 2.44702 17.9993 3 17.9993H6.99998C7.55297 17.9993 7.99997 17.5523 7.99997 16.9994V13.9994H9C9.55298 13.9994 9.99998 13.5524 9.99998 12.9994V10.9994ZM5.00002 2.49933C5.55103 2.49933 6 2.94834 6 3.49931C6 4.05033 5.55098 4.4993 5.00002 4.4993C4.449 4.4993 4.00003 4.05028 4.00003 3.49931C3.99998 2.94834 4.44998 2.49933 5.00002 2.49933ZM8.00002 11.9993H7.00003C6.447 11.9993 6 12.4473 6 12.9993V15.9993H3.99998V12.9993C3.99998 12.4473 3.55298 11.9993 3 11.9993H2.00002V10.9994C2.00002 9.34537 3.34603 7.99936 5.00002 7.99936C6.654 7.99936 8.00002 9.34537 8.00002 10.9994V11.9993Z" fill="#C21E37"/>
<path d="M15.7539 12.4242C16.506 11.8782 16.9999 10.9992 16.9999 10.0012C16.9999 8.34724 15.6539 7.00122 13.9999 7.00122C12.3459 7.00122 10.9999 8.34724 10.9999 10.0012C10.9999 10.9992 11.4939 11.8782 12.2459 12.4242C10.9219 13.0762 9.99989 14.4282 9.99989 16.0012V17.0012C9.99989 17.5542 10.4469 18.0012 10.9999 18.0012H16.9999C17.5529 18.0012 17.9999 17.5542 17.9999 17.0012V16.0012C18 14.4282 17.079 13.0762 15.7539 12.4242ZM14 9.00124C14.551 9.00124 15 9.45026 15 10.0012C15 10.5522 14.5509 11.0012 14 11.0012C13.449 11.0012 13 10.5522 13 10.0012C13 9.45026 13.4499 9.00124 14 9.00124ZM12 16.0012C12 14.8972 12.896 14.0012 14 14.0012C15.104 14.0012 16 14.8972 16 16.0012H12Z" fill="#C21E37"/>
<path d="M18 0.000335097L16 0L13 0.000335097V2.00035H16H18H21V0.000335097H18Z" fill="#C21E37"/>
</svg>
