<svg width="164" height="164" viewBox="0 0 164 164" fill="none" xmlns="http://www.w3.org/2000/svg">
<circle cx="82" cy="82" r="40.5" stroke="#EA2027" stroke-opacity="0.75"/>
<circle cx="82" cy="82" r="50.75" stroke="#EA2027" stroke-opacity="0.5"/>
<circle cx="82" cy="82" r="61" stroke="#EA2027" stroke-opacity="0.25"/>
<circle cx="82" cy="82" r="71.25" stroke="#EA2027" stroke-opacity="0.1"/>
<circle cx="82" cy="82" r="81.5" stroke="#EA2027" stroke-opacity="0.05"/>
<rect x="71" y="68" width="26" height="26" fill="white"/>
<path d="M82 51.25C65.0175 51.25 51.25 65.0172 51.25 82C51.25 98.9828 65.0175 112.75 82 112.75C98.9825 112.75 112.75 98.9828 112.75 82C112.75 65.0172 98.9825 51.25 82 51.25ZM92.628 83.63L77.253 93.2394C76.9419 93.4336 76.5881 93.5312 76.2344 93.5312C75.9139 93.5312 75.5929 93.4515 75.3025 93.2901C74.6916 92.9513 74.3125 92.3085 74.3125 91.6094V72.3906C74.3125 71.6915 74.6916 71.0487 75.3025 70.7099C75.9134 70.3693 76.6604 70.39 77.253 70.7606L92.628 80.37C93.1896 80.722 93.5312 81.3376 93.5312 82C93.5312 82.6624 93.1896 83.2782 92.628 83.63Z" fill="#C21E37"/>
</svg>
