<svg width="20" height="20" viewBox="0 0 20 20" fill="none" xmlns="http://www.w3.org/2000/svg">
<path d="M19.5403 0.459658C19.2261 0.146416 18.75 0 18.0421 0C16.6243 0 13.8441 0.669123 11.9977 2.51648L8.16716 6.34598H1.71258C1.45561 6.34598 1.20833 6.44876 1.026 6.63013L0.34038 7.31671C-0.03782 7.69587 -0.03782 8.30972 0.34038 8.68892L11.312 19.6596C11.5011 19.8487 11.7494 19.9438 11.9977 19.9438C12.2459 19.9438 12.4942 19.8487 12.6833 19.6596L13.3699 18.974C13.5522 18.7917 13.653 18.5454 13.653 18.2874V11.8318L17.4835 8.00134C18.878 6.60781 19.4928 4.80796 19.7343 3.8615C19.9302 3.09251 20.3035 1.22283 19.5403 0.459658ZM2.68036 8.28549H6.22866L4.45499 10.0592L2.68036 8.28549ZM11.7145 17.3186L9.94084 15.546L11.7145 13.7713V17.3186ZM8.56964 14.1738L5.82623 11.4313L12.6833 4.57426L15.4257 7.31571L8.56964 14.1738ZM16.729 5.87664L14.1224 3.26997C15.48 2.3167 17.1605 1.9395 18.042 1.9395C18.0517 1.9395 18.0605 1.9395 18.0692 1.9395C18.0809 2.72108 17.7172 4.46858 16.729 5.87664Z" fill="#009432"/>
<path d="M5.82523 16.9172C5.38885 17.3526 3.72381 17.7298 2.08783 17.9112C2.27306 16.2694 2.65708 14.5985 3.08278 14.1738C3.33298 13.9226 3.63845 13.7636 3.95846 13.6782L2.49416 12.2139C2.21683 12.3769 1.94918 12.564 1.71158 12.8016C0.380154 14.134 0.100868 18.1332 0.0581846 18.9216L0 20L1.07932 19.9418C1.86773 19.8991 5.86696 19.6179 7.19743 18.2874C7.43599 18.0489 7.62218 17.7822 7.7851 17.5039L6.3208 16.0386C6.23643 16.3615 6.07738 16.665 5.82523 16.9172Z" fill="#009432"/>
</svg>
