<svg width="62" height="62" viewBox="0 0 62 62" fill="none" xmlns="http://www.w3.org/2000/svg">
<path d="M56 5V3H53V0H51V3.586L50 4.586V3H48V6.586L47.075 7.511C41.877 2.664 35.145 0 28 0C12.561 0 0 12.561 0 28C0 43.439 12.561 56 28 56C30.1 56 32.193 55.767 34.222 55.306L33.779 53.356C31.896 53.783 29.951 54 28 54C13.663 54 2 42.336 2 28C2 13.664 13.663 2 28 2C34.611 2 40.841 4.455 45.661 8.925L42.815 11.771C38.752 8.056 33.54 6 28 6C15.869 6 6 15.869 6 28C6 40.131 15.869 50 28 50C29.893 50 31.771 49.759 33.586 49.284L33.08 47.35C31.431 47.781 29.722 48 28 48C16.972 48 8 39.028 8 28C8 16.972 16.972 8 28 8C33.006 8 37.717 9.847 41.401 13.185L38.572 16.014C35.649 13.428 31.938 12 28 12C19.178 12 12 19.178 12 28C12 36.822 19.178 44 28 44C36.822 44 44 36.822 44 28C44 25.328 43.326 22.681 42.053 20.346L40.297 21.304C41.411 23.346 42 25.662 42 28C42 35.72 35.72 42 28 42C20.28 42 14 35.72 14 28C14 20.28 20.28 14 28 14C31.404 14 34.614 15.217 37.158 17.428L34.329 20.257C32.548 18.795 30.335 18 28 18C22.486 18 18 22.486 18 28C18 33.514 22.486 38 28 38C33.514 38 38 33.514 38 28C38 27.02 37.855 26.043 37.569 25.099L35.655 25.678C35.884 26.435 36 27.216 36 28C36 32.411 32.411 36 28 36C23.589 36 20 32.411 20 28C20 23.589 23.589 20 28 20C29.377 20 30.699 20.35 31.87 21H30V24.556C29.409 24.212 28.732 24 28 24C25.794 24 24 25.794 24 28C24 30.206 25.794 32 28 32C30.206 32 32 30.206 32 28C32 27.268 31.788 26.591 31.444 26H35V24H33.414L49.414 8H53V6H51.414L52.414 5H56ZM28 30C26.897 30 26 29.103 26 28C26 26.897 26.897 26 28 26C29.103 26 30 26.897 30 28C30 29.103 29.103 30 28 30ZM32 22.586V21.078C32.312 21.259 32.613 21.461 32.901 21.685L32 22.586Z" fill="#009432"/>
<path d="M49 48C47.897 48 47 47.103 47 46C47 44.897 47.897 44 49 44C50.103 44 51 44.897 51 46H53C53 44.142 51.721 42.589 50 42.142V40H48V42.142C46.279 42.589 45 44.142 45 46C45 48.206 46.794 50 49 50C50.103 50 51 50.897 51 52C51 53.103 50.103 54 49 54C47.897 54 47 53.103 47 52H45C45 53.858 46.279 55.411 48 55.858V58H50V55.858C51.721 55.411 53 53.858 53 52C53 49.794 51.206 48 49 48Z" fill="#009432"/>
<path d="M58 48H56V50H58V48Z" fill="#009432"/>
<path d="M42 48H40V50H42V48Z" fill="#009432"/>
<path d="M54.43 37.2039C55.458 34.25 56 31.161 56 28C56 22.052 54.153 16.367 50.66 11.561L49.043 12.737C52.286 17.199 54 22.477 54 28C54 30.922 53.501 33.776 52.555 36.506C51.423 36.184 50.234 36 49 36C48.825 36 48.655 36.019 48.481 36.026C49.485 33.477 50 30.786 50 28C50 23.692 48.745 19.513 46.372 15.912L44.702 17.013C46.859 20.286 48 24.085 48 28C48 30.908 47.385 33.701 46.187 36.315C40.368 37.605 36 42.798 36 48.9999C36 56.1679 41.832 61.9999 49 61.9999C51.742 61.9999 54.365 61.1559 56.584 59.5599L55.416 57.9359C53.539 59.2869 51.32 59.9999 49 59.9999C42.935 59.9999 38 55.0649 38 48.9999C38 42.935 42.935 38 49 38C55.065 38 60 42.935 60 48.9999C60 51.7109 59.005 54.3149 57.199 56.3329L58.689 57.6669C60.824 55.2819 62 52.2039 62 48.9999C62 43.771 58.89 39.2659 54.43 37.2039Z" fill="#009432"/>
</svg>
