<svg width="62" height="62" viewBox="0 0 62 62" fill="none" xmlns="http://www.w3.org/2000/svg">
<path d="M31 12C29.897 12 29 11.103 29 10C29 8.897 29.897 8 31 8C32.103 8 33 8.897 33 10H35C35 8.142 33.721 6.589 32 6.142V4H30V6.142C28.279 6.589 27 8.142 27 10C27 12.206 28.794 14 31 14C32.103 14 33 14.897 33 16C33 17.103 32.103 18 31 18C29.897 18 29 17.103 29 16H27C27 17.858 28.279 19.411 30 19.858V22H32V19.858C33.721 19.411 35 17.858 35 16C35 13.794 33.206 12 31 12Z" fill="#009432"/>
<path d="M59 54.702C60.913 52.993 62 50.577 62 48C62 43.375 58.493 39.558 54 39.059V37C54 34.243 51.757 32 49 32H32V25.955C34.808 25.739 37.476 24.625 39.6 22.75L38.276 21.251C36.267 23.023 33.683 24 31 24C24.935 24 20 19.065 20 13C20 6.935 24.935 2 31 2C37.065 2 42 6.935 42 13C42 15.32 41.286 17.539 39.937 19.416L41.56 20.584C43.156 18.364 44 15.742 44 13C44 5.832 38.168 0 31 0C23.832 0 18 5.832 18 13C18 19.831 23.299 25.435 30 25.949V32H13C10.243 32 8 34.243 8 37V39.059C3.507 39.558 0 43.375 0 48C0 50.577 1.087 52.993 3 54.702V56H2V58H3V62H15V58H16V56H15V54.702C16.913 52.993 18 50.577 18 48C18 43.375 14.493 39.558 10 39.059V37C10 35.346 11.346 34 13 34H30V39.059C25.507 39.558 22 43.375 22 48C22 50.577 23.087 52.993 25 54.702V56H24V58H25V62H37V58H38V56H37V54.702C38.913 52.993 40 50.577 40 48C40 43.375 36.493 39.558 32 39.059V34H49C50.654 34 52 35.346 52 37V39.059C47.507 39.558 44 43.375 44 48C44 50.577 45.087 52.993 47 54.702V56H46V58H47V62H59V58H60V56H59V54.702ZM13 60H5V58H13V60ZM8 48C8 47.448 8.448 47 9 47C9.552 47 10 47.448 10 48C10 48.552 9.552 49 9 49C8.448 49 8 48.552 8 48ZM16 48C16 50.131 15.043 52.12 13.374 53.459L13 53.76V56H10V50.816C11.161 50.402 12 49.302 12 48C12 46.346 10.654 45 9 45C7.346 45 6 46.346 6 48C6 49.302 6.839 50.402 8 50.816V56H5V53.76L4.626 53.459C2.957 52.12 2 50.131 2 48C2 44.141 5.141 41 9 41C12.859 41 16 44.141 16 48ZM35 60H27V58H35V60ZM30 48C30 47.448 30.448 47 31 47C31.552 47 32 47.448 32 48C32 48.552 31.552 49 31 49C30.448 49 30 48.552 30 48ZM38 48C38 50.131 37.043 52.12 35.374 53.459L35 53.76V56H32V50.816C33.161 50.402 34 49.302 34 48C34 46.346 32.654 45 31 45C29.346 45 28 46.346 28 48C28 49.302 28.839 50.402 30 50.816V56H27V53.76L26.626 53.459C24.957 52.12 24 50.131 24 48C24 44.141 27.141 41 31 41C34.859 41 38 44.141 38 48ZM57 60H49V58H57V60ZM52 48C52 47.448 52.448 47 53 47C53.552 47 54 47.448 54 48C54 48.552 53.552 49 53 49C52.448 49 52 48.552 52 48ZM57.374 53.459L57 53.76V56H54V50.816C55.161 50.402 56 49.302 56 48C56 46.346 54.654 45 53 45C51.346 45 50 46.346 50 48C50 49.302 50.839 50.402 52 50.816V56H49V53.76L48.626 53.459C46.957 52.12 46 50.131 46 48C46 44.141 49.141 41 53 41C56.859 41 60 44.141 60 48C60 50.131 59.043 52.12 57.374 53.459Z" fill="#009432"/>
<path d="M50 2H48V4H50V2Z" fill="#009432"/>
<path d="M50 6H48V8H50V6Z" fill="#009432"/>
<path d="M52 4H50V6H52V4Z" fill="#009432"/>
<path d="M48 4H46V6H48V4Z" fill="#009432"/>
<path d="M58 19H56V21H58V19Z" fill="#009432"/>
<path d="M58 23H56V25H58V23Z" fill="#009432"/>
<path d="M60 21H58V23H60V21Z" fill="#009432"/>
<path d="M56 21H54V23H56V21Z" fill="#009432"/>
<path d="M10 14H8V16H10V14Z" fill="#009432"/>
<path d="M10 18H8V20H10V18Z" fill="#009432"/>
<path d="M12 16H10V18H12V16Z" fill="#009432"/>
<path d="M8 16H6V18H8V16Z" fill="#009432"/>
<path d="M40 12H38V14H40V12Z" fill="#009432"/>
<path d="M24 12H22V14H24V12Z" fill="#009432"/>
</svg>
