<svg width="62" height="62" viewBox="0 0 62 62" fill="none" xmlns="http://www.w3.org/2000/svg">
<path d="M57.2139 39.6851L53.7622 38.5342C58.0552 37.6709 60.4692 35.8989 60.6001 35.7998L61.7891 34.9072L60.5142 34.1421C57.73 32.4722 56 29.416 56 26.1689V15C56 6.729 49.271 0 41 0C36.6519 0 32.7422 1.87109 30 4.83594V3C30 1.34619 28.6538 0 27 0H3C1.34619 0 0 1.34619 0 3V15C0 16.6538 1.34619 18 3 18H8.66699L18 25V18H26V26.1689C26 28.0991 25.377 29.9541 24.2969 31.498L21.229 28.4312L18.6621 29.9531C18.6128 29.9321 18.564 29.9121 18.5161 29.8921L17.7769 27H10.2231L9.48486 29.8931C9.43604 29.9131 9.38721 29.9331 9.33887 29.9541L6.77197 28.4321L1.43115 33.772L2.9541 36.3389C2.93311 36.3882 2.91309 36.437 2.89307 36.4849L0 37.2241V44.7769L2.89307 45.5161C2.91309 45.5649 2.93311 45.6138 2.9541 45.6621L1.43018 48.229L6.771 53.5688L9.33789 52.0469C9.38721 52.0679 9.43604 52.0879 9.48389 52.1079L10.2231 55H17.7769L18.5151 52.1069C18.564 52.0869 18.6128 52.0669 18.6611 52.0459L20 52.8408V62H62V46.3242C62 43.3071 60.0771 40.6382 57.2139 39.6851ZM49 41C49 43.2061 47.2061 45 45 45C43.9741 45 43.0132 44.6089 42.2759 43.9102L46.3828 38.1821L48.3501 38.8379C48.769 39.4829 49 40.2222 49 41ZM41 42.2568L37 36.6792V35.2368C38.2422 35.7231 39.5879 36 41 36C42.4121 36 43.7578 35.7231 45 35.2358V36.6782L41 42.2568ZM33.6489 38.8379L35.6172 38.1821L39.7241 43.9102C38.9868 44.6089 38.0259 45 37 45C34.7939 45 33 43.2061 33 41C33 40.2222 33.231 39.4829 33.6489 38.8379ZM32 19H33.7568C36.438 19 38.9751 18.0679 41 16.3569C43.0239 18.0679 45.562 19 48.2432 19H50V25C50 29.9629 45.9619 34 41 34C36.0381 34 32 29.9629 32 25V19ZM58.1631 34.9268C56.5601 35.7471 53.4492 36.9668 49.147 36.9951L47 36.2788V34.207C49.21 32.7622 50.8638 30.5439 51.5889 27.9399C52.5088 27.8301 53.3462 27.478 54.0439 26.938C54.2598 30.0532 55.7598 32.9619 58.1631 34.9268ZM51.958 25.8291C51.979 25.5542 52 25.2798 52 25V20.1841C53.1611 20.5981 54 21.6982 54 23C54 24.3169 53.1411 25.4268 51.958 25.8291ZM41 2C48.168 2 54 7.83203 54 15V19.0259C53.416 18.584 52.7432 18.2529 52 18.1021V15H50V17H48.2432C45.7739 17 43.4531 16.0391 41.707 14.293L41 13.5859L40.293 14.293C38.5469 16.0391 36.2261 17 33.7568 17H32V15H30V18.1011C29.2568 18.2529 28.584 18.583 28 19.0249V15C28 7.83203 33.832 2 41 2ZM16 16V21L9.33301 16H3C2.44922 16 2 15.5518 2 15V3C2 2.44824 2.44922 2 3 2H27C27.5508 2 28 2.44824 28 3V7.54785C26.7349 9.74609 26 12.2861 26 15V16H16ZM30 20.1841V25C30 25.2798 30.021 25.5542 30.042 25.8291C28.8589 25.4268 28 24.3169 28 23C28 21.6982 28.8389 20.5981 30 20.1841ZM27.9561 26.938C28.6538 27.479 29.4912 27.8301 30.4111 27.9399C31.1348 30.5449 32.79 32.7622 35 34.207V36.2788L32.854 36.9951C28.5518 36.9668 25.4399 35.7471 23.8369 34.9268C26.2402 32.9619 27.7402 30.0532 27.9561 26.938ZM18.7759 49.7891L18.2939 50.019C17.9849 50.166 17.668 50.2988 17.3418 50.4141L16.8379 50.5918L16.2231 53H11.7769L11.1631 50.5918L10.6592 50.4141C10.333 50.2998 10.0161 50.167 9.70703 50.019L9.2251 49.7891L7.08691 51.0581L3.94287 47.9131L5.21094 45.7759L4.98096 45.2949C4.83301 44.9839 4.70117 44.666 4.58496 44.3398L4.40723 43.8379L2 43.2241V38.7769L4.40576 38.1631L4.58398 37.6602C4.7002 37.334 4.83203 37.0161 4.97998 36.7061L5.20996 36.2251L3.94189 34.0879L7.08594 30.9429L9.22412 32.2119L9.70605 31.9819C10.0151 31.835 10.332 31.7021 10.6582 31.5869L11.1621 31.4092L11.7769 29H16.2231L16.8369 31.4082L17.3408 31.5859C17.667 31.7002 17.9839 31.833 18.293 31.981L18.7749 32.2109L20.9131 30.9419L22.9741 33.0029C22.5161 33.4248 22.0278 33.8159 21.4849 34.1421L20.21 34.9072L21.3999 35.7998C21.5322 35.8989 23.9458 37.6699 28.2388 38.5342L24.7871 39.6851C23.6938 40.0488 22.7422 40.665 21.9771 41.4531C21.9858 41.3018 22 41.1528 22 41C22 36.5889 18.4111 33 14 33C9.58887 33 6 36.5889 6 41C6 45.4111 9.58887 49 14 49C16.3921 49 18.5371 47.939 20.0039 46.269C20.0039 46.2881 20 46.3062 20 46.3242V50.5151L18.7759 49.7891ZM20 41C20 44.3091 17.3091 47 14 47C10.6909 47 8 44.3091 8 41C8 37.6909 10.6909 35 14 35C17.3091 35 20 37.6909 20 41ZM60 60H54V58.3979C55.293 56.96 56 55.1211 56 53.1709V52.8271C56 50.8779 55.293 49.0381 54 47.6001V45H52V48.4141L52.293 48.707C53.394 49.8081 54 51.271 54 52.8281V53.1719C54 54.729 53.394 56.1929 52.293 57.293L52 57.5859V60H30V57.5859L29.707 57.293C28.606 56.1919 28 54.729 28 53.1719V52.8281C28 51.271 28.606 49.8071 29.707 48.707L30 48.4141V45H28V47.6021C26.707 49.04 26 50.8789 26 52.8291V53.1729C26 55.1221 26.707 56.9619 28 58.3999V60H22V46.3242C22 44.1689 23.374 42.2622 25.4189 41.5811L31.167 39.665C31.0679 40.1001 31 40.5439 31 41C31 44.3091 33.6909 47 37 47C38.5039 47 39.9072 46.439 41 45.4429C42.0928 46.439 43.4961 47 45 47C48.3091 47 51 44.3091 51 41C51 40.5439 50.9321 40.1001 50.833 39.665L56.582 41.5811C58.626 42.2632 60 44.1689 60 46.3242V60Z" fill="#009432"/>
<path d="M37 22C37 22.5522 36.5522 23 36 23C35.4478 23 35 22.5522 35 22C35 21.4478 35.4478 21 36 21C36.5522 21 37 21.4478 37 22Z" fill="#009432"/>
<path d="M47 22C47 22.5522 46.5522 23 46 23C45.4478 23 45 22.5522 45 22C45 21.4478 45.4478 21 46 21C46.5522 21 47 21.4478 47 22Z" fill="#009432"/>
<path d="M41 31C43.2061 31 45 29.2061 45 27H43C43 28.103 42.103 29 41 29C39.897 29 39 28.103 39 27H37C37 29.2061 38.7939 31 41 31Z" fill="#009432"/>
<path d="M4 4H24V6H4V4Z" fill="#009432"/>
<path d="M4 8H24V10H4V8Z" fill="#009432"/>
<path d="M15 12H17V14H15V12Z" fill="#009432"/>
<path d="M21 12H23V14H21V12Z" fill="#009432"/>
<path d="M9 12H11V14H9V12Z" fill="#009432"/>
</svg>
