<svg width="62" height="62" viewBox="0 0 62 62" fill="none" xmlns="http://www.w3.org/2000/svg">
<path d="M53 32V7H47.5859L35.5859 19H18.4409L12 29.4668V0H10V4H6V6H10V10H6V12H10V16H6V18H10V22H6V24H10V28H6V30H10V32H0V62H62V32H53ZM51 32H49V9H51V32ZM37 29.2612V20.4141L39 18.4141V30.333C38.3628 29.9292 37.6968 29.5669 37 29.2612ZM35 28.5581C34.3501 28.3779 33.6821 28.2412 33 28.1489V21H35V28.5581ZM31 28C30.3198 28 29.6558 28.061 29 28.1489V21H31V28ZM27 28.5581C26.313 28.749 25.644 28.979 25 29.2612V21H27V28.5581ZM23 30.333C22.29 30.7832 21.623 31.291 21 31.8511V21H23V30.333ZM31 30C38.168 30 44 35.832 44 43C44 50.168 38.168 56 31 56C23.832 56 18 50.168 18 43C18 35.832 23.832 30 31 30ZM41.1641 32C41.1099 31.9502 41.0552 31.9009 41 31.8511V16.4141L43 14.4141V32H41.1641ZM45 12.4141L47 10.4141V32H45V12.4141ZM19 21.9082V32H17V25.1582L19 21.9082ZM12.7891 32L15 28.4082V32H12.7891ZM60 60H2V34H19.0278C17.1362 36.5098 16 39.6211 16 43C16 51.271 22.729 58 31 58C39.271 58 46 51.271 46 43C46 39.6211 44.8638 36.5098 42.9722 34H60V60Z" fill="#009432"/>
<path d="M6 38H9V36H4V41H6V38Z" fill="#009432"/>
<path d="M6 53H4V58H9V56H6V53Z" fill="#009432"/>
<path d="M56 41H58V36H53V38H56V41Z" fill="#009432"/>
<path d="M56 56H53V58H58V53H56V56Z" fill="#009432"/>
<path d="M31 46C30.4482 46 30 45.5508 30 45H28C28 46.3018 28.8389 47.4019 30 47.8159V49H32V47.8159C33.1611 47.4019 34 46.3018 34 45C34 43.3462 32.6538 42 31 42C30.4482 42 30 41.5508 30 41C30 40.4492 30.4482 40 31 40C31.5518 40 32 40.4492 32 41H34C34 39.6982 33.1611 38.5981 32 38.1841V37H30V38.1841C28.8389 38.5981 28 39.6982 28 41C28 42.6538 29.3462 44 31 44C31.5518 44 32 44.4492 32 45C32 45.5508 31.5518 46 31 46Z" fill="#009432"/>
<path d="M31 54C37.0649 54 42 49.0649 42 43C42 36.9351 37.0649 32 31 32C24.9351 32 20 36.9351 20 43C20 49.0649 24.9351 54 31 54ZM31 34C35.9629 34 40 38.0381 40 43C40 47.9619 35.9629 52 31 52C26.0371 52 22 47.9619 22 43C22 38.0381 26.0371 34 31 34Z" fill="#009432"/>
<path d="M48 3.41406V5H50V0H45V2H46.5859L33.5859 15H14V17H34.4141L48 3.41406Z" fill="#009432"/>
<path d="M56 46H58V48H56V46Z" fill="#009432"/>
<path d="M52 46H54V48H52V46Z" fill="#009432"/>
<path d="M48 46H50V48H48V46Z" fill="#009432"/>
<path d="M12 46H14V48H12V46Z" fill="#009432"/>
<path d="M8 46H10V48H8V46Z" fill="#009432"/>
<path d="M4 46H6V48H4V46Z" fill="#009432"/>
</svg>
