<svg width="62" height="62" viewBox="0 0 62 62" fill="none" xmlns="http://www.w3.org/2000/svg">
<path d="M54 14V0H0V57C0 59.757 2.243 62 5 62H57C59.757 62 62 59.757 62 57V14H54ZM5 60C3.346 60 2 58.654 2 57V2H52V57C52 58.13 52.391 59.162 53.026 60H5ZM60 57C60 58.654 58.654 60 57 60C55.346 60 54 58.654 54 57V16H60V57Z" fill="#009432"/>
<path d="M18 16C16.897 16 16 15.103 16 14C16 12.897 16.897 12 18 12C19.103 12 20 12.897 20 14H22C22 12.142 20.721 10.589 19 10.142V8H17V10.142C15.279 10.589 14 12.142 14 14C14 16.206 15.794 18 18 18C19.103 18 20 18.897 20 20C20 21.103 19.103 22 18 22C16.897 22 16 21.103 16 20H14C14 21.858 15.279 23.411 17 23.858V26H19V23.858C20.721 23.411 22 21.858 22 20C22 17.794 20.206 16 18 16Z" fill="#009432"/>
<path d="M4 4V30H32V4H4ZM30 28H6V6H30V28Z" fill="#009432"/>
<path d="M48 56V40H42V56H38V44H32V56H28V40H22V56H20V58H50V56H48ZM26 56H24V42H26V56ZM36 56H34V46H36V56ZM46 56H44V42H46V56Z" fill="#009432"/>
<path d="M50 4H34V6H50V4Z" fill="#009432"/>
<path d="M50 8H34V10H50V8Z" fill="#009432"/>
<path d="M50 12H34V14H50V12Z" fill="#009432"/>
<path d="M50 16H34V18H50V16Z" fill="#009432"/>
<path d="M46 20H34V22H46V20Z" fill="#009432"/>
<path d="M50 20H48V22H50V20Z" fill="#009432"/>
<path d="M20 32H4V34H20V32Z" fill="#009432"/>
<path d="M20 36H4V38H20V36Z" fill="#009432"/>
<path d="M20 40H4V42H20V40Z" fill="#009432"/>
<path d="M20 44H4V46H20V44Z" fill="#009432"/>
<path d="M20 48H18V50H20V48Z" fill="#009432"/>
<path d="M16 48H4V50H16V48Z" fill="#009432"/>
<path d="M45 32C43.346 32 42 33.346 42 35C42 35.041 42.01 35.078 42.012 35.118L37.242 37.026C36.692 36.402 35.896 36 35 36C34.104 36 33.308 36.402 32.758 37.027L27.988 35.118C27.99 35.078 28 35.041 28 35C28 33.346 26.654 32 25 32C23.346 32 22 33.346 22 35C22 36.654 23.346 38 25 38C25.896 38 26.692 37.598 27.242 36.973L32.012 38.881C32.01 38.922 32 38.959 32 39C32 40.654 33.346 42 35 42C36.654 42 38 40.654 38 39C38 38.959 37.99 38.922 37.988 38.882L42.758 36.974C43.308 37.598 44.104 38 45 38C46.654 38 48 36.654 48 35C48 33.346 46.654 32 45 32ZM25 36C24.448 36 24 35.551 24 35C24 34.449 24.448 34 25 34C25.552 34 26 34.449 26 35C26 35.551 25.552 36 25 36ZM35 40C34.448 40 34 39.551 34 39C34 38.449 34.448 38 35 38C35.552 38 36 38.449 36 39C36 39.551 35.552 40 35 40ZM45 36C44.448 36 44 35.551 44 35C44 34.449 44.448 34 45 34C45.552 34 46 34.449 46 35C46 35.551 45.552 36 45 36Z" fill="#009432"/>
<path d="M26 16H24V18H26V16Z" fill="#009432"/>
<path d="M12 16H10V18H12V16Z" fill="#009432"/>
</svg>
