<svg width="19" height="25" viewBox="0 0 19 25" fill="none" xmlns="http://www.w3.org/2000/svg">
<path d="M10.5103 6.87433H8.49195V7.95061C7.34153 8.18946 6.47366 9.22369 6.47366 10.4619C6.47366 11.8744 7.60492 13.0245 8.99649 13.0245H10.0056C10.2831 13.0245 10.5102 13.2541 10.5102 13.537C10.5102 13.8199 10.2831 14.0496 10.0056 14.0496H6.47361V16.0996H8.49191V17.1246H10.5102V16.0484C11.6606 15.8106 12.5285 14.7753 12.5285 13.537C12.5285 12.1246 11.3972 10.9745 10.0057 10.9745H8.99654C8.71901 10.9745 8.49195 10.7449 8.49195 10.4619C8.49195 10.179 8.71901 9.94941 8.99654 9.94941H12.5285V7.89934H10.5103V6.87433Z" fill="#595959"/>
<path d="M15.2592 0L13.8322 1.44937L15.137 2.77372H6.47257V4.82379H15.137L13.8322 6.15016L15.2592 7.59953L19 3.79873L15.2592 0Z" fill="#595959"/>
<path d="M5.16779 17.851L3.74089 16.4016L0 20.2004L3.74089 24.0012L5.16779 22.5518L3.86298 21.2254H12.5274V19.1753H3.86298L5.16779 17.851Z" fill="#595959"/>
</svg>
