<svg width="40" height="10" viewBox="0 0 40 10" fill="none" xmlns="http://www.w3.org/2000/svg">
<path d="M4.65 9.85L0.150002 5.35C0.0500031 5.25 0 5.1 0 5C0 4.85 0.0500031 4.75 0.150002 4.65L4.65 0.15C4.75 0.05 4.85 0 5 0C5.15 0 5.25 0.05 5.35 0.15L6.05 0.85C6.25 1.05 6.25 1.35 6.05 1.55L4.05 3.55C3.9 3.7 4 4 4.25 4H39.5C39.8 4 40 4.2 40 4.5V5.5C40 5.8 39.8 6 39.5 6H4.2C4 6 3.85 6.25 4 6.45L6 8.45C6.2 8.65 6.2 8.95 6 9.15L5.3 9.85C5.2 9.95 5.1 10 4.95 10C4.85 10 4.75 9.95 4.65 9.85Z" fill="#909090"/>
</svg>
