<svg width="40" height="10" viewBox="0 0 40 10" fill="none" xmlns="http://www.w3.org/2000/svg">
<path d="M35.35 9.85L39.85 5.35C39.95 5.25 40 5.1 40 5C40 4.85 39.95 4.75 39.85 4.65L35.35 0.15C35.25 0.05 35.15 0 35 0C34.85 0 34.75 0.05 34.65 0.15L33.95 0.85C33.75 1.05 33.75 1.35 33.95 1.55L35.95 3.55C36.1 3.7 36 4 35.75 4H0.5C0.2 4 0 4.2 0 4.5V5.5C0 5.8 0.2 6 0.5 6H35.8C36 6 36.15 6.25 36 6.45L34 8.45C33.8 8.65 33.8 8.95 34 9.15L34.7 9.85C34.8 9.95 34.9 10 35.05 10C35.15 10 35.25 9.95 35.35 9.85Z" fill="#909090"/>
</svg>
