<svg width="62" height="62" viewBox="0 0 62 62" fill="none" xmlns="http://www.w3.org/2000/svg">
<path d="M38 40H40V42H38V40Z" fill="#222222"/>
<path d="M44 40H46V42H44V40Z" fill="#222222"/>
<path d="M50 40H52V42H50V40Z" fill="#222222"/>
<path d="M19 28H15C13.897 28 13 27.103 13 26H11C11 28.2061 12.7939 30 15 30H16V32H18V30H19C21.2061 30 23 28.2061 23 26C23 23.7939 21.2061 22 19 22H15C13.897 22 13 21.103 13 20C13 18.897 13.897 18 15 18H19C20.103 18 21 18.897 21 20H23C23 17.7939 21.2061 16 19 16H18V14H16V16H15C12.7939 16 11 17.7939 11 20C11 22.2061 12.7939 24 15 24H19C20.103 24 21 24.897 21 26C21 27.103 20.103 28 19 28Z" fill="#222222"/>
<path d="M59 17.6929V8H53V9.17578C52.0918 8.25977 51.1362 7.40381 50.1328 6.61523C51.855 5.68311 53.4839 4.56299 55 3.27197V6H57V0H51V2H53.4141C51.8369 3.30322 50.1289 4.40186 48.3252 5.29297C43.2612 1.87598 37.2539 0 31 0C13.9072 0 0 13.9072 0 31C0 34.1118 0.484863 37.1641 1.38818 40.106C0.585937 40.3662 0 41.1118 0 42V44C0 45.103 0.896973 46 2 46V48C2 48.3662 2.10596 48.7051 2.27783 49C2.10596 49.2949 2 49.6338 2 50V52C2 53.103 2.89697 54 4 54V56C2.89697 56 2 56.897 2 58V60C2 61.103 2.89697 62 4 62H23C23.6021 62 24.1372 61.7271 24.5039 61.3052C26.6289 61.7578 28.8081 62 31 62C48.0928 62 62 48.0928 62 31C62 26.3398 60.9868 21.8662 59 17.6929ZM55 10H57V26H55V10ZM36.687 10C40.689 10 44.561 9.16699 48.1162 7.59814C49.8931 8.8999 51.5342 10.4102 53 12.1162V26H51V13H45V26H43V16H37V26H34V28H59V23.4458C59.5732 25.5718 59.8979 27.7622 59.9722 30H32V2.02686C37.0518 2.2002 41.9028 3.66992 46.126 6.25488C43.1528 7.396 39.9668 8 36.687 8H34V10H36.687ZM49 26H47V15H49V26ZM41 26H39V18H41V26ZM30 2.0249V59.9702C28.313 59.9131 26.6392 59.71 25 59.3652V58C26.103 58 27 57.103 27 56V54C27 52.897 26.103 52 25 52V50C25 49.6338 24.894 49.2949 24.7222 49C24.894 48.7051 25 48.3662 25 48V46C25 44.897 24.103 44 23 44V42H25C26.103 42 27 41.103 27 40V38C27 36.897 26.103 36 25 36H6C4.89697 36 4 36.897 4 38V40H3.4458C2.5 37.1021 2 34.0811 2 31C2 15.3452 14.4712 2.55518 30 2.0249ZM4 50H23L23.001 52H4V50ZM2 42H21L21.001 44H2V42ZM6 40V38H25L25.001 40H6ZM23 46L23.001 48H4V46H23ZM6 54H25L25.001 56H6V54ZM4 60V58H23L23.001 60H4ZM32 59.9751V32H59.9751C59.4561 47.1958 47.1958 59.4561 32 59.9751Z" fill="#222222"/>
</svg>
