<svg width="62" height="62" viewBox="0 0 62 62" fill="none" xmlns="http://www.w3.org/2000/svg">
<path d="M2 2H19V0H0V19H2V2Z" fill="#222222"/>
<path d="M6 19V6H19V4H4V19H6Z" fill="#222222"/>
<path d="M60 60H43V62H62V43H60V60Z" fill="#222222"/>
<path d="M56 43V56H43V58H58V43H56Z" fill="#222222"/>
<path d="M58.437 19.187L52 17.2559V15.7358C53.811 14.4692 55 12.3721 55 10V7C55 3.14014 51.8589 0 48 0C44.1411 0 41 3.14014 41 7V10C41 11.1011 41.2632 12.1401 41.7178 13.0679L40.0898 14.334C38.9058 13.688 37.6548 13.1689 36.3569 12.7881L35.8828 9H26.1172L25.6431 12.7891C24.3442 13.1699 23.0928 13.688 21.9102 14.335L18.896 11.9922L11.9912 18.897L14.335 21.9111C13.689 23.0928 13.1709 24.3452 12.7891 25.645L9 26.1172V31.1108C7.76514 32.374 7 34.0981 7 36V39C7 41.3721 8.18896 43.4692 10 44.7358V46.2559L3.56299 48.187C1.43213 48.8262 0 50.751 0 52.9771V62H28V53H35.8828L36.3569 49.2109C37.6572 48.8291 38.9082 48.312 40.0898 47.665L43.104 50.0088L50.0088 43.104L47.665 40.0898C48.311 38.9072 48.8291 37.6558 49.2109 36.3569L53 35.8828V33H62V23.9761C62 21.75 60.5679 19.8262 58.437 19.187ZM50 17.5859L48 19.5859L46 17.5859V16.7051C46.6338 16.895 47.3052 17 48 17C48.6948 17 49.3662 16.895 50 16.7051V17.5859ZM43 7C43 4.24316 45.2432 2 48 2C50.7568 2 53 4.24316 53 7V10C53 12.7568 50.7568 15 48 15C45.2432 15 43 12.7568 43 10V7ZM14.377 27.46L14.5449 26.7988C14.9468 25.2231 15.5688 23.7202 16.395 22.334L16.7441 21.748L14.6538 19.061L19.063 14.6519L21.75 16.7422L22.3369 16.3931C23.7251 15.5669 25.2271 14.9448 26.8008 14.5439L27.4609 14.376L27.8828 11H34.1172L34.54 14.377L35.2002 14.5449C36.7739 14.9458 38.2759 15.5679 39.6641 16.394L40.251 16.7432L42.8491 14.7231C43.1948 15.1001 43.5791 15.4419 44 15.7358V17.2559L38.1958 18.9971C36.0259 17.6938 33.5479 17 31 17C23.7139 17 17.7158 22.5972 17.0649 29.7168C16.1382 29.2622 15.1001 29 14 29C12.9258 29 11.9111 29.251 11 29.6851V27.8828L14.377 27.46ZM38.7402 33C37.8481 36.4868 34.7031 39 31 39C26.5889 39 23 35.4111 23 31C23 26.5889 26.5889 23 31 23C32.0571 23 33.0708 23.21 34.0298 23.605C34.021 23.729 34 23.8501 34 23.9761V33H38.7402ZM34.562 21.6582C33.4302 21.228 32.2178 21 31 21C25.4858 21 21 25.4858 21 31C21 36.5142 25.4858 41 31 41C35.8032 41 39.8662 37.6191 40.7979 33H42.8301C41.8701 38.687 36.8721 43 31 43C26.9341 43 23.231 40.9819 21 37.6021V36C21 34.1001 20.2358 32.376 19.002 31.1128C19.002 31.0752 19 31.0381 19 31C19 24.3828 24.3828 19 31 19C32.707 19 34.3799 19.3599 35.917 20.0498C35.355 20.4878 34.8892 21.0308 34.562 21.6582ZM9 39V36C9 33.2432 11.2432 31 14 31C16.7568 31 19 33.2432 19 36V39C19 41.7568 16.7568 44 14 44C11.2432 44 9 41.7568 9 39ZM14 46C14.6948 46 15.3662 45.895 16 45.7051V46.5859L14 48.5859L12 46.5859V45.7051C12.6338 45.895 13.3052 46 14 46ZM26 60H22V53H20V60H8V53H6V60H2V52.9771C2 51.6411 2.85889 50.4868 4.13818 50.103L10.7158 48.1299L14 51.4141L17.2852 48.1289L23.8628 50.1021C25.1411 50.4858 26 51.6411 26 52.9771V60ZM51 34.1172L47.623 34.54L47.4551 35.2002C47.0532 36.7759 46.4312 38.2778 45.605 39.6641L45.2559 40.251L47.3462 42.938L42.937 47.3472L40.25 45.2568L39.6631 45.606C38.2769 46.4312 36.7749 47.0532 35.1992 47.4561L34.5391 47.624L34.1172 51H27.582C27.0142 49.6729 25.896 48.625 24.436 48.187L18 46.2559V44.7358C19.3901 43.7642 20.4082 42.3008 20.8081 40.6011C23.4248 43.3921 27.0698 45 31 45C37.9629 45 43.8638 39.7979 44.8428 33H51V34.1172ZM60 31H56V24H54V31H42V24H40V31H36V23.9761C36 22.6411 36.8589 21.4858 38.1382 21.103L44.7158 19.1289L48 22.4141L51.2852 19.1289L57.8628 21.103C59.1411 21.4858 60 22.6411 60 23.9761V31Z" fill="#222222"/>
<path d="M21 0H23V2H21V0Z" fill="#222222"/>
<path d="M25 0H27V2H25V0Z" fill="#222222"/>
<path d="M0 21H2V23H0V21Z" fill="#222222"/>
<path d="M0 25H2V27H0V25Z" fill="#222222"/>
<path d="M60 39H62V41H60V39Z" fill="#222222"/>
<path d="M60 35H62V37H60V35Z" fill="#222222"/>
<path d="M39 60H41V62H39V60Z" fill="#222222"/>
<path d="M35 60H37V62H35V60Z" fill="#222222"/>
</svg>
