<svg width="62" height="62" viewBox="0 0 62 62" fill="none" xmlns="http://www.w3.org/2000/svg">
<path d="M54 31.0022H52C52 42.7333 42.5791 52.2779 31 52.2779C19.4209 52.2779 10 42.7333 10 31.0022C10 20.1621 18.0498 11.2062 28.4092 9.90617L26.293 12.0502L27.707 13.4823L32.4141 8.71347L27.707 3.94515L26.293 5.37728L28.7012 7.81709C17.0942 8.98951 8 18.9392 8 31.0022C8 43.8518 18.3169 54.3041 31 54.3041C43.6831 54.3041 54 43.8518 54 31.0022Z" fill="#222222"/>
<path d="M23.9707 0.395752L25.9312 0L26.3218 1.98717L24.3613 2.38243L23.9707 0.395752Z" fill="#222222"/>
<path d="M18.2129 2.37352L20.0605 1.59785L20.8257 3.46976L18.9785 4.24543L18.2129 2.37352Z" fill="#222222"/>
<path d="M12.9453 5.45148L14.6069 4.32606L15.7183 6.01098L14.0562 7.1359L12.9453 5.45148Z" fill="#222222"/>
<path d="M8.37256 9.51091L9.78662 8.07829L11.2012 9.51091L9.78662 10.944L8.37256 9.51091Z" fill="#222222"/>
<path d="M28 17.8316V18.9169C24.6118 19.4092 22 22.3694 22 25.9366V26.9497C22 30.8598 25.1411 34.0416 29 34.0416H33C33.5518 34.0416 34 34.4957 34 35.0547V36.0679C34 36.6273 33.5518 37.081 33 37.081H29C28.4482 37.081 28 36.6273 28 36.0679V35.0547H22V36.0679C22 39.6351 24.6118 42.5948 28 43.088V44.1729C28 45.8489 29.3462 47.2122 31 47.2122C32.6538 47.2122 34 45.8489 34 44.1729V43.088C37.3882 42.5958 40 39.6351 40 36.0679V35.0547C40 31.1452 36.8589 27.9629 33 27.9629H29C28.4482 27.9629 28 27.5092 28 26.9497V25.9366C28 25.3776 28.4482 24.9235 29 24.9235H33C33.5518 24.9235 34 25.3776 34 25.9366V26.9497H40V25.9366C40 22.3694 37.3882 19.4102 34 18.9169V17.8316C34 16.1561 32.6538 14.7922 31 14.7922C29.3462 14.7922 28 16.1561 28 17.8316ZM32 17.8316V20.871H33C35.415 20.871 37.4351 22.6148 37.8989 24.9235H35.8291C35.416 23.7446 34.3042 22.8972 33 22.8972H29C27.3462 22.8972 26 24.2611 26 25.9366V26.9497C26 28.6257 27.3462 29.9891 29 29.9891H33C35.7568 29.9891 38 32.2617 38 35.0547V36.0679C38 38.8614 35.7568 41.1335 33 41.1335H32V44.1729C32 44.7323 31.5518 45.186 31 45.186C30.4482 45.186 30 44.7323 30 44.1729V41.1335H29C26.585 41.1335 24.5649 39.3902 24.1011 37.081H26.1709C26.584 38.2603 27.6958 39.1072 29 39.1072H33C34.6538 39.1072 36 37.7439 36 36.0679V35.0547C36 33.3792 34.6538 32.0154 33 32.0154H29C26.2432 32.0154 24 29.7432 24 26.9497V25.9366C24 23.1436 26.2432 20.871 29 20.871H30V17.8316C30 17.2726 30.4482 16.8185 31 16.8185C31.5518 16.8185 32 17.2726 32 17.8316Z" fill="#222222"/>
<path d="M8.55615 12.3954L7.00879 11.1107C2.48877 16.7012 0 23.7649 0 31.0022C0 38.7426 2.8042 46.1778 7.89502 51.941L9.38477 50.589C4.62305 45.1993 2 38.2435 2 31.0022C2 24.2319 4.32812 17.6243 8.55615 12.3954Z" fill="#222222"/>
<path d="M35.6777 60.0138L37.6382 59.6181L38.0288 61.6043L36.0684 62L35.6777 60.0138Z" fill="#222222"/>
<path d="M41.1719 58.5342L43.0195 57.7585L43.7847 59.6304L41.9375 60.4061L41.1719 58.5342Z" fill="#222222"/>
<path d="M46.2778 55.9925L47.9395 54.8676L49.0508 56.552L47.3887 57.6774L46.2778 55.9925Z" fill="#222222"/>
<path d="M50.7983 52.495L52.2124 51.0619L53.6265 52.495L52.2124 53.9277L50.7983 52.495Z" fill="#222222"/>
<path d="M54.105 10.064L52.6152 11.416C57.377 16.8056 60 23.7614 60 31.0022C60 37.774 57.6719 44.3816 53.4438 49.6105L54.9912 50.8952C59.5112 45.3047 62 38.241 62 31.0022C62 23.2623 59.1958 15.8266 54.105 10.064Z" fill="#222222"/>
</svg>
