<svg width="62" height="62" viewBox="0 0 62 62" fill="none" xmlns="http://www.w3.org/2000/svg">
<path d="M59 31C58.061 31 57.1631 31.4482 56.6011 32.2002L51.4551 39.0601L45.937 39.75L46.3662 39.1768C46.7749 38.6328 47 37.957 47 37.2769V37.168C47 35.4209 45.5791 34 43.832 34C43.0469 34 42.2939 34.2891 41.7129 34.813L34.3169 41.4692C32.8452 42.7939 32 44.6899 32 46.6719V52H30V46.6719C30 44.6909 29.1548 42.7939 27.6831 41.4702L20.2881 34.8149C19.7061 34.2891 18.9531 34 18.168 34C16.4209 34 15 35.4209 15 37.168V37.2769C15 37.958 15.2251 38.6328 15.6338 39.1768L16.063 39.75L10.5449 39.0601L5.39893 32.2002C4.83691 31.4482 3.93896 31 3 31C1.34619 31 0 32.3462 0 34V34.395C0 34.9888 0.173828 35.5649 0.503906 36.0591L6.38721 44.8828C7.68799 46.835 9.86621 48 12.2109 48H15.6758C17.8311 48 19.7378 49.374 20.4189 51.4189L20.6128 52H19V62H43V52H41.3872L41.5811 51.4189C42.2632 49.374 44.1689 48 46.3242 48H49.7891C52.1338 48 54.311 46.835 55.6128 44.8828L61.4961 36.0591C61.8262 35.5649 62 34.9888 62 34.395V34C62 32.3462 60.6538 31 59 31ZM22.3149 50.7861C21.3618 47.9238 18.6929 46 15.6758 46H12.2109C10.5361 46 8.98096 45.168 8.05078 43.7729L2.16797 34.9492C2.05811 34.7842 2 34.5928 2 34.395V34C2 33.4482 2.44824 33 3 33C3.31299 33 3.61182 33.1489 3.7998 33.3989L9.45508 40.939L17.731 41.9741L18.2002 42.6001L19.7998 41.4009L17.2339 37.979C17.083 37.7769 17 37.5278 17 37.2769V37.168C17 36.5239 17.5239 36 18.168 36C18.457 36 18.7339 36.106 18.9492 36.2998L26.3452 42.9561C27.396 43.9019 28 45.2568 28 46.6719V52H22.7202L22.3149 50.7861ZM21 60V58H26V56H21V54H30V56H28V58H30V60H21ZM32 60V58H34V56H32V54H41V56H36V58H41V60H32ZM60 34.395C60 34.5928 59.9419 34.7852 59.832 34.9502L53.9492 43.7739C53.02 45.168 51.4639 46 49.7891 46H46.3242C43.3062 46 40.6372 47.9238 39.6841 50.7861L39.2798 52H34V46.6719C34 45.2568 34.604 43.9019 35.6548 42.9561L43.0508 36.2988C43.2661 36.106 43.543 36 43.832 36C44.4761 36 45 36.5239 45 37.168V37.2769C45 37.5278 44.917 37.7769 44.7671 37.978L42.2002 41.3999L43.7998 42.5991L44.269 41.9731L52.5449 40.938L58.2002 33.3979C58.3882 33.1489 58.687 33 59 33C59.5518 33 60 33.4482 60 34V34.395Z" fill="#222222"/>
<path d="M59 30V26.772C59 24.7002 57.6958 22.8179 55.7559 22.0889L51 20.3071V19.46C51.7568 18.7808 52.3398 17.915 52.6748 16.9321C54.5591 16.6089 56 14.9751 56 13V9C56 4.03711 51.9629 0 47 0C43.5659 0 40.5771 1.93506 39.061 4.77002C37.6279 1.94482 34.7031 0 31.3242 0C29.605 0 27.9399 0.503906 26.5122 1.45703L25.5508 2.09814C24.3408 2.53613 23.3721 3.38477 22.75 4.44678C21.1841 1.79102 18.3008 0 15 0C10.0371 0 6 4.03711 6 9V13C6 14.9751 7.44092 16.6089 9.3252 16.9321C9.66016 17.9141 10.2432 18.7798 11 19.46V20.3071L6.24414 22.0898C4.3042 22.8179 3 24.7002 3 26.772V30H59ZM41 28H37V26H35V28H27V26H25V28H21V26.772C21 25.5278 21.7822 24.3989 22.9468 23.9619L27.6499 22.2002L31 26.667L34.3501 22.2002L39.0532 23.9629C40.2178 24.3989 41 25.5278 41 26.772V28ZM11 15V10.9292C12.73 10.77 14.397 10.2271 15.8711 9.28516L15.8789 9.29297C16.7261 10.1401 17.8281 10.7002 19 10.9072V15C19 17.2061 17.2061 19 15 19C12.7939 19 11 17.2061 11 15ZM43 20.3071L39 21.8071L35 20.3071V19.46C35.7568 18.7808 36.3398 17.915 36.6748 16.9321C37.6001 16.7729 38.4082 16.2959 39 15.6182C39.5918 16.2959 40.3999 16.7729 41.3252 16.9321C41.6602 17.9141 42.2432 18.7798 43 19.46V20.3071ZM29 20.6499C29.627 20.873 30.2979 21 31 21C31.7021 21 32.373 20.8721 33 20.6499V20.667L31 23.333L29 20.667V20.6499ZM41 14.7222C40.4048 14.375 40 13.7368 40 13C40 12.2632 40.4048 11.625 41 11.2778V14.7222ZM37 14.7222V11.2788C37.5952 11.626 38 12.2642 38 13.001C38 13.7378 37.5952 14.375 37 14.7222ZM35 15C35 17.2061 33.2061 19 31 19C28.7939 19 27 17.2061 27 15V11H35V15ZM25 14.7222C24.4048 14.375 24 13.7368 24 13C24 12.2632 24.4048 11.625 25 11.2778V14.7222ZM21 11.2778C21.5952 11.625 22 12.2632 22 13C22 13.7368 21.5952 14.375 21 14.7222V11.2778ZM19 19.46C19.7568 18.7808 20.3398 17.915 20.6748 16.9321C21.6001 16.7729 22.4082 16.2959 23 15.6182C23.5918 16.2959 24.3999 16.7729 25.3252 16.9321C25.6602 17.9141 26.2432 18.7798 27 19.46V20.3071L23 21.8071L19 20.3071V19.46ZM57 26.772V28H53V26H51V28H43V26.772C43 25.335 42.3638 24 41.333 23.0669L43.251 22.3481C43.8071 23.8901 45.269 25 47 25C48.73 25 50.1929 23.8901 50.749 22.3491L55.0518 23.9629C56.2178 24.3989 57 25.5278 57 26.772ZM49 21C49 22.103 48.103 23 47 23C45.897 23 45 22.103 45 21V20.6499C45.627 20.873 46.2979 21 47 21C47.7021 21 48.373 20.8721 49 20.6499V21ZM47 19C44.7939 19 43 17.2061 43 15V10.9292C44.73 10.77 46.397 10.2271 47.8711 9.28516L47.8789 9.29297C48.7261 10.1401 49.8281 10.7002 51 10.9072V15C51 17.2061 49.2061 19 47 19ZM53 14.7222V11.2788C53.5952 11.626 54 12.2642 54 13.001C54 13.7378 53.5952 14.375 53 14.7222ZM47 2C50.8589 2 54 5.14111 54 9V9.55615C53.4092 9.21191 52.7319 9 52 9C50.9922 9 50.0059 8.5918 49.293 7.87891L48.127 6.71289L46.9409 7.50391C45.4731 8.48193 43.7642 9 42 9C41.2681 9 40.5908 9.21191 40 9.55615V9C40 5.14111 43.1411 2 47 2ZM24 7.16211C24 5.70215 24.9312 4.41113 26.3159 3.94824L27.6211 3.12109C28.7212 2.38818 30.001 2 31.3242 2C35.0049 2 38 4.99512 38 8.67578V9.55615C37.4092 9.21191 36.7319 9 36 9H26C25.2681 9 24.5908 9.21191 24 9.55615V7.16211ZM15 2C18.8589 2 22 5.14111 22 9V9.55615C21.4092 9.21191 20.7319 9 20 9C18.9922 9 18.0059 8.5918 17.293 7.87891L16.127 6.71289L14.9409 7.50391C13.4731 8.48193 11.7642 9 10 9C9.26807 9 8.59082 9.21191 8 9.55615V9C8 5.14111 11.1411 2 15 2ZM8 13C8 12.2632 8.40479 11.625 9 11.2778V14.7212C8.40479 14.375 8 13.7368 8 13ZM15 21C15.7021 21 16.373 20.8721 17 20.6499V21C17 22.103 16.103 23 15 23C13.897 23 13 22.103 13 21V20.6499C13.627 20.8721 14.2979 21 15 21ZM11 28V26H9V28H5V26.772C5 25.5278 5.78223 24.3989 6.94678 23.9619L11.25 22.3481C11.8071 23.8901 13.27 25 15 25C16.73 25 18.1929 23.8901 18.749 22.3491L20.666 23.0679C19.6362 24.001 19 25.3359 19 26.772V28H11Z" fill="#222222"/>
</svg>
