<svg width="62" height="62" viewBox="0 0 62 62" fill="none" xmlns="http://www.w3.org/2000/svg">
<path d="M62 31C62 13.907 48.093 0 31 0C25.641 0 20.42 1.388 15.791 4H12V0H6V12.687C2.08 18.027 0 24.347 0 31C0 48.094 13.907 62 31 62C34.809 62 38.527 61.315 42.052 59.969C44.064 61.248 46.444 62 49 62C52.118 62 55.134 60.879 57.492 58.844L56.185 57.33C54.19 59.052 51.639 60 49 60C42.935 60 38 55.065 38 49C38 42.935 42.935 38 49 38C55.065 38 60 42.935 60 49C60 51.535 59.162 53.918 57.575 55.891L59.134 57.145C60.982 54.846 62 51.954 62 49C62 46.442 61.247 44.062 59.967 42.049C61.312 38.523 62 34.809 62 31ZM16 10H18V24H16V10ZM12 6H14V24H12V6ZM8 2H10V24H8V2ZM30 59.975C14.804 59.456 2.544 47.196 2.025 32H30V59.975ZM30 30H2.04C2.203 25.132 3.555 20.48 6 16.333V26H28V16H24V12H20V8H16V6.192C20.231 3.628 25.039 2.205 30 2.035V30ZM20 24V14H22V24H20ZM24 24V18H26V24H24ZM59.975 30H51.414L58.768 22.646C59.474 24.987 59.888 27.452 59.975 30ZM54.936 14.65L43.767 25.819L45.181 27.233L56.031 16.383C56.807 17.707 57.48 19.097 58.042 20.544L48.586 30H42.414L43.707 28.707L42.293 27.293L39.586 30H33.414L52.187 11.227C53.185 12.297 54.106 13.439 54.936 14.65ZM32 2.025C34.548 2.112 37.013 2.526 39.354 3.232L32 10.586V2.025ZM32 22.414L44.153 10.261L42.739 8.847L32 19.586V13.414L41.456 3.958C42.903 4.519 44.293 5.192 45.617 5.969L44.006 7.58L45.42 8.994L47.35 7.064C48.561 7.894 49.703 8.814 50.773 9.813L32 28.586V22.414ZM49 36C41.832 36 36 41.832 36 49C36 52.761 37.615 56.143 40.176 58.519C37.541 59.398 34.8 59.883 32 59.977V32H59.977C59.883 34.799 59.394 37.538 58.516 40.173C56.14 37.613 52.759 36 49 36Z" fill="#222222"/>
<path d="M24.2973 36.2929L12.2972 48.293L13.7114 49.7072L25.7115 37.7071L24.2973 36.2929Z" fill="#222222"/>
<path d="M23 44C21.346 44 20 45.346 20 47C20 48.654 21.346 50 23 50C24.654 50 26 48.654 26 47C26 45.346 24.654 44 23 44ZM23 48C22.449 48 22 47.552 22 47C22 46.448 22.449 46 23 46C23.551 46 24 46.448 24 47C24 47.552 23.551 48 23 48Z" fill="#222222"/>
<path d="M15 36C13.346 36 12 37.346 12 39C12 40.654 13.346 42 15 42C16.654 42 18 40.654 18 39C18 37.346 16.654 36 15 36ZM15 40C14.449 40 14 39.552 14 39C14 38.448 14.449 38 15 38C15.551 38 16 38.448 16 39C16 39.552 15.551 40 15 40Z" fill="#222222"/>
<path d="M49 48C47.897 48 47 47.103 47 46C47 44.897 47.897 44 49 44C50.103 44 51 44.897 51 46H53C53 44.141 51.72 42.589 50 42.142V40H48V42.142C46.28 42.589 45 44.141 45 46C45 48.206 46.794 50 49 50C50.103 50 51 50.897 51 52C51 53.103 50.103 54 49 54C47.897 54 47 53.103 47 52H45C45 53.859 46.28 55.411 48 55.858V58H50V55.858C51.72 55.411 53 53.859 53 52C53 49.794 51.206 48 49 48Z" fill="#222222"/>
<path d="M58 48H56V50H58V48Z" fill="#222222"/>
<path d="M42 48H40V50H42V48Z" fill="#222222"/>
</svg>
