<svg width="55" height="62" viewBox="0 0 55 62" fill="none" xmlns="http://www.w3.org/2000/svg">
<path d="M51.862 49.639C50.775 44.476 46.721 40.512 41.537 39.54L37.519 38.787L37.274 38.714L37.266 38.74L34.232 38.17V36.647C41.439 33.788 46.232 26.785 46.232 19C46.232 8.523 37.709 0 27.232 0C16.755 0 8.232 8.523 8.232 19C8.232 26.785 13.025 33.788 20.232 36.646V38.169L17.198 38.738L17.19 38.712L16.945 38.785L12.927 39.538C7.742 40.51 3.689 44.475 2.602 49.637L0 62H54.465L51.862 49.639ZM36.689 40.665L34.616 47.574L29.515 45.023L33.625 40.091L36.689 40.665ZM32.232 36.954V38.638L27.763 44H26.701L22.232 38.638V36.954H32.232ZM23.232 17H21.232C20.129 17 19.232 16.103 19.232 15C19.232 13.897 20.129 13 21.232 13C22.335 13 23.232 13.897 23.232 15V17ZM30.312 25L31.142 34.954H23.322L24.152 25H30.312ZM25.232 23V19H29.232V23H25.232ZM27.232 46.118L30.44 47.722L28.732 50H25.732L24.024 47.722L27.232 46.118ZM10.232 19C10.232 9.626 17.858 2 27.232 2C36.606 2 44.232 9.626 44.232 19C44.232 26.088 39.785 32.445 33.144 34.912L32.152 23H31.232V19H33.232C35.438 19 37.232 17.206 37.232 15C37.232 12.794 35.438 11 33.232 11C31.026 11 29.232 12.794 29.232 15V17H25.232V15C25.232 12.794 23.438 11 21.232 11C19.026 11 17.232 12.794 17.232 15C17.232 17.206 19.026 19 21.232 19H23.232V23H22.312L21.32 34.912C14.679 32.445 10.232 26.088 10.232 19ZM31.232 17V15C31.232 13.897 32.129 13 33.232 13C34.335 13 35.232 13.897 35.232 15C35.232 16.103 34.335 17 33.232 17H31.232ZM20.839 40.091L24.949 45.023L19.848 47.574L17.776 40.666L20.839 40.091ZM22.412 60H11.385L12.222 54.142L10.242 53.859L9.364 60H2.464L4.559 50.051C5.479 45.682 8.909 42.328 13.296 41.506L15.798 41.037L18.615 50.427L22.205 48.632L24.163 51.243L22.412 60ZM24.452 60L26.052 52H28.412L30.012 60H24.452ZM44.223 53.858L42.243 54.141L43.079 60H32.052L30.301 51.242L32.259 48.631L35.849 50.426L38.666 41.036L41.168 41.505C45.555 42.328 48.985 45.682 49.905 50.051L52 60H45.1L44.223 53.858Z" fill="#222222"/>
<path d="M27.232 6V4C20.643 4 14.731 8.406 12.854 14.715L14.77 15.285C16.397 9.818 21.522 6 27.232 6Z" fill="#222222"/>
<path d="M12.232 18.9998H14.232C14.232 18.3748 14.276 17.7498 14.364 17.1418L12.384 16.8578C12.283 17.5598 12.232 18.2798 12.232 18.9998Z" fill="#222222"/>
</svg>
