<svg width="20" height="18" viewBox="0 0 20 18" fill="none" xmlns="http://www.w3.org/2000/svg">
<path d="M19.457 0.111C19.125 -0.0600001 18.7241 -0.0309844 18.419 0.186985L12.014 4.76101L8.60003 2.19999C8.22503 1.91799 7.70603 1.93599 7.35001 2.241L2.00002 6.82501V0H0V16.999C0 17.551 0.447001 17.999 0.999986 17.999H19C19.553 17.999 20 17.551 20 16.999V0.999986C20 0.626017 19.791 0.282985 19.457 0.111ZM18 15.999H6.00001L7.43603 14.085L12.836 14.986C12.945 15.004 13.055 15.004 13.164 14.986L18 14.179V15.999ZM18 12.153L13 12.986L7.16401 12.0131C6.79501 11.951 6.42399 12.1001 6.20003 12.3991L3.50002 15.9991H2.00002V13.467L7.18201 9.14903L11.629 10.927C11.875 11.026 12.15 11.021 12.395 10.918L18 8.51603V12.153ZM18 6.33901L11.986 8.91601L7.37101 7.07003C7.03103 6.93404 6.64201 6.99503 6.35903 7.23001L2.00002 10.865V9.45902L8.04203 4.28101L11.4 6.799C11.748 7.06098 12.226 7.06698 12.581 6.81301L18 2.943V6.33901Z" fill="#595959"/>
</svg>
