<svg width="24" height="24" viewBox="0 0 24 24" fill="none" xmlns="http://www.w3.org/2000/svg">
<path d="M8.99998 21V19.95C10.14 19.717 11 18.707 11 17.5C11 16.122 9.878 15 8.50001 15H7.49998C7.22398 15 6.99997 14.776 6.99997 14.5C6.99997 14.225 7.22398 14 7.49998 14H9.305C8.528 13.1339 7.919 12.119 7.523 11H7.00001V12.05C5.86001 12.2819 5 13.292 5 14.5C5 15.879 6.122 17 7.49998 17H8.49997C8.77597 17 8.99998 17.225 8.99998 17.5C8.99998 17.776 8.77597 18 8.49997 18H4.99995V20H6.99997V21H8.99998Z" fill="#0939A8"/>
<path d="M8.00002 3H5.00002V2.00002H9V0H3.99998C3.44798 0 3 0.447984 3 0.999984V3H0L3.99998 6.99998L8.00002 3Z" fill="#0939A8"/>
<path d="M16 21H19V22H15V24H20C20.552 24 21 23.552 21 23V21H24L20 17L16 21Z" fill="#0939A8"/>
<path d="M16 16C20.411 16 24 12.411 24 7.99997C24 3.58894 20.411 0 16 0C11.589 0 8.00003 3.59002 8.00003 8.00002C8.00003 12.412 11.589 16 16 16ZM15 13.911C13.553 13.666 12.279 12.909 11.38 11.825L13.151 10.802C13.651 11.31 14.289 11.675 15 11.859L15 13.911ZM17 13.911V11.859C17.711 11.674 18.35 11.31 18.85 10.801L20.621 11.823C19.722 12.908 18.447 13.666 17 13.911ZM22 8.00002C22 8.73502 21.861 9.43702 21.618 10.088L19.839 9.06103C19.933 8.72203 20 8.37005 20 8.00002C20 7.63003 19.934 7.28002 19.839 6.939L21.618 5.91098C21.861 6.564 22 7.266 22 8.00002ZM17 2.091C18.447 2.33498 19.722 3.093 20.621 4.17802L18.85 5.20102C18.35 4.692 17.711 4.32703 17 4.14202V2.091ZM18 8.00002C18 9.10303 17.103 10 16 10C14.897 10 14 9.10303 14 8.00002C14 6.897 14.897 6 16 6C17.103 6 18 6.89798 18 8.00002ZM15 2.091V4.143C14.289 4.32802 13.65 4.692 13.15 5.202L11.379 4.179C12.278 3.093 13.553 2.33498 15 2.091ZM10.382 5.91202L12.161 6.939C12.067 7.27898 12 7.63102 12 8.00002C12 8.37103 12.067 8.72302 12.162 9.06202L10.383 10.09C10.14 9.43805 10 8.73605 10 8.00002C10 7.266 10.139 6.564 10.382 5.91202Z" fill="#0939A8"/>
<path d="M13.947 16.756C13.574 19.708 11.052 22 8.00002 22C4.69102 22 2.00002 19.309 2.00002 16C2.00002 12.948 4.29202 10.426 7.24401 10.053C7.095 9.41496 7.00903 8.75195 7.00303 8.06898C3.06202 8.56295 0 11.928 0 16C0 20.411 3.58898 24 8.00002 24C12.073 24 15.438 20.938 15.931 16.997C15.248 16.992 14.586 16.905 13.947 16.756Z" fill="#0939A8"/>
</svg>
