<svg width="438" height="371" viewBox="0 0 438 371" fill="none" xmlns="http://www.w3.org/2000/svg">
<path d="M436.329 211.096L301.935 131.588L284.594 142.137L231.681 112.266L194.108 123.704L240.574 151.576L200 159.349L165.984 141.915L135.859 154.574L182.77 186.555L168.652 195.994L319.609 282.83L355.181 259.844L329.836 239.634L365.408 220.756L395.644 236.858L430.438 224.199L419.321 217.98L436.329 211.096Z" fill="#C4C4C4"/>
<path d="M421.325 110.711L421.214 110.822L420.435 111.378L418.101 113.376L388.421 94.2768L366.411 81.8399L330.395 61.4077L308.385 48.8597L272.368 28.4275L250.247 15.9906L244.355 12.5482L246.801 10.7715L247.579 11.2157L269.589 23.6526L305.605 43.8627L327.615 56.2997L363.632 76.5097L385.642 88.8357L415.211 106.825L421.325 110.711Z" fill="#969696"/>
<path d="M418.101 113.377L423.214 145.024L394.757 130.922L372.747 118.374L336.731 97.7194L314.61 85.1713L278.593 64.6281L256.583 51.9691L244.355 44.9733V12.5483L250.247 15.9907L272.368 28.4277L308.385 48.8598L330.395 61.4079L366.411 81.84L388.421 94.277L418.101 113.377Z" fill="#CCCCCC"/>
<path d="M421.327 110.711L423.995 127.035V127.146L426.218 142.47L423.217 145.024L418.104 113.377L420.438 111.378L421.327 110.711Z" fill="#B7B7B7"/>
<path d="M256.583 51.9691L244.355 44.9733V12.5483L250.247 15.9907L256.583 51.9691Z" fill="#DD4D14"/>
<path d="M314.609 85.1709L278.592 64.6277L272.367 28.4272L308.384 48.8594L314.609 85.1709Z" fill="#DD4D14"/>
<path d="M372.747 118.373L336.731 97.7192L330.395 61.4077L366.411 81.8399L372.747 118.373Z" fill="#DD4D14"/>
<path d="M418.102 113.376L423.215 145.024L394.758 130.921L388.422 94.2769L418.102 113.376Z" fill="#DD4D14"/>
<path d="M250.247 15.9906L244.355 12.5482L246.801 10.7715L247.579 11.2157L250.247 15.9906Z" fill="#B23012"/>
<path d="M308.385 48.8599L272.369 28.4277L269.59 23.6528L305.606 43.8629L308.385 48.8599Z" fill="#B23012"/>
<path d="M366.413 81.84L330.396 61.4079L327.617 56.2998L363.634 76.5099L366.413 81.84Z" fill="#B23012"/>
<path d="M421.327 110.823L423.995 127.035V127.146L426.218 142.47L423.217 145.024L418.104 113.377L420.438 111.378L421.216 110.823H421.327Z" fill="#B23012"/>
<path d="M421.212 110.822L420.434 111.377L418.1 113.376L388.42 94.2766L385.641 88.8354L415.21 106.825L421.212 110.822Z" fill="#B23012"/>
<path d="M432.997 162.791V162.903L432.219 163.458L429.884 165.457L400.204 146.357L378.083 133.809L342.067 113.488L320.057 100.94L284.04 80.5076L262.03 67.9596L256.139 64.6283L258.584 62.8516L259.362 63.2957L281.372 75.7327L317.278 95.9428L339.399 108.269L375.304 128.59L397.314 140.916L426.883 158.905L432.997 162.791Z" fill="#969696"/>
<path d="M429.884 165.457L434.998 197.104L406.54 183.002L384.419 170.454L348.514 149.799L326.393 137.251L290.376 116.708L268.366 104.049L256.139 97.0534V64.6284L262.03 67.9597L284.04 80.5078L320.057 100.94L342.067 113.488L378.083 133.809L400.204 146.357L429.884 165.457Z" fill="#CCCCCC"/>
<path d="M432.997 162.792L435.776 179.115V179.226L438 194.55L434.998 197.104L429.885 165.457L432.219 163.458L432.997 162.792Z" fill="#B7B7B7"/>
<path d="M268.366 104.049L256.139 97.0534V64.6284L262.03 67.9597L268.366 104.049Z" fill="#DD4D14"/>
<path d="M326.392 137.251L290.375 116.708L284.039 80.5078L320.055 100.94L326.392 137.251Z" fill="#DD4D14"/>
<path d="M384.421 170.454L348.516 149.799L342.068 113.488L378.085 133.809L384.421 170.454Z" fill="#DD4D14"/>
<path d="M429.883 165.457L434.997 197.105L406.539 183.002L400.203 146.357L429.883 165.457Z" fill="#DD4D14"/>
<path d="M262.03 67.9596L256.139 64.6283L258.584 62.8516L259.362 63.2957L262.03 67.9596Z" fill="#B23012"/>
<path d="M320.055 100.94L284.039 80.5078L281.371 75.7329L317.276 95.943L320.055 100.94Z" fill="#B23012"/>
<path d="M378.083 133.809L342.066 113.488L339.398 108.269L375.304 128.59L378.083 133.809Z" fill="#B23012"/>
<path d="M432.997 162.903L435.776 179.115V179.226L438 194.55L434.998 197.104L429.885 165.457L432.219 163.458L432.997 162.903Z" fill="#B23012"/>
<path d="M432.995 162.902L432.217 163.458L429.883 165.456L400.203 146.357L397.312 140.916L426.881 158.905L432.995 162.902Z" fill="#B23012"/>
<path d="M433.774 210.762L430.884 212.317L424.103 208.652L380.861 84.7266L389.421 85.5039L433.774 210.762Z" fill="#AAAAAA"/>
<path d="M433.775 210.762L430.885 212.317L386.42 86.0591L389.421 85.5039L433.775 210.762Z" fill="#939393"/>
<path d="M306.718 138.139L303.827 139.693L297.047 136.029L253.805 12.1035L262.364 12.8808L306.718 138.139Z" fill="#AAAAAA"/>
<path d="M306.718 138.139L303.828 139.694L259.363 13.4366L262.365 12.8813L306.718 138.139Z" fill="#939393"/>
<path d="M194 183.556L253.471 10.105L259.474 13.4363L201.114 187.554L194 183.556Z" fill="#B7B7B7"/>
<path d="M201.115 187.554L204.117 187.221L262.365 12.8813L259.475 13.4366L201.115 187.554Z" fill="#939393"/>
<path d="M253.471 10.105L256.139 9.5498L262.364 12.8811L259.473 13.4364L253.471 10.105Z" fill="#6D6D6D"/>
<path d="M320.943 256.179L380.415 82.728L386.529 86.0594L328.058 260.177L320.943 256.179Z" fill="#B7B7B7"/>
<path d="M328.059 260.177L331.06 259.844L389.309 85.3931L386.53 86.0593L328.059 260.177Z" fill="#939393"/>
<path d="M380.414 82.7281L383.082 82.1729L389.307 85.3931L386.528 86.0594L380.414 82.7281Z" fill="#6D6D6D"/>
<path d="M394.979 130.144L385.641 163.568L381.306 161.458L364.076 151.353L322.835 127.368L305.605 117.262L264.364 93.2769L247.134 83.1719L218.565 66.5152C217.454 66.5152 223.345 31.2031 223.345 31.2031L240.353 41.1971L257.583 51.3021L298.824 75.3988L316.054 85.5038L357.295 109.6L374.525 119.705L394.979 130.144Z" fill="#EDEDED"/>
<path d="M399.426 128.478L389.421 162.569L385.753 163.568C385.642 163.457 395.09 130.144 395.09 130.144L399.426 128.478Z" fill="#B7B7B7"/>
<path d="M399.427 128.478L394.981 130.144L374.527 119.595L357.297 109.49L316.056 85.393L298.715 75.288L257.585 51.1914L240.244 41.1974L223.236 31.2034L226.571 29.2046L234.797 33.9795L252.027 43.9735L293.268 67.848L310.498 77.842L351.739 101.717L368.969 111.711L399.427 128.478Z" fill="#B7B7B7"/>
<path d="M247.134 83.1719L218.565 66.5152C217.454 66.5152 223.345 31.2031 223.345 31.2031L240.353 41.1971L247.134 83.1719Z" fill="#ED701B"/>
<path d="M305.604 117.262L264.363 93.1657L257.582 51.1909L298.712 75.2875L305.604 117.262Z" fill="#ED701B"/>
<path d="M364.078 151.353L322.838 127.256L316.057 85.3926L357.298 109.489L364.078 151.353Z" fill="#ED701B"/>
<path d="M394.979 130.143L385.642 163.568L381.306 161.347L374.525 119.594L394.979 130.143Z" fill="#ED701B"/>
<path d="M240.244 41.1974L223.236 31.2034L226.571 29.2046L234.797 33.9795L240.244 41.1974Z" fill="#D36113"/>
<path d="M298.713 75.2877L257.583 51.191L252.025 43.9731L293.266 67.8477L298.713 75.2877Z" fill="#D36113"/>
<path d="M357.297 109.489L316.056 85.3928L310.498 77.8418L351.739 101.716L357.297 109.489Z" fill="#D36113"/>
<path d="M399.426 128.478L389.421 162.569L385.753 163.568C385.642 163.457 395.09 130.144 395.09 130.144L399.426 128.478Z" fill="#BC5917"/>
<path d="M399.425 128.478L394.979 130.143L374.525 119.594L368.967 111.71L399.425 128.478Z" fill="#D36113"/>
<path d="M371.078 184.112L361.741 217.536L357.406 215.427L340.176 205.322L298.935 181.225L281.705 171.12L240.464 147.134L223.234 137.029L194.665 120.373C193.553 120.373 199.445 85.0605 199.445 85.0605L216.453 95.0545L233.683 105.16L274.924 129.256L292.154 139.361L333.395 163.458L350.625 173.563L371.078 184.112Z" fill="#EDEDED"/>
<path d="M375.525 182.446L365.521 216.536L361.853 217.536C361.741 217.425 371.19 184.111 371.19 184.111L375.525 182.446Z" fill="#B7B7B7"/>
<path d="M375.527 182.446L371.081 184.112L350.627 173.562L333.397 163.457L292.156 139.361L274.815 129.256L233.685 105.159L216.344 95.0541L199.336 85.1712L202.671 83.1724L210.897 87.9473L228.127 97.9413L269.368 121.816L286.598 131.81L327.839 155.684L345.069 165.567L375.527 182.446Z" fill="#B7B7B7"/>
<path d="M223.124 137.139L194.556 120.483C193.444 120.483 199.336 85.1704 199.336 85.1704L216.343 95.1644L223.124 137.139Z" fill="#ED701B"/>
<path d="M281.705 171.119L240.464 147.133L233.684 105.158L274.813 129.255L281.705 171.119Z" fill="#ED701B"/>
<path d="M340.178 205.209L298.937 181.223L292.156 139.359L333.397 163.456L340.178 205.209Z" fill="#ED701B"/>
<path d="M371.079 184.111L361.741 217.424L357.406 215.314L350.625 173.562L371.079 184.111Z" fill="#ED701B"/>
<path d="M216.344 95.0536L199.336 85.1707L202.671 83.1719L210.897 87.9468L216.344 95.0536Z" fill="#D36113"/>
<path d="M274.815 129.255L233.685 105.159L228.127 97.9409L269.368 121.815L274.815 129.255Z" fill="#D36113"/>
<path d="M333.397 163.457L292.156 139.361L286.598 131.81L327.839 155.684L333.397 163.457Z" fill="#D36113"/>
<path d="M375.525 182.446L365.521 216.536L361.853 217.536C361.741 217.425 371.19 184.111 371.19 184.111L375.525 182.446Z" fill="#BC5917"/>
<path d="M375.525 182.446L371.078 184.112L350.624 173.563L345.066 165.567L375.525 182.446Z" fill="#D36113"/>
<path d="M265.252 5.88535C265.252 9.66086 263.696 12.6591 261.584 12.8811C261.472 12.8811 261.473 12.8811 261.361 12.8811C259.249 12.8811 257.471 9.7719 257.471 5.88535C257.471 5.33013 257.471 4.77491 257.582 4.21968C258.026 1.44358 259.472 0 261.361 0C261.473 0 261.472 0 261.584 0C263.251 0.111044 264.696 1.55462 265.03 4.21968C265.252 4.77491 265.252 5.33013 265.252 5.88535Z" fill="#4C4C4C"/>
<path d="M261.698 0.111328V12.8814H255.361L255.584 4.33101V0.111328H261.698Z" fill="#4C4C4C"/>
<path d="M265.142 4.33101H255.582V0.111328H261.696C263.363 0.222372 264.808 1.66595 265.142 4.33101Z" fill="#6D6D6D"/>
<path d="M259.473 5.88535C259.473 9.7719 257.694 12.8811 255.582 12.8811C253.47 12.8811 251.691 9.7719 251.691 5.88535C251.691 1.9988 253.47 0 255.582 0C257.694 0 259.473 2.10984 259.473 5.88535Z" fill="#6D6D6D"/>
<path d="M259.029 5.99691C259.029 9.43929 257.472 12.2154 255.583 12.2154C253.693 12.2154 252.137 9.43929 252.137 5.99691C252.137 2.55454 253.693 0.777832 255.583 0.777832C257.472 0.777832 259.029 2.55454 259.029 5.99691Z" fill="#B7B7B7"/>
<path d="M258.252 6.10718C258.252 7.43971 257.918 8.55015 257.474 9.43851C257.029 10.3269 256.362 10.9931 255.584 10.9931C254.139 10.9931 252.916 8.77224 252.916 6.10718C252.916 4.33047 253.472 3.10898 254.25 2.44271C254.695 2.10958 255.139 1.99854 255.584 1.99854C257.029 1.99854 258.252 3.33107 258.252 6.10718Z" fill="#B23012"/>
<path d="M258.251 6.10718C258.251 7.43971 257.918 8.55015 257.473 9.43851C257.14 9.66059 256.806 9.77164 256.473 9.77164C255.027 9.77164 253.805 7.55075 253.805 4.88569C253.805 3.88629 254.027 2.99794 254.249 2.44271C254.694 2.10958 255.139 1.99854 255.583 1.99854C257.028 1.99854 258.251 3.33107 258.251 6.10718Z" fill="#DD4D14"/>
<path d="M393.646 78.1752C393.646 82.1728 391.867 85.5042 389.755 85.7262C389.644 85.7262 389.533 85.7262 389.533 85.7262C387.198 85.7262 385.309 82.2839 385.309 78.1752C385.309 77.509 385.42 76.9537 385.42 76.3985C385.864 73.4003 387.532 71.8457 389.422 71.8457C389.533 71.8457 389.644 71.8457 389.644 71.8457C391.534 71.9567 392.979 73.5114 393.423 76.3985C393.535 76.9537 393.646 77.509 393.646 78.1752Z" fill="#4C4C4C"/>
<path d="M389.644 71.8457V85.7262H382.863L382.974 76.3985L383.086 71.8457H389.644Z" fill="#4C4C4C"/>
<path d="M393.424 76.3985H382.975L383.086 71.8457H389.644C391.534 71.9567 393.09 73.5114 393.424 76.3985Z" fill="#6D6D6D"/>
<path d="M387.31 78.1752C387.31 82.3949 385.42 85.7262 383.085 85.7262C380.751 85.7262 378.861 82.2839 378.861 78.1752C378.861 73.9556 380.751 71.8457 383.085 71.8457C385.42 71.8457 387.31 74.0666 387.31 78.1752Z" fill="#6D6D6D"/>
<path d="M386.866 78.2868C386.866 82.0623 385.198 85.0605 383.086 85.0605C380.974 85.0605 379.307 82.0623 379.307 78.2868C379.307 74.5113 380.974 72.6235 383.086 72.6235C385.198 72.5125 386.866 74.5113 386.866 78.2868Z" fill="#B7B7B7"/>
<path d="M385.974 78.3973C385.974 79.8409 385.64 81.0624 385.196 82.0618C384.64 83.0612 383.973 83.7275 383.084 83.7275C381.416 83.7275 380.193 81.2845 380.193 78.3973C380.193 76.3985 380.749 75.066 381.638 74.5108C382.083 74.1777 382.639 73.9556 383.084 73.9556C384.64 73.9556 385.974 75.3991 385.974 78.3973Z" fill="#B23012"/>
<path d="M385.975 78.3973C385.975 79.8409 385.642 81.0624 385.197 82.0618C384.864 82.3949 384.419 82.506 384.086 82.506C382.418 82.506 381.195 80.1741 381.195 77.1759C381.195 76.0654 381.418 75.1771 381.751 74.5108C382.196 74.1777 382.752 73.9556 383.196 73.9556C384.641 73.9556 385.975 75.3991 385.975 78.3973Z" fill="#DD4D14"/>
<path d="M406.983 352.566L405.093 351.122L404.982 351.011L404.537 350.678C402.648 349.345 400.869 342.905 397.979 342.128L377.192 341.794L367.854 336.242L365.853 335.021L360.629 331.911L356.182 329.246L350.402 325.804L348.179 324.472L333.061 315.366L332.949 315.255C331.616 314.255 329.615 313.589 328.169 313.145C326.613 312.701 325.39 312.59 324.39 312.479C323.39 312.368 322.611 312.368 322.056 312.368C321.5 312.368 321.277 312.368 321.277 312.368C321.277 312.368 321.277 312.368 321.389 312.368C321.389 312.368 321.389 312.368 321.277 312.368C317.387 312.479 315.719 313.589 317.276 315.144L326.502 324.805L327.725 326.137L331.06 329.58L333.616 332.245L336.618 335.465L337.729 336.686L346.511 344.571L342.065 349.457C341.287 350.345 342.287 351.899 344.177 353.343L346.178 354.898C348.179 356.452 379.971 370.222 382.972 370.999L386.418 369.111C386.418 369.111 396.423 367.224 398.979 364.892L408.65 356.452C409.429 355.786 408.984 354.787 407.872 353.565L407.983 353.454L406.983 352.566C407.094 352.566 406.983 352.566 406.983 352.566Z" fill="#C4C4C4"/>
<path d="M352.736 357.008L373.634 368.557C379.415 371.777 386.307 371.777 392.087 368.779L413.43 357.563C417.765 355.343 417.877 349.235 413.653 346.792L392.198 334.133C386.418 330.691 379.192 330.691 373.412 334.133L352.625 346.348C348.401 348.68 348.512 354.676 352.736 357.008Z" fill="#D36113"/>
<path d="M349.512 351.678V349.568H416.764V353.455L401.646 362.45L383.749 366.669L361.073 360.895L349.512 351.678Z" fill="#D36113"/>
<path d="M413.431 355.453L392.088 366.668C386.308 369.666 379.304 369.666 373.635 366.446L358.073 357.895L352.737 354.897C348.513 352.565 348.513 346.569 352.626 344.126L371.412 333.022L373.413 331.8C379.193 328.358 386.419 328.358 392.31 331.8L413.765 344.459C417.878 347.124 417.655 353.121 413.431 355.453Z" fill="#ED701B"/>
<path d="M390.643 355.675L357.961 357.896L352.625 354.898C348.401 352.566 348.401 346.57 352.514 344.127L371.301 333.022L388.642 332.911L390.643 355.675Z" fill="#DD6819"/>
<path d="M402.647 345.903C402.647 349.789 398.756 353.121 392.865 355.008C389.863 356.008 386.306 356.563 382.526 356.563C371.41 356.563 362.406 351.788 362.406 346.014C362.406 345.681 362.406 345.459 362.517 345.125C363.296 339.684 371.966 335.354 382.638 335.354C384.972 335.354 387.084 335.576 389.196 335.909C396.311 337.13 401.535 340.462 402.647 344.459C402.536 344.903 402.647 345.348 402.647 345.903Z" fill="#D36113"/>
<path d="M402.537 344.459L393.644 344.57H390.754H390.532L375.414 344.792H372.079L362.408 344.904H362.297L363.853 338.907L364.298 337.019L366.521 328.802L366.966 327.136L368.188 322.695L369.189 318.919L370.523 314.144L370.967 312.256L374.525 298.931H390.421L393.978 312.256L394.534 314.144L395.868 318.919L396.868 322.695L397.98 327.025L398.424 328.691L400.648 336.797L401.203 338.685L402.537 344.459Z" fill="#D36113"/>
<path d="M402.648 345.903C402.648 349.789 398.758 353.121 392.866 355.008C392.31 352.232 391.643 349.012 390.976 345.57C390.865 345.348 390.865 345.014 390.754 344.681C390.198 341.905 389.642 338.907 388.975 335.909L388.753 334.798C388.197 331.911 387.641 329.024 387.086 326.137C386.53 323.583 386.085 321.029 385.529 318.586C383.973 311.146 382.639 304.15 381.639 299.264H390.42L393.978 312.589L394.533 314.477L395.867 319.252L396.868 323.028L397.979 327.358L398.424 329.024L400.647 337.13L401.203 339.018L402.648 344.459H402.537C402.537 344.903 402.648 345.348 402.648 345.903Z" fill="#DD6819"/>
<path d="M390.418 299.709C390.418 302.04 386.861 303.928 382.525 303.928C379.857 303.928 377.634 303.262 376.189 302.263C375.189 301.596 374.633 300.708 374.633 299.82C374.633 297.488 378.19 295.711 382.525 295.711C385.971 295.711 388.973 296.821 389.973 298.487C390.307 298.82 390.418 299.264 390.418 299.709Z" fill="#D36113"/>
<path d="M390.976 345.459C388.419 346.125 385.529 346.569 382.528 346.569C378.637 346.569 375.08 345.903 372.19 344.793C367.632 343.127 364.631 340.351 364.52 337.13L366.743 328.913L367.187 327.248C367.187 331.689 374.079 335.354 382.639 335.354C384.862 335.354 387.085 335.132 388.975 334.688L389.197 335.798C389.864 338.796 390.42 341.794 390.976 344.57C390.865 344.904 390.865 345.237 390.976 345.459Z" fill="#B7B7B7"/>
<path d="M400.537 337.13C400.537 340.239 397.869 342.905 393.645 344.57C392.867 344.903 391.978 345.236 390.977 345.459C390.866 345.236 390.866 344.903 390.755 344.57C390.199 341.794 389.643 338.796 388.976 335.798L388.754 334.687C394.09 333.466 397.869 330.579 397.869 327.247V327.136L398.314 328.802L400.537 337.13Z" fill="#EDEDED"/>
<path d="M387.083 326.137C385.637 326.47 384.081 326.581 382.525 326.581C375.188 326.581 369.186 323.472 369.186 319.585C369.186 319.474 369.186 319.363 369.186 319.252L370.519 314.477L370.964 312.589C370.964 312.7 370.964 312.7 370.964 312.811C370.964 316.143 376.078 318.808 382.414 318.808C383.525 318.808 384.526 318.697 385.526 318.586C386.082 321.029 386.527 323.583 387.083 326.137Z" fill="#B7B7B7"/>
<path d="M395.756 319.696C395.756 322.695 392.088 325.249 387.086 326.248C386.53 323.694 386.085 321.14 385.529 318.697C390.42 318.031 393.978 315.699 393.978 312.923C393.978 312.812 393.978 312.812 393.978 312.701L394.533 314.588L395.867 319.363C395.756 319.363 395.756 319.474 395.756 319.696Z" fill="#EDEDED"/>
<path d="M382.525 295.6C382.525 295.6 382.859 295.6 383.415 295.6C383.97 295.6 384.748 295.6 385.638 295.822C386.527 296.044 387.639 296.266 388.639 296.821C389.64 297.377 390.751 298.265 390.751 299.708C390.751 300.042 390.64 300.375 390.529 300.597C390.418 300.93 390.195 301.152 389.973 301.374C389.528 301.818 389.084 302.262 388.528 302.485C387.527 303.04 386.416 303.373 385.527 303.484C384.637 303.706 383.859 303.706 383.303 303.706C382.748 303.706 382.414 303.706 382.414 303.706C382.414 303.706 382.748 303.706 383.303 303.706C383.859 303.595 384.637 303.595 385.415 303.373C386.305 303.151 387.305 302.818 388.306 302.262C388.75 301.929 389.306 301.596 389.64 301.152C389.973 300.708 390.195 300.264 390.195 299.597C390.195 299.042 389.973 298.487 389.64 298.043C389.306 297.599 388.861 297.265 388.306 296.932C387.305 296.377 386.305 296.044 385.415 295.822C384.526 295.6 383.748 295.489 383.303 295.489C382.748 295.6 382.525 295.6 382.525 295.6Z" fill="#DD6819"/>
<path d="M92.2849 222.089L90.3952 220.645L90.284 220.534L89.8394 220.201C87.8385 218.757 86.0599 212.317 83.1697 211.428L61.9378 210.984L52.3779 205.321L50.2659 204.099L44.9301 200.99L40.3725 198.214L34.4809 194.661L32.1465 193.328L16.6951 184L16.5839 183.889C15.1388 182.89 13.2491 182.224 11.6928 181.779C10.1365 181.335 8.91377 181.224 7.80215 181.002C6.8017 180.891 6.02357 180.891 5.46776 180.891C4.91195 180.891 4.68963 180.891 4.68963 180.891C4.68963 180.891 4.68963 180.891 4.80079 180.891C4.80079 180.891 4.80079 180.891 4.68963 180.891C0.687816 181.002 -0.979612 182.224 0.57665 183.667L10.0254 193.55L11.3593 194.883L14.6942 198.436L17.362 201.212L20.4746 204.433L21.5862 205.654L26.1438 210.651C28.0336 212.761 28.4782 215.981 27.2554 218.535L27.0331 218.868C26.255 219.757 27.2554 221.311 29.2563 222.866L31.2572 224.421C33.2581 225.975 64.828 239.856 68.0517 240.633L71.6089 238.745C71.6089 238.745 81.8358 236.746 84.5036 234.526L94.397 225.975C95.1751 225.309 94.7305 224.198 93.6189 223.088L93.73 222.977L92.2849 222.089C92.3961 222.089 92.2849 222.089 92.2849 222.089Z" fill="#C4C4C4"/>
<path d="M43.0418 228.751L60.8276 238.523C65.7187 241.188 71.6103 241.299 76.6125 238.634L94.843 229.084C98.5114 227.196 98.6225 221.977 95.0654 219.867L76.7237 209.096C71.8326 206.209 65.6075 206.209 60.7164 209.096L43.0418 219.534C39.3734 221.644 39.4846 226.752 43.0418 228.751Z" fill="#D36113"/>
<path d="M40.373 224.087V222.311H97.6212V225.642L84.7265 233.304L69.4974 236.968L50.1553 232.082L40.373 224.087Z" fill="#D36113"/>
<path d="M94.7305 227.308L76.5 236.857C71.6089 239.411 65.6061 239.411 60.715 236.746L47.4868 229.417L42.9292 226.863C39.372 224.865 39.2609 219.757 42.818 217.758L58.8253 208.319L60.6039 207.32C65.6061 204.433 71.72 204.433 76.6111 207.32L94.9528 218.091C98.51 220.201 98.3988 225.42 94.7305 227.308Z" fill="#ED701B"/>
<path d="M75.3885 227.53L47.5981 229.417L43.0405 226.863C39.4833 224.865 39.3722 219.757 42.9294 217.758L58.9366 208.319L73.6099 208.208L75.3885 227.53Z" fill="#DD6819"/>
<path d="M85.6147 219.201C85.6147 222.421 82.2799 225.309 77.2776 226.863C74.7209 227.641 71.7195 228.196 68.4958 228.196C59.0471 228.196 51.377 224.198 51.377 219.201C51.377 218.979 51.377 218.757 51.4881 218.535C52.1551 213.871 59.6029 210.207 68.607 210.207C70.6079 210.207 72.3865 210.429 74.1651 210.651C80.1678 211.761 84.7254 214.537 85.6147 217.98C85.5036 218.424 85.6147 218.868 85.6147 219.201Z" fill="#D36113"/>
<path d="M85.5052 217.98L77.9462 218.091H75.5006H75.2783L62.3836 218.313H59.4934L51.2674 218.424H51.1562L52.4902 213.316L52.9348 211.761L54.8246 204.766L55.1581 203.322L56.1585 199.546L57.0478 196.326L58.1594 192.218L58.6041 190.663L61.6054 179.336H75.056L78.0574 190.663L78.502 192.218L79.6136 196.326L80.5029 199.546L81.5033 203.211L81.8368 204.655L83.7266 211.539L84.1712 213.094L85.5052 217.98Z" fill="#D36113"/>
<path d="M85.6159 219.201C85.6159 222.421 82.2811 225.308 77.2788 226.863C76.8342 224.531 76.2783 221.755 75.7225 218.868C75.7225 218.646 75.6114 218.424 75.6114 218.09C75.1667 215.759 74.6109 213.205 74.1663 210.651L73.944 209.762C73.4993 207.319 72.9435 204.876 72.4989 202.433C72.0542 200.212 71.6096 198.103 71.1649 195.993C69.831 189.663 68.7194 183.778 67.8301 179.558H75.2779L78.2793 190.885L78.7239 192.439L79.8355 196.548L80.7248 199.768L81.7253 203.433L82.0587 204.876L83.9485 211.761L84.3931 213.316L85.6159 217.979H85.5048C85.5048 218.424 85.6159 218.868 85.6159 219.201Z" fill="#DD6819"/>
<path d="M75.1652 179.891C75.1652 181.89 72.1639 183.445 68.3844 183.445C66.1611 183.445 64.1602 182.889 62.9375 182.001C62.1593 181.446 61.6035 180.669 61.6035 179.891C61.6035 177.893 64.6049 176.338 68.3844 176.338C71.3857 176.338 73.8313 177.337 74.7206 178.67C75.0541 179.114 75.1652 179.558 75.1652 179.891Z" fill="#D36113"/>
<path d="M75.6125 218.868C73.5004 219.423 71.0549 219.867 68.387 219.867C65.0522 219.867 62.0508 219.312 59.4941 218.424C55.6034 216.98 53.0467 214.648 52.9355 211.872L54.8253 204.876L55.1588 203.433C55.1588 207.208 61.0503 210.317 68.2758 210.317C70.1656 210.317 72.0553 210.095 73.6116 209.762L73.8339 210.65C74.3897 213.205 74.8344 215.759 75.279 218.09C75.5013 218.424 75.6125 218.646 75.6125 218.868Z" fill="#B7B7B7"/>
<path d="M83.8367 211.761C83.8367 214.315 81.5023 216.647 77.9452 218.09C77.2782 218.423 76.5001 218.645 75.7219 218.867C75.7219 218.645 75.6108 218.423 75.6108 218.09C75.1661 215.758 74.6103 213.204 74.1657 210.65L73.9434 209.762C78.501 208.651 81.7247 206.319 81.7247 203.432V203.321L82.0581 204.765L83.8367 211.761Z" fill="#EDEDED"/>
<path d="M72.3854 202.433C71.1626 202.655 69.8287 202.766 68.4947 202.766C62.2697 202.766 57.1562 200.101 57.1562 196.77C57.1562 196.659 57.1562 196.548 57.1562 196.437L58.2679 192.328L58.7125 190.773V190.884C58.7125 193.772 63.0478 195.993 68.4947 195.993C69.384 195.993 70.2733 195.881 71.1626 195.77C71.4961 198.102 71.9407 200.323 72.3854 202.433Z" fill="#B7B7B7"/>
<path d="M79.7232 196.881C79.7232 199.435 76.6107 201.656 72.2754 202.433C71.8307 200.213 71.3861 198.103 70.9414 195.993C75.0544 195.438 78.1669 193.439 78.1669 191.107C78.1669 190.996 78.1669 190.996 78.1669 190.885L78.6116 192.439L79.7232 196.548C79.7232 196.659 79.7232 196.77 79.7232 196.881Z" fill="#EDEDED"/>
<path d="M68.3846 176.338C68.3846 176.338 68.6069 176.338 69.0516 176.338C69.4962 176.338 70.1632 176.338 70.9413 176.56C71.7194 176.671 72.6087 177.004 73.498 177.448C74.2762 177.893 75.2766 178.67 75.2766 179.891C75.2766 180.113 75.1655 180.447 75.0543 180.669C74.9431 180.891 74.832 181.113 74.6096 181.335C74.2762 181.779 73.8315 182.001 73.3869 182.334C72.4976 182.89 71.6083 183.112 70.8302 183.223C70.052 183.334 69.3851 183.334 68.9404 183.445C68.4958 183.445 68.2734 183.445 68.2734 183.445C68.2734 183.445 68.4958 183.445 68.9404 183.445C69.3851 183.445 70.052 183.334 70.8302 183.112C71.6083 182.889 72.3864 182.667 73.2757 182.112C73.7204 181.89 74.0538 181.557 74.3873 181.224C74.7208 180.78 74.9431 180.447 74.9431 179.891C74.9431 179.447 74.7208 179.003 74.3873 178.559C74.0538 178.226 73.7204 177.893 73.2757 177.67C72.4976 177.226 71.6083 176.893 70.8302 176.671C70.052 176.449 69.3851 176.449 68.9404 176.338C68.7181 176.338 68.3846 176.338 68.3846 176.338Z" fill="#DD6819"/>
</svg>
