<svg width="16" height="16" viewBox="0 0 16 16" fill="none" xmlns="http://www.w3.org/2000/svg">
<path d="M8.00009 15.9999C12.4183 15.9999 16 12.4182 16 8C16 3.58177 12.4183 9.15527e-05 8.00009 9.15527e-05C3.58186 9.15527e-05 0.000183105 3.58177 0.000183105 8C0.000183105 12.4182 3.58186 15.9999 8.00009 15.9999Z" fill="#41B4E6"/>
<path d="M12.6634 4.43696C12.6634 4.24203 12.656 4.04887 12.6423 3.8574L9.32675 0.54187L0 4.21059L3.56847 7.77909L3.61528 7.94759L3.67588 7.8865L3.67613 7.88674L3.61528 7.94759L7.56269 11.895C10.5477 10.7337 12.6634 7.83259 12.6634 4.43696Z" fill="#0091C8"/>
<path d="M7.22308 9.16542L10.8384 11.895L12.6634 4.1048L3.33661 7.77352L6.17464 8.71355L11.3541 5.2393L7.22308 9.16542Z" fill="white"/>
<path d="M4.64587 7.96351L5.42316 10.7605L5.69431 8.41538L9.82534 4.48926L4.64587 7.96351Z" fill="#D2D2D7"/>
<path d="M9.04809 5.37638L7.60193 6.83438L7.87309 4.48926L9.04809 5.37638Z" fill="#B9B9BE"/>
</svg>
