<svg width="20" height="18" viewBox="0 0 20 18" fill="none" xmlns="http://www.w3.org/2000/svg">
<path d="M6 11C4.15898 11 3 12.159 3 14H8.99999C8.99999 12.159 7.84101 11 6 11Z" fill="#595959"/>
<path d="M5.99853 10C7.10311 10 7.99855 9.10458 7.99855 8C7.99855 6.89542 7.10311 5.99999 5.99853 5.99999C4.89395 5.99999 3.99852 6.89542 3.99852 8C3.99852 9.10458 4.89395 10 5.99853 10Z" fill="#595959"/>
<path d="M16.9994 8.00001H10.9994V10H16.9994V8.00001Z" fill="#595959"/>
<path d="M16.9994 12H10.9994V14H16.9994V12Z" fill="#595959"/>
<path d="M18 2.00001H12.815C12.401 0.838031 11.301 0 10 0C8.69901 0 7.59904 0.837984 7.18504 2.00001H2.00001C0.896999 2.00001 0 2.89603 0 4.00003V16C0 17.103 0.896999 18 2.00001 18H18C19.103 18 20 17.103 20 16V4.00003C20 2.89603 19.103 2.00001 18 2.00001ZM9.99998 2.00001C10.551 2.00001 11 2.44903 11 3C11 3.55101 10.5509 3.99998 9.99998 3.99998C9.44896 3.99998 8.99999 3.55097 8.99999 3C8.99999 2.44903 9.44901 2.00001 9.99998 2.00001ZM2.00001 16V4.00003H7.18499C7.59899 5.16201 8.69901 6.00004 9.99998 6.00004C11.301 6.00004 12.401 5.16206 12.815 4.00003H18L18.001 16H2.00001Z" fill="#595959"/>
</svg>
