<svg width="16" height="16" viewBox="0 0 16 16" fill="none" xmlns="http://www.w3.org/2000/svg">
<path d="M8.00002 8.00002C10.206 8.00002 12 6.20602 12 4.00004C12 1.79499 10.206 0 8.00002 0C5.79404 0 3.99999 1.79499 3.99999 3.99999C3.99999 6.20602 5.79399 8.00002 8.00002 8.00002ZM8.00002 2.00002C9.10304 2.00002 10 2.89603 10 4.00004C10 5.10305 9.10304 6.00005 8.00002 6.00005C6.89701 6.00005 6.00001 5.103 6.00001 3.99999C6.00001 2.89599 6.89701 2.00002 8.00002 2.00002Z" fill="#595959"/>
<path d="M8.00002 9.00001C3.29002 9.00001 0 11.467 0 15V16H16V15C16 11.467 12.71 9.00001 8.00002 9.00001ZM2.15902 14C2.757 12.192 4.99304 11 8.00101 11C11.009 11 13.244 12.192 13.842 14H2.15902Z" fill="#595959"/>
</svg>
