<svg width="23" height="19" viewBox="0 0 23 19" fill="none" xmlns="http://www.w3.org/2000/svg">
<path d="M8.10324 10.8747C10.3377 10.8747 12.1548 9.05162 12.1548 6.81208C12.1548 4.57254 10.3367 2.74943 8.10324 2.74943C5.86979 2.74943 4.05165 4.57254 4.05165 6.81208C4.0516 9.05157 5.86979 10.8747 8.10324 10.8747ZM8.10324 4.78073C9.22149 4.78073 10.1291 5.69078 10.1291 6.81208C10.1291 7.93237 9.22149 8.84342 8.10324 8.84342C6.985 8.84342 6.07742 7.93232 6.07742 6.81203C6.07742 5.69073 6.985 4.78073 8.10324 4.78073Z" fill="#595959"/>
<path d="M8.10324 11.8904C3.33142 11.8904 0 14.396 0 17.9844V19H16.2064V17.9844C16.2064 14.396 12.875 11.8904 8.10324 11.8904ZM2.18687 16.9687C2.79258 15.1324 5.05746 13.9217 8.10424 13.9217C11.151 13.9217 13.4149 15.1324 14.0216 16.9687H2.18687Z" fill="#595959"/>
<path d="M21.5678 0L17.2194 4.36025L14.8968 2.0313L13.4645 3.46748L17.2194 7.23252L23 1.43613L21.5678 0Z" fill="#595959"/>
</svg>
