<svg width="24" height="22" viewBox="0 0 24 22" fill="none" xmlns="http://www.w3.org/2000/svg">
<path d="M22.5 8.00001H12.5C11.673 8.00001 11 8.67299 11 9.50001V16.5C11 17.327 11.673 18 12.5 18H15.666L21 22V18H22.5C23.327 18 24 17.3271 24 16.5V9.50001C24 8.67299 23.327 8.00001 22.5 8.00001ZM22 16H19V18L16.334 16H13V10H22V16Z" fill="#C21E37"/>
<path d="M5.00001 14V12H2.00001V2.00001H14V5.99803H16V1.5C16 0.672984 15.327 0 14.5 0H1.5C0.672984 0 0 0.672984 0 1.5V12.5C0 13.327 0.672984 14 1.5 14H3V18L8.33399 14H8.99999V12H7.66598L5.00001 14Z" fill="#C21E37"/>
</svg>
