<svg width="16" height="20" viewBox="0 0 16 20" fill="none" xmlns="http://www.w3.org/2000/svg">
<path fill-rule="evenodd" clip-rule="evenodd" d="M0 9.64667C0 8.18889 1.25486 7.29445 1.25486 7.29445L11.0766 0V8.23556H16V20H1.47657C0.0251429 20 0 18.5889 0 18.5889V9.64556V9.64667Z" fill="#FFCC00"/>
<path fill-rule="evenodd" clip-rule="evenodd" d="M7.63125 7.41168C8.32039 7.12946 8.86211 7.41168 8.86211 8.07168C8.86211 8.72946 8.32039 9.48279 7.63125 9.78835C6.94211 10.0717 6.40039 9.78835 6.40039 9.12946C6.40039 8.44724 6.94211 7.69502 7.63125 7.41279V7.41168Z" fill="black"/>
<path opacity="0.149" fill-rule="evenodd" clip-rule="evenodd" d="M11.0762 8.23633H13.5379V15.2952L1.96875 18.823L11.0773 12.9408V8.23633H11.0762Z" fill="black"/>
</svg>
