<svg xmlns="http://www.w3.org/2000/svg" xmlns:xlink="http://www.w3.org/1999/xlink" width="870" height="30" viewBox="0 0 870 30"><defs><path id="ywyla" d="M120 825c0-8.284 6.716-15 15-15 8.284 0 15 6.716 15 15 0 8.284-6.716 15-15 15-8.284 0-15-6.716-15-15z"/><path id="ywylb" d="M400 825c0-8.284 6.716-15 15-15 8.284 0 15 6.716 15 15 0 8.284-6.716 15-15 15-8.284 0-15-6.716-15-15z"/><path id="ywylc" d="M680 825c0-8.284 6.716-15 15-15 8.284 0 15 6.716 15 15 0 8.284-6.716 15-15 15-8.284 0-15-6.716-15-15z"/><path id="ywyld" d="M960 825c0-8.284 6.716-15 15-15 8.284 0 15 6.716 15 15 0 8.284-6.716 15-15 15-8.284 0-15-6.716-15-15z"/><path id="ywyli" d="M145 827.5v-5h260v5z"/><path id="ywylj" d="M425 827.5v-5h260v5z"/><path id="ywylk" d="M705 827.5v-5h260v5z"/><clipPath id="ywyle"><use fill="#fff" xlink:href="#ywyla"/></clipPath><clipPath id="ywylf"><use fill="#fff" xlink:href="#ywylb"/></clipPath><clipPath id="ywylg"><use fill="#fff" xlink:href="#ywylc"/></clipPath><clipPath id="ywylh"><use fill="#fff" xlink:href="#ywyld"/></clipPath></defs><g><g transform="translate(-120 -810)"><g><use fill="#fff" fill-opacity="0" stroke="#f1bc69" stroke-miterlimit="50" stroke-width="10" clip-path="url(&quot;#ywyle&quot;)" xlink:href="#ywyla"/></g><g><use fill="#fff" fill-opacity="0" stroke="#f1bc69" stroke-miterlimit="50" stroke-width="10" clip-path="url(&quot;#ywylf&quot;)" xlink:href="#ywylb"/></g><g><use fill="#fff" fill-opacity="0" stroke="#f1bc69" stroke-miterlimit="50" stroke-width="10" clip-path="url(&quot;#ywylg&quot;)" xlink:href="#ywylc"/></g><g><use fill="#fff" fill-opacity="0" stroke="#f1bc69" stroke-miterlimit="50" stroke-width="10" clip-path="url(&quot;#ywylh&quot;)" xlink:href="#ywyld"/></g><g><use fill="#f1bc69" xlink:href="#ywyli"/></g><g><use fill="#f1bc69" xlink:href="#ywylj"/></g><g><use fill="#f1bc69" xlink:href="#ywylk"/></g></g></g></svg>