<svg width="10" height="6" viewBox="0 0 10 6" fill="none" xmlns="http://www.w3.org/2000/svg">
<path d="M9.04052 2.04036C9.43105 1.64983 9.43105 1.01667 9.04052 0.626145C8.65 0.235621 8.01683 0.235621 7.62631 0.626145L9.04052 2.04036ZM5.00008 4.66659L4.29297 5.37369C4.48051 5.56123 4.73486 5.66659 5.00008 5.66659C5.2653 5.66659 5.51965 5.56123 5.70719 5.37369L5.00008 4.66659ZM2.37385 0.626145C1.98333 0.235621 1.35017 0.235621 0.959641 0.626145C0.569117 1.01667 0.569117 1.64983 0.959641 2.04036L2.37385 0.626145ZM7.62631 0.626145L4.29297 3.95948L5.70719 5.37369L9.04052 2.04036L7.62631 0.626145ZM5.70719 3.95948L2.37385 0.626145L0.959641 2.04036L4.29297 5.37369L5.70719 3.95948Z" fill="white"/>
</svg>
