<svg width="12" height="7" viewBox="0 0 12 7" fill="none" xmlns="http://www.w3.org/2000/svg">
<path d="M10.7905 1.95711C11.181 1.56658 11.181 0.933417 10.7905 0.542893C10.4 0.152369 9.76683 0.152369 9.37631 0.542893L10.7905 1.95711ZM6.00008 5.33333L5.29297 6.04044C5.48051 6.22798 5.73486 6.33333 6.00008 6.33333C6.2653 6.33333 6.51965 6.22798 6.70719 6.04044L6.00008 5.33333ZM2.62385 0.542893C2.23333 0.152369 1.60017 0.152369 1.20964 0.542893C0.819117 0.933417 0.819117 1.56658 1.20964 1.95711L2.62385 0.542893ZM9.37631 0.542893L5.29297 4.62623L6.70719 6.04044L10.7905 1.95711L9.37631 0.542893ZM6.70719 4.62623L2.62385 0.542893L1.20964 1.95711L5.29297 6.04044L6.70719 4.62623Z" fill="white" fill-opacity="0.5"/>
</svg>
