<svg xmlns="http://www.w3.org/2000/svg" width="71" height="280" viewBox="0 0 71 280"><g><g><path fill="#fff" d="M38.5 18C56.45 18 71 32.55 71 50.5S56.45 83 38.5 83 6 68.45 6 50.5 20.55 18 38.5 18zM6.5 5a6.5 6.5 0 1 1 0 13 6.5 6.5 0 0 1 0-13zM25 0a3 3 0 1 1 0 6 3 3 0 0 1 0-6z"/></g><g><path fill="#00cca3" d="M38 34a6 6 0 1 1 0 12 6 6 0 0 1 0-12z"/></g><g><path fill="#00cca3" d="M36.667 279.461L25.488 268.14a1.86 1.86 0 0 1 0-2.607c.71-.72 1.864-.72 2.575 0l9.891 10.017 9.892-10.017a1.803 1.803 0 0 1 2.574 0 1.86 1.86 0 0 1 0 2.607l-11.179 11.322a1.804 1.804 0 0 1-2.574 0z"/></g><g><path fill="#00cca3" d="M37 55h2v24h-2zm0 188h2v24h-2z"/></g></g></svg>