<svg xmlns="http://www.w3.org/2000/svg" width="22" height="22" viewBox="0 0 22 22"><g><g><path fill="#177e7c" d="M11.816 15.901c0 .614-.509 1.154-1.153 1.154s-1.138-.54-1.138-1.154c0-.629.509-1.153 1.138-1.153.63 0 1.153.524 1.153 1.153zm2.232-7.414c0 1.408-1.273 2.426-1.677 2.741-.824.644-.84 1.093-.84 1.872 0 .285-.149.614-.883.614-.614 0-.824-.225-.824-1.003 0-1.288.57-1.902 1.004-2.277.494-.42 1.333-.883 1.333-1.693 0-.688-.6-1.018-1.348-1.018-1.528 0-1.198 1.153-2.007 1.153-.405 0-.899-.27-.899-.853 0-.809.929-2.007 2.95-2.007 1.918 0 3.191 1.063 3.191 2.471zM22 11c0 6.08-4.92 11-11 11H.86a.86.86 0 0 1-.86-.86V11C0 4.92 4.92 0 11 0s11 4.92 11 11zm-1.719 0A9.277 9.277 0 0 0 11 1.718 9.277 9.277 0 0 0 1.719 11v9.281H11A9.276 9.276 0 0 0 20.281 11z"/></g></g></svg>