<svg width="150" height="50" viewBox="0 0 150 50" fill="none" xmlns="http://www.w3.org/2000/svg">
<g clip-path="url(#clip0_926_136)">
<path fill-rule="evenodd" clip-rule="evenodd" d="M0.480469 0V34.0293H24.4448V27.037H9.28565V0H0.480469Z" fill="#532E63"/>
<path fill-rule="evenodd" clip-rule="evenodd" d="M47.1917 0L34.5098 34.0293H43.8171L46.058 27.2829H56.9653L59.1538 34.0293H68.5391L55.7903 0H47.1917ZM51.5122 8.96842L54.7255 20.4938H48.2465L51.5122 8.96842Z" fill="#532E63"/>
<path fill-rule="evenodd" clip-rule="evenodd" d="M88.5855 27.4331H91.2467C97.8504 27.4331 100.672 24.4003 100.672 17.3184C100.672 10.3106 97.8504 7.2799 91.2467 7.2799H88.5855V27.4331ZM79.6934 0.263184H89.3265C96.1121 0.263184 99.8671 1.07077 103.02 3.2828C107.441 6.36199 109.864 11.3244 109.864 17.3184C109.864 24.3043 106.549 29.9916 100.918 32.6559C98.2724 33.8883 94.7102 34.4598 89.3265 34.4598H79.6934V0.263184Z" fill="#532E63"/>
<path fill-rule="evenodd" clip-rule="evenodd" d="M116.373 0.263184L128.414 20.9757V34.4598H137.294V20.9757L149.34 0.263184H139.46L133.027 13.5299L126.408 0.263184H116.373Z" fill="#532E63"/>
<path fill-rule="evenodd" clip-rule="evenodd" d="M6.74832 49.0211C5.87259 49.6941 4.82039 49.9258 3.95452 49.9258C1.61118 49.9258 0 48.1275 0 45.846C0 43.432 1.78655 41.7661 3.95452 41.7661C4.74367 41.7661 5.69722 41.8985 6.74832 42.6928V43.5633C5.76298 42.5936 4.75463 42.3828 3.97644 42.3828C2.27867 42.3828 0.78915 43.8391 0.78915 45.846C0.78915 47.6983 2.09234 49.3091 3.96548 49.3091C5.01768 49.3091 6.01507 48.8568 6.74832 48.1617V49.0211Z" fill="#532E63"/>
<path fill-rule="evenodd" clip-rule="evenodd" d="M23.5121 45.846C23.5121 43.8171 22.0335 42.3828 20.1593 42.3828C18.2861 42.3828 16.8076 43.8171 16.8076 45.846C16.8076 47.8749 18.2861 49.3091 20.1593 49.3091C22.0335 49.3091 23.5121 47.8749 23.5121 45.846ZM16.0195 45.846C16.0195 43.4089 17.8817 41.7661 20.1593 41.7661C22.439 41.7661 24.3012 43.4089 24.3012 45.846C24.3012 48.2831 22.439 49.9258 20.1593 49.9258C17.8817 49.9258 16.0195 48.2831 16.0195 45.846Z" fill="#532E63"/>
<path fill-rule="evenodd" clip-rule="evenodd" d="M34.2832 41.9868H35.0285V49.0885H37.5034V49.7052H34.2832V41.9868Z" fill="#532E63"/>
<path fill-rule="evenodd" clip-rule="evenodd" d="M47.0098 41.9868H47.7551V49.0885H50.2299V49.7052H47.0098V41.9868Z" fill="#532E63"/>
<path fill-rule="evenodd" clip-rule="evenodd" d="M59.7344 41.9868H63.8423V42.6046H60.4797V45.0748H63.7218V45.6916H60.4797V49.0885H63.8423V49.7052H59.7344V41.9868Z" fill="#532E63"/>
<path fill-rule="evenodd" clip-rule="evenodd" d="M80.1164 49.0211C79.2406 49.6941 78.1884 49.9258 77.3237 49.9258C74.9803 49.9258 73.3691 48.1275 73.3691 45.846C73.3691 43.432 75.1546 41.7661 77.3237 41.7661C78.1128 41.7661 79.0653 41.8985 80.1164 42.6929V43.5633C79.131 42.5936 78.1238 42.3828 77.3456 42.3828C75.6478 42.3828 74.1583 43.8391 74.1583 45.846C74.1583 47.6983 75.4615 49.3091 77.3346 49.3091C78.3857 49.3091 79.3831 48.8568 80.1164 48.1617V49.0211Z" fill="#532E63"/>
<path fill-rule="evenodd" clip-rule="evenodd" d="M91.3443 42.6042H89.2969V41.9863H94.1381V42.6042H92.0896V49.7058H91.3443V42.6042Z" fill="#532E63"/>
<path fill-rule="evenodd" clip-rule="evenodd" d="M103.65 49.7057H104.396V41.9873H103.65V49.7057Z" fill="#532E63"/>
<path fill-rule="evenodd" clip-rule="evenodd" d="M121.86 45.846C121.86 43.8171 120.381 42.3828 118.508 42.3828C116.635 42.3828 115.156 43.8171 115.156 45.846C115.156 47.8749 116.635 49.3091 118.508 49.3091C120.381 49.3091 121.86 47.8749 121.86 45.846ZM114.367 45.846C114.367 43.4089 116.229 41.7661 118.508 41.7661C120.787 41.7661 122.649 43.4089 122.649 45.846C122.649 48.2831 120.787 49.9258 118.508 49.9258C116.229 49.9258 114.367 48.2831 114.367 45.846Z" fill="#532E63"/>
<path fill-rule="evenodd" clip-rule="evenodd" d="M132.631 41.6777L138.448 48.1285V41.9866H139.192V50.0151L133.376 43.5632V49.705H132.631V41.6777Z" fill="#532E63"/>
</g>
<defs>
<clipPath id="clip0_926_136">
<rect width="150" height="50" fill="white"/>
</clipPath>
</defs>
</svg>
