<svg width="92" height="32" viewBox="0 0 92 32" fill="none" xmlns="http://www.w3.org/2000/svg">
<path fill-rule="evenodd" clip-rule="evenodd" d="M8.59021 27.0376C9.68876 26.9719 10.3552 26.9834 11.0067 26.8831C13.5964 26.4833 16.7557 26.4867 17.3479 23.3635C17.9095 20.4002 14.8408 19.8825 12.8297 18.8281C5.81044 15.1479 5.0356 9.39826 10.8473 3.99485C12.904 2.08326 15.3914 0.975335 18.1051 0.24824C20.3962 -0.365014 22.3814 0.139819 23.7648 1.96535C25.1257 3.76242 24.4803 5.64352 23.3722 7.34165C21.98 9.47551 19.8708 10.7806 17.5013 11.7178C16.552 12.0939 15.2108 12.8088 14.7201 11.6609C14.3392 10.7745 14.7876 9.39284 15.7117 8.54106C15.972 8.30253 16.477 8.3337 16.8137 8.14464C18.4492 7.23188 21.5888 6.50275 20.5645 4.56609C19.4196 2.40581 16.8505 4.42108 15.114 5.21797C12.6478 6.35503 10.5617 8.15684 10.5863 11.0124C10.6108 13.7615 13.165 14.6614 15.2817 15.6704C18.5848 17.2493 21.7994 18.8925 21.3905 23.1866C21.0497 26.7727 17.6062 29.6356 12.8508 30.6372C9.82505 31.2728 6.82176 31.4666 3.85186 30.5111C1.89328 29.8809 0.272037 28.8476 0.0335186 26.5877C-0.193415 24.4504 0.74226 22.8356 2.52774 21.7169C4.45361 20.5107 6.65071 20.0181 8.94049 20.0485C10.1842 20.0655 11.4109 20.2593 11.1267 21.9798C10.9291 23.1887 10.6387 24.2885 8.96843 24.0777C8.83701 24.0628 8.70475 24.0564 8.57249 24.0588C6.83267 24.0588 4.20078 23.373 4.20078 25.8172C4.20078 27.6854 7.41738 27.0376 8.59021 27.0376ZM91.2826 6.81039C91.5777 5.72212 92.7342 1.9274 91.2887 0.292963C90.3033 -0.819703 89.4426 1.52286 89.1053 2.57725C87.6864 7.03604 86.1626 11.4738 85.0545 16.0099C83.74 21.3794 79.8691 24.4118 74.696 27.9809C76.0283 24.4972 77.5153 20.4599 77.8826 19.6304C78.1682 18.9826 79.9305 17.1503 77.7027 16.3331C76.106 15.7456 75.5206 16.8813 74.7539 18.12C72.5051 21.7555 69.5133 24.7167 65.4633 26.7157C67.1806 22.9617 66.2095 19.1094 66.2565 15.4535C66.2736 14.1525 68.2765 12.0491 65.8545 11.4203C63.2055 10.7345 63.5919 13.0981 63.1592 14.4994C61.3424 20.3962 56.7533 23.8433 51.4929 27.9998C51.7314 26.505 51.788 26.0137 51.8882 25.5333C52.6446 21.9371 58.5463 17.5833 50.3133 15.3031C50.1838 15.2686 50.2138 14.8084 50.0952 14.5814C49.6352 13.7019 48.9592 13.0649 47.8831 13.403C46.73 13.7676 46.0192 14.7773 46.2414 15.8378C47.1008 19.9632 37.209 27.8826 36.8853 27.6461C36.563 27.411 39.5186 20.9904 40.5722 18.2318C40.7793 17.6931 41.5242 17.1103 40.872 16.5228C40.2185 15.9387 39.2542 16.0858 38.6299 16.4774C37.7672 17.0175 37.1007 17.8645 36.347 18.5794C33.9843 20.8122 31.963 23.4469 28.2489 25.7169C29.3771 22.6551 30.5061 19.5936 31.6359 16.5323C30.0807 16.4896 28.5038 15.9116 28.0833 17.3001C27.2315 20.1041 23.5849 24.6964 22.6383 27.1487C22.4979 27.5113 22.5102 27.8874 22.4911 28.1381C22.4297 28.8469 24.0094 27.1081 23.8881 27.5282C23.7382 28.0412 23.6891 28.1503 23.5508 28.897C23.4056 29.6905 22.887 30.8716 24.0939 31.5465C25.2654 32.2018 26.2106 31.4788 26.9882 30.9028C29.1676 29.2806 31.2256 27.5025 33.4425 25.6945C34.4136 27.7864 31.3026 30.2807 34.0354 31.4354C36.4887 32.4735 38.4282 30.297 40.2846 28.9336C43.2736 26.7381 45.8489 24.1313 47.9472 21.0745C48.4923 20.2796 48.8856 18.7638 50.1742 19.3682C51.7417 20.1014 50.1695 21.1626 49.9105 21.9574C49.2651 23.9259 48.3417 25.8084 47.4803 27.7044C46.8977 28.9905 46.6707 30.1798 47.8954 31.2525C49.1793 32.38 50.4693 31.6678 51.5692 31.083C53.0685 30.2841 54.4069 29.1877 55.8135 28.2194C57.8402 26.055 59.8649 23.8907 62.002 21.6057C63.0038 26.0781 62.2678 27.3297 58.0167 28.6416C57.509 28.7988 57.3489 28.9844 57.1594 29.2623C56.9618 29.5543 56.6429 30.0917 57.2235 30.526C59.0792 31.9125 66.538 29.7691 70.5362 26.9102C71.3438 28.5128 69.5208 30.6616 71.7718 31.5499C73.7801 32.3407 75.2814 30.8594 76.7936 29.929C78.2656 29.0278 79.5754 27.8704 81.0706 26.7394C81.6417 28.691 80.0395 30.9665 82.7716 31.7471C85.6249 32.5657 90.0328 28.1286 89.3445 25.1172C87.8336 25.8341 87.2196 27.8142 84.9346 27.9477C85.7183 23.0918 87.2789 18.5937 88.9485 14.1118C90.2597 10.5882 90.2597 10.5882 91.2826 6.81039Z" fill="#3E7C7B"/>
</svg>
