<svg width="158" height="29" viewBox="0 0 158 29" fill="none" xmlns="http://www.w3.org/2000/svg">
<path fill-rule="evenodd" clip-rule="evenodd" d="M8.36473 24.5102C9.35576 24.4506 9.95702 24.4611 10.5448 24.3701C12.8809 24.0077 15.7311 24.0108 16.2653 21.1796C16.7719 18.4933 14.0035 18.024 12.1893 17.0681C5.85701 13.7319 5.158 8.51974 10.4009 3.62142C12.2563 1.88852 14.5003 0.884164 16.9484 0.225035C19.0153 -0.330894 20.8061 0.126749 22.0542 1.78164C23.2819 3.41072 22.6997 5.11598 21.7 6.65538C20.444 8.58976 18.5413 9.77288 16.4037 10.6224C15.5473 10.9634 14.3374 11.6114 13.8947 10.5708C13.5511 9.76735 13.9556 8.51482 14.7892 7.74266C15.0241 7.52643 15.4796 7.55469 15.7833 7.38331C17.2588 6.55586 20.0912 5.89489 19.1671 4.13926C18.1343 2.18092 15.8165 4.00781 14.2501 4.73021C12.0252 5.76098 10.1433 7.39436 10.1654 9.98296C10.1876 12.4751 12.4918 13.2909 14.4013 14.2056C17.3812 15.6368 20.2811 17.1265 19.9123 21.0192C19.6049 24.27 16.4983 26.8654 12.2084 27.7733C9.47872 28.3495 6.76936 28.5252 4.09012 27.659C2.32322 27.0877 0.860648 26.151 0.645473 24.1023C0.440749 22.1649 1.28485 20.701 2.89559 19.6868C4.63297 18.5934 6.61504 18.1468 8.68073 18.1745C9.80271 18.1898 10.9093 18.3655 10.653 19.9252C10.4747 21.0211 10.2128 22.018 8.70593 21.827C8.58738 21.8134 8.46805 21.8077 8.34874 21.8098C6.77919 21.8098 4.40489 21.1881 4.40489 23.4039C4.40489 25.0975 7.30668 24.5096 8.36473 24.5096M92.7773 16.2143C93.057 12.4555 94.3419 9.20466 97.4528 6.96313C100.685 4.63499 104.633 6.33841 104.511 10.174C104.29 17.0497 101.745 23.0421 95.775 27.0896C93.1732 28.8526 90.1626 29.7126 87.2147 27.7407C84.4568 25.8966 83.9029 23.0421 84.3793 20.0388C85.6335 12.1366 89.056 5.57116 96.6179 1.71775C97.346 1.34425 98.1038 1.03134 98.8834 0.782192C100.185 0.369392 101.319 0.691278 101.681 2.06114C102.022 3.35052 100.975 3.93164 99.9309 4.24185C92.4711 6.45696 89.3308 12.1041 87.7877 18.9988C87.2621 21.3423 87.1028 23.8695 89.6173 25.1239C92.0986 26.3647 94.1913 24.7571 95.8359 23.0789C98.7592 20.0953 100.363 16.3752 101.197 12.3541C101.418 11.2895 101.83 9.81526 100.315 9.37666C98.7942 8.93868 97.8886 10.1691 97.4011 11.3516C96.5072 13.52 96.2072 16.1043 92.7773 16.2143ZM82.9641 6.17378C83.2303 5.18723 84.2736 1.74723 82.9696 0.265578C82.0806 -0.743079 81.3042 1.38051 80.9998 2.33633C79.7199 6.37833 78.3452 10.4013 77.3456 14.5133C76.1596 19.3809 72.6676 22.1298 68.0008 25.3653C69.2027 22.2072 70.5442 18.5473 70.8755 17.7954C71.1331 17.2082 72.723 15.5472 70.7132 14.8063C69.2728 14.2737 68.7447 15.3033 68.0531 16.4262C66.0243 19.7218 63.3254 22.4063 59.6717 24.2184C61.2209 20.8153 60.3449 17.3231 60.3873 14.009C60.4027 12.8296 62.2095 10.9228 60.0246 10.3528C57.6349 9.73111 57.9835 11.8737 57.5931 13.1441C55.9541 18.4896 51.8141 21.6145 47.0686 25.3825C47.2837 24.0274 47.3348 23.582 47.4252 23.1465C48.1076 19.8865 53.4316 15.9397 46.0044 13.8726C45.8876 13.8413 45.9146 13.4242 45.8077 13.2184C45.3927 12.4211 44.7828 11.8436 43.8121 12.1502C42.7718 12.4806 42.1306 13.3959 42.331 14.3573C43.1063 18.0971 34.1827 25.2762 33.8906 25.0618C33.5998 24.8487 36.2662 19.0283 37.2166 16.5276C37.4035 16.0392 38.0755 15.5109 37.4871 14.9783C36.8976 14.4488 36.0276 14.5821 35.4645 14.9372C34.6862 15.4268 34.0849 16.1946 33.405 16.8427C31.2735 18.8668 29.45 21.2551 26.0995 23.313C27.1172 20.5374 28.1357 17.762 29.1549 14.9869C27.752 14.9482 26.3294 14.4242 25.9501 15.6829C25.1816 18.2248 21.8919 22.3878 21.0379 24.6109C20.9113 24.9396 20.9223 25.2805 20.9051 25.5078C20.8498 26.1503 22.2749 24.5741 22.1654 24.9549C22.0302 25.42 21.9859 25.5189 21.8611 26.1958C21.7302 26.9151 21.2623 27.9858 22.3511 28.5977C23.4079 29.1917 24.2606 28.5362 24.9621 28.0141C26.9282 26.5435 28.7848 24.9316 30.7847 23.2927C31.6608 25.189 28.8543 27.4502 31.3196 28.4969C33.5328 29.438 35.2825 27.4649 36.9572 26.229C39.6536 24.2387 41.9769 21.8755 43.8698 19.1045C44.3617 18.3839 44.7164 17.0098 45.879 17.5577C47.293 18.2224 45.8747 19.1843 45.641 19.9049C45.0588 21.6894 44.2258 23.3959 43.4487 25.1147C42.9231 26.2806 42.7183 27.3586 43.8231 28.3311C44.9814 29.3532 46.1452 28.7076 47.1374 28.1775C48.49 27.4532 49.6974 26.4593 50.9663 25.5815C52.7947 23.6195 54.6212 21.6575 56.5492 19.5861C57.4529 23.6404 56.789 24.775 52.9539 25.9642C52.4959 26.1067 52.3514 26.275 52.1805 26.5269C52.0022 26.7917 51.7145 27.2788 52.2383 27.6725C53.9124 28.9294 60.6412 26.9864 64.2482 24.3947C64.9767 25.8475 63.3321 27.7954 65.3628 28.6007C67.1745 29.3176 68.5289 27.9748 69.8931 27.1314C71.2211 26.3144 72.4027 25.2652 73.7515 24.2399C74.2667 26.0091 72.8213 28.0718 75.286 28.7795C77.8601 29.5215 81.8366 25.4992 81.2156 22.7693C79.8526 23.4192 79.2987 25.2142 77.2374 25.3352C77.9444 20.9332 79.3522 16.8556 80.8584 12.7927C82.0413 9.59842 82.0413 9.59842 82.9641 6.17378ZM151.856 20.2864C151.426 21.0942 150.783 21.8884 151.209 22.867C152.002 24.6957 150.642 25.291 149.383 25.3806C147.667 25.5066 147.953 23.926 147.756 23.0341C147.826 21.33 148.179 19.8865 149.213 18.6831C150.022 17.7408 151.039 16.9956 152.266 17.7789C153.795 18.7543 152.284 19.4841 151.856 20.2864ZM157.394 22.4222C153.541 23.2761 155.142 20.443 155.538 19.4104C156.304 17.4054 155.856 16.0195 154.299 14.834C152.702 13.6189 150.941 13.8548 149.278 14.697C146.923 15.8881 145.544 17.9152 144.852 20.3214C144.183 22.6514 142.436 23.7184 139.701 25.1042C140.814 22.4038 141.634 20.4172 142.449 18.4282C142.917 17.285 143.923 15.9686 142.496 15.014C141.084 14.0698 140.11 15.4722 139.16 16.2438C137.181 17.847 135.274 19.5339 132.853 21.601C133.311 18.1118 134.586 15.5711 135.756 12.9887C137.14 9.93628 139.065 7.08169 139.514 3.68224C139.66 2.58451 140.116 1.03343 138.649 0.669778C137.144 0.295678 136.888 1.91309 136.491 2.92789C134.72 7.45825 133.14 12.0648 131.248 16.5448C129.489 20.7108 125.873 23.0758 121.808 24.9912C122.569 21.7318 123.607 18.6911 124.782 15.702C125.727 13.2995 125.079 12.5464 127.883 12.5464C129.144 12.5464 130.159 10.311 128.835 10.311C125.845 10.311 127.754 8.07192 128.132 6.93979C128.697 5.23883 129.945 3.22766 128.255 2.57959C126.097 1.74969 125.794 3.80632 125.265 5.58775C125.232 5.69709 125.156 6.01406 125.013 6.58658C124.616 8.15915 124.789 10.1488 121.605 10.1488C120.55 10.1488 119.686 12.2644 120.993 12.4247C124.031 12.7988 123.34 12.6268 121.766 15.8396C119.872 19.7046 116.517 22.4112 112.916 24.8438C112.237 23.8597 112.773 23.4057 112.908 22.8744C113.694 19.728 118.45 15.9366 111.441 13.9936C111.296 13.9537 111.251 13.5882 111.149 13.3793C110.754 12.5697 110.179 12.0341 109.188 12.3375C108.281 12.6152 107.631 13.5096 107.815 14.1736C108.616 17.0472 106.531 18.6616 105.077 20.4989C104.148 21.6728 103.503 22.7435 104.179 24.3314C107.264 22.7263 108.512 19.3514 111.487 17.5233C110.953 20.0456 109.875 22.2687 108.968 24.5544C108.523 25.6798 107.804 26.944 109.039 28.0915C110.422 29.376 111.694 28.3839 112.944 27.8525C115.055 26.9557 116.231 24.7013 118.611 23.883C118.847 25.5729 116.969 27.366 119.018 28.4594C120.711 29.3637 122.196 28.07 123.576 27.2708C125.05 26.4133 126.386 25.3321 127.858 24.2964C128.573 25.8278 126.018 27.6437 128.138 28.4343C129.652 28.9982 130.675 27.081 131.776 26.1147C133.663 24.458 135.452 22.695 137.283 20.9762C138.455 19.9805 138.233 20.5124 137.869 21.5948C137.536 22.5426 137.124 23.4764 136.889 24.4488C136.561 25.8094 135.167 27.3384 136.968 28.5282C138.428 29.4914 139.627 28.183 140.855 27.6013C141.385 27.3513 141.934 27.0441 142.324 26.6301C143.601 25.2664 144.341 25.3315 145.457 27.011C146.936 29.2377 149.276 29.1579 151.435 27.8802C153.087 26.9016 154.252 25.1552 156.613 25.4451C157.481 25.552 158.009 24.6533 157.991 23.7337C157.982 23.2239 158.147 22.2558 157.394 22.4222Z" fill="#3E7C7B"/>
</svg>
