<svg width="160" height="22" viewBox="0 0 160 22" fill="none" xmlns="http://www.w3.org/2000/svg">
<path d="M8.94577 0.452054C11.98 0.452054 14.512 1.46667 16.5418 3.49589C18.5925 5.50502 19.6179 8.00639 19.6179 11C19.6179 13.9936 18.5925 16.505 16.5418 18.5342C14.512 20.5434 11.98 21.5479 8.94577 21.5479H0V0.452054H8.94577ZM8.94577 16.3342C10.4733 16.3342 11.7184 15.8521 12.681 14.8877C13.6436 13.9032 14.1249 12.6073 14.1249 11C14.1249 9.39269 13.6436 8.10685 12.681 7.14247C11.7184 6.15799 10.4733 5.66575 8.94577 5.66575H5.77551V16.3342H8.94577Z" fill="#3E7C7B"/>
<path d="M28.4698 9.28219C28.7627 8.29772 29.3486 7.53425 30.2275 6.99178C31.1064 6.44931 32.0899 6.17808 33.1781 6.17808V11.7233C31.9853 11.5425 30.8971 11.7534 29.9136 12.3562C28.951 12.9589 28.4698 13.9434 28.4698 15.3096V21.5479H23.2592V6.47945H28.4698V9.28219Z" fill="#3E7C7B"/>
<path d="M39.4528 21.9699C38.5321 21.9699 37.7474 21.6685 37.0987 21.0658C36.4709 20.4429 36.157 19.6995 36.157 18.8356C36.157 17.9717 36.4814 17.2384 37.1301 16.6356C37.7788 16.0128 38.553 15.7014 39.4528 15.7014C40.3527 15.7014 41.1164 16.0128 41.7442 16.6356C42.3929 17.2384 42.7173 17.9717 42.7173 18.8356C42.7173 19.6995 42.3929 20.4429 41.7442 21.0658C41.1164 21.6685 40.3527 21.9699 39.4528 21.9699Z" fill="#3E7C7B"/>
<path d="M63.1395 22C60.8167 22 58.8916 21.5279 57.364 20.5836C55.8364 19.6393 54.7692 18.3635 54.1624 16.7562L58.9648 14.074C59.7809 15.9425 61.2248 16.8767 63.2965 16.8767C65.0124 16.8767 65.8703 16.4046 65.8703 15.4603C65.8703 14.8374 65.3786 14.3352 64.3951 13.9534C63.9765 13.7927 63.0558 13.5215 61.6329 13.1397C59.624 12.5772 58.0336 11.7936 56.8618 10.789C55.6899 9.76438 55.104 8.34795 55.104 6.53973C55.104 4.59087 55.826 3.0137 57.2698 1.80822C58.7346 0.60274 60.5552 0 62.7315 0C64.5729 0 66.2051 0.411872 67.6281 1.23562C69.051 2.05936 70.1392 3.25479 70.8925 4.82192L66.1842 7.47397C65.4937 5.90685 64.3532 5.12329 62.7628 5.12329C62.0932 5.12329 61.5805 5.25388 61.2248 5.51507C60.89 5.77626 60.7226 6.10776 60.7226 6.50959C60.7226 6.97169 60.9737 7.36347 61.4759 7.68493C61.9991 8.00639 63.0035 8.37808 64.4892 8.8C65.5564 9.10137 66.4144 9.38265 67.0631 9.64384C67.7118 9.90502 68.4233 10.2868 69.1975 10.789C69.9718 11.2712 70.5472 11.9041 70.9239 12.6877C71.3006 13.4511 71.4889 14.3553 71.4889 15.4C71.4889 17.4694 70.7251 19.0868 69.1975 20.2521C67.6699 21.4174 65.6506 22 63.1395 22Z" fill="#3E7C7B"/>
<path d="M89.6617 19.9808C88.0504 21.3269 85.9683 22 83.4154 22C80.8624 22 78.7698 21.3269 77.1376 19.9808C75.5263 18.6347 74.7207 16.8466 74.7207 14.6164V0.452054H80.3393V14.1041C80.3393 15.8721 81.3646 16.7562 83.4154 16.7562C85.4661 16.7562 86.4914 15.8721 86.4914 14.1041V0.452054H92.11V14.6164C92.11 16.8466 91.2939 18.6347 89.6617 19.9808Z" fill="#3E7C7B"/>
<path d="M108.068 21.5479L104.238 14.737H102.229V21.5479H96.6109V0.452054H105.4C107.639 0.452054 109.512 1.14521 111.018 2.53151C112.546 3.89772 113.31 5.63562 113.31 7.7452C113.31 9.01096 112.975 10.1763 112.305 11.2411C111.636 12.2858 110.725 13.1196 109.574 13.7425L114.094 21.5479H108.068ZM102.229 5.42466V10.1562H105.337C106.027 10.1763 106.592 9.9653 107.032 9.52329C107.471 9.08128 107.691 8.50868 107.691 7.80548C107.691 7.10228 107.471 6.52968 107.032 6.08767C106.592 5.64566 106.027 5.42466 105.337 5.42466H102.229Z" fill="#3E7C7B"/>
<path d="M124.84 22C122.518 22 120.592 21.5279 119.065 20.5836C117.537 19.6393 116.47 18.3635 115.863 16.7562L120.666 14.074C121.482 15.9425 122.926 16.8767 124.997 16.8767C126.713 16.8767 127.571 16.4046 127.571 15.4603C127.571 14.8374 127.079 14.3352 126.096 13.9534C125.677 13.7927 124.757 13.5215 123.334 13.1397C121.325 12.5772 119.734 11.7936 118.563 10.789C117.391 9.76438 116.805 8.34795 116.805 6.53973C116.805 4.59087 117.527 3.0137 118.971 1.80822C120.435 0.60274 122.256 0 124.432 0C126.274 0 127.906 0.411872 129.329 1.23562C130.752 2.05936 131.84 3.25479 132.593 4.82192L127.885 7.47397C127.194 5.90685 126.054 5.12329 124.464 5.12329C123.794 5.12329 123.281 5.25388 122.926 5.51507C122.591 5.77626 122.423 6.10776 122.423 6.50959C122.423 6.97169 122.674 7.36347 123.177 7.68493C123.7 8.00639 124.704 8.37808 126.19 8.8C127.257 9.10137 128.115 9.38265 128.764 9.64384C129.413 9.90502 130.124 10.2868 130.898 10.789C131.673 11.2712 132.248 11.9041 132.625 12.6877C133.001 13.4511 133.19 14.3553 133.19 15.4C133.19 17.4694 132.426 19.0868 130.898 20.2521C129.371 21.4174 127.351 22 124.84 22Z" fill="#3E7C7B"/>
<path d="M136.488 0.452054H142.107V21.5479H136.488V0.452054Z" fill="#3E7C7B"/>
<path d="M152.435 16.3342H160V21.5479H146.817V0.452054H152.435V16.3342Z" fill="#3E7C7B"/>
</svg>
