<svg width="209" height="51" viewBox="0 0 209 51" fill="none" xmlns="http://www.w3.org/2000/svg">
<path d="M11.3691 28.8692V20.8492H18.319C21.1581 20.8492 22.178 21.913 22.178 24.8592C22.178 27.8054 20.302 28.8692 18.1176 28.8692H11.3691ZM11.3691 43.4804V35.4603H19.0304C21.2652 35.4603 22.5809 36.5242 22.5809 39.4703C22.5809 42.4165 21.5673 43.4804 18.7219 43.4804H11.3628H11.3691ZM0 49.9267H19.8928C26.4398 49.9267 30.5002 46.7791 30.5002 40.3894C30.5002 35.9765 28.725 33.2885 25.0171 32.1679V31.2048C28.2151 29.9331 30.0407 27.3962 30.0407 23.5939C30.0407 17.4057 26.1313 14.4092 18.98 14.4092H0V21.208H4.0604V43.1279H0V49.9267Z" fill="#020002"/>
<path d="M45.97 30.3927V20.8555H53.9901C57.0873 20.8555 58.2016 22.1774 58.2016 25.6272C58.2016 29.077 57.0873 30.399 53.9901 30.399H45.97V30.3927ZM38.5102 49.9267H45.97V36.7319H51.856L59.618 49.9267H68.0913L60.0209 36.178V34.4027C63.5714 33.1311 65.9572 30.0401 65.9572 25.1173C65.9572 17.9093 62.2557 14.4092 54.5378 14.4092H38.5039V49.9267H38.5102Z" fill="#020002"/>
<path d="M82.0379 34.2523V29.2288L88.075 21.8193H89.2396L95.5285 29.5309V34.2523H82.0316H82.0379ZM102.995 49.9336V26.4903L92.3369 13.9062H85.2359L74.5781 26.4903V49.9336H82.0379V41.0511H95.5348V49.9336H102.995Z" fill="#020002"/>
<path d="M111.09 14.4092V37.3426L121.999 50.1785H129.56L140.52 37.2418V14.4092H132.909V34.7049L126.519 42.5676H125.348L118.701 34.4027V14.4092H111.09Z" fill="#020002"/>
<path d="M149.535 14.4092V49.9267H174.143V43.1279H156.838V35.5673H170.083V28.7685H156.838V21.208H173.633V14.4092H149.535Z" fill="#020002"/>
<path d="M193.985 0L184.089 5.83564V14.0068L191.6 9.58758H192.563V28.7187H182.516V35.5175H208.999V28.7187H199.871V0H193.985Z" fill="#020002"/>
</svg>
