<svg width="202" height="47" viewBox="0 0 202 47" fill="none" xmlns="http://www.w3.org/2000/svg">
<path d="M158.631 23.4794C158.631 22.2807 158.631 21.1531 158.592 20.1118C158.566 19.1294 158.47 18.1502 158.304 17.1818C158.149 16.2976 157.875 15.4388 157.49 14.6292C157.083 13.7944 156.54 13.0349 155.882 12.3827C154.95 11.4192 153.841 10.6481 152.617 10.1124C151.292 9.57121 149.874 9.30291 148.445 9.32335C147.011 9.30465 145.587 9.57285 144.256 10.1124C143.025 10.6408 141.909 11.4086 140.972 12.3719C140.316 13.0238 139.774 13.7834 139.371 14.6184C138.989 15.4282 138.719 16.2871 138.569 17.1711C138.407 18.1397 138.314 19.1189 138.292 20.101C138.266 21.1423 138.253 22.2699 138.259 23.4686C138.266 24.6673 138.259 25.7863 138.292 26.8341C138.314 27.8162 138.407 28.7954 138.569 29.764C138.719 30.648 138.989 31.5069 139.371 32.3167C139.776 33.1507 140.317 33.9101 140.972 34.5632C141.907 35.5273 143.024 36.2939 144.256 36.8183C145.586 37.3615 147.01 37.6312 148.445 37.6117C149.874 37.633 151.293 37.3631 152.617 36.8183C153.841 36.2898 154.951 35.5235 155.882 34.5632C156.538 33.9097 157.081 33.1504 157.49 32.3167C157.875 31.5071 158.149 30.6483 158.304 29.764C158.468 28.7984 158.563 27.8221 158.588 26.8427C158.62 25.7949 158.635 24.6738 158.627 23.4772L158.631 23.4794ZM153.245 23.4794C153.245 24.8075 153.226 25.9135 153.181 26.7931C153.156 27.5157 153.084 28.2358 152.967 28.9491C152.887 29.4243 152.743 29.8863 152.54 30.3224C152.375 30.6739 152.159 30.9987 151.899 31.2861C151.498 31.7494 151 32.1175 150.441 32.3641C149.813 32.6355 149.135 32.7735 148.452 32.7695C147.764 32.7725 147.084 32.6346 146.451 32.3641C145.879 32.1221 145.368 31.7538 144.955 31.2861C144.694 31 144.477 30.675 144.314 30.3224C144.116 29.8859 143.98 29.4236 143.908 28.9491C143.794 28.2354 143.722 27.5155 143.694 26.7931C143.656 25.9135 143.637 24.8089 143.637 23.4794C143.637 22.1513 143.656 21.0432 143.694 20.1635C143.723 19.4412 143.794 18.7213 143.908 18.0076C143.98 17.533 144.116 17.0708 144.314 16.6342C144.478 16.282 144.694 15.957 144.955 15.6705C145.368 15.2035 145.879 14.8353 146.451 14.5925C147.083 14.319 147.764 14.181 148.452 14.1872C149.136 14.18 149.814 14.3181 150.441 14.5925C150.999 14.8398 151.497 15.2078 151.899 15.6705C152.158 15.9583 152.374 16.283 152.54 16.6342C152.743 17.0703 152.887 17.5324 152.967 18.0076C153.084 18.7209 153.156 19.441 153.181 20.1635C153.228 21.041 153.245 22.1492 153.245 23.4794Z" fill="#23AF91"/>
<path d="M201.545 10.0429C201.543 9.7807 201.333 9.56875 201.073 9.56641H196.63C196.369 9.56759 196.159 9.78022 196.157 10.0429V26.6007L185.322 9.70008C185.249 9.58581 185.185 9.56641 185.025 9.56641H180.904C180.645 9.56989 180.436 9.78118 180.432 10.0429V36.9105C180.436 37.1718 180.645 37.3825 180.904 37.3848H185.345C185.605 37.3836 185.814 37.172 185.816 36.9105V20.3096L196.653 37.249C196.728 37.3632 196.788 37.3826 196.95 37.3826H201.069C201.328 37.3815 201.539 37.1701 201.541 36.9083L201.545 10.0429Z" fill="#23AF91"/>
<path d="M171.762 10.0429C171.761 9.78022 171.55 9.56759 171.289 9.56641H166.85C166.59 9.56759 166.379 9.78022 166.378 10.0429V36.9083C166.379 37.171 166.59 37.3836 166.85 37.3848H171.289C171.55 37.3836 171.761 37.171 171.762 36.9083V10.0429Z" fill="#23AF91"/>
<path d="M118.623 23.4792C118.623 22.1425 118.638 21.03 118.677 20.1439C118.703 19.4214 118.774 18.7013 118.89 17.9879C119.301 15.5948 121.117 14.1827 123.436 14.1827C124.949 14.1956 126.321 14.7605 127.197 16.0454C127.594 16.6453 127.884 17.3108 128.052 18.0117C128.065 18.0855 128.132 18.137 128.206 18.1302H133.432C133.506 18.1302 133.534 18.0785 133.521 18.0052C132.951 14.7432 131.226 11.8133 128.178 10.3623C126.681 9.66271 125.046 9.31268 123.395 9.33822C120.453 9.33822 117.975 10.3544 115.96 12.3867C114.81 13.5176 114.025 14.9724 113.708 16.5607C113.4 18.1245 113.245 20.4299 113.242 23.477C113.239 26.5241 113.394 28.8288 113.708 30.3912C114.022 31.9816 114.805 33.4392 115.954 34.5738C117.967 36.6047 120.445 37.6201 123.389 37.6201C125.039 37.6453 126.674 37.2961 128.172 36.5982C131.22 35.1473 132.944 32.2173 133.515 28.9553C133.528 28.8799 133.5 28.8303 133.425 28.8303H128.198C128.123 28.8224 128.056 28.8744 128.044 28.9489C127.875 29.6489 127.585 30.3136 127.189 30.9129C126.313 32.2065 124.941 32.7649 123.427 32.7757C121.109 32.7757 119.292 31.3657 118.882 28.9726C118.766 28.2592 118.694 27.5391 118.668 26.8166C118.638 25.9262 118.623 24.8116 118.623 23.4792Z" fill="#23AF91"/>
<path d="M63.4331 10.0429C63.4319 9.78022 63.2211 9.56759 62.9608 9.56641H58.5219C58.2615 9.56759 58.0507 9.78022 58.0496 10.0429V36.9105C58.0519 37.1723 58.2623 37.3836 58.5219 37.385H62.9608C63.2203 37.3836 63.4307 37.1723 63.4331 36.9105V29.024L66.9957 24.7271L74.3134 37.2425C74.3697 37.3348 74.471 37.3892 74.5784 37.385H79.9726C80.2205 37.385 80.2654 37.2296 80.1414 37.0161L70.5605 20.6308L79.3507 9.99329C79.528 9.77769 79.4532 9.57287 79.1754 9.57287H73.279C73.2072 9.56862 73.1382 9.60102 73.0952 9.65911L63.4331 21.3487V10.0429Z" fill="#23AF91"/>
<path d="M95.7727 32.7754C93.2744 32.7754 91.009 30.4426 91.009 27.6571V10.0429C91.0078 9.78022 90.7971 9.56759 90.5367 9.56641H86.0978C85.8374 9.56759 85.6267 9.78022 85.6255 10.0429V27.5881C85.6255 33.7218 90.1734 37.6198 95.7727 37.6198C101.372 37.6198 105.92 33.7218 105.92 27.5881V10.0429C105.918 9.7807 105.708 9.56875 105.448 9.56641H101.007C100.747 9.56876 100.538 9.78105 100.536 10.0429V27.6571C100.536 30.4404 98.269 32.7754 95.7727 32.7754Z" fill="#23AF91"/>
<path fill-rule="evenodd" clip-rule="evenodd" d="M13.4299 23.479L27.2104 37.3828L35.9086 28.608C37.464 27.1952 39.8435 27.2581 41.3235 28.7511C42.8034 30.244 42.8657 32.6445 41.4652 34.2135L29.9865 45.7954C28.4447 47.3251 25.9718 47.3251 24.4299 45.7954L7.86903 29.0845V39.017C7.86903 41.2091 6.10749 42.9862 3.93452 42.9862C1.76154 42.9862 0 41.2091 0 39.017V7.92804C0 5.73595 1.76154 3.95891 3.93452 3.95891C6.10749 3.95891 7.86903 5.73595 7.86903 7.92804V17.8606L24.4278 1.154C25.9692 -0.376854 28.443 -0.376854 29.9844 1.154L41.4717 12.7337C42.8721 14.3027 42.8098 16.7032 41.3299 18.1962C39.8499 19.6891 37.4704 19.752 35.915 18.3392L27.2168 9.56441L13.4299 23.479ZM27.2168 19.5056C25.6235 19.5047 24.1866 20.4722 23.5763 21.9569C22.966 23.4416 23.3024 25.151 24.4287 26.2879C25.5551 27.4247 27.2494 27.7651 28.7215 27.1502C30.1935 26.5353 31.1534 25.0863 31.1534 23.479C31.154 22.4252 30.7396 21.4143 30.0013 20.6687C29.263 19.9232 28.2614 19.504 27.2168 19.5034V19.5056Z" fill="#23AF91"/>
</svg>
