<svg width="203" height="30" viewBox="0 0 203 30" fill="none" xmlns="http://www.w3.org/2000/svg">
<g clip-path="url(#clip0_266_1843)">
<path d="M34.1046 23.6532L28.5363 29.5907C28.4158 29.7197 28.27 29.8227 28.1078 29.8931C27.9456 29.9635 27.7705 30 27.5935 30.0001H1.19727C1.07137 30.0001 0.948226 29.9635 0.842911 29.8949C0.737599 29.8263 0.65469 29.7286 0.604333 29.6139C0.553975 29.4991 0.538358 29.3723 0.559393 29.2488C0.580428 29.1254 0.637199 29.0107 0.722761 28.9189L6.28483 22.9814C6.40528 22.8524 6.55112 22.7495 6.71333 22.6791C6.87551 22.6087 7.05058 22.5722 7.22756 22.572H33.6238C33.7508 22.5694 33.8759 22.6042 33.983 22.6721C34.0902 22.74 34.175 22.8378 34.2262 22.9534C34.2778 23.069 34.2935 23.1971 34.2718 23.3217C34.2501 23.4462 34.192 23.5616 34.1046 23.6532ZM28.5363 11.6939C28.4154 11.5655 28.2694 11.463 28.1073 11.3926C27.9452 11.3222 27.7704 11.2854 27.5935 11.2845H1.19727C1.07137 11.2846 0.948226 11.3212 0.842911 11.3898C0.737599 11.4584 0.65469 11.556 0.604333 11.6708C0.553975 11.7855 0.538358 11.9124 0.559393 12.0358C0.580428 12.1592 0.637199 12.2739 0.722761 12.3658L6.28483 18.3064C6.40572 18.4348 6.55169 18.5373 6.71377 18.6077C6.87586 18.6781 7.0507 18.7148 7.22756 18.7157H33.6238C33.7495 18.7151 33.8721 18.6781 33.977 18.6092C34.082 18.5404 34.1643 18.4427 34.2143 18.3281C34.2643 18.2135 34.2797 18.0868 34.2583 17.9637C34.2372 17.8405 34.1807 17.7262 34.0952 17.6345L28.5363 11.6939ZM1.19727 7.42825H27.5935C27.7705 7.42809 27.9456 7.39162 28.1078 7.32118C28.27 7.25078 28.4158 7.14784 28.5363 7.01887L34.1046 1.08139C34.192 0.989675 34.2501 0.874296 34.2718 0.749768C34.2935 0.62524 34.2778 0.497125 34.2262 0.381543C34.175 0.265962 34.0902 0.16808 33.983 0.100214C33.8759 0.0323467 33.7508 -0.00247279 33.6238 0.000136626H7.22756C7.05058 0.000321888 6.87551 0.0367673 6.71333 0.1072C6.55112 0.177633 6.40528 0.280543 6.28483 0.409512L0.722761 6.347C0.637199 6.43884 0.580428 6.55353 0.559393 6.67697C0.538358 6.8004 0.553975 6.92725 0.604333 7.042C0.65469 7.15675 0.737599 7.2544 0.842911 7.323C0.948226 7.39162 1.07137 7.42818 1.19727 7.42825Z" fill="url(#paint0_linear_266_1843)"/>
<path d="M66.2861 12.6876H52.1641V8.06257H69.9564V3.43757H52.1169C51.5073 3.43429 50.9033 3.55041 50.3389 3.77932C49.7746 4.00826 49.2608 4.34547 48.8278 4.77176C48.3944 5.19804 48.0497 5.70504 47.8134 6.26376C47.5771 6.82251 47.4536 7.42207 47.4504 8.02819V12.7157C47.453 13.3223 47.5755 13.9226 47.8115 14.482C48.0475 15.0415 48.3919 15.5492 48.8252 15.9762C49.2589 16.4031 49.7727 16.7409 50.3374 16.9702C50.9021 17.1995 51.507 17.3159 52.1169 17.3126H66.2578V21.9376H47.7867V26.5626H66.2861C66.8957 26.5659 67.4997 26.4497 68.0641 26.2208C68.6284 25.9919 69.1419 25.6547 69.5752 25.2284C70.0086 24.8021 70.3533 24.2951 70.5896 23.7364C70.8259 23.1776 70.9494 22.5781 70.9526 21.9719V17.2844C70.95 16.6778 70.8275 16.0776 70.5915 15.5181C70.3555 14.9586 70.0111 14.4509 69.5778 14.024C69.1441 13.597 68.6303 13.2593 68.0656 13.0299C67.5009 12.8006 66.896 12.6843 66.2861 12.6876Z" fill="white"/>
<path d="M93.6439 3.43765H79.4685C78.8579 3.43272 78.2524 3.54762 77.6864 3.77581C77.1208 4.004 76.6057 4.34093 76.1711 4.7674C75.7362 5.19384 75.3906 5.70137 75.1536 6.26093C74.9164 6.8205 74.7926 7.42109 74.7894 8.02828V21.972C74.7926 22.5792 74.9164 23.1798 75.1536 23.7394C75.3906 24.2989 75.7362 24.8065 76.1711 25.2329C76.6057 25.6594 77.1208 25.9963 77.6864 26.2245C78.2524 26.4527 78.8579 26.5676 79.4685 26.5627H93.6439C94.2535 26.5659 94.8575 26.4498 95.4219 26.2209C95.9863 25.992 96.5001 25.6547 96.9331 25.2285C97.3664 24.8022 97.7112 24.2952 97.9475 23.7365C98.1838 23.1777 98.3073 22.5782 98.3104 21.972V8.02828C98.3073 7.42215 98.1838 6.82259 97.9475 6.26384C97.7112 5.70512 97.3664 5.19812 96.9331 4.77184C96.5001 4.34556 95.9863 4.00834 95.4219 3.7794C94.8575 3.5505 94.2535 3.43437 93.6439 3.43765ZM93.6094 21.9377H79.5031V8.06265H93.6031L93.6094 21.9377Z" fill="white"/>
<path d="M143.294 3.43784H129.468C128.858 3.43456 128.254 3.55069 127.69 3.77959C127.125 4.00853 126.611 4.34575 126.178 4.77203C125.745 5.19831 125.4 5.70531 125.164 6.26403C124.928 6.82278 124.804 7.42234 124.801 8.02847V26.5628H129.515V18.966H143.278V26.5628H147.992V8.02847C147.989 7.41969 147.864 6.81756 147.626 6.25675C147.388 5.69597 147.041 5.18759 146.604 4.76087C146.167 4.33419 145.65 3.99762 145.082 3.77056C144.514 3.5435 143.906 3.43044 143.294 3.43784ZM143.26 14.341H129.496V8.06284H143.26V14.341Z" fill="white"/>
<path d="M198.333 3.43757H184.507C183.897 3.43429 183.293 3.55041 182.729 3.77932C182.164 4.00825 181.651 4.34547 181.218 4.77175C180.784 5.19804 180.44 5.70504 180.203 6.26376C179.967 6.8225 179.843 7.42207 179.84 8.02819V26.5626H184.554V18.9657H198.286V26.5626H203V8.02819C202.997 7.42207 202.873 6.8225 202.637 6.26376C202.401 5.70504 202.056 5.19804 201.623 4.77175C201.189 4.34547 200.676 4.00825 200.111 3.77932C199.547 3.55041 198.943 3.43429 198.333 3.43757ZM198.286 14.3407H184.523V8.06257H198.286V14.3407Z" fill="white"/>
<path d="M170.947 21.9375H169.062L162.321 5.37504C162.09 4.80363 161.693 4.31391 161.18 3.96873C160.667 3.62351 160.062 3.43854 159.443 3.43754H155.26C154.854 3.43548 154.451 3.51307 154.075 3.66585C153.698 3.81866 153.356 4.04367 153.067 4.32804C152.778 4.61245 152.549 4.9506 152.391 5.32329C152.234 5.69595 152.152 6.09582 152.149 6.50004V26.5625H156.863V8.06254H158.748L165.486 24.625C165.721 25.1954 166.121 25.6831 166.636 26.0259C167.151 26.3689 167.757 26.5513 168.377 26.55H172.559C172.966 26.5521 173.369 26.4745 173.745 26.3217C174.122 26.1689 174.464 25.9439 174.753 25.6595C175.042 25.3752 175.271 25.037 175.429 24.6643C175.586 24.2916 175.668 23.8918 175.67 23.4875V3.43754H170.947V21.9375Z" fill="white"/>
<path d="M107.188 3.4375H102.474V21.9719C102.477 22.5793 102.601 23.1802 102.839 23.7399C103.076 24.2997 103.422 24.8074 103.857 25.2339C104.292 25.6604 104.807 25.9972 105.373 26.2252C105.94 26.4532 106.545 26.5678 107.156 26.5625H121.297V21.9375H107.188V3.4375Z" fill="white"/>
</g>
<defs>
<linearGradient id="paint0_linear_266_1843" x1="3.39695" y1="30.7158" x2="30.9033" y2="-0.467248" gradientUnits="userSpaceOnUse">
<stop offset="0.08" stop-color="#9945FF"/>
<stop offset="0.3" stop-color="#8752F3"/>
<stop offset="0.5" stop-color="#5497D5"/>
<stop offset="0.6" stop-color="#43B4CA"/>
<stop offset="0.72" stop-color="#28E0B9"/>
<stop offset="0.97" stop-color="#19FB9B"/>
</linearGradient>
<clipPath id="clip0_266_1843">
<rect width="203" height="30" fill="white"/>
</clipPath>
</defs>
</svg>
