<svg width="203" height="42" viewBox="0 0 203 42" fill="none" xmlns="http://www.w3.org/2000/svg">
<g clip-path="url(#clip0_266_1853)">
<path d="M35.7685 12.8309C34.894 12.2981 33.757 12.2981 32.7951 12.8309L25.9737 16.9154L21.3386 19.5792L14.5173 23.6639C13.6428 24.1966 12.5059 24.1966 11.5439 23.6639L6.12175 20.4673C5.24722 19.9345 4.63503 18.9578 4.63503 17.8921V11.5877C4.63503 10.5222 5.15976 9.54546 6.12175 9.01269L11.4564 5.90486C12.3309 5.37209 13.4678 5.37209 14.4299 5.90486L19.7645 9.01269C20.639 9.54546 21.2512 10.5222 21.2512 11.5877V15.6723L25.8862 12.9197V8.83509C25.8862 7.76955 25.3616 6.79282 24.3995 6.26005L14.5173 0.399577C13.6428 -0.133193 12.5059 -0.133193 11.5439 0.399577L1.48672 6.26005C0.524722 6.79282 0 7.76955 0 8.83509V20.6448C0 21.7103 0.524722 22.6871 1.48672 23.2198L11.5439 29.0803C12.4184 29.6132 13.5554 29.6132 14.5173 29.0803L21.3386 25.0845L25.9737 22.3319L32.7951 18.3361C33.6696 17.8034 34.8065 17.8034 35.7685 18.3361L41.1031 21.444C41.9777 21.9768 42.5899 22.9535 42.5899 24.019V30.3235C42.5899 31.389 42.0652 32.3657 41.1031 32.8985L35.7685 36.0952C34.894 36.6279 33.757 36.6279 32.7951 36.0952L27.4605 32.9873C26.5858 32.4546 25.9737 31.4778 25.9737 30.4122V26.3277L21.3386 29.0803V33.1649C21.3386 34.2304 21.8634 35.2072 22.8254 35.7399L32.8825 41.6005C33.757 42.1332 34.894 42.1332 35.8559 41.6005L45.9132 35.7399C46.7877 35.2072 47.3998 34.2304 47.3998 33.1649V21.3552C47.3998 20.2897 46.8751 19.3129 45.9132 18.7802L35.7685 12.8309Z" fill="#7950DD"/>
<path d="M65.8651 38.2238V28.4194C66.9315 29.7581 68.8669 30.5063 71.1185 30.5063C76.8459 30.5063 80.717 26.4506 80.717 20.2688C80.717 14.0869 77.1619 10.0312 71.5925 10.0312C69.025 10.0312 67.05 10.9763 65.8651 12.5119V10.3463H60.3745V38.2238H65.8651ZM70.447 25.7813C67.4846 25.7813 65.549 23.5763 65.549 20.2688C65.549 16.9219 67.4846 14.7169 70.447 14.7169C73.3304 14.7169 75.3055 16.9219 75.3055 20.2688C75.3055 23.5763 73.3304 25.7813 70.447 25.7813Z" fill="white"/>
<path d="M93.1843 30.5063C99.3068 30.5063 103.691 26.175 103.691 20.2688C103.691 14.3625 99.3068 10.0312 93.1843 10.0312C87.0619 10.0312 82.6774 14.3625 82.6774 20.2688C82.6774 26.175 87.0619 30.5063 93.1843 30.5063ZM93.1843 25.7812C90.2218 25.7812 88.2073 23.5369 88.2073 20.2688C88.2073 16.9613 90.2218 14.7169 93.1843 14.7169C96.1469 14.7169 98.1614 16.9613 98.1614 20.2688C98.1614 23.5369 96.1469 25.7812 93.1843 25.7812Z" fill="white"/>
<path d="M112.501 30.1908V1.72266H107.011V30.1908H112.501Z" fill="white"/>
<path d="M129.005 10.3457L124.858 23.1426L120.671 10.3457H115.062L122.291 30.0332L119.368 38.2232H124.621L127.426 30.112L134.654 10.3457H129.005Z" fill="white"/>
<path d="M150.074 12.315C148.968 10.9369 146.993 10.0312 144.584 10.0312C138.776 10.0312 135.262 14.0869 135.262 20.2688C135.262 26.4506 138.776 30.5063 144.662 30.5063C146.993 30.5063 149.086 29.64 150.114 28.1831V30.7819C150.114 32.6325 148.889 33.9319 147.229 33.9319H138.065V38.2238H148.098C152.602 38.2238 155.604 35.5069 155.604 31.3725V10.3463H150.074V12.315ZM145.531 25.7813C142.608 25.7813 140.672 23.6156 140.672 20.2688C140.672 16.9219 142.608 14.7169 145.531 14.7169C148.494 14.7169 150.43 16.9219 150.43 20.2688C150.43 23.6156 148.494 25.7813 145.531 25.7813Z" fill="white"/>
<path d="M169.445 30.5063C175.568 30.5063 179.952 26.175 179.952 20.2688C179.952 14.3625 175.568 10.0312 169.445 10.0312C163.323 10.0312 158.938 14.3625 158.938 20.2688C158.938 26.175 163.323 30.5063 169.445 30.5063ZM169.445 25.7812C166.483 25.7812 164.468 23.5369 164.468 20.2688C164.468 16.9613 166.483 14.7169 169.445 14.7169C172.408 14.7169 174.422 16.9613 174.422 20.2688C174.422 23.5369 172.408 25.7812 169.445 25.7812Z" fill="white"/>
<path d="M188.486 30.1913V19.3238C188.486 16.7644 190.184 14.9138 192.594 14.9138C194.884 14.9138 196.424 16.6463 196.424 19.0481V30.1913H201.954V17.8275C201.954 13.26 199.032 10.0312 194.528 10.0312C191.803 10.0312 189.591 11.1731 188.486 13.1025V10.3463H182.956V30.1913H188.486Z" fill="white"/>
</g>
<defs>
<clipPath id="clip0_266_1853">
<rect width="203" height="42" fill="white"/>
</clipPath>
</defs>
</svg>
