<svg width="203" height="76" viewBox="0 0 203 76" fill="none" xmlns="http://www.w3.org/2000/svg">
<path d="M80.9365 19.0003H89.0301V51.5718H97.1237V10.8574H89.0301C84.5786 10.8574 80.9365 14.5218 80.9365 19.0003Z" fill="white"/>
<path d="M105.218 51.5722H113.311V35.2864C113.311 30.8079 109.669 27.1436 105.218 27.1436V51.5722Z" fill="white"/>
<path d="M121.405 27.1436V51.5722H129.498V35.2864H137.592V43.4292C137.592 47.9079 141.235 51.5722 145.685 51.5722V35.2864C145.685 30.8079 142.044 27.1436 137.592 27.1436H121.405Z" fill="white"/>
<path d="M194.247 27.1431H186.154V19.0003C186.154 14.5218 182.512 10.8574 178.06 10.8574V43.4288H161.874V35.2859H169.967V27.1431H161.874C157.422 27.1431 153.779 30.8074 153.779 35.2859V43.4288C153.779 47.9074 157.422 51.5718 161.874 51.5718H186.154V35.2859H194.247V43.4288C194.247 47.9074 197.89 51.5718 202.341 51.5718V35.2859C202.341 30.8074 198.699 27.1431 194.247 27.1431Z" fill="white"/>
<path d="M105.218 19.0003H113.311C113.311 14.5218 109.669 10.8574 105.218 10.8574V19.0003Z" fill="white"/>
<path fill-rule="evenodd" clip-rule="evenodd" d="M93.5552 59.7148V64.978H92.8136L89.9005 61.3314V64.978H89.0303V59.7148H89.7719L92.6851 63.3765V59.7148H93.5552ZM110.019 64.978H106.879V59.7148H109.943V60.5794H107.809V61.8877H109.716V62.7525H107.809V64.1133H110.019V64.978ZM123.343 60.5794H125.06V64.978H125.991V60.5794H127.709V59.7148H123.343V60.5794ZM147.517 59.7148H148.41L146.896 64.978H146.026L144.747 61.1735L143.492 64.978H142.614L141.032 59.7148H142.076L143.143 63.4667L144.323 59.7148H145.247L146.457 63.4742L147.517 59.7148ZM162.505 60.4968C161.991 61.0181 161.734 61.6621 161.734 62.429C161.734 63.2362 161.994 63.8902 162.513 64.3915C163.033 64.8927 163.691 65.1434 164.487 65.1434C165.28 65.1434 165.938 64.8878 166.463 64.3765C166.988 63.8652 167.25 63.2161 167.25 62.429C167.25 61.6271 166.988 60.9729 166.463 60.4667C165.943 59.9654 165.285 59.7148 164.487 59.7148C163.691 59.7148 163.03 59.9755 162.505 60.4968ZM163.225 63.7524C162.886 63.4015 162.718 62.9605 162.718 62.429C162.718 61.8877 162.884 61.4441 163.216 61.0983C163.555 60.7524 163.978 60.5794 164.487 60.5794C164.987 60.5794 165.409 60.7524 165.752 61.0983C166.095 61.4492 166.267 61.8928 166.267 62.429C166.267 62.9605 166.104 63.4015 165.782 63.7524C165.465 64.1033 165.033 64.2788 164.487 64.2788C163.983 64.2788 163.562 64.1033 163.225 63.7524ZM181.504 63.0231V64.993H180.573V59.7299C180.835 59.7299 181.121 59.7274 181.429 59.7223C181.735 59.7174 181.989 59.7148 182.185 59.7148C183.466 59.7148 184.107 60.2561 184.107 61.3389C184.107 61.7398 184.003 62.0707 183.796 62.3314C183.59 62.582 183.352 62.7525 183.085 62.8427L184.743 64.993H183.616L182.155 63.0231H181.504ZM182.14 60.5794C182.115 60.5794 182.074 60.5819 182.018 60.587C181.964 60.587 181.885 60.5895 181.784 60.5945H181.504V62.1584H182.109C182.407 62.1584 182.65 62.0858 182.836 61.9404C183.028 61.795 183.123 61.597 183.123 61.3465C183.123 60.8351 182.795 60.5794 182.14 60.5794ZM198.066 64.978H198.996V62.2637L201.16 64.978H202.341L200.025 62.166L202.205 59.7148H201.085L198.996 62.211V59.7148H198.066V64.978Z" fill="#2F7AEA"/>
<path d="M18.7861 41.4647L20.6746 27.1553L4.26807 15.6959L19.2582 20.8021L22.7992 15.3397L35.7237 7.26465L64.2286 23.0584L65.7039 47.1647L53.0154 64.9178L42.9827 66.4615L48.1762 56.9021V47.699L44.3991 40.5147L40.5631 37.9615L34.6614 44.0771V50.549L30.0582 54.8834L24.2156 55.5959L21.6189 57.0803L17.3697 55.7147L15.5991 49.3021L18.7861 44.7897V41.4647Z" fill="white"/>
<path d="M44.9891 15.5772C41.8612 14.9242 38.4382 15.1022 38.4382 15.1022C38.4382 15.1022 37.3169 20.3272 30.353 21.6929C30.412 21.6929 39.5596 24.8398 44.9891 15.5772Z" fill="#94A6C3"/>
<path d="M47.8218 62.9586C51.5988 59.9898 54.4316 55.893 55.73 51.2617C55.789 51.0836 56.3202 50.7867 56.6743 50.5492C57.2644 50.193 57.8546 49.8961 57.9726 49.4211C58.2087 48.0554 58.3267 46.6304 58.3267 45.2054C58.3267 44.6711 57.7955 44.1367 57.2644 43.6023C56.8514 43.2461 56.4382 42.8304 56.4382 42.5336C55.848 37.1304 53.3694 32.0836 49.4153 28.4023L49.0021 28.818C52.8383 32.4398 55.317 37.368 55.848 42.593C55.9071 43.068 56.3791 43.543 56.8514 44.018C57.2644 44.3742 57.7366 44.9086 57.7366 45.1461C57.7366 46.5117 57.6186 47.8773 57.3825 49.243C57.3234 49.4804 56.7923 49.718 56.3791 49.9554C55.789 50.2523 55.2579 50.5492 55.1399 51.0242C53.7235 56.0711 50.4776 60.4648 46.1694 63.3148C46.9366 61.6523 49.3563 56.2492 50.6547 53.518L50.4185 44.7304L42.9235 37.4273L38.6743 38.0211L34.012 45.6211C34.012 45.6211 36.1956 48.4117 33.1268 51.6773C30.117 54.8836 27.7563 55.5961 27.7563 55.5961L25.5727 54.4086C26.2219 53.5773 27.5202 52.3304 28.5235 51.4992C30.235 50.0742 31.9465 49.9554 31.9465 48.4117C32.0056 45.2054 28.5826 46.0961 28.5826 46.0961L27.3433 47.2836L26.8121 51.6773L24.2154 54.943L23.9203 54.8836L19.6711 53.9336C19.6711 53.9336 22.2679 52.568 22.681 51.0242C23.094 49.5398 21.8547 44.6117 21.7956 44.3148C21.8547 44.3742 23.0351 45.3836 23.5662 47.0461C24.5104 44.4336 25.7498 41.9398 26.1039 41.7023C26.4579 41.4648 31.2382 38.9117 31.2382 38.9117L29.6449 43.1273L30.8252 42.4742L33.658 35.468C33.658 35.468 36.4317 34.1023 38.4972 34.1023C42.2153 34.043 47.7038 29.4711 45.2251 21.2773C45.9333 21.5742 58.2087 27.7492 60.3333 39.8617C61.9266 49.1836 56.6743 57.9117 47.8218 62.9586Z" fill="#94A6C3"/>
<path d="M33.7763 16.8834C35.1336 15.2803 34.6025 12.9053 34.6025 12.9053L30.6484 18.7834C30.5894 18.7834 32.0648 18.8428 33.7763 16.8834Z" fill="#0A192B"/>
<path d="M20.4976 49.0059L20.9697 46.6309C20.9697 46.6309 19.0222 50.0745 18.8452 50.5495C18.6681 51.0839 18.9632 52.0339 19.7304 51.9745C20.4976 51.9151 21.4419 50.7871 21.4419 49.9559C21.4419 48.8871 20.4976 49.0059 20.4976 49.0059Z" fill="#0A192B"/>
<path d="M55.5531 11.243C55.5531 11.243 58.5039 11.3617 61.5728 11.718C54.6679 6.25545 48.1172 4.65233 42.8057 4.65233C35.4876 4.65233 30.5302 7.68045 30.2352 7.85859L32.5368 4.17733C32.5368 4.17733 23.3303 3.28671 20.0844 13.0836C19.2581 11.0055 18.4909 7.97733 18.4909 7.97733C18.4909 7.97733 13.7107 12.193 15.9533 19.1992C10.4648 17.1804 2.61562 14.3898 2.32054 14.3304C1.90743 14.271 1.78939 14.4492 1.78939 14.4492C1.78939 14.4492 1.67136 14.6274 2.02546 14.9242C2.67463 15.4586 15.0681 24.6617 17.7828 26.443C17.1926 28.5804 17.1926 29.5898 17.7828 30.5992C18.6089 31.9648 18.668 32.6773 18.55 33.6867C18.432 34.696 17.3697 43.4242 17.1336 44.493C16.8976 45.5617 14.4189 49.3616 14.5369 50.4898C14.6549 51.618 16.1893 56.4273 17.5468 56.9617C18.55 57.318 21.0287 58.0898 22.6811 58.0898C23.2712 58.0898 23.8024 57.971 24.0386 57.7336C25.0418 56.843 25.3368 56.6648 26.045 56.6648C26.1041 56.6648 26.1631 56.6648 26.2221 56.6648C26.5171 56.6648 26.8713 56.7242 27.2843 56.7242C28.2286 56.7242 29.468 56.546 30.3533 55.7148C31.6516 54.4086 33.8941 52.6273 34.6024 51.796C35.4876 50.668 35.9597 49.1242 35.7237 47.5804C35.5467 46.1554 36.3139 44.9086 37.1991 43.6617C38.3204 42.1773 40.3859 39.5054 40.3859 39.5054C44.4581 42.593 46.9958 47.2836 46.9958 52.5086C46.9958 61.771 38.9696 69.2523 29.0549 69.2523C27.5205 69.2523 26.045 69.0742 24.5696 68.718C29.1138 70.321 32.95 70.8554 36.0779 70.8554C42.7466 70.8554 46.2876 68.421 46.2876 68.421C46.2876 68.421 45.0482 70.0242 43.0417 71.8648C43.1007 71.8648 43.1007 71.8648 43.1007 71.8648C54.1367 70.321 59.5073 61.1773 59.5073 61.1773C59.5073 61.1773 59.0941 64.146 58.563 66.1648C73.2579 55.0616 70.7794 41.168 70.7203 40.693C70.8383 40.871 72.3138 42.6523 73.081 43.6023C75.4415 19.1398 55.5531 11.243 55.5531 11.243ZM32.95 50.3117C32.7139 50.6086 31.7106 51.4992 31.0024 52.1523C30.2942 52.8054 29.527 53.4586 28.9369 54.0523C28.7008 54.2898 28.2286 54.4086 27.5205 54.4086C27.2843 54.4086 27.0483 54.4086 26.8713 54.4086C26.7533 54.4086 26.6351 54.4086 26.5171 54.4086C26.3991 54.4086 26.3402 54.4086 26.2811 54.4086C26.1041 54.4086 25.927 54.4086 25.7499 54.4086C26.6351 53.221 29.2319 50.4898 30.1172 49.896C31.1794 49.1836 31.7106 48.471 31.0614 47.2242C30.4122 45.9773 28.7008 46.2742 28.7008 46.2742C28.7008 46.2742 29.7041 45.8586 30.5893 45.8586C29.468 45.5616 28.0517 45.8586 27.4025 46.5117C26.6942 47.1648 26.8122 49.4804 26.5171 50.9648C26.2221 52.5086 25.2188 53.2804 23.6844 54.7054C22.8582 55.4773 22.268 55.7148 21.7959 55.7148C20.7927 55.5367 19.6123 55.2398 18.786 54.943C18.1959 54.171 17.3106 51.618 17.0745 50.5492C17.2516 49.9554 17.9598 48.7086 18.314 47.996C19.0221 46.6304 19.4352 45.8586 19.5532 45.146C19.7893 44.1367 20.5565 37.9023 20.8516 35.2898C21.6188 36.2992 22.6811 37.9617 22.4451 39.0304C24.1566 36.596 22.9172 34.221 22.3271 33.271C21.7959 32.321 21.0876 30.421 21.6779 28.4023C22.268 26.3836 24.3926 20.8023 24.3926 20.8023C24.3926 20.8023 25.1007 22.0492 26.1041 21.8117C27.1074 21.5742 35.1925 9.34295 35.1925 9.34295C35.1925 9.34295 37.3762 14.1523 35.0745 17.6554C32.7139 21.1586 30.4122 21.8117 30.4122 21.8117C30.4122 21.8117 33.6581 22.4054 36.668 20.2086C37.9072 23.118 39.0876 26.146 39.1467 26.5617C38.9696 26.9773 36.6089 32.6773 36.3728 33.0336C36.2548 33.1523 35.4287 33.3898 34.8384 33.5086C33.8352 33.8054 33.245 33.9836 33.0089 34.1617C32.5958 34.518 30.7073 39.743 29.8221 42.296C28.7598 42.593 27.6975 43.1867 26.9303 44.3742C27.3434 44.0773 28.6418 43.8992 29.5861 43.7804C30.4122 43.721 32.95 45.0867 33.5992 47.6398C33.5992 47.6992 33.5992 47.6992 33.5992 47.7586C33.7172 48.7086 33.4221 49.5992 32.95 50.3117ZM27.4025 51.0242C27.9335 50.2523 27.8746 48.946 27.9335 48.5304C27.9926 48.1148 28.1106 47.343 28.5827 47.2242C29.0549 47.1054 30.1762 47.2836 30.1762 48.1148C30.1762 48.8867 29.35 49.0648 28.7598 49.5992C28.3466 50.0148 27.5205 50.9054 27.4025 51.0242ZM50.9499 39.6836C51.54 36.6554 51.5991 34.043 51.422 31.9054C53.7236 34.993 55.14 38.7336 55.5531 42.593C55.6122 43.068 56.0843 43.543 56.5564 44.018C56.9695 44.3742 57.4417 44.8492 57.4417 45.146C57.4417 46.5117 57.3236 47.8773 57.0875 49.243C57.0286 49.421 56.4974 49.718 56.0843 49.9554C55.4942 50.2523 54.963 50.5492 54.845 51.0242C53.5466 55.596 50.7728 59.6336 47.0548 62.4836C52.5433 56.7242 55.1991 47.2242 50.9499 39.6836ZM47.2318 63.018C51.0679 60.0492 54.0187 55.893 55.3171 51.2023C55.376 51.0242 55.9072 50.7273 56.2614 50.4898C56.8515 50.193 57.4417 49.8367 57.5597 49.3617C57.7958 47.996 57.9138 46.571 57.9138 45.146C57.9138 44.6117 57.3826 44.0773 56.8515 43.543C56.5564 43.1866 56.0843 42.771 56.0843 42.4742C55.6122 38.1398 53.9007 34.043 51.2449 30.6586C50.0647 23.5336 45.3433 21.3367 45.2253 21.2773C45.3433 21.4554 48.4121 25.9086 46.2876 31.1336C44.1041 36.418 38.4975 35.5867 38.0254 35.646C37.5532 35.646 35.7237 38.021 33.4221 42.4148C33.1269 42.296 31.8877 41.9992 30.4713 42.2367C31.5336 39.268 33.1269 35.0523 33.4221 34.696C33.5401 34.5773 34.4253 34.3398 35.0155 34.1617C36.1368 33.8648 36.668 33.6867 36.8451 33.4492C36.9631 33.271 37.5532 31.9054 38.1434 30.4804C38.6744 30.4804 40.0319 30.3617 40.1499 30.3023C40.2679 30.1836 41.3892 27.2742 41.3892 26.918C41.3892 26.621 39.0876 20.8617 38.2024 18.6648C38.6155 18.1898 39.0286 17.596 39.4418 16.943C51.54 18.2492 60.9826 28.5804 60.9826 41.1086C60.9826 50.7273 55.376 59.0992 47.2318 63.018Z" fill="#0A192B"/>
<path d="M31.5337 30.9554C32.655 29.6492 32.0649 27.2148 29.9993 26.7992C30.5303 25.5522 31.2977 23.0586 31.2977 23.0586C31.2977 23.0586 25.2779 32.5586 24.7468 32.7366C24.2156 32.9148 23.6845 30.8366 23.6845 30.8366C22.5632 35.171 25.5731 35.7648 25.9271 34.3992C27.5795 33.9836 30.4123 32.2022 31.5337 30.9554Z" fill="#0A192B"/>
<path d="M26.3994 33.2716L29.4682 27.9873C29.4682 27.9873 31.2386 28.8779 30.3534 30.3029C29.2322 31.9653 26.3994 33.2716 26.3994 33.2716Z" fill="#FFD923"/>
<path d="M64.3463 57.7338C63.4611 58.9213 62.4577 60.1682 61.2773 61.3557C68.8906 46.6307 61.6315 33.1526 61.3364 32.6182C61.8676 33.1526 62.3987 33.7463 62.8708 34.2806C68.7134 40.8119 69.4217 50.6088 64.3463 57.7338Z" fill="#D82122"/>
<path d="M71.4282 38.7929C68.7725 31.6086 64.9955 25.4929 56.6741 19.971C48.6479 14.6273 40.0316 15.0429 39.5594 15.1023C39.5005 15.1023 39.4414 15.1023 39.4414 15.1023C39.7365 14.9836 40.0316 14.9242 40.3266 14.8648C42.1561 14.271 44.5168 13.7961 46.8775 13.4992C53.1331 12.6086 59.448 14.746 63.756 19.3179C63.8151 19.3773 63.8151 19.3773 63.8741 19.4367C68.7725 24.6617 71.3102 31.1929 71.4282 38.7929Z" fill="#D82122"/>
<path d="M54.7858 9.40215C45.9924 7.73965 40.3267 8.57089 36.2547 10.1146C36.1367 9.63965 35.7235 8.68964 35.3695 7.91777C34.1301 9.40214 32.8317 11.1834 32.0056 12.3115C29.7629 13.8553 28.8186 15.3396 28.8186 15.3396C30.117 10.8865 33.894 7.56152 38.4972 6.73027C39.7956 6.49277 41.212 6.37402 42.7465 6.37402C46.8185 6.43339 50.8907 7.44277 54.7858 9.40215Z" fill="#D82122"/>
<path d="M22.2679 20.8022C15.363 20.5646 17.6646 12.4896 17.7827 12.0146C17.7827 12.074 18.2548 18.3678 22.2679 20.8022Z" fill="#D82122"/>
<path d="M29.0545 6.25586C23.7431 9.46212 24.8054 17.1215 24.8054 17.1215C19.73 9.34336 28.6415 6.43398 29.0545 6.25586Z" fill="#D82122"/>
<path d="M20.3203 22.94C20.6744 23.237 21.0285 23.7712 20.6155 24.5432C20.3793 24.9588 20.0252 24.8994 19.4941 24.662C18.7859 24.3056 14.5367 21.812 10.7007 19.2588C15.0678 20.8026 19.4941 22.465 20.2023 22.8212C20.2023 22.8212 20.2613 22.8806 20.3203 22.94Z" fill="white"/>
</svg>
