<svg width="203" height="80" viewBox="0 0 203 80" fill="none" xmlns="http://www.w3.org/2000/svg">
<path d="M45.9205 45.1006C55.9688 46.5843 62.9949 49.9099 62.9949 53.7983C62.9949 59.0424 50.1568 63.289 34.3223 63.289C18.4878 63.289 5.64966 59.0424 5.64966 53.7983C5.64966 49.9099 12.6757 46.5843 22.7241 45.1006C26.1855 45.7913 30.1376 46.2006 34.3223 46.2006C38.4036 46.2006 42.2525 45.8169 45.6622 45.1517L45.9205 45.1006Z" fill="#F3F3F3"/>
<path d="M41.5808 29.4961C50.6993 30.4938 57.2604 33.3333 57.2604 36.71C57.2604 40.9054 46.9796 44.3077 34.3223 44.3077C21.665 44.3077 11.3842 40.9054 11.3842 36.71C11.3842 33.3589 17.9453 30.5193 27.0637 29.4961C29.2852 29.8542 31.7391 30.0589 34.3223 30.0589C36.8021 30.0589 39.1785 29.8798 41.3484 29.5473L41.5808 29.4961Z" fill="#F3F3F3"/>
<path d="M34.3223 28.5753C43.8236 28.5753 51.5259 26.0213 51.5259 22.8707C51.5259 19.7201 43.8236 17.166 34.3223 17.166C24.8211 17.166 17.1188 19.7201 17.1188 22.8707C17.1188 26.0213 24.8211 28.5753 34.3223 28.5753Z" fill="#F3F3F3"/>
<path d="M80.9734 50.1046V28.8721H87.9736C90.2985 28.8721 92.055 29.3581 93.2174 30.3046C94.3798 31.2511 94.9739 32.6581 94.9739 34.5256C94.9739 35.5232 94.6898 36.393 94.1215 37.1604C93.5532 37.9279 92.7783 38.5163 91.7967 38.9256C92.9591 39.2581 93.8632 39.8465 94.5348 40.7418C95.2064 41.6372 95.5422 42.7116 95.5422 43.9651C95.5422 45.8581 94.9222 47.3674 93.6823 48.4418C92.4424 49.5418 90.6859 50.0791 88.4128 50.0791H80.9734V50.1046ZM83.8148 37.9279H88.077C89.3169 37.9279 90.2985 37.6209 91.0476 37.007C91.7967 36.393 92.1583 35.5488 92.1583 34.5C92.1583 33.3232 91.8225 32.479 91.1251 31.9418C90.4276 31.4046 89.3944 31.1488 87.9995 31.1488H83.8148V37.9279ZM83.8148 40.179V47.8023H88.4903C89.8077 47.8023 90.8409 47.4697 91.59 46.7791C92.3391 46.1139 92.7266 45.1674 92.7266 43.9907C92.7266 41.4325 91.3317 40.1535 88.5161 40.1535H83.8148V40.179Z" fill="#F3F3F3"/>
<path d="M109.129 50.1044C108.974 49.7974 108.845 49.2346 108.742 48.4416C107.476 49.7462 105.978 50.3858 104.222 50.3858C102.646 50.3858 101.354 49.9509 100.347 49.0555C99.3394 48.1858 98.8486 47.0602 98.8486 45.7044C98.8486 44.0672 99.4686 42.7881 100.734 41.8672C102 40.9718 103.757 40.5113 106.056 40.5113H108.716V39.2834C108.716 38.3369 108.432 37.5951 107.864 37.0323C107.295 36.4695 106.469 36.1881 105.358 36.1881C104.377 36.1881 103.576 36.4439 102.904 36.9044C102.258 37.3904 101.923 37.9788 101.923 38.6695H99.1844C99.1844 37.8765 99.4686 37.1346 100.037 36.3927C100.605 35.6509 101.354 35.0881 102.336 34.6532C103.317 34.2183 104.377 34.0137 105.513 34.0137C107.347 34.0137 108.794 34.4741 109.827 35.3695C110.86 36.2648 111.403 37.5183 111.454 39.13V46.3951C111.454 47.8532 111.635 49.0044 112.023 49.8486V50.0788H109.129V50.1044ZM104.635 48.0323C105.487 48.0323 106.288 47.802 107.063 47.3672C107.838 46.9323 108.38 46.3695 108.716 45.6532V42.43H106.572C103.24 42.43 101.561 43.402 101.561 45.3207C101.561 46.1648 101.845 46.83 102.413 47.2904C103.007 47.802 103.731 48.0323 104.635 48.0323Z" fill="#F3F3F3"/>
<path d="M118.661 50.1044H115.949V27.7207H118.661V50.1044Z" fill="#F3F3F3"/>
<path d="M132.842 50.1044C132.687 49.7974 132.558 49.2346 132.455 48.4416C131.189 49.7462 129.691 50.3858 127.935 50.3858C126.359 50.3858 125.067 49.9509 124.06 49.0555C123.052 48.1858 122.562 47.0602 122.562 45.7044C122.562 44.0672 123.182 42.7881 124.447 41.8672C125.713 40.9718 127.47 40.5113 129.769 40.5113H132.429V39.2834C132.429 38.3369 132.145 37.5951 131.577 37.0323C131.008 36.4695 130.182 36.1881 129.071 36.1881C128.09 36.1881 127.289 36.4439 126.617 36.9044C125.971 37.3904 125.636 37.9788 125.636 38.6695H122.897C122.897 37.8765 123.182 37.1346 123.75 36.3927C124.318 35.6509 125.067 35.0881 126.049 34.6532C127.03 34.2183 128.09 34.0137 129.226 34.0137C131.06 34.0137 132.507 34.4741 133.54 35.3695C134.573 36.2648 135.116 37.5183 135.167 39.13V46.3951C135.167 47.8532 135.348 49.0044 135.736 49.8486V50.0788H132.842V50.1044ZM128.322 48.0323C129.174 48.0323 129.975 47.802 130.75 47.3672C131.525 46.9323 132.068 46.3695 132.403 45.6532V42.43H130.259C126.927 42.43 125.248 43.402 125.248 45.3207C125.248 46.1648 125.532 46.83 126.101 47.2904C126.695 47.802 127.418 48.0323 128.322 48.0323Z" fill="#F3F3F3"/>
<path d="M141.987 34.3206L142.064 36.2904C143.278 34.7811 144.88 34.0137 146.843 34.0137C150.201 34.0137 151.906 35.8811 151.932 39.6416V50.0532H149.219V39.616C149.219 38.4904 148.935 37.6462 148.444 37.0834C147.928 36.5462 147.127 36.2648 146.042 36.2648C145.164 36.2648 144.389 36.4951 143.717 36.9555C143.046 37.416 142.529 38.03 142.167 38.7974V50.0276H139.455V34.2695H141.987V34.3206Z" fill="#F3F3F3"/>
<path d="M162.419 48.1858C163.401 48.1858 164.227 47.9044 164.976 47.316C165.7 46.7276 166.113 46.0114 166.19 45.1416H168.774C168.722 46.0369 168.412 46.9067 167.844 47.7253C167.275 48.5439 166.5 49.1834 165.519 49.6695C164.563 50.1555 163.53 50.3858 162.445 50.3858C160.275 50.3858 158.544 49.6695 157.279 48.2369C155.987 46.8044 155.367 44.8346 155.367 42.3532V41.8927C155.367 40.3579 155.651 39.002 156.22 37.7997C156.788 36.5974 157.615 35.6765 158.674 35.0113C159.733 34.3462 160.998 34.0137 162.445 34.0137C164.227 34.0137 165.726 34.5509 166.888 35.5997C168.076 36.6486 168.696 38.03 168.774 39.7183H166.19C166.113 38.6951 165.726 37.8509 165.028 37.2113C164.331 36.5718 163.452 36.2393 162.419 36.2393C161.024 36.2393 159.965 36.7253 159.216 37.723C158.467 38.7206 158.079 40.1276 158.079 41.9951V42.5067C158.079 44.323 158.467 45.73 159.216 46.702C159.939 47.6997 160.998 48.1858 162.419 48.1858Z" fill="#F3F3F3"/>
<path d="M178.409 50.3866C176.239 50.3866 174.508 49.6959 173.139 48.2889C171.796 46.8819 171.098 45.0145 171.098 42.661V42.1749C171.098 40.6145 171.408 39.2075 172.002 37.9796C172.597 36.7517 173.449 35.7796 174.534 35.0889C175.619 34.3982 176.781 34.04 178.047 34.04C180.113 34.04 181.715 34.7052 182.877 36.061C184.014 37.4168 184.608 39.3354 184.608 41.8679V42.9935H173.836C173.888 44.554 174.327 45.8075 175.206 46.754C176.084 47.7005 177.195 48.1866 178.564 48.1866C179.519 48.1866 180.346 47.9819 181.018 47.5982C181.689 47.2145 182.257 46.7028 182.774 46.0633L184.427 47.3424C183.058 49.3633 181.069 50.3866 178.409 50.3866ZM178.073 36.2656C176.962 36.2656 176.058 36.6493 175.309 37.4424C174.56 38.2354 174.095 39.3354 173.914 40.7679H181.896V40.5633C181.818 39.1819 181.457 38.1331 180.785 37.3912C180.113 36.6238 179.209 36.2656 178.073 36.2656Z" fill="#F3F3F3"/>
<path d="M195.457 36.7509C195.044 36.6741 194.605 36.6486 194.114 36.6486C192.332 36.6486 191.118 37.3904 190.472 38.8997V50.0788H187.76V34.3206H190.42L190.472 36.1369C191.376 34.73 192.642 34.0137 194.269 34.0137C194.811 34.0137 195.199 34.0904 195.483 34.2183V36.7509H195.457Z" fill="#F3F3F3"/>
</svg>
