<svg width="203" height="43" viewBox="0 0 203 43" fill="none" xmlns="http://www.w3.org/2000/svg">
<path d="M64.6158 6.41504C62.2657 6.41504 60.0009 6.71082 59.0786 6.96085C57.7361 7.33896 57.4013 7.92746 57.1486 9.14715L51.8215 33.7697C51.7362 34.2729 51.6541 34.6937 51.6541 35.1144C51.6541 36.3341 52.4516 37.13 53.7514 37.13C55.1791 37.13 55.7666 36.2061 56.0588 34.776L57.5687 27.7597C58.6159 27.8847 60.0009 28.0128 61.9735 28.0128C70.6583 28.0128 76.0676 23.3078 76.0676 16.2061C76.0676 9.98569 71.745 6.41504 64.6158 6.41504ZM61.7635 23.9786C60.421 23.9786 59.3708 23.9359 58.4089 23.8109L61.2186 10.7419C62.0983 10.6169 63.4012 10.4461 64.7436 10.4461C69.3585 10.4461 71.7085 12.6324 71.7085 16.2458C71.7055 20.8684 68.3478 23.9786 61.7635 23.9786Z" fill="white"/>
<path d="M201.28 29.0195C200.568 29.0195 200.105 29.4403 199.225 30.4069C197.673 32.0047 196.708 32.8859 195.493 32.8859C194.404 32.8859 193.816 32.0047 193.816 30.5746C193.816 29.7757 193.983 28.8091 194.194 27.7602L195.746 20.4481H200.403C201.871 20.4481 202.753 19.6065 202.753 18.0941C202.753 17.2525 202.209 16.6244 200.951 16.6244H196.583L197.338 13.2214C197.423 12.7183 197.505 12.2548 197.505 11.834C197.505 10.657 196.708 9.81543 195.408 9.81543C194.023 9.81543 193.396 10.7393 193.101 12.1694L192.136 16.6244H190.163C188.653 16.6244 187.774 17.466 187.774 18.9784C187.774 19.82 188.361 20.4481 189.618 20.4481H191.338L189.786 27.6748C189.618 28.4737 189.408 29.7757 189.408 31.1204C189.408 34.5234 191.171 37.0024 194.945 37.0024C197.128 37.0024 199.055 35.9108 200.525 34.6057C201.953 33.3464 203 31.7913 203 30.782C203 29.8184 202.245 29.0195 201.28 29.0195Z" fill="white"/>
<path d="M104.801 8.8936C104.801 7.6739 103.961 6.875 102.661 6.875C101.276 6.875 100.649 7.79892 100.354 9.22901L95.1117 33.6412C94.9869 34.1443 94.9016 34.5651 94.9016 34.9859C94.9016 36.2056 95.7418 37.0015 96.999 37.0015C98.4267 37.0015 99.0537 36.0775 99.349 34.6475L104.591 10.2383C104.676 9.73213 104.801 9.31439 104.801 8.8936Z" fill="white"/>
<path d="M179.676 16.2029C172.964 16.2029 168.392 22.8837 168.392 29.2292C168.392 29.3481 168.395 29.467 168.398 29.5829C167.345 31.1837 165.999 32.8425 165.077 32.8425C164.407 32.8425 164.154 32.2113 164.154 31.2447C164.154 30.0677 164.489 28.0918 164.867 26.369L168.349 10.2324C168.434 9.72932 168.517 9.30853 168.517 8.88773C168.517 7.66804 167.719 6.86914 166.419 6.86914C164.992 6.86914 164.407 7.79306 164.112 9.22315L162.224 17.9623C161.217 16.9133 159.747 16.1968 157.524 16.1968C153.068 16.1968 148.584 19.6332 146.837 24.9054C144.913 29.8878 143.193 32.8364 141.835 32.8364C141.333 32.8364 141.038 32.4156 141.038 31.7021C141.038 29.6012 142.213 24.4754 142.715 21.9964C142.882 21.0725 142.968 20.6944 142.968 20.1486C142.968 18.3007 139.905 16.1144 135.921 16.1144C131.312 16.1144 127.138 19.0386 125.047 23.3808C121.939 28.8816 119.087 32.8364 117.674 32.8364C117.044 32.8364 116.834 32.0375 116.667 31.2813L115.623 25.4908L122.039 20.24C122.627 19.7369 123.382 19.0203 123.382 18.0964C123.382 16.9621 122.627 16.2059 121.495 16.2059C120.654 16.2059 119.942 16.709 119.23 17.2975L109.583 25.2804L112.813 10.2385C112.898 9.73542 113.023 9.31463 113.023 8.89383C113.023 7.67414 112.183 6.87524 110.883 6.87524C109.498 6.87524 108.871 7.79916 108.575 9.22925L103.334 33.6414C103.209 34.1446 103.124 34.5653 103.124 34.9861C103.124 36.2058 103.964 37.0017 105.221 37.0017C106.649 37.0017 107.276 36.0778 107.571 34.6477L108.244 31.4978L112.186 28.3053L113.151 33.1779C113.528 35.1112 114.536 37.0017 117.135 37.0017C119.723 37.0017 121.759 34.6355 123.799 31.4368C124.417 34.7879 126.797 37.0017 130.1 37.0017C133.415 37.0017 135.68 35.0258 137.147 32.379V32.4644C137.147 35.1965 138.532 37.0017 140.965 37.0017C143.165 37.0017 144.992 35.6722 146.624 32.8486C147.549 35.3094 149.619 37.0017 152.499 37.0017C155.896 37.0017 158.328 34.9435 159.88 32.0863V32.3394C159.88 35.3642 161.39 37.0047 163.865 37.0047C166.051 37.0047 167.908 35.7332 169.494 33.6658C170.699 35.7332 172.86 37.0047 175.78 37.0047C182.492 37.0047 187.064 30.3239 187.064 23.9357C187.061 19.4381 184.334 16.2029 179.676 16.2029ZM137.857 24.7346C136.639 29.9854 134.039 32.9706 131.102 32.9706C129.129 32.9706 128.039 31.4582 128.039 29.1895C128.039 24.7346 131.269 19.9443 135.589 19.9443C136.889 19.9443 137.896 20.3224 138.776 20.8682L137.857 24.7346ZM161.22 22.5087C159.877 28.6864 156.815 32.9706 153.461 32.9706C151.616 32.9706 150.523 31.5405 150.523 29.1895C150.523 24.695 153.628 20.0296 157.78 20.0296C159.375 20.0296 160.59 20.5755 161.473 21.289L161.22 22.5087ZM176.279 32.9706C173.847 32.9706 172.839 31.2051 172.839 28.9791C172.839 24.9023 175.649 20.24 179.174 20.24C181.606 20.24 182.614 22.0055 182.614 24.2315C182.614 28.348 179.804 32.9706 176.279 32.9706Z" fill="white"/>
<path d="M86.512 16.2041C79.7998 16.2041 75.2275 22.885 75.2275 29.2304C75.2275 33.7677 77.955 37.0029 82.6094 37.0029C89.3217 37.0029 93.8939 30.3221 93.8939 23.9339C93.8939 19.4393 91.1664 16.2041 86.512 16.2041ZM83.1148 32.9719C80.6825 32.9719 79.675 31.2063 79.675 28.9804C79.675 24.9036 82.4846 20.2413 86.0097 20.2413C88.4419 20.2413 89.4495 22.0068 89.4495 24.2327C89.4465 28.3492 86.6368 32.9719 83.1148 32.9719Z" fill="white"/>
<path d="M22.4613 9.01964C26.7366 9.01964 30.2024 7.00052 30.2024 4.50982C30.2024 2.01911 26.7366 0 22.4613 0C18.186 0 14.7202 2.01911 14.7202 4.50982C14.7202 7.00052 18.186 9.01964 22.4613 9.01964Z" fill="#E6007A"/>
<path d="M22.4613 43.0001C26.7366 43.0001 30.2024 40.981 30.2024 38.4903C30.2024 35.9996 26.7366 33.9805 22.4613 33.9805C18.186 33.9805 14.7202 35.9996 14.7202 38.4903C14.7202 40.981 18.186 43.0001 22.4613 43.0001Z" fill="#E6007A"/>
<path d="M11.6736 15.2616C13.8113 11.5529 13.7974 7.53621 11.6427 6.29001C9.48789 5.04382 6.0082 7.04005 3.87055 10.7487C1.73291 14.4574 1.74678 18.4741 3.90154 19.7203C6.05631 20.9665 9.53599 18.9703 11.6736 15.2616Z" fill="#E6007A"/>
<path d="M41.049 32.2507C43.1866 28.5421 43.1739 24.526 41.0206 23.2807C38.8673 22.0353 35.3888 24.0322 33.2512 27.7409C31.1135 31.4496 31.1262 35.4656 33.2795 36.711C35.4328 37.9563 38.9113 35.9594 41.049 32.2507Z" fill="#E6007A"/>
<path d="M11.6436 36.71C13.7984 35.4638 13.8123 31.4471 11.6746 27.7384C9.53697 24.0297 6.05728 22.0335 3.90252 23.2797C1.74776 24.5259 1.73388 28.5426 3.87153 32.2513C6.00918 35.9599 9.48887 37.9562 11.6436 36.71Z" fill="#E6007A"/>
<path d="M41.0223 19.7213C43.1756 18.4759 43.1883 14.4599 41.0507 10.7512C38.913 7.04255 35.4345 5.04563 33.2812 6.29099C31.1279 7.53634 31.1152 11.5524 33.2529 15.261C35.3905 18.9697 38.869 20.9666 41.0223 19.7213Z" fill="#E6007A"/>
</svg>
