<svg xmlns="http://www.w3.org/2000/svg" xmlns:xlink="http://www.w3.org/1999/xlink" width="19" height="17" viewBox="0 0 19 17"><defs><path id="y0cwa" d="M1035.644 1023.795h-10.557l.203 1.616h9.876zm-.901 3.05h-9.273l.19 1.513h8.633zm2.734-3.129l-1.89 5.618s-.157.834-.954.834h-9.545c-.951 0-.991-1.045-.991-1.045s-1.014-7.524-1.065-7.979c-.05-.454-.631-.791-.631-.791l-2.501-1.169c-1.37-.716-.747-2.078 0-1.765 3.171 1.496 4.645 2.233 4.74 2.822.095.59.262 2.012.262 2.012v.01a.937.937 0 0 1 .033-.01h11.691c1.412 0 .85 1.466.85 1.463zm-3.232 8.748a1.536 1.536 0 1 1-3.073 0 1.536 1.536 0 0 1 3.073 0zm-6.22 0a1.536 1.536 0 1 1-3.073 0 1.536 1.536 0 0 1 3.073 0z"/></defs><g><g transform="translate(-1019 -1017)"><use fill="#b9b9b9" xlink:href="#y0cwa"/></g></g></svg>