<svg xmlns="http://www.w3.org/2000/svg" width="15" height="20" viewBox="0 0 15 20"><g><g><path fill="#187e7c" d="M14.33 19.186a2.594 2.594 0 0 1-1.89.814H2.561a2.594 2.594 0 0 1-1.891-.814 2.468 2.468 0 0 1-.66-1.912L1.102 5.57A.633.633 0 0 1 1.74 5h1.92V3.75C3.66 1.682 5.382 0 7.5 0c1.03 0 1.996.389 2.72 1.095a3.684 3.684 0 0 1 1.12 2.655V5h1.921c.332 0 .608.246.64.569l1.089 11.705a2.472 2.472 0 0 1-.66 1.912zM4.94 5h5.12V3.75c0-.671-.263-1.301-.746-1.771a2.582 2.582 0 0 0-1.814-.73c-1.412 0-2.56 1.122-2.56 2.501zm8.773 12.387L12.676 6.25h-1.335v1.875a.632.632 0 0 1-.64.625.632.632 0 0 1-.64-.625V6.25H4.939v1.875a.632.632 0 0 1-.64.625.632.632 0 0 1-.64-.625V6.25H2.324L1.288 17.386c-.033.355.083.694.33.957.244.262.58.407.944.407h9.876c.365 0 .7-.145.946-.406.246-.262.362-.603.33-.957z"/></g></g></svg>