<svg xmlns="http://www.w3.org/2000/svg" width="16" height="16" viewBox="0 0 16 16"><defs><clipPath id="wsj6a"><path fill="#fff" d="M0 0h4v4H0zm6 0h4v4H6zm6 0h4v4h-4zM0 6h4v4H0zm6 0h4v4H6zm6 0h4v4h-4zM0 12h4v4H0zm6 0h4v4H6zm6 0h4v4h-4z"/></clipPath></defs><g><g><path fill="#0a9384" d="M0 0h4v4H0zm6 0h4v4H6zm6 0h4v4h-4zM0 6h4v4H0zm6 0h4v4H6zm6 0h4v4h-4zM0 12h4v4H0zm6 0h4v4H6zm6 0h4v4h-4z"/><path fill="none" stroke="#167e7c" stroke-linecap="round" stroke-linejoin="round" stroke-miterlimit="20" stroke-width="2" d="M0 0h4v4H0zm6 0h4v4H6zm6 0h4v4h-4zM0 6h4v4H0zm6 0h4v4H6zm6 0h4v4h-4zM0 12h4v4H0zm6 0h4v4H6zm6 0h4v4h-4z" clip-path="url(&quot;#wsj6a&quot;)"/></g></g></svg>