<svg xmlns="http://www.w3.org/2000/svg" xmlns:xlink="http://www.w3.org/1999/xlink" width="26" height="26" viewBox="0 0 26 26"><defs><path id="v1fda" d="M1333.5 85.11c0-.613.497-1.11 1.11-1.11h32.78a1.11 1.11 0 1 1 0 2.22h-32.78a1.11 1.11 0 0 1-1.11-1.11z"/><path id="v1fdb" d="M1333.5 85a1 1 0 0 1 1-1h33a1 1 0 0 1 1 1v.22a1 1 0 0 1-1 1h-33a1 1 0 0 1-1-1z"/></defs><g><g transform="translate(-1338 -72)"><g transform="rotate(45 1351 85)"><use xlink:href="#v1fda"/></g><g transform="rotate(-45 1351 85)"><use xlink:href="#v1fdb"/></g></g></g></svg>