<svg xmlns="http://www.w3.org/2000/svg" width="14" height="14" viewBox="0 0 14 14"><g><g><g><path fill="#f0f0f0" d="M0 0h14v14H0z"/></g><g><path fill="#d80027" d="M0 2V1h14v1z"/></g><g><path fill="#d80027" d="M0 4V3h14v1z"/></g><g><path fill="#d80027" d="M0 6V5h14v1z"/></g><g><path fill="#d80027" d="M0 8V7h14v1z"/></g><g><path fill="#d80027" d="M0 10V9h14v1z"/></g><g><path fill="#d80027" d="M0 12v-1h14v1z"/></g><g><path fill="#d80027" d="M0 14v-1h14v1z"/></g><g><path fill="#2e52b2" d="M0 0h7v7H0z"/></g><g><path fill="#fff" d="M1 1h1v1H1z"/></g><g><path fill="#fff" d="M3 1h1v1H3z"/></g><g><path fill="#fff" d="M5 1h1v1H5z"/></g><g><path fill="#fff" d="M4 2h1v1H4z"/></g><g><path fill="#fff" d="M2 2h1v1H2z"/></g><g><path fill="#fff" d="M1 3h1v1H1z"/></g><g><path fill="#fff" d="M3 3h1v1H3z"/></g><g><path fill="#fff" d="M5 3h1v1H5z"/></g><g><path fill="#fff" d="M4 4h1v1H4z"/></g><g><path fill="#fff" d="M2 4h1v1H2z"/></g><g><path fill="#fff" d="M1 5h1v1H1z"/></g><g><path fill="#fff" d="M3 5h1v1H3z"/></g><g><path fill="#fff" d="M5 5h1v1H5z"/></g></g></g></svg>