<svg width="101" height="19" viewBox="0 0 101 19" fill="none" xmlns="http://www.w3.org/2000/svg">
<g clip-path="url(#clip0_1_400)">
<path d="M45.9354 5.24481C46.0583 5.2068 46.1881 5.19474 46.3162 5.20945C46.4443 5.22415 46.5676 5.26528 46.6782 5.3301C46.7887 5.39492 46.8838 5.48194 46.9572 5.58538C47.0306 5.68883 47.0806 5.80633 47.1038 5.93007C47.1325 6.04905 47.1358 6.17252 47.1134 6.29278C47.0911 6.41305 47.0436 6.52753 46.9739 6.62911C46.9042 6.73069 46.8139 6.81719 46.7085 6.88322C46.603 6.94926 46.4848 6.99341 46.3612 7.01293C46.2375 7.03245 46.111 7.02692 45.9896 6.99669C45.8683 6.96646 45.7546 6.91217 45.6556 6.83721C45.5567 6.76225 45.4746 6.66821 45.4145 6.56096C45.3545 6.45371 45.3177 6.33554 45.3064 6.21381C45.2831 6.00663 45.3326 5.79788 45.4469 5.62181C45.5612 5.44573 45.7335 5.31279 45.9354 5.24481Z" fill="#3E3C3B" fill-opacity="0.6"/>
<path d="M42.3249 5.32202C42.8604 5.32202 43.3959 5.32202 43.9321 5.32202C43.9321 8.1184 43.9321 10.9148 43.9321 13.7112C43.3966 13.7112 42.8597 13.7112 42.3242 13.7112C42.3247 10.916 42.3249 8.11967 42.3249 5.32202Z" fill="#3E3C3B" fill-opacity="0.6"/>
<path d="M55.3529 5.32202C55.8884 5.32202 56.4239 5.32202 56.9601 5.32202C56.9601 6.10482 56.9601 6.88825 56.9601 7.67105C57.5372 7.67105 58.1149 7.67105 58.692 7.67105C58.679 8.09539 58.7192 8.53239 58.6738 8.94849C58.1019 8.95862 57.5301 8.94849 56.9588 8.95229C56.964 9.78892 56.9478 10.6262 56.9673 11.4628C56.99 11.7953 57.0373 12.2228 57.3911 12.3818C57.8093 12.49 58.2477 12.5013 58.6712 12.4147C58.6667 12.8055 58.6816 13.1969 58.6628 13.5877C58.1566 13.7485 57.625 13.8195 57.0932 13.7973C56.8427 13.7919 56.5962 13.7356 56.3693 13.632C56.1424 13.5284 55.9402 13.3798 55.7755 13.1956C55.4852 12.8251 55.3354 12.3678 55.3516 11.9017C55.3516 10.9182 55.3516 9.93522 55.3516 8.95166C55.0588 8.95166 54.7674 8.95166 54.4746 8.95166V7.67232C54.7667 7.67232 55.0588 7.67232 55.3516 7.67232C55.3529 6.88825 55.3516 6.10482 55.3529 5.32202Z" fill="#3E3C3B" fill-opacity="0.6"/>
<path d="M27.2643 5.87068C28.5028 5.87068 29.7414 5.87068 30.9799 5.87068C31.4122 5.85482 31.8432 5.92679 32.2455 6.08205C32.6477 6.2373 33.0126 6.47244 33.3168 6.77255C33.5937 7.12551 33.7914 7.53141 33.897 7.96385C34.0026 8.39628 34.0137 8.84556 33.9295 9.28245C33.8937 9.62377 33.7882 9.95463 33.6192 10.2555C33.4502 10.5564 33.2211 10.8212 32.9455 11.0342C32.7587 11.1703 32.5568 11.2854 32.3437 11.3775C32.966 12.1561 33.5892 12.9342 34.2132 13.712C33.5595 13.712 32.9065 13.712 32.2529 13.712C31.7336 13.0394 31.2201 12.363 30.7001 11.691C30.1023 11.705 29.5038 11.691 28.906 11.6973C28.906 12.3687 28.906 13.04 28.906 13.7113H27.2637C27.2637 11.0974 27.2637 8.48339 27.2637 5.86942M28.9066 7.25325C28.9066 8.29656 28.9066 9.33966 28.9066 10.3825C29.3896 10.3825 29.8725 10.3825 30.3555 10.3825C30.8257 10.4004 31.2899 10.2741 31.6829 10.0215C31.839 9.90648 31.9688 9.76094 32.064 9.59421C32.1592 9.42748 32.2178 9.24322 32.236 9.05318C32.2748 8.8147 32.2605 8.57084 32.1939 8.33826C32.1274 8.10567 32.0102 7.88983 31.8504 7.70545C31.6894 7.55686 31.4999 7.44067 31.2929 7.36352C31.0858 7.28636 30.8652 7.24975 30.6437 7.25578C30.0653 7.25135 29.4889 7.25515 28.9047 7.25451L28.9066 7.25325Z" fill="#3E3C3B" fill-opacity="0.6"/>
<path d="M82.7291 5.8782C83.6379 5.8782 84.5467 5.8782 85.4554 5.8782C85.9253 5.85898 86.3961 5.88017 86.8622 5.94153C87.5361 6.02754 88.1526 6.35676 88.5901 6.8643C89.0772 7.54186 89.2762 8.37727 89.1451 9.19496C89.0967 9.87623 88.7814 10.5132 88.2649 10.974C87.6206 11.4564 86.8303 11.7159 86.0183 11.7118C85.4652 11.722 84.9115 11.7118 84.3585 11.7163C84.3585 12.3825 84.3585 13.0488 84.3585 13.7151C83.8149 13.7151 83.2716 13.7151 82.7285 13.7151C82.7285 11.104 82.7285 8.49281 82.7285 5.88136M84.3585 7.25443C84.3585 8.29985 84.3585 9.34527 84.3585 10.3907C85.0602 10.4423 85.766 10.3963 86.4545 10.2539C86.6877 10.1827 86.898 10.0538 87.0649 9.87961C87.2318 9.70545 87.3497 9.49203 87.4068 9.26019C87.4783 8.99352 87.484 8.71411 87.4235 8.44485C87.363 8.17559 87.2381 7.92413 87.0588 7.71106C86.8964 7.56027 86.7049 7.44247 86.4954 7.36451C86.2859 7.28656 86.0626 7.25 85.8385 7.25696C85.3458 7.25 84.8518 7.25569 84.3585 7.25443Z" fill="#3E3C3B" fill-opacity="0.6"/>
<path d="M35.4588 8.82394C35.6953 8.49786 35.9965 8.22154 36.3447 8.01144C36.6928 7.80133 37.0808 7.66174 37.4854 7.60098C38.237 7.47063 39.0116 7.60175 39.6743 7.97148C40.2058 8.29723 40.6096 8.788 40.8206 9.36481C41.0248 9.92952 41.1049 10.5299 41.0556 11.1267C39.5256 11.1299 37.9956 11.1267 36.4663 11.1267C36.5583 11.5607 36.8218 11.9419 37.1998 12.1876C37.6215 12.4323 38.1198 12.5199 38.6025 12.4343C39.0853 12.3488 39.5202 12.0958 39.8268 11.7221C40.1747 11.99 40.5116 12.2731 40.8537 12.5454C40.5814 12.8825 40.2429 13.1633 39.858 13.3714C39.4732 13.5794 39.0497 13.7105 38.6123 13.757C37.8453 13.8765 37.0595 13.738 36.3838 13.3643C35.7161 12.9744 35.2253 12.3513 35.0109 11.6214C34.8681 11.1507 34.8342 10.6549 34.9115 10.1698C34.9888 9.68476 35.1756 9.22249 35.4582 8.81635M37.0407 9.15708C36.7507 9.41352 36.5527 9.7541 36.476 10.1286C37.4995 10.1286 38.5227 10.1286 39.5457 10.1286C39.5385 9.90187 39.4758 9.6801 39.3629 9.48179C39.25 9.28349 39.0901 9.1144 38.8966 8.98861C38.6048 8.83322 38.2718 8.76709 37.9409 8.79883C37.61 8.83057 37.2966 8.9587 37.0414 9.16658L37.0407 9.15708Z" fill="#3E3C3B" fill-opacity="0.6"/>
<path d="M48.6518 8.93499C49.0759 8.36809 49.6722 7.94581 50.3561 7.72801C51.04 7.51022 51.7768 7.50795 52.4621 7.72153C53.0339 7.92281 53.5322 8.28409 53.8947 8.76019C53.5513 9.06989 53.2053 9.37642 52.8639 9.68802C52.6934 9.44322 52.4593 9.24694 52.1856 9.11921C51.9119 8.99148 51.6084 8.93687 51.306 8.96096C50.9146 8.99288 50.5442 9.14768 50.2505 9.40217C49.9568 9.65667 49.7555 9.99716 49.6767 10.3727C49.6138 10.7141 49.6592 11.0662 49.8069 11.3819C49.9545 11.6975 50.1974 11.9617 50.5031 12.139C50.8816 12.3801 51.3425 12.4648 51.785 12.3747C52.2274 12.2846 52.6152 12.027 52.8633 11.6583C53.1989 11.9693 53.5383 12.2765 53.8733 12.5887C53.4057 13.2131 52.7072 13.6352 51.9259 13.7654C51.4521 13.831 50.9695 13.8005 50.5082 13.676C50.047 13.5514 49.617 13.3354 49.2451 13.0415C48.7014 12.6144 48.3182 12.0235 48.1552 11.3613C48.0568 10.9456 48.0502 10.5143 48.1358 10.096C48.2215 9.67768 48.3973 9.28191 48.6518 8.93499Z" fill="#3E3C3B" fill-opacity="0.6"/>
<path d="M68.7185 8.03901C69.2795 7.66864 69.9555 7.50108 70.6296 7.56527C70.9598 7.56046 71.287 7.62493 71.5894 7.7543C71.8918 7.88367 72.1622 8.07494 72.3822 8.31514C72.9116 7.83109 73.6086 7.55968 74.3341 7.55514C74.9512 7.52317 75.5634 7.67802 76.0868 7.99848C76.509 8.31911 76.7926 8.78265 76.8813 9.29744C76.9797 9.90464 77.0137 10.5201 76.9826 11.1341C76.9826 11.9929 76.9826 12.8513 76.9826 13.7092H75.3889C75.3889 12.5566 75.3889 11.4052 75.3889 10.2531C75.4037 10.0273 75.3558 9.80173 75.2503 9.60022C75.1447 9.3987 74.9854 9.22869 74.7892 9.10808C74.4676 8.96296 74.1089 8.91503 73.7592 8.97044C73.4095 9.02586 73.0848 9.18209 72.8268 9.41904C72.8932 10.0063 72.9149 10.5976 72.8918 11.1879V13.7099H71.2982C71.2982 12.5775 71.2982 11.4444 71.2982 10.312C71.3222 9.92559 71.1922 9.54504 70.9353 9.24994C70.785 9.12704 70.609 9.03754 70.4197 8.98767C70.2304 8.9378 70.0322 8.92875 69.839 8.96114C69.4244 8.99297 69.032 9.15699 68.7224 9.42791C68.7224 10.8554 68.7224 12.283 68.7224 13.7105C68.1869 13.7073 67.6521 13.7168 67.1172 13.7048C67.1276 11.6933 67.1171 9.68124 67.1223 7.66914H68.7224C68.7185 7.79454 68.7185 7.91677 68.7185 8.03901Z" fill="#3E3C3B" fill-opacity="0.6"/>
<path d="M91.3781 8.51501C91.639 8.16479 91.9978 7.89529 92.4115 7.73872C92.8252 7.58216 93.2764 7.54516 93.7111 7.63215C93.7111 8.1937 93.7111 8.75547 93.7111 9.31744C93.1712 9.16299 92.5921 9.206 92.0824 9.43841C91.8601 9.58149 91.6792 9.77776 91.5568 10.0085C91.4344 10.2392 91.3747 10.4967 91.3833 10.7564C91.3769 11.7418 91.3833 12.7267 91.3833 13.7121C90.8517 13.7121 90.32 13.7121 89.7891 13.7121V7.68598C90.3207 7.68598 90.853 7.68218 91.3846 7.68598C91.3781 7.96401 91.3807 8.23951 91.3781 8.51501Z" fill="#3E3C3B" fill-opacity="0.6"/>
<path d="M97.1049 7.60977C97.6004 7.5378 98.1059 7.56966 98.5877 7.70321C99.0696 7.83677 99.5168 8.06897 99.8995 8.38434C100.265 8.6849 100.555 9.06431 100.745 9.49265C100.935 9.92099 101.02 10.3865 100.994 10.8526C100.968 11.3186 100.832 11.7724 100.595 12.1782C100.359 12.5839 100.029 12.9306 99.632 13.1907C99.1171 13.5333 98.5193 13.7387 97.898 13.7865C97.2767 13.8344 96.6534 13.7231 96.0897 13.4637C95.3464 13.1242 94.7617 12.5237 94.452 11.7822C94.287 11.3716 94.217 10.9305 94.247 10.4905C94.2771 10.0505 94.4065 9.62235 94.6259 9.2368C94.8832 8.79814 95.2406 8.42323 95.6704 8.14117C96.1002 7.85911 96.5909 7.67749 97.1043 7.6104M97.3867 8.97904C97.0438 9.02204 96.7201 9.15809 96.4526 9.3717C96.1463 9.61302 95.9333 9.94894 95.8488 10.3241C95.7644 10.6993 95.8134 11.0914 95.9878 11.4357C96.1946 11.8241 96.5393 12.1256 96.9575 12.2841C97.3756 12.4425 97.8385 12.4469 98.2598 12.2964C98.6648 12.1567 99.0035 11.8772 99.2119 11.5106C99.4203 11.1441 99.4841 10.7158 99.3912 10.3065C99.283 9.88399 99.0192 9.51511 98.6501 9.27018C98.281 9.02525 97.8325 8.92139 97.39 8.9784L97.3867 8.97904Z" fill="#3E3C3B" fill-opacity="0.6"/>
<path d="M45.4316 13.7125C45.4316 11.6989 45.4316 9.68514 45.4316 7.67114C45.9594 7.67114 46.4871 7.67114 47.0149 7.67114C47.0214 9.68514 47.0149 11.6985 47.0149 13.7131C46.4886 13.7136 45.9609 13.7134 45.4316 13.7125Z" fill="#3E3C3B" fill-opacity="0.6"/>
<path d="M59.7643 11.2368C59.7621 10.0483 59.7621 8.8597 59.7643 7.67114H61.3573C61.3573 8.82571 61.3573 9.97964 61.3573 11.1342C61.3414 11.3705 61.3974 11.6061 61.5182 11.8114C61.639 12.0168 61.8192 12.1828 62.0363 12.2888C62.381 12.4049 62.7504 12.4332 63.1095 12.371C63.4685 12.3088 63.8054 12.1582 64.0881 11.9335C64.0881 10.5129 64.0881 9.09171 64.0881 7.67114C64.6187 7.67114 65.1499 7.67114 65.6818 7.67114V13.7125H64.0881C64.0881 13.582 64.0881 13.4516 64.0881 13.3211C63.5097 13.6828 62.8256 13.8493 62.1408 13.7948C61.4874 13.8084 60.8551 13.5688 60.3823 13.1286C59.954 12.5889 59.7351 11.9188 59.7643 11.2368Z" fill="#3E3C3B" fill-opacity="0.6"/>
<path d="M8.01959 0.0475038C8.69657 -0.0234231 9.37986 -0.014279 10.0546 0.0747371C10.3009 0.103409 10.5454 0.145699 10.7868 0.201404C10.7046 0.204023 10.6222 0.202544 10.5401 0.19697C9.43039 0.16403 8.33066 0.410732 7.3471 0.913271C7.09075 0.978792 6.83792 1.05679 6.58957 1.14697C5.26727 1.64248 4.05042 2.37256 3.00055 3.3003C2.78894 3.48524 2.58771 3.6803 2.38843 3.8779C2.652 3.30733 2.9966 2.77581 3.4121 2.299C3.87962 1.78049 4.43085 1.34001 5.044 0.99497C5.95942 0.48483 6.97196 0.162423 8.01959 0.0475038V0.0475038Z" fill="#D9DADC" fill-opacity="0.6"/>
<path d="M0.570312 11.8922C0.764269 12.2968 0.998195 12.6821 1.26877 13.0424C1.37523 13.2222 1.46805 13.4109 1.58944 13.5826C2.19889 14.4684 2.98505 15.2253 3.90097 15.8081C4.01327 15.9259 4.13985 16.0285 4.25799 16.1394C4.72731 16.5764 5.21805 16.9924 5.72437 17.3876C5.38804 17.3144 5.05813 17.2156 4.7377 17.0919C3.95854 16.7994 3.2456 16.3609 2.63907 15.8011C2.15746 15.3617 1.74415 14.8561 1.41223 14.3001C1.34732 14.1855 1.2824 14.0709 1.21165 13.9607C1.1013 13.7074 0.974718 13.4572 0.887086 13.1944C0.730834 12.7736 0.624548 12.3366 0.570312 11.8922V11.8922Z" fill="#D9DADC" fill-opacity="0.6"/>
<path d="M7.3463 0.909588C8.33114 0.409669 9.43102 0.164776 10.5406 0.198354C10.6227 0.203909 10.7051 0.205389 10.7873 0.202788C11.5828 0.236449 12.3676 0.394249 13.1118 0.670188C13.9203 0.971472 14.6779 1.38949 15.3591 1.91025C15.9349 2.3481 16.4644 2.84096 16.9397 3.38149C17.2335 3.70995 17.5054 4.05647 17.7537 4.41889C17.9634 4.70711 18.1535 5.00838 18.323 5.32075C19.0064 6.48591 19.3983 7.792 19.4668 9.13279C19.5116 10.334 19.3233 11.5326 18.9118 12.6655C18.6024 13.5486 18.1671 14.3848 17.6187 15.1495C17.1693 15.7794 16.6197 16.3353 15.9907 16.7961C15.4083 17.2099 14.7609 17.5288 14.0738 17.7404C13.8512 17.7955 13.6331 17.8671 13.4085 17.9152C12.7309 18.0682 12.0378 18.1468 11.3423 18.1496C11.1573 18.1648 10.973 18.1432 10.7886 18.1445C9.41577 18.0752 8.06446 17.7824 6.79065 17.2781C5.77727 16.8923 4.80804 16.4041 3.8988 15.8214C2.98341 15.2416 2.19724 14.4877 1.58726 13.6048C1.46587 13.4338 1.37305 13.2463 1.26659 13.0671C1.26659 13.0595 1.26659 13.0443 1.26659 13.0367C1.25053 13.018 1.23639 12.9979 1.2244 12.9765C0.825998 12.1661 0.600098 11.2854 0.560345 10.3874C0.516599 9.54124 0.655937 8.69556 0.969294 7.90539C1.25071 7.23379 1.61846 6.59981 2.06372 6.01869C2.46877 5.47719 2.91148 4.96229 3.36846 4.46132C3.9676 3.80392 4.56415 3.14272 5.20613 2.52332C5.83818 1.89085 6.55739 1.3473 7.34306 0.908321M4.45964 5.39739C4.45964 7.11372 4.45964 8.82984 4.45964 10.5458C4.46938 10.8327 4.46419 11.1202 4.46354 11.4071C6.25837 12.416 8.06358 13.4084 9.85712 14.4186C11.6595 13.4158 13.4613 12.412 15.2624 11.4071C15.2624 11.0199 15.2624 10.6327 15.2624 10.2456C15.2624 9.79462 15.2533 9.34369 15.2572 8.89212C15.2572 7.72552 15.2572 6.55892 15.2572 5.39232C13.4643 4.38448 11.6656 3.38149 9.86101 2.38335C8.06359 3.39289 6.25707 4.38532 4.46289 5.39865L4.45964 5.39739Z" fill="#444141" fill-opacity="0.6"/>
<path d="M14.0293 5.51741C14.0975 5.50341 14.1679 5.50399 14.2359 5.51911C14.3038 5.53424 14.3676 5.56355 14.4228 5.60502C14.478 5.64649 14.5233 5.69913 14.5557 5.75934C14.5881 5.81954 14.6067 5.88588 14.6102 5.95377C14.6102 7.11446 14.6102 8.27557 14.6102 9.43711C14.6277 9.56414 14.6075 9.69341 14.5518 9.80952C14.4872 9.91324 14.3852 9.9896 14.2658 10.0236C14.1463 10.0576 14.0182 10.0467 13.9066 9.99317C13.8491 9.96523 13.7979 9.92628 13.7562 9.87861C13.7145 9.83095 13.6831 9.77556 13.6638 9.71578C13.647 9.6371 13.6414 9.55656 13.6469 9.47638C13.6469 8.83671 13.6469 8.19705 13.6469 7.55738C13.6565 7.43245 13.6327 7.30722 13.5781 7.19385C13.5573 7.15527 13.5275 7.12202 13.4911 7.09682C13.4547 7.07162 13.4126 7.05517 13.3685 7.04881C13.2667 7.04278 13.1653 7.06472 13.0757 7.11215C12.3539 7.43325 11.634 7.7594 10.9122 8.08176C10.7817 8.14056 10.6681 8.2297 10.5811 8.34134C10.4942 8.45297 10.4367 8.5837 10.4136 8.72208C10.4028 8.80778 10.3993 8.8942 10.4033 8.98047C10.4033 9.96678 10.4033 10.9531 10.4033 11.9394C10.4006 12.032 10.3718 12.1221 10.3199 12.1997C10.2679 12.2773 10.195 12.3393 10.1092 12.3789C9.9984 12.4313 9.8732 12.4473 9.75232 12.4245C9.63145 12.4016 9.52141 12.3412 9.43866 12.2523C9.36309 12.1719 9.31895 12.068 9.31401 11.959C9.30558 11.5448 9.32116 11.1313 9.31726 10.7171C9.31726 10.104 9.31726 9.49179 9.31726 8.88041C9.31718 8.75456 9.29005 8.63011 9.23761 8.51513C9.18517 8.40015 9.10859 8.29718 9.01283 8.21287C8.91916 8.13865 8.81427 8.07905 8.70189 8.03617C7.76521 7.61754 6.83047 7.19448 5.89378 6.77648C5.77305 6.73099 5.67121 6.64766 5.60427 6.5396C5.56506 6.46246 5.54467 6.37752 5.54468 6.29141C5.54468 6.20531 5.56509 6.12038 5.60431 6.04324C5.64352 5.96611 5.70049 5.89886 5.77075 5.84676C5.841 5.79465 5.92265 5.75909 6.00932 5.74287C6.11197 5.72898 6.21653 5.74577 6.30921 5.79102C7.31925 6.24575 8.32994 6.69963 9.34127 7.15268C9.62947 7.27898 9.9556 7.29591 10.2559 7.20017C10.3446 7.16953 10.4314 7.13358 10.5156 7.09251C11.3464 6.71251 12.1812 6.34644 13.0114 5.96707C13.3204 5.82964 13.6203 5.67066 13.9371 5.55096C13.9668 5.53734 13.9977 5.52613 14.0293 5.51741Z" fill="#444141" fill-opacity="0.6"/>
<path d="M4.46313 5.42408C6.25732 4.40568 8.06383 3.40818 9.86126 2.39612C11.6632 3.40101 13.4633 4.40906 15.2613 5.42029C15.2613 6.59237 15.2613 7.76467 15.2613 8.93718C15.2574 9.39065 15.2698 9.84412 15.2665 10.2976C15.2665 10.6865 15.2665 11.0755 15.2665 11.4648C13.4654 12.4743 11.6637 13.483 9.86126 14.4909C8.06707 13.4775 6.2625 12.4788 4.46767 11.4642C4.46767 11.1754 4.47287 10.8866 4.46378 10.5984C4.46378 8.87364 4.46378 7.14907 4.46378 5.42472M14.0293 5.56025C13.9972 5.56702 13.9657 5.57634 13.9352 5.58812C13.6177 5.70782 13.3185 5.86678 13.0095 6.00422C12.1793 6.38422 11.3445 6.75219 10.5136 7.12966C10.4294 7.17072 10.3427 7.20668 10.254 7.23732C9.95336 7.33365 9.6267 7.31693 9.33806 7.19045C8.32716 6.73656 7.31647 6.28267 6.30599 5.82878C6.21323 5.7838 6.10869 5.76724 6.0061 5.78129C5.91944 5.79751 5.83778 5.83306 5.76753 5.88517C5.69727 5.93727 5.6403 6.00452 5.60108 6.08166C5.56187 6.15879 5.54146 6.24373 5.54146 6.32983C5.54145 6.41594 5.56184 6.50087 5.60105 6.57802C5.66799 6.68608 5.76982 6.76939 5.89055 6.81488C6.82789 7.23288 7.76199 7.65595 8.69867 8.07458C8.81105 8.11746 8.91594 8.17708 9.00961 8.25129C9.10537 8.3356 9.18194 8.43857 9.23438 8.55355C9.28682 8.66854 9.31396 8.79297 9.31404 8.91882C9.31404 9.53189 9.31404 10.1441 9.31404 10.7555C9.31794 11.1697 9.30236 11.5839 9.31079 11.9974C9.31573 12.1064 9.35986 12.2103 9.43543 12.2907C9.51824 12.3795 9.62828 12.4399 9.74913 12.4627C9.86998 12.4855 9.99516 12.4696 10.106 12.4174C10.1918 12.3777 10.2647 12.3157 10.3166 12.2381C10.3685 12.1605 10.3974 12.0704 10.4 11.9778C10.4 10.9915 10.4 10.0052 10.4 9.01888C10.3961 8.93262 10.3996 8.84619 10.4104 8.76049C10.4335 8.62211 10.491 8.49137 10.5779 8.37974C10.6648 8.2681 10.7785 8.17898 10.9089 8.12019C11.6308 7.79845 12.3507 7.47165 13.0725 7.15055C13.1621 7.10316 13.2635 7.08122 13.3652 7.08722C13.4094 7.09359 13.4514 7.11004 13.4879 7.13524C13.5243 7.16044 13.5541 7.19368 13.5749 7.23225C13.6295 7.34563 13.6532 7.47085 13.6437 7.59578C13.6437 8.23545 13.6437 8.87512 13.6437 9.51478C13.6381 9.59496 13.6438 9.67551 13.6606 9.75419C13.6799 9.81397 13.7113 9.86935 13.753 9.91701C13.7947 9.96468 13.8459 10.0036 13.9034 10.0316C14.015 10.0851 14.1431 10.096 14.2625 10.062C14.3819 10.028 14.484 9.95164 14.5486 9.84792C14.6042 9.73181 14.6245 9.60255 14.607 9.47552C14.607 8.31483 14.607 7.15372 14.607 5.99219C14.6028 5.92488 14.5839 5.85924 14.5515 5.79971C14.519 5.74017 14.4739 5.68814 14.419 5.64712C14.3642 5.6061 14.3009 5.57705 14.2336 5.56196C14.1662 5.54686 14.0963 5.54607 14.0286 5.55962L14.0293 5.56025Z" fill="white" fill-opacity="0.4"/>
</g>
<defs>
<clipPath id="clip0_1_400">
<rect width="101" height="19" fill="white"/>
</clipPath>
</defs>
</svg>
