<svg width="88" height="30" viewBox="0 0 88 30" fill="none" xmlns="http://www.w3.org/2000/svg">
<path d="M28.1933 17.8628C28.1933 18.006 28.0733 18.1227 27.9299 18.1227H22.8588C22.9862 19.3746 23.9283 20.5161 25.2547 20.5161C25.6653 20.5341 26.0735 20.4451 26.4392 20.2578C26.8049 20.0705 27.1155 19.7913 27.3405 19.4478C27.4149 19.3481 27.5243 19.2844 27.6634 19.3449C27.7007 19.3611 27.7334 19.3864 27.7584 19.4185C27.7834 19.4505 27.8001 19.4883 27.8068 19.5284C27.8206 19.6112 27.7961 19.6579 27.7749 19.7045C27.2651 20.5936 26.2488 21.0306 25.2526 21.0306C23.547 21.0306 22.332 19.5061 22.332 17.8756C22.332 16.245 23.548 14.7205 25.2526 14.7205C26.9571 14.7205 28.1912 16.2375 28.1944 17.866M27.6634 17.6199C27.5529 16.368 26.5939 15.2265 25.2675 15.2265C23.941 15.2265 22.9979 16.368 22.8715 17.6199H27.6634ZM34.3605 14.8435C34.5071 14.8435 34.6133 14.9708 34.6133 15.096C34.6133 15.2424 34.5028 15.3485 34.3605 15.3485H33.0011V20.6774C33.0011 20.8047 32.8907 20.9299 32.7483 20.9299C32.606 20.9299 32.4956 20.8026 32.4956 20.6774V15.3485H31.1893C31.0427 15.3485 30.9365 15.2382 30.9365 15.096C30.9365 14.9687 31.047 14.8435 31.1893 14.8435H32.4956V12.8894C32.4956 12.7663 32.5784 12.6528 32.708 12.6326C32.8779 12.6061 33.0107 12.7228 33.0107 12.8819V14.8393L34.3605 14.8435ZM42.6443 17.4194V20.6477C42.6443 20.7941 42.5168 20.9002 42.3915 20.9002C42.2449 20.9002 42.1387 20.7898 42.1387 20.6477V17.43C42.1387 16.3415 41.5228 15.253 40.3057 15.253C38.7466 15.253 38.0733 16.6142 38.1636 18.0092C38.1636 18.0464 38.1806 18.2087 38.1806 18.2256V20.6487C38.1806 20.7718 38.0977 20.8853 37.9682 20.9055C37.7983 20.932 37.6655 20.8153 37.6655 20.6561V10.0525C37.6655 9.92523 37.776 9.80005 37.9183 9.80005C38.0606 9.80005 38.171 9.92736 38.171 10.0525V16.054C38.5958 15.2753 39.387 14.7491 40.293 14.7491C41.7819 14.7491 42.6358 16.054 42.6358 17.4332M51.7288 17.8787C51.7288 18.022 51.6088 18.1387 51.4654 18.1387H46.3911C46.5185 19.3905 47.4605 20.532 48.787 20.532C49.1976 20.55 49.6058 20.461 49.9715 20.2737C50.3372 20.0864 50.6478 19.8073 50.8728 19.4637C50.9472 19.364 51.0565 19.3003 51.1957 19.3608C51.233 19.377 51.2656 19.4023 51.2907 19.4344C51.3157 19.4664 51.3323 19.5042 51.339 19.5443C51.3528 19.6271 51.3284 19.6738 51.3072 19.7204C50.7974 20.6095 49.7811 21.0466 48.7849 21.0466C47.0793 21.0466 45.8643 19.5221 45.8643 17.8915C45.8643 16.2609 47.0803 14.7364 48.7849 14.7364C50.4894 14.7364 51.7267 16.2534 51.7299 17.8819M51.1829 17.6358C51.0725 16.3839 50.1135 15.2424 48.787 15.2424C47.4605 15.2424 46.5175 16.3839 46.3911 17.6358H51.1829ZM57.965 15.096C57.965 15.2594 57.8747 15.3485 57.7282 15.3687C56.2392 15.5851 55.5691 16.8009 55.5691 18.214V20.6371C55.5691 20.7601 55.4862 20.8736 55.3567 20.8938C55.1867 20.9203 55.054 20.8036 55.054 20.6445V15.1225C55.054 14.9995 55.1368 14.886 55.2664 14.8658C55.4363 14.8393 55.5691 14.956 55.5691 15.1151V16.2397C55.9854 15.5342 56.8223 14.8605 57.691 14.8605C57.8184 14.8573 57.9639 14.9507 57.9639 15.0939M66.2934 17.8798C66.2934 18.023 66.1734 18.1397 66.03 18.1397H60.9588C61.0863 19.3916 62.0283 20.5331 63.3548 20.5331C63.7653 20.5511 64.1735 20.4621 64.5392 20.2748C64.905 20.0875 65.2156 19.8083 65.4406 19.4648C65.5149 19.365 65.6243 19.3014 65.7634 19.3619C65.8007 19.3781 65.8334 19.4034 65.8584 19.4354C65.8835 19.4675 65.9001 19.5053 65.9068 19.5454C65.9206 19.6281 65.8962 19.6748 65.8749 19.7215C65.3652 20.6105 64.3488 21.0476 63.3526 21.0476C61.647 21.0476 60.4321 19.5231 60.4321 17.8925C60.4321 16.2619 61.6481 14.7374 63.3526 14.7374C65.0572 14.7374 66.2913 16.2545 66.2944 17.883M65.7634 17.6369C65.653 16.385 64.694 15.2435 63.3675 15.2435C62.041 15.2435 61.098 16.385 60.9716 17.6369H65.7634ZM74.4932 15.1607V20.6954C74.4932 20.8418 74.3658 20.9479 74.2405 20.9479C74.0939 20.9479 73.9877 20.8376 73.9877 20.6954V19.6345C73.5714 20.4694 72.8248 21.0667 71.8817 21.0667C70.3758 21.0667 69.5389 19.7618 69.5389 18.3827V15.1363C69.5389 15.009 69.6494 14.8838 69.7917 14.8838C69.934 14.8838 70.0444 15.0111 70.0444 15.1363V18.3827C70.0444 19.4711 70.6604 20.5596 71.8775 20.5596C73.5831 20.5596 73.9835 18.9651 73.9835 17.2051V15.1278C73.9835 14.9814 74.13 14.8308 74.3095 14.8838C74.42 14.921 74.4932 15.0271 74.4932 15.1406M87.3225 17.3971V20.6434C87.3225 20.7898 87.195 20.8959 87.0697 20.8959C86.9232 20.8959 86.817 20.7856 86.817 20.6434V17.3971C86.817 16.3086 86.201 15.2403 84.9839 15.2403C83.4578 15.2403 82.8779 16.8709 82.8779 18.1397V20.6434C82.8779 20.7898 82.7505 20.8959 82.6252 20.8959C82.4786 20.8959 82.3724 20.7856 82.3724 20.6434V17.3971C82.3724 16.3086 81.7564 15.2403 80.5393 15.2403C78.9962 15.2403 78.3601 16.455 78.4174 18.0697C78.4174 18.1068 78.4344 18.18 78.4174 18.197V20.6371C78.4174 20.7601 78.3346 20.8736 78.2103 20.8938C78.0404 20.9203 77.9076 20.8036 77.9076 20.6445V15.096C77.9076 14.973 77.9905 14.8594 78.12 14.8393C78.29 14.8128 78.4227 14.9295 78.4227 15.0886V16.0137C78.8475 15.235 79.6387 14.7258 80.5447 14.7258C81.578 14.7258 82.3777 15.3782 82.7037 16.3404C83.1201 15.3984 83.9357 14.7258 84.9892 14.7258C86.4782 14.7258 87.332 15.9988 87.332 17.378" fill="#808076" fill-opacity="0.6"/>
<g opacity="0.6">
<path d="M9.7678 11.5333L0.666016 15.68L9.7678 21.0667L18.866 15.68L9.7678 11.5333Z" fill="#484545" fill-opacity="0.6"/>
</g>
<g opacity="0.45">
<path d="M0.666016 14.9659L9.33268 20.1999V0.266602L0.666016 14.9659Z" fill="#484545" fill-opacity="0.6"/>
</g>
<g opacity="0.8">
<path d="M9.33203 0.266602V20.1999L17.9987 14.9659L9.33203 0.266602Z" fill="#484545" fill-opacity="0.6"/>
</g>
<g opacity="0.45">
<path d="M0.666016 16.7334L9.33268 29.7334V22.1851L0.666016 16.7334Z" fill="#484545" fill-opacity="0.6"/>
</g>
<g opacity="0.8">
<path d="M9.33203 22.1851V29.7334L18.8654 16.7334L9.33203 22.1851Z" fill="#484545" fill-opacity="0.6"/>
</g>
</svg>
