<svg xmlns="http://www.w3.org/2000/svg" width="1029" height="170" viewBox="0 0 1029 170"><defs><clipPath id="xe8da"><path fill="#fff" d="M-13 38S4 1 44 1c38 0 57 37 57 37"/></clipPath><clipPath id="xe8db"><path fill="#fff" d="M377.463 55S414 72 414 112c0 38-36.537 57-36.537 57"/></clipPath><clipPath id="xe8dc"><path fill="#fff" d="M721 94.462S704 131 664 131c-38 0-57-36.538-57-36.538"/></clipPath><clipPath id="xe8dd"><path fill="#fff" d="M936.537 169S900 152 900 112c0-38 36.537-57 36.537-57"/></clipPath></defs><g><g><path fill="none" stroke="#71bf44" stroke-miterlimit="50" stroke-width="2" d="M-13 38v0S4 1 44 1c38 0 57 37 57 37v0" clip-path="url(&quot;#xe8da&quot;)"/></g><g><path fill="none" stroke="#71bf44" stroke-miterlimit="50" stroke-width="2" d="M377.463 55v0S414 72 414 112c0 38-36.537 57-36.537 57v0" clip-path="url(&quot;#xe8db&quot;)"/></g><g><path fill="none" stroke="#71bf44" stroke-miterlimit="50" stroke-width="2" d="M721 94.462v0S704 131 664 131c-38 0-57-36.538-57-36.538v0" clip-path="url(&quot;#xe8dc&quot;)"/></g><g><path fill="none" stroke="#71bf44" stroke-miterlimit="50" stroke-width="2" d="M936.537 169v0S900 152 900 112c0-38 36.537-57 36.537-57v0" clip-path="url(&quot;#xe8dd&quot;)"/></g><g opacity=".3"><path fill="#71bf44" d="M113.5 64a1.5 1.5 0 1 1 0 3 1.5 1.5 0 0 1 0-3zm10 10a1.5 1.5 0 1 1 0 3 1.5 1.5 0 0 1 0-3zm10 10a1.5 1.5 0 1 1 0 3 1.5 1.5 0 0 1 0-3zm10 10a1.5 1.5 0 1 1 0 3 1.5 1.5 0 0 1 0-3zm13 7a1.5 1.5 0 1 1 0 3 1.5 1.5 0 0 1 0-3zm14 5a1.5 1.5 0 1 1 0 3 1.5 1.5 0 0 1 0-3zm15 2a1.5 1.5 0 1 1 0 3 1.5 1.5 0 0 1 0-3zm90-41a1.5 1.5 0 1 1 0 3 1.5 1.5 0 0 1 0-3zm11-7a1.5 1.5 0 1 1 0 3 1.5 1.5 0 0 1 0-3zm15-7a1.5 1.5 0 1 1 0 3 1.5 1.5 0 0 1 0-3zm16-5a1.5 1.5 0 1 1 0 3 1.5 1.5 0 0 1 0-3zm18-2a1.5 1.5 0 1 1 0 3 1.5 1.5 0 0 1 0-3zm18 1a1.5 1.5 0 1 1 0 3 1.5 1.5 0 0 1 0-3zm251.096-16.994a1.5 1.5 0 1 1-2.943-.576 1.5 1.5 0 0 1 2.943.576zm14.141-12.044a1.5 1.5 0 1 1-2.944-.577 1.5 1.5 0 0 1 2.944.577zm15.911-9.678a1.5 1.5 0 1 1-2.944-.578 1.5 1.5 0 0 1 2.944.578zm16.508-5.523a1.5 1.5 0 1 1-2.944-.577 1.5 1.5 0 0 1 2.944.577zm19.414-.27a1.5 1.5 0 1 1-2.944-.576 1.5 1.5 0 0 1 2.944.577zm16.49 4.253a1.5 1.5 0 1 1-2.943-.577 1.5 1.5 0 0 1 2.943.577zm17.547 8.967a1.5 1.5 0 1 1-2.943-.577 1.5 1.5 0 0 1 2.943.577zm16.026 16.624a1.5 1.5 0 1 1-2.945-.577 1.5 1.5 0 0 1 2.945.577zm10.274 15.066a1.5 1.5 0 1 1-2.944-.576 1.5 1.5 0 0 1 2.944.576zm22 31a1.5 1.5 0 1 1-2.944-.577 1.5 1.5 0 0 1 2.944.577zm12 11a1.5 1.5 0 1 1-2.945-.578 1.5 1.5 0 0 1 2.945.579zm-24-26a1.5 1.5 0 1 1-2.944-.577 1.5 1.5 0 0 1 2.944.577zm259.736-3.437a1.497 1.497 0 1 1 .578-2.937 1.497 1.497 0 1 1-.578 2.937zm15.06 12.106a1.496 1.496 0 1 1 .577-2.936 1.496 1.496 0 1 1-.578 2.936zm7.69 15.873a1.496 1.496 0 1 1 .578-2.937 1.497 1.497 0 1 1-.578 2.937zm3.53 17.468a1.497 1.497 0 1 1 .578-2.937 1.497 1.497 0 1 1-.578 2.937zm-.73 19.367a1.497 1.497 0 1 1 .578-2.937 1.496 1.496 0 1 1-.578 2.937zm-2.258 16.45a1.497 1.497 0 1 1 .578-2.937 1.497 1.497 0 1 1-.578 2.937zm-9.978 14.504a1.496 1.496 0 1 1 .578-2.936 1.496 1.496 0 1 1-.578 2.936zM264.5 76a1.5 1.5 0 1 1 0 3 1.5 1.5 0 0 1 0-3zm-11 8a1.5 1.5 0 1 1 0 3 1.5 1.5 0 0 1 0-3zm-10 10a1.5 1.5 0 1 1 0 3 1.5 1.5 0 0 1 0-3zm-13 7a1.5 1.5 0 1 1 0 3 1.5 1.5 0 0 1 0-3zm-14 5a1.5 1.5 0 1 1 0 3 1.5 1.5 0 0 1 0-3zm-15 2a1.5 1.5 0 1 1 0 3 1.5 1.5 0 0 1 0-3zm576-10a1.5 1.5 0 1 1 0 3 1.5 1.5 0 0 1 0-3zm14 5a1.5 1.5 0 1 1 0 3 1.5 1.5 0 0 1 0-3zm15 2a1.5 1.5 0 1 1 0 3 1.5 1.5 0 0 1 0-3zm77-24a1.5 1.5 0 1 1 0 3 1.5 1.5 0 0 1 0-3zm97-31a1.5 1.5 0 1 1 0 3 1.5 1.5 0 0 1 0-3zm-23-2a1.5 1.5 0 1 1 0 3 1.5 1.5 0 0 1 0-3zm-87 43a1.5 1.5 0 1 1 0 3 1.5 1.5 0 0 1 0-3zm-16 7a1.5 1.5 0 1 1 0 3 1.5 1.5 0 0 1 0-3zm-14 5a1.5 1.5 0 1 1 0 3 1.5 1.5 0 0 1 0-3zm-18 2a1.5 1.5 0 1 1 0 3 1.5 1.5 0 0 1 0-3zm-398-37a1.5 1.5 0 1 1 0 3 1.5 1.5 0 0 1 0-3zm15 9a1.5 1.5 0 1 1 0 3 1.5 1.5 0 0 1 0-3zm12 10a1.5 1.5 0 1 1 0 3 1.5 1.5 0 0 1 0-3zm15 11a1.5 1.5 0 1 1 0 3 1.5 1.5 0 0 1 0-3zm13 7a1.5 1.5 0 1 1 0 3 1.5 1.5 0 0 1 0-3zm14 5a1.5 1.5 0 1 1 0 3 1.5 1.5 0 0 1 0-3zm16 1a1.5 1.5 0 1 1 0 3 1.5 1.5 0 0 1 0-3zm52-17a1.5 1.5 0 1 1 0 3 1.5 1.5 0 0 1 0-3zm14-13a1.5 1.5 0 1 1 0 3 1.5 1.5 0 0 1 0-3zm11-16a1.5 1.5 0 1 1 0 3 1.5 1.5 0 0 1 0-3zm8-18a1.5 1.5 0 1 1 0 3 1.5 1.5 0 0 1 0-3zm-49 58a1.5 1.5 0 1 1 0 3 1.5 1.5 0 0 1 0-3zm-18 5a1.5 1.5 0 1 1 0 3 1.5 1.5 0 0 1 0-3z"/></g></g></svg>