<svg width="371" height="333" viewBox="0 0 371 333" fill="none" xmlns="http://www.w3.org/2000/svg">
<g opacity="0.2">
<path d="M7.13461 3.56422C7.13461 5.53268 5.53748 7.12844 3.56731 7.12844C1.59714 7.12844 0 5.53268 0 3.56422C0 1.59576 1.59714 0 3.56731 0C5.53748 0 7.13461 1.59576 7.13461 3.56422Z" fill="#C4C4C4"/>
<path d="M28.5385 3.56422C28.5385 5.53268 26.9413 7.12844 24.9712 7.12844C23.001 7.12844 21.4038 5.53268 21.4038 3.56422C21.4038 1.59576 23.001 0 24.9712 0C26.9413 0 28.5385 1.59576 28.5385 3.56422Z" fill="#C4C4C4"/>
<path d="M49.9423 3.56422C49.9423 5.53268 48.3452 7.12844 46.375 7.12844C44.4048 7.12844 42.8077 5.53268 42.8077 3.56422C42.8077 1.59576 44.4048 0 46.375 0C48.3452 0 49.9423 1.59576 49.9423 3.56422Z" fill="#C4C4C4"/>
<path d="M71.3462 3.56422C71.3462 5.53268 69.749 7.12844 67.7788 7.12844C65.8087 7.12844 64.2115 5.53268 64.2115 3.56422C64.2115 1.59576 65.8087 0 67.7788 0C69.749 0 71.3462 1.59576 71.3462 3.56422Z" fill="#C4C4C4"/>
<path d="M92.75 3.56422C92.75 5.53268 91.1529 7.12844 89.1827 7.12844C87.2125 7.12844 85.6154 5.53268 85.6154 3.56422C85.6154 1.59576 87.2125 0 89.1827 0C91.1529 0 92.75 1.59576 92.75 3.56422Z" fill="#C4C4C4"/>
<path d="M114.154 3.56422C114.154 5.53268 112.557 7.12844 110.587 7.12844C108.616 7.12844 107.019 5.53268 107.019 3.56422C107.019 1.59576 108.616 0 110.587 0C112.557 0 114.154 1.59576 114.154 3.56422Z" fill="#C4C4C4"/>
<path d="M135.558 3.56422C135.558 5.53268 133.961 7.12844 131.99 7.12844C130.02 7.12844 128.423 5.53268 128.423 3.56422C128.423 1.59576 130.02 0 131.99 0C133.961 0 135.558 1.59576 135.558 3.56422Z" fill="#C4C4C4"/>
<path d="M156.962 3.56422C156.962 5.53268 155.364 7.12844 153.394 7.12844C151.424 7.12844 149.827 5.53268 149.827 3.56422C149.827 1.59576 151.424 0 153.394 0C155.364 0 156.962 1.59576 156.962 3.56422Z" fill="#C4C4C4"/>
<path d="M178.365 3.56422C178.365 5.53268 176.768 7.12844 174.798 7.12844C172.828 7.12844 171.231 5.53268 171.231 3.56422C171.231 1.59576 172.828 0 174.798 0C176.768 0 178.365 1.59576 178.365 3.56422Z" fill="#C4C4C4"/>
<path d="M199.769 3.56422C199.769 5.53268 198.172 7.12844 196.202 7.12844C194.232 7.12844 192.635 5.53268 192.635 3.56422C192.635 1.59576 194.232 0 196.202 0C198.172 0 199.769 1.59576 199.769 3.56422Z" fill="#C4C4C4"/>
<path d="M221.173 3.56422C221.173 5.53268 219.576 7.12844 217.606 7.12844C215.636 7.12844 214.038 5.53268 214.038 3.56422C214.038 1.59576 215.636 0 217.606 0C219.576 0 221.173 1.59576 221.173 3.56422Z" fill="#C4C4C4"/>
<path d="M242.577 3.56422C242.577 5.53268 240.98 7.12844 239.01 7.12844C237.039 7.12844 235.442 5.53268 235.442 3.56422C235.442 1.59576 237.039 0 239.01 0C240.98 0 242.577 1.59576 242.577 3.56422Z" fill="#C4C4C4"/>
<path d="M263.981 3.56422C263.981 5.53268 262.384 7.12844 260.413 7.12844C258.443 7.12844 256.846 5.53268 256.846 3.56422C256.846 1.59576 258.443 0 260.413 0C262.384 0 263.981 1.59576 263.981 3.56422Z" fill="#C4C4C4"/>
<path d="M285.385 3.56422C285.385 5.53268 283.787 7.12844 281.817 7.12844C279.847 7.12844 278.25 5.53268 278.25 3.56422C278.25 1.59576 279.847 0 281.817 0C283.787 0 285.385 1.59576 285.385 3.56422Z" fill="#C4C4C4"/>
<path d="M306.788 3.56422C306.788 5.53268 305.191 7.12844 303.221 7.12844C301.251 7.12844 299.654 5.53268 299.654 3.56422C299.654 1.59576 301.251 0 303.221 0C305.191 0 306.788 1.59576 306.788 3.56422Z" fill="#C4C4C4"/>
<path d="M328.192 3.56422C328.192 5.53268 326.595 7.12844 324.625 7.12844C322.655 7.12844 321.058 5.53268 321.058 3.56422C321.058 1.59576 322.655 0 324.625 0C326.595 0 328.192 1.59576 328.192 3.56422Z" fill="#C4C4C4"/>
<path d="M349.596 3.56422C349.596 5.53268 347.999 7.12844 346.029 7.12844C344.059 7.12844 342.462 5.53268 342.462 3.56422C342.462 1.59576 344.059 0 346.029 0C347.999 0 349.596 1.59576 349.596 3.56422Z" fill="#C4C4C4"/>
<path d="M371 3.56422C371 5.53268 369.403 7.12844 367.433 7.12844C365.462 7.12844 363.865 5.53268 363.865 3.56422C363.865 1.59576 365.462 0 367.433 0C369.403 0 371 1.59576 371 3.56422Z" fill="#C4C4C4"/>
<path d="M7.13461 23.9312C7.13461 25.8997 5.53748 27.4954 3.56731 27.4954C1.59714 27.4954 0 25.8997 0 23.9312C0 21.9627 1.59714 20.367 3.56731 20.367C5.53748 20.367 7.13461 21.9627 7.13461 23.9312Z" fill="#C4C4C4"/>
<path d="M28.5385 23.9312C28.5385 25.8997 26.9413 27.4954 24.9712 27.4954C23.001 27.4954 21.4038 25.8997 21.4038 23.9312C21.4038 21.9627 23.001 20.367 24.9712 20.367C26.9413 20.367 28.5385 21.9627 28.5385 23.9312Z" fill="#C4C4C4"/>
<path d="M49.9423 23.9312C49.9423 25.8997 48.3452 27.4954 46.375 27.4954C44.4048 27.4954 42.8077 25.8997 42.8077 23.9312C42.8077 21.9627 44.4048 20.367 46.375 20.367C48.3452 20.367 49.9423 21.9627 49.9423 23.9312Z" fill="#C4C4C4"/>
<path d="M71.3462 23.9312C71.3462 25.8997 69.749 27.4954 67.7788 27.4954C65.8087 27.4954 64.2115 25.8997 64.2115 23.9312C64.2115 21.9627 65.8087 20.367 67.7788 20.367C69.749 20.367 71.3462 21.9627 71.3462 23.9312Z" fill="#C4C4C4"/>
<path d="M92.75 23.9312C92.75 25.8997 91.1529 27.4954 89.1827 27.4954C87.2125 27.4954 85.6154 25.8997 85.6154 23.9312C85.6154 21.9627 87.2125 20.367 89.1827 20.367C91.1529 20.367 92.75 21.9627 92.75 23.9312Z" fill="#C4C4C4"/>
<path d="M114.154 23.9312C114.154 25.8997 112.557 27.4954 110.587 27.4954C108.616 27.4954 107.019 25.8997 107.019 23.9312C107.019 21.9627 108.616 20.367 110.587 20.367C112.557 20.367 114.154 21.9627 114.154 23.9312Z" fill="#C4C4C4"/>
<path d="M135.558 23.9312C135.558 25.8997 133.961 27.4954 131.99 27.4954C130.02 27.4954 128.423 25.8997 128.423 23.9312C128.423 21.9627 130.02 20.367 131.99 20.367C133.961 20.367 135.558 21.9627 135.558 23.9312Z" fill="#C4C4C4"/>
<path d="M156.962 23.9312C156.962 25.8997 155.364 27.4954 153.394 27.4954C151.424 27.4954 149.827 25.8997 149.827 23.9312C149.827 21.9627 151.424 20.367 153.394 20.367C155.364 20.367 156.962 21.9627 156.962 23.9312Z" fill="#C4C4C4"/>
<path d="M178.365 23.9312C178.365 25.8997 176.768 27.4954 174.798 27.4954C172.828 27.4954 171.231 25.8997 171.231 23.9312C171.231 21.9627 172.828 20.367 174.798 20.367C176.768 20.367 178.365 21.9627 178.365 23.9312Z" fill="#C4C4C4"/>
<path d="M199.769 23.9312C199.769 25.8997 198.172 27.4954 196.202 27.4954C194.232 27.4954 192.635 25.8997 192.635 23.9312C192.635 21.9627 194.232 20.367 196.202 20.367C198.172 20.367 199.769 21.9627 199.769 23.9312Z" fill="#C4C4C4"/>
<path d="M221.173 23.9312C221.173 25.8997 219.576 27.4954 217.606 27.4954C215.636 27.4954 214.038 25.8997 214.038 23.9312C214.038 21.9627 215.636 20.367 217.606 20.367C219.576 20.367 221.173 21.9627 221.173 23.9312Z" fill="#C4C4C4"/>
<path d="M242.577 23.9312C242.577 25.8997 240.98 27.4954 239.01 27.4954C237.039 27.4954 235.442 25.8997 235.442 23.9312C235.442 21.9627 237.039 20.367 239.01 20.367C240.98 20.367 242.577 21.9627 242.577 23.9312Z" fill="#C4C4C4"/>
<path d="M263.981 23.9312C263.981 25.8997 262.384 27.4954 260.413 27.4954C258.443 27.4954 256.846 25.8997 256.846 23.9312C256.846 21.9627 258.443 20.367 260.413 20.367C262.384 20.367 263.981 21.9627 263.981 23.9312Z" fill="#C4C4C4"/>
<path d="M285.385 23.9312C285.385 25.8997 283.787 27.4954 281.817 27.4954C279.847 27.4954 278.25 25.8997 278.25 23.9312C278.25 21.9627 279.847 20.367 281.817 20.367C283.787 20.367 285.385 21.9627 285.385 23.9312Z" fill="#C4C4C4"/>
<path d="M306.788 23.9312C306.788 25.8997 305.191 27.4954 303.221 27.4954C301.251 27.4954 299.654 25.8997 299.654 23.9312C299.654 21.9627 301.251 20.367 303.221 20.367C305.191 20.367 306.788 21.9627 306.788 23.9312Z" fill="#C4C4C4"/>
<path d="M328.192 23.9312C328.192 25.8997 326.595 27.4954 324.625 27.4954C322.655 27.4954 321.058 25.8997 321.058 23.9312C321.058 21.9627 322.655 20.367 324.625 20.367C326.595 20.367 328.192 21.9627 328.192 23.9312Z" fill="#C4C4C4"/>
<path d="M349.596 23.9312C349.596 25.8997 347.999 27.4954 346.029 27.4954C344.059 27.4954 342.462 25.8997 342.462 23.9312C342.462 21.9627 344.059 20.367 346.029 20.367C347.999 20.367 349.596 21.9627 349.596 23.9312Z" fill="#C4C4C4"/>
<path d="M371 23.9312C371 25.8997 369.403 27.4954 367.433 27.4954C365.462 27.4954 363.865 25.8997 363.865 23.9312C363.865 21.9627 365.462 20.367 367.433 20.367C369.403 20.367 371 21.9627 371 23.9312Z" fill="#C4C4C4"/>
<path d="M7.13461 44.2982C7.13461 46.2666 5.53748 47.8624 3.56731 47.8624C1.59714 47.8624 0 46.2666 0 44.2982C0 42.3297 1.59714 40.7339 3.56731 40.7339C5.53748 40.7339 7.13461 42.3297 7.13461 44.2982Z" fill="#C4C4C4"/>
<path d="M28.5385 44.2982C28.5385 46.2666 26.9413 47.8624 24.9712 47.8624C23.001 47.8624 21.4038 46.2666 21.4038 44.2982C21.4038 42.3297 23.001 40.7339 24.9712 40.7339C26.9413 40.7339 28.5385 42.3297 28.5385 44.2982Z" fill="#C4C4C4"/>
<path d="M49.9423 44.2982C49.9423 46.2666 48.3452 47.8624 46.375 47.8624C44.4048 47.8624 42.8077 46.2666 42.8077 44.2982C42.8077 42.3297 44.4048 40.7339 46.375 40.7339C48.3452 40.7339 49.9423 42.3297 49.9423 44.2982Z" fill="#C4C4C4"/>
<path d="M71.3462 44.2982C71.3462 46.2666 69.749 47.8624 67.7788 47.8624C65.8087 47.8624 64.2115 46.2666 64.2115 44.2982C64.2115 42.3297 65.8087 40.7339 67.7788 40.7339C69.749 40.7339 71.3462 42.3297 71.3462 44.2982Z" fill="#C4C4C4"/>
<path d="M92.75 44.2982C92.75 46.2666 91.1529 47.8624 89.1827 47.8624C87.2125 47.8624 85.6154 46.2666 85.6154 44.2982C85.6154 42.3297 87.2125 40.7339 89.1827 40.7339C91.1529 40.7339 92.75 42.3297 92.75 44.2982Z" fill="#C4C4C4"/>
<path d="M114.154 44.2982C114.154 46.2666 112.557 47.8624 110.587 47.8624C108.616 47.8624 107.019 46.2666 107.019 44.2982C107.019 42.3297 108.616 40.7339 110.587 40.7339C112.557 40.7339 114.154 42.3297 114.154 44.2982Z" fill="#C4C4C4"/>
<path d="M135.558 44.2982C135.558 46.2666 133.961 47.8624 131.99 47.8624C130.02 47.8624 128.423 46.2666 128.423 44.2982C128.423 42.3297 130.02 40.7339 131.99 40.7339C133.961 40.7339 135.558 42.3297 135.558 44.2982Z" fill="#C4C4C4"/>
<path d="M156.962 44.2982C156.962 46.2666 155.364 47.8624 153.394 47.8624C151.424 47.8624 149.827 46.2666 149.827 44.2982C149.827 42.3297 151.424 40.7339 153.394 40.7339C155.364 40.7339 156.962 42.3297 156.962 44.2982Z" fill="#C4C4C4"/>
<path d="M178.365 44.2982C178.365 46.2666 176.768 47.8624 174.798 47.8624C172.828 47.8624 171.231 46.2666 171.231 44.2982C171.231 42.3297 172.828 40.7339 174.798 40.7339C176.768 40.7339 178.365 42.3297 178.365 44.2982Z" fill="#C4C4C4"/>
<path d="M199.769 44.2982C199.769 46.2666 198.172 47.8624 196.202 47.8624C194.232 47.8624 192.635 46.2666 192.635 44.2982C192.635 42.3297 194.232 40.7339 196.202 40.7339C198.172 40.7339 199.769 42.3297 199.769 44.2982Z" fill="#C4C4C4"/>
<path d="M221.173 44.2982C221.173 46.2666 219.576 47.8624 217.606 47.8624C215.636 47.8624 214.038 46.2666 214.038 44.2982C214.038 42.3297 215.636 40.7339 217.606 40.7339C219.576 40.7339 221.173 42.3297 221.173 44.2982Z" fill="#C4C4C4"/>
<path d="M242.577 44.2982C242.577 46.2666 240.98 47.8624 239.01 47.8624C237.039 47.8624 235.442 46.2666 235.442 44.2982C235.442 42.3297 237.039 40.7339 239.01 40.7339C240.98 40.7339 242.577 42.3297 242.577 44.2982Z" fill="#C4C4C4"/>
<path d="M263.981 44.2982C263.981 46.2666 262.384 47.8624 260.413 47.8624C258.443 47.8624 256.846 46.2666 256.846 44.2982C256.846 42.3297 258.443 40.7339 260.413 40.7339C262.384 40.7339 263.981 42.3297 263.981 44.2982Z" fill="#C4C4C4"/>
<path d="M285.385 44.2982C285.385 46.2666 283.787 47.8624 281.817 47.8624C279.847 47.8624 278.25 46.2666 278.25 44.2982C278.25 42.3297 279.847 40.7339 281.817 40.7339C283.787 40.7339 285.385 42.3297 285.385 44.2982Z" fill="#C4C4C4"/>
<path d="M306.788 44.2982C306.788 46.2666 305.191 47.8624 303.221 47.8624C301.251 47.8624 299.654 46.2666 299.654 44.2982C299.654 42.3297 301.251 40.7339 303.221 40.7339C305.191 40.7339 306.788 42.3297 306.788 44.2982Z" fill="#C4C4C4"/>
<path d="M328.192 44.2982C328.192 46.2666 326.595 47.8624 324.625 47.8624C322.655 47.8624 321.058 46.2666 321.058 44.2982C321.058 42.3297 322.655 40.7339 324.625 40.7339C326.595 40.7339 328.192 42.3297 328.192 44.2982Z" fill="#C4C4C4"/>
<path d="M349.596 44.2982C349.596 46.2666 347.999 47.8624 346.029 47.8624C344.059 47.8624 342.462 46.2666 342.462 44.2982C342.462 42.3297 344.059 40.7339 346.029 40.7339C347.999 40.7339 349.596 42.3297 349.596 44.2982Z" fill="#C4C4C4"/>
<path d="M371 44.2982C371 46.2666 369.403 47.8624 367.433 47.8624C365.462 47.8624 363.865 46.2666 363.865 44.2982C363.865 42.3297 365.462 40.7339 367.433 40.7339C369.403 40.7339 371 42.3297 371 44.2982Z" fill="#C4C4C4"/>
<path d="M7.13461 64.6651C7.13461 66.6336 5.53748 68.2294 3.56731 68.2294C1.59714 68.2294 0 66.6336 0 64.6651C0 62.6967 1.59714 61.1009 3.56731 61.1009C5.53748 61.1009 7.13461 62.6967 7.13461 64.6651Z" fill="#C4C4C4"/>
<path d="M28.5385 64.6651C28.5385 66.6336 26.9413 68.2294 24.9712 68.2294C23.001 68.2294 21.4038 66.6336 21.4038 64.6651C21.4038 62.6967 23.001 61.1009 24.9712 61.1009C26.9413 61.1009 28.5385 62.6967 28.5385 64.6651Z" fill="#C4C4C4"/>
<path d="M49.9423 64.6651C49.9423 66.6336 48.3452 68.2294 46.375 68.2294C44.4048 68.2294 42.8077 66.6336 42.8077 64.6651C42.8077 62.6967 44.4048 61.1009 46.375 61.1009C48.3452 61.1009 49.9423 62.6967 49.9423 64.6651Z" fill="#C4C4C4"/>
<path d="M71.3462 64.6651C71.3462 66.6336 69.749 68.2294 67.7788 68.2294C65.8087 68.2294 64.2115 66.6336 64.2115 64.6651C64.2115 62.6967 65.8087 61.1009 67.7788 61.1009C69.749 61.1009 71.3462 62.6967 71.3462 64.6651Z" fill="#C4C4C4"/>
<path d="M92.75 64.6651C92.75 66.6336 91.1529 68.2294 89.1827 68.2294C87.2125 68.2294 85.6154 66.6336 85.6154 64.6651C85.6154 62.6967 87.2125 61.1009 89.1827 61.1009C91.1529 61.1009 92.75 62.6967 92.75 64.6651Z" fill="#C4C4C4"/>
<path d="M114.154 64.6651C114.154 66.6336 112.557 68.2294 110.587 68.2294C108.616 68.2294 107.019 66.6336 107.019 64.6651C107.019 62.6967 108.616 61.1009 110.587 61.1009C112.557 61.1009 114.154 62.6967 114.154 64.6651Z" fill="#C4C4C4"/>
<path d="M135.558 64.6651C135.558 66.6336 133.961 68.2294 131.99 68.2294C130.02 68.2294 128.423 66.6336 128.423 64.6651C128.423 62.6967 130.02 61.1009 131.99 61.1009C133.961 61.1009 135.558 62.6967 135.558 64.6651Z" fill="#C4C4C4"/>
<path d="M156.962 64.6651C156.962 66.6336 155.364 68.2294 153.394 68.2294C151.424 68.2294 149.827 66.6336 149.827 64.6651C149.827 62.6967 151.424 61.1009 153.394 61.1009C155.364 61.1009 156.962 62.6967 156.962 64.6651Z" fill="#C4C4C4"/>
<path d="M178.365 64.6651C178.365 66.6336 176.768 68.2294 174.798 68.2294C172.828 68.2294 171.231 66.6336 171.231 64.6651C171.231 62.6967 172.828 61.1009 174.798 61.1009C176.768 61.1009 178.365 62.6967 178.365 64.6651Z" fill="#C4C4C4"/>
<path d="M199.769 64.6651C199.769 66.6336 198.172 68.2294 196.202 68.2294C194.232 68.2294 192.635 66.6336 192.635 64.6651C192.635 62.6967 194.232 61.1009 196.202 61.1009C198.172 61.1009 199.769 62.6967 199.769 64.6651Z" fill="#C4C4C4"/>
<path d="M221.173 64.6651C221.173 66.6336 219.576 68.2294 217.606 68.2294C215.636 68.2294 214.038 66.6336 214.038 64.6651C214.038 62.6967 215.636 61.1009 217.606 61.1009C219.576 61.1009 221.173 62.6967 221.173 64.6651Z" fill="#C4C4C4"/>
<path d="M242.577 64.6651C242.577 66.6336 240.98 68.2294 239.01 68.2294C237.039 68.2294 235.442 66.6336 235.442 64.6651C235.442 62.6967 237.039 61.1009 239.01 61.1009C240.98 61.1009 242.577 62.6967 242.577 64.6651Z" fill="#C4C4C4"/>
<path d="M263.981 64.6651C263.981 66.6336 262.384 68.2294 260.413 68.2294C258.443 68.2294 256.846 66.6336 256.846 64.6651C256.846 62.6967 258.443 61.1009 260.413 61.1009C262.384 61.1009 263.981 62.6967 263.981 64.6651Z" fill="#C4C4C4"/>
<path d="M285.385 64.6651C285.385 66.6336 283.787 68.2294 281.817 68.2294C279.847 68.2294 278.25 66.6336 278.25 64.6651C278.25 62.6967 279.847 61.1009 281.817 61.1009C283.787 61.1009 285.385 62.6967 285.385 64.6651Z" fill="#C4C4C4"/>
<path d="M306.788 64.6651C306.788 66.6336 305.191 68.2294 303.221 68.2294C301.251 68.2294 299.654 66.6336 299.654 64.6651C299.654 62.6967 301.251 61.1009 303.221 61.1009C305.191 61.1009 306.788 62.6967 306.788 64.6651Z" fill="#C4C4C4"/>
<path d="M328.192 64.6651C328.192 66.6336 326.595 68.2294 324.625 68.2294C322.655 68.2294 321.058 66.6336 321.058 64.6651C321.058 62.6967 322.655 61.1009 324.625 61.1009C326.595 61.1009 328.192 62.6967 328.192 64.6651Z" fill="#C4C4C4"/>
<path d="M349.596 64.6651C349.596 66.6336 347.999 68.2294 346.029 68.2294C344.059 68.2294 342.462 66.6336 342.462 64.6651C342.462 62.6967 344.059 61.1009 346.029 61.1009C347.999 61.1009 349.596 62.6967 349.596 64.6651Z" fill="#C4C4C4"/>
<path d="M371 64.6651C371 66.6336 369.403 68.2294 367.433 68.2294C365.462 68.2294 363.865 66.6336 363.865 64.6651C363.865 62.6967 365.462 61.1009 367.433 61.1009C369.403 61.1009 371 62.6967 371 64.6651Z" fill="#C4C4C4"/>
<path d="M7.13461 85.0321C7.13461 87.0006 5.53748 88.5963 3.56731 88.5963C1.59714 88.5963 0 87.0006 0 85.0321C0 83.0636 1.59714 81.4679 3.56731 81.4679C5.53748 81.4679 7.13461 83.0636 7.13461 85.0321Z" fill="#C4C4C4"/>
<path d="M28.5385 85.0321C28.5385 87.0006 26.9413 88.5963 24.9712 88.5963C23.001 88.5963 21.4038 87.0006 21.4038 85.0321C21.4038 83.0636 23.001 81.4679 24.9712 81.4679C26.9413 81.4679 28.5385 83.0636 28.5385 85.0321Z" fill="#C4C4C4"/>
<path d="M49.9423 85.0321C49.9423 87.0006 48.3452 88.5963 46.375 88.5963C44.4048 88.5963 42.8077 87.0006 42.8077 85.0321C42.8077 83.0636 44.4048 81.4679 46.375 81.4679C48.3452 81.4679 49.9423 83.0636 49.9423 85.0321Z" fill="#C4C4C4"/>
<path d="M71.3462 85.0321C71.3462 87.0006 69.749 88.5963 67.7788 88.5963C65.8087 88.5963 64.2115 87.0006 64.2115 85.0321C64.2115 83.0636 65.8087 81.4679 67.7788 81.4679C69.749 81.4679 71.3462 83.0636 71.3462 85.0321Z" fill="#C4C4C4"/>
<path d="M92.75 85.0321C92.75 87.0006 91.1529 88.5963 89.1827 88.5963C87.2125 88.5963 85.6154 87.0006 85.6154 85.0321C85.6154 83.0636 87.2125 81.4679 89.1827 81.4679C91.1529 81.4679 92.75 83.0636 92.75 85.0321Z" fill="#C4C4C4"/>
<path d="M114.154 85.0321C114.154 87.0006 112.557 88.5963 110.587 88.5963C108.616 88.5963 107.019 87.0006 107.019 85.0321C107.019 83.0636 108.616 81.4679 110.587 81.4679C112.557 81.4679 114.154 83.0636 114.154 85.0321Z" fill="#C4C4C4"/>
<path d="M135.558 85.0321C135.558 87.0006 133.961 88.5963 131.99 88.5963C130.02 88.5963 128.423 87.0006 128.423 85.0321C128.423 83.0636 130.02 81.4679 131.99 81.4679C133.961 81.4679 135.558 83.0636 135.558 85.0321Z" fill="#C4C4C4"/>
<path d="M156.962 85.0321C156.962 87.0006 155.364 88.5963 153.394 88.5963C151.424 88.5963 149.827 87.0006 149.827 85.0321C149.827 83.0636 151.424 81.4679 153.394 81.4679C155.364 81.4679 156.962 83.0636 156.962 85.0321Z" fill="#C4C4C4"/>
<path d="M178.365 85.0321C178.365 87.0006 176.768 88.5963 174.798 88.5963C172.828 88.5963 171.231 87.0006 171.231 85.0321C171.231 83.0636 172.828 81.4679 174.798 81.4679C176.768 81.4679 178.365 83.0636 178.365 85.0321Z" fill="#C4C4C4"/>
<path d="M199.769 85.0321C199.769 87.0006 198.172 88.5963 196.202 88.5963C194.232 88.5963 192.635 87.0006 192.635 85.0321C192.635 83.0636 194.232 81.4679 196.202 81.4679C198.172 81.4679 199.769 83.0636 199.769 85.0321Z" fill="#C4C4C4"/>
<path d="M221.173 85.0321C221.173 87.0006 219.576 88.5963 217.606 88.5963C215.636 88.5963 214.038 87.0006 214.038 85.0321C214.038 83.0636 215.636 81.4679 217.606 81.4679C219.576 81.4679 221.173 83.0636 221.173 85.0321Z" fill="#C4C4C4"/>
<path d="M242.577 85.0321C242.577 87.0006 240.98 88.5963 239.01 88.5963C237.039 88.5963 235.442 87.0006 235.442 85.0321C235.442 83.0636 237.039 81.4679 239.01 81.4679C240.98 81.4679 242.577 83.0636 242.577 85.0321Z" fill="#C4C4C4"/>
<path d="M263.981 85.0321C263.981 87.0006 262.384 88.5963 260.413 88.5963C258.443 88.5963 256.846 87.0006 256.846 85.0321C256.846 83.0636 258.443 81.4679 260.413 81.4679C262.384 81.4679 263.981 83.0636 263.981 85.0321Z" fill="#C4C4C4"/>
<path d="M285.385 85.0321C285.385 87.0006 283.787 88.5963 281.817 88.5963C279.847 88.5963 278.25 87.0006 278.25 85.0321C278.25 83.0636 279.847 81.4679 281.817 81.4679C283.787 81.4679 285.385 83.0636 285.385 85.0321Z" fill="#C4C4C4"/>
<path d="M306.788 85.0321C306.788 87.0006 305.191 88.5963 303.221 88.5963C301.251 88.5963 299.654 87.0006 299.654 85.0321C299.654 83.0636 301.251 81.4679 303.221 81.4679C305.191 81.4679 306.788 83.0636 306.788 85.0321Z" fill="#C4C4C4"/>
<path d="M328.192 85.0321C328.192 87.0006 326.595 88.5963 324.625 88.5963C322.655 88.5963 321.058 87.0006 321.058 85.0321C321.058 83.0636 322.655 81.4679 324.625 81.4679C326.595 81.4679 328.192 83.0636 328.192 85.0321Z" fill="#C4C4C4"/>
<path d="M349.596 85.0321C349.596 87.0006 347.999 88.5963 346.029 88.5963C344.059 88.5963 342.462 87.0006 342.462 85.0321C342.462 83.0636 344.059 81.4679 346.029 81.4679C347.999 81.4679 349.596 83.0636 349.596 85.0321Z" fill="#C4C4C4"/>
<path d="M371 85.0321C371 87.0006 369.403 88.5963 367.433 88.5963C365.462 88.5963 363.865 87.0006 363.865 85.0321C363.865 83.0636 365.462 81.4679 367.433 81.4679C369.403 81.4679 371 83.0636 371 85.0321Z" fill="#C4C4C4"/>
<path d="M7.13461 105.399C7.13461 107.368 5.53748 108.963 3.56731 108.963C1.59714 108.963 0 107.368 0 105.399C0 103.431 1.59714 101.835 3.56731 101.835C5.53748 101.835 7.13461 103.431 7.13461 105.399Z" fill="#C4C4C4"/>
<path d="M28.5385 105.399C28.5385 107.368 26.9413 108.963 24.9712 108.963C23.001 108.963 21.4038 107.368 21.4038 105.399C21.4038 103.431 23.001 101.835 24.9712 101.835C26.9413 101.835 28.5385 103.431 28.5385 105.399Z" fill="#C4C4C4"/>
<path d="M49.9423 105.399C49.9423 107.368 48.3452 108.963 46.375 108.963C44.4048 108.963 42.8077 107.368 42.8077 105.399C42.8077 103.431 44.4048 101.835 46.375 101.835C48.3452 101.835 49.9423 103.431 49.9423 105.399Z" fill="#C4C4C4"/>
<path d="M71.3462 105.399C71.3462 107.368 69.749 108.963 67.7788 108.963C65.8087 108.963 64.2115 107.368 64.2115 105.399C64.2115 103.431 65.8087 101.835 67.7788 101.835C69.749 101.835 71.3462 103.431 71.3462 105.399Z" fill="#C4C4C4"/>
<path d="M92.75 105.399C92.75 107.368 91.1529 108.963 89.1827 108.963C87.2125 108.963 85.6154 107.368 85.6154 105.399C85.6154 103.431 87.2125 101.835 89.1827 101.835C91.1529 101.835 92.75 103.431 92.75 105.399Z" fill="#C4C4C4"/>
<path d="M114.154 105.399C114.154 107.368 112.557 108.963 110.587 108.963C108.616 108.963 107.019 107.368 107.019 105.399C107.019 103.431 108.616 101.835 110.587 101.835C112.557 101.835 114.154 103.431 114.154 105.399Z" fill="#C4C4C4"/>
<path d="M135.558 105.399C135.558 107.368 133.961 108.963 131.99 108.963C130.02 108.963 128.423 107.368 128.423 105.399C128.423 103.431 130.02 101.835 131.99 101.835C133.961 101.835 135.558 103.431 135.558 105.399Z" fill="#C4C4C4"/>
<path d="M156.962 105.399C156.962 107.368 155.364 108.963 153.394 108.963C151.424 108.963 149.827 107.368 149.827 105.399C149.827 103.431 151.424 101.835 153.394 101.835C155.364 101.835 156.962 103.431 156.962 105.399Z" fill="#C4C4C4"/>
<path d="M178.365 105.399C178.365 107.368 176.768 108.963 174.798 108.963C172.828 108.963 171.231 107.368 171.231 105.399C171.231 103.431 172.828 101.835 174.798 101.835C176.768 101.835 178.365 103.431 178.365 105.399Z" fill="#C4C4C4"/>
<path d="M199.769 105.399C199.769 107.368 198.172 108.963 196.202 108.963C194.232 108.963 192.635 107.368 192.635 105.399C192.635 103.431 194.232 101.835 196.202 101.835C198.172 101.835 199.769 103.431 199.769 105.399Z" fill="#C4C4C4"/>
<path d="M221.173 105.399C221.173 107.368 219.576 108.963 217.606 108.963C215.636 108.963 214.038 107.368 214.038 105.399C214.038 103.431 215.636 101.835 217.606 101.835C219.576 101.835 221.173 103.431 221.173 105.399Z" fill="#C4C4C4"/>
<path d="M242.577 105.399C242.577 107.368 240.98 108.963 239.01 108.963C237.039 108.963 235.442 107.368 235.442 105.399C235.442 103.431 237.039 101.835 239.01 101.835C240.98 101.835 242.577 103.431 242.577 105.399Z" fill="#C4C4C4"/>
<path d="M263.981 105.399C263.981 107.368 262.384 108.963 260.413 108.963C258.443 108.963 256.846 107.368 256.846 105.399C256.846 103.431 258.443 101.835 260.413 101.835C262.384 101.835 263.981 103.431 263.981 105.399Z" fill="#C4C4C4"/>
<path d="M285.385 105.399C285.385 107.368 283.787 108.963 281.817 108.963C279.847 108.963 278.25 107.368 278.25 105.399C278.25 103.431 279.847 101.835 281.817 101.835C283.787 101.835 285.385 103.431 285.385 105.399Z" fill="#C4C4C4"/>
<path d="M306.788 105.399C306.788 107.368 305.191 108.963 303.221 108.963C301.251 108.963 299.654 107.368 299.654 105.399C299.654 103.431 301.251 101.835 303.221 101.835C305.191 101.835 306.788 103.431 306.788 105.399Z" fill="#C4C4C4"/>
<path d="M328.192 105.399C328.192 107.368 326.595 108.963 324.625 108.963C322.655 108.963 321.058 107.368 321.058 105.399C321.058 103.431 322.655 101.835 324.625 101.835C326.595 101.835 328.192 103.431 328.192 105.399Z" fill="#C4C4C4"/>
<path d="M349.596 105.399C349.596 107.368 347.999 108.963 346.029 108.963C344.059 108.963 342.462 107.368 342.462 105.399C342.462 103.431 344.059 101.835 346.029 101.835C347.999 101.835 349.596 103.431 349.596 105.399Z" fill="#C4C4C4"/>
<path d="M371 105.399C371 107.368 369.403 108.963 367.433 108.963C365.462 108.963 363.865 107.368 363.865 105.399C363.865 103.431 365.462 101.835 367.433 101.835C369.403 101.835 371 103.431 371 105.399Z" fill="#C4C4C4"/>
<path d="M7.13461 125.766C7.13461 127.735 5.53748 129.33 3.56731 129.33C1.59714 129.33 0 127.735 0 125.766C0 123.798 1.59714 122.202 3.56731 122.202C5.53748 122.202 7.13461 123.798 7.13461 125.766Z" fill="#C4C4C4"/>
<path d="M28.5385 125.766C28.5385 127.735 26.9413 129.33 24.9712 129.33C23.001 129.33 21.4038 127.735 21.4038 125.766C21.4038 123.798 23.001 122.202 24.9712 122.202C26.9413 122.202 28.5385 123.798 28.5385 125.766Z" fill="#C4C4C4"/>
<path d="M49.9423 125.766C49.9423 127.735 48.3452 129.33 46.375 129.33C44.4048 129.33 42.8077 127.735 42.8077 125.766C42.8077 123.798 44.4048 122.202 46.375 122.202C48.3452 122.202 49.9423 123.798 49.9423 125.766Z" fill="#C4C4C4"/>
<path d="M71.3462 125.766C71.3462 127.735 69.749 129.33 67.7788 129.33C65.8087 129.33 64.2115 127.735 64.2115 125.766C64.2115 123.798 65.8087 122.202 67.7788 122.202C69.749 122.202 71.3462 123.798 71.3462 125.766Z" fill="#C4C4C4"/>
<path d="M92.75 125.766C92.75 127.735 91.1529 129.33 89.1827 129.33C87.2125 129.33 85.6154 127.735 85.6154 125.766C85.6154 123.798 87.2125 122.202 89.1827 122.202C91.1529 122.202 92.75 123.798 92.75 125.766Z" fill="#C4C4C4"/>
<path d="M114.154 125.766C114.154 127.735 112.557 129.33 110.587 129.33C108.616 129.33 107.019 127.735 107.019 125.766C107.019 123.798 108.616 122.202 110.587 122.202C112.557 122.202 114.154 123.798 114.154 125.766Z" fill="#C4C4C4"/>
<path d="M135.558 125.766C135.558 127.735 133.961 129.33 131.99 129.33C130.02 129.33 128.423 127.735 128.423 125.766C128.423 123.798 130.02 122.202 131.99 122.202C133.961 122.202 135.558 123.798 135.558 125.766Z" fill="#C4C4C4"/>
<path d="M156.962 125.766C156.962 127.735 155.364 129.33 153.394 129.33C151.424 129.33 149.827 127.735 149.827 125.766C149.827 123.798 151.424 122.202 153.394 122.202C155.364 122.202 156.962 123.798 156.962 125.766Z" fill="#C4C4C4"/>
<path d="M178.365 125.766C178.365 127.735 176.768 129.33 174.798 129.33C172.828 129.33 171.231 127.735 171.231 125.766C171.231 123.798 172.828 122.202 174.798 122.202C176.768 122.202 178.365 123.798 178.365 125.766Z" fill="#C4C4C4"/>
<path d="M199.769 125.766C199.769 127.735 198.172 129.33 196.202 129.33C194.232 129.33 192.635 127.735 192.635 125.766C192.635 123.798 194.232 122.202 196.202 122.202C198.172 122.202 199.769 123.798 199.769 125.766Z" fill="#C4C4C4"/>
<path d="M221.173 125.766C221.173 127.735 219.576 129.33 217.606 129.33C215.636 129.33 214.038 127.735 214.038 125.766C214.038 123.798 215.636 122.202 217.606 122.202C219.576 122.202 221.173 123.798 221.173 125.766Z" fill="#C4C4C4"/>
<path d="M242.577 125.766C242.577 127.735 240.98 129.33 239.01 129.33C237.039 129.33 235.442 127.735 235.442 125.766C235.442 123.798 237.039 122.202 239.01 122.202C240.98 122.202 242.577 123.798 242.577 125.766Z" fill="#C4C4C4"/>
<path d="M263.981 125.766C263.981 127.735 262.384 129.33 260.413 129.33C258.443 129.33 256.846 127.735 256.846 125.766C256.846 123.798 258.443 122.202 260.413 122.202C262.384 122.202 263.981 123.798 263.981 125.766Z" fill="#C4C4C4"/>
<path d="M285.385 125.766C285.385 127.735 283.787 129.33 281.817 129.33C279.847 129.33 278.25 127.735 278.25 125.766C278.25 123.798 279.847 122.202 281.817 122.202C283.787 122.202 285.385 123.798 285.385 125.766Z" fill="#C4C4C4"/>
<path d="M306.788 125.766C306.788 127.735 305.191 129.33 303.221 129.33C301.251 129.33 299.654 127.735 299.654 125.766C299.654 123.798 301.251 122.202 303.221 122.202C305.191 122.202 306.788 123.798 306.788 125.766Z" fill="#C4C4C4"/>
<path d="M328.192 125.766C328.192 127.735 326.595 129.33 324.625 129.33C322.655 129.33 321.058 127.735 321.058 125.766C321.058 123.798 322.655 122.202 324.625 122.202C326.595 122.202 328.192 123.798 328.192 125.766Z" fill="#C4C4C4"/>
<path d="M349.596 125.766C349.596 127.735 347.999 129.33 346.029 129.33C344.059 129.33 342.462 127.735 342.462 125.766C342.462 123.798 344.059 122.202 346.029 122.202C347.999 122.202 349.596 123.798 349.596 125.766Z" fill="#C4C4C4"/>
<path d="M371 125.766C371 127.735 369.403 129.33 367.433 129.33C365.462 129.33 363.865 127.735 363.865 125.766C363.865 123.798 365.462 122.202 367.433 122.202C369.403 122.202 371 123.798 371 125.766Z" fill="#C4C4C4"/>
<path d="M7.13461 146.133C7.13461 148.101 5.53748 149.697 3.56731 149.697C1.59714 149.697 0 148.101 0 146.133C0 144.165 1.59714 142.569 3.56731 142.569C5.53748 142.569 7.13461 144.165 7.13461 146.133Z" fill="#C4C4C4"/>
<path d="M28.5385 146.133C28.5385 148.101 26.9413 149.697 24.9712 149.697C23.001 149.697 21.4038 148.101 21.4038 146.133C21.4038 144.165 23.001 142.569 24.9712 142.569C26.9413 142.569 28.5385 144.165 28.5385 146.133Z" fill="#C4C4C4"/>
<path d="M49.9423 146.133C49.9423 148.101 48.3452 149.697 46.375 149.697C44.4048 149.697 42.8077 148.101 42.8077 146.133C42.8077 144.165 44.4048 142.569 46.375 142.569C48.3452 142.569 49.9423 144.165 49.9423 146.133Z" fill="#C4C4C4"/>
<path d="M71.3462 146.133C71.3462 148.101 69.749 149.697 67.7788 149.697C65.8087 149.697 64.2115 148.101 64.2115 146.133C64.2115 144.165 65.8087 142.569 67.7788 142.569C69.749 142.569 71.3462 144.165 71.3462 146.133Z" fill="#C4C4C4"/>
<path d="M92.75 146.133C92.75 148.101 91.1529 149.697 89.1827 149.697C87.2125 149.697 85.6154 148.101 85.6154 146.133C85.6154 144.165 87.2125 142.569 89.1827 142.569C91.1529 142.569 92.75 144.165 92.75 146.133Z" fill="#C4C4C4"/>
<path d="M114.154 146.133C114.154 148.101 112.557 149.697 110.587 149.697C108.616 149.697 107.019 148.101 107.019 146.133C107.019 144.165 108.616 142.569 110.587 142.569C112.557 142.569 114.154 144.165 114.154 146.133Z" fill="#C4C4C4"/>
<path d="M135.558 146.133C135.558 148.101 133.961 149.697 131.99 149.697C130.02 149.697 128.423 148.101 128.423 146.133C128.423 144.165 130.02 142.569 131.99 142.569C133.961 142.569 135.558 144.165 135.558 146.133Z" fill="#C4C4C4"/>
<path d="M156.962 146.133C156.962 148.101 155.364 149.697 153.394 149.697C151.424 149.697 149.827 148.101 149.827 146.133C149.827 144.165 151.424 142.569 153.394 142.569C155.364 142.569 156.962 144.165 156.962 146.133Z" fill="#C4C4C4"/>
<path d="M178.365 146.133C178.365 148.101 176.768 149.697 174.798 149.697C172.828 149.697 171.231 148.101 171.231 146.133C171.231 144.165 172.828 142.569 174.798 142.569C176.768 142.569 178.365 144.165 178.365 146.133Z" fill="#C4C4C4"/>
<path d="M199.769 146.133C199.769 148.101 198.172 149.697 196.202 149.697C194.232 149.697 192.635 148.101 192.635 146.133C192.635 144.165 194.232 142.569 196.202 142.569C198.172 142.569 199.769 144.165 199.769 146.133Z" fill="#C4C4C4"/>
<path d="M221.173 146.133C221.173 148.101 219.576 149.697 217.606 149.697C215.636 149.697 214.038 148.101 214.038 146.133C214.038 144.165 215.636 142.569 217.606 142.569C219.576 142.569 221.173 144.165 221.173 146.133Z" fill="#C4C4C4"/>
<path d="M242.577 146.133C242.577 148.101 240.98 149.697 239.01 149.697C237.039 149.697 235.442 148.101 235.442 146.133C235.442 144.165 237.039 142.569 239.01 142.569C240.98 142.569 242.577 144.165 242.577 146.133Z" fill="#C4C4C4"/>
<path d="M263.981 146.133C263.981 148.101 262.384 149.697 260.413 149.697C258.443 149.697 256.846 148.101 256.846 146.133C256.846 144.165 258.443 142.569 260.413 142.569C262.384 142.569 263.981 144.165 263.981 146.133Z" fill="#C4C4C4"/>
<path d="M285.385 146.133C285.385 148.101 283.787 149.697 281.817 149.697C279.847 149.697 278.25 148.101 278.25 146.133C278.25 144.165 279.847 142.569 281.817 142.569C283.787 142.569 285.385 144.165 285.385 146.133Z" fill="#C4C4C4"/>
<path d="M306.788 146.133C306.788 148.101 305.191 149.697 303.221 149.697C301.251 149.697 299.654 148.101 299.654 146.133C299.654 144.165 301.251 142.569 303.221 142.569C305.191 142.569 306.788 144.165 306.788 146.133Z" fill="#C4C4C4"/>
<path d="M328.192 146.133C328.192 148.101 326.595 149.697 324.625 149.697C322.655 149.697 321.058 148.101 321.058 146.133C321.058 144.165 322.655 142.569 324.625 142.569C326.595 142.569 328.192 144.165 328.192 146.133Z" fill="#C4C4C4"/>
<path d="M349.596 146.133C349.596 148.101 347.999 149.697 346.029 149.697C344.059 149.697 342.462 148.101 342.462 146.133C342.462 144.165 344.059 142.569 346.029 142.569C347.999 142.569 349.596 144.165 349.596 146.133Z" fill="#C4C4C4"/>
<path d="M371 146.133C371 148.101 369.403 149.697 367.433 149.697C365.462 149.697 363.865 148.101 363.865 146.133C363.865 144.165 365.462 142.569 367.433 142.569C369.403 142.569 371 144.165 371 146.133Z" fill="#C4C4C4"/>
<path d="M7.13461 166.5C7.13461 168.468 5.53748 170.064 3.56731 170.064C1.59714 170.064 0 168.468 0 166.5C0 164.532 1.59714 162.936 3.56731 162.936C5.53748 162.936 7.13461 164.532 7.13461 166.5Z" fill="#C4C4C4"/>
<path d="M28.5385 166.5C28.5385 168.468 26.9413 170.064 24.9712 170.064C23.001 170.064 21.4038 168.468 21.4038 166.5C21.4038 164.532 23.001 162.936 24.9712 162.936C26.9413 162.936 28.5385 164.532 28.5385 166.5Z" fill="#C4C4C4"/>
<path d="M49.9423 166.5C49.9423 168.468 48.3452 170.064 46.375 170.064C44.4048 170.064 42.8077 168.468 42.8077 166.5C42.8077 164.532 44.4048 162.936 46.375 162.936C48.3452 162.936 49.9423 164.532 49.9423 166.5Z" fill="#C4C4C4"/>
<path d="M71.3462 166.5C71.3462 168.468 69.749 170.064 67.7788 170.064C65.8087 170.064 64.2115 168.468 64.2115 166.5C64.2115 164.532 65.8087 162.936 67.7788 162.936C69.749 162.936 71.3462 164.532 71.3462 166.5Z" fill="#C4C4C4"/>
<path d="M92.75 166.5C92.75 168.468 91.1529 170.064 89.1827 170.064C87.2125 170.064 85.6154 168.468 85.6154 166.5C85.6154 164.532 87.2125 162.936 89.1827 162.936C91.1529 162.936 92.75 164.532 92.75 166.5Z" fill="#C4C4C4"/>
<path d="M114.154 166.5C114.154 168.468 112.557 170.064 110.587 170.064C108.616 170.064 107.019 168.468 107.019 166.5C107.019 164.532 108.616 162.936 110.587 162.936C112.557 162.936 114.154 164.532 114.154 166.5Z" fill="#C4C4C4"/>
<path d="M135.558 166.5C135.558 168.468 133.961 170.064 131.99 170.064C130.02 170.064 128.423 168.468 128.423 166.5C128.423 164.532 130.02 162.936 131.99 162.936C133.961 162.936 135.558 164.532 135.558 166.5Z" fill="#C4C4C4"/>
<path d="M156.962 166.5C156.962 168.468 155.364 170.064 153.394 170.064C151.424 170.064 149.827 168.468 149.827 166.5C149.827 164.532 151.424 162.936 153.394 162.936C155.364 162.936 156.962 164.532 156.962 166.5Z" fill="#C4C4C4"/>
<path d="M178.365 166.5C178.365 168.468 176.768 170.064 174.798 170.064C172.828 170.064 171.231 168.468 171.231 166.5C171.231 164.532 172.828 162.936 174.798 162.936C176.768 162.936 178.365 164.532 178.365 166.5Z" fill="#C4C4C4"/>
<path d="M199.769 166.5C199.769 168.468 198.172 170.064 196.202 170.064C194.232 170.064 192.635 168.468 192.635 166.5C192.635 164.532 194.232 162.936 196.202 162.936C198.172 162.936 199.769 164.532 199.769 166.5Z" fill="#C4C4C4"/>
<path d="M221.173 166.5C221.173 168.468 219.576 170.064 217.606 170.064C215.636 170.064 214.038 168.468 214.038 166.5C214.038 164.532 215.636 162.936 217.606 162.936C219.576 162.936 221.173 164.532 221.173 166.5Z" fill="#C4C4C4"/>
<path d="M242.577 166.5C242.577 168.468 240.98 170.064 239.01 170.064C237.039 170.064 235.442 168.468 235.442 166.5C235.442 164.532 237.039 162.936 239.01 162.936C240.98 162.936 242.577 164.532 242.577 166.5Z" fill="#C4C4C4"/>
<path d="M263.981 166.5C263.981 168.468 262.384 170.064 260.413 170.064C258.443 170.064 256.846 168.468 256.846 166.5C256.846 164.532 258.443 162.936 260.413 162.936C262.384 162.936 263.981 164.532 263.981 166.5Z" fill="#C4C4C4"/>
<path d="M285.385 166.5C285.385 168.468 283.787 170.064 281.817 170.064C279.847 170.064 278.25 168.468 278.25 166.5C278.25 164.532 279.847 162.936 281.817 162.936C283.787 162.936 285.385 164.532 285.385 166.5Z" fill="#C4C4C4"/>
<path d="M306.788 166.5C306.788 168.468 305.191 170.064 303.221 170.064C301.251 170.064 299.654 168.468 299.654 166.5C299.654 164.532 301.251 162.936 303.221 162.936C305.191 162.936 306.788 164.532 306.788 166.5Z" fill="#C4C4C4"/>
<path d="M328.192 166.5C328.192 168.468 326.595 170.064 324.625 170.064C322.655 170.064 321.058 168.468 321.058 166.5C321.058 164.532 322.655 162.936 324.625 162.936C326.595 162.936 328.192 164.532 328.192 166.5Z" fill="#C4C4C4"/>
<path d="M349.596 166.5C349.596 168.468 347.999 170.064 346.029 170.064C344.059 170.064 342.462 168.468 342.462 166.5C342.462 164.532 344.059 162.936 346.029 162.936C347.999 162.936 349.596 164.532 349.596 166.5Z" fill="#C4C4C4"/>
<path d="M371 166.5C371 168.468 369.403 170.064 367.433 170.064C365.462 170.064 363.865 168.468 363.865 166.5C363.865 164.532 365.462 162.936 367.433 162.936C369.403 162.936 371 164.532 371 166.5Z" fill="#C4C4C4"/>
<path d="M7.13461 186.867C7.13461 188.835 5.53748 190.431 3.56731 190.431C1.59714 190.431 0 188.835 0 186.867C0 184.898 1.59714 183.303 3.56731 183.303C5.53748 183.303 7.13461 184.898 7.13461 186.867Z" fill="#C4C4C4"/>
<path d="M28.5385 186.867C28.5385 188.835 26.9413 190.431 24.9712 190.431C23.001 190.431 21.4038 188.835 21.4038 186.867C21.4038 184.898 23.001 183.303 24.9712 183.303C26.9413 183.303 28.5385 184.898 28.5385 186.867Z" fill="#C4C4C4"/>
<path d="M49.9423 186.867C49.9423 188.835 48.3452 190.431 46.375 190.431C44.4048 190.431 42.8077 188.835 42.8077 186.867C42.8077 184.898 44.4048 183.303 46.375 183.303C48.3452 183.303 49.9423 184.898 49.9423 186.867Z" fill="#C4C4C4"/>
<path d="M71.3462 186.867C71.3462 188.835 69.749 190.431 67.7788 190.431C65.8087 190.431 64.2115 188.835 64.2115 186.867C64.2115 184.898 65.8087 183.303 67.7788 183.303C69.749 183.303 71.3462 184.898 71.3462 186.867Z" fill="#C4C4C4"/>
<path d="M92.75 186.867C92.75 188.835 91.1529 190.431 89.1827 190.431C87.2125 190.431 85.6154 188.835 85.6154 186.867C85.6154 184.898 87.2125 183.303 89.1827 183.303C91.1529 183.303 92.75 184.898 92.75 186.867Z" fill="#C4C4C4"/>
<path d="M114.154 186.867C114.154 188.835 112.557 190.431 110.587 190.431C108.616 190.431 107.019 188.835 107.019 186.867C107.019 184.898 108.616 183.303 110.587 183.303C112.557 183.303 114.154 184.898 114.154 186.867Z" fill="#C4C4C4"/>
<path d="M135.558 186.867C135.558 188.835 133.961 190.431 131.99 190.431C130.02 190.431 128.423 188.835 128.423 186.867C128.423 184.898 130.02 183.303 131.99 183.303C133.961 183.303 135.558 184.898 135.558 186.867Z" fill="#C4C4C4"/>
<path d="M156.962 186.867C156.962 188.835 155.364 190.431 153.394 190.431C151.424 190.431 149.827 188.835 149.827 186.867C149.827 184.898 151.424 183.303 153.394 183.303C155.364 183.303 156.962 184.898 156.962 186.867Z" fill="#C4C4C4"/>
<path d="M178.365 186.867C178.365 188.835 176.768 190.431 174.798 190.431C172.828 190.431 171.231 188.835 171.231 186.867C171.231 184.898 172.828 183.303 174.798 183.303C176.768 183.303 178.365 184.898 178.365 186.867Z" fill="#C4C4C4"/>
<path d="M199.769 186.867C199.769 188.835 198.172 190.431 196.202 190.431C194.232 190.431 192.635 188.835 192.635 186.867C192.635 184.898 194.232 183.303 196.202 183.303C198.172 183.303 199.769 184.898 199.769 186.867Z" fill="#C4C4C4"/>
<path d="M221.173 186.867C221.173 188.835 219.576 190.431 217.606 190.431C215.636 190.431 214.038 188.835 214.038 186.867C214.038 184.898 215.636 183.303 217.606 183.303C219.576 183.303 221.173 184.898 221.173 186.867Z" fill="#C4C4C4"/>
<path d="M242.577 186.867C242.577 188.835 240.98 190.431 239.01 190.431C237.039 190.431 235.442 188.835 235.442 186.867C235.442 184.898 237.039 183.303 239.01 183.303C240.98 183.303 242.577 184.898 242.577 186.867Z" fill="#C4C4C4"/>
<path d="M263.981 186.867C263.981 188.835 262.384 190.431 260.413 190.431C258.443 190.431 256.846 188.835 256.846 186.867C256.846 184.898 258.443 183.303 260.413 183.303C262.384 183.303 263.981 184.898 263.981 186.867Z" fill="#C4C4C4"/>
<path d="M285.385 186.867C285.385 188.835 283.787 190.431 281.817 190.431C279.847 190.431 278.25 188.835 278.25 186.867C278.25 184.898 279.847 183.303 281.817 183.303C283.787 183.303 285.385 184.898 285.385 186.867Z" fill="#C4C4C4"/>
<path d="M306.788 186.867C306.788 188.835 305.191 190.431 303.221 190.431C301.251 190.431 299.654 188.835 299.654 186.867C299.654 184.898 301.251 183.303 303.221 183.303C305.191 183.303 306.788 184.898 306.788 186.867Z" fill="#C4C4C4"/>
<path d="M328.192 186.867C328.192 188.835 326.595 190.431 324.625 190.431C322.655 190.431 321.058 188.835 321.058 186.867C321.058 184.898 322.655 183.303 324.625 183.303C326.595 183.303 328.192 184.898 328.192 186.867Z" fill="#C4C4C4"/>
<path d="M349.596 186.867C349.596 188.835 347.999 190.431 346.029 190.431C344.059 190.431 342.462 188.835 342.462 186.867C342.462 184.898 344.059 183.303 346.029 183.303C347.999 183.303 349.596 184.898 349.596 186.867Z" fill="#C4C4C4"/>
<path d="M371 186.867C371 188.835 369.403 190.431 367.433 190.431C365.462 190.431 363.865 188.835 363.865 186.867C363.865 184.898 365.462 183.303 367.433 183.303C369.403 183.303 371 184.898 371 186.867Z" fill="#C4C4C4"/>
<path d="M7.13461 207.234C7.13461 209.202 5.53748 210.798 3.56731 210.798C1.59714 210.798 0 209.202 0 207.234C0 205.265 1.59714 203.67 3.56731 203.67C5.53748 203.67 7.13461 205.265 7.13461 207.234Z" fill="#C4C4C4"/>
<path d="M28.5385 207.234C28.5385 209.202 26.9413 210.798 24.9712 210.798C23.001 210.798 21.4038 209.202 21.4038 207.234C21.4038 205.265 23.001 203.67 24.9712 203.67C26.9413 203.67 28.5385 205.265 28.5385 207.234Z" fill="#C4C4C4"/>
<path d="M49.9423 207.234C49.9423 209.202 48.3452 210.798 46.375 210.798C44.4048 210.798 42.8077 209.202 42.8077 207.234C42.8077 205.265 44.4048 203.67 46.375 203.67C48.3452 203.67 49.9423 205.265 49.9423 207.234Z" fill="#C4C4C4"/>
<path d="M71.3462 207.234C71.3462 209.202 69.749 210.798 67.7788 210.798C65.8087 210.798 64.2115 209.202 64.2115 207.234C64.2115 205.265 65.8087 203.67 67.7788 203.67C69.749 203.67 71.3462 205.265 71.3462 207.234Z" fill="#C4C4C4"/>
<path d="M92.75 207.234C92.75 209.202 91.1529 210.798 89.1827 210.798C87.2125 210.798 85.6154 209.202 85.6154 207.234C85.6154 205.265 87.2125 203.67 89.1827 203.67C91.1529 203.67 92.75 205.265 92.75 207.234Z" fill="#C4C4C4"/>
<path d="M114.154 207.234C114.154 209.202 112.557 210.798 110.587 210.798C108.616 210.798 107.019 209.202 107.019 207.234C107.019 205.265 108.616 203.67 110.587 203.67C112.557 203.67 114.154 205.265 114.154 207.234Z" fill="#C4C4C4"/>
<path d="M135.558 207.234C135.558 209.202 133.961 210.798 131.99 210.798C130.02 210.798 128.423 209.202 128.423 207.234C128.423 205.265 130.02 203.67 131.99 203.67C133.961 203.67 135.558 205.265 135.558 207.234Z" fill="#C4C4C4"/>
<path d="M156.962 207.234C156.962 209.202 155.364 210.798 153.394 210.798C151.424 210.798 149.827 209.202 149.827 207.234C149.827 205.265 151.424 203.67 153.394 203.67C155.364 203.67 156.962 205.265 156.962 207.234Z" fill="#C4C4C4"/>
<path d="M178.365 207.234C178.365 209.202 176.768 210.798 174.798 210.798C172.828 210.798 171.231 209.202 171.231 207.234C171.231 205.265 172.828 203.67 174.798 203.67C176.768 203.67 178.365 205.265 178.365 207.234Z" fill="#C4C4C4"/>
<path d="M199.769 207.234C199.769 209.202 198.172 210.798 196.202 210.798C194.232 210.798 192.635 209.202 192.635 207.234C192.635 205.265 194.232 203.67 196.202 203.67C198.172 203.67 199.769 205.265 199.769 207.234Z" fill="#C4C4C4"/>
<path d="M221.173 207.234C221.173 209.202 219.576 210.798 217.606 210.798C215.636 210.798 214.038 209.202 214.038 207.234C214.038 205.265 215.636 203.67 217.606 203.67C219.576 203.67 221.173 205.265 221.173 207.234Z" fill="#C4C4C4"/>
<path d="M242.577 207.234C242.577 209.202 240.98 210.798 239.01 210.798C237.039 210.798 235.442 209.202 235.442 207.234C235.442 205.265 237.039 203.67 239.01 203.67C240.98 203.67 242.577 205.265 242.577 207.234Z" fill="#C4C4C4"/>
<path d="M263.981 207.234C263.981 209.202 262.384 210.798 260.413 210.798C258.443 210.798 256.846 209.202 256.846 207.234C256.846 205.265 258.443 203.67 260.413 203.67C262.384 203.67 263.981 205.265 263.981 207.234Z" fill="#C4C4C4"/>
<path d="M285.385 207.234C285.385 209.202 283.787 210.798 281.817 210.798C279.847 210.798 278.25 209.202 278.25 207.234C278.25 205.265 279.847 203.67 281.817 203.67C283.787 203.67 285.385 205.265 285.385 207.234Z" fill="#C4C4C4"/>
<path d="M306.788 207.234C306.788 209.202 305.191 210.798 303.221 210.798C301.251 210.798 299.654 209.202 299.654 207.234C299.654 205.265 301.251 203.67 303.221 203.67C305.191 203.67 306.788 205.265 306.788 207.234Z" fill="#C4C4C4"/>
<path d="M328.192 207.234C328.192 209.202 326.595 210.798 324.625 210.798C322.655 210.798 321.058 209.202 321.058 207.234C321.058 205.265 322.655 203.67 324.625 203.67C326.595 203.67 328.192 205.265 328.192 207.234Z" fill="#C4C4C4"/>
<path d="M349.596 207.234C349.596 209.202 347.999 210.798 346.029 210.798C344.059 210.798 342.462 209.202 342.462 207.234C342.462 205.265 344.059 203.67 346.029 203.67C347.999 203.67 349.596 205.265 349.596 207.234Z" fill="#C4C4C4"/>
<path d="M371 207.234C371 209.202 369.403 210.798 367.433 210.798C365.462 210.798 363.865 209.202 363.865 207.234C363.865 205.265 365.462 203.67 367.433 203.67C369.403 203.67 371 205.265 371 207.234Z" fill="#C4C4C4"/>
<path d="M7.13461 227.601C7.13461 229.569 5.53748 231.165 3.56731 231.165C1.59714 231.165 0 229.569 0 227.601C0 225.632 1.59714 224.037 3.56731 224.037C5.53748 224.037 7.13461 225.632 7.13461 227.601Z" fill="#C4C4C4"/>
<path d="M28.5385 227.601C28.5385 229.569 26.9413 231.165 24.9712 231.165C23.001 231.165 21.4038 229.569 21.4038 227.601C21.4038 225.632 23.001 224.037 24.9712 224.037C26.9413 224.037 28.5385 225.632 28.5385 227.601Z" fill="#C4C4C4"/>
<path d="M49.9423 227.601C49.9423 229.569 48.3452 231.165 46.375 231.165C44.4048 231.165 42.8077 229.569 42.8077 227.601C42.8077 225.632 44.4048 224.037 46.375 224.037C48.3452 224.037 49.9423 225.632 49.9423 227.601Z" fill="#C4C4C4"/>
<path d="M71.3462 227.601C71.3462 229.569 69.749 231.165 67.7788 231.165C65.8087 231.165 64.2115 229.569 64.2115 227.601C64.2115 225.632 65.8087 224.037 67.7788 224.037C69.749 224.037 71.3462 225.632 71.3462 227.601Z" fill="#C4C4C4"/>
<path d="M92.75 227.601C92.75 229.569 91.1529 231.165 89.1827 231.165C87.2125 231.165 85.6154 229.569 85.6154 227.601C85.6154 225.632 87.2125 224.037 89.1827 224.037C91.1529 224.037 92.75 225.632 92.75 227.601Z" fill="#C4C4C4"/>
<path d="M114.154 227.601C114.154 229.569 112.557 231.165 110.587 231.165C108.616 231.165 107.019 229.569 107.019 227.601C107.019 225.632 108.616 224.037 110.587 224.037C112.557 224.037 114.154 225.632 114.154 227.601Z" fill="#C4C4C4"/>
<path d="M135.558 227.601C135.558 229.569 133.961 231.165 131.99 231.165C130.02 231.165 128.423 229.569 128.423 227.601C128.423 225.632 130.02 224.037 131.99 224.037C133.961 224.037 135.558 225.632 135.558 227.601Z" fill="#C4C4C4"/>
<path d="M156.962 227.601C156.962 229.569 155.364 231.165 153.394 231.165C151.424 231.165 149.827 229.569 149.827 227.601C149.827 225.632 151.424 224.037 153.394 224.037C155.364 224.037 156.962 225.632 156.962 227.601Z" fill="#C4C4C4"/>
<path d="M178.365 227.601C178.365 229.569 176.768 231.165 174.798 231.165C172.828 231.165 171.231 229.569 171.231 227.601C171.231 225.632 172.828 224.037 174.798 224.037C176.768 224.037 178.365 225.632 178.365 227.601Z" fill="#C4C4C4"/>
<path d="M199.769 227.601C199.769 229.569 198.172 231.165 196.202 231.165C194.232 231.165 192.635 229.569 192.635 227.601C192.635 225.632 194.232 224.037 196.202 224.037C198.172 224.037 199.769 225.632 199.769 227.601Z" fill="#C4C4C4"/>
<path d="M221.173 227.601C221.173 229.569 219.576 231.165 217.606 231.165C215.636 231.165 214.038 229.569 214.038 227.601C214.038 225.632 215.636 224.037 217.606 224.037C219.576 224.037 221.173 225.632 221.173 227.601Z" fill="#C4C4C4"/>
<path d="M242.577 227.601C242.577 229.569 240.98 231.165 239.01 231.165C237.039 231.165 235.442 229.569 235.442 227.601C235.442 225.632 237.039 224.037 239.01 224.037C240.98 224.037 242.577 225.632 242.577 227.601Z" fill="#C4C4C4"/>
<path d="M263.981 227.601C263.981 229.569 262.384 231.165 260.413 231.165C258.443 231.165 256.846 229.569 256.846 227.601C256.846 225.632 258.443 224.037 260.413 224.037C262.384 224.037 263.981 225.632 263.981 227.601Z" fill="#C4C4C4"/>
<path d="M285.385 227.601C285.385 229.569 283.787 231.165 281.817 231.165C279.847 231.165 278.25 229.569 278.25 227.601C278.25 225.632 279.847 224.037 281.817 224.037C283.787 224.037 285.385 225.632 285.385 227.601Z" fill="#C4C4C4"/>
<path d="M306.788 227.601C306.788 229.569 305.191 231.165 303.221 231.165C301.251 231.165 299.654 229.569 299.654 227.601C299.654 225.632 301.251 224.037 303.221 224.037C305.191 224.037 306.788 225.632 306.788 227.601Z" fill="#C4C4C4"/>
<path d="M328.192 227.601C328.192 229.569 326.595 231.165 324.625 231.165C322.655 231.165 321.058 229.569 321.058 227.601C321.058 225.632 322.655 224.037 324.625 224.037C326.595 224.037 328.192 225.632 328.192 227.601Z" fill="#C4C4C4"/>
<path d="M349.596 227.601C349.596 229.569 347.999 231.165 346.029 231.165C344.059 231.165 342.462 229.569 342.462 227.601C342.462 225.632 344.059 224.037 346.029 224.037C347.999 224.037 349.596 225.632 349.596 227.601Z" fill="#C4C4C4"/>
<path d="M371 227.601C371 229.569 369.403 231.165 367.433 231.165C365.462 231.165 363.865 229.569 363.865 227.601C363.865 225.632 365.462 224.037 367.433 224.037C369.403 224.037 371 225.632 371 227.601Z" fill="#C4C4C4"/>
<path d="M7.13461 247.968C7.13461 249.936 5.53748 251.532 3.56731 251.532C1.59714 251.532 0 249.936 0 247.968C0 245.999 1.59714 244.404 3.56731 244.404C5.53748 244.404 7.13461 245.999 7.13461 247.968Z" fill="#C4C4C4"/>
<path d="M28.5385 247.968C28.5385 249.936 26.9413 251.532 24.9712 251.532C23.001 251.532 21.4038 249.936 21.4038 247.968C21.4038 245.999 23.001 244.404 24.9712 244.404C26.9413 244.404 28.5385 245.999 28.5385 247.968Z" fill="#C4C4C4"/>
<path d="M49.9423 247.968C49.9423 249.936 48.3452 251.532 46.375 251.532C44.4048 251.532 42.8077 249.936 42.8077 247.968C42.8077 245.999 44.4048 244.404 46.375 244.404C48.3452 244.404 49.9423 245.999 49.9423 247.968Z" fill="#C4C4C4"/>
<path d="M71.3462 247.968C71.3462 249.936 69.749 251.532 67.7788 251.532C65.8087 251.532 64.2115 249.936 64.2115 247.968C64.2115 245.999 65.8087 244.404 67.7788 244.404C69.749 244.404 71.3462 245.999 71.3462 247.968Z" fill="#C4C4C4"/>
<path d="M92.75 247.968C92.75 249.936 91.1529 251.532 89.1827 251.532C87.2125 251.532 85.6154 249.936 85.6154 247.968C85.6154 245.999 87.2125 244.404 89.1827 244.404C91.1529 244.404 92.75 245.999 92.75 247.968Z" fill="#C4C4C4"/>
<path d="M114.154 247.968C114.154 249.936 112.557 251.532 110.587 251.532C108.616 251.532 107.019 249.936 107.019 247.968C107.019 245.999 108.616 244.404 110.587 244.404C112.557 244.404 114.154 245.999 114.154 247.968Z" fill="#C4C4C4"/>
<path d="M135.558 247.968C135.558 249.936 133.961 251.532 131.99 251.532C130.02 251.532 128.423 249.936 128.423 247.968C128.423 245.999 130.02 244.404 131.99 244.404C133.961 244.404 135.558 245.999 135.558 247.968Z" fill="#C4C4C4"/>
<path d="M156.962 247.968C156.962 249.936 155.364 251.532 153.394 251.532C151.424 251.532 149.827 249.936 149.827 247.968C149.827 245.999 151.424 244.404 153.394 244.404C155.364 244.404 156.962 245.999 156.962 247.968Z" fill="#C4C4C4"/>
<path d="M178.365 247.968C178.365 249.936 176.768 251.532 174.798 251.532C172.828 251.532 171.231 249.936 171.231 247.968C171.231 245.999 172.828 244.404 174.798 244.404C176.768 244.404 178.365 245.999 178.365 247.968Z" fill="#C4C4C4"/>
<path d="M199.769 247.968C199.769 249.936 198.172 251.532 196.202 251.532C194.232 251.532 192.635 249.936 192.635 247.968C192.635 245.999 194.232 244.404 196.202 244.404C198.172 244.404 199.769 245.999 199.769 247.968Z" fill="#C4C4C4"/>
<path d="M221.173 247.968C221.173 249.936 219.576 251.532 217.606 251.532C215.636 251.532 214.038 249.936 214.038 247.968C214.038 245.999 215.636 244.404 217.606 244.404C219.576 244.404 221.173 245.999 221.173 247.968Z" fill="#C4C4C4"/>
<path d="M242.577 247.968C242.577 249.936 240.98 251.532 239.01 251.532C237.039 251.532 235.442 249.936 235.442 247.968C235.442 245.999 237.039 244.404 239.01 244.404C240.98 244.404 242.577 245.999 242.577 247.968Z" fill="#C4C4C4"/>
<path d="M263.981 247.968C263.981 249.936 262.384 251.532 260.413 251.532C258.443 251.532 256.846 249.936 256.846 247.968C256.846 245.999 258.443 244.404 260.413 244.404C262.384 244.404 263.981 245.999 263.981 247.968Z" fill="#C4C4C4"/>
<path d="M285.385 247.968C285.385 249.936 283.787 251.532 281.817 251.532C279.847 251.532 278.25 249.936 278.25 247.968C278.25 245.999 279.847 244.404 281.817 244.404C283.787 244.404 285.385 245.999 285.385 247.968Z" fill="#C4C4C4"/>
<path d="M306.788 247.968C306.788 249.936 305.191 251.532 303.221 251.532C301.251 251.532 299.654 249.936 299.654 247.968C299.654 245.999 301.251 244.404 303.221 244.404C305.191 244.404 306.788 245.999 306.788 247.968Z" fill="#C4C4C4"/>
<path d="M328.192 247.968C328.192 249.936 326.595 251.532 324.625 251.532C322.655 251.532 321.058 249.936 321.058 247.968C321.058 245.999 322.655 244.404 324.625 244.404C326.595 244.404 328.192 245.999 328.192 247.968Z" fill="#C4C4C4"/>
<path d="M349.596 247.968C349.596 249.936 347.999 251.532 346.029 251.532C344.059 251.532 342.462 249.936 342.462 247.968C342.462 245.999 344.059 244.404 346.029 244.404C347.999 244.404 349.596 245.999 349.596 247.968Z" fill="#C4C4C4"/>
<path d="M371 247.968C371 249.936 369.403 251.532 367.433 251.532C365.462 251.532 363.865 249.936 363.865 247.968C363.865 245.999 365.462 244.404 367.433 244.404C369.403 244.404 371 245.999 371 247.968Z" fill="#C4C4C4"/>
<path d="M7.13461 268.335C7.13461 270.303 5.53748 271.899 3.56731 271.899C1.59714 271.899 0 270.303 0 268.335C0 266.366 1.59714 264.771 3.56731 264.771C5.53748 264.771 7.13461 266.366 7.13461 268.335Z" fill="#C4C4C4"/>
<path d="M28.5385 268.335C28.5385 270.303 26.9413 271.899 24.9712 271.899C23.001 271.899 21.4038 270.303 21.4038 268.335C21.4038 266.366 23.001 264.771 24.9712 264.771C26.9413 264.771 28.5385 266.366 28.5385 268.335Z" fill="#C4C4C4"/>
<path d="M49.9423 268.335C49.9423 270.303 48.3452 271.899 46.375 271.899C44.4048 271.899 42.8077 270.303 42.8077 268.335C42.8077 266.366 44.4048 264.771 46.375 264.771C48.3452 264.771 49.9423 266.366 49.9423 268.335Z" fill="#C4C4C4"/>
<path d="M71.3462 268.335C71.3462 270.303 69.749 271.899 67.7788 271.899C65.8087 271.899 64.2115 270.303 64.2115 268.335C64.2115 266.366 65.8087 264.771 67.7788 264.771C69.749 264.771 71.3462 266.366 71.3462 268.335Z" fill="#C4C4C4"/>
<path d="M92.75 268.335C92.75 270.303 91.1529 271.899 89.1827 271.899C87.2125 271.899 85.6154 270.303 85.6154 268.335C85.6154 266.366 87.2125 264.771 89.1827 264.771C91.1529 264.771 92.75 266.366 92.75 268.335Z" fill="#C4C4C4"/>
<path d="M114.154 268.335C114.154 270.303 112.557 271.899 110.587 271.899C108.616 271.899 107.019 270.303 107.019 268.335C107.019 266.366 108.616 264.771 110.587 264.771C112.557 264.771 114.154 266.366 114.154 268.335Z" fill="#C4C4C4"/>
<path d="M135.558 268.335C135.558 270.303 133.961 271.899 131.99 271.899C130.02 271.899 128.423 270.303 128.423 268.335C128.423 266.366 130.02 264.771 131.99 264.771C133.961 264.771 135.558 266.366 135.558 268.335Z" fill="#C4C4C4"/>
<path d="M156.962 268.335C156.962 270.303 155.364 271.899 153.394 271.899C151.424 271.899 149.827 270.303 149.827 268.335C149.827 266.366 151.424 264.771 153.394 264.771C155.364 264.771 156.962 266.366 156.962 268.335Z" fill="#C4C4C4"/>
<path d="M178.365 268.335C178.365 270.303 176.768 271.899 174.798 271.899C172.828 271.899 171.231 270.303 171.231 268.335C171.231 266.366 172.828 264.771 174.798 264.771C176.768 264.771 178.365 266.366 178.365 268.335Z" fill="#C4C4C4"/>
<path d="M199.769 268.335C199.769 270.303 198.172 271.899 196.202 271.899C194.232 271.899 192.635 270.303 192.635 268.335C192.635 266.366 194.232 264.771 196.202 264.771C198.172 264.771 199.769 266.366 199.769 268.335Z" fill="#C4C4C4"/>
<path d="M221.173 268.335C221.173 270.303 219.576 271.899 217.606 271.899C215.636 271.899 214.038 270.303 214.038 268.335C214.038 266.366 215.636 264.771 217.606 264.771C219.576 264.771 221.173 266.366 221.173 268.335Z" fill="#C4C4C4"/>
<path d="M242.577 268.335C242.577 270.303 240.98 271.899 239.01 271.899C237.039 271.899 235.442 270.303 235.442 268.335C235.442 266.366 237.039 264.771 239.01 264.771C240.98 264.771 242.577 266.366 242.577 268.335Z" fill="#C4C4C4"/>
<path d="M263.981 268.335C263.981 270.303 262.384 271.899 260.413 271.899C258.443 271.899 256.846 270.303 256.846 268.335C256.846 266.366 258.443 264.771 260.413 264.771C262.384 264.771 263.981 266.366 263.981 268.335Z" fill="#C4C4C4"/>
<path d="M285.385 268.335C285.385 270.303 283.787 271.899 281.817 271.899C279.847 271.899 278.25 270.303 278.25 268.335C278.25 266.366 279.847 264.771 281.817 264.771C283.787 264.771 285.385 266.366 285.385 268.335Z" fill="#C4C4C4"/>
<path d="M306.788 268.335C306.788 270.303 305.191 271.899 303.221 271.899C301.251 271.899 299.654 270.303 299.654 268.335C299.654 266.366 301.251 264.771 303.221 264.771C305.191 264.771 306.788 266.366 306.788 268.335Z" fill="#C4C4C4"/>
<path d="M328.192 268.335C328.192 270.303 326.595 271.899 324.625 271.899C322.655 271.899 321.058 270.303 321.058 268.335C321.058 266.366 322.655 264.771 324.625 264.771C326.595 264.771 328.192 266.366 328.192 268.335Z" fill="#C4C4C4"/>
<path d="M349.596 268.335C349.596 270.303 347.999 271.899 346.029 271.899C344.059 271.899 342.462 270.303 342.462 268.335C342.462 266.366 344.059 264.771 346.029 264.771C347.999 264.771 349.596 266.366 349.596 268.335Z" fill="#C4C4C4"/>
<path d="M371 268.335C371 270.303 369.403 271.899 367.433 271.899C365.462 271.899 363.865 270.303 363.865 268.335C363.865 266.366 365.462 264.771 367.433 264.771C369.403 264.771 371 266.366 371 268.335Z" fill="#C4C4C4"/>
<path d="M7.13461 288.702C7.13461 290.67 5.53748 292.266 3.56731 292.266C1.59714 292.266 0 290.67 0 288.702C0 286.733 1.59714 285.138 3.56731 285.138C5.53748 285.138 7.13461 286.733 7.13461 288.702Z" fill="#C4C4C4"/>
<path d="M28.5385 288.702C28.5385 290.67 26.9413 292.266 24.9712 292.266C23.001 292.266 21.4038 290.67 21.4038 288.702C21.4038 286.733 23.001 285.138 24.9712 285.138C26.9413 285.138 28.5385 286.733 28.5385 288.702Z" fill="#C4C4C4"/>
<path d="M49.9423 288.702C49.9423 290.67 48.3452 292.266 46.375 292.266C44.4048 292.266 42.8077 290.67 42.8077 288.702C42.8077 286.733 44.4048 285.138 46.375 285.138C48.3452 285.138 49.9423 286.733 49.9423 288.702Z" fill="#C4C4C4"/>
<path d="M71.3462 288.702C71.3462 290.67 69.749 292.266 67.7788 292.266C65.8087 292.266 64.2115 290.67 64.2115 288.702C64.2115 286.733 65.8087 285.138 67.7788 285.138C69.749 285.138 71.3462 286.733 71.3462 288.702Z" fill="#C4C4C4"/>
<path d="M92.75 288.702C92.75 290.67 91.1529 292.266 89.1827 292.266C87.2125 292.266 85.6154 290.67 85.6154 288.702C85.6154 286.733 87.2125 285.138 89.1827 285.138C91.1529 285.138 92.75 286.733 92.75 288.702Z" fill="#C4C4C4"/>
<path d="M114.154 288.702C114.154 290.67 112.557 292.266 110.587 292.266C108.616 292.266 107.019 290.67 107.019 288.702C107.019 286.733 108.616 285.138 110.587 285.138C112.557 285.138 114.154 286.733 114.154 288.702Z" fill="#C4C4C4"/>
<path d="M135.558 288.702C135.558 290.67 133.961 292.266 131.99 292.266C130.02 292.266 128.423 290.67 128.423 288.702C128.423 286.733 130.02 285.138 131.99 285.138C133.961 285.138 135.558 286.733 135.558 288.702Z" fill="#C4C4C4"/>
<path d="M156.962 288.702C156.962 290.67 155.364 292.266 153.394 292.266C151.424 292.266 149.827 290.67 149.827 288.702C149.827 286.733 151.424 285.138 153.394 285.138C155.364 285.138 156.962 286.733 156.962 288.702Z" fill="#C4C4C4"/>
<path d="M178.365 288.702C178.365 290.67 176.768 292.266 174.798 292.266C172.828 292.266 171.231 290.67 171.231 288.702C171.231 286.733 172.828 285.138 174.798 285.138C176.768 285.138 178.365 286.733 178.365 288.702Z" fill="#C4C4C4"/>
<path d="M199.769 288.702C199.769 290.67 198.172 292.266 196.202 292.266C194.232 292.266 192.635 290.67 192.635 288.702C192.635 286.733 194.232 285.138 196.202 285.138C198.172 285.138 199.769 286.733 199.769 288.702Z" fill="#C4C4C4"/>
<path d="M221.173 288.702C221.173 290.67 219.576 292.266 217.606 292.266C215.636 292.266 214.038 290.67 214.038 288.702C214.038 286.733 215.636 285.138 217.606 285.138C219.576 285.138 221.173 286.733 221.173 288.702Z" fill="#C4C4C4"/>
<path d="M242.577 288.702C242.577 290.67 240.98 292.266 239.01 292.266C237.039 292.266 235.442 290.67 235.442 288.702C235.442 286.733 237.039 285.138 239.01 285.138C240.98 285.138 242.577 286.733 242.577 288.702Z" fill="#C4C4C4"/>
<path d="M263.981 288.702C263.981 290.67 262.384 292.266 260.413 292.266C258.443 292.266 256.846 290.67 256.846 288.702C256.846 286.733 258.443 285.138 260.413 285.138C262.384 285.138 263.981 286.733 263.981 288.702Z" fill="#C4C4C4"/>
<path d="M285.385 288.702C285.385 290.67 283.787 292.266 281.817 292.266C279.847 292.266 278.25 290.67 278.25 288.702C278.25 286.733 279.847 285.138 281.817 285.138C283.787 285.138 285.385 286.733 285.385 288.702Z" fill="#C4C4C4"/>
<path d="M306.788 288.702C306.788 290.67 305.191 292.266 303.221 292.266C301.251 292.266 299.654 290.67 299.654 288.702C299.654 286.733 301.251 285.138 303.221 285.138C305.191 285.138 306.788 286.733 306.788 288.702Z" fill="#C4C4C4"/>
<path d="M328.192 288.702C328.192 290.67 326.595 292.266 324.625 292.266C322.655 292.266 321.058 290.67 321.058 288.702C321.058 286.733 322.655 285.138 324.625 285.138C326.595 285.138 328.192 286.733 328.192 288.702Z" fill="#C4C4C4"/>
<path d="M349.596 288.702C349.596 290.67 347.999 292.266 346.029 292.266C344.059 292.266 342.462 290.67 342.462 288.702C342.462 286.733 344.059 285.138 346.029 285.138C347.999 285.138 349.596 286.733 349.596 288.702Z" fill="#C4C4C4"/>
<path d="M371 288.702C371 290.67 369.403 292.266 367.433 292.266C365.462 292.266 363.865 290.67 363.865 288.702C363.865 286.733 365.462 285.138 367.433 285.138C369.403 285.138 371 286.733 371 288.702Z" fill="#C4C4C4"/>
<path d="M7.13461 309.069C7.13461 311.037 5.53748 312.633 3.56731 312.633C1.59714 312.633 0 311.037 0 309.069C0 307.1 1.59714 305.505 3.56731 305.505C5.53748 305.505 7.13461 307.1 7.13461 309.069Z" fill="#C4C4C4"/>
<path d="M28.5385 309.069C28.5385 311.037 26.9413 312.633 24.9712 312.633C23.001 312.633 21.4038 311.037 21.4038 309.069C21.4038 307.1 23.001 305.505 24.9712 305.505C26.9413 305.505 28.5385 307.1 28.5385 309.069Z" fill="#C4C4C4"/>
<path d="M49.9423 309.069C49.9423 311.037 48.3452 312.633 46.375 312.633C44.4048 312.633 42.8077 311.037 42.8077 309.069C42.8077 307.1 44.4048 305.505 46.375 305.505C48.3452 305.505 49.9423 307.1 49.9423 309.069Z" fill="#C4C4C4"/>
<path d="M71.3462 309.069C71.3462 311.037 69.749 312.633 67.7788 312.633C65.8087 312.633 64.2115 311.037 64.2115 309.069C64.2115 307.1 65.8087 305.505 67.7788 305.505C69.749 305.505 71.3462 307.1 71.3462 309.069Z" fill="#C4C4C4"/>
<path d="M92.75 309.069C92.75 311.037 91.1529 312.633 89.1827 312.633C87.2125 312.633 85.6154 311.037 85.6154 309.069C85.6154 307.1 87.2125 305.505 89.1827 305.505C91.1529 305.505 92.75 307.1 92.75 309.069Z" fill="#C4C4C4"/>
<path d="M114.154 309.069C114.154 311.037 112.557 312.633 110.587 312.633C108.616 312.633 107.019 311.037 107.019 309.069C107.019 307.1 108.616 305.505 110.587 305.505C112.557 305.505 114.154 307.1 114.154 309.069Z" fill="#C4C4C4"/>
<path d="M135.558 309.069C135.558 311.037 133.961 312.633 131.99 312.633C130.02 312.633 128.423 311.037 128.423 309.069C128.423 307.1 130.02 305.505 131.99 305.505C133.961 305.505 135.558 307.1 135.558 309.069Z" fill="#C4C4C4"/>
<path d="M156.962 309.069C156.962 311.037 155.364 312.633 153.394 312.633C151.424 312.633 149.827 311.037 149.827 309.069C149.827 307.1 151.424 305.505 153.394 305.505C155.364 305.505 156.962 307.1 156.962 309.069Z" fill="#C4C4C4"/>
<path d="M178.365 309.069C178.365 311.037 176.768 312.633 174.798 312.633C172.828 312.633 171.231 311.037 171.231 309.069C171.231 307.1 172.828 305.505 174.798 305.505C176.768 305.505 178.365 307.1 178.365 309.069Z" fill="#C4C4C4"/>
<path d="M199.769 309.069C199.769 311.037 198.172 312.633 196.202 312.633C194.232 312.633 192.635 311.037 192.635 309.069C192.635 307.1 194.232 305.505 196.202 305.505C198.172 305.505 199.769 307.1 199.769 309.069Z" fill="#C4C4C4"/>
<path d="M221.173 309.069C221.173 311.037 219.576 312.633 217.606 312.633C215.636 312.633 214.038 311.037 214.038 309.069C214.038 307.1 215.636 305.505 217.606 305.505C219.576 305.505 221.173 307.1 221.173 309.069Z" fill="#C4C4C4"/>
<path d="M242.577 309.069C242.577 311.037 240.98 312.633 239.01 312.633C237.039 312.633 235.442 311.037 235.442 309.069C235.442 307.1 237.039 305.505 239.01 305.505C240.98 305.505 242.577 307.1 242.577 309.069Z" fill="#C4C4C4"/>
<path d="M263.981 309.069C263.981 311.037 262.384 312.633 260.413 312.633C258.443 312.633 256.846 311.037 256.846 309.069C256.846 307.1 258.443 305.505 260.413 305.505C262.384 305.505 263.981 307.1 263.981 309.069Z" fill="#C4C4C4"/>
<path d="M285.385 309.069C285.385 311.037 283.787 312.633 281.817 312.633C279.847 312.633 278.25 311.037 278.25 309.069C278.25 307.1 279.847 305.505 281.817 305.505C283.787 305.505 285.385 307.1 285.385 309.069Z" fill="#C4C4C4"/>
<path d="M306.788 309.069C306.788 311.037 305.191 312.633 303.221 312.633C301.251 312.633 299.654 311.037 299.654 309.069C299.654 307.1 301.251 305.505 303.221 305.505C305.191 305.505 306.788 307.1 306.788 309.069Z" fill="#C4C4C4"/>
<path d="M328.192 309.069C328.192 311.037 326.595 312.633 324.625 312.633C322.655 312.633 321.058 311.037 321.058 309.069C321.058 307.1 322.655 305.505 324.625 305.505C326.595 305.505 328.192 307.1 328.192 309.069Z" fill="#C4C4C4"/>
<path d="M349.596 309.069C349.596 311.037 347.999 312.633 346.029 312.633C344.059 312.633 342.462 311.037 342.462 309.069C342.462 307.1 344.059 305.505 346.029 305.505C347.999 305.505 349.596 307.1 349.596 309.069Z" fill="#C4C4C4"/>
<path d="M371 309.069C371 311.037 369.403 312.633 367.433 312.633C365.462 312.633 363.865 311.037 363.865 309.069C363.865 307.1 365.462 305.505 367.433 305.505C369.403 305.505 371 307.1 371 309.069Z" fill="#C4C4C4"/>
<path d="M7.13461 329.436C7.13461 331.404 5.53748 333 3.56731 333C1.59714 333 0 331.404 0 329.436C0 327.467 1.59714 325.872 3.56731 325.872C5.53748 325.872 7.13461 327.467 7.13461 329.436Z" fill="#C4C4C4"/>
<path d="M28.5385 329.436C28.5385 331.404 26.9413 333 24.9712 333C23.001 333 21.4038 331.404 21.4038 329.436C21.4038 327.467 23.001 325.872 24.9712 325.872C26.9413 325.872 28.5385 327.467 28.5385 329.436Z" fill="#C4C4C4"/>
<path d="M49.9423 329.436C49.9423 331.404 48.3452 333 46.375 333C44.4048 333 42.8077 331.404 42.8077 329.436C42.8077 327.467 44.4048 325.872 46.375 325.872C48.3452 325.872 49.9423 327.467 49.9423 329.436Z" fill="#C4C4C4"/>
<path d="M71.3462 329.436C71.3462 331.404 69.749 333 67.7788 333C65.8087 333 64.2115 331.404 64.2115 329.436C64.2115 327.467 65.8087 325.872 67.7788 325.872C69.749 325.872 71.3462 327.467 71.3462 329.436Z" fill="#C4C4C4"/>
<path d="M92.75 329.436C92.75 331.404 91.1529 333 89.1827 333C87.2125 333 85.6154 331.404 85.6154 329.436C85.6154 327.467 87.2125 325.872 89.1827 325.872C91.1529 325.872 92.75 327.467 92.75 329.436Z" fill="#C4C4C4"/>
<path d="M114.154 329.436C114.154 331.404 112.557 333 110.587 333C108.616 333 107.019 331.404 107.019 329.436C107.019 327.467 108.616 325.872 110.587 325.872C112.557 325.872 114.154 327.467 114.154 329.436Z" fill="#C4C4C4"/>
<path d="M135.558 329.436C135.558 331.404 133.961 333 131.99 333C130.02 333 128.423 331.404 128.423 329.436C128.423 327.467 130.02 325.872 131.99 325.872C133.961 325.872 135.558 327.467 135.558 329.436Z" fill="#C4C4C4"/>
<path d="M156.962 329.436C156.962 331.404 155.364 333 153.394 333C151.424 333 149.827 331.404 149.827 329.436C149.827 327.467 151.424 325.872 153.394 325.872C155.364 325.872 156.962 327.467 156.962 329.436Z" fill="#C4C4C4"/>
<path d="M178.365 329.436C178.365 331.404 176.768 333 174.798 333C172.828 333 171.231 331.404 171.231 329.436C171.231 327.467 172.828 325.872 174.798 325.872C176.768 325.872 178.365 327.467 178.365 329.436Z" fill="#C4C4C4"/>
<path d="M199.769 329.436C199.769 331.404 198.172 333 196.202 333C194.232 333 192.635 331.404 192.635 329.436C192.635 327.467 194.232 325.872 196.202 325.872C198.172 325.872 199.769 327.467 199.769 329.436Z" fill="#C4C4C4"/>
<path d="M221.173 329.436C221.173 331.404 219.576 333 217.606 333C215.636 333 214.038 331.404 214.038 329.436C214.038 327.467 215.636 325.872 217.606 325.872C219.576 325.872 221.173 327.467 221.173 329.436Z" fill="#C4C4C4"/>
<path d="M242.577 329.436C242.577 331.404 240.98 333 239.01 333C237.039 333 235.442 331.404 235.442 329.436C235.442 327.467 237.039 325.872 239.01 325.872C240.98 325.872 242.577 327.467 242.577 329.436Z" fill="#C4C4C4"/>
<path d="M263.981 329.436C263.981 331.404 262.384 333 260.413 333C258.443 333 256.846 331.404 256.846 329.436C256.846 327.467 258.443 325.872 260.413 325.872C262.384 325.872 263.981 327.467 263.981 329.436Z" fill="#C4C4C4"/>
<path d="M285.385 329.436C285.385 331.404 283.787 333 281.817 333C279.847 333 278.25 331.404 278.25 329.436C278.25 327.467 279.847 325.872 281.817 325.872C283.787 325.872 285.385 327.467 285.385 329.436Z" fill="#C4C4C4"/>
<path d="M306.788 329.436C306.788 331.404 305.191 333 303.221 333C301.251 333 299.654 331.404 299.654 329.436C299.654 327.467 301.251 325.872 303.221 325.872C305.191 325.872 306.788 327.467 306.788 329.436Z" fill="#C4C4C4"/>
<path d="M328.192 329.436C328.192 331.404 326.595 333 324.625 333C322.655 333 321.058 331.404 321.058 329.436C321.058 327.467 322.655 325.872 324.625 325.872C326.595 325.872 328.192 327.467 328.192 329.436Z" fill="#C4C4C4"/>
<path d="M349.596 329.436C349.596 331.404 347.999 333 346.029 333C344.059 333 342.462 331.404 342.462 329.436C342.462 327.467 344.059 325.872 346.029 325.872C347.999 325.872 349.596 327.467 349.596 329.436Z" fill="#C4C4C4"/>
<path d="M371 329.436C371 331.404 369.403 333 367.433 333C365.462 333 363.865 331.404 363.865 329.436C363.865 327.467 365.462 325.872 367.433 325.872C369.403 325.872 371 327.467 371 329.436Z" fill="#C4C4C4"/>
</g>
</svg>
