<svg xmlns="http://www.w3.org/2000/svg" width="163" height="14" viewBox="0 0 163 14"><g><g><path fill="#51bff7" d="M2.5 4a2.5 2.5 0 1 1 0 5 2.5 2.5 0 0 1 0-5zm22 0a2.5 2.5 0 1 1 0 5 2.5 2.5 0 0 1 0-5zm22 0a2.5 2.5 0 1 1 0 5 2.5 2.5 0 0 1 0-5zm22 0a2.5 2.5 0 1 1 0 5 2.5 2.5 0 0 1 0-5zm22 0a2.5 2.5 0 1 1 0 5 2.5 2.5 0 0 1 0-5zm22 0a2.5 2.5 0 1 1 0 5 2.5 2.5 0 0 1 0-5zm22 0a2.5 2.5 0 1 1 0 5 2.5 2.5 0 0 1 0-5zM163 6.992c0 .251-.096.502-.288.693l-6.037 6.02a.985.985 0 0 1-1.391 0 .978.978 0 0 1 0-1.387l5.342-5.326-5.342-5.326a.979.979 0 0 1 0-1.387.986.986 0 0 1 1.39 0l6.038 6.02a.975.975 0 0 1 .288.693z"/></g></g></svg>