<svg xmlns="http://www.w3.org/2000/svg" width="30" height="17" viewBox="0 0 30 17"><g><g><path fill="#383838" d="M30.001 8.548l-4.024 3.979c-3.013 2.978-6.97 4.468-10.927 4.468-3.958 0-7.915-1.49-10.928-4.468L-.002 8.449l4.025-3.978c6.025-5.957 15.828-5.957 21.854 0zm-1.433 0l-3.408-3.37c-5.63-5.565-14.79-5.565-20.42 0L1.43 8.45l3.408 3.37c5.63 5.565 14.79 5.565 20.42 0zM14.985 4.976a.504.504 0 0 1-.507.501c-1.397 0-2.533 1.124-2.533 2.506a.504.504 0 0 1-.507.5.504.504 0 0 1-.507-.5c0-1.934 1.591-3.508 3.547-3.508.28 0 .507.225.507.501zm6.589 3.508c0 3.591-2.956 6.513-6.589 6.513-3.632 0-6.588-2.922-6.588-6.513 0-3.592 2.956-6.514 6.588-6.514 3.634 0 6.589 2.922 6.589 6.514zm-1.014 0c0-3.04-2.5-5.512-5.575-5.512-3.073 0-5.575 2.473-5.575 5.512 0 3.039 2.502 5.511 5.575 5.511 3.075 0 5.575-2.472 5.575-5.511z"/></g></g></svg>