<svg width="20" height="20" viewBox="0 0 20 20" fill="none" xmlns="http://www.w3.org/2000/svg">
<path d="M0.220007 0.21995C0.0929894 0.346939 0.0157613 0.515293 0.00236479 0.694402C-0.0110317 0.873511 0.0402932 1.05148 0.147007 1.19595L0.220007 1.27995L4.25401 5.31495C2.28704 6.69358 0.882893 8.735 0.299007 11.0649C0.253986 11.2568 0.286245 11.4586 0.388812 11.6268C0.491379 11.795 0.656017 11.9161 0.847144 11.9639C1.03827 12.0117 1.24054 11.9824 1.41023 11.8823C1.57992 11.7822 1.70341 11.6194 1.75401 11.429C2.27291 9.36095 3.55091 7.5639 5.33401 6.39495L7.14401 8.20495C6.421 8.96044 6.0226 9.96903 6.03413 11.0147C6.04566 12.0603 6.46622 13.0599 7.20571 13.7992C7.9452 14.5386 8.94483 14.959 9.99048 14.9703C11.0361 14.9817 12.0446 14.5831 12.8 13.86L18.719 19.78C18.8528 19.9141 19.0325 19.9927 19.2219 19.9998C19.4113 20.0069 19.5963 19.9421 19.7398 19.8183C19.8834 19.6946 19.9747 19.5211 19.9955 19.3327C20.0163 19.1443 19.9651 18.9551 19.852 18.8029L19.779 18.719L13.666 12.6049L13.667 12.603L12.467 11.405L9.59701 8.53495H9.59901L6.71901 5.65795L6.72001 5.65595L5.58701 4.52595L1.28001 0.21995C1.13938 0.0795 0.948758 0.000610352 0.750007 0.000610352C0.551256 0.000610352 0.360632 0.0795 0.220007 0.21995ZM8.20401 9.26495L11.739 12.801C11.2675 13.2563 10.636 13.5083 9.9805 13.5026C9.32501 13.4969 8.69798 13.234 8.23446 12.7705C7.77094 12.307 7.50802 11.6799 7.50232 11.0245C7.49663 10.369 7.74861 9.73746 8.20401 9.26595V9.26495ZM10 3.49995C9.00001 3.49995 8.03001 3.64795 7.11101 3.92495L8.34801 5.16095C10.4876 4.73731 12.7081 5.15203 14.5505 6.31938C16.3929 7.48672 17.7163 9.31742 18.247 11.433C18.2988 11.6219 18.4225 11.783 18.5916 11.882C18.7607 11.9809 18.9618 12.0097 19.1519 11.9623C19.3419 11.9149 19.5059 11.795 19.6087 11.6282C19.7115 11.4614 19.745 11.2611 19.702 11.07C19.1597 8.90741 17.9105 6.98801 16.1528 5.61652C14.3951 4.24504 12.2295 3.50008 10 3.49995ZM10.195 7.00995L13.996 10.81C13.9468 9.81785 13.5306 8.87947 12.8281 8.17717C12.1256 7.47488 11.1871 7.05886 10.195 7.00995Z" fill="#878787"/>
</svg>
