<svg xmlns="http://www.w3.org/2000/svg" width="10" height="18" viewBox="0 0 10 18"><g><g><path fill="#51bff7" d="M9.623.002L7.225-.001C4.53 0 2.789 1.737 2.789 4.43V6.47H.377A.372.372 0 0 0 0 6.838v2.96c0 .202.169.367.377.367H2.79v7.467c0 .203.169.367.377.367h3.146a.372.372 0 0 0 .377-.367v-7.467h2.82a.373.373 0 0 0 .377-.367l.001-2.96c0-.097-.04-.19-.11-.26a.384.384 0 0 0-.267-.107H6.69V4.74c0-.832.203-1.255 1.317-1.255h1.616A.372.372 0 0 0 10 3.118V.37a.373.373 0 0 0-.377-.368z"/></g></g></svg>