<svg width="78" height="83" viewBox="0 0 78 83" fill="none" xmlns="http://www.w3.org/2000/svg">
<path d="M51.5401 45.825C47.2764 45.825 43.8091 49.4963 43.8091 54.0108C43.8091 58.5253 47.2764 62.1966 51.5401 62.1966C55.8038 62.1966 59.2711 58.5253 59.2711 54.0108C59.2711 49.4963 55.8038 45.825 51.5401 45.825ZM51.5401 59.468C48.6976 59.468 46.3861 57.0204 46.3861 54.0108C46.3861 51.001 48.6977 48.5536 51.5401 48.5536C54.3826 48.5536 56.6941 51.0012 56.6941 54.0108C56.6942 57.0205 54.3826 59.468 51.5401 59.468Z" fill="#FF8A00"/>
<path d="M54.1173 59.468V65.1053L52.2541 63.7902C51.8212 63.4832 51.2581 63.4832 50.8251 63.7902L48.9631 65.1053V59.468H46.3862V67.6538C46.3862 68.1572 46.6478 68.6198 47.0678 68.857C47.4853 69.0944 47.9956 69.0671 48.3898 68.7888L51.5402 66.565L54.6906 68.7888C54.9058 68.9402 55.1558 69.018 55.4057 69.018C55.6144 69.018 55.8232 68.9648 56.0139 68.857C56.4327 68.6196 56.6943 68.1571 56.6943 67.6538V59.468H54.1173Z" fill="#FF8A00"/>
<path d="M46.3862 14.4468H29.6356V17.1754H46.3862V14.4468Z" fill="#FF8A00"/>
<path d="M59.2713 22.6323H18.0391V25.361H59.2713V22.6323Z" fill="#FF8A00"/>
<path d="M46.3861 30.8184H18.0391V33.547H46.3861V30.8184Z" fill="#FF8A00"/>
<path d="M59.2713 30.8184H51.5402V33.547H59.2713V30.8184Z" fill="#FF8A00"/>
<path d="M59.2713 39.0037H18.0391V41.7323H59.2713V39.0037Z" fill="#FF8A00"/>
<path d="M33.5011 47.1892H18.0391V49.9179H33.5011V47.1892Z" fill="#FF8A00"/>
<path d="M24.4816 54.0115H18.0391V56.7401H24.4816V54.0115Z" fill="#FF8A00"/>
<path d="M33.5012 54.0115H29.6356V56.7401H33.5012V54.0115Z" fill="#FF8A00"/>
<path d="M70.8678 0.803467C67.3154 0.803467 64.4252 3.86355 64.4252 7.62502V10.3537C64.4252 11.1067 65.0011 11.7179 65.7136 11.7179H76.0217C76.7343 11.7179 77.3102 11.1067 77.3102 10.3537V7.62502C77.3103 3.86355 74.4203 0.803467 70.8678 0.803467ZM74.7333 8.98926H67.0022V7.62502C67.0022 5.36849 68.7366 3.53212 70.8678 3.53212C72.9989 3.53212 74.7333 5.36849 74.7333 7.62502V8.98926Z" fill="#FF8A00"/>
<path d="M70.8678 0.803467H16.7505C13.1982 0.803467 10.3081 3.86355 10.3081 7.62502V73.1114H12.8852V7.62502C12.8852 5.36849 14.6195 3.53212 16.7507 3.53212H65.7166C64.9062 4.6727 64.4255 6.09018 64.4255 7.62502V75.8401C64.4255 78.0966 62.6912 79.933 60.56 79.933H11.5966V82.6615H60.5599C64.1122 82.6615 67.0024 79.6014 67.0024 75.8399V7.62502C67.0024 5.36849 68.7368 3.53212 70.868 3.53212C71.5805 3.53212 72.1564 2.9209 72.1564 2.16787C72.1564 1.41484 71.5804 0.803467 70.8678 0.803467Z" fill="#FF8A00"/>
<path d="M60.5599 79.9326C58.4287 79.9326 56.6943 78.0963 56.6943 75.8397V73.1111C56.6943 72.3566 56.1184 71.7468 55.4059 71.7468H1.28846C0.577261 71.7468 0 72.3566 0 73.1111V75.8397C0 79.6012 2.89008 82.6613 6.44258 82.6613H60.5599C61.2724 82.6613 61.8483 82.0515 61.8483 81.297C61.8483 80.5426 61.2724 79.9326 60.5599 79.9326ZM6.44258 79.9326C4.31141 79.9326 2.57706 78.0963 2.57706 75.8397V74.4755H54.1173V75.8397C54.1173 77.3746 54.5979 78.792 55.4083 79.9326H6.44258Z" fill="#FF8A00"/>
</svg>
