<svg xmlns="http://www.w3.org/2000/svg" width="89" height="90" viewBox="0 0 89 90"><g><g><path fill="#51bff7" d="M62 28.6v13.995c0 7.651-3.57 14.922-9.546 19.45-2.41 1.825-5.013 3.145-7.738 3.925a.792.792 0 0 1-.432 0c-2.725-.78-5.328-2.1-7.738-3.926C30.569 57.517 27 50.246 27 42.595V28.6c0-.406.34-.734.76-.734 11.13 0 16.107-5.547 16.156-5.605.146-.166.395-.252.585-.261a.78.78 0 0 1 .583.262c.073.084 5.053 5.604 16.155 5.604.42 0 .761.328.761.734zm-1.522.725c-9.314-.2-14.353-4.031-15.978-5.534-.35.323-.868.757-1.542 1.237a.743.743 0 0 1-.74.638c-.058 0-.11-.02-.165-.033-.49.307-1.038.622-1.653.934a.712.712 0 0 1 .296.566c0 .405-.341.733-.761.733a.746.746 0 0 1-.76-.728c-1.53.664-3.377 1.265-5.558 1.67a.72.72 0 0 1 .23.525c0 .405-.34.733-.76.733a.747.747 0 0 1-.76-.733c0-.121.036-.23.09-.331-.985.142-2.033.24-3.143.288.001.015.009.027.009.043 0 .405-.341.733-.761.733V33c.42 0 .76.328.76.733 0 .405-.34.733-.76.733V37.4c.42 0 .76.328.76.733 0 .405-.34.733-.76.733V41.8c.42 0 .76.328.76.733 0 .398-.33.72-.74.73.028 1.009.12 2.01.277 2.995a.732.732 0 0 1 .464.675.718.718 0 0 1-.238.529 23.328 23.328 0 0 0 1.838 5.353c.381.04.682.34.682.718 0 .136-.05.256-.115.365.292.527.609 1.04.942 1.541a.76.76 0 0 1 .695-.44c.42 0 .76.329.76.734 0 .397-.328.716-.737.728a22.167 22.167 0 0 0 3.908 4.052.69.69 0 0 1-.127-.38c0-.405.341-.733.761-.733s.761.328.761.733a.748.748 0 0 1-1.02.683c.031.025.061.051.094.075.568.43 1.148.83 1.738 1.2a.753.753 0 0 1 .71-.491c.42 0 .76.328.76.733 0 .192-.08.363-.204.493A21.11 21.11 0 0 0 44.5 64.5c2.462-.733 4.82-1.947 7.014-3.609 5.613-4.251 8.964-11.091 8.964-18.296zM44.5 26.399c.42 0 .76.328.76.734 0 .405-.34.733-.76.733a.747.747 0 0 1-.76-.733c0-.406.34-.734.76-.734zm-13.696 4.4c.42 0 .761.329.761.734 0 .405-.34.733-.76.733a.748.748 0 0 1-.761-.733c0-.405.34-.734.76-.734zm4.566 0c.42 0 .76.329.76.734 0 .405-.34.733-.76.733a.748.748 0 0 1-.761-.733c0-.405.34-.734.76-.734zm2.282-2.2c.42 0 .761.329.761.734 0 .405-.34.733-.76.733a.747.747 0 0 1-.762-.733c0-.405.341-.733.761-.733zm2.283 2.2c.42 0 .76.329.76.734 0 .405-.34.733-.76.733a.748.748 0 0 1-.761-.733c0-.405.34-.734.76-.734zm2.282-2.2c.42 0 .761.329.761.734 0 .405-.34.733-.76.733a.747.747 0 0 1-.761-.733c0-.405.34-.733.76-.733zm2.283 2.2c.42 0 .76.329.76.734 0 .405-.34.733-.76.733a.748.748 0 0 1-.76-.733c0-.405.34-.734.76-.734zm-13.696 4.4c.42 0 .761.329.761.734 0 .405-.34.733-.76.733a.748.748 0 0 1-.761-.733c0-.405.34-.733.76-.733zm2.283-2.2c.42 0 .76.329.76.734 0 .405-.34.733-.76.733a.747.747 0 0 1-.76-.733c0-.405.34-.733.76-.733zm2.283 2.2c.42 0 .76.329.76.734 0 .405-.34.733-.76.733a.748.748 0 0 1-.761-.733c0-.405.34-.733.76-.733zm2.282-2.2c.42 0 .761.329.761.734 0 .405-.34.733-.76.733a.748.748 0 0 1-.762-.733c0-.405.341-.733.761-.733zm2.283 2.2c.42 0 .76.329.76.734 0 .405-.34.733-.76.733a.748.748 0 0 1-.761-.733c0-.405.34-.733.76-.733zm2.282-2.2c.42 0 .761.329.761.734 0 .405-.34.733-.76.733a.747.747 0 0 1-.761-.733c0-.405.34-.733.76-.733zm2.283 2.2c.42 0 .76.329.76.734 0 .405-.34.733-.76.733a.748.748 0 0 1-.76-.733c0-.405.34-.733.76-.733zm-13.696 4.4c.42 0 .761.329.761.734 0 .405-.34.733-.76.733a.747.747 0 0 1-.761-.733c0-.405.34-.733.76-.733zm2.283-2.2c.42 0 .76.329.76.734 0 .405-.34.733-.76.733a.747.747 0 0 1-.76-.733c0-.405.34-.733.76-.733zm2.283 2.2c.42 0 .76.329.76.734 0 .405-.34.733-.76.733a.747.747 0 0 1-.761-.733c0-.405.34-.733.76-.733zm2.282-2.2c.42 0 .761.329.761.734 0 .405-.34.733-.76.733a.747.747 0 0 1-.762-.733c0-.405.341-.733.761-.733zm2.283 2.2c.42 0 .76.329.76.734 0 .405-.34.733-.76.733a.747.747 0 0 1-.761-.733c0-.405.34-.733.76-.733zm2.282-2.2c.42 0 .761.329.761.734 0 .405-.34.733-.76.733a.747.747 0 0 1-.761-.733c0-.405.34-.733.76-.733zm2.283 2.2c.42 0 .76.329.76.734 0 .405-.34.733-.76.733a.747.747 0 0 1-.76-.733c0-.405.34-.733.76-.733zM30.804 44c.42 0 .761.329.761.734 0 .405-.34.733-.76.733a.747.747 0 0 1-.761-.733c0-.405.34-.734.76-.734zm2.283-2.2c.42 0 .76.329.76.734 0 .405-.34.733-.76.733a.747.747 0 0 1-.76-.733c0-.405.34-.733.76-.733zM35.37 44c.42 0 .76.329.76.734 0 .405-.34.733-.76.733a.747.747 0 0 1-.761-.733c0-.405.34-.734.76-.734zm2.282-2.2c.42 0 .761.329.761.734 0 .405-.34.733-.76.733a.747.747 0 0 1-.762-.733c0-.405.341-.733.761-.733zm2.283 2.2c.42 0 .76.329.76.734 0 .405-.34.733-.76.733a.747.747 0 0 1-.761-.733c0-.405.34-.734.76-.734zm2.282-2.2c.42 0 .761.329.761.734 0 .405-.34.733-.76.733a.747.747 0 0 1-.761-.733c0-.405.34-.733.76-.733zM44.5 44c.42 0 .76.329.76.734 0 .405-.34.733-.76.733a.747.747 0 0 1-.76-.733c0-.405.34-.734.76-.734zm-13.696 4.4c.42 0 .761.329.761.734 0 .405-.34.733-.76.733a.747.747 0 0 1-.761-.733c0-.405.34-.733.76-.733zm2.283-2.2c.42 0 .76.33.76.734 0 .405-.34.733-.76.733a.748.748 0 0 1-.76-.733c0-.405.34-.734.76-.734zm2.283 2.2c.42 0 .76.329.76.734 0 .405-.34.733-.76.733a.747.747 0 0 1-.761-.733c0-.405.34-.733.76-.733zm2.282-2.2c.42 0 .761.33.761.734 0 .405-.34.733-.76.733a.748.748 0 0 1-.762-.733c0-.405.341-.734.761-.734zm2.283 2.2c.42 0 .76.329.76.734 0 .405-.34.733-.76.733a.747.747 0 0 1-.761-.733c0-.405.34-.733.76-.733zm2.282-2.2c.42 0 .761.33.761.734 0 .405-.34.733-.76.733a.747.747 0 0 1-.761-.733c0-.405.34-.734.76-.734zm2.283 2.2c.42 0 .76.329.76.734 0 .405-.34.733-.76.733a.747.747 0 0 1-.76-.733c0-.405.34-.733.76-.733zm-11.413 2.2c.42 0 .76.33.76.734 0 .405-.34.734-.76.734a.748.748 0 0 1-.76-.734c0-.405.34-.733.76-.733zm2.283 2.2c.42 0 .76.33.76.734 0 .405-.34.734-.76.734a.748.748 0 0 1-.761-.734c0-.405.34-.733.76-.733zm2.282-2.2c.42 0 .761.33.761.734 0 .405-.34.734-.76.734a.748.748 0 0 1-.762-.734c0-.405.341-.733.761-.733zm2.283 2.2c.42 0 .76.33.76.734 0 .405-.34.734-.76.734a.748.748 0 0 1-.761-.734c0-.405.34-.733.76-.733zm2.282-2.2c.42 0 .761.33.761.734 0 .405-.34.734-.76.734a.748.748 0 0 1-.761-.734c0-.405.34-.733.76-.733zm2.283 2.2c.42 0 .76.33.76.734 0 .405-.34.734-.76.734a.748.748 0 0 1-.76-.734c0-.405.34-.733.76-.733zm-9.13 4.4c.42 0 .76.33.76.734 0 .405-.34.734-.76.734a.748.748 0 0 1-.761-.734c0-.405.34-.733.76-.733zm2.282-2.2c.42 0 .761.33.761.734 0 .405-.34.733-.76.733a.747.747 0 0 1-.762-.733c0-.405.341-.733.761-.733zm2.283 2.2c.42 0 .76.33.76.734 0 .405-.34.734-.76.734a.747.747 0 0 1-.761-.734c0-.405.34-.733.76-.733zm2.282-2.2c.42 0 .761.33.761.734 0 .405-.34.733-.76.733a.747.747 0 0 1-.761-.733c0-.405.34-.733.76-.733zm2.283 2.2c.42 0 .76.33.76.734 0 .405-.34.734-.76.734a.748.748 0 0 1-.76-.734c0-.405.34-.733.76-.733zm-2.283 2.2c.42 0 .761.33.761.734 0 .405-.34.733-.76.733a.747.747 0 0 1-.761-.733c0-.405.34-.733.76-.733zm2.283 2.2c.42 0 .76.33.76.734 0 .405-.34.734-.76.734a.748.748 0 0 1-.76-.734c0-.405.34-.733.76-.733z"/></g><g><path fill="#51bff7" d="M8.598 44.474c.079-20.21 16.327-36.636 36.299-36.636 20.017 0 36.306 16.491 36.306 36.782 0 20.288-16.286 36.782-36.306 36.782V79.43c18.945 0 34.359-15.613 34.359-34.809 0-19.2-15.414-34.813-34.36-34.813-18.895 0-34.277 15.539-34.353 34.667m78.455.952c-.234 24.612-20.09 44.567-44.49 44.567C19.968 89.993 0 69.813 0 45 0 20.187 19.967.007 44.509.007v2.098C21.114 2.105 2.077 21.346 2.077 45c0 23.654 19.037 42.895 42.432 42.895 23.255 0 42.18-19.01 42.41-42.47h-1.507"/></g></g></svg>