<svg width="86" height="84" viewBox="0 0 86 84" fill="none" xmlns="http://www.w3.org/2000/svg">
<path d="M34.7128 17.4493C34.7128 7.82806 26.9264 0 17.3564 0C7.78638 0 0 7.82806 0 17.4493C0 27.0705 7.78638 34.8986 17.3564 34.8986C26.9264 34.8986 34.7128 27.0705 34.7128 17.4493ZM2.67021 17.4493C2.67021 9.30861 9.25904 2.68451 17.3564 2.68451C25.4537 2.68451 32.0426 9.30861 32.0426 17.4493C32.0426 25.59 25.4537 32.2141 17.3564 32.2141C9.25904 32.2141 2.67021 25.59 2.67021 17.4493Z" fill="#FF8A00"/>
<path d="M17.3564 13.4225C18.0917 13.4225 18.6915 14.0255 18.6915 14.7647H21.3617C21.3617 13.0175 20.2417 11.5409 18.6915 10.9851V9.39575H16.0213V10.9851C14.471 11.5409 13.3511 13.0175 13.3511 14.7647C13.3511 16.9846 15.1484 18.7915 17.3564 18.7915C18.0917 18.7915 18.6915 19.3944 18.6915 20.1337C18.6915 20.873 18.0917 21.476 17.3564 21.476C16.621 21.476 16.0213 20.873 16.0213 20.1337H13.3511C13.3511 21.881 14.471 23.3576 16.0213 23.9134V25.5027H18.6915V23.9134C20.2417 23.3576 21.3617 21.881 21.3617 20.1337C21.3617 17.9139 19.5644 16.107 17.3564 16.107C16.621 16.107 16.0213 15.504 16.0213 14.7647C16.0213 14.0255 16.621 13.4225 17.3564 13.4225Z" fill="#FF8A00"/>
<path d="M17.3564 8.05339C22.5097 8.05339 26.7022 12.2682 26.7022 17.4491C26.7022 19.5457 26.0216 21.5362 24.7327 23.2035L26.841 24.8505C28.4969 22.7067 29.3724 20.1487 29.3724 17.4491C29.3724 10.789 23.9811 5.3689 17.3564 5.3689C14.6712 5.3689 12.1268 6.24909 9.99438 7.91379L11.6326 10.0333C13.2911 8.73762 15.2709 8.05339 17.3564 8.05339Z" fill="#FF8A00"/>
<path d="M24.7183 26.9846L23.08 24.8651C21.4216 26.1608 19.4417 26.845 17.3563 26.845C12.203 26.845 8.01054 22.6302 8.01054 17.4493C8.01054 15.3526 8.69113 13.3622 9.97995 11.6949L7.87169 10.0479C6.21584 12.1917 5.34033 14.7497 5.34033 17.4493C5.34033 24.1094 10.7316 29.5295 17.3563 29.5295C20.0415 29.5295 22.5859 28.6493 24.7183 26.9846Z" fill="#FF8A00"/>
<path d="M82.7661 24.1606H80.0959V13.4225H77.4256V8.05352H70.7501V0H68.0799V8.05352H61.4044V13.4225H58.7342V24.1606H56.0639V42.9521H53.3937V34.8986H50.7235V29.5296H46.7182V22.8183H44.048V29.5296H40.0427V34.8986H37.3725V42.9521H32.032V80.5352H29.3618V83.2197H85.4363V80.5352H82.7661V24.1606ZM64.0746 10.738H74.7554V13.4225H64.0746V10.738ZM61.4044 16.107H77.4256V24.1606H74.7554V18.7916H72.0852V24.1606H66.7448V18.7916H64.0746V24.1606H61.4044V16.107ZM80.0959 26.8451V80.5352H76.0905V67.1127H62.7395V80.5352H58.7342V26.8451H80.0959ZM73.4203 80.5352H65.4097V69.7972H73.4203V80.5352ZM42.7129 32.2141H48.0533V34.8986H42.7129V32.2141ZM40.0427 37.5831H50.7235V42.9521H46.7182V40.2676H44.048V42.9521H40.0427V37.5831ZM34.7022 45.6366H56.0639V80.5352H53.3937V48.3211H50.7235V80.5352H46.7182V48.3211H44.048V80.5352H40.0427V48.3211H37.3725V80.5352H34.7022V45.6366Z" fill="#FF8A00"/>
<path d="M61.4043 29.5295H64.0745V32.214H61.4043V29.5295Z" fill="#FF8A00"/>
<path d="M68.0798 29.5295H70.75V32.214H68.0798V29.5295Z" fill="#FF8A00"/>
<path d="M74.7554 29.5295H77.4255V32.214H74.7554V29.5295Z" fill="#FF8A00"/>
<path d="M61.4043 37.583H64.0745V40.2676H61.4043V37.583Z" fill="#FF8A00"/>
<path d="M68.0798 37.583H70.75V40.2676H68.0798V37.583Z" fill="#FF8A00"/>
<path d="M74.7554 37.583H77.4255V40.2676H74.7554V37.583Z" fill="#FF8A00"/>
<path d="M61.4043 45.6367H64.0745V48.3212H61.4043V45.6367Z" fill="#FF8A00"/>
<path d="M68.0798 45.6367H70.75V48.3212H68.0798V45.6367Z" fill="#FF8A00"/>
<path d="M74.7554 45.6367H77.4255V48.3212H74.7554V45.6367Z" fill="#FF8A00"/>
<path d="M61.4043 53.6902H64.0745V56.3747H61.4043V53.6902Z" fill="#FF8A00"/>
<path d="M68.0798 53.6902H70.75V56.3747H68.0798V53.6902Z" fill="#FF8A00"/>
<path d="M74.7554 53.6902H77.4255V56.3747H74.7554V53.6902Z" fill="#FF8A00"/>
<path d="M61.4043 61.7434H64.0745V64.4279H61.4043V61.7434Z" fill="#FF8A00"/>
<path d="M68.0798 61.7434H70.75V64.4279H68.0798V61.7434Z" fill="#FF8A00"/>
<path d="M74.7554 61.7434H77.4255V64.4279H74.7554V61.7434Z" fill="#FF8A00"/>
<path d="M8 40.2676H10.6702V42.9521H8V40.2676Z" fill="#FF8A00"/>
<path d="M8 45.6367H10.6702V61.7438H8V45.6367Z" fill="#FF8A00"/>
<path d="M16.0107 49.6633H18.681V52.3478H16.0107V49.6633Z" fill="#FF8A00"/>
<path d="M16.0107 55.0322H18.681V71.1394H16.0107V55.0322Z" fill="#FF8A00"/>
<path d="M24.0212 40.2676H26.6915V42.9521H24.0212V40.2676Z" fill="#FF8A00"/>
<path d="M24.0212 45.6367H26.6915V61.7438H24.0212V45.6367Z" fill="#FF8A00"/>
<path d="M24.0212 80.5352H26.6915V83.2197H24.0212V80.5352Z" fill="#FF8A00"/>
</svg>
