<svg xmlns="http://www.w3.org/2000/svg" width="89" height="90" viewBox="0 0 89 90"><g><g><path fill="#51bff7" d="M80.402 45.527c-.079 20.209-16.327 36.635-36.299 36.635-20.017 0-36.306-16.492-36.306-36.782 0-20.288 16.287-36.783 36.306-36.783v1.974c-18.945 0-34.359 15.613-34.359 34.809 0 19.2 15.414 34.813 34.36 34.813 18.895 0 34.277-15.539 34.353-34.666"/></g><g><path fill="#51bff7" d="M47.223 21.303a5.31 5.31 0 0 1-5.305 5.304 5.31 5.31 0 0 1-5.305-5.304A5.31 5.31 0 0 1 41.918 16a5.31 5.31 0 0 1 5.305 5.303zm-1.553 0a3.756 3.756 0 0 0-3.752-3.75 3.756 3.756 0 0 0-3.752 3.75 3.755 3.755 0 0 0 3.752 3.75 3.756 3.756 0 0 0 3.752-3.75zm16.149 28.12l-7.081 7.22a.777.777 0 0 1-1.116-.008l-2.857-2.988a.776.776 0 1 1 1.123-1.073l2.302 2.408 6.52-6.646a.777.777 0 0 1 1.109 1.087zm4.885 5.001c-.973 4.896-4.363 9.191-9.198 11.128a.777.777 0 0 1-.578-1.442c4.2-1.682 7.362-5.51 8.252-9.989a.777.777 0 0 1 1.524.303zM67 42.854v7.796a.776.776 0 0 1-1.553 0v-7.707c-3.21 1.777-5.752 1.008-7.324.044-1.563-.958-2.495-2.298-2.718-2.643l-.016.024a8.214 8.214 0 0 1-1.35 1.57c-2.487 2.321-5.532 2.746-8.676 1.005v8.463c0 5.736 3.517 10.701 8.518 12.704a.776.776 0 1 1-.578 1.441 14.96 14.96 0 0 1-5.037-3.338v4.093A2.697 2.697 0 0 1 45.57 69h-1.735c-.75 0-1.429-.308-1.918-.803A2.688 2.688 0 0 1 40 69h-1.734a2.697 2.697 0 0 1-2.695-2.694V37.635c-1.615 2.46-2.459 5.286-2.459 8.29a3.054 3.054 0 0 1-3.142 3.054c-1.644-.045-2.977-1.447-2.971-3.125.024-8.003 4.251-13.153 6.768-15.51a6.56 6.56 0 0 1 4.499-1.775h7.304c1.573 0 3.077.587 4.235 1.654 1.817 1.672 4.229 4.482 5.674 8.526a1.49 1.49 0 0 1 1.206.715 7.468 7.468 0 0 0 2.25 2.2c1.788 1.096 3.747 1.056 5.825-.117A1.502 1.502 0 0 1 67 42.854zM40.552 30.122l.93 1.104a.57.57 0 0 0 .872 0l.93-1.104zm9.63 12.238a14.654 14.654 0 0 0-1.917-4.524v4.55c.656.12 1.294.11 1.916-.026zm3.916-2.857c-1.329-3.873-3.624-6.554-5.345-8.138a4.689 4.689 0 0 0-3.183-1.243h-.256l-1.772 2.104a2.124 2.124 0 0 1-3.248 0l-1.772-2.104h-.256a5.009 5.009 0 0 0-3.437 1.356c-2.334 2.186-6.254 6.961-6.277 14.381-.003.843.652 1.546 1.46 1.568a1.502 1.502 0 0 0 1.547-1.502c0-4.14 1.454-7.977 4.206-11.095.472-.534 1.36-.2 1.36.514v30.962c0 .63.511 1.141 1.14 1.141H40c.63 0 1.141-.512 1.141-1.14V50.35a.777.777 0 0 1 1.554 0v15.956c0 .63.512 1.141 1.141 1.141h1.735c.629 0 1.14-.511 1.14-1.14v-5.92a15.238 15.238 0 0 1-2.902-8.98v-8.553a1.501 1.501 0 0 1 2.137-1.36c.011.006.431.24.765.391v-6.388c0-.717.896-1.052 1.366-.507 1.744 2.024 2.94 4.308 3.564 6.8a7.48 7.48 0 0 0 2.457-2.287z"/></g></g></svg>