<svg width="75" height="80" viewBox="0 0 75 80" fill="none" xmlns="http://www.w3.org/2000/svg">
<path d="M53.1509 71.9873H38.6553V74.5453H53.1509V71.9873Z" fill="#FF8A00"/>
<path d="M31.4071 23.3838H28.9912V61.7547H31.4071V23.3838Z" fill="#FF8A00"/>
<path d="M72.4785 25.9425H67.6466V6.75698C67.6466 3.23069 64.9371 0.361816 61.6067 0.361816H30.1994C26.869 0.361816 24.1595 3.23069 24.1595 6.75698V13.1521H4.8319V27.2215H0V65.5925H24.1595V73.2667C24.1595 76.7929 26.869 79.6618 30.1994 79.6618H61.6067C64.9371 79.6618 67.6466 76.7929 67.6466 73.2667V54.0812H72.4785C73.8109 54.0812 74.8945 52.9339 74.8945 51.5231V28.5005C74.8945 27.0898 73.8109 25.9425 72.4785 25.9425ZM24.1595 45.3633C23.7802 45.22 23.3767 45.1279 22.9515 45.1279H20.5356C19.8688 45.1279 19.3276 44.5537 19.3276 43.8489C19.3276 43.1442 19.8688 42.5699 20.5356 42.5699H22.9515C23.6183 42.5699 24.1595 43.1442 24.1595 43.8489V45.3633ZM24.1595 40.2472C23.7802 40.1039 23.3767 40.0118 22.9515 40.0118V37.4538H20.5356V40.0118C18.5376 40.0118 16.9117 41.7334 16.9117 43.8489C16.9117 45.9644 18.5376 47.686 20.5356 47.686H22.9515C23.6183 47.686 24.1595 48.2603 24.1595 48.965C24.1595 49.6698 23.6183 50.2441 22.9515 50.2441H20.5356C19.8688 50.2441 19.3276 49.6698 19.3276 48.965H16.9117C16.9117 51.0806 18.5376 52.8021 20.5356 52.8021V55.3602H22.9515V52.8021C23.3767 52.8021 23.7802 52.71 24.1595 52.5668V57.5998C23.3683 57.7891 22.5638 57.9183 21.7436 57.9183C15.7484 57.9183 10.8718 52.7535 10.8718 46.407C10.8718 40.0604 15.7484 34.8957 21.7436 34.8957C22.5638 34.8957 23.3683 35.0249 24.1595 35.2154V40.2472ZM24.1595 32.5794C23.3659 32.4246 22.5589 32.3376 21.7436 32.3376C14.4172 32.3376 8.45583 38.6496 8.45583 46.407C8.45583 54.1643 14.4172 60.4763 21.7436 60.4763C22.5589 60.4763 23.3659 60.3894 24.1595 60.2346V63.0344H2.41595V29.7796H24.1595V32.5794ZM24.1595 27.2215H7.24785V15.7102H24.1595V27.2215ZM72.4785 28.5005V31.0586H38.6552V28.5005H72.4785ZM72.4785 33.6167V36.1747H38.6552V33.6167H72.4785ZM26.5755 6.75698C26.5755 4.64146 28.2014 2.91988 30.1994 2.91988H61.6067C63.6047 2.91988 65.2307 4.64146 65.2307 6.75698V10.5941H26.5755V6.75698ZM65.2307 73.2667C65.2307 75.3822 63.6047 77.1038 61.6067 77.1038H30.1994C28.2014 77.1038 26.5755 75.3822 26.5755 73.2667V69.4296H65.2307V73.2667ZM65.2307 66.8715H26.5755V13.1521H65.2307V25.9425H38.6552C37.3228 25.9425 36.2393 27.0898 36.2393 28.5005V51.5231C36.2393 52.9339 37.3228 54.0812 38.6552 54.0812H65.2307V66.8715ZM38.6552 51.5231V38.7328H72.4785L72.4797 51.5231H38.6552Z" fill="#FF8A00"/>
<path d="M47.1112 46.4062H41.0713V48.9643H47.1112V46.4062Z" fill="#FF8A00"/>
<path d="M4.83179 32.3374V37.4536H7.24776V34.8955H9.66374V32.3374H4.83179Z" fill="#FF8A00"/>
<path d="M9.66357 18.2676V23.3837H12.0796V20.8257H14.4956V18.2676H9.66357Z" fill="#FF8A00"/>
<path d="M7.24776 57.9172V55.3591H4.83179V60.4753H9.66374V57.9172H7.24776Z" fill="#FF8A00"/>
<path d="M65.2305 46.4062H62.8147V48.9643H65.2305V46.4062Z" fill="#FF8A00"/>
<path d="M31.4071 18.2676H28.9912V20.8256H31.4071V18.2676Z" fill="#FF8A00"/>
</svg>
