<svg xmlns="http://www.w3.org/2000/svg" width="90" height="89" viewBox="0 0 90 89"><g><g><path fill="#fff" d="M45.527 8.597c20.209.08 36.635 16.329 36.635 36.3 0 20.018-16.492 36.307-36.782 36.307-20.288 0-36.783-16.287-36.783-36.307h1.974c0 18.945 15.614 34.36 34.809 34.36 19.2 0 34.813-15.415 34.813-34.36 0-18.896-15.539-34.277-34.666-34.354"/></g><g><path fill="#fff" d="M65 27.727a6.734 6.734 0 0 1-6.727 6.726 6.734 6.734 0 0 1-6.726-6.726A6.734 6.734 0 0 1 58.273 21 6.734 6.734 0 0 1 65 27.727zm-1.602 0a5.13 5.13 0 0 0-5.125-5.125 5.13 5.13 0 0 0-5.125 5.125 5.13 5.13 0 0 0 5.125 5.125 5.13 5.13 0 0 0 5.125-5.125zm-13.853 5.925a.805.805 0 0 1-.8.801.805.805 0 0 1-.8-.8c-.002-.211.084-.418.233-.567a.806.806 0 0 1 .566-.234c.21 0 .417.085.566.234a.807.807 0 0 1 .235.566zm7.287 3.938v4.39a.8.8 0 0 1-.8.801H34.25a.8.8 0 0 1-.8-.8v-8.329a.8.8 0 0 1 .8-.8H44.5a.8.8 0 0 1 0 1.601h-9.45v6.727h20.18v-3.59a.801.801 0 1 1 1.602 0zm0 12.718a.8.8 0 0 1-.8.801h-8.95a.8.8 0 0 1 0-1.601h8.95a.8.8 0 0 1 .8.8zm0-4.163c0 .442-.358.8-.8.8h-8.95a.801.801 0 0 1 0-1.601h8.95c.442 0 .8.359.8.8zm0 8.327a.801.801 0 0 1-.8.802h-8.95a.802.802 0 0 1 0-1.602h8.95a.8.8 0 0 1 .8.8zm-12.831-8.327v8.327a.801.801 0 0 1-.8.802H34.25a.801.801 0 0 1 0-1.602h8.15v-6.726h-3.675a.801.801 0 0 1 0-1.602H43.2c.442 0 .8.359.8.8zm16.675-8.209v6.912a.801.801 0 0 1-1.602 0v-6.912a.8.8 0 0 1 1.602 0zm0 10.13a.806.806 0 0 1-.801.801.806.806 0 0 1-.8-.8c0-.211.085-.418.234-.567a.809.809 0 0 1 .566-.234c.21 0 .417.085.566.234a.81.81 0 0 1 .235.566zm0 3.579v7.953A2.405 2.405 0 0 1 58.273 62H32.008a2.406 2.406 0 0 1-2.38-2.08c-.015.013-.022-.007-.022-.071v-5.377c0-.247.114-.48.309-.632l5.154-4.007c.386-.3.564-.782.465-1.26a1.257 1.257 0 0 0-.605-.844 1.258 1.258 0 0 0-1.032-.11l-3.244 1.05a.801.801 0 0 1-.493-1.524l3.244-1.05a2.876 2.876 0 0 1 3.7 2.155 2.856 2.856 0 0 1-1.052 2.848l-4.845 3.767v4.733c0 .441.36.8.8.8h26.266c.442 0 .801-.359.801-.8v-7.953a.8.8 0 1 1 1.602 0zM49.17 27.246c0 .442-.358.8-.8.8H32.007c-.442 0-.801.36-.801.801v16.001a.801.801 0 0 1-1.601 0v-3.293l-4.004 6.077V61.2a.8.8 0 0 1-1.602 0V47.392c0-.157.046-.31.132-.44l5.474-8.308v-9.797a2.405 2.405 0 0 1 2.402-2.402H48.37c.443 0 .801.36.801.801zm12.137-.247l-2.629 2.629a.798.798 0 0 1-1.132 0l-1.314-1.314a.801.801 0 0 1 1.132-1.133l.748.748 2.063-2.063A.802.802 0 0 1 61.308 27z"/></g></g></svg>