<svg xmlns="http://www.w3.org/2000/svg" width="89" height="90" viewBox="0 0 89 90"><g><g><path fill="#fff" d="M31.219 43.694a.693.693 0 0 1-.7.685l-2.236-.007a1.489 1.489 0 0 1-1.497-1.475v-10.53l-3.4-1.67a.685.685 0 0 1-.386-.614c0-.26.15-.498.386-.615l3.4-1.672v-2.322c0-.813.672-1.474 1.5-1.474h30.892c.827 0 1.5.661 1.5 1.474v15.471c0 .38-.312.687-.698.687a.693.693 0 0 1-.699-.687v-15.47a.102.102 0 0 0-.103-.102H28.285a.102.102 0 0 0-.103.102v2.747c0 .26-.15.498-.386.614l-2.536 1.247 2.536 1.246a.685.685 0 0 1 .386.614v10.954c0 .056.047.102.103.102l2.237.006c.386.002.698.31.697.69zm32.614 6.057c.612.63.989 1.485.989 2.424 0 1.447-.894 2.692-2.167 3.23.612.632.989 1.486.989 2.425 0 1.447-.894 2.693-2.167 3.23.612.631.99 1.486.99 2.426 0 1.937-1.604 3.514-3.575 3.514H41.647a.693.693 0 0 1-.699-.687c0-.379.313-.687.699-.687h17.245c1.2 0 2.177-.96 2.177-2.14 0-1.181-.977-2.141-2.177-2.141a.693.693 0 0 1-.699-.687c0-.38.313-.687.699-.687h1.178c1.2 0 2.177-.96 2.177-2.14 0-1.181-.977-2.142-2.177-2.142h-1.178a.692.692 0 0 1-.699-.686c0-.38.313-.687.699-.687h2.356c1.2 0 2.177-.96 2.177-2.14 0-1.182-.977-2.142-2.177-2.142h-2.356a.693.693 0 0 1-.699-.686c0-.38.313-.687.699-.687h3.534c1.2 0 2.177-.96 2.177-2.141s-.977-2.141-2.177-2.141h-9.972a.7.7 0 0 1-.614-.36.677.677 0 0 1 .029-.702c1.804-2.723 2.798-6.348 2.798-10.205 0-1.18-.977-2.141-2.177-2.141-1.201 0-2.178.96-2.178 2.14 0 5.983-4.766 10.89-10.76 11.246v21.956c0 .38-.313.687-.7.687h-5.538a.693.693 0 0 1-.699-.687V43.692c0-.38.313-.687.699-.687h5.539c5.548 0 10.062-4.438 10.062-9.893 0-1.938 1.604-3.515 3.575-3.515 1.97 0 3.574 1.577 3.574 3.515 0 3.642-.84 7.105-2.382 9.893h8.744c1.97 0 3.574 1.577 3.574 3.515 0 1.446-.894 2.692-2.167 3.23zm-25.678-5.372h-4.143v21.247h4.143zm17.943 19.874a.693.693 0 0 1-.698-.686V46.439c0-.38.312-.687.698-.687.386 0 .699.308.699.687v17.128c0 .379-.313.686-.699.686z"/></g><g><path fill="#fff" d="M80.402 45.526c-.079 20.21-16.327 36.636-36.299 36.636-20.017 0-36.306-16.492-36.306-36.782 0-20.288 16.287-36.782 36.306-36.782v1.973c-18.945 0-34.359 15.613-34.359 34.809 0 19.2 15.414 34.813 34.36 34.813 18.895 0 34.277-15.539 34.353-34.667M.002 44.575C.236 19.96 20.092.007 44.492.007 69.032.007 89 20.187 89 44.999c0 24.814-19.967 44.994-44.509 44.994v-2.098c23.395 0 42.432-19.241 42.432-42.896 0-23.653-19.037-42.894-42.432-42.894-23.255 0-42.18 19.011-42.41 42.47h1.507"/></g></g></svg>