<svg width="86" height="87" viewBox="0 0 86 87" fill="none" xmlns="http://www.w3.org/2000/svg">
<path d="M24.5574 32.5472C22.9026 30.8666 20.7023 29.9409 18.362 29.9409C16.0218 29.9409 13.8215 30.8666 12.1666 32.5474C8.75061 36.0172 8.75061 41.6628 12.1666 45.1325C13.8215 46.8132 16.0218 47.7389 18.362 47.7389C20.7023 47.7389 22.9027 46.8132 24.5574 45.1325C27.9736 41.6628 27.9736 36.0172 24.5574 32.5472ZM22.7874 43.3344C21.6053 44.535 20.0338 45.1961 18.362 45.1961C16.6903 45.1961 15.1187 44.535 13.9367 43.3344C11.4968 40.8562 11.4968 36.8235 13.9367 34.3452C15.1187 33.1446 16.6903 32.4835 18.362 32.4835C20.0338 32.4835 21.6053 33.1446 22.7874 34.345C25.2275 36.8235 25.2275 40.8562 22.7874 43.3344Z" fill="#FF8A00"/>
<path d="M74.6159 61.36H70.4958L63.4259 40.9522C63.4174 40.9274 63.408 40.903 63.398 40.8789C62.7999 39.4422 61.3985 38.477 59.9109 38.477C58.3194 38.477 56.8957 39.501 56.368 41.0252L52.8318 51.2365C51.4325 48.2078 48.4024 46.1046 44.8964 46.1046H37.9048L36.6196 44.7992C39.1523 41.8061 40.534 38.0341 40.534 34.0462C40.534 29.6316 38.8414 25.4815 35.7682 22.36C35.2793 21.8637 34.4868 21.8637 33.9981 22.36C33.5093 22.8567 33.5093 23.6615 33.9981 24.158C36.5986 26.799 38.0308 30.3108 38.0308 34.0462C38.0308 37.418 36.8604 40.6052 34.7206 43.1367C34.0542 42.7665 33.3037 42.5692 32.523 42.5692C31.2972 42.5692 30.1447 43.054 29.2779 43.9344L23.3775 49.9271C22.5105 50.8077 22.0331 51.9784 22.0331 53.2235C22.0331 54.4686 22.5105 55.6392 23.3774 56.5195L26.7397 59.9345C28.9306 62.1596 33.0736 63.9026 36.1717 63.9026H44.8964C48.7646 63.9026 52.053 61.3424 53.2112 57.8036L58.7295 41.8687C58.9054 41.3608 59.3802 41.0194 59.9109 41.0194C60.4416 41.0194 60.895 41.4271 61.0796 41.8395L68.4285 63.0532C68.6048 63.5621 69.0781 63.9026 69.6093 63.9026H74.6159C75.3072 63.9026 75.8676 63.3336 75.8676 62.6313C75.8676 61.929 75.3072 61.36 74.6159 61.36ZM43.6448 61.3602H36.1717C33.739 61.3602 30.2301 59.884 28.5099 58.1365L25.1474 54.7215C24.7535 54.3215 24.5364 53.7894 24.5364 53.2235C24.5364 52.6575 24.7535 52.1254 25.1476 51.7252L31.0479 45.7325C31.4419 45.3323 31.9658 45.112 32.523 45.112C33.0803 45.112 33.6043 45.3323 33.9981 45.7325L36.5015 48.2751C36.7361 48.5134 37.0545 48.6473 37.3865 48.6473H43.6448V61.3602ZM50.8617 56.9254L50.7966 57.1136C50.7903 57.1319 50.7859 57.1505 50.7804 57.169C50.0451 59.2239 48.2948 60.7879 46.1481 61.2324V48.7753C49.0012 49.3659 51.1548 51.934 51.1548 55.0038C51.1548 55.6733 51.0516 56.3188 50.8617 56.9254Z" fill="#FF8A00"/>
<path d="M79.1885 66.446H29.6103L7.44672 43.9354C5.98278 42.4486 3.60062 42.4486 2.13634 43.9354C1.42706 44.6558 1.03654 45.6135 1.03654 46.6322C1.03654 47.6509 1.42723 48.6086 2.13634 49.329L12.3644 59.7173L0.366654 71.9034C0.334611 71.9368 0.30841 71.9659 0.28371 71.9966C0.271861 72.0114 0.261514 72.0268 0.250332 72.042C0.236981 72.0602 0.22313 72.0778 0.21078 72.0966C0.198931 72.1148 0.188584 72.1334 0.177569 72.152C0.167556 72.169 0.157042 72.1858 0.147863 72.2032C0.13785 72.2222 0.129338 72.2417 0.120326 72.2612C0.111815 72.2793 0.10297 72.2973 0.0952932 72.316C0.0876164 72.3349 0.0814415 72.3543 0.0745991 72.3734C0.0675898 72.3933 0.0600798 72.4129 0.0539049 72.4333C0.0480638 72.4527 0.0438916 72.4724 0.0390519 72.4921C0.0340452 72.5126 0.028371 72.5329 0.0241988 72.5538C0.0196928 72.5767 0.0170226 72.5999 0.0138517 72.6231C0.0113484 72.6411 0.00801064 72.6587 0.00617487 72.6768C0.00216955 72.7187 0 72.7607 0 72.8029V85.5153C0 86.2176 0.560411 86.7866 1.25166 86.7866C1.94291 86.7866 2.50332 86.2176 2.50332 85.5153V79.1589H82.9435V85.5153C82.9435 86.2176 83.5039 86.7866 84.1951 86.7866C84.8864 86.7866 85.4468 86.2176 85.4468 85.5153V72.8024C85.4468 69.2974 82.6394 66.446 79.1885 66.446ZM3.90652 47.5311C3.67004 47.2911 3.53987 46.9717 3.53987 46.6322C3.53987 46.2927 3.67004 45.9733 3.90652 45.7333C4.39467 45.2375 5.18872 45.2377 5.67671 45.7333L28.207 68.6162C28.4418 68.8545 28.76 68.9884 29.092 68.9884H79.1885C80.8202 68.9884 82.2115 70.0514 82.7282 71.531H27.5366L15.024 58.8225C15.0154 58.814 3.90652 47.5311 3.90652 47.5311ZM14.1348 61.5153L23.9962 71.5311H4.27351L14.1348 61.5153ZM82.9435 76.6163H2.50332V74.0737H82.9435V76.6163Z" fill="#FF8A00"/>
<path d="M84.1952 12.7129H80.3494C80.1365 11.2075 79.5525 9.82235 78.6931 8.65767L81.4142 5.89371C81.903 5.39706 81.903 4.59225 81.4142 4.09577C80.9253 3.59945 80.1328 3.59945 79.6441 4.09577L76.9229 6.85973C75.7762 5.98677 74.4124 5.39367 72.9302 5.17738V1.27129C72.9302 0.569031 72.3698 0 71.6786 0C70.9873 0 70.4269 0.569031 70.4269 1.27129V5.17738C68.9448 5.39367 67.581 5.98677 66.4343 6.85973L63.713 4.09577C63.2242 3.59945 62.4316 3.59945 61.943 4.09577C61.4542 4.59242 61.4542 5.39723 61.943 5.89371L64.6641 8.65767C63.8046 9.82235 63.2208 11.2075 63.0077 12.7129H59.1619C58.4707 12.7129 57.9103 13.282 57.9103 13.9842C57.9103 14.6865 58.4707 15.2555 59.1619 15.2555H63.0077C63.2207 16.7609 63.8046 18.1461 64.6641 19.3108L61.943 22.0747C61.4542 22.5714 61.4542 23.3762 61.943 23.8727C62.1873 24.1208 62.5077 24.2449 62.828 24.2449C63.1482 24.2449 63.4687 24.1208 63.713 23.8727L66.4343 21.1087C67.581 21.9817 68.9448 22.5748 70.4269 22.7911V26.6972C70.4269 27.3994 70.9873 27.9684 71.6786 27.9684C72.3698 27.9684 72.9302 27.3994 72.9302 26.6972V22.7911C74.4124 22.5748 75.7762 21.9817 76.9229 21.1087L79.6441 23.8727C80.133 24.369 80.9255 24.369 81.4142 23.8727C81.903 23.376 81.903 22.5712 81.4142 22.0747L78.6931 19.3108C79.5525 18.1461 80.1363 16.7609 80.3494 15.2555H84.1952C84.8864 15.2555 85.4469 14.6865 85.4469 13.9842C85.4469 13.282 84.8864 12.7129 84.1952 12.7129ZM71.6786 20.3407C68.2276 20.3407 65.4203 17.4893 65.4203 13.9842C65.4203 10.4792 68.2276 7.62776 71.6786 7.62776C75.1295 7.62776 77.9369 10.4792 77.9369 13.9842C77.9369 17.4893 75.1295 20.3407 71.6786 20.3407Z" fill="#FF8A00"/>
</svg>
