<svg xmlns="http://www.w3.org/2000/svg" width="15" height="20" viewBox="0 0 15 20"><g><g><path fill="#e74e0a" d="M14.963 15.324c-.204 1.776-1.244 3.336-3.093 4.638H9.05c.943-.95 1.261-1.98.918-2.982-.383-1.115-1.512-2.015-2.603-2.426.162.425.215.818.162 1.19-.086.608-.447 1.147-1.105 1.648-.438.333-.656.692-.648 1.065.017.8.999 1.498 1.009 1.504l.054.001H4.257a7.354 7.354 0 0 1-2.15-1.102C.71 17.815 0 16.357 0 14.526c0-2.36 1.554-3.835 3.057-5.264 1.141-1.084 2.32-2.204 2.767-3.684.704-2.332.03-4.443-.488-5.578.371.179.828.43 1.31.762 1.547 1.067 2.605 2.433 3.145 4.06.684 2.062-.03 3.122-.659 4.057-.555.824-1.129 1.677-.293 2.902.51.748 1.532.975 2.543.564a3.022 3.022 0 0 0 1.879-2.604c.811 1.187 1.962 3.319 1.702 5.583zm-5.914 4.638L9.012 20l-2.176-.038z"/></g></g></svg>