<svg width="182" height="49" viewBox="0 0 182 49" fill="none" xmlns="http://www.w3.org/2000/svg">
<path d="M67.8889 5.19743H62.1179V13.8312H63.5493V6.51522H67.8889V5.19743Z" fill="white"/>
<path d="M68.7068 10.8548H73.9552C74.0007 10.6958 74.0007 10.5822 74.0007 10.4231C74.0007 8.2874 72.7056 6.90146 70.7062 6.90146C68.7068 6.90146 67.3436 8.33285 67.3436 10.4231C67.3436 12.4452 68.5705 13.9448 70.8198 13.9448C72.2512 13.9448 73.2055 13.3995 73.7735 12.7179L72.8419 11.8999C72.4557 12.3998 71.8195 12.786 70.8198 12.786C69.6156 12.786 68.8659 12.0363 68.7068 10.8548ZM70.7062 8.03748C71.7286 8.03748 72.433 8.69637 72.6147 9.80967H68.7295C68.934 8.71909 69.6384 8.03748 70.7062 8.03748Z" fill="white"/>
<path d="M80.2715 7.01506V9.74151H76.9543V7.01506H75.5911V13.8312H76.9543V10.9684H80.2715V13.8312H81.6347V7.01506H80.2715Z" fill="white"/>
<path d="M84.6338 10.8548H89.8822C89.9277 10.6958 89.9277 10.5822 89.9277 10.4231C89.9277 8.2874 88.6326 6.90146 86.6332 6.90146C84.6338 6.90146 83.2706 8.33285 83.2706 10.4231C83.2706 12.4452 84.4975 13.9448 86.7468 13.9448C88.1782 13.9448 89.1324 13.3995 89.7004 12.7179L88.7689 11.8999C88.3827 12.3998 87.7465 12.786 86.7468 12.786C85.5426 12.786 84.7928 12.0363 84.6338 10.8548ZM86.6332 8.03748C87.6556 8.03748 88.3599 8.69637 88.5417 9.80967H84.6565C84.861 8.71909 85.5653 8.03748 86.6332 8.03748Z" fill="white"/>
<path d="M95.1306 6.90146C94.1536 6.90146 93.3357 7.33315 92.7904 8.08292L92.6995 7.01506H91.5181V16.1032H92.8813V12.9224C93.4039 13.5813 94.1991 13.9448 95.1306 13.9448C96.8801 13.9448 98.107 12.5134 98.107 10.4231C98.107 8.2874 96.9255 6.90146 95.1306 6.90146ZM94.7671 12.786C93.5629 12.786 92.7904 11.8545 92.7904 10.4231C92.7904 8.99174 93.5629 8.0602 94.7671 8.0602C95.9713 8.0602 96.721 8.99174 96.721 10.4231C96.721 11.8545 95.9713 12.786 94.7671 12.786Z" fill="white"/>
<path d="M105.15 12.6497C104.855 12.6497 104.719 12.5134 104.719 12.218V9.15078C104.719 7.74212 103.719 6.90146 102.083 6.90146C100.902 6.90146 99.9246 7.31043 99.1294 8.0602L99.9701 8.9463C100.515 8.37829 101.242 8.03748 102.015 8.03748C102.878 8.03748 103.446 8.40101 103.446 8.9463C103.446 9.46886 102.946 9.55975 101.924 9.69607C100.606 9.90055 98.9931 10.2641 98.9931 11.9454C98.9931 13.1268 99.8792 13.9448 101.22 13.9448C102.219 13.9448 103.128 13.4904 103.605 12.786C103.696 13.5813 104.082 13.8766 104.923 13.8766C105.15 13.8766 105.332 13.8539 105.4 13.8312V12.6497H105.15ZM101.447 12.8315C100.743 12.8315 100.334 12.4907 100.334 11.8545C100.334 10.9684 101.22 10.8321 102.083 10.6958C102.742 10.5822 103.151 10.514 103.401 10.355V11.2411C103.401 12.1044 102.492 12.8315 101.447 12.8315Z" fill="white"/>
<path d="M112.807 7.01506H107.286V10.5367C107.286 12.4225 107.104 12.5816 106.514 12.5816H106.15V13.8312C106.309 13.8539 106.536 13.8766 106.786 13.8766C108.104 13.8766 108.627 13.1496 108.627 10.673V8.21924H111.444V13.8312H112.807V7.01506Z" fill="white"/>
<path d="M118.169 9.58247H116.306V7.01506H114.943V13.8312H118.169C119.669 13.8312 120.623 12.9905 120.623 11.6955C120.623 10.4004 119.691 9.58247 118.169 9.58247ZM118.033 12.6952H116.306V10.6958H118.033C118.828 10.6958 119.237 11.0593 119.237 11.6955C119.237 12.3316 118.828 12.6952 118.033 12.6952Z" fill="white"/>
<path d="M126.803 7.01506V9.74151H123.486V7.01506H122.122V13.8312H123.486V10.9684H126.803V13.8312H128.166V7.01506H126.803Z" fill="white"/>
<path d="M134.959 7.01506L131.642 11.9227V7.01506H130.302V13.8312H131.71L135.028 8.87813V13.8312H136.368V7.01506H134.959Z" fill="white"/>
<path d="M141.526 6.37889C142.707 6.37889 143.48 5.78816 143.593 4.76575L142.525 4.58398C142.457 5.15199 142.094 5.47008 141.526 5.47008C140.958 5.47008 140.594 5.15199 140.526 4.58398L139.458 4.76575C139.572 5.78816 140.344 6.37889 141.526 6.37889ZM143.161 7.01506L139.844 11.9227V7.01506H138.504V13.8312H139.912L143.23 8.87813V13.8312H144.57V7.01506H143.161Z" fill="white"/>
<path d="M158.248 7.01506V12.627H155.658V7.01506H154.294V12.627H151.704V7.01506H150.341V13.8312H159.611V7.01506H158.248Z" fill="white"/>
<path d="M167.177 7.01506H160.906V8.21924H163.36V13.8312H164.723V8.21924H167.177V7.01506Z" fill="white"/>
<path d="M173.834 12.6497C173.539 12.6497 173.402 12.5134 173.402 12.218V9.15078C173.402 7.74212 172.403 6.90146 170.767 6.90146C169.585 6.90146 168.608 7.31043 167.813 8.0602L168.654 8.9463C169.199 8.37829 169.926 8.03748 170.699 8.03748C171.562 8.03748 172.13 8.40101 172.13 8.9463C172.13 9.46886 171.63 9.55975 170.608 9.69607C169.29 9.90055 167.677 10.2641 167.677 11.9454C167.677 13.1268 168.563 13.9448 169.903 13.9448C170.903 13.9448 171.812 13.4904 172.289 12.786C172.38 13.5813 172.766 13.8766 173.607 13.8766C173.834 13.8766 174.016 13.8539 174.084 13.8312V12.6497H173.834ZM170.131 12.8315C169.426 12.8315 169.017 12.4907 169.017 11.8545C169.017 10.9684 169.903 10.8321 170.767 10.6958C171.426 10.5822 171.835 10.514 172.085 10.355V11.2411C172.085 12.1044 171.176 12.8315 170.131 12.8315Z" fill="white"/>
<path d="M181.763 10.7866C181.741 8.99174 180.514 7.7194 178.832 7.7194C177.719 7.7194 176.856 8.12836 176.356 8.83269C176.47 7.7194 177.038 7.10595 178.242 6.85602L180.218 6.44705C181.014 6.26529 181.468 5.81088 181.536 5.03839L181.559 4.81119L180.264 4.58398L180.218 4.78847C180.173 5.06111 180.037 5.19743 179.787 5.24288L178.174 5.58368C176.083 6.01537 175.129 7.40131 175.129 10.0369C175.129 12.4225 176.424 13.9448 178.469 13.9448C180.423 13.9448 181.786 12.627 181.763 10.7866ZM178.469 12.786C177.333 12.786 176.56 11.9454 176.56 10.7412C176.56 9.53702 177.31 8.78725 178.469 8.78725C179.628 8.78725 180.355 9.55975 180.355 10.8094C180.355 12.0135 179.628 12.786 178.469 12.786Z" fill="white"/>
<path d="M66.7074 24.378C67.4799 24.0372 67.9116 23.3783 67.9116 22.5376C67.9116 21.0381 66.6847 20.0838 64.7989 20.0838C63.1631 20.0838 61.8226 20.9472 61.2773 22.3104L62.5723 22.8103C62.9359 21.9015 63.6629 21.3335 64.7762 21.3335C65.8668 21.3335 66.4802 21.856 66.4802 22.674C66.4802 23.401 65.8668 23.81 65.0488 23.81H63.8901V25.0142H65.0261C66.1167 25.0142 66.7756 25.4913 66.7756 26.2638C66.7756 27.1499 66.0031 27.6952 64.7989 27.6952C63.6629 27.6952 62.7995 27.1044 62.4133 26.1729L61.2091 26.8091C61.7544 28.1041 63.0495 28.9448 64.7762 28.9448C66.8438 28.9448 68.207 27.9224 68.207 26.3774C68.207 25.4004 67.6617 24.7188 66.7074 24.378Z" fill="white"/>
<path d="M76.0228 25.7866C76.0001 23.9917 74.7732 22.7194 73.0919 22.7194C71.9786 22.7194 71.1152 23.1284 70.6153 23.8327C70.7289 22.7194 71.297 22.1059 72.5011 21.856L74.4778 21.4471C75.273 21.2653 75.7274 20.8109 75.7956 20.0384L75.8183 19.8112L74.5232 19.584L74.4778 19.7885C74.4324 20.0611 74.296 20.1974 74.0461 20.2429L72.433 20.5837C70.3427 21.0154 69.3884 22.4013 69.3884 25.0369C69.3884 27.4225 70.6835 28.9448 72.7283 28.9448C74.6823 28.9448 76.0455 27.627 76.0228 25.7866ZM72.7283 27.786C71.5923 27.786 70.8198 26.9454 70.8198 25.7412C70.8198 24.537 71.5696 23.7873 72.7283 23.7873C73.8871 23.7873 74.6141 24.5597 74.6141 25.8094C74.6141 27.0135 73.8871 27.786 72.7283 27.786Z" fill="white"/>
<path d="M81.203 21.9015C80.2261 21.9015 79.4081 22.3331 78.8628 23.0829L78.772 22.0151H77.5905V31.1032H78.9537V27.9224C79.4763 28.5813 80.2715 28.9448 81.203 28.9448C82.9525 28.9448 84.1794 27.5134 84.1794 25.4231C84.1794 23.2874 82.9979 21.9015 81.203 21.9015ZM80.8395 27.786C79.6353 27.786 78.8628 26.8545 78.8628 25.4231C78.8628 23.9917 79.6353 23.0602 80.8395 23.0602C82.0437 23.0602 82.7935 23.9917 82.7935 25.4231C82.7935 26.8545 82.0437 27.786 80.8395 27.786Z" fill="white"/>
<path d="M88.7689 28.9448C90.8137 28.9448 92.2224 27.5134 92.2224 25.4231C92.2224 23.2874 90.8592 21.9015 88.7689 21.9015C86.7241 21.9015 85.3154 23.3328 85.3154 25.4231C85.3154 27.5588 86.6786 28.9448 88.7689 28.9448ZM88.7689 27.786C87.5193 27.786 86.7014 26.8545 86.7014 25.4231C86.7014 23.9917 87.5193 23.0602 88.7689 23.0602C90.0185 23.0602 90.8365 23.9917 90.8365 25.4231C90.8365 26.8545 90.0185 27.786 88.7689 27.786Z" fill="white"/>
<path d="M96.8801 21.3789C98.0615 21.3789 98.834 20.7882 98.9476 19.7657L97.8798 19.584C97.8116 20.152 97.4481 20.4701 96.8801 20.4701C96.3121 20.4701 95.9486 20.152 95.8804 19.584L94.8125 19.7657C94.9261 20.7882 95.6986 21.3789 96.8801 21.3789ZM98.516 22.0151L95.1988 26.9227V22.0151H93.8583V28.8312H95.2669L98.5841 23.8781V28.8312H99.9246V22.0151H98.516Z" fill="white"/>
<path d="M106.741 22.0151V24.7415H103.424V22.0151H102.06V28.8312H103.424V25.9684H106.741V28.8312H108.104V22.0151H106.741Z" fill="white"/>
<path d="M114.897 22.0151L111.58 26.9227V22.0151H110.24V28.8312H111.648L114.965 23.8781V28.8312H116.306V22.0151H114.897Z" fill="white"/>
<path d="M124.599 28.8312L122.009 25.355L124.485 22.0151H122.94L121.168 24.4234L119.419 22.0151H117.806L120.282 25.355L117.669 28.8312H119.26L121.123 26.2865L122.963 28.8312H124.599Z" fill="white"/>
<path d="M132.506 28.9448C133.96 28.9448 135.164 28.195 135.55 26.8999L134.255 26.491C133.96 27.2862 133.324 27.786 132.506 27.786C131.256 27.786 130.484 26.8545 130.484 25.4231C130.484 23.9917 131.256 23.0602 132.506 23.0602C133.346 23.0602 133.96 23.56 134.255 24.3553L135.55 23.9463C135.164 22.6512 133.982 21.9015 132.506 21.9015C130.484 21.9015 129.098 23.3328 129.098 25.4231C129.098 27.5134 130.484 28.9448 132.506 28.9448Z" fill="white"/>
<path d="M141.662 22.0151L138.345 26.9227V22.0151H137.004V28.8312H138.413L141.73 23.8781V28.8312H143.071V22.0151H141.662Z" fill="white"/>
<path d="M151.091 22.0151H145.57V25.5367C145.57 27.4225 145.388 27.5816 144.797 27.5816H144.434V28.8312C144.593 28.8539 144.82 28.8766 145.07 28.8766C146.388 28.8766 146.91 28.1496 146.91 25.673V23.2192H149.728V28.8312H151.091V22.0151Z" fill="white"/>
<path d="M67.5935 36.1974L65.9122 41.0823H65.2079L62.6405 36.1974H61.0273L63.7311 41.0823H62.7995C62.2542 41.4913 61.9589 42.1274 61.9589 42.8545C61.9589 44.1041 62.8223 44.9448 64.1173 44.9448C65.3215 44.9448 66.1849 44.195 66.7074 42.7636L69.1158 36.1974H67.5935ZM64.1628 43.7406C63.6175 43.7406 63.2767 43.3771 63.2767 42.8318C63.2767 42.5819 63.3675 42.3547 63.5266 42.1729H65.526L65.3442 42.6955C65.0716 43.3998 64.7308 43.7406 64.1628 43.7406Z" fill="white"/>
<path d="M76.25 43.627C76.0455 43.627 75.9092 43.4907 75.9092 43.2862V40.7869H74.6596L76.3863 38.0151H74.9322L73.3191 40.7188H71.9331V35.743H70.5699V44.8312H71.9331V41.9684H74.5687V43.5816C74.5687 44.3995 75.0458 44.8312 75.8865 44.8312H76.4999V43.627H76.25Z" fill="white"/>
<path d="M81.7029 37.9015C80.7259 37.9015 79.908 38.3331 79.3627 39.0829L79.2718 38.0151H78.0903V47.1032H79.4536V43.9224C79.9761 44.5813 80.7713 44.9448 81.7029 44.9448C83.4523 44.9448 84.6792 43.5134 84.6792 41.4231C84.6792 39.2874 83.4978 37.9015 81.7029 37.9015ZM81.3394 43.786C80.1352 43.786 79.3627 42.8545 79.3627 41.4231C79.3627 39.9917 80.1352 39.0602 81.3394 39.0602C82.5435 39.0602 83.2933 39.9917 83.2933 41.4231C83.2933 42.8545 82.5435 43.786 81.3394 43.786Z" fill="white"/>
<path d="M91.7226 43.6497C91.4272 43.6497 91.2909 43.5134 91.2909 43.218V40.1508C91.2909 38.7421 90.2912 37.9015 88.6553 37.9015C87.4739 37.9015 86.4969 38.3104 85.7017 39.0602L86.5423 39.9463C87.0876 39.3783 87.8147 39.0375 88.5872 39.0375C89.4505 39.0375 90.0185 39.401 90.0185 39.9463C90.0185 40.4689 89.5187 40.5597 88.4963 40.6961C87.1785 40.9005 85.5653 41.2641 85.5653 42.9454C85.5653 44.1268 86.4514 44.9448 87.7919 44.9448C88.7916 44.9448 89.7005 44.4904 90.1776 43.786C90.2685 44.5813 90.6547 44.8766 91.4954 44.8766C91.7226 44.8766 91.9043 44.8539 91.9725 44.8312V43.6497H91.7226ZM88.0191 43.8315C87.3148 43.8315 86.9058 43.4907 86.9058 42.8545C86.9058 41.9684 87.7919 41.8321 88.6553 41.6958C89.3142 41.5822 89.7232 41.514 89.9731 41.355V42.2411C89.9731 43.1044 89.0643 43.8315 88.0191 43.8315Z" fill="white"/>
<path d="M92.3815 37.0608H93.8583V35.6976H92.3815V37.0608ZM94.7216 37.0608H96.1985V35.6976H94.7216V37.0608ZM93.6084 44.8312H94.9716V38.0151H93.6084V44.8312Z" fill="white"/>
<path d="M101.901 38.0151V40.7415H98.5841V38.0151H97.2209V44.8312H98.5841V41.9684H101.901V44.8312H103.265V38.0151H101.901Z" fill="white"/>
<path d="M110.058 38.0151L106.741 42.9227V38.0151H105.4V44.8312H106.809L110.126 39.8781V44.8312H111.467V38.0151H110.058Z" fill="white"/>
<g clip-path="url(#clip0_616_121)">
<path d="M13.8438 14.8701L15.0351 13.6788L34.407 33.0507L33.2156 34.2421L13.8438 14.8701Z" fill="black" stroke="white" stroke-width="0.290821"/>
<path d="M14.8599 9.11832C15.226 9.48444 15.5164 9.91908 15.7145 10.3974C15.9127 10.8758 16.0146 11.3885 16.0146 11.9063C16.0146 12.424 15.9127 12.9367 15.7145 13.4151C15.5164 13.8934 15.226 14.3281 14.8599 14.6942C14.4937 15.0603 14.0591 15.3507 13.5807 15.5489C13.1024 15.747 12.5897 15.849 12.0719 15.849C11.5542 15.849 11.0415 15.747 10.5631 15.5489C10.0848 15.3507 9.65013 15.0603 9.28401 14.6942C8.54461 13.9548 8.12922 12.9519 8.12922 11.9063C8.12922 10.8606 8.54461 9.85773 9.28401 9.11832C10.0234 8.37892 11.0263 7.96353 12.0719 7.96353C13.1176 7.96353 14.1204 8.37892 14.8599 9.11832Z" fill="black" stroke="white" stroke-width="0.290821" stroke-linecap="round" stroke-linejoin="round"/>
<path d="M39.6801 40.0289C39.6828 40.032 39.6857 40.0351 39.6885 40.0381C39.7229 40.0725 39.7635 40.0998 39.8082 40.1185C39.8529 40.1373 39.9008 40.1471 39.9491 40.1473C39.9973 40.1476 40.0451 40.1384 40.0896 40.1202C40.1341 40.1019 40.1745 40.0751 40.2084 40.0412C40.2424 40.0072 40.2692 39.9668 40.2874 39.9223C40.3057 39.8778 40.3149 39.8301 40.3146 39.7818C40.3143 39.7335 40.3045 39.6857 40.2858 39.641C40.2671 39.5963 40.2398 39.5556 40.2054 39.5213C40.2024 39.5184 40.1993 39.5156 40.1962 39.5128L39.6801 40.0289Z" fill="black" stroke="white" stroke-width="0.290821" stroke-linecap="round" stroke-linejoin="round"/>
<path d="M39.0832 40.035C39.096 40.0802 39.1178 40.1186 39.148 40.149C39.2309 40.2319 39.3717 40.2501 39.5394 40.1995C39.7071 40.149 39.8881 40.034 40.0424 39.8796C40.1967 39.7253 40.3118 39.5444 40.3623 39.3767C40.4128 39.2089 40.3946 39.0681 40.3117 38.9852C40.2813 38.9551 40.2428 38.9333 40.1975 38.9206L39.0832 40.035Z" fill="black" stroke="white" stroke-width="0.290821" stroke-linecap="round" stroke-linejoin="round"/>
<path d="M33.2152 34.2419L34.4065 33.0505L40.1248 38.5886L38.7532 39.9602L33.2152 34.2419Z" fill="black" stroke="white" stroke-width="0.290821"/>
<path d="M32.9313 33.9308C32.9313 33.9308 33.3308 33.6133 33.5552 33.389C33.7796 33.1646 34.097 32.7651 34.097 32.7651C34.1961 32.6404 34.3653 32.6266 34.478 32.7393C34.5907 32.852 34.5907 33.0334 34.478 33.1461C34.478 33.1461 34.1626 33.5253 33.927 33.7608C33.6915 33.9964 33.3123 34.3118 33.3123 34.3118C33.1936 34.4181 33.0182 34.4245 32.9055 34.3118C32.7929 34.1991 32.8187 34.0435 32.9313 33.9308Z" fill="black" stroke="white" stroke-width="0.290821"/>
<path d="M38.7673 39.7667C38.7673 39.7667 39.1667 39.4493 39.3911 39.2249C39.6155 39.0005 39.9329 38.6011 39.9329 38.6011C40.0321 38.4763 40.2013 38.4626 40.3139 38.5753C40.4266 38.6879 40.4266 38.8694 40.3139 38.982C40.3139 38.982 39.9985 39.3612 39.763 39.5968C39.5274 39.8323 39.1482 40.1477 39.1482 40.1477C39.0296 40.2541 38.8542 40.2604 38.7415 40.1477C38.6288 40.0351 38.6546 39.8794 38.7673 39.7667Z" fill="black" stroke="white" stroke-width="0.290821"/>
<path d="M14.3619 8.69721C14.1594 8.99224 13.9154 9.06485 13.6894 9.00719C13.7012 9.58857 13.3173 9.94076 12.7818 9.8907C12.814 10.4447 12.402 10.8142 11.8548 10.7126C11.8548 10.7126 11.9477 11.1005 11.607 11.4412C11.2663 11.7818 10.8784 11.689 10.8784 11.689C10.98 12.2362 10.6105 12.6482 10.0565 12.616C10.1066 13.1515 9.75438 13.5354 9.17301 13.5236C9.23067 13.7496 9.15807 13.9936 8.86304 14.196" stroke="white" stroke-width="0.290821" stroke-linecap="round" stroke-linejoin="round"/>
<path d="M15.2788 9.61611C14.9838 9.81857 14.9112 10.0626 14.9688 10.2886C14.3874 10.2767 14.0353 10.6606 14.0853 11.1961C13.5313 11.1639 13.1618 11.5759 13.2634 12.1232C13.2634 12.1232 12.8755 12.0303 12.5348 12.371C12.1942 12.7116 12.2871 13.0996 12.2871 13.0996C11.7398 12.9979 11.3278 13.3675 11.36 13.9215C10.8245 13.8714 10.4406 14.2236 10.4524 14.805C10.2264 14.7473 9.98245 14.8199 9.77998 15.1149" stroke="white" stroke-width="0.290821" stroke-linecap="round" stroke-linejoin="round"/>
<path d="M9.17239 13.524C8.5459 12.4208 7.90517 10.7207 9.28556 9.12068C8.45008 10.0213 9.32434 11.7846 10.0559 12.6164" stroke="white" stroke-width="0.290821" stroke-linecap="round" stroke-linejoin="round"/>
<path d="M9.28508 9.12019C9.05999 9.77112 10.405 11.1506 10.8773 11.6888" stroke="white" stroke-width="0.290821" stroke-linecap="round" stroke-linejoin="round"/>
<path d="M9.28516 9.12109C9.93608 8.89601 11.3156 10.2411 11.8538 10.7133" stroke="white" stroke-width="0.290821" stroke-linecap="round" stroke-linejoin="round"/>
<path d="M13.6884 9.00792C12.5853 8.38143 10.8852 7.7407 9.28516 9.12109C10.1858 8.28562 11.9491 9.15987 12.7809 9.89143" stroke="white" stroke-width="0.290821" stroke-linecap="round" stroke-linejoin="round"/>
<path d="M10.4531 14.8047C11.5563 15.4312 13.2564 16.0719 14.8564 14.6915C13.9558 15.527 12.1924 14.6527 11.3607 13.9212" stroke="white" stroke-width="0.290821" stroke-linecap="round" stroke-linejoin="round"/>
<path d="M14.8577 14.6918C14.2068 14.9169 12.8273 13.5719 12.2891 13.0996" stroke="white" stroke-width="0.290821" stroke-linecap="round" stroke-linejoin="round"/>
<path d="M14.8539 14.6927C15.079 14.0418 13.7339 12.6623 13.2616 12.1241" stroke="white" stroke-width="0.290821" stroke-linecap="round" stroke-linejoin="round"/>
<path d="M14.9652 10.2887C15.5917 11.3918 16.2325 13.0919 14.8521 14.6919C15.6875 13.7913 14.8133 12.028 14.0817 11.1962" stroke="white" stroke-width="0.290821" stroke-linecap="round" stroke-linejoin="round"/>
<path fill-rule="evenodd" clip-rule="evenodd" d="M8.91583 8.93793C8.88289 8.96682 8.85149 8.99937 8.82399 9.03654C8.76567 9.11535 8.72284 9.2118 8.71224 9.33086C8.7025 9.44018 8.68498 9.54655 8.63467 9.64283C8.57931 9.74878 8.57912 9.87294 8.57025 9.99574C8.57006 9.99806 8.56955 10.0003 8.56874 10.0025C8.56063 10.0249 8.57178 10.0489 8.59409 10.0572C8.59467 10.0573 8.59496 10.0576 8.59544 10.0577C8.59583 10.0579 8.59621 10.058 8.59659 10.0581C8.59707 10.0582 8.59784 10.0584 8.59813 10.0585C8.59858 10.0586 8.59903 10.0586 8.59948 10.0587C8.60005 10.0589 8.60141 10.0591 8.60323 10.0594C8.60371 10.0595 8.60317 10.0593 8.60438 10.0594L8.60457 10.0596C8.60611 10.0598 8.60674 10.0597 8.60739 10.0598C8.61838 10.0604 8.6291 10.0568 8.63744 10.0497C8.63867 10.0486 8.63999 10.0477 8.6414 10.0469C8.65673 10.0381 9.04751 9.81393 9.51251 9.34893C9.97615 8.88529 10.2001 8.49629 10.2101 8.47895C10.2101 8.47895 10.2129 8.47501 10.2136 8.47386C10.22 8.46613 10.2235 8.45682 10.2236 8.447L10.2238 8.44681C10.2238 8.44604 10.2238 8.44527 10.2238 8.44455L10.2236 8.4436C10.2236 8.44321 10.2236 8.44283 10.2236 8.44244L10.2234 8.44225L10.2234 8.44186C10.2233 8.44142 10.2232 8.44097 10.2232 8.44052C10.2229 8.43801 10.2225 8.43562 10.2219 8.4332L10.2217 8.43301C10.2214 8.43195 10.221 8.43103 10.2208 8.43017C10.2206 8.42992 10.2205 8.42966 10.2204 8.4294C10.2116 8.40784 10.188 8.39717 10.1661 8.40517C10.1639 8.40599 10.1617 8.40649 10.1593 8.40669C10.0365 8.41555 9.91239 8.41574 9.80643 8.47111C9.71014 8.52142 9.60395 8.53876 9.49465 8.54849C9.26301 8.56911 9.11715 8.7125 9.02548 8.85389C9.02353 8.85689 9.02098 8.85945 9.01797 8.8614C8.98342 8.88379 8.94893 8.90896 8.91598 8.93784L8.91583 8.93793Z" fill="black"/>
<path d="M10.1784 8.44594C10.0491 8.45625 9.92175 8.45792 9.82449 8.50874C9.72046 8.5631 9.60803 8.58091 9.49682 8.59081C9.27438 8.61061 9.13675 8.74872 9.04985 8.88743C8.91114 8.97433 8.77303 9.11196 8.75323 9.3344C8.74333 9.44561 8.72552 9.55804 8.67116 9.66207C8.62034 9.75933 8.61867 9.88666 8.60836 10.016M8.60819 10.0164C8.60819 10.0164 9.00992 9.78896 9.48065 9.31823C9.95138 8.8475 10.1788 8.44577 10.1788 8.44577" stroke="white" stroke-width="0.290821" stroke-linecap="round" stroke-linejoin="round"/>
<path d="M9.05258 8.32817C9.08926 8.36485 9.11835 8.40838 9.13819 8.45629C9.15804 8.50421 9.16826 8.55557 9.16826 8.60743C9.16826 8.65929 9.15804 8.71064 9.13819 8.75855C9.11835 8.80647 9.08926 8.85 9.05259 8.88668C9.01592 8.92335 8.97238 8.95243 8.92447 8.97228C8.87655 8.99213 8.8252 9.00234 8.77334 9.00234C8.72148 9.00234 8.67012 8.99212 8.62221 8.97228C8.5743 8.95243 8.53076 8.92334 8.49409 8.88667C8.42003 8.81261 8.37842 8.71216 8.37842 8.60742C8.37842 8.50268 8.42003 8.40224 8.49409 8.32817C8.56815 8.25411 8.6686 8.21251 8.77334 8.21251C8.87808 8.21251 8.97852 8.25411 9.05258 8.32817Z" fill="black" stroke="white" stroke-width="0.290821" stroke-linecap="round" stroke-linejoin="round"/>
<path d="M33.4883 13.6768L34.6796 14.8681L15.3077 34.24L14.1164 33.0487L33.4883 13.6768Z" fill="black" stroke="white" stroke-width="0.290821"/>
<path d="M39.2371 14.6929C38.871 15.059 38.4364 15.3494 37.958 15.5476C37.4797 15.7457 36.967 15.8477 36.4492 15.8477C35.9315 15.8477 35.4188 15.7457 34.9404 15.5476C34.4621 15.3494 34.0274 15.059 33.6613 14.6929C33.2952 14.3268 33.0048 13.8921 32.8066 13.4138C32.6085 12.9354 32.5065 12.4227 32.5065 11.905C32.5065 11.3872 32.6085 10.8745 32.8066 10.3961C33.0048 9.91779 33.2952 9.48315 33.6613 9.11703C34.4007 8.37763 35.4035 7.96223 36.4492 7.96223C37.4949 7.96223 38.4977 8.37762 39.2371 9.11703C39.9765 9.85643 40.3919 10.8593 40.3919 11.905C40.3919 12.9506 39.9765 13.9535 39.2371 14.6929Z" fill="black" stroke="white" stroke-width="0.290821" stroke-linecap="round" stroke-linejoin="round"/>
<path d="M8.33242 39.5111C8.32929 39.5139 8.32621 39.5167 8.32318 39.5196C8.28884 39.5539 8.26153 39.5946 8.24279 39.6393C8.22406 39.684 8.21428 39.7318 8.214 39.7801C8.21372 39.8284 8.22295 39.8761 8.24116 39.9207C8.25938 39.9652 8.28623 40.0055 8.32018 40.0395C8.35413 40.0734 8.3945 40.1003 8.439 40.1185C8.48351 40.1367 8.53127 40.1459 8.57954 40.1457C8.62782 40.1454 8.67567 40.1356 8.72037 40.1169C8.76507 40.0981 8.80574 40.0708 8.84006 40.0365C8.84293 40.0334 8.84576 40.0304 8.84853 40.0272L8.33242 39.5111Z" fill="black" stroke="white" stroke-width="0.290821" stroke-linecap="round" stroke-linejoin="round"/>
<path d="M8.32539 38.9182C8.28016 38.9309 8.24176 38.9528 8.21138 38.983C8.12849 39.0658 8.1103 39.2066 8.16081 39.3744C8.21132 39.5421 8.32639 39.723 8.48071 39.8774C8.63504 40.0317 8.81596 40.1468 8.98369 40.1973C9.15143 40.2478 9.29222 40.2296 9.37511 40.1467C9.40524 40.1162 9.42701 40.0778 9.43972 40.0325L8.32539 38.9182Z" fill="black" stroke="white" stroke-width="0.290821" stroke-linecap="round" stroke-linejoin="round"/>
<path d="M14.1175 33.0491L15.3088 34.2405L9.77083 39.9588L8.39918 38.5872L14.1175 33.0491Z" fill="black" stroke="white" stroke-width="0.290821"/>
<path d="M14.4286 32.7634C14.4286 32.7634 14.746 33.1628 14.9704 33.3872C15.1948 33.6116 15.5942 33.929 15.5942 33.929C15.719 34.0282 15.7327 34.1973 15.62 34.31C15.5074 34.4227 15.326 34.4227 15.2133 34.31C15.2133 34.31 14.8341 33.9946 14.5986 33.7591C14.363 33.5235 14.0476 33.1443 14.0476 33.1443C13.9412 33.0257 13.9349 32.8502 14.0476 32.7376C14.1603 32.6249 14.3159 32.6507 14.4286 32.7634Z" fill="black" stroke="white" stroke-width="0.290821"/>
<path d="M8.59263 38.5993C8.59263 38.5993 8.91009 38.9987 9.13448 39.2231C9.35887 39.4475 9.75831 39.765 9.75831 39.765C9.88308 39.8641 9.89677 40.0333 9.7841 40.146C9.67142 40.2586 9.49 40.2586 9.37733 40.146C9.37733 40.146 8.99817 39.8305 8.76262 39.595C8.52706 39.3594 8.21165 38.9803 8.21165 38.9803C8.10529 38.8616 8.09897 38.6862 8.21165 38.5735C8.32432 38.4608 8.47995 38.4866 8.59263 38.5993Z" fill="black" stroke="white" stroke-width="0.290821"/>
<path d="M39.6631 14.1949C39.3681 13.9924 39.2955 13.7484 39.3531 13.5224C38.7718 13.5342 38.4196 13.1503 38.4696 12.6149C37.9156 12.6471 37.5461 12.2351 37.6477 11.6878C37.6477 11.6878 37.2598 11.7807 36.9192 11.44C36.5785 11.0994 36.6714 10.7114 36.6714 10.7114C36.1241 10.813 35.7121 10.4435 35.7443 9.88953C35.2088 9.93959 34.8249 9.5874 34.8368 9.00602C34.6108 9.06368 34.3668 8.99107 34.1643 8.69605" stroke="white" stroke-width="0.290821" stroke-linecap="round" stroke-linejoin="round"/>
<path d="M38.7423 15.1128C38.5398 14.8178 38.2958 14.7452 38.0698 14.8028C38.0816 14.2214 37.6977 13.8693 37.1623 13.9193C37.1945 13.3653 36.7825 12.9958 36.2352 13.0974C36.2352 13.0974 36.3281 12.7095 35.9874 12.3688C35.6468 12.0282 35.2588 12.1211 35.2588 12.1211C35.3604 11.5738 34.9909 11.1618 34.4369 11.194C34.487 10.6585 34.1348 10.2746 33.5534 10.2864C33.6111 10.0604 33.5385 9.81643 33.2435 9.61396" stroke="white" stroke-width="0.290821" stroke-linecap="round" stroke-linejoin="round"/>
<path d="M34.8354 9.00638C35.9386 8.37989 37.6387 7.73916 39.2387 9.11955C38.3381 8.28407 36.5747 9.15833 35.743 9.88989" stroke="white" stroke-width="0.290821" stroke-linecap="round" stroke-linejoin="round"/>
<path d="M39.2382 9.11906C38.5873 8.89398 37.2078 10.239 36.6696 10.7113" stroke="white" stroke-width="0.290821" stroke-linecap="round" stroke-linejoin="round"/>
<path d="M39.2422 9.11914C39.4673 9.77007 38.1222 11.1495 37.65 11.6878" stroke="white" stroke-width="0.290821" stroke-linecap="round" stroke-linejoin="round"/>
<path d="M39.3554 13.5224C39.9818 12.4193 40.6226 10.7191 39.2422 9.11914C40.0777 10.0198 39.2034 11.7831 38.4719 12.6149" stroke="white" stroke-width="0.290821" stroke-linecap="round" stroke-linejoin="round"/>
<path d="M33.5547 10.2861C32.9282 11.3893 32.2875 13.0894 33.6679 14.6894C32.8324 13.7888 33.7066 12.0254 34.4382 11.1937" stroke="white" stroke-width="0.290821" stroke-linecap="round" stroke-linejoin="round"/>
<path d="M33.6656 14.6897C33.4405 14.0388 34.7855 12.6593 35.2578 12.1211" stroke="white" stroke-width="0.290821" stroke-linecap="round" stroke-linejoin="round"/>
<path d="M33.6657 14.6898C34.3166 14.9149 35.6961 13.5698 36.2343 13.0976" stroke="white" stroke-width="0.290821" stroke-linecap="round" stroke-linejoin="round"/>
<path d="M38.0707 14.8031C36.9676 15.4296 35.2675 16.0704 33.6675 14.69C34.5681 15.5254 36.3314 14.6512 37.1632 13.9196" stroke="white" stroke-width="0.290821" stroke-linecap="round" stroke-linejoin="round"/>
<path fill-rule="evenodd" clip-rule="evenodd" d="M39.4214 8.74982C39.3926 8.71688 39.36 8.68548 39.3228 8.65798C39.244 8.59965 39.1476 8.55682 39.0285 8.54623C38.9192 8.53649 38.8128 8.51896 38.7165 8.46866C38.6106 8.41329 38.4864 8.4131 38.3636 8.40423C38.3613 8.40404 38.359 8.40353 38.3569 8.40272C38.3345 8.39462 38.3105 8.40576 38.3022 8.42808C38.302 8.42865 38.3017 8.42894 38.3016 8.42942C38.3015 8.42981 38.3014 8.4302 38.3013 8.43058C38.3012 8.43106 38.301 8.43183 38.3009 8.43212C38.3008 8.43257 38.3008 8.43302 38.3007 8.43346C38.3005 8.43404 38.3003 8.4354 38.2999 8.43721C38.2998 8.43769 38.3001 8.43716 38.2999 8.43837L38.2997 8.43856C38.2995 8.4401 38.2996 8.44072 38.2996 8.44138C38.299 8.45237 38.3025 8.46309 38.3097 8.47143C38.3108 8.47266 38.3117 8.47398 38.3125 8.47539C38.3213 8.49072 38.5454 8.8815 39.0104 9.3465C39.4741 9.81014 39.8631 10.0341 39.8804 10.0441C39.8804 10.0441 39.8844 10.0468 39.8855 10.0476C39.8932 10.054 39.9025 10.0575 39.9124 10.0576L39.9126 10.0578C39.9133 10.0578 39.9141 10.0578 39.9148 10.0578L39.9158 10.0576C39.9162 10.0576 39.9165 10.0576 39.9169 10.0576L39.9171 10.0574L39.9175 10.0574C39.918 10.0573 39.9184 10.0572 39.9189 10.0572C39.9214 10.0569 39.9237 10.0565 39.9262 10.0559L39.9264 10.0557C39.9274 10.0554 39.9283 10.055 39.9292 10.0548C39.9295 10.0546 39.9297 10.0545 39.93 10.0544C39.9515 10.0456 39.9622 10.022 39.9542 10.0001C39.9534 9.99792 39.9529 9.99565 39.9527 9.99334C39.9438 9.87053 39.9436 9.74638 39.8883 9.64042C39.8379 9.54413 39.8206 9.43794 39.8109 9.32864C39.7903 9.09699 39.6469 8.95114 39.5055 8.85947C39.5025 8.85752 39.4999 8.85496 39.498 8.85196C39.4756 8.81741 39.4504 8.78291 39.4215 8.74997L39.4214 8.74982Z" fill="black"/>
<path d="M39.9115 10.0144C39.9012 9.88502 39.8995 9.75769 39.8487 9.66043C39.7943 9.5564 39.7765 9.44398 39.7666 9.33276C39.7468 9.11033 39.6087 8.97269 39.47 8.88579C39.3831 8.74708 39.2455 8.60897 39.023 8.58917C38.9118 8.57927 38.7994 8.56146 38.6954 8.5071C38.5981 8.45628 38.4708 8.45461 38.3414 8.4443M38.341 8.44413C38.341 8.44413 38.5685 8.84586 39.0392 9.31659C39.5099 9.78732 39.9116 10.0148 39.9116 10.0148" stroke="white" stroke-width="0.290821" stroke-linecap="round" stroke-linejoin="round"/>
<path d="M40.0292 8.88852C39.9926 8.9252 39.949 8.95429 39.9011 8.97413C39.8532 8.99398 39.8019 9.0042 39.75 9.0042C39.6981 9.0042 39.6468 8.99398 39.5989 8.97414C39.551 8.95429 39.5074 8.9252 39.4707 8.88853C39.4341 8.85186 39.405 8.80832 39.3851 8.76041C39.3653 8.71249 39.3551 8.66114 39.3551 8.60928C39.3551 8.55742 39.3653 8.50606 39.3851 8.45815C39.405 8.41024 39.4341 8.3667 39.4708 8.33003C39.5448 8.25597 39.6453 8.21436 39.75 8.21436C39.8547 8.21436 39.9552 8.25597 40.0292 8.33003C40.1033 8.40409 40.1449 8.50454 40.1449 8.60928C40.1449 8.71402 40.1033 8.81446 40.0292 8.88852Z" fill="black" stroke="white" stroke-width="0.290821" stroke-linecap="round" stroke-linejoin="round"/>
<path d="M15.8442 0.0673828L20.939 20.776L0.230469 15.6812V32.5108L20.9393 27.4157L15.8442 48.1246H32.6738L27.5784 27.4154L48.2875 32.5108V15.6812L27.5787 20.7763L32.6738 0.0673828H15.8442Z" fill="white" stroke="white" stroke-width="0.0830916"/>
<path d="M22.1931 22.0301L17.0154 0.985352H31.5025L26.3249 22.0301L47.3695 16.8524V31.3395L26.3249 26.1619L31.5025 47.2066H17.0154L22.1931 26.1619L1.14844 31.3395V16.8524L22.1931 22.0301Z" fill="black" stroke="white" stroke-width="0.0830916"/>
<path d="M24.2607 3.42969L25.9315 5.18361V38.6738H22.5898V5.18361L24.2607 3.42969Z" fill="black" stroke="white" stroke-width="0.290821" stroke-linecap="round" stroke-linejoin="round"/>
<path d="M23.1797 38.8105H25.3374L25.1504 43.2894H23.3667L23.1797 38.8105Z" fill="black" stroke="white" stroke-width="0.290821" stroke-linecap="round" stroke-linejoin="round"/>
<path fill-rule="evenodd" clip-rule="evenodd" d="M25.3107 39.0961C25.3022 39.0959 25.2939 39.0974 25.286 39.1003L23.2227 39.8347L23.2285 39.9768C23.2296 39.9764 23.2306 39.976 23.2317 39.9755L25.32 39.2323L25.3255 39.0976C25.3207 39.0964 25.3157 39.0958 25.3107 39.0957L25.3107 39.0961ZM25.2939 39.8568C25.2912 39.8575 25.2886 39.8583 25.286 39.8593L23.254 40.5825L23.2598 40.7246L25.2878 40.003L25.2939 39.8568ZM25.2618 40.6268L23.2851 41.3299L23.2909 41.4723L25.2557 40.7732L25.2618 40.6268ZM25.2294 41.3971L23.3164 42.0776L23.3223 42.2203L25.2233 41.5435L25.2294 41.3971ZM25.1973 42.1672L23.3475 42.8256L23.3533 42.9677L25.1911 42.3138L25.1973 42.1672Z" fill="white"/>
<path d="M24.2617 6.80273V38.7086" stroke="white" stroke-width="0.290821" stroke-linecap="round" stroke-linejoin="round"/>
<path d="M20.418 37.5293V38.91C20.418 38.9571 20.4559 38.995 20.503 38.995H28.0167C28.0638 38.995 28.1017 38.9571 28.1017 38.91V37.5293L24.2599 38.1498L20.418 37.5293Z" fill="black" stroke="white" stroke-width="0.290821" stroke-linecap="round" stroke-linejoin="round"/>
<path fill-rule="evenodd" clip-rule="evenodd" d="M22.4336 43.0635C22.4336 43.0635 22.9493 44.7634 24.2568 44.7634C25.5643 44.7634 26.08 43.0635 26.08 43.0635C26.08 43.0635 25.4885 43.259 24.2568 43.259C23.0251 43.259 22.4336 43.0635 22.4336 43.0635Z" fill="black" stroke="white" stroke-width="0.290821" stroke-linecap="round" stroke-linejoin="round"/>
<path d="M33.8618 24.096C33.8618 26.6433 32.8499 29.0863 31.0486 30.8875C29.2474 32.6888 26.8044 33.7007 24.2571 33.7007C21.7097 33.7007 19.2667 32.6888 17.4655 30.8875C15.6643 29.0863 14.6523 26.6433 14.6523 24.096C14.6523 22.8347 14.9008 21.5857 15.3835 20.4204C15.8661 19.2551 16.5736 18.1963 17.4655 17.3044C18.3574 16.4125 19.4162 15.705 20.5815 15.2223C21.7468 14.7396 22.9958 14.4912 24.2571 14.4912C25.5184 14.4912 26.7673 14.7396 27.9326 15.2223C29.0979 15.705 30.1567 16.4125 31.0486 17.3044C31.9405 18.1963 32.648 19.2551 33.1307 20.4204C33.6133 21.5857 33.8618 22.8347 33.8618 24.096Z" fill="black" stroke="white" stroke-width="0.290821"/>
<path d="M32.8721 24.0962C32.8721 26.3807 31.9645 28.5717 30.3491 30.1871C28.7338 31.8025 26.5428 32.71 24.2583 32.71C21.9738 32.71 19.7828 31.8025 18.1675 30.1871C16.5521 28.5717 15.6445 26.3807 15.6445 24.0962C15.6445 21.8117 16.5521 19.6207 18.1674 18.0053C19.7828 16.3899 21.9738 15.4824 24.2583 15.4824C26.5428 15.4824 28.7338 16.3899 30.3492 18.0053C31.9645 19.6207 32.8721 21.8117 32.8721 24.0962Z" fill="white" stroke="white" stroke-width="0.270599"/>
<path d="M24.2617 16.8564C23.9243 17.2393 23.7187 17.7404 23.7187 18.2905C23.7387 19.4983 23.8868 20.7036 23.8997 21.911C23.9265 23.0363 23.589 24.0931 23.1786 25.1241C23.0418 25.4091 22.8939 25.6879 22.7459 25.967L22.3104 25.8794C21.9185 25.801 21.6636 25.4199 21.742 25.028C21.8105 24.685 22.1123 24.4469 22.449 24.4453L22.6073 24.4623L22.2538 21.5093C22.1383 20.1944 21.46 19.0409 20.4609 18.2905C20.2892 18.1615 20.1073 18.0436 19.918 17.9398V28.4278H22.3387C22.5197 29.4106 23.0604 30.2667 23.8205 30.8547C24.0013 30.9793 24.1528 31.1437 24.2617 31.3355C24.3706 31.1437 24.522 30.9793 24.7028 30.8547C25.4629 30.2667 26.0037 29.4106 26.1847 28.4278H28.6054V17.9398C28.416 18.0436 28.2341 18.1615 28.0624 18.2905C27.0633 19.0409 26.3851 20.1944 26.2695 21.5093L25.916 24.4623L26.0744 24.4453C26.411 24.4469 26.7128 24.685 26.7814 25.028C26.8597 25.4199 26.6048 25.801 26.213 25.8794L25.7775 25.967C25.6294 25.6879 25.4815 25.4091 25.3448 25.1241C24.9344 24.0931 24.5969 23.0363 24.6237 21.911C24.6365 20.7036 24.7847 19.4983 24.8046 18.2905C24.8046 17.7404 24.5991 17.2393 24.2617 16.8564ZM20.6419 19.4502C21.1104 20.0001 21.4248 20.6854 21.5186 21.4386L21.8099 23.874C21.439 24.0586 21.1578 24.3975 21.052 24.8074H20.6419V19.4502ZM27.8814 19.4502V24.8074H27.4714C27.3656 24.3975 27.0844 24.0586 26.7135 23.874L27.0048 21.4386C27.0985 20.6854 27.4129 20.0001 27.8814 19.4502ZM24.2617 24.3463C24.4561 24.9825 24.7237 25.5866 25.0563 26.1481C24.74 26.2442 24.4646 26.4312 24.2617 26.6826C24.0588 26.4312 23.7834 26.2442 23.467 26.1481C23.7997 25.5866 24.0672 24.9825 24.2617 24.3463ZM20.6419 25.5315H21.052C21.1813 26.0312 21.5713 26.426 22.0672 26.5639L22.415 26.6431C22.3219 26.9808 22.2708 27.3366 22.2708 27.7037H20.6419V25.5315ZM27.4714 25.5315H27.8814V27.7037H26.2525C26.2525 27.3366 26.2015 26.9808 26.1083 26.6431L26.4562 26.5639C26.952 26.426 27.3421 26.0312 27.4714 25.5315ZM23.122 26.8099C23.5612 26.872 23.8997 27.2474 23.8997 27.7037H22.9948C22.9948 27.3934 23.0407 27.0942 23.122 26.8099ZM25.4013 26.8099C25.4826 27.0942 25.5286 27.3934 25.5286 27.7037H24.6237C24.6237 27.2474 24.9622 26.872 25.4013 26.8099ZM23.0768 28.4278H23.8997V29.9524C23.5003 29.5348 23.2102 29.0104 23.0768 28.4278ZM24.6237 28.4278H25.4466C25.3131 29.0104 25.023 29.5348 24.6237 29.9524V28.4278Z" fill="black"/>
</g>
<defs>
<clipPath id="clip0_616_121">
<rect width="48.1931" height="48.1932" fill="white" transform="translate(0.167969)"/>
</clipPath>
</defs>
</svg>
