<svg xmlns="http://www.w3.org/2000/svg" width="89" height="90" viewBox="0 0 89 90"><g><g><path fill="#fff" d="M8.598 44.474c.079-20.21 16.327-36.637 36.299-36.637 20.017 0 36.306 16.492 36.306 36.783 0 20.288-16.287 36.783-36.306 36.783v-1.974c18.945 0 34.359-15.613 34.359-34.809 0-19.2-15.414-34.813-34.36-34.813-18.895 0-34.277 15.538-34.353 34.667m78.455.952c-.234 24.613-20.09 44.567-44.49 44.567C19.968 89.993 0 69.813 0 45 0 20.187 19.967.006 44.509.006v2.1C21.114 2.105 2.077 21.345 2.077 45c0 23.653 19.037 42.895 42.432 42.895 23.255 0 42.18-19.01 42.41-42.47h-1.507"/></g><g><path fill="#fff" d="M65 35.512v25.323c-.003 2.299-1.9 4.162-4.24 4.165H30.24c-2.34-.003-4.237-1.866-4.24-4.165V35.512c.007-1.769 1.152-3.339 2.853-3.915a9.025 9.025 0 0 1-1.013-6.063c.917-4.98 5.77-8.287 10.838-7.385 5.069.902 8.433 5.67 7.515 10.65.09-.061.18-.12.27-.178 4.289-2.708 10-1.487 12.756 2.725h1.542c2.34.003 4.236 1.867 4.239 4.166zm-21.196.833a7.29 7.29 0 0 0 .439 2.498h1.836c-1.275-2.617-.388-5.759 2.077-7.358a6.111 6.111 0 0 1 6.557 0c2.465 1.6 3.352 4.74 2.077 7.358h1.837c.291-.802.44-1.647.438-2.498a7.393 7.393 0 0 0-1.029-3.75c-1.363-2.322-3.885-3.752-6.613-3.75-4.212.004-7.622 3.362-7.619 7.5zm9.972-3.471a4.362 4.362 0 0 0-4.682 0 4.14 4.14 0 0 0-1.898 3.47c.006.905.314 1.783.876 2.499h6.725a4.077 4.077 0 0 0-1.022-5.969zM29.39 27.181c0 4.14 3.417 7.497 7.63 7.497 4.215 0 7.631-3.357 7.631-7.497s-3.416-7.497-7.63-7.497c-4.212.006-7.626 3.359-7.63 7.497zm-1.695 9.164c0 1.38 1.138 2.499 2.543 2.499h12.235a8.932 8.932 0 0 1-.365-2.499c.005-.536.06-1.07.162-1.596-3.961 2.663-9.334 1.926-12.403-1.7-1.244.18-2.167 1.227-2.172 2.463zm11.87 14.493a.84.84 0 0 0-.849-.833.84.84 0 0 0-.847.833c0 .46.38.833.847.833a.84.84 0 0 0 .848-.833zm23.738-4.998H48.891c-1.404 0-2.543 1.12-2.543 2.499 0 1.38 1.139 2.5 2.543 2.5h14.413zm0-1.666v-4.52a4.246 4.246 0 0 1-2.543.856H30.239a4.246 4.246 0 0 1-2.543-.855v21.18c0 1.38 1.138 2.499 2.543 2.499h3.391v-6.32l-2.295-2.254a.827.827 0 0 1-.248-.589v-4.318a2.523 2.523 0 0 1-1.55-1.524c-.468-1.301.226-2.73 1.55-3.19 1.324-.46 2.778.224 3.246 1.524.468 1.301-.226 2.73-1.55 3.19v3.973l2.295 2.255a.825.825 0 0 1 .248.588v6.665h2.544v-10.15a2.52 2.52 0 0 1-1.55-1.523c-.469-1.301.225-2.728 1.55-3.189 1.324-.46 2.777.221 3.245 1.523.469 1.3-.225 2.73-1.55 3.19v10.149h2.544v-4.165c0-.263.125-.51.339-.667l3.391-2.499a.86.86 0 0 1 .509-.166h1.851a2.52 2.52 0 0 1 1.55-1.524c1.325-.46 2.778.223 3.247 1.524.468 1.3-.226 2.73-1.55 3.19-1.325.46-2.778-.222-3.247-1.525H46.63l-2.826 2.083v3.749h16.957c1.405 0 2.543-1.12 2.543-2.499v-8.331H48.891c-2.34 0-4.239-1.865-4.239-4.165s1.898-4.165 4.24-4.165zM50.587 57.502a.84.84 0 0 0 .848-.833.84.84 0 0 0-.848-.832.84.84 0 0 0-.848.832c0 .46.38.833.848.833zm-17.804-9.996a.84.84 0 0 0-.848-.833.84.84 0 0 0-.848.833c0 .46.38.833.848.833a.84.84 0 0 0 .848-.833zm30.521-11.994c0-1.381-1.138-2.5-2.543-2.5h-.655a8.776 8.776 0 0 1 .29 5.832h.365c1.405 0 2.543-1.118 2.543-2.499zm-20.347-8.33c0 3.22-2.658 5.83-5.935 5.83-3.276-.004-5.931-2.611-5.935-5.83 0-3.221 2.657-5.832 5.935-5.832 3.277 0 5.935 2.61 5.935 5.831zm-1.696 0c0-2.302-1.898-4.166-4.24-4.166-2.34.002-4.236 1.866-4.238 4.165 0 2.3 1.898 4.165 4.239 4.165 2.34 0 4.239-1.865 4.239-4.165zm6.783-9.164h1.695v1.666h-1.695zm0 3.332h1.695v4.165h-1.695zm3.39-3.332h1.696v1.666h-1.695zm0 3.332h1.696v4.165h-1.695z"/></g></g></svg>