<svg xmlns="http://www.w3.org/2000/svg" width="54" height="49" viewBox="0 0 54 49"><g><g><path fill="#51bff7" d="M39.806 27.62c0 2.14-1.075 6.191-5.14 6.191h-11.31v-2.064h11.31c2.096 0 2.767-1.87 2.98-3.095H13.503L1.466 40.732l-1.453-1.46L12.349 26.89c.193-.193.454-.302.727-.302h25.702a1.03 1.03 0 0 1 1.028 1.032zm12.035 1.76L39.504 41.763a1.023 1.023 0 0 1-.726.303H17.614l-6.895 6.922-1.454-1.46 7.197-7.223c.192-.193.454-.302.726-.302h21.164l12.035-12.08a4.41 4.41 0 0 0 .646-5.986l-8.444 8.475-1.454-1.459 9.252-9.287a1.025 1.025 0 0 1 1.454 0c1.674 1.68 3.829 5.872 0 9.714z"/></g><g><path fill="#51bff7" d="M33.798 6.94v4.029a1.016 1.016 0 0 1-2.031 0V6.94a1.016 1.016 0 1 1 2.031 0zm0-3.685c0 .267-.109.53-.298.718-.188.19-.45.298-.718.298-.267 0-.529-.109-.718-.298a1.022 1.022 0 0 1-.297-.718c0-.267.108-.53.297-.718.19-.189.451-.298.718-.298.267 0 .53.11.718.298.19.19.298.45.298.718zm-8.251-2.24v1.727a1.015 1.015 0 0 1-2.031 0V1.016a1.016 1.016 0 0 1 2.03 0zm3.25 8.13a4.27 4.27 0 0 1-4.266 4.266 4.27 4.27 0 0 1-4.265-4.265A4.27 4.27 0 0 1 24.53 4.88a4.27 4.27 0 0 1 4.266 4.266zm-2.031 0a2.237 2.237 0 0 0-2.235-2.233 2.237 2.237 0 0 0-2.234 2.234 2.237 2.237 0 0 0 2.234 2.235 2.237 2.237 0 0 0 2.235-2.235zm10.03 11a4.27 4.27 0 0 1-4.265 4.266 4.27 4.27 0 0 1-4.265-4.265 4.27 4.27 0 0 1 4.265-4.266 4.27 4.27 0 0 1 4.266 4.266zm-2.03 0a2.237 2.237 0 0 0-2.235-2.234 2.237 2.237 0 0 0-2.234 2.235 2.237 2.237 0 0 0 2.234 2.235 2.237 2.237 0 0 0 2.235-2.235z"/></g></g></svg>