<svg xmlns="http://www.w3.org/2000/svg" width="47" height="47" viewBox="0 0 47 47"><g><g><path fill="#51bff7" d="M40.91 38.737H9.126a.872.872 0 0 1-.871-.871V6.089c0-.48.39-.871.87-.871H40.91c.482 0 .872.39.872.871v31.777c0 .48-.39.871-.872.871zM40.037 6.96H9.998v30.035h30.04zm-6.355 36.995H16.356v2.174c0 .481-.39.871-.872.871H9.128a.871.871 0 0 1-.871-.871v-2.174h-4.35a.872.872 0 0 1-.872-.87V32.381H.871A.871.871 0 0 1 0 31.51v-6.355c0-.481.39-.871.871-.871h2.164V19.67H.871a.871.871 0 0 1-.871-.87v-6.356c0-.48.39-.87.871-.87h2.164V.87c0-.481.39-.87.872-.87h42.222C46.61 0 47 .39 47 .87v42.213c0 .48-.39.871-.871.871h-4.347v2.174c0 .48-.39.87-.871.87h-6.357a.871.871 0 0 1-.871-.87zM3.035 17.93v-4.612H1.743v4.612zm0 12.71v-4.613H1.743v4.613zm11.578 14.618v-1.302H10v1.302zm30.644-3.044V1.743H4.777v40.47zm-9.831 1.742v1.302h4.613v-1.302zM17.32 26.392a8.819 8.819 0 0 1-1.178-4.415 8.82 8.82 0 0 1 1.19-4.433v-.002l.003-.003a8.881 8.881 0 0 1 7.683-4.434 8.88 8.88 0 0 1 7.67 4.415l.015.022.008.015a8.821 8.821 0 0 1 1.181 4.42 8.815 8.815 0 0 1-1.176 4.412l-.013.025-.016.024a8.88 8.88 0 0 1-7.67 4.413 8.88 8.88 0 0 1-7.67-4.415c-.005-.007-.011-.014-.015-.022-.005-.007-.008-.014-.012-.022zm4.567-4.415a3.134 3.134 0 0 0 3.13 3.13 3.132 3.132 0 0 0 2.704-1.553l.006-.012.007-.01c.263-.46.414-.99.414-1.555a3.133 3.133 0 0 0-3.13-3.13 3.133 3.133 0 0 0-3.13 3.13zm9.697-2.783l-1.978 1.141a4.849 4.849 0 0 1 0 3.285l1.977 1.141a7.089 7.089 0 0 0 .566-2.784 7.09 7.09 0 0 0-.565-2.783zm-11.44 2.783c0-.575.102-1.128.286-1.641l-1.979-1.143a7.092 7.092 0 0 0-.566 2.784c0 .988.202 1.929.566 2.784l1.979-1.142a4.846 4.846 0 0 1-.286-1.642zm4.002 7.078V26.77a4.876 4.876 0 0 1-2.842-1.643l-1.979 1.142a7.136 7.136 0 0 0 4.821 2.786zm6.563-2.786l-1.978-1.142a4.877 4.877 0 0 1-2.842 1.643v2.285a7.132 7.132 0 0 0 4.82-2.786zM25.89 14.9v2.285c1.131.205 2.127.8 2.843 1.643l1.978-1.142a7.133 7.133 0 0 0-4.82-2.786zm-6.564 2.786l1.978 1.142a4.873 4.873 0 0 1 2.843-1.643V14.9a7.134 7.134 0 0 0-4.821 2.786z"/></g></g></svg>