<svg xmlns="http://www.w3.org/2000/svg" width="45" height="45" viewBox="0 0 45 45"><g><g><path fill="#51bff7" d="M45 44.25c0 .45-.3.75-.75.75H.75C.3 45 0 44.7 0 44.25s.3-.75.75-.75H4.5V.75c0-.45.3-.75.75-.75H25.5c.45 0 .75.3.75.75V12H37.5c.45 0 .75.3.75.75v25.247c1.782.834 3 2.636 3 4.753 0 .252-.014.503-.046.75h3.046c.45 0 .75.3.75.75zm-8.25-6.697V13.5h-15v23.84a4.408 4.408 0 0 1 1.936-.579l.043-.003.107-.005a3.451 3.451 0 0 1 .378.002l.106.007.1.008.134.015.065.008.146.023c.02.003.04.008.06.01l.137.028c.057.012.112.026.168.04l.02.005c.64.167 1.246.47 1.764.892.052-.02.105-.038.158-.056.429-.174.958-.235 1.428-.235.174 0 .346.01.516.03a.89.89 0 0 1 .234-.03c.214 0 .393.068.523.188.905.273 1.706.835 2.327 1.612a5.209 5.209 0 0 1 .9-.82v-.23c0-.45.3-.75.75-.75.262 0 .473.102.604.276a5.071 5.071 0 0 1 2.396-.223zM6 1.5v42h.804a5.232 5.232 0 0 1 .73-2.005.88.88 0 0 1-.034-.245v-1.5c0-.45.3-.75.75-.75s.75.3.75.75v.199a5.09 5.09 0 0 1 2.325-.873c.107-.728.36-1.412.729-2.019A.85.85 0 0 1 12 36.75v-1.5c0-.45.3-.75.75-.75s.75.3.75.75v.234a5.087 5.087 0 0 1 3.243-.978l.057.004c.07.003.142.009.213.016l.025.003a5.19 5.19 0 0 1 1.727.493l.05.026a5.435 5.435 0 0 1 1.435 1.027V12.75c0-.45.3-.75.75-.75h3.75V1.5zm2.325 42h15.934a4.408 4.408 0 0 1-.253-1.731c.06-1.174.566-2.27 1.461-3.112A2.917 2.917 0 0 0 24 38.25c-.975 0-1.8.45-2.4 1.2l-.075.075a.724.724 0 0 1-.6.319.445.445 0 0 1-.15-.019.906.906 0 0 1-.197-.077l-.035-.021-.032-.02a.813.813 0 0 1-.336-.482C19.95 37.35 18.375 36 16.5 36c-2.1 0-3.75 1.65-3.75 3.75 0 .45-.3.75-.75.75a4 4 0 0 0-.178.004l-.118.008-.045.004c-1.646.15-2.983 1.37-3.334 2.984zm17.704 0h13.646c.075-.225.075-.525.075-.75 0-2.1-1.65-3.75-3.75-3.75-.612 0-1.196.14-1.711.398a.69.69 0 0 1-.3.17c-.548.346-.998.84-1.289 1.457-.109.218-.258.356-.446.387a.522.522 0 0 1-.229.063c-.375 0-.6-.225-.675-.45a2.95 2.95 0 0 0-4.2-1.575.751.751 0 0 1-.343.078 3.078 3.078 0 0 0-.343.274 2.93 2.93 0 0 0-.889 2.123c0 .517.168 1.09.454 1.575zM25.5 20.25v1.5c0 .45-.3.75-.75.75s-.75-.3-.75-.75v-1.5c0-.45.3-.75.75-.75s.75.3.75.75zm0 13.5v1.5c0 .45-.3.75-.75.75s-.75-.3-.75-.75v-1.5c0-.45.3-.75.75-.75s.75.3.75.75zm0-9v1.5c0 .45-.3.75-.75.75s-.75-.3-.75-.75v-1.5c0-.45.3-.75.75-.75s.75.3.75.75zm0 4.5v1.5c0 .45-.3.75-.75.75s-.75-.3-.75-.75v-1.5c0-.45.3-.75.75-.75s.75.3.75.75zm0-13.5v1.5c0 .45-.3.75-.75.75s-.75-.3-.75-.75v-1.5c0-.45.3-.75.75-.75s.75.3.75.75zm3 6v-1.5c0-.45.3-.75.75-.75s.75.3.75.75v1.5c0 .45-.3.75-.75.75s-.75-.3-.75-.75zm0-4.5v-1.5c0-.45.3-.75.75-.75s.75.3.75.75v1.5c0 .45-.3.75-.75.75s-.75-.3-.75-.75zm0 9v-1.5c0-.45.3-.75.75-.75s.75.3.75.75v1.5c0 .45-.3.75-.75.75s-.75-.3-.75-.75zm0 4.5v-1.5c0-.45.3-.75.75-.75s.75.3.75.75v1.5c0 .45-.3.75-.75.75s-.75-.3-.75-.75zm0 4.5v-1.5c0-.45.3-.75.75-.75s.75.3.75.75v1.5c0 .45-.3.75-.75.75s-.75-.3-.75-.75zm4.5-9v-1.5c0-.45.3-.75.75-.75s.75.3.75.75v1.5c0 .45-.3.75-.75.75s-.75-.3-.75-.75zm0-4.5v-1.5c0-.45.3-.75.75-.75s.75.3.75.75v1.5c0 .45-.3.75-.75.75s-.75-.3-.75-.75zm0 13.5v-1.5c0-.45.3-.75.75-.75s.75.3.75.75v1.5c0 .45-.3.75-.75.75s-.75-.3-.75-.75zm0-4.5v-1.5c0-.45.3-.75.75-.75s.75.3.75.75v1.5c0 .45-.3.75-.75.75s-.75-.3-.75-.75zm0-13.5v-1.5c0-.45.3-.75.75-.75s.75.3.75.75v1.5c0 .45-.3.75-.75.75s-.75-.3-.75-.75zM7.5 27.75v-1.5c0-.45.3-.75.75-.75s.75.3.75.75v1.5c0 .45-.3.75-.75.75s-.75-.3-.75-.75zm0 4.5v-1.5c0-.45.3-.75.75-.75s.75.3.75.75v1.5c0 .45-.3.75-.75.75s-.75-.3-.75-.75zm0 4.5v-1.5c0-.45.3-.75.75-.75s.75.3.75.75v1.5c0 .45-.3.75-.75.75s-.75-.3-.75-.75zm0-31.5v-1.5c0-.45.3-.75.75-.75s.75.3.75.75v1.5c0 .45-.3.75-.75.75s-.75-.3-.75-.75zm0 4.5v-1.5c0-.45.3-.75.75-.75s.75.3.75.75v1.5c0 .45-.3.75-.75.75s-.75-.3-.75-.75zm0 4.5v-1.5c0-.45.3-.75.75-.75s.75.3.75.75v1.5c0 .45-.3.75-.75.75s-.75-.3-.75-.75zm0 4.5v-1.5c0-.45.3-.75.75-.75s.75.3.75.75v1.5c0 .45-.3.75-.75.75s-.75-.3-.75-.75zm0 4.5v-1.5c0-.45.3-.75.75-.75s.75.3.75.75v1.5c0 .45-.3.75-.75.75s-.75-.3-.75-.75zM12 9.75v-1.5c0-.45.3-.75.75-.75s.75.3.75.75v1.5c0 .45-.3.75-.75.75s-.75-.3-.75-.75zm0-4.5v-1.5c0-.45.3-.75.75-.75s.75.3.75.75v1.5c0 .45-.3.75-.75.75S12 5.7 12 5.25zm0 13.5v-1.5c0-.45.3-.75.75-.75s.75.3.75.75v1.5c0 .45-.3.75-.75.75s-.75-.3-.75-.75zm0-4.5v-1.5c0-.45.3-.75.75-.75s.75.3.75.75v1.5c0 .45-.3.75-.75.75s-.75-.3-.75-.75zm0 9v-1.5c0-.45.3-.75.75-.75s.75.3.75.75v1.5c0 .45-.3.75-.75.75s-.75-.3-.75-.75zm0 4.5v-1.5c0-.45.3-.75.75-.75s.75.3.75.75v1.5c0 .45-.3.75-.75.75s-.75-.3-.75-.75zm0 4.5v-1.5c0-.45.3-.75.75-.75s.75.3.75.75v1.5c0 .45-.3.75-.75.75s-.75-.3-.75-.75zm4.5-18v-1.5c0-.45.3-.75.75-.75s.75.3.75.75v1.5c0 .45-.3.75-.75.75s-.75-.3-.75-.75zm0-4.5v-1.5c0-.45.3-.75.75-.75s.75.3.75.75v1.5c0 .45-.3.75-.75.75s-.75-.3-.75-.75zm0-4.5v-1.5c0-.45.3-.75.75-.75s.75.3.75.75v1.5c0 .45-.3.75-.75.75s-.75-.3-.75-.75zm0 27v-1.5c0-.45.3-.75.75-.75s.75.3.75.75v1.5c0 .45-.3.75-.75.75s-.75-.3-.75-.75zm0-4.5v-1.5c0-.45.3-.75.75-.75s.75.3.75.75v1.5c0 .45-.3.75-.75.75s-.75-.3-.75-.75zm0-4.5v-1.5c0-.45.3-.75.75-.75s.75.3.75.75v1.5c0 .45-.3.75-.75.75s-.75-.3-.75-.75zm0-4.5v-1.5c0-.45.3-.75.75-.75s.75.3.75.75v1.5c0 .45-.3.75-.75.75s-.75-.3-.75-.75zm4.5-9v-1.5c0-.45.3-.75.75-.75s.75.3.75.75v1.5c0 .45-.3.75-.75.75s-.75-.3-.75-.75zm0-4.5v-1.5c0-.45.3-.75.75-.75s.75.3.75.75v1.5c0 .45-.3.75-.75.75S21 5.7 21 5.25z"/></g></g></svg>