<svg xmlns="http://www.w3.org/2000/svg" width="52" height="38" viewBox="0 0 52 38"><g><g><path fill="#51bff7" d="M52 13.28a.809.809 0 0 1-.813.806.81.81 0 0 1-.812-.805V1.61H1.625v15.025h4.96a.81.81 0 0 1 .812.805.809.809 0 0 1-.812.805H.812A.809.809 0 0 1 0 17.44V.805A.81.81 0 0 1 .812 0h50.374a.81.81 0 0 1 .812.805V13.28zm-7.399 4.16a.81.81 0 0 1 .813-.805h5.772a.81.81 0 0 1 .812.805.809.809 0 0 1-.812.805h-5.772a.81.81 0 0 1-.813-.805zM8.16 9.927a.809.809 0 0 1-.813-.804c0-.446.364-.806.813-.806H43.84a.81.81 0 0 1 .813.806.809.809 0 0 1-.813.804zm2.911 4.159v8.834a7.112 7.112 0 0 1 4.215 2.017 7.001 7.001 0 0 1 2.036 4.174h17.358a7.003 7.003 0 0 1 2.036-4.17l.003-.004a7.12 7.12 0 0 1 4.21-2.017v-8.834h-2.86a.809.809 0 0 1-.813-.805c0-.444.364-.805.812-.805h3.673c.45 0 .813.36.813.805v10.346a.808.808 0 0 1 0 .105v6.183a.81.81 0 0 1-.813.805h-6.245a.83.83 0 0 1-.1 0h-18.78a.829.829 0 0 1-.121 0h-6.236a.809.809 0 0 1-.813-.805V13.281c0-.444.364-.805.813-.805h7.346a.81.81 0 0 1 .813.805c0 2.074.85 3.952 2.22 5.31a7.594 7.594 0 0 0 5.363 2.2c2.096 0 3.991-.84 5.36-2.196l.003-.002-.002-.002a7.46 7.46 0 0 0 2.178-4.505H21.276a.809.809 0 0 1-.813-.805c0-.444.364-.805.813-.805h13.118c.449 0 .814.36.813.805 0 2.519-1.031 4.801-2.697 6.45h-.002A9.223 9.223 0 0 1 26 22.404a9.22 9.22 0 0 1-6.512-2.673 9.057 9.057 0 0 1-2.661-5.646zM40.928 29.11v-4.568a5.478 5.478 0 0 0-3.064 1.53l-.003.003a5.393 5.393 0 0 0-1.543 3.035zm-29.858 0h4.612a5.4 5.4 0 0 0-1.546-3.035 5.49 5.49 0 0 0-3.066-1.533zm-.812 5.25a.81.81 0 0 1-.813-.805.81.81 0 0 1 .813-.804h31.484c.449 0 .813.36.813.804a.81.81 0 0 1-.813.806zm0 3.639a.81.81 0 0 1-.813-.805.81.81 0 0 1 .813-.805h31.484c.449 0 .813.36.813.805a.81.81 0 0 1-.813.805z"/></g></g></svg>