<svg xmlns="http://www.w3.org/2000/svg" width="90" height="90" viewBox="0 0 90 90"><g><g><path fill="#fff" d="M39.806 9.423C59.794 6.323 78.574 19.729 81.7 39.38c3.132 19.696-10.62 38.317-30.677 41.506-20.054 3.189-38.906-10.244-42.039-29.942l1.951-.31c2.965 18.64 20.81 31.353 39.783 28.336 18.979-3.018 32-20.639 29.035-39.28C76.796 21.097 59.03 8.405 40.11 11.337m11.335 77.345C27.08 92.322 4.25 75.92.431 51.912-3.41 27.765 13.414 4.947 37.94 1.046c24.526-3.9 47.597 12.574 51.438 36.723l-2.074.33C83.644 15.077 61.646-.63 38.265 3.088c-23.38 3.718-39.42 25.474-35.76 48.494C6.144 74.465 27.896 90.098 51.12 86.637l-.236-1.483"/></g><g><path fill="#fff" d="M69 46.035v7.148c0 .83-.668 1.505-1.488 1.505h-.695v6.335c0 1.642-1.32 2.977-2.942 2.977H26.942C25.32 64 24 62.665 24 61.023V38.195c0-1.2.704-2.235 1.716-2.705V34.9c0-1.251 1.006-2.27 2.243-2.27h1.695l.996-10.195c.116-1.19 1.168-2.062 2.344-1.945l10.259 1.025c.364.037.63.364.594.732a.665.665 0 0 1-.724.601l-10.26-1.025a.823.823 0 0 0-.896.744l-1.235 12.65h.844l.794-8.13a1.562 1.562 0 0 1 .998-1.32c.74-.283 1.38-.81 1.805-1.484a1.543 1.543 0 0 1 1.467-.72l5.077.51c.363.035.63.363.593.731a.664.664 0 0 1-.723.6l-5.077-.507a.23.23 0 0 0-.22.105 5.044 5.044 0 0 1-2.455 2.017.238.238 0 0 0-.148.2l-.78 7.998h3.236l11.632-17.269a2.13 2.13 0 0 1 2.979-.571L64.23 26.67a2.187 2.187 0 0 1 .564 3.013l-1.986 2.949h.519c1.237 0 2.243 1.018 2.243 2.269v.863a2.985 2.985 0 0 1 1.247 2.43v6.336h.695c.82 0 1.488.675 1.488 1.505zm-7.094-12.064l-.84 1.247h2.809c.126 0 .25.009.371.025V34.9a.925.925 0 0 0-.919-.93zm-24.16 1.247h1.016l8.32-12.352a1.56 1.56 0 0 1 1.5-.676 3.663 3.663 0 0 0 2.288-.427 1.534 1.534 0 0 1 1.628.08l6.986 4.817c.489.338.745.914.67 1.504a3.779 3.779 0 0 0 .443 2.31 1.581 1.581 0 0 1-.073 1.66l-2.076 3.084h1.016l4.236-6.289a.837.837 0 0 0-.216-1.153l-13.476-9.291a.803.803 0 0 0-.614-.13.813.813 0 0 0-.525.348zm16.856 0h2.244l2.585-3.838a.24.24 0 0 0 .013-.248 5.14 5.14 0 0 1-.603-3.142.238.238 0 0 0-.103-.223l-6.986-4.817a.231.231 0 0 0-.242-.014 4.981 4.981 0 0 1-3.141.579c-.076 0-.15.039-.194.105l-7.811 11.598h3.355c.192-2.868 2.559-5.142 5.441-5.142 2.883 0 5.249 2.274 5.442 5.142zm-5.442-3.803c-2.152 0-3.925 1.674-4.114 3.803h8.229c-.19-2.129-1.962-3.803-4.115-3.803zm-22.12 3.803h2.362l.121-1.247H27.96a.925.925 0 0 0-.919.93zm-1.716 4.834h40.169v-1.857a1.63 1.63 0 0 0-1.618-1.638H26.942a1.63 1.63 0 0 0-1.618 1.638zm40.169 19.113H33.132a.666.666 0 0 1-.662-.67c0-.37.296-.67.662-.67h32.36v-3.137H59.2c-2.768 0-5.02-2.278-5.02-5.08 0-.524.079-1.03.226-1.506V48.1c.069-.223.153-.439.25-.648l.02-.043.009-.017c.815-1.693 2.532-2.862 4.515-2.862h6.294v-3.138h-40.17v16.434h3.57c.366 0 .662.3.662.67 0 .37-.296.669-.662.669h-3.57v1.858a1.63 1.63 0 0 0 1.62 1.638h36.932a1.63 1.63 0 0 0 1.618-1.638zm2.183-5.982v-7.148a.165.165 0 0 0-.164-.166h-8.313a3.694 3.694 0 0 0-3.331 2.12 3.73 3.73 0 0 0-.365 1.62 3.758 3.758 0 0 0 .447 1.781 3.694 3.694 0 0 0 3.25 1.959h8.312c.09 0 .164-.075.164-.166zm-5.636-3.574c0 1.498-1.205 2.717-2.685 2.717-1.481 0-2.686-1.22-2.686-2.717 0-1.498 1.205-2.717 2.686-2.717 1.48 0 2.685 1.219 2.685 2.717zm-1.324 0c0-.76-.61-1.378-1.361-1.378s-1.362.618-1.362 1.378c0 .76.61 1.377 1.362 1.377.75 0 1.361-.617 1.361-1.377z"/></g></g></svg>