<svg xmlns="http://www.w3.org/2000/svg" width="52" height="52" viewBox="0 0 52 52"><g><g><path fill="#51bff7" d="M52 28.918v5.12a2.963 2.963 0 0 1-2.591 2.936l-2.111.264a16.113 16.113 0 0 1-4.54 6.672v5.145A2.949 2.949 0 0 1 39.815 52h-5.892a2.949 2.949 0 0 1-2.945-2.945V47.93h-6.501v1.124A2.949 2.949 0 0 1 21.53 52h-5.892a2.949 2.949 0 0 1-2.944-2.945v-3.373a16.144 16.144 0 0 1-7.807-15.818H4.52A4.524 4.524 0 0 1 0 25.344a4.525 4.525 0 0 1 4.52-4.519 1.016 1.016 0 0 1 0 2.031 2.491 2.491 0 0 0-2.489 2.489 2.49 2.49 0 0 0 2.488 2.488h.745c1.767-6.998 8.115-12.192 15.655-12.192h1.272a1.015 1.015 0 1 1 0 2.031H20.92c-7.783 0-14.114 6.331-14.114 14.114 0 5.181 2.832 9.938 7.39 12.413.327.177.531.52.531.892v3.964c0 .504.41.913.914.913h5.891c.504 0 .914-.409.914-.913v-2.14c0-.56.455-1.016 1.015-1.016h8.533c.561 0 1.016.455 1.016 1.016v2.14c0 .504.41.913.913.913h5.892c.504 0 .913-.409.913-.913V43.44c0-.302.135-.589.368-.782a14.092 14.092 0 0 0 4.474-6.652c.119-.38.449-.655.843-.705l2.745-.344a.929.929 0 0 0 .812-.92v-5.12a.929.929 0 0 0-.812-.92l-2.962-.37a1.017 1.017 0 0 1-.828-.662 14.133 14.133 0 0 0-3.052-4.93 1 1 0 0 1-.247-.253 14.07 14.07 0 0 0-6.709-3.733 1.015 1.015 0 1 1 .468-1.976c.756.179 1.499.415 2.22.702 1.021-2.657 3.616-4.469 6.496-4.469h.225a1.018 1.018 0 0 1 .988 1.25l-1.734 7.348a16.223 16.223 0 0 1 3.028 4.782l2.359.295A2.963 2.963 0 0 1 52 28.918zm-8.545-14.456a4.96 4.96 0 0 0-3.562 3.186c.854.472 1.665 1.02 2.423 1.64zm-2.728 12.046c0 .267-.11.529-.298.718-.189.189-.45.297-.718.297-.267 0-.529-.108-.718-.297a1.023 1.023 0 0 1-.298-.718c0-.267.109-.53.298-.718.189-.189.45-.298.718-.298.267 0 .53.109.718.298.189.189.298.45.298.718zM30.798 6.94v4.029a1.016 1.016 0 0 1-2.031 0V6.94a1.016 1.016 0 1 1 2.031 0zm0-3.685c0 .267-.109.53-.298.718-.189.189-.45.298-.718.298-.267 0-.529-.11-.718-.298a1.023 1.023 0 0 1-.297-.718 1.02 1.02 0 0 1 1.015-1.016 1.021 1.021 0 0 1 1.016 1.016zm-8.251-2.24v1.727a1.016 1.016 0 0 1-2.031 0V1.016a1.016 1.016 0 0 1 2.03 0zM11.572 31.828a1.016 1.016 0 0 1-1.01 1.022h-.006c-.558 0-1.012-.45-1.015-1.009v-.054a1.016 1.016 0 1 1 2.03 0zm4.835 9.346a1.016 1.016 0 0 1-1.395.339 11.452 11.452 0 0 1-4.722-5.656 1.016 1.016 0 0 1 1.897-.727 9.412 9.412 0 0 0 3.88 4.648c.48.291.632.917.34 1.396zm9.39-32.027a4.27 4.27 0 0 1-4.266 4.266 4.27 4.27 0 0 1-4.265-4.266A4.27 4.27 0 0 1 21.53 4.88a4.27 4.27 0 0 1 4.266 4.266zm-2.031 0A2.237 2.237 0 0 0 21.53 6.91a2.237 2.237 0 0 0-2.234 2.235 2.237 2.237 0 0 0 2.234 2.234 2.237 2.237 0 0 0 2.235-2.234zm11.578 13.4c0 .562-.455 1.016-1.016 1.016H21.125a1.016 1.016 0 0 1 0-2.031h5.026a4.237 4.237 0 0 1-.634-2.234 4.27 4.27 0 0 1 4.265-4.266 4.27 4.27 0 0 1 4.266 4.266c0 .819-.232 1.584-.634 2.234h.914c.561 0 1.016.455 1.016 1.016zm-3.327-3.249a2.237 2.237 0 0 0-2.235-2.235 2.237 2.237 0 0 0-2.234 2.235 2.237 2.237 0 0 0 2.234 2.234 2.237 2.237 0 0 0 2.235-2.234z"/></g></g></svg>