<svg xmlns="http://www.w3.org/2000/svg" width="17" height="16" viewBox="0 0 17 16"><g><g><path fill="#167e7c" d="M17 4.814a5.03 5.03 0 0 1-1.176 3.26.34.34 0 0 1-.063.081 2.904 2.904 0 0 1-.171.166l-.07.066-6.77 6.516a.36.36 0 0 1-.5 0L1.699 8.609a.332.332 0 0 1-.056-.07C.597 7.614 0 6.263 0 4.814 0 2.158 1.986-.003 4.427-.003c1.886 0 3.443 1.686 4.073 2.482.63-.796 2.187-2.482 4.073-2.482C15.014-.003 17 2.158 17 4.814zm-.708 0c0-2.28-1.668-4.135-3.72-4.135-2.027 0-3.757 2.547-3.774 2.572-.13.194-.465.194-.596 0C8.185 3.226 6.455.68 4.427.68 2.377.679.708 2.534.708 4.814c0 1.293.543 2.491 1.49 3.287.034.03.062.064.082.102L8.5 14.18l6.602-6.353c.036-.033.073-.065.106-.102a4.36 4.36 0 0 0 1.084-2.91z"/><path fill="none" stroke="#177e7c" stroke-linecap="round" stroke-linejoin="round" stroke-miterlimit="20" d="M17 4.814a5.03 5.03 0 0 1-1.176 3.26.34.34 0 0 1-.063.081 2.904 2.904 0 0 1-.171.166l-.07.066-6.77 6.516a.36.36 0 0 1-.5 0L1.699 8.609a.332.332 0 0 1-.056-.07C.597 7.614 0 6.263 0 4.814 0 2.158 1.986-.003 4.427-.003c1.886 0 3.443 1.686 4.073 2.482.63-.796 2.187-2.482 4.073-2.482C15.014-.003 17 2.158 17 4.814zm-.708 0c0-2.28-1.668-4.135-3.72-4.135-2.027 0-3.757 2.547-3.774 2.572-.13.194-.465.194-.596 0C8.185 3.226 6.455.68 4.427.68 2.377.679.708 2.534.708 4.814c0 1.293.543 2.491 1.49 3.287.034.03.062.064.082.102L8.5 14.18l6.602-6.353c.036-.033.073-.065.106-.102a4.36 4.36 0 0 0 1.084-2.91z"/></g></g></svg>