<svg xmlns="http://www.w3.org/2000/svg" width="17" height="17" viewBox="0 0 17 17"><g><g><path fill="#00cca3" d="M17.01 8.509a8.501 8.501 0 1 1-17.003 0 8.501 8.501 0 0 1 17.003 0zm-6.585 4.078a2.533 2.533 0 0 1-.364.123 1.703 1.703 0 0 1-.451.07c-.281 0-.481-.046-.595-.14-.115-.093-.172-.268-.172-.523 0-.102.017-.253.053-.452.035-.197.075-.374.12-.529l.544-1.928c.054-.179.09-.372.11-.584.02-.212.03-.36.03-.444 0-.406-.144-.737-.428-.99-.286-.254-.692-.382-1.218-.382-.291 0-.6.052-.928.157-.328.104-.67.229-1.03.375l-.144.596c.105-.04.233-.082.38-.127.15-.044.295-.065.436-.065.289 0 .482.048.585.145.102.097.153.27.153.516 0 .138-.016.29-.049.455-.033.165-.075.34-.123.528l-.548 1.934a6.088 6.088 0 0 0-.106.546 3.61 3.61 0 0 0-.032.474c0 .398.146.726.44.984.293.258.706.388 1.236.388.344 0 .647-.046.907-.136.262-.09.61-.222 1.048-.395zm.14-8.09a1.14 1.14 0 0 0-.383-.861 1.29 1.29 0 0 0-.917-.358c-.357 0-.665.119-.921.358a1.141 1.141 0 0 0-.384.86c0 .336.129.623.384.86.256.235.564.353.92.353a1.3 1.3 0 0 0 .918-.354c.254-.236.382-.522.382-.859z"/></g></g></svg>