<svg width="13" height="17" viewBox="0 0 13 17" fill="none" xmlns="http://www.w3.org/2000/svg">
<path d="M12.2083 1.42574C12.3741 1.42574 12.5331 1.35989 12.6503 1.24268C12.7675 1.12547 12.8333 0.966496 12.8333 0.800735C12.8333 0.634975 12.7675 0.476004 12.6503 0.358793C12.5331 0.241583 12.3741 0.175735 12.2083 0.175735L1.375 0.17157C1.20924 0.17157 1.05027 0.237417 0.933058 0.354628C0.815848 0.471838 0.75 0.63081 0.75 0.79657C0.75 0.96233 0.815848 1.1213 0.933058 1.23851C1.05027 1.35572 1.20924 1.42157 1.375 1.42157L12.2083 1.4249V1.42574ZM6.70667 16.8307L6.79167 16.8366C6.9427 16.8366 7.08862 16.7819 7.20244 16.6826C7.31627 16.5833 7.39029 16.4462 7.41083 16.2966L7.41667 16.2116L7.41583 4.8074L10.5175 7.9074C10.6233 8.01325 10.7636 8.07761 10.9129 8.08877C11.0621 8.09993 11.2104 8.05716 11.3308 7.96824L11.4017 7.9074C11.5074 7.80147 11.5716 7.66113 11.5826 7.51187C11.5936 7.36262 11.5507 7.21437 11.4617 7.09407L11.4008 7.02407L7.23667 2.8599C7.13084 2.75406 6.99055 2.6897 6.84129 2.67853C6.69203 2.66737 6.54373 2.71014 6.42333 2.79907L6.3525 2.8599L2.18333 7.02324C2.07122 7.13461 2.00546 7.28433 1.9993 7.44225C1.99313 7.60017 2.04702 7.75455 2.15011 7.87434C2.2532 7.99412 2.39784 8.0704 2.55492 8.08782C2.71199 8.10524 2.86983 8.06251 2.99667 7.96824L3.06667 7.90824L6.16583 4.81324L6.16667 16.2124C6.16667 16.3634 6.22137 16.5094 6.32064 16.6232C6.41991 16.737 6.55704 16.811 6.70667 16.8316L6.79167 16.8374L6.70667 16.8316V16.8307Z" fill="#0F0F0F"/>
</svg>
