<svg width="18" height="15" viewBox="0 0 18 15" fill="none" xmlns="http://www.w3.org/2000/svg">
<path d="M13.3748 0.833252L13.2914 0.839085C13.1415 0.859256 13.004 0.933124 12.9044 1.04698C12.8048 1.16085 12.7498 1.30697 12.7498 1.45825V12.0349L10.0664 9.35325L9.99644 9.29325C9.86961 9.19898 9.71177 9.15625 9.55469 9.17367C9.39762 9.19109 9.25298 9.26737 9.14989 9.38715C9.0468 9.50693 8.99291 9.66132 8.99907 9.81924C9.00524 9.97715 9.071 10.1269 9.18311 10.2383L12.9364 13.9883L13.0064 14.0483C13.1268 14.1372 13.2751 14.18 13.4244 14.1688C13.5737 14.1576 13.714 14.0933 13.8198 13.9874L17.5673 10.2374L17.6273 10.1674C17.7164 10.047 17.7593 9.89848 17.7482 9.74903C17.737 9.59958 17.6725 9.45912 17.5664 9.35325L17.4964 9.29325C17.376 9.2041 17.2275 9.16119 17.0781 9.17236C16.9286 9.18353 16.7882 9.24802 16.6823 9.35409L13.9998 12.0383V1.45825L13.9948 1.37325C13.9742 1.22362 13.9002 1.08649 13.7864 0.987225C13.6726 0.887954 13.5266 0.833258 13.3756 0.833252H13.3748ZM4.17811 1.01659L0.43311 4.76242L0.372277 4.83242C0.283349 4.95281 0.240578 5.10112 0.251742 5.25038C0.262906 5.39963 0.327262 5.53993 0.43311 5.64575L0.50311 5.70658C0.623502 5.79551 0.77181 5.83828 0.921068 5.82712C1.07033 5.81596 1.21062 5.7516 1.31644 5.64575L3.99728 2.96409V13.5458L4.00394 13.6308C4.02448 13.7804 4.09851 13.9175 4.21233 14.0168C4.32616 14.116 4.47208 14.1707 4.62311 14.1708L4.70728 14.1649C4.85706 14.1446 4.99438 14.0706 5.09382 13.9568C5.19326 13.8429 5.24808 13.6969 5.24811 13.5458L5.24728 2.96575L7.93311 5.64659L8.00311 5.70658C8.13003 5.79968 8.28741 5.84146 8.4438 5.82357C8.60018 5.80568 8.74406 5.72944 8.84668 5.61009C8.9493 5.49073 9.0031 5.33705 8.99734 5.17975C8.99158 5.02245 8.92668 4.87312 8.81561 4.76159L5.06228 1.01659L4.99144 0.956585C4.87105 0.867657 4.72274 0.824886 4.57349 0.83605C4.42423 0.847214 4.28393 0.911571 4.17811 1.01742V1.01659Z" fill="#0F0F0F"/>
</svg>
