<svg width="13" height="17" viewBox="0 0 13 17" fill="none" xmlns="http://www.w3.org/2000/svg">
<path d="M12.2083 15.5833C12.3741 15.5833 12.5331 15.6491 12.6503 15.7664C12.7675 15.8836 12.8333 16.0425 12.8333 16.2083C12.8333 16.3741 12.7675 16.533 12.6503 16.6502C12.5331 16.7675 12.3741 16.8333 12.2083 16.8333L1.375 16.8375C1.20924 16.8375 1.05027 16.7716 0.933058 16.6544C0.815848 16.5372 0.75 16.3782 0.75 16.2125C0.75 16.0467 0.815848 15.8877 0.933058 15.7705C1.05027 15.6533 1.20924 15.5875 1.375 15.5875L12.2083 15.5841V15.5833ZM6.70667 0.178297L6.79167 0.172464C6.9427 0.172471 7.08862 0.227166 7.20244 0.326437C7.31627 0.425707 7.39029 0.562836 7.41083 0.712464L7.41667 0.797464L7.41583 12.2016L10.5175 9.10163C10.6233 8.99578 10.7636 8.93143 10.9129 8.92026C11.0621 8.9091 11.2104 8.95187 11.3308 9.0408L11.4017 9.10163C11.5074 9.20756 11.5716 9.34791 11.5826 9.49716C11.5936 9.64642 11.5507 9.79467 11.4617 9.91496L11.4008 9.98496L7.23667 14.1491C7.13084 14.255 6.99055 14.3193 6.84129 14.3305C6.69203 14.3417 6.54373 14.2989 6.42333 14.21L6.3525 14.1491L2.18333 9.9858C2.07122 9.87442 2.00546 9.7247 1.9993 9.56678C1.99313 9.40887 2.04702 9.25448 2.15011 9.1347C2.2532 9.01492 2.39784 8.93864 2.55492 8.92122C2.71199 8.90379 2.86983 8.94652 2.99667 9.0408L3.06667 9.1008L6.16583 12.1958L6.16667 0.796631C6.16667 0.6456 6.22137 0.499679 6.32064 0.385855C6.41991 0.272031 6.55704 0.198004 6.70667 0.177464L6.79167 0.171631L6.70667 0.177464V0.178297Z" fill="#F3F3F3"/>
</svg>
