<svg xmlns="http://www.w3.org/2000/svg" width="12" height="10" viewBox="0 0 12 10"><g><g><path fill="#00cca3" d="M12.001 2.25V7.75c0 .62-.22 1.15-.66 1.589-.44.44-.97.66-1.59.66h-2.5a.24.24 0 0 1-.177-.074.24.24 0 0 1-.073-.176c0-.02-.003-.072-.008-.156a1.306 1.306 0 0 1 .02-.39.26.26 0 0 1 .077-.153.235.235 0 0 1 .16-.05h2.5c.344 0 .639-.122.883-.368a1.2 1.2 0 0 0 .368-.882V2.251c0-.344-.122-.639-.368-.883A1.204 1.204 0 0 0 9.751 1H7.313l-.09-.008c-.06-.005-.09-.013-.09-.023S7.112.945 7.07.927C7.03.909 7.01.885 7.016.856A.201.201 0 0 0 7 .751c0-.02-.002-.073-.008-.157a1.289 1.289 0 0 1 .02-.39.258.258 0 0 1 .078-.152.234.234 0 0 1 .16-.05h2.5c.62 0 1.15.22 1.59.659.44.44.66.97.66 1.59zM9.102 5.352l-4.25 4.25a.482.482 0 0 1-.352.147.482.482 0 0 1-.352-.148A.48.48 0 0 1 4 9.25V6.998H.5a.478.478 0 0 1-.352-.148.479.479 0 0 1-.149-.351v-3c0-.135.05-.252.149-.352A.482.482 0 0 1 .499 3H4V.75A.48.48 0 0 1 4.15.4a.48.48 0 0 1 .35-.149.48.48 0 0 1 .352.148l4.251 4.25a.48.48 0 0 1 .149.35c0 .136-.05.253-.149.352z"/></g></g></svg>