<svg width="118" height="28" viewBox="0 0 118 28" fill="none" xmlns="http://www.w3.org/2000/svg">
<path d="M27.5258 7.35998V20.8H30.3187V7.35998H27.5258ZM29.225 9.68318H31.9398C32.682 9.68318 33.2679 9.84958 33.6976 10.1824C34.1272 10.5024 34.3421 10.9888 34.3421 11.6416C34.3421 12.2816 34.1272 12.768 33.6976 13.1008C33.2679 13.4336 32.682 13.6 31.9398 13.6H29.225V15.9232H31.9398C33.0205 15.9232 33.9384 15.7504 34.6936 15.4048C35.4619 15.0592 36.0478 14.5664 36.4514 13.9264C36.8551 13.2736 37.0569 12.512 37.0569 11.6416C37.0569 10.7584 36.8551 9.99678 36.4514 9.35678C36.0478 8.71678 35.4619 8.22398 34.6936 7.87838C33.9384 7.53278 33.0205 7.35998 31.9398 7.35998H29.225V9.68318Z" fill="#0F0F0F"/>
<path d="M41.0823 11.968H38.6018V20.8H41.0823V11.968ZM43.719 14.56L44.8713 12.448C44.689 12.2176 44.4481 12.0448 44.1487 11.9296C43.8622 11.8144 43.5562 11.7568 43.2307 11.7568C42.7619 11.7568 42.3062 11.9232 41.8635 12.256C41.4208 12.576 41.0627 13.0112 40.7893 13.5616C40.5159 14.0992 40.3792 14.72 40.3792 15.424L41.0823 16.1152C41.0823 15.6928 41.1344 15.3344 41.2385 15.04C41.3557 14.7328 41.525 14.496 41.7463 14.3296C41.9677 14.1632 42.2346 14.08 42.5471 14.08C42.8075 14.08 43.0224 14.1248 43.1916 14.2144C43.3739 14.2912 43.5497 14.4064 43.719 14.56Z" fill="#0F0F0F"/>
<path d="M45.3205 16.384C45.3205 17.2928 45.5354 18.0992 45.965 18.8032C46.4077 19.4944 47.0002 20.032 47.7424 20.416C48.4976 20.8 49.3504 20.992 50.3009 20.992C51.2514 20.992 52.0978 20.8 52.84 20.416C53.5952 20.032 54.1876 19.4944 54.6173 18.8032C55.06 18.0992 55.2813 17.2928 55.2813 16.384C55.2813 15.4624 55.06 14.656 54.6173 13.9648C54.1876 13.2736 53.5952 12.736 52.84 12.352C52.0978 11.968 51.2514 11.776 50.3009 11.776C49.3504 11.776 48.4976 11.968 47.7424 12.352C47.0002 12.736 46.4077 13.2736 45.965 13.9648C45.5354 14.656 45.3205 15.4624 45.3205 16.384ZM47.8986 16.384C47.8986 15.8848 48.0028 15.4432 48.2111 15.0592C48.4325 14.6752 48.7254 14.3808 49.09 14.176C49.4546 13.9712 49.8582 13.8688 50.3009 13.8688C50.7436 13.8688 51.1473 13.9712 51.5119 14.176C51.8764 14.3808 52.1629 14.6752 52.3712 15.0592C52.5926 15.4432 52.7032 15.8848 52.7032 16.384C52.7032 16.8832 52.5926 17.3248 52.3712 17.7088C52.1629 18.08 51.8764 18.3744 51.5119 18.592C51.1473 18.7968 50.7436 18.8992 50.3009 18.8992C49.8582 18.8992 49.4546 18.7968 49.09 18.592C48.7254 18.3744 48.4325 18.08 48.2111 17.7088C48.0028 17.3248 47.8986 16.8832 47.8986 16.384Z" fill="#0F0F0F"/>
<path d="M56.4175 11.968V14.0608H62.0424V11.968H56.4175ZM61.769 8.31998L62.8432 6.45758C62.726 6.32958 62.5633 6.19518 62.3549 6.05438C62.1596 5.91358 61.9187 5.79838 61.6323 5.70878C61.3458 5.60638 61.0008 5.55518 60.5971 5.55518C59.9201 5.55518 59.3472 5.68318 58.8784 5.93918C58.4097 6.18238 58.0581 6.53438 57.8237 6.99518C57.5894 7.45598 57.4722 8.02558 57.4722 8.70398V20.8H59.9136V9.26078C59.9136 8.92798 59.9526 8.65278 60.0307 8.43518C60.1089 8.21758 60.213 8.06398 60.3432 7.97438C60.4865 7.87197 60.6557 7.82078 60.851 7.82078C61.0073 7.82078 61.1635 7.85918 61.3198 7.93598C61.4891 7.99998 61.6388 8.12798 61.769 8.31998Z" fill="#0F0F0F"/>
<path d="M63.4325 8.55038C63.4325 8.94718 63.5822 9.27998 63.8817 9.54878C64.1812 9.81758 64.5393 9.95198 64.9559 9.95198C65.3726 9.95198 65.7241 9.81758 66.0106 9.54878C66.3101 9.27998 66.4598 8.94718 66.4598 8.55038C66.4598 8.14078 66.3101 7.80798 66.0106 7.55198C65.7241 7.28318 65.3726 7.14878 64.9559 7.14878C64.5393 7.14878 64.1812 7.28318 63.8817 7.55198C63.5822 7.80798 63.4325 8.14078 63.4325 8.55038ZM63.7059 11.968V20.8H66.1668V11.968H63.7059Z" fill="#0F0F0F"/>
<path d="M67.6997 11.968V14.0608H73.2465V11.968H67.6997ZM69.2427 8.89598V20.8H71.6841V8.89598H69.2427Z" fill="#0F0F0F"/>
<path d="M80.4223 7.35997V20.8H83.2152V7.35997H80.4223ZM82.1215 9.68317H84.8363C85.5785 9.68317 86.1644 9.84957 86.5941 10.1824C87.0238 10.5024 87.2386 10.9888 87.2386 11.6416C87.2386 12.2816 87.0238 12.768 86.5941 13.1008C86.1644 13.4336 85.5785 13.6 84.8363 13.6H82.1215V15.9232H84.8363C85.917 15.9232 86.835 15.7504 87.5902 15.4048C88.3584 15.0592 88.9443 14.5664 89.348 13.9264C89.7516 13.2736 89.9534 12.512 89.9534 11.6416C89.9534 10.7584 89.7516 9.99677 89.348 9.35677C88.9443 8.71677 88.3584 8.22397 87.5902 7.87837C86.835 7.53277 85.917 7.35997 84.8363 7.35997H82.1215V9.68317Z" fill="#34B53A"/>
<path d="M90.6831 16.384C90.6831 17.2928 90.898 18.0992 91.3276 18.8032C91.7703 19.4944 92.3628 20.032 93.105 20.416C93.8602 20.8 94.713 20.992 95.6635 20.992C96.614 20.992 97.4604 20.8 98.2026 20.416C98.9578 20.032 99.5502 19.4944 99.9799 18.8032C100.423 18.0992 100.644 17.2928 100.644 16.384C100.644 15.4624 100.423 14.656 99.9799 13.9648C99.5502 13.2736 98.9578 12.736 98.2026 12.352C97.4604 11.968 96.614 11.776 95.6635 11.776C94.713 11.776 93.8602 11.968 93.105 12.352C92.3628 12.736 91.7703 13.2736 91.3276 13.9648C90.898 14.656 90.6831 15.4624 90.6831 16.384ZM93.2612 16.384C93.2612 15.8848 93.3654 15.4432 93.5737 15.0592C93.7951 14.6752 94.088 14.3808 94.4526 14.176C94.8172 13.9712 95.2208 13.8688 95.6635 13.8688C96.1062 13.8688 96.5099 13.9712 96.8745 14.176C97.239 14.3808 97.5255 14.6752 97.7338 15.0592C97.9552 15.4432 98.0659 15.8848 98.0659 16.384C98.0659 16.8832 97.9552 17.3248 97.7338 17.7088C97.5255 18.08 97.239 18.3744 96.8745 18.592C96.5099 18.7968 96.1062 18.8992 95.6635 18.8992C95.2208 18.8992 94.8172 18.7968 94.4526 18.592C94.088 18.3744 93.7951 18.08 93.5737 17.7088C93.3654 17.3248 93.2612 16.8832 93.2612 16.384Z" fill="#34B53A"/>
<path d="M101.936 16.384C101.936 17.2928 102.151 18.0992 102.581 18.8032C103.024 19.4944 103.616 20.032 104.358 20.416C105.113 20.8 105.966 20.992 106.917 20.992C107.867 20.992 108.714 20.8 109.456 20.416C110.211 20.032 110.803 19.4944 111.233 18.8032C111.676 18.0992 111.897 17.2928 111.897 16.384C111.897 15.4624 111.676 14.656 111.233 13.9648C110.803 13.2736 110.211 12.736 109.456 12.352C108.714 11.968 107.867 11.776 106.917 11.776C105.966 11.776 105.113 11.968 104.358 12.352C103.616 12.736 103.024 13.2736 102.581 13.9648C102.151 14.656 101.936 15.4624 101.936 16.384ZM104.514 16.384C104.514 15.8848 104.619 15.4432 104.827 15.0592C105.048 14.6752 105.341 14.3808 105.706 14.176C106.07 13.9712 106.474 13.8688 106.917 13.8688C107.359 13.8688 107.763 13.9712 108.128 14.176C108.492 14.3808 108.779 14.6752 108.987 15.0592C109.208 15.4432 109.319 15.8848 109.319 16.384C109.319 16.8832 109.208 17.3248 108.987 17.7088C108.779 18.08 108.492 18.3744 108.128 18.592C107.763 18.7968 107.359 18.8992 106.917 18.8992C106.474 18.8992 106.07 18.7968 105.706 18.592C105.341 18.3744 105.048 18.08 104.827 17.7088C104.619 17.3248 104.514 16.8832 104.514 16.384Z" fill="#34B53A"/>
<path d="M113.795 5.82397V20.8H116.334V5.82397H113.795Z" fill="#34B53A"/>
<path d="M13.9954 17.1209C13.9954 17.6572 13.928 18.1935 13.8016 18.7174C13.7889 18.7692 13.7784 18.8231 13.7637 18.8748C13.7637 18.8769 13.7615 18.879 13.7615 18.881C13.4561 20.02 12.8537 21.0905 11.9458 21.9851C11.2212 22.6974 10.3828 23.2172 9.48756 23.5506C9.48545 23.5526 9.48545 23.5527 9.48334 23.5527C8.685 23.8488 7.84031 23.9979 6.99562 23.9979C5.26622 23.9979 3.54315 23.3725 2.19713 22.1238C2.14868 22.0783 2.09812 22.0306 2.04968 21.9851C2.00333 21.9375 1.95489 21.8898 1.90855 21.8401C0.63625 20.5169 0.00219727 18.8231 0.00219727 17.123C0.00219727 16.9407 0.0106328 16.7585 0.025378 16.5784C0.295004 16.949 0.600432 17.3031 0.939571 17.6365C2.04546 18.7257 3.38517 19.4546 4.8007 19.8212C4.80281 19.8232 4.80702 19.8232 4.81123 19.8232C5.25991 19.9392 5.71491 20.0199 6.17411 20.0634C6.2689 20.0717 6.36791 20.0779 6.4627 20.0862C6.63964 20.0966 6.81657 20.1007 6.99351 20.1007C6.99562 20.1007 6.99984 20.1028 7.00195 20.1028C7.48854 20.1028 7.97301 20.0614 8.45328 19.9806C8.93356 19.8998 9.40752 19.7777 9.87094 19.6141C9.92992 19.5934 9.98889 19.5747 10.0479 19.554H10.05C11.1495 19.144 12.1796 18.5021 13.0643 17.6344C13.4035 17.3011 13.7068 16.947 13.9764 16.5742C13.9827 16.6508 13.9891 16.7295 13.9933 16.8082C13.9933 16.9118 13.9954 17.0153 13.9954 17.1209Z" fill="#34B53A"/>
<path d="M19.531 11.6729C19.531 11.8551 19.5226 12.0394 19.5079 12.2216C19.2361 11.851 18.9328 11.4969 18.5937 11.1635C17.4857 10.0743 16.1481 9.34536 14.7325 8.97883C14.7304 8.97676 14.7262 8.97676 14.722 8.97676C14.1849 8.83595 13.6351 8.74898 13.0832 8.71378C12.8999 8.70342 12.7146 8.69721 12.5313 8.69721C12.4028 8.69721 12.2722 8.69928 12.1437 8.70549C11.9752 8.71378 11.8067 8.7262 11.6381 8.74276C11.5244 8.75312 11.4128 8.76762 11.3011 8.78418C11.2464 8.79247 11.1895 8.80075 11.1347 8.8111C11.1094 8.81317 11.0842 8.81731 11.061 8.82145C11.0547 8.82352 11.0505 8.82353 11.0441 8.82353C11.0189 8.82767 10.9936 8.83181 10.9683 8.83802C10.9135 8.84838 10.8567 8.85873 10.8019 8.86908C10.7471 8.87944 10.6903 8.89393 10.6355 8.90636C10.606 8.91257 10.5807 8.91878 10.5533 8.92499C10.5386 8.92913 10.5238 8.93121 10.5112 8.93535C10.4965 8.93742 10.4838 8.94156 10.4691 8.9457C10.4143 8.95813 10.3574 8.97262 10.3027 8.98712C10.2332 9.00575 10.1657 9.02439 10.0962 9.04303C10.0899 9.0451 10.0815 9.04717 10.0752 9.04924C10.0688 9.05131 10.0646 9.05338 10.0583 9.05545C10.0562 9.05545 10.052 9.05752 10.0478 9.05752C10.0457 9.05752 10.0457 9.05752 10.0436 9.05959C10.033 9.06166 10.0183 9.06581 10.0056 9.06995C9.99933 9.07202 9.99513 9.07202 9.99091 9.07409C9.98459 9.07616 9.98038 9.07823 9.97406 9.0803C9.94036 9.09065 9.90875 9.101 9.87505 9.11136C9.84556 9.12171 9.81818 9.13 9.7908 9.14035C9.78659 9.14242 9.78026 9.14242 9.77605 9.14449C9.76131 9.14863 9.74656 9.15485 9.73392 9.15899C9.71917 9.16313 9.70443 9.16934 9.69179 9.17348C9.67704 9.17763 9.66441 9.18383 9.64967 9.18797C9.5949 9.20661 9.54224 9.22525 9.48958 9.24596H9.48747C8.3879 9.65597 7.35785 10.2979 6.47524 11.1655C6.1361 11.4989 5.83066 11.853 5.56104 12.2237C5.55472 12.1471 5.5505 12.0705 5.54629 11.9938C5.54208 11.8903 5.53998 11.7868 5.53998 11.6832C5.53998 11.6087 5.54629 11.5362 5.54629 11.4617C5.56104 10.9916 5.62633 10.5195 5.74008 10.0598C5.75061 10.0142 5.75904 9.97072 5.77168 9.92517C5.77168 9.9231 5.77168 9.92309 5.77379 9.92102C6.07923 8.78211 6.68167 7.71153 7.58955 6.81697C8.31417 6.10463 9.15254 5.58487 10.0499 5.25148C10.8546 4.95122 11.7056 4.8042 12.5608 4.8042C14.2796 4.8042 15.9964 5.43163 17.3403 6.67823C17.3888 6.72378 17.4372 6.76934 17.4857 6.81697V6.81904C17.5341 6.8646 17.5805 6.91222 17.6289 6.96192C18.8949 8.28306 19.531 9.97486 19.531 11.6729Z" fill="#34B53A"/>
<path d="M6.47314 17.6366C6.81228 17.97 7.17248 18.2703 7.54953 18.5353C7.36627 18.5498 7.18301 18.5581 6.99975 18.5581C6.39941 18.5581 5.79696 18.4815 5.21347 18.3303C5.21136 18.3303 5.20926 18.3283 5.20716 18.3283C4.05072 18.028 2.95957 17.4358 2.04959 16.5433C1.32497 15.8309 0.79414 15.0068 0.455001 14.1267C0.151672 13.3398 0 12.5074 0 11.6749C0 9.97692 0.636159 8.28305 1.90635 6.95777C1.95269 6.91014 2.00114 6.86251 2.04959 6.81489C2.09593 6.76726 2.14648 6.7217 2.19493 6.67408C3.54306 5.42334 5.26614 4.80005 6.99764 4.80005C7.18301 4.80005 7.36627 4.80833 7.55164 4.82282C7.54321 4.82904 7.53479 4.83318 7.52636 4.84146C7.15774 5.10237 6.80596 5.39642 6.47314 5.72153C5.36514 6.81074 4.62157 8.12774 4.25083 9.51722C4.24873 9.51929 4.24872 9.52343 4.24662 9.5255C4.05703 10.2316 3.96435 10.9564 3.96435 11.6811C3.96435 12.6958 4.14972 13.7105 4.52256 14.6734C4.93753 15.7543 5.59053 16.769 6.47314 17.6366Z" fill="#FF3A29"/>
<path d="M19.5311 17.1251C19.5311 18.8231 18.8949 20.517 17.6247 21.8423C17.5784 21.8899 17.5299 21.9375 17.4815 21.9852C17.433 22.0328 17.3846 22.0784 17.3361 22.126C15.988 23.3767 14.267 24 12.5376 24C12.3523 24 12.1648 23.9917 11.9815 23.9772C12.3586 23.7122 12.7188 23.4119 13.0579 23.0806C14.1638 21.9914 14.9074 20.6765 15.2802 19.2849C15.2824 19.2808 15.2824 19.2787 15.2824 19.2746C15.354 19.0095 15.4108 18.7424 15.4551 18.4732C15.4846 18.2951 15.5077 18.1149 15.5267 17.9348C15.552 17.6635 15.5667 17.3922 15.5667 17.121C15.5667 16.1042 15.3813 15.0896 15.0085 14.1246C14.8 13.5841 14.5324 13.0623 14.2059 12.5633C13.8816 12.0663 13.4961 11.5962 13.0558 11.1634C12.7167 10.828 12.3544 10.5298 11.9752 10.2626C12.0532 10.2564 12.1332 10.2523 12.2132 10.2482C12.3186 10.244 12.4239 10.2419 12.5292 10.2419C12.6788 10.2419 12.8304 10.2461 12.9821 10.2564C13.4308 10.2854 13.8773 10.3558 14.3176 10.4697C14.3197 10.4697 14.3197 10.4718 14.3239 10.4718C15.4803 10.7721 16.5715 11.3643 17.4815 12.2568C18.2061 12.9691 18.7348 13.7933 19.0761 14.6733C19.3794 15.4602 19.5311 16.2927 19.5311 17.1251Z" fill="#FFB200"/>
</svg>
