<svg width="280" height="124" viewBox="0 0 280 124" fill="none" xmlns="http://www.w3.org/2000/svg">
<g clip-path="url(#clip0_525_101)">
<path d="M13.1428 33.4228V24.1399H21.1578C24.4512 24.1399 25.6243 25.3713 25.6243 28.7813C25.6243 32.1914 23.4384 33.4228 20.9246 33.4228H13.1428ZM13.1428 50.3344V41.0516H22.0176C24.6042 41.0516 26.1271 42.2902 26.1271 45.693C26.1271 49.0957 24.954 50.3344 21.6678 50.3344H13.1428ZM0.0273438 57.7956H23.0158C30.5936 57.7956 35.2933 54.1524 35.2933 46.7495C35.2933 41.649 33.2385 38.5305 28.9469 37.2335V36.1187C32.6483 34.6614 34.776 31.7469 34.776 27.3095C34.776 20.147 30.2584 16.6787 21.9738 16.6787H0.0273438V24.5698H4.69061V49.9263H0.0273438V57.7956Z" fill="white"/>
<path d="M53.2187 35.1783V24.1395H62.5015C66.0791 24.1395 67.3761 25.6696 67.3761 29.6625C67.3761 33.6555 66.0791 35.1783 62.5015 35.1783H53.2187ZM44.5844 57.766H53.2187V42.4647H60.0314L69.0155 57.766H78.8302L69.4673 41.8745V39.8197C73.5768 38.3624 76.3383 34.7703 76.3383 29.0723C76.3383 20.7368 72.0539 16.6855 63.1208 16.6855H44.5625L44.5844 57.766Z" fill="white"/>
<path d="M94.9474 39.6447V33.8156L101.942 25.2395H103.29L110.577 34.1653V39.6301L94.9474 39.6447ZM119.204 57.795V30.6606L106.875 16.0879H98.6488L86.3203 30.6606V57.795H94.9474V47.5139H110.577V57.795H119.204Z" fill="white"/>
<path d="M128.582 16.6787V43.2229L141.209 58.0871H149.96L162.646 43.1063V16.6787H153.837V40.1699L146.434 49.2779H145.086L137.391 39.8202V16.6787H128.582Z" fill="white"/>
<path d="M173.074 16.6787V57.7883H201.564V49.9191H181.534V41.1681H196.864V33.2989H181.534V24.548H200.974V16.6787H173.074Z" fill="white"/>
<path d="M224.522 0L213.068 6.75445V16.2121L221.761 11.0971H222.876V33.2403H211.254V41.1096H241.908V33.2403H231.335V0H224.522Z" fill="white"/>
<path d="M39.375 86.7662C39.375 91.4367 41.4079 93.7247 45.583 93.7247C49.7581 93.7247 51.7909 91.393 51.7909 86.7662V78.416H48.585V86.7662C48.585 89.6151 47.7689 90.73 45.583 90.73C43.3971 90.73 42.5883 89.6151 42.5883 86.7662V78.416H39.375V86.7662Z" fill="white"/>
<path d="M55.7266 93.404H58.9326V89.2071L61.3298 86.4674L65.228 93.404H68.9149L63.5594 83.8954L68.332 78.416H64.3536L58.9326 84.6458V78.416H55.7266V83.7933H55.7411V91.6262H55.7266V93.404Z" fill="white"/>
<path d="M74.1516 85.1627V81.1333H77.5398C78.844 81.1333 79.3103 81.6943 79.3103 83.1516C79.3103 84.6089 78.844 85.1627 77.5398 85.1627H74.1516ZM71.0039 93.4035H74.1516V87.8367H76.6363L79.9151 93.4035H83.4854L80.0827 87.5744V86.8458C81.5837 86.3139 82.5892 85.0024 82.5892 82.9257C82.5892 79.8873 81.0299 78.4082 77.7729 78.4082H71.0039V93.4035Z" fill="white"/>
<path d="M89.0774 86.7874V84.6671L91.6276 81.5413H92.1231L94.7753 84.7983V86.7874H89.0774ZM97.923 93.4034V83.5158L93.4273 78.2041H90.4327L85.9297 83.5158V93.4034H89.0774V89.6583H94.7535V93.4034H97.923Z" fill="white"/>
<path d="M110.708 78.416H101.199V81.2868H104.413V90.5332H101.199V93.404H110.708V90.5332H107.495V81.2868H110.708V78.416Z" fill="white"/>
<path d="M117.259 83.7715L122.87 93.404H126.294V78.416H123.147V82.7587L123.446 88.0486H123.125L117.514 78.416H114.09V93.404H117.238V89.0541L116.939 83.7715H117.259Z" fill="white"/>
<path d="M139.185 78.416H129.684V81.2868H132.89V90.5332H129.684V93.404H139.185V90.5332H135.979V81.2868H139.185V78.416Z" fill="white"/>
<path d="M145.394 86.7874V84.6671L147.944 81.5413H148.432L151.092 84.7983V86.7874H145.394ZM154.239 93.4034V83.5158L149.744 78.2041H146.742L142.246 83.5158V93.4034H145.394V89.6583H151.092V93.4034H154.239Z" fill="white"/>
<path d="M161.584 83.7715L167.194 93.404H170.619V78.416H167.471V82.7587L167.77 88.0486H167.449L161.839 78.416H158.414V93.404H161.562V89.0541L161.263 83.7715H161.584Z" fill="white"/>
<path d="M184.484 90.4531V81.4034H186.67C189.002 81.4034 189.876 82.6421 189.876 85.9428C189.876 89.2435 189.002 90.4822 186.67 90.4822L184.484 90.4531ZM181.293 93.4041H186.67C191.1 93.4041 193.286 90.8975 193.286 85.9137C193.286 80.9298 191.144 78.416 186.67 78.416H181.293V93.4041Z" fill="white"/>
<path d="M196.93 78.416V93.404H207.313V90.5332H200.012V87.3418H205.6V84.4783H200.012V81.2868H207.101V78.416H196.93Z" fill="white"/>
<path d="M210.844 78.416V93.404H214.013V87.4074H219.515V84.4783H214.013V81.367H221.015V78.416H210.844Z" fill="white"/>
<path d="M224.012 78.416V93.404H234.395V90.5332H227.094V87.3418H232.682V84.4783H227.094V81.2868H234.183V78.416H224.012Z" fill="white"/>
<path d="M241.099 83.7715L246.71 93.404H250.134V78.416H246.987V82.7587L247.285 88.0486H246.965L241.354 78.416H237.93V93.404H241.077V89.0541L240.779 83.7715H241.099Z" fill="white"/>
<path d="M269.617 78.416V93.404H280.008V90.5332H272.699V87.3418H278.288V84.4783H272.699V81.2868H279.789V78.416H269.617Z" fill="white"/>
<path d="M265.98 89.2355C265.98 85.6725 263.066 85.0313 260.617 84.4921C258.883 84.1278 257.426 83.829 257.426 82.583C257.426 81.3371 258.023 80.9145 259.976 80.9145C261.543 80.9145 262.271 81.4464 262.381 82.9109H265.681C265.507 79.6685 264.071 78.0801 259.889 78.0801C256.326 78.0801 254.249 79.5373 254.249 82.4519C254.249 86.1606 257.098 86.7581 259.481 87.2536C261.178 87.5961 262.636 87.9167 262.636 89.2719C262.636 90.4742 261.907 90.9041 260.064 90.9041C258.344 90.9041 257.528 90.2337 257.36 88.8202H254.074C254.184 92.0189 256.114 93.7312 259.903 93.7312C263.692 93.7312 265.98 92.2375 265.98 89.2355Z" fill="white"/>
<path d="M48.2704 104.107H38.7617V106.978H41.975V116.225H38.7617V119.095H48.2704V116.225H45.0571V106.978H48.2704V104.107Z" fill="white"/>
<path d="M54.8219 109.463L60.4324 119.095H63.857V104.107H60.7093V108.457L61.008 113.747H60.6874L55.0769 104.107H51.6523V119.095H54.8V114.753L54.5013 109.463H54.8219Z" fill="white"/>
<path d="M71.3102 109.463L76.9207 119.095H80.3453V104.107H77.1976V108.457L77.4963 113.747H77.1757L71.5652 104.107H68.1406V119.095H71.2883V114.753L70.9896 109.463H71.3102Z" fill="white"/>
<path d="M87.4069 111.605C87.4069 108.093 88.2448 106.789 90.5108 106.789C92.7769 106.789 93.6148 108.093 93.6148 111.605C93.6148 115.117 92.7842 116.422 90.5108 116.422C88.2375 116.422 87.4069 115.117 87.4069 111.605ZM90.5108 119.424C94.8827 119.424 97.0686 116.808 97.0686 111.605C97.0686 106.403 94.9264 103.787 90.5108 103.787C86.0953 103.787 83.9531 106.403 83.9531 111.605C83.9531 116.808 86.1245 119.424 90.5108 119.424Z" fill="white"/>
<path d="M100.582 104.107V113.784L105.187 119.205H108.378L112.998 113.747V104.107H109.792V112.676L107.089 115.991H106.601L103.795 112.545V104.107H100.582Z" fill="white"/>
<path d="M119.779 112.48V110.367L122.329 107.241H122.825L125.477 110.491V112.48H119.779ZM128.625 119.103V109.208L124.129 103.896H121.134L116.609 109.208V119.103H119.757V115.351H125.455V119.103H128.625Z" fill="white"/>
<path d="M142.654 104.107H130.449V107.153H134.945V119.095H138.158V107.153H142.654V104.107Z" fill="white"/>
<path d="M154.259 104.107H144.75V106.978H147.963V116.225H144.75V119.095H154.259V116.225H151.045V106.978H154.259V104.107Z" fill="white"/>
<path d="M160.422 111.605C160.422 108.093 161.26 106.789 163.526 106.789C165.793 106.789 166.63 108.093 166.63 111.605C166.63 115.117 165.8 116.422 163.526 116.422C161.253 116.422 160.422 115.117 160.422 111.605ZM163.526 119.424C167.898 119.424 170.084 116.808 170.084 111.605C170.084 106.403 167.942 103.787 163.526 103.787C159.111 103.787 156.969 106.403 156.969 111.605C156.969 116.808 159.14 119.424 163.526 119.424Z" fill="white"/>
<path d="M176.869 109.463L182.479 119.095H185.904V104.107H182.756V108.457L183.062 113.747H182.734L177.124 104.107H173.699V119.095H176.847V114.753L176.548 109.463H176.869Z" fill="white"/>
<path d="M201.279 114.92C201.279 111.364 198.364 110.723 195.923 110.184C194.189 109.82 192.732 109.521 192.732 108.282C192.732 107.044 193.336 106.606 195.282 106.606C196.848 106.606 197.57 107.146 197.679 108.603H200.98C200.805 105.368 199.37 103.779 195.194 103.779C191.639 103.779 189.562 105.237 189.562 108.151C189.562 111.853 192.411 112.457 194.786 112.946C196.484 113.288 197.934 113.609 197.934 114.957C197.934 116.159 197.205 116.589 195.369 116.589C193.657 116.589 192.841 115.926 192.673 114.512H189.395C189.504 117.704 191.427 119.416 195.224 119.416C199.02 119.416 201.279 117.922 201.279 114.92Z" fill="white"/>
<path d="M0.421875 80.2588L0.582173 80.1568C1.0995 80.3972 1.61684 80.6231 2.13417 80.8854C3.28443 81.4623 4.31919 82.2451 5.18715 83.1952C6.13479 84.4009 6.85568 85.7686 7.31477 87.2318C7.80646 88.7297 8.15055 90.272 8.34214 91.8368C8.53763 93.2644 8.64954 94.7023 8.67732 96.143C8.67732 97.4327 8.67732 98.7297 8.67732 100.019C8.68002 100.058 8.68002 100.097 8.67732 100.136H7.44592C7.14408 100.129 6.85104 100.238 6.62636 100.439C6.40168 100.641 6.26224 100.921 6.23638 101.222C6.21208 101.483 6.25488 101.745 6.36073 101.985C6.46657 102.225 6.63195 102.434 6.84115 102.591C7.25382 102.896 7.71429 103.13 8.2037 103.284L8.62631 103.429C8.64762 103.398 8.66477 103.363 8.67732 103.327C9.61061 100.86 10.8676 98.5272 12.4152 96.3908C12.4578 96.3258 12.4806 96.2498 12.4808 96.1722C12.4808 95.1666 12.4808 94.1684 12.4808 93.1702C12.4808 92.1719 12.4152 91.1664 12.3715 90.1463C12.3278 89.2793 12.2622 88.4049 12.1893 87.5378C12.1165 86.6708 11.9999 85.6507 11.8906 84.7107C11.8104 84.0549 11.7157 83.3919 11.621 82.7361C11.4309 81.5465 11.4754 80.3311 11.7522 79.1585C12.0339 78.0513 12.4371 76.9785 12.9544 75.9598C13.2167 75.4425 13.4572 74.9179 13.683 74.4005L13.7632 74.2402L13.8069 74.2912C14.2514 75.2166 14.7104 76.1347 15.1257 77.0746C15.619 78.1764 15.9338 79.3496 16.0584 80.5502C16.1058 81.008 16.1058 81.4695 16.0584 81.9273C15.9782 82.7507 15.8398 83.5595 15.7451 84.3756C15.6504 85.1916 15.5265 86.219 15.4318 87.1444C15.286 88.6454 15.1937 90.1488 15.1549 91.6546C15.1549 93.1483 15.1112 94.6493 15.0966 96.143C15.0965 96.2342 15.1245 96.3233 15.1767 96.398C16.2737 97.9129 17.2251 99.5279 18.0184 101.222C18.3317 101.892 18.594 102.584 18.8782 103.262L18.9511 103.429L19.4538 103.262C19.8397 103.13 20.2089 102.954 20.5541 102.737C20.8863 102.54 21.1428 102.237 21.2827 101.877C21.374 101.586 21.374 101.273 21.2827 100.981C21.2089 100.731 21.0545 100.513 20.8436 100.36C20.6327 100.207 20.3772 100.128 20.1169 100.136H18.8855C18.8855 99.9756 18.8855 99.8153 18.8855 99.6623C18.8855 98.4309 18.8855 97.1995 18.8855 95.9681C18.9147 94.6423 19.0169 93.319 19.1915 92.0044C19.3731 90.4746 19.695 88.9648 20.1533 87.4941C20.5328 86.2665 21.0796 85.097 21.7782 84.0185C22.6528 82.6632 23.8966 81.5863 25.3631 80.9145L27.0171 80.1859L27.1628 80.1276V111.568C27.1628 111.581 27.1602 111.594 27.155 111.606C27.1497 111.618 27.1421 111.629 27.1325 111.638C27.1229 111.647 27.1116 111.654 27.0993 111.658C27.0869 111.662 27.0738 111.664 27.0608 111.663H19.9857C19.9347 111.925 19.8837 112.166 19.8327 112.392C19.4859 113.916 18.8232 115.351 17.8873 116.603C17.4619 117.167 16.9916 117.696 16.481 118.184C16.0212 118.643 15.6331 119.169 15.3298 119.744C15.0092 120.326 14.7833 120.953 14.521 121.565L13.8725 123.205L13.8069 123.336C13.7791 123.281 13.7548 123.225 13.734 123.168C13.3552 122.25 13.0054 121.332 12.5974 120.421C12.2523 119.608 11.7581 118.867 11.1401 118.235C10.8049 117.885 10.4625 117.55 10.1492 117.179C9.27794 116.166 8.59889 115.003 8.14541 113.747C7.91038 113.098 7.73241 112.43 7.61351 111.75C7.61526 111.721 7.61526 111.692 7.61351 111.663H0.523884C0.510846 111.664 0.49774 111.662 0.485393 111.658C0.473046 111.654 0.461724 111.647 0.452142 111.638C0.442559 111.629 0.434923 111.618 0.429714 111.606C0.424504 111.594 0.421837 111.581 0.421875 111.568V80.2588ZM24.5543 84.7472L24.445 84.8637C23.8782 85.5614 23.4189 86.34 23.0824 87.1735C22.6426 88.2523 22.313 89.3728 22.0988 90.5179C21.8368 91.8623 21.6688 93.2233 21.596 94.591C21.5377 95.5747 21.5232 96.5656 21.4867 97.5566C21.4758 97.6106 21.4865 97.6668 21.5165 97.7131C21.5464 97.7593 21.5933 97.7921 21.647 97.8043C22.2191 98.0469 22.7205 98.4304 23.1043 98.9191C23.3505 99.2133 23.5474 99.5455 23.6872 99.9028C23.6974 99.9381 23.7199 99.9685 23.7507 99.9886C23.7814 100.009 23.8184 100.017 23.8548 100.012H24.5251L24.5543 84.7472ZM3.05225 100.012H3.67159C3.99219 100.012 3.67159 100.078 4.3565 99.1158C4.80601 98.5639 5.36399 98.1101 5.99594 97.7824C6.0359 97.7614 6.06808 97.7281 6.08774 97.6875C6.10741 97.6468 6.11354 97.601 6.10523 97.5566C6.10523 96.7769 6.10523 95.99 6.03237 95.2104C5.96933 93.744 5.80868 92.2835 5.55147 90.8385C5.35672 89.7521 5.06907 88.6844 4.69168 87.6471C4.38102 86.801 3.9596 85.9998 3.43843 85.2645C3.32184 85.1042 3.19069 84.9512 3.06682 84.7909L3.05225 100.012ZM24.4523 109.011C24.4653 109.011 24.4783 109.008 24.4903 109.003C24.5023 108.998 24.5131 108.99 24.522 108.98C24.5309 108.971 24.5377 108.96 24.542 108.947C24.5463 108.935 24.548 108.922 24.547 108.909V102.635H23.8184C23.8184 102.635 23.7528 102.693 23.7382 102.73C23.6435 102.934 23.5633 103.152 23.454 103.349C23.0686 104.045 22.5021 104.624 21.8146 105.025C21.1705 105.405 20.4831 105.706 19.7671 105.921L19.6943 106.045C19.9101 106.986 20.0442 107.944 20.095 108.909C20.095 108.934 20.105 108.958 20.1228 108.976C20.1405 108.993 20.1646 109.003 20.1898 109.003L24.4523 109.011ZM7.89039 105.958L7.64265 105.878C6.90606 105.654 6.20457 105.328 5.55875 104.908C4.80212 104.422 4.21626 103.711 3.88289 102.876C3.78817 102.635 3.78817 102.635 3.54043 102.635H3.05225V108.901C3.05124 108.914 3.05295 108.928 3.05726 108.94C3.06156 108.952 3.06838 108.964 3.07728 108.973C3.08618 108.983 3.09696 108.99 3.10896 108.996C3.12095 109.001 3.13389 109.003 3.14697 109.003H7.38034C7.4049 109.002 7.42802 108.991 7.44543 108.974C7.46284 108.956 7.47337 108.933 7.47507 108.909C7.52241 107.914 7.66144 106.927 7.89039 105.958ZM13.7195 99.1377C12.7172 100.701 11.875 102.361 11.2057 104.092C11.2024 104.103 11.2016 104.115 11.2032 104.126C11.2049 104.138 11.2089 104.149 11.2151 104.158C11.2214 104.168 11.2296 104.176 11.2393 104.183C11.249 104.189 11.2599 104.193 11.2713 104.194C12.2155 104.502 13.0624 105.052 13.7268 105.79C13.7349 105.801 13.7454 105.809 13.7574 105.815C13.7694 105.821 13.7826 105.824 13.796 105.824C13.8093 105.824 13.8225 105.821 13.8345 105.815C13.8465 105.809 13.857 105.801 13.8652 105.79C14.5327 105.051 15.3816 104.498 16.328 104.187C16.3401 104.183 16.3513 104.177 16.3609 104.168C16.3704 104.16 16.3781 104.149 16.3836 104.138C16.389 104.126 16.3921 104.114 16.3925 104.101C16.393 104.088 16.3909 104.075 16.3863 104.063C15.7144 102.344 14.8723 100.697 13.8725 99.145C13.8635 99.1348 13.8525 99.1265 13.8403 99.1206C13.828 99.1147 13.8147 99.1114 13.8012 99.1107C13.7876 99.11 13.774 99.112 13.7612 99.1167C13.7484 99.1213 13.7367 99.1285 13.7268 99.1377H13.7195ZM10.3167 111.765C10.6324 113.187 11.3129 114.503 12.2913 115.583C12.3052 115.597 12.3228 115.607 12.3421 115.611C12.3615 115.616 12.3816 115.614 12.4002 115.607C12.4187 115.6 12.4348 115.588 12.4466 115.572C12.4583 115.556 12.4651 115.537 12.4662 115.517V111.743C12.4662 111.718 12.4562 111.694 12.4385 111.676C12.4207 111.658 12.3966 111.648 12.3715 111.648H10.4188C10.4042 111.648 10.3898 111.651 10.3766 111.657C10.3634 111.663 10.3518 111.672 10.3427 111.683C10.3335 111.695 10.3271 111.708 10.3238 111.722C10.3206 111.736 10.3207 111.751 10.324 111.765H10.3167ZM15.1112 111.765V115.59C15.1108 115.61 15.116 115.629 15.1263 115.646C15.1366 115.663 15.1515 115.676 15.1691 115.684C15.1868 115.693 15.2066 115.696 15.226 115.694C15.2454 115.691 15.2637 115.683 15.2787 115.67C16.2491 114.554 16.9342 113.219 17.2752 111.78C17.2762 111.766 17.2743 111.751 17.2696 111.738C17.265 111.725 17.2576 111.713 17.248 111.703C17.2385 111.692 17.2269 111.684 17.214 111.679C17.2011 111.673 17.1872 111.67 17.1732 111.67H15.2205C15.1975 111.668 15.1745 111.674 15.1557 111.687C15.1369 111.701 15.1237 111.721 15.1184 111.743L15.1112 111.765ZM15.2423 109.025H17.4282C17.4559 109.023 17.4819 109.011 17.5008 108.991C17.5198 108.971 17.5303 108.944 17.5302 108.916C17.4883 108.21 17.3909 107.508 17.2388 106.818C17.2319 106.79 17.2142 106.766 17.1897 106.75C17.1651 106.735 17.1356 106.731 17.1076 106.737C16.6221 106.9 16.1881 107.188 15.8491 107.571C15.5101 107.955 15.2782 108.421 15.1767 108.923C15.1809 108.942 15.1898 108.959 15.2025 108.973C15.2153 108.987 15.2315 108.998 15.2496 109.003L15.2423 109.025ZM12.4516 108.923C12.3388 108.423 12.1003 107.96 11.7586 107.577C11.4169 107.195 10.9834 106.906 10.4989 106.737C10.4731 106.735 10.4472 106.741 10.4259 106.756C10.4045 106.771 10.3891 106.793 10.3823 106.818C10.2331 107.513 10.1381 108.22 10.0982 108.931C10.0958 108.944 10.0966 108.957 10.1005 108.97C10.1043 108.983 10.1111 108.995 10.1202 109.005C10.1294 109.015 10.1407 109.023 10.1533 109.027C10.1659 109.032 10.1795 109.034 10.1929 109.033H12.3788C12.4067 109.026 12.4308 109.008 12.4458 108.983C12.4608 108.959 12.4655 108.929 12.4589 108.901L12.4516 108.923Z" fill="white"/>
</g>
<defs>
<clipPath id="clip0_525_101">
<rect width="280" height="123.336" fill="white"/>
</clipPath>
</defs>
</svg>
