<svg width="100" height="50" viewBox="0 0 100 50" fill="none" xmlns="http://www.w3.org/2000/svg">
<path d="M12.9678 37.5028H14.4804V38.1174C15.0561 37.3889 15.756 37.332 16.0833 37.332C17.2122 37.332 17.6411 38.0491 17.7879 38.3222C18.0475 37.9011 18.578 37.332 19.515 37.332C20.3503 37.332 20.7567 37.719 20.9712 37.9922C21.3211 38.4588 21.3437 38.9141 21.3437 39.5173V42.9205H19.831V39.9726C19.831 39.3352 19.6956 39.0507 19.5827 38.9141C19.3795 38.6637 19.1086 38.6409 18.9619 38.6409C18.5555 38.6409 18.2958 38.823 18.1265 39.119C17.9233 39.449 17.912 39.8815 17.912 40.1661V42.9318H16.3994V39.984C16.3994 39.3466 16.264 39.0621 16.1511 38.9255C15.9479 38.6751 15.677 38.6523 15.5302 38.6523C15.1238 38.6523 14.8642 38.8344 14.6949 39.1303C14.4917 39.4604 14.4804 39.8929 14.4804 40.1775V42.9432H12.9678V37.5028Z" fill="#0A39A8"/>
<path d="M35.6011 37.5024H37.1137V42.9201H35.6011V42.2145C35.0593 42.9998 34.3368 43.0909 33.953 43.0909C32.3049 43.0909 31.21 41.7933 31.21 40.1999C31.21 38.5951 32.2936 37.3203 33.874 37.3203C34.2804 37.3203 35.0931 37.4 35.6011 38.1967V37.5024ZM32.779 40.1999C32.779 41.0649 33.3999 41.7364 34.2691 41.7364C35.1383 41.7364 35.7591 41.0649 35.7591 40.1999C35.7591 39.3349 35.1383 38.6747 34.2691 38.6747C33.3999 38.6747 32.779 39.3349 32.779 40.1999Z" fill="#0A39A8"/>
<path d="M47.2838 37.5024H48.7964V38.3105C49.0334 37.8439 49.3495 37.6276 49.4624 37.5593C49.6995 37.4114 49.993 37.3203 50.3542 37.3203C50.6138 37.3203 50.8283 37.3772 50.9976 37.4455L50.7944 38.8682C50.5912 38.7316 50.3993 38.6634 50.0833 38.6634C49.8011 38.6634 49.3721 38.7203 49.0786 39.0959C48.7964 39.4601 48.7851 39.9267 48.7851 40.2909V42.8974H47.2725V37.5024H47.2838Z" fill="#0A39A8"/>
<path d="M61.9818 33.5527V39.4826L63.9911 37.5022H65.9553L63.438 39.881L66.1585 42.9199H64.1492L62.1511 40.6094L61.9931 40.7574V42.9199H60.4805V33.5527H61.9818Z" fill="#0A39A8"/>
<path d="M80.8101 41.4064C80.6521 41.8047 80.0425 43.0909 78.1687 43.0909C77.2995 43.0909 76.6447 42.8405 76.1142 42.3283C75.5159 41.7706 75.2676 41.0649 75.2676 40.2113C75.2676 39.1414 75.6965 38.4699 76.0916 38.0829C76.7238 37.4569 77.4688 37.3203 78.1122 37.3203C79.2072 37.3203 79.8393 37.7528 80.2118 38.2081C80.7876 38.891 80.8553 39.7446 80.8553 40.3365V40.4617H76.8367C76.8367 40.7917 76.927 41.1332 77.0963 41.3722C77.2543 41.5999 77.593 41.8844 78.18 41.8844C78.7557 41.8844 79.1846 41.6112 79.433 41.1673L80.8101 41.4064ZM79.4217 39.4828C79.2975 38.743 78.6992 38.3902 78.1461 38.3902C77.593 38.3902 77.006 38.7544 76.8818 39.4828H79.4217Z" fill="#0A39A8"/>
<path d="M92.2457 38.7992V42.9194H90.733V38.7992H90.1348V37.5017H90.733V35.6465H92.2457V37.5017H93.2842V38.7992H92.2457Z" fill="#0A39A8"/>
<path d="M11.9626 5.83804V13.4524H25.1812V18.8018H11.9626V29.2958H5.34766V0.5H26.9308V5.84942H11.9626V5.83804Z" fill="#0A39A8"/>
<path d="M36.9211 27.8739C34.5732 26.5991 32.7219 24.835 31.3673 22.57C30.024 20.305 29.3467 17.7441 29.3467 14.8873C29.3467 12.0305 30.024 9.48099 31.3673 7.21602C32.7106 4.95106 34.5619 3.18689 36.9211 1.91213C39.2691 0.637378 41.9218 0 44.8568 0C47.3289 0 49.564 0.443888 51.5733 1.32028C53.5713 2.19668 55.2533 3.46005 56.6079 5.1104L52.3635 9.05987C50.4332 6.80628 48.0401 5.69087 45.1841 5.69087C43.4119 5.69087 41.8428 6.07785 40.4543 6.86319C39.0659 7.64853 37.9822 8.7298 37.2146 10.1298C36.4357 11.5297 36.0519 13.1231 36.0519 14.8987C36.0519 16.6856 36.4357 18.2677 37.2146 19.6677C37.9935 21.0676 39.0772 22.1603 40.4543 22.9342C41.8315 23.7082 43.4232 24.1065 45.1841 24.1065C48.0401 24.1065 50.4332 22.9684 52.3635 20.692L56.6079 24.6415C55.242 26.3146 53.56 27.5893 51.5507 28.4657C49.5414 29.3421 47.295 29.786 44.8229 29.786C41.9105 29.786 39.2691 29.1486 36.9211 27.8739Z" fill="#0A39A8"/>
<path d="M87.052 29.2962L87.0069 12.0187L78.5971 26.2572H75.6283L67.2637 12.3943V29.3075H61.0664V0.511719H66.5299L77.2199 18.4038L87.7519 0.511719H93.1816L93.2606 29.3075H87.052V29.2962Z" fill="#0A39A8"/>
<path d="M10.7548 50.0002C10.7548 50.0002 -26.1127 19.5996 100 8.58203C100 8.58203 27.6986 9.5381 5.73156 28.1131C-9.63179 40.7127 10.7548 50.0002 10.7548 50.0002Z" fill="#C21E37"/>
</svg>
