<svg width="195" height="65" viewBox="0 0 195 65" fill="none" xmlns="http://www.w3.org/2000/svg">
<rect width="195" height="65" fill="#F4E800"/>
<mask id="mask0_525_411" style="mask-type:luminance" maskUnits="userSpaceOnUse" x="20" y="3" width="155" height="45">
<path d="M175 3H20V47.2678H175V3Z" fill="white"/>
</mask>
<g mask="url(#mask0_525_411)">
<path d="M27.4444 29.4423V23.4854H32.6064C34.7152 23.4854 35.4726 24.2756 35.4726 26.4639C35.4726 28.6521 34.0793 29.4423 32.4568 29.4423H27.4444ZM27.4444 40.2947V34.3378H33.1348C34.7946 34.3378 35.7719 35.128 35.7719 37.3163C35.7719 39.5045 35.0191 40.2947 32.9056 40.2947H27.4397H27.4444ZM19 45.0827H33.7753C38.6381 45.0827 41.654 42.7448 41.654 37.9989C41.654 34.7212 40.3354 32.7247 37.5814 31.8924V31.177C39.9567 30.2325 41.3126 28.3482 41.3126 25.5241C41.3126 20.9278 38.409 18.7021 33.0974 18.7021H19V23.7519H22.0159V40.0329H19V45.0827Z" fill="black"/>
<path d="M53.1431 30.5738V23.4901H59.1C61.4004 23.4901 62.228 24.472 62.228 27.0343C62.228 29.5966 61.4004 30.5785 59.1 30.5785H53.1431V30.5738ZM47.6023 45.0827H53.1431V35.2823H57.5149L63.2801 45.0827H69.5736L63.5793 34.8709V33.5523C66.2164 32.6078 67.9886 30.312 67.9886 26.6556C67.9886 21.3019 65.2392 18.7021 59.5068 18.7021H47.5977V45.0827H47.6023Z" fill="black"/>
<path d="M79.9353 33.4401V29.7089L84.4193 24.2055H85.2843L89.9554 29.9333V33.4401H79.9306H79.9353ZM95.5008 45.0874V27.6749L87.5848 18.3281H82.3106L74.3945 27.6749V45.0874H79.9353V38.4899H89.9601V45.0874H95.5008Z" fill="black"/>
<path d="M101.512 18.7021V35.7359L109.615 45.2697H115.23L123.371 35.6611V18.7021H117.718V33.7767L112.972 39.6167H112.102L107.165 33.5523V18.7021H101.512Z" fill="black"/>
<path d="M130.066 18.7021V45.0827H148.344V40.0329H135.49V34.4173H145.328V29.3675H135.49V23.7519H147.965V18.7021H130.066Z" fill="black"/>
<path d="M163.082 8L155.731 12.3344V18.4035L161.31 15.1211H162.025V29.3307H154.562V34.3805H174.233V29.3307H167.453V8H163.082Z" fill="black"/>
</g>
</svg>
