<svg xmlns="http://www.w3.org/2000/svg" width="17" height="13" viewBox="0 0 17 13"><g><g><path fill="#51bff7" d="M17 2.092v8.82A2.086 2.086 0 0 1 14.92 13H2.08A2.086 2.086 0 0 1 0 10.911V2.09C0 .937.932 0 2.079 0h12.846C16.07 0 17.003.94 17 2.092zm-.95 8.82v-8.82c0-.625-.506-1.134-1.129-1.134H2.08c-.623 0-1.13.509-1.13 1.134v8.82c0 .625.507 1.134 1.13 1.134h12.845c.623 0 1.13-.51 1.13-1.135zm-1.154-.538a.48.48 0 0 1 .018.675.474.474 0 0 1-.672.018L10.014 7.03 8.83 8.098a.47.47 0 0 1-.633.003L7.042 7.066l-4.253 3.997a.474.474 0 0 1-.671-.025.48.48 0 0 1 .02-.675l4.19-3.94-4.207-3.78a.478.478 0 0 1 .633-.713l4.552 4.093a.702.702 0 0 1 .084.077L8.51 7.105l5.733-5.172a.475.475 0 0 1 .672.036.48.48 0 0 1-.035.675L10.72 6.39z"/></g></g></svg>