<svg xmlns="http://www.w3.org/2000/svg" width="56" height="37" viewBox="0 0 56 37"><g><g><path fill="#51bff7" d="M17.02 17.927l-.601 4.294H15.07l.05-.597c-.023.002-.49.715-1.57.715-.566 0-1.477-.311-1.477-1.68 0-1.736 1.39-2.31 2.714-2.31.209 0 .658.038.658.038s.05-.107.05-.394c0-.471-.416-.536-.986-.536-1.005 0-1.668.275-1.668.275l.222-1.344s.804-.343 1.853-.343c.542 0 2.102.058 2.103 1.882zm-1.775 1.614c-.044-.008-.072-.035-.333-.036-1.122 0-1.35.513-1.35.94 0 .22.125.589.6.589.922 0 1.112-1.23 1.083-1.493zm3.698-1.548c0 .78 1.824.396 1.824 2.334 0 2.072-1.97 1.981-2.315 1.981-1.284 0-1.681-.18-1.718-.19l.205-1.365c.002-.01.644.239 1.36.239.412 0 .948-.042.948-.543 0-.753-1.917-.571-1.917-2.358 0-1.575 1.149-2.035 2.282-2.035.874 0 1.412.122 1.412.122l-.194 1.376s-.83-.07-1.045-.07c-.545 0-.842.121-.842.51zm3.633 2.372c-.034.213.025.503.557.503.136 0 .29-.047.395-.047l-.191 1.326c-.154.043-.59.2-1.148.205-.713.007-1.22-.401-1.22-1.322 0-.618.87-5.713.904-5.746h1.53l-.156.91h.764l-.195 1.466h-.81zm7.96-9.648h-4.873c.313-.525.658-1.063 1.025-1.568h2.731c.405.497.779 1.021 1.117 1.568zm20.256 16.171h-.1l-.043-.081a.456.456 0 0 0-.086-.118c-.013-.012-.035-.018-.063-.018h-.047v.216h-.081v-.51h.172a.37.37 0 0 1 .127.015.12.12 0 0 1 .063.05.138.138 0 0 1-.016.171.155.155 0 0 1-.104.047.112.112 0 0 1 .043.026c.02.021.044.056.074.101zm-.146-.306a.072.072 0 0 0 .025-.058.071.071 0 0 0-.012-.04.079.079 0 0 0-.035-.025.237.237 0 0 0-.08-.01h-.093v.154h.1c.045 0 .078-.008.095-.021zm-18.66-12.757h-7.95c.08-.151.357-.762.776-1.569h6.552c.235.507.442 1.03.621 1.569zm-19.364.978l-1.207 7.425H9.848l.872-5.598-1.967 5.598H7.7l-.137-5.598-.931 5.598H5.154l1.224-7.425h2.234l.078 4.556 1.508-4.556zm29.208 3.124l-.601 4.294h-1.347l.05-.597c-.024.002-.49.715-1.57.715-.565 0-1.477-.311-1.477-1.68 0-1.736 1.39-2.31 2.712-2.31.21 0 .659.038.659.038s.052-.107.052-.394c0-.471-.417-.536-.988-.536-1.003 0-1.668.275-1.668.275l.223-1.344s.804-.343 1.855-.343c.542 0 2.103.058 2.1 1.882zm-1.77 1.614c-.045-.008-.073-.035-.334-.036-1.122 0-1.349.513-1.349.94 0 .22.123.589.6.589.92 0 1.111-1.23 1.082-1.493zm10.781 2.24c0 .08-.019.158-.061.233a.46.46 0 0 1-.804 0 .473.473 0 0 1 0-.47.429.429 0 0 1 .173-.176.455.455 0 0 1 .456 0 .474.474 0 0 1 .236.413zm-.074-.002a.407.407 0 0 0-.199-.344.38.38 0 0 0-.523.147.387.387 0 0 0-.002.393.384.384 0 0 0 .337.2.386.386 0 0 0 .335-.2.4.4 0 0 0 .052-.196zm-.17.262h-.101l-.043-.08a.51.51 0 0 0-.085-.12c-.014-.012-.037-.017-.065-.017h-.047v.216h-.081v-.51h.174c.059 0 .102.005.127.016a.14.14 0 0 1 .062.05.134.134 0 0 1-.016.17.15.15 0 0 1-.103.047c.017.006.03.016.042.026.02.02.045.054.074.101zm-.145-.31a.075.075 0 0 0 .024-.055.067.067 0 0 0-.013-.042.079.079 0 0 0-.032-.027.287.287 0 0 0-.082-.008h-.091v.155h.098c.047 0 .077-.006.096-.023zm-5.226-5.592c-.204.421-.384.808-.572 1.806-1.062-.383-1.143 1.711-1.59 4.294h-1.572l.956-6.044h1.426l-.137.876s.509-.953 1.194-.953c.198 0 .294.021.295.02zm0 0zm5.188-1.331l-1.17 7.415h-1.49l.067-.557s-.508.651-1.425.651c-1.274 0-1.897-1.251-1.897-2.53 0-1.977 1.168-3.7 2.571-3.701.903 0 1.478.811 1.478.811l.33-2.086zm-2.248 4.07c0-.907-.282-1.292-.832-1.293-.673 0-1.206.797-1.206 2.007 0 .74.258 1.21.81 1.21.829 0 1.228-1.1 1.228-1.924zm7.84-17.4v34.04c0 .812-.644 1.47-1.442 1.47H1.432c-.797 0-1.442-.658-1.442-1.47V1.479c0-.812.645-1.47 1.442-1.47h53.132c.798 0 1.442.658 1.442 1.47zm-4.97 25.148c0-.08-.02-.16-.061-.236a.425.425 0 0 0-.174-.176.476.476 0 0 0-.227-.06.484.484 0 0 0-.229.06.43.43 0 0 0-.173.176.487.487 0 0 0-.001.47.465.465 0 0 0 .635.177c.073-.04.13-.1.171-.176a.465.465 0 0 0 .06-.235zm.982-8.135c-.002-8.088-6.44-14.644-14.38-14.64-3.71 0-7.092 1.434-9.642 3.786-2.55-2.35-5.93-3.783-9.638-3.783h-.092c-7.894.052-14.284 6.593-14.284 14.645 0 8.084 6.44 14.643 14.376 14.643 3.707 0 7.086-1.432 9.637-3.783 2.551 2.355 5.937 3.789 9.65 3.788 7.94-.002 14.373-6.561 14.371-14.648 0-.004 0-.006.002-.008zm-22.526 9.267a14.5 14.5 0 0 1-1.46 1.568h-.003l-.036.032a14.5 14.5 0 0 1-1.47-1.6zM25.37 19.72s-.288 1.249 1.356 1.249c.771 0 1.625-.384 1.625-.384l-.27 1.503s-.493.257-1.616.257c-1.217 0-2.644-.524-2.644-2.727 0-1.91 1.14-3.599 2.679-3.6 1.68 0 2.182 1.253 2.182 2.28 0 .412-.202 1.422-.202 1.422zm.14-1.235h1.699c0-.078.16-1.067-.704-1.067-.835 0-.995.965-.995 1.067zm8.173.593c0 .906.435 1.75 1.522 1.751.516 0 1.266-.383 1.266-.383l-.274 1.702s-.823.213-1.339.213c-1.826 0-2.754-1.284-2.754-3.23 0-2.932 1.719-4.494 3.485-4.494.798 0 1.724.382 1.724.382l-.25 1.652s-.626-.446-1.404-.446c-1.042 0-1.976 1.012-1.976 2.853zm-2.293 5.604a14.764 14.764 0 0 1-.837 1.567h-5.1c-.311-.505-.6-1.023-.85-1.567zm.982-8.543c-.203.422-.383.809-.57 1.808-1.062-.383-1.145 1.712-1.59 4.294h-1.571l.955-6.044h1.425l-.138.876s.508-.952 1.193-.952c.2-.003.296.018.296.018z"/></g></g></svg>