<svg width="18" height="14" viewBox="0 0 18 14" fill="none" xmlns="http://www.w3.org/2000/svg">
<path d="M7.75002 3.16675C7.42172 3.16675 7.09663 3.23141 6.79331 3.35705C6.49 3.48269 6.2144 3.66683 5.98225 3.89898C5.75011 4.13113 5.56596 4.40673 5.44032 4.71004C5.31468 5.01335 5.25002 5.33844 5.25002 5.66675C5.25002 5.99505 5.31468 6.32014 5.44032 6.62346C5.56596 6.92677 5.75011 7.20237 5.98225 7.43451C6.2144 7.66666 6.49 7.85081 6.79331 7.97645C7.09663 8.10208 7.42172 8.16675 7.75002 8.16675C8.41306 8.16675 9.04895 7.90336 9.51779 7.43451C9.98663 6.96567 10.25 6.32979 10.25 5.66675C10.25 5.00371 9.98663 4.36782 9.51779 3.89898C9.04895 3.43014 8.41306 3.16675 7.75002 3.16675ZM6.50002 5.66675C6.50002 5.33523 6.63172 5.01728 6.86614 4.78286C7.10056 4.54844 7.4185 4.41675 7.75002 4.41675C8.08154 4.41675 8.39948 4.54844 8.6339 4.78286C8.86833 5.01728 9.00002 5.33523 9.00002 5.66675C9.00002 5.99827 8.86833 6.31621 8.6339 6.55063C8.39948 6.78505 8.08154 6.91675 7.75002 6.91675C7.4185 6.91675 7.10056 6.78505 6.86614 6.55063C6.63172 6.31621 6.50002 5.99827 6.50002 5.66675ZM0.666687 2.54175C0.666687 2.04447 0.864231 1.56755 1.21586 1.21592C1.56749 0.864292 2.04441 0.666748 2.54169 0.666748H12.9584C13.2046 0.666748 13.4484 0.715246 13.6759 0.809474C13.9034 0.903701 14.1101 1.04181 14.2842 1.21592C14.4583 1.39003 14.5964 1.59673 14.6906 1.82422C14.7849 2.0517 14.8334 2.29552 14.8334 2.54175V8.79175C14.8334 9.03798 14.7849 9.28179 14.6906 9.50928C14.5964 9.73676 14.4583 9.94346 14.2842 10.1176C14.1101 10.2917 13.9034 10.4298 13.6759 10.524C13.4484 10.6182 13.2046 10.6667 12.9584 10.6667H2.54169C2.04441 10.6667 1.56749 10.4692 1.21586 10.1176C0.864231 9.76594 0.666687 9.28903 0.666687 8.79175V2.54175ZM2.54169 1.91675C2.37593 1.91675 2.21696 1.9826 2.09975 2.09981C1.98254 2.21702 1.91669 2.37599 1.91669 2.54175V3.16675H2.54169C2.70745 3.16675 2.86642 3.1009 2.98363 2.98369C3.10084 2.86648 3.16669 2.70751 3.16669 2.54175V1.91675H2.54169ZM1.91669 6.91675H2.54169C3.03897 6.91675 3.51588 7.11429 3.86751 7.46592C4.21914 7.81755 4.41669 8.29447 4.41669 8.79175V9.41675H11.0834V8.79175C11.0834 8.29447 11.2809 7.81755 11.6325 7.46592C11.9842 7.11429 12.4611 6.91675 12.9584 6.91675H13.5834V4.41675H12.9584C12.4611 4.41675 11.9842 4.2192 11.6325 3.86757C11.2809 3.51594 11.0834 3.03903 11.0834 2.54175V1.91675H4.41669V2.54175C4.41669 2.78798 4.36819 3.03179 4.27396 3.25928C4.17973 3.48676 4.04162 3.69346 3.86751 3.86757C3.6934 4.04168 3.4867 4.17979 3.25922 4.27402C3.03173 4.36825 2.78792 4.41675 2.54169 4.41675H1.91669V6.91675ZM13.5834 3.16675V2.54175C13.5834 2.37599 13.5175 2.21702 13.4003 2.09981C13.2831 1.9826 13.1241 1.91675 12.9584 1.91675H12.3334V2.54175C12.3334 2.88675 12.6134 3.16675 12.9584 3.16675H13.5834ZM13.5834 8.16675H12.9584C12.7926 8.16675 12.6336 8.2326 12.5164 8.34981C12.3992 8.46702 12.3334 8.62599 12.3334 8.79175V9.41675H12.9584C13.1241 9.41675 13.2831 9.3509 13.4003 9.23369C13.5175 9.11648 13.5834 8.95751 13.5834 8.79175V8.16675ZM1.91669 8.79175C1.91669 9.13675 2.19669 9.41675 2.54169 9.41675H3.16669V8.79175C3.16669 8.62599 3.10084 8.46702 2.98363 8.34981C2.86642 8.2326 2.70745 8.16675 2.54169 8.16675H1.91669V8.79175ZM2.66752 11.9167C2.88694 12.297 3.20264 12.6127 3.58285 12.8321C3.96306 13.0516 4.39436 13.167 4.83335 13.1667H13.375C13.8948 13.1667 14.4096 13.0644 14.8898 12.8654C15.3701 12.6665 15.8064 12.3749 16.174 12.0074C16.5416 11.6398 16.8331 11.2035 17.032 10.7232C17.231 10.243 17.3334 9.72823 17.3334 9.20841V4.83341C17.3335 4.39444 17.218 3.96317 16.9986 3.58298C16.7792 3.20278 16.4635 2.88707 16.0834 2.66758V9.20841C16.0834 9.92671 15.798 10.6156 15.2901 11.1235C14.7822 11.6314 14.0933 11.9167 13.375 11.9167H2.66752Z" fill="#FFB200"/>
</svg>
