<svg width="18" height="17" viewBox="0 0 18 17" fill="none" xmlns="http://www.w3.org/2000/svg">
<path d="M11.175 0.558288L11.1109 0.502455C10.9907 0.410952 10.8414 0.366174 10.6908 0.376444C10.5401 0.386713 10.3983 0.45133 10.2917 0.558288L10.235 0.623288C10.1439 0.74425 10.0995 0.894024 10.1099 1.04511C10.1203 1.1962 10.1848 1.33847 10.2917 1.44579L11.9342 3.09329H6.08335L5.88919 3.09662C2.98752 3.19912 0.666687 5.59162 0.666687 8.52995C0.666687 9.93829 1.20002 11.2216 2.07669 12.1883L2.13669 12.2458C2.2546 12.3466 2.40577 12.4001 2.56086 12.3958C2.71596 12.3915 2.86393 12.3297 2.97605 12.2225C3.08818 12.1152 3.15647 11.9701 3.16767 11.8154C3.17888 11.6606 3.13219 11.5072 3.03669 11.385L2.87002 11.1925C2.25194 10.4427 1.91479 9.5008 1.91669 8.52912C1.91669 6.21995 3.78252 4.34746 6.08335 4.34746H11.8175L10.2909 5.88079L10.235 5.94579C10.1439 6.06675 10.0995 6.21652 10.1099 6.36761C10.1203 6.5187 10.1848 6.66097 10.2917 6.76829C10.3496 6.82644 10.4184 6.87258 10.4942 6.90407C10.57 6.93556 10.6513 6.95176 10.7334 6.95176C10.8154 6.95176 10.8967 6.93556 10.9725 6.90407C11.0483 6.87258 11.1171 6.82644 11.175 6.76829L13.8267 4.10746L13.8825 4.04245C13.9738 3.92159 14.0183 3.77187 14.0081 3.62079C13.9978 3.4697 13.9334 3.32738 13.8267 3.21995L11.175 0.558288ZM15.8584 4.80912C15.7377 4.70942 15.584 4.65855 15.4277 4.66656C15.2714 4.67458 15.1237 4.74088 15.0139 4.85241C14.904 4.96393 14.8399 5.11256 14.8343 5.269C14.8287 5.42543 14.8818 5.5783 14.9834 5.69745C15.6926 6.46973 16.0853 7.48059 16.0834 8.52912C16.0834 10.8391 14.2175 12.7116 11.9167 12.7116H6.13169L7.71919 11.1191L7.78085 11.0475C7.86091 10.9382 7.90358 10.8061 7.90253 10.6707C7.90148 10.5352 7.85676 10.4038 7.77502 10.2958L7.71919 10.2316L7.64919 10.1708C7.54057 10.0901 7.40865 10.047 7.27335 10.0479C7.13805 10.0488 7.00672 10.0937 6.89919 10.1758L6.83585 10.2316L4.18419 12.8933L4.12335 12.9641C4.04318 13.0733 4.00036 13.2054 4.00126 13.3408C4.00216 13.4762 4.04674 13.6077 4.12835 13.7158L4.18419 13.78L6.83585 16.4416L6.90585 16.5016C7.15002 16.685 7.49752 16.6641 7.71919 16.4408C7.82604 16.3335 7.8906 16.1912 7.90101 16.0401C7.91142 15.889 7.86698 15.7393 7.77585 15.6183L7.71919 15.5541L6.13669 13.9658H11.9167L12.1109 13.9625C15.0125 13.86 17.3334 11.4666 17.3334 8.52912C17.3355 7.17459 16.8311 5.86822 15.9192 4.86662L15.8584 4.80912Z" fill="#FFB200"/>
</svg>
