<svg width="16" height="16" viewBox="0 0 16 16" fill="none" xmlns="http://www.w3.org/2000/svg">
<path d="M5.08333 2.8584C5.08333 2.36112 5.28088 1.8842 5.63251 1.53257C5.98414 1.18094 6.46105 0.983398 6.95833 0.983398H9.04167C9.53895 0.983398 10.0159 1.18094 10.3675 1.53257C10.7191 1.8842 10.9167 2.36112 10.9167 2.8584V4.3334H13.625C14.1223 4.3334 14.5992 4.53094 14.9508 4.88257C15.3025 5.2342 15.5 5.71112 15.5 6.2084V15.3751C15.5 15.5408 15.4342 15.6998 15.3169 15.817C15.1997 15.9342 15.0408 16.0001 14.875 16.0001H1.125C0.95924 16.0001 0.800268 15.9342 0.683058 15.817C0.565848 15.6998 0.5 15.5408 0.5 15.3751V8.7084C0.5 8.21112 0.697544 7.7342 1.04917 7.38257C1.40081 7.03094 1.87772 6.8334 2.375 6.8334H5.08333V2.8584ZM6.33333 14.7501H9.66667V2.8584C9.66667 2.69264 9.60082 2.53367 9.48361 2.41646C9.3664 2.29925 9.20743 2.2334 9.04167 2.2334H6.95833C6.79257 2.2334 6.6336 2.29925 6.51639 2.41646C6.39918 2.53367 6.33333 2.69264 6.33333 2.8584V14.7501ZM5.08333 8.0834H2.375C2.20924 8.0834 2.05027 8.14925 1.93306 8.26646C1.81585 8.38367 1.75 8.54264 1.75 8.7084V14.7501H5.08333V8.0834ZM10.9167 14.7501H14.25V6.2084C14.25 6.04264 14.1842 5.88367 14.0669 5.76646C13.9497 5.64925 13.7908 5.5834 13.625 5.5834H10.9167V14.7501Z" fill="#FFB200"/>
</svg>
