<svg xmlns="http://www.w3.org/2000/svg" xmlns:xlink="http://www.w3.org/1999/xlink" width="30" height="7" viewBox="0 0 30 7"><defs><path id="183wa" d="M1310 65a1 1 0 0 1 1-1h4.92a1 1 0 0 1 1 1v5a1 1 0 0 1-1 1H1311a1 1 0 0 1-1-1z"/><path id="183wb" d="M1321.54 65a1 1 0 0 1 1-1h4.92a1 1 0 0 1 1 1v5a1 1 0 0 1-1 1h-4.92a1 1 0 0 1-1-1z"/><path id="183wc" d="M1333.08 65a1 1 0 0 1 1-1h4.92a1 1 0 0 1 1 1v5a1 1 0 0 1-1 1h-4.92a1 1 0 0 1-1-1z"/><clipPath id="183wd"><use fill="#fff" xlink:href="#183wa"/></clipPath><clipPath id="183we"><use fill="#fff" xlink:href="#183wb"/></clipPath><clipPath id="183wf"><use fill="#fff" xlink:href="#183wc"/></clipPath></defs><g><g transform="translate(-1310 -64)"><g><use fill="#fff" fill-opacity="0" stroke="#000" stroke-miterlimit="50" stroke-width="2.33" clip-path="url(&quot;#183wd&quot;)" xlink:href="#183wa"/></g><g><use fill="#fff" fill-opacity="0" stroke="#000" stroke-miterlimit="50" stroke-width="2.33" clip-path="url(&quot;#183we&quot;)" xlink:href="#183wb"/></g><g><use fill="#fff" fill-opacity="0" stroke="#000" stroke-miterlimit="50" stroke-width="2.33" clip-path="url(&quot;#183wf&quot;)" xlink:href="#183wc"/></g></g></g></svg>