<svg width="14" height="17" viewBox="0 0 14 17" fill="none" xmlns="http://www.w3.org/2000/svg">
<path d="M11.7949 10.1665C12.0411 10.1665 12.2849 10.215 12.5123 10.3092C12.7398 10.4035 12.9464 10.5416 13.1204 10.7157C13.2945 10.8898 13.4325 11.0965 13.5267 11.324C13.6208 11.5515 13.6692 11.7953 13.6691 12.0415V12.5206C13.6691 13.2656 13.4024 13.9865 12.9182 14.5523C11.6099 16.0798 9.62075 16.834 6.99992 16.834C4.37825 16.834 2.38992 16.0798 1.08492 14.5506C0.601794 13.9852 0.336159 13.266 0.335754 12.5223V12.0406C0.335754 11.7945 0.384259 11.5507 0.478497 11.3232C0.572734 11.0958 0.710859 10.8892 0.884979 10.7151C1.0591 10.5411 1.2658 10.403 1.49329 10.3089C1.72077 10.2148 1.96456 10.1664 2.21075 10.1665H11.7949ZM11.7949 11.4165H2.20992C2.12788 11.4165 2.04665 11.4326 1.97087 11.4641C1.89509 11.4955 1.82624 11.5415 1.76827 11.5996C1.7103 11.6576 1.66434 11.7265 1.63303 11.8024C1.60171 11.8782 1.58564 11.9594 1.58575 12.0415V12.5223C1.58575 12.9681 1.74575 13.3998 2.03575 13.739C3.07992 14.9631 4.71825 15.584 6.99992 15.584C9.28158 15.584 10.9216 14.9631 11.9682 13.7398C12.2588 13.4001 12.4184 12.9677 12.4182 12.5206V12.0406C12.4182 11.8752 12.3526 11.7166 12.2357 11.5996C12.1189 11.4826 11.9603 11.4167 11.7949 11.4165ZM6.99992 0.170654C7.54709 0.170654 8.08891 0.278428 8.59443 0.487822C9.09995 0.697217 9.55928 1.00413 9.94619 1.39104C10.3331 1.77795 10.64 2.23728 10.8494 2.7428C11.0588 3.24833 11.1666 3.79014 11.1666 4.33732C11.1666 4.88449 11.0588 5.42631 10.8494 5.93183C10.64 6.43735 10.3331 6.89668 9.94619 7.28359C9.55928 7.6705 9.09995 7.97742 8.59443 8.18681C8.08891 8.3962 7.54709 8.50398 6.99992 8.50398C5.89485 8.50398 4.83504 8.06499 4.05364 7.28359C3.27224 6.50219 2.83325 5.44238 2.83325 4.33732C2.83325 3.23225 3.27224 2.17244 4.05364 1.39104C4.83504 0.609641 5.89485 0.170654 6.99992 0.170654ZM6.99992 1.42065C6.61689 1.42065 6.23762 1.49609 5.88376 1.64267C5.52989 1.78925 5.20836 2.00409 4.93752 2.27492C4.66669 2.54576 4.45185 2.86729 4.30527 3.22116C4.15869 3.57502 4.08325 3.95429 4.08325 4.33732C4.08325 4.72034 4.15869 5.09961 4.30527 5.45348C4.45185 5.80734 4.66669 6.12887 4.93752 6.39971C5.20836 6.67055 5.52989 6.88539 5.88376 7.03196C6.23762 7.17854 6.61689 7.25398 6.99992 7.25398C7.77346 7.25398 8.51533 6.94669 9.06231 6.39971C9.60929 5.85273 9.91658 5.11086 9.91658 4.33732C9.91658 3.56377 9.60929 2.8219 9.06231 2.27492C8.51533 1.72794 7.77346 1.42065 6.99992 1.42065Z" fill="#FFB200"/>
</svg>
