<svg width="16" height="15" viewBox="0 0 16 15" fill="none" xmlns="http://www.w3.org/2000/svg">
<path d="M12.7917 0C13.51 0 14.1988 0.285341 14.7067 0.793252C15.2147 1.30116 15.5 1.99004 15.5 2.70833V12.2917C15.5 13.01 15.2147 13.6988 14.7067 14.2067C14.1988 14.7147 13.51 15 12.7917 15H3.20833C2.49004 15 1.80116 14.7147 1.29325 14.2067C0.785341 13.6988 0.5 13.01 0.5 12.2917V2.70833C0.5 1.99004 0.785341 1.30116 1.29325 0.793252C1.80116 0.285341 2.49004 0 3.20833 0H12.7917ZM13.275 13.6675L8.4375 8.92917C8.33197 8.82573 8.1932 8.76304 8.04583 8.7522C7.89846 8.74137 7.75202 8.78311 7.6325 8.87L7.5625 8.92833L2.72333 13.6675C2.875 13.7208 3.03833 13.75 3.20833 13.75H12.7917C12.9608 13.75 13.1242 13.7208 13.275 13.6675L8.4375 8.92917L13.275 13.6667V13.6675ZM12.7917 1.25H3.20833C2.82156 1.25 2.45063 1.40365 2.17714 1.67714C1.90365 1.95063 1.75 2.32156 1.75 2.70833V12.2917C1.75 12.465 1.78 12.6317 1.83583 12.7867L6.68833 8.03583C7.02098 7.71019 7.46286 7.51993 7.92802 7.50206C8.39318 7.48419 8.84836 7.64 9.205 7.93917L9.31167 8.03583L14.1633 12.7875C14.2192 12.6325 14.25 12.4658 14.25 12.2917V2.70833C14.25 2.32156 14.0964 1.95063 13.8229 1.67714C13.5494 1.40365 13.1784 1.25 12.7917 1.25ZM10.71 2.91667C11.2077 2.91667 11.6851 3.11439 12.037 3.46633C12.3889 3.81827 12.5867 4.29561 12.5867 4.79333C12.5867 5.29106 12.3889 5.76839 12.037 6.12034C11.6851 6.47228 11.2077 6.67 10.71 6.67C10.2123 6.67 9.73494 6.47228 9.383 6.12034C9.03105 5.76839 8.83333 5.29106 8.83333 4.79333C8.83333 4.29561 9.03105 3.81827 9.383 3.46633C9.73494 3.11439 10.2123 2.91667 10.71 2.91667ZM10.71 4.16667C10.5438 4.16667 10.3844 4.23269 10.2669 4.35021C10.1494 4.46774 10.0833 4.62713 10.0833 4.79333C10.0833 4.95954 10.1494 5.11893 10.2669 5.23645C10.3844 5.35398 10.5438 5.42 10.71 5.42C10.8762 5.42 11.0356 5.35398 11.1531 5.23645C11.2706 5.11893 11.3367 4.95954 11.3367 4.79333C11.3367 4.62713 11.2706 4.46774 11.1531 4.35021C11.0356 4.23269 10.8762 4.16667 10.71 4.16667Z" fill="#FFB200"/>
</svg>
