<svg width="16" height="15" viewBox="0 0 16 15" fill="none" xmlns="http://www.w3.org/2000/svg">
<path d="M10.4167 8.95833C10.4167 8.79257 10.4825 8.6336 10.5997 8.51639C10.7169 8.39918 10.8759 8.33333 11.0417 8.33333H12.7083C12.8741 8.33333 13.0331 8.39918 13.1503 8.51639C13.2675 8.6336 13.3333 8.79257 13.3333 8.95833C13.3333 9.12409 13.2675 9.28306 13.1503 9.40027C13.0331 9.51748 12.8741 9.58333 12.7083 9.58333H11.0417C10.8759 9.58333 10.7169 9.51748 10.5997 9.40027C10.4825 9.28306 10.4167 9.12409 10.4167 8.95833ZM0 1.66667H0.0116666C0.0629108 1.20832 0.281284 0.784947 0.625036 0.477476C0.968788 0.170006 1.4138 1.39338e-05 1.875 0H11.4583C11.7046 0 11.9484 0.0484983 12.1759 0.142726C12.4033 0.236953 12.61 0.375065 12.7842 0.549175C12.9583 0.723285 13.0964 0.929983 13.1906 1.15747C13.2848 1.38495 13.3333 1.62877 13.3333 1.875V2.5725C13.9265 2.71334 14.4549 3.05015 14.8329 3.52847C15.211 4.00679 15.4167 4.59865 15.4167 5.20833V12.2917C15.4167 13.01 15.1313 13.6988 14.6234 14.2067C14.1155 14.7147 13.4266 15 12.7083 15H2.70833C1.99004 15 1.30116 14.7147 0.793252 14.2067C0.285341 13.6988 0 13.01 0 12.2917V1.66667ZM12.7083 3.75H1.25V12.2917C1.25 13.0967 1.90333 13.75 2.70833 13.75H12.7083C13.0951 13.75 13.466 13.5964 13.7395 13.3229C14.013 13.0494 14.1667 12.6784 14.1667 12.2917V5.20833C14.1667 4.82156 14.013 4.45063 13.7395 4.17714C13.466 3.90365 13.0951 3.75 12.7083 3.75ZM12.0833 2.5V1.875C12.0833 1.70924 12.0175 1.55027 11.9003 1.43306C11.7831 1.31585 11.6241 1.25 11.4583 1.25H1.875C1.70924 1.25 1.55027 1.31585 1.43306 1.43306C1.31585 1.55027 1.25 1.70924 1.25 1.875C1.25 2.04076 1.31585 2.19973 1.43306 2.31694C1.55027 2.43415 1.70924 2.5 1.875 2.5H12.0833Z" fill="#FFB200"/>
</svg>
