<svg width="18" height="15" viewBox="0 0 18 15" fill="none" xmlns="http://www.w3.org/2000/svg">
<path d="M13.375 0.833252L13.2917 0.839085C13.1418 0.859256 13.0042 0.933124 12.9046 1.04698C12.805 1.16085 12.7501 1.30697 12.75 1.45825V12.0349L10.0667 9.35325L9.99669 9.29325C9.86985 9.19898 9.71201 9.15625 9.55494 9.17367C9.39787 9.19109 9.25322 9.26737 9.15013 9.38715C9.04704 9.50693 8.99315 9.66132 8.99932 9.81924C9.00548 9.97715 9.07124 10.1269 9.18335 10.2383L12.9367 13.9883L13.0067 14.0483C13.1271 14.1372 13.2754 14.18 13.4246 14.1688C13.5739 14.1576 13.7142 14.0933 13.82 13.9874L17.5675 10.2374L17.6275 10.1674C17.7167 10.047 17.7596 9.89848 17.7484 9.74903C17.7372 9.59958 17.6728 9.45912 17.5667 9.35325L17.4967 9.29325C17.3762 9.2041 17.2277 9.16119 17.0783 9.17236C16.9289 9.18353 16.7884 9.24802 16.6825 9.35409L14 12.0383V1.45825L13.995 1.37325C13.9745 1.22362 13.9005 1.08649 13.7866 0.987225C13.6728 0.887954 13.5269 0.833258 13.3759 0.833252H13.375ZM4.17835 1.01659L0.433355 4.76242L0.372521 4.83242C0.283593 4.95281 0.240822 5.10112 0.251986 5.25038C0.26315 5.39963 0.327506 5.53993 0.433355 5.64575L0.503355 5.70658C0.623746 5.79551 0.772054 5.83828 0.921312 5.82712C1.07057 5.81596 1.21086 5.7516 1.31669 5.64575L3.99752 2.96409V13.5458L4.00419 13.6308C4.02473 13.7804 4.09876 13.9175 4.21258 14.0168C4.3264 14.116 4.47232 14.1707 4.62335 14.1708L4.70752 14.1649C4.8573 14.1446 4.99463 14.0706 5.09407 13.9568C5.19351 13.8429 5.24832 13.6969 5.24835 13.5458L5.24752 2.96575L7.93335 5.64659L8.00335 5.70658C8.13028 5.79968 8.28765 5.84146 8.44404 5.82357C8.60042 5.80568 8.7443 5.72944 8.84692 5.61009C8.94954 5.49073 9.00335 5.33705 8.99759 5.17975C8.99183 5.02245 8.92693 4.87312 8.81586 4.76159L5.06252 1.01659L4.99169 0.956585C4.8713 0.867657 4.72299 0.824886 4.57373 0.83605C4.42447 0.847214 4.28418 0.911571 4.17835 1.01742V1.01659Z" fill="#FFB200"/>
</svg>
