<svg width="18" height="16" viewBox="0 0 18 16" fill="none" xmlns="http://www.w3.org/2000/svg">
<path d="M2.33335 9.16583L9.83335 9.16667C10.2538 9.16653 10.6588 9.32534 10.9671 9.61125C11.2755 9.89716 11.4643 10.289 11.4959 10.7083L11.5 10.8333V12.0833C11.4992 15 8.40335 15.8333 6.08335 15.8333C3.81502 15.8333 0.804187 15.0367 0.670854 12.275L0.666687 12.0833V10.8325C0.666687 9.95417 1.34669 9.23417 2.20835 9.17L2.33335 9.16667V9.16583ZM11.6834 9.16667H15.6667C16.087 9.16674 16.4918 9.32564 16.7999 9.61153C17.1081 9.89742 17.2968 10.2892 17.3284 10.7083L17.3334 10.8333V11.6667C17.3325 14.2183 14.9517 15 13.1667 15C12.5621 15.0014 11.9608 14.9109 11.3834 14.7317C11.6634 14.41 11.8892 14.0425 12.0517 13.6258C12.4177 13.7076 12.7916 13.7493 13.1667 13.75L13.3892 13.745C14.21 13.7092 15.9609 13.4425 16.0775 11.8375L16.0834 11.6667V10.8333C16.0832 10.7359 16.049 10.6415 15.9866 10.5666C15.9242 10.4917 15.8375 10.441 15.7417 10.4233L15.6667 10.4167H12.2909C12.2219 10.0087 12.0514 9.6247 11.795 9.3L11.6834 9.16667H15.6667H11.6834ZM2.33335 10.4158L2.25002 10.4242C2.17004 10.4408 2.09655 10.4802 2.03835 10.5375C1.981 10.5954 1.94164 10.6686 1.92502 10.7483L1.91669 10.8325V12.0833C1.91669 12.9242 2.29169 13.5183 3.09752 13.9517C3.78585 14.3225 4.76669 14.5467 5.81919 14.5792L6.08335 14.5833L6.34752 14.5792C7.40002 14.5467 8.38002 14.3225 9.06919 13.9517C9.82419 13.545 10.2017 12.9975 10.2459 12.2375L10.25 12.0825V10.8333C10.2499 10.7359 10.2157 10.6415 10.1533 10.5666C10.0908 10.4917 10.0042 10.441 9.90835 10.4233L9.83335 10.4167L2.33335 10.4158ZM6.08335 0C7.07792 0 8.03174 0.395088 8.735 1.09835C9.43827 1.80161 9.83335 2.75544 9.83335 3.75C9.83335 4.74456 9.43827 5.69839 8.735 6.40165C8.03174 7.10491 7.07792 7.5 6.08335 7.5C5.08879 7.5 4.13496 7.10491 3.4317 6.40165C2.72844 5.69839 2.33335 4.74456 2.33335 3.75C2.33335 2.75544 2.72844 1.80161 3.4317 1.09835C4.13496 0.395088 5.08879 0 6.08335 0ZM13.5834 1.66667C14.3569 1.66667 15.0988 1.97396 15.6458 2.52094C16.1927 3.06792 16.5 3.80979 16.5 4.58333C16.5 5.35688 16.1927 6.09875 15.6458 6.64573C15.0988 7.19271 14.3569 7.5 13.5834 7.5C12.8098 7.5 12.0679 7.19271 11.521 6.64573C10.974 6.09875 10.6667 5.35688 10.6667 4.58333C10.6667 3.80979 10.974 3.06792 11.521 2.52094C12.0679 1.97396 12.8098 1.66667 13.5834 1.66667ZM6.08335 1.25C4.70502 1.25 3.58335 2.37167 3.58335 3.75C3.58335 5.12833 4.70502 6.25 6.08335 6.25C7.46169 6.25 8.58335 5.12833 8.58335 3.75C8.58335 2.37167 7.46169 1.25 6.08335 1.25ZM13.5834 2.91667C12.6642 2.91667 11.9167 3.66417 11.9167 4.58333C11.9167 5.5025 12.6642 6.25 13.5834 6.25C14.5025 6.25 15.25 5.5025 15.25 4.58333C15.25 3.66417 14.5025 2.91667 13.5834 2.91667Z" fill="#FFB200"/>
</svg>
