<svg width="16" height="17" viewBox="0 0 16 17" fill="none" xmlns="http://www.w3.org/2000/svg">
<path d="M11.4584 0.166626H15.2534L15.3367 0.178293L15.4192 0.201626L15.4692 0.223293C15.5359 0.251626 15.5967 0.294126 15.6517 0.348293L15.6851 0.384959L15.7217 0.432459L15.7667 0.507459L15.7992 0.582459L15.8151 0.635793L15.8267 0.689126L15.8342 0.768293V4.54496C15.8342 4.70331 15.774 4.85574 15.6659 4.97145C15.5578 5.08716 15.4098 5.15752 15.2518 5.16831C15.0938 5.17911 14.9376 5.12953 14.8148 5.0296C14.692 4.92967 14.6116 4.78683 14.5901 4.62996L14.5842 4.54496V2.29913L9.21755 7.66579C9.11173 7.77164 8.97143 7.836 8.82217 7.84716C8.67292 7.85833 8.52461 7.81555 8.40422 7.72663L8.33422 7.66663L5.80922 5.24163L1.06755 9.98246C0.956029 10.0943 0.806307 10.1597 0.648488 10.1657C0.490668 10.1716 0.336453 10.1176 0.216848 10.0144C0.097244 9.91131 0.0211194 9.76672 0.00377999 9.60974C-0.0135594 9.45277 0.0291721 9.29505 0.123383 9.16829L0.184216 9.09829L5.36755 3.91496C5.47348 3.80924 5.61383 3.74503 5.76308 3.73402C5.91234 3.72301 6.06059 3.76592 6.18088 3.85496L6.25088 3.91496L8.77588 6.33996L13.6992 1.41663H11.4576C11.3067 1.41642 11.1609 1.36163 11.0473 1.26238C10.9336 1.16313 10.8597 1.02611 10.8392 0.876626L10.8334 0.791626C10.8334 0.640595 10.8881 0.494674 10.9874 0.38085C11.0866 0.267027 11.2238 0.193 11.3734 0.172459L11.4592 0.166626H11.4584ZM0.625883 12.6666C0.791643 12.6666 0.950615 12.7325 1.06782 12.8497C1.18504 12.9669 1.25088 13.1259 1.25088 13.2916V16.2083C1.25088 16.3741 1.18504 16.533 1.06782 16.6502C0.950615 16.7674 0.791643 16.8333 0.625883 16.8333C0.460123 16.8333 0.301151 16.7674 0.183941 16.6502C0.066731 16.533 0.000883002 16.3741 0.000883002 16.2083V13.2916C0.000883002 13.1259 0.066731 12.9669 0.183941 12.8497C0.301151 12.7325 0.460123 12.6666 0.625883 12.6666ZM5.41755 9.95829C5.41755 9.79253 5.3517 9.63356 5.23449 9.51635C5.11728 9.39914 4.95831 9.33329 4.79255 9.33329C4.62679 9.33329 4.46782 9.39914 4.35061 9.51635C4.2334 9.63356 4.16755 9.79253 4.16755 9.95829V16.2083C4.16755 16.3741 4.2334 16.533 4.35061 16.6502C4.46782 16.7674 4.62679 16.8333 4.79255 16.8333C4.95831 16.8333 5.11728 16.7674 5.23449 16.6502C5.3517 16.533 5.41755 16.3741 5.41755 16.2083V9.95829ZM8.95922 11C9.12498 11 9.28395 11.0658 9.40116 11.183C9.51837 11.3002 9.58422 11.4592 9.58422 11.625V16.2083C9.58422 16.3741 9.51837 16.533 9.40116 16.6502C9.28395 16.7674 9.12498 16.8333 8.95922 16.8333C8.79346 16.8333 8.63449 16.7674 8.51728 16.6502C8.40007 16.533 8.33422 16.3741 8.33422 16.2083V11.625C8.33422 11.4592 8.40007 11.3002 8.51728 11.183C8.63449 11.0658 8.79346 11 8.95922 11ZM13.7509 7.45829C13.7509 7.29253 13.685 7.13356 13.5678 7.01635C13.4506 6.89914 13.2916 6.83329 13.1259 6.83329C12.9601 6.83329 12.8012 6.89914 12.6839 7.01635C12.5667 7.13356 12.5009 7.29253 12.5009 7.45829V16.2083C12.5009 16.3741 12.5667 16.533 12.6839 16.6502C12.8012 16.7674 12.9601 16.8333 13.1259 16.8333C13.2916 16.8333 13.4506 16.7674 13.5678 16.6502C13.685 16.533 13.7509 16.3741 13.7509 16.2083V7.45829Z" fill="#FFB200"/>
</svg>
