<svg width="18" height="17" viewBox="0 0 18 17" fill="none" xmlns="http://www.w3.org/2000/svg">
<path d="M7.40085 1.90746C7.84252 2.21246 8.26502 2.41329 8.61252 2.45746C8.42207 2.83536 8.29001 3.23996 8.22085 3.65746C7.66085 3.53329 7.12835 3.23746 6.69085 2.93579C6.48128 2.79056 6.27856 2.63567 6.08335 2.47162V4.33329C6.08323 4.45787 6.04587 4.57957 5.97608 4.68276C5.90629 4.78596 5.80726 4.86595 5.69169 4.91246L5.68669 4.91496C5.63985 4.93384 5.59371 4.95441 5.54835 4.97662C5.45085 5.02246 5.30919 5.09329 5.14335 5.18829C4.73577 5.41735 4.35982 5.69862 4.02502 6.02496C3.64752 6.40246 3.41419 6.91079 3.28335 7.30496C3.11419 7.80996 2.68419 8.27579 2.07252 8.37829C2.0291 8.38556 1.98964 8.40795 1.96112 8.4415C1.93261 8.47505 1.91687 8.51759 1.91669 8.56162V10.0233C1.91669 10.1608 2.01669 10.2783 2.15252 10.3008C2.67252 10.3875 3.08169 10.7275 3.31252 11.1391C3.61929 11.6884 3.99914 12.1936 4.44169 12.6408C4.82212 13.0117 5.27061 13.3057 5.76252 13.5066C5.97174 13.5937 6.18739 13.6645 6.40752 13.7183L6.41169 13.72C6.55392 13.7478 6.68206 13.8242 6.77418 13.9361C6.8663 14.0479 6.91668 14.1884 6.91669 14.3333V15.375C6.91669 15.49 7.01002 15.5833 7.12502 15.5833H8.16669C8.16669 15.2518 8.29838 14.9338 8.5328 14.6994C8.76722 14.465 9.08517 14.3333 9.41669 14.3333H11.0834C11.4149 14.3333 11.7328 14.465 11.9672 14.6994C12.2017 14.9338 12.3334 15.2518 12.3334 15.5833H13.375C13.4303 15.5833 13.4833 15.5613 13.5223 15.5223C13.5614 15.4832 13.5834 15.4302 13.5834 15.375V13.5C13.5834 13.2641 13.7167 13.0483 13.9267 12.9416L13.9375 12.9358C14.0392 12.8779 14.1377 12.8144 14.2325 12.7458C14.435 12.5991 14.7092 12.3716 14.9842 12.0508C15.5275 11.4175 16.0834 10.4116 16.0834 8.91662C16.0834 8.07746 15.9267 7.39996 15.6592 6.84329C15.9567 6.44826 16.1819 6.0036 16.3242 5.52996C16.4075 5.64329 16.4859 5.76079 16.5592 5.88246C17.0625 6.71496 17.3334 7.71912 17.3334 8.91579C17.3334 10.755 16.6392 12.0408 15.9334 12.865C15.6116 13.2403 15.2418 13.5715 14.8334 13.85V15.3741C14.8335 15.5657 14.7958 15.7554 14.7226 15.9325C14.6493 16.1095 14.5419 16.2704 14.4065 16.4059C14.2711 16.5414 14.1103 16.6489 13.9333 16.7222C13.7563 16.7955 13.5666 16.8333 13.375 16.8333H12.3334C12.0018 16.8333 11.6839 16.7016 11.4495 16.4672C11.215 16.2327 11.0834 15.9148 11.0834 15.5833H9.41669C9.41669 15.9148 9.28499 16.2327 9.05057 16.4672C8.81615 16.7016 8.49821 16.8333 8.16669 16.8333H7.12502C6.73825 16.8333 6.36731 16.6796 6.09382 16.4062C5.82033 16.1327 5.66669 15.7617 5.66669 15.375V14.8058C5.53612 14.7618 5.40715 14.7131 5.28002 14.66C4.63832 14.3962 4.0537 14.0107 3.55835 13.525C3.03415 12.9963 2.5842 12.3989 2.22085 11.7491C2.19384 11.6953 2.15525 11.6481 2.10785 11.6109C2.06045 11.5737 2.00542 11.5475 1.94669 11.5341C1.58902 11.4745 1.2641 11.29 1.02971 11.0134C0.795328 10.7367 0.666691 10.3859 0.666687 10.0233V8.56246C0.666687 7.85996 1.17502 7.26079 1.86669 7.14579C1.93919 7.13329 2.04669 7.06079 2.09752 6.90912C2.25752 6.42829 2.56835 5.71412 3.14169 5.14079C3.55489 4.73579 4.0194 4.3867 4.52335 4.10246C4.63669 4.03746 4.74169 3.98162 4.83335 3.93579V1.55829C4.83335 0.776623 5.77502 0.45579 6.28335 0.961623C6.55835 1.23579 6.95835 1.60079 7.40085 1.90662V1.90746ZM9.89169 5.87329C9.48335 5.70412 9.13835 5.38246 9.05669 4.94829C8.90816 4.13938 9.06376 3.3041 9.49361 2.60294C9.92346 1.90177 10.5972 1.38417 11.3855 1.14956C12.1738 0.914951 13.0209 0.979886 13.7642 1.33189C14.5075 1.68389 15.0946 2.29814 15.4125 3.05662C15.7056 3.76345 15.7466 4.54956 15.5287 5.28305C15.3108 6.01654 14.8473 6.65276 14.2159 7.08496C13.8509 7.33412 13.38 7.31746 12.9717 7.14829L9.89169 5.87329ZM13.5534 6.02329C13.9649 5.72322 14.2525 5.28287 14.3616 4.78534C14.4708 4.28782 14.3941 3.76754 14.1459 3.32272C13.8978 2.87789 13.4954 2.53929 13.0147 2.37083C12.534 2.20236 12.0082 2.21569 11.5367 2.40829C11.1033 2.58778 10.7431 2.90816 10.5143 3.31765C10.2856 3.72714 10.2015 4.20181 10.2759 4.66496L10.2934 4.67829C10.3176 4.69407 10.3432 4.70747 10.37 4.71829L13.45 5.99329C13.4832 6.00712 13.5179 6.01691 13.5534 6.02246V6.02329ZM6.50002 6.83329C6.50002 7.0543 6.41222 7.26626 6.25594 7.42254C6.09966 7.57883 5.8877 7.66662 5.66669 7.66662C5.44567 7.66662 5.23371 7.57883 5.07743 7.42254C4.92115 7.26626 4.83335 7.0543 4.83335 6.83329C4.83335 6.61228 4.92115 6.40031 5.07743 6.24403C5.23371 6.08775 5.44567 5.99996 5.66669 5.99996C5.8877 5.99996 6.09966 6.08775 6.25594 6.24403C6.41222 6.40031 6.50002 6.61228 6.50002 6.83329Z" fill="#FFB200"/>
</svg>
