<svg width="229" height="51" viewBox="0 0 229 51" fill="none" xmlns="http://www.w3.org/2000/svg">
<g clip-path="url(#clip0_616_77)">
<path d="M72.7798 3.3623H70.5767L67.9491 10.3055L65.3311 3.3623H63.0898V11.9841H64.4823V4.9932L67.1337 11.9841H68.736L71.3873 4.9932V11.9841H72.7798V3.3623Z" fill="white"/>
<path d="M75.1992 4.2242H76.7061V2.86035H75.1992V4.2242ZM75.266 11.9829H76.6394V5.17317H75.266V11.9829Z" fill="white"/>
<path d="M83.6099 5.17383V7.90152H80.2718V5.17383H78.8984V11.9835H80.2718V9.12231H83.6099V11.9835H84.9833V5.17383H83.6099Z" fill="white"/>
<path d="M87.1758 4.2242H88.697V2.86035H87.1901L87.1758 4.2242ZM87.2664 11.9829H88.6398V5.17317H87.2664V11.9829Z" fill="white"/>
<path d="M93.7998 12.0968C95.2638 12.0968 96.475 11.3482 96.8613 10.0558L95.5594 9.64574C95.4424 10.0207 95.2085 10.3484 94.8919 10.5809C94.5753 10.8135 94.1926 10.9386 93.7998 10.9381C92.5456 10.9381 91.7683 9.98431 91.7683 8.55371C91.7683 7.1231 92.5456 6.19797 93.7998 6.19797C94.1937 6.19546 94.578 6.32042 94.8951 6.55418C95.2122 6.78795 95.4452 7.11799 95.5594 7.49506L96.8613 7.08495C96.475 5.79263 95.2876 5.04395 93.7998 5.04395C91.7683 5.04395 90.3711 6.47455 90.3711 8.55847C90.3711 10.6424 91.7683 12.0968 93.7998 12.0968Z" fill="white"/>
<path d="M103.657 5.17383H97.3477V6.38031H99.8178V11.9835H101.186V6.38031H103.657V5.17383Z" fill="white"/>
<path d="M105.478 9.01196H110.757C110.793 8.87022 110.807 8.72398 110.8 8.57801C110.8 6.4464 109.498 5.06348 107.49 5.06348C105.483 5.06348 104.109 6.49409 104.109 8.57801C104.109 10.6619 105.34 12.0973 107.605 12.0973C108.16 12.1285 108.715 12.0345 109.23 11.8224C109.744 11.6103 110.204 11.2854 110.576 10.8717L109.622 10.0563C109.378 10.354 109.066 10.5892 108.713 10.7426C108.359 10.896 107.975 10.9632 107.591 10.9385C107.056 10.9606 106.534 10.7706 106.138 10.4098C105.742 10.049 105.505 9.54666 105.478 9.01196ZM107.49 6.19843C108.516 6.19843 109.226 6.85651 109.398 7.96761H105.492C105.539 7.47445 105.772 7.0175 106.143 6.6891C106.513 6.36069 106.995 6.18532 107.49 6.19843Z" fill="white"/>
<path d="M116.036 5.06378C115.578 5.05707 115.125 5.16057 114.715 5.36554C114.305 5.57052 113.95 5.87099 113.68 6.24165L113.59 5.17346H112.402V14.234H113.771V11.0771C114.045 11.409 114.392 11.6735 114.785 11.8504C115.178 12.0273 115.606 12.1119 116.036 12.0976C117.796 12.0976 119.031 10.667 119.031 8.57831C119.031 6.48962 117.839 5.06378 116.036 5.06378ZM115.669 10.9388C114.458 10.9388 113.68 9.98508 113.68 8.55447C113.68 7.12386 114.448 6.19873 115.669 6.19873C116.89 6.19873 117.634 7.15247 117.634 8.55924C117.634 9.966 116.88 10.9388 115.669 10.9388Z" fill="white"/>
<path d="M123.597 12.0968C125.061 12.0968 126.272 11.3482 126.658 10.0558L125.356 9.64574C125.239 10.0207 125.005 10.3484 124.689 10.5809C124.372 10.8135 123.989 10.9386 123.597 10.9381C122.338 10.9381 121.565 9.98431 121.565 8.55371C121.565 7.1231 122.338 6.19797 123.597 6.19797C123.99 6.19623 124.374 6.32148 124.691 6.55513C125.008 6.78878 125.241 7.11839 125.356 7.49506L126.658 7.08495C126.272 5.79263 125.08 5.04395 123.597 5.04395C121.565 5.04395 120.168 6.47455 120.168 8.55847C120.168 10.6424 121.565 12.0968 123.597 12.0968Z" fill="white"/>
<path d="M133.445 5.17383H127.141V6.38031H129.606V11.9835H130.979V6.38031H133.445V5.17383Z" fill="white"/>
<path d="M139.272 8.48807C139.575 8.36546 139.833 8.15117 140.009 7.87507C140.185 7.59897 140.271 7.27482 140.254 6.94778C140.254 5.72223 139.3 5.17383 137.808 5.17383H134.746V11.9835H138.06C139.548 11.9835 140.445 11.3493 140.445 10.1237C140.461 9.75898 140.354 9.39929 140.142 9.10258C139.929 8.80588 139.622 8.58942 139.272 8.48807ZM136.072 6.26586H137.879C138.518 6.26586 138.909 6.56152 138.909 7.10515C138.909 7.73939 138.585 7.99213 137.808 7.99213H136.072V6.26586ZM137.922 10.8963H136.072V8.98878H137.812C138.59 8.98878 139.047 9.35121 139.047 9.94252C139.047 10.5338 138.656 10.8963 137.922 10.8963Z" fill="white"/>
<path d="M145.051 12.0974C145.516 12.1173 145.98 12.0398 146.413 11.8697C146.847 11.6996 147.24 11.4408 147.567 11.1098C147.894 10.7788 148.149 10.383 148.314 9.94784C148.48 9.51265 148.552 9.04769 148.527 8.58283C148.527 6.45122 147.154 5.0683 145.051 5.0683C144.586 5.04902 144.122 5.12708 143.69 5.29745C143.257 5.46783 142.864 5.72678 142.537 6.05768C142.211 6.38858 141.956 6.78414 141.791 7.21899C141.626 7.65384 141.554 8.11838 141.579 8.58283C141.579 10.7144 142.952 12.0974 145.051 12.0974ZM145.051 10.9386C143.796 10.9386 142.976 9.98482 142.976 8.55421C142.976 7.12361 143.796 6.19848 145.051 6.19848C146.305 6.19848 147.135 7.15222 147.135 8.55898C147.135 9.96575 146.31 10.9386 145.051 10.9386Z" fill="white"/>
<path d="M68.8527 28.2106V22.6074H67.4794V28.2106H64.2367V22.6074H62.8633V29.4171H68.4379V30.9956H69.7397V28.2106H68.8527Z" fill="white"/>
<path d="M75.9289 22.6074L72.5909 27.5096V22.6074H71.2461V29.4171H72.6767L76.0148 24.4672V29.4171H77.3643V22.6074H75.9289Z" fill="white"/>
<path d="M86.9477 22.541C86.5725 22.5284 86.1998 22.6062 85.8612 22.7681C85.5225 22.93 85.2278 23.171 85.002 23.4709V20.3379H83.6334V23.4232C83.4075 23.1363 83.1169 22.9068 82.7854 22.7535C82.454 22.6002 82.0909 22.5274 81.726 22.541C80.1285 22.541 79.0078 23.9239 79.0078 26.0126C79.0078 28.1013 80.0808 29.4842 81.726 29.4842C82.0952 29.4935 82.4612 29.4139 82.7932 29.2521C83.1251 29.0902 83.4133 28.8509 83.6334 28.5544V31.6874H85.002V28.5782C85.233 28.8708 85.5293 29.1052 85.8671 29.2625C86.205 29.4199 86.5751 29.4958 86.9477 29.4842C88.5213 29.4842 89.6658 28.1013 89.6658 26.0126C89.6658 23.9239 88.5929 22.541 86.9477 22.541ZM82.055 28.3731C81.0297 28.3731 80.386 27.4194 80.386 25.9888C80.386 24.5582 81.0297 23.6283 82.055 23.6283C83.0803 23.6283 83.7002 24.5582 83.7002 25.9888C83.7002 27.4194 83.0612 28.3731 82.055 28.3731ZM86.6043 28.3731C85.5743 28.3731 84.9353 27.4194 84.9353 25.9888C84.9353 24.5582 85.5743 23.6283 86.6043 23.6283C87.6344 23.6283 88.2734 24.5582 88.2734 25.9888C88.2734 27.4194 87.6105 28.3731 86.6043 28.3731Z" fill="white"/>
<path d="M94.9189 22.4927C94.4604 22.4841 94.0068 22.5872 93.5972 22.7933C93.1876 22.9994 92.8343 23.3021 92.5679 23.6753L92.4726 22.6071H91.2852V31.6677H92.6585V28.506C92.9321 28.8378 93.2781 29.1023 93.67 29.2793C94.0619 29.4562 94.4892 29.5408 94.9189 29.5265C96.6785 29.5265 97.9136 28.0959 97.9136 26.012C97.9136 23.9281 96.7262 22.4927 94.9189 22.4927ZM94.5565 28.3725C93.3405 28.3725 92.5679 27.4188 92.5679 25.9881C92.5679 24.5575 93.3405 23.6276 94.5565 23.6276C95.7725 23.6276 96.5212 24.5575 96.5212 25.9881C96.5212 27.4188 95.7629 28.3725 94.5565 28.3725Z" fill="white"/>
<path d="M102.527 29.5269C102.992 29.5462 103.456 29.4682 103.889 29.2978C104.321 29.1274 104.714 28.8685 105.041 28.5376C105.367 28.2067 105.622 27.8111 105.787 27.3762C105.952 26.9414 106.024 26.4769 105.999 26.0124C105.999 23.876 104.63 22.4931 102.527 22.4931C102.062 22.4738 101.598 22.552 101.165 22.7226C100.732 22.8933 100.339 23.1527 100.012 23.4841C99.6855 23.8155 99.4315 24.2117 99.2668 24.6471C99.102 25.0825 99.0302 25.5476 99.0559 26.0124C99.0606 28.1345 100.429 29.5269 102.527 29.5269ZM102.527 28.3729C101.269 28.3729 100.448 27.4192 100.448 25.9886C100.448 24.558 101.269 23.6281 102.527 23.6281C103.786 23.6281 104.607 24.558 104.607 25.9886C104.607 27.4192 103.786 28.3729 102.527 28.3729Z" fill="white"/>
<path d="M112.178 25.9217C112.481 25.797 112.738 25.5816 112.914 25.305C113.09 25.0283 113.176 24.704 113.16 24.3766C113.16 23.1511 112.206 22.6074 110.714 22.6074H107.652V29.4171H110.967C112.45 29.4171 113.351 28.7781 113.351 27.5526C113.368 27.1882 113.261 26.8288 113.048 26.5328C112.835 26.2367 112.529 26.0213 112.178 25.9217ZM108.978 23.6947H110.785C111.424 23.6947 111.811 23.9903 111.811 24.534C111.811 25.173 111.491 25.421 110.714 25.421H108.978V23.6947ZM110.828 28.3251H108.978V26.4415H110.738C111.515 26.4415 111.973 26.8039 111.973 27.3952C111.973 27.9865 111.563 28.3251 110.828 28.3251Z" fill="white"/>
<path d="M117.953 29.5269C118.418 29.5469 118.882 29.4694 119.316 29.2993C119.749 29.1292 120.142 28.8704 120.47 28.5394C120.797 28.2084 121.051 27.8126 121.217 27.3774C121.382 26.9422 121.455 26.4773 121.43 26.0124C121.43 23.876 120.056 22.4931 117.953 22.4931C117.488 22.4738 117.024 22.552 116.591 22.7226C116.158 22.8933 115.765 23.1527 115.438 23.4841C115.111 23.8155 114.857 24.2117 114.693 24.6471C114.528 25.0825 114.456 25.5476 114.482 26.0124C114.482 28.1345 115.879 29.5269 117.953 29.5269ZM117.953 28.3729C116.699 28.3729 115.874 27.4192 115.874 25.9886C115.874 24.558 116.699 23.6281 117.953 23.6281C119.207 23.6281 120.032 24.558 120.032 25.9886C120.032 27.4192 119.217 28.3729 117.953 28.3729Z" fill="white"/>
<path d="M121.957 21.6539H123.44V20.29H121.957V21.6539ZM124.308 21.6539H125.796V20.29H124.308V21.6539ZM123.192 29.4173H124.561V22.6076H123.192V29.4173Z" fill="white"/>
<path d="M135.938 22.6074H129.629V23.8091H132.09V29.4171H133.458V23.8091H135.928L135.938 22.6074Z" fill="white"/>
<path d="M140.876 22.4927C140.417 22.4841 139.962 22.5873 139.552 22.7933C139.142 22.9993 138.788 23.302 138.52 23.6753L138.43 22.6071H137.242V31.6677H138.611V28.506C138.885 28.8381 139.232 29.1029 139.625 29.2798C140.017 29.4567 140.445 29.5411 140.876 29.5265C142.636 29.5265 143.866 28.0959 143.866 26.012C143.866 23.9281 142.678 22.4927 140.876 22.4927ZM140.509 28.3725C139.297 28.3725 138.52 27.4187 138.52 25.9881C138.52 24.5575 139.297 23.6276 140.509 23.6276C141.72 23.6276 142.473 24.5575 142.473 25.9881C142.473 27.4187 141.72 28.3725 140.509 28.3725Z" fill="white"/>
<path d="M150.953 28.2343C150.658 28.2343 150.519 28.1008 150.519 27.8052V24.7389C150.519 23.3083 149.513 22.4928 147.868 22.4928C146.764 22.4736 145.696 22.8899 144.897 23.6516L145.741 24.5338C146.005 24.2514 146.324 24.0255 146.678 23.8697C147.032 23.714 147.414 23.6317 147.801 23.6278C148.669 23.6278 149.232 23.9902 149.232 24.5338C149.232 25.0775 148.731 25.149 147.701 25.2825C146.375 25.4876 144.754 25.85 144.754 27.5333C144.754 28.7112 145.646 29.5266 146.995 29.5266C147.456 29.5372 147.912 29.438 148.327 29.2373C148.741 29.0367 149.102 28.7403 149.38 28.3726C149.47 29.1642 149.856 29.4599 150.705 29.4599C150.865 29.4627 151.025 29.4483 151.182 29.417V28.2343H150.953ZM147.229 28.4155C146.518 28.4155 146.108 28.077 146.108 27.4618C146.108 26.5748 147 26.4365 147.868 26.303C148.326 26.2649 148.774 26.1487 149.194 25.9597V26.8466C149.194 27.6907 148.278 28.4155 147.229 28.4155Z" fill="white"/>
<path d="M157.441 22.6074V25.3303H154.103V22.6074H152.734V29.4171H154.103V26.5559H157.441V29.4171H158.795V22.6074H157.441Z" fill="white"/>
<path d="M163.886 29.5274C165.35 29.5274 166.561 28.7787 166.947 27.4864L165.645 27.0763C165.528 27.4518 165.295 27.7801 164.978 28.0134C164.662 28.2467 164.279 28.3728 163.886 28.3734C162.632 28.3734 161.854 27.4196 161.854 25.989C161.854 24.5584 162.632 23.6285 163.886 23.6285C164.279 23.6257 164.663 23.75 164.98 23.9828C165.297 24.2157 165.53 24.5447 165.645 24.9208L166.947 24.5107C166.561 23.2184 165.374 22.4697 163.886 22.4697C161.854 22.4697 160.457 23.9003 160.457 25.989C160.457 28.0777 161.854 29.5274 163.886 29.5274Z" fill="white"/>
<path d="M175.745 22.541C175.371 22.5283 174.999 22.6062 174.661 22.7681C174.323 22.93 174.029 23.1711 173.805 23.4709V20.3379H172.431V23.4232C172.205 23.136 171.915 22.9063 171.583 22.753C171.252 22.5996 170.889 22.527 170.524 22.541C168.921 22.541 167.801 23.9239 167.801 26.0126C167.801 28.1013 168.878 29.4842 170.524 29.4842C170.893 29.4935 171.259 29.4139 171.591 29.2521C171.923 29.0902 172.211 28.8509 172.431 28.5544V31.6874H173.805V28.5782C174.035 28.8701 174.33 29.1041 174.667 29.2614C175.005 29.4188 175.374 29.4951 175.745 29.4842C177.324 29.4842 178.464 28.1013 178.464 26.0126C178.464 23.9239 177.395 22.541 175.745 22.541ZM170.858 28.3731C169.827 28.3731 169.188 27.4194 169.188 25.9888C169.188 24.5582 169.827 23.6283 170.858 23.6283C171.888 23.6283 172.503 24.5582 172.503 25.9888C172.503 27.4194 171.859 28.3731 170.858 28.3731ZM175.402 28.3731C174.377 28.3731 173.733 27.4194 173.733 25.9888C173.733 24.5582 174.377 23.6283 175.402 23.6283C176.427 23.6283 177.071 24.5582 177.071 25.9888C177.071 27.4194 176.408 28.3731 175.402 28.3731Z" fill="white"/>
<path d="M183.056 29.5271C183.52 29.5464 183.984 29.4684 184.417 29.298C184.85 29.1276 185.242 28.8687 185.569 28.5378C185.896 28.2069 186.15 27.8113 186.315 27.3765C186.48 26.9416 186.552 26.4771 186.527 26.0126C186.527 23.8762 185.154 22.4933 183.056 22.4933C182.59 22.4733 182.126 22.551 181.692 22.7213C181.258 22.8917 180.865 23.151 180.537 23.4825C180.21 23.814 179.956 24.2104 179.791 24.6461C179.626 25.0819 179.554 25.5474 179.579 26.0126C179.579 28.1347 180.953 29.5271 183.056 29.5271ZM183.056 28.3731C181.797 28.3731 180.972 27.4194 180.972 25.9888C180.972 24.5582 181.797 23.6283 183.056 23.6283C184.315 23.6283 185.13 24.5582 185.13 25.9888C185.13 27.4194 184.31 28.3731 183.056 28.3731Z" fill="white"/>
<path d="M191.81 22.4927C191.35 22.4841 190.896 22.5873 190.486 22.7933C190.075 22.9993 189.721 23.302 189.454 23.6753L189.363 22.6071H188.176V31.6677H189.544V28.506C189.819 28.8379 190.166 29.1024 190.558 29.2793C190.951 29.4562 191.379 29.5408 191.81 29.5265C193.569 29.5265 194.804 28.0959 194.804 26.012C194.804 23.9281 193.607 22.4927 191.81 22.4927ZM191.442 28.3725C190.231 28.3725 189.454 27.4187 189.454 25.9881C189.454 24.5575 190.231 23.6276 191.442 23.6276C192.654 23.6276 193.407 24.5575 193.407 25.9881C193.407 27.4187 192.654 28.3725 191.442 28.3725Z" fill="white"/>
<path d="M204.541 22.6074H202.462L200.517 27.8959L198.552 22.6074H196.473V29.4171H197.798V24.038L199.787 29.4171H201.241L203.23 24.038V29.4171H204.556L204.541 22.6074Z" fill="white"/>
<path d="M212.258 28.2344C211.962 28.2344 211.824 28.1009 211.824 27.8053V24.739C211.824 23.3084 210.823 22.4929 209.177 22.4929C208.073 22.4722 207.005 22.8887 206.206 23.6517L207.05 24.5339C207.314 24.2521 207.632 24.0265 207.986 23.8708C208.339 23.7151 208.72 23.6324 209.106 23.6279C209.974 23.6279 210.536 23.9903 210.536 24.5339C210.536 25.0776 210.06 25.1491 209.006 25.2826C207.68 25.4877 206.059 25.8501 206.059 27.5334C206.059 28.7113 206.95 29.5268 208.3 29.5268C208.76 29.5369 209.217 29.4375 209.631 29.2369C210.046 29.0363 210.407 28.7401 210.684 28.3727C210.775 29.1643 211.161 29.46 212.01 29.46C212.17 29.4632 212.33 29.4489 212.487 29.4171V28.2344H212.258ZM208.534 28.4156C207.828 28.4156 207.418 28.0771 207.418 27.4619C207.418 26.5749 208.309 26.4366 209.177 26.3031C209.634 26.2658 210.081 26.1497 210.498 25.9598V26.8467C210.498 27.6908 209.587 28.4156 208.534 28.4156Z" fill="white"/>
<path d="M220.032 28.2106V22.6074H218.659V28.2106H215.416V22.6074H214.043V29.4171H219.622V30.9956H220.924V28.2106H220.032Z" fill="white"/>
<path d="M222.477 21.6539H223.983V20.29H222.477V21.6539ZM222.543 29.4173H223.912V22.6076H222.543V29.4173Z" fill="white"/>
<path d="M225.082 21.6539H226.565V20.29H225.082V21.6539ZM227.438 21.6539H228.897V20.29H227.414L227.438 21.6539ZM226.317 29.4173H227.686V22.6076H226.317V29.4173Z" fill="white"/>
<path d="M68.5968 38.2207L66.9039 43.1038H66.1982L63.6135 38.2207H61.9922L64.7103 43.1038H63.7566C63.4916 43.314 63.2801 43.5838 63.1392 43.8913C62.9983 44.1987 62.9321 44.5351 62.9459 44.873C62.9349 45.1577 62.9844 45.4414 63.0909 45.7055C63.1975 45.9697 63.3588 46.2083 63.5642 46.4056C63.7697 46.6029 64.0145 46.7545 64.2828 46.8503C64.551 46.9462 64.8365 46.9842 65.1204 46.9617C66.3317 46.9617 67.1996 46.213 67.7241 44.7824L70.1466 38.2207H68.5968ZM65.1443 45.7791C65.0236 45.7863 64.9029 45.7675 64.7901 45.7241C64.6774 45.6806 64.5753 45.6134 64.4907 45.527C64.4062 45.4407 64.3411 45.3372 64.3001 45.2235C64.259 45.1099 64.2428 44.9887 64.2525 44.8683C64.2542 44.6255 64.3441 44.3917 64.5053 44.2102H66.5177L66.3317 44.7347C66.0599 45.4167 65.7165 45.7791 65.1443 45.7791Z" fill="white"/>
<path d="M77.3027 45.6455C77.2569 45.6482 77.211 45.6413 77.1681 45.625C77.1252 45.6087 77.0862 45.5835 77.0538 45.5511C77.0213 45.5186 76.9961 45.4797 76.9798 45.4367C76.9636 45.3938 76.9566 45.3479 76.9594 45.3021V42.8081H75.7004L77.4362 40.0566H75.977L74.3509 42.7604H72.9585V37.7676H71.5898V46.8281H72.9585V43.9669H75.6098V45.5787C75.6098 46.3989 76.0867 46.8281 76.9355 46.8281H77.5507V45.6455H77.3027Z" fill="white"/>
<path d="M82.7891 39.9231C82.3304 39.9169 81.8769 40.0212 81.467 40.227C81.057 40.4328 80.7025 40.7342 80.4334 41.1057L80.3428 40.0566H79.1602V49.1172H80.5288V45.9412C80.803 46.2733 81.1499 46.5381 81.5426 46.715C81.9353 46.8919 82.3634 46.9763 82.7939 46.9617C84.5535 46.9617 85.7839 45.5311 85.7839 43.4424C85.7839 41.3537 84.5917 39.9231 82.7891 39.9231ZM82.4219 45.8029C81.2107 45.8029 80.4334 44.8492 80.4334 43.4186C80.4334 41.988 81.2107 41.0581 82.4219 41.0581C83.6332 41.0581 84.4057 42.0118 84.4057 43.4424C84.4057 44.873 83.6332 45.8029 82.4219 45.8029Z" fill="white"/>
<path d="M92.8642 45.6692C92.805 45.6791 92.7442 45.6748 92.687 45.6565C92.6298 45.6382 92.5779 45.6065 92.5354 45.564C92.4929 45.5216 92.4612 45.4696 92.4429 45.4124C92.4247 45.3552 92.4203 45.2944 92.4303 45.2352V42.1737C92.4303 40.7431 91.4241 39.9229 89.7789 39.9229C88.6682 39.8986 87.5932 40.3153 86.7889 41.0817L87.652 41.9639C87.9159 41.6806 88.2346 41.4538 88.5887 41.2972C88.9428 41.1407 89.325 41.0576 89.7121 41.0531C90.58 41.0531 91.1427 41.4202 91.1427 41.9639C91.1427 42.5075 90.6372 42.5743 89.6072 42.7126C88.2815 42.9176 86.6602 43.28 86.6602 44.9586C86.6602 46.1365 87.5519 46.9567 88.9014 46.9567C89.3624 46.9674 89.8193 46.8679 90.2341 46.6663C90.6488 46.4647 91.0094 46.167 91.2858 45.7979C91.3764 46.5943 91.7626 46.8899 92.6115 46.8899C92.7718 46.8942 92.932 46.8781 93.0883 46.8423V45.6692H92.8642ZM89.1399 45.8504C88.4293 45.8504 88.0192 45.507 88.0192 44.8728C88.0192 43.9858 88.911 43.8523 89.7789 43.714C90.2363 43.6744 90.6842 43.56 91.1046 43.3754V44.2576C91.1046 45.1208 90.189 45.8504 89.1399 45.8504Z" fill="white"/>
<path d="M93.5273 39.1028H95.0104V37.7246H93.5273V39.1028ZM95.8783 39.1028H97.3661V37.7246H95.8783V39.1028ZM94.7624 46.8662H96.131V40.0565H94.7624V46.8662Z" fill="white"/>
<path d="M103.101 40.0566V42.7796H99.7631V40.0566H98.3945V46.8473H99.7631V43.986H103.101V46.8473H104.47V40.0566H103.101Z" fill="white"/>
<path d="M111.308 40.0566L107.97 44.9589V40.0566H106.625V46.8473H108.056L111.394 41.8974V46.8473H112.743V40.0566H111.308Z" fill="white"/>
<path fill-rule="evenodd" clip-rule="evenodd" d="M4.57793 4.57318C2.76106 6.39005 1.8121 8.71241 1.33046 12.0028C0.848825 15.2932 0.853593 19.5183 0.853593 25.0261C0.853593 30.534 0.853593 34.7304 1.33046 38.0494C1.80733 41.3684 2.76106 43.6717 4.5827 45.4886C6.39957 47.3055 8.72191 48.2544 12.0123 48.7361C15.3027 49.2177 19.5277 49.2129 25.0356 49.2129C30.5434 49.2129 34.7398 49.2129 38.0588 48.7361C41.3778 48.2592 43.6811 47.3055 45.498 45.4838C47.3148 43.6622 48.2686 41.3398 48.7502 38.0494C49.2318 34.759 49.2271 30.534 49.2271 25.0213C49.2271 19.5087 49.2271 15.3123 48.7502 11.9933C48.2733 8.67426 47.3196 6.38052 45.498 4.55887C43.6763 2.73723 41.354 1.79303 38.0636 1.31139C34.7732 0.829753 30.5482 0.834522 25.0356 0.834522C19.523 0.834522 15.3265 0.834522 12.0075 1.31139C8.68853 1.78826 6.3948 2.75631 4.57793 4.57318ZM46.0654 3.97709C50.0711 7.96372 50.0711 14.0533 50.0711 25.0309C50.0711 36.0084 50.0711 42.098 46.0845 46.0847C42.0979 50.0713 35.9988 50.0713 25.0308 50.0713C14.0628 50.0713 7.96369 50.0713 3.98661 46.0847C0.00953712 42.098 0 35.9989 0 25.0309C0 14.0629 0 7.96372 3.98661 3.98663C7.97323 0.00953716 14.0533 0 25.0308 0C36.0083 0 42.0979 0 46.0845 3.97709H46.0654Z" fill="white"/>
<path d="M23.9792 40.857C22.149 39.4284 20.9124 37.373 20.5076 35.0869H14.7852V10.1514C17.8562 11.6917 20.0307 15.1156 20.3073 18.6492L21.1704 25.6496L20.7508 25.5829C20.2978 25.6041 19.8693 25.7949 19.5505 26.1173C19.2316 26.4397 19.0455 26.8703 19.0293 27.3235C19.0424 27.7239 19.1911 28.108 19.451 28.413C19.7109 28.7179 20.0666 28.9256 20.4599 29.002L21.4995 29.25C23.2209 25.9596 24.1938 22.7407 24.1938 19.5648C24.1938 16.7036 23.8218 13.8424 23.7741 10.9811C23.7761 9.72988 24.2319 8.52181 25.0569 7.58105C25.8681 8.52304 26.3162 9.72372 26.3206 10.9668C26.3206 13.871 25.9009 16.737 25.9009 19.5743C25.9009 22.7264 26.8547 25.9691 28.5952 29.2595L29.6348 29.0116C30.0281 28.9351 30.3838 28.7274 30.6437 28.4225C30.9036 28.1176 31.0523 27.7334 31.0654 27.333C31.0492 26.8798 30.8631 26.4493 30.5443 26.1268C30.2254 25.8044 29.7969 25.6137 29.3439 25.5924L28.9243 25.6592L29.7874 18.6587C30.188 15.1156 32.2194 11.6917 35.2905 10.1514V35.0869H29.5681C29.1962 37.3911 27.9427 39.4604 26.0726 40.857C25.6385 41.1633 25.2837 41.5687 25.0378 42.0396C24.7744 41.5737 24.4132 41.1702 23.9792 40.857ZM17.4795 26.4746C17.7543 25.5266 18.3893 24.7238 19.2486 24.2381L18.5619 18.468C18.3303 16.7314 17.611 15.0961 16.4876 13.7517V26.4508H17.4795V26.4746ZM20.374 33.3415C20.3862 32.5045 20.4901 31.6714 20.684 30.8571L19.8876 30.6806C19.3132 30.5006 18.7936 30.1785 18.3768 29.7442C17.96 29.3099 17.6595 28.7774 17.5033 28.1961H16.5496V33.3415H20.374ZM24.1556 33.3415C24.1577 32.8277 23.9724 32.3307 23.6345 31.9436C23.2966 31.5565 22.8291 31.3058 22.3197 31.2386C22.1256 31.9232 22.0214 32.6301 22.0097 33.3415H24.1556ZM24.1556 35.0869H22.2481C22.5702 36.4485 23.2257 37.7086 24.1556 38.754V35.0869ZM26.8499 29.6935C26.0874 28.3321 25.472 26.8934 25.014 25.4017C24.5621 26.8948 23.9481 28.334 23.1828 29.6935C23.9041 29.9079 24.5429 30.3371 25.014 30.9238C25.487 30.3369 26.1273 29.9078 26.8499 29.6935ZM28.023 33.3415C28.0113 32.6301 27.9071 31.9232 27.713 31.2386C27.2053 31.3097 26.7401 31.5614 26.4029 31.9477C26.0657 32.3339 25.879 32.8288 25.8771 33.3415H28.023ZM27.7798 35.0869H25.8723V38.754C26.8023 37.7086 27.4577 36.4485 27.7798 35.0869ZM33.5451 33.3415V28.1961H32.5914C32.4352 28.7774 32.1347 29.3099 31.7179 29.7442C31.3011 30.1785 30.7815 30.5006 30.2071 30.6806L29.4107 30.8571C29.6046 31.6714 29.7085 32.5045 29.7207 33.3415H33.5451ZM33.5451 26.4746V13.7756C32.3888 15.0988 31.6664 16.745 31.4755 18.4918L30.7936 24.262C31.2209 24.4997 31.5968 24.8197 31.8997 25.2036C32.2025 25.5875 32.4263 26.0276 32.558 26.4985H33.5547L33.5451 26.4746Z" fill="white"/>
</g>
<defs>
<clipPath id="clip0_616_77">
<rect width="228.897" height="50.0713" fill="white"/>
</clipPath>
</defs>
</svg>
