<svg width="167" height="44" viewBox="0 0 167 44" fill="none" xmlns="http://www.w3.org/2000/svg">
<path fill-rule="evenodd" clip-rule="evenodd" d="M33.5486 41.5046L28.6133 36.5693L50.0507 15.1318V24.9954L33.5486 41.5046Z" fill="white"/>
<path fill-rule="evenodd" clip-rule="evenodd" d="M43.0738 41.5048H50.0474V28.7651L43.0738 35.7388V41.5048ZM10.3838 41.5048H3.41016V28.7651L10.3838 35.7388V41.5048ZM19.9192 41.5048L3.41016 24.9956V15.132L19.9192 31.6412L50.0544 1.50586V11.3695L19.9192 41.5048Z" fill="white"/>
<path d="M110.775 32.8271H112.799V38.5721L117.008 32.8271H118.921V41.6436H116.904V35.9125L112.694 41.6436H110.768V32.8271H110.775ZM108.569 32.8271V41.6436H106.53V38.0276H102.524V41.6436H100.485V32.8271H102.524V36.3034H106.53V32.8271H108.569ZM98.5934 32.0452C98.3421 32.0452 98.1327 31.9615 97.9722 31.8009C97.8116 31.6404 97.7278 31.4309 97.7278 31.1796C97.7278 30.9283 97.8116 30.7189 97.9722 30.5584C98.1327 30.3978 98.3421 30.314 98.5934 30.314C98.8447 30.314 99.0542 30.3978 99.2217 30.5584C99.3892 30.7189 99.473 30.9283 99.473 31.1796C99.473 31.4309 99.3892 31.6404 99.2217 31.8009C99.0611 31.9615 98.8447 32.0452 98.5934 32.0452ZM96.0525 32.0452C95.8012 32.0452 95.5918 31.9615 95.4243 31.8009C95.2567 31.6404 95.173 31.4309 95.173 31.1796C95.173 30.9283 95.2567 30.7189 95.4243 30.5584C95.5918 30.3978 95.8012 30.314 96.0525 30.314C96.3038 30.314 96.5132 30.3978 96.6738 30.5584C96.8343 30.7189 96.9181 30.9283 96.9181 31.1796C96.9181 31.4309 96.8343 31.6404 96.6738 31.8009C96.5132 31.9615 96.3038 32.0452 96.0525 32.0452ZM96.3038 32.8271H98.3421V41.6436H96.3038V32.8271ZM91.6198 38.2021L90.2237 34.8235L88.8276 38.2021H91.6198ZM92.2621 39.7518H88.1714L87.3896 41.6436H85.2954L89.2255 32.8271H91.2429L95.1869 41.6436H93.0439L92.2621 39.7518ZM81.4422 37.546C82.0564 37.546 82.5241 37.4133 82.8383 37.1481C83.1594 36.8828 83.3199 36.5058 83.3199 36.0242C83.3199 35.5286 83.1594 35.1516 82.8383 34.8863C82.5172 34.6211 82.0495 34.4885 81.4422 34.4885H79.7808V37.546H81.4422ZM81.5538 32.8271C82.3357 32.8271 83.0128 32.9597 83.5852 33.218C84.1576 33.4763 84.6043 33.8532 84.9115 34.3279C85.2186 34.8026 85.3792 35.375 85.3792 36.0312C85.3792 36.6804 85.2256 37.2458 84.9115 37.7275C84.5974 38.2091 84.1576 38.5791 83.5852 38.8374C83.0128 39.0957 82.3287 39.2213 81.5538 39.2213H79.7808V41.6506H77.7424V32.8271H81.5538ZM72.1719 38.0904H70.7619V41.6436H68.7375V32.8271H70.7619V36.3942H72.2208L74.5384 32.8271H76.6954L73.8124 37.0852L76.7861 41.6436H74.4685L72.1719 38.0904ZM67.7881 32.8271L64.0326 39.8077C63.6766 40.4778 63.2368 40.9874 62.7272 41.3294C62.2246 41.6715 61.6661 41.846 61.0728 41.846C60.6121 41.846 60.1304 41.7483 59.6348 41.5458L60.1234 39.9962C60.4794 40.1078 60.7726 40.1567 61.003 40.1567C61.2543 40.1567 61.4847 40.0939 61.6801 39.9752C61.8825 39.8565 62.0501 39.6471 62.2316 39.4028L62.3084 39.3051L58.832 32.834H61.01L63.3555 37.5669L65.7707 32.834H67.7881V32.8271ZM134.076 17.5954H136.107V23.3404L140.316 17.5954H142.229V26.4119H140.212V20.6808L136.002 26.4119H134.076V17.5954ZM128.512 22.8588H127.102V26.4119H125.078V17.5954H127.102V21.1625H128.561L130.879 17.5954H133.036L130.153 21.8535L133.126 26.4119H130.809L128.512 22.8588ZM120.875 17.5954H122.9V26.4119H120.875V17.5954ZM116.771 26.4119L116.757 21.1345L114.16 25.4835H113.253L110.656 21.2393V26.4189H108.743V17.5954H110.433L113.734 23.0752L116.987 17.5954H118.677L118.691 26.4119H116.771ZM102.349 24.8273C102.873 24.8273 103.34 24.7086 103.759 24.4713C104.178 24.2339 104.506 23.8989 104.75 23.473C104.988 23.0472 105.106 22.5586 105.106 22.0141C105.106 21.4696 104.988 20.981 104.75 20.5552C104.513 20.1293 104.178 19.7943 103.759 19.5569C103.34 19.3196 102.866 19.2009 102.349 19.2009C101.825 19.2009 101.358 19.3196 100.939 19.5569C100.52 19.7943 100.185 20.1293 99.9477 20.5552C99.7103 20.981 99.5917 21.4696 99.5917 22.0141C99.5917 22.5586 99.7103 23.0472 99.9477 23.473C100.185 23.8989 100.513 24.2339 100.939 24.4713C101.358 24.7016 101.825 24.8273 102.349 24.8273ZM102.349 26.5655C101.435 26.5655 100.611 26.37 99.8709 25.9721C99.1379 25.5742 98.5585 25.0297 98.1467 24.3386C97.7348 23.6476 97.5254 22.8657 97.5254 22.0001C97.5254 21.1345 97.7348 20.3597 98.1467 19.6616C98.5655 18.9706 99.1379 18.4261 99.8709 18.0282C100.604 17.6373 101.428 17.4348 102.349 17.4348C103.263 17.4348 104.087 17.6303 104.82 18.0282C105.553 18.4261 106.125 18.9636 106.544 19.6616C106.963 20.3527 107.173 21.1345 107.173 22.0001C107.173 22.8657 106.963 23.6476 106.544 24.3386C106.125 25.0297 105.546 25.5742 104.82 25.9721C104.087 26.363 103.263 26.5655 102.349 26.5655ZM95.9338 17.5954V26.4119H93.8955V22.7959H89.8887V26.4119H87.8503V17.5954H89.8887V21.0717H93.8955V17.5954H95.9338ZM81.4491 24.8273C81.9727 24.8273 82.4404 24.7086 82.8592 24.4713C83.278 24.2339 83.6061 23.8989 83.8505 23.473C84.0878 23.0472 84.2065 22.5586 84.2065 22.0141C84.2065 21.4696 84.0878 20.981 83.8505 20.5552C83.6131 20.1293 83.278 19.7943 82.8592 19.5569C82.4404 19.3196 81.9657 19.2009 81.4491 19.2009C80.9256 19.2009 80.4579 19.3196 80.039 19.5569C79.6202 19.7943 79.2851 20.1293 79.0478 20.5552C78.8105 20.981 78.6918 21.4696 78.6918 22.0141C78.6918 22.5586 78.8105 23.0472 79.0478 23.473C79.2851 23.8989 79.6132 24.2339 80.039 24.4713C80.4579 24.7016 80.9326 24.8273 81.4491 24.8273ZM81.4491 26.5655C80.5347 26.5655 79.711 26.37 78.971 25.9721C78.2381 25.5742 77.6587 25.0297 77.2468 24.3386C76.835 23.6476 76.6255 22.8657 76.6255 22.0001C76.6255 21.1345 76.835 20.3597 77.2468 19.6616C77.6656 18.9706 78.2381 18.4261 78.971 18.0282C79.704 17.6373 80.5277 17.4348 81.4491 17.4348C82.3636 17.4348 83.1873 17.6303 83.9203 18.0282C84.6532 18.4261 85.2256 18.9636 85.6445 19.6616C86.0633 20.3527 86.2727 21.1345 86.2727 22.0001C86.2727 22.8657 86.0633 23.6476 85.6445 24.3386C85.2256 25.0297 84.6462 25.5742 83.9203 25.9721C83.1943 26.363 82.3706 26.5655 81.4491 26.5655ZM71.7182 22.8588H70.3081V26.4119H68.2768V17.5954H70.3081V21.1625H71.7671L74.0846 17.5954H76.2416L73.3586 21.8535L76.3324 26.4119H74.0148L71.7182 22.8588ZM66.6503 24.7714V26.4119H59.8233V17.5954H66.4897V19.2358H61.8546V21.1485H65.9452V22.7331H61.8546V24.7714H66.6503ZM156.03 9.59559C156.553 9.59559 157.021 9.47692 157.44 9.23958C157.859 9.00224 158.187 8.66717 158.431 8.24135C158.668 7.81554 158.787 7.32689 158.787 6.78241C158.787 6.23792 158.668 5.74927 158.431 5.32346C158.194 4.89764 157.866 4.56257 157.44 4.32523C157.021 4.08789 156.546 3.96922 156.03 3.96922C155.506 3.96922 155.038 4.08789 154.62 4.32523C154.201 4.56257 153.873 4.89764 153.628 5.32346C153.391 5.74927 153.272 6.23792 153.272 6.78241C153.272 7.32689 153.391 7.81554 153.628 8.24135C153.866 8.66717 154.194 9.00224 154.62 9.23958C155.038 9.46994 155.513 9.59559 156.03 9.59559ZM156.03 11.3338C155.115 11.3338 154.292 11.1383 153.552 10.7404C152.819 10.3425 152.239 9.80501 151.827 9.10695C151.409 8.41587 151.206 7.63404 151.206 6.76844C151.206 5.90285 151.416 5.128 151.827 4.42994C152.246 3.73886 152.819 3.19437 153.552 2.79648C154.285 2.39858 155.108 2.20312 156.03 2.20312C156.944 2.20312 157.768 2.39858 158.501 2.79648C159.234 3.19437 159.806 3.73188 160.225 4.42994C160.644 5.12102 160.853 5.90285 160.853 6.76844C160.853 7.63404 160.644 8.40889 160.225 9.10695C159.806 9.79803 159.227 10.3425 158.501 10.7404C157.768 11.1313 156.944 11.3338 156.03 11.3338ZM146.711 9.6654C147.667 9.6654 148.149 9.28845 148.149 8.53454C148.149 7.80157 147.667 7.43858 146.711 7.43858H144.47V9.6654H146.711ZM144.47 6.01454H146.369C146.815 6.01454 147.15 5.92379 147.374 5.74229C147.597 5.5608 147.716 5.29553 147.716 4.93952C147.716 4.59747 147.597 4.33221 147.367 4.14373C147.136 3.96224 146.801 3.86451 146.369 3.86451H144.47V6.01454ZM148.547 6.57997C149.084 6.74052 149.496 6.9988 149.782 7.3618C150.068 7.72479 150.208 8.16457 150.208 8.69509C150.208 9.47692 149.915 10.0842 149.321 10.524C148.728 10.9638 147.883 11.1802 146.78 11.1802H142.432V2.36368H146.536C147.562 2.36368 148.358 2.55914 148.93 2.95703C149.503 3.35493 149.789 3.91337 149.789 4.64634C149.789 5.08612 149.677 5.47005 149.461 5.79814C149.252 6.12623 148.944 6.39149 148.547 6.57997ZM141.154 4.02506H138.334V11.1802H136.317V4.02506H133.51V2.36368H141.154V4.02506ZM129.531 11.3338C128.631 11.3338 127.821 11.1383 127.095 10.7474C126.369 10.3565 125.797 9.81199 125.385 9.12091C124.966 8.42983 124.764 7.648 124.764 6.76844C124.764 5.89587 124.973 5.11404 125.385 4.41598C125.804 3.7249 126.369 3.18041 127.095 2.7895C127.821 2.39858 128.638 2.20312 129.545 2.20312C130.306 2.20312 130.997 2.33576 131.619 2.608C132.233 2.87326 132.756 3.26418 133.175 3.76678L131.863 4.97443C131.27 4.28335 130.53 3.9413 129.643 3.9413C129.099 3.9413 128.61 4.05997 128.184 4.29731C127.758 4.53465 127.423 4.86972 127.186 5.29553C126.949 5.72135 126.83 6.20999 126.83 6.75448C126.83 7.29897 126.949 7.78761 127.186 8.21343C127.423 8.63925 127.758 8.97432 128.184 9.21166C128.61 9.449 129.099 9.56767 129.643 9.56767C130.523 9.56767 131.263 9.21864 131.863 8.52058L133.175 9.72822C132.756 10.2378 132.233 10.6287 131.612 10.901C130.983 11.1942 130.292 11.3338 129.531 11.3338ZM119.947 7.08257C120.561 7.08257 121.029 6.94994 121.343 6.68468C121.664 6.41941 121.825 6.04246 121.825 5.5608C121.825 5.06518 121.664 4.68822 121.343 4.42296C121.022 4.15769 120.561 4.02506 119.947 4.02506H118.286V7.08257H119.947ZM120.059 2.36368C120.841 2.36368 121.518 2.49631 122.09 2.75459C122.663 3.01288 123.109 3.38285 123.416 3.86451C123.724 4.34617 123.884 4.9116 123.884 5.56778C123.884 6.21698 123.731 6.78241 123.416 7.26407C123.102 7.74573 122.663 8.1157 122.09 8.37398C121.518 8.63227 120.834 8.75792 120.059 8.75792H118.286V11.1872H116.247V2.36368H120.059ZM114.593 9.53975V11.1802H107.766V2.36368H114.432V4.00412H109.797V5.91681H113.888V7.50141H109.797V9.53975H114.593ZM106.482 4.02506H103.661V11.1802H101.644V4.02506H98.8378V2.36368H106.482V4.02506ZM94.8519 11.3338C93.9514 11.3338 93.1416 11.1383 92.4156 10.7474C91.6896 10.3565 91.1172 9.81199 90.7054 9.12091C90.2865 8.42983 90.0841 7.648 90.0841 6.76844C90.0841 5.89587 90.2935 5.11404 90.7054 4.41598C91.1242 3.7249 91.6896 3.18041 92.4156 2.7895C93.1416 2.39858 93.9583 2.20312 94.8658 2.20312C95.6267 2.20312 96.3178 2.33576 96.9391 2.608C97.5533 2.87326 98.0769 3.26418 98.4957 3.76678L97.1834 4.97443C96.59 4.28335 95.8501 3.9413 94.9635 3.9413C94.4191 3.9413 93.9304 4.05997 93.5046 4.29731C93.0788 4.53465 92.7437 4.86972 92.5064 5.29553C92.269 5.72135 92.1504 6.20999 92.1504 6.75448C92.1504 7.29897 92.269 7.78761 92.5064 8.21343C92.7437 8.63925 93.0788 8.97432 93.5046 9.21166C93.9304 9.449 94.4191 9.56767 94.9635 9.56767C95.8431 9.56767 96.583 9.21864 97.1834 8.52058L98.4957 9.72822C98.0769 10.2378 97.5533 10.6287 96.9321 10.901C96.3108 11.1942 95.6197 11.3338 94.8519 11.3338ZM86.4682 2.36368H88.4925V11.1802H86.4682V2.36368ZM84.2623 2.36368V11.1802H82.224V7.56423H78.2171V11.1802H76.1788V2.36368H78.2171V5.84002H82.224V2.36368H84.2623ZM71.9555 2.36368H73.9799V11.1802H71.9555V2.36368ZM67.8509 11.1802L67.837 5.90285L65.2402 10.2518H64.3327L61.736 6.00756V11.1872H59.8233V2.36368H61.5126L64.8144 7.84346L68.0673 2.36368H69.7566L69.7706 11.1802H67.8509Z" fill="white"/>
</svg>
