<svg width="172" height="49" viewBox="0 0 172 49" fill="none" xmlns="http://www.w3.org/2000/svg">
<path d="M72.0949 13.3661H69.9137L67.3009 20.3185L64.6653 13.3661H62.4614V21.9998H63.8474V15.0019L66.4829 21.9998H68.0734L70.7089 15.0019V21.9998H72.0949V13.3661Z" fill="white"/>
<path d="M74.5032 14.2294H76.0028V12.8662H74.5032V14.2294ZM74.5714 21.9998H75.9346V15.1837H74.5714V21.9998Z" fill="white"/>
<path d="M82.8643 15.1837V17.9101H79.5471V15.1837H78.1839V21.9998H79.5471V19.137H82.8643V21.9998H84.2275V15.1837H82.8643Z" fill="white"/>
<path d="M86.4087 14.2294H87.9082V12.8662H86.4087V14.2294ZM86.4769 21.9998H87.8401V15.1837H86.4769V21.9998Z" fill="white"/>
<path d="M92.9976 22.1134C94.4517 22.1134 95.6559 21.3636 96.0421 20.0686L94.7471 19.6596C94.4517 20.4548 93.8155 20.9547 92.9976 20.9547C91.748 20.9547 90.9755 20.0231 90.9755 18.5917C90.9755 17.1604 91.748 16.2288 92.9976 16.2288C93.8383 16.2288 94.4517 16.7287 94.7471 17.5239L96.0421 17.1149C95.6559 15.8199 94.4744 15.0701 92.9976 15.0701C90.9755 15.0701 89.5895 16.5015 89.5895 18.5917C89.5895 20.682 90.9755 22.1134 92.9976 22.1134Z" fill="white"/>
<path d="M102.79 15.1837H96.5193V16.3879H98.9731V21.9998H100.336V16.3879H102.79V15.1837Z" fill="white"/>
<path d="M104.608 19.0234H109.856C109.902 18.8644 109.902 18.7508 109.902 18.5917C109.902 16.456 108.606 15.0701 106.607 15.0701C104.608 15.0701 103.244 16.5015 103.244 18.5917C103.244 20.6139 104.471 22.1134 106.721 22.1134C108.152 22.1134 109.106 21.5681 109.674 20.8865L108.743 20.0686C108.357 20.5684 107.72 20.9547 106.721 20.9547C105.517 20.9547 104.767 20.2049 104.608 19.0234ZM106.607 16.2061C107.63 16.2061 108.334 16.865 108.516 17.9783H104.63C104.835 16.8877 105.539 16.2061 106.607 16.2061Z" fill="white"/>
<path d="M115.105 15.0701C114.128 15.0701 113.31 15.5018 112.764 16.2515L112.673 15.1837H111.492V24.2718H112.855V21.091C113.378 21.7499 114.173 22.1134 115.105 22.1134C116.854 22.1134 118.081 20.682 118.081 18.5917C118.081 16.456 116.899 15.0701 115.105 15.0701ZM114.741 20.9547C113.537 20.9547 112.764 20.0231 112.764 18.5917C112.764 17.1604 113.537 16.2288 114.741 16.2288C115.945 16.2288 116.695 17.1604 116.695 18.5917C116.695 20.0231 115.945 20.9547 114.741 20.9547Z" fill="white"/>
<path d="M120.58 19.0234H125.829C125.874 18.8644 125.874 18.7508 125.874 18.5917C125.874 16.456 124.579 15.0701 122.58 15.0701C120.58 15.0701 119.217 16.5015 119.217 18.5917C119.217 20.6139 120.444 22.1134 122.693 22.1134C124.125 22.1134 125.079 21.5681 125.647 20.8865L124.715 20.0686C124.329 20.5684 123.693 20.9547 122.693 20.9547C121.489 20.9547 120.739 20.2049 120.58 19.0234ZM122.58 16.2061C123.602 16.2061 124.306 16.865 124.488 17.9783H120.603C120.807 16.8877 121.512 16.2061 122.58 16.2061Z" fill="white"/>
<path d="M130.373 22.1134C131.827 22.1134 133.031 21.3636 133.417 20.0686L132.122 19.6596C131.827 20.4548 131.191 20.9547 130.373 20.9547C129.123 20.9547 128.35 20.0231 128.35 18.5917C128.35 17.1604 129.123 16.2288 130.373 16.2288C131.213 16.2288 131.827 16.7287 132.122 17.5239L133.417 17.1149C133.031 15.8199 131.849 15.0701 130.373 15.0701C128.35 15.0701 126.965 16.5015 126.965 18.5917C126.965 20.682 128.35 22.1134 130.373 22.1134Z" fill="white"/>
<path d="M140.165 15.1837H133.894V16.3879H136.348V21.9998H137.711V16.3879H140.165V15.1837Z" fill="white"/>
<path d="M145.959 18.5009C146.572 18.2282 146.936 17.7056 146.936 16.9559C146.936 15.729 146.004 15.1837 144.505 15.1837H141.46V21.9998H144.755C146.231 21.9998 147.118 21.3636 147.118 20.1367C147.118 19.3188 146.709 18.7735 145.959 18.5009ZM142.778 16.2743H144.573C145.209 16.2743 145.595 16.5696 145.595 17.1149C145.595 17.7511 145.277 18.001 144.505 18.001H142.778V16.2743ZM144.618 20.9092H142.778V19.0234H144.527C145.3 19.0234 145.754 19.387 145.754 19.9777C145.754 20.5684 145.345 20.9092 144.618 20.9092Z" fill="white"/>
<path d="M151.707 22.1134C153.752 22.1134 155.161 20.682 155.161 18.5917C155.161 16.456 153.797 15.0701 151.707 15.0701C149.662 15.0701 148.254 16.5015 148.254 18.5917C148.254 20.7275 149.617 22.1134 151.707 22.1134ZM151.707 20.9547C150.457 20.9547 149.639 20.0231 149.639 18.5917C149.639 17.1604 150.457 16.2288 151.707 16.2288C152.957 16.2288 153.775 17.1604 153.775 18.5917C153.775 20.0231 152.957 20.9547 151.707 20.9547Z" fill="white"/>
<path d="M65.1879 37.1134C67.2327 37.1134 68.6414 35.682 68.6414 33.5917C68.6414 31.456 67.2781 30.0701 65.1879 30.0701C63.143 30.0701 61.7344 31.5015 61.7344 33.5917C61.7344 35.7275 63.0976 37.1134 65.1879 37.1134ZM65.1879 35.9547C63.9383 35.9547 63.1203 35.0231 63.1203 33.5917C63.1203 32.1604 63.9383 31.2288 65.1879 31.2288C66.4375 31.2288 67.2554 32.1604 67.2554 33.5917C67.2554 35.0231 66.4375 35.9547 65.1879 35.9547Z" fill="white"/>
<path d="M76.5026 33.9553C76.4799 32.1604 75.253 30.888 73.5717 30.888C72.4584 30.888 71.595 31.297 71.0952 32.0013C71.2088 30.888 71.7768 30.2746 72.981 30.0246L74.9576 29.6157C75.7528 29.4339 76.2072 28.9795 76.2754 28.207L76.2981 27.9798L75.0031 27.7526L74.9576 27.9571C74.9122 28.2297 74.7759 28.3661 74.5259 28.4115L72.9128 28.7523C70.8225 29.184 69.8683 30.5699 69.8683 33.2055C69.8683 35.5911 71.1633 37.1134 73.2082 37.1134C75.1621 37.1134 76.5253 35.7956 76.5026 33.9553ZM73.2082 35.9547C72.0721 35.9547 71.2997 35.114 71.2997 33.9098C71.2997 32.7057 72.0494 31.9559 73.2082 31.9559C74.3669 31.9559 75.094 32.7284 75.094 33.978C75.094 35.1822 74.3669 35.9547 73.2082 35.9547Z" fill="white"/>
<path d="M81.024 37.1134C83.0688 37.1134 84.4775 35.682 84.4775 33.5917C84.4775 31.456 83.1142 30.0701 81.024 30.0701C78.9791 30.0701 77.5705 31.5015 77.5705 33.5917C77.5705 35.7275 78.9337 37.1134 81.024 37.1134ZM81.024 35.9547C79.7743 35.9547 78.9564 35.0231 78.9564 33.5917C78.9564 32.1604 79.7743 31.2288 81.024 31.2288C82.2736 31.2288 83.0915 32.1604 83.0915 33.5917C83.0915 35.0231 82.2736 35.9547 81.024 35.9547Z" fill="white"/>
<path d="M89.7259 30.0701C88.7489 30.0701 87.931 30.5018 87.3857 31.2515L87.2948 30.1837H86.1133V39.2718H87.4766V36.091C87.9991 36.7499 88.7943 37.1134 89.7259 37.1134C91.4753 37.1134 92.7022 35.682 92.7022 33.5917C92.7022 31.456 91.5208 30.0701 89.7259 30.0701ZM89.3623 35.9547C88.1582 35.9547 87.3857 35.0231 87.3857 33.5917C87.3857 32.1604 88.1582 31.2288 89.3623 31.2288C90.5665 31.2288 91.3163 32.1604 91.3163 33.5917C91.3163 35.0231 90.5665 35.9547 89.3623 35.9547Z" fill="white"/>
<path d="M97.2918 37.1134C99.3366 37.1134 100.745 35.682 100.745 33.5917C100.745 31.456 99.382 30.0701 97.2918 30.0701C95.2469 30.0701 93.8383 31.5015 93.8383 33.5917C93.8383 35.7275 95.2015 37.1134 97.2918 37.1134ZM97.2918 35.9547C96.0421 35.9547 95.2242 35.0231 95.2242 33.5917C95.2242 32.1604 96.0421 31.2288 97.2918 31.2288C98.5414 31.2288 99.3593 32.1604 99.3593 33.5917C99.3593 35.0231 98.5414 35.9547 97.2918 35.9547Z" fill="white"/>
<path d="M107.062 30.1837V32.9101H103.744V30.1837H102.381V36.9998H103.744V34.137H107.062V36.9998H108.425V30.1837H107.062Z" fill="white"/>
<path d="M115.218 30.1837L111.901 35.0913V30.1837H110.56V36.9998H111.969L115.286 32.0468V36.9998H116.627V30.1837H115.218Z" fill="white"/>
<path d="M128.101 28.3661L126.419 33.2509H125.715L123.148 28.3661H121.534L124.238 33.2509H123.307C122.761 33.6599 122.466 34.2961 122.466 35.0231C122.466 36.2727 123.329 37.1134 124.624 37.1134C125.829 37.1134 126.692 36.3636 127.214 34.9322L129.623 28.3661H128.101ZM124.67 35.9092C124.125 35.9092 123.784 35.5457 123.784 35.0004C123.784 34.7505 123.875 34.5233 124.034 34.3415H126.033L125.851 34.8641C125.579 35.5684 125.238 35.9092 124.67 35.9092Z" fill="white"/>
<path d="M136.757 35.7956C136.553 35.7956 136.416 35.6593 136.416 35.4548V32.9556H135.167L136.893 30.1837H135.439L133.826 32.8874H132.44V27.9117H131.077V36.9998H132.44V34.137H135.076V35.7502C135.076 36.5681 135.553 36.9998 136.394 36.9998H137.007V35.7956H136.757Z" fill="white"/>
<path d="M142.21 30.0701C141.233 30.0701 140.415 30.5018 139.87 31.2515L139.779 30.1837H138.597V39.2718H139.961V36.091C140.483 36.7499 141.278 37.1134 142.21 37.1134C143.959 37.1134 145.186 35.682 145.186 33.5917C145.186 31.456 144.005 30.0701 142.21 30.0701ZM141.846 35.9547C140.642 35.9547 139.87 35.0231 139.87 33.5917C139.87 32.1604 140.642 31.2288 141.846 31.2288C143.051 31.2288 143.8 32.1604 143.8 33.5917C143.8 35.0231 143.051 35.9547 141.846 35.9547Z" fill="white"/>
<path d="M152.23 35.8183C151.934 35.8183 151.798 35.682 151.798 35.3867V32.3194C151.798 30.9107 150.798 30.0701 149.162 30.0701C147.981 30.0701 147.004 30.4791 146.209 31.2288L147.049 32.1149C147.595 31.5469 148.322 31.2061 149.094 31.2061C149.958 31.2061 150.526 31.5696 150.526 32.1149C150.526 32.6375 150.026 32.7284 149.003 32.8647C147.686 33.0692 146.072 33.4327 146.072 35.114C146.072 36.2955 146.958 37.1134 148.299 37.1134C149.299 37.1134 150.207 36.659 150.685 35.9547C150.776 36.7499 151.162 37.0452 152.002 37.0452C152.23 37.0452 152.411 37.0225 152.48 36.9998V35.8183H152.23ZM148.526 36.0001C147.822 36.0001 147.413 35.6593 147.413 35.0231C147.413 34.137 148.299 34.0007 149.162 33.8644C149.821 33.7508 150.23 33.6826 150.48 33.5236V34.4097C150.48 35.2731 149.571 36.0001 148.526 36.0001Z" fill="white"/>
<path d="M152.888 29.2294H154.365V27.8662H152.888V29.2294ZM155.229 29.2294H156.706V27.8662H155.229V29.2294ZM154.115 36.9998H155.479V30.1837H154.115V36.9998Z" fill="white"/>
<path d="M162.408 30.1837V32.9101H159.091V30.1837H157.728V36.9998H159.091V34.137H162.408V36.9998H163.772V30.1837H162.408Z" fill="white"/>
<path d="M170.565 30.1837L167.248 35.0913V30.1837H165.907V36.9998H167.316L170.633 32.0468V36.9998H171.974V30.1837H170.565Z" fill="white"/>
<g clip-path="url(#clip0_616_181)">
<path d="M13.8359 14.8701L15.0273 13.6788L34.3991 33.0507L33.2078 34.2421L13.8359 14.8701Z" fill="black" stroke="white" stroke-width="0.290821"/>
<path d="M14.852 9.11832C15.2182 9.48444 15.5086 9.91908 15.7067 10.3974C15.9049 10.8758 16.0068 11.3885 16.0068 11.9063C16.0068 12.424 15.9049 12.9367 15.7067 13.4151C15.5086 13.8934 15.2182 14.3281 14.852 14.6942C14.4859 15.0603 14.0513 15.3507 13.5729 15.5489C13.0946 15.747 12.5819 15.849 12.0641 15.849C11.5464 15.849 11.0337 15.747 10.5553 15.5489C10.077 15.3507 9.64232 15.0603 9.2762 14.6942C8.5368 13.9548 8.12141 12.9519 8.12141 11.9063C8.12141 10.8606 8.5368 9.85773 9.2762 9.11832C10.0156 8.37892 11.0184 7.96353 12.0641 7.96353C13.1098 7.96353 14.1126 8.37892 14.852 9.11832Z" fill="black" stroke="white" stroke-width="0.290821" stroke-linecap="round" stroke-linejoin="round"/>
<path d="M39.6723 40.0289C39.675 40.032 39.6779 40.0351 39.6807 40.0381C39.715 40.0725 39.7557 40.0998 39.8004 40.1185C39.8451 40.1373 39.893 40.1471 39.9412 40.1473C39.9895 40.1476 40.0373 40.1384 40.0818 40.1202C40.1263 40.1019 40.1667 40.0751 40.2006 40.0412C40.2346 40.0072 40.2614 39.9668 40.2796 39.9223C40.2978 39.8778 40.3071 39.8301 40.3068 39.7818C40.3065 39.7335 40.2967 39.6857 40.278 39.641C40.2593 39.5963 40.2319 39.5556 40.1976 39.5213C40.1946 39.5184 40.1915 39.5156 40.1884 39.5128L39.6723 40.0289Z" fill="black" stroke="white" stroke-width="0.290821" stroke-linecap="round" stroke-linejoin="round"/>
<path d="M39.0754 40.035C39.0882 40.0802 39.11 40.1186 39.1402 40.149C39.2231 40.2319 39.3639 40.2501 39.5316 40.1995C39.6993 40.149 39.8803 40.034 40.0346 39.8796C40.1889 39.7253 40.304 39.5444 40.3545 39.3767C40.405 39.2089 40.3868 39.0681 40.3039 38.9852C40.2735 38.9551 40.235 38.9333 40.1897 38.9206L39.0754 40.035Z" fill="black" stroke="white" stroke-width="0.290821" stroke-linecap="round" stroke-linejoin="round"/>
<path d="M33.2073 34.2419L34.3987 33.0505L40.117 38.5886L38.7453 39.9602L33.2073 34.2419Z" fill="black" stroke="white" stroke-width="0.290821"/>
<path d="M32.9235 33.9308C32.9235 33.9308 33.323 33.6133 33.5474 33.389C33.7717 33.1646 34.0892 32.7651 34.0892 32.7651C34.1883 32.6404 34.3575 32.6266 34.4702 32.7393C34.5828 32.852 34.5828 33.0334 34.4702 33.1461C34.4702 33.1461 34.1548 33.5253 33.9192 33.7608C33.6837 33.9964 33.3045 34.3118 33.3045 34.3118C33.1858 34.4181 33.0104 34.4245 32.8977 34.3118C32.785 34.1991 32.8108 34.0435 32.9235 33.9308Z" fill="black" stroke="white" stroke-width="0.290821"/>
<path d="M38.7595 39.7667C38.7595 39.7667 39.1589 39.4493 39.3833 39.2249C39.6077 39.0005 39.9251 38.6011 39.9251 38.6011C40.0243 38.4763 40.1934 38.4626 40.3061 38.5753C40.4188 38.6879 40.4188 38.8694 40.3061 38.982C40.3061 38.982 39.9907 39.3612 39.7551 39.5968C39.5196 39.8323 39.1404 40.1477 39.1404 40.1477C39.0218 40.2541 38.8463 40.2604 38.7337 40.1477C38.621 40.0351 38.6468 39.8794 38.7595 39.7667Z" fill="black" stroke="white" stroke-width="0.290821"/>
<path d="M14.354 8.69721C14.1516 8.99224 13.9076 9.06485 13.6816 9.00719C13.6934 9.58857 13.3095 9.94076 12.774 9.8907C12.8062 10.4447 12.3942 10.8142 11.847 10.7126C11.847 10.7126 11.9398 11.1005 11.5992 11.4412C11.2585 11.7818 10.8706 11.689 10.8706 11.689C10.9722 12.2362 10.6027 12.6482 10.0487 12.616C10.0988 13.1515 9.74657 13.5354 9.1652 13.5236C9.22286 13.7496 9.15025 13.9936 8.85523 14.196" stroke="white" stroke-width="0.290821" stroke-linecap="round" stroke-linejoin="round"/>
<path d="M15.271 9.61611C14.976 9.81857 14.9033 10.0626 14.961 10.2886C14.3796 10.2767 14.0274 10.6606 14.0775 11.1961C13.5235 11.1639 13.154 11.5759 13.2556 12.1232C13.2556 12.1232 12.8677 12.0303 12.527 12.371C12.1864 12.7116 12.2792 13.0996 12.2792 13.0996C11.732 12.9979 11.32 13.3675 11.3522 13.9215C10.8167 13.8714 10.4328 14.2236 10.4446 14.805C10.2186 14.7473 9.97463 14.8199 9.77217 15.1149" stroke="white" stroke-width="0.290821" stroke-linecap="round" stroke-linejoin="round"/>
<path d="M9.16457 13.524C8.53809 12.4208 7.89736 10.7207 9.27775 9.12068C8.44227 10.0213 9.31652 11.7846 10.0481 12.6164" stroke="white" stroke-width="0.290821" stroke-linecap="round" stroke-linejoin="round"/>
<path d="M9.27726 9.12019C9.05218 9.77112 10.3972 11.1506 10.8695 11.6888" stroke="white" stroke-width="0.290821" stroke-linecap="round" stroke-linejoin="round"/>
<path d="M9.27734 9.12109C9.92827 8.89601 11.3077 10.2411 11.846 10.7133" stroke="white" stroke-width="0.290821" stroke-linecap="round" stroke-linejoin="round"/>
<path d="M13.6806 9.00792C12.5775 8.38143 10.8773 7.7407 9.27734 9.12109C10.178 8.28562 11.9413 9.15987 12.7731 9.89143" stroke="white" stroke-width="0.290821" stroke-linecap="round" stroke-linejoin="round"/>
<path d="M10.4453 14.8047C11.5485 15.4312 13.2486 16.0719 14.8486 14.6915C13.948 15.527 12.1846 14.6527 11.3529 13.9212" stroke="white" stroke-width="0.290821" stroke-linecap="round" stroke-linejoin="round"/>
<path d="M14.8499 14.6918C14.199 14.9169 12.8195 13.5719 12.2812 13.0996" stroke="white" stroke-width="0.290821" stroke-linecap="round" stroke-linejoin="round"/>
<path d="M14.8461 14.6927C15.0711 14.0418 13.7261 12.6623 13.2538 12.1241" stroke="white" stroke-width="0.290821" stroke-linecap="round" stroke-linejoin="round"/>
<path d="M14.9574 10.2887C15.5839 11.3918 16.2247 13.0919 14.8443 14.6919C15.6797 13.7913 14.8055 12.028 14.0739 11.1962" stroke="white" stroke-width="0.290821" stroke-linecap="round" stroke-linejoin="round"/>
<path fill-rule="evenodd" clip-rule="evenodd" d="M8.90802 8.93793C8.87508 8.96682 8.84368 8.99937 8.81618 9.03654C8.75785 9.11535 8.71502 9.2118 8.70443 9.33086C8.69469 9.44018 8.67717 9.54655 8.62686 9.64283C8.57149 9.74878 8.5713 9.87294 8.56243 9.99574C8.56224 9.99806 8.56173 10.0003 8.56092 10.0025C8.55282 10.0249 8.56397 10.0489 8.58628 10.0572C8.58686 10.0573 8.58715 10.0576 8.58763 10.0577C8.58801 10.0579 8.5884 10.058 8.58878 10.0581C8.58926 10.0582 8.59003 10.0584 8.59032 10.0585C8.59077 10.0586 8.59122 10.0586 8.59166 10.0587C8.59224 10.0589 8.5936 10.0591 8.59541 10.0594C8.5959 10.0595 8.59536 10.0593 8.59657 10.0594L8.59676 10.0596C8.5983 10.0598 8.59893 10.0597 8.59958 10.0598C8.61057 10.0604 8.62129 10.0568 8.62963 10.0497C8.63086 10.0486 8.63218 10.0477 8.63359 10.0469C8.64892 10.0381 9.0397 9.81393 9.5047 9.34893C9.96834 8.88529 10.1923 8.49629 10.2023 8.47895C10.2023 8.47895 10.205 8.47501 10.2058 8.47386C10.2122 8.46613 10.2157 8.45682 10.2158 8.447L10.216 8.44681C10.216 8.44604 10.216 8.44527 10.216 8.44455L10.2158 8.4436C10.2158 8.44321 10.2158 8.44283 10.2158 8.44244L10.2156 8.44225L10.2156 8.44186C10.2155 8.44142 10.2154 8.44097 10.2154 8.44052C10.2151 8.43801 10.2147 8.43562 10.2141 8.4332L10.2139 8.43301C10.2136 8.43195 10.2132 8.43103 10.213 8.43017C10.2128 8.42992 10.2127 8.42966 10.2126 8.4294C10.2038 8.40784 10.1802 8.39717 10.1583 8.40517C10.1561 8.40599 10.1538 8.40649 10.1515 8.40669C10.0287 8.41555 9.90458 8.41574 9.79862 8.47111C9.70233 8.52142 9.59613 8.53876 9.48684 8.54849C9.25519 8.56911 9.10934 8.7125 9.01767 8.85389C9.01572 8.85689 9.01316 8.85945 9.01016 8.8614C8.97561 8.88379 8.94111 8.90896 8.90817 8.93784L8.90802 8.93793Z" fill="black"/>
<path d="M10.1706 8.44594C10.0413 8.45625 9.91394 8.45792 9.81668 8.50874C9.71264 8.5631 9.60022 8.58091 9.48901 8.59081C9.26657 8.61061 9.12894 8.74872 9.04204 8.88743C8.90333 8.97433 8.76522 9.11196 8.74542 9.3344C8.73552 9.44561 8.71771 9.55804 8.66335 9.66207C8.61253 9.75933 8.61086 9.88666 8.60055 10.016M8.60038 10.0164C8.60038 10.0164 9.00211 9.78896 9.47284 9.31823C9.94357 8.8475 10.171 8.44577 10.171 8.44577" stroke="white" stroke-width="0.290821" stroke-linecap="round" stroke-linejoin="round"/>
<path d="M9.04477 8.32817C9.08144 8.36485 9.11053 8.40838 9.13038 8.45629C9.15023 8.50421 9.16045 8.55557 9.16045 8.60743C9.16045 8.65929 9.15023 8.71064 9.13038 8.75855C9.11054 8.80647 9.08145 8.85 9.04478 8.88668C9.00811 8.92335 8.96457 8.95243 8.91666 8.97228C8.86874 8.99213 8.81739 9.00234 8.76553 9.00234C8.71367 9.00234 8.66231 8.99212 8.6144 8.97228C8.56648 8.95243 8.52295 8.92334 8.48628 8.88667C8.41222 8.81261 8.37061 8.71216 8.37061 8.60742C8.37061 8.50268 8.41222 8.40224 8.48628 8.32817C8.56034 8.25411 8.66079 8.21251 8.76552 8.21251C8.87026 8.21251 8.97071 8.25411 9.04477 8.32817Z" fill="black" stroke="white" stroke-width="0.290821" stroke-linecap="round" stroke-linejoin="round"/>
<path d="M33.4805 13.6768L34.6718 14.8681L15.2999 34.24L14.1086 33.0487L33.4805 13.6768Z" fill="black" stroke="white" stroke-width="0.290821"/>
<path d="M39.2293 14.6929C38.8632 15.059 38.4286 15.3494 37.9502 15.5476C37.4719 15.7457 36.9592 15.8477 36.4414 15.8477C35.9236 15.8477 35.4109 15.7457 34.9326 15.5476C34.4542 15.3494 34.0196 15.059 33.6535 14.6929C33.2874 14.3268 32.997 13.8921 32.7988 13.4138C32.6007 12.9354 32.4987 12.4227 32.4987 11.905C32.4987 11.3872 32.6007 10.8745 32.7988 10.3961C32.9969 9.91779 33.2874 9.48315 33.6535 9.11703C34.3929 8.37763 35.3957 7.96223 36.4414 7.96223C37.4871 7.96223 38.4899 8.37762 39.2293 9.11703C39.9687 9.85643 40.3841 10.8593 40.3841 11.905C40.3841 12.9506 39.9687 13.9535 39.2293 14.6929Z" fill="black" stroke="white" stroke-width="0.290821" stroke-linecap="round" stroke-linejoin="round"/>
<path d="M8.3246 39.5111C8.32148 39.5139 8.3184 39.5167 8.31537 39.5196C8.28103 39.5539 8.25372 39.5946 8.23498 39.6393C8.21625 39.684 8.20647 39.7318 8.20619 39.7801C8.20591 39.8284 8.21513 39.8761 8.23335 39.9207C8.25157 39.9652 8.27842 40.0055 8.31236 40.0395C8.34631 40.0734 8.38669 40.1003 8.43119 40.1185C8.47569 40.1367 8.52345 40.1459 8.57173 40.1457C8.62001 40.1454 8.66786 40.1356 8.71256 40.1169C8.75726 40.0981 8.79793 40.0708 8.83225 40.0365C8.83512 40.0334 8.83795 40.0304 8.84071 40.0272L8.3246 39.5111Z" fill="black" stroke="white" stroke-width="0.290821" stroke-linecap="round" stroke-linejoin="round"/>
<path d="M8.31757 38.9182C8.27235 38.9309 8.23394 38.9528 8.20357 38.983C8.12068 39.0658 8.10249 39.2066 8.153 39.3744C8.20351 39.5421 8.31858 39.723 8.4729 39.8774C8.62722 40.0317 8.80815 40.1468 8.97588 40.1973C9.14361 40.2478 9.28441 40.2296 9.3673 40.1467C9.39743 40.1162 9.4192 40.0778 9.43191 40.0325L8.31757 38.9182Z" fill="black" stroke="white" stroke-width="0.290821" stroke-linecap="round" stroke-linejoin="round"/>
<path d="M14.1097 33.0491L15.301 34.2405L9.76301 39.9588L8.39137 38.5872L14.1097 33.0491Z" fill="black" stroke="white" stroke-width="0.290821"/>
<path d="M14.4208 32.7634C14.4208 32.7634 14.7382 33.1628 14.9626 33.3872C15.187 33.6116 15.5864 33.929 15.5864 33.929C15.7112 34.0282 15.7249 34.1973 15.6122 34.31C15.4996 34.4227 15.3181 34.4227 15.2055 34.31C15.2055 34.31 14.8263 33.9946 14.5907 33.7591C14.3552 33.5235 14.0398 33.1443 14.0398 33.1443C13.9334 33.0257 13.9271 32.8502 14.0398 32.7376C14.1525 32.6249 14.3081 32.6507 14.4208 32.7634Z" fill="black" stroke="white" stroke-width="0.290821"/>
<path d="M8.58481 38.5993C8.58481 38.5993 8.90227 38.9987 9.12666 39.2231C9.35105 39.4475 9.75049 39.765 9.75049 39.765C9.87527 39.8641 9.88896 40.0333 9.77629 40.146C9.66361 40.2586 9.48219 40.2586 9.36951 40.146C9.36951 40.146 8.99036 39.8305 8.7548 39.595C8.51925 39.3594 8.20383 38.9803 8.20383 38.9803C8.09748 38.8616 8.09116 38.6862 8.20383 38.5735C8.31651 38.4608 8.47214 38.4866 8.58481 38.5993Z" fill="black" stroke="white" stroke-width="0.290821"/>
<path d="M39.6553 14.1949C39.3603 13.9924 39.2877 13.7484 39.3453 13.5224C38.764 13.5342 38.4118 13.1503 38.4618 12.6149C37.9078 12.6471 37.5383 12.2351 37.6399 11.6878C37.6399 11.6878 37.252 11.7807 36.9113 11.44C36.5707 11.0994 36.6636 10.7114 36.6636 10.7114C36.1163 10.813 35.7043 10.4435 35.7365 9.88953C35.201 9.93959 34.8171 9.5874 34.8289 9.00602C34.6029 9.06368 34.359 8.99107 34.1565 8.69605" stroke="white" stroke-width="0.290821" stroke-linecap="round" stroke-linejoin="round"/>
<path d="M38.7345 15.1128C38.532 14.8178 38.288 14.7452 38.062 14.8028C38.0738 14.2214 37.6899 13.8693 37.1545 13.9193C37.1867 13.3653 36.7747 12.9958 36.2274 13.0974C36.2274 13.0974 36.3203 12.7095 35.9796 12.3688C35.639 12.0282 35.251 12.1211 35.251 12.1211C35.3526 11.5738 34.9831 11.1618 34.4291 11.194C34.4792 10.6585 34.127 10.2746 33.5456 10.2864C33.6033 10.0604 33.5307 9.81643 33.2356 9.61396" stroke="white" stroke-width="0.290821" stroke-linecap="round" stroke-linejoin="round"/>
<path d="M34.8276 9.00638C35.9308 8.37989 37.6309 7.73916 39.2309 9.11955C38.3303 8.28407 36.5669 9.15833 35.7352 9.88989" stroke="white" stroke-width="0.290821" stroke-linecap="round" stroke-linejoin="round"/>
<path d="M39.2304 9.11906C38.5795 8.89398 37.2 10.239 36.6618 10.7113" stroke="white" stroke-width="0.290821" stroke-linecap="round" stroke-linejoin="round"/>
<path d="M39.2344 9.11914C39.4595 9.77007 38.1144 11.1495 37.6421 11.6878" stroke="white" stroke-width="0.290821" stroke-linecap="round" stroke-linejoin="round"/>
<path d="M39.3475 13.5224C39.974 12.4193 40.6148 10.7191 39.2344 9.11914C40.0699 10.0198 39.1956 11.7831 38.464 12.6149" stroke="white" stroke-width="0.290821" stroke-linecap="round" stroke-linejoin="round"/>
<path d="M33.5469 10.2861C32.9204 11.3893 32.2797 13.0894 33.66 14.6894C32.8246 13.7888 33.6988 12.0254 34.4304 11.1937" stroke="white" stroke-width="0.290821" stroke-linecap="round" stroke-linejoin="round"/>
<path d="M33.6578 14.6897C33.4327 14.0388 34.7777 12.6593 35.25 12.1211" stroke="white" stroke-width="0.290821" stroke-linecap="round" stroke-linejoin="round"/>
<path d="M33.6578 14.6898C34.3088 14.9149 35.6882 13.5698 36.2265 13.0976" stroke="white" stroke-width="0.290821" stroke-linecap="round" stroke-linejoin="round"/>
<path d="M38.0629 14.8031C36.9598 15.4296 35.2596 16.0704 33.6596 14.69C34.5603 15.5254 36.3236 14.6512 37.1554 13.9196" stroke="white" stroke-width="0.290821" stroke-linecap="round" stroke-linejoin="round"/>
<path fill-rule="evenodd" clip-rule="evenodd" d="M39.4136 8.74982C39.3847 8.71688 39.3522 8.68548 39.315 8.65798C39.2362 8.59965 39.1398 8.55682 39.0207 8.54623C38.9114 8.53649 38.805 8.51896 38.7087 8.46866C38.6028 8.41329 38.4786 8.4131 38.3558 8.40423C38.3535 8.40404 38.3512 8.40353 38.3491 8.40272C38.3267 8.39462 38.3026 8.40576 38.2944 8.42808C38.2942 8.42865 38.2939 8.42894 38.2938 8.42942C38.2937 8.42981 38.2936 8.4302 38.2934 8.43058C38.2933 8.43106 38.2932 8.43183 38.2931 8.43212C38.293 8.43257 38.2929 8.43302 38.2929 8.43346C38.2927 8.43404 38.2925 8.4354 38.2921 8.43721C38.292 8.43769 38.2922 8.43716 38.2921 8.43837L38.2919 8.43856C38.2917 8.4401 38.2918 8.44072 38.2917 8.44138C38.2912 8.45237 38.2947 8.46309 38.3019 8.47143C38.3029 8.47266 38.3039 8.47398 38.3047 8.47539C38.3135 8.49072 38.5376 8.8815 39.0026 9.3465C39.4663 9.81014 39.8553 10.0341 39.8726 10.0441C39.8726 10.0441 39.8765 10.0468 39.8777 10.0476C39.8854 10.054 39.8947 10.0575 39.9046 10.0576L39.9047 10.0578C39.9055 10.0578 39.9063 10.0578 39.907 10.0578L39.908 10.0576C39.9083 10.0576 39.9087 10.0576 39.9091 10.0576L39.9093 10.0574L39.9097 10.0574C39.9101 10.0573 39.9106 10.0572 39.911 10.0572C39.9135 10.0569 39.9159 10.0565 39.9184 10.0559L39.9185 10.0557C39.9196 10.0554 39.9205 10.055 39.9214 10.0548C39.9216 10.0546 39.9219 10.0545 39.9222 10.0544C39.9437 10.0456 39.9544 10.022 39.9464 10.0001C39.9456 9.99792 39.9451 9.99565 39.9449 9.99334C39.936 9.87053 39.9358 9.74638 39.8805 9.64042C39.8301 9.54413 39.8128 9.43794 39.8031 9.32864C39.7824 9.09699 39.6391 8.95114 39.4977 8.85947C39.4947 8.85752 39.4921 8.85496 39.4902 8.85196C39.4678 8.81741 39.4426 8.78291 39.4137 8.74997L39.4136 8.74982Z" fill="black"/>
<path d="M39.9037 10.0144C39.8934 9.88502 39.8917 9.75769 39.8409 9.66043C39.7865 9.5564 39.7687 9.44398 39.7588 9.33276C39.739 9.11033 39.6009 8.97269 39.4622 8.88579C39.3753 8.74708 39.2376 8.60897 39.0152 8.58917C38.904 8.57927 38.7916 8.56146 38.6875 8.5071C38.5903 8.45628 38.463 8.45461 38.3336 8.4443M38.3332 8.44413C38.3332 8.44413 38.5606 8.84586 39.0314 9.31659C39.5021 9.78732 39.9038 10.0148 39.9038 10.0148" stroke="white" stroke-width="0.290821" stroke-linecap="round" stroke-linejoin="round"/>
<path d="M40.0214 8.88852C39.9848 8.9252 39.9412 8.95429 39.8933 8.97413C39.8454 8.99398 39.794 9.0042 39.7422 9.0042C39.6903 9.0042 39.639 8.99398 39.5911 8.97414C39.5431 8.95429 39.4996 8.9252 39.4629 8.88853C39.4263 8.85186 39.3972 8.80832 39.3773 8.76041C39.3575 8.71249 39.3473 8.66114 39.3473 8.60928C39.3473 8.55742 39.3575 8.50606 39.3773 8.45815C39.3972 8.41024 39.4263 8.3667 39.4629 8.33003C39.537 8.25597 39.6374 8.21436 39.7422 8.21436C39.8469 8.21436 39.9474 8.25597 40.0214 8.33003C40.0955 8.40409 40.1371 8.50454 40.1371 8.60928C40.1371 8.71402 40.0955 8.81446 40.0214 8.88852Z" fill="black" stroke="white" stroke-width="0.290821" stroke-linecap="round" stroke-linejoin="round"/>
<path d="M15.8364 0.0673828L20.9312 20.776L0.222656 15.6812V32.5108L20.9315 27.4157L15.8364 48.1246H32.6659L27.5706 27.4154L48.2797 32.5108V15.6812L27.5709 20.7763L32.6659 0.0673828H15.8364Z" fill="white" stroke="white" stroke-width="0.0830916"/>
<path d="M22.1853 22.0301L17.0076 0.985352H31.4947L26.3171 22.0301L47.3617 16.8524V31.3395L26.3171 26.1619L31.4947 47.2066H17.0076L22.1853 26.1619L1.14062 31.3395V16.8524L22.1853 22.0301Z" fill="black" stroke="white" stroke-width="0.0830916"/>
<path d="M24.2529 3.42969L25.9237 5.18361V38.6738H22.582V5.18361L24.2529 3.42969Z" fill="black" stroke="white" stroke-width="0.290821" stroke-linecap="round" stroke-linejoin="round"/>
<path d="M23.1719 38.8105H25.3295L25.1426 43.2894H23.3589L23.1719 38.8105Z" fill="black" stroke="white" stroke-width="0.290821" stroke-linecap="round" stroke-linejoin="round"/>
<path fill-rule="evenodd" clip-rule="evenodd" d="M25.3029 39.0961C25.2944 39.0959 25.2861 39.0974 25.2782 39.1003L23.2148 39.8347L23.2207 39.9768C23.2218 39.9764 23.2228 39.976 23.2239 39.9755L25.3122 39.2323L25.3177 39.0976C25.3129 39.0964 25.3079 39.0958 25.3029 39.0957L25.3029 39.0961ZM25.2861 39.8568C25.2834 39.8575 25.2808 39.8583 25.2782 39.8593L23.2462 40.5825L23.252 40.7246L25.28 40.003L25.2861 39.8568ZM25.254 40.6268L23.2773 41.3299L23.2831 41.4723L25.2479 40.7732L25.254 40.6268ZM25.2216 41.3971L23.3086 42.0776L23.3145 42.2203L25.2155 41.5435L25.2216 41.3971ZM25.1894 42.1672L23.3397 42.8256L23.3455 42.9677L25.1833 42.3138L25.1894 42.1672Z" fill="white"/>
<path d="M24.2539 6.80273V38.7086" stroke="white" stroke-width="0.290821" stroke-linecap="round" stroke-linejoin="round"/>
<path d="M20.4102 37.5293V38.91C20.4102 38.9571 20.4481 38.995 20.4952 38.995H28.0089C28.056 38.995 28.0939 38.9571 28.0939 38.91V37.5293L24.252 38.1498L20.4102 37.5293Z" fill="black" stroke="white" stroke-width="0.290821" stroke-linecap="round" stroke-linejoin="round"/>
<path fill-rule="evenodd" clip-rule="evenodd" d="M22.4258 43.0635C22.4258 43.0635 22.9415 44.7634 24.249 44.7634C25.5565 44.7634 26.0722 43.0635 26.0722 43.0635C26.0722 43.0635 25.4807 43.259 24.249 43.259C23.0173 43.259 22.4258 43.0635 22.4258 43.0635Z" fill="black" stroke="white" stroke-width="0.290821" stroke-linecap="round" stroke-linejoin="round"/>
<path d="M33.854 24.096C33.854 26.6433 32.842 29.0863 31.0408 30.8875C29.2396 32.6888 26.7966 33.7007 24.2492 33.7007C21.7019 33.7007 19.2589 32.6888 17.4577 30.8875C15.6565 29.0863 14.6445 26.6433 14.6445 24.096C14.6445 22.8347 14.893 21.5857 15.3757 20.4204C15.8583 19.2551 16.5658 18.1963 17.4577 17.3044C18.3496 16.4125 19.4084 15.705 20.5737 15.2223C21.739 14.7396 22.9879 14.4912 24.2492 14.4912C25.5106 14.4912 26.7595 14.7396 27.9248 15.2223C29.0901 15.705 30.1489 16.4125 31.0408 17.3044C31.9327 18.1963 32.6402 19.2551 33.1229 20.4204C33.6055 21.5857 33.854 22.8347 33.854 24.096Z" fill="black" stroke="white" stroke-width="0.290821"/>
<path d="M32.8642 24.0962C32.8642 26.3807 31.9567 28.5717 30.3413 30.1871C28.7259 31.8025 26.535 32.71 24.2505 32.71C21.966 32.71 19.775 31.8025 18.1596 30.1871C16.5442 28.5717 15.6367 26.3807 15.6367 24.0962C15.6367 21.8117 16.5442 19.6207 18.1596 18.0053C19.775 16.3899 21.966 15.4824 24.2505 15.4824C26.535 15.4824 28.7259 16.3899 30.3413 18.0053C31.9567 19.6207 32.8642 21.8117 32.8642 24.0962Z" fill="white" stroke="white" stroke-width="0.270599"/>
<path d="M24.2539 16.8564C23.9165 17.2393 23.7109 17.7404 23.7109 18.2905C23.7309 19.4983 23.879 20.7036 23.8919 21.911C23.9187 23.0363 23.5812 24.0931 23.1708 25.1241C23.034 25.4091 22.8861 25.6879 22.7381 25.967L22.3026 25.8794C21.9107 25.801 21.6558 25.4199 21.7342 25.028C21.8027 24.685 22.1045 24.4469 22.4412 24.4453L22.5995 24.4623L22.246 21.5093C22.1305 20.1944 21.4522 19.0409 20.4531 18.2905C20.2814 18.1615 20.0995 18.0436 19.9102 17.9398V28.4278H22.3309C22.5119 29.4106 23.0526 30.2667 23.8127 30.8547C23.9935 30.9793 24.1449 31.1437 24.2539 31.3355C24.3628 31.1437 24.5142 30.9793 24.695 30.8547C25.4551 30.2667 25.9959 29.4106 26.1769 28.4278H28.5976V17.9398C28.4082 18.0436 28.2263 18.1615 28.0546 18.2905C27.0555 19.0409 26.3772 20.1944 26.2617 21.5093L25.9082 24.4623L26.0666 24.4453C26.4032 24.4469 26.705 24.685 26.7736 25.028C26.8519 25.4199 26.597 25.801 26.2051 25.8794L25.7696 25.967C25.6216 25.6879 25.4737 25.4091 25.337 25.1241C24.9266 24.0931 24.5891 23.0363 24.6158 21.911C24.6287 20.7036 24.7768 19.4983 24.7968 18.2905C24.7968 17.7404 24.5912 17.2393 24.2539 16.8564ZM20.6341 19.4502C21.1026 20.0001 21.417 20.6854 21.5108 21.4386L21.802 23.874C21.4312 24.0586 21.15 24.3975 21.0442 24.8074H20.6341V19.4502ZM27.8736 19.4502V24.8074H27.4636C27.3578 24.3975 27.0766 24.0586 26.7057 23.874L26.997 21.4386C27.0907 20.6854 27.4051 20.0001 27.8736 19.4502ZM24.2539 24.3463C24.4483 24.9825 24.7159 25.5866 25.0485 26.1481C24.7321 26.2442 24.4568 26.4312 24.2539 26.6826C24.051 26.4312 23.7756 26.2442 23.4592 26.1481C23.7919 25.5866 24.0594 24.9825 24.2539 24.3463ZM20.6341 25.5315H21.0442C21.1734 26.0312 21.5635 26.426 22.0594 26.5639L22.4072 26.6431C22.3141 26.9808 22.263 27.3366 22.263 27.7037H20.6341V25.5315ZM27.4636 25.5315H27.8736V27.7037H26.2447C26.2447 27.3366 26.1936 26.9808 26.1005 26.6431L26.4483 26.5639C26.9442 26.426 27.3343 26.0312 27.4636 25.5315ZM23.1142 26.8099C23.5534 26.872 23.8919 27.2474 23.8919 27.7037H22.987C22.987 27.3934 23.0329 27.0942 23.1142 26.8099ZM25.3935 26.8099C25.4748 27.0942 25.5208 27.3934 25.5208 27.7037H24.6158C24.6158 27.2474 24.9544 26.872 25.3935 26.8099ZM23.069 28.4278H23.8919V29.9524C23.4925 29.5348 23.2024 29.0104 23.069 28.4278ZM24.6158 28.4278H25.4388C25.3053 29.0104 25.0152 29.5348 24.6158 29.9524V28.4278Z" fill="black"/>
</g>
<defs>
<clipPath id="clip0_616_181">
<rect width="48.1931" height="48.1932" fill="white" transform="translate(0.160156)"/>
</clipPath>
</defs>
</svg>
