<svg xmlns="http://www.w3.org/2000/svg" xmlns:xlink="http://www.w3.org/1999/xlink" width="61" height="59" viewBox="0 0 61 59"><defs><path id="5o3oa" d="M1157.526 475.822c-1.41 0-2.557-.993-2.557-2.213 0-1.221 1.147-2.214 2.557-2.214s2.557.993 2.557 2.214a1.163 1.163 0 0 0 2.325 0c0-2.13-1.587-3.922-3.72-4.408v-.605a1.163 1.163 0 0 0-2.324 0v.605c-2.133.486-3.72 2.277-3.72 4.408 0 2.502 2.19 4.538 4.882 4.538 1.41 0 2.557.993 2.557 2.214 0 1.22-1.147 2.213-2.557 2.213s-2.557-.993-2.557-2.213a1.163 1.163 0 0 0-2.325 0c0 2.13 1.587 3.921 3.72 4.407v.502a1.163 1.163 0 0 0 2.324 0v-.502c2.133-.486 3.72-2.277 3.72-4.407 0-2.503-2.19-4.539-4.882-4.539z"/><path id="5o3ob" d="M1170.258 468.907a15.146 15.146 0 0 0-6.187-5.475 1.162 1.162 0 1 0-1.007 2.095c4.407 2.119 7.255 6.646 7.255 11.532a12.81 12.81 0 0 1-1.49 5.998 1.162 1.162 0 1 0 2.052 1.092 15.142 15.142 0 0 0 1.763-7.09c0-2.901-.825-5.72-2.386-8.152z"/><path id="5o3oc" d="M1159.353 461.947h-.078a1.163 1.163 0 0 0 0 2.325H1159.348a1.162 1.162 0 0 0 .005-2.325z"/><path id="5o3od" d="M1151.999 488.591c-4.407-2.118-7.255-6.645-7.255-11.532 0-2.09.516-4.164 1.49-5.997a1.162 1.162 0 1 0-2.052-1.092 15.143 15.143 0 0 0-1.763 7.09c0 2.9.825 5.72 2.386 8.151a15.147 15.147 0 0 0 6.186 5.476 1.163 1.163 0 0 0 1.007-2.095z"/><path id="5o3oe" d="M1155.788 489.847h-.067a1.161 1.161 0 1 0-.011 2.324h.078a1.163 1.163 0 0 0 0-2.324z"/><path id="5o3of" d="M1157.531 494.496c-9.614 0-17.437-7.822-17.437-17.437 0-9.615 7.823-17.437 17.437-17.437 9.615 0 17.438 7.822 17.438 17.437 0 9.615-7.823 17.437-17.438 17.437zm-28.132-6.277a3.026 3.026 0 0 1-3.022-3.022 3.026 3.026 0 0 1 3.022-3.023h9.043a19.684 19.684 0 0 0 2.789 6.045zm8.64-14.415a19.808 19.808 0 0 0-.072 6.045h-8.568a3.026 3.026 0 0 1-3.022-3.022 3.026 3.026 0 0 1 3.022-3.023zm-8.64-8.37h12.162a19.706 19.706 0 0 0-2.988 6.045h-9.174a3.026 3.026 0 0 1-3.022-3.022 3.026 3.026 0 0 1 3.022-3.023zm0-8.37h28.481c.468 0 .917.11 1.319.304a19.927 19.927 0 0 0-1.668-.07c-5.457 0-10.404 2.223-13.984 5.811h-14.148a3.026 3.026 0 0 1-3.022-3.022 3.026 3.026 0 0 1 3.022-3.022zm-6.277-10.694a3.026 3.026 0 0 1-3.022-3.023 3.026 3.026 0 0 1 3.022-3.022h28.48a3.026 3.026 0 0 1 3.023 3.022 3.026 3.026 0 0 1-3.022 3.023zm42.198 2.325a3.026 3.026 0 0 1 3.022 3.022 3.026 3.026 0 0 1-3.022 3.023h-28.48a3.026 3.026 0 0 1-3.023-3.023 3.026 3.026 0 0 1 3.022-3.022zm-2.51 9.32a5.336 5.336 0 0 0-.516-.95h3.026a5.354 5.354 0 0 0 5.347-5.348 5.354 5.354 0 0 0-5.347-5.347h-9.31c.593-.86.94-1.902.94-3.023a5.354 5.354 0 0 0-5.347-5.347h-28.481a5.354 5.354 0 0 0-5.347 5.347 5.354 5.354 0 0 0 5.347 5.348h9.31a5.316 5.316 0 0 0-.94 3.022c0 1.121.347 2.162.94 3.023h-3.033a5.354 5.354 0 0 0-5.347 5.347c0 1.693.792 3.205 2.024 4.185a5.339 5.339 0 0 0 0 8.37 5.339 5.339 0 0 0 0 8.37 5.339 5.339 0 0 0-2.024 4.185 5.354 5.354 0 0 0 5.347 5.347h13.7c3.61 3.86 8.743 6.277 14.432 6.277 10.897 0 19.763-8.865 19.763-19.762 0-9.069-6.142-16.73-14.484-19.045z"/></defs><g><g transform="translate(-1117 -438)"><g><g><g><use fill="#6e6e6e" xlink:href="#5o3oa"/></g></g></g><g><g><g><use fill="#6e6e6e" xlink:href="#5o3ob"/></g></g></g><g><g><g><use fill="#6e6e6e" xlink:href="#5o3oc"/></g></g></g><g><g><g><use fill="#6e6e6e" xlink:href="#5o3od"/></g></g></g><g><g><g><use fill="#6e6e6e" xlink:href="#5o3oe"/></g></g></g><g><g><g><use fill="#6e6e6e" xlink:href="#5o3of"/></g></g></g></g></g></svg>