<svg width="24" height="38" viewBox="0 0 24 38" fill="none" xmlns="http://www.w3.org/2000/svg">
<path d="M12 0.875C8.85167 0.878639 5.83333 2.13092 3.60713 4.35713C1.38092 6.58333 0.128639 9.60167 0.125 12.75V25.25C0.125 28.3994 1.37611 31.4199 3.60311 33.6469C5.8301 35.8739 8.85055 37.125 12 37.125C15.1494 37.125 18.1699 35.8739 20.3969 33.6469C22.6239 31.4199 23.875 28.3994 23.875 25.25V12.75C23.8714 9.60167 22.6191 6.58333 20.3929 4.35713C18.1667 2.13092 15.1483 0.878639 12 0.875ZM22.625 25.25C22.625 28.0679 21.5056 30.7704 19.513 32.763C17.5204 34.7556 14.8179 35.875 12 35.875C9.18207 35.875 6.47956 34.7556 4.48699 32.763C2.49442 30.7704 1.375 28.0679 1.375 25.25V12.75C1.375 9.93207 2.49442 7.22956 4.48699 5.23699C6.47956 3.24442 9.18207 2.125 12 2.125C14.8179 2.125 17.5204 3.24442 19.513 5.23699C21.5056 7.22956 22.625 9.93207 22.625 12.75V25.25Z" fill="black"/>
<path d="M12 5.875C11.8342 5.875 11.6753 5.94085 11.5581 6.05806C11.4408 6.17527 11.375 6.33424 11.375 6.5V16.5C11.375 16.6658 11.4408 16.8247 11.5581 16.9419C11.6753 17.0592 11.8342 17.125 12 17.125C12.1658 17.125 12.3247 17.0592 12.4419 16.9419C12.5592 16.8247 12.625 16.6658 12.625 16.5V6.5C12.625 6.33424 12.5592 6.17527 12.4419 6.05806C12.3247 5.94085 12.1658 5.875 12 5.875Z" fill="black"/>
</svg>
