<svg xmlns="http://www.w3.org/2000/svg" width="20" height="20" viewBox="0 0 20 20"><g><g><path fill="#003433" d="M20 5.715v11.428A2.857 2.857 0 0 1 17.143 20H2.857A2.857 2.857 0 0 1 0 17.143V.714C0 .32.32 0 .714 0H15c.395 0 .714.32.714.714V5h3.572c.394 0 .714.32.714.715zm-5.33 12.857a2.802 2.802 0 0 1-.15-.302c-.004-.006-.01-.013-.01-.02a2.868 2.868 0 0 1-.172-.595 2.822 2.822 0 0 1-.052-.512V1.429H1.429v15.714c0 .789.64 1.429 1.428 1.429zm3.901-1.43V6.429h-2.857v10.715a1.429 1.429 0 1 0 2.857 0zM10.714 4.287c0 .395-.32.714-.714.714H5.714a.714.714 0 1 1 0-1.428H10c.394 0 .714.32.714.714zm2.143 3.571c0 .395-.32.715-.714.715H3.57a.714.714 0 0 1 0-1.429h8.572c.394 0 .714.32.714.714zm0 2.857c0 .395-.32.715-.714.715H3.57a.714.714 0 1 1 0-1.429h8.572c.394 0 .714.32.714.714zm0 2.858c0 .394-.32.714-.714.714H3.57a.714.714 0 0 1 0-1.43h8.572c.394 0 .714.321.714.716zm0 2.857c0 .394-.32.714-.714.714H3.57a.714.714 0 1 1 0-1.429h8.572c.394 0 .714.32.714.715z"/></g></g></svg>