<svg width="22" height="42" viewBox="0 0 22 42" fill="none" xmlns="http://www.w3.org/2000/svg">
<path d="M18.4081 20.9998L1.42414 3.54582C1.28431 3.40516 1.17376 3.23817 1.09889 3.0545C1.02402 2.87084 0.986319 2.67415 0.987967 2.47582C0.989614 2.27749 1.03058 2.08146 1.10849 1.89906C1.1864 1.71667 1.29971 1.55153 1.44185 1.41322C1.584 1.2749 1.75217 1.16615 1.93663 1.09326C2.12108 1.02037 2.31817 0.984778 2.51647 0.988553C2.71477 0.992328 2.91035 1.03539 3.0919 1.11526C3.27345 1.19512 3.43736 1.31019 3.57414 1.45382L21.5741 19.9538C21.8466 20.2338 21.999 20.6091 21.999 20.9998C21.999 21.3905 21.8466 21.7658 21.5741 22.0458L3.57414 40.5458C3.43736 40.6894 3.27345 40.8045 3.0919 40.8844C2.91035 40.9642 2.71477 41.0073 2.51647 41.0111C2.31817 41.0148 2.12108 40.9793 1.93663 40.9064C1.75217 40.8335 1.584 40.7247 1.44185 40.5864C1.29971 40.4481 1.1864 40.283 1.10849 40.1006C1.03058 39.9182 0.989614 39.7221 0.987967 39.5238C0.986319 39.3255 1.02402 39.1288 1.09889 38.9451C1.17376 38.7615 1.28431 38.5945 1.42414 38.4538L18.4101 20.9998H18.4081Z" fill="#FFB200"/>
</svg>
