<svg xmlns="http://www.w3.org/2000/svg" width="70" height="70" viewBox="0 0 70 70"><g><g><g><path fill="#51bff7" d="M35 0c19.33 0 35 15.67 35 35S54.33 70 35 70 0 54.33 0 35 15.67 0 35 0z"/></g><g><path fill="#fff" d="M16.783 10.595a1.585 1.585 0 0 1 .438-2.204 1.6 1.6 0 0 1 2.217.438c.491.73.292 1.726-.438 2.218a1.692 1.692 0 0 1-.89.265 1.583 1.583 0 0 1-1.327-.717zm-4.409 4.036a1.594 1.594 0 0 1 0-2.257 1.595 1.595 0 0 1 2.258 0 1.594 1.594 0 0 1-1.13 2.723c-.41 0-.822-.16-1.128-.466zm9.507-7.116a1.603 1.603 0 0 1 .863-2.085 1.603 1.603 0 0 1 2.085.863 1.603 1.603 0 0 1-.863 2.085 1.597 1.597 0 0 1-2.085-.863zM8.391 17.22a1.601 1.601 0 0 1 2.217-.437c.73.477.93 1.474.439 2.204-.306.45-.81.703-1.328.703a1.55 1.55 0 0 1-.89-.266 1.586 1.586 0 0 1-.438-2.204zM5.43 22.744c.345-.81 1.275-1.208 2.084-.863a1.607 1.607 0 0 1 .864 2.085 1.598 1.598 0 0 1-2.085.863 1.598 1.598 0 0 1-.863-2.085zM27.485 5.497a1.589 1.589 0 0 1 1.248-1.873 1.59 1.59 0 0 1 1.872 1.248 1.59 1.59 0 0 1-1.248 1.873c-.106.012-.2.026-.305.026-.744 0-1.408-.53-1.567-1.274zM3.61 28.747a1.59 1.59 0 0 1 1.872-1.249A1.59 1.59 0 0 1 6.73 29.37a1.615 1.615 0 0 1-1.567 1.289c-.093 0-.199-.014-.305-.028a1.595 1.595 0 0 1-1.248-1.885zM67 35c0 8.551-3.333 16.584-9.374 22.626C51.584 63.667 43.55 67 35 67c-8.551 0-16.584-3.333-22.626-9.374C6.333 51.584 3 43.55 3 35c0-.876.717-1.594 1.593-1.594.877 0 1.594.718 1.594 1.594 0 15.894 12.92 28.813 28.813 28.813 15.894 0 28.813-12.92 28.813-28.813 0-15.894-12.92-28.813-28.813-28.813a1.598 1.598 0 0 1-1.593-1.593C33.407 3.717 34.124 3 35 3c8.551 0 16.584 3.333 22.626 9.374C63.667 18.416 67 26.45 67 35z"/></g></g></g></svg>