<svg xmlns="http://www.w3.org/2000/svg" xmlns:xlink="http://www.w3.org/1999/xlink" width="18" height="19" viewBox="0 0 18 19"><defs><path id="sam5a" d="M701.03 1030.828l-2.712 1.641c-.39.236-.389.617.002.852l2.687 1.609c.39.233.71.054.712-.402l.014-3.302c.002-.455-.314-.633-.703-.398zm-1.866-9.93l2.687-1.61c.39-.234.391-.615.002-.851l-2.712-1.641c-.39-.236-.705-.058-.703.398l.015 3.302c.001.455.32.635.711.401zm6.307-1.292c-.846-.764-2.084.475-1.272 1.088a6.588 6.588 0 0 1 2.49 5.164c0 3.076-2.106 5.653-4.953 6.388v1.701a8.258 8.258 0 0 0 6.604-8.089 8.23 8.23 0 0 0-2.869-6.252zm-9.523 11.398a6.588 6.588 0 0 1-2.466-5.146c0-3.075 2.106-5.652 4.953-6.387v-1.701a8.256 8.256 0 0 0-6.604 8.088 8.23 8.23 0 0 0 2.8 6.193c1.327 1.237 2.153-.414 1.317-1.047z"/></defs><g><g transform="translate(-691 -1016)"><use fill="#f3bb00" xlink:href="#sam5a"/></g></g></svg>