<svg xmlns="http://www.w3.org/2000/svg" xmlns:xlink="http://www.w3.org/1999/xlink" width="11" height="9" viewBox="0 0 11 9"><defs><path id="ugy3a" d="M592.123 1588.313a.443.443 0 0 1-.123-.287c0-.082.041-.205.123-.287l.574-.574a.396.396 0 0 1 .573 0l.041.041 2.254 2.418a.198.198 0 0 0 .286 0l5.49-5.695h.042a.396.396 0 0 1 .573 0l.574.573a.396.396 0 0 1 0 .574l-6.556 6.801a.372.372 0 0 1-.287.123.372.372 0 0 1-.286-.123l-3.196-3.442-.082-.122z"/></defs><g><g transform="translate(-592 -1583)"><use fill="#0abab5" xlink:href="#ugy3a"/></g></g></svg>