<svg xmlns="http://www.w3.org/2000/svg" width="17" height="17" viewBox="0 0 17 17"><g><g><path fill="#51bff7" d="M8.885 16.06a17.021 17.021 0 0 1-5.654-4.42c-1.3-1.562-2.176-3.022-2.759-4.594C.095 6.028-.052 5.185.012 4.39A2.576 2.576 0 0 1 .778 2.75l1.24-1.234c.356-.341.769-.52 1.195-.52.43 0 .834.179 1.177.52.227.209.454.443.674.666l.338.341.989.987c.747.742.747 1.665 0 2.411-.105.105-.206.21-.308.31-.276.283-.562.572-.87.85.22.51.532 1.005 1.003 1.597.936 1.147 1.914 2.039 2.993 2.722.108.066.23.13.363.196.105.052.213.104.318.163l1.177-1.174c.353-.352.765-.537 1.194-.537.434 0 .842.188 1.185.544l1.99 1.986c.72.718.723 1.663.007 2.409-.15.16-.31.313-.468.463a8 8 0 0 0-.639.659l-.014.014c-.538.582-1.222.878-2.043.878-.077 0-.15-.004-.227-.007-1.233-.08-2.34-.54-3.168-.934zm.381-.771c.758.359 1.764.78 2.85.85.056.004.115.007.17.007.584 0 1.031-.188 1.408-.592.22-.262.461-.495.695-.719.154-.15.3-.289.44-.439.276-.289.5-.728.01-1.216l-1.997-1.993c-.129-.133-.328-.286-.573-.286-.199 0-.401.097-.59.286l-1.24 1.237a.701.701 0 0 1-.506.233.73.73 0 0 1-.332-.083l-.038-.021a4.767 4.767 0 0 0-.363-.195 5.029 5.029 0 0 1-.44-.24c-1.16-.736-2.208-1.688-3.203-2.911-.552-.697-.911-1.28-1.166-1.892l-.01-.029c-.07-.201-.113-.474.17-.756l.018-.017c.318-.283.604-.575.911-.885.101-.105.206-.21.311-.314.405-.404.405-.802 0-1.206l-.988-.986c-.12-.115-.234-.234-.346-.349-.224-.226-.437-.443-.657-.648-.188-.185-.384-.279-.583-.279-.202 0-.408.094-.597.275l-1.233 1.23c-.314.31-.482.673-.52 1.109-.053.673.073 1.38.412 2.29.548 1.477 1.376 2.858 2.612 4.342a16.04 16.04 0 0 0 5.375 4.197zm3.08-10.63a5.506 5.506 0 0 1 1.55 2.987.423.423 0 0 1-.422.498.427.427 0 0 1-.422-.356 4.669 4.669 0 0 0-1.313-2.526 4.696 4.696 0 0 0-2.532-1.31.427.427 0 0 1 .143-.84 5.537 5.537 0 0 1 2.996 1.547zm3.814 2.983a8.256 8.256 0 0 0-2.326-4.475A8.287 8.287 0 0 0 9.35.846a.427.427 0 1 1 .143-.84 9.137 9.137 0 0 1 4.949 2.558 9.084 9.084 0 0 1 2.563 4.935.423.423 0 0 1-.422.498.427.427 0 0 1-.423-.355z"/></g></g></svg>