<svg width="38" height="38" viewBox="0 0 38 38" fill="none" xmlns="http://www.w3.org/2000/svg">
<circle cx="19" cy="19" r="18.5" stroke="#CDD9E7"/>
<path d="M24.2842 28.483C23.93 28.3754 23.5924 28.3032 23.2789 28.173C20.0301 26.8252 17.0401 25.0863 14.6717 22.4207C13.3249 20.9048 12.2708 19.1935 11.3797 17.3825C10.9571 16.5236 10.601 15.6311 10.238 14.7444C9.90705 13.9359 10.3945 13.1005 10.9079 12.4913C11.3896 11.9195 12.0094 11.4819 12.6807 11.1595C13.2046 10.9077 13.7214 11.0528 14.1041 11.4969C14.9313 12.4571 15.6911 13.4663 16.3064 14.5792C16.6847 15.2637 16.5809 16.1005 15.8952 16.5663C15.7286 16.6796 15.5767 16.8125 15.4214 16.9404C15.2853 17.0524 15.1572 17.1657 15.0638 17.3174C14.8932 17.5951 14.8851 17.9226 14.9949 18.2245C15.8405 20.5483 17.2658 22.3553 19.6047 23.3285C19.979 23.4842 20.3549 23.6655 20.7861 23.6153C21.5082 23.5309 21.742 22.7388 22.248 22.325C22.7426 21.9206 23.3746 21.9152 23.9074 22.2524C24.4403 22.5896 24.9569 22.9517 25.4704 23.3176C25.9744 23.6767 26.4762 24.0281 26.9411 24.4375C27.3881 24.8312 27.5421 25.3477 27.2904 25.8819C26.8295 26.8604 26.159 27.6745 25.1916 28.1941C24.9185 28.3406 24.5923 28.3881 24.2842 28.483C23.93 28.3753 24.5923 28.3881 24.2842 28.483Z" fill="#CDD9E7"/>
<path d="M19.2805 10.0399C23.53 10.1589 27.0203 12.9791 27.7683 17.1803C27.8957 17.8961 27.9411 18.628 27.9977 19.3545C28.0216 19.6601 27.8486 19.9505 27.5187 19.9545C27.1781 19.9585 27.0248 19.6735 27.0027 19.368C26.959 18.7633 26.9286 18.156 26.8453 17.5563C26.4054 14.3907 23.8811 11.7718 20.7302 11.2098C20.2561 11.1252 19.7708 11.103 19.2905 11.0526C18.9869 11.0207 18.5893 11.0023 18.522 10.6249C18.4656 10.3085 18.7326 10.0565 19.0339 10.0403C19.1159 10.0358 19.1983 10.0395 19.2805 10.0399C23.53 10.1589 19.1983 10.0395 19.2805 10.0399Z" fill="#CDD9E7"/>
<path d="M25.7385 18.4121C25.7315 18.4652 25.7278 18.5899 25.6967 18.7075C25.584 19.1341 24.9371 19.1875 24.7882 18.7569C24.7441 18.6291 24.7374 18.4838 24.7372 18.3462C24.7357 17.4462 24.5401 16.547 24.0862 15.7639C23.6196 14.9591 22.9068 14.2825 22.0708 13.8731C21.5652 13.6255 21.0185 13.4717 20.4644 13.38C20.2223 13.3399 19.9775 13.3156 19.7342 13.2817C19.4393 13.2408 19.2818 13.0528 19.2958 12.7622C19.3088 12.4899 19.5078 12.2941 19.8046 12.3108C20.7798 12.3662 21.7218 12.577 22.5888 13.0361C24.3519 13.9698 25.359 15.4436 25.653 17.4115C25.6662 17.5006 25.6877 17.589 25.6944 17.6785C25.7111 17.8995 25.7215 18.1207 25.7385 18.4121C25.7315 18.4652 25.7215 18.1207 25.7385 18.4121Z" fill="#CDD9E7"/>
<path d="M23.0953 18.3091C22.7398 18.3155 22.5495 18.1187 22.5129 17.7927C22.4874 17.5654 22.4672 17.3351 22.413 17.114C22.3062 16.6785 22.0747 16.2749 21.7084 16.0081C21.5354 15.8821 21.3394 15.7902 21.1341 15.731C20.8733 15.6557 20.6025 15.6764 20.3423 15.6126C20.0598 15.5434 19.9035 15.3146 19.9479 15.0495C19.9883 14.8082 20.223 14.6199 20.4866 14.639C22.1342 14.758 23.3117 15.6097 23.4797 17.5493C23.4916 17.6861 23.5056 17.8308 23.4752 17.9617C23.4232 18.1858 23.2572 18.2981 23.0953 18.3091C22.7398 18.3155 23.2572 18.2981 23.0953 18.3091Z" fill="#CDD9E7"/>
</svg>
