<svg width="136" height="135" viewBox="0 0 136 135" fill="none" xmlns="http://www.w3.org/2000/svg">
<path d="M64.8006 27.5971C90.7133 31.625 108.443 56.1196 104.376 82.3252C100.308 108.531 75.9905 126.489 50.0778 122.461C24.1651 118.433 6.43583 93.9389 10.5029 67.7333C14.57 41.5276 38.888 23.5691 64.8006 27.5971Z" fill="#131811" fill-opacity="0.8" stroke="#01A50D" stroke-width="2"/>
<path d="M70.4216 22.7512C69.3991 22.4929 68.6337 21.9385 68.1253 21.0881C67.6193 20.2286 67.4923 19.2964 67.7444 18.2916C67.9965 17.2867 68.5471 16.5306 69.3961 16.0231C70.2474 15.5065 71.1843 15.3774 72.2069 15.6358C72.8765 15.8049 73.4374 16.1199 73.8895 16.5807C74.3439 17.0324 74.6251 17.5607 74.7331 18.1656L73.8946 18.4014C73.8158 17.9483 73.6023 17.5526 73.2542 17.2144C72.9173 16.8694 72.4956 16.6328 71.9888 16.5048C71.2377 16.3151 70.5384 16.4176 69.8909 16.8123C69.2457 17.198 68.8288 17.7665 68.6403 18.5179C68.4518 19.2693 68.5495 19.9727 68.9336 20.628C69.3199 21.2744 69.8886 21.6924 70.6397 21.8822C71.1464 22.0102 71.6284 22.0068 72.0856 21.872C72.5451 21.7282 72.939 21.4812 73.2675 21.1309L73.905 21.7541C73.4882 22.2264 72.9686 22.5524 72.3462 22.732C71.7237 22.9117 71.0822 22.9181 70.4216 22.7512Z" fill="#01A50D"/>
<path d="M86.5183 21.6613L83.4464 27.9512L82.618 27.5419L85.0693 22.5226L81.1279 25.0101L81.0275 24.9605L80.5758 20.3026L78.1244 25.322L77.296 24.9127L80.3679 18.6227L81.3218 19.094L81.7597 23.5889L85.5643 21.19L86.5183 21.6613Z" fill="#01A50D"/>
<path d="M92.5202 33.3422C91.5322 33.4434 90.639 33.1713 89.8407 32.5257C89.0424 31.8801 88.5821 31.0578 88.4597 30.0586C88.3505 29.058 88.6188 28.1528 89.2648 27.3428C89.9108 26.5329 90.7278 26.0773 91.7158 25.9761C92.7169 25.8734 93.6166 26.1449 94.4149 26.7904C95.2132 27.436 95.667 28.2591 95.7763 29.2597C95.8986 30.2588 95.6368 31.1634 94.9908 31.9733C94.3448 32.7832 93.5213 33.2395 92.5202 33.3422ZM89.3729 29.9689C89.4549 30.7193 89.797 31.3381 90.3994 31.8252C91.0017 32.3123 91.6756 32.5152 92.421 32.4338C93.1722 32.3451 93.7893 31.9979 94.2723 31.3923C94.7554 30.7867 94.9559 30.1086 94.874 29.3582C94.7978 28.6004 94.4586 27.978 93.8562 27.4909C93.2539 27.0038 92.5771 26.8046 91.8259 26.8933C91.0805 26.9747 90.4663 27.3182 89.9833 27.9238C89.5003 28.5295 89.2968 29.2111 89.3729 29.9689Z" fill="#01A50D"/>
<path d="M104.765 37.797L104.082 38.3771L102.492 36.4763L97.8403 40.4281L97.2475 39.7193L101.9 35.7675L100.31 33.8667L100.993 33.2867L104.765 37.797Z" fill="#01A50D"/>
<path d="M110.426 44.9596C110.905 45.8358 111.002 46.7535 110.718 47.7125C110.439 48.6798 109.85 49.4129 108.953 49.9121C108.056 50.4112 107.127 50.522 106.167 50.2444C105.211 49.9751 104.494 49.4023 104.015 48.526C103.42 47.4368 103.416 46.3601 104.004 45.2959L100.358 47.3242L99.9152 46.5134L108.479 41.7491L108.922 42.5599L107.723 43.2269C108.93 43.2928 109.83 43.8704 110.426 44.9596ZM104.522 45.9213C104.312 46.6467 104.393 47.3493 104.764 48.029C105.136 48.7087 105.682 49.1526 106.402 49.3608C107.13 49.5644 107.833 49.4779 108.51 49.1013C109.187 48.7247 109.63 48.1737 109.84 47.4483C110.058 46.7183 109.981 46.0135 109.609 45.3337C109.238 44.654 108.688 44.2124 107.959 44.0087C107.239 43.8006 106.541 43.8848 105.864 44.2614C105.187 44.638 104.739 45.1913 104.522 45.9213Z" fill="#01A50D"/>
<path d="M115.676 57.2841C115.967 58.2785 115.848 59.1858 115.319 60.0058C114.802 60.8321 114.065 61.388 113.108 61.6735C113.01 61.7028 112.868 61.7352 112.684 61.7707L110.961 55.8712C110.308 56.1635 109.85 56.6117 109.589 57.2155C109.339 57.8257 109.319 58.4891 109.529 59.2058C109.678 59.7165 109.909 60.1248 110.222 60.4308C110.546 60.743 110.906 60.9425 111.301 61.0292L111.072 61.9448C110.512 61.7905 110.019 61.4994 109.592 61.0715C109.166 60.6435 108.857 60.1026 108.666 59.4485C108.357 58.3914 108.437 57.4326 108.905 56.5722C109.373 55.7117 110.117 55.1294 111.137 54.8252C112.139 54.5264 113.07 54.6039 113.932 55.0578C114.794 55.5117 115.375 56.2538 115.676 57.2841ZM114.818 57.5402C114.614 56.8414 114.232 56.3173 113.673 55.9679C113.125 55.6248 112.508 55.5071 111.82 55.615L113.284 60.6276C113.964 60.3272 114.434 59.8898 114.694 59.3155C114.955 58.7412 114.996 58.1495 114.818 57.5402Z" fill="#01A50D"/>
<path d="M117.55 71.7123L116.657 71.7924L116.444 69.3235L110.365 69.8688L110.285 68.9482L116.365 68.403L116.152 65.9341L117.044 65.8541L117.55 71.7123Z" fill="#01A50D"/>
<path d="M115.064 79.9538C115.011 80.6049 114.762 81.1373 114.316 81.5509C113.879 81.9745 113.344 82.1608 112.712 82.1099C112.079 82.0589 111.576 81.7891 111.204 81.3003C110.841 80.8215 110.685 80.2566 110.738 79.6054L110.969 76.7728L117.946 77.3346L117.871 78.2556L115.22 78.0421L115.064 79.9538ZM111.631 79.6773C111.6 80.068 111.689 80.4076 111.9 80.6961C112.109 80.9939 112.405 81.1582 112.787 81.1889C113.168 81.2196 113.486 81.1048 113.742 80.8445C113.996 80.5934 114.139 80.2726 114.171 79.8818L114.327 77.9702L111.787 77.7657L111.631 79.6773Z" fill="#01A50D"/>
<path d="M110.436 96.1281C109.91 96.7489 109.266 96.918 108.505 96.6353C107.971 96.437 107.595 96.0933 107.377 95.6042C107.165 95.1271 107.181 94.5556 107.426 93.8899L108.6 90.697L115.162 93.1343L114.085 96.0644C113.85 96.7039 113.501 97.137 113.04 97.3639C112.587 97.5941 112.103 97.6133 111.587 97.4216C110.931 97.1778 110.547 96.7467 110.436 96.1281ZM113.245 95.7524L114.003 93.6895L112.009 92.9486L111.25 95.0115C110.97 95.7736 111.171 96.2814 111.853 96.5349C112.159 96.6486 112.433 96.6356 112.673 96.4959C112.919 96.3682 113.109 96.1203 113.245 95.7524ZM108.266 94.2019C108.124 94.5873 108.108 94.9149 108.218 95.1846C108.324 95.4631 108.544 95.6641 108.876 95.7875C109.182 95.9013 109.462 95.8855 109.714 95.7403C109.972 95.6071 110.172 95.3477 110.313 94.9623L111.169 92.6366L109.121 91.8762L108.266 94.2019Z" fill="#01A50D"/>
<path d="M109.045 107.133L108.647 107.808L102.637 104.219L103.106 103.423L107.734 106.187L105.225 99.8296L105.623 99.1543L111.634 102.743L111.164 103.539L106.536 100.776L109.045 107.133Z" fill="#01A50D"/>
<path d="M96.0238 113.494L95.3636 114.218L93.3285 112.336L93.951 111.653L95.3283 112.927L99.1763 108.705L97.799 107.432L98.4214 106.749L100.457 108.631L99.8812 109.262C100.02 110.038 100.507 110.813 101.343 111.586L103.882 113.934L100.505 117.638L96.0238 113.494ZM99.1267 110.09L96.6463 112.811L100.47 116.347L102.601 114.009L100.72 112.269C99.9324 111.54 99.4012 110.814 99.1267 110.09Z" fill="#01A50D"/>
<path d="M93.0952 124.987C92.248 125.583 91.355 125.761 90.4163 125.52C89.4752 125.292 88.7203 124.768 88.1518 123.947C88.0933 123.862 88.0186 123.738 87.9276 123.574L92.9534 120.036C92.4732 119.507 91.9075 119.214 91.2563 119.159C90.6027 119.117 89.9706 119.311 89.36 119.741C88.925 120.047 88.6121 120.398 88.4214 120.795C88.2284 121.205 88.1527 121.612 88.1944 122.016L87.2594 122.092C87.2296 121.509 87.3499 120.945 87.6202 120.4C87.8905 119.856 88.3042 119.388 88.8614 118.996C89.762 118.362 90.6913 118.13 91.6493 118.301C92.6072 118.471 93.3891 118.993 93.9949 119.868C94.59 120.727 94.8083 121.641 94.6496 122.609C94.491 123.576 93.9729 124.369 93.0952 124.987ZM92.585 124.25C93.1804 123.831 93.5554 123.299 93.7101 122.654C93.8626 122.021 93.7804 121.394 93.4635 120.773L89.1933 123.779C89.6894 124.331 90.249 124.639 90.872 124.703C91.495 124.766 92.0661 124.615 92.585 124.25Z" fill="#01A50D"/>
<path d="M76.3474 126.554C76.7381 125.634 77.4075 124.977 78.3556 124.583C79.3036 124.189 80.2416 124.178 81.1696 124.55C82.0924 124.935 82.7494 125.607 83.1406 126.566C83.5318 127.526 83.532 128.465 83.1413 129.386C82.7455 130.318 82.0736 130.982 81.1256 131.376C80.1775 131.77 79.242 131.774 78.3192 131.39C77.3912 131.018 76.7317 130.352 76.3405 129.392C75.9493 128.433 75.9516 127.487 76.3474 126.554ZM80.8051 125.399C80.113 125.111 79.4092 125.115 78.6939 125.412C77.9785 125.71 77.4757 126.207 77.1853 126.904C76.8984 127.609 76.9012 128.32 77.1937 129.038C77.4863 129.755 77.9786 130.258 78.6707 130.546C79.3664 130.843 80.0719 130.843 80.7872 130.546C81.5026 130.249 82.0037 129.747 82.2905 129.042C82.5809 128.345 82.5799 127.638 82.2874 126.921C81.9949 126.204 81.5008 125.696 80.8051 125.399Z" fill="#01A50D"/>
<g filter="url(#filter0_d_1_426)">
<path d="M77.5 72.4019C79.5 73.5566 79.5 76.4434 77.5 77.5981L50.5 93.1865C48.5 94.3412 46 92.8979 46 90.5885L46 59.4115C46 57.1021 48.5 55.6588 50.5 56.8135L77.5 72.4019Z" fill="#D9D9D9"/>
</g>
<path d="M66.5 74.134C67.1667 74.5189 67.1667 75.4811 66.5 75.866L54.5 82.7942C53.8333 83.1791 53 82.698 53 81.9282L53 68.0718C53 67.302 53.8333 66.8209 54.5 67.2058L66.5 74.134Z" fill="#01A50D"/>
<path d="M66.25 74.567C66.5833 74.7594 66.5833 75.2406 66.25 75.433L54.25 82.3612C53.9167 82.5537 53.5 82.3131 53.5 81.9282L53.5 68.0718C53.5 67.6869 53.9167 67.4463 54.25 67.6388L66.25 74.567Z" stroke="black" stroke-opacity="0.05"/>
<defs>
<filter id="filter0_d_1_426" x="6" y="16.4071" width="113" height="117.186" filterUnits="userSpaceOnUse" color-interpolation-filters="sRGB">
<feFlood flood-opacity="0" result="BackgroundImageFix"/>
<feColorMatrix in="SourceAlpha" type="matrix" values="0 0 0 0 0 0 0 0 0 0 0 0 0 0 0 0 0 0 127 0" result="hardAlpha"/>
<feOffset/>
<feGaussianBlur stdDeviation="20"/>
<feComposite in2="hardAlpha" operator="out"/>
<feColorMatrix type="matrix" values="0 0 0 0 0.529412 0 0 0 0 0.87451 0 0 0 0 0.0745098 0 0 0 0.45 0"/>
<feBlend mode="normal" in2="BackgroundImageFix" result="effect1_dropShadow_1_426"/>
<feBlend mode="normal" in="SourceGraphic" in2="effect1_dropShadow_1_426" result="shape"/>
</filter>
</defs>
</svg>
