<svg width="22" height="42" viewBox="0 0 22 42" fill="none" xmlns="http://www.w3.org/2000/svg">
<path d="M4.57856 20.9998L21.5626 3.54582C21.7024 3.40516 21.8129 3.23817 21.8878 3.0545C21.9627 2.87084 22.0004 2.67415 21.9987 2.47582C21.9971 2.27749 21.9561 2.08146 21.8782 1.89906C21.8003 1.71667 21.687 1.55153 21.5448 1.41322C21.4027 1.2749 21.2345 1.16615 21.0501 1.09326C20.8656 1.02037 20.6685 0.984778 20.4702 0.988553C20.2719 0.992328 20.0763 1.03539 19.8948 1.11526C19.7132 1.19512 19.5493 1.31019 19.4126 1.45382L1.41256 19.9538C1.14011 20.2338 0.987679 20.6091 0.987679 20.9998C0.987679 21.3905 1.14011 21.7658 1.41256 22.0458L19.4126 40.5458C19.5493 40.6894 19.7132 40.8045 19.8948 40.8844C20.0763 40.9642 20.2719 41.0073 20.4702 41.0111C20.6685 41.0148 20.8656 40.9793 21.0501 40.9064C21.2345 40.8335 21.4027 40.7247 21.5448 40.5864C21.687 40.4481 21.8003 40.283 21.8782 40.1006C21.9561 39.9182 21.9971 39.7221 21.9987 39.5238C22.0004 39.3255 21.9627 39.1288 21.8878 38.9451C21.8129 38.7615 21.7024 38.5945 21.5626 38.4538L4.57656 20.9998H4.57856Z" fill="#FFB200"/>
</svg>
