<svg width="462" height="78" viewBox="0 0 462 78" fill="none" xmlns="http://www.w3.org/2000/svg">
<path d="M319.846 9.50316V64.2184H330.902V9.50316H319.846ZM326.572 18.9611H337.319C340.257 18.9611 342.576 19.6385 344.277 20.9934C345.978 22.2961 346.828 24.2763 346.828 26.9339C346.828 29.5393 345.978 31.5195 344.277 32.8744C342.576 34.2292 340.257 34.9066 337.319 34.9066H326.572V44.3646H337.319C341.597 44.3646 345.23 43.6611 348.22 42.2541C351.261 40.8472 353.58 38.8409 355.178 36.2354C356.776 33.5778 357.574 30.4773 357.574 26.9339C357.574 23.3383 356.776 20.2378 355.178 17.6323C353.58 15.0268 351.261 13.0206 348.22 11.6136C345.23 10.2066 341.597 9.50316 337.319 9.50316H326.572V18.9611Z" fill="#34B53A"/>
<path d="M360.463 46.2405C360.463 49.9403 361.313 53.2232 363.014 56.0892C364.766 58.9032 367.112 61.0918 370.049 62.6551C373.039 64.2184 376.415 65 380.177 65C383.94 65 387.29 64.2184 390.228 62.6551C393.217 61.0918 395.562 58.9032 397.263 56.0892C399.016 53.2232 399.892 49.9403 399.892 46.2405C399.892 42.4886 399.016 39.2057 397.263 36.3918C395.562 33.5778 393.217 31.3892 390.228 29.8259C387.29 28.2627 383.94 27.481 380.177 27.481C376.415 27.481 373.039 28.2627 370.049 29.8259C367.112 31.3892 364.766 33.5778 363.014 36.3918C361.313 39.2057 360.463 42.4886 360.463 46.2405ZM370.668 46.2405C370.668 44.2082 371.08 42.4104 371.905 40.8472C372.781 39.2839 373.941 38.0853 375.384 37.2516C376.827 36.4178 378.425 36.0009 380.177 36.0009C381.93 36.0009 383.528 36.4178 384.971 37.2516C386.414 38.0853 387.548 39.2839 388.372 40.8472C389.249 42.4104 389.687 44.2082 389.687 46.2405C389.687 48.2728 389.249 50.0706 388.372 51.6339C387.548 53.145 386.414 54.3436 384.971 55.2294C383.528 56.0632 381.93 56.4801 380.177 56.4801C378.425 56.4801 376.827 56.0632 375.384 55.2294C373.941 54.3436 372.781 53.145 371.905 51.6339C371.08 50.0706 370.668 48.2728 370.668 46.2405Z" fill="#34B53A"/>
<path d="M405.008 46.2405C405.008 49.9403 405.858 53.2232 407.559 56.0892C409.311 58.9032 411.657 61.0918 414.594 62.6551C417.584 64.2184 420.96 65 424.722 65C428.485 65 431.835 64.2184 434.773 62.6551C437.762 61.0918 440.107 58.9032 441.808 56.0892C443.561 53.2232 444.437 49.9403 444.437 46.2405C444.437 42.4886 443.561 39.2057 441.808 36.3918C440.107 33.5778 437.762 31.3892 434.773 29.8259C431.835 28.2627 428.485 27.481 424.722 27.481C420.96 27.481 417.584 28.2627 414.594 29.8259C411.657 31.3892 409.311 33.5778 407.559 36.3918C405.858 39.2057 405.008 42.4886 405.008 46.2405ZM415.213 46.2405C415.213 44.2082 415.625 42.4104 416.45 40.8472C417.326 39.2839 418.486 38.0853 419.929 37.2516C421.372 36.4178 422.97 36.0009 424.722 36.0009C426.475 36.0009 428.073 36.4178 429.516 37.2516C430.959 38.0853 432.093 39.2839 432.917 40.8472C433.794 42.4104 434.232 44.2082 434.232 46.2405C434.232 48.2728 433.794 50.0706 432.917 51.6339C432.093 53.145 430.959 54.3436 429.516 55.2294C428.073 56.0632 426.475 56.4801 424.722 56.4801C422.97 56.4801 421.372 56.0632 419.929 55.2294C418.486 54.3436 417.326 53.145 416.45 51.6339C415.625 50.0706 415.213 48.2728 415.213 46.2405Z" fill="#34B53A"/>
<path d="M451.949 3.25V64.2184H462V3.25H451.949Z" fill="#34B53A"/>
<path d="M109.846 10.4695V64.232H120.898V10.4695H109.846ZM116.57 19.7627H127.313C130.25 19.7627 132.569 20.4284 134.269 21.7596C135.969 23.0397 136.819 24.9854 136.819 27.5967C136.819 30.1568 135.969 32.1025 134.269 33.4338C132.569 34.765 130.25 35.4307 127.313 35.4307H116.57V44.7239H127.313C131.59 44.7239 135.222 44.0326 138.21 42.6502C141.25 41.2677 143.569 39.2964 145.166 36.7363C146.764 34.125 147.562 31.0785 147.562 27.5967C147.562 24.0637 146.764 21.0172 145.166 18.4571C143.569 15.897 141.25 13.9257 138.21 12.5432C135.222 11.1608 131.59 10.4695 127.313 10.4695H116.57V19.7627Z" fill="#F3F3F3"/>
<path d="M163.491 28.9024H153.676V64.232H163.491V28.9024ZM173.925 39.2708L178.485 30.8224C177.763 29.9008 176.81 29.2096 175.625 28.7488C174.492 28.2879 173.281 28.0575 171.993 28.0575C170.138 28.0575 168.334 28.7232 166.583 30.0544C164.831 31.3345 163.414 33.0753 162.332 35.2771C161.25 37.4275 160.709 39.9109 160.709 42.727L163.491 45.4919C163.491 43.8022 163.697 42.3686 164.109 41.1909C164.573 39.9621 165.243 39.0148 166.119 38.3492C166.995 37.6836 168.051 37.3507 169.288 37.3507C170.318 37.3507 171.168 37.53 171.838 37.8884C172.559 38.1956 173.255 38.6564 173.925 39.2708Z" fill="#F3F3F3"/>
<path d="M180.262 46.5672C180.262 50.2025 181.113 53.4283 182.813 56.2444C184.565 59.0093 186.909 61.1598 189.846 62.6959C192.834 64.232 196.209 65 199.971 65C203.732 65 207.081 64.232 210.018 62.6959C213.006 61.1598 215.351 59.0093 217.051 56.2444C218.803 53.4283 219.679 50.2025 219.679 46.5672C219.679 42.8806 218.803 39.6548 217.051 36.8899C215.351 34.125 213.006 31.9745 210.018 30.4384C207.081 28.9024 203.732 28.1343 199.971 28.1343C196.209 28.1343 192.834 28.9024 189.846 30.4384C186.909 31.9745 184.565 34.125 182.813 36.8899C181.113 39.6548 180.262 42.8806 180.262 46.5672ZM190.464 46.5672C190.464 44.5703 190.876 42.8038 191.701 41.2677C192.577 39.7317 193.736 38.554 195.179 37.7348C196.621 36.9155 198.219 36.5059 199.971 36.5059C201.722 36.5059 203.32 36.9155 204.762 37.7348C206.205 38.554 207.339 39.7317 208.163 41.2677C209.039 42.8038 209.477 44.5703 209.477 46.5672C209.477 48.564 209.039 50.3305 208.163 51.8666C207.339 53.3515 206.205 54.5291 204.762 55.3996C203.32 56.2188 201.722 56.6284 199.971 56.6284C198.219 56.6284 196.621 56.2188 195.179 55.3996C193.736 54.5291 192.577 53.3515 191.701 51.8666C190.876 50.3305 190.464 48.564 190.464 46.5672Z" fill="#F3F3F3"/>
<path d="M224.175 28.9024V37.2739H246.433V28.9024H224.175ZM245.351 14.3097L249.602 6.85976C249.138 6.34774 248.494 5.81012 247.67 5.24689C246.897 4.68366 245.944 4.22284 244.81 3.86443C243.677 3.45481 242.311 3.25 240.714 3.25C238.035 3.25 235.768 3.76202 233.913 4.78607C232.058 5.75891 230.667 7.16698 229.739 9.01026C228.812 10.8535 228.348 13.132 228.348 15.8458V64.232H238.009V18.0731C238.009 16.7418 238.163 15.641 238.473 14.7705C238.782 13.9001 239.194 13.2857 239.709 12.9272C240.276 12.5176 240.946 12.3128 241.719 12.3128C242.337 12.3128 242.955 12.4664 243.574 12.7736C244.243 13.0296 244.836 13.5417 245.351 14.3097Z" fill="#F3F3F3"/>
<path d="M251.934 15.2313C251.934 16.8186 252.526 18.1499 253.711 19.2251C254.897 20.3004 256.313 20.838 257.962 20.838C259.611 20.838 261.002 20.3004 262.136 19.2251C263.321 18.1499 263.913 16.8186 263.913 15.2313C263.913 13.5929 263.321 12.2616 262.136 11.2376C261.002 10.1623 259.611 9.62469 257.962 9.62469C256.313 9.62469 254.897 10.1623 253.711 11.2376C252.526 12.2616 251.934 13.5929 251.934 15.2313ZM253.016 28.9024V64.232H262.754V28.9024H253.016Z" fill="#F3F3F3"/>
<path d="M268.82 28.9024V37.2739H290.769V28.9024H268.82ZM274.925 16.6138V64.232H284.586V16.6138H274.925Z" fill="#F3F3F3"/>
<path d="M55.5617 50.0539C55.5617 52.2327 55.2941 54.4115 54.7924 56.5399C54.7422 56.7502 54.7004 56.9689 54.6418 57.1792C54.6418 57.1876 54.6335 57.1961 54.6335 57.2045C53.4209 61.8313 51.0292 66.1805 47.4249 69.8147C44.5481 72.7086 41.2198 74.8201 37.6657 76.1745C37.6573 76.1829 37.6573 76.1829 37.6489 76.1829C34.4795 77.3859 31.1261 77.9916 27.7727 77.9916C20.9069 77.9916 14.0663 75.451 8.72258 70.3783C8.53024 70.1932 8.32952 69.9998 8.13718 69.8147C7.95321 69.6212 7.76088 69.4277 7.5769 69.2258C2.52586 63.8503 0.00866699 56.9689 0.00866699 50.0623C0.00866699 49.322 0.0421564 48.5817 0.100695 47.8498C1.17111 49.3556 2.38367 50.7942 3.73005 52.1486C8.12044 56.5735 13.4391 59.5347 19.0588 61.0237C19.0672 61.0321 19.0839 61.0321 19.1006 61.0321C20.8818 61.5032 22.6882 61.8313 24.5113 62.008C24.8876 62.0416 25.2806 62.0668 25.6569 62.1005C26.3594 62.1425 27.0618 62.1594 27.7643 62.1594C27.7726 62.1594 27.7894 62.1678 27.7978 62.1678C29.7295 62.1678 31.6529 61.9995 33.5596 61.6715C35.4663 61.3434 37.3479 60.847 39.1877 60.1824C39.4218 60.0983 39.656 60.0226 39.8901 59.9385H39.8985C44.2638 58.2728 48.3531 55.665 51.8654 52.1402C53.2118 50.7858 54.4161 49.3472 55.4865 47.833C55.5116 48.1443 55.5367 48.4639 55.5534 48.7836C55.5534 49.2042 55.5617 49.6249 55.5617 50.0539Z" fill="#34B53A"/>
<path d="M77.5384 27.9206C77.5384 28.6609 77.505 29.4096 77.4465 30.1499C76.3677 28.6441 75.1634 27.2055 73.8171 25.8511C69.4183 21.4262 64.108 18.465 58.4883 16.9761C58.4799 16.9676 58.4632 16.9676 58.4465 16.9676C56.314 16.3956 54.1314 16.0423 51.9404 15.8993C51.2128 15.8572 50.4769 15.8319 49.7494 15.8319C49.2393 15.8319 48.7208 15.8404 48.2106 15.8656C47.5416 15.8993 46.8726 15.9497 46.2036 16.017C45.752 16.0591 45.3088 16.118 44.8656 16.1853C44.6482 16.2189 44.4224 16.2526 44.205 16.2946C44.1046 16.3031 44.0042 16.3199 43.9122 16.3367C43.8871 16.3451 43.8705 16.3451 43.8454 16.3451C43.745 16.3619 43.6446 16.3788 43.5443 16.404C43.3268 16.4461 43.1011 16.4881 42.8836 16.5302C42.6662 16.5723 42.4404 16.6311 42.223 16.6816C42.1059 16.7068 42.0056 16.7321 41.8969 16.7573C41.8383 16.7741 41.7798 16.7826 41.7296 16.7994C41.6711 16.8078 41.6209 16.8246 41.5623 16.8414C41.3449 16.8919 41.1191 16.9508 40.9017 17.0097C40.6257 17.0854 40.3581 17.1611 40.0822 17.2368C40.0571 17.2452 40.0236 17.2537 39.9985 17.2621C39.9734 17.2705 39.9567 17.2789 39.9316 17.2873C39.9232 17.2873 39.9065 17.2957 39.8898 17.2957C39.8814 17.2957 39.8815 17.2957 39.8731 17.3041C39.8313 17.3125 39.7727 17.3294 39.7225 17.3462C39.6975 17.3546 39.6808 17.3546 39.664 17.363C39.639 17.3714 39.6222 17.3798 39.5971 17.3883C39.4633 17.4303 39.3379 17.4724 39.2041 17.5144C39.087 17.5565 38.9783 17.5902 38.8696 17.6322C38.8529 17.6406 38.8278 17.6406 38.811 17.649C38.7525 17.6659 38.694 17.6911 38.6438 17.7079C38.5852 17.7248 38.5267 17.75 38.4765 17.7668C38.418 17.7836 38.3678 17.8089 38.3093 17.8257C38.0919 17.9014 37.8828 17.9771 37.6737 18.0613H37.6654C33.3001 19.7269 29.2107 22.3348 25.7068 25.8596C24.3604 27.214 23.1478 28.6525 22.0774 30.1583C22.0523 29.847 22.0356 29.5358 22.0188 29.2245C22.0021 28.8039 21.9938 28.3833 21.9938 27.9627C21.9938 27.6598 22.0188 27.3654 22.0188 27.0625C22.0774 25.1529 22.3366 23.2349 22.7882 21.3673C22.83 21.1823 22.8635 21.0056 22.9136 20.8205C22.9136 20.8121 22.9137 20.8121 22.922 20.8037C24.1346 16.1769 26.5263 11.8276 30.1306 8.19348C33.0074 5.2996 36.3357 3.18809 39.8982 1.83369C43.0927 0.613887 46.4712 0.0166016 49.8664 0.0166016C56.6903 0.0166016 63.5059 2.56556 68.8413 7.62983C69.0336 7.81491 69.226 7.99999 69.4183 8.19348V8.2019C69.6106 8.38697 69.7946 8.58043 69.9869 8.78233C75.0129 14.1495 77.5384 21.0224 77.5384 27.9206Z" fill="#34B53A"/>
<path d="M25.6984 52.1486C27.0448 53.503 28.4748 54.7228 29.9717 55.7996C29.2442 55.8585 28.5167 55.8921 27.7891 55.8921C25.4058 55.8921 23.014 55.5809 20.6975 54.9668C20.6892 54.9668 20.6808 54.9583 20.6725 54.9583C16.0814 53.7385 11.7496 51.3326 8.13689 47.7068C5.26014 44.813 3.15275 41.4648 1.80636 37.8895C0.602139 34.6928 0 31.311 0 27.9292C0 21.031 2.52556 14.1497 7.56823 8.76573C7.75221 8.57224 7.94455 8.37876 8.13689 8.18527C8.32087 7.99179 8.52157 7.80672 8.71391 7.61323C14.066 2.53213 20.9066 0 27.7807 0C28.5166 0 29.2442 0.0336374 29.9801 0.0925243C29.9467 0.117762 29.9132 0.134583 29.8798 0.168233C28.4163 1.2282 27.0197 2.42276 25.6984 3.74351C21.2997 8.16845 18.3477 13.5188 16.8759 19.1635C16.8675 19.1719 16.8675 19.1887 16.8591 19.1971C16.1065 22.0658 15.7385 25.0101 15.7385 27.9545C15.7385 32.0766 16.4744 36.1987 17.9546 40.1104C19.6021 44.5017 22.1945 48.6238 25.6984 52.1486Z" fill="#FF3A29"/>
<path d="M77.5384 50.0703C77.5384 56.9685 75.0129 63.8499 69.9702 69.2338C69.7863 69.4273 69.5939 69.6208 69.4016 69.8143C69.2092 70.0078 69.0169 70.1928 68.8246 70.3863C63.4725 75.4674 56.6402 77.9996 49.7744 77.9996C49.0385 77.9996 48.2942 77.9659 47.5667 77.907C49.0636 76.8302 50.4937 75.6104 51.84 74.2645C56.2304 69.8395 59.1824 64.4976 60.6626 58.8445C60.671 58.8276 60.671 58.8192 60.671 58.8024C60.9553 57.7256 61.1811 56.6404 61.3567 55.5468C61.4738 54.8233 61.5658 54.0915 61.641 53.3596C61.7414 52.2575 61.7999 51.1555 61.7999 50.0535C61.7999 45.923 61.064 41.8009 59.5838 37.8807C58.7559 35.6851 57.6938 33.5651 56.3976 31.5377C55.1098 29.5188 53.5795 27.6091 51.8317 25.8509C50.4853 24.4881 49.0469 23.2767 47.5416 22.1915C47.851 22.1663 48.1688 22.1495 48.4866 22.1327C48.9047 22.1158 49.3229 22.1074 49.741 22.1074C50.3348 22.1074 50.9368 22.1242 51.5389 22.1663C53.3202 22.2841 55.0931 22.5701 56.8409 23.0328C56.8492 23.0328 56.8492 23.0412 56.8659 23.0412C61.457 24.261 65.7889 26.6669 69.4016 30.2927C72.2783 33.1866 74.3774 36.5347 75.7321 40.11C76.9363 43.3067 77.5384 46.6885 77.5384 50.0703Z" fill="#FFB200"/>
</svg>
