<svg width="84" height="84" viewBox="0 0 84 84" fill="none" xmlns="http://www.w3.org/2000/svg">
<path d="M2.89655 0H0V2.89655H2.89655V0Z" fill="#0F0F0F"/>
<path d="M5.7931 0H2.89655V2.89655H5.7931V0Z" fill="#0F0F0F"/>
<path d="M8.68966 0H5.7931V2.89655H8.68966V0Z" fill="#0F0F0F"/>
<path d="M11.5862 0H8.68966V2.89655H11.5862V0Z" fill="#0F0F0F"/>
<path d="M14.4828 0H11.5862V2.89655H14.4828V0Z" fill="#0F0F0F"/>
<path d="M17.3793 0H14.4828V2.89655H17.3793V0Z" fill="#0F0F0F"/>
<path d="M20.2759 0H17.3793V2.89655H20.2759V0Z" fill="#0F0F0F"/>
<path d="M26.069 0H23.1724V2.89655H26.069V0Z" fill="#0F0F0F"/>
<path d="M34.7586 0H31.8621V2.89655H34.7586V0Z" fill="#0F0F0F"/>
<path d="M43.4483 0H40.5517V2.89655H43.4483V0Z" fill="#0F0F0F"/>
<path d="M49.2414 0H46.3448V2.89655H49.2414V0Z" fill="#0F0F0F"/>
<path d="M55.0345 0H52.1379V2.89655H55.0345V0Z" fill="#0F0F0F"/>
<path d="M60.8276 0H57.931V2.89655H60.8276V0Z" fill="#0F0F0F"/>
<path d="M66.6207 0H63.7241V2.89655H66.6207V0Z" fill="#0F0F0F"/>
<path d="M69.5172 0H66.6207V2.89655H69.5172V0Z" fill="#0F0F0F"/>
<path d="M72.4138 0H69.5172V2.89655H72.4138V0Z" fill="#0F0F0F"/>
<path d="M75.3103 0H72.4138V2.89655H75.3103V0Z" fill="#0F0F0F"/>
<path d="M78.2069 0H75.3103V2.89655H78.2069V0Z" fill="#0F0F0F"/>
<path d="M81.1034 0H78.2069V2.89655H81.1034V0Z" fill="#0F0F0F"/>
<path d="M84 0H81.1034V2.89655H84V0Z" fill="#0F0F0F"/>
<path d="M2.89655 2.89655H0V5.7931H2.89655V2.89655Z" fill="#0F0F0F"/>
<path d="M20.2759 2.89655H17.3793V5.7931H20.2759V2.89655Z" fill="#0F0F0F"/>
<path d="M28.9655 2.89655H26.069V5.7931H28.9655V2.89655Z" fill="#0F0F0F"/>
<path d="M31.8621 2.89655H28.9655V5.7931H31.8621V2.89655Z" fill="#0F0F0F"/>
<path d="M40.5517 2.89655H37.6552V5.7931H40.5517V2.89655Z" fill="#0F0F0F"/>
<path d="M43.4483 2.89655H40.5517V5.7931H43.4483V2.89655Z" fill="#0F0F0F"/>
<path d="M49.2414 2.89655H46.3448V5.7931H49.2414V2.89655Z" fill="#0F0F0F"/>
<path d="M55.0345 2.89655H52.1379V5.7931H55.0345V2.89655Z" fill="#0F0F0F"/>
<path d="M60.8276 2.89655H57.931V5.7931H60.8276V2.89655Z" fill="#0F0F0F"/>
<path d="M66.6207 2.89655H63.7241V5.7931H66.6207V2.89655Z" fill="#0F0F0F"/>
<path d="M84 2.89655H81.1034V5.7931H84V2.89655Z" fill="#0F0F0F"/>
<path d="M2.89655 5.7931H0V8.68966H2.89655V5.7931Z" fill="#0F0F0F"/>
<path d="M8.68966 5.7931H5.7931V8.68966H8.68966V5.7931Z" fill="#0F0F0F"/>
<path d="M11.5862 5.7931H8.68966V8.68966H11.5862V5.7931Z" fill="#0F0F0F"/>
<path d="M14.4828 5.7931H11.5862V8.68966H14.4828V5.7931Z" fill="#0F0F0F"/>
<path d="M20.2759 5.7931H17.3793V8.68966H20.2759V5.7931Z" fill="#0F0F0F"/>
<path d="M26.069 5.7931H23.1724V8.68966H26.069V5.7931Z" fill="#0F0F0F"/>
<path d="M31.8621 5.7931H28.9655V8.68966H31.8621V5.7931Z" fill="#0F0F0F"/>
<path d="M34.7586 5.7931H31.8621V8.68966H34.7586V5.7931Z" fill="#0F0F0F"/>
<path d="M40.5517 5.7931H37.6552V8.68966H40.5517V5.7931Z" fill="#0F0F0F"/>
<path d="M52.1379 5.7931H49.2414V8.68966H52.1379V5.7931Z" fill="#0F0F0F"/>
<path d="M57.931 5.7931H55.0345V8.68966H57.931V5.7931Z" fill="#0F0F0F"/>
<path d="M66.6207 5.7931H63.7241V8.68966H66.6207V5.7931Z" fill="#0F0F0F"/>
<path d="M72.4138 5.7931H69.5172V8.68966H72.4138V5.7931Z" fill="#0F0F0F"/>
<path d="M75.3103 5.7931H72.4138V8.68966H75.3103V5.7931Z" fill="#0F0F0F"/>
<path d="M78.2069 5.7931H75.3103V8.68966H78.2069V5.7931Z" fill="#0F0F0F"/>
<path d="M84 5.7931H81.1034V8.68966H84V5.7931Z" fill="#0F0F0F"/>
<path d="M2.89655 8.68966H0V11.5862H2.89655V8.68966Z" fill="#0F0F0F"/>
<path d="M8.68966 8.68966H5.7931V11.5862H8.68966V8.68966Z" fill="#0F0F0F"/>
<path d="M11.5862 8.68966H8.68966V11.5862H11.5862V8.68966Z" fill="#0F0F0F"/>
<path d="M14.4828 8.68966H11.5862V11.5862H14.4828V8.68966Z" fill="#0F0F0F"/>
<path d="M20.2759 8.68966H17.3793V11.5862H20.2759V8.68966Z" fill="#0F0F0F"/>
<path d="M28.9655 8.68966H26.069V11.5862H28.9655V8.68966Z" fill="#0F0F0F"/>
<path d="M31.8621 8.68966H28.9655V11.5862H31.8621V8.68966Z" fill="#0F0F0F"/>
<path d="M34.7586 8.68966H31.8621V11.5862H34.7586V8.68966Z" fill="#0F0F0F"/>
<path d="M37.6552 8.68966H34.7586V11.5862H37.6552V8.68966Z" fill="#0F0F0F"/>
<path d="M40.5517 8.68966H37.6552V11.5862H40.5517V8.68966Z" fill="#0F0F0F"/>
<path d="M46.3448 8.68966H43.4483V11.5862H46.3448V8.68966Z" fill="#0F0F0F"/>
<path d="M60.8276 8.68966H57.931V11.5862H60.8276V8.68966Z" fill="#0F0F0F"/>
<path d="M66.6207 8.68966H63.7241V11.5862H66.6207V8.68966Z" fill="#0F0F0F"/>
<path d="M72.4138 8.68966H69.5172V11.5862H72.4138V8.68966Z" fill="#0F0F0F"/>
<path d="M75.3103 8.68966H72.4138V11.5862H75.3103V8.68966Z" fill="#0F0F0F"/>
<path d="M78.2069 8.68966H75.3103V11.5862H78.2069V8.68966Z" fill="#0F0F0F"/>
<path d="M84 8.68966H81.1034V11.5862H84V8.68966Z" fill="#0F0F0F"/>
<path d="M2.89655 11.5862H0V14.4828H2.89655V11.5862Z" fill="#0F0F0F"/>
<path d="M8.68966 11.5862H5.7931V14.4828H8.68966V11.5862Z" fill="#0F0F0F"/>
<path d="M11.5862 11.5862H8.68966V14.4828H11.5862V11.5862Z" fill="#0F0F0F"/>
<path d="M14.4828 11.5862H11.5862V14.4828H14.4828V11.5862Z" fill="#0F0F0F"/>
<path d="M20.2759 11.5862H17.3793V14.4828H20.2759V11.5862Z" fill="#0F0F0F"/>
<path d="M31.8621 11.5862H28.9655V14.4828H31.8621V11.5862Z" fill="#0F0F0F"/>
<path d="M34.7586 11.5862H31.8621V14.4828H34.7586V11.5862Z" fill="#0F0F0F"/>
<path d="M37.6552 11.5862H34.7586V14.4828H37.6552V11.5862Z" fill="#0F0F0F"/>
<path d="M43.4483 11.5862H40.5517V14.4828H43.4483V11.5862Z" fill="#0F0F0F"/>
<path d="M49.2414 11.5862H46.3448V14.4828H49.2414V11.5862Z" fill="#0F0F0F"/>
<path d="M60.8276 11.5862H57.931V14.4828H60.8276V11.5862Z" fill="#0F0F0F"/>
<path d="M66.6207 11.5862H63.7241V14.4828H66.6207V11.5862Z" fill="#0F0F0F"/>
<path d="M72.4138 11.5862H69.5172V14.4828H72.4138V11.5862Z" fill="#0F0F0F"/>
<path d="M75.3103 11.5862H72.4138V14.4828H75.3103V11.5862Z" fill="#0F0F0F"/>
<path d="M78.2069 11.5862H75.3103V14.4828H78.2069V11.5862Z" fill="#0F0F0F"/>
<path d="M84 11.5862H81.1034V14.4828H84V11.5862Z" fill="#0F0F0F"/>
<path d="M2.89655 14.4828H0V17.3793H2.89655V14.4828Z" fill="#0F0F0F"/>
<path d="M20.2759 14.4828H17.3793V17.3793H20.2759V14.4828Z" fill="#0F0F0F"/>
<path d="M28.9655 14.4828H26.069V17.3793H28.9655V14.4828Z" fill="#0F0F0F"/>
<path d="M31.8621 14.4828H28.9655V17.3793H31.8621V14.4828Z" fill="#0F0F0F"/>
<path d="M40.5517 14.4828H37.6552V17.3793H40.5517V14.4828Z" fill="#0F0F0F"/>
<path d="M46.3448 14.4828H43.4483V17.3793H46.3448V14.4828Z" fill="#0F0F0F"/>
<path d="M52.1379 14.4828H49.2414V17.3793H52.1379V14.4828Z" fill="#0F0F0F"/>
<path d="M60.8276 14.4828H57.931V17.3793H60.8276V14.4828Z" fill="#0F0F0F"/>
<path d="M66.6207 14.4828H63.7241V17.3793H66.6207V14.4828Z" fill="#0F0F0F"/>
<path d="M84 14.4828H81.1034V17.3793H84V14.4828Z" fill="#0F0F0F"/>
<path d="M2.89655 17.3793H0V20.2759H2.89655V17.3793Z" fill="#0F0F0F"/>
<path d="M5.7931 17.3793H2.89655V20.2759H5.7931V17.3793Z" fill="#0F0F0F"/>
<path d="M8.68966 17.3793H5.7931V20.2759H8.68966V17.3793Z" fill="#0F0F0F"/>
<path d="M11.5862 17.3793H8.68966V20.2759H11.5862V17.3793Z" fill="#0F0F0F"/>
<path d="M14.4828 17.3793H11.5862V20.2759H14.4828V17.3793Z" fill="#0F0F0F"/>
<path d="M17.3793 17.3793H14.4828V20.2759H17.3793V17.3793Z" fill="#0F0F0F"/>
<path d="M20.2759 17.3793H17.3793V20.2759H20.2759V17.3793Z" fill="#0F0F0F"/>
<path d="M26.069 17.3793H23.1724V20.2759H26.069V17.3793Z" fill="#0F0F0F"/>
<path d="M31.8621 17.3793H28.9655V20.2759H31.8621V17.3793Z" fill="#0F0F0F"/>
<path d="M37.6552 17.3793H34.7586V20.2759H37.6552V17.3793Z" fill="#0F0F0F"/>
<path d="M43.4483 17.3793H40.5517V20.2759H43.4483V17.3793Z" fill="#0F0F0F"/>
<path d="M49.2414 17.3793H46.3448V20.2759H49.2414V17.3793Z" fill="#0F0F0F"/>
<path d="M55.0345 17.3793H52.1379V20.2759H55.0345V17.3793Z" fill="#0F0F0F"/>
<path d="M60.8276 17.3793H57.931V20.2759H60.8276V17.3793Z" fill="#0F0F0F"/>
<path d="M66.6207 17.3793H63.7241V20.2759H66.6207V17.3793Z" fill="#0F0F0F"/>
<path d="M69.5172 17.3793H66.6207V20.2759H69.5172V17.3793Z" fill="#0F0F0F"/>
<path d="M72.4138 17.3793H69.5172V20.2759H72.4138V17.3793Z" fill="#0F0F0F"/>
<path d="M75.3103 17.3793H72.4138V20.2759H75.3103V17.3793Z" fill="#0F0F0F"/>
<path d="M78.2069 17.3793H75.3103V20.2759H78.2069V17.3793Z" fill="#0F0F0F"/>
<path d="M81.1034 17.3793H78.2069V20.2759H81.1034V17.3793Z" fill="#0F0F0F"/>
<path d="M84 17.3793H81.1034V20.2759H84V17.3793Z" fill="#0F0F0F"/>
<path d="M26.069 20.2759H23.1724V23.1724H26.069V20.2759Z" fill="#0F0F0F"/>
<path d="M28.9655 20.2759H26.069V23.1724H28.9655V20.2759Z" fill="#0F0F0F"/>
<path d="M31.8621 20.2759H28.9655V23.1724H31.8621V20.2759Z" fill="#0F0F0F"/>
<path d="M37.6552 20.2759H34.7586V23.1724H37.6552V20.2759Z" fill="#0F0F0F"/>
<path d="M40.5517 20.2759H37.6552V23.1724H40.5517V20.2759Z" fill="#0F0F0F"/>
<path d="M46.3448 20.2759H43.4483V23.1724H46.3448V20.2759Z" fill="#0F0F0F"/>
<path d="M49.2414 20.2759H46.3448V23.1724H49.2414V20.2759Z" fill="#0F0F0F"/>
<path d="M2.89655 23.1724H0V26.069H2.89655V23.1724Z" fill="#0F0F0F"/>
<path d="M8.68966 23.1724H5.7931V26.069H8.68966V23.1724Z" fill="#0F0F0F"/>
<path d="M17.3793 23.1724H14.4828V26.069H17.3793V23.1724Z" fill="#0F0F0F"/>
<path d="M20.2759 23.1724H17.3793V26.069H20.2759V23.1724Z" fill="#0F0F0F"/>
<path d="M28.9655 23.1724H26.069V26.069H28.9655V23.1724Z" fill="#0F0F0F"/>
<path d="M31.8621 23.1724H28.9655V26.069H31.8621V23.1724Z" fill="#0F0F0F"/>
<path d="M34.7586 23.1724H31.8621V26.069H34.7586V23.1724Z" fill="#0F0F0F"/>
<path d="M40.5517 23.1724H37.6552V26.069H40.5517V23.1724Z" fill="#0F0F0F"/>
<path d="M43.4483 23.1724H40.5517V26.069H43.4483V23.1724Z" fill="#0F0F0F"/>
<path d="M52.1379 23.1724H49.2414V26.069H52.1379V23.1724Z" fill="#0F0F0F"/>
<path d="M55.0345 23.1724H52.1379V26.069H55.0345V23.1724Z" fill="#0F0F0F"/>
<path d="M63.7241 23.1724H60.8276V26.069H63.7241V23.1724Z" fill="#0F0F0F"/>
<path d="M66.6207 23.1724H63.7241V26.069H66.6207V23.1724Z" fill="#0F0F0F"/>
<path d="M78.2069 23.1724H75.3103V26.069H78.2069V23.1724Z" fill="#0F0F0F"/>
<path d="M84 23.1724H81.1034V26.069H84V23.1724Z" fill="#0F0F0F"/>
<path d="M14.4828 26.069H11.5862V28.9655H14.4828V26.069Z" fill="#0F0F0F"/>
<path d="M23.1724 26.069H20.2759V28.9655H23.1724V26.069Z" fill="#0F0F0F"/>
<path d="M26.069 26.069H23.1724V28.9655H26.069V26.069Z" fill="#0F0F0F"/>
<path d="M37.6552 26.069H34.7586V28.9655H37.6552V26.069Z" fill="#0F0F0F"/>
<path d="M40.5517 26.069H37.6552V28.9655H40.5517V26.069Z" fill="#0F0F0F"/>
<path d="M43.4483 26.069H40.5517V28.9655H43.4483V26.069Z" fill="#0F0F0F"/>
<path d="M46.3448 26.069H43.4483V28.9655H46.3448V26.069Z" fill="#0F0F0F"/>
<path d="M57.931 26.069H55.0345V28.9655H57.931V26.069Z" fill="#0F0F0F"/>
<path d="M60.8276 26.069H57.931V28.9655H60.8276V26.069Z" fill="#0F0F0F"/>
<path d="M69.5172 26.069H66.6207V28.9655H69.5172V26.069Z" fill="#0F0F0F"/>
<path d="M75.3103 26.069H72.4138V28.9655H75.3103V26.069Z" fill="#0F0F0F"/>
<path d="M11.5862 28.9655H8.68966V31.8621H11.5862V28.9655Z" fill="#0F0F0F"/>
<path d="M14.4828 28.9655H11.5862V31.8621H14.4828V28.9655Z" fill="#0F0F0F"/>
<path d="M17.3793 28.9655H14.4828V31.8621H17.3793V28.9655Z" fill="#0F0F0F"/>
<path d="M20.2759 28.9655H17.3793V31.8621H20.2759V28.9655Z" fill="#0F0F0F"/>
<path d="M26.069 28.9655H23.1724V31.8621H26.069V28.9655Z" fill="#0F0F0F"/>
<path d="M28.9655 28.9655H26.069V31.8621H28.9655V28.9655Z" fill="#0F0F0F"/>
<path d="M40.5517 28.9655H37.6552V31.8621H40.5517V28.9655Z" fill="#0F0F0F"/>
<path d="M46.3448 28.9655H43.4483V31.8621H46.3448V28.9655Z" fill="#0F0F0F"/>
<path d="M52.1379 28.9655H49.2414V31.8621H52.1379V28.9655Z" fill="#0F0F0F"/>
<path d="M55.0345 28.9655H52.1379V31.8621H55.0345V28.9655Z" fill="#0F0F0F"/>
<path d="M57.931 28.9655H55.0345V31.8621H57.931V28.9655Z" fill="#0F0F0F"/>
<path d="M60.8276 28.9655H57.931V31.8621H60.8276V28.9655Z" fill="#0F0F0F"/>
<path d="M63.7241 28.9655H60.8276V31.8621H63.7241V28.9655Z" fill="#0F0F0F"/>
<path d="M75.3103 28.9655H72.4138V31.8621H75.3103V28.9655Z" fill="#0F0F0F"/>
<path d="M81.1034 28.9655H78.2069V31.8621H81.1034V28.9655Z" fill="#0F0F0F"/>
<path d="M84 28.9655H81.1034V31.8621H84V28.9655Z" fill="#0F0F0F"/>
<path d="M5.7931 31.8621H2.89655V34.7586H5.7931V31.8621Z" fill="#0F0F0F"/>
<path d="M11.5862 31.8621H8.68966V34.7586H11.5862V31.8621Z" fill="#0F0F0F"/>
<path d="M14.4828 31.8621H11.5862V34.7586H14.4828V31.8621Z" fill="#0F0F0F"/>
<path d="M23.1724 31.8621H20.2759V34.7586H23.1724V31.8621Z" fill="#0F0F0F"/>
<path d="M26.069 31.8621H23.1724V34.7586H26.069V31.8621Z" fill="#0F0F0F"/>
<path d="M31.8621 31.8621H28.9655V34.7586H31.8621V31.8621Z" fill="#0F0F0F"/>
<path d="M43.4483 31.8621H40.5517V34.7586H43.4483V31.8621Z" fill="#0F0F0F"/>
<path d="M46.3448 31.8621H43.4483V34.7586H46.3448V31.8621Z" fill="#0F0F0F"/>
<path d="M49.2414 31.8621H46.3448V34.7586H49.2414V31.8621Z" fill="#0F0F0F"/>
<path d="M52.1379 31.8621H49.2414V34.7586H52.1379V31.8621Z" fill="#0F0F0F"/>
<path d="M55.0345 31.8621H52.1379V34.7586H55.0345V31.8621Z" fill="#0F0F0F"/>
<path d="M66.6207 31.8621H63.7241V34.7586H66.6207V31.8621Z" fill="#0F0F0F"/>
<path d="M78.2069 31.8621H75.3103V34.7586H78.2069V31.8621Z" fill="#0F0F0F"/>
<path d="M81.1034 31.8621H78.2069V34.7586H81.1034V31.8621Z" fill="#0F0F0F"/>
<path d="M2.89655 34.7586H0V37.6552H2.89655V34.7586Z" fill="#0F0F0F"/>
<path d="M5.7931 34.7586H2.89655V37.6552H5.7931V34.7586Z" fill="#0F0F0F"/>
<path d="M8.68966 34.7586H5.7931V37.6552H8.68966V34.7586Z" fill="#0F0F0F"/>
<path d="M17.3793 34.7586H14.4828V37.6552H17.3793V34.7586Z" fill="#0F0F0F"/>
<path d="M20.2759 34.7586H17.3793V37.6552H20.2759V34.7586Z" fill="#0F0F0F"/>
<path d="M28.9655 34.7586H26.069V37.6552H28.9655V34.7586Z" fill="#0F0F0F"/>
<path d="M34.7586 34.7586H31.8621V37.6552H34.7586V34.7586Z" fill="#0F0F0F"/>
<path d="M37.6552 34.7586H34.7586V37.6552H37.6552V34.7586Z" fill="#0F0F0F"/>
<path d="M43.4483 34.7586H40.5517V37.6552H43.4483V34.7586Z" fill="#0F0F0F"/>
<path d="M63.7241 34.7586H60.8276V37.6552H63.7241V34.7586Z" fill="#0F0F0F"/>
<path d="M66.6207 34.7586H63.7241V37.6552H66.6207V34.7586Z" fill="#0F0F0F"/>
<path d="M75.3103 34.7586H72.4138V37.6552H75.3103V34.7586Z" fill="#0F0F0F"/>
<path d="M81.1034 34.7586H78.2069V37.6552H81.1034V34.7586Z" fill="#0F0F0F"/>
<path d="M84 34.7586H81.1034V37.6552H84V34.7586Z" fill="#0F0F0F"/>
<path d="M5.7931 37.6552H2.89655V40.5517H5.7931V37.6552Z" fill="#0F0F0F"/>
<path d="M14.4828 37.6552H11.5862V40.5517H14.4828V37.6552Z" fill="#0F0F0F"/>
<path d="M26.069 37.6552H23.1724V40.5517H26.069V37.6552Z" fill="#0F0F0F"/>
<path d="M28.9655 37.6552H26.069V40.5517H28.9655V37.6552Z" fill="#0F0F0F"/>
<path d="M34.7586 37.6552H31.8621V40.5517H34.7586V37.6552Z" fill="#0F0F0F"/>
<path d="M37.6552 37.6552H34.7586V40.5517H37.6552V37.6552Z" fill="#0F0F0F"/>
<path d="M43.4483 37.6552H40.5517V40.5517H43.4483V37.6552Z" fill="#0F0F0F"/>
<path d="M49.2414 37.6552H46.3448V40.5517H49.2414V37.6552Z" fill="#0F0F0F"/>
<path d="M52.1379 37.6552H49.2414V40.5517H52.1379V37.6552Z" fill="#0F0F0F"/>
<path d="M57.931 37.6552H55.0345V40.5517H57.931V37.6552Z" fill="#0F0F0F"/>
<path d="M60.8276 37.6552H57.931V40.5517H60.8276V37.6552Z" fill="#0F0F0F"/>
<path d="M66.6207 37.6552H63.7241V40.5517H66.6207V37.6552Z" fill="#0F0F0F"/>
<path d="M72.4138 37.6552H69.5172V40.5517H72.4138V37.6552Z" fill="#0F0F0F"/>
<path d="M81.1034 37.6552H78.2069V40.5517H81.1034V37.6552Z" fill="#0F0F0F"/>
<path d="M84 37.6552H81.1034V40.5517H84V37.6552Z" fill="#0F0F0F"/>
<path d="M5.7931 40.5517H2.89655V43.4483H5.7931V40.5517Z" fill="#0F0F0F"/>
<path d="M8.68966 40.5517H5.7931V43.4483H8.68966V40.5517Z" fill="#0F0F0F"/>
<path d="M11.5862 40.5517H8.68966V43.4483H11.5862V40.5517Z" fill="#0F0F0F"/>
<path d="M14.4828 40.5517H11.5862V43.4483H14.4828V40.5517Z" fill="#0F0F0F"/>
<path d="M20.2759 40.5517H17.3793V43.4483H20.2759V40.5517Z" fill="#0F0F0F"/>
<path d="M23.1724 40.5517H20.2759V43.4483H23.1724V40.5517Z" fill="#0F0F0F"/>
<path d="M26.069 40.5517H23.1724V43.4483H26.069V40.5517Z" fill="#0F0F0F"/>
<path d="M28.9655 40.5517H26.069V43.4483H28.9655V40.5517Z" fill="#0F0F0F"/>
<path d="M43.4483 40.5517H40.5517V43.4483H43.4483V40.5517Z" fill="#0F0F0F"/>
<path d="M46.3448 40.5517H43.4483V43.4483H46.3448V40.5517Z" fill="#0F0F0F"/>
<path d="M49.2414 40.5517H46.3448V43.4483H49.2414V40.5517Z" fill="#0F0F0F"/>
<path d="M52.1379 40.5517H49.2414V43.4483H52.1379V40.5517Z" fill="#0F0F0F"/>
<path d="M66.6207 40.5517H63.7241V43.4483H66.6207V40.5517Z" fill="#0F0F0F"/>
<path d="M69.5172 40.5517H66.6207V43.4483H69.5172V40.5517Z" fill="#0F0F0F"/>
<path d="M72.4138 40.5517H69.5172V43.4483H72.4138V40.5517Z" fill="#0F0F0F"/>
<path d="M75.3103 40.5517H72.4138V43.4483H75.3103V40.5517Z" fill="#0F0F0F"/>
<path d="M81.1034 40.5517H78.2069V43.4483H81.1034V40.5517Z" fill="#0F0F0F"/>
<path d="M84 40.5517H81.1034V43.4483H84V40.5517Z" fill="#0F0F0F"/>
<path d="M2.89655 43.4483H0V46.3448H2.89655V43.4483Z" fill="#0F0F0F"/>
<path d="M8.68966 43.4483H5.7931V46.3448H8.68966V43.4483Z" fill="#0F0F0F"/>
<path d="M14.4828 43.4483H11.5862V46.3448H14.4828V43.4483Z" fill="#0F0F0F"/>
<path d="M17.3793 43.4483H14.4828V46.3448H17.3793V43.4483Z" fill="#0F0F0F"/>
<path d="M23.1724 43.4483H20.2759V46.3448H23.1724V43.4483Z" fill="#0F0F0F"/>
<path d="M31.8621 43.4483H28.9655V46.3448H31.8621V43.4483Z" fill="#0F0F0F"/>
<path d="M37.6552 43.4483H34.7586V46.3448H37.6552V43.4483Z" fill="#0F0F0F"/>
<path d="M46.3448 43.4483H43.4483V46.3448H46.3448V43.4483Z" fill="#0F0F0F"/>
<path d="M55.0345 43.4483H52.1379V46.3448H55.0345V43.4483Z" fill="#0F0F0F"/>
<path d="M60.8276 43.4483H57.931V46.3448H60.8276V43.4483Z" fill="#0F0F0F"/>
<path d="M69.5172 43.4483H66.6207V46.3448H69.5172V43.4483Z" fill="#0F0F0F"/>
<path d="M78.2069 43.4483H75.3103V46.3448H78.2069V43.4483Z" fill="#0F0F0F"/>
<path d="M84 43.4483H81.1034V46.3448H84V43.4483Z" fill="#0F0F0F"/>
<path d="M2.89655 46.3448H0V49.2414H2.89655V46.3448Z" fill="#0F0F0F"/>
<path d="M5.7931 46.3448H2.89655V49.2414H5.7931V46.3448Z" fill="#0F0F0F"/>
<path d="M8.68966 46.3448H5.7931V49.2414H8.68966V46.3448Z" fill="#0F0F0F"/>
<path d="M20.2759 46.3448H17.3793V49.2414H20.2759V46.3448Z" fill="#0F0F0F"/>
<path d="M23.1724 46.3448H20.2759V49.2414H23.1724V46.3448Z" fill="#0F0F0F"/>
<path d="M37.6552 46.3448H34.7586V49.2414H37.6552V46.3448Z" fill="#0F0F0F"/>
<path d="M40.5517 46.3448H37.6552V49.2414H40.5517V46.3448Z" fill="#0F0F0F"/>
<path d="M43.4483 46.3448H40.5517V49.2414H43.4483V46.3448Z" fill="#0F0F0F"/>
<path d="M46.3448 46.3448H43.4483V49.2414H46.3448V46.3448Z" fill="#0F0F0F"/>
<path d="M60.8276 46.3448H57.931V49.2414H60.8276V46.3448Z" fill="#0F0F0F"/>
<path d="M63.7241 46.3448H60.8276V49.2414H63.7241V46.3448Z" fill="#0F0F0F"/>
<path d="M66.6207 46.3448H63.7241V49.2414H66.6207V46.3448Z" fill="#0F0F0F"/>
<path d="M69.5172 46.3448H66.6207V49.2414H69.5172V46.3448Z" fill="#0F0F0F"/>
<path d="M72.4138 46.3448H69.5172V49.2414H72.4138V46.3448Z" fill="#0F0F0F"/>
<path d="M78.2069 46.3448H75.3103V49.2414H78.2069V46.3448Z" fill="#0F0F0F"/>
<path d="M2.89655 49.2414H0V52.1379H2.89655V49.2414Z" fill="#0F0F0F"/>
<path d="M11.5862 49.2414H8.68966V52.1379H11.5862V49.2414Z" fill="#0F0F0F"/>
<path d="M17.3793 49.2414H14.4828V52.1379H17.3793V49.2414Z" fill="#0F0F0F"/>
<path d="M23.1724 49.2414H20.2759V52.1379H23.1724V49.2414Z" fill="#0F0F0F"/>
<path d="M26.069 49.2414H23.1724V52.1379H26.069V49.2414Z" fill="#0F0F0F"/>
<path d="M31.8621 49.2414H28.9655V52.1379H31.8621V49.2414Z" fill="#0F0F0F"/>
<path d="M34.7586 49.2414H31.8621V52.1379H34.7586V49.2414Z" fill="#0F0F0F"/>
<path d="M37.6552 49.2414H34.7586V52.1379H37.6552V49.2414Z" fill="#0F0F0F"/>
<path d="M40.5517 49.2414H37.6552V52.1379H40.5517V49.2414Z" fill="#0F0F0F"/>
<path d="M43.4483 49.2414H40.5517V52.1379H43.4483V49.2414Z" fill="#0F0F0F"/>
<path d="M46.3448 49.2414H43.4483V52.1379H46.3448V49.2414Z" fill="#0F0F0F"/>
<path d="M49.2414 49.2414H46.3448V52.1379H49.2414V49.2414Z" fill="#0F0F0F"/>
<path d="M55.0345 49.2414H52.1379V52.1379H55.0345V49.2414Z" fill="#0F0F0F"/>
<path d="M57.931 49.2414H55.0345V52.1379H57.931V49.2414Z" fill="#0F0F0F"/>
<path d="M63.7241 49.2414H60.8276V52.1379H63.7241V49.2414Z" fill="#0F0F0F"/>
<path d="M69.5172 49.2414H66.6207V52.1379H69.5172V49.2414Z" fill="#0F0F0F"/>
<path d="M72.4138 49.2414H69.5172V52.1379H72.4138V49.2414Z" fill="#0F0F0F"/>
<path d="M78.2069 49.2414H75.3103V52.1379H78.2069V49.2414Z" fill="#0F0F0F"/>
<path d="M81.1034 49.2414H78.2069V52.1379H81.1034V49.2414Z" fill="#0F0F0F"/>
<path d="M8.68966 52.1379H5.7931V55.0345H8.68966V52.1379Z" fill="#0F0F0F"/>
<path d="M20.2759 52.1379H17.3793V55.0345H20.2759V52.1379Z" fill="#0F0F0F"/>
<path d="M23.1724 52.1379H20.2759V55.0345H23.1724V52.1379Z" fill="#0F0F0F"/>
<path d="M28.9655 52.1379H26.069V55.0345H28.9655V52.1379Z" fill="#0F0F0F"/>
<path d="M31.8621 52.1379H28.9655V55.0345H31.8621V52.1379Z" fill="#0F0F0F"/>
<path d="M34.7586 52.1379H31.8621V55.0345H34.7586V52.1379Z" fill="#0F0F0F"/>
<path d="M37.6552 52.1379H34.7586V55.0345H37.6552V52.1379Z" fill="#0F0F0F"/>
<path d="M52.1379 52.1379H49.2414V55.0345H52.1379V52.1379Z" fill="#0F0F0F"/>
<path d="M55.0345 52.1379H52.1379V55.0345H55.0345V52.1379Z" fill="#0F0F0F"/>
<path d="M60.8276 52.1379H57.931V55.0345H60.8276V52.1379Z" fill="#0F0F0F"/>
<path d="M63.7241 52.1379H60.8276V55.0345H63.7241V52.1379Z" fill="#0F0F0F"/>
<path d="M66.6207 52.1379H63.7241V55.0345H66.6207V52.1379Z" fill="#0F0F0F"/>
<path d="M75.3103 52.1379H72.4138V55.0345H75.3103V52.1379Z" fill="#0F0F0F"/>
<path d="M78.2069 52.1379H75.3103V55.0345H78.2069V52.1379Z" fill="#0F0F0F"/>
<path d="M84 52.1379H81.1034V55.0345H84V52.1379Z" fill="#0F0F0F"/>
<path d="M2.89655 55.0345H0V57.931H2.89655V55.0345Z" fill="#0F0F0F"/>
<path d="M5.7931 55.0345H2.89655V57.931H5.7931V55.0345Z" fill="#0F0F0F"/>
<path d="M8.68966 55.0345H5.7931V57.931H8.68966V55.0345Z" fill="#0F0F0F"/>
<path d="M17.3793 55.0345H14.4828V57.931H17.3793V55.0345Z" fill="#0F0F0F"/>
<path d="M26.069 55.0345H23.1724V57.931H26.069V55.0345Z" fill="#0F0F0F"/>
<path d="M49.2414 55.0345H46.3448V57.931H49.2414V55.0345Z" fill="#0F0F0F"/>
<path d="M57.931 55.0345H55.0345V57.931H57.931V55.0345Z" fill="#0F0F0F"/>
<path d="M63.7241 55.0345H60.8276V57.931H63.7241V55.0345Z" fill="#0F0F0F"/>
<path d="M78.2069 55.0345H75.3103V57.931H78.2069V55.0345Z" fill="#0F0F0F"/>
<path d="M81.1034 55.0345H78.2069V57.931H81.1034V55.0345Z" fill="#0F0F0F"/>
<path d="M5.7931 57.931H2.89655V60.8276H5.7931V57.931Z" fill="#0F0F0F"/>
<path d="M11.5862 57.931H8.68966V60.8276H11.5862V57.931Z" fill="#0F0F0F"/>
<path d="M14.4828 57.931H11.5862V60.8276H14.4828V57.931Z" fill="#0F0F0F"/>
<path d="M20.2759 57.931H17.3793V60.8276H20.2759V57.931Z" fill="#0F0F0F"/>
<path d="M28.9655 57.931H26.069V60.8276H28.9655V57.931Z" fill="#0F0F0F"/>
<path d="M31.8621 57.931H28.9655V60.8276H31.8621V57.931Z" fill="#0F0F0F"/>
<path d="M37.6552 57.931H34.7586V60.8276H37.6552V57.931Z" fill="#0F0F0F"/>
<path d="M52.1379 57.931H49.2414V60.8276H52.1379V57.931Z" fill="#0F0F0F"/>
<path d="M55.0345 57.931H52.1379V60.8276H55.0345V57.931Z" fill="#0F0F0F"/>
<path d="M57.931 57.931H55.0345V60.8276H57.931V57.931Z" fill="#0F0F0F"/>
<path d="M60.8276 57.931H57.931V60.8276H60.8276V57.931Z" fill="#0F0F0F"/>
<path d="M63.7241 57.931H60.8276V60.8276H63.7241V57.931Z" fill="#0F0F0F"/>
<path d="M66.6207 57.931H63.7241V60.8276H66.6207V57.931Z" fill="#0F0F0F"/>
<path d="M69.5172 57.931H66.6207V60.8276H69.5172V57.931Z" fill="#0F0F0F"/>
<path d="M72.4138 57.931H69.5172V60.8276H72.4138V57.931Z" fill="#0F0F0F"/>
<path d="M78.2069 57.931H75.3103V60.8276H78.2069V57.931Z" fill="#0F0F0F"/>
<path d="M31.8621 60.8276H28.9655V63.7241H31.8621V60.8276Z" fill="#0F0F0F"/>
<path d="M34.7586 60.8276H31.8621V63.7241H34.7586V60.8276Z" fill="#0F0F0F"/>
<path d="M37.6552 60.8276H34.7586V63.7241H37.6552V60.8276Z" fill="#0F0F0F"/>
<path d="M43.4483 60.8276H40.5517V63.7241H43.4483V60.8276Z" fill="#0F0F0F"/>
<path d="M52.1379 60.8276H49.2414V63.7241H52.1379V60.8276Z" fill="#0F0F0F"/>
<path d="M55.0345 60.8276H52.1379V63.7241H55.0345V60.8276Z" fill="#0F0F0F"/>
<path d="M60.8276 60.8276H57.931V63.7241H60.8276V60.8276Z" fill="#0F0F0F"/>
<path d="M72.4138 60.8276H69.5172V63.7241H72.4138V60.8276Z" fill="#0F0F0F"/>
<path d="M84 60.8276H81.1034V63.7241H84V60.8276Z" fill="#0F0F0F"/>
<path d="M2.89655 63.7241H0V66.6207H2.89655V63.7241Z" fill="#0F0F0F"/>
<path d="M5.7931 63.7241H2.89655V66.6207H5.7931V63.7241Z" fill="#0F0F0F"/>
<path d="M8.68966 63.7241H5.7931V66.6207H8.68966V63.7241Z" fill="#0F0F0F"/>
<path d="M11.5862 63.7241H8.68966V66.6207H11.5862V63.7241Z" fill="#0F0F0F"/>
<path d="M14.4828 63.7241H11.5862V66.6207H14.4828V63.7241Z" fill="#0F0F0F"/>
<path d="M17.3793 63.7241H14.4828V66.6207H17.3793V63.7241Z" fill="#0F0F0F"/>
<path d="M20.2759 63.7241H17.3793V66.6207H20.2759V63.7241Z" fill="#0F0F0F"/>
<path d="M31.8621 63.7241H28.9655V66.6207H31.8621V63.7241Z" fill="#0F0F0F"/>
<path d="M37.6552 63.7241H34.7586V66.6207H37.6552V63.7241Z" fill="#0F0F0F"/>
<path d="M40.5517 63.7241H37.6552V66.6207H40.5517V63.7241Z" fill="#0F0F0F"/>
<path d="M43.4483 63.7241H40.5517V66.6207H43.4483V63.7241Z" fill="#0F0F0F"/>
<path d="M55.0345 63.7241H52.1379V66.6207H55.0345V63.7241Z" fill="#0F0F0F"/>
<path d="M60.8276 63.7241H57.931V66.6207H60.8276V63.7241Z" fill="#0F0F0F"/>
<path d="M66.6207 63.7241H63.7241V66.6207H66.6207V63.7241Z" fill="#0F0F0F"/>
<path d="M72.4138 63.7241H69.5172V66.6207H72.4138V63.7241Z" fill="#0F0F0F"/>
<path d="M75.3103 63.7241H72.4138V66.6207H75.3103V63.7241Z" fill="#0F0F0F"/>
<path d="M81.1034 63.7241H78.2069V66.6207H81.1034V63.7241Z" fill="#0F0F0F"/>
<path d="M2.89655 66.6207H0V69.5172H2.89655V66.6207Z" fill="#0F0F0F"/>
<path d="M20.2759 66.6207H17.3793V69.5172H20.2759V66.6207Z" fill="#0F0F0F"/>
<path d="M26.069 66.6207H23.1724V69.5172H26.069V66.6207Z" fill="#0F0F0F"/>
<path d="M40.5517 66.6207H37.6552V69.5172H40.5517V66.6207Z" fill="#0F0F0F"/>
<path d="M46.3448 66.6207H43.4483V69.5172H46.3448V66.6207Z" fill="#0F0F0F"/>
<path d="M55.0345 66.6207H52.1379V69.5172H55.0345V66.6207Z" fill="#0F0F0F"/>
<path d="M60.8276 66.6207H57.931V69.5172H60.8276V66.6207Z" fill="#0F0F0F"/>
<path d="M72.4138 66.6207H69.5172V69.5172H72.4138V66.6207Z" fill="#0F0F0F"/>
<path d="M75.3103 66.6207H72.4138V69.5172H75.3103V66.6207Z" fill="#0F0F0F"/>
<path d="M84 66.6207H81.1034V69.5172H84V66.6207Z" fill="#0F0F0F"/>
<path d="M2.89655 69.5172H0V72.4138H2.89655V69.5172Z" fill="#0F0F0F"/>
<path d="M8.68966 69.5172H5.7931V72.4138H8.68966V69.5172Z" fill="#0F0F0F"/>
<path d="M11.5862 69.5172H8.68966V72.4138H11.5862V69.5172Z" fill="#0F0F0F"/>
<path d="M14.4828 69.5172H11.5862V72.4138H14.4828V69.5172Z" fill="#0F0F0F"/>
<path d="M20.2759 69.5172H17.3793V72.4138H20.2759V69.5172Z" fill="#0F0F0F"/>
<path d="M28.9655 69.5172H26.069V72.4138H28.9655V69.5172Z" fill="#0F0F0F"/>
<path d="M31.8621 69.5172H28.9655V72.4138H31.8621V69.5172Z" fill="#0F0F0F"/>
<path d="M37.6552 69.5172H34.7586V72.4138H37.6552V69.5172Z" fill="#0F0F0F"/>
<path d="M40.5517 69.5172H37.6552V72.4138H40.5517V69.5172Z" fill="#0F0F0F"/>
<path d="M43.4483 69.5172H40.5517V72.4138H43.4483V69.5172Z" fill="#0F0F0F"/>
<path d="M52.1379 69.5172H49.2414V72.4138H52.1379V69.5172Z" fill="#0F0F0F"/>
<path d="M55.0345 69.5172H52.1379V72.4138H55.0345V69.5172Z" fill="#0F0F0F"/>
<path d="M60.8276 69.5172H57.931V72.4138H60.8276V69.5172Z" fill="#0F0F0F"/>
<path d="M63.7241 69.5172H60.8276V72.4138H63.7241V69.5172Z" fill="#0F0F0F"/>
<path d="M66.6207 69.5172H63.7241V72.4138H66.6207V69.5172Z" fill="#0F0F0F"/>
<path d="M69.5172 69.5172H66.6207V72.4138H69.5172V69.5172Z" fill="#0F0F0F"/>
<path d="M72.4138 69.5172H69.5172V72.4138H72.4138V69.5172Z" fill="#0F0F0F"/>
<path d="M84 69.5172H81.1034V72.4138H84V69.5172Z" fill="#0F0F0F"/>
<path d="M2.89655 72.4138H0V75.3103H2.89655V72.4138Z" fill="#0F0F0F"/>
<path d="M8.68966 72.4138H5.7931V75.3103H8.68966V72.4138Z" fill="#0F0F0F"/>
<path d="M11.5862 72.4138H8.68966V75.3103H11.5862V72.4138Z" fill="#0F0F0F"/>
<path d="M14.4828 72.4138H11.5862V75.3103H14.4828V72.4138Z" fill="#0F0F0F"/>
<path d="M20.2759 72.4138H17.3793V75.3103H20.2759V72.4138Z" fill="#0F0F0F"/>
<path d="M31.8621 72.4138H28.9655V75.3103H31.8621V72.4138Z" fill="#0F0F0F"/>
<path d="M43.4483 72.4138H40.5517V75.3103H43.4483V72.4138Z" fill="#0F0F0F"/>
<path d="M46.3448 72.4138H43.4483V75.3103H46.3448V72.4138Z" fill="#0F0F0F"/>
<path d="M55.0345 72.4138H52.1379V75.3103H55.0345V72.4138Z" fill="#0F0F0F"/>
<path d="M63.7241 72.4138H60.8276V75.3103H63.7241V72.4138Z" fill="#0F0F0F"/>
<path d="M66.6207 72.4138H63.7241V75.3103H66.6207V72.4138Z" fill="#0F0F0F"/>
<path d="M69.5172 72.4138H66.6207V75.3103H69.5172V72.4138Z" fill="#0F0F0F"/>
<path d="M84 72.4138H81.1034V75.3103H84V72.4138Z" fill="#0F0F0F"/>
<path d="M2.89655 75.3103H0V78.2069H2.89655V75.3103Z" fill="#0F0F0F"/>
<path d="M8.68966 75.3103H5.7931V78.2069H8.68966V75.3103Z" fill="#0F0F0F"/>
<path d="M11.5862 75.3103H8.68966V78.2069H11.5862V75.3103Z" fill="#0F0F0F"/>
<path d="M14.4828 75.3103H11.5862V78.2069H14.4828V75.3103Z" fill="#0F0F0F"/>
<path d="M20.2759 75.3103H17.3793V78.2069H20.2759V75.3103Z" fill="#0F0F0F"/>
<path d="M26.069 75.3103H23.1724V78.2069H26.069V75.3103Z" fill="#0F0F0F"/>
<path d="M31.8621 75.3103H28.9655V78.2069H31.8621V75.3103Z" fill="#0F0F0F"/>
<path d="M34.7586 75.3103H31.8621V78.2069H34.7586V75.3103Z" fill="#0F0F0F"/>
<path d="M37.6552 75.3103H34.7586V78.2069H37.6552V75.3103Z" fill="#0F0F0F"/>
<path d="M43.4483 75.3103H40.5517V78.2069H43.4483V75.3103Z" fill="#0F0F0F"/>
<path d="M46.3448 75.3103H43.4483V78.2069H46.3448V75.3103Z" fill="#0F0F0F"/>
<path d="M49.2414 75.3103H46.3448V78.2069H49.2414V75.3103Z" fill="#0F0F0F"/>
<path d="M55.0345 75.3103H52.1379V78.2069H55.0345V75.3103Z" fill="#0F0F0F"/>
<path d="M57.931 75.3103H55.0345V78.2069H57.931V75.3103Z" fill="#0F0F0F"/>
<path d="M66.6207 75.3103H63.7241V78.2069H66.6207V75.3103Z" fill="#0F0F0F"/>
<path d="M69.5172 75.3103H66.6207V78.2069H69.5172V75.3103Z" fill="#0F0F0F"/>
<path d="M72.4138 75.3103H69.5172V78.2069H72.4138V75.3103Z" fill="#0F0F0F"/>
<path d="M78.2069 75.3103H75.3103V78.2069H78.2069V75.3103Z" fill="#0F0F0F"/>
<path d="M81.1034 75.3103H78.2069V78.2069H81.1034V75.3103Z" fill="#0F0F0F"/>
<path d="M84 75.3103H81.1034V78.2069H84V75.3103Z" fill="#0F0F0F"/>
<path d="M2.89655 78.2069H0V81.1034H2.89655V78.2069Z" fill="#0F0F0F"/>
<path d="M20.2759 78.2069H17.3793V81.1034H20.2759V78.2069Z" fill="#0F0F0F"/>
<path d="M28.9655 78.2069H26.069V81.1034H28.9655V78.2069Z" fill="#0F0F0F"/>
<path d="M34.7586 78.2069H31.8621V81.1034H34.7586V78.2069Z" fill="#0F0F0F"/>
<path d="M40.5517 78.2069H37.6552V81.1034H40.5517V78.2069Z" fill="#0F0F0F"/>
<path d="M43.4483 78.2069H40.5517V81.1034H43.4483V78.2069Z" fill="#0F0F0F"/>
<path d="M46.3448 78.2069H43.4483V81.1034H46.3448V78.2069Z" fill="#0F0F0F"/>
<path d="M49.2414 78.2069H46.3448V81.1034H49.2414V78.2069Z" fill="#0F0F0F"/>
<path d="M52.1379 78.2069H49.2414V81.1034H52.1379V78.2069Z" fill="#0F0F0F"/>
<path d="M55.0345 78.2069H52.1379V81.1034H55.0345V78.2069Z" fill="#0F0F0F"/>
<path d="M57.931 78.2069H55.0345V81.1034H57.931V78.2069Z" fill="#0F0F0F"/>
<path d="M75.3103 78.2069H72.4138V81.1034H75.3103V78.2069Z" fill="#0F0F0F"/>
<path d="M78.2069 78.2069H75.3103V81.1034H78.2069V78.2069Z" fill="#0F0F0F"/>
<path d="M2.89655 81.1034H0V84H2.89655V81.1034Z" fill="#0F0F0F"/>
<path d="M5.7931 81.1034H2.89655V84H5.7931V81.1034Z" fill="#0F0F0F"/>
<path d="M8.68966 81.1034H5.7931V84H8.68966V81.1034Z" fill="#0F0F0F"/>
<path d="M11.5862 81.1034H8.68966V84H11.5862V81.1034Z" fill="#0F0F0F"/>
<path d="M14.4828 81.1034H11.5862V84H14.4828V81.1034Z" fill="#0F0F0F"/>
<path d="M17.3793 81.1034H14.4828V84H17.3793V81.1034Z" fill="#0F0F0F"/>
<path d="M20.2759 81.1034H17.3793V84H20.2759V81.1034Z" fill="#0F0F0F"/>
<path d="M26.069 81.1034H23.1724V84H26.069V81.1034Z" fill="#0F0F0F"/>
<path d="M34.7586 81.1034H31.8621V84H34.7586V81.1034Z" fill="#0F0F0F"/>
<path d="M40.5517 81.1034H37.6552V84H40.5517V81.1034Z" fill="#0F0F0F"/>
<path d="M46.3448 81.1034H43.4483V84H46.3448V81.1034Z" fill="#0F0F0F"/>
<path d="M52.1379 81.1034H49.2414V84H52.1379V81.1034Z" fill="#0F0F0F"/>
<path d="M57.931 81.1034H55.0345V84H57.931V81.1034Z" fill="#0F0F0F"/>
<path d="M63.7241 81.1034H60.8276V84H63.7241V81.1034Z" fill="#0F0F0F"/>
<path d="M69.5172 81.1034H66.6207V84H69.5172V81.1034Z" fill="#0F0F0F"/>
<path d="M78.2069 81.1034H75.3103V84H78.2069V81.1034Z" fill="#0F0F0F"/>
<path d="M84 81.1034H81.1034V84H84V81.1034Z" fill="#0F0F0F"/>
</svg>
