<svg width="13" height="13" viewBox="0 0 13 13" fill="none" xmlns="http://www.w3.org/2000/svg">
<path d="M1.10885 11.1846C0.913587 11.3799 0.913587 11.6965 1.10885 11.8917C1.30411 12.087 1.62069 12.087 1.81596 11.8917L1.10885 11.1846ZM11.5387 1.46191L12.0387 1.46194C12.0387 1.32933 11.986 1.20214 11.8922 1.10837C11.7985 1.0146 11.6713 0.961914 11.5387 0.961914V1.46191ZM5.94104 0.961914C5.6649 0.961914 5.44104 1.18577 5.44104 1.46191C5.44104 1.73806 5.6649 1.96191 5.94104 1.96191V0.961914ZM11.0384 7.05982C11.0384 7.33596 11.2622 7.55983 11.5383 7.55984C11.8145 7.55986 12.0384 7.33601 12.0384 7.05987L11.0384 7.05982ZM1.81596 11.8917L11.8922 1.81547L11.1851 1.10836L1.10885 11.1846L1.81596 11.8917ZM11.5387 0.961914H5.94104V1.96191H11.5387V0.961914ZM11.0387 1.46189L11.0384 7.05982L12.0384 7.05987L12.0387 1.46194L11.0387 1.46189Z" fill="#FDFDFD" fill-opacity="0.5"/>
</svg>
