<svg width="60" height="60" viewBox="0 0 60 60" fill="none" xmlns="http://www.w3.org/2000/svg">
<g clip-path="url(#clip0_926_209)">
<path d="M55.0942 45.2461C57.3974 41.114 58.7114 36.3552 58.7114 31.2888C58.7114 15.432 45.857 2.57764 30.0002 2.57764C14.1435 2.57764 1.28906 15.432 1.28906 31.2888C1.28906 36.3552 2.60309 41.114 4.90629 45.2461H55.0942Z" fill="#3E7C7B"/>
<path d="M38.6846 36.9153C38.6851 36.915 38.6854 36.9145 38.6854 36.9145C38.6163 36.895 38.5459 36.8772 38.4759 36.8587C38.4527 36.8526 38.4297 36.8459 38.4065 36.8398L38.4061 36.8402C38.1702 36.7782 37.9331 36.7183 37.6931 36.6629C36.5034 35.4732 36.2018 33.2177 36.1475 31.6396C35.5266 32.3628 34.8751 32.9677 34.2525 33.4511C33.0393 34.3932 31.5425 34.9048 30.0008 34.9048C28.4591 34.9048 26.9621 34.3932 25.7491 33.4511C25.1265 32.9677 24.4748 32.3627 23.8539 31.6396C23.7996 33.2177 23.498 35.4732 22.3082 36.6629C22.065 36.719 21.8245 36.78 21.5853 36.8428C21.5853 36.8428 21.5851 36.8425 21.5848 36.8424C21.5627 36.8482 21.5408 36.8545 21.5186 36.8603C21.4479 36.8791 21.3766 36.8971 21.3061 36.9165C21.3061 36.9165 21.307 36.9173 21.3073 36.9177C20.2111 37.2179 19.1531 37.585 18.1191 38.0185V40.8152C20.0465 43.4497 22.6254 45.0922 24.1014 45.7126C24.7648 45.9914 25.472 46.1327 26.2033 46.1327H28.2757L28.7825 46.3085H31.2188L31.7257 46.1327H33.798C34.5293 46.1327 35.2364 45.9912 35.8998 45.7126C37.3675 45.0956 39.9257 43.4683 41.8496 40.8597V38.0052C40.8232 37.5767 39.7728 37.2131 38.6846 36.9153Z" fill="#FFAA7B"/>
<path d="M25.7479 33.4512C25.1253 32.9677 24.4736 32.3628 23.8528 31.6396C23.7984 33.2177 23.4969 35.4732 22.3072 36.6629C22.0638 36.719 21.8234 36.78 21.5843 36.8429C21.5843 36.8429 21.584 36.8427 21.5838 36.8425C21.5616 36.8484 21.5397 36.8546 21.5176 36.8606C21.4468 36.8793 21.3755 36.8974 21.305 36.9167C21.305 36.9167 21.3059 36.9175 21.3064 36.9179C20.8786 37.0351 20.4581 37.1655 20.041 37.3031C21.2026 40.0766 23.6408 44.8528 26.2203 43.5298C29.8003 41.6939 29.9996 34.9048 29.9996 34.9048C28.4579 34.9048 26.9609 34.3932 25.7479 33.4512Z" fill="#FC9460"/>
<path d="M40.2996 42.5488C38.704 44.0234 36.9971 44.8998 35.8997 45.3611C35.2363 45.6399 34.5292 45.7812 33.7979 45.7812H31.7256L31.2187 45.957C30.3466 45.957 29.6545 45.957 28.7824 45.957L28.2756 45.7812H26.2032C25.472 45.7812 24.7649 45.6398 24.1013 45.3611C23.8654 45.262 23.6001 45.1423 23.315 45.003V53.7245C23.315 53.7245 21.0799 55.9321 22.726 59.0683C25.0495 59.6751 27.4869 59.9998 30.0006 59.9998C36.9738 59.9998 43.3658 57.5131 48.3399 53.3789C48.3399 53.2356 48.3399 53.0935 48.3399 52.9545C48.3399 48.5887 43.1074 44.4536 40.2996 42.5488Z" fill="#FFC839"/>
<path d="M23.5488 53.7246V45.1153C22.4786 44.6141 21.0553 43.7983 19.7089 42.5562C16.9069 44.456 11.6719 48.589 11.6719 52.9529V53.3886C14.9204 56.0858 18.7733 58.0801 22.9972 59.139C21.2798 55.9654 23.5488 53.7246 23.5488 53.7246Z" fill="#FFB332"/>
<path d="M55.0943 45.2459C55.0693 45.1975 55.0448 45.1484 55.0195 45.1006C54.0818 43.3369 52.5072 41.9969 50.6284 41.3184L42.6797 38.4478C42.8261 38.7429 42.9257 39.1797 42.6425 39.6608C41.9015 40.9197 40.9927 41.9423 40.0586 42.7659C42.6838 44.5156 48.0017 48.5919 48.0017 52.9022V53.6542C50.8722 51.341 53.2879 48.4869 55.0943 45.2459Z" fill="#FFDD40"/>
<path d="M17.358 39.6613C17.0748 39.1802 17.1745 38.7434 17.3207 38.4482L9.37203 41.3189C7.4934 41.9974 5.91875 43.3374 4.98113 45.1011C4.9557 45.1489 4.93121 45.198 4.90625 45.2464C6.7127 48.4872 9.12828 51.3414 11.9989 53.6547C11.9989 53.3977 11.9989 53.1462 11.9989 52.9027C11.9989 48.5923 17.3166 44.5162 19.9419 42.7664C19.0078 41.9428 18.0991 40.9202 17.358 39.6613Z" fill="#FFC839"/>
<path d="M43.4938 34.3631C42.6253 32.3367 39.8085 31.1522 36.1001 29.9106L35.8457 31.9414C35.8457 31.9414 38.186 41.1767 31.2188 45.9572H34.6076C35.5568 45.9572 36.4956 45.7577 37.3603 45.3659C38.4473 44.8733 39.9717 44.0725 41.3304 42.9622C43.8698 40.8868 44.7858 37.3776 43.4938 34.3631Z" fill="#FEE77F"/>
<path d="M24.4205 39.9938C23.13 39.6617 19.8209 39.2285 18.9395 43.1759C20.2271 44.1758 21.6249 44.9055 22.6408 45.3659C23.5054 45.7578 24.4442 45.9573 25.3934 45.9573H28.7823C26.3834 44.3113 25.0882 42.1372 24.4205 39.9938Z" fill="#FEE77F"/>
<path d="M24.1545 31.9414L23.9001 29.9106C20.1917 31.1522 17.3749 32.3365 16.5064 34.3631C15.2144 37.3776 16.1303 40.8868 18.6699 42.9621C18.822 43.0864 18.9764 43.2062 19.1318 43.3226C20.0119 38.6106 24.5483 40.3833 24.5483 40.3833L24.5484 40.3825C23.0843 36.168 24.1545 31.9414 24.1545 31.9414Z" fill="#FFDD40"/>
<path d="M23.5487 53.7247C22.9987 53.7247 22.5488 53.2749 22.5488 52.7249V44.5121C22.5488 43.9621 22.9987 43.5122 23.5487 43.5122C24.0986 43.5122 24.5485 43.9621 24.5485 44.5121V52.7249C24.5485 53.2749 24.0986 53.7247 23.5487 53.7247Z" fill="#DEEEFF"/>
<path d="M36.4198 53.7247C35.8698 53.7247 35.4199 53.2749 35.4199 52.7249V44.5121C35.4199 43.9621 35.8698 43.5122 36.4198 43.5122C36.9697 43.5122 37.4196 43.9621 37.4196 44.5121V52.7249C37.4196 53.2749 36.9697 53.7247 36.4198 53.7247Z" fill="#DEEEFF"/>
<path d="M48.234 9.11084C46.1514 10.5341 44.5754 12.7134 45.1242 15.9897C46.562 24.5741 39.9388 28.9536 50.2901 33.556C53.9704 35.1924 56.2884 37.1068 57.7318 38.7436C58.3697 36.3663 58.7108 33.8674 58.7108 31.2887C58.7108 22.3562 54.6312 14.3767 48.234 9.11084Z" fill="#58A7A6"/>
<path d="M11.7659 9.11084C13.8484 10.5341 15.4245 12.7134 14.8757 15.9897C13.4378 24.5741 20.061 28.9536 9.70969 33.556C6.02941 35.1924 3.71145 37.1068 2.26805 38.7436C1.63008 36.3663 1.28906 33.8674 1.28906 31.2887C1.28906 22.3562 5.36859 14.3767 11.7659 9.11084Z" fill="#58A7A6"/>
<path d="M41.1833 18.5252C41.9455 15.417 42.568 10.7598 40.92 6.88461C37.7333 -0.608828 29.0606 -0.146875 26.7623 0.117031C26.521 0.144688 26.4 0.419961 26.5372 0.620234C27.9149 2.63141 22.5176 0.809258 19.584 6.96277C17.7247 10.8627 18.1919 15.4543 18.8716 18.5253H41.1833V18.5252Z" fill="#945230"/>
<path d="M29.8739 8.25607C29.8739 8.25607 29.01 6.26927 31.1977 4.62865C33.3826 2.99013 30.1256 0.0462642 30.1172 0.038647C28.6517 -0.0541655 27.4343 0.0395845 26.7623 0.116811C26.521 0.144584 26.4 0.419741 26.5372 0.620014C27.9149 2.63119 22.5176 0.809038 19.584 6.96255C17.7247 10.8626 18.1919 15.4542 18.8716 18.5251H23.9717L25.5917 17.8815L29.8739 8.25607Z" fill="#753616"/>
<path d="M41.6327 18.1315C41.1519 17.6909 40.0769 17.9143 39.6628 18.184C39.7535 18.749 39.7586 19.327 39.6804 19.8977L39.1917 23.4569C39.1917 23.7437 39.1827 24.0252 39.166 24.3018C40.3577 24.6612 41.0668 23.5914 41.1665 22.8572C41.2094 22.5412 41.2796 22.2297 41.377 21.9257C41.6939 20.9359 42.8374 19.2355 41.6327 18.1315Z" fill="#FFAA7B"/>
<path d="M18.3677 18.1315C18.8485 17.6909 19.9235 17.9143 20.3376 18.184C20.2469 18.749 20.2418 19.327 20.3202 19.8977L20.8088 23.4569C20.8088 23.7437 20.8179 24.0252 20.8345 24.3018C19.6428 24.6612 18.9337 23.5914 18.834 22.8572C18.7911 22.5412 18.7209 22.2297 18.6235 21.9257C18.3065 20.9359 17.163 19.2355 18.3677 18.1315Z" fill="#FC9460"/>
<path d="M39.0622 16.2323C38.5207 15.3828 38.7001 14.689 38.7089 13.8765C38.7089 13.8765 39.1657 10.1362 34.5592 8.80815C33.2256 8.42366 31.3436 8.19374 29.4153 8.26768C28.0734 9.21374 27.1897 10.6019 27.1897 12.5691C27.1897 13.4732 27.3846 14.1797 26.8297 15.0963C26.2315 16.0848 25.8833 17.5106 26.081 19.027L26.5789 22.846C26.5789 28.3365 29.3619 32.0683 31.7292 34.0043C32.066 34.2797 32.4254 34.5179 32.8003 34.7228C33.3151 34.4961 33.8033 34.2067 34.2524 33.8579C36.5763 32.0532 39.3083 28.5745 39.3083 23.4566L39.797 19.8974C39.9897 18.495 39.6555 17.1633 39.0622 16.2323Z" fill="#FFC7AB"/>
<path d="M31.7521 33.7811C29.4281 31.8805 26.696 28.217 26.696 22.827L26.2072 19.0778C26.0132 17.5893 26.3549 16.1895 26.9422 15.219C27.4868 14.3192 27.2956 13.6256 27.2956 12.7379C27.2956 10.62 28.3371 9.18377 29.8736 8.25635C25.7795 8.31295 21.2913 9.70068 21.2913 13.8769C21.2913 14.7197 21.4827 15.3783 20.938 16.2328C20.3507 17.1543 20.009 18.4834 20.203 19.8969L20.6918 23.457C20.6918 28.575 23.4238 32.0537 25.7479 33.8583C26.9609 34.8003 28.4578 35.3119 29.9995 35.3119C31.0602 35.3119 32.0995 35.0698 33.0399 34.6119C32.5854 34.3862 32.153 34.109 31.7521 33.7811Z" fill="#FFAA7B"/>
<path d="M36.5798 27.579C36.308 25.9585 35.1388 24.336 33.5779 23.9819L31.1921 23.281C30.7773 23.1593 30.3621 23.372 30.1952 23.7332C30.1647 23.7991 30.0725 23.7991 30.0419 23.7332C29.8748 23.372 29.4596 23.1593 29.0448 23.281L26.659 23.9819C26.5998 23.9954 26.5415 24.0111 26.4835 24.0281H26.5057C26.253 24.6227 25.8161 26.0994 27.0597 27.2276C27.4613 27.0226 27.8909 26.8657 28.3418 26.7661L28.7679 26.672C29.389 26.5349 29.8694 25.9285 30.0455 25.2825C30.0657 25.2083 30.1711 25.2083 30.1914 25.2825C30.3675 25.9285 30.8478 26.5349 31.469 26.672L31.8952 26.7661C33.12 27.0364 34.1932 27.7219 34.9524 28.6799C34.7952 29.3785 34.3025 30.4403 32.7753 30.9799C31.7506 31.3419 30.6324 30.6975 30.5011 29.6308C30.4995 29.617 30.4979 29.6032 30.4963 29.5891C30.4748 29.3903 30.3082 29.2373 30.1055 29.2373C29.9029 29.2373 29.7363 29.3903 29.7147 29.5891C29.7132 29.6032 29.7115 29.617 29.7099 29.6308C29.6393 30.2042 29.2824 30.6535 28.8093 30.8923C28.6778 31.4135 28.5033 32.5373 29.0474 33.6286C29.4409 34.4178 30.1318 35.0286 31.1048 35.452C31.5977 35.3525 32.0806 35.1885 32.5387 34.9553C34.9264 33.7397 38.1009 31.6277 39.1163 26.1944C39.1997 25.7477 39.2422 25.2935 39.2422 24.8389C38.8555 25.7928 38.0521 26.9403 36.5798 27.579Z" fill="#945230"/>
<path d="M27.4442 34.954C28.677 35.5822 30.0862 35.7243 31.4001 35.3841C28.1894 34.1395 28.853 31.3363 29.0277 30.7614C28.5876 31.0727 27.9977 31.1788 27.435 30.98C26.0252 30.4819 25.4187 29.5384 25.158 28.8466C25.693 28.1147 26.4058 27.5284 27.2294 27.1441C25.8755 25.9734 26.518 24.387 26.7269 23.9619L26.6583 23.9821C25.0666 24.343 23.8814 26.0231 23.6406 27.675C22.0121 27.0609 21.1643 25.8427 20.7578 24.8391V24.8395C20.7578 25.2934 20.8001 25.747 20.8834 26.1932C21.897 31.6254 25.0563 33.7371 27.4442 34.954Z" fill="#753616"/>
</g>
<defs>
<clipPath id="clip0_926_209">
<rect width="60" height="60" fill="white"/>
</clipPath>
</defs>
</svg>
