<svg width="60" height="60" viewBox="0 0 60 60" fill="none" xmlns="http://www.w3.org/2000/svg">
<g clip-path="url(#clip0_926_243)">
<path d="M53.4698 47.8294C56.7713 43.1536 58.7114 37.448 58.7114 31.2888C58.7114 15.4322 45.857 2.57764 30.0002 2.57764C14.1435 2.57764 1.28906 15.4321 1.28906 31.2888C1.28906 37.448 3.22922 43.1535 6.53062 47.8294H53.4698Z" fill="#49B1F7"/>
<path d="M34.8595 35.3697C34.8595 34.6944 34.8595 34.8967 34.8595 34.4595C33.6822 35.5119 31.6632 36.8529 30.0004 36.8932C29.9393 36.8917 29.8776 36.8879 29.8157 36.8831L29.8225 36.9083C29.7996 37.137 29.615 38.7031 28.7087 40.6957C27.8121 42.6676 26.005 45.4728 22.4846 47.6562C22.2666 47.671 21.4056 47.7702 20.8461 48.4281C20.6819 48.6211 20.5623 48.8445 20.4824 49.0937C22.3479 51.221 24.6842 52.9207 27.3784 54.0864C29.0957 54.8291 31.0647 54.8291 32.7816 54.0864C36.6155 52.4277 39.7286 49.6916 41.7843 46.1735C42.6828 44.6359 43.491 42.9497 44.2105 41.1321C40.7869 40.2611 34.8595 38.3261 34.8595 35.3697Z" fill="#FFAA7B"/>
<path d="M30.0011 36.8932C28.3383 36.8529 26.3194 35.5121 25.1421 34.4595V35.3697C25.1421 38.2847 19.3786 40.2069 15.9355 41.0952C16.6586 42.9262 17.4718 44.625 18.3766 46.1734C19.023 47.2797 19.7743 48.3082 20.6193 49.2506C20.9819 47.8657 22.5393 47.8293 22.5393 47.8293C29.488 43.5437 30.0011 36.8932 30.0011 36.8932Z" fill="#FC9460"/>
<path d="M52.9258 46.5068C51.1402 42.9358 48.0064 41.9385 46.5786 41.6644C46.5786 41.6644 45.3664 41.4429 43.7225 41.0049C43.0182 42.8003 42.2239 44.463 41.3394 45.9767C39.3615 49.3618 36.3661 51.9945 32.677 53.5905C31.025 54.3052 29.1304 54.3051 27.4781 53.5905C24.8173 52.4393 22.5201 50.7464 20.7025 48.6234C20.4331 49.0386 20.325 49.5621 20.3825 50.1869C19.9738 50.2198 18.9611 50.3281 17.9345 50.6459C16.1579 51.1956 15.2188 52.1157 15.2188 53.3064V55.9057C19.5366 58.5046 24.5939 60 30.0009 60C39.6985 60 48.2724 55.1915 53.4705 47.8293C53.3064 47.3499 53.1256 46.9063 52.9258 46.5068Z" fill="#7E6DD1"/>
<path d="M15.3944 53.3063C15.3944 50.6015 20.5782 50.3497 20.5782 50.3497C20.479 49.6388 20.6002 49.1293 20.8223 48.7627C20.0713 47.9034 19.3982 46.9736 18.8157 45.9766C17.9248 44.452 17.1255 42.7768 16.4178 40.9678C14.7037 41.4307 13.4232 41.6643 13.4232 41.6643C11.9952 41.9386 8.86152 42.9357 7.07594 46.5068C6.87613 46.9063 6.69543 47.3498 6.53125 47.8292C8.87043 51.1422 11.8934 53.9376 15.3944 56.0108C15.3944 55.1564 15.3944 54.2129 15.3944 53.3063Z" fill="#7255CE"/>
<path d="M44.5769 40.8715L42.8547 40.1959C42.5211 40.065 42.1441 40.2261 42.0077 40.5576C41.3912 42.0565 40.7078 43.4508 39.972 44.7096C38.1655 47.8015 35.4252 50.2081 32.0475 51.6696C30.795 52.2113 29.3577 52.2115 28.1048 51.6696C25.8981 50.7147 23.9658 49.3543 22.3857 47.6651C22.0744 47.7003 21.3416 47.844 20.8451 48.4278C20.4767 48.8608 20.3212 49.4391 20.3789 50.1479C22.1946 52.0044 24.3779 53.5047 26.8487 54.5736C27.8744 55.0173 28.9753 55.239 30.0763 55.239C31.1774 55.239 32.2783 55.0172 33.3038 54.5735C37.3045 52.8425 40.5551 49.9836 42.7039 46.3059C43.5176 44.914 44.2698 43.3788 44.9448 41.7347C45.0844 41.3947 44.919 41.0058 44.5769 40.8715Z" fill="#9589E8"/>
<path d="M22.5378 47.8293L22.5385 47.829C21.6364 46.8902 20.8448 45.8468 20.1805 44.7098C19.4389 43.4407 18.7505 42.0346 18.1302 40.5225C17.9941 40.1908 17.6172 40.0295 17.2835 40.16L15.5606 40.8339C15.2183 40.9679 15.0527 41.3567 15.1919 41.6969C15.8709 43.3551 16.6286 44.903 17.4485 46.3061C18.3177 47.7937 19.3699 49.1446 20.5763 50.3438C20.2371 47.8816 22.5378 47.8293 22.5378 47.8293Z" fill="#7E6DD1"/>
<path d="M40.3908 33.1191C39.5999 30.3491 39.272 28.1866 39.201 26.5156C38.6003 28.6832 37.8154 30.6025 36.859 32.2388C36.3073 33.1832 35.6224 34.0287 34.8271 34.7616C33.6389 41.6934 35.8607 46.9152 37.6091 49.7687C37.9775 50.37 38.9593 50.1178 38.9499 49.4234C38.8712 43.6767 42.5203 40.578 40.3908 33.1191Z" fill="#45304C"/>
<path d="M37.3086 37.3004C37.3086 40.0035 37.6401 42.7717 39.9983 43.4812C40.8409 40.5891 41.6882 37.6633 40.3909 33.1195C40.3839 33.0953 40.3779 33.0722 40.3711 33.0483C39.1065 33.7312 37.3086 35.0901 37.3086 37.3004Z" fill="#56415E"/>
<path d="M30.0779 4.61484C31.9207 4.61484 33.4841 4.96957 34.8 5.51613C34.8372 5.2759 34.8568 5.02969 34.8568 4.77902C34.8568 2.13961 32.7171 0 30.0779 0C27.4384 0 25.2988 2.13961 25.2988 4.77902C25.2988 5.02969 25.3184 5.27578 25.3555 5.51613C26.6716 4.96957 28.235 4.61484 30.0779 4.61484Z" fill="#56415E"/>
<path d="M30.0779 0C27.4384 0 25.2988 2.13961 25.2988 4.77902C25.2988 5.02969 25.3184 5.27578 25.3555 5.51613C26.6716 4.96957 28.235 4.61484 30.0777 4.61484V3.60246C28.1384 1.66301 30.0779 0 30.0779 0V0Z" fill="#45304C"/>
<path d="M24.5197 6.21078C25.9943 5.45 27.8279 4.92207 30.0771 4.92207C32.3263 4.92207 34.1599 5.45 35.6345 6.2109C35.8964 6.34602 36.1492 6.49297 36.3943 6.64895C34.9143 4.79316 32.6353 3.60254 30.0771 3.60254C27.5189 3.60254 25.24 4.79305 23.7598 6.64883C24.0049 6.49285 24.2578 6.3459 24.5197 6.21078Z" fill="#FFE07D"/>
<path d="M20.7379 19.551C20.8716 19.1135 21.0546 18.7348 21.302 18.456C21.5246 18.2051 21.6643 17.8947 21.6743 17.5626C21.7321 15.6225 22.4778 9.33705 29.6388 12.0822C29.9203 12.19 30.2342 12.19 30.5157 12.0822C37.6767 9.33705 38.4223 15.6225 38.4802 17.5626C38.4902 17.8947 38.6299 18.2051 38.8525 18.456C39.0999 18.7348 39.2829 19.1135 39.4166 19.551V19.5509C39.7794 19.309 40.3427 19.1422 40.8518 19.1542L40.8519 19.1527V14.444C40.8519 10.8757 38.8627 7.56881 35.6347 5.90346C34.1601 5.14268 32.3265 4.61475 30.0773 4.61475C27.8281 4.61475 25.9945 5.14268 24.5199 5.90346C21.2919 7.56881 19.3027 10.8757 19.3027 14.444V19.1527L19.3029 19.1542C19.8118 19.1424 20.3751 19.3091 20.7379 19.551Z" fill="#56415E"/>
<path d="M29.7145 12.107C29.6874 12.0708 29.6622 12.0346 29.6336 11.9985C25.7674 7.10697 30.0767 4.6151 30.0773 4.61475C27.8281 4.61475 25.9945 5.14268 24.5199 5.90346C21.2919 7.56881 19.3027 10.8757 19.3027 14.444V19.1527L19.3029 19.1542C19.8119 19.1422 20.3752 19.3091 20.738 19.5509C20.8718 19.1135 21.0547 18.7347 21.3021 18.4559C21.5247 18.205 21.6644 17.8944 21.6744 17.5624C21.7323 15.6224 22.4779 9.33682 29.6389 12.082C29.6639 12.0917 29.6892 12.0992 29.7145 12.107Z" fill="#45304C"/>
<path d="M20.6491 25.1452C20.6491 25.1452 20.0647 21.4467 20.7378 19.244C20.1272 18.8369 18.9471 18.6382 18.4165 19.1569C17.3299 20.2191 18.1261 21.8232 18.5071 22.8364C18.624 23.1475 18.6995 23.4622 18.7336 23.7774C18.8078 24.4624 19.1791 25.4649 20.719 25.4414C20.6957 25.3427 20.6719 25.2455 20.6491 25.1452Z" fill="#FC9460"/>
<path d="M41.7374 19.1569C41.2066 18.6382 40.0267 18.8369 39.416 19.244C40.0891 21.4467 39.5047 25.1452 39.5047 25.1452C39.482 25.2455 39.4582 25.3427 39.4349 25.4414C40.9748 25.465 41.3462 24.4625 41.4203 23.7774C41.4544 23.4622 41.5298 23.1475 41.6468 22.8364C42.0278 21.8232 42.8239 20.2191 41.7374 19.1569Z" fill="#FFAA7B"/>
<path d="M38.9087 18.098C38.6869 17.848 38.5648 17.5558 38.5557 17.2532C38.5214 16.1015 38.2305 13.2826 36.277 11.9818C34.8913 11.0591 32.9433 11.0687 30.487 12.0106C30.2219 12.1123 29.93 12.1123 29.6651 12.0106C29.5435 11.9641 29.4243 11.9216 29.3053 11.8795C27.548 13.2822 27.2742 15.9562 27.2407 17.0805C27.2314 17.3906 27.1065 17.6898 26.8789 17.9459C25.6256 19.3583 25.9002 23.4844 26.1925 25.1832C26.84 28.0414 27.778 30.5337 28.9801 32.591C29.8989 34.1632 31.175 35.4704 32.7201 36.4415C34.4487 35.4712 35.8663 34.0897 36.8579 32.3926C38.0311 30.3852 38.9466 27.9523 39.58 25.1572C39.8541 23.4141 40.1461 19.4923 38.9087 18.098Z" fill="#FFC7AB"/>
<path d="M29.0756 32.3925C27.9023 30.3845 26.9867 27.9518 26.3547 25.1621C26.0694 23.504 25.8015 19.4766 27.0247 18.098C27.2467 17.8479 27.3687 17.5559 27.3778 17.2532C27.412 16.1063 27.7011 13.3067 29.6324 11.9986C27.1918 11.0696 25.2545 11.0634 23.8753 11.9816C21.9216 13.2825 21.6308 16.1015 21.5964 17.2532C21.5874 17.5559 21.4654 17.8479 21.2433 18.098C20.02 19.4766 20.2879 23.504 20.5734 25.1621C21.2055 27.952 22.121 30.3845 23.2942 32.3925C24.4853 34.431 26.2892 36.0163 28.5106 36.9775C29.5056 37.4078 30.6466 37.4078 31.6414 36.9775C32.102 36.7782 32.5436 36.5505 32.9667 36.299C31.3498 35.3378 30.0196 34.0082 29.0756 32.3925Z" fill="#FFAA7B"/>
<path d="M30.855 57.9581H29.2846C28.8252 57.9581 28.4492 57.5821 28.4492 57.1227V52.3208C28.4492 51.8613 28.8252 51.4854 29.2846 51.4854H30.855C31.3145 51.4854 31.6904 51.8613 31.6904 52.3208V57.1227C31.6904 57.5821 31.3145 57.9581 30.855 57.9581Z" fill="#B5B0F7"/>
<path d="M47.594 8.59961C45.7161 10.1314 43.8257 12.5896 44.9398 15.8504C46.9283 21.6702 41.7288 29.6187 47.5708 35.4607C51.0087 38.8987 55.1183 38.7346 57.9188 38.0175C58.4372 35.8593 58.7122 33.6062 58.7122 31.2889C58.712 22.0616 54.3583 13.8522 47.594 8.59961Z" fill="#73C3F9"/>
<path d="M12.4071 8.59961C14.285 10.1314 16.1754 12.5896 15.0613 15.8504C13.0729 21.6702 18.2723 29.6187 12.4303 35.4607C8.99238 38.8987 4.88285 38.7346 2.0823 38.0175C1.56387 35.8593 1.28906 33.6062 1.28906 31.2889C1.28906 22.0616 5.64293 13.8522 12.4071 8.59961Z" fill="#73C3F9"/>
<path d="M49.734 52.1413C49.0339 50.8011 48.0341 49.9316 47.1799 49.3916C46.4474 48.9285 45.4922 49.4498 45.4922 50.3164V55.4645C47.01 54.4898 48.4298 53.3761 49.734 52.1413Z" fill="#7255CE"/>
</g>
<defs>
<clipPath id="clip0_926_243">
<rect width="60" height="60" fill="white"/>
</clipPath>
</defs>
</svg>
