<svg width="60" height="60" viewBox="0 0 60 60" fill="none" xmlns="http://www.w3.org/2000/svg">
<g clip-path="url(#clip0_926_280)">
<path d="M5.07047 45.5396H54.9301C57.3357 41.3403 58.7114 36.4753 58.7114 31.2888C58.7114 15.432 45.857 2.57764 30.0002 2.57764C14.1435 2.57764 1.28906 15.432 1.28906 31.2888C1.28918 36.4753 2.66484 41.3403 5.07047 45.5396Z" fill="#45304C"/>
<path d="M30.0021 41.8699C32.3513 41.8699 34.6448 41.2429 36.6497 40.0713C36.7076 38.29 36.7424 36.5434 36.7634 34.844C36.3278 33.7135 36.1824 32.378 36.1465 31.3364C35.5257 32.0596 34.8741 32.6645 34.2515 33.1479C33.0384 34.09 31.5415 34.6016 29.9997 34.6016C28.458 34.6016 26.961 34.09 25.748 33.1479C25.1254 32.6645 24.4737 32.0595 23.8529 31.3364C23.8169 32.3823 23.6703 33.7246 23.2305 34.8581C23.2382 36.556 23.2635 38.2893 23.3131 40.0478C25.3277 41.235 27.637 41.8699 30.0021 41.8699Z" fill="#FFD9A1"/>
<path d="M30.0733 34.6001C30.0487 34.6003 30.0243 34.6016 29.9997 34.6016C28.458 34.6016 26.961 34.09 25.748 33.1479C25.1254 32.6645 24.4737 32.0595 23.8529 31.3364C23.8169 32.3823 23.6703 33.7246 23.2305 34.8581C23.2382 36.556 23.2635 38.2893 23.3131 40.0478C24.1218 40.5243 24.9786 40.9102 25.8668 41.2034C26.0452 41.1932 26.2265 41.172 26.4114 41.1362C29.7154 40.4977 30.1008 36.6134 30.0733 34.6001Z" fill="#F9C98A"/>
<path d="M23.3066 39.8101C23.4797 46.2156 23.9787 52.9662 25.1782 59.5948C26.7461 59.8599 28.3565 59.9999 29.9997 59.9999C31.6234 59.9999 33.215 59.8631 34.7651 59.604C35.9705 52.9278 36.4585 46.1562 36.6571 39.8329C34.6505 41.0072 32.3541 41.6356 30.0021 41.6356C27.6345 41.6357 25.3227 40.9995 23.3066 39.8101Z" fill="#DEEEFF"/>
<path d="M30.0031 44.8311C32.2925 44.8311 34.5312 44.2619 36.5234 43.1947C36.5782 42.0624 36.6223 40.9407 36.6571 39.833C34.6505 41.0074 32.3541 41.6357 30.0021 41.6357C27.6345 41.6357 25.3227 40.9996 23.3066 39.8101C23.3366 40.9191 23.3767 42.039 23.4282 43.1663C25.4339 44.2524 27.693 44.8311 30.0031 44.8311Z" fill="#D3DCFB"/>
<path d="M50.6612 41.0593C50.247 40.8607 49.802 40.691 49.3279 40.5505L41.6932 37.6369C41.2805 37.4676 40.8643 37.308 40.4429 37.1597C40.1105 37.5821 39.6277 38.1303 38.9887 38.7063C38.3995 46.3653 36.417 54.5011 35 59.5651C43.5349 58.066 50.7712 52.7979 54.9293 45.5396C54.0583 43.7005 52.7171 42.0456 50.6612 41.0593Z" fill="#49B1F7"/>
<path d="M20.1079 37.8101L16.964 43.9727C16.3313 44.1744 11.957 45.7216 11.957 49.905V53.6192C15.6493 56.6065 20.0958 58.6981 24.968 59.5597C23.5789 53.5111 22.855 45.7561 22.4822 39.8539C21.4595 39.1683 20.6739 38.4313 20.1079 37.8101Z" fill="#49B1F7"/>
<path d="M12.132 49.905C12.132 45.4998 17.086 44.119 17.086 44.119L20.2343 37.9477C19.963 37.6587 19.7363 37.3907 19.5548 37.1602C19.1352 37.3079 18.7205 37.4668 18.3096 37.6354L10.6667 40.5517C10.1967 40.6912 9.75523 40.8595 9.34414 41.0563C7.28492 42.0422 5.94195 43.6986 5.07031 45.5396C6.88637 48.7098 9.28977 51.5004 12.132 53.763C12.132 52.7122 12.132 51.4162 12.132 49.905Z" fill="#1FA2EA"/>
<path d="M15.6795 43.7836L18.6161 44.4845C18.9627 44.5672 19.2846 44.7315 19.555 44.9638L20.9814 46.1893L20.7176 46.3835L20.9814 46.4237L23.6934 44.3258C23.4643 40.41 23.4626 34.1567 23.4626 34.1567L21.8615 34.7668C20.4965 35.287 19.329 36.2224 18.524 37.4413L15.176 42.5099C14.8563 42.9942 15.1151 43.6489 15.6795 43.7836Z" fill="#73C3F9"/>
<path d="M23.6821 44.1016L20.983 46.1895L17.1528 49.0088C16.2318 49.6866 15.8546 50.8853 16.2295 51.9657C16.9071 53.9184 17.7075 55.8419 18.513 57.6073C20.6918 58.5597 23.0111 59.2497 25.4319 59.6369C24.4094 53.9178 23.9178 48.2329 23.6821 44.1016Z" fill="#9BD8F9"/>
<path d="M44.268 43.7836L41.3313 44.4845C40.9846 44.5672 40.6627 44.7315 40.3924 44.9638L38.966 46.1893L39.2299 46.3835L38.966 46.4237L36.2539 44.3258C36.4831 40.41 36.5374 34.1567 36.5374 34.1567L38.107 34.7634C39.4589 35.286 40.6145 36.2165 41.4132 37.4259L44.7713 42.51C45.0911 42.9942 44.8324 43.6489 44.268 43.7836Z" fill="#73C3F9"/>
<path d="M42.7963 49.0088L38.9662 46.1895L36.267 44.1016C36.0311 48.2351 35.5391 53.9238 34.5156 59.6457C36.9317 59.264 39.2471 58.5805 41.4231 57.6359C42.233 55.8627 43.0383 53.9288 43.7196 51.9655C44.0945 50.8853 43.7172 49.6866 42.7963 49.0088Z" fill="#9BD8F9"/>
<path d="M49.6272 10.3364C46.9015 12.3513 43.5099 15.7481 44.9477 20.004C47.1743 26.5951 37.0961 30.7517 48.3461 35.5288C52.8443 37.439 55.4579 39.4319 56.9764 41.1364C58.0981 38.0647 58.7111 34.7485 58.7111 31.2886C58.711 23.0233 55.2171 15.5749 49.6272 10.3364Z" fill="#56415E"/>
<path d="M10.373 10.3364C13.0988 12.3513 16.4903 15.7481 15.0525 20.004C12.8259 26.5951 22.9041 30.7517 11.6541 35.5288C7.15582 37.439 4.54219 39.4319 3.02379 41.1364C1.90207 38.0647 1.28906 34.7485 1.28906 31.2886C1.28918 23.0233 4.78312 15.5749 10.373 10.3364Z" fill="#56415E"/>
<path d="M51.2822 50.5568C50.7141 48.2084 49.2655 46.8521 48.0939 46.1113C47.3613 45.6482 46.4062 46.1695 46.4062 47.0362V54.8512C48.1902 53.6067 49.8258 52.1644 51.2822 50.5568Z" fill="#1FA2EA"/>
<path d="M19.3281 18.4542H40.8052C40.8433 16.9068 41.1013 12.8108 42.7186 9.8931C42.9435 9.48728 42.9837 9.00517 42.8271 8.56841C42.2403 6.93224 40.4874 3.10724 36.6645 2.08701C36.4608 2.03263 36.407 1.76919 36.5727 1.639L37.1457 1.18888C37.4055 0.984742 37.3056 0.570132 36.9813 0.507554C34.1608 -0.0363131 24.7934 -1.33803 21.8835 4.64521C21.7098 5.00228 21.3825 5.25939 20.9982 5.35888C20.1515 5.57802 18.6286 6.23849 17.6361 8.21767C17.4419 8.60474 17.4088 9.05369 17.5479 9.46373C18.0304 10.8853 19.2055 14.7026 19.3281 18.4542Z" fill="#EAB049"/>
<path d="M28.9381 8.99656C25.5078 3.76895 31.508 0.00195312 31.508 0.00195312C27.8691 0.0490625 23.6655 0.98082 21.8835 4.64504C21.7098 5.00211 21.3825 5.25922 20.9982 5.35871C20.1515 5.57785 18.6286 6.23832 17.6361 8.2175C17.4419 8.60457 17.4088 9.05352 17.5479 9.46356C18.0303 10.8852 19.2055 14.7024 19.3281 18.4541H24.3273C27.4914 15.8911 30.9764 12.103 28.9381 8.99656Z" fill="#EA9939"/>
<path d="M41.6387 17.8283C41.1579 17.3877 40.0829 17.611 39.6688 17.8808C39.7595 18.4458 39.7646 19.0237 39.6862 19.5944L39.1975 23.1537C39.1975 23.4405 39.1885 23.722 39.1719 23.9986C40.3636 24.358 41.0727 23.2882 41.1724 22.554C41.2153 22.2379 41.2855 21.9265 41.3829 21.6225C41.6998 20.6327 42.8434 18.9323 41.6387 17.8283Z" fill="#FFD9A1"/>
<path d="M18.3755 17.8283C18.8563 17.3877 19.9313 17.611 20.3454 17.8808C20.2547 18.4458 20.2496 19.0237 20.328 19.5944L20.8166 23.1537C20.8166 23.4405 20.8257 23.722 20.8423 23.9986C19.6506 24.358 18.9415 23.2882 18.8418 22.554C18.7989 22.2379 18.7287 21.9265 18.6313 21.6225C18.3143 20.6327 17.1708 18.9323 18.3755 17.8283Z" fill="#F9C98A"/>
<path d="M39.4917 16.781C39.3817 16.4941 39.243 16.2034 39.0683 15.9293C38.7724 15.4652 38.6422 14.916 38.6819 14.3684C38.7959 12.7936 38.7349 9.71359 36.6675 8.78335C34.9111 7.99304 32.7567 8.45066 31.3828 8.90757C30.5234 9.19327 29.5951 9.203 28.7306 8.93839C27.1652 10.1398 27.1284 12.8448 27.2342 14.2853C27.2747 14.8359 27.1392 15.3866 26.8417 15.8534C26.6702 16.1225 26.533 16.4072 26.4233 16.6891C26.0674 17.6034 25.9636 18.595 26.0969 19.566L26.5922 23.1732C26.5922 28.3589 29.3604 31.8837 31.7151 33.7123C32.0627 33.9822 32.4345 34.2143 32.8228 34.4125C33.3316 34.1869 33.8143 33.9003 34.2587 33.5551C36.5826 31.7506 39.3146 28.2718 39.3146 23.1537L39.8033 19.5945C39.9337 18.6454 39.8349 17.6764 39.4917 16.781Z" fill="#FCE6CA"/>
<path d="M31.7326 33.5549C29.4087 31.7504 26.6767 28.2715 26.6767 23.1535L26.1879 19.5936C26.0563 18.6353 26.1587 17.6566 26.5101 16.7542C26.6183 16.476 26.7537 16.195 26.923 15.9295C27.2167 15.4687 27.3504 14.9253 27.3106 14.3819C27.2028 12.9152 27.2447 10.1199 28.9388 8.99655C28.8358 8.97053 28.7335 8.94124 28.6321 8.90749C27.2581 8.45069 25.1037 7.99307 23.3474 8.78327C21.2741 9.71608 21.2186 12.8111 21.334 14.3818C21.374 14.9252 21.2401 15.4686 20.9465 15.9294C20.7773 16.1949 20.6418 16.4759 20.5335 16.7541C20.1823 17.6565 20.0799 18.6352 20.2114 19.5935L20.7001 23.1534C20.7001 28.2714 23.4323 31.7501 25.7561 33.5548C26.9691 34.4968 28.466 35.0084 30.0078 35.0084C31.049 35.0084 32.0693 34.7742 32.996 34.3325C32.5505 34.1205 32.1264 33.8608 31.7326 33.5549Z" fill="#FFD9A1"/>
</g>
<defs>
<clipPath id="clip0_926_280">
<rect width="60" height="60" fill="white"/>
</clipPath>
</defs>
</svg>
