<svg xmlns="http://www.w3.org/2000/svg" width="40" height="40" viewBox="0 0 40 40"><g><g><path fill="#00cca3" d="M14.108 21.378a.997.997 0 1 1 1.41-1.411l2.308 2.307 6.647-6.647a.996.996 0 1 1 1.41 1.41l-7.344 7.345a.998.998 0 0 1-1.41 0zM8.614 4.747a.991.991 0 0 1 .274-1.378A1 1 0 0 1 10 5.03a1.061 1.061 0 0 1-.556.166.99.99 0 0 1-.83-.448zM5.86 7.27a.996.996 0 1 1 1.41-1.41.996.996 0 1 1-1.41 1.41zM11.8 2.822a1.002 1.002 0 0 1 .54-1.303 1.002 1.002 0 0 1 1.302.54 1.001 1.001 0 0 1-.54 1.302.998.998 0 0 1-1.303-.54zM3.369 8.888c.307-.456.93-.58 1.386-.274a.99.99 0 0 1 .274 1.378c-.19.282-.506.44-.83.44a.992.992 0 0 1-.83-1.543zM1.52 12.34a.998.998 0 0 1 1.303-.54c.506.217.746.798.539 1.304a.998.998 0 0 1-1.303.54 1 1 0 0 1-.54-1.304zM15.303 1.56a.993.993 0 1 1 1.95-.39.993.993 0 0 1-.78 1.17c-.066.008-.124.017-.19.017a1.01 1.01 0 0 1-.98-.797zM.382 16.091a.993.993 0 1 1 1.95.39c-.1.473-.515.806-.98.806-.057 0-.124-.01-.19-.017a.998.998 0 0 1-.78-1.179zM40 20a19.866 19.866 0 0 1-5.859 14.14A19.867 19.867 0 0 1 20 40.001 19.867 19.867 0 0 1 5.859 34.14 19.866 19.866 0 0 1 0 20c0-.548.448-.996.996-.996s.996.448.996.996c0 9.934 8.074 18.008 18.008 18.008S38.008 29.934 38.008 20 29.934 1.992 20 1.992a.999.999 0 0 1-.996-.996c0-.547.448-.995.996-.995a19.867 19.867 0 0 1 14.141 5.858A19.865 19.865 0 0 1 40 20z"/></g></g></svg>