<svg xmlns="http://www.w3.org/2000/svg" xmlns:xlink="http://www.w3.org/1999/xlink" width="53" height="42" viewBox="0 0 53 42"><defs><path id="iso2a" d="M463.72 489.125a.795.795 0 0 1 .559-.233h50.1a.792.792 0 0 1 0 1.584H464.28a.792.792 0 0 1-.56-1.35z"/><path id="iso2b" d="M493.963 469.274c.309-.31.81-.31 1.12 0l19.853 19.853a.788.788 0 0 1 0 1.12l-19.853 19.85a.792.792 0 0 1-1.12-1.12l19.294-19.29-19.294-19.294a.792.792 0 0 1 0-1.12z"/></defs><g><g transform="translate(-463 -469)"><use fill="#b7b7b7" xlink:href="#iso2a"/></g><g transform="translate(-463 -469)"><use fill="#b7b7b7" xlink:href="#iso2b"/></g></g></svg>