<svg xmlns="http://www.w3.org/2000/svg" xmlns:xlink="http://www.w3.org/1999/xlink" width="65" height="60" viewBox="0 0 65 60"><defs><path id="3gkqa" d="M309.826 445.09a18.485 18.485 0 0 0-5.78-10.6 18.497 18.497 0 0 0-12.51-4.86 18.492 18.492 0 0 0-10.06 2.963 18.467 18.467 0 0 0-6.019 6.334 10.625 10.625 0 0 0-1.948-.184c-5.597 0-10.153 4.556-10.153 10.152 0 .725.079 1.423.21 2.107-3.62 2.634-5.82 6.874-5.82 11.39 0 3.648 1.357 7.19 3.832 9.995 2.542 2.871 5.9 4.57 9.481 4.767h11.43a1.77 1.77 0 0 0 1.778-1.777 1.77 1.77 0 0 0-1.778-1.778h-11.272c-5.386-.33-9.915-5.452-9.915-11.22 0-3.726 2.001-7.202 5.227-9.085a1.792 1.792 0 0 0 .777-2.16 6.45 6.45 0 0 1-.395-2.265c0-3.634 2.963-6.597 6.598-6.597.776 0 1.54.131 2.251.395.87.316 1.83-.08 2.226-.909 2.462-5.228 7.782-8.599 13.563-8.599 7.77 0 14.182 5.82 14.92 13.537a1.776 1.776 0 0 0 1.474 1.58c5.86 1.001 10.285 6.413 10.285 12.59 0 6.544-5.149 12.233-11.496 12.72h-9.705a1.77 1.77 0 0 0-1.778 1.778c0 .987.79 1.777 1.778 1.777h9.902c4.017-.29 7.77-2.133 10.561-5.214a16.399 16.399 0 0 0 4.293-11.062c-.013-7.387-5.056-13.958-11.957-15.775z"/><path id="3gkqb" d="M300.438 464.078a1.772 1.772 0 0 0 0-2.515l-9.416-9.415c-.329-.33-.79-.527-1.25-.527-.462 0-.922.185-1.252.527l-9.415 9.415a1.772 1.772 0 0 0 0 2.515 1.79 1.79 0 0 0 1.251.527c.448 0 .909-.171 1.251-.527l6.387-6.386v29.352c0 .987.79 1.777 1.777 1.777a1.77 1.77 0 0 0 1.778-1.777v-29.352l6.387 6.386a1.757 1.757 0 0 0 2.502 0z"/></defs><g><g transform="translate(-257 -429)"><use fill="#6e6e6e" xlink:href="#3gkqa"/></g><g transform="translate(-257 -429)"><use fill="#6e6e6e" xlink:href="#3gkqb"/></g></g></svg>