<svg width="12" height="8" viewBox="0 0 12 8" fill="none" xmlns="http://www.w3.org/2000/svg">
<path d="M11.2724 1.40108C11.2758 1.24523 11.2306 1.09218 11.1431 0.963212C11.0555 0.834246 10.9299 0.735769 10.7837 0.681475C10.6376 0.62718 10.4782 0.619765 10.3277 0.660259C10.1771 0.700754 10.043 0.787147 9.94383 0.907427L6.0122 5.49678L2.08195 0.907426C2.0208 0.824223 1.94316 0.754542 1.85383 0.702747C1.7645 0.650953 1.66541 0.61816 1.56282 0.606423C1.46023 0.594686 1.35635 0.604258 1.25763 0.634539C1.15891 0.664819 1.06748 0.715156 0.989113 0.782398C0.910748 0.84964 0.847182 0.932338 0.802258 1.02531C0.757336 1.11829 0.732104 1.21954 0.728123 1.32272C0.724142 1.4259 0.741449 1.52879 0.779076 1.62495C0.816701 1.72111 0.873774 1.80847 0.946725 1.88155L5.44238 7.13594C5.5128 7.21846 5.6002 7.28472 5.6987 7.33015C5.7972 7.37558 5.90442 7.39911 6.01289 7.39911C6.12137 7.39911 6.22858 7.37558 6.32708 7.33015C6.42559 7.28472 6.51307 7.21846 6.58349 7.13594L11.0835 1.88155C11.2014 1.74881 11.2682 1.57856 11.2724 1.40108Z" fill="#272727"/>
</svg>
