<svg width="40" height="40" viewBox="0 0 40 40" fill="none" xmlns="http://www.w3.org/2000/svg">
<circle cx="20" cy="20" r="20" fill="#E2FBD7"/>
<path d="M25.4999 20C26.9586 20 28.3576 20.5795 29.389 21.6109C30.4205 22.6424 30.9999 24.0413 30.9999 25.5C30.9999 26.9587 30.4205 28.3576 29.389 29.3891C28.3576 30.4205 26.9586 31 25.4999 31C24.0412 31 22.6423 30.4205 21.6108 29.3891C20.5794 28.3576 19.9999 26.9587 19.9999 25.5C19.9999 24.0413 20.5794 22.6424 21.6108 21.6109C22.6423 20.5795 24.0412 20 25.4999 20ZM22.8529 25.147C22.8068 25.0992 22.7516 25.0612 22.6906 25.035C22.6296 25.0087 22.564 24.995 22.4976 24.9944C22.4312 24.9938 22.3654 25.0065 22.304 25.0316C22.2425 25.0567 22.1867 25.0939 22.1397 25.1408C22.0928 25.1878 22.0557 25.2436 22.0305 25.305C22.0054 25.3665 21.9927 25.4323 21.9933 25.4987C21.9939 25.5651 22.0077 25.6307 22.0339 25.6917C22.0601 25.7527 22.0982 25.8079 22.1459 25.854L24.1459 27.854C24.2397 27.9477 24.3668 28.0004 24.4994 28.0004C24.632 28.0004 24.7592 27.9477 24.8529 27.854L28.8529 23.854C28.9007 23.8079 28.9388 23.7527 28.965 23.6917C28.9912 23.6307 29.005 23.5651 29.0056 23.4987C29.0061 23.4323 28.9935 23.3665 28.9683 23.305C28.9432 23.2436 28.9061 23.1878 28.8591 23.1408C28.8122 23.0939 28.7564 23.0567 28.6949 23.0316C28.6335 23.0065 28.5676 22.9938 28.5012 22.9944C28.4348 22.995 28.3692 23.0087 28.3082 23.035C28.2472 23.0612 28.1921 23.0992 28.1459 23.147L24.4999 26.793L22.8529 25.147ZM20.0229 22C19.7229 22.4675 19.4842 22.9716 19.3129 23.5H12.2529C12.1544 23.4999 12.0568 23.5192 11.9658 23.5568C11.8747 23.5945 11.792 23.6497 11.7223 23.7194C11.6526 23.7891 11.5974 23.8718 11.5598 23.9628C11.5221 24.0539 11.5028 24.1515 11.5029 24.25V24.827C11.5029 25.362 11.6949 25.88 12.0429 26.287C13.2959 27.756 15.2619 28.501 17.9999 28.501C18.5959 28.501 19.1559 28.466 19.6799 28.395C19.9249 28.89 20.2329 29.349 20.5919 29.762C19.7959 29.922 18.9319 30.002 17.9999 30.002C14.8539 30.002 12.4679 29.096 10.9019 27.262C10.322 26.5832 10.0032 25.7198 10.0029 24.827V24.249C10.0029 23.9536 10.0611 23.661 10.1742 23.3881C10.2873 23.1152 10.4531 22.8672 10.662 22.6584C10.8709 22.4495 11.119 22.2839 11.392 22.1709C11.6649 22.0579 11.9575 21.9999 12.2529 22H20.0229ZM17.9999 10.005C18.6565 10.005 19.3067 10.1343 19.9133 10.3856C20.52 10.6369 21.0712 11.0052 21.5355 11.4695C21.9998 11.9338 22.3681 12.485 22.6193 13.0916C22.8706 13.6982 22.9999 14.3484 22.9999 15.005C22.9999 15.6616 22.8706 16.3118 22.6193 16.9184C22.3681 17.525 21.9998 18.0762 21.5355 18.5405C21.0712 19.0048 20.52 19.3731 19.9133 19.6244C19.3067 19.8757 18.6565 20.005 17.9999 20.005C16.6738 20.005 15.4021 19.4782 14.4644 18.5405C13.5267 17.6029 12.9999 16.3311 12.9999 15.005C12.9999 13.6789 13.5267 12.4072 14.4644 11.4695C15.4021 10.5318 16.6738 10.005 17.9999 10.005ZM17.9999 11.505C17.5403 11.505 17.0852 11.5955 16.6605 11.7714C16.2359 11.9473 15.8501 12.2051 15.5251 12.5301C15.2001 12.8551 14.9422 13.241 14.7664 13.6656C14.5905 14.0903 14.4999 14.5454 14.4999 15.005C14.4999 15.4646 14.5905 15.9198 14.7664 16.3444C14.9422 16.769 15.2001 17.1549 15.5251 17.4799C15.8501 17.8049 16.2359 18.0627 16.6605 18.2386C17.0852 18.4145 17.5403 18.505 17.9999 18.505C18.9282 18.505 19.8184 18.1363 20.4748 17.4799C21.1312 16.8235 21.4999 15.9333 21.4999 15.005C21.4999 14.0767 21.1312 13.1865 20.4748 12.5301C19.8184 11.8738 18.9282 11.505 17.9999 11.505Z" fill="#0F0F0F"/>
</svg>
