<svg width="40" height="40" viewBox="0 0 40 40" fill="none" xmlns="http://www.w3.org/2000/svg">
<circle cx="20" cy="20" r="20" fill="#E2FBD7"/>
<path d="M13.25 12H26.75C27.5801 11.9999 28.3788 12.3176 28.9822 12.8877C29.5856 13.4578 29.948 14.2372 29.995 15.066L30 15.25V24.75C30.0001 25.5801 29.6824 26.3788 29.1123 26.9822C28.5422 27.5856 27.7628 27.948 26.934 27.995L26.75 28H13.25C12.4199 28.0001 11.6212 27.6824 11.0178 27.1123C10.4144 26.5422 10.052 25.7628 10.005 24.934L10 24.75V15.25C9.99995 14.4199 10.3176 13.6212 10.8877 13.0178C11.4578 12.4144 12.2372 12.052 13.066 12.005L13.25 12H26.75H13.25ZM28.5 17.373L20.35 21.663C20.258 21.7116 20.1568 21.7405 20.053 21.7479C19.9492 21.7553 19.845 21.7411 19.747 21.706L19.651 21.664L11.5 17.374V24.75C11.5 25.1892 11.6652 25.6123 11.9627 25.9354C12.2602 26.2585 12.6683 26.4579 13.106 26.494L13.25 26.5H26.75C27.1893 26.5 27.6126 26.3347 27.9357 26.037C28.2588 25.7392 28.4581 25.3309 28.494 24.893L28.5 24.75V17.373ZM26.75 13.5H13.25C12.8108 13.5 12.3877 13.6652 12.0646 13.9627C11.7415 14.2602 11.5421 14.6683 11.506 15.106L11.5 15.25V15.679L20 20.152L28.5 15.678V15.25C28.5 14.8107 28.3347 14.3874 28.037 14.0643C27.7392 13.7412 27.3309 13.5419 26.893 13.506L26.75 13.5Z" fill="#0F0F0F"/>
</svg>
