<svg width="40" height="40" viewBox="0 0 40 40" fill="none" xmlns="http://www.w3.org/2000/svg">
<circle cx="20" cy="20" r="20" fill="#E2FBD7"/>
<path d="M11 13.75C11 13.5511 11.079 13.3603 11.2197 13.2197C11.3603 13.079 11.5511 13 11.75 13C14.413 13 17.008 12.057 19.55 10.15C19.6798 10.0526 19.8377 10 20 10C20.1623 10 20.3202 10.0526 20.45 10.15C22.992 12.057 25.587 13 28.25 13C28.4489 13 28.6397 13.079 28.7803 13.2197C28.921 13.3603 29 13.5511 29 13.75V19C29 19.338 28.986 19.67 28.96 19.996C28.5022 19.7076 28.01 19.4778 27.495 19.312C27.498 19.209 27.5 19.105 27.5 19V14.478C24.923 14.326 22.42 13.388 20 11.678C17.58 13.388 15.077 14.326 12.5 14.478V19C12.5 23.149 14.832 26.221 19.625 28.285C19.887 28.8363 20.2254 29.348 20.63 29.805L20.275 29.948C20.0983 30.0176 19.9017 30.0176 19.725 29.948C13.958 27.676 11 24 11 19V13.75ZM31 25.5C31 26.9587 30.4205 28.3576 29.3891 29.3891C28.3576 30.4205 26.9587 31 25.5 31C24.0413 31 22.6424 30.4205 21.6109 29.3891C20.5795 28.3576 20 26.9587 20 25.5C20 24.0413 20.5795 22.6424 21.6109 21.6109C22.6424 20.5795 24.0413 20 25.5 20C26.9587 20 28.3576 20.5795 29.3891 21.6109C30.4205 22.6424 31 24.0413 31 25.5ZM28.854 23.146C28.8076 23.0994 28.7524 23.0625 28.6916 23.0373C28.6309 23.0121 28.5658 22.9991 28.5 22.9991C28.4342 22.9991 28.3691 23.0121 28.3084 23.0373C28.2476 23.0625 28.1924 23.0994 28.146 23.146L24.5 26.793L22.854 25.146C22.7601 25.0521 22.6328 24.9994 22.5 24.9994C22.3672 24.9994 22.2399 25.0521 22.146 25.146C22.0521 25.2399 21.9994 25.3672 21.9994 25.5C21.9994 25.6328 22.0521 25.7601 22.146 25.854L24.146 27.854C24.1924 27.9006 24.2476 27.9375 24.3084 27.9627C24.3691 27.9879 24.4342 28.0009 24.5 28.0009C24.5658 28.0009 24.6309 27.9879 24.6916 27.9627C24.7524 27.9375 24.8076 27.9006 24.854 27.854L28.854 23.854C28.9006 23.8076 28.9375 23.7524 28.9627 23.6916C28.9879 23.6309 29.0009 23.5658 29.0009 23.5C29.0009 23.4342 28.9879 23.3691 28.9627 23.3084C28.9375 23.2476 28.9006 23.1924 28.854 23.146Z" fill="#0F0F0F"/>
</svg>
