<svg width="40" height="40" viewBox="0 0 40 40" fill="none" xmlns="http://www.w3.org/2000/svg">
<circle cx="20" cy="20" r="20" fill="#E2FBD7"/>
<path d="M25.7539 21.9999C26.0493 21.9999 26.3419 22.0581 26.6148 22.1712C26.8877 22.2842 27.1357 22.45 27.3446 22.6589C27.5534 22.8679 27.719 23.1159 27.832 23.3889C27.945 23.6619 28.0031 23.9544 28.0029 24.2499V24.8249C28.0029 25.7189 27.6829 26.5839 27.1019 27.2629C25.5319 29.0959 23.1449 30.0009 19.9999 30.0009C16.8539 30.0009 14.4679 29.0959 12.9019 27.2609C12.3222 26.5824 12.0034 25.7193 12.0029 24.8269V24.2489C12.0029 23.9534 12.0611 23.6609 12.1742 23.388C12.2873 23.1151 12.4531 22.8671 12.662 22.6582C12.8709 22.4494 13.119 22.2837 13.392 22.1708C13.6649 22.0578 13.9575 21.9997 14.2529 21.9999H25.7539ZM25.7539 23.4999H14.2519C14.1535 23.4999 14.056 23.5193 13.9651 23.557C13.8741 23.5947 13.7915 23.6499 13.722 23.7196C13.6524 23.7893 13.5972 23.8719 13.5597 23.9629C13.5221 24.0539 13.5028 24.1514 13.5029 24.2499V24.8269C13.5029 25.3619 13.6949 25.8799 14.0429 26.2869C15.2959 27.7559 17.2619 28.5009 19.9999 28.5009C22.7379 28.5009 24.7059 27.7559 25.9619 26.2879C26.3106 25.8802 26.5021 25.3613 26.5019 24.8249V24.2489C26.5019 24.0504 26.4231 23.86 26.2829 23.7196C26.1426 23.5792 25.9524 23.5001 25.7539 23.4999ZM19.9999 10.0049C20.6565 10.0049 21.3067 10.1342 21.9133 10.3855C22.52 10.6368 23.0712 11.0051 23.5355 11.4693C23.9998 11.9336 24.368 12.4848 24.6193 13.0915C24.8706 13.6981 24.9999 14.3483 24.9999 15.0049C24.9999 15.6615 24.8706 16.3117 24.6193 16.9183C24.368 17.5249 23.9998 18.0761 23.5355 18.5404C23.0712 19.0047 22.52 19.373 21.9133 19.6243C21.3067 19.8755 20.6565 20.0049 19.9999 20.0049C18.6738 20.0049 17.4021 19.4781 16.4644 18.5404C15.5267 17.6027 14.9999 16.331 14.9999 15.0049C14.9999 13.6788 15.5267 12.407 16.4644 11.4693C17.4021 10.5317 18.6738 10.0049 19.9999 10.0049ZM19.9999 11.5049C19.5403 11.5049 19.0852 11.5954 18.6605 11.7713C18.2359 11.9472 17.8501 12.205 17.5251 12.53C17.2 12.855 16.9422 13.2408 16.7663 13.6655C16.5905 14.0901 16.4999 14.5453 16.4999 15.0049C16.4999 15.4645 16.5905 15.9196 16.7663 16.3443C16.9422 16.7689 17.2 17.1547 17.5251 17.4797C17.8501 17.8048 18.2359 18.0626 18.6605 18.2385C19.0852 18.4143 19.5403 18.5049 19.9999 18.5049C20.9282 18.5049 21.8184 18.1361 22.4748 17.4797C23.1312 16.8234 23.4999 15.9331 23.4999 15.0049C23.4999 14.0766 23.1312 13.1864 22.4748 12.53C21.8184 11.8736 20.9282 11.5049 19.9999 11.5049Z" fill="#0F0F0F"/>
</svg>
