<svg width="708" height="544" viewBox="0 0 708 544" fill="none" xmlns="http://www.w3.org/2000/svg">
<path d="M320 345C322.761 345 325 342.761 325 340C325 337.239 322.761 335 320 335C317.239 335 315 337.239 315 340C315 342.761 317.239 345 320 345Z" fill="#4B4B4B"/>
<path d="M5 440C7.76142 440 10 437.761 10 435C10 432.239 7.76142 430 5 430C2.23858 430 0 432.239 0 435C0 437.761 2.23858 440 5 440Z" fill="#4B4B4B"/>
<path d="M5 440V402.789C5 393.953 12.1634 386.789 21 386.789H304C312.837 386.789 320 379.626 320 370.789V335" stroke="#4B4B4B"/>
<path d="M320 199C322.761 199 325 201.239 325 204C325 206.761 322.761 209 320 209C317.239 209 315 206.761 315 204C315 201.239 317.239 199 320 199Z" fill="#4B4B4B"/>
<path d="M5 104C7.76142 104 10 106.239 10 109C10 111.761 7.76142 114 5 114C2.23858 114 0 111.761 0 109C0 106.239 2.23858 104 5 104Z" fill="#4B4B4B"/>
<path d="M5 104V141.211C5 150.047 12.1634 157.211 21 157.211H304C312.837 157.211 320 164.374 320 173.211V209" stroke="#4B4B4B"/>
<rect x="106" y="505" width="146" height="1" fill="#4B4B4B"/>
<path d="M242 505C242 502.234 244.234 500 247 500C249.766 500 252 502.234 252 505C252 507.766 249.766 510 247 510C244.234 510 242 507.766 242 505Z" fill="#4B4B4B"/>
<path d="M106 505C106 502.234 108.234 500 111 500C113.766 500 116 502.234 116 505C116 507.766 113.766 510 111 510C108.234 510 106 507.766 106 505Z" fill="#4B4B4B"/>
<rect x="106" y="539" width="146" height="1" fill="#4B4B4B"/>
<path d="M242 539C242 536.234 244.234 534 247 534C249.766 534 252 536.234 252 539C252 541.766 249.766 544 247 544C244.234 544 242 541.766 242 539Z" fill="#4B4B4B"/>
<path d="M106 539C106 536.234 108.234 534 111 534C113.766 534 116 536.234 116 539C116 541.766 113.766 544 111 544C108.234 544 106 541.766 106 539Z" fill="#4B4B4B"/>
<rect x="106" y="5" width="146" height="1" fill="#4B4B4B"/>
<path d="M242 5C242 2.23405 244.234 0 247 0C249.766 0 252 2.23405 252 5C252 7.76595 249.766 10 247 10C244.234 10 242 7.76595 242 5Z" fill="#4B4B4B"/>
<path d="M106 5C106 2.23405 108.234 0 111 0C113.766 0 116 2.23405 116 5C116 7.76595 113.766 10 111 10C108.234 10 106 7.76595 106 5Z" fill="#4B4B4B"/>
<rect x="106" y="39" width="146" height="1" fill="#4B4B4B"/>
<path d="M242 39C242 36.234 244.234 34 247 34C249.766 34 252 36.234 252 39C252 41.766 249.766 44 247 44C244.234 44 242 41.766 242 39Z" fill="#4B4B4B"/>
<path d="M106 39C106 36.234 108.234 34 111 34C113.766 34 116 36.234 116 39C116 41.766 113.766 44 111 44C108.234 44 106 41.766 106 39Z" fill="#4B4B4B"/>
<rect x="455" y="505" width="146" height="1" fill="#4B4B4B"/>
<path d="M591 505C591 502.234 593.234 500 596 500C598.766 500 601 502.234 601 505C601 507.766 598.766 510 596 510C593.234 510 591 507.766 591 505Z" fill="#4B4B4B"/>
<path d="M455 505C455 502.234 457.234 500 460 500C462.766 500 465 502.234 465 505C465 507.766 462.766 510 460 510C457.234 510 455 507.766 455 505Z" fill="#4B4B4B"/>
<rect x="455" y="539" width="146" height="1" fill="#4B4B4B"/>
<path d="M591 539C591 536.234 593.234 534 596 534C598.766 534 601 536.234 601 539C601 541.766 598.766 544 596 544C593.234 544 591 541.766 591 539Z" fill="#4B4B4B"/>
<path d="M455 539C455 536.234 457.234 534 460 534C462.766 534 465 536.234 465 539C465 541.766 462.766 544 460 544C457.234 544 455 541.766 455 539Z" fill="#4B4B4B"/>
<rect x="455" y="5" width="146" height="1" fill="#4B4B4B"/>
<path d="M591 5C591 2.23405 593.234 0 596 0C598.766 0 601 2.23405 601 5C601 7.76595 598.766 10 596 10C593.234 10 591 7.76595 591 5Z" fill="#4B4B4B"/>
<path d="M455 5C455 2.23405 457.234 0 460 0C462.766 0 465 2.23405 465 5C465 7.76595 462.766 10 460 10C457.234 10 455 7.76595 455 5Z" fill="#4B4B4B"/>
<rect x="455" y="39" width="146" height="1" fill="#4B4B4B"/>
<path d="M591 39C591 36.234 593.234 34 596 34C598.766 34 601 36.234 601 39C601 41.766 598.766 44 596 44C593.234 44 591 41.766 591 39Z" fill="#4B4B4B"/>
<path d="M455 39C455 36.234 457.234 34 460 34C462.766 34 465 36.234 465 39C465 41.766 462.766 44 460 44C457.234 44 455 41.766 455 39Z" fill="#4B4B4B"/>
<path d="M354 335C353.72 335 353.5 335.595 353.5 336.353V438.647C353.5 439.405 353.72 440 354 440C354.28 440 354.5 439.405 354.5 438.647V336.353C354.5 335.595 354.27 335 354 335Z" fill="#4B4B4B"/>
<path d="M349 435C349 437.766 351.234 440 354 440C356.766 440 359 437.766 359 435C359 432.234 356.766 430 354 430C351.234 430 349 432.234 349 435Z" fill="#4B4B4B"/>
<path d="M349 340C349 337.234 351.234 335 354 335C356.766 335 359 337.234 359 340C359 342.766 356.766 345 354 345C351.234 345 349 342.766 349 340Z" fill="#4B4B4B"/>
<path d="M354 209C353.72 209 353.5 208.405 353.5 207.647V105.353C353.5 104.595 353.72 104 354 104C354.28 104 354.5 104.595 354.5 105.353V207.647C354.5 208.405 354.27 209 354 209Z" fill="#4B4B4B"/>
<path d="M349 109C349 106.234 351.234 104 354 104C356.766 104 359 106.234 359 109C359 111.766 356.766 114 354 114C351.234 114 349 111.766 349 109Z" fill="#4B4B4B"/>
<path d="M349 204C349 206.766 351.234 209 354 209C356.766 209 359 206.766 359 204C359 201.234 356.766 199 354 199C351.234 199 349 201.234 349 204Z" fill="#4B4B4B"/>
<path d="M703 430C705.761 430 708 432.239 708 435C708 437.761 705.761 440 703 440C700.239 440 698 437.761 698 435C698 432.239 700.239 430 703 430Z" fill="#4B4B4B"/>
<path d="M388 335C390.761 335 393 337.239 393 340C393 342.761 390.761 345 388 345C385.239 345 383 342.761 383 340C383 337.239 385.239 335 388 335Z" fill="#4B4B4B"/>
<path d="M388 335V372.211C388 381.047 395.163 388.211 404 388.211H687C695.837 388.211 703 395.374 703 404.211V440" stroke="#4B4B4B"/>
<path d="M703 114C705.761 114 708 111.761 708 109C708 106.239 705.761 104 703 104C700.239 104 698 106.239 698 109C698 111.761 700.239 114 703 114Z" fill="#4B4B4B"/>
<path d="M388 209C390.761 209 393 206.761 393 204C393 201.239 390.761 199 388 199C385.239 199 383 201.239 383 204C383 206.761 385.239 209 388 209Z" fill="#4B4B4B"/>
<path d="M388 209V171.789C388 162.953 395.163 155.789 404 155.789H687C695.837 155.789 703 148.626 703 139.789V104" stroke="#4B4B4B"/>
</svg>
