<svg width="335" height="508" viewBox="0 0 335 508" fill="none" xmlns="http://www.w3.org/2000/svg">
<rect x="0.5" y="0.5" width="105" height="153" rx="7.5" fill="#2D2D2D" stroke="#4B4B4B"/>
<path d="M22.1088 98.4C22.1088 97.6 22.2848 96.9067 22.6368 96.32C22.9994 95.7227 23.4688 95.264 24.0448 94.944C24.6314 94.6133 25.2661 94.448 25.9488 94.448C26.4821 94.448 26.9621 94.5173 27.3888 94.656C27.8154 94.7947 28.1994 94.9867 28.5408 95.232C28.8928 95.4667 29.1968 95.7333 29.4528 96.032V93.792C28.9834 93.408 28.4768 93.1147 27.9328 92.912C27.3888 92.7093 26.7061 92.608 25.8848 92.608C25.0634 92.608 24.2954 92.7467 23.5807 93.024C22.8768 93.3013 22.2634 93.7013 21.7408 94.224C21.2181 94.7467 20.8074 95.3653 20.5088 96.08C20.2208 96.784 20.0768 97.5573 20.0768 98.4C20.0768 99.2427 20.2208 100.021 20.5088 100.736C20.8074 101.44 21.2181 102.053 21.7408 102.576C22.2634 103.099 22.8768 103.499 23.5807 103.776C24.2954 104.053 25.0634 104.192 25.8848 104.192C26.7061 104.192 27.3888 104.091 27.9328 103.888C28.4768 103.685 28.9834 103.392 29.4528 103.008V100.768C29.1968 101.067 28.8928 101.339 28.5408 101.584C28.1994 101.819 27.8154 102.005 27.3888 102.144C26.9621 102.283 26.4821 102.352 25.9488 102.352C25.2661 102.352 24.6314 102.192 24.0448 101.872C23.4688 101.541 22.9994 101.077 22.6368 100.48C22.2848 99.8827 22.1088 99.1893 22.1088 98.4ZM30.6113 96.64V98.16H35.2673V96.64H30.6113ZM32.0993 96.96V104H33.7953V96.96H32.0993ZM36.6774 100.72H43.1414C43.1627 100.624 43.1734 100.539 43.1734 100.464C43.1734 100.379 43.1734 100.304 43.1734 100.24C43.1734 99.4613 43.024 98.7947 42.7254 98.24C42.4267 97.6747 42 97.2427 41.4454 96.944C40.9014 96.6347 40.2507 96.48 39.4934 96.48C38.8 96.48 38.1867 96.608 37.6534 96.864C37.12 97.12 36.688 97.4773 36.3574 97.936C36.0374 98.3947 35.824 98.928 35.7174 99.536C35.696 99.664 35.68 99.792 35.6694 99.92C35.6587 100.048 35.6534 100.181 35.6534 100.32C35.6534 101.056 35.808 101.717 36.1174 102.304C36.4267 102.88 36.864 103.333 37.4294 103.664C37.9947 103.995 38.656 104.16 39.4134 104.16C40.0854 104.16 40.6454 104.08 41.0934 103.92C41.552 103.749 41.936 103.515 42.2454 103.216C42.5654 102.917 42.848 102.571 43.0934 102.176L41.6054 101.568C41.4667 101.803 41.296 102.011 41.0934 102.192C40.8907 102.363 40.656 102.496 40.3894 102.592C40.1334 102.688 39.8347 102.736 39.4934 102.736C39.0774 102.736 38.7094 102.651 38.3894 102.48C38.08 102.299 37.8347 102.032 37.6534 101.68C37.4827 101.317 37.3974 100.864 37.3974 100.32L37.4294 99.872C37.4294 99.4453 37.52 99.0773 37.7014 98.768C37.8827 98.448 38.128 98.208 38.4374 98.048C38.7467 97.8773 39.0934 97.792 39.4774 97.792C39.8507 97.792 40.1654 97.8667 40.4214 98.016C40.6774 98.1547 40.8747 98.3573 41.0134 98.624C41.1627 98.88 41.2587 99.184 41.3014 99.536H36.6774V100.72ZM51.5104 98.24L51.5904 96.08L44.9824 102.4L44.9024 104.56L51.5104 98.24ZM46.5984 96.64H44.9024V104.56L46.5984 102.608V96.64ZM51.5904 96.08L49.8944 98.032V104H51.5904V96.08ZM45.7504 92.88C45.7504 93.264 45.8464 93.632 46.0384 93.984C46.2304 94.336 46.5184 94.6187 46.9024 94.832C47.2864 95.0453 47.7557 95.152 48.3104 95.152C48.8757 95.152 49.345 95.0453 49.7184 94.832C50.1024 94.6187 50.3904 94.336 50.5824 93.984C50.785 93.632 50.8864 93.264 50.8864 92.88H49.5584C49.5584 93.04 49.5157 93.2053 49.4304 93.376C49.3557 93.5467 49.2277 93.6907 49.0464 93.808C48.865 93.9253 48.6197 93.984 48.3104 93.984C48.001 93.984 47.7557 93.9253 47.5744 93.808C47.393 93.6907 47.2597 93.5467 47.1744 93.376C47.0997 93.2053 47.0624 93.04 47.0624 92.88H45.7504ZM53.8056 96.64V104H55.5016V96.64H53.8056ZM58.2056 96.64L55.0216 99.68L58.5416 104H60.6376L57.1496 99.68L60.3176 96.64H58.2056ZM68.4635 98.24L68.5435 96.08L61.9355 102.4L61.8555 104.56L68.4635 98.24ZM63.5515 96.64H61.8555V104.56L63.5515 102.608V96.64ZM68.5435 96.08L66.8475 98.032V104H68.5435V96.08ZM71.5748 100.832H77.2068V99.408H71.5748V100.832ZM76.2788 96.64V104H77.9748V96.64H76.2788ZM70.8228 96.64V104H72.5188V96.64H70.8228ZM80.2461 96.64V104H81.9581V98.16H84.4701V96.64H80.2461Z" fill="#F3F3F3"/>
<path d="M60 51.5C60 51.1022 60.158 50.7206 60.4393 50.4393C60.7206 50.158 61.1022 50 61.5 50H65.5C65.8978 50 66.2794 50.158 66.5607 50.4393C66.842 50.7206 67 51.1022 67 51.5C67 51.8978 66.842 52.2794 66.5607 52.5607C66.2794 52.842 65.8978 53 65.5 53H61.5C61.1022 53 60.7206 52.842 60.4393 52.5607C60.158 52.2794 60 51.8978 60 51.5ZM35 34H35.028C35.151 32.9 35.6751 31.8839 36.5001 31.1459C37.3251 30.408 38.3931 30 39.5 30H62.5C63.0909 30 63.6761 30.1164 64.2221 30.3425C64.768 30.5687 65.2641 30.9002 65.682 31.318C66.0998 31.7359 66.4313 32.232 66.6575 32.7779C66.8836 33.3239 67 33.9091 67 34.5V36.174C68.4237 36.512 69.6917 37.3204 70.599 38.4683C71.5064 39.6163 72 41.0368 72 42.5V59.5C72 61.2239 71.3152 62.8772 70.0962 64.0962C68.8772 65.3152 67.2239 66 65.5 66H41.5C39.7761 66 38.1228 65.3152 36.9038 64.0962C35.6848 62.8772 35 61.2239 35 59.5V34ZM65.5 39H38V59.5C38 61.432 39.568 63 41.5 63H65.5C66.4283 63 67.3185 62.6312 67.9749 61.9749C68.6312 61.3185 69 60.4283 69 59.5V42.5C69 41.5717 68.6312 40.6815 67.9749 40.0251C67.3185 39.3687 66.4283 39 65.5 39ZM64 36V34.5C64 34.1022 63.842 33.7206 63.5607 33.4393C63.2794 33.158 62.8978 33 62.5 33H39.5C39.1022 33 38.7206 33.158 38.4393 33.4393C38.158 33.7206 38 34.1022 38 34.5C38 34.8978 38.158 35.2794 38.4393 35.5607C38.7206 35.842 39.1022 36 39.5 36H64Z" fill="#FFB200"/>
<rect x="114.5" y="0.5" width="106" height="153" rx="7.5" fill="#2D2D2D" stroke="#4B4B4B"/>
<path d="M154.521 92.8V104H156.425V92.8H154.521ZM158.928 92.8V104H160.848V92.8H158.928ZM162.544 104C163.685 104 164.688 103.771 165.552 103.312C166.416 102.843 167.088 102.192 167.568 101.36C168.058 100.517 168.304 99.5307 168.304 98.4C168.304 97.2693 168.058 96.288 167.568 95.456C167.088 94.6133 166.416 93.9627 165.552 93.504C164.688 93.0347 163.685 92.8 162.544 92.8H160.096V94.576H162.496C163.05 94.576 163.562 94.656 164.032 94.816C164.501 94.976 164.906 95.216 165.248 95.536C165.6 95.856 165.872 96.256 166.064 96.736C166.266 97.216 166.368 97.7707 166.368 98.4C166.368 99.0293 166.266 99.584 166.064 100.064C165.872 100.544 165.6 100.944 165.248 101.264C164.906 101.584 164.501 101.824 164.032 101.984C163.562 102.144 163.05 102.224 162.496 102.224H160.096V104H162.544ZM171.506 98.4C171.506 97.632 171.666 96.9493 171.986 96.352C172.317 95.744 172.77 95.2693 173.346 94.928C173.922 94.5867 174.578 94.416 175.314 94.416C176.072 94.416 176.733 94.5867 177.298 94.928C177.874 95.2693 178.322 95.744 178.642 96.352C178.962 96.9493 179.122 97.632 179.122 98.4C179.122 99.168 178.957 99.856 178.626 100.464C178.306 101.061 177.858 101.531 177.282 101.872C176.717 102.213 176.061 102.384 175.314 102.384C174.578 102.384 173.922 102.213 173.346 101.872C172.77 101.531 172.317 101.061 171.986 100.464C171.666 99.856 171.506 99.168 171.506 98.4ZM169.506 98.4C169.506 99.232 169.65 100.005 169.938 100.72C170.226 101.435 170.626 102.053 171.138 102.576C171.661 103.099 172.28 103.509 172.994 103.808C173.709 104.096 174.482 104.24 175.314 104.24C176.157 104.24 176.93 104.096 177.634 103.808C178.349 103.509 178.968 103.099 179.49 102.576C180.013 102.053 180.418 101.435 180.706 100.72C180.994 100.005 181.138 99.232 181.138 98.4C181.138 97.5573 180.994 96.784 180.706 96.08C180.418 95.376 180.008 94.768 179.474 94.256C178.952 93.7333 178.338 93.328 177.634 93.04C176.93 92.752 176.157 92.608 175.314 92.608C174.493 92.608 173.725 92.752 173.01 93.04C172.306 93.328 171.688 93.7333 171.154 94.256C170.632 94.768 170.226 95.376 169.938 96.08C169.65 96.784 169.506 97.5573 169.506 98.4Z" fill="#F3F3F3"/>
<path d="M177.498 28H186.606L186.806 28.028L187.004 28.084L187.124 28.136C187.284 28.204 187.43 28.306 187.562 28.436L187.642 28.524L187.73 28.638L187.838 28.818L187.916 28.998L187.954 29.126L187.982 29.254L188 29.444V38.508C188 38.888 187.856 39.2539 187.596 39.5316C187.337 39.8093 186.981 39.9781 186.602 40.0041C186.223 40.03 185.848 39.911 185.553 39.6711C185.259 39.4313 185.066 39.0885 185.014 38.712L185 38.508V33.118L172.12 45.998C171.866 46.252 171.529 46.4065 171.171 46.4333C170.813 46.4601 170.457 46.3574 170.168 46.144L170 46L163.94 40.18L152.56 51.558C152.292 51.8264 151.933 51.9835 151.554 51.9977C151.175 52.012 150.805 51.8823 150.518 51.6348C150.231 51.3872 150.049 51.0402 150.007 50.6635C149.965 50.2867 150.068 49.9082 150.294 49.604L150.44 49.436L162.88 36.996C163.134 36.7423 163.471 36.5882 163.829 36.5618C164.188 36.5353 164.543 36.6383 164.832 36.852L165 36.996L171.06 42.816L182.876 31H177.496C177.134 30.9995 176.784 30.868 176.511 30.6298C176.239 30.3916 176.061 30.0628 176.012 29.704L175.998 29.5C175.998 29.1375 176.129 28.7873 176.368 28.5141C176.606 28.241 176.935 28.0633 177.294 28.014L177.5 28H177.498ZM151.5 58C151.898 58 152.279 58.158 152.561 58.4393C152.842 58.7206 153 59.1022 153 59.5V66.5C153 66.8978 152.842 67.2794 152.561 67.5607C152.279 67.842 151.898 68 151.5 68C151.102 68 150.721 67.842 150.439 67.5607C150.158 67.2794 150 66.8978 150 66.5V59.5C150 59.1022 150.158 58.7206 150.439 58.4393C150.721 58.158 151.102 58 151.5 58ZM163 51.5C163 51.1022 162.842 50.7206 162.561 50.4393C162.279 50.158 161.898 50 161.5 50C161.102 50 160.721 50.158 160.439 50.4393C160.158 50.7206 160 51.1022 160 51.5V66.5C160 66.8978 160.158 67.2794 160.439 67.5607C160.721 67.842 161.102 68 161.5 68C161.898 68 162.279 67.842 162.561 67.5607C162.842 67.2794 163 66.8978 163 66.5V51.5ZM171.5 54C171.898 54 172.279 54.158 172.561 54.4393C172.842 54.7206 173 55.1022 173 55.5V66.5C173 66.8978 172.842 67.2794 172.561 67.5607C172.279 67.842 171.898 68 171.5 68C171.102 68 170.721 67.842 170.439 67.5607C170.158 67.2794 170 66.8978 170 66.5V55.5C170 55.1022 170.158 54.7206 170.439 54.4393C170.721 54.158 171.102 54 171.5 54ZM183 45.5C183 45.1022 182.842 44.7206 182.561 44.4393C182.279 44.158 181.898 44 181.5 44C181.102 44 180.721 44.158 180.439 44.4393C180.158 44.7206 180 45.1022 180 45.5V66.5C180 66.8978 180.158 67.2794 180.439 67.5607C180.721 67.842 181.102 68 181.5 68C181.898 68 182.279 67.842 182.561 67.5607C182.842 67.2794 183 66.8978 183 66.5V45.5Z" fill="#FFB200"/>
<rect x="229.5" y="0.5" width="105" height="153" rx="7.5" fill="#2D2D2D" stroke="#4B4B4B"/>
<path d="M276.705 92.8V100.32L268.529 92.24V104H270.385V96.48L278.561 104.56V92.8H276.705ZM282.213 94.496H287.221V92.8H282.213V94.496ZM282.213 98.944H287.061V97.296H282.213V98.944ZM281.045 92.8V104H282.901V92.8H281.045ZM287.784 94.544H290.728V104H292.632V94.544H295.592V92.8H287.784V94.544Z" fill="#F3F3F3"/>
<path d="M293.5 30C295.224 30 296.877 30.6848 298.096 31.9038C299.315 33.1228 300 34.7761 300 36.5V59.5C300 61.2239 299.315 62.8772 298.096 64.0962C296.877 65.3152 295.224 66 293.5 66H270.5C268.776 66 267.123 65.3152 265.904 64.0962C264.685 62.8772 264 61.2239 264 59.5V36.5C264 34.7761 264.685 33.1228 265.904 31.9038C267.123 30.6848 268.776 30 270.5 30H293.5ZM294.66 62.802L283.05 51.43C282.797 51.1818 282.464 51.0313 282.11 51.0053C281.756 50.9793 281.405 51.0795 281.118 51.288L280.95 51.428L269.336 62.802C269.7 62.93 270.092 63 270.5 63H293.5C293.906 63 294.298 62.93 294.66 62.802L283.05 51.43L294.66 62.8V62.802ZM293.5 33H270.5C269.572 33 268.682 33.3687 268.025 34.0251C267.369 34.6815 267 35.5717 267 36.5V59.5C267 59.916 267.072 60.316 267.206 60.688L278.852 49.286C279.65 48.5045 280.711 48.0478 281.827 48.0049C282.944 47.9621 284.036 48.336 284.892 49.054L285.148 49.286L296.792 60.69C296.926 60.318 297 59.918 297 59.5V36.5C297 35.5717 296.631 34.6815 295.975 34.0251C295.318 33.3687 294.428 33 293.5 33ZM288.504 37C289.699 37 290.844 37.4745 291.689 38.3192C292.533 39.1639 293.008 40.3095 293.008 41.504C293.008 42.6985 292.533 43.8441 291.689 44.6888C290.844 45.5335 289.699 46.008 288.504 46.008C287.309 46.008 286.164 45.5335 285.319 44.6888C284.475 43.8441 284 42.6985 284 41.504C284 40.3095 284.475 39.1639 285.319 38.3192C286.164 37.4745 287.309 37 288.504 37ZM288.504 40C288.105 40 287.723 40.1585 287.441 40.4405C287.158 40.7226 287 41.1051 287 41.504C287 41.9029 287.158 42.2854 287.441 42.5675C287.723 42.8495 288.105 43.008 288.504 43.008C288.903 43.008 289.285 42.8495 289.567 42.5675C289.85 42.2854 290.008 41.9029 290.008 41.504C290.008 41.1051 289.85 40.7226 289.567 40.4405C289.285 40.1585 288.903 40 288.504 40Z" fill="#FFB200"/>
<path d="M215.308 238.874V266.933H221.194V238.874H215.308ZM218.889 243.724H224.611C226.176 243.724 227.411 244.071 228.316 244.766C229.222 245.434 229.675 246.45 229.675 247.813C229.675 249.149 229.222 250.164 228.316 250.859C227.411 251.554 226.176 251.901 224.611 251.901H218.889V256.751H224.611C226.889 256.751 228.824 256.391 230.416 255.669C232.035 254.948 233.27 253.919 234.121 252.583C234.971 251.22 235.397 249.63 235.397 247.813C235.397 245.969 234.971 244.379 234.121 243.043C233.27 241.706 232.035 240.678 230.416 239.956C228.824 239.235 226.889 238.874 224.611 238.874H218.889V243.724Z" fill="#34B53A"/>
<path d="M236.935 257.713C236.935 259.611 237.388 261.294 238.293 262.764C239.226 264.207 240.475 265.329 242.039 266.131C243.631 266.933 245.429 267.334 247.432 267.334C249.436 267.334 251.219 266.933 252.784 266.131C254.375 265.329 255.624 264.207 256.53 262.764C257.463 261.294 257.929 259.611 257.929 257.713C257.929 255.789 257.463 254.106 256.53 252.663C255.624 251.22 254.375 250.097 252.784 249.296C251.219 248.494 249.436 248.093 247.432 248.093C245.429 248.093 243.631 248.494 242.039 249.296C240.475 250.097 239.226 251.22 238.293 252.663C237.388 254.106 236.935 255.789 236.935 257.713ZM242.369 257.713C242.369 256.671 242.588 255.749 243.027 254.948C243.494 254.146 244.111 253.531 244.88 253.104C245.648 252.676 246.499 252.462 247.432 252.462C248.365 252.462 249.216 252.676 249.984 253.104C250.753 253.531 251.357 254.146 251.796 254.948C252.262 255.749 252.496 256.671 252.496 257.713C252.496 258.756 252.262 259.678 251.796 260.479C251.357 261.254 250.753 261.869 249.984 262.323C249.216 262.751 248.365 262.964 247.432 262.964C246.499 262.964 245.648 262.751 244.88 262.323C244.111 261.869 243.494 261.254 243.027 260.479C242.588 259.678 242.369 258.756 242.369 257.713Z" fill="#34B53A"/>
<path d="M260.653 257.713C260.653 259.611 261.106 261.294 262.012 262.764C262.945 264.207 264.194 265.329 265.758 266.131C267.35 266.933 269.147 267.334 271.151 267.334C273.154 267.334 274.938 266.933 276.502 266.131C278.094 265.329 279.343 264.207 280.249 262.764C281.182 261.294 281.648 259.611 281.648 257.713C281.648 255.789 281.182 254.106 280.249 252.663C279.343 251.22 278.094 250.097 276.502 249.296C274.938 248.494 273.154 248.093 271.151 248.093C269.147 248.093 267.35 248.494 265.758 249.296C264.194 250.097 262.945 251.22 262.012 252.663C261.106 254.106 260.653 255.789 260.653 257.713ZM266.087 257.713C266.087 256.671 266.307 255.749 266.746 254.948C267.213 254.146 267.83 253.531 268.599 253.104C269.367 252.676 270.218 252.462 271.151 252.462C272.084 252.462 272.935 252.676 273.703 253.104C274.472 253.531 275.075 254.146 275.514 254.948C275.981 255.749 276.214 256.671 276.214 257.713C276.214 258.756 275.981 259.678 275.514 260.479C275.075 261.254 274.472 261.869 273.703 262.323C272.935 262.751 272.084 262.964 271.151 262.964C270.218 262.964 269.367 262.751 268.599 262.323C267.83 261.869 267.213 261.254 266.746 260.479C266.307 259.678 266.087 258.756 266.087 257.713Z" fill="#34B53A"/>
<path d="M285.648 235.667V266.933H291V235.667H285.648Z" fill="#34B53A"/>
<path d="M103.49 239.369V266.94H109.374V239.369H103.49ZM107.07 244.135H112.79C114.354 244.135 115.588 244.476 116.494 245.159C117.399 245.816 117.852 246.813 117.852 248.152C117.852 249.465 117.399 250.463 116.494 251.146C115.588 251.829 114.354 252.17 112.79 252.17H107.07V256.936H112.79C115.067 256.936 117.001 256.581 118.593 255.872C120.211 255.163 121.446 254.152 122.296 252.839C123.147 251.5 123.572 249.938 123.572 248.152C123.572 246.341 123.147 244.778 122.296 243.465C121.446 242.153 120.211 241.142 118.593 240.433C117.001 239.724 115.067 239.369 112.79 239.369H107.07V244.135Z" fill="#F3F3F3"/>
<path d="M132.054 248.822H126.827V266.94H132.054V248.822ZM137.609 254.139L140.037 249.807C139.653 249.334 139.146 248.98 138.515 248.743C137.911 248.507 137.266 248.389 136.581 248.389C135.593 248.389 134.633 248.73 133.7 249.413C132.767 250.069 132.013 250.962 131.436 252.091C130.86 253.194 130.572 254.467 130.572 255.912L132.054 257.33C132.054 256.463 132.163 255.728 132.383 255.124C132.63 254.494 132.987 254.008 133.453 253.667C133.919 253.325 134.482 253.155 135.14 253.155C135.689 253.155 136.142 253.246 136.498 253.43C136.882 253.588 137.253 253.824 137.609 254.139Z" fill="#F3F3F3"/>
<path d="M140.984 257.881C140.984 259.745 141.437 261.399 142.342 262.844C143.275 264.262 144.523 265.364 146.087 266.152C147.678 266.94 149.475 267.334 151.478 267.334C153.481 267.334 155.264 266.94 156.828 266.152C158.419 265.364 159.667 264.262 160.573 262.844C161.505 261.399 161.972 259.745 161.972 257.881C161.972 255.99 161.505 254.336 160.573 252.918C159.667 251.5 158.419 250.398 156.828 249.61C155.264 248.822 153.481 248.428 151.478 248.428C149.475 248.428 147.678 248.822 146.087 249.61C144.523 250.398 143.275 251.5 142.342 252.918C141.437 254.336 140.984 255.99 140.984 257.881ZM146.416 257.881C146.416 256.857 146.636 255.951 147.074 255.163C147.541 254.376 148.158 253.772 148.926 253.351C149.695 252.931 150.545 252.721 151.478 252.721C152.411 252.721 153.261 252.931 154.029 253.351C154.797 253.772 155.401 254.376 155.84 255.163C156.306 255.951 156.54 256.857 156.54 257.881C156.54 258.905 156.306 259.811 155.84 260.599C155.401 261.36 154.797 261.964 154.029 262.41C153.261 262.83 152.411 263.041 151.478 263.041C150.545 263.041 149.695 262.83 148.926 262.41C148.158 261.964 147.541 261.36 147.074 260.599C146.636 259.811 146.416 258.905 146.416 257.881Z" fill="#F3F3F3"/>
<path d="M164.366 248.822V253.115H176.218V248.822H164.366ZM175.642 241.339L177.905 237.518C177.658 237.256 177.315 236.98 176.876 236.691C176.465 236.402 175.957 236.166 175.353 235.982C174.75 235.772 174.023 235.667 173.172 235.667C171.746 235.667 170.539 235.93 169.551 236.455C168.563 236.954 167.823 237.676 167.329 238.621C166.835 239.566 166.588 240.735 166.588 242.126V266.94H171.732V243.269C171.732 242.586 171.814 242.021 171.979 241.575C172.144 241.129 172.363 240.813 172.637 240.63C172.939 240.42 173.296 240.315 173.707 240.315C174.037 240.315 174.366 240.393 174.695 240.551C175.052 240.682 175.367 240.945 175.642 241.339Z" fill="#F3F3F3"/>
<path d="M179.147 241.811C179.147 242.625 179.462 243.308 180.093 243.859C180.724 244.411 181.479 244.686 182.357 244.686C183.234 244.686 183.975 244.411 184.579 243.859C185.21 243.308 185.525 242.625 185.525 241.811C185.525 240.971 185.21 240.288 184.579 239.763C183.975 239.212 183.234 238.936 182.357 238.936C181.479 238.936 180.724 239.212 180.093 239.763C179.462 240.288 179.147 240.971 179.147 241.811ZM179.723 248.822V266.94H184.908V248.822H179.723Z" fill="#F3F3F3"/>
<path d="M188.138 248.822V253.115H199.825V248.822H188.138ZM191.389 242.52V266.94H196.533V242.52H191.389Z" fill="#F3F3F3"/>
<path d="M74.5848 259.669C74.5848 260.787 74.4423 261.904 74.1751 262.995C74.1484 263.103 74.1262 263.215 74.095 263.323C74.095 263.328 74.0905 263.332 74.0905 263.336C73.4449 265.709 72.1714 267.939 70.2522 269.803C68.7204 271.287 66.9482 272.37 65.0557 273.064C65.0513 273.069 65.0513 273.069 65.0468 273.069C63.3592 273.686 61.5736 273.996 59.788 273.996C56.1323 273.996 52.4898 272.693 49.6445 270.092C49.5421 269.997 49.4352 269.898 49.3328 269.803C49.2348 269.704 49.1324 269.604 49.0344 269.501C46.3449 266.744 45.0046 263.215 45.0046 259.673C45.0046 259.294 45.0224 258.914 45.0536 258.539C45.6236 259.311 46.2692 260.049 46.9861 260.743C49.3239 263.013 52.1559 264.531 55.1482 265.295C55.1526 265.299 55.1615 265.299 55.1704 265.299C56.1189 265.541 57.0807 265.709 58.0514 265.799C58.2518 265.817 58.4611 265.83 58.6615 265.847C59.0355 265.868 59.4095 265.877 59.7836 265.877C59.788 265.877 59.797 265.881 59.8014 265.881C60.83 265.881 61.8541 265.795 62.8694 265.627C63.8846 265.459 64.8865 265.204 65.8662 264.863C65.9908 264.82 66.1155 264.781 66.2402 264.738H66.2446C68.569 263.884 70.7465 262.547 72.6167 260.739C73.3336 260.045 73.9748 259.307 74.5447 258.53C74.5581 258.69 74.5715 258.854 74.5804 259.018C74.5804 259.233 74.5848 259.449 74.5848 259.669Z" fill="#34B53A"/>
<path d="M86.2867 248.319C86.2867 248.698 86.2689 249.082 86.2377 249.462C85.6633 248.69 85.0221 247.952 84.3052 247.257C81.963 244.988 79.1354 243.47 76.1431 242.706C76.1387 242.702 76.1298 242.702 76.1209 242.702C74.9854 242.408 73.8232 242.227 72.6566 242.154C72.2692 242.132 71.8773 242.119 71.4899 242.119C71.2183 242.119 70.9422 242.124 70.6706 242.136C70.3144 242.154 69.9581 242.18 69.6019 242.214C69.3615 242.236 69.1255 242.266 68.8895 242.3C68.7737 242.318 68.6535 242.335 68.5377 242.357C68.4843 242.361 68.4308 242.369 68.3818 242.378C68.3685 242.382 68.3596 242.382 68.3462 242.382C68.2928 242.391 68.2393 242.4 68.1859 242.413C68.0701 242.434 67.9499 242.456 67.8341 242.477C67.7184 242.499 67.5982 242.529 67.4824 242.555C67.42 242.568 67.3666 242.581 67.3087 242.594C67.2775 242.602 67.2464 242.607 67.2197 242.615C67.1885 242.62 67.1618 242.628 67.1306 242.637C67.0148 242.663 66.8946 242.693 66.7788 242.723C66.6319 242.762 66.4894 242.801 66.3425 242.84C66.3291 242.844 66.3113 242.848 66.2979 242.853C66.2846 242.857 66.2756 242.861 66.2623 242.866C66.2578 242.866 66.2489 242.87 66.24 242.87C66.2356 242.87 66.2356 242.87 66.2311 242.874C66.2089 242.878 66.1777 242.887 66.151 242.896C66.1376 242.9 66.1287 242.9 66.1198 242.904C66.1065 242.909 66.0975 242.913 66.0842 242.917C66.0129 242.939 65.9461 242.96 65.8749 242.982C65.8125 243.004 65.7547 243.021 65.6968 243.042C65.6879 243.047 65.6745 243.047 65.6656 243.051C65.6344 243.06 65.6033 243.073 65.5766 243.081C65.5454 243.09 65.5142 243.103 65.4875 243.111C65.4563 243.12 65.4296 243.133 65.3985 243.142C65.2827 243.18 65.1714 243.219 65.06 243.262H65.0556C62.7312 244.117 60.5538 245.454 58.688 247.262C57.9711 247.956 57.3254 248.694 56.7555 249.466C56.7421 249.306 56.7332 249.147 56.7243 248.987C56.7154 248.772 56.711 248.556 56.711 248.34C56.711 248.185 56.7243 248.034 56.7243 247.879C56.7555 246.899 56.8935 245.916 57.134 244.958C57.1562 244.863 57.1741 244.772 57.2008 244.677C57.2008 244.673 57.2008 244.673 57.2052 244.669C57.8509 242.296 59.1244 240.066 61.0436 238.202C62.5753 236.718 64.3476 235.635 66.2445 234.941C67.9455 234.315 69.7444 234.009 71.5523 234.009C75.1858 234.009 78.8148 235.316 81.6557 237.913C81.7582 238.008 81.8606 238.103 81.963 238.202V238.206C82.0654 238.301 82.1634 238.4 82.2658 238.504C84.9419 241.256 86.2867 244.781 86.2867 248.319Z" fill="#34B53A"/>
<path d="M58.6836 260.743C59.4005 261.437 60.1619 262.063 60.959 262.615C60.5716 262.645 60.1842 262.663 59.7968 262.663C58.5277 262.663 57.2542 262.503 56.0208 262.188C56.0163 262.188 56.0119 262.184 56.0074 262.184C53.5628 261.558 51.2563 260.324 49.3326 258.465C47.8009 256.981 46.6787 255.264 45.9618 253.431C45.3206 251.791 45 250.057 45 248.323C45 244.785 46.3448 241.256 49.0298 238.495C49.1278 238.396 49.2302 238.297 49.3326 238.198C49.4306 238.098 49.5375 238.003 49.6399 237.904C52.4897 235.299 56.1321 234 59.7923 234C60.1842 234 60.5716 234.017 60.9634 234.047C60.9456 234.06 60.9278 234.069 60.91 234.086C60.1308 234.63 59.3871 235.242 58.6836 235.92C56.3414 238.189 54.7695 240.933 53.9858 243.827C53.9814 243.832 53.9814 243.84 53.9769 243.845C53.5762 245.316 53.3802 246.826 53.3802 248.336C53.3802 250.45 53.7721 252.563 54.5603 254.569C55.4375 256.821 56.8178 258.935 58.6836 260.743Z" fill="#FF3A29"/>
<path d="M86.2867 259.677C86.2867 263.214 84.942 266.743 82.2569 269.504C82.1589 269.604 82.0565 269.703 81.9541 269.802C81.8517 269.901 81.7493 269.996 81.6469 270.095C78.7971 272.701 75.1591 274 71.5033 274C71.1114 274 70.7151 273.982 70.3277 273.952C71.1248 273.4 71.8863 272.774 72.6032 272.084C74.9409 269.815 76.5127 267.075 77.3009 264.176C77.3053 264.168 77.3054 264.163 77.3054 264.155C77.4567 263.603 77.577 263.046 77.6705 262.485C77.7328 262.114 77.7818 261.739 77.8219 261.364C77.8753 260.799 77.9065 260.233 77.9065 259.668C77.9065 257.55 77.5146 255.436 76.7265 253.426C76.2856 252.3 75.7201 251.213 75.0299 250.173C74.3442 249.138 73.5293 248.158 72.5987 247.257C71.8818 246.558 71.1159 245.937 70.3144 245.38C70.4791 245.367 70.6484 245.358 70.8176 245.35C71.0402 245.341 71.2628 245.337 71.4855 245.337C71.8016 245.337 72.1222 245.346 72.4428 245.367C73.3913 245.427 74.3353 245.574 75.2659 245.811C75.2704 245.811 75.2704 245.816 75.2793 245.816C77.7239 246.441 80.0305 247.675 81.9541 249.534C83.4859 251.019 84.6036 252.736 85.3249 254.569C85.9661 256.208 86.2867 257.943 86.2867 259.677Z" fill="#FFB200"/>
<rect x="0.5" y="354.5" width="105" height="153" rx="7.5" fill="#2D2D2D" stroke="#4B4B4B"/>
<path d="M26.1933 446.8V458H28.1293V446.8H26.1933ZM32.2893 446.8L27.5533 452.096L32.4813 458H34.8013L29.8413 452.048L34.5613 446.8H32.2893ZM37.6356 461.52V450.64H35.8916V461.52H37.6356ZM43.7316 454.32C43.7316 453.499 43.5662 452.8 43.2356 452.224C42.9049 451.648 42.4676 451.211 41.9236 450.912C41.3796 450.603 40.7876 450.448 40.1476 450.448C39.5182 450.448 38.9689 450.608 38.4996 450.928C38.0409 451.237 37.6836 451.68 37.4276 452.256C37.1822 452.832 37.0596 453.52 37.0596 454.32C37.0596 455.109 37.1822 455.797 37.4276 456.384C37.6836 456.96 38.0409 457.408 38.4996 457.728C38.9689 458.037 39.5182 458.192 40.1476 458.192C40.7876 458.192 41.3796 458.043 41.9236 457.744C42.4676 457.435 42.9049 456.992 43.2356 456.416C43.5662 455.829 43.7316 455.131 43.7316 454.32ZM41.9396 454.32C41.9396 454.811 41.8382 455.232 41.6356 455.584C41.4329 455.925 41.1609 456.187 40.8196 456.368C40.4889 456.539 40.1209 456.624 39.7156 456.624C39.3849 456.624 39.0596 456.539 38.7396 456.368C38.4196 456.187 38.1529 455.925 37.9396 455.584C37.7369 455.243 37.6356 454.821 37.6356 454.32C37.6356 453.819 37.7369 453.397 37.9396 453.056C38.1529 452.715 38.4196 452.459 38.7396 452.288C39.0596 452.107 39.3849 452.016 39.7156 452.016C40.1209 452.016 40.4889 452.107 40.8196 452.288C41.1609 452.459 41.4329 452.72 41.6356 453.072C41.8382 453.413 41.9396 453.829 41.9396 454.32ZM52.0494 452.24L52.1294 450.08L45.5214 456.4L45.4414 458.56L52.0494 452.24ZM47.1374 450.64H45.4414V458.56L47.1374 456.608V450.64ZM52.1294 450.08L50.4334 452.032V458H52.1294V450.08ZM60.9207 450.64H54.4087V458H56.1047V452.192H59.2247V458H60.9207V450.64ZM62.1034 450.64V452.16H66.7594V450.64H62.1034ZM63.5914 450.96V458H65.2874V450.96H63.5914ZM67.1456 454.32C67.1456 455.067 67.3162 455.733 67.6576 456.32C68.0096 456.896 68.4842 457.349 69.0816 457.68C69.6789 458 70.3562 458.16 71.1136 458.16C71.8709 458.16 72.5429 458 73.1296 457.68C73.7269 457.349 74.2016 456.896 74.5536 456.32C74.9056 455.733 75.0816 455.067 75.0816 454.32C75.0816 453.563 74.9056 452.896 74.5536 452.32C74.2016 451.744 73.7269 451.296 73.1296 450.976C72.5429 450.645 71.8709 450.48 71.1136 450.48C70.3562 450.48 69.6789 450.645 69.0816 450.976C68.4842 451.296 68.0096 451.744 67.6576 452.32C67.3162 452.896 67.1456 453.563 67.1456 454.32ZM68.9216 454.32C68.9216 453.861 69.0176 453.456 69.2096 453.104C69.4016 452.752 69.6629 452.48 69.9936 452.288C70.3242 452.096 70.6976 452 71.1136 452C71.5189 452 71.8869 452.096 72.2176 452.288C72.5589 452.48 72.8256 452.752 73.0176 453.104C73.2096 453.456 73.3056 453.861 73.3056 454.32C73.3056 454.779 73.2096 455.184 73.0176 455.536C72.8256 455.877 72.5589 456.149 72.2176 456.352C71.8869 456.544 71.5189 456.64 71.1136 456.64C70.6976 456.64 70.3242 456.544 69.9936 456.352C69.6629 456.149 69.4016 455.877 69.2096 455.536C69.0176 455.184 68.9216 454.779 68.9216 454.32ZM75.6972 454.976H78.9772V453.424H75.6972V454.976ZM29.8191 471.64H23.3071V479H25.0031V473.192H28.1231V479H29.8191V471.64ZM33.7059 482.52V471.64H31.9619V482.52H33.7059ZM39.8019 475.32C39.8019 474.499 39.6365 473.8 39.3059 473.224C38.9752 472.648 38.5379 472.211 37.9939 471.912C37.4499 471.603 36.8579 471.448 36.2179 471.448C35.5885 471.448 35.0392 471.608 34.5699 471.928C34.1112 472.237 33.7539 472.68 33.4979 473.256C33.2525 473.832 33.1299 474.52 33.1299 475.32C33.1299 476.109 33.2525 476.797 33.4979 477.384C33.7539 477.96 34.1112 478.408 34.5699 478.728C35.0392 479.037 35.5885 479.192 36.2179 479.192C36.8579 479.192 37.4499 479.043 37.9939 478.744C38.5379 478.435 38.9752 477.992 39.3059 477.416C39.6365 476.829 39.8019 476.131 39.8019 475.32ZM38.0099 475.32C38.0099 475.811 37.9085 476.232 37.7059 476.584C37.5032 476.925 37.2312 477.187 36.8899 477.368C36.5592 477.539 36.1912 477.624 35.7859 477.624C35.4552 477.624 35.1299 477.539 34.8099 477.368C34.4899 477.187 34.2232 476.925 34.0099 476.584C33.8072 476.243 33.7059 475.821 33.7059 475.32C33.7059 474.819 33.8072 474.397 34.0099 474.056C34.2232 473.715 34.4899 473.459 34.8099 473.288C35.1299 473.107 35.4552 473.016 35.7859 473.016C36.1912 473.016 36.5592 473.107 36.8899 473.288C37.2312 473.459 37.5032 473.72 37.7059 474.072C37.9085 474.413 38.0099 474.829 38.0099 475.32ZM40.8878 475.32C40.8878 476.067 41.0584 476.733 41.3997 477.32C41.7518 477.896 42.2264 478.349 42.8238 478.68C43.4211 479 44.0984 479.16 44.8558 479.16C45.6131 479.16 46.2851 479 46.8718 478.68C47.4691 478.349 47.9438 477.896 48.2958 477.32C48.6478 476.733 48.8238 476.067 48.8238 475.32C48.8238 474.563 48.6478 473.896 48.2958 473.32C47.9438 472.744 47.4691 472.296 46.8718 471.976C46.2851 471.645 45.6131 471.48 44.8558 471.48C44.0984 471.48 43.4211 471.645 42.8238 471.976C42.2264 472.296 41.7518 472.744 41.3997 473.32C41.0584 473.896 40.8878 474.563 40.8878 475.32ZM42.6638 475.32C42.6638 474.861 42.7598 474.456 42.9518 474.104C43.1438 473.752 43.4051 473.48 43.7358 473.288C44.0664 473.096 44.4398 473 44.8558 473C45.2611 473 45.6291 473.096 45.9598 473.288C46.3011 473.48 46.5678 473.752 46.7598 474.104C46.9518 474.456 47.0478 474.861 47.0478 475.32C47.0478 475.779 46.9518 476.184 46.7598 476.536C46.5678 476.877 46.3011 477.149 45.9598 477.352C45.6291 477.544 45.2611 477.64 44.8558 477.64C44.4398 477.64 44.0664 477.544 43.7358 477.352C43.4051 477.149 43.1438 476.877 42.9518 476.536C42.7598 476.184 42.6638 475.779 42.6638 475.32ZM50.9274 475.72H57.3914C57.4127 475.624 57.4234 475.539 57.4234 475.464C57.4234 475.379 57.4234 475.304 57.4234 475.24C57.4234 474.461 57.274 473.795 56.9754 473.24C56.6767 472.675 56.25 472.243 55.6954 471.944C55.1514 471.635 54.5007 471.48 53.7434 471.48C53.05 471.48 52.4367 471.608 51.9034 471.864C51.37 472.12 50.938 472.477 50.6074 472.936C50.2874 473.395 50.074 473.928 49.9674 474.536C49.946 474.664 49.93 474.792 49.9194 474.92C49.9087 475.048 49.9034 475.181 49.9034 475.32C49.9034 476.056 50.058 476.717 50.3674 477.304C50.6767 477.88 51.114 478.333 51.6794 478.664C52.2447 478.995 52.906 479.16 53.6634 479.16C54.3354 479.16 54.8954 479.08 55.3434 478.92C55.802 478.749 56.186 478.515 56.4954 478.216C56.8154 477.917 57.098 477.571 57.3434 477.176L55.8554 476.568C55.7167 476.803 55.546 477.011 55.3434 477.192C55.1407 477.363 54.906 477.496 54.6394 477.592C54.3834 477.688 54.0847 477.736 53.7434 477.736C53.3274 477.736 52.9594 477.651 52.6394 477.48C52.33 477.299 52.0847 477.032 51.9034 476.68C51.7327 476.317 51.6474 475.864 51.6474 475.32L51.6794 474.872C51.6794 474.445 51.77 474.077 51.9514 473.768C52.1327 473.448 52.378 473.208 52.6874 473.048C52.9967 472.877 53.3434 472.792 53.7274 472.792C54.1007 472.792 54.4154 472.867 54.6714 473.016C54.9274 473.155 55.1247 473.357 55.2634 473.624C55.4127 473.88 55.5087 474.184 55.5514 474.536H50.9274V475.72ZM59.0244 471.64V479H60.7204V471.64H59.0244ZM63.4244 471.64L60.2404 474.68L63.7604 479H65.8564L62.3684 474.68L65.5364 471.64H63.4244ZM65.9863 471.64V473.16H70.6423V471.64H65.9863ZM67.4743 471.96V479H69.1703V471.96H67.4743ZM78.9588 471.64V479H80.7028V471.64H78.9588ZM71.8228 471.64V479H73.5508V471.64H71.8228ZM73.0228 475.608H75.1508C75.5348 475.608 75.8281 475.693 76.0308 475.864C76.2334 476.035 76.3348 476.28 76.3348 476.6C76.3348 476.803 76.2868 476.979 76.1908 477.128C76.0948 477.277 75.9614 477.389 75.7908 477.464C75.6201 477.539 75.4068 477.576 75.1508 477.576H73.0228V479H75.3108C75.8228 479 76.2814 478.909 76.6868 478.728C77.0921 478.547 77.4121 478.28 77.6468 477.928C77.8814 477.565 77.9988 477.123 77.9988 476.6C77.9988 475.811 77.7374 475.235 77.2148 474.872C76.7028 474.499 76.0681 474.312 75.3108 474.312H73.0228V475.608Z" fill="#F3F3F3"/>
<path d="M65.984 382.66L72.342 389.02C72.7599 389.438 73.0913 389.934 73.3175 390.48C73.5436 391.026 73.66 391.611 73.66 392.202C73.66 392.793 73.5436 393.378 73.3175 393.924C73.0913 394.47 72.7599 394.966 72.342 395.384L67.174 400.552C68.2383 400.713 69.2096 401.25 69.9116 402.067C70.6135 402.883 70.9997 403.923 71 405V415.5C71 416.693 70.5259 417.838 69.682 418.682C68.8381 419.526 67.6935 420 66.5 420H39.5C38.3065 420 37.1619 419.526 36.318 418.682C35.4741 417.838 35 416.693 35 415.5V388.5C35 387.306 35.4741 386.162 36.318 385.318C37.1619 384.474 38.3065 384 39.5 384H50C51.0774 384 52.1191 384.386 52.9357 385.089C53.7523 385.792 54.2896 386.764 54.45 387.83L59.62 382.66C60.0379 382.242 60.5339 381.91 61.0799 381.684C61.6259 381.458 62.211 381.342 62.802 381.342C63.393 381.342 63.9781 381.458 64.5241 381.684C65.0701 381.91 65.5661 382.242 65.984 382.66ZM38 415.5C38 416.33 38.672 417 39.5 417H51.498L51.5 403.5H38V415.5ZM54.498 417H66.5C66.8978 417 67.2794 416.842 67.5607 416.56C67.842 416.279 68 415.898 68 415.5V405C68 404.602 67.842 404.22 67.5607 403.939C67.2794 403.658 66.8978 403.5 66.5 403.5H54.498V417ZM50 387H39.5C39.1022 387 38.7206 387.158 38.4393 387.439C38.158 387.72 38 388.102 38 388.5V400.5H51.5V388.5C51.5 388.102 51.342 387.72 51.0607 387.439C50.7794 387.158 50.3978 387 50 387ZM54.5 396.62V400.5H58.38L54.5 396.62ZM61.74 384.784L55.386 391.14C55.2466 391.279 55.136 391.445 55.0606 391.627C54.9852 391.809 54.9463 392.004 54.9463 392.201C54.9463 392.398 54.9852 392.593 55.0606 392.775C55.136 392.957 55.2466 393.123 55.386 393.262L61.744 399.62C62.0252 399.901 62.4065 400.059 62.804 400.059C63.2015 400.059 63.5827 399.901 63.864 399.62L70.224 393.262C70.5049 392.981 70.6627 392.599 70.6627 392.202C70.6627 391.804 70.5049 391.423 70.224 391.142L63.864 384.782C63.5827 384.501 63.2015 384.343 62.804 384.343C62.4065 384.343 62.0252 384.501 61.744 384.782L61.74 384.784Z" fill="#FFB200"/>
<rect x="114.5" y="354.5" width="106" height="153" rx="7.5" fill="#2D2D2D" stroke="#4B4B4B"/>
<path d="M142.673 452.816H145.521C145.947 452.816 146.321 452.88 146.641 453.008C146.961 453.136 147.206 453.333 147.377 453.6C147.558 453.856 147.649 454.181 147.649 454.576C147.649 454.971 147.558 455.301 147.377 455.568C147.206 455.824 146.961 456.016 146.641 456.144C146.321 456.272 145.947 456.336 145.521 456.336H142.673V458H145.761C146.486 458 147.131 457.861 147.697 457.584C148.273 457.296 148.726 456.896 149.057 456.384C149.398 455.861 149.569 455.259 149.569 454.576C149.569 453.883 149.398 453.285 149.057 452.784C148.726 452.272 148.273 451.877 147.697 451.6C147.131 451.323 146.486 451.184 145.761 451.184H142.673V452.816ZM141.921 446.8V458H143.841V448.464H148.721V446.8H141.921ZM157.979 452.24L158.059 450.08L151.451 456.4L151.371 458.56L157.979 452.24ZM153.067 450.64H151.371V458.56L153.067 456.608V450.64ZM158.059 450.08L156.363 452.032V458H158.059V450.08ZM162.018 461.52V450.64H160.274V461.52H162.018ZM168.114 454.32C168.114 453.499 167.949 452.8 167.618 452.224C167.288 451.648 166.85 451.211 166.306 450.912C165.762 450.603 165.17 450.448 164.53 450.448C163.901 450.448 163.352 450.608 162.882 450.928C162.424 451.237 162.066 451.68 161.81 452.256C161.565 452.832 161.442 453.52 161.442 454.32C161.442 455.109 161.565 455.797 161.81 456.384C162.066 456.96 162.424 457.408 162.882 457.728C163.352 458.037 163.901 458.192 164.53 458.192C165.17 458.192 165.762 458.043 166.306 457.744C166.85 457.435 167.288 456.992 167.618 456.416C167.949 455.829 168.114 455.131 168.114 454.32ZM166.322 454.32C166.322 454.811 166.221 455.232 166.018 455.584C165.816 455.925 165.544 456.187 165.202 456.368C164.872 456.539 164.504 456.624 164.098 456.624C163.768 456.624 163.442 456.539 163.122 456.368C162.802 456.187 162.536 455.925 162.322 455.584C162.12 455.243 162.018 454.821 162.018 454.32C162.018 453.819 162.12 453.397 162.322 453.056C162.536 452.715 162.802 452.459 163.122 452.288C163.442 452.107 163.768 452.016 164.098 452.016C164.504 452.016 164.872 452.107 165.202 452.288C165.544 452.459 165.816 452.72 166.018 453.072C166.221 453.413 166.322 453.829 166.322 454.32ZM178.134 450.64L174.934 453.68L178.454 458H180.534L176.934 453.808L180.214 450.64H178.134ZM175.302 450.64H173.654V458H175.302V450.64ZM170.822 450.64H168.742L172.022 453.808L168.422 458H170.502L174.022 453.68L170.822 450.64ZM188.307 452.24L188.387 450.08L181.779 456.4L181.699 458.56L188.307 452.24ZM183.395 450.64H181.699V458.56L183.395 456.608V450.64ZM188.387 450.08L186.691 452.032V458H188.387V450.08ZM126.807 473.24L126.887 471.08L120.279 477.4L120.199 479.56L126.807 473.24ZM121.895 471.64H120.199V479.56L121.895 477.608V471.64ZM126.887 471.08L125.191 473.032V479H126.887V471.08ZM142.827 467.8H134.587V474.68C134.587 475.075 134.55 475.437 134.475 475.768C134.411 476.099 134.31 476.387 134.171 476.632C134.043 476.867 133.883 477.053 133.691 477.192C133.499 477.32 133.275 477.384 133.019 477.384V479C133.798 479 134.438 478.824 134.939 478.472C135.451 478.12 135.83 477.629 136.075 477C136.321 476.36 136.443 475.629 136.443 474.808V469.544H140.907V479H142.827V467.8ZM146.301 476.824C146.301 476.568 146.36 476.349 146.477 476.168C146.605 475.976 146.792 475.832 147.037 475.736C147.293 475.629 147.603 475.576 147.965 475.576C148.413 475.576 148.808 475.635 149.149 475.752C149.491 475.859 149.827 476.035 150.157 476.28V475.368C150.072 475.261 149.917 475.139 149.693 475C149.469 474.861 149.187 474.739 148.845 474.632C148.515 474.525 148.136 474.472 147.709 474.472C147.069 474.472 146.509 474.568 146.029 474.76C145.56 474.952 145.197 475.229 144.941 475.592C144.685 475.955 144.557 476.387 144.557 476.888C144.557 477.389 144.669 477.811 144.893 478.152C145.128 478.483 145.437 478.733 145.821 478.904C146.216 479.075 146.653 479.16 147.133 479.16C147.645 479.16 148.109 479.075 148.525 478.904C148.941 478.723 149.272 478.467 149.517 478.136C149.763 477.795 149.885 477.389 149.885 476.92L149.629 476.088C149.629 476.515 149.544 476.856 149.373 477.112C149.203 477.368 148.968 477.555 148.669 477.672C148.371 477.789 148.035 477.848 147.661 477.848C147.405 477.848 147.176 477.811 146.973 477.736C146.771 477.651 146.605 477.533 146.477 477.384C146.36 477.235 146.301 477.048 146.301 476.824ZM145.917 473.576C146.035 473.501 146.2 473.411 146.413 473.304C146.637 473.187 146.899 473.085 147.197 473C147.496 472.915 147.821 472.872 148.173 472.872C148.579 472.872 148.92 472.968 149.197 473.16C149.485 473.341 149.629 473.603 149.629 473.944V479H151.325V473.752C151.325 473.261 151.192 472.851 150.925 472.52C150.669 472.179 150.312 471.917 149.853 471.736C149.395 471.555 148.861 471.464 148.253 471.464C147.592 471.464 147.005 471.56 146.493 471.752C145.981 471.944 145.56 472.141 145.229 472.344L145.917 473.576ZM159.788 471.64H157.932L155.628 477.416L156.444 477.464L154.092 471.64H152.108L155.068 478.136L153.148 482.52H154.988L159.788 471.64ZM161.575 475.832H167.207V474.408H161.575V475.832ZM166.279 471.64V479H167.975V471.64H166.279ZM160.823 471.64V479H162.519V471.64H160.823ZM172.758 476.92H175.27V475.4H173.03L172.758 476.92ZM174.358 471.64V479H176.102V471.64H174.358ZM171.622 471.64H169.878V473.752C169.878 474.467 169.963 475.059 170.134 475.528C170.305 475.997 170.598 476.349 171.014 476.584C171.441 476.808 172.022 476.92 172.758 476.92L173.03 475.4C172.678 475.4 172.395 475.347 172.182 475.24C171.979 475.133 171.835 474.968 171.75 474.744C171.665 474.509 171.622 474.205 171.622 473.832V471.64ZM184.85 471.64H178.338V479H180.034V473.192H183.154V479H184.85V471.64ZM188.145 476.824C188.145 476.568 188.204 476.349 188.321 476.168C188.449 475.976 188.636 475.832 188.881 475.736C189.137 475.629 189.446 475.576 189.809 475.576C190.257 475.576 190.652 475.635 190.993 475.752C191.334 475.859 191.67 476.035 192.001 476.28V475.368C191.916 475.261 191.761 475.139 191.537 475C191.313 474.861 191.03 474.739 190.689 474.632C190.358 474.525 189.98 474.472 189.553 474.472C188.913 474.472 188.353 474.568 187.873 474.76C187.404 474.952 187.041 475.229 186.785 475.592C186.529 475.955 186.401 476.387 186.401 476.888C186.401 477.389 186.513 477.811 186.737 478.152C186.972 478.483 187.281 478.733 187.665 478.904C188.06 479.075 188.497 479.16 188.977 479.16C189.489 479.16 189.953 479.075 190.369 478.904C190.785 478.723 191.116 478.467 191.361 478.136C191.606 477.795 191.729 477.389 191.729 476.92L191.473 476.088C191.473 476.515 191.388 476.856 191.217 477.112C191.046 477.368 190.812 477.555 190.513 477.672C190.214 477.789 189.878 477.848 189.505 477.848C189.249 477.848 189.02 477.811 188.817 477.736C188.614 477.651 188.449 477.533 188.321 477.384C188.204 477.235 188.145 477.048 188.145 476.824ZM187.761 473.576C187.878 473.501 188.044 473.411 188.257 473.304C188.481 473.187 188.742 473.085 189.041 473C189.34 472.915 189.665 472.872 190.017 472.872C190.422 472.872 190.764 472.968 191.041 473.16C191.329 473.341 191.473 473.603 191.473 473.944V479H193.169V473.752C193.169 473.261 193.036 472.851 192.769 472.52C192.513 472.179 192.156 471.917 191.697 471.736C191.238 471.555 190.705 471.464 190.097 471.464C189.436 471.464 188.849 471.56 188.337 471.752C187.825 471.944 187.404 472.141 187.073 472.344L187.761 473.576ZM199.454 474.12L201.454 478.52L203.246 478.328L199.454 471.08L195.662 478.328L197.454 478.52L199.454 474.12ZM202.494 479V480.44H204.174V477.528H194.734V480.44H196.494V479H202.494ZM213.131 471.64V479H214.875V471.64H213.131ZM205.995 471.64V479H207.723V471.64H205.995ZM207.195 475.608H209.323C209.707 475.608 210 475.693 210.203 475.864C210.405 476.035 210.507 476.28 210.507 476.6C210.507 476.803 210.459 476.979 210.363 477.128C210.267 477.277 210.133 477.389 209.963 477.464C209.792 477.539 209.579 477.576 209.323 477.576H207.195V479H209.483C209.995 479 210.453 478.909 210.859 478.728C211.264 478.547 211.584 478.28 211.819 477.928C212.053 477.565 212.171 477.123 212.171 476.6C212.171 475.811 211.909 475.235 211.387 474.872C210.875 474.499 210.24 474.312 209.483 474.312H207.195V475.608Z" fill="#F3F3F3"/>
<path d="M173.22 382.94L173.066 382.806C172.778 382.586 172.419 382.479 172.058 382.503C171.696 382.528 171.356 382.683 171.1 382.94L170.964 383.096C170.745 383.386 170.639 383.746 170.664 384.108C170.689 384.471 170.844 384.812 171.1 385.07L175.042 389.024H161L160.534 389.032C153.57 389.278 148 395.02 148 402.072C148 405.452 149.28 408.532 151.384 410.852L151.528 410.99C151.811 411.232 152.174 411.36 152.546 411.35C152.918 411.34 153.273 411.191 153.542 410.934C153.812 410.676 153.975 410.328 154.002 409.957C154.029 409.586 153.917 409.217 153.688 408.924L153.288 408.462C151.805 406.662 150.995 404.402 151 402.07C151 396.528 155.478 392.034 161 392.034H174.762L171.098 395.714L170.964 395.87C170.745 396.16 170.639 396.52 170.664 396.882C170.689 397.245 170.844 397.586 171.1 397.844C171.239 397.983 171.404 398.094 171.586 398.17C171.768 398.245 171.963 398.284 172.16 398.284C172.357 398.284 172.552 398.245 172.734 398.17C172.916 398.094 173.081 397.983 173.22 397.844L179.584 391.458L179.718 391.302C179.937 391.012 180.044 390.652 180.019 390.29C179.995 389.927 179.84 389.586 179.584 389.328L173.22 382.94ZM184.46 393.142C184.17 392.903 183.802 392.781 183.426 392.8C183.051 392.819 182.697 392.978 182.433 393.246C182.17 393.513 182.016 393.87 182.002 394.246C181.989 394.621 182.116 394.988 182.36 395.274C184.062 397.127 185.005 399.553 185 402.07C185 407.614 180.522 412.108 175 412.108H161.116L164.926 408.286L165.074 408.114C165.266 407.852 165.369 407.535 165.366 407.21C165.364 406.885 165.256 406.569 165.06 406.31L164.926 406.156L164.758 406.01C164.497 405.816 164.181 405.713 163.856 405.715C163.531 405.717 163.216 405.825 162.958 406.022L162.806 406.156L156.442 412.544L156.296 412.714C156.104 412.976 156.001 413.293 156.003 413.618C156.005 413.943 156.112 414.259 156.308 414.518L156.442 414.672L162.806 421.06L162.974 421.204C163.56 421.644 164.394 421.594 164.926 421.058C165.182 420.8 165.337 420.459 165.362 420.096C165.387 419.734 165.281 419.374 165.062 419.084L164.926 418.93L161.128 415.118H175L175.466 415.11C182.43 414.864 188 409.12 188 402.07C188.005 398.819 186.795 395.684 184.606 393.28L184.46 393.142Z" fill="#FFB200"/>
<rect x="229.5" y="354.5" width="105" height="153" rx="7.5" fill="#2D2D2D" stroke="#4B4B4B"/>
<path d="M250.08 446.8V454.32L241.904 446.24V458H243.76V450.48L251.936 458.56V446.8H250.08ZM255.588 448.496H260.596V446.8H255.588V448.496ZM255.588 452.944H260.436V451.296H255.588V452.944ZM254.42 446.8V458H256.276V446.8H254.42ZM261.159 448.544H264.103V458H266.007V448.544H268.967V446.8H261.159V448.544ZM269.174 454.976H272.454V453.424H269.174V454.976ZM280.307 452.24L280.387 450.08L273.779 456.4L273.699 458.56L280.307 452.24ZM275.395 450.64H273.699V458.56L275.395 456.608V450.64ZM280.387 450.08L278.691 452.032V458H280.387V450.08ZM282.731 450.64V458H284.443V452.16H286.955V450.64H282.731ZM289.8 461.52V450.64H288.056V461.52H289.8ZM295.896 454.32C295.896 453.499 295.73 452.8 295.4 452.224C295.069 451.648 294.632 451.211 294.088 450.912C293.544 450.603 292.952 450.448 292.312 450.448C291.682 450.448 291.133 450.608 290.664 450.928C290.205 451.237 289.848 451.68 289.592 452.256C289.346 452.832 289.224 453.52 289.224 454.32C289.224 455.109 289.346 455.797 289.592 456.384C289.848 456.96 290.205 457.408 290.664 457.728C291.133 458.037 291.682 458.192 292.312 458.192C292.952 458.192 293.544 458.043 294.088 457.744C294.632 457.435 295.069 456.992 295.4 456.416C295.73 455.829 295.896 455.131 295.896 454.32ZM294.104 454.32C294.104 454.811 294.002 455.232 293.8 455.584C293.597 455.925 293.325 456.187 292.984 456.368C292.653 456.539 292.285 456.624 291.88 456.624C291.549 456.624 291.224 456.539 290.904 456.368C290.584 456.187 290.317 455.925 290.104 455.584C289.901 455.243 289.8 454.821 289.8 454.32C289.8 453.819 289.901 453.397 290.104 453.056C290.317 452.715 290.584 452.459 290.904 452.288C291.224 452.107 291.549 452.016 291.88 452.016C292.285 452.016 292.653 452.107 292.984 452.288C293.325 452.459 293.597 452.72 293.8 453.072C294.002 453.413 294.104 453.829 294.104 454.32ZM304.678 450.64V458H306.422V450.64H304.678ZM297.542 450.64V458H299.27V450.64H297.542ZM298.742 454.608H300.87C301.254 454.608 301.547 454.693 301.75 454.864C301.952 455.035 302.054 455.28 302.054 455.6C302.054 455.803 302.006 455.979 301.91 456.128C301.814 456.277 301.68 456.389 301.51 456.464C301.339 456.539 301.126 456.576 300.87 456.576H298.742V458H301.03C301.542 458 302 457.909 302.406 457.728C302.811 457.547 303.131 457.28 303.366 456.928C303.6 456.565 303.718 456.123 303.718 455.6C303.718 454.811 303.456 454.235 302.934 453.872C302.422 453.499 301.787 453.312 301.03 453.312H298.742V454.608ZM320.089 452.24L320.169 450.08L313.561 456.4L313.481 458.56L320.089 452.24ZM315.177 450.64H313.481V458.56L315.177 456.608V450.64ZM320.169 450.08L318.473 452.032V458H320.169V450.08ZM244.588 467.8V475.32L236.412 467.24V479H238.268V471.48L246.444 479.56V467.8H244.588ZM250.096 469.496H255.104V467.8H250.096V469.496ZM250.096 473.944H254.944V472.296H250.096V473.944ZM248.928 467.8V479H250.784V467.8H248.928ZM255.667 469.544H258.611V479H260.515V469.544H263.475V467.8H255.667V469.544ZM263.682 475.976H266.962V474.424H263.682V475.976ZM275.151 479H276.991L274.943 471.08L274.031 473.48L275.151 479ZM271.551 477.496L272.031 479.496L275.103 473.912L274.943 471.08L271.551 477.496ZM272.031 479.496L272.511 477.496L269.151 471.08L268.991 473.912L272.031 479.496ZM267.119 479H268.959L270.079 473.48L269.151 471.08L267.119 479ZM279.262 476.824C279.262 476.568 279.321 476.349 279.438 476.168C279.566 475.976 279.753 475.832 279.998 475.736C280.254 475.629 280.564 475.576 280.926 475.576C281.374 475.576 281.769 475.635 282.11 475.752C282.452 475.859 282.788 476.035 283.118 476.28V475.368C283.033 475.261 282.878 475.139 282.654 475C282.43 474.861 282.148 474.739 281.806 474.632C281.476 474.525 281.097 474.472 280.67 474.472C280.03 474.472 279.47 474.568 278.99 474.76C278.521 474.952 278.158 475.229 277.902 475.592C277.646 475.955 277.518 476.387 277.518 476.888C277.518 477.389 277.63 477.811 277.854 478.152C278.089 478.483 278.398 478.733 278.782 478.904C279.177 479.075 279.614 479.16 280.094 479.16C280.606 479.16 281.07 479.075 281.486 478.904C281.902 478.723 282.233 478.467 282.478 478.136C282.724 477.795 282.846 477.389 282.846 476.92L282.59 476.088C282.59 476.515 282.505 476.856 282.334 477.112C282.164 477.368 281.929 477.555 281.63 477.672C281.332 477.789 280.996 477.848 280.622 477.848C280.366 477.848 280.137 477.811 279.934 477.736C279.732 477.651 279.566 477.533 279.438 477.384C279.321 477.235 279.262 477.048 279.262 476.824ZM278.878 473.576C278.996 473.501 279.161 473.411 279.374 473.304C279.598 473.187 279.86 473.085 280.158 473C280.457 472.915 280.782 472.872 281.134 472.872C281.54 472.872 281.881 472.968 282.158 473.16C282.446 473.341 282.59 473.603 282.59 473.944V479H284.286V473.752C284.286 473.261 284.153 472.851 283.886 472.52C283.63 472.179 283.273 471.917 282.814 471.736C282.356 471.555 281.822 471.464 281.214 471.464C280.553 471.464 279.966 471.56 279.454 471.752C278.942 471.944 278.521 472.141 278.19 472.344L278.878 473.576ZM287.995 482.52V471.64H286.251V482.52H287.995ZM294.091 475.32C294.091 474.499 293.926 473.8 293.595 473.224C293.264 472.648 292.827 472.211 292.283 471.912C291.739 471.603 291.147 471.448 290.507 471.448C289.878 471.448 289.328 471.608 288.859 471.928C288.4 472.237 288.043 472.68 287.787 473.256C287.542 473.832 287.419 474.52 287.419 475.32C287.419 476.109 287.542 476.797 287.787 477.384C288.043 477.96 288.4 478.408 288.859 478.728C289.328 479.037 289.878 479.192 290.507 479.192C291.147 479.192 291.739 479.043 292.283 478.744C292.827 478.435 293.264 477.992 293.595 477.416C293.926 476.829 294.091 476.131 294.091 475.32ZM292.299 475.32C292.299 475.811 292.198 476.232 291.995 476.584C291.792 476.925 291.52 477.187 291.179 477.368C290.848 477.539 290.48 477.624 290.075 477.624C289.744 477.624 289.419 477.539 289.099 477.368C288.779 477.187 288.512 476.925 288.299 476.584C288.096 476.243 287.995 475.821 287.995 475.32C287.995 474.819 288.096 474.397 288.299 474.056C288.512 473.715 288.779 473.459 289.099 473.288C289.419 473.107 289.744 473.016 290.075 473.016C290.48 473.016 290.848 473.107 291.179 473.288C291.52 473.459 291.792 473.72 291.995 474.072C292.198 474.413 292.299 474.829 292.299 475.32ZM295.673 471.64V479H297.369V471.64H295.673ZM300.073 471.64L296.889 474.68L300.409 479H302.505L299.017 474.68L302.185 471.64H300.073ZM303.888 475.72H310.352C310.374 475.624 310.384 475.539 310.384 475.464C310.384 475.379 310.384 475.304 310.384 475.24C310.384 474.461 310.235 473.795 309.936 473.24C309.638 472.675 309.211 472.243 308.656 471.944C308.112 471.635 307.462 471.48 306.704 471.48C306.011 471.48 305.398 471.608 304.864 471.864C304.331 472.12 303.899 472.477 303.568 472.936C303.248 473.395 303.035 473.928 302.928 474.536C302.907 474.664 302.891 474.792 302.88 474.92C302.87 475.048 302.864 475.181 302.864 475.32C302.864 476.056 303.019 476.717 303.328 477.304C303.638 477.88 304.075 478.333 304.64 478.664C305.206 478.995 305.867 479.16 306.624 479.16C307.296 479.16 307.856 479.08 308.304 478.92C308.763 478.749 309.147 478.515 309.456 478.216C309.776 477.917 310.059 477.571 310.304 477.176L308.816 476.568C308.678 476.803 308.507 477.011 308.304 477.192C308.102 477.363 307.867 477.496 307.6 477.592C307.344 477.688 307.046 477.736 306.704 477.736C306.288 477.736 305.92 477.651 305.6 477.48C305.291 477.299 305.046 477.032 304.864 476.68C304.694 476.317 304.608 475.864 304.608 475.32L304.64 474.872C304.64 474.445 304.731 474.077 304.912 473.768C305.094 473.448 305.339 473.208 305.648 473.048C305.958 472.877 306.304 472.792 306.688 472.792C307.062 472.792 307.376 472.867 307.632 473.016C307.888 473.155 308.086 473.357 308.224 473.624C308.374 473.88 308.47 474.184 308.512 474.536H303.888V475.72ZM311.025 471.64V473.16H315.681V471.64H311.025ZM312.513 471.96V479H314.209V471.96H312.513ZM323.998 471.64V479H325.742V471.64H323.998ZM316.862 471.64V479H318.59V471.64H316.862ZM318.062 475.608H320.19C320.574 475.608 320.867 475.693 321.07 475.864C321.272 476.035 321.374 476.28 321.374 476.6C321.374 476.803 321.326 476.979 321.23 477.128C321.134 477.277 321 477.389 320.83 477.464C320.659 477.539 320.446 477.576 320.19 477.576H318.062V479H320.35C320.862 479 321.32 478.909 321.726 478.728C322.131 478.547 322.451 478.28 322.686 477.928C322.92 477.565 323.038 477.123 323.038 476.6C323.038 475.811 322.776 475.235 322.254 474.872C321.742 474.499 321.107 474.312 320.35 474.312H318.062V475.608Z" fill="#F3F3F3"/>
<path d="M287.996 388C291.669 387.998 295.195 389.44 297.815 392.014C300.434 394.588 301.938 398.088 302.001 401.76C302.064 405.432 300.681 408.982 298.151 411.644C295.621 414.306 292.147 415.868 288.476 415.992L287.996 416H276.004C272.331 416.002 268.805 414.56 266.185 411.986C263.566 409.412 262.062 405.912 261.999 402.24C261.936 398.568 263.319 395.018 265.849 392.356C268.379 389.694 271.853 388.132 275.524 388.008L276.002 388H287.994H287.996ZM287.996 391H276.004C273.121 390.994 270.351 392.12 268.289 394.136C266.228 396.152 265.041 398.896 264.983 401.779C264.925 404.661 266.001 407.452 267.98 409.549C269.958 411.646 272.681 412.882 275.562 412.992L276.004 413H287.996C290.879 413.006 293.649 411.88 295.711 409.864C297.772 407.848 298.959 405.104 299.017 402.221C299.075 399.339 297.999 396.548 296.02 394.451C294.042 392.354 291.319 391.118 288.438 391.008L287.996 391ZM274 396C274.398 396 274.779 396.158 275.061 396.439C275.342 396.721 275.5 397.102 275.5 397.5V400.496H278.5C278.898 400.496 279.279 400.654 279.561 400.935C279.842 401.217 280 401.598 280 401.996C280 402.394 279.842 402.775 279.561 403.057C279.279 403.338 278.898 403.496 278.5 403.496H275.5V406.5C275.5 406.898 275.342 407.279 275.061 407.561C274.779 407.842 274.398 408 274 408C273.602 408 273.221 407.842 272.939 407.561C272.658 407.279 272.5 406.898 272.5 406.5V403.496H269.5C269.303 403.496 269.108 403.457 268.926 403.382C268.744 403.306 268.579 403.196 268.439 403.057C268.3 402.917 268.19 402.752 268.114 402.57C268.039 402.388 268 402.193 268 401.996C268 401.799 268.039 401.604 268.114 401.422C268.19 401.24 268.3 401.075 268.439 400.935C268.579 400.796 268.744 400.686 268.926 400.61C269.108 400.535 269.303 400.496 269.5 400.496H272.5V397.5C272.5 397.102 272.658 396.721 272.939 396.439C273.221 396.158 273.602 396 274 396ZM287.5 403C288.163 403 288.799 403.263 289.268 403.732C289.737 404.201 290 404.837 290 405.5C290 406.163 289.737 406.799 289.268 407.268C288.799 407.737 288.163 408 287.5 408C286.837 408 286.201 407.737 285.732 407.268C285.263 406.799 285 406.163 285 405.5C285 404.837 285.263 404.201 285.732 403.732C286.201 403.263 286.837 403 287.5 403ZM291.5 396C292.163 396 292.799 396.263 293.268 396.732C293.737 397.201 294 397.837 294 398.5C294 399.163 293.737 399.799 293.268 400.268C292.799 400.737 292.163 401 291.5 401C290.837 401 290.201 400.737 289.732 400.268C289.263 399.799 289 399.163 289 398.5C289 397.837 289.263 397.201 289.732 396.732C290.201 396.263 290.837 396 291.5 396Z" fill="#FFB200"/>
<path d="M166 218C165.72 218 165.5 217.637 165.5 217.175V154.825C165.5 154.363 165.72 154 166 154C166.28 154 166.5 154.363 166.5 154.825V217.175C166.5 217.637 166.27 218 166 218Z" fill="#4B4B4B"/>
<path d="M164 156C164 154.894 164.894 154 166 154C167.106 154 168 154.894 168 156C168 157.106 167.106 158 166 158C164.894 158 164 157.106 164 156Z" fill="#4B4B4B"/>
<path d="M164 216C164 217.106 164.894 218 166 218C167.106 218 168 217.106 168 216C168 214.894 167.106 214 166 214C164.894 214 164 214.894 164 216Z" fill="#4B4B4B"/>
<path d="M166 290C165.72 290 165.5 290.363 165.5 290.825V353.175C165.5 353.637 165.72 354 166 354C166.28 354 166.5 353.637 166.5 353.175V290.825C166.5 290.363 166.27 290 166 290Z" fill="#4B4B4B"/>
<path d="M164 352C164 353.106 164.894 354 166 354C167.106 354 168 353.106 168 352C168 350.894 167.106 350 166 350C164.894 350 164 350.894 164 352Z" fill="#4B4B4B"/>
<path d="M164 292C164 290.894 164.894 290 166 290C167.106 290 168 290.894 168 292C168 293.106 167.106 294 166 294C164.894 294 164 293.106 164 292Z" fill="#4B4B4B"/>
<path d="M186 216V200.58C186 191.744 193.163 184.58 202 184.58H266C274.837 184.58 282 177.417 282 168.58V154" stroke="#4B4B4B"/>
<path d="M282 158C283.105 158 284 157.105 284 156C284 154.895 283.105 154 282 154C280.895 154 280 154.895 280 156C280 157.105 280.895 158 282 158Z" fill="#4B4B4B"/>
<path d="M186 218C187.105 218 188 217.105 188 216C188 214.895 187.105 214 186 214C184.895 214 184 214.895 184 216C184 217.105 184.895 218 186 218Z" fill="#4B4B4B"/>
<path d="M186 292V307.42C186 316.256 193.163 323.42 202 323.42H266C274.837 323.42 282 330.583 282 339.42V354" stroke="#4B4B4B"/>
<path d="M282 350C283.105 350 284 350.895 284 352C284 353.105 283.105 354 282 354C280.895 354 280 353.105 280 352C280 350.895 280.895 350 282 350Z" fill="#4B4B4B"/>
<path d="M186 290C187.105 290 188 290.895 188 292C188 293.105 187.105 294 186 294C184.895 294 184 293.105 184 292C184 290.895 184.895 290 186 290Z" fill="#4B4B4B"/>
<path d="M146 216V200.58C146 191.744 138.837 184.58 130 184.58H66C57.1634 184.58 50 177.417 50 168.58V154" stroke="#4B4B4B"/>
<path d="M50 158C48.8954 158 48 157.105 48 156C48 154.895 48.8954 154 50 154C51.1046 154 52 154.895 52 156C52 157.105 51.1046 158 50 158Z" fill="#4B4B4B"/>
<path d="M146 218C144.895 218 144 217.105 144 216C144 214.895 144.895 214 146 214C147.105 214 148 214.895 148 216C148 217.105 147.105 218 146 218Z" fill="#4B4B4B"/>
<path d="M146 292V307.42C146 316.256 138.837 323.42 130 323.42H66C57.1634 323.42 50 330.583 50 339.42V354" stroke="#4B4B4B"/>
<path d="M50 350C48.8954 350 48 350.895 48 352C48 353.105 48.8954 354 50 354C51.1046 354 52 353.105 52 352C52 350.895 51.1046 350 50 350Z" fill="#4B4B4B"/>
<path d="M146 290C144.895 290 144 290.895 144 292C144 293.105 144.895 294 146 294C147.105 294 148 293.105 148 292C148 290.895 147.105 290 146 290Z" fill="#4B4B4B"/>
</svg>
