<svg width="236" height="200" viewBox="0 0 236 200" fill="none" xmlns="http://www.w3.org/2000/svg">
<path d="M118 64C117.72 64 117.5 63.6372 117.5 63.1755V0.82453C117.5 0.362793 117.72 0 118 0C118.28 0 118.5 0.362793 118.5 0.82453V63.1755C118.5 63.6372 118.27 64 118 64Z" fill="#4B4B4B"/>
<path d="M116 2C116 0.89362 116.894 0 118 0C119.106 0 120 0.89362 120 2C120 3.10638 119.106 4 118 4C116.894 4 116 3.10638 116 2Z" fill="#4B4B4B"/>
<path d="M116 62C116 63.1064 116.894 64 118 64C119.106 64 120 63.1064 120 62C120 60.8936 119.106 60 118 60C116.894 60 116 60.8936 116 62Z" fill="#4B4B4B"/>
<path d="M118 136C117.72 136 117.5 136.363 117.5 136.825V199.175C117.5 199.637 117.72 200 118 200C118.28 200 118.5 199.637 118.5 199.175V136.825C118.5 136.363 118.27 136 118 136Z" fill="#4B4B4B"/>
<path d="M116 198C116 199.106 116.894 200 118 200C119.106 200 120 199.106 120 198C120 196.894 119.106 196 118 196C116.894 196 116 196.894 116 198Z" fill="#4B4B4B"/>
<path d="M116 138C116 136.894 116.894 136 118 136C119.106 136 120 136.894 120 138C120 139.106 119.106 140 118 140C116.894 140 116 139.106 116 138Z" fill="#4B4B4B"/>
<path d="M138 62V46.5803C138 37.7438 145.163 30.5803 154 30.5803H218C226.837 30.5803 234 23.4169 234 14.5803V0" stroke="#4B4B4B"/>
<path d="M234 4C235.105 4 236 3.10457 236 2C236 0.895433 235.105 0 234 0C232.895 0 232 0.895433 232 2C232 3.10457 232.895 4 234 4Z" fill="#4B4B4B"/>
<path d="M138 64C139.105 64 140 63.1046 140 62C140 60.8954 139.105 60 138 60C136.895 60 136 60.8954 136 62C136 63.1046 136.895 64 138 64Z" fill="#4B4B4B"/>
<path d="M138 138V153.42C138 162.256 145.163 169.42 154 169.42H218C226.837 169.42 234 176.583 234 185.42V200" stroke="#4B4B4B"/>
<path d="M234 196C235.105 196 236 196.895 236 198C236 199.105 235.105 200 234 200C232.895 200 232 199.105 232 198C232 196.895 232.895 196 234 196Z" fill="#4B4B4B"/>
<path d="M138 136C139.105 136 140 136.895 140 138C140 139.105 139.105 140 138 140C136.895 140 136 139.105 136 138C136 136.895 136.895 136 138 136Z" fill="#4B4B4B"/>
<path d="M98 62V46.5803C98 37.7438 90.8366 30.5803 82 30.5803H18C9.16344 30.5803 2 23.4169 2 14.5803V0" stroke="#4B4B4B"/>
<path d="M2 4C0.895433 4 0 3.10457 0 2C0 0.895433 0.895433 0 2 0C3.10457 0 4 0.895433 4 2C4 3.10457 3.10457 4 2 4Z" fill="#4B4B4B"/>
<path d="M98 64C96.8954 64 96 63.1046 96 62C96 60.8954 96.8954 60 98 60C99.1046 60 100 60.8954 100 62C100 63.1046 99.1046 64 98 64Z" fill="#4B4B4B"/>
<path d="M98 138V153.42C98 162.256 90.8366 169.42 82 169.42H18C9.16344 169.42 2 176.583 2 185.42V200" stroke="#4B4B4B"/>
<path d="M2 196C0.895433 196 0 196.895 0 198C0 199.105 0.895433 200 2 200C3.10457 200 4 199.105 4 198C4 196.895 3.10457 196 2 196Z" fill="#4B4B4B"/>
<path d="M98 136C96.8954 136 96 136.895 96 138C96 139.105 96.8954 140 98 140C99.1046 140 100 139.105 100 138C100 136.895 99.1046 136 98 136Z" fill="#4B4B4B"/>
</svg>
