<svg width="901" height="664" viewBox="0 0 901 664" fill="none" xmlns="http://www.w3.org/2000/svg">
<path d="M417 405C419.761 405 422 402.761 422 400C422 397.239 419.761 395 417 395C414.239 395 412 397.239 412 400C412 402.761 414.239 405 417 405Z" fill="#4B4B4B"/>
<path d="M102 500C104.761 500 107 497.761 107 495C107 492.239 104.761 490 102 490C99.2386 490 97 492.239 97 495C97 497.761 99.2386 500 102 500Z" fill="#4B4B4B"/>
<path d="M102 500V462.789C102 453.953 109.163 446.789 118 446.789H401C409.837 446.789 417 439.626 417 430.789V395" stroke="#4B4B4B"/>
<path d="M417 259C419.761 259 422 261.239 422 264C422 266.761 419.761 269 417 269C414.239 269 412 266.761 412 264C412 261.239 414.239 259 417 259Z" fill="#4B4B4B"/>
<path d="M102 164C104.761 164 107 166.239 107 169C107 171.761 104.761 174 102 174C99.2386 174 97 171.761 97 169C97 166.239 99.2386 164 102 164Z" fill="#4B4B4B"/>
<path d="M102 164V201.211C102 210.047 109.163 217.211 118 217.211H401C409.837 217.211 417 224.374 417 233.211V269" stroke="#4B4B4B"/>
<rect x="203" y="565" width="146" height="1" fill="#4B4B4B"/>
<path d="M339 565C339 562.234 341.234 560 344 560C346.766 560 349 562.234 349 565C349 567.766 346.766 570 344 570C341.234 570 339 567.766 339 565Z" fill="#4B4B4B"/>
<path d="M203 565C203 562.234 205.234 560 208 560C210.766 560 213 562.234 213 565C213 567.766 210.766 570 208 570C205.234 570 203 567.766 203 565Z" fill="#4B4B4B"/>
<rect x="203" y="599" width="146" height="1" fill="#4B4B4B"/>
<path d="M339 599C339 596.234 341.234 594 344 594C346.766 594 349 596.234 349 599C349 601.766 346.766 604 344 604C341.234 604 339 601.766 339 599Z" fill="#4B4B4B"/>
<path d="M203 599C203 596.234 205.234 594 208 594C210.766 594 213 596.234 213 599C213 601.766 210.766 604 208 604C205.234 604 203 601.766 203 599Z" fill="#4B4B4B"/>
<rect x="203" y="65" width="146" height="1" fill="#4B4B4B"/>
<path d="M339 65C339 62.234 341.234 60 344 60C346.766 60 349 62.234 349 65C349 67.766 346.766 70 344 70C341.234 70 339 67.766 339 65Z" fill="#4B4B4B"/>
<path d="M203 65C203 62.234 205.234 60 208 60C210.766 60 213 62.234 213 65C213 67.766 210.766 70 208 70C205.234 70 203 67.766 203 65Z" fill="#4B4B4B"/>
<rect x="203" y="99" width="146" height="1" fill="#4B4B4B"/>
<path d="M339 99C339 96.234 341.234 94 344 94C346.766 94 349 96.234 349 99C349 101.766 346.766 104 344 104C341.234 104 339 101.766 339 99Z" fill="#4B4B4B"/>
<path d="M203 99C203 96.234 205.234 94 208 94C210.766 94 213 96.234 213 99C213 101.766 210.766 104 208 104C205.234 104 203 101.766 203 99Z" fill="#4B4B4B"/>
<rect x="552" y="565" width="146" height="1" fill="#4B4B4B"/>
<path d="M688 565C688 562.234 690.234 560 693 560C695.766 560 698 562.234 698 565C698 567.766 695.766 570 693 570C690.234 570 688 567.766 688 565Z" fill="#4B4B4B"/>
<path d="M552 565C552 562.234 554.234 560 557 560C559.766 560 562 562.234 562 565C562 567.766 559.766 570 557 570C554.234 570 552 567.766 552 565Z" fill="#4B4B4B"/>
<rect x="552" y="599" width="146" height="1" fill="#4B4B4B"/>
<path d="M688 599C688 596.234 690.234 594 693 594C695.766 594 698 596.234 698 599C698 601.766 695.766 604 693 604C690.234 604 688 601.766 688 599Z" fill="#4B4B4B"/>
<path d="M552 599C552 596.234 554.234 594 557 594C559.766 594 562 596.234 562 599C562 601.766 559.766 604 557 604C554.234 604 552 601.766 552 599Z" fill="#4B4B4B"/>
<rect x="552" y="65" width="146" height="1" fill="#4B4B4B"/>
<path d="M688 65C688 62.234 690.234 60 693 60C695.766 60 698 62.234 698 65C698 67.766 695.766 70 693 70C690.234 70 688 67.766 688 65Z" fill="#4B4B4B"/>
<path d="M552 65C552 62.234 554.234 60 557 60C559.766 60 562 62.234 562 65C562 67.766 559.766 70 557 70C554.234 70 552 67.766 552 65Z" fill="#4B4B4B"/>
<rect x="552" y="99" width="146" height="1" fill="#4B4B4B"/>
<path d="M688 99C688 96.234 690.234 94 693 94C695.766 94 698 96.234 698 99C698 101.766 695.766 104 693 104C690.234 104 688 101.766 688 99Z" fill="#4B4B4B"/>
<path d="M552 99C552 96.234 554.234 94 557 94C559.766 94 562 96.234 562 99C562 101.766 559.766 104 557 104C554.234 104 552 101.766 552 99Z" fill="#4B4B4B"/>
<path d="M539.846 302.503V357.218H550.902V302.503H539.846ZM546.572 311.961H557.319C560.257 311.961 562.576 312.638 564.277 313.993C565.978 315.296 566.828 317.276 566.828 319.934C566.828 322.539 565.978 324.52 564.277 325.874C562.576 327.229 560.257 327.907 557.319 327.907H546.572V337.365H557.319C561.597 337.365 565.23 336.661 568.22 335.254C571.261 333.847 573.58 331.841 575.178 329.235C576.776 326.578 577.574 323.477 577.574 319.934C577.574 316.338 576.776 313.238 575.178 310.632C573.58 308.027 571.261 306.021 568.22 304.614C565.23 303.207 561.597 302.503 557.319 302.503H546.572V311.961Z" fill="#34B53A"/>
<path d="M580.463 339.241C580.463 342.94 581.313 346.223 583.014 349.089C584.766 351.903 587.112 354.092 590.049 355.655C593.039 357.218 596.415 358 600.177 358C603.94 358 607.29 357.218 610.228 355.655C613.217 354.092 615.562 351.903 617.263 349.089C619.016 346.223 619.892 342.94 619.892 339.241C619.892 335.489 619.016 332.206 617.263 329.392C615.562 326.578 613.217 324.389 610.228 322.826C607.29 321.263 603.94 320.481 600.177 320.481C596.415 320.481 593.039 321.263 590.049 322.826C587.112 324.389 584.766 326.578 583.014 329.392C581.313 332.206 580.463 335.489 580.463 339.241ZM590.668 339.241C590.668 337.208 591.08 335.41 591.905 333.847C592.781 332.284 593.941 331.085 595.384 330.252C596.827 329.418 598.425 329.001 600.177 329.001C601.93 329.001 603.528 329.418 604.971 330.252C606.414 331.085 607.548 332.284 608.372 333.847C609.249 335.41 609.687 337.208 609.687 339.241C609.687 341.273 609.249 343.071 608.372 344.634C607.548 346.145 606.414 347.344 604.971 348.229C603.528 349.063 601.93 349.48 600.177 349.48C598.425 349.48 596.827 349.063 595.384 348.229C593.941 347.344 592.781 346.145 591.905 344.634C591.08 343.071 590.668 341.273 590.668 339.241Z" fill="#34B53A"/>
<path d="M625.008 339.241C625.008 342.94 625.858 346.223 627.559 349.089C629.311 351.903 631.657 354.092 634.594 355.655C637.584 357.218 640.96 358 644.722 358C648.485 358 651.835 357.218 654.773 355.655C657.762 354.092 660.107 351.903 661.808 349.089C663.561 346.223 664.437 342.94 664.437 339.241C664.437 335.489 663.561 332.206 661.808 329.392C660.107 326.578 657.762 324.389 654.773 322.826C651.835 321.263 648.485 320.481 644.722 320.481C640.96 320.481 637.584 321.263 634.594 322.826C631.657 324.389 629.311 326.578 627.559 329.392C625.858 332.206 625.008 335.489 625.008 339.241ZM635.213 339.241C635.213 337.208 635.625 335.41 636.45 333.847C637.326 332.284 638.486 331.085 639.929 330.252C641.372 329.418 642.97 329.001 644.722 329.001C646.475 329.001 648.073 329.418 649.516 330.252C650.959 331.085 652.093 332.284 652.917 333.847C653.794 335.41 654.232 337.208 654.232 339.241C654.232 341.273 653.794 343.071 652.917 344.634C652.093 346.145 650.959 347.344 649.516 348.229C648.073 349.063 646.475 349.48 644.722 349.48C642.97 349.48 641.372 349.063 639.929 348.229C638.486 347.344 637.326 346.145 636.45 344.634C635.625 343.071 635.213 341.273 635.213 339.241Z" fill="#34B53A"/>
<path d="M671.949 296.25V357.218H682V296.25H671.949Z" fill="#34B53A"/>
<path d="M329.846 303.47V357.232H340.898V303.47H329.846ZM336.57 312.763H347.313C350.25 312.763 352.569 313.428 354.269 314.76C355.969 316.04 356.819 317.985 356.819 320.597C356.819 323.157 355.969 325.103 354.269 326.434C352.569 327.765 350.25 328.431 347.313 328.431H336.57V337.724H347.313C351.59 337.724 355.222 337.033 358.21 335.65C361.25 334.268 363.569 332.296 365.166 329.736C366.764 327.125 367.562 324.078 367.562 320.597C367.562 317.064 366.764 314.017 365.166 311.457C363.569 308.897 361.25 306.926 358.21 305.543C355.222 304.161 351.59 303.47 347.313 303.47H336.57V312.763Z" fill="#F3F3F3"/>
<path d="M383.491 321.902H373.676V357.232H383.491V321.902ZM393.925 332.271L398.485 323.822C397.763 322.901 396.81 322.21 395.625 321.749C394.492 321.288 393.281 321.058 391.993 321.058C390.138 321.058 388.334 321.723 386.583 323.054C384.831 324.334 383.414 326.075 382.332 328.277C381.25 330.428 380.709 332.911 380.709 335.727L383.491 338.492C383.491 336.802 383.697 335.369 384.109 334.191C384.573 332.962 385.243 332.015 386.119 331.349C386.995 330.684 388.051 330.351 389.288 330.351C390.318 330.351 391.168 330.53 391.838 330.888C392.559 331.196 393.255 331.656 393.925 332.271Z" fill="#F3F3F3"/>
<path d="M400.262 339.567C400.262 343.203 401.113 346.428 402.813 349.244C404.565 352.009 406.909 354.16 409.846 355.696C412.834 357.232 416.209 358 419.971 358C423.732 358 427.081 357.232 430.018 355.696C433.006 354.16 435.351 352.009 437.051 349.244C438.803 346.428 439.679 343.203 439.679 339.567C439.679 335.881 438.803 332.655 437.051 329.89C435.351 327.125 433.006 324.975 430.018 323.438C427.081 321.902 423.732 321.134 419.971 321.134C416.209 321.134 412.834 321.902 409.846 323.438C406.909 324.975 404.565 327.125 402.813 329.89C401.113 332.655 400.262 335.881 400.262 339.567ZM410.464 339.567C410.464 337.57 410.876 335.804 411.701 334.268C412.577 332.732 413.736 331.554 415.179 330.735C416.621 329.916 418.219 329.506 419.971 329.506C421.722 329.506 423.32 329.916 424.762 330.735C426.205 331.554 427.339 332.732 428.163 334.268C429.039 335.804 429.477 337.57 429.477 339.567C429.477 341.564 429.039 343.331 428.163 344.867C427.339 346.351 426.205 347.529 424.762 348.4C423.32 349.219 421.722 349.628 419.971 349.628C418.219 349.628 416.621 349.219 415.179 348.4C413.736 347.529 412.577 346.351 411.701 344.867C410.876 343.331 410.464 341.564 410.464 339.567Z" fill="#F3F3F3"/>
<path d="M444.175 321.902V330.274H466.433V321.902H444.175ZM465.351 307.31L469.602 299.86C469.138 299.348 468.494 298.81 467.67 298.247C466.897 297.684 465.944 297.223 464.81 296.864C463.677 296.455 462.311 296.25 460.714 296.25C458.035 296.25 455.768 296.762 453.913 297.786C452.058 298.759 450.667 300.167 449.739 302.01C448.812 303.854 448.348 306.132 448.348 308.846V357.232H458.009V311.073C458.009 309.742 458.163 308.641 458.473 307.771C458.782 306.9 459.194 306.286 459.709 305.927C460.276 305.518 460.946 305.313 461.719 305.313C462.337 305.313 462.955 305.466 463.574 305.774C464.243 306.03 464.836 306.542 465.351 307.31Z" fill="#F3F3F3"/>
<path d="M471.934 308.231C471.934 309.819 472.526 311.15 473.711 312.225C474.897 313.3 476.313 313.838 477.962 313.838C479.611 313.838 481.002 313.3 482.136 312.225C483.321 311.15 483.913 309.819 483.913 308.231C483.913 306.593 483.321 305.262 482.136 304.238C481.002 303.162 479.611 302.625 477.962 302.625C476.313 302.625 474.897 303.162 473.711 304.238C472.526 305.262 471.934 306.593 471.934 308.231ZM473.016 321.902V357.232H482.754V321.902H473.016Z" fill="#F3F3F3"/>
<path d="M488.82 321.902V330.274H510.769V321.902H488.82ZM494.925 309.614V357.232H504.586V309.614H494.925Z" fill="#F3F3F3"/>
<path d="M275.562 343.054C275.562 345.233 275.294 347.412 274.792 349.54C274.742 349.75 274.7 349.969 274.642 350.179C274.642 350.188 274.633 350.196 274.633 350.204C273.421 354.831 271.029 359.181 267.425 362.815C264.548 365.709 261.22 367.82 257.666 369.174C257.657 369.183 257.657 369.183 257.649 369.183C254.479 370.386 251.126 370.992 247.773 370.992C240.907 370.992 234.066 368.451 228.723 363.378C228.53 363.193 228.33 363 228.137 362.815C227.953 362.621 227.761 362.428 227.577 362.226C222.526 356.85 220.009 349.969 220.009 343.062C220.009 342.322 220.042 341.582 220.101 340.85C221.171 342.356 222.384 343.794 223.73 345.149C228.12 349.574 233.439 352.535 239.059 354.024C239.067 354.032 239.084 354.032 239.101 354.032C240.882 354.503 242.688 354.831 244.511 355.008C244.888 355.042 245.281 355.067 245.657 355.1C246.359 355.143 247.062 355.159 247.764 355.159C247.773 355.159 247.789 355.168 247.798 355.168C249.73 355.168 251.653 355 253.56 354.671C255.466 354.343 257.348 353.847 259.188 353.182C259.422 353.098 259.656 353.023 259.89 352.939H259.898C264.264 351.273 268.353 348.665 271.865 345.14C273.212 343.786 274.416 342.347 275.486 340.833C275.512 341.144 275.537 341.464 275.553 341.784C275.553 342.204 275.562 342.625 275.562 343.054Z" fill="#34B53A"/>
<path d="M297.538 320.921C297.538 321.661 297.505 322.41 297.446 323.15C296.368 321.644 295.163 320.206 293.817 318.851C289.418 314.426 284.108 311.465 278.488 309.976C278.48 309.968 278.463 309.968 278.447 309.968C276.314 309.396 274.131 309.042 271.94 308.899C271.213 308.857 270.477 308.832 269.749 308.832C269.239 308.832 268.721 308.84 268.211 308.866C267.542 308.899 266.873 308.95 266.204 309.017C265.752 309.059 265.309 309.118 264.866 309.185C264.648 309.219 264.422 309.253 264.205 309.295C264.105 309.303 264.004 309.32 263.912 309.337C263.887 309.345 263.87 309.345 263.845 309.345C263.745 309.362 263.645 309.379 263.544 309.404C263.327 309.446 263.101 309.488 262.884 309.53C262.666 309.572 262.44 309.631 262.223 309.682C262.106 309.707 262.006 309.732 261.897 309.757C261.838 309.774 261.78 309.783 261.73 309.799C261.671 309.808 261.621 309.825 261.562 309.841C261.345 309.892 261.119 309.951 260.902 310.01C260.626 310.085 260.358 310.161 260.082 310.237C260.057 310.245 260.024 310.254 259.999 310.262C259.973 310.27 259.957 310.279 259.932 310.287C259.923 310.287 259.907 310.296 259.89 310.296C259.881 310.296 259.881 310.296 259.873 310.304C259.831 310.313 259.773 310.329 259.723 310.346C259.697 310.355 259.681 310.355 259.664 310.363C259.639 310.371 259.622 310.38 259.597 310.388C259.463 310.43 259.338 310.472 259.204 310.514C259.087 310.556 258.978 310.59 258.87 310.632C258.853 310.641 258.828 310.641 258.811 310.649C258.753 310.666 258.694 310.691 258.644 310.708C258.585 310.725 258.527 310.75 258.477 310.767C258.418 310.784 258.368 310.809 258.309 310.826C258.092 310.901 257.883 310.977 257.674 311.061H257.665C253.3 312.727 249.211 315.335 245.707 318.86C244.36 320.214 243.148 321.652 242.077 323.158C242.052 322.847 242.036 322.536 242.019 322.225C242.002 321.804 241.994 321.383 241.994 320.963C241.994 320.66 242.019 320.365 242.019 320.063C242.077 318.153 242.337 316.235 242.788 314.367C242.83 314.182 242.863 314.006 242.914 313.821C242.914 313.812 242.914 313.812 242.922 313.804C244.135 309.177 246.526 304.828 250.131 301.193C253.007 298.3 256.336 296.188 259.898 294.834C263.093 293.614 266.471 293.017 269.866 293.017C276.69 293.017 283.506 295.566 288.841 300.63C289.034 300.815 289.226 301 289.418 301.193V301.202C289.611 301.387 289.795 301.58 289.987 301.782C295.013 307.149 297.538 314.022 297.538 320.921Z" fill="#34B53A"/>
<path d="M245.698 345.149C247.045 346.503 248.475 347.723 249.972 348.8C249.244 348.858 248.517 348.892 247.789 348.892C245.406 348.892 243.014 348.581 240.698 347.967C240.689 347.967 240.681 347.958 240.672 347.958C236.081 346.739 231.75 344.333 228.137 340.707C225.26 337.813 223.153 334.465 221.806 330.89C220.602 327.693 220 324.311 220 320.929C220 314.031 222.526 307.15 227.568 301.766C227.752 301.572 227.945 301.379 228.137 301.185C228.321 300.992 228.522 300.807 228.714 300.613C234.066 295.532 240.907 293 247.781 293C248.517 293 249.244 293.034 249.98 293.093C249.947 293.118 249.913 293.135 249.88 293.168C248.416 294.228 247.02 295.423 245.698 296.744C241.3 301.168 238.348 306.519 236.876 312.163C236.868 312.172 236.867 312.189 236.859 312.197C236.106 315.066 235.739 318.01 235.739 320.954C235.739 325.077 236.474 329.199 237.955 333.11C239.602 337.502 242.194 341.624 245.698 345.149Z" fill="#FF3A29"/>
<path d="M297.538 343.07C297.538 349.968 295.013 356.85 289.97 362.234C289.786 362.427 289.594 362.621 289.402 362.814C289.209 363.008 289.017 363.193 288.825 363.386C283.472 368.467 276.64 371 269.774 371C269.039 371 268.294 370.966 267.567 370.907C269.064 369.83 270.494 368.61 271.84 367.264C276.23 362.84 279.182 357.498 280.663 351.844C280.671 351.828 280.671 351.819 280.671 351.802C280.955 350.726 281.181 349.64 281.357 348.547C281.474 347.823 281.566 347.091 281.641 346.36C281.741 345.258 281.8 344.156 281.8 343.053C281.8 338.923 281.064 334.801 279.584 330.881C278.756 328.685 277.694 326.565 276.398 324.538C275.11 322.519 273.579 320.609 271.832 318.851C270.485 317.488 269.047 316.277 267.542 315.192C267.851 315.166 268.169 315.149 268.487 315.133C268.905 315.116 269.323 315.107 269.741 315.107C270.335 315.107 270.937 315.124 271.539 315.166C273.32 315.284 275.093 315.57 276.841 316.033C276.849 316.033 276.849 316.041 276.866 316.041C281.457 317.261 285.789 319.667 289.402 323.293C292.278 326.187 294.377 329.535 295.732 333.11C296.936 336.307 297.538 339.689 297.538 343.07Z" fill="#FFB200"/>
<path d="M451 395C450.72 395 450.5 395.595 450.5 396.353V498.647C450.5 499.405 450.72 500 451 500C451.28 500 451.5 499.405 451.5 498.647V396.353C451.5 395.595 451.27 395 451 395Z" fill="#4B4B4B"/>
<path d="M446 495C446 497.766 448.234 500 451 500C453.766 500 456 497.766 456 495C456 492.234 453.766 490 451 490C448.234 490 446 492.234 446 495Z" fill="#4B4B4B"/>
<path d="M446 400C446 397.234 448.234 395 451 395C453.766 395 456 397.234 456 400C456 402.766 453.766 405 451 405C448.234 405 446 402.766 446 400Z" fill="#4B4B4B"/>
<path d="M451 269C450.72 269 450.5 268.405 450.5 267.647V165.353C450.5 164.595 450.72 164 451 164C451.28 164 451.5 164.595 451.5 165.353V267.647C451.5 268.405 451.27 269 451 269Z" fill="#4B4B4B"/>
<path d="M446 169C446 166.234 448.234 164 451 164C453.766 164 456 166.234 456 169C456 171.766 453.766 174 451 174C448.234 174 446 171.766 446 169Z" fill="#4B4B4B"/>
<path d="M446 264C446 266.766 448.234 269 451 269C453.766 269 456 266.766 456 264C456 261.234 453.766 259 451 259C448.234 259 446 261.234 446 264Z" fill="#4B4B4B"/>
<rect x="698.5" y="500.5" width="202" height="163" rx="7.5" fill="#2D2D2D" stroke="#4B4B4B"/>
<path d="M768.011 594V602.68L758.051 593.3V608H760.811V599.32L770.771 608.7V594H768.011ZM775.653 596.5H781.913V594H775.653V596.5ZM775.653 602.02H781.713V599.64H775.653V602.02ZM773.813 594V608H776.573V594H773.813ZM782.53 596.58H786.29V608H789.15V596.58H792.93V594H782.53V596.58ZM793.135 604.38H797.315V602.12H793.135V604.38ZM807.51 601.08L807.61 598.1L798.85 605.72L798.75 608.7L807.51 601.08ZM801.25 598.8H798.75V608.7L801.25 606.08V598.8ZM807.61 598.1L805.11 600.72V608H807.61V598.1ZM810.293 598.8V608H812.833V600.98H815.873V598.8H810.293ZM819.746 612.4V598.8H817.146V612.4H819.746ZM827.306 603.4C827.306 602.347 827.099 601.46 826.686 600.74C826.272 600.007 825.726 599.453 825.046 599.08C824.379 598.707 823.659 598.52 822.886 598.52C822.099 598.52 821.412 598.72 820.826 599.12C820.252 599.52 819.806 600.087 819.486 600.82C819.179 601.54 819.026 602.4 819.026 603.4C819.026 604.387 819.179 605.247 819.486 605.98C819.806 606.713 820.252 607.28 820.826 607.68C821.412 608.08 822.099 608.28 822.886 608.28C823.659 608.28 824.379 608.093 825.046 607.72C825.726 607.347 826.272 606.793 826.686 606.06C827.099 605.327 827.306 604.44 827.306 603.4ZM824.626 603.4C824.626 603.947 824.512 604.413 824.286 604.8C824.059 605.187 823.752 605.48 823.366 605.68C822.992 605.88 822.579 605.98 822.126 605.98C821.739 605.98 821.359 605.887 820.986 605.7C820.626 605.5 820.326 605.207 820.086 604.82C819.859 604.433 819.746 603.96 819.746 603.4C819.746 602.84 819.859 602.367 820.086 601.98C820.326 601.593 820.626 601.307 820.986 601.12C821.359 600.92 821.739 600.82 822.126 600.82C822.579 600.82 822.992 600.92 823.366 601.12C823.752 601.32 824.059 601.613 824.286 602C824.512 602.387 824.626 602.853 824.626 603.4ZM838.617 598.8V608H841.197V598.8H838.617ZM829.237 598.8V608H831.837V598.8H829.237ZM831.177 603.8H833.657C834.07 603.8 834.384 603.9 834.597 604.1C834.824 604.287 834.937 604.547 834.937 604.88C834.937 605.107 834.884 605.3 834.777 605.46C834.684 605.62 834.544 605.747 834.357 605.84C834.17 605.92 833.937 605.96 833.657 605.96H831.177V608H834.037C834.677 608 835.25 607.88 835.757 607.64C836.264 607.4 836.664 607.047 836.957 606.58C837.25 606.1 837.397 605.533 837.397 604.88C837.397 603.893 837.07 603.173 836.417 602.72C835.777 602.253 834.984 602.02 834.037 602.02H831.177V603.8ZM741.524 627.08L741.624 624.1L732.864 631.72L732.764 634.7L741.524 627.08ZM735.264 624.8H732.764V634.7L735.264 632.08V624.8ZM741.624 624.1L739.124 626.72V634H741.624V624.1ZM760.443 620V628.68L750.483 619.3V634H753.243V625.32L763.203 634.7V620H760.443ZM768.085 622.5H774.345V620H768.085V622.5ZM768.085 628.02H774.145V625.64H768.085V628.02ZM766.245 620V634H769.005V620H766.245ZM774.962 622.58H778.722V634H781.582V622.58H785.362V620H774.962V622.58ZM785.567 630.38H789.747V628.12H785.567V630.38ZM799.902 634H802.562L799.902 624.1L798.582 627.38L799.902 634ZM795.622 631.76L796.222 634.62L800.102 627.9L799.902 624.1L795.622 631.76ZM796.222 634.62L796.822 631.76L792.602 624.1L792.402 627.9L796.222 634.62ZM789.942 634H792.602L793.922 627.38L792.602 624.1L789.942 634ZM805.774 631.26C805.774 630.98 805.841 630.74 805.974 630.54C806.121 630.34 806.334 630.18 806.614 630.06C806.894 629.94 807.234 629.88 807.634 629.88C808.181 629.88 808.654 629.947 809.054 630.08C809.454 630.213 809.841 630.42 810.214 630.7V629.44C810.094 629.293 809.888 629.14 809.594 628.98C809.301 628.82 808.941 628.68 808.514 628.56C808.088 628.44 807.628 628.38 807.134 628.38C806.334 628.38 805.634 628.5 805.034 628.74C804.448 628.98 803.988 629.327 803.654 629.78C803.334 630.22 803.174 630.753 803.174 631.38C803.174 631.993 803.314 632.513 803.594 632.94C803.888 633.353 804.281 633.667 804.774 633.88C805.268 634.093 805.828 634.2 806.454 634.2C807.094 634.2 807.668 634.093 808.174 633.88C808.694 633.653 809.108 633.333 809.414 632.92C809.721 632.493 809.874 631.987 809.874 631.4L809.554 630.32C809.554 630.827 809.454 631.233 809.254 631.54C809.054 631.847 808.781 632.067 808.434 632.2C808.088 632.333 807.708 632.4 807.294 632.4C807.014 632.4 806.754 632.36 806.514 632.28C806.288 632.187 806.108 632.06 805.974 631.9C805.841 631.727 805.774 631.513 805.774 631.26ZM804.954 627.42C805.101 627.327 805.314 627.213 805.594 627.08C805.888 626.947 806.221 626.833 806.594 626.74C806.981 626.633 807.394 626.58 807.834 626.58C808.341 626.58 808.754 626.7 809.074 626.94C809.394 627.167 809.554 627.487 809.554 627.9V634H812.054V627.48C812.054 626.853 811.881 626.327 811.534 625.9C811.188 625.46 810.708 625.127 810.094 624.9C809.494 624.673 808.794 624.56 807.994 624.56C807.168 624.56 806.414 624.68 805.734 624.92C805.054 625.147 804.481 625.387 804.014 625.64L804.954 627.42ZM817.002 638.4V624.8H814.402V638.4H817.002ZM824.562 629.4C824.562 628.347 824.355 627.46 823.942 626.74C823.528 626.007 822.982 625.453 822.302 625.08C821.635 624.707 820.915 624.52 820.142 624.52C819.355 624.52 818.668 624.72 818.082 625.12C817.508 625.52 817.062 626.087 816.742 626.82C816.435 627.54 816.282 628.4 816.282 629.4C816.282 630.387 816.435 631.247 816.742 631.98C817.062 632.713 817.508 633.28 818.082 633.68C818.668 634.08 819.355 634.28 820.142 634.28C820.915 634.28 821.635 634.093 822.302 633.72C822.982 633.347 823.528 632.793 823.942 632.06C824.355 631.327 824.562 630.44 824.562 629.4ZM821.882 629.4C821.882 629.947 821.768 630.413 821.542 630.8C821.315 631.187 821.008 631.48 820.622 631.68C820.248 631.88 819.835 631.98 819.382 631.98C818.995 631.98 818.615 631.887 818.242 631.7C817.882 631.5 817.582 631.207 817.342 630.82C817.115 630.433 817.002 629.96 817.002 629.4C817.002 628.84 817.115 628.367 817.342 627.98C817.582 627.593 817.882 627.307 818.242 627.12C818.615 626.92 818.995 626.82 819.382 626.82C819.835 626.82 820.248 626.92 820.622 627.12C821.008 627.32 821.315 627.613 821.542 628C821.768 628.387 821.882 628.853 821.882 629.4ZM826.433 624.8V634H828.933V624.8H826.433ZM832.313 624.8L828.353 628.6L832.733 634H835.813L831.453 628.6L835.413 624.8H832.313ZM837.744 629.98H845.984C846.01 629.833 846.024 629.7 846.024 629.58C846.024 629.46 846.024 629.36 846.024 629.28C846.024 628.307 845.837 627.473 845.464 626.78C845.09 626.087 844.544 625.553 843.824 625.18C843.117 624.793 842.257 624.6 841.244 624.6C840.324 624.6 839.517 624.76 838.824 625.08C838.13 625.4 837.577 625.847 837.164 626.42C836.75 626.993 836.477 627.66 836.344 628.42C836.317 628.58 836.297 628.74 836.284 628.9C836.27 629.06 836.264 629.227 836.264 629.4C836.264 630.32 836.457 631.147 836.844 631.88C837.244 632.6 837.817 633.167 838.564 633.58C839.31 633.993 840.197 634.2 841.224 634.2C842.077 634.2 842.797 634.093 843.384 633.88C843.984 633.667 844.49 633.367 844.904 632.98C845.317 632.58 845.677 632.12 845.984 631.6L843.724 630.9C843.564 631.167 843.364 631.4 843.124 631.6C842.884 631.8 842.61 631.953 842.304 632.06C841.997 632.167 841.644 632.22 841.244 632.22C840.79 632.22 840.384 632.127 840.024 631.94C839.664 631.74 839.377 631.433 839.164 631.02C838.964 630.593 838.864 630.053 838.864 629.4L838.904 628.88C838.904 628.373 839.004 627.933 839.204 627.56C839.404 627.187 839.677 626.907 840.024 626.72C840.37 626.52 840.764 626.42 841.204 626.42C841.63 626.42 841.984 626.5 842.264 626.66C842.544 626.82 842.764 627.047 842.924 627.34C843.084 627.633 843.19 627.98 843.244 628.38H837.744V629.98ZM846.836 624.8V626.98H852.956V624.8H846.836ZM848.656 625.2V634H851.156V625.2H848.656ZM863.724 624.8V634H866.304V624.8H863.724ZM854.344 624.8V634H856.944V624.8H854.344ZM856.284 629.8H858.764C859.178 629.8 859.491 629.9 859.704 630.1C859.931 630.287 860.044 630.547 860.044 630.88C860.044 631.107 859.991 631.3 859.884 631.46C859.791 631.62 859.651 631.747 859.464 631.84C859.278 631.92 859.044 631.96 858.764 631.96H856.284V634H859.144C859.784 634 860.358 633.88 860.864 633.64C861.371 633.4 861.771 633.047 862.064 632.58C862.358 632.1 862.504 631.533 862.504 630.88C862.504 629.893 862.178 629.173 861.524 628.72C860.884 628.253 860.091 628.02 859.144 628.02H856.284V629.8Z" fill="#F3F3F3"/>
<path d="M805.996 534C809.669 533.998 813.195 535.44 815.815 538.014C818.434 540.588 819.938 544.088 820.001 547.76C820.064 551.432 818.681 554.982 816.151 557.644C813.621 560.306 810.147 561.868 806.476 561.992L805.996 562H794.004C790.331 562.002 786.805 560.56 784.185 557.986C781.566 555.412 780.062 551.912 779.999 548.24C779.936 544.568 781.319 541.018 783.849 538.356C786.379 535.694 789.853 534.132 793.524 534.008L794.002 534H805.994H805.996ZM805.996 537H794.004C791.121 536.994 788.351 538.12 786.289 540.136C784.228 542.152 783.041 544.896 782.983 547.779C782.925 550.661 784.001 553.452 785.98 555.549C787.958 557.646 790.681 558.882 793.562 558.992L794.004 559H805.996C808.879 559.006 811.649 557.88 813.711 555.864C815.772 553.848 816.959 551.104 817.017 548.221C817.075 545.339 815.999 542.548 814.02 540.451C812.042 538.354 809.319 537.118 806.438 537.008L805.996 537ZM792 542C792.398 542 792.779 542.158 793.061 542.439C793.342 542.721 793.5 543.102 793.5 543.5V546.496H796.5C796.898 546.496 797.279 546.654 797.561 546.935C797.842 547.217 798 547.598 798 547.996C798 548.394 797.842 548.775 797.561 549.057C797.279 549.338 796.898 549.496 796.5 549.496H793.5V552.5C793.5 552.898 793.342 553.279 793.061 553.561C792.779 553.842 792.398 554 792 554C791.602 554 791.221 553.842 790.939 553.561C790.658 553.279 790.5 552.898 790.5 552.5V549.496H787.5C787.303 549.496 787.108 549.457 786.926 549.382C786.744 549.306 786.579 549.196 786.439 549.057C786.3 548.917 786.19 548.752 786.114 548.57C786.039 548.388 786 548.193 786 547.996C786 547.799 786.039 547.604 786.114 547.422C786.19 547.24 786.3 547.075 786.439 546.935C786.579 546.796 786.744 546.686 786.926 546.61C787.108 546.535 787.303 546.496 787.5 546.496H790.5V543.5C790.5 543.102 790.658 542.721 790.939 542.439C791.221 542.158 791.602 542 792 542ZM805.5 549C806.163 549 806.799 549.263 807.268 549.732C807.737 550.201 808 550.837 808 551.5C808 552.163 807.737 552.799 807.268 553.268C806.799 553.737 806.163 554 805.5 554C804.837 554 804.201 553.737 803.732 553.268C803.263 552.799 803 552.163 803 551.5C803 550.837 803.263 550.201 803.732 549.732C804.201 549.263 804.837 549 805.5 549ZM809.5 542C810.163 542 810.799 542.263 811.268 542.732C811.737 543.201 812 543.837 812 544.5C812 545.163 811.737 545.799 811.268 546.268C810.799 546.737 810.163 547 809.5 547C808.837 547 808.201 546.737 807.732 546.268C807.263 545.799 807 545.163 807 544.5C807 543.837 807.263 543.201 807.732 542.732C808.201 542.263 808.837 542 809.5 542Z" fill="#FFB200"/>
<rect x="349.5" y="500.5" width="202" height="163" rx="7.5" fill="#2D2D2D" stroke="#4B4B4B"/>
<path d="M417.628 601.76H421.688C422.168 601.76 422.588 601.833 422.948 601.98C423.308 602.113 423.581 602.32 423.768 602.6C423.968 602.88 424.068 603.24 424.068 603.68C424.068 604.107 423.968 604.46 423.768 604.74C423.581 605.02 423.308 605.233 422.948 605.38C422.588 605.513 422.168 605.58 421.688 605.58H417.628V608H422.208C423.115 608 423.921 607.82 424.628 607.46C425.348 607.1 425.915 606.593 426.328 605.94C426.755 605.287 426.968 604.533 426.968 603.68C426.968 602.813 426.755 602.06 426.328 601.42C425.915 600.767 425.348 600.267 424.628 599.92C423.921 599.56 423.115 599.38 422.208 599.38H417.628V601.76ZM416.688 594V608H419.588V596.42H425.908V594H416.688ZM437.864 601.08L437.964 598.1L429.204 605.72L429.104 608.7L437.864 601.08ZM431.604 598.8H429.104V608.7L431.604 606.08V598.8ZM437.964 598.1L435.464 600.72V608H437.964V598.1ZM443.127 612.4V598.8H440.527V612.4H443.127ZM450.687 603.4C450.687 602.347 450.48 601.46 450.067 600.74C449.653 600.007 449.107 599.453 448.427 599.08C447.76 598.707 447.04 598.52 446.267 598.52C445.48 598.52 444.793 598.72 444.207 599.12C443.633 599.52 443.187 600.087 442.867 600.82C442.56 601.54 442.407 602.4 442.407 603.4C442.407 604.387 442.56 605.247 442.867 605.98C443.187 606.713 443.633 607.28 444.207 607.68C444.793 608.08 445.48 608.28 446.267 608.28C447.04 608.28 447.76 608.093 448.427 607.72C449.107 607.347 449.653 606.793 450.067 606.06C450.48 605.327 450.687 604.44 450.687 603.4ZM448.007 603.4C448.007 603.947 447.893 604.413 447.667 604.8C447.44 605.187 447.133 605.48 446.747 605.68C446.373 605.88 445.96 605.98 445.507 605.98C445.12 605.98 444.74 605.887 444.367 605.7C444.007 605.5 443.707 605.207 443.467 604.82C443.24 604.433 443.127 603.96 443.127 603.4C443.127 602.84 443.24 602.367 443.467 601.98C443.707 601.593 444.007 601.307 444.367 601.12C444.74 600.92 445.12 600.82 445.507 600.82C445.96 600.82 446.373 600.92 446.747 601.12C447.133 601.32 447.44 601.613 447.667 602C447.893 602.387 448.007 602.853 448.007 603.4ZM463.945 598.8L459.945 602.6L464.345 608H467.365L462.945 602.72L466.965 598.8H463.945ZM460.425 598.8H457.985V608H460.425V598.8ZM454.465 598.8H451.445L455.465 602.72L451.045 608H454.065L458.465 602.6L454.465 598.8ZM477.473 601.08L477.573 598.1L468.813 605.72L468.713 608.7L477.473 601.08ZM471.213 598.8H468.713V608.7L471.213 606.08V598.8ZM477.573 598.1L475.073 600.72V608H477.573V598.1ZM397.532 627.08L397.632 624.1L388.872 631.72L388.772 634.7L397.532 627.08ZM391.272 624.8H388.772V634.7L391.272 632.08V624.8ZM397.632 624.1L395.132 626.72V634H397.632V624.1ZM418.071 620H407.211V628.44C407.211 628.907 407.164 629.333 407.071 629.72C406.977 630.107 406.844 630.44 406.671 630.72C406.497 631 406.284 631.213 406.031 631.36C405.777 631.507 405.491 631.58 405.171 631.58V634C406.304 634 407.231 633.78 407.951 633.34C408.671 632.9 409.197 632.267 409.531 631.44C409.877 630.6 410.051 629.593 410.051 628.42V622.58H415.171V634H418.071V620ZM422.798 631.26C422.798 630.98 422.864 630.74 422.998 630.54C423.144 630.34 423.358 630.18 423.638 630.06C423.918 629.94 424.258 629.88 424.658 629.88C425.204 629.88 425.678 629.947 426.078 630.08C426.478 630.213 426.864 630.42 427.238 630.7V629.44C427.118 629.293 426.911 629.14 426.618 628.98C426.324 628.82 425.964 628.68 425.538 628.56C425.111 628.44 424.651 628.38 424.158 628.38C423.358 628.38 422.658 628.5 422.058 628.74C421.471 628.98 421.011 629.327 420.678 629.78C420.358 630.22 420.198 630.753 420.198 631.38C420.198 631.993 420.338 632.513 420.618 632.94C420.911 633.353 421.304 633.667 421.798 633.88C422.291 634.093 422.851 634.2 423.478 634.2C424.118 634.2 424.691 634.093 425.198 633.88C425.718 633.653 426.131 633.333 426.438 632.92C426.744 632.493 426.898 631.987 426.898 631.4L426.578 630.32C426.578 630.827 426.478 631.233 426.278 631.54C426.078 631.847 425.804 632.067 425.458 632.2C425.111 632.333 424.731 632.4 424.318 632.4C424.038 632.4 423.778 632.36 423.538 632.28C423.311 632.187 423.131 632.06 422.998 631.9C422.864 631.727 422.798 631.513 422.798 631.26ZM421.978 627.42C422.124 627.327 422.338 627.213 422.618 627.08C422.911 626.947 423.244 626.833 423.618 626.74C424.004 626.633 424.418 626.58 424.858 626.58C425.364 626.58 425.778 626.7 426.098 626.94C426.418 627.167 426.578 627.487 426.578 627.9V634H429.078V627.48C429.078 626.853 428.904 626.327 428.558 625.9C428.211 625.46 427.731 625.127 427.118 624.9C426.518 624.673 425.818 624.56 425.018 624.56C424.191 624.56 423.438 624.68 422.758 624.92C422.078 625.147 421.504 625.387 421.038 625.64L421.978 627.42ZM440.147 624.8H437.447L434.547 632.08L435.827 632.12L432.867 624.8H429.987L433.807 633.08L431.487 638.4H434.147L440.147 624.8ZM442.249 630.16H449.489V628.14H442.249V630.16ZM448.229 624.8V634H450.729V624.8H448.229ZM441.309 624.8V634H443.809V624.8H441.309ZM456.602 631.54H459.742V629.36H457.202L456.602 631.54ZM458.602 624.8V634H461.182V624.8H458.602ZM455.582 624.8H453.002V627.44C453.002 628.333 453.109 629.087 453.322 629.7C453.535 630.313 453.902 630.773 454.422 631.08C454.955 631.387 455.682 631.54 456.602 631.54L457.202 629.36C456.815 629.36 456.502 629.3 456.262 629.18C456.022 629.06 455.849 628.873 455.742 628.62C455.635 628.367 455.582 628.033 455.582 627.62V624.8ZM472.468 624.8H463.848V634H466.348V627.08H469.968V634H472.468V624.8ZM476.86 631.26C476.86 630.98 476.927 630.74 477.06 630.54C477.207 630.34 477.42 630.18 477.7 630.06C477.98 629.94 478.32 629.88 478.72 629.88C479.267 629.88 479.74 629.947 480.14 630.08C480.54 630.213 480.927 630.42 481.3 630.7V629.44C481.18 629.293 480.974 629.14 480.68 628.98C480.387 628.82 480.027 628.68 479.6 628.56C479.174 628.44 478.714 628.38 478.22 628.38C477.42 628.38 476.72 628.5 476.12 628.74C475.534 628.98 475.074 629.327 474.74 629.78C474.42 630.22 474.26 630.753 474.26 631.38C474.26 631.993 474.4 632.513 474.68 632.94C474.974 633.353 475.367 633.667 475.86 633.88C476.354 634.093 476.914 634.2 477.54 634.2C478.18 634.2 478.754 634.093 479.26 633.88C479.78 633.653 480.194 633.333 480.5 632.92C480.807 632.493 480.96 631.987 480.96 631.4L480.64 630.32C480.64 630.827 480.54 631.233 480.34 631.54C480.14 631.847 479.867 632.067 479.52 632.2C479.174 632.333 478.794 632.4 478.38 632.4C478.1 632.4 477.84 632.36 477.6 632.28C477.374 632.187 477.194 632.06 477.06 631.9C476.927 631.727 476.86 631.513 476.86 631.26ZM476.04 627.42C476.187 627.327 476.4 627.213 476.68 627.08C476.974 626.947 477.307 626.833 477.68 626.74C478.067 626.633 478.48 626.58 478.92 626.58C479.427 626.58 479.84 626.7 480.16 626.94C480.48 627.167 480.64 627.487 480.64 627.9V634H483.14V627.48C483.14 626.853 482.967 626.327 482.62 625.9C482.274 625.46 481.794 625.127 481.18 624.9C480.58 624.673 479.88 624.56 479.08 624.56C478.254 624.56 477.5 624.68 476.82 624.92C476.14 625.147 475.567 625.387 475.1 625.64L476.04 627.42ZM491.108 628.16L493.468 633.4L496.048 632.98L491.108 624.1L486.188 632.98L488.748 633.4L491.108 628.16ZM494.688 634V635.8H497.148V631.9H485.068V635.8H487.628V634H494.688ZM508.717 624.8V634H511.297V624.8H508.717ZM499.337 624.8V634H501.937V624.8H499.337ZM501.277 629.8H503.757C504.17 629.8 504.483 629.9 504.697 630.1C504.923 630.287 505.037 630.547 505.037 630.88C505.037 631.107 504.983 631.3 504.877 631.46C504.783 631.62 504.643 631.747 504.457 631.84C504.27 631.92 504.037 631.96 503.757 631.96H501.277V634H504.137C504.777 634 505.35 633.88 505.857 633.64C506.363 633.4 506.763 633.047 507.057 632.58C507.35 632.1 507.497 631.533 507.497 630.88C507.497 629.893 507.17 629.173 506.517 628.72C505.877 628.253 505.083 628.02 504.137 628.02H501.277V629.8Z" fill="#F3F3F3"/>
<path d="M456.22 528.94L456.066 528.806C455.778 528.586 455.419 528.479 455.058 528.503C454.696 528.528 454.356 528.683 454.1 528.94L453.964 529.096C453.745 529.386 453.639 529.746 453.664 530.108C453.689 530.471 453.844 530.812 454.1 531.07L458.042 535.024H444L443.534 535.032C436.57 535.278 431 541.02 431 548.072C431 551.452 432.28 554.532 434.384 556.852L434.528 556.99C434.811 557.232 435.174 557.36 435.546 557.35C435.918 557.34 436.273 557.191 436.542 556.934C436.812 556.676 436.975 556.328 437.002 555.957C437.029 555.586 436.917 555.217 436.688 554.924L436.288 554.462C434.805 552.662 433.995 550.402 434 548.07C434 542.528 438.478 538.034 444 538.034H457.762L454.098 541.714L453.964 541.87C453.745 542.16 453.639 542.52 453.664 542.882C453.689 543.245 453.844 543.586 454.1 543.844C454.239 543.983 454.404 544.094 454.586 544.17C454.768 544.245 454.963 544.284 455.16 544.284C455.357 544.284 455.552 544.245 455.734 544.17C455.916 544.094 456.081 543.983 456.22 543.844L462.584 537.458L462.718 537.302C462.937 537.012 463.044 536.652 463.019 536.29C462.995 535.927 462.84 535.586 462.584 535.328L456.22 528.94ZM467.46 539.142C467.17 538.903 466.802 538.781 466.426 538.8C466.051 538.819 465.697 538.978 465.433 539.246C465.17 539.513 465.016 539.87 465.002 540.246C464.989 540.621 465.116 540.988 465.36 541.274C467.062 543.127 468.005 545.553 468 548.07C468 553.614 463.522 558.108 458 558.108H444.116L447.926 554.286L448.074 554.114C448.266 553.852 448.369 553.535 448.366 553.21C448.364 552.885 448.256 552.569 448.06 552.31L447.926 552.156L447.758 552.01C447.497 551.816 447.181 551.713 446.856 551.715C446.531 551.717 446.216 551.825 445.958 552.022L445.806 552.156L439.442 558.544L439.296 558.714C439.104 558.976 439.001 559.293 439.003 559.618C439.005 559.943 439.112 560.259 439.308 560.518L439.442 560.672L445.806 567.06L445.974 567.204C446.56 567.644 447.394 567.594 447.926 567.058C448.182 566.8 448.337 566.459 448.362 566.096C448.387 565.734 448.281 565.374 448.062 565.084L447.926 564.93L444.128 561.118H458L458.466 561.11C465.43 560.864 471 555.12 471 548.07C471.005 544.819 469.795 541.684 467.606 539.28L467.46 539.142Z" fill="#FFB200"/>
<rect x="0.5" y="500.5" width="202" height="163" rx="7.5" fill="#2D2D2D" stroke="#4B4B4B"/>
<path d="M31.5942 594V608H34.5342V594H31.5942ZM39.5142 594L33.6942 600.64L39.7342 608H43.2142L37.1142 600.56L42.9142 594H39.5142ZM47.0583 612.4V598.8H44.4583V612.4H47.0583ZM54.6183 603.4C54.6183 602.347 54.4116 601.46 53.9983 600.74C53.5849 600.007 53.0383 599.453 52.3583 599.08C51.6916 598.707 50.9716 598.52 50.1983 598.52C49.4116 598.52 48.7249 598.72 48.1383 599.12C47.5649 599.52 47.1183 600.087 46.7983 600.82C46.4916 601.54 46.3383 602.4 46.3383 603.4C46.3383 604.387 46.4916 605.247 46.7983 605.98C47.1183 606.713 47.5649 607.28 48.1383 607.68C48.7249 608.08 49.4116 608.28 50.1983 608.28C50.9716 608.28 51.6916 608.093 52.3583 607.72C53.0383 607.347 53.5849 606.793 53.9983 606.06C54.4116 605.327 54.6183 604.44 54.6183 603.4ZM51.9383 603.4C51.9383 603.947 51.8249 604.413 51.5983 604.8C51.3716 605.187 51.0649 605.48 50.6783 605.68C50.3049 605.88 49.8916 605.98 49.4383 605.98C49.0516 605.98 48.6716 605.887 48.2983 605.7C47.9383 605.5 47.6383 605.207 47.3983 604.82C47.1716 604.433 47.0583 603.96 47.0583 603.4C47.0583 602.84 47.1716 602.367 47.3983 601.98C47.6383 601.593 47.9383 601.307 48.2983 601.12C48.6716 600.92 49.0516 600.82 49.4383 600.82C49.8916 600.82 50.3049 600.92 50.6783 601.12C51.0649 601.32 51.3716 601.613 51.5983 602C51.8249 602.387 51.9383 602.853 51.9383 603.4ZM65.3695 601.08L65.4695 598.1L56.7095 605.72L56.6095 608.7L65.3695 601.08ZM59.1095 598.8H56.6095V608.7L59.1095 606.08V598.8ZM65.4695 598.1L62.9695 600.72V608H65.4695V598.1ZM76.7125 598.8H68.0925V608H70.5925V601.08H74.2125V608H76.7125V598.8ZM78.0844 598.8V600.98H84.2044V598.8H78.0844ZM79.9044 599.2V608H82.4044V599.2H79.9044ZM84.6795 603.4C84.6795 604.347 84.8995 605.187 85.3395 605.92C85.7929 606.64 86.3995 607.2 87.1595 607.6C87.9329 608 88.8062 608.2 89.7795 608.2C90.7529 608.2 91.6195 608 92.3795 607.6C93.1529 607.2 93.7595 606.64 94.1995 605.92C94.6529 605.187 94.8795 604.347 94.8795 603.4C94.8795 602.44 94.6529 601.6 94.1995 600.88C93.7595 600.16 93.1529 599.6 92.3795 599.2C91.6195 598.8 90.7529 598.6 89.7795 598.6C88.8062 598.6 87.9329 598.8 87.1595 599.2C86.3995 599.6 85.7929 600.16 85.3395 600.88C84.8995 601.6 84.6795 602.44 84.6795 603.4ZM87.3195 603.4C87.3195 602.88 87.4262 602.42 87.6395 602.02C87.8662 601.62 88.1662 601.313 88.5395 601.1C88.9129 600.887 89.3262 600.78 89.7795 600.78C90.2329 600.78 90.6462 600.887 91.0195 601.1C91.3929 601.313 91.6862 601.62 91.8995 602.02C92.1262 602.42 92.2395 602.88 92.2395 603.4C92.2395 603.92 92.1262 604.38 91.8995 604.78C91.6862 605.167 91.3929 605.473 91.0195 605.7C90.6462 605.913 90.2329 606.02 89.7795 606.02C89.3262 606.02 88.9129 605.913 88.5395 605.7C88.1662 605.473 87.8662 605.167 87.6395 604.78C87.4262 604.38 87.3195 603.92 87.3195 603.4ZM105.443 598.8H96.823V608H99.323V601.08H102.943V608H105.443V598.8ZM110.535 612.4V598.8H107.935V612.4H110.535ZM118.095 603.4C118.095 602.347 117.888 601.46 117.475 600.74C117.062 600.007 116.515 599.453 115.835 599.08C115.168 598.707 114.448 598.52 113.675 598.52C112.888 598.52 112.202 598.72 111.615 599.12C111.042 599.52 110.595 600.087 110.275 600.82C109.968 601.54 109.815 602.4 109.815 603.4C109.815 604.387 109.968 605.247 110.275 605.98C110.595 606.713 111.042 607.28 111.615 607.68C112.202 608.08 112.888 608.28 113.675 608.28C114.448 608.28 115.168 608.093 115.835 607.72C116.515 607.347 117.062 606.793 117.475 606.06C117.888 605.327 118.095 604.44 118.095 603.4ZM115.415 603.4C115.415 603.947 115.302 604.413 115.075 604.8C114.848 605.187 114.542 605.48 114.155 605.68C113.782 605.88 113.368 605.98 112.915 605.98C112.528 605.98 112.148 605.887 111.775 605.7C111.415 605.5 111.115 605.207 110.875 604.82C110.648 604.433 110.535 603.96 110.535 603.4C110.535 602.84 110.648 602.367 110.875 601.98C111.115 601.593 111.415 601.307 111.775 601.12C112.148 600.92 112.528 600.82 112.915 600.82C113.368 600.82 113.782 600.92 114.155 601.12C114.542 601.32 114.848 601.613 115.075 602C115.302 602.387 115.415 602.853 115.415 603.4ZM119.406 603.4C119.406 604.347 119.626 605.187 120.066 605.92C120.519 606.64 121.126 607.2 121.886 607.6C122.659 608 123.533 608.2 124.506 608.2C125.479 608.2 126.346 608 127.106 607.6C127.879 607.2 128.486 606.64 128.926 605.92C129.379 605.187 129.606 604.347 129.606 603.4C129.606 602.44 129.379 601.6 128.926 600.88C128.486 600.16 127.879 599.6 127.106 599.2C126.346 598.8 125.479 598.6 124.506 598.6C123.533 598.6 122.659 598.8 121.886 599.2C121.126 599.6 120.519 600.16 120.066 600.88C119.626 601.6 119.406 602.44 119.406 603.4ZM122.046 603.4C122.046 602.88 122.153 602.42 122.366 602.02C122.593 601.62 122.893 601.313 123.266 601.1C123.639 600.887 124.053 600.78 124.506 600.78C124.959 600.78 125.373 600.887 125.746 601.1C126.119 601.313 126.413 601.62 126.626 602.02C126.853 602.42 126.966 602.88 126.966 603.4C126.966 603.92 126.853 604.38 126.626 604.78C126.413 605.167 126.119 605.473 125.746 605.7C125.373 605.913 124.959 606.02 124.506 606.02C124.053 606.02 123.639 605.913 123.266 605.7C122.893 605.473 122.593 605.167 122.366 604.78C122.153 604.38 122.046 603.92 122.046 603.4ZM132.41 603.98H140.65C140.676 603.833 140.69 603.7 140.69 603.58C140.69 603.46 140.69 603.36 140.69 603.28C140.69 602.307 140.503 601.473 140.13 600.78C139.756 600.087 139.21 599.553 138.49 599.18C137.783 598.793 136.923 598.6 135.91 598.6C134.99 598.6 134.183 598.76 133.49 599.08C132.796 599.4 132.243 599.847 131.83 600.42C131.416 600.993 131.143 601.66 131.01 602.42C130.983 602.58 130.963 602.74 130.95 602.9C130.936 603.06 130.93 603.227 130.93 603.4C130.93 604.32 131.123 605.147 131.51 605.88C131.91 606.6 132.483 607.167 133.23 607.58C133.976 607.993 134.863 608.2 135.89 608.2C136.743 608.2 137.463 608.093 138.05 607.88C138.65 607.667 139.156 607.367 139.57 606.98C139.983 606.58 140.343 606.12 140.65 605.6L138.39 604.9C138.23 605.167 138.03 605.4 137.79 605.6C137.55 605.8 137.276 605.953 136.97 606.06C136.663 606.167 136.31 606.22 135.91 606.22C135.456 606.22 135.05 606.127 134.69 605.94C134.33 605.74 134.043 605.433 133.83 605.02C133.63 604.593 133.53 604.053 133.53 603.4L133.57 602.88C133.57 602.373 133.67 601.933 133.87 601.56C134.07 601.187 134.343 600.907 134.69 600.72C135.036 600.52 135.43 600.42 135.87 600.42C136.296 600.42 136.65 600.5 136.93 600.66C137.21 600.82 137.43 601.047 137.59 601.34C137.75 601.633 137.856 601.98 137.91 602.38H132.41V603.98ZM142.622 598.8V608H145.122V598.8H142.622ZM148.502 598.8L144.542 602.6L148.922 608H152.002L147.642 602.6L151.602 598.8H148.502ZM152.186 598.8V600.98H158.306V598.8H152.186ZM154.006 599.2V608H156.506V599.2H154.006ZM169.074 598.8V608H171.654V598.8H169.074ZM159.694 598.8V608H162.294V598.8H159.694ZM161.634 603.8H164.114C164.527 603.8 164.841 603.9 165.054 604.1C165.281 604.287 165.394 604.547 165.394 604.88C165.394 605.107 165.341 605.3 165.234 605.46C165.141 605.62 165.001 605.747 164.814 605.84C164.627 605.92 164.394 605.96 164.114 605.96H161.634V608H164.494C165.134 608 165.707 607.88 166.214 607.64C166.721 607.4 167.121 607.047 167.414 606.58C167.707 606.1 167.854 605.533 167.854 604.88C167.854 603.893 167.527 603.173 166.874 602.72C166.234 602.253 165.441 602.02 164.494 602.02H161.634V603.8Z" fill="#F3F3F3"/>
<path d="M114.984 528.66L121.342 535.02C121.76 535.438 122.091 535.934 122.317 536.48C122.544 537.026 122.66 537.611 122.66 538.202C122.66 538.793 122.544 539.378 122.317 539.924C122.091 540.47 121.76 540.966 121.342 541.384L116.174 546.552C117.238 546.713 118.21 547.25 118.912 548.067C119.614 548.883 120 549.923 120 551V561.5C120 562.693 119.526 563.838 118.682 564.682C117.838 565.526 116.693 566 115.5 566H88.5C87.3065 566 86.1619 565.526 85.318 564.682C84.4741 563.838 84 562.693 84 561.5V534.5C84 533.306 84.4741 532.162 85.318 531.318C86.1619 530.474 87.3065 530 88.5 530H99C100.077 530 101.119 530.386 101.936 531.089C102.752 531.792 103.29 532.764 103.45 533.83L108.62 528.66C109.038 528.242 109.534 527.91 110.08 527.684C110.626 527.458 111.211 527.342 111.802 527.342C112.393 527.342 112.978 527.458 113.524 527.684C114.07 527.91 114.566 528.242 114.984 528.66ZM87 561.5C87 562.33 87.672 563 88.5 563H100.498L100.5 549.5H87V561.5ZM103.498 563H115.5C115.898 563 116.279 562.842 116.561 562.56C116.842 562.279 117 561.898 117 561.5V551C117 550.602 116.842 550.22 116.561 549.939C116.279 549.658 115.898 549.5 115.5 549.5H103.498V563ZM99 533H88.5C88.1022 533 87.7206 533.158 87.4393 533.439C87.158 533.72 87 534.102 87 534.5V546.5H100.5V534.5C100.5 534.102 100.342 533.72 100.061 533.439C99.7794 533.158 99.3978 533 99 533ZM103.5 542.62V546.5H107.38L103.5 542.62ZM110.74 530.784L104.386 537.14C104.247 537.279 104.136 537.445 104.061 537.627C103.985 537.809 103.946 538.004 103.946 538.201C103.946 538.398 103.985 538.593 104.061 538.775C104.136 538.957 104.247 539.123 104.386 539.262L110.744 545.62C111.025 545.901 111.406 546.059 111.804 546.059C112.202 546.059 112.583 545.901 112.864 545.62L119.224 539.262C119.505 538.981 119.663 538.599 119.663 538.202C119.663 537.804 119.505 537.423 119.224 537.142L112.864 530.782C112.583 530.501 112.202 530.343 111.804 530.343C111.406 530.343 111.025 530.501 110.744 530.782L110.74 530.784Z" fill="#FFB200"/>
<rect x="698.5" y="0.5" width="202" height="163" rx="7.5" fill="#2D2D2D" stroke="#4B4B4B"/>
<path d="M792.728 94V102.68L782.768 93.3V108H785.528V99.32L795.488 108.7V94H792.728ZM800.37 96.5H806.63V94H800.37V96.5ZM800.37 102.02H806.43V99.64H800.37V102.02ZM798.53 94V108H801.29V94H798.53ZM807.247 96.58H811.007V108H813.867V96.58H817.647V94H807.247V96.58Z" fill="#F3F3F3"/>
<path d="M811.5 30C813.224 30 814.877 30.6848 816.096 31.9038C817.315 33.1228 818 34.7761 818 36.5V59.5C818 61.2239 817.315 62.8772 816.096 64.0962C814.877 65.3152 813.224 66 811.5 66H788.5C786.776 66 785.123 65.3152 783.904 64.0962C782.685 62.8772 782 61.2239 782 59.5V36.5C782 34.7761 782.685 33.1228 783.904 31.9038C785.123 30.6848 786.776 30 788.5 30H811.5ZM812.66 62.802L801.05 51.43C800.797 51.1818 800.464 51.0313 800.11 51.0053C799.756 50.9793 799.405 51.0795 799.118 51.288L798.95 51.428L787.336 62.802C787.7 62.93 788.092 63 788.5 63H811.5C811.906 63 812.298 62.93 812.66 62.802L801.05 51.43L812.66 62.8V62.802ZM811.5 33H788.5C787.572 33 786.682 33.3687 786.025 34.0251C785.369 34.6815 785 35.5717 785 36.5V59.5C785 59.916 785.072 60.316 785.206 60.688L796.852 49.286C797.65 48.5045 798.711 48.0478 799.827 48.0049C800.944 47.9621 802.036 48.336 802.892 49.054L803.148 49.286L814.792 60.69C814.926 60.318 815 59.918 815 59.5V36.5C815 35.5717 814.631 34.6815 813.975 34.0251C813.318 33.3687 812.428 33 811.5 33ZM806.504 37C807.699 37 808.844 37.4745 809.689 38.3192C810.533 39.1639 811.008 40.3095 811.008 41.504C811.008 42.6985 810.533 43.8441 809.689 44.6888C808.844 45.5335 807.699 46.008 806.504 46.008C805.309 46.008 804.164 45.5335 803.319 44.6888C802.475 43.8441 802 42.6985 802 41.504C802 40.3095 802.475 39.1639 803.319 38.3192C804.164 37.4745 805.309 37 806.504 37ZM806.504 40C806.105 40 805.723 40.1585 805.441 40.4405C805.158 40.7226 805 41.1051 805 41.504C805 41.9029 805.158 42.2854 805.441 42.5675C805.723 42.8495 806.105 43.008 806.504 43.008C806.903 43.008 807.285 42.8495 807.567 42.5675C807.85 42.2854 808.008 41.9029 808.008 41.504C808.008 41.1051 807.85 40.7226 807.567 40.4405C807.285 40.1585 806.903 40 806.504 40Z" fill="#FFB200"/>
<rect x="349.5" y="0.5" width="202" height="163" rx="7.5" fill="#2D2D2D" stroke="#4B4B4B"/>
<path d="M433.797 94V108H436.697V94H433.797ZM439.715 94V108H442.635V94H439.715ZM444.475 108C445.942 108 447.222 107.713 448.315 107.14C449.422 106.567 450.282 105.76 450.895 104.72C451.509 103.667 451.815 102.427 451.815 101C451.815 99.5733 451.509 98.34 450.895 97.3C450.282 96.2467 449.422 95.4333 448.315 94.86C447.222 94.2867 445.942 94 444.475 94H441.555V96.6H444.375C444.989 96.6 445.569 96.6867 446.115 96.86C446.662 97.02 447.142 97.28 447.555 97.64C447.969 98 448.289 98.46 448.515 99.02C448.755 99.5667 448.875 100.227 448.875 101C448.875 101.773 448.755 102.44 448.515 103C448.289 103.547 447.969 104 447.555 104.36C447.142 104.72 446.662 104.987 446.115 105.16C445.569 105.32 444.989 105.4 444.375 105.4H441.555V108H444.475ZM456.252 101C456.252 100.107 456.438 99.3133 456.812 98.62C457.185 97.9267 457.698 97.38 458.352 96.98C459.005 96.58 459.765 96.38 460.632 96.38C461.512 96.38 462.278 96.58 462.932 96.98C463.585 97.38 464.092 97.9267 464.452 98.62C464.812 99.3133 464.992 100.107 464.992 101C464.992 101.893 464.805 102.687 464.432 103.38C464.072 104.073 463.565 104.62 462.912 105.02C462.258 105.42 461.498 105.62 460.632 105.62C459.765 105.62 459.005 105.42 458.352 105.02C457.698 104.62 457.185 104.073 456.812 103.38C456.438 102.687 456.252 101.893 456.252 101ZM453.232 101C453.232 102.053 453.412 103.033 453.772 103.94C454.132 104.833 454.645 105.613 455.312 106.28C455.978 106.947 456.758 107.467 457.652 107.84C458.558 108.2 459.552 108.38 460.632 108.38C461.712 108.38 462.698 108.2 463.592 107.84C464.498 107.467 465.278 106.947 465.932 106.28C466.598 105.613 467.112 104.833 467.472 103.94C467.845 103.033 468.032 102.053 468.032 101C468.032 99.9333 467.845 98.96 467.472 98.08C467.112 97.1867 466.592 96.4133 465.912 95.76C465.245 95.1067 464.465 94.6067 463.572 94.26C462.678 93.9 461.698 93.72 460.632 93.72C459.578 93.72 458.598 93.9 457.692 94.26C456.798 94.6067 456.018 95.1067 455.352 95.76C454.685 96.4133 454.165 97.1867 453.792 98.08C453.418 98.96 453.232 99.9333 453.232 101Z" fill="#F3F3F3"/>
<path d="M460.498 28H469.606L469.806 28.028L470.004 28.084L470.124 28.136C470.284 28.204 470.43 28.306 470.562 28.436L470.642 28.524L470.73 28.638L470.838 28.818L470.916 28.998L470.954 29.126L470.982 29.254L471 29.444V38.508C471 38.888 470.856 39.2539 470.596 39.5316C470.337 39.8093 469.981 39.9781 469.602 40.0041C469.223 40.03 468.848 39.911 468.553 39.6711C468.259 39.4313 468.066 39.0885 468.014 38.712L468 38.508V33.118L455.12 45.998C454.866 46.252 454.529 46.4065 454.171 46.4333C453.813 46.4601 453.457 46.3574 453.168 46.144L453 46L446.94 40.18L435.56 51.558C435.292 51.8264 434.933 51.9835 434.554 51.9977C434.176 52.012 433.805 51.8823 433.518 51.6348C433.231 51.3872 433.049 51.0402 433.007 50.6635C432.965 50.2867 433.068 49.9082 433.294 49.604L433.44 49.436L445.88 36.996C446.134 36.7423 446.471 36.5882 446.829 36.5618C447.188 36.5353 447.543 36.6383 447.832 36.852L448 36.996L454.06 42.816L465.876 31H460.496C460.134 30.9995 459.784 30.868 459.511 30.6298C459.239 30.3916 459.061 30.0628 459.012 29.704L458.998 29.5C458.998 29.1375 459.129 28.7873 459.368 28.5141C459.606 28.241 459.935 28.0633 460.294 28.014L460.5 28H460.498ZM434.5 58C434.898 58 435.279 58.158 435.561 58.4393C435.842 58.7206 436 59.1022 436 59.5V66.5C436 66.8978 435.842 67.2794 435.561 67.5607C435.279 67.842 434.898 68 434.5 68C434.102 68 433.721 67.842 433.439 67.5607C433.158 67.2794 433 66.8978 433 66.5V59.5C433 59.1022 433.158 58.7206 433.439 58.4393C433.721 58.158 434.102 58 434.5 58ZM446 51.5C446 51.1022 445.842 50.7206 445.561 50.4393C445.279 50.158 444.898 50 444.5 50C444.102 50 443.721 50.158 443.439 50.4393C443.158 50.7206 443 51.1022 443 51.5V66.5C443 66.8978 443.158 67.2794 443.439 67.5607C443.721 67.842 444.102 68 444.5 68C444.898 68 445.279 67.842 445.561 67.5607C445.842 67.2794 446 66.8978 446 66.5V51.5ZM454.5 54C454.898 54 455.279 54.158 455.561 54.4393C455.842 54.7206 456 55.1022 456 55.5V66.5C456 66.8978 455.842 67.2794 455.561 67.5607C455.279 67.842 454.898 68 454.5 68C454.102 68 453.721 67.842 453.439 67.5607C453.158 67.2794 453 66.8978 453 66.5V55.5C453 55.1022 453.158 54.7206 453.439 54.4393C453.721 54.158 454.102 54 454.5 54ZM466 45.5C466 45.1022 465.842 44.7206 465.561 44.4393C465.279 44.158 464.898 44 464.5 44C464.102 44 463.721 44.158 463.439 44.4393C463.158 44.7206 463 45.1022 463 45.5V66.5C463 66.8978 463.158 67.2794 463.439 67.5607C463.721 67.842 464.102 68 464.5 68C464.898 68 465.279 67.842 465.561 67.5607C465.842 67.2794 466 66.8978 466 66.5V45.5Z" fill="#FFB200"/>
<rect x="0.5" y="0.5" width="202" height="163" rx="7.5" fill="#2D2D2D" stroke="#4B4B4B"/>
<path d="M62.9157 101C62.9157 100.067 63.1224 99.26 63.5357 98.58C63.9624 97.9 64.5157 97.38 65.1957 97.02C65.8757 96.6467 66.6157 96.46 67.4157 96.46C68.0824 96.46 68.6757 96.5467 69.1957 96.72C69.7157 96.8933 70.1824 97.1267 70.5957 97.42C71.0224 97.7133 71.389 98.0333 71.6957 98.38V95.16C71.1224 94.7067 70.4957 94.3533 69.8157 94.1C69.149 93.8467 68.3024 93.72 67.2757 93.72C66.209 93.72 65.2157 93.8933 64.2957 94.24C63.389 94.5867 62.5957 95.0867 61.9157 95.74C61.249 96.3933 60.729 97.1667 60.3557 98.06C59.9957 98.94 59.8157 99.92 59.8157 101C59.8157 102.08 59.9957 103.067 60.3557 103.96C60.729 104.84 61.249 105.607 61.9157 106.26C62.5957 106.913 63.389 107.413 64.2957 107.76C65.2157 108.107 66.209 108.28 67.2757 108.28C68.3024 108.28 69.149 108.153 69.8157 107.9C70.4957 107.647 71.1224 107.293 71.6957 106.84V103.62C71.389 103.967 71.0224 104.287 70.5957 104.58C70.1824 104.873 69.7157 105.107 69.1957 105.28C68.6757 105.453 68.0824 105.54 67.4157 105.54C66.6157 105.54 65.8757 105.36 65.1957 105C64.5157 104.627 63.9624 104.1 63.5357 103.42C63.1224 102.727 62.9157 101.92 62.9157 101ZM73.1215 98.8V100.98H79.2415V98.8H73.1215ZM74.9415 99.2V108H77.4415V99.2H74.9415ZM81.1966 103.98H89.4366C89.4633 103.833 89.4766 103.7 89.4766 103.58C89.4766 103.46 89.4766 103.36 89.4766 103.28C89.4766 102.307 89.29 101.473 88.9166 100.78C88.5433 100.087 87.9966 99.5533 87.2766 99.18C86.57 98.7933 85.71 98.6 84.6966 98.6C83.7766 98.6 82.97 98.76 82.2766 99.08C81.5833 99.4 81.03 99.8467 80.6166 100.42C80.2033 100.993 79.93 101.66 79.7966 102.42C79.77 102.58 79.75 102.74 79.7366 102.9C79.7233 103.06 79.7166 103.227 79.7166 103.4C79.7166 104.32 79.91 105.147 80.2966 105.88C80.6966 106.6 81.27 107.167 82.0166 107.58C82.7633 107.993 83.65 108.2 84.6766 108.2C85.53 108.2 86.25 108.093 86.8366 107.88C87.4366 107.667 87.9433 107.367 88.3566 106.98C88.77 106.58 89.13 106.12 89.4366 105.6L87.1766 104.9C87.0166 105.167 86.8166 105.4 86.5766 105.6C86.3366 105.8 86.0633 105.953 85.7566 106.06C85.45 106.167 85.0966 106.22 84.6966 106.22C84.2433 106.22 83.8366 106.127 83.4766 105.94C83.1166 105.74 82.83 105.433 82.6166 105.02C82.4166 104.593 82.3166 104.053 82.3166 103.4L82.3566 102.88C82.3566 102.373 82.4566 101.933 82.6566 101.56C82.8566 101.187 83.13 100.907 83.4766 100.72C83.8233 100.52 84.2166 100.42 84.6566 100.42C85.0833 100.42 85.4366 100.5 85.7166 100.66C85.9966 100.82 86.2166 101.047 86.3766 101.34C86.5366 101.633 86.6433 101.98 86.6966 102.38H81.1966V103.98ZM100.289 101.08L100.389 98.1L91.6295 105.72L91.5295 108.7L100.289 101.08ZM94.0295 98.8H91.5295V108.7L94.0295 106.08V98.8ZM100.389 98.1L97.8895 100.72V108H100.389V98.1ZM92.8295 94.1C92.8295 94.6067 92.9495 95.0867 93.1895 95.54C93.4428 95.98 93.8095 96.3333 94.2895 96.6C94.7828 96.8533 95.3761 96.98 96.0695 96.98C96.7761 96.98 97.3695 96.8533 97.8495 96.6C98.3295 96.3333 98.6961 95.98 98.9495 95.54C99.2028 95.0867 99.3295 94.6067 99.3295 94.1H97.5095C97.5095 94.3133 97.4561 94.52 97.3495 94.72C97.2561 94.9067 97.1028 95.0667 96.8895 95.2C96.6761 95.32 96.4028 95.38 96.0695 95.38C95.7495 95.38 95.4828 95.32 95.2695 95.2C95.0561 95.0667 94.8961 94.9067 94.7895 94.72C94.6828 94.52 94.6295 94.3133 94.6295 94.1H92.8295ZM102.952 98.8V108H105.452V98.8H102.952ZM108.832 98.8L104.872 102.6L109.252 108H112.332L107.972 102.6L111.932 98.8H108.832ZM122.516 101.08L122.616 98.1L113.856 105.72L113.756 108.7L122.516 101.08ZM116.256 98.8H113.756V108.7L116.256 106.08V98.8ZM122.616 98.1L120.116 100.72V108H122.616V98.1ZM126.179 104.16H133.419V102.14H126.179V104.16ZM132.159 98.8V108H134.659V98.8H132.159ZM125.239 98.8V108H127.739V98.8H125.239ZM137.272 98.8V108H139.812V100.98H142.852V98.8H137.272Z" fill="#F3F3F3"/>
<path d="M109 51.5C109 51.1022 109.158 50.7206 109.439 50.4393C109.721 50.158 110.102 50 110.5 50H114.5C114.898 50 115.279 50.158 115.561 50.4393C115.842 50.7206 116 51.1022 116 51.5C116 51.8978 115.842 52.2794 115.561 52.5607C115.279 52.842 114.898 53 114.5 53H110.5C110.102 53 109.721 52.842 109.439 52.5607C109.158 52.2794 109 51.8978 109 51.5ZM84 34H84.028C84.151 32.9 84.6751 31.8839 85.5001 31.1459C86.3251 30.408 87.3931 30 88.5 30H111.5C112.091 30 112.676 30.1164 113.222 30.3425C113.768 30.5687 114.264 30.9002 114.682 31.318C115.1 31.7359 115.431 32.232 115.657 32.7779C115.884 33.3239 116 33.9091 116 34.5V36.174C117.424 36.512 118.692 37.3204 119.599 38.4683C120.506 39.6163 121 41.0368 121 42.5V59.5C121 61.2239 120.315 62.8772 119.096 64.0962C117.877 65.3152 116.224 66 114.5 66H90.5C88.7761 66 87.1228 65.3152 85.9038 64.0962C84.6848 62.8772 84 61.2239 84 59.5V34ZM114.5 39H87V59.5C87 61.432 88.568 63 90.5 63H114.5C115.428 63 116.318 62.6312 116.975 61.9749C117.631 61.3185 118 60.4283 118 59.5V42.5C118 41.5717 117.631 40.6815 116.975 40.0251C116.318 39.3687 115.428 39 114.5 39ZM113 36V34.5C113 34.1022 112.842 33.7206 112.561 33.4393C112.279 33.158 111.898 33 111.5 33H88.5C88.1022 33 87.7206 33.158 87.4393 33.4393C87.158 33.7206 87 34.1022 87 34.5C87 34.8978 87.158 35.2794 87.4393 35.5607C87.7206 35.842 88.1022 36 88.5 36H113Z" fill="#FFB200"/>
<path d="M800 490C802.761 490 805 492.239 805 495C805 497.761 802.761 500 800 500C797.239 500 795 497.761 795 495C795 492.239 797.239 490 800 490Z" fill="#4B4B4B"/>
<path d="M485 395C487.761 395 490 397.239 490 400C490 402.761 487.761 405 485 405C482.239 405 480 402.761 480 400C480 397.239 482.239 395 485 395Z" fill="#4B4B4B"/>
<path d="M485 395V432.211C485 441.047 492.163 448.211 501 448.211H784C792.837 448.211 800 455.374 800 464.211V500" stroke="#4B4B4B"/>
<path d="M800 174C802.761 174 805 171.761 805 169C805 166.239 802.761 164 800 164C797.239 164 795 166.239 795 169C795 171.761 797.239 174 800 174Z" fill="#4B4B4B"/>
<path d="M485 269C487.761 269 490 266.761 490 264C490 261.239 487.761 259 485 259C482.239 259 480 261.239 480 264C480 266.761 482.239 269 485 269Z" fill="#4B4B4B"/>
<path d="M485 269V231.789C485 222.953 492.163 215.789 501 215.789H784C792.837 215.789 800 208.626 800 199.789V164" stroke="#4B4B4B"/>
</svg>
