<svg width="296" height="266" viewBox="0 0 296 266" fill="none" xmlns="http://www.w3.org/2000/svg">
<g opacity="0.2">
<path d="M5.69231 2.84709C5.69231 4.4195 4.41804 5.69419 2.84615 5.69419C1.27427 5.69419 0 4.4195 0 2.84709C0 1.27469 1.27427 0 2.84615 0C4.41804 0 5.69231 1.27469 5.69231 2.84709Z" fill="#C4C4C4"/>
<path d="M22.7692 2.84709C22.7692 4.4195 21.495 5.69419 19.9231 5.69419C18.3512 5.69419 17.0769 4.4195 17.0769 2.84709C17.0769 1.27469 18.3512 0 19.9231 0C21.495 0 22.7692 1.27469 22.7692 2.84709Z" fill="#C4C4C4"/>
<path d="M39.8462 2.84709C39.8462 4.4195 38.5719 5.69419 37 5.69419C35.4281 5.69419 34.1538 4.4195 34.1538 2.84709C34.1538 1.27469 35.4281 0 37 0C38.5719 0 39.8462 1.27469 39.8462 2.84709Z" fill="#C4C4C4"/>
<path d="M56.9231 2.84709C56.9231 4.4195 55.6488 5.69419 54.0769 5.69419C52.505 5.69419 51.2308 4.4195 51.2308 2.84709C51.2308 1.27469 52.505 0 54.0769 0C55.6488 0 56.9231 1.27469 56.9231 2.84709Z" fill="#C4C4C4"/>
<path d="M74 2.84709C74 4.4195 72.7257 5.69419 71.1538 5.69419C69.582 5.69419 68.3077 4.4195 68.3077 2.84709C68.3077 1.27469 69.582 0 71.1538 0C72.7257 0 74 1.27469 74 2.84709Z" fill="#C4C4C4"/>
<path d="M91.0769 2.84709C91.0769 4.4195 89.8027 5.69419 88.2308 5.69419C86.6589 5.69419 85.3846 4.4195 85.3846 2.84709C85.3846 1.27469 86.6589 0 88.2308 0C89.8027 0 91.0769 1.27469 91.0769 2.84709Z" fill="#C4C4C4"/>
<path d="M108.154 2.84709C108.154 4.4195 106.88 5.69419 105.308 5.69419C103.736 5.69419 102.462 4.4195 102.462 2.84709C102.462 1.27469 103.736 0 105.308 0C106.88 0 108.154 1.27469 108.154 2.84709Z" fill="#C4C4C4"/>
<path d="M125.231 2.84709C125.231 4.4195 123.957 5.69419 122.385 5.69419C120.813 5.69419 119.538 4.4195 119.538 2.84709C119.538 1.27469 120.813 0 122.385 0C123.957 0 125.231 1.27469 125.231 2.84709Z" fill="#C4C4C4"/>
<path d="M142.308 2.84709C142.308 4.4195 141.033 5.69419 139.462 5.69419C137.89 5.69419 136.615 4.4195 136.615 2.84709C136.615 1.27469 137.89 0 139.462 0C141.033 0 142.308 1.27469 142.308 2.84709Z" fill="#C4C4C4"/>
<path d="M159.385 2.84709C159.385 4.4195 158.11 5.69419 156.538 5.69419C154.967 5.69419 153.692 4.4195 153.692 2.84709C153.692 1.27469 154.967 0 156.538 0C158.11 0 159.385 1.27469 159.385 2.84709Z" fill="#C4C4C4"/>
<path d="M176.462 2.84709C176.462 4.4195 175.187 5.69419 173.615 5.69419C172.044 5.69419 170.769 4.4195 170.769 2.84709C170.769 1.27469 172.044 0 173.615 0C175.187 0 176.462 1.27469 176.462 2.84709Z" fill="#C4C4C4"/>
<path d="M193.538 2.84709C193.538 4.4195 192.264 5.69419 190.692 5.69419C189.12 5.69419 187.846 4.4195 187.846 2.84709C187.846 1.27469 189.12 0 190.692 0C192.264 0 193.538 1.27469 193.538 2.84709Z" fill="#C4C4C4"/>
<path d="M210.615 2.84709C210.615 4.4195 209.341 5.69419 207.769 5.69419C206.197 5.69419 204.923 4.4195 204.923 2.84709C204.923 1.27469 206.197 0 207.769 0C209.341 0 210.615 1.27469 210.615 2.84709Z" fill="#C4C4C4"/>
<path d="M227.692 2.84709C227.692 4.4195 226.418 5.69419 224.846 5.69419C223.274 5.69419 222 4.4195 222 2.84709C222 1.27469 223.274 0 224.846 0C226.418 0 227.692 1.27469 227.692 2.84709Z" fill="#C4C4C4"/>
<path d="M244.769 2.84709C244.769 4.4195 243.495 5.69419 241.923 5.69419C240.351 5.69419 239.077 4.4195 239.077 2.84709C239.077 1.27469 240.351 0 241.923 0C243.495 0 244.769 1.27469 244.769 2.84709Z" fill="#C4C4C4"/>
<path d="M261.846 2.84709C261.846 4.4195 260.572 5.69419 259 5.69419C257.428 5.69419 256.154 4.4195 256.154 2.84709C256.154 1.27469 257.428 0 259 0C260.572 0 261.846 1.27469 261.846 2.84709Z" fill="#C4C4C4"/>
<path d="M278.923 2.84709C278.923 4.4195 277.649 5.69419 276.077 5.69419C274.505 5.69419 273.231 4.4195 273.231 2.84709C273.231 1.27469 274.505 0 276.077 0C277.649 0 278.923 1.27469 278.923 2.84709Z" fill="#C4C4C4"/>
<path d="M296 2.84709C296 4.4195 294.726 5.69419 293.154 5.69419C291.582 5.69419 290.308 4.4195 290.308 2.84709C290.308 1.27469 291.582 0 293.154 0C294.726 0 296 1.27469 296 2.84709Z" fill="#C4C4C4"/>
<path d="M5.69231 19.1162C5.69231 20.6886 4.41804 21.9633 2.84615 21.9633C1.27427 21.9633 0 20.6886 0 19.1162C0 17.5438 1.27427 16.2691 2.84615 16.2691C4.41804 16.2691 5.69231 17.5438 5.69231 19.1162Z" fill="#C4C4C4"/>
<path d="M22.7692 19.1162C22.7692 20.6886 21.495 21.9633 19.9231 21.9633C18.3512 21.9633 17.0769 20.6886 17.0769 19.1162C17.0769 17.5438 18.3512 16.2691 19.9231 16.2691C21.495 16.2691 22.7692 17.5438 22.7692 19.1162Z" fill="#C4C4C4"/>
<path d="M39.8462 19.1162C39.8462 20.6886 38.5719 21.9633 37 21.9633C35.4281 21.9633 34.1538 20.6886 34.1538 19.1162C34.1538 17.5438 35.4281 16.2691 37 16.2691C38.5719 16.2691 39.8462 17.5438 39.8462 19.1162Z" fill="#C4C4C4"/>
<path d="M56.9231 19.1162C56.9231 20.6886 55.6488 21.9633 54.0769 21.9633C52.505 21.9633 51.2308 20.6886 51.2308 19.1162C51.2308 17.5438 52.505 16.2691 54.0769 16.2691C55.6488 16.2691 56.9231 17.5438 56.9231 19.1162Z" fill="#C4C4C4"/>
<path d="M74 19.1162C74 20.6886 72.7257 21.9633 71.1538 21.9633C69.582 21.9633 68.3077 20.6886 68.3077 19.1162C68.3077 17.5438 69.582 16.2691 71.1538 16.2691C72.7257 16.2691 74 17.5438 74 19.1162Z" fill="#C4C4C4"/>
<path d="M91.0769 19.1162C91.0769 20.6886 89.8027 21.9633 88.2308 21.9633C86.6589 21.9633 85.3846 20.6886 85.3846 19.1162C85.3846 17.5438 86.6589 16.2691 88.2308 16.2691C89.8027 16.2691 91.0769 17.5438 91.0769 19.1162Z" fill="#C4C4C4"/>
<path d="M108.154 19.1162C108.154 20.6886 106.88 21.9633 105.308 21.9633C103.736 21.9633 102.462 20.6886 102.462 19.1162C102.462 17.5438 103.736 16.2691 105.308 16.2691C106.88 16.2691 108.154 17.5438 108.154 19.1162Z" fill="#C4C4C4"/>
<path d="M125.231 19.1162C125.231 20.6886 123.957 21.9633 122.385 21.9633C120.813 21.9633 119.538 20.6886 119.538 19.1162C119.538 17.5438 120.813 16.2691 122.385 16.2691C123.957 16.2691 125.231 17.5438 125.231 19.1162Z" fill="#C4C4C4"/>
<path d="M142.308 19.1162C142.308 20.6886 141.033 21.9633 139.462 21.9633C137.89 21.9633 136.615 20.6886 136.615 19.1162C136.615 17.5438 137.89 16.2691 139.462 16.2691C141.033 16.2691 142.308 17.5438 142.308 19.1162Z" fill="#C4C4C4"/>
<path d="M159.385 19.1162C159.385 20.6886 158.11 21.9633 156.538 21.9633C154.967 21.9633 153.692 20.6886 153.692 19.1162C153.692 17.5438 154.967 16.2691 156.538 16.2691C158.11 16.2691 159.385 17.5438 159.385 19.1162Z" fill="#C4C4C4"/>
<path d="M176.462 19.1162C176.462 20.6886 175.187 21.9633 173.615 21.9633C172.044 21.9633 170.769 20.6886 170.769 19.1162C170.769 17.5438 172.044 16.2691 173.615 16.2691C175.187 16.2691 176.462 17.5438 176.462 19.1162Z" fill="#C4C4C4"/>
<path d="M193.538 19.1162C193.538 20.6886 192.264 21.9633 190.692 21.9633C189.12 21.9633 187.846 20.6886 187.846 19.1162C187.846 17.5438 189.12 16.2691 190.692 16.2691C192.264 16.2691 193.538 17.5438 193.538 19.1162Z" fill="#C4C4C4"/>
<path d="M210.615 19.1162C210.615 20.6886 209.341 21.9633 207.769 21.9633C206.197 21.9633 204.923 20.6886 204.923 19.1162C204.923 17.5438 206.197 16.2691 207.769 16.2691C209.341 16.2691 210.615 17.5438 210.615 19.1162Z" fill="#C4C4C4"/>
<path d="M227.692 19.1162C227.692 20.6886 226.418 21.9633 224.846 21.9633C223.274 21.9633 222 20.6886 222 19.1162C222 17.5438 223.274 16.2691 224.846 16.2691C226.418 16.2691 227.692 17.5438 227.692 19.1162Z" fill="#C4C4C4"/>
<path d="M244.769 19.1162C244.769 20.6886 243.495 21.9633 241.923 21.9633C240.351 21.9633 239.077 20.6886 239.077 19.1162C239.077 17.5438 240.351 16.2691 241.923 16.2691C243.495 16.2691 244.769 17.5438 244.769 19.1162Z" fill="#C4C4C4"/>
<path d="M261.846 19.1162C261.846 20.6886 260.572 21.9633 259 21.9633C257.428 21.9633 256.154 20.6886 256.154 19.1162C256.154 17.5438 257.428 16.2691 259 16.2691C260.572 16.2691 261.846 17.5438 261.846 19.1162Z" fill="#C4C4C4"/>
<path d="M278.923 19.1162C278.923 20.6886 277.649 21.9633 276.077 21.9633C274.505 21.9633 273.231 20.6886 273.231 19.1162C273.231 17.5438 274.505 16.2691 276.077 16.2691C277.649 16.2691 278.923 17.5438 278.923 19.1162Z" fill="#C4C4C4"/>
<path d="M296 19.1162C296 20.6886 294.726 21.9633 293.154 21.9633C291.582 21.9633 290.308 20.6886 290.308 19.1162C290.308 17.5438 291.582 16.2691 293.154 16.2691C294.726 16.2691 296 17.5438 296 19.1162Z" fill="#C4C4C4"/>
<path d="M5.69231 35.3853C5.69231 36.9577 4.41804 38.2324 2.84615 38.2324C1.27427 38.2324 0 36.9577 0 35.3853C0 33.8129 1.27427 32.5382 2.84615 32.5382C4.41804 32.5382 5.69231 33.8129 5.69231 35.3853Z" fill="#C4C4C4"/>
<path d="M22.7692 35.3853C22.7692 36.9577 21.495 38.2324 19.9231 38.2324C18.3512 38.2324 17.0769 36.9577 17.0769 35.3853C17.0769 33.8129 18.3512 32.5382 19.9231 32.5382C21.495 32.5382 22.7692 33.8129 22.7692 35.3853Z" fill="#C4C4C4"/>
<path d="M39.8462 35.3853C39.8462 36.9577 38.5719 38.2324 37 38.2324C35.4281 38.2324 34.1538 36.9577 34.1538 35.3853C34.1538 33.8129 35.4281 32.5382 37 32.5382C38.5719 32.5382 39.8462 33.8129 39.8462 35.3853Z" fill="#C4C4C4"/>
<path d="M56.9231 35.3853C56.9231 36.9577 55.6488 38.2324 54.0769 38.2324C52.505 38.2324 51.2308 36.9577 51.2308 35.3853C51.2308 33.8129 52.505 32.5382 54.0769 32.5382C55.6488 32.5382 56.9231 33.8129 56.9231 35.3853Z" fill="#C4C4C4"/>
<path d="M74 35.3853C74 36.9577 72.7257 38.2324 71.1538 38.2324C69.582 38.2324 68.3077 36.9577 68.3077 35.3853C68.3077 33.8129 69.582 32.5382 71.1538 32.5382C72.7257 32.5382 74 33.8129 74 35.3853Z" fill="#C4C4C4"/>
<path d="M91.0769 35.3853C91.0769 36.9577 89.8027 38.2324 88.2308 38.2324C86.6589 38.2324 85.3846 36.9577 85.3846 35.3853C85.3846 33.8129 86.6589 32.5382 88.2308 32.5382C89.8027 32.5382 91.0769 33.8129 91.0769 35.3853Z" fill="#C4C4C4"/>
<path d="M108.154 35.3853C108.154 36.9577 106.88 38.2324 105.308 38.2324C103.736 38.2324 102.462 36.9577 102.462 35.3853C102.462 33.8129 103.736 32.5382 105.308 32.5382C106.88 32.5382 108.154 33.8129 108.154 35.3853Z" fill="#C4C4C4"/>
<path d="M125.231 35.3853C125.231 36.9577 123.957 38.2324 122.385 38.2324C120.813 38.2324 119.538 36.9577 119.538 35.3853C119.538 33.8129 120.813 32.5382 122.385 32.5382C123.957 32.5382 125.231 33.8129 125.231 35.3853Z" fill="#C4C4C4"/>
<path d="M142.308 35.3853C142.308 36.9577 141.033 38.2324 139.462 38.2324C137.89 38.2324 136.615 36.9577 136.615 35.3853C136.615 33.8129 137.89 32.5382 139.462 32.5382C141.033 32.5382 142.308 33.8129 142.308 35.3853Z" fill="#C4C4C4"/>
<path d="M159.385 35.3853C159.385 36.9577 158.11 38.2324 156.538 38.2324C154.967 38.2324 153.692 36.9577 153.692 35.3853C153.692 33.8129 154.967 32.5382 156.538 32.5382C158.11 32.5382 159.385 33.8129 159.385 35.3853Z" fill="#C4C4C4"/>
<path d="M176.462 35.3853C176.462 36.9577 175.187 38.2324 173.615 38.2324C172.044 38.2324 170.769 36.9577 170.769 35.3853C170.769 33.8129 172.044 32.5382 173.615 32.5382C175.187 32.5382 176.462 33.8129 176.462 35.3853Z" fill="#C4C4C4"/>
<path d="M193.538 35.3853C193.538 36.9577 192.264 38.2324 190.692 38.2324C189.12 38.2324 187.846 36.9577 187.846 35.3853C187.846 33.8129 189.12 32.5382 190.692 32.5382C192.264 32.5382 193.538 33.8129 193.538 35.3853Z" fill="#C4C4C4"/>
<path d="M210.615 35.3853C210.615 36.9577 209.341 38.2324 207.769 38.2324C206.197 38.2324 204.923 36.9577 204.923 35.3853C204.923 33.8129 206.197 32.5382 207.769 32.5382C209.341 32.5382 210.615 33.8129 210.615 35.3853Z" fill="#C4C4C4"/>
<path d="M227.692 35.3853C227.692 36.9577 226.418 38.2324 224.846 38.2324C223.274 38.2324 222 36.9577 222 35.3853C222 33.8129 223.274 32.5382 224.846 32.5382C226.418 32.5382 227.692 33.8129 227.692 35.3853Z" fill="#C4C4C4"/>
<path d="M244.769 35.3853C244.769 36.9577 243.495 38.2324 241.923 38.2324C240.351 38.2324 239.077 36.9577 239.077 35.3853C239.077 33.8129 240.351 32.5382 241.923 32.5382C243.495 32.5382 244.769 33.8129 244.769 35.3853Z" fill="#C4C4C4"/>
<path d="M261.846 35.3853C261.846 36.9577 260.572 38.2324 259 38.2324C257.428 38.2324 256.154 36.9577 256.154 35.3853C256.154 33.8129 257.428 32.5382 259 32.5382C260.572 32.5382 261.846 33.8129 261.846 35.3853Z" fill="#C4C4C4"/>
<path d="M278.923 35.3853C278.923 36.9577 277.649 38.2324 276.077 38.2324C274.505 38.2324 273.231 36.9577 273.231 35.3853C273.231 33.8129 274.505 32.5382 276.077 32.5382C277.649 32.5382 278.923 33.8129 278.923 35.3853Z" fill="#C4C4C4"/>
<path d="M296 35.3853C296 36.9577 294.726 38.2324 293.154 38.2324C291.582 38.2324 290.308 36.9577 290.308 35.3853C290.308 33.8129 291.582 32.5382 293.154 32.5382C294.726 32.5382 296 33.8129 296 35.3853Z" fill="#C4C4C4"/>
<path d="M5.69231 51.6544C5.69231 53.2268 4.41804 54.5015 2.84615 54.5015C1.27427 54.5015 0 53.2268 0 51.6544C0 50.082 1.27427 48.8073 2.84615 48.8073C4.41804 48.8073 5.69231 50.082 5.69231 51.6544Z" fill="#C4C4C4"/>
<path d="M22.7692 51.6544C22.7692 53.2268 21.495 54.5015 19.9231 54.5015C18.3512 54.5015 17.0769 53.2268 17.0769 51.6544C17.0769 50.082 18.3512 48.8073 19.9231 48.8073C21.495 48.8073 22.7692 50.082 22.7692 51.6544Z" fill="#C4C4C4"/>
<path d="M39.8462 51.6544C39.8462 53.2268 38.5719 54.5015 37 54.5015C35.4281 54.5015 34.1538 53.2268 34.1538 51.6544C34.1538 50.082 35.4281 48.8073 37 48.8073C38.5719 48.8073 39.8462 50.082 39.8462 51.6544Z" fill="#C4C4C4"/>
<path d="M56.9231 51.6544C56.9231 53.2268 55.6488 54.5015 54.0769 54.5015C52.505 54.5015 51.2308 53.2268 51.2308 51.6544C51.2308 50.082 52.505 48.8073 54.0769 48.8073C55.6488 48.8073 56.9231 50.082 56.9231 51.6544Z" fill="#C4C4C4"/>
<path d="M74 51.6544C74 53.2268 72.7257 54.5015 71.1538 54.5015C69.582 54.5015 68.3077 53.2268 68.3077 51.6544C68.3077 50.082 69.582 48.8073 71.1538 48.8073C72.7257 48.8073 74 50.082 74 51.6544Z" fill="#C4C4C4"/>
<path d="M91.0769 51.6544C91.0769 53.2268 89.8027 54.5015 88.2308 54.5015C86.6589 54.5015 85.3846 53.2268 85.3846 51.6544C85.3846 50.082 86.6589 48.8073 88.2308 48.8073C89.8027 48.8073 91.0769 50.082 91.0769 51.6544Z" fill="#C4C4C4"/>
<path d="M108.154 51.6544C108.154 53.2268 106.88 54.5015 105.308 54.5015C103.736 54.5015 102.462 53.2268 102.462 51.6544C102.462 50.082 103.736 48.8073 105.308 48.8073C106.88 48.8073 108.154 50.082 108.154 51.6544Z" fill="#C4C4C4"/>
<path d="M125.231 51.6544C125.231 53.2268 123.957 54.5015 122.385 54.5015C120.813 54.5015 119.538 53.2268 119.538 51.6544C119.538 50.082 120.813 48.8073 122.385 48.8073C123.957 48.8073 125.231 50.082 125.231 51.6544Z" fill="#C4C4C4"/>
<path d="M142.308 51.6544C142.308 53.2268 141.033 54.5015 139.462 54.5015C137.89 54.5015 136.615 53.2268 136.615 51.6544C136.615 50.082 137.89 48.8073 139.462 48.8073C141.033 48.8073 142.308 50.082 142.308 51.6544Z" fill="#C4C4C4"/>
<path d="M159.385 51.6544C159.385 53.2268 158.11 54.5015 156.538 54.5015C154.967 54.5015 153.692 53.2268 153.692 51.6544C153.692 50.082 154.967 48.8073 156.538 48.8073C158.11 48.8073 159.385 50.082 159.385 51.6544Z" fill="#C4C4C4"/>
<path d="M176.462 51.6544C176.462 53.2268 175.187 54.5015 173.615 54.5015C172.044 54.5015 170.769 53.2268 170.769 51.6544C170.769 50.082 172.044 48.8073 173.615 48.8073C175.187 48.8073 176.462 50.082 176.462 51.6544Z" fill="#C4C4C4"/>
<path d="M193.538 51.6544C193.538 53.2268 192.264 54.5015 190.692 54.5015C189.12 54.5015 187.846 53.2268 187.846 51.6544C187.846 50.082 189.12 48.8073 190.692 48.8073C192.264 48.8073 193.538 50.082 193.538 51.6544Z" fill="#C4C4C4"/>
<path d="M210.615 51.6544C210.615 53.2268 209.341 54.5015 207.769 54.5015C206.197 54.5015 204.923 53.2268 204.923 51.6544C204.923 50.082 206.197 48.8073 207.769 48.8073C209.341 48.8073 210.615 50.082 210.615 51.6544Z" fill="#C4C4C4"/>
<path d="M227.692 51.6544C227.692 53.2268 226.418 54.5015 224.846 54.5015C223.274 54.5015 222 53.2268 222 51.6544C222 50.082 223.274 48.8073 224.846 48.8073C226.418 48.8073 227.692 50.082 227.692 51.6544Z" fill="#C4C4C4"/>
<path d="M244.769 51.6544C244.769 53.2268 243.495 54.5015 241.923 54.5015C240.351 54.5015 239.077 53.2268 239.077 51.6544C239.077 50.082 240.351 48.8073 241.923 48.8073C243.495 48.8073 244.769 50.082 244.769 51.6544Z" fill="#C4C4C4"/>
<path d="M261.846 51.6544C261.846 53.2268 260.572 54.5015 259 54.5015C257.428 54.5015 256.154 53.2268 256.154 51.6544C256.154 50.082 257.428 48.8073 259 48.8073C260.572 48.8073 261.846 50.082 261.846 51.6544Z" fill="#C4C4C4"/>
<path d="M278.923 51.6544C278.923 53.2268 277.649 54.5015 276.077 54.5015C274.505 54.5015 273.231 53.2268 273.231 51.6544C273.231 50.082 274.505 48.8073 276.077 48.8073C277.649 48.8073 278.923 50.082 278.923 51.6544Z" fill="#C4C4C4"/>
<path d="M296 51.6544C296 53.2268 294.726 54.5015 293.154 54.5015C291.582 54.5015 290.308 53.2268 290.308 51.6544C290.308 50.082 291.582 48.8073 293.154 48.8073C294.726 48.8073 296 50.082 296 51.6544Z" fill="#C4C4C4"/>
<path d="M5.69231 67.9235C5.69231 69.496 4.41804 70.7706 2.84615 70.7706C1.27427 70.7706 0 69.496 0 67.9235C0 66.3511 1.27427 65.0765 2.84615 65.0765C4.41804 65.0765 5.69231 66.3511 5.69231 67.9235Z" fill="#C4C4C4"/>
<path d="M22.7692 67.9235C22.7692 69.496 21.495 70.7706 19.9231 70.7706C18.3512 70.7706 17.0769 69.496 17.0769 67.9235C17.0769 66.3511 18.3512 65.0765 19.9231 65.0765C21.495 65.0765 22.7692 66.3511 22.7692 67.9235Z" fill="#C4C4C4"/>
<path d="M39.8462 67.9235C39.8462 69.496 38.5719 70.7706 37 70.7706C35.4281 70.7706 34.1538 69.496 34.1538 67.9235C34.1538 66.3511 35.4281 65.0765 37 65.0765C38.5719 65.0765 39.8462 66.3511 39.8462 67.9235Z" fill="#C4C4C4"/>
<path d="M56.9231 67.9235C56.9231 69.496 55.6488 70.7706 54.0769 70.7706C52.505 70.7706 51.2308 69.496 51.2308 67.9235C51.2308 66.3511 52.505 65.0765 54.0769 65.0765C55.6488 65.0765 56.9231 66.3511 56.9231 67.9235Z" fill="#C4C4C4"/>
<path d="M74 67.9235C74 69.496 72.7257 70.7706 71.1538 70.7706C69.582 70.7706 68.3077 69.496 68.3077 67.9235C68.3077 66.3511 69.582 65.0765 71.1538 65.0765C72.7257 65.0765 74 66.3511 74 67.9235Z" fill="#C4C4C4"/>
<path d="M91.0769 67.9235C91.0769 69.496 89.8027 70.7706 88.2308 70.7706C86.6589 70.7706 85.3846 69.496 85.3846 67.9235C85.3846 66.3511 86.6589 65.0765 88.2308 65.0765C89.8027 65.0765 91.0769 66.3511 91.0769 67.9235Z" fill="#C4C4C4"/>
<path d="M108.154 67.9235C108.154 69.496 106.88 70.7706 105.308 70.7706C103.736 70.7706 102.462 69.496 102.462 67.9235C102.462 66.3511 103.736 65.0765 105.308 65.0765C106.88 65.0765 108.154 66.3511 108.154 67.9235Z" fill="#C4C4C4"/>
<path d="M125.231 67.9235C125.231 69.496 123.957 70.7706 122.385 70.7706C120.813 70.7706 119.538 69.496 119.538 67.9235C119.538 66.3511 120.813 65.0765 122.385 65.0765C123.957 65.0765 125.231 66.3511 125.231 67.9235Z" fill="#C4C4C4"/>
<path d="M142.308 67.9235C142.308 69.496 141.033 70.7706 139.462 70.7706C137.89 70.7706 136.615 69.496 136.615 67.9235C136.615 66.3511 137.89 65.0765 139.462 65.0765C141.033 65.0765 142.308 66.3511 142.308 67.9235Z" fill="#C4C4C4"/>
<path d="M159.385 67.9235C159.385 69.496 158.11 70.7706 156.538 70.7706C154.967 70.7706 153.692 69.496 153.692 67.9235C153.692 66.3511 154.967 65.0765 156.538 65.0765C158.11 65.0765 159.385 66.3511 159.385 67.9235Z" fill="#C4C4C4"/>
<path d="M176.462 67.9235C176.462 69.496 175.187 70.7706 173.615 70.7706C172.044 70.7706 170.769 69.496 170.769 67.9235C170.769 66.3511 172.044 65.0765 173.615 65.0765C175.187 65.0765 176.462 66.3511 176.462 67.9235Z" fill="#C4C4C4"/>
<path d="M193.538 67.9235C193.538 69.496 192.264 70.7706 190.692 70.7706C189.12 70.7706 187.846 69.496 187.846 67.9235C187.846 66.3511 189.12 65.0765 190.692 65.0765C192.264 65.0765 193.538 66.3511 193.538 67.9235Z" fill="#C4C4C4"/>
<path d="M210.615 67.9235C210.615 69.496 209.341 70.7706 207.769 70.7706C206.197 70.7706 204.923 69.496 204.923 67.9235C204.923 66.3511 206.197 65.0765 207.769 65.0765C209.341 65.0765 210.615 66.3511 210.615 67.9235Z" fill="#C4C4C4"/>
<path d="M227.692 67.9235C227.692 69.496 226.418 70.7706 224.846 70.7706C223.274 70.7706 222 69.496 222 67.9235C222 66.3511 223.274 65.0765 224.846 65.0765C226.418 65.0765 227.692 66.3511 227.692 67.9235Z" fill="#C4C4C4"/>
<path d="M244.769 67.9235C244.769 69.496 243.495 70.7706 241.923 70.7706C240.351 70.7706 239.077 69.496 239.077 67.9235C239.077 66.3511 240.351 65.0765 241.923 65.0765C243.495 65.0765 244.769 66.3511 244.769 67.9235Z" fill="#C4C4C4"/>
<path d="M261.846 67.9235C261.846 69.496 260.572 70.7706 259 70.7706C257.428 70.7706 256.154 69.496 256.154 67.9235C256.154 66.3511 257.428 65.0765 259 65.0765C260.572 65.0765 261.846 66.3511 261.846 67.9235Z" fill="#C4C4C4"/>
<path d="M278.923 67.9235C278.923 69.496 277.649 70.7706 276.077 70.7706C274.505 70.7706 273.231 69.496 273.231 67.9235C273.231 66.3511 274.505 65.0765 276.077 65.0765C277.649 65.0765 278.923 66.3511 278.923 67.9235Z" fill="#C4C4C4"/>
<path d="M296 67.9235C296 69.496 294.726 70.7706 293.154 70.7706C291.582 70.7706 290.308 69.496 290.308 67.9235C290.308 66.3511 291.582 65.0765 293.154 65.0765C294.726 65.0765 296 66.3511 296 67.9235Z" fill="#C4C4C4"/>
<path d="M5.69231 84.1927C5.69231 85.7651 4.41804 87.0398 2.84615 87.0398C1.27427 87.0398 0 85.7651 0 84.1927C0 82.6203 1.27427 81.3456 2.84615 81.3456C4.41804 81.3456 5.69231 82.6203 5.69231 84.1927Z" fill="#C4C4C4"/>
<path d="M22.7692 84.1927C22.7692 85.7651 21.495 87.0398 19.9231 87.0398C18.3512 87.0398 17.0769 85.7651 17.0769 84.1927C17.0769 82.6203 18.3512 81.3456 19.9231 81.3456C21.495 81.3456 22.7692 82.6203 22.7692 84.1927Z" fill="#C4C4C4"/>
<path d="M39.8462 84.1927C39.8462 85.7651 38.5719 87.0398 37 87.0398C35.4281 87.0398 34.1538 85.7651 34.1538 84.1927C34.1538 82.6203 35.4281 81.3456 37 81.3456C38.5719 81.3456 39.8462 82.6203 39.8462 84.1927Z" fill="#C4C4C4"/>
<path d="M56.9231 84.1927C56.9231 85.7651 55.6488 87.0398 54.0769 87.0398C52.505 87.0398 51.2308 85.7651 51.2308 84.1927C51.2308 82.6203 52.505 81.3456 54.0769 81.3456C55.6488 81.3456 56.9231 82.6203 56.9231 84.1927Z" fill="#C4C4C4"/>
<path d="M74 84.1927C74 85.7651 72.7257 87.0398 71.1538 87.0398C69.582 87.0398 68.3077 85.7651 68.3077 84.1927C68.3077 82.6203 69.582 81.3456 71.1538 81.3456C72.7257 81.3456 74 82.6203 74 84.1927Z" fill="#C4C4C4"/>
<path d="M91.0769 84.1927C91.0769 85.7651 89.8027 87.0398 88.2308 87.0398C86.6589 87.0398 85.3846 85.7651 85.3846 84.1927C85.3846 82.6203 86.6589 81.3456 88.2308 81.3456C89.8027 81.3456 91.0769 82.6203 91.0769 84.1927Z" fill="#C4C4C4"/>
<path d="M108.154 84.1927C108.154 85.7651 106.88 87.0398 105.308 87.0398C103.736 87.0398 102.462 85.7651 102.462 84.1927C102.462 82.6203 103.736 81.3456 105.308 81.3456C106.88 81.3456 108.154 82.6203 108.154 84.1927Z" fill="#C4C4C4"/>
<path d="M125.231 84.1927C125.231 85.7651 123.957 87.0398 122.385 87.0398C120.813 87.0398 119.538 85.7651 119.538 84.1927C119.538 82.6203 120.813 81.3456 122.385 81.3456C123.957 81.3456 125.231 82.6203 125.231 84.1927Z" fill="#C4C4C4"/>
<path d="M142.308 84.1927C142.308 85.7651 141.033 87.0398 139.462 87.0398C137.89 87.0398 136.615 85.7651 136.615 84.1927C136.615 82.6203 137.89 81.3456 139.462 81.3456C141.033 81.3456 142.308 82.6203 142.308 84.1927Z" fill="#C4C4C4"/>
<path d="M159.385 84.1927C159.385 85.7651 158.11 87.0398 156.538 87.0398C154.967 87.0398 153.692 85.7651 153.692 84.1927C153.692 82.6203 154.967 81.3456 156.538 81.3456C158.11 81.3456 159.385 82.6203 159.385 84.1927Z" fill="#C4C4C4"/>
<path d="M176.462 84.1927C176.462 85.7651 175.187 87.0398 173.615 87.0398C172.044 87.0398 170.769 85.7651 170.769 84.1927C170.769 82.6203 172.044 81.3456 173.615 81.3456C175.187 81.3456 176.462 82.6203 176.462 84.1927Z" fill="#C4C4C4"/>
<path d="M193.538 84.1927C193.538 85.7651 192.264 87.0398 190.692 87.0398C189.12 87.0398 187.846 85.7651 187.846 84.1927C187.846 82.6203 189.12 81.3456 190.692 81.3456C192.264 81.3456 193.538 82.6203 193.538 84.1927Z" fill="#C4C4C4"/>
<path d="M210.615 84.1927C210.615 85.7651 209.341 87.0398 207.769 87.0398C206.197 87.0398 204.923 85.7651 204.923 84.1927C204.923 82.6203 206.197 81.3456 207.769 81.3456C209.341 81.3456 210.615 82.6203 210.615 84.1927Z" fill="#C4C4C4"/>
<path d="M227.692 84.1927C227.692 85.7651 226.418 87.0398 224.846 87.0398C223.274 87.0398 222 85.7651 222 84.1927C222 82.6203 223.274 81.3456 224.846 81.3456C226.418 81.3456 227.692 82.6203 227.692 84.1927Z" fill="#C4C4C4"/>
<path d="M244.769 84.1927C244.769 85.7651 243.495 87.0398 241.923 87.0398C240.351 87.0398 239.077 85.7651 239.077 84.1927C239.077 82.6203 240.351 81.3456 241.923 81.3456C243.495 81.3456 244.769 82.6203 244.769 84.1927Z" fill="#C4C4C4"/>
<path d="M261.846 84.1927C261.846 85.7651 260.572 87.0398 259 87.0398C257.428 87.0398 256.154 85.7651 256.154 84.1927C256.154 82.6203 257.428 81.3456 259 81.3456C260.572 81.3456 261.846 82.6203 261.846 84.1927Z" fill="#C4C4C4"/>
<path d="M278.923 84.1927C278.923 85.7651 277.649 87.0398 276.077 87.0398C274.505 87.0398 273.231 85.7651 273.231 84.1927C273.231 82.6203 274.505 81.3456 276.077 81.3456C277.649 81.3456 278.923 82.6203 278.923 84.1927Z" fill="#C4C4C4"/>
<path d="M296 84.1927C296 85.7651 294.726 87.0398 293.154 87.0398C291.582 87.0398 290.308 85.7651 290.308 84.1927C290.308 82.6203 291.582 81.3456 293.154 81.3456C294.726 81.3456 296 82.6203 296 84.1927Z" fill="#C4C4C4"/>
<path d="M5.69231 100.462C5.69231 102.034 4.41804 103.309 2.84615 103.309C1.27427 103.309 0 102.034 0 100.462C0 98.8894 1.27427 97.6147 2.84615 97.6147C4.41804 97.6147 5.69231 98.8894 5.69231 100.462Z" fill="#C4C4C4"/>
<path d="M22.7692 100.462C22.7692 102.034 21.495 103.309 19.9231 103.309C18.3512 103.309 17.0769 102.034 17.0769 100.462C17.0769 98.8894 18.3512 97.6147 19.9231 97.6147C21.495 97.6147 22.7692 98.8894 22.7692 100.462Z" fill="#C4C4C4"/>
<path d="M39.8462 100.462C39.8462 102.034 38.5719 103.309 37 103.309C35.4281 103.309 34.1538 102.034 34.1538 100.462C34.1538 98.8894 35.4281 97.6147 37 97.6147C38.5719 97.6147 39.8462 98.8894 39.8462 100.462Z" fill="#C4C4C4"/>
<path d="M56.9231 100.462C56.9231 102.034 55.6488 103.309 54.0769 103.309C52.505 103.309 51.2308 102.034 51.2308 100.462C51.2308 98.8894 52.505 97.6147 54.0769 97.6147C55.6488 97.6147 56.9231 98.8894 56.9231 100.462Z" fill="#C4C4C4"/>
<path d="M74 100.462C74 102.034 72.7257 103.309 71.1538 103.309C69.582 103.309 68.3077 102.034 68.3077 100.462C68.3077 98.8894 69.582 97.6147 71.1538 97.6147C72.7257 97.6147 74 98.8894 74 100.462Z" fill="#C4C4C4"/>
<path d="M91.0769 100.462C91.0769 102.034 89.8027 103.309 88.2308 103.309C86.6589 103.309 85.3846 102.034 85.3846 100.462C85.3846 98.8894 86.6589 97.6147 88.2308 97.6147C89.8027 97.6147 91.0769 98.8894 91.0769 100.462Z" fill="#C4C4C4"/>
<path d="M108.154 100.462C108.154 102.034 106.88 103.309 105.308 103.309C103.736 103.309 102.462 102.034 102.462 100.462C102.462 98.8894 103.736 97.6147 105.308 97.6147C106.88 97.6147 108.154 98.8894 108.154 100.462Z" fill="#C4C4C4"/>
<path d="M125.231 100.462C125.231 102.034 123.957 103.309 122.385 103.309C120.813 103.309 119.538 102.034 119.538 100.462C119.538 98.8894 120.813 97.6147 122.385 97.6147C123.957 97.6147 125.231 98.8894 125.231 100.462Z" fill="#C4C4C4"/>
<path d="M142.308 100.462C142.308 102.034 141.033 103.309 139.462 103.309C137.89 103.309 136.615 102.034 136.615 100.462C136.615 98.8894 137.89 97.6147 139.462 97.6147C141.033 97.6147 142.308 98.8894 142.308 100.462Z" fill="#C4C4C4"/>
<path d="M159.385 100.462C159.385 102.034 158.11 103.309 156.538 103.309C154.967 103.309 153.692 102.034 153.692 100.462C153.692 98.8894 154.967 97.6147 156.538 97.6147C158.11 97.6147 159.385 98.8894 159.385 100.462Z" fill="#C4C4C4"/>
<path d="M176.462 100.462C176.462 102.034 175.187 103.309 173.615 103.309C172.044 103.309 170.769 102.034 170.769 100.462C170.769 98.8894 172.044 97.6147 173.615 97.6147C175.187 97.6147 176.462 98.8894 176.462 100.462Z" fill="#C4C4C4"/>
<path d="M193.538 100.462C193.538 102.034 192.264 103.309 190.692 103.309C189.12 103.309 187.846 102.034 187.846 100.462C187.846 98.8894 189.12 97.6147 190.692 97.6147C192.264 97.6147 193.538 98.8894 193.538 100.462Z" fill="#C4C4C4"/>
<path d="M210.615 100.462C210.615 102.034 209.341 103.309 207.769 103.309C206.197 103.309 204.923 102.034 204.923 100.462C204.923 98.8894 206.197 97.6147 207.769 97.6147C209.341 97.6147 210.615 98.8894 210.615 100.462Z" fill="#C4C4C4"/>
<path d="M227.692 100.462C227.692 102.034 226.418 103.309 224.846 103.309C223.274 103.309 222 102.034 222 100.462C222 98.8894 223.274 97.6147 224.846 97.6147C226.418 97.6147 227.692 98.8894 227.692 100.462Z" fill="#C4C4C4"/>
<path d="M244.769 100.462C244.769 102.034 243.495 103.309 241.923 103.309C240.351 103.309 239.077 102.034 239.077 100.462C239.077 98.8894 240.351 97.6147 241.923 97.6147C243.495 97.6147 244.769 98.8894 244.769 100.462Z" fill="#C4C4C4"/>
<path d="M261.846 100.462C261.846 102.034 260.572 103.309 259 103.309C257.428 103.309 256.154 102.034 256.154 100.462C256.154 98.8894 257.428 97.6147 259 97.6147C260.572 97.6147 261.846 98.8894 261.846 100.462Z" fill="#C4C4C4"/>
<path d="M278.923 100.462C278.923 102.034 277.649 103.309 276.077 103.309C274.505 103.309 273.231 102.034 273.231 100.462C273.231 98.8894 274.505 97.6147 276.077 97.6147C277.649 97.6147 278.923 98.8894 278.923 100.462Z" fill="#C4C4C4"/>
<path d="M296 100.462C296 102.034 294.726 103.309 293.154 103.309C291.582 103.309 290.308 102.034 290.308 100.462C290.308 98.8894 291.582 97.6147 293.154 97.6147C294.726 97.6147 296 98.8894 296 100.462Z" fill="#C4C4C4"/>
<path d="M5.69231 116.731C5.69231 118.303 4.41804 119.578 2.84615 119.578C1.27427 119.578 0 118.303 0 116.731C0 115.158 1.27427 113.884 2.84615 113.884C4.41804 113.884 5.69231 115.158 5.69231 116.731Z" fill="#C4C4C4"/>
<path d="M22.7692 116.731C22.7692 118.303 21.495 119.578 19.9231 119.578C18.3512 119.578 17.0769 118.303 17.0769 116.731C17.0769 115.158 18.3512 113.884 19.9231 113.884C21.495 113.884 22.7692 115.158 22.7692 116.731Z" fill="#C4C4C4"/>
<path d="M39.8462 116.731C39.8462 118.303 38.5719 119.578 37 119.578C35.4281 119.578 34.1538 118.303 34.1538 116.731C34.1538 115.158 35.4281 113.884 37 113.884C38.5719 113.884 39.8462 115.158 39.8462 116.731Z" fill="#C4C4C4"/>
<path d="M56.9231 116.731C56.9231 118.303 55.6488 119.578 54.0769 119.578C52.505 119.578 51.2308 118.303 51.2308 116.731C51.2308 115.158 52.505 113.884 54.0769 113.884C55.6488 113.884 56.9231 115.158 56.9231 116.731Z" fill="#C4C4C4"/>
<path d="M74 116.731C74 118.303 72.7257 119.578 71.1538 119.578C69.582 119.578 68.3077 118.303 68.3077 116.731C68.3077 115.158 69.582 113.884 71.1538 113.884C72.7257 113.884 74 115.158 74 116.731Z" fill="#C4C4C4"/>
<path d="M91.0769 116.731C91.0769 118.303 89.8027 119.578 88.2308 119.578C86.6589 119.578 85.3846 118.303 85.3846 116.731C85.3846 115.158 86.6589 113.884 88.2308 113.884C89.8027 113.884 91.0769 115.158 91.0769 116.731Z" fill="#C4C4C4"/>
<path d="M108.154 116.731C108.154 118.303 106.88 119.578 105.308 119.578C103.736 119.578 102.462 118.303 102.462 116.731C102.462 115.158 103.736 113.884 105.308 113.884C106.88 113.884 108.154 115.158 108.154 116.731Z" fill="#C4C4C4"/>
<path d="M125.231 116.731C125.231 118.303 123.957 119.578 122.385 119.578C120.813 119.578 119.538 118.303 119.538 116.731C119.538 115.158 120.813 113.884 122.385 113.884C123.957 113.884 125.231 115.158 125.231 116.731Z" fill="#C4C4C4"/>
<path d="M142.308 116.731C142.308 118.303 141.033 119.578 139.462 119.578C137.89 119.578 136.615 118.303 136.615 116.731C136.615 115.158 137.89 113.884 139.462 113.884C141.033 113.884 142.308 115.158 142.308 116.731Z" fill="#C4C4C4"/>
<path d="M159.385 116.731C159.385 118.303 158.11 119.578 156.538 119.578C154.967 119.578 153.692 118.303 153.692 116.731C153.692 115.158 154.967 113.884 156.538 113.884C158.11 113.884 159.385 115.158 159.385 116.731Z" fill="#C4C4C4"/>
<path d="M176.462 116.731C176.462 118.303 175.187 119.578 173.615 119.578C172.044 119.578 170.769 118.303 170.769 116.731C170.769 115.158 172.044 113.884 173.615 113.884C175.187 113.884 176.462 115.158 176.462 116.731Z" fill="#C4C4C4"/>
<path d="M193.538 116.731C193.538 118.303 192.264 119.578 190.692 119.578C189.12 119.578 187.846 118.303 187.846 116.731C187.846 115.158 189.12 113.884 190.692 113.884C192.264 113.884 193.538 115.158 193.538 116.731Z" fill="#C4C4C4"/>
<path d="M210.615 116.731C210.615 118.303 209.341 119.578 207.769 119.578C206.197 119.578 204.923 118.303 204.923 116.731C204.923 115.158 206.197 113.884 207.769 113.884C209.341 113.884 210.615 115.158 210.615 116.731Z" fill="#C4C4C4"/>
<path d="M227.692 116.731C227.692 118.303 226.418 119.578 224.846 119.578C223.274 119.578 222 118.303 222 116.731C222 115.158 223.274 113.884 224.846 113.884C226.418 113.884 227.692 115.158 227.692 116.731Z" fill="#C4C4C4"/>
<path d="M244.769 116.731C244.769 118.303 243.495 119.578 241.923 119.578C240.351 119.578 239.077 118.303 239.077 116.731C239.077 115.158 240.351 113.884 241.923 113.884C243.495 113.884 244.769 115.158 244.769 116.731Z" fill="#C4C4C4"/>
<path d="M261.846 116.731C261.846 118.303 260.572 119.578 259 119.578C257.428 119.578 256.154 118.303 256.154 116.731C256.154 115.158 257.428 113.884 259 113.884C260.572 113.884 261.846 115.158 261.846 116.731Z" fill="#C4C4C4"/>
<path d="M278.923 116.731C278.923 118.303 277.649 119.578 276.077 119.578C274.505 119.578 273.231 118.303 273.231 116.731C273.231 115.158 274.505 113.884 276.077 113.884C277.649 113.884 278.923 115.158 278.923 116.731Z" fill="#C4C4C4"/>
<path d="M296 116.731C296 118.303 294.726 119.578 293.154 119.578C291.582 119.578 290.308 118.303 290.308 116.731C290.308 115.158 291.582 113.884 293.154 113.884C294.726 113.884 296 115.158 296 116.731Z" fill="#C4C4C4"/>
<path d="M5.69231 133C5.69231 134.572 4.41804 135.847 2.84615 135.847C1.27427 135.847 0 134.572 0 133C0 131.428 1.27427 130.153 2.84615 130.153C4.41804 130.153 5.69231 131.428 5.69231 133Z" fill="#C4C4C4"/>
<path d="M22.7692 133C22.7692 134.572 21.495 135.847 19.9231 135.847C18.3512 135.847 17.0769 134.572 17.0769 133C17.0769 131.428 18.3512 130.153 19.9231 130.153C21.495 130.153 22.7692 131.428 22.7692 133Z" fill="#C4C4C4"/>
<path d="M39.8462 133C39.8462 134.572 38.5719 135.847 37 135.847C35.4281 135.847 34.1538 134.572 34.1538 133C34.1538 131.428 35.4281 130.153 37 130.153C38.5719 130.153 39.8462 131.428 39.8462 133Z" fill="#C4C4C4"/>
<path d="M56.9231 133C56.9231 134.572 55.6488 135.847 54.0769 135.847C52.505 135.847 51.2308 134.572 51.2308 133C51.2308 131.428 52.505 130.153 54.0769 130.153C55.6488 130.153 56.9231 131.428 56.9231 133Z" fill="#C4C4C4"/>
<path d="M74 133C74 134.572 72.7257 135.847 71.1538 135.847C69.582 135.847 68.3077 134.572 68.3077 133C68.3077 131.428 69.582 130.153 71.1538 130.153C72.7257 130.153 74 131.428 74 133Z" fill="#C4C4C4"/>
<path d="M91.0769 133C91.0769 134.572 89.8027 135.847 88.2308 135.847C86.6589 135.847 85.3846 134.572 85.3846 133C85.3846 131.428 86.6589 130.153 88.2308 130.153C89.8027 130.153 91.0769 131.428 91.0769 133Z" fill="#C4C4C4"/>
<path d="M108.154 133C108.154 134.572 106.88 135.847 105.308 135.847C103.736 135.847 102.462 134.572 102.462 133C102.462 131.428 103.736 130.153 105.308 130.153C106.88 130.153 108.154 131.428 108.154 133Z" fill="#C4C4C4"/>
<path d="M125.231 133C125.231 134.572 123.957 135.847 122.385 135.847C120.813 135.847 119.538 134.572 119.538 133C119.538 131.428 120.813 130.153 122.385 130.153C123.957 130.153 125.231 131.428 125.231 133Z" fill="#C4C4C4"/>
<path d="M142.308 133C142.308 134.572 141.033 135.847 139.462 135.847C137.89 135.847 136.615 134.572 136.615 133C136.615 131.428 137.89 130.153 139.462 130.153C141.033 130.153 142.308 131.428 142.308 133Z" fill="#C4C4C4"/>
<path d="M159.385 133C159.385 134.572 158.11 135.847 156.538 135.847C154.967 135.847 153.692 134.572 153.692 133C153.692 131.428 154.967 130.153 156.538 130.153C158.11 130.153 159.385 131.428 159.385 133Z" fill="#C4C4C4"/>
<path d="M176.462 133C176.462 134.572 175.187 135.847 173.615 135.847C172.044 135.847 170.769 134.572 170.769 133C170.769 131.428 172.044 130.153 173.615 130.153C175.187 130.153 176.462 131.428 176.462 133Z" fill="#C4C4C4"/>
<path d="M193.538 133C193.538 134.572 192.264 135.847 190.692 135.847C189.12 135.847 187.846 134.572 187.846 133C187.846 131.428 189.12 130.153 190.692 130.153C192.264 130.153 193.538 131.428 193.538 133Z" fill="#C4C4C4"/>
<path d="M210.615 133C210.615 134.572 209.341 135.847 207.769 135.847C206.197 135.847 204.923 134.572 204.923 133C204.923 131.428 206.197 130.153 207.769 130.153C209.341 130.153 210.615 131.428 210.615 133Z" fill="#C4C4C4"/>
<path d="M227.692 133C227.692 134.572 226.418 135.847 224.846 135.847C223.274 135.847 222 134.572 222 133C222 131.428 223.274 130.153 224.846 130.153C226.418 130.153 227.692 131.428 227.692 133Z" fill="#C4C4C4"/>
<path d="M244.769 133C244.769 134.572 243.495 135.847 241.923 135.847C240.351 135.847 239.077 134.572 239.077 133C239.077 131.428 240.351 130.153 241.923 130.153C243.495 130.153 244.769 131.428 244.769 133Z" fill="#C4C4C4"/>
<path d="M261.846 133C261.846 134.572 260.572 135.847 259 135.847C257.428 135.847 256.154 134.572 256.154 133C256.154 131.428 257.428 130.153 259 130.153C260.572 130.153 261.846 131.428 261.846 133Z" fill="#C4C4C4"/>
<path d="M278.923 133C278.923 134.572 277.649 135.847 276.077 135.847C274.505 135.847 273.231 134.572 273.231 133C273.231 131.428 274.505 130.153 276.077 130.153C277.649 130.153 278.923 131.428 278.923 133Z" fill="#C4C4C4"/>
<path d="M296 133C296 134.572 294.726 135.847 293.154 135.847C291.582 135.847 290.308 134.572 290.308 133C290.308 131.428 291.582 130.153 293.154 130.153C294.726 130.153 296 131.428 296 133Z" fill="#C4C4C4"/>
<path d="M5.69231 149.269C5.69231 150.842 4.41804 152.116 2.84615 152.116C1.27427 152.116 0 150.842 0 149.269C0 147.697 1.27427 146.422 2.84615 146.422C4.41804 146.422 5.69231 147.697 5.69231 149.269Z" fill="#C4C4C4"/>
<path d="M22.7692 149.269C22.7692 150.842 21.495 152.116 19.9231 152.116C18.3512 152.116 17.0769 150.842 17.0769 149.269C17.0769 147.697 18.3512 146.422 19.9231 146.422C21.495 146.422 22.7692 147.697 22.7692 149.269Z" fill="#C4C4C4"/>
<path d="M39.8462 149.269C39.8462 150.842 38.5719 152.116 37 152.116C35.4281 152.116 34.1538 150.842 34.1538 149.269C34.1538 147.697 35.4281 146.422 37 146.422C38.5719 146.422 39.8462 147.697 39.8462 149.269Z" fill="#C4C4C4"/>
<path d="M56.9231 149.269C56.9231 150.842 55.6488 152.116 54.0769 152.116C52.505 152.116 51.2308 150.842 51.2308 149.269C51.2308 147.697 52.505 146.422 54.0769 146.422C55.6488 146.422 56.9231 147.697 56.9231 149.269Z" fill="#C4C4C4"/>
<path d="M74 149.269C74 150.842 72.7257 152.116 71.1538 152.116C69.582 152.116 68.3077 150.842 68.3077 149.269C68.3077 147.697 69.582 146.422 71.1538 146.422C72.7257 146.422 74 147.697 74 149.269Z" fill="#C4C4C4"/>
<path d="M91.0769 149.269C91.0769 150.842 89.8027 152.116 88.2308 152.116C86.6589 152.116 85.3846 150.842 85.3846 149.269C85.3846 147.697 86.6589 146.422 88.2308 146.422C89.8027 146.422 91.0769 147.697 91.0769 149.269Z" fill="#C4C4C4"/>
<path d="M108.154 149.269C108.154 150.842 106.88 152.116 105.308 152.116C103.736 152.116 102.462 150.842 102.462 149.269C102.462 147.697 103.736 146.422 105.308 146.422C106.88 146.422 108.154 147.697 108.154 149.269Z" fill="#C4C4C4"/>
<path d="M125.231 149.269C125.231 150.842 123.957 152.116 122.385 152.116C120.813 152.116 119.538 150.842 119.538 149.269C119.538 147.697 120.813 146.422 122.385 146.422C123.957 146.422 125.231 147.697 125.231 149.269Z" fill="#C4C4C4"/>
<path d="M142.308 149.269C142.308 150.842 141.033 152.116 139.462 152.116C137.89 152.116 136.615 150.842 136.615 149.269C136.615 147.697 137.89 146.422 139.462 146.422C141.033 146.422 142.308 147.697 142.308 149.269Z" fill="#C4C4C4"/>
<path d="M159.385 149.269C159.385 150.842 158.11 152.116 156.538 152.116C154.967 152.116 153.692 150.842 153.692 149.269C153.692 147.697 154.967 146.422 156.538 146.422C158.11 146.422 159.385 147.697 159.385 149.269Z" fill="#C4C4C4"/>
<path d="M176.462 149.269C176.462 150.842 175.187 152.116 173.615 152.116C172.044 152.116 170.769 150.842 170.769 149.269C170.769 147.697 172.044 146.422 173.615 146.422C175.187 146.422 176.462 147.697 176.462 149.269Z" fill="#C4C4C4"/>
<path d="M193.538 149.269C193.538 150.842 192.264 152.116 190.692 152.116C189.12 152.116 187.846 150.842 187.846 149.269C187.846 147.697 189.12 146.422 190.692 146.422C192.264 146.422 193.538 147.697 193.538 149.269Z" fill="#C4C4C4"/>
<path d="M210.615 149.269C210.615 150.842 209.341 152.116 207.769 152.116C206.197 152.116 204.923 150.842 204.923 149.269C204.923 147.697 206.197 146.422 207.769 146.422C209.341 146.422 210.615 147.697 210.615 149.269Z" fill="#C4C4C4"/>
<path d="M227.692 149.269C227.692 150.842 226.418 152.116 224.846 152.116C223.274 152.116 222 150.842 222 149.269C222 147.697 223.274 146.422 224.846 146.422C226.418 146.422 227.692 147.697 227.692 149.269Z" fill="#C4C4C4"/>
<path d="M244.769 149.269C244.769 150.842 243.495 152.116 241.923 152.116C240.351 152.116 239.077 150.842 239.077 149.269C239.077 147.697 240.351 146.422 241.923 146.422C243.495 146.422 244.769 147.697 244.769 149.269Z" fill="#C4C4C4"/>
<path d="M261.846 149.269C261.846 150.842 260.572 152.116 259 152.116C257.428 152.116 256.154 150.842 256.154 149.269C256.154 147.697 257.428 146.422 259 146.422C260.572 146.422 261.846 147.697 261.846 149.269Z" fill="#C4C4C4"/>
<path d="M278.923 149.269C278.923 150.842 277.649 152.116 276.077 152.116C274.505 152.116 273.231 150.842 273.231 149.269C273.231 147.697 274.505 146.422 276.077 146.422C277.649 146.422 278.923 147.697 278.923 149.269Z" fill="#C4C4C4"/>
<path d="M296 149.269C296 150.842 294.726 152.116 293.154 152.116C291.582 152.116 290.308 150.842 290.308 149.269C290.308 147.697 291.582 146.422 293.154 146.422C294.726 146.422 296 147.697 296 149.269Z" fill="#C4C4C4"/>
<path d="M5.69231 165.538C5.69231 167.111 4.41804 168.385 2.84615 168.385C1.27427 168.385 0 167.111 0 165.538C0 163.966 1.27427 162.691 2.84615 162.691C4.41804 162.691 5.69231 163.966 5.69231 165.538Z" fill="#C4C4C4"/>
<path d="M22.7692 165.538C22.7692 167.111 21.495 168.385 19.9231 168.385C18.3512 168.385 17.0769 167.111 17.0769 165.538C17.0769 163.966 18.3512 162.691 19.9231 162.691C21.495 162.691 22.7692 163.966 22.7692 165.538Z" fill="#C4C4C4"/>
<path d="M39.8462 165.538C39.8462 167.111 38.5719 168.385 37 168.385C35.4281 168.385 34.1538 167.111 34.1538 165.538C34.1538 163.966 35.4281 162.691 37 162.691C38.5719 162.691 39.8462 163.966 39.8462 165.538Z" fill="#C4C4C4"/>
<path d="M56.9231 165.538C56.9231 167.111 55.6488 168.385 54.0769 168.385C52.505 168.385 51.2308 167.111 51.2308 165.538C51.2308 163.966 52.505 162.691 54.0769 162.691C55.6488 162.691 56.9231 163.966 56.9231 165.538Z" fill="#C4C4C4"/>
<path d="M74 165.538C74 167.111 72.7257 168.385 71.1538 168.385C69.582 168.385 68.3077 167.111 68.3077 165.538C68.3077 163.966 69.582 162.691 71.1538 162.691C72.7257 162.691 74 163.966 74 165.538Z" fill="#C4C4C4"/>
<path d="M91.0769 165.538C91.0769 167.111 89.8027 168.385 88.2308 168.385C86.6589 168.385 85.3846 167.111 85.3846 165.538C85.3846 163.966 86.6589 162.691 88.2308 162.691C89.8027 162.691 91.0769 163.966 91.0769 165.538Z" fill="#C4C4C4"/>
<path d="M108.154 165.538C108.154 167.111 106.88 168.385 105.308 168.385C103.736 168.385 102.462 167.111 102.462 165.538C102.462 163.966 103.736 162.691 105.308 162.691C106.88 162.691 108.154 163.966 108.154 165.538Z" fill="#C4C4C4"/>
<path d="M125.231 165.538C125.231 167.111 123.957 168.385 122.385 168.385C120.813 168.385 119.538 167.111 119.538 165.538C119.538 163.966 120.813 162.691 122.385 162.691C123.957 162.691 125.231 163.966 125.231 165.538Z" fill="#C4C4C4"/>
<path d="M142.308 165.538C142.308 167.111 141.033 168.385 139.462 168.385C137.89 168.385 136.615 167.111 136.615 165.538C136.615 163.966 137.89 162.691 139.462 162.691C141.033 162.691 142.308 163.966 142.308 165.538Z" fill="#C4C4C4"/>
<path d="M159.385 165.538C159.385 167.111 158.11 168.385 156.538 168.385C154.967 168.385 153.692 167.111 153.692 165.538C153.692 163.966 154.967 162.691 156.538 162.691C158.11 162.691 159.385 163.966 159.385 165.538Z" fill="#C4C4C4"/>
<path d="M176.462 165.538C176.462 167.111 175.187 168.385 173.615 168.385C172.044 168.385 170.769 167.111 170.769 165.538C170.769 163.966 172.044 162.691 173.615 162.691C175.187 162.691 176.462 163.966 176.462 165.538Z" fill="#C4C4C4"/>
<path d="M193.538 165.538C193.538 167.111 192.264 168.385 190.692 168.385C189.12 168.385 187.846 167.111 187.846 165.538C187.846 163.966 189.12 162.691 190.692 162.691C192.264 162.691 193.538 163.966 193.538 165.538Z" fill="#C4C4C4"/>
<path d="M210.615 165.538C210.615 167.111 209.341 168.385 207.769 168.385C206.197 168.385 204.923 167.111 204.923 165.538C204.923 163.966 206.197 162.691 207.769 162.691C209.341 162.691 210.615 163.966 210.615 165.538Z" fill="#C4C4C4"/>
<path d="M227.692 165.538C227.692 167.111 226.418 168.385 224.846 168.385C223.274 168.385 222 167.111 222 165.538C222 163.966 223.274 162.691 224.846 162.691C226.418 162.691 227.692 163.966 227.692 165.538Z" fill="#C4C4C4"/>
<path d="M244.769 165.538C244.769 167.111 243.495 168.385 241.923 168.385C240.351 168.385 239.077 167.111 239.077 165.538C239.077 163.966 240.351 162.691 241.923 162.691C243.495 162.691 244.769 163.966 244.769 165.538Z" fill="#C4C4C4"/>
<path d="M261.846 165.538C261.846 167.111 260.572 168.385 259 168.385C257.428 168.385 256.154 167.111 256.154 165.538C256.154 163.966 257.428 162.691 259 162.691C260.572 162.691 261.846 163.966 261.846 165.538Z" fill="#C4C4C4"/>
<path d="M278.923 165.538C278.923 167.111 277.649 168.385 276.077 168.385C274.505 168.385 273.231 167.111 273.231 165.538C273.231 163.966 274.505 162.691 276.077 162.691C277.649 162.691 278.923 163.966 278.923 165.538Z" fill="#C4C4C4"/>
<path d="M296 165.538C296 167.111 294.726 168.385 293.154 168.385C291.582 168.385 290.308 167.111 290.308 165.538C290.308 163.966 291.582 162.691 293.154 162.691C294.726 162.691 296 163.966 296 165.538Z" fill="#C4C4C4"/>
<path d="M5.69231 181.807C5.69231 183.38 4.41804 184.654 2.84615 184.654C1.27427 184.654 0 183.38 0 181.807C0 180.235 1.27427 178.96 2.84615 178.96C4.41804 178.96 5.69231 180.235 5.69231 181.807Z" fill="#C4C4C4"/>
<path d="M22.7692 181.807C22.7692 183.38 21.495 184.654 19.9231 184.654C18.3512 184.654 17.0769 183.38 17.0769 181.807C17.0769 180.235 18.3512 178.96 19.9231 178.96C21.495 178.96 22.7692 180.235 22.7692 181.807Z" fill="#C4C4C4"/>
<path d="M39.8462 181.807C39.8462 183.38 38.5719 184.654 37 184.654C35.4281 184.654 34.1538 183.38 34.1538 181.807C34.1538 180.235 35.4281 178.96 37 178.96C38.5719 178.96 39.8462 180.235 39.8462 181.807Z" fill="#C4C4C4"/>
<path d="M56.9231 181.807C56.9231 183.38 55.6488 184.654 54.0769 184.654C52.505 184.654 51.2308 183.38 51.2308 181.807C51.2308 180.235 52.505 178.96 54.0769 178.96C55.6488 178.96 56.9231 180.235 56.9231 181.807Z" fill="#C4C4C4"/>
<path d="M74 181.807C74 183.38 72.7257 184.654 71.1538 184.654C69.582 184.654 68.3077 183.38 68.3077 181.807C68.3077 180.235 69.582 178.96 71.1538 178.96C72.7257 178.96 74 180.235 74 181.807Z" fill="#C4C4C4"/>
<path d="M91.0769 181.807C91.0769 183.38 89.8027 184.654 88.2308 184.654C86.6589 184.654 85.3846 183.38 85.3846 181.807C85.3846 180.235 86.6589 178.96 88.2308 178.96C89.8027 178.96 91.0769 180.235 91.0769 181.807Z" fill="#C4C4C4"/>
<path d="M108.154 181.807C108.154 183.38 106.88 184.654 105.308 184.654C103.736 184.654 102.462 183.38 102.462 181.807C102.462 180.235 103.736 178.96 105.308 178.96C106.88 178.96 108.154 180.235 108.154 181.807Z" fill="#C4C4C4"/>
<path d="M125.231 181.807C125.231 183.38 123.957 184.654 122.385 184.654C120.813 184.654 119.538 183.38 119.538 181.807C119.538 180.235 120.813 178.96 122.385 178.96C123.957 178.96 125.231 180.235 125.231 181.807Z" fill="#C4C4C4"/>
<path d="M142.308 181.807C142.308 183.38 141.033 184.654 139.462 184.654C137.89 184.654 136.615 183.38 136.615 181.807C136.615 180.235 137.89 178.96 139.462 178.96C141.033 178.96 142.308 180.235 142.308 181.807Z" fill="#C4C4C4"/>
<path d="M159.385 181.807C159.385 183.38 158.11 184.654 156.538 184.654C154.967 184.654 153.692 183.38 153.692 181.807C153.692 180.235 154.967 178.96 156.538 178.96C158.11 178.96 159.385 180.235 159.385 181.807Z" fill="#C4C4C4"/>
<path d="M176.462 181.807C176.462 183.38 175.187 184.654 173.615 184.654C172.044 184.654 170.769 183.38 170.769 181.807C170.769 180.235 172.044 178.96 173.615 178.96C175.187 178.96 176.462 180.235 176.462 181.807Z" fill="#C4C4C4"/>
<path d="M193.538 181.807C193.538 183.38 192.264 184.654 190.692 184.654C189.12 184.654 187.846 183.38 187.846 181.807C187.846 180.235 189.12 178.96 190.692 178.96C192.264 178.96 193.538 180.235 193.538 181.807Z" fill="#C4C4C4"/>
<path d="M210.615 181.807C210.615 183.38 209.341 184.654 207.769 184.654C206.197 184.654 204.923 183.38 204.923 181.807C204.923 180.235 206.197 178.96 207.769 178.96C209.341 178.96 210.615 180.235 210.615 181.807Z" fill="#C4C4C4"/>
<path d="M227.692 181.807C227.692 183.38 226.418 184.654 224.846 184.654C223.274 184.654 222 183.38 222 181.807C222 180.235 223.274 178.96 224.846 178.96C226.418 178.96 227.692 180.235 227.692 181.807Z" fill="#C4C4C4"/>
<path d="M244.769 181.807C244.769 183.38 243.495 184.654 241.923 184.654C240.351 184.654 239.077 183.38 239.077 181.807C239.077 180.235 240.351 178.96 241.923 178.96C243.495 178.96 244.769 180.235 244.769 181.807Z" fill="#C4C4C4"/>
<path d="M261.846 181.807C261.846 183.38 260.572 184.654 259 184.654C257.428 184.654 256.154 183.38 256.154 181.807C256.154 180.235 257.428 178.96 259 178.96C260.572 178.96 261.846 180.235 261.846 181.807Z" fill="#C4C4C4"/>
<path d="M278.923 181.807C278.923 183.38 277.649 184.654 276.077 184.654C274.505 184.654 273.231 183.38 273.231 181.807C273.231 180.235 274.505 178.96 276.077 178.96C277.649 178.96 278.923 180.235 278.923 181.807Z" fill="#C4C4C4"/>
<path d="M296 181.807C296 183.38 294.726 184.654 293.154 184.654C291.582 184.654 290.308 183.38 290.308 181.807C290.308 180.235 291.582 178.96 293.154 178.96C294.726 178.96 296 180.235 296 181.807Z" fill="#C4C4C4"/>
<path d="M5.69231 198.076C5.69231 199.649 4.41804 200.924 2.84615 200.924C1.27427 200.924 0 199.649 0 198.076C0 196.504 1.27427 195.229 2.84615 195.229C4.41804 195.229 5.69231 196.504 5.69231 198.076Z" fill="#C4C4C4"/>
<path d="M22.7692 198.076C22.7692 199.649 21.495 200.924 19.9231 200.924C18.3512 200.924 17.0769 199.649 17.0769 198.076C17.0769 196.504 18.3512 195.229 19.9231 195.229C21.495 195.229 22.7692 196.504 22.7692 198.076Z" fill="#C4C4C4"/>
<path d="M39.8462 198.076C39.8462 199.649 38.5719 200.924 37 200.924C35.4281 200.924 34.1538 199.649 34.1538 198.076C34.1538 196.504 35.4281 195.229 37 195.229C38.5719 195.229 39.8462 196.504 39.8462 198.076Z" fill="#C4C4C4"/>
<path d="M56.9231 198.076C56.9231 199.649 55.6488 200.924 54.0769 200.924C52.505 200.924 51.2308 199.649 51.2308 198.076C51.2308 196.504 52.505 195.229 54.0769 195.229C55.6488 195.229 56.9231 196.504 56.9231 198.076Z" fill="#C4C4C4"/>
<path d="M74 198.076C74 199.649 72.7257 200.924 71.1538 200.924C69.582 200.924 68.3077 199.649 68.3077 198.076C68.3077 196.504 69.582 195.229 71.1538 195.229C72.7257 195.229 74 196.504 74 198.076Z" fill="#C4C4C4"/>
<path d="M91.0769 198.076C91.0769 199.649 89.8027 200.924 88.2308 200.924C86.6589 200.924 85.3846 199.649 85.3846 198.076C85.3846 196.504 86.6589 195.229 88.2308 195.229C89.8027 195.229 91.0769 196.504 91.0769 198.076Z" fill="#C4C4C4"/>
<path d="M108.154 198.076C108.154 199.649 106.88 200.924 105.308 200.924C103.736 200.924 102.462 199.649 102.462 198.076C102.462 196.504 103.736 195.229 105.308 195.229C106.88 195.229 108.154 196.504 108.154 198.076Z" fill="#C4C4C4"/>
<path d="M125.231 198.076C125.231 199.649 123.957 200.924 122.385 200.924C120.813 200.924 119.538 199.649 119.538 198.076C119.538 196.504 120.813 195.229 122.385 195.229C123.957 195.229 125.231 196.504 125.231 198.076Z" fill="#C4C4C4"/>
<path d="M142.308 198.076C142.308 199.649 141.033 200.924 139.462 200.924C137.89 200.924 136.615 199.649 136.615 198.076C136.615 196.504 137.89 195.229 139.462 195.229C141.033 195.229 142.308 196.504 142.308 198.076Z" fill="#C4C4C4"/>
<path d="M159.385 198.076C159.385 199.649 158.11 200.924 156.538 200.924C154.967 200.924 153.692 199.649 153.692 198.076C153.692 196.504 154.967 195.229 156.538 195.229C158.11 195.229 159.385 196.504 159.385 198.076Z" fill="#C4C4C4"/>
<path d="M176.462 198.076C176.462 199.649 175.187 200.924 173.615 200.924C172.044 200.924 170.769 199.649 170.769 198.076C170.769 196.504 172.044 195.229 173.615 195.229C175.187 195.229 176.462 196.504 176.462 198.076Z" fill="#C4C4C4"/>
<path d="M193.538 198.076C193.538 199.649 192.264 200.924 190.692 200.924C189.12 200.924 187.846 199.649 187.846 198.076C187.846 196.504 189.12 195.229 190.692 195.229C192.264 195.229 193.538 196.504 193.538 198.076Z" fill="#C4C4C4"/>
<path d="M210.615 198.076C210.615 199.649 209.341 200.924 207.769 200.924C206.197 200.924 204.923 199.649 204.923 198.076C204.923 196.504 206.197 195.229 207.769 195.229C209.341 195.229 210.615 196.504 210.615 198.076Z" fill="#C4C4C4"/>
<path d="M227.692 198.076C227.692 199.649 226.418 200.924 224.846 200.924C223.274 200.924 222 199.649 222 198.076C222 196.504 223.274 195.229 224.846 195.229C226.418 195.229 227.692 196.504 227.692 198.076Z" fill="#C4C4C4"/>
<path d="M244.769 198.076C244.769 199.649 243.495 200.924 241.923 200.924C240.351 200.924 239.077 199.649 239.077 198.076C239.077 196.504 240.351 195.229 241.923 195.229C243.495 195.229 244.769 196.504 244.769 198.076Z" fill="#C4C4C4"/>
<path d="M261.846 198.076C261.846 199.649 260.572 200.924 259 200.924C257.428 200.924 256.154 199.649 256.154 198.076C256.154 196.504 257.428 195.229 259 195.229C260.572 195.229 261.846 196.504 261.846 198.076Z" fill="#C4C4C4"/>
<path d="M278.923 198.076C278.923 199.649 277.649 200.924 276.077 200.924C274.505 200.924 273.231 199.649 273.231 198.076C273.231 196.504 274.505 195.229 276.077 195.229C277.649 195.229 278.923 196.504 278.923 198.076Z" fill="#C4C4C4"/>
<path d="M296 198.076C296 199.649 294.726 200.924 293.154 200.924C291.582 200.924 290.308 199.649 290.308 198.076C290.308 196.504 291.582 195.229 293.154 195.229C294.726 195.229 296 196.504 296 198.076Z" fill="#C4C4C4"/>
<path d="M5.69231 214.346C5.69231 215.918 4.41804 217.193 2.84615 217.193C1.27427 217.193 0 215.918 0 214.346C0 212.773 1.27427 211.498 2.84615 211.498C4.41804 211.498 5.69231 212.773 5.69231 214.346Z" fill="#C4C4C4"/>
<path d="M22.7692 214.346C22.7692 215.918 21.495 217.193 19.9231 217.193C18.3512 217.193 17.0769 215.918 17.0769 214.346C17.0769 212.773 18.3512 211.498 19.9231 211.498C21.495 211.498 22.7692 212.773 22.7692 214.346Z" fill="#C4C4C4"/>
<path d="M39.8462 214.346C39.8462 215.918 38.5719 217.193 37 217.193C35.4281 217.193 34.1538 215.918 34.1538 214.346C34.1538 212.773 35.4281 211.498 37 211.498C38.5719 211.498 39.8462 212.773 39.8462 214.346Z" fill="#C4C4C4"/>
<path d="M56.9231 214.346C56.9231 215.918 55.6488 217.193 54.0769 217.193C52.505 217.193 51.2308 215.918 51.2308 214.346C51.2308 212.773 52.505 211.498 54.0769 211.498C55.6488 211.498 56.9231 212.773 56.9231 214.346Z" fill="#C4C4C4"/>
<path d="M74 214.346C74 215.918 72.7257 217.193 71.1538 217.193C69.582 217.193 68.3077 215.918 68.3077 214.346C68.3077 212.773 69.582 211.498 71.1538 211.498C72.7257 211.498 74 212.773 74 214.346Z" fill="#C4C4C4"/>
<path d="M91.0769 214.346C91.0769 215.918 89.8027 217.193 88.2308 217.193C86.6589 217.193 85.3846 215.918 85.3846 214.346C85.3846 212.773 86.6589 211.498 88.2308 211.498C89.8027 211.498 91.0769 212.773 91.0769 214.346Z" fill="#C4C4C4"/>
<path d="M108.154 214.346C108.154 215.918 106.88 217.193 105.308 217.193C103.736 217.193 102.462 215.918 102.462 214.346C102.462 212.773 103.736 211.498 105.308 211.498C106.88 211.498 108.154 212.773 108.154 214.346Z" fill="#C4C4C4"/>
<path d="M125.231 214.346C125.231 215.918 123.957 217.193 122.385 217.193C120.813 217.193 119.538 215.918 119.538 214.346C119.538 212.773 120.813 211.498 122.385 211.498C123.957 211.498 125.231 212.773 125.231 214.346Z" fill="#C4C4C4"/>
<path d="M142.308 214.346C142.308 215.918 141.033 217.193 139.462 217.193C137.89 217.193 136.615 215.918 136.615 214.346C136.615 212.773 137.89 211.498 139.462 211.498C141.033 211.498 142.308 212.773 142.308 214.346Z" fill="#C4C4C4"/>
<path d="M159.385 214.346C159.385 215.918 158.11 217.193 156.538 217.193C154.967 217.193 153.692 215.918 153.692 214.346C153.692 212.773 154.967 211.498 156.538 211.498C158.11 211.498 159.385 212.773 159.385 214.346Z" fill="#C4C4C4"/>
<path d="M176.462 214.346C176.462 215.918 175.187 217.193 173.615 217.193C172.044 217.193 170.769 215.918 170.769 214.346C170.769 212.773 172.044 211.498 173.615 211.498C175.187 211.498 176.462 212.773 176.462 214.346Z" fill="#C4C4C4"/>
<path d="M193.538 214.346C193.538 215.918 192.264 217.193 190.692 217.193C189.12 217.193 187.846 215.918 187.846 214.346C187.846 212.773 189.12 211.498 190.692 211.498C192.264 211.498 193.538 212.773 193.538 214.346Z" fill="#C4C4C4"/>
<path d="M210.615 214.346C210.615 215.918 209.341 217.193 207.769 217.193C206.197 217.193 204.923 215.918 204.923 214.346C204.923 212.773 206.197 211.498 207.769 211.498C209.341 211.498 210.615 212.773 210.615 214.346Z" fill="#C4C4C4"/>
<path d="M227.692 214.346C227.692 215.918 226.418 217.193 224.846 217.193C223.274 217.193 222 215.918 222 214.346C222 212.773 223.274 211.498 224.846 211.498C226.418 211.498 227.692 212.773 227.692 214.346Z" fill="#C4C4C4"/>
<path d="M244.769 214.346C244.769 215.918 243.495 217.193 241.923 217.193C240.351 217.193 239.077 215.918 239.077 214.346C239.077 212.773 240.351 211.498 241.923 211.498C243.495 211.498 244.769 212.773 244.769 214.346Z" fill="#C4C4C4"/>
<path d="M261.846 214.346C261.846 215.918 260.572 217.193 259 217.193C257.428 217.193 256.154 215.918 256.154 214.346C256.154 212.773 257.428 211.498 259 211.498C260.572 211.498 261.846 212.773 261.846 214.346Z" fill="#C4C4C4"/>
<path d="M278.923 214.346C278.923 215.918 277.649 217.193 276.077 217.193C274.505 217.193 273.231 215.918 273.231 214.346C273.231 212.773 274.505 211.498 276.077 211.498C277.649 211.498 278.923 212.773 278.923 214.346Z" fill="#C4C4C4"/>
<path d="M296 214.346C296 215.918 294.726 217.193 293.154 217.193C291.582 217.193 290.308 215.918 290.308 214.346C290.308 212.773 291.582 211.498 293.154 211.498C294.726 211.498 296 212.773 296 214.346Z" fill="#C4C4C4"/>
<path d="M5.69231 230.615C5.69231 232.187 4.41804 233.462 2.84615 233.462C1.27427 233.462 0 232.187 0 230.615C0 229.042 1.27427 227.768 2.84615 227.768C4.41804 227.768 5.69231 229.042 5.69231 230.615Z" fill="#C4C4C4"/>
<path d="M22.7692 230.615C22.7692 232.187 21.495 233.462 19.9231 233.462C18.3512 233.462 17.0769 232.187 17.0769 230.615C17.0769 229.042 18.3512 227.768 19.9231 227.768C21.495 227.768 22.7692 229.042 22.7692 230.615Z" fill="#C4C4C4"/>
<path d="M39.8462 230.615C39.8462 232.187 38.5719 233.462 37 233.462C35.4281 233.462 34.1538 232.187 34.1538 230.615C34.1538 229.042 35.4281 227.768 37 227.768C38.5719 227.768 39.8462 229.042 39.8462 230.615Z" fill="#C4C4C4"/>
<path d="M56.9231 230.615C56.9231 232.187 55.6488 233.462 54.0769 233.462C52.505 233.462 51.2308 232.187 51.2308 230.615C51.2308 229.042 52.505 227.768 54.0769 227.768C55.6488 227.768 56.9231 229.042 56.9231 230.615Z" fill="#C4C4C4"/>
<path d="M74 230.615C74 232.187 72.7257 233.462 71.1538 233.462C69.582 233.462 68.3077 232.187 68.3077 230.615C68.3077 229.042 69.582 227.768 71.1538 227.768C72.7257 227.768 74 229.042 74 230.615Z" fill="#C4C4C4"/>
<path d="M91.0769 230.615C91.0769 232.187 89.8027 233.462 88.2308 233.462C86.6589 233.462 85.3846 232.187 85.3846 230.615C85.3846 229.042 86.6589 227.768 88.2308 227.768C89.8027 227.768 91.0769 229.042 91.0769 230.615Z" fill="#C4C4C4"/>
<path d="M108.154 230.615C108.154 232.187 106.88 233.462 105.308 233.462C103.736 233.462 102.462 232.187 102.462 230.615C102.462 229.042 103.736 227.768 105.308 227.768C106.88 227.768 108.154 229.042 108.154 230.615Z" fill="#C4C4C4"/>
<path d="M125.231 230.615C125.231 232.187 123.957 233.462 122.385 233.462C120.813 233.462 119.538 232.187 119.538 230.615C119.538 229.042 120.813 227.768 122.385 227.768C123.957 227.768 125.231 229.042 125.231 230.615Z" fill="#C4C4C4"/>
<path d="M142.308 230.615C142.308 232.187 141.033 233.462 139.462 233.462C137.89 233.462 136.615 232.187 136.615 230.615C136.615 229.042 137.89 227.768 139.462 227.768C141.033 227.768 142.308 229.042 142.308 230.615Z" fill="#C4C4C4"/>
<path d="M159.385 230.615C159.385 232.187 158.11 233.462 156.538 233.462C154.967 233.462 153.692 232.187 153.692 230.615C153.692 229.042 154.967 227.768 156.538 227.768C158.11 227.768 159.385 229.042 159.385 230.615Z" fill="#C4C4C4"/>
<path d="M176.462 230.615C176.462 232.187 175.187 233.462 173.615 233.462C172.044 233.462 170.769 232.187 170.769 230.615C170.769 229.042 172.044 227.768 173.615 227.768C175.187 227.768 176.462 229.042 176.462 230.615Z" fill="#C4C4C4"/>
<path d="M193.538 230.615C193.538 232.187 192.264 233.462 190.692 233.462C189.12 233.462 187.846 232.187 187.846 230.615C187.846 229.042 189.12 227.768 190.692 227.768C192.264 227.768 193.538 229.042 193.538 230.615Z" fill="#C4C4C4"/>
<path d="M210.615 230.615C210.615 232.187 209.341 233.462 207.769 233.462C206.197 233.462 204.923 232.187 204.923 230.615C204.923 229.042 206.197 227.768 207.769 227.768C209.341 227.768 210.615 229.042 210.615 230.615Z" fill="#C4C4C4"/>
<path d="M227.692 230.615C227.692 232.187 226.418 233.462 224.846 233.462C223.274 233.462 222 232.187 222 230.615C222 229.042 223.274 227.768 224.846 227.768C226.418 227.768 227.692 229.042 227.692 230.615Z" fill="#C4C4C4"/>
<path d="M244.769 230.615C244.769 232.187 243.495 233.462 241.923 233.462C240.351 233.462 239.077 232.187 239.077 230.615C239.077 229.042 240.351 227.768 241.923 227.768C243.495 227.768 244.769 229.042 244.769 230.615Z" fill="#C4C4C4"/>
<path d="M261.846 230.615C261.846 232.187 260.572 233.462 259 233.462C257.428 233.462 256.154 232.187 256.154 230.615C256.154 229.042 257.428 227.768 259 227.768C260.572 227.768 261.846 229.042 261.846 230.615Z" fill="#C4C4C4"/>
<path d="M278.923 230.615C278.923 232.187 277.649 233.462 276.077 233.462C274.505 233.462 273.231 232.187 273.231 230.615C273.231 229.042 274.505 227.768 276.077 227.768C277.649 227.768 278.923 229.042 278.923 230.615Z" fill="#C4C4C4"/>
<path d="M296 230.615C296 232.187 294.726 233.462 293.154 233.462C291.582 233.462 290.308 232.187 290.308 230.615C290.308 229.042 291.582 227.768 293.154 227.768C294.726 227.768 296 229.042 296 230.615Z" fill="#C4C4C4"/>
<path d="M5.69231 246.884C5.69231 248.456 4.41804 249.731 2.84615 249.731C1.27427 249.731 0 248.456 0 246.884C0 245.311 1.27427 244.037 2.84615 244.037C4.41804 244.037 5.69231 245.311 5.69231 246.884Z" fill="#C4C4C4"/>
<path d="M22.7692 246.884C22.7692 248.456 21.495 249.731 19.9231 249.731C18.3512 249.731 17.0769 248.456 17.0769 246.884C17.0769 245.311 18.3512 244.037 19.9231 244.037C21.495 244.037 22.7692 245.311 22.7692 246.884Z" fill="#C4C4C4"/>
<path d="M39.8462 246.884C39.8462 248.456 38.5719 249.731 37 249.731C35.4281 249.731 34.1538 248.456 34.1538 246.884C34.1538 245.311 35.4281 244.037 37 244.037C38.5719 244.037 39.8462 245.311 39.8462 246.884Z" fill="#C4C4C4"/>
<path d="M56.9231 246.884C56.9231 248.456 55.6488 249.731 54.0769 249.731C52.505 249.731 51.2308 248.456 51.2308 246.884C51.2308 245.311 52.505 244.037 54.0769 244.037C55.6488 244.037 56.9231 245.311 56.9231 246.884Z" fill="#C4C4C4"/>
<path d="M74 246.884C74 248.456 72.7257 249.731 71.1538 249.731C69.582 249.731 68.3077 248.456 68.3077 246.884C68.3077 245.311 69.582 244.037 71.1538 244.037C72.7257 244.037 74 245.311 74 246.884Z" fill="#C4C4C4"/>
<path d="M91.0769 246.884C91.0769 248.456 89.8027 249.731 88.2308 249.731C86.6589 249.731 85.3846 248.456 85.3846 246.884C85.3846 245.311 86.6589 244.037 88.2308 244.037C89.8027 244.037 91.0769 245.311 91.0769 246.884Z" fill="#C4C4C4"/>
<path d="M108.154 246.884C108.154 248.456 106.88 249.731 105.308 249.731C103.736 249.731 102.462 248.456 102.462 246.884C102.462 245.311 103.736 244.037 105.308 244.037C106.88 244.037 108.154 245.311 108.154 246.884Z" fill="#C4C4C4"/>
<path d="M125.231 246.884C125.231 248.456 123.957 249.731 122.385 249.731C120.813 249.731 119.538 248.456 119.538 246.884C119.538 245.311 120.813 244.037 122.385 244.037C123.957 244.037 125.231 245.311 125.231 246.884Z" fill="#C4C4C4"/>
<path d="M142.308 246.884C142.308 248.456 141.033 249.731 139.462 249.731C137.89 249.731 136.615 248.456 136.615 246.884C136.615 245.311 137.89 244.037 139.462 244.037C141.033 244.037 142.308 245.311 142.308 246.884Z" fill="#C4C4C4"/>
<path d="M159.385 246.884C159.385 248.456 158.11 249.731 156.538 249.731C154.967 249.731 153.692 248.456 153.692 246.884C153.692 245.311 154.967 244.037 156.538 244.037C158.11 244.037 159.385 245.311 159.385 246.884Z" fill="#C4C4C4"/>
<path d="M176.462 246.884C176.462 248.456 175.187 249.731 173.615 249.731C172.044 249.731 170.769 248.456 170.769 246.884C170.769 245.311 172.044 244.037 173.615 244.037C175.187 244.037 176.462 245.311 176.462 246.884Z" fill="#C4C4C4"/>
<path d="M193.538 246.884C193.538 248.456 192.264 249.731 190.692 249.731C189.12 249.731 187.846 248.456 187.846 246.884C187.846 245.311 189.12 244.037 190.692 244.037C192.264 244.037 193.538 245.311 193.538 246.884Z" fill="#C4C4C4"/>
<path d="M210.615 246.884C210.615 248.456 209.341 249.731 207.769 249.731C206.197 249.731 204.923 248.456 204.923 246.884C204.923 245.311 206.197 244.037 207.769 244.037C209.341 244.037 210.615 245.311 210.615 246.884Z" fill="#C4C4C4"/>
<path d="M227.692 246.884C227.692 248.456 226.418 249.731 224.846 249.731C223.274 249.731 222 248.456 222 246.884C222 245.311 223.274 244.037 224.846 244.037C226.418 244.037 227.692 245.311 227.692 246.884Z" fill="#C4C4C4"/>
<path d="M244.769 246.884C244.769 248.456 243.495 249.731 241.923 249.731C240.351 249.731 239.077 248.456 239.077 246.884C239.077 245.311 240.351 244.037 241.923 244.037C243.495 244.037 244.769 245.311 244.769 246.884Z" fill="#C4C4C4"/>
<path d="M261.846 246.884C261.846 248.456 260.572 249.731 259 249.731C257.428 249.731 256.154 248.456 256.154 246.884C256.154 245.311 257.428 244.037 259 244.037C260.572 244.037 261.846 245.311 261.846 246.884Z" fill="#C4C4C4"/>
<path d="M278.923 246.884C278.923 248.456 277.649 249.731 276.077 249.731C274.505 249.731 273.231 248.456 273.231 246.884C273.231 245.311 274.505 244.037 276.077 244.037C277.649 244.037 278.923 245.311 278.923 246.884Z" fill="#C4C4C4"/>
<path d="M296 246.884C296 248.456 294.726 249.731 293.154 249.731C291.582 249.731 290.308 248.456 290.308 246.884C290.308 245.311 291.582 244.037 293.154 244.037C294.726 244.037 296 245.311 296 246.884Z" fill="#C4C4C4"/>
<path d="M5.69231 263.153C5.69231 264.725 4.41804 266 2.84615 266C1.27427 266 0 264.725 0 263.153C0 261.581 1.27427 260.306 2.84615 260.306C4.41804 260.306 5.69231 261.581 5.69231 263.153Z" fill="#C4C4C4"/>
<path d="M22.7692 263.153C22.7692 264.725 21.495 266 19.9231 266C18.3512 266 17.0769 264.725 17.0769 263.153C17.0769 261.581 18.3512 260.306 19.9231 260.306C21.495 260.306 22.7692 261.581 22.7692 263.153Z" fill="#C4C4C4"/>
<path d="M39.8462 263.153C39.8462 264.725 38.5719 266 37 266C35.4281 266 34.1538 264.725 34.1538 263.153C34.1538 261.581 35.4281 260.306 37 260.306C38.5719 260.306 39.8462 261.581 39.8462 263.153Z" fill="#C4C4C4"/>
<path d="M56.9231 263.153C56.9231 264.725 55.6488 266 54.0769 266C52.505 266 51.2308 264.725 51.2308 263.153C51.2308 261.581 52.505 260.306 54.0769 260.306C55.6488 260.306 56.9231 261.581 56.9231 263.153Z" fill="#C4C4C4"/>
<path d="M74 263.153C74 264.725 72.7257 266 71.1538 266C69.582 266 68.3077 264.725 68.3077 263.153C68.3077 261.581 69.582 260.306 71.1538 260.306C72.7257 260.306 74 261.581 74 263.153Z" fill="#C4C4C4"/>
<path d="M91.0769 263.153C91.0769 264.725 89.8027 266 88.2308 266C86.6589 266 85.3846 264.725 85.3846 263.153C85.3846 261.581 86.6589 260.306 88.2308 260.306C89.8027 260.306 91.0769 261.581 91.0769 263.153Z" fill="#C4C4C4"/>
<path d="M108.154 263.153C108.154 264.725 106.88 266 105.308 266C103.736 266 102.462 264.725 102.462 263.153C102.462 261.581 103.736 260.306 105.308 260.306C106.88 260.306 108.154 261.581 108.154 263.153Z" fill="#C4C4C4"/>
<path d="M125.231 263.153C125.231 264.725 123.957 266 122.385 266C120.813 266 119.538 264.725 119.538 263.153C119.538 261.581 120.813 260.306 122.385 260.306C123.957 260.306 125.231 261.581 125.231 263.153Z" fill="#C4C4C4"/>
<path d="M142.308 263.153C142.308 264.725 141.033 266 139.462 266C137.89 266 136.615 264.725 136.615 263.153C136.615 261.581 137.89 260.306 139.462 260.306C141.033 260.306 142.308 261.581 142.308 263.153Z" fill="#C4C4C4"/>
<path d="M159.385 263.153C159.385 264.725 158.11 266 156.538 266C154.967 266 153.692 264.725 153.692 263.153C153.692 261.581 154.967 260.306 156.538 260.306C158.11 260.306 159.385 261.581 159.385 263.153Z" fill="#C4C4C4"/>
<path d="M176.462 263.153C176.462 264.725 175.187 266 173.615 266C172.044 266 170.769 264.725 170.769 263.153C170.769 261.581 172.044 260.306 173.615 260.306C175.187 260.306 176.462 261.581 176.462 263.153Z" fill="#C4C4C4"/>
<path d="M193.538 263.153C193.538 264.725 192.264 266 190.692 266C189.12 266 187.846 264.725 187.846 263.153C187.846 261.581 189.12 260.306 190.692 260.306C192.264 260.306 193.538 261.581 193.538 263.153Z" fill="#C4C4C4"/>
<path d="M210.615 263.153C210.615 264.725 209.341 266 207.769 266C206.197 266 204.923 264.725 204.923 263.153C204.923 261.581 206.197 260.306 207.769 260.306C209.341 260.306 210.615 261.581 210.615 263.153Z" fill="#C4C4C4"/>
<path d="M227.692 263.153C227.692 264.725 226.418 266 224.846 266C223.274 266 222 264.725 222 263.153C222 261.581 223.274 260.306 224.846 260.306C226.418 260.306 227.692 261.581 227.692 263.153Z" fill="#C4C4C4"/>
<path d="M244.769 263.153C244.769 264.725 243.495 266 241.923 266C240.351 266 239.077 264.725 239.077 263.153C239.077 261.581 240.351 260.306 241.923 260.306C243.495 260.306 244.769 261.581 244.769 263.153Z" fill="#C4C4C4"/>
<path d="M261.846 263.153C261.846 264.725 260.572 266 259 266C257.428 266 256.154 264.725 256.154 263.153C256.154 261.581 257.428 260.306 259 260.306C260.572 260.306 261.846 261.581 261.846 263.153Z" fill="#C4C4C4"/>
<path d="M278.923 263.153C278.923 264.725 277.649 266 276.077 266C274.505 266 273.231 264.725 273.231 263.153C273.231 261.581 274.505 260.306 276.077 260.306C277.649 260.306 278.923 261.581 278.923 263.153Z" fill="#C4C4C4"/>
<path d="M296 263.153C296 264.725 294.726 266 293.154 266C291.582 266 290.308 264.725 290.308 263.153C290.308 261.581 291.582 260.306 293.154 260.306C294.726 260.306 296 261.581 296 263.153Z" fill="#C4C4C4"/>
</g>
</svg>
