<svg width="24" height="24" viewBox="0 0 24 24" fill="none" xmlns="http://www.w3.org/2000/svg">
<path d="M21.9492 7.87829C21.9023 6.81516 21.7304 6.08427 21.4841 5.45094C21.23 4.77868 20.8392 4.1768 20.3271 3.67646C19.8267 3.16833 19.2209 2.77349 18.5564 2.5234C17.9194 2.27712 17.1923 2.1052 16.1292 2.05833C15.0581 2.00748 14.7181 1.99573 12.0016 1.99573C9.28505 1.99573 8.94502 2.00748 7.87792 2.05436C6.81479 2.10123 6.0839 2.2733 5.45073 2.51943C4.77831 2.77349 4.17643 3.16436 3.67609 3.67646C3.16797 4.1768 2.77328 4.78265 2.52303 5.44712C2.27676 6.08427 2.10483 6.81119 2.05796 7.87432C2.00712 8.94539 1.99536 9.28542 1.99536 12.0019C1.99536 14.7185 2.00712 15.0585 2.05399 16.1256C2.10087 17.1887 2.27294 17.9196 2.51922 18.553C2.77328 19.2252 3.16797 19.8271 3.67609 20.3274C4.17643 20.8356 4.78228 21.2304 5.44676 21.4805C6.0839 21.7268 6.81082 21.8987 7.87411 21.9456C8.94105 21.9926 9.28123 22.0042 11.9978 22.0042C14.7143 22.0042 15.0543 21.9926 16.1214 21.9456C17.1846 21.8987 17.9154 21.7268 18.5486 21.4805C19.8933 20.9606 20.9564 19.8975 21.4763 18.553C21.7224 17.9158 21.8945 17.1887 21.9414 16.1256C21.9883 15.0585 22 14.7185 22 12.0019C22 9.28542 21.996 8.94539 21.9492 7.87829ZM20.1474 16.0474C20.1043 17.0246 19.9402 17.5523 19.8034 17.9041C19.4672 18.7757 18.7754 19.4675 17.9037 19.8037C17.5519 19.9405 17.0204 20.1047 16.0471 20.1476C14.9917 20.1946 14.6752 20.2062 12.0056 20.2062C9.33589 20.2062 9.01541 20.1946 7.96388 20.1476C6.98671 20.1047 6.45904 19.9405 6.10726 19.8037C5.67349 19.6434 5.27865 19.3894 4.95817 19.0571C4.62593 18.7327 4.37187 18.3418 4.21155 17.908C4.07475 17.5562 3.91061 17.0246 3.86771 16.0514C3.82068 14.9961 3.80908 14.6794 3.80908 12.0097C3.80908 9.34008 3.82068 9.01959 3.86771 7.96822C3.91061 6.99105 4.07475 6.46338 4.21155 6.1116C4.37187 5.67767 4.62593 5.28299 4.96214 4.96235C5.28644 4.63012 5.67731 4.37605 6.11123 4.21589C6.46301 4.07908 6.99465 3.91495 7.96785 3.87189C9.0232 3.82502 9.33986 3.81326 12.0094 3.81326C14.683 3.81326 14.9995 3.82502 16.051 3.87189C17.0282 3.91495 17.5559 4.07908 17.9077 4.21589C18.3414 4.37605 18.7363 4.63012 19.0567 4.96235C19.389 5.28681 19.643 5.67767 19.8034 6.1116C19.9402 6.46338 20.1043 6.99487 20.1474 7.96822C20.1942 9.02356 20.206 9.34008 20.206 12.0097C20.206 14.6794 20.1942 14.9921 20.1474 16.0474Z" fill="white"/>
<path d="M12.0005 6.86194C9.1629 6.86194 6.8606 9.16409 6.8606 12.0019C6.8606 14.8396 9.1629 17.1418 12.0005 17.1418C14.8383 17.1418 17.1404 14.8396 17.1404 12.0019C17.1404 9.16409 14.8383 6.86194 12.0005 6.86194ZM12.0005 15.336C10.1596 15.336 8.66638 13.8429 8.66638 12.0019C8.66638 10.1608 10.1596 8.66772 12.0005 8.66772C13.8416 8.66772 15.3346 10.1608 15.3346 12.0019C15.3346 13.8429 13.8416 15.336 12.0005 15.336Z" fill="white"/>
<path d="M18.5436 6.65868C18.5436 7.32132 18.0063 7.85861 17.3435 7.85861C16.6808 7.85861 16.1436 7.32132 16.1436 6.65868C16.1436 5.99588 16.6808 5.45874 17.3435 5.45874C18.0063 5.45874 18.5436 5.99588 18.5436 6.65868Z" fill="white"/>
</svg>
