<svg width="40" height="40" viewBox="0 0 40 40" fill="none" xmlns="http://www.w3.org/2000/svg">
<path d="M40 20C40 8.95431 31.0457 0 20 0C8.95431 0 0 8.95431 0 20C0 31.0457 8.95431 40 20 40C31.0457 40 40 31.0457 40 20Z" fill="white"/>
<path d="M10 19.6C10 15.0733 10 12.8133 11.4 11.4C12.82 10 15.08 10 19.6 10H20.4C24.9267 10 27.1867 10 28.6 11.4C30 12.82 30 15.08 30 19.6V20.4C30 24.9267 30 27.1867 28.6 28.6C27.18 30 24.92 30 20.4 30H19.6C15.0733 30 12.8133 30 11.4 28.6C10 27.18 10 24.92 10 20.4V19.6Z" fill="#0077FF"/>
<path d="M20.6397 24.4067C16.0797 24.4067 13.4797 21.2867 13.373 16.0867H15.6664C15.7397 19.9001 17.4197 21.5134 18.753 21.8467V16.0867H20.9064V19.3734C22.2197 19.2334 23.6064 17.7334 24.073 16.0801H26.2197C26.0447 16.9359 25.695 17.7465 25.1926 18.4611C24.6902 19.1757 24.0458 19.7791 23.2997 20.2334C24.1323 20.6478 24.8676 21.234 25.4572 21.9534C26.0467 22.6728 26.477 23.5089 26.7197 24.4067H24.353C23.8464 22.8267 22.5797 21.6001 20.9064 21.4334V24.4067H20.6464H20.6397Z" fill="white"/>
</svg>
