<svg width="36" height="36" viewBox="0 0 36 36" fill="none" xmlns="http://www.w3.org/2000/svg">
<path fill-rule="evenodd" clip-rule="evenodd" d="M1.59986 16.3999H8.40009C9.28374 16.3999 9.99995 17.1161 9.99995 17.9998C9.99995 18.8834 9.28374 19.5996 8.40009 19.5996H1.59986C0.716216 19.5996 0 18.8834 0 17.9998C0 17.1161 0.716216 16.3999 1.59986 16.3999ZM27.5999 16.3999H34.4002C35.2838 16.3999 36 17.1161 36 17.9998C36 18.8834 35.2838 19.5996 34.4002 19.5996H27.5999C26.7163 19.5996 26.0001 18.8834 26.0001 17.9998C26.0001 17.1161 26.7163 16.3999 27.5999 16.3999ZM19.5999 1.59986V8.40009C19.5999 9.28373 18.8837 9.99995 18 9.99995C17.1164 9.99995 16.4002 9.28373 16.4002 8.40009V1.59986C16.4002 0.716216 17.1164 0 18 0C18.8837 0 19.5999 0.716216 19.5999 1.59986ZM19.5999 27.5999V34.4001C19.5999 35.2838 18.8837 36 18 36C17.1164 36 16.4002 35.2838 16.4002 34.4001V27.5999C16.4002 26.7163 17.1164 26.0001 18 26.0001C18.8837 26.0001 19.5999 26.7163 19.5999 27.5999ZM5.27201 28.4651L10.0803 23.6568C10.7053 23.0321 11.7182 23.0321 12.3432 23.6568C12.9679 24.2818 12.9679 25.2947 12.3432 25.9197L7.53487 30.728C6.90987 31.3527 5.89701 31.3527 5.27201 30.728C4.64729 30.103 4.64729 29.0901 5.27201 28.4651ZM23.6571 10.0801L28.4653 5.2718C29.0903 4.64707 30.1032 4.64707 30.7282 5.2718C31.3529 5.8968 31.3529 6.90966 30.7282 7.53466L25.9199 12.343C25.2949 12.9677 24.2821 12.9677 23.6571 12.343C23.0323 11.718 23.0323 10.7051 23.6571 10.0801ZM7.53487 5.2718L12.3432 10.0801C12.9679 10.7051 12.9679 11.718 12.3432 12.343C11.7182 12.9677 10.7053 12.9677 10.0803 12.343L5.27201 7.53466C4.64729 6.90966 4.64729 5.8968 5.27201 5.2718C5.89701 4.64707 6.90987 4.64707 7.53487 5.2718ZM25.9199 23.6568L30.7282 28.4651C31.3529 29.0901 31.3529 30.103 30.7282 30.728C30.1032 31.3527 29.0903 31.3527 28.4653 30.728L23.6571 25.9197C23.0323 25.2947 23.0323 24.2818 23.6571 23.6568C24.2821 23.0321 25.2949 23.0321 25.9199 23.6568Z" fill="#34B53A"/>
</svg>
