<svg xmlns="http://www.w3.org/2000/svg" xmlns:xlink="http://www.w3.org/1999/xlink" width="60" height="60" viewBox="0 0 60 60"><defs><path id="gmmia" d="M723.115 483.353l-9.409-16.025 28.73-28.54zm16.732-46.8l-28.565 28.376-15.773-8.941zm8.878-6.428a1.708 1.708 0 0 0-1.882-.353l-55.817 24.46a1.727 1.727 0 0 0-1.023 1.478c-.038.644.303 1.25.859 1.566l19.46 11.037 11.555 19.662c.303.518.871.846 1.465.846h.1c.645-.037 1.2-.429 1.466-1.022l24.183-55.792a1.685 1.685 0 0 0-.366-1.882z"/></defs><g><g transform="translate(-690 -429)"><use fill="#6e6e6e" xlink:href="#gmmia"/></g></g></svg>