<svg width="54" height="47" viewBox="0 0 54 47" fill="none" xmlns="http://www.w3.org/2000/svg">
<path d="M0.946495 22.3714L13.2939 26.9798L18.0731 42.3496C18.3789 43.334 19.5826 43.6979 20.3816 43.0447L27.2642 37.4338C27.9857 36.846 29.0133 36.8167 29.7673 37.364L42.1811 46.3767C43.0358 46.9979 44.2467 46.5296 44.461 45.4968L53.5548 1.75397C53.7888 0.625794 52.6803 -0.315363 51.6061 0.100111L0.932027 19.6486C-0.318503 20.1309 -0.307607 21.9014 0.946495 22.3714ZM17.3029 24.5266L41.4343 9.66404C41.868 9.39772 42.3142 9.98414 41.9417 10.3296L22.0263 28.8419C21.3263 29.4935 20.8748 30.3656 20.7469 31.3121L20.0685 36.3396C19.9786 37.0108 19.0357 37.0775 18.8504 36.4278L16.2413 27.2601C15.9425 26.2144 16.378 25.0975 17.3029 24.5266Z" fill="#2F80ED"/>
</svg>
