<svg width="48" height="48" viewBox="0 0 48 48" fill="none" xmlns="http://www.w3.org/2000/svg">
<path fill-rule="evenodd" clip-rule="evenodd" d="M24 44.8C35.4875 44.8 44.8 35.4875 44.8 24C44.8 12.5125 35.4875 3.2 24 3.2C12.5125 3.2 3.2 12.5125 3.2 24C3.2 35.4875 12.5125 44.8 24 44.8ZM24 48C37.2548 48 48 37.2548 48 24C48 10.7452 37.2548 0 24 0C10.7452 0 0 10.7452 0 24C0 37.2548 10.7452 48 24 48Z" fill="#F3F3F3"/>
<path d="M28.4825 13.5182C28.6638 13.2955 28.8921 13.1156 29.1511 12.9914C29.41 12.8672 29.6932 12.8018 29.9804 12.7998C30.2189 12.8009 30.4548 12.8492 30.6746 12.9419C30.8943 13.0346 31.0935 13.1698 31.2607 13.3399C31.4279 13.5099 31.5598 13.7114 31.6488 13.9327C31.7378 14.1539 31.7821 14.3906 31.7791 14.6291V33.2423C31.7987 33.4919 31.7665 33.7429 31.6844 33.9794C31.6023 34.216 31.4722 34.433 31.3023 34.6168C31.1323 34.8007 30.9261 34.9474 30.6967 35.0477C30.4673 35.148 30.2197 35.1998 29.9693 35.1998C29.7189 35.1998 29.4713 35.148 29.2419 35.0477C29.0125 34.9474 28.8063 34.8007 28.6363 34.6168C28.4664 34.433 28.3363 34.216 28.2542 33.9794C28.1721 33.7429 28.1399 33.4919 28.1595 33.2423V19.2567L15.4407 34.4591C15.2745 34.6505 15.0698 34.8047 14.84 34.9116C14.6102 35.0186 14.3604 35.076 14.107 35.08C13.6557 35.0756 13.2241 34.8944 12.9049 34.5753C12.5858 34.2561 12.4045 33.8245 12.4002 33.3732C12.3972 32.9656 12.5405 32.5705 12.8039 32.2595L28.4825 13.5182Z" fill="#F3F3F3"/>
</svg>
