<svg width="20" height="22" viewBox="0 0 20 22" fill="none" xmlns="http://www.w3.org/2000/svg">
<path d="M6.6199 0.440186C3.46703 0.440186 0.899902 2.81011 0.899902 5.72013C0.899902 7.20932 1.56146 8.88087 2.67928 9.92758C2.40516 10.951 2.1999 11.8354 2.1999 13.16C2.1999 15.4069 2.65036 17.3592 3.4024 18.83C4.15445 20.3008 5.22664 21.3343 6.53053 21.5525C6.79513 21.5967 7.09466 21.4429 7.22115 21.29C7.34764 21.1371 7.40172 20.9879 7.44865 20.825C7.54251 20.499 7.58956 20.0965 7.6274 19.6175C7.7031 18.6595 7.72894 17.4057 7.83865 16.1525C7.94836 14.8993 8.14488 13.6519 8.51303 12.7776C8.6971 12.3404 8.92043 11.9981 9.16303 11.7876C9.40563 11.577 9.65018 11.4801 9.9999 11.4801C10.3496 11.4801 10.5942 11.577 10.8368 11.7876C11.0794 11.9981 11.3027 12.3404 11.4868 12.7776C11.8549 13.6519 12.0514 14.8993 12.1612 16.1525C12.2709 17.4057 12.2967 18.6595 12.3724 19.6175C12.4103 20.0965 12.4573 20.499 12.5512 20.825C12.5981 20.9879 12.6522 21.1371 12.7787 21.29C12.9051 21.4429 13.2047 21.5967 13.4693 21.5525C14.7732 21.3343 15.8454 20.3008 16.5974 18.83C17.3495 17.3592 17.7999 15.4069 17.7999 13.16C17.7999 11.8354 17.5946 10.951 17.3205 9.92758C18.4383 8.88087 19.0999 7.20932 19.0999 5.72013C19.0999 2.81011 16.5328 0.440186 13.3799 0.440186C12.1003 0.440186 10.9421 0.877328 9.9999 1.52767C9.05773 0.877328 7.89955 0.440186 6.6199 0.440186ZM6.6199 1.40017C7.77171 1.40017 8.83115 1.83302 9.65865 2.48766C9.75329 2.56362 9.87449 2.60546 9.9999 2.60546C10.1253 2.60546 10.2465 2.56362 10.3412 2.48766C11.1687 1.83302 12.2281 1.40017 13.3799 1.40017C15.9708 1.40017 18.0599 3.32899 18.0599 5.72013C18.0599 7.01467 17.3391 8.69891 16.4187 9.44008C16.3476 9.49774 16.2949 9.57221 16.2662 9.65547C16.2376 9.73873 16.2341 9.82763 16.2562 9.91258C16.5643 11.0433 16.7599 11.8161 16.7599 13.16C16.7599 15.2867 16.323 17.1109 15.6549 18.4175C15.057 19.5869 14.2904 20.282 13.5505 20.5175C13.4974 20.3118 13.4464 19.98 13.4124 19.55C13.3402 18.6366 13.3142 17.3609 13.2012 16.07C13.0881 14.7791 12.894 13.4709 12.4537 12.4251C12.2335 11.9021 11.9475 11.4406 11.5437 11.0901C11.1398 10.7395 10.6028 10.5201 9.9999 10.5201C9.39703 10.5201 8.86004 10.7395 8.45615 11.0901C8.05226 11.4406 7.76633 11.9021 7.54615 12.4251C7.1058 13.4709 6.91167 14.7791 6.79865 16.07C6.68564 17.3609 6.65957 18.6366 6.5874 19.55C6.55342 19.98 6.50244 20.3118 6.44928 20.5175C5.70943 20.282 4.94284 19.5869 4.3449 18.4175C3.6768 17.1109 3.2399 15.2867 3.2399 13.16C3.2399 11.8161 3.43548 11.0433 3.74365 9.91258C3.7657 9.82763 3.76223 9.73873 3.73359 9.65547C3.70495 9.57221 3.65225 9.49774 3.58115 9.44008C2.66069 8.69891 1.9399 7.01467 1.9399 5.72013C1.9399 3.32899 4.02901 1.40017 6.6199 1.40017Z" fill="#20B8E8" stroke="#20B8E8" stroke-width="0.8"/>
</svg>
