<svg xmlns="http://www.w3.org/2000/svg" width="19" height="15" viewBox="0 0 19 15"><g><g><path fill="#51bff7" d="M18.476.276a7.976 7.976 0 0 1-2.477.92 3.938 3.938 0 0 0-2.844-1.197c-2.153 0-3.899 1.697-3.899 3.787 0 .297.035.586.101.863A11.177 11.177 0 0 1 1.324.691a3.683 3.683 0 0 0-.528 1.904c0 1.315.69 2.474 1.734 3.152a3.987 3.987 0 0 1-1.765-.475v.047c0 1.836 1.344 3.366 3.126 3.715a4.052 4.052 0 0 1-1.761.064c.496 1.504 1.935 2.6 3.64 2.631a7.968 7.968 0 0 1-4.84 1.62c-.315 0-.625-.018-.93-.051a11.276 11.276 0 0 0 5.975 1.7c7.17 0 11.09-5.77 11.09-10.776l-.013-.49A7.722 7.722 0 0 0 19 1.773c-.7.301-1.45.506-2.238.596A3.83 3.83 0 0 0 18.476.276z"/></g></g></svg>