<svg width="232" height="148" viewBox="0 0 232 148" fill="none" xmlns="http://www.w3.org/2000/svg">
<g clip-path="url(#clip0_927_8514)">
<path d="M189.012 5.12206L1.02148 32.172L13.9078 121.026L201.899 93.9762L189.012 5.12206Z" fill="#F1F1F1"/>
<path d="M184.742 13.515L7.50195 39.0179L18.2534 113.152L195.493 87.6488L184.742 13.515Z" fill="white"/>
<path d="M188.188 -1.92854e-05L0.196777 27.0499L1.35048 35.0049L189.341 7.955L188.188 -1.92854e-05Z" fill="#E5E5E5"/>
<path d="M6.81007 32.3634C7.63608 32.3634 8.30569 31.6964 8.30569 30.8736C8.30569 30.0509 7.63608 29.3839 6.81007 29.3839C5.98407 29.3839 5.31445 30.0509 5.31445 30.8736C5.31445 31.6964 5.98407 32.3634 6.81007 32.3634Z" fill="white"/>
<path d="M12.4287 31.555C13.2547 31.555 13.9243 30.8881 13.9243 30.0653C13.9243 29.2425 13.2547 28.5756 12.4287 28.5756C11.6027 28.5756 10.9331 29.2425 10.9331 30.0653C10.9331 30.8881 11.6027 31.555 12.4287 31.555Z" fill="white"/>
<path d="M18.0474 30.7464C18.8734 30.7464 19.543 30.0795 19.543 29.2567C19.543 28.4339 18.8734 27.767 18.0474 27.767C17.2214 27.767 16.5518 28.4339 16.5518 29.2567C16.5518 30.0795 17.2214 30.7464 18.0474 30.7464Z" fill="white"/>
<path d="M232.197 43.3541H42.2544V133.131H232.197V43.3541Z" fill="#E6E6E6"/>
<path d="M226.766 51.0526H47.686V125.956H226.766V51.0526Z" fill="white"/>
<path d="M232.116 38.1672H42.1733V46.2048H232.116V38.1672Z" fill="#CBCBCB"/>
<path d="M48.1699 44.3832C48.9959 44.3832 49.6656 43.7162 49.6656 42.8934C49.6656 42.0707 48.9959 41.4037 48.1699 41.4037C47.3439 41.4037 46.6743 42.0707 46.6743 42.8934C46.6743 43.7162 47.3439 44.3832 48.1699 44.3832Z" fill="white"/>
<path d="M53.8467 44.3832C54.6727 44.3832 55.3423 43.7162 55.3423 42.8934C55.3423 42.0707 54.6727 41.4037 53.8467 41.4037C53.0207 41.4037 52.3511 42.0707 52.3511 42.8934C52.3511 43.7162 53.0207 44.3832 53.8467 44.3832Z" fill="white"/>
<path d="M59.5239 44.3832C60.3499 44.3832 61.0196 43.7162 61.0196 42.8934C61.0196 42.0707 60.3499 41.4037 59.5239 41.4037C58.6979 41.4037 58.0283 42.0707 58.0283 42.8934C58.0283 43.7162 58.6979 44.3832 59.5239 44.3832Z" fill="white"/>
<path d="M176.098 62.4407H150.877V64.3289H176.098V62.4407Z" fill="#E6E6E6"/>
<path d="M189.824 67.9839H150.877V69.8721H189.824V67.9839Z" fill="#E6E6E6"/>
<path d="M183.023 73.2631H151.282V75.1513H183.023V73.2631Z" fill="#E6E6E6"/>
<path d="M169.407 79.0554H150.877V80.9436H169.407V79.0554Z" fill="#E6E6E6"/>
<path d="M178.843 84.7135H150.877V86.6017H178.843V84.7135Z" fill="#E6E6E6"/>
<path d="M142.47 61.8467H139.381V64.9228H142.47V61.8467Z" fill="#E6E6E6"/>
<path d="M142.47 67.3899H139.381V70.466H142.47V67.3899Z" fill="#E6E6E6"/>
<path d="M142.47 72.6691H139.381V75.7452H142.47V72.6691Z" fill="#E6E6E6"/>
<path d="M142.47 78.4615H139.381V81.5377H142.47V78.4615Z" fill="#E6E6E6"/>
<path d="M142.47 84.1195H139.381V87.1957H142.47V84.1195Z" fill="#E6E6E6"/>
<path d="M176.098 90.4069H150.877V92.2951H176.098V90.4069Z" fill="#E6E6E6"/>
<path d="M189.824 95.9501H150.877V97.8383H189.824V95.9501Z" fill="#E6E6E6"/>
<path d="M183.023 101.229H151.282V103.117H183.023V101.229Z" fill="#E6E6E6"/>
<path d="M169.407 107.022H150.877V108.91H169.407V107.022Z" fill="#E6E6E6"/>
<path d="M178.843 112.68H150.877V114.568H178.843V112.68Z" fill="#E6E6E6"/>
<path d="M142.47 89.8129H139.381V92.889H142.47V89.8129Z" fill="#E6E6E6"/>
<path d="M142.47 95.3561H139.381V98.4322H142.47V95.3561Z" fill="#E6E6E6"/>
<path d="M142.47 100.635H139.381V103.711H142.47V100.635Z" fill="#E6E6E6"/>
<path d="M142.47 106.428H139.381V109.504H142.47V106.428Z" fill="#E6E6E6"/>
<path d="M142.47 112.086H139.381V115.162H142.47V112.086Z" fill="#E6E6E6"/>
<path d="M96.3115 105.218H71.0903V107.106H96.3115V105.218Z" fill="#E6E6E6"/>
<path d="M99.4567 110.125H67.7158V112.013H99.4567V110.125Z" fill="#E6E6E6"/>
<path d="M100.093 81.3991C100.092 84.237 99.3522 87.0261 97.9456 89.4941C96.539 91.9621 94.5139 94.0245 92.068 95.48C89.6221 96.9354 86.839 97.7342 83.9906 97.7981C81.1422 97.8621 78.3258 97.1892 75.8165 95.8451L75.8133 95.8419C73.2502 94.4665 71.0989 92.4389 69.5787 89.9656C68.0584 87.4924 67.2236 84.6619 67.1593 81.7626C67.0949 78.8634 67.8034 75.9989 69.2124 73.4612C70.6214 70.9234 72.6806 68.8031 75.1802 67.3162C77.6798 65.8293 80.5305 65.029 83.4417 64.9969C86.353 64.9647 89.2208 65.7019 91.7528 67.1332C94.2849 68.5646 96.3908 70.6389 97.8559 73.145C99.321 75.651 100.093 78.4991 100.093 81.3991V81.3991Z" fill="#E6E6E6"/>
<path d="M83.7091 80.6027C86.1816 80.6027 88.1859 78.6063 88.1859 76.1436C88.1859 73.6809 86.1816 71.6844 83.7091 71.6844C81.2367 71.6844 79.2324 73.6809 79.2324 76.1436C79.2324 78.6063 81.2367 80.6027 83.7091 80.6027Z" fill="white"/>
<path d="M91.3534 89.8164C86.3487 91.5662 80.8916 91.5451 75.9007 89.7568L75.8975 89.7546L79.2326 83.197H88.1861L91.3534 89.8164Z" fill="white"/>
<path d="M34.1438 122.115C26.3409 122.115 19.9927 115.398 19.9927 107.142C19.9927 98.8856 26.3409 92.1687 34.1438 92.1687C41.9467 92.1687 48.2949 98.8856 48.2949 107.142C48.2949 115.398 41.9467 122.115 34.1438 122.115ZM34.1438 95.9521C28.4352 95.9521 23.791 100.972 23.791 107.142C23.791 113.312 28.4352 118.332 34.1438 118.332C39.8523 118.332 44.4966 113.312 44.4966 107.142C44.4966 100.972 39.8523 95.9521 34.1438 95.9521Z" fill="#34B53A"/>
<path d="M47.5446 148.21H20.7435C18.3801 148.207 16.1142 147.271 14.443 145.606C12.7718 143.941 11.8318 141.684 11.8291 139.33V113.145C11.8309 111.533 12.4745 109.988 13.6186 108.848C14.7628 107.708 16.314 107.067 17.9321 107.066H50.356C51.9741 107.067 53.5253 107.708 54.6695 108.848C55.8136 109.988 56.4572 111.533 56.459 113.145V139.33C56.4564 141.684 55.5163 143.941 53.8451 145.606C52.1739 147.271 49.908 148.207 47.5446 148.21Z" fill="#4B4B4B"/>
<path d="M39.3667 121.963C39.3674 121.038 39.1206 120.13 38.6518 119.331C38.1829 118.533 37.5089 117.874 36.6993 117.422C35.8896 116.969 34.9734 116.74 34.0452 116.757C33.117 116.775 32.2102 117.039 31.4183 117.521C30.6264 118.004 29.9779 118.688 29.5397 119.503C29.1015 120.318 28.8894 121.235 28.9253 122.159C28.9611 123.083 29.2436 123.981 29.7436 124.76C30.2437 125.54 30.9432 126.172 31.7701 126.592V134.731H36.518V126.592C37.3751 126.157 38.0948 125.494 38.5975 124.677C39.1003 123.86 39.3664 122.921 39.3667 121.963Z" fill="white"/>
</g>
<defs>
<clipPath id="clip0_927_8514">
<rect width="232" height="148" fill="white"/>
</clipPath>
</defs>
</svg>
