<svg width="18" height="18" viewBox="0 0 18 18" fill="none" xmlns="http://www.w3.org/2000/svg">
<path d="M17.3334 13.1004V15.6004C17.3344 15.8325 17.2868 16.0622 17.1939 16.2749C17.1009 16.4875 16.9645 16.6784 16.7935 16.8353C16.6225 16.9922 16.4206 17.1116 16.2007 17.186C15.9809 17.2603 15.7479 17.288 15.5168 17.2671C12.9525 16.9884 10.4893 16.1122 8.32511 14.7087C6.31163 13.4293 4.60455 11.7222 3.32511 9.70874C1.91676 7.53474 1.04031 5.05957 0.766774 2.48374C0.745949 2.2533 0.773336 2.02104 0.847191 1.80176C0.921045 1.58248 1.03975 1.38098 1.19575 1.21009C1.35174 1.0392 1.54161 0.902664 1.75327 0.809175C1.96492 0.715685 2.19372 0.667291 2.42511 0.667073H4.92511C5.32953 0.663093 5.7216 0.806305 6.02824 1.07002C6.33488 1.33373 6.53517 1.69995 6.59177 2.10041C6.69729 2.90046 6.89298 3.68601 7.17511 4.44207C7.28723 4.74034 7.31149 5.0645 7.24503 5.37614C7.17857 5.68778 7.02416 5.97383 6.80011 6.20041L5.74177 7.25874C6.92807 9.34503 8.65549 11.0724 10.7418 12.2587L11.8001 11.2004C12.0267 10.9764 12.3127 10.8219 12.6244 10.7555C12.936 10.689 13.2602 10.7133 13.5584 10.8254C14.3145 11.1075 15.1001 11.3032 15.9001 11.4087C16.3049 11.4658 16.6746 11.6697 16.9389 11.9817C17.2032 12.2936 17.3436 12.6917 17.3334 13.1004Z" stroke="#272727" stroke-linecap="round" stroke-linejoin="round"/>
</svg>
