<svg width="16" height="16" viewBox="0 0 16 16" fill="none" xmlns="http://www.w3.org/2000/svg">
<g clip-path="url(#clip0_969_124)">
<path d="M15.8534 0.146624C15.6579 -0.0488746 15.3419 -0.0488746 15.1464 0.146624L0.152483 15.1405C-0.0430152 15.336 -0.0430152 15.652 0.152483 15.8475C0.249982 15.945 0.377981 15.994 0.50598 15.994C0.633979 15.994 0.761478 15.9455 0.859478 15.8475L15.8534 0.853618C16.0489 0.65812 16.0489 0.342122 15.8534 0.146624Z" fill="#272727"/>
<path d="M3.50447 0.00585938C1.57249 0.00585938 0 1.57735 0 3.50883C0 5.44082 1.57249 7.0128 3.50447 7.0128C5.43596 7.0128 7.00794 5.44132 7.00794 3.50883C7.00794 1.57735 5.43596 0.00585938 3.50447 0.00585938ZM3.50447 6.01331C2.12348 6.01331 0.999992 4.89032 0.999992 3.50933C0.999992 2.12934 2.12348 1.00635 3.50447 1.00635C4.88496 1.00635 6.00795 2.12934 6.00795 3.50933C6.00795 4.89032 4.88496 6.01331 3.50447 6.01331Z" fill="#272727"/>
<path d="M12.4903 8.99219C10.5588 8.99219 8.98682 10.5642 8.98682 12.4957C8.98682 14.4276 10.5588 16.0001 12.4903 16.0001C14.4223 16.0001 15.9938 14.4276 15.9938 12.4957C15.9938 10.5642 14.4218 8.99219 12.4903 8.99219ZM12.4903 15.0001C11.1098 15.0001 9.98681 13.8766 9.98681 12.4957C9.98681 11.1152 11.1098 9.99218 12.4903 9.99218C13.8708 9.99218 14.9938 11.1152 14.9938 12.4957C14.9938 13.8766 13.8708 15.0001 12.4903 15.0001Z" fill="#272727"/>
</g>
<defs>
<clipPath id="clip0_969_124">
<rect width="16" height="16" fill="white"/>
</clipPath>
</defs>
</svg>
