<svg width="45" height="39" viewBox="0 0 45 39" fill="none" xmlns="http://www.w3.org/2000/svg">
<path d="M44.1 0.784C44.1 0.57607 44.0157 0.376657 43.8656 0.229628C43.7156 0.0825997 43.5121 0 43.3 0H28.76C28.5478 0 28.3443 0.0825997 28.1943 0.229628C28.0442 0.376657 27.96 0.57607 27.96 0.784V14.504C27.9597 14.6571 28.0053 14.8069 28.0909 14.935C28.1766 15.063 28.2986 15.1637 28.4419 15.2245C28.5853 15.2854 28.7437 15.3038 28.8976 15.2775C29.0515 15.2511 29.1941 15.1812 29.308 15.0763L32.424 12.2108H43.3C43.5121 12.2108 43.7156 12.1282 43.8656 11.9812C44.0157 11.8341 44.1 11.6347 44.1 11.4268V0.784ZM42.5 10.6389H32.1C31.9014 10.6363 31.7089 10.7061 31.56 10.8349L29.56 12.6734V1.568H42.5V10.6389Z" fill="#20B8E8"/>
<path d="M35.66 3.64172H31.392V5.20972H35.66V3.64172Z" fill="#20B8E8"/>
<path d="M39.66 6.77771H31.392V8.34571H39.66V6.77771Z" fill="#20B8E8"/>
<path d="M8.77738 12.6289C8.77738 12.6404 8.77738 12.6578 8.77738 12.6693C9.01762 16.5543 11.7539 19.5953 15 19.5953C18.3809 19.5953 21.2403 16.1786 21.2403 12.1317C21.2403 9.42606 19.9805 6.917 17.9532 5.58153C17.6485 5.37919 17.2383 5.40231 16.9571 5.63934C15.3516 6.99216 12.2227 9.45497 9.26371 10.7904C8.98832 10.9118 8.80668 11.172 8.78324 11.4726C8.77152 11.6923 8.76567 12.3861 8.77738 12.6289ZM10.4239 12.0565C13.1192 10.75 15.8496 8.68606 17.5196 7.31012C18.7911 8.40856 19.5821 10.2297 19.5821 12.1375C19.5821 15.2998 17.4844 17.9707 14.9942 17.9707C12.6563 17.9707 10.6055 15.5484 10.4239 12.6115C10.4239 12.5942 10.4239 12.5711 10.4239 12.5537C10.4239 12.4786 10.4239 12.2647 10.4239 12.0565Z" fill="#20B8E8"/>
<path d="M24.0586 19.393C24.6914 17.7742 25.0254 15.9994 25.0254 14.1956C25.0312 7.47781 20.5312 2.01453 15 2.01453C9.46875 2.01453 4.96875 7.47781 4.96875 14.1898C4.96875 15.9936 5.30273 17.7684 5.94141 19.3872C3.57422 19.5375 1.68164 22.0755 1.68164 25.1858V30.5681C1.68164 31.0191 2.05078 31.3833 2.50781 31.3833H27.4863C27.9434 31.3833 28.3125 31.0191 28.3125 30.5681V25.1858C28.3184 22.0812 26.4258 19.5433 24.0586 19.393ZM15 3.64484C19.6172 3.64484 23.373 8.3739 23.373 14.1898C23.373 16.0109 22.9922 17.7916 22.2773 19.3756H18.4102C18.1172 19.3756 17.8477 19.5259 17.7012 19.7745L15 24.2145L12.2988 19.7687C12.1523 19.5202 11.8828 19.3698 11.5898 19.3698H7.72266C7.00195 17.7858 6.62109 16.0052 6.62109 14.1841C6.62695 8.3739 10.3828 3.64484 15 3.64484ZM26.6602 29.753H3.33984V25.1858C3.33984 22.9195 4.63477 21.0059 6.16406 21.0059H7.91016C7.35937 21.7228 7.16602 22.4397 7.10156 22.9716C5.71875 23.3473 4.72852 24.6423 4.83398 26.1281L4.95703 27.903C4.99219 28.4291 5.53125 28.8048 6.06445 28.6141C6.42187 28.4869 6.62695 28.1169 6.60352 27.7411L6.48047 26.0183C6.42187 25.1973 7.08398 24.4978 7.92187 24.4978C8.75976 24.4978 9.42187 25.1973 9.36328 26.0183L9.24023 27.7931C9.21094 28.2441 9.55078 28.6314 10.0078 28.6661C10.4531 28.7123 10.8574 28.3366 10.8926 27.9087L11.0156 26.1339C11.1211 24.6597 10.1426 23.3705 8.77148 22.9831C8.87695 22.4628 9.25195 21.6708 10.418 21.0117H11.127L14.2969 26.2264C14.6191 26.7525 15.3926 26.7525 15.7148 26.2264L18.8848 21.0117H19.9043C20.5605 21.6245 20.9414 22.9311 21.123 23.8387C20.2266 24.203 19.5937 25.0759 19.5937 26.0877C19.5937 27.4289 20.7012 28.5216 22.0605 28.5216C23.4199 28.5216 24.5273 27.4289 24.5273 26.0877C24.5273 24.995 23.7949 24.07 22.793 23.7636C22.6758 23.0814 22.418 21.983 21.9023 21.0117H23.8477C25.3769 21.0117 26.6719 22.9253 26.6719 25.1916V29.753H26.6602ZM22.8633 26.0819C22.8633 26.5212 22.5 26.8855 22.0488 26.8855C21.6035 26.8855 21.2344 26.527 21.2344 26.0819C21.2344 25.6425 21.5977 25.2783 22.0488 25.2783C22.5 25.2783 22.8633 25.6425 22.8633 26.0819Z" fill="#20B8E8"/>
</svg>
