<svg xmlns="http://www.w3.org/2000/svg" xmlns:xlink="http://www.w3.org/1999/xlink" width="32" height="32" viewBox="0 0 32 32"><defs><path id="ubh9a" d="M1259 86c0-8.284 6.716-15 15-15 8.284 0 15 6.716 15 15 0 8.284-6.716 15-15 15-8.284 0-15-6.716-15-15z"/><path id="ubh9c" d="M1263.773 97.25c0-5.837 4.731-10.568 10.568-10.568s10.568 4.731 10.568 10.568-4.731 10.568-10.568 10.568-10.568-4.731-10.568-10.568z"/><path id="ubh9d" d="M1269.91 81.91a4.09 4.09 0 1 1 8.18 0 4.09 4.09 0 0 1-8.18 0z"/><clipPath id="ubh9b"><use xlink:href="#ubh9a"/></clipPath></defs><g><g transform="translate(-1258 -70)"><g><use fill="#fff" fill-opacity="0" stroke="#000" stroke-miterlimit="50" stroke-width="2.22" xlink:href="#ubh9a"/></g><g><g/><g><g/><g clip-path="url(#ubh9b)"><use fill="#fff" fill-opacity="0" stroke="#000" stroke-miterlimit="50" stroke-width="2.22" xlink:href="#ubh9c"/></g></g></g><g><use fill="#fff" fill-opacity="0" stroke="#000" stroke-miterlimit="50" stroke-width="2.22" xlink:href="#ubh9d"/></g></g></g></svg>