<svg xmlns="http://www.w3.org/2000/svg" width="20" height="18" viewBox="0 0 20 18"><g><g><path fill="#187e7c" d="M19.348 18H.653c-.442 0-.757-.418-.621-.829l1.955-5.89a.64.64 0 0 1 .306-.361L6.435 8.7a4.12 4.12 0 0 1-.785-2.42V4.228C5.65 1.897 7.6 0 10 0c2.399 0 4.35 1.896 4.35 4.227v2.054c0 .898-.29 1.733-.785 2.42l4.142 2.219a.64.64 0 0 1 .306.36l1.955 5.891c.136.41-.178.829-.62.829zM6.954 6.28c0 1.633 1.367 2.96 3.046 2.96 1.675 0 3.046-1.323 3.046-2.96V4.228c0-1.632-1.366-2.96-3.046-2.96-1.68 0-3.046 1.328-3.046 2.96zm11.498 10.452l-1.601-4.824-4.22-2.26c-.78.577-1.71.86-2.63.86-.934 0-1.862-.29-2.633-.86l-4.219 2.26-1.6 4.824z"/></g></g></svg>