<svg xmlns="http://www.w3.org/2000/svg" width="57" height="37" viewBox="0 0 57 37"><g><g><path fill="#51bff7" d="M57.01 1.477V35.52c0 .81-.656 1.468-1.467 1.468H1.462A1.467 1.467 0 0 1-.006 35.52V1.477C-.006.667.65.008 1.462.008h54.08c.812 0 1.469.658 1.469 1.47zM4.359 11.473c4.736 1.148 7.869 3.92 9.17 7.251l-1.324-6.369c-.228-.878-.89-1.14-1.71-1.17H4.408zm11.568 14.236l6.181-14.387h-4.16l-3.843 9.829-.41-1.484c-.758-1.788-2.91-4.355-5.437-5.974l3.515 12.02zm11.694-14.4h-3.927l-2.454 14.414h3.925zm11.21 9.705c.015-1.639-1.032-2.887-3.297-3.916-1.372-.667-2.212-1.111-2.204-1.786 0-.6.712-1.24 2.249-1.24a7.225 7.225 0 0 1 2.937.552l.354.166.532-3.124c-.778-.292-1.997-.605-3.517-.605-3.88 0-6.613 1.955-6.634 4.756-.024 2.072 1.949 3.227 3.438 3.917 1.528.705 2.04 1.156 2.034 1.788-.01.965-1.22 1.407-2.347 1.407-1.572 0-2.407-.218-3.696-.756l-.506-.23-.552 3.227c.919.402 2.613.75 4.373.768 4.128 0 6.806-1.932 6.836-4.924zm10.174 4.713h3.642L49.47 11.323h-3.033c-.94 0-1.642.257-2.056 1.196l-5.828 13.21h4.122s.672-1.779.825-2.167l5.027.006c.119.505.478 2.16.478 2.16zm-2.025-9.275l.909 4.162h-3.26c.324-.829 1.564-4.029 1.564-4.029-.023.039.321-.833.522-1.375z"/></g></g></svg>