<svg xmlns="http://www.w3.org/2000/svg" xmlns:xlink="http://www.w3.org/1999/xlink" width="21" height="13" viewBox="0 0 21 13"><defs><path id="5xrma" d="M1208.084 622.036a1.37 1.37 0 0 0-.068-.13c-.347-.626-1.011-1.394-1.99-2.304l-.022-.02-.01-.011-.01-.01h-.01c-.446-.424-.727-.71-.845-.855-.216-.278-.264-.56-.146-.845.083-.215.396-.67.938-1.365.285-.369.51-.664.677-.886 1.203-1.599 1.724-2.62 1.564-3.065l-.062-.104c-.042-.063-.15-.12-.323-.172-.174-.052-.396-.06-.667-.026l-3.002.02a.39.39 0 0 0-.209.006l-.136.031-.052.026-.041.032a.463.463 0 0 0-.115.11.715.715 0 0 0-.104.181 17.02 17.02 0 0 1-1.116 2.346c-.257.43-.493.804-.709 1.12a5.392 5.392 0 0 1-.541.699 3.78 3.78 0 0 1-.397.36c-.118.09-.208.128-.27.114a7.641 7.641 0 0 1-.178-.042.693.693 0 0 1-.234-.255c-.06-.108-.1-.243-.12-.407a4.48 4.48 0 0 1-.037-.422 8.825 8.825 0 0 1 .005-.5c.008-.216.011-.362.011-.438 0-.264.005-.55.015-.86l.027-.735c.007-.18.01-.372.01-.573 0-.202-.012-.36-.037-.475a1.623 1.623 0 0 0-.109-.333.562.562 0 0 0-.213-.25 1.205 1.205 0 0 0-.35-.141c-.368-.083-.837-.129-1.407-.136-1.293-.013-2.123.07-2.491.25-.146.077-.278.181-.396.313-.126.153-.143.237-.053.25.417.063.713.212.886.449l.063.125c.049.09.097.25.146.48.049.229.08.482.094.76.034.508.034.942 0 1.303a15.53 15.53 0 0 1-.1.845 1.69 1.69 0 0 1-.265.719.18.18 0 0 1-.052.052.78.78 0 0 1-.282.052c-.097 0-.215-.049-.354-.146a2.501 2.501 0 0 1-.433-.401 5.364 5.364 0 0 1-.505-.714 12.46 12.46 0 0 1-.584-1.084l-.167-.303a26.001 26.001 0 0 1-.427-.85c-.181-.371-.34-.73-.48-1.078a.687.687 0 0 0-.25-.334l-.052-.031a.714.714 0 0 0-.167-.089 1.106 1.106 0 0 0-.24-.067l-2.856.02c-.292 0-.49.066-.594.198l-.042.063a.337.337 0 0 0-.031.167c0 .076.02.17.063.281a34.4 34.4 0 0 0 1.36 2.836c.49.91.915 1.643 1.277 2.199.361.556.73 1.08 1.105 1.574.375.493.623.81.745.949.122.139.217.243.287.312l.26.25c.167.167.412.367.735.6.323.233.681.462 1.074.688.393.226.85.41 1.37.552a4.74 4.74 0 0 0 1.523.173h1.199c.243-.021.427-.098.552-.23l.042-.052a.691.691 0 0 0 .078-.193 1.06 1.06 0 0 0 .036-.286 3.435 3.435 0 0 1 .068-.808c.052-.24.111-.42.177-.542a1.332 1.332 0 0 1 .402-.459.678.678 0 0 1 .083-.036c.167-.056.363-.002.589.161.226.164.438.365.636.605s.436.51.714.808c.278.299.521.52.73.667l.208.125c.14.084.32.16.542.23.222.069.417.086.584.052l2.668-.042c.264 0 .47-.044.615-.13.146-.087.233-.183.261-.287a.807.807 0 0 0 .005-.355 1.309 1.309 0 0 0-.073-.276z"/></defs><g><g transform="translate(-1188 -611)"><use fill="#fff" xlink:href="#5xrma"/></g></g></svg>