<svg xmlns="http://www.w3.org/2000/svg" width="24" height="13" viewBox="0 0 24 13"><g><g><path fill="#51bff7" d="M20.656 8.266c.796.744 1.636 1.443 2.35 2.262.316.364.614.74.843 1.163.324.6.03 1.26-.532 1.296l-3.497-.002c-.901.073-1.62-.275-2.226-.865-.484-.472-.932-.974-1.398-1.462-.19-.2-.39-.388-.629-.536-.477-.297-.891-.205-1.164.27-.278.486-.341 1.022-.368 1.562-.038.788-.287.995-1.114 1.031-1.767.08-3.445-.176-5.003-1.03-1.374-.751-2.439-1.814-3.366-3.016C2.746 6.598 1.364 4.025.122 1.38-.159.784.045.464.732.453 1.873.432 3.014.433 4.156.45c.464.007.77.261.95.68.617 1.453 1.372 2.834 2.32 4.116.252.34.51.682.876.921.405.267.714.178.905-.254.121-.274.174-.57.201-.864.09-1.01.103-2.018-.056-3.024C9.255 1.398 8.885.991 8.23.872c-.334-.06-.284-.18-.122-.362C8.388.195 8.653 0 9.18 0h3.951c.622.117.76.384.846.983l.003 4.202c-.007.232.121.92.558 1.073.349.11.58-.158.789-.37.946-.96 1.621-2.097 2.225-3.273.267-.517.497-1.054.72-1.591.166-.398.425-.594.894-.585l3.803.003c.113 0 .227.002.336.02.64.104.816.368.619.967-.312.94-.92 1.722-1.512 2.51-.635.84-1.313 1.65-1.942 2.496-.578.771-.532 1.16.186 1.83z"/></g></g></svg>