<svg xmlns="http://www.w3.org/2000/svg" width="55" height="55" viewBox="0 0 55 55"><g><g><path fill="#80d86a" d="M27.5 1C42.136 1 54 12.864 54 27.5 54 42.135 42.136 54 27.5 54S1 42.135 1 27.5C1 12.864 12.864 1 27.5 1zM6 27c0 11.598 9.402 21 21 21s21-9.402 21-21S38.598 6 27 6 6 15.402 6 27zm21-3a3 3 0 1 1 0 6 3 3 0 0 1 0-6z"/></g><g><path fill="#414047" d="M55 27.5c0 7.345-2.86 14.25-8.055 19.445C41.751 52.14 34.845 55 27.5 55c-7.346 0-14.251-2.86-19.446-8.055C2.86 41.751 0 34.845 0 27.5c0-7.346 2.86-14.252 8.054-19.445C13.25 2.86 20.154-.001 27.5-.001 34.845 0 41.75 2.86 46.945 8.055 52.14 13.248 55 20.154 55 27.5zm-2.148 0c0-13.98-11.373-25.352-25.352-25.352C13.52 2.148 2.148 13.521 2.148 27.5c0 13.978 11.373 25.351 25.352 25.351 13.979 0 25.352-11.373 25.352-25.351zm-3.42-3.152a1.07 1.07 0 0 1-1.257-.852A21.033 21.033 0 0 0 35.859 8.17a1.074 1.074 0 1 1 .854-1.97A23.18 23.18 0 0 1 50.284 23.09a1.074 1.074 0 0 1-.852 1.258zM33.302 6.116a1.075 1.075 0 0 1-1.282.815l-.013-.003a1.074 1.074 0 0 1 .452-2.1l.029.006c.579.13.943.703.814 1.282zM19.96 48.34a1.075 1.075 0 0 1-1.405.576 23.335 23.335 0 0 1-9.013-6.72 23.204 23.204 0 0 1-4.827-10.286 1.074 1.074 0 0 1 2.11-.406 20.999 20.999 0 0 0 12.558 15.43c.548.229.806.858.577 1.406zm3.856 1.011a1.075 1.075 0 0 1-1.278.82l-.075-.016a1.074 1.074 0 0 1 .466-2.097l.066.015c.58.126.947.698.821 1.278zm26.355-16.888a23.106 23.106 0 0 1-6.457 11.635 23.094 23.094 0 0 1-11.805 6.187 1.071 1.071 0 0 1-1.258-.852 1.074 1.074 0 0 1 .852-1.258 21 21 0 0 0 16.569-16.17 1.074 1.074 0 0 1 2.099.458zM23.496 6.825a21 21 0 0 0-16.568 16.17 1.074 1.074 0 0 1-2.1-.457 23.108 23.108 0 0 1 6.458-11.636A23.096 23.096 0 0 1 23.09 4.715a1.074 1.074 0 1 1 .405 2.11zM31.152 27.5a3.657 3.657 0 0 1-3.652 3.652 3.659 3.659 0 0 1-3.491-2.578h-3.993a1.074 1.074 0 1 1 0-2.149h3.993a3.668 3.668 0 0 1 2.417-2.417V14.86a1.074 1.074 0 0 1 2.148 0v9.148a3.66 3.66 0 0 1 2.578 3.492zm-2.148 0c0-.83-.675-1.504-1.504-1.504-.83 0-1.504.674-1.504 1.504 0 .829.675 1.503 1.504 1.503.83 0 1.504-.674 1.504-1.503zM28.59 5.37v2.408a1.074 1.074 0 1 1-2.149 0V5.37a1.074 1.074 0 0 1 2.149 0zm-.033 41.086v3.173a1.074 1.074 0 1 1-2.149 0v-3.173a1.074 1.074 0 0 1 2.149 0zm22.145-18.94c0 .593-.481 1.074-1.074 1.074h-2.9a1.074 1.074 0 1 1 0-2.149h2.9c.593 0 1.074.482 1.074 1.075zM9.56 27.483c0 .594-.48 1.075-1.074 1.075H5.371a1.074 1.074 0 1 1 0-2.149h3.115c.593 0 1.074.481 1.074 1.074z"/></g></g></svg>