<svg width="37" height="77" viewBox="0 0 37 77" fill="none" xmlns="http://www.w3.org/2000/svg">
<path d="M14.932 65.0658C14.932 65.7595 15.2587 66.0448 17.0654 66.1144V63.999H15.9986C15.0364 63.999 14.9319 64.745 14.9319 65.0658L14.932 65.0658Z" fill="#F3F3F3"/>
<path d="M19.1987 70.4006H20.2655C21.2278 70.4006 21.3323 69.6546 21.3323 69.3338C21.3323 68.6401 21.0055 68.3548 19.1988 68.2852L19.1987 70.4006Z" fill="#F3F3F3"/>
<path d="M27.7325 57.6001H8.53247V67.2001C8.53247 72.4937 12.8389 76.8001 18.1325 76.8001C23.426 76.8001 27.7325 72.4937 27.7325 67.2001V57.6001ZM23.4654 69.3335C23.4654 70.6199 22.613 72.5338 20.2652 72.5338H19.1985V73.6005C19.1985 74.1898 18.721 74.6673 18.1317 74.6673C17.5424 74.6673 17.065 74.1898 17.065 73.6005V72.5338H13.8647C13.2755 72.5338 12.798 72.0563 12.798 71.467C12.798 70.8777 13.2755 70.4003 13.8647 70.4003H17.065V68.2528C15.0767 68.1865 12.7979 67.7639 12.7979 65.0666C12.7979 63.7802 13.6504 61.8664 15.9982 61.8664H17.0649V60.7996C17.0649 60.2103 17.5424 59.7329 18.1317 59.7329C18.721 59.7329 19.1984 60.2103 19.1984 60.7996V61.8664H22.3986C22.9879 61.8664 23.4654 62.3438 23.4654 62.9331C23.4654 63.5224 22.9879 63.9999 22.3986 63.9999H19.1984V66.1474C21.1873 66.2137 23.4654 66.6362 23.4654 69.3335Z" fill="#F3F3F3"/>
<path d="M21.333 20.2664C21.333 19.5727 21.0063 19.2874 19.1996 19.2178V21.3332H20.2663C21.2286 21.3332 21.3331 20.5872 21.3331 20.2665L21.333 20.2664Z" fill="#FFB200"/>
<path d="M17.0661 14.9331H15.9994C15.0371 14.9331 14.9326 15.6791 14.9326 15.9999C14.9326 16.6936 15.2594 16.9789 17.066 17.0485L17.0661 14.9331Z" fill="#FFB200"/>
<path d="M8.53247 18.1337C8.53247 23.4272 12.8389 27.7337 18.1325 27.7337C23.426 27.7337 27.7325 23.4272 27.7325 18.1337C27.7325 12.8401 23.426 8.53369 18.1325 8.53369C12.8389 8.53369 8.53247 12.8401 8.53247 18.1337ZM12.7995 16.0003C12.7995 14.7139 13.652 12.8 15.9997 12.8H17.0665V11.7333C17.0665 11.144 17.5439 10.6665 18.1332 10.6665C18.7225 10.6665 19.2 11.144 19.2 11.7333V12.8H22.4002C22.9895 12.8 23.467 13.2775 23.467 13.8668C23.467 14.4561 22.9895 14.9335 22.4002 14.9335H19.2V17.081C21.1882 17.1473 23.467 17.5699 23.467 20.2672C23.467 21.5536 22.6145 23.4674 20.2668 23.4674H19.2V24.5342C19.2 25.1235 18.7226 25.6009 18.1333 25.6009C17.544 25.6009 17.0665 25.1235 17.0665 24.5342V23.4674H13.8663C13.277 23.4674 12.7996 22.99 12.7996 22.4007C12.7996 21.8114 13.277 21.3339 13.8663 21.3339H17.0665V19.1864C15.0776 19.1201 12.7995 18.6976 12.7995 16.0003Z" fill="#FFB200"/>
<path d="M29.8668 55.4654V53.332H6.3999V55.4654H29.8668Z" fill="#F3F3F3"/>
<path d="M19.1988 3.20018V1.06675C19.1988 0.477463 18.7213 0 18.132 0C17.5428 0 17.0653 0.477463 17.0653 1.06675V3.20018C17.0653 3.78946 17.5428 4.26693 18.132 4.26693C18.7213 4.26693 19.1988 3.78879 19.1988 3.20018Z" fill="#F3F3F3"/>
<path d="M1.06675 19.1999H3.20017C3.78946 19.1999 4.26693 18.7224 4.26693 18.1332C4.26693 17.5439 3.78946 17.0664 3.20017 17.0664H1.06675C0.477463 17.0664 0 17.5439 0 18.1332C0 18.7224 0.477463 19.1999 1.06675 19.1999Z" fill="#F3F3F3"/>
<path d="M30.9553 5.31092C30.5388 4.89441 29.8638 4.89441 29.4473 5.31092L27.9379 6.8203C27.5214 7.23682 27.5214 7.91182 27.9379 8.32834C28.1461 8.53659 28.4187 8.64106 28.6919 8.64106C28.9651 8.64106 29.2377 8.53659 29.4459 8.32834L30.9553 6.81896C31.3718 6.40244 31.3718 5.72744 30.9553 5.31092H30.9553Z" fill="#F3F3F3"/>
<path d="M6.81823 5.31092C6.40171 4.89441 5.72671 4.89441 5.31019 5.31092C4.89367 5.72744 4.89367 6.40244 5.31019 6.81896L6.81957 8.32834C7.02782 8.53659 7.30037 8.64106 7.57357 8.64106C7.84678 8.64106 8.11933 8.53659 8.32758 8.32834C8.7441 7.91182 8.7441 7.23682 8.32758 6.8203L6.81823 5.31092Z" fill="#F3F3F3"/>
<path d="M5.3096 30.9548C5.51785 31.1631 5.7904 31.2675 6.06361 31.2675C6.33681 31.2675 6.60937 31.1631 6.81762 30.9548L8.32699 29.4454C8.74351 29.0289 8.74351 28.3539 8.32699 27.9374C7.91047 27.5209 7.23548 27.5209 6.81896 27.9374L5.30958 29.4468C4.89306 29.8633 4.89306 30.5383 5.30958 30.9548H5.3096Z" fill="#F3F3F3"/>
<path d="M29.4468 30.9548C29.655 31.1631 29.9276 31.2675 30.2008 31.2675C30.474 31.2675 30.7465 31.1631 30.9548 30.9548C31.3713 30.5383 31.3713 29.8633 30.9548 29.4468L29.4454 27.9374C29.0289 27.5209 28.3539 27.5209 27.9374 27.9374C27.5209 28.3539 27.5209 29.0289 27.9374 29.4454L29.4468 30.9548Z" fill="#F3F3F3"/>
<path d="M35.1982 17.0654H33.0648C32.4755 17.0654 31.998 17.5429 31.998 18.1322C31.9987 18.7215 32.4762 19.1989 33.0648 19.1989H35.1982C35.7875 19.1989 36.2649 18.7215 36.2649 18.1322C36.2649 17.5429 35.7875 17.0654 35.1982 17.0654Z" fill="#F3F3F3"/>
<path d="M31.5673 34.3421C31.2867 34.1351 30.9238 34.0789 30.595 34.188L19.1989 37.9869V29.8125H17.0655V41.3049L5.66942 37.506C5.33995 37.3969 4.97634 37.4538 4.6971 37.6601C4.41786 37.8676 4.25714 38.1978 4.26518 38.5453C4.27121 38.7456 4.44665 43.4718 9.11078 45.8672C10.6731 46.6688 12.2507 46.9353 13.659 46.9353C15.0023 46.9353 16.1889 46.6922 17.0647 46.4391V51.1997H19.1982L19.1988 43.1211C20.0747 43.3742 21.2613 43.6173 22.6046 43.6173C24.0129 43.6173 25.5905 43.3508 27.1528 42.5492C31.8168 40.1538 31.9929 35.4276 31.9984 35.2273C32.0071 34.8791 31.8464 34.5497 31.5671 34.3421H31.5673Z" fill="#FFB200"/>
</svg>
