<svg width="77" height="47" viewBox="0 0 77 47" fill="none" xmlns="http://www.w3.org/2000/svg">
<path d="M36.5806 37.3035H30.0288C29.1689 37.9845 26.8325 39.4979 23.0396 39.4979C21.4231 39.4979 20.2873 38.987 19.6645 37.9792C18.5743 36.2154 19.7288 33.7919 19.8641 33.522C19.9706 33.3098 20.1427 33.137 20.3549 33.0312L26.3315 30.0432L28.5252 28.9463L30.7197 27.8481L32.7227 26.8463L33.5202 26.4472C34.3398 26.034 35.6061 25.1012 35.716 24.4142C35.7294 24.3352 35.7602 24.1464 35.4301 23.8162C35.3578 23.7439 35.1368 23.5229 34.3975 23.5229C33.2591 23.5229 31.6293 24.0178 29.7415 24.591C29.3444 24.7116 28.9373 24.8341 28.5254 24.956C28.1651 25.0625 27.7988 25.1676 27.4285 25.2707C27.0669 25.3712 26.7013 25.4676 26.3317 25.5607C24.5773 26 22.733 26.3328 20.846 26.3328C20.019 26.3328 19.2335 26.095 18.4741 25.8647C17.6504 25.6156 16.7986 25.3571 15.8075 25.3571C14.7783 25.3571 13.7162 25.6383 12.5598 26.2169C8.37778 28.3068 4.11024 32.551 4.06738 32.5939C3.86181 32.7995 3.58257 32.9153 3.29194 32.9153H0V46.0805H20.8457C30.1263 46.0805 34.842 40.1649 36.5803 37.3035L36.5806 37.3035Z" fill="#F3F3F3"/>
<path d="M28.5439 22.6601C28.7315 22.6038 28.9203 22.5469 29.1044 22.4907C31.1595 21.8672 32.9341 21.3282 34.398 21.3282C34.4971 21.3282 34.5848 21.3443 34.6799 21.3496C33.0306 20.8132 31.5426 19.9266 30.2884 18.7842C29.4527 19.6031 28.6464 20.8567 28.5439 22.66V22.6601Z" fill="#F3F3F3"/>
<path d="M28.5251 35.1091H30.7196V30.3018L28.5251 31.3986V35.1091Z" fill="#F3F3F3"/>
<path d="M44.4578 15.3605C44.5723 15.5319 44.6995 15.6933 44.8247 15.8567C45.0457 16.146 45.2801 16.4232 45.5312 16.6857C45.5386 16.6937 45.5459 16.7024 45.5533 16.7098C45.568 16.7252 45.5814 16.742 45.5962 16.7567C45.8299 16.9964 46.0743 17.2261 46.3314 17.4417C46.377 17.4799 46.4238 17.5167 46.4707 17.5542C46.7084 17.7464 46.9535 17.9279 47.2087 18.098C47.3332 18.1804 47.4638 18.254 47.5917 18.331C48.2091 18.7027 48.8674 19.0121 49.5625 19.2424C50.5388 19.5665 51.5795 19.7487 52.6636 19.7487C53.7477 19.7487 54.7878 19.5665 55.7647 19.2424C56.4598 19.0114 57.1181 18.7027 57.7355 18.331C57.8634 18.254 57.9946 18.181 58.1185 18.098C58.3737 17.9286 58.6187 17.7464 58.8565 17.5542C58.9027 17.5167 58.9495 17.4799 58.9958 17.4417C59.2529 17.2261 59.4967 16.9971 59.7304 16.7567C59.7451 16.7413 59.7585 16.7252 59.7732 16.7098C59.7806 16.7018 59.788 16.6931 59.7953 16.6857C60.0464 16.4232 60.2808 16.1453 60.5018 15.8567C60.625 15.6933 60.7522 15.5319 60.8667 15.3605C61.9201 13.7902 62.5362 11.9038 62.5362 9.87478C62.5362 7.23375 61.4882 4.8377 59.7933 3.06393C59.5395 2.79874 59.275 2.54361 58.9938 2.30789C58.7138 2.07351 58.4219 1.85455 58.1165 1.65165C56.5529 0.610355 54.6778 0.000976562 52.6623 0.000976562C50.6467 0.000976562 48.7718 0.611023 47.2075 1.65165C46.9028 1.85455 46.6102 2.07351 46.3303 2.30789C46.0483 2.54427 45.7838 2.79874 45.5307 3.06393C43.8358 4.83787 42.7878 7.23375 42.7878 9.87478C42.7885 11.9038 43.4046 13.7902 44.4579 15.3605H44.4578ZM50.4177 10.8711C50.0433 10.8216 49.6784 10.7446 49.3328 10.6354C48.9398 10.5115 48.5755 10.3414 48.2621 10.1084C47.6098 9.62292 47.1766 8.86822 47.1766 7.68029C47.1766 7.21354 47.2931 6.6678 47.5402 6.15485C47.717 5.78923 47.9641 5.44437 48.2922 5.15575C48.5534 4.92607 48.8735 4.74526 49.2424 4.61133C49.6014 4.48142 49.9971 4.38967 50.4679 4.38967H51.5648V3.2928C51.5648 2.68677 52.0556 2.19593 52.6616 2.19593C53.2683 2.19459 53.7598 2.68611 53.7598 3.29213V4.389H57.0511C57.1723 4.389 57.2835 4.42181 57.3919 4.45797C57.8024 4.59458 58.0977 4.9582 58.1319 5.40551C58.1339 5.43363 58.148 5.45774 58.148 5.48587C58.148 5.83609 57.9732 6.13407 57.7181 6.33497C57.5312 6.48162 57.3069 6.58273 57.0511 6.58273H56.4578L55.3248 6.5834H53.7598V8.79192C54.1381 8.80464 54.5252 8.82875 54.9076 8.87897C55.2819 8.92853 55.6469 9.00554 55.9924 9.11469C56.3855 9.23857 56.7498 9.40865 57.0631 9.64169C57.7154 10.1272 58.1486 10.8819 58.1486 12.0691C58.1486 12.5359 58.0321 13.0816 57.785 13.5946C57.6082 13.9602 57.3611 14.305 57.033 14.5937C56.7719 14.8233 56.4518 15.0041 56.0828 15.1381C55.7232 15.2687 55.3274 15.3604 54.8567 15.3604H53.7598V16.4573C53.7598 17.0633 53.269 17.5541 52.6629 17.5541C52.0569 17.5541 51.5661 17.0633 51.5661 16.4573L51.5654 15.3604H48.2741C48.1529 15.3604 48.0418 15.3276 47.9333 15.2914C47.5228 15.1548 47.2275 14.7912 47.1933 14.3439C47.1913 14.3158 47.1773 14.2917 47.1773 14.2635C47.1773 13.9133 47.352 13.6153 47.6072 13.4144C47.794 13.2678 48.0183 13.1667 48.2741 13.1667H51.5654V10.9582C51.187 10.9448 50.8 10.9213 50.4176 10.8711L50.4177 10.8711Z" fill="#FFB200"/>
<path d="M51.5651 6.5835H50.4683C50.2881 6.5835 50.1462 6.61497 50.0196 6.6585C49.4511 6.85403 49.3707 7.4105 49.3707 7.68037C49.3707 8.20938 49.5542 8.50804 50.406 8.65603C50.7027 8.70759 51.0843 8.74041 51.5651 8.75916V6.5835Z" fill="#FFB200"/>
<path d="M21.6903 34.8158C21.4398 35.4667 21.2563 36.3841 21.5322 36.8273C21.79 37.2412 22.5869 37.3027 23.0389 37.3027C24.4512 37.3027 25.5977 37.0563 26.491 36.7429C26.3979 36.5815 26.3303 36.4048 26.3303 36.2052V32.4946L21.6903 34.8158Z" fill="#F3F3F3"/>
<path d="M31.2903 16.7096C31.5789 17.0096 31.8829 17.2928 32.207 17.554C33.9026 18.9234 36.0554 19.7485 38.3999 19.7485C39.484 19.7485 40.5241 19.5663 41.501 19.2422C41.8459 18.586 42.2557 18.0241 42.689 17.554C42.8142 17.4181 42.9401 17.2849 43.0673 17.1637C42.8919 16.9333 42.7198 16.7003 42.5611 16.4572C42.3294 16.1036 42.1191 15.7373 41.9256 15.3596C41.0798 13.7116 40.593 11.85 40.593 9.87393C40.593 6.69513 41.8379 3.80827 43.8536 1.65067C42.29 0.609378 40.4149 0 38.3994 0C32.9545 0 28.5248 4.42972 28.5248 9.87463C28.5248 12.1246 29.2895 14.1945 30.5612 15.8566C30.7895 16.154 31.0306 16.4399 31.2904 16.7098L31.2903 16.7096Z" fill="#F3F3F3"/>
<path d="M55.3058 13.0907C55.8743 12.8952 55.9547 12.3387 55.9547 12.0688C55.9547 11.5398 55.7712 11.2412 54.9194 11.0932C54.6221 11.0416 54.2404 11.0088 53.7603 10.9907V13.1663H54.8571C55.0373 13.1656 55.1792 13.1342 55.3058 13.0906V13.0907Z" fill="#FFB200"/>
<path d="M76.7995 35.1089V23.0407C76.7995 21.0285 75.9309 19.661 75.037 18.7852C72.8914 20.7398 70.0502 21.9439 66.9257 21.9439C66.1382 21.9439 65.3695 21.8622 64.6234 21.7176C64.6857 22.1368 64.7312 22.5714 64.7312 23.0408V35.109H72.4114V27.4288C72.4114 26.8228 72.9023 26.332 73.5083 26.332C74.1143 26.332 74.6051 26.8228 74.6051 27.4288V35.109L76.7995 35.1089Z" fill="#F3F3F3"/>
<path d="M34.5011 28.4094L32.9133 29.2036V35.1084L38.3991 35.1078H40.5935V23.0395C40.5935 22.5701 40.6384 22.1355 40.702 21.7163C39.9553 21.861 39.1866 21.9426 38.399 21.9426C37.6544 21.9426 36.9285 21.865 36.2207 21.7357C36.5006 21.8784 36.7611 22.0451 36.9801 22.2641C37.9095 23.1935 37.9832 24.1378 37.8807 24.7673C37.5533 26.7896 35.0079 28.1557 34.501 28.4094L34.5011 28.4094Z" fill="#F3F3F3"/>
<path d="M61.148 19.1903C61.0248 19.0463 60.9002 18.9097 60.7736 18.7858C60.7388 18.818 60.704 18.8501 60.6678 18.8816C60.3873 19.1314 60.096 19.3664 59.7933 19.5894C59.054 20.1338 58.2578 20.6039 57.4039 20.9702C56.9901 21.1477 56.5635 21.2997 56.1276 21.4309C55.7472 21.5454 55.3588 21.6405 54.9637 21.7175C54.2177 21.8622 53.449 21.9439 52.6614 21.9439C51.8739 21.9439 51.1052 21.8622 50.3592 21.7175C49.9641 21.6405 49.5763 21.5454 49.1953 21.4309C48.7594 21.2997 48.3328 21.1477 47.919 20.9702C47.0652 20.6039 46.269 20.1331 45.5296 19.5894C45.2269 19.3664 44.9356 19.1307 44.655 18.8816C44.6196 18.8501 44.5847 18.8173 44.5492 18.7852C44.4227 18.909 44.2974 19.0463 44.1742 19.1903C43.7678 19.6657 43.3975 20.255 43.1403 20.9702C42.926 21.5702 42.7881 22.2539 42.7881 23.0414V35.1096H44.9819V27.4295C44.9819 27.0277 45.2082 26.6915 45.5303 26.5007C45.6944 26.4036 45.8752 26.3326 46.0794 26.3326C46.6854 26.3326 47.1763 26.8235 47.1763 27.4295V35.1096H58.1463V27.4295C58.1463 26.8234 58.6372 26.3326 59.2432 26.3326C59.4474 26.3326 59.6282 26.4036 59.7916 26.5007C60.1137 26.6915 60.3401 27.0277 60.3401 27.4295V35.1096H62.5359L62.5366 23.0414C62.5366 22.2539 62.3986 21.5702 62.183 20.9709C61.9258 20.2551 61.5542 19.6664 61.1477 19.1903L61.148 19.1903Z" fill="#FFB200"/>
<path d="M63.3989 15.3603C63.2054 15.7373 62.9958 16.1042 62.7647 16.4571C62.606 16.7002 62.4339 16.9332 62.2585 17.1636C62.3857 17.2848 62.5116 17.4181 62.6368 17.554C63.0701 18.0241 63.4799 18.5852 63.8248 19.2422C64.8011 19.5663 65.8418 19.7484 66.9259 19.7484C69.2697 19.7484 71.4232 18.9241 73.1188 17.554C73.4429 17.2921 73.7469 17.0089 74.0355 16.7095C74.2947 16.4397 74.5364 16.1537 74.7641 15.8557C76.0351 14.1944 76.7998 12.1244 76.7998 9.87443C76.7998 4.4302 72.3701 0.000488281 66.9252 0.000488281C64.9095 0.000488281 63.0346 0.610532 61.4703 1.65116C63.486 3.80876 64.7309 6.69561 64.7309 9.87441C64.7316 11.8505 64.2448 13.7122 63.399 15.3601L63.3989 15.3603Z" fill="#F3F3F3"/>
</svg>
