<svg width="74" height="78" viewBox="0 0 74 78" fill="none" xmlns="http://www.w3.org/2000/svg">
<path d="M70.1923 37.9634C69.6191 37.9634 69.1543 38.4281 69.1543 39.0013C69.1543 55.8582 56.1205 69.7196 39.6018 71.0585L41.8658 68.7944C42.271 68.3893 42.271 67.7324 41.8658 67.3266C41.4607 66.9214 40.8038 66.9214 40.398 67.3266L36.2462 71.4784C36.1464 71.5782 36.0727 71.6933 36.0218 71.8159C35.9709 71.9384 35.9421 72.0717 35.9421 72.2123C35.9421 72.3529 35.9716 72.4862 36.0218 72.6087C36.0727 72.7313 36.1464 72.8465 36.2462 72.9463L40.398 77.0981C40.6009 77.3003 40.8667 77.4014 41.1319 77.4014C41.3978 77.4014 41.6629 77.3003 41.8658 77.0974C42.271 76.6923 42.271 76.0354 41.8658 75.6296L39.3914 73.1552C57.1548 71.913 71.2291 57.0743 71.2291 39.0014C71.2291 38.4282 70.7644 37.9635 70.1912 37.9635L70.1923 37.9634Z" fill="#F3F3F3"/>
<path d="M37.7152 6.52366C37.815 6.42388 37.8886 6.3087 37.9395 6.18615C37.9904 6.0636 38.0192 5.93034 38.0192 5.78972C38.0192 5.64909 37.9897 5.51583 37.9395 5.39329C37.8886 5.27075 37.815 5.15557 37.7152 5.05578L33.5633 0.903951C33.1582 0.498813 32.5013 0.498813 32.0955 0.903951C31.6904 1.30909 31.6904 1.966 32.0955 2.37181L34.5699 4.84621C16.8082 6.08907 2.73218 20.9278 2.73218 38.9999C2.73218 39.5732 3.1969 40.0379 3.77013 40.0379C4.34335 40.0379 4.80808 39.5732 4.80808 38.9999C4.80808 22.143 17.842 8.28164 34.3606 6.94278L32.0966 9.20684C31.6915 9.61198 31.6915 10.2689 32.0966 10.6747C32.2995 10.8776 32.5647 10.9787 32.8305 10.9787C33.0964 10.9787 33.3615 10.8776 33.5644 10.6747L37.7156 6.52355L37.7152 6.52366Z" fill="#F3F3F3"/>
<path d="M59.8142 2.67627C52.3745 2.67627 46.3223 8.72855 46.3223 16.1682C46.3223 23.6079 52.3745 29.6602 59.8142 29.6602C67.2538 29.6602 73.3061 23.6079 73.3061 16.1682C73.3061 8.72855 67.2538 2.67627 59.8142 2.67627ZM55.3363 13.0544H59.8142C60.3874 13.0544 60.8521 13.5191 60.8521 14.0923C60.8521 14.6656 60.3874 15.1303 59.8142 15.1303H54.7108C54.6123 15.8187 54.6123 16.5171 54.7108 17.2061H59.8142C60.3874 17.2061 60.8521 17.6708 60.8521 18.2441C60.8521 18.8173 60.3874 19.282 59.8142 19.282H55.3349C55.3865 19.3912 55.4361 19.501 55.493 19.6074C55.5198 19.657 55.5506 19.7039 55.5787 19.7528C55.6698 19.9128 55.7628 20.0722 55.8666 20.2262C55.8693 20.2302 55.8727 20.2336 55.8753 20.2376C56.1298 20.6139 56.4198 20.9729 56.7526 21.3057C57.0874 21.6405 57.449 21.9324 57.8274 22.1882C57.8287 22.1889 57.83 22.1903 57.8314 22.1909C57.9874 22.2961 58.1488 22.3905 58.3115 22.4829C58.3584 22.5097 58.4026 22.5391 58.4501 22.5646C58.5807 22.6349 58.714 22.6952 58.8479 22.7568C58.9349 22.7969 59.02 22.8405 59.1084 22.8773C59.2075 22.9182 59.3079 22.951 59.4084 22.9871C59.5363 23.034 59.6635 23.0822 59.7948 23.1224C59.8577 23.1411 59.922 23.1545 59.9856 23.1713C60.1544 23.2175 60.3231 23.2617 60.4965 23.2958C60.5153 23.2992 60.534 23.3012 60.5528 23.3045C60.9948 23.3869 61.4421 23.4298 61.8907 23.4298C63.7511 23.4298 65.6119 22.7213 67.0283 21.3056C67.2312 21.1027 67.4964 21.0016 67.7615 21.0016C68.0274 21.0016 68.2926 21.1027 68.4954 21.3056C68.9006 21.7107 68.9006 22.3683 68.4954 22.7734C66.6814 24.5868 64.3015 25.4962 61.9196 25.5036C61.9096 25.5036 61.9009 25.5096 61.8908 25.5096C61.2955 25.5096 60.7149 25.448 60.1498 25.3409C60.1337 25.3375 60.117 25.3369 60.1016 25.3335C59.8746 25.2893 59.6509 25.2297 59.4273 25.1695C59.3516 25.1487 59.2746 25.1333 59.1996 25.1105C59.0255 25.0583 58.8547 24.9927 58.6833 24.9304C58.5614 24.8855 58.4369 24.846 58.3177 24.7965C58.1965 24.7462 58.0786 24.6853 57.9587 24.6297C57.7953 24.5534 57.6299 24.4804 57.4719 24.3947C57.4016 24.3572 57.3353 24.3123 57.2657 24.2728C57.0654 24.1583 56.8666 24.0424 56.6757 23.9139C56.6623 23.9045 56.6496 23.8938 56.6362 23.8844C56.1608 23.561 55.7067 23.1933 55.2849 22.7728C54.8603 22.3482 54.49 21.8895 54.1639 21.4101C54.1579 21.4014 54.1512 21.3933 54.1451 21.384C54.0146 21.1904 53.8967 20.9875 53.7802 20.784C53.7427 20.7183 53.7005 20.6547 53.665 20.5884C53.5779 20.427 53.5029 20.259 53.4259 20.0922C53.3717 19.9757 53.3128 19.8605 53.2639 19.7427C53.213 19.6201 53.1721 19.4922 53.1259 19.367C53.1152 19.3389 53.1052 19.3107 53.0945 19.282H51.5114C50.9382 19.282 50.4735 18.8172 50.4735 18.244C50.4735 17.6708 50.9382 17.2061 51.5114 17.2061H52.6103C52.5722 16.8645 52.5494 16.5197 52.5494 16.1681C52.5494 15.8172 52.5728 15.4717 52.6103 15.1302H51.5114C50.9382 15.1302 50.4735 14.6654 50.4735 14.0922C50.4735 13.519 50.9382 13.0543 51.5114 13.0543H53.0945C53.1045 13.0255 53.1152 12.9973 53.1259 12.9692C53.1721 12.844 53.213 12.7161 53.2639 12.5935C53.3128 12.475 53.3717 12.3605 53.4259 12.244C53.5036 12.0772 53.5786 11.9092 53.665 11.7478C53.7005 11.6815 53.7433 11.6179 53.7808 11.5516C53.8974 11.348 54.0146 11.1458 54.1451 10.9523C54.1518 10.9422 54.1599 10.9335 54.1659 10.9235C54.4913 10.4447 54.861 9.98731 55.2849 9.56342C55.7047 9.14355 56.1587 8.77726 56.6322 8.45381C56.6469 8.44377 56.6603 8.43238 56.675 8.42234C56.8639 8.29444 57.0621 8.18059 57.2603 8.06676C57.3313 8.02658 57.3996 7.98038 57.4713 7.94221C57.6273 7.85783 57.7907 7.78551 57.9521 7.71051C58.0739 7.65426 58.1938 7.59198 58.3177 7.54109C58.4349 7.4922 58.5561 7.45403 58.6753 7.40984C58.8494 7.34622 59.0228 7.27993 59.2003 7.22703C59.2706 7.2056 59.3429 7.19153 59.4139 7.17212C59.6422 7.10984 59.8706 7.0489 60.1023 7.0047C60.1103 7.00337 60.119 7.0027 60.127 7.00069C60.6982 6.89086 61.2869 6.82859 61.8895 6.82859C61.9002 6.82859 61.9089 6.83462 61.9196 6.83462C64.3016 6.84198 66.6807 7.75137 68.4943 9.5641C68.8994 9.96924 68.8994 10.6262 68.4943 11.032C68.2913 11.2349 68.0262 11.336 67.7603 11.336C67.4952 11.336 67.2293 11.2349 67.0271 11.032C65.6108 9.61567 63.7506 8.90779 61.8896 8.90779C61.4375 8.90779 60.9855 8.95132 60.5396 9.03502C60.5255 9.0377 60.5114 9.03904 60.4974 9.04172C60.3213 9.07587 60.1498 9.12141 59.9791 9.16828C59.9181 9.18502 59.8565 9.19707 59.7956 9.21582C59.6617 9.256 59.5317 9.30556 59.4012 9.35377C59.3034 9.38926 59.2056 9.42141 59.1092 9.46091C59.0168 9.49908 58.9291 9.54462 58.8387 9.58614C58.7088 9.64641 58.5782 9.70466 58.451 9.77296C58.3994 9.80042 58.3512 9.83256 58.3003 9.86202C58.1416 9.95176 57.9842 10.0442 57.8315 10.1466C57.8255 10.1506 57.8201 10.1553 57.8141 10.1594C57.4398 10.4132 57.0829 10.7018 56.7514 11.0326C56.4186 11.3654 56.1286 11.7243 55.8742 12.1007C55.8715 12.1047 55.8681 12.108 55.8655 12.112C55.7617 12.2661 55.6686 12.4254 55.5775 12.5855C55.5494 12.6344 55.5186 12.6812 55.4918 12.7308C55.4342 12.8379 55.3853 12.9471 55.3338 13.0562L55.3363 13.0544Z" fill="#FFB200"/>
<path d="M27.6404 61.8333C27.6404 54.3936 21.5881 48.3413 14.1485 48.3413C6.70934 48.342 0.657227 54.3943 0.657227 61.8333C0.657227 69.2729 6.70951 75.3252 14.1492 75.3252C21.5883 75.3252 27.6404 69.2729 27.6404 61.8333ZM13.1112 72.2121V71.085C9.86414 70.5614 8.96003 67.6164 8.96003 65.985C8.96003 65.4118 9.42475 64.9471 9.99798 64.9471C10.2846 64.9471 10.5437 65.0629 10.7319 65.2511C10.9194 65.4386 11.0359 65.6984 11.0359 65.985C11.0413 66.431 11.1785 68.4325 13.1117 68.965V62.4701C11.0592 61.4247 8.96059 60.1625 8.96059 57.6781C8.96059 55.5908 9.90144 53.9717 11.611 53.1191C12.1494 52.8506 12.6751 52.7013 13.1124 52.6136V51.4551C13.1124 50.8819 13.5771 50.4171 14.1503 50.4171C14.7236 50.4171 15.1883 50.8819 15.1883 51.4551V52.5761C16.2329 52.7448 17.1134 53.1774 17.8093 53.8745C19.3247 55.3913 19.3394 57.5904 19.3394 57.6828C19.3387 58.2553 18.8747 58.7194 18.3014 58.7194H18.3001C18.0142 58.7187 17.755 58.6029 17.5675 58.4154C17.3807 58.2286 17.2642 57.9701 17.2635 57.6855C17.2588 57.2328 17.1215 55.2332 15.1877 54.7016V61.1931C17.2402 62.2384 19.3388 63.5007 19.3388 65.985C19.3388 69.3882 17.0077 70.712 15.1877 71.0663V72.2121C15.1877 72.7853 14.723 73.2501 14.1497 73.2501C13.5758 73.2501 13.1111 72.7853 13.1111 72.2121L13.1112 72.2121Z" fill="#FFB200"/>
<path d="M11.0359 57.6776C11.0359 58.68 11.7946 59.3651 13.1117 60.1144V54.7285C12.189 54.9984 11.0359 55.7249 11.0359 57.6776Z" fill="#FFB200"/>
<path d="M17.2621 65.9852C17.2621 64.9827 16.5034 64.2977 15.1863 63.5483V68.9371C16.109 68.6652 17.2621 67.938 17.2621 65.9852Z" fill="#FFB200"/>
</svg>
