<svg width="77" height="78" viewBox="0 0 77 78" fill="none" xmlns="http://www.w3.org/2000/svg">
<path d="M4.20876 40.0986H0.942871C1.51743 60.4146 17.9284 76.8255 38.244 77.3997V74.1339C38.244 73.5272 38.7355 73.0356 39.3422 73.0356C39.9489 73.0356 40.4404 73.5272 40.4404 74.1339L40.4398 77.3997C58.4055 76.8915 73.3215 64.0042 76.9318 46.978C74.7172 49.4852 71.4889 51.0769 67.8889 51.0769C61.2292 51.0769 55.8119 45.6589 55.8119 38.9999C55.8119 32.341 61.2294 26.923 67.8889 26.923C71.4896 26.923 74.7172 28.5147 76.9318 31.0218C73.3223 13.9955 58.4055 1.10753 40.4398 0.600098V3.86598C40.4398 4.47269 39.9482 4.96419 39.3416 4.96419C38.7349 4.96419 38.2433 4.47267 38.2433 3.86598L38.244 0.600098C17.928 1.17466 1.51716 17.5856 0.942871 37.9012H4.20876C4.81546 37.9012 5.30696 38.3928 5.30696 38.9994C5.30696 39.6061 4.81544 40.0976 4.20876 40.0976V40.0986ZM36.3705 9.6769L38.5663 7.48107C38.6714 7.37593 38.7933 7.29759 38.9232 7.24402C39.0571 7.18844 39.1998 7.15964 39.3424 7.15964C39.485 7.15964 39.6277 7.18844 39.7616 7.24402C39.8908 7.29759 40.0134 7.37594 40.1185 7.48107L42.3144 9.6769C42.7429 10.1055 42.7429 10.8006 42.3144 11.2291C42.1001 11.4434 41.8195 11.5506 41.5382 11.5506C41.257 11.5506 40.9764 11.4434 40.7621 11.2291L40.4407 10.9077V37.9008H49.8672L49.5458 37.5794C49.1172 37.1508 49.1172 36.4557 49.5458 36.0272C49.9744 35.5986 50.6695 35.5986 51.098 36.0272L53.2938 38.223C53.399 38.3281 53.4773 38.45 53.5309 38.5799C53.5872 38.7138 53.6159 38.8558 53.6159 38.9991C53.6159 39.1418 53.5865 39.2844 53.5316 39.4183C53.478 39.5476 53.3997 39.6701 53.2945 39.7752L51.0987 41.9711C50.8844 42.1853 50.6038 42.2925 50.3226 42.2925C50.0413 42.2925 49.7608 42.1853 49.5465 41.9711C49.1179 41.5425 49.1179 40.8474 49.5465 40.4188L49.8679 40.0974H39.343C38.7363 40.0974 38.2448 39.6059 38.2448 38.9992V10.9072L37.9234 11.2286C37.4948 11.6572 36.7997 11.6572 36.3712 11.2286C35.9419 10.7994 35.9419 10.105 36.3705 9.67571L36.3705 9.6769Z" fill="#F3F3F3"/>
<path d="M72.2814 35.7066C72.8881 35.7066 73.3796 35.2151 73.3796 34.6084C73.3796 34.0017 72.888 33.5102 72.2814 33.5102L68.988 33.5109V32.4127C68.988 31.806 68.4965 31.3145 67.8898 31.3145C67.2831 31.3145 66.7916 31.806 66.7916 32.4127V33.5109H65.6934C63.2773 33.5109 62.3994 35.4809 62.3994 36.8049C62.3994 39.5811 64.7445 40.0157 66.7909 40.0841V42.2947H63.4969C62.8902 42.2947 62.3987 42.7862 62.3987 43.3929C62.3987 43.9996 62.8902 44.4911 63.4969 44.4911H66.7909V45.5893C66.7909 46.196 67.2824 46.6875 67.8891 46.6875C68.4958 46.6875 68.9873 46.196 68.9873 45.5893V44.4911H70.0855C72.5016 44.4911 73.3795 42.521 73.3795 41.1971C73.3795 38.4208 71.0344 37.9862 68.988 37.9178V35.7073L72.2814 35.7066ZM66.7917 37.8836C64.932 37.8126 64.5959 37.5186 64.5959 36.8041C64.5959 36.474 64.703 35.7059 65.6941 35.7059H66.7923L66.7917 37.8836ZM71.1839 41.1963C71.1839 41.5264 71.0767 42.2945 70.0857 42.2945H68.9881V40.1168C70.8471 40.1885 71.184 40.4824 71.184 41.1963L71.1839 41.1963Z" fill="#FFB200"/>
</svg>
