<svg width="64" height="72" viewBox="0 0 64 72" fill="none" xmlns="http://www.w3.org/2000/svg">
<path d="M26.6685 2H20.4185H14.1685M26.6685 2H38.4785C38.7215 2 38.9185 2.19699 38.9185 2.44V69.56C38.9185 69.803 38.7215 70 38.4785 70H2.35846C2.11545 70 1.91846 69.803 1.91846 69.56V2.44C1.91846 2.197 2.11545 2 2.35846 2H14.1685M26.6685 2V7.56C26.6685 7.80301 26.4715 8 26.2285 8H14.6085C14.3655 8 14.1685 7.80301 14.1685 7.56V2" stroke="#474A51" stroke-width="2.8"/>
<path d="M18.9185 58H21.9185" stroke="#474A51" stroke-width="2.8" stroke-linecap="round"/>
<rect x="25.9185" y="31.918" width="31.6021" height="18.3769" rx="0.44" transform="rotate(-21.7618 25.9185 31.918)" fill="white"/>
<circle cx="28.9185" cy="32" r="12" fill="#FFDC69"/>
<rect x="25.9185" y="31.918" width="31.6021" height="18.3769" rx="0.44" transform="rotate(-21.7618 25.9185 31.918)" stroke="#474A51" stroke-width="2.8"/>
<path d="M28.3237 37.9424L58.1797 26.024" stroke="#474A51" stroke-width="2.8"/>
</svg>
