<svg width="68" height="72" viewBox="0 0 68 72" fill="none" xmlns="http://www.w3.org/2000/svg">
<circle cx="55.5" cy="43" r="12" fill="#FFDC69"/>
<path d="M36.5 62H1.94C1.69699 62 1.5 61.803 1.5 61.56V2.44C1.5 2.197 1.69699 2 1.94 2H20H36.06C36.303 2 36.5 2.19699 36.5 2.44V37M36.5 62V37M36.5 62H62.06C62.303 62 62.5 61.803 62.5 61.56V49M52 37.5L36.5 37M52 37.5L57.25 43.25L62.5 49M52 37.5V43.25V48.56C52 48.803 52.197 49 52.44 49H62.5" stroke="#474A51" stroke-width="2.8"/>
<circle cx="9" cy="66.5" r="3.5" stroke="#474A51" stroke-width="2.8"/>
<circle cx="55" cy="66.5" r="3.5" stroke="#474A51" stroke-width="2.8"/>
</svg>
