<svg width="52" height="60" viewBox="0 0 52 60" fill="none" xmlns="http://www.w3.org/2000/svg">
<ellipse cx="40.5715" cy="35.5517" rx="10.4082" ry="10.4082" fill="#FFDC69"/>
<path d="M26.0001 30.0003C33.6645 30.0003 39.8777 23.6577 39.8777 15.8337C39.8777 8.00962 33.6645 1.66699 26.0001 1.66699C18.3357 1.66699 12.1226 8.00962 12.1226 15.8337C12.1226 23.6577 18.3357 30.0003 26.0001 30.0003Z" stroke="#474A51" stroke-width="2.7"/>
<path d="M39.8776 35.666H40.8546C42.8837 35.6666 44.8428 36.4235 46.3638 37.7946C47.8848 39.1657 48.8629 41.0566 49.1145 43.112L50.1998 51.9634C50.2974 52.7607 50.2277 53.5702 49.9955 54.338C49.7632 55.1058 49.3736 55.8144 48.8526 56.4168C48.3316 57.0191 47.691 57.5015 46.9734 57.8318C46.2558 58.1621 45.4776 58.3329 44.6904 58.3327H7.3098C6.52261 58.3329 5.7444 58.1621 5.02679 57.8318C4.30919 57.5015 3.66861 57.0191 3.14757 56.4168C2.62654 55.8144 2.23696 55.1058 2.0047 54.338C1.77244 53.5702 1.7028 52.7607 1.80041 51.9634L2.88286 43.112C3.13459 41.0557 4.11356 39.164 5.6357 37.7928C7.15783 36.4215 9.11826 35.6652 11.1483 35.666H12.1225" stroke="#474A51" stroke-width="2.7" stroke-linecap="round" stroke-linejoin="round"/>
</svg>
