<svg xmlns="http://www.w3.org/2000/svg" width="50" height="49" viewBox="0 0 50 49"><g><g><path fill="#51bff7" d="M.543 40.153L10.826 29.69a1.825 1.825 0 0 1 2.265-.281l5.777-5.878a.75.75 0 0 1 1.072 0 .781.781 0 0 1 0 1.091l-5.737 5.837 2.114 2.15L26.84 21.905l-2.114-2.15-1.408 1.432a.75.75 0 0 1-1.072 0 .781.781 0 0 1 0-1.09l1.408-1.433-3.664-3.728-.29.295c-.36.366-.839.568-1.348.568-.51 0-.988-.202-1.349-.568l-1.35-1.374a1.944 1.944 0 0 1-.559-1.372c0-.518.199-1.005.559-1.372L26.016.568c.36-.366.839-.568 1.348-.568.51 0 .988.202 1.348.568l1.351 1.375c.36.366.559.853.559 1.371s-.199 1.006-.559 1.372l-.29.295L41.36 16.77l.29-.294a1.885 1.885 0 0 1 2.697 0l1.35 1.374c.36.366.56.853.56 1.372 0 .518-.2 1.005-.56 1.372L35.335 31.136c-.36.367-.84.568-1.349.568-.51 0-.988-.201-1.348-.568l-1.35-1.374a1.966 1.966 0 0 1 0-2.744l.29-.295-3.665-3.728L17.35 33.742c.173.291.267.624.267.972 0 .504-.193.978-.543 1.334L6.791 46.51c-.35.356-.816.552-1.31.552-.496 0-.961-.196-1.311-.552L.543 42.82A1.89 1.89 0 0 1 0 41.486c0-.504.193-.977.543-1.333zM28.99 3.033l-1.35-1.374a.384.384 0 0 0-.553 0L16.725 12.203a.398.398 0 0 0-.114.28c0 .107.04.207.114.282l1.35 1.374c.148.15.406.15.553 0L28.991 3.595a.399.399 0 0 0 .114-.28.398.398 0 0 0-.114-.282zm3.367 25.638l1.351 1.374c.148.15.405.15.553 0l10.363-10.543a.399.399 0 0 0 0-.563l-1.351-1.374a.385.385 0 0 0-.553 0L32.36 28.11a.403.403 0 0 0 0 .562zm-3.91-7.312l4.2 4.273 7.64-7.772L28.7 6.072l-7.639 7.772 4.2 4.273zM1.615 41.729l3.627 3.69a.333.333 0 0 0 .477 0L16 34.957a.345.345 0 0 0 0-.485l-.22-.225-3.406-3.466a.332.332 0 0 0-.477 0L1.615 41.244a.344.344 0 0 0 0 .485zm19.593.434h1.162v-4.065c0-.906.724-1.644 1.616-1.644h13.068c.418 0 .758.345.758.771 0 .426-.34.772-.758.772H23.986a.1.1 0 0 0-.1.101v4.065h20.143v-4.065a.1.1 0 0 0-.1-.101h-2.112a.765.765 0 0 1-.758-.772c0-.426.34-.771.758-.771h2.112c.892 0 1.616.738 1.616 1.644v4.065h1.162c1.816 0 3.293 1.503 3.293 3.35v2.197A1.28 1.28 0 0 1 48.732 49H19.183a1.28 1.28 0 0 1-1.268-1.29v-2.197c0-1.847 1.477-3.35 3.293-3.35zm-1.777 5.294h29.053v-1.944c0-.996-.797-1.807-1.777-1.807h-25.5c-.979 0-1.776.81-1.776 1.807z"/></g></g></svg>