<svg width="39" height="40" viewBox="0 0 39 40" fill="none" xmlns="http://www.w3.org/2000/svg">
<path d="M28.498 0H37.606L37.806 0.0279999L38.004 0.0840001L38.124 0.136C38.284 0.204 38.43 0.306 38.562 0.436L38.642 0.524L38.73 0.638L38.838 0.818L38.916 0.998L38.954 1.126L38.982 1.254L39 1.444V10.508C38.9999 10.888 38.8555 11.2539 38.596 11.5316C38.3366 11.8093 37.9814 11.9781 37.6022 12.0041C37.2231 12.03 36.8482 11.911 36.5534 11.6711C36.2586 11.4313 36.0658 11.0885 36.014 10.712L36 10.508V5.118L23.12 17.998C22.866 18.252 22.5293 18.4065 22.1711 18.4333C21.8129 18.4601 21.4569 18.3574 21.168 18.144L21 18L14.94 12.18L3.55998 23.558C3.29233 23.8264 2.933 23.9835 2.55423 23.9977C2.17547 24.012 1.80535 23.8823 1.5183 23.6348C1.23125 23.3872 1.04855 23.0402 1.00694 22.6635C0.965321 22.2867 1.06788 21.9082 1.29398 21.604L1.43998 21.436L13.88 8.996C14.1342 8.74226 14.471 8.58818 14.8293 8.56175C15.1875 8.53533 15.5433 8.63832 15.832 8.852L16 8.996L22.06 14.816L33.876 3H28.496C28.1339 2.9995 27.7841 2.86801 27.5114 2.62981C27.2386 2.3916 27.0612 2.06277 27.012 1.704L26.998 1.5C26.998 1.13752 27.1293 0.787316 27.3675 0.514139C27.6058 0.240961 27.9349 0.0632966 28.294 0.0139999L28.5 0H28.498ZM2.49998 30C2.89781 30 3.27934 30.158 3.56064 30.4393C3.84195 30.7206 3.99998 31.1022 3.99998 31.5V38.5C3.99998 38.8978 3.84195 39.2794 3.56064 39.5607C3.27934 39.842 2.89781 40 2.49998 40C2.10216 40 1.72063 39.842 1.43932 39.5607C1.15802 39.2794 0.999983 38.8978 0.999983 38.5V31.5C0.999983 31.1022 1.15802 30.7206 1.43932 30.4393C1.72063 30.158 2.10216 30 2.49998 30ZM14 23.5C14 23.1022 13.8419 22.7206 13.5606 22.4393C13.2793 22.158 12.8978 22 12.5 22C12.1022 22 11.7206 22.158 11.4393 22.4393C11.158 22.7206 11 23.1022 11 23.5V38.5C11 38.8978 11.158 39.2794 11.4393 39.5607C11.7206 39.842 12.1022 40 12.5 40C12.8978 40 13.2793 39.842 13.5606 39.5607C13.8419 39.2794 14 38.8978 14 38.5V23.5ZM22.5 26C22.8978 26 23.2793 26.158 23.5606 26.4393C23.8419 26.7206 24 27.1022 24 27.5V38.5C24 38.8978 23.8419 39.2794 23.5606 39.5607C23.2793 39.842 22.8978 40 22.5 40C22.1022 40 21.7206 39.842 21.4393 39.5607C21.158 39.2794 21 38.8978 21 38.5V27.5C21 27.1022 21.158 26.7206 21.4393 26.4393C21.7206 26.158 22.1022 26 22.5 26ZM34 17.5C34 17.1022 33.8419 16.7206 33.5606 16.4393C33.2793 16.158 32.8978 16 32.5 16C32.1022 16 31.7206 16.158 31.4393 16.4393C31.158 16.7206 31 17.1022 31 17.5V38.5C31 38.8978 31.158 39.2794 31.4393 39.5607C31.7206 39.842 32.1022 40 32.5 40C32.8978 40 33.2793 39.842 33.5606 39.5607C33.8419 39.2794 34 38.8978 34 38.5V17.5Z" fill="#FFB200"/>
</svg>
