<svg width="37" height="40" viewBox="0 0 37 40" fill="none" xmlns="http://www.w3.org/2000/svg">
<path d="M22.712 3.18989C22.7542 3.13681 22.8067 3.09287 22.8664 3.06074C22.9261 3.0286 22.9917 3.00894 23.0593 3.00296C23.1268 2.99697 23.1948 3.00478 23.2593 3.02591C23.3237 3.04705 23.3831 3.08106 23.434 3.12589L25.276 4.74989L19.478 11.9999H23.32L27.532 6.73589L30.836 9.64989C30.9337 9.73622 30.9938 9.8573 31.0035 9.98731C31.0132 10.1173 30.9718 10.246 30.888 10.3459L29.508 11.9999H33.396C33.8776 11.2948 34.0849 10.4381 33.9788 9.59085C33.8727 8.74363 33.4606 7.96441 32.82 7.39988L25.42 0.873885C25.063 0.559492 24.6457 0.321168 24.1935 0.17347C23.7413 0.0257727 23.2638 -0.0281992 22.79 0.014851C22.3163 0.0579013 21.8563 0.19707 21.4382 0.423858C21.02 0.650646 20.6525 0.960292 20.358 1.33389L11.952 11.9999H15.772L22.712 3.18989ZM26.5 25.9999C26.1022 25.9999 25.7206 26.1579 25.4393 26.4392C25.158 26.7205 25 27.1021 25 27.4999C25 27.8977 25.158 28.2792 25.4393 28.5605C25.7206 28.8419 26.1022 28.9999 26.5 28.9999H30.5C30.8978 28.9999 31.2794 28.8419 31.5607 28.5605C31.842 28.2792 32 27.8977 32 27.4999C32 27.1021 31.842 26.7205 31.5607 26.4392C31.2794 26.1579 30.8978 25.9999 30.5 25.9999H26.5ZM3 12.4999C3 12.1021 3.15804 11.7205 3.43934 11.4392C3.72064 11.1579 4.10218 10.9999 4.5 10.9999H10.756L13.14 7.99989H4.5C3.30653 7.99989 2.16193 8.47399 1.31802 9.31791C0.474106 10.1618 0 11.3064 0 12.4999V33.4999C0 35.2238 0.684819 36.8771 1.90381 38.0961C3.12279 39.3151 4.77609 39.9999 6.5 39.9999H30.5C32.2239 39.9999 33.8772 39.3151 35.0962 38.0961C36.3152 36.8771 37 35.2238 37 33.4999V20.4999C37 18.776 36.3152 17.1227 35.0962 15.9037C33.8772 14.6847 32.2239 13.9999 30.5 13.9999H4.5C4.10218 13.9999 3.72064 13.8419 3.43934 13.5605C3.15804 13.2792 3 12.8977 3 12.4999ZM3 33.4999V16.7439C3.47 16.9099 3.974 16.9999 4.5 16.9999H30.5C32.432 16.9999 34 18.5679 34 20.4999V33.4999C34 34.4281 33.6312 35.3184 32.9749 35.9748C32.3185 36.6311 31.4283 36.9999 30.5 36.9999H6.5C5.57174 36.9999 4.6815 36.6311 4.02513 35.9748C3.36875 35.3184 3 34.4281 3 33.4999Z" fill="#FFB200"/>
</svg>
