<svg xmlns="http://www.w3.org/2000/svg" width="53" height="55" viewBox="0 0 53 55"><g><g><path fill="#51bff7" d="M53 6.894v3.019c0 1.157-.931 2.098-2.077 2.098h-.468v14.784a.802.802 0 0 1-.797.806.802.802 0 0 1-.797-.806V12.011H4.14V42.9c0 .3.241.544.538.544h20.036c.44 0 .798.36.798.806a.801.801 0 0 1-.798.806h-6.131l-.911 3.36h17.656l-.91-3.36h-5.983a.801.801 0 0 1-.797-.806c0-.445.357-.806.797-.806h19.887a.542.542 0 0 0 .539-.544V30.555c0-.445.356-.805.797-.805.44 0 .797.36.797.805V42.9c0 1.189-.957 2.156-2.133 2.156h-9.613l1.967 7.256c.286 1.051-.235 2.141-1.21 2.536a2.067 2.067 0 0 1-2.77-1.388l-.93-3.432H17.234l-.931 3.432a2.067 2.067 0 0 1-2.758 1.393c-.984-.39-1.51-1.482-1.223-2.539l1.968-7.258H4.678c-1.176 0-2.133-.967-2.133-2.156V12.011h-.468C.932 12.011 0 11.071 0 9.913v-3.02c0-1.156.931-2.097 2.077-2.097H24.43V2.09c0-.565.22-1.094.618-1.49.398-.396.927-.61 1.485-.601 1.123.018 2.037.977 2.037 2.137v2.66h22.353c1.145 0 2.077.94 2.077 2.098zm-15.944 38.16h-.985l2.163 7.98a.474.474 0 0 0 .639.317c.218-.089.335-.358.265-.614l-2.082-7.682zm-20.127 0h-.985l-2.083 7.684c-.07.257.048.526.268.614a.475.475 0 0 0 .637-.318zM26.025 2.09v2.705h.95V2.136c0-.28-.214-.522-.467-.526a.476.476 0 0 0-.483.48zm25.38 4.804a.49.49 0 0 0-.482-.487H2.077a.49.49 0 0 0-.482.487v3.019c0 .264.22.486.482.486h48.846a.49.49 0 0 0 .482-.486zM45.93 25.357v.606c0 .486-.166.933-.443 1.289.277.356.443.803.443 1.289v.605c0 .487-.166.934-.443 1.29.277.356.443.802.443 1.289v.606c0 .486-.166.933-.443 1.289.277.355.443.803.443 1.289v.605c0 .487-.166.933-.443 1.29.277.355.443.802.443 1.289v.605c0 1.155-.93 2.095-2.073 2.095h-4.972c-.48 0-.923-.168-1.275-.447a2.048 2.048 0 0 1-1.276.447h-4.971c-.482 0-.924-.168-1.276-.447a2.048 2.048 0 0 1-1.276.447H23.84c-1.144 0-2.073-.94-2.073-2.095v-.605c0-1.155.93-2.096 2.073-2.096h4.97c.194 0 .38.03.557.08a2.104 2.104 0 0 1-.078-.563v-.605c0-.487.167-.933.443-1.29a2.096 2.096 0 0 1-.443-1.288v-.606c0-1.155.93-2.095 2.073-2.095h4.972c.193 0 .379.029.556.079a2.107 2.107 0 0 1-.078-.562v-.606c0-.486.166-.933.442-1.289a2.096 2.096 0 0 1-.442-1.29v-.605c0-1.154.93-2.095 2.073-2.095h4.971c1.143 0 2.073.94 2.074 2.095zm-16.64 12.736a.487.487 0 0 0-.48-.484h-4.97a.487.487 0 0 0-.479.484v.605c0 .262.22.483.479.483h4.97c.26 0 .48-.22.48-.483zm7.522 0a.487.487 0 0 0-.478-.484H31.36a.487.487 0 0 0-.478.484v.605c0 .262.22.483.478.483h4.972c.259 0 .478-.22.478-.483zm0-3.184a.488.488 0 0 0-.478-.484H31.36a.488.488 0 0 0-.478.484v.605c0 .262.22.484.478.484h4.972c.259 0 .478-.222.478-.484zm0-3.184a.487.487 0 0 0-.478-.483H31.36a.487.487 0 0 0-.478.483v.606c0 .262.22.483.478.483h4.972c.259 0 .478-.221.478-.483zm7.523 6.973v-.605a.487.487 0 0 0-.479-.484h-4.97a.487.487 0 0 0-.48.484v.605c0 .262.22.483.48.483h4.97c.26 0 .479-.22.479-.483zm0-3.184v-.605a.487.487 0 0 0-.479-.484h-4.97a.488.488 0 0 0-.48.484v.605c0 .262.22.484.48.484h4.97c.26 0 .479-.222.479-.484zm0-3.183v-.606a.487.487 0 0 0-.479-.483h-4.97a.487.487 0 0 0-.48.483v.606c0 .262.22.483.48.483h4.97c.26 0 .479-.221.479-.483zm0-3.184v-.606a.487.487 0 0 0-.479-.483h-4.97a.487.487 0 0 0-.48.483v.606c0 .262.22.483.48.483h4.97c.26 0 .479-.221.479-.483zm0-3.79a.487.487 0 0 0-.479-.483h-4.97a.487.487 0 0 0-.48.483v.606c0 .262.22.483.48.483h4.97c.26 0 .479-.221.479-.483zm-1.25-7.761a.791.791 0 0 1-1.127 0l-.504-.51v2.797a.802.802 0 0 1-.797.805.802.802 0 0 1-.798-.805v-2.797l-.504.51a.791.791 0 0 1-1.128 0 .811.811 0 0 1 0-1.14l1.866-1.885a.792.792 0 0 1 1.129.001l1.864 1.885a.811.811 0 0 1 0 1.139zm-7.7 7.136a.792.792 0 0 1-1.128 0l-.504-.51v2.796a.802.802 0 0 1-.797.806.802.802 0 0 1-.798-.806v-2.796l-.504.51a.792.792 0 0 1-1.128 0 .812.812 0 0 1 0-1.14l1.866-1.885.008-.008a.792.792 0 0 1 1.12.008l1.865 1.885a.812.812 0 0 1 0 1.14zm-7.702 7.135a.791.791 0 0 1-1.127 0l-.505-.51v2.797a.802.802 0 0 1-.797.806.802.802 0 0 1-.797-.806v-2.796l-.504.51a.791.791 0 0 1-1.128 0 .811.811 0 0 1 0-1.14l1.865-1.885a.792.792 0 0 1 1.129 0l1.864 1.885a.81.81 0 0 1 0 1.14zm-11.549-7.183a.802.802 0 0 1-.797.806h-4.2a.802.802 0 0 1-.798-.806c0-.445.357-.805.797-.805h4.2c.441 0 .798.36.798.805zm2.1 3.991a.801.801 0 0 1-.797.806h-8.4a.801.801 0 0 1-.798-.806c0-.445.357-.806.797-.806h8.401c.44 0 .797.361.797.806zm0 3.992a.801.801 0 0 1-.797.805h-8.4a.801.801 0 0 1-.798-.805c0-.446.357-.806.797-.806h8.401c.44 0 .797.36.797.806zm0 3.99a.802.802 0 0 1-.797.806h-8.4a.802.802 0 0 1-.798-.806c0-.445.357-.805.797-.805h8.401c.44 0 .797.36.797.805z"/></g></g></svg>