<svg xmlns="http://www.w3.org/2000/svg" width="51" height="51" viewBox="0 0 51 51"><g><g><path fill="#51bff7" d="M33.812 39.038a1.05 1.05 0 0 1 .149-.359.957.957 0 0 1 .275-.275.99.99 0 0 1 .747-.148.976.976 0 0 1 .358.148.936.936 0 0 1 .275.275.951.951 0 0 1 .149.359.983.983 0 0 1-.272.898.952.952 0 0 1-.323.216.97.97 0 0 1-.762 0 .97.97 0 0 1-.447-.367.98.98 0 0 1-.149-.359.983.983 0 0 1 0-.388zm-28.632.307l.012-.03c.917-2.146 3.067-2.938 5.612-2.07l6.94 1.92c.4-1.215 1.402-2.25 2.817-2.775l.026-.009 7.628-2.59c.635-.82 2.624-2.92 6.348-2.92 2.602 0 4.904 1.785 6.221 3.731h9.22c.55 0 .996.446.996.997v12.56c0 .55-.446.996-.996.996H44.08a.996.996 0 0 1-.996-.996v-.86h-2.777a.996.996 0 0 1-.996-.997v-.287c-1.62.142-2.152.449-3.639 1.307-1.143.66-2.871 1.656-5.984 3.055a8.941 8.941 0 0 1-3.248.623 7.94 7.94 0 0 1-3.3-.707L7.8 44.8a.932.932 0 0 1-.08-.033c-1.466-.674-3.65-2.575-2.54-5.422zm39.897 7.817h3.93V36.595h-3.93zm-3.773-1.856h1.781v-8.711h-1.781zM8.517 42.94l15.332 5.49a.9.9 0 0 1 .085.035c2.135.982 4.165.394 4.96.085 3.007-1.353 4.612-2.279 5.784-2.955 1.63-.94 2.416-1.393 4.634-1.576v-8.024c-.944-1.548-2.775-3.132-4.75-3.132-3.385 0-4.82 2.202-4.876 2.291a.998.998 0 0 1-.528.422l-7.917 2.687c-1.264.474-1.932 1.558-1.625 2.637.142.499.47.913.922 1.165.45.25.968.312 1.463.175l8.924-2.828a.995.995 0 1 1 .602 1.899l-8.94 2.834-.029.008a3.908 3.908 0 0 1-2.99-.347 3.907 3.907 0 0 1-1.929-2.603l-7.479-2.072c-1.08-.369-2.498-.502-3.13.952-.653 1.707 1.046 2.647 1.487 2.857zm6.717-29.84a.96.96 0 0 1 .15-.359.95.95 0 0 1 .275-.275.998.998 0 0 1 1.257.124.957.957 0 0 1 .215.323.974.974 0 0 1-.092.935.957.957 0 0 1-.275.274.97.97 0 0 1-.358.149 1.014 1.014 0 0 1-.39 0 1.053 1.053 0 0 1-.357-.149.93.93 0 0 1-.275-.275.912.912 0 0 1-.092-.172.94.94 0 0 1-.077-.38c0-.065.006-.131.02-.195zM.996 3.371H6.92c.55 0 .996.447.996.997v.86h2.777c.55 0 .996.446.996.996v.287c1.62-.141 2.152-.448 3.639-1.306 1.143-.66 2.871-1.656 5.984-3.056a.627.627 0 0 1 .044-.018c1.013-.399 3.668-1.183 6.504.102l4.008 1.436 3.38-3.38a.996.996 0 0 1 1.408 0l11.092 11.094a.988.988 0 0 1 0 1.41L28.793 31.748c-.304.303-1.014.395-1.41 0L17.258 21.621a9.484 9.484 0 0 1-.82.035c-2.602 0-4.904-1.785-6.22-3.732H.996A.996.996 0 0 1 0 16.928V4.368c0-.55.446-.997.996-.997zm34.954-.968l-2.27 2.27a4.3 4.3 0 0 0 2.27.641c.816 0 1.596-.223 2.27-.64zm7.414 11.956l2.27-2.272-2.27-2.27a4.3 4.3 0 0 0-.641 2.27c0 .816.223 1.596.64 2.271zM28.088 29.636l2.27-2.27a4.337 4.337 0 0 0-4.54 0zm-3.705-3.706a6.328 6.328 0 0 1 7.41 0L41.93 15.793a6.273 6.273 0 0 1-1.198-3.706c0-1.35.42-2.636 1.198-3.705l-2.273-2.273a6.27 6.27 0 0 1-3.706 1.198 6.27 6.27 0 0 1-3.705-1.198l-2.154 2.154c.464.07.918.222 1.34.458a3.904 3.904 0 0 1 1.624 1.715 5.674 5.674 0 0 1 2.98 1.568 5.686 5.686 0 0 1 0 8.03 5.66 5.66 0 0 1-4.016 1.662 5.66 5.66 0 0 1-4.015-1.661 5.657 5.657 0 0 1-1.477-2.57l-3.363 1.141a6.361 6.361 0 0 1-1.056 5.05zm6.056-9.794l-.026.01-1.992.675a3.69 3.69 0 0 0 6.204 1.805 3.69 3.69 0 0 0-1.2-6.015c-.185 1.53-1.287 2.895-2.986 3.525zm-9.766 6.084a4.356 4.356 0 0 0 .637-2.072 7.75 7.75 0 0 1-1.757.951zm-8.985-5.689c.944 1.548 2.775 3.132 4.75 3.132.369 0 .715-.026 1.039-.073h.003c2.152-.313 3.309-1.536 3.69-2.02.02-.03.107-.143.12-.162a.994.994 0 0 1 .549-.457l7.92-2.688c1.263-.474 1.932-1.557 1.625-2.636v-.002l-.001-.003a1.929 1.929 0 0 0-.921-1.161 1.929 1.929 0 0 0-1.463-.175l-8.924 2.828a.995.995 0 1 1-.602-1.899l7.098-2.25.062-.061.002-.002 3.674-3.675-3.158-1.131a1.496 1.496 0 0 1-.034-.013l-.01-.005-.041-.017c-2.135-.982-4.165-.394-4.96-.085-3.007 1.353-4.612 2.279-5.784 2.955-1.63.94-2.416 1.393-4.634 1.576zm-3.773-.6h1.781v-8.71H7.915zm-5.923 0h3.93V5.365h-3.93z"/></g></g></svg>