<svg width="48" height="48" viewBox="0 0 48 48" fill="none" xmlns="http://www.w3.org/2000/svg">
<circle cx="24" cy="24" r="18.5" stroke="#FFB200" stroke-width="3"/>
<path fill-rule="evenodd" clip-rule="evenodd" d="M26.0347 25.2135C25.921 25.2223 25.3339 25.2584 24.0241 25.2584C22.9824 25.2584 22.2428 25.2262 21.9833 25.2135C17.9576 25.0308 14.9527 24.3081 14.9527 23.4427C14.9527 22.5773 17.9576 21.8555 21.9833 21.67V24.4937C22.2466 24.5132 23.0004 24.5591 24.0421 24.5591C25.2922 24.5591 25.9182 24.5054 26.0309 24.4946V21.6719C30.0481 21.8565 33.0464 22.5793 33.0464 23.4427C33.0464 24.3061 30.0491 25.0289 26.0309 25.2125L26.0347 25.2135ZM26.0347 21.3799V18.8531H31.641V15H16.377V18.8531H21.9824V21.3789C17.4263 21.5948 14 22.5256 14 23.641C14 24.7564 17.4263 25.6862 21.9824 25.903V34H26.0337V25.9001C30.5794 25.6843 34 24.7544 34 23.64C34 22.5256 30.5822 21.5957 26.0337 21.3789L26.0347 21.3799Z" fill="#FFB200"/>
</svg>
