<svg width="34" height="40" viewBox="0 0 34 40" fill="none" xmlns="http://www.w3.org/2000/svg">
<path d="M4.5 0C3.30653 0 2.16193 0.474106 1.31802 1.31802C0.474106 2.16193 0 3.30653 0 4.5V35.5C0 36.6935 0.474106 37.8381 1.31802 38.682C2.16193 39.5259 3.30653 40 4.5 40H19.5C20.6862 40.0001 21.8245 39.5317 22.6672 38.6969C23.5099 37.862 23.9889 36.7282 24 35.542V32.502C24 32.1042 23.842 31.7226 23.5607 31.4413C23.2794 31.16 22.8978 31.002 22.5 31.002C21.592 31.002 21.02 30.756 20.626 30.438C20.21 30.104 19.866 29.588 19.606 28.86C19.06 27.35 19 25.36 19 23.5C19 23.1198 18.8556 22.7538 18.596 22.476L18.268 22.122C18.1601 22.0014 18.0467 21.886 17.928 21.776C17.78 21.636 17.328 21.206 15.56 19.44C14.624 18.502 14.104 17.71 13.934 17.104C13.8658 16.894 13.8555 16.6694 13.904 16.454C13.9786 16.2055 14.1197 15.9821 14.312 15.808C14.4855 15.6158 14.7082 15.4748 14.956 15.4C15.1709 15.3522 15.3948 15.3632 15.604 15.432C16.21 15.602 17.002 16.124 17.94 17.062C19.02 18.142 20.044 19.154 20.962 20.062C22.482 21.566 23.71 22.782 24.402 23.522C24.6733 23.8132 25.0492 23.9847 25.447 23.9988C25.8447 24.0128 26.2318 23.8683 26.523 23.597C26.8142 23.3257 26.9857 22.9498 26.9998 22.552C27.0138 22.1543 26.8693 21.7672 26.598 21.476C25.7461 20.5856 24.8793 19.7094 23.998 18.848V12.12L29.682 17.804C30.526 18.648 31 19.792 31 20.984V38.5C31 38.8978 31.158 39.2794 31.4393 39.5607C31.7206 39.842 32.1022 40 32.5 40C32.8978 40 33.2794 39.842 33.5607 39.5607C33.842 39.2794 34 38.8978 34 38.5V20.986C34.0002 20.001 33.8063 19.0256 33.4296 18.1156C33.0528 17.2055 32.5004 16.3786 31.804 15.682L24 7.878V4.498C23.9995 3.30487 23.5251 2.16079 22.6813 1.31731C21.8374 0.473831 20.6931 -1.1784e-07 19.5 0H4.5ZM16.784 29.88C16.976 30.416 17.226 30.948 17.55 31.444C16.7861 31.8113 16.1415 32.3869 15.6904 33.1044C15.2392 33.822 14.9999 34.6524 15 35.5V37H9V35.5C9 34.3065 8.52589 33.1619 7.68198 32.318C6.83807 31.4741 5.69347 31 4.5 31H3V9H4.5C5.69347 9 6.83807 8.52589 7.68198 7.68198C8.52589 6.83807 9 5.69347 9 4.5V3H15V4.5C15 5.69347 15.4741 6.83807 16.318 7.68198C17.1619 8.52589 18.3065 9 19.5 9H21V15.876L20.06 14.94C19 13.878 17.764 12.924 16.42 12.544C15.7015 12.3312 14.9393 12.314 14.212 12.494C13.7608 12.6109 13.3327 12.8036 12.946 13.064C11.8152 12.9098 10.6639 13.0343 9.59233 13.4268C8.52074 13.8194 7.56136 14.4679 6.79776 15.3161C6.03417 16.1642 5.48951 17.1861 5.21124 18.2929C4.93297 19.3997 4.92951 20.5577 5.20119 21.6661C5.47286 22.7746 6.01141 23.7997 6.76994 24.6524C7.52846 25.5051 8.48396 26.1593 9.5532 26.5582C10.6224 26.9571 11.773 27.0886 12.9046 26.9411C14.0363 26.7936 15.1147 26.3716 16.046 25.712C16.122 27.08 16.308 28.566 16.784 29.88ZM8 20C7.9997 19.1289 8.28374 18.2816 8.80897 17.5867C9.3342 16.8918 10.0719 16.3874 10.91 16.15C10.8329 16.7417 10.8792 17.343 11.046 17.916C11.426 19.262 12.376 20.498 13.44 21.562L14.77 22.886C14.2043 23.4291 13.4914 23.7938 12.72 23.935C11.9486 24.0761 11.1528 23.9875 10.4314 23.6799C9.71003 23.3724 9.09496 22.8596 8.66267 22.2054C8.23038 21.5511 7.99994 20.7842 8 20ZM3 4.5C3 4.10218 3.15804 3.72064 3.43934 3.43934C3.72064 3.15804 4.10218 3 4.5 3H6V4.5C6 4.89782 5.84196 5.27936 5.56066 5.56066C5.27936 5.84196 4.89782 6 4.5 6H3V4.5ZM18 3H19.5C19.8978 3 20.2794 3.15804 20.5607 3.43934C20.842 3.72064 21 4.10218 21 4.5V6H19.5C19.1022 6 18.7206 5.84196 18.4393 5.56066C18.158 5.27936 18 4.89782 18 4.5V3ZM21 34V35.5C21 35.8978 20.842 36.2794 20.5607 36.5607C20.2794 36.842 19.8978 37 19.5 37H18V35.5C18 35.1022 18.158 34.7206 18.4393 34.4393C18.7206 34.158 19.1022 34 19.5 34H21ZM6 37H4.5C4.10218 37 3.72064 36.842 3.43934 36.5607C3.15804 36.2794 3 35.8978 3 35.5V34H4.5C4.89782 34 5.27936 34.158 5.56066 34.4393C5.84196 34.7206 6 35.1022 6 35.5V37Z" fill="#FFB200"/>
</svg>
