<svg xmlns="http://www.w3.org/2000/svg" width="18" height="13" viewBox="0 0 18 13"><g><g><path fill="#51bff7" d="M18 4.9V8.1c0 2.028-.312 3.199-1.042 3.916-.712.7-1.813.985-3.8.985H4.842C.749 13 0 11.35 0 8.099V4.9c0-1.678 0-2.89.631-3.713C1.278.344 2.498 0 4.841 0h8.317c2.291 0 3.49.323 4.14 1.116.653.796.702 2.016.702 3.785zm-6.132 1.513a.598.598 0 0 0-.313-.529L7.778 3.872a.567.567 0 0 0-.569.02.6.6 0 0 0-.279.51v4.037a.6.6 0 0 0 .28.51.568.568 0 0 0 .57.018l3.776-2.025a.598.598 0 0 0 .312-.53z"/></g></g></svg>